M48
; DRILL file {KiCad (5.1.5)-3} date 08/01/2022 01:18:18
; FORMAT={-:-/ absolute / metric / decimal}
; #@! TF.CreationDate,2022-01-08T01:18:18+01:00
; #@! TF.GenerationSoftware,Kicad,Pcbnew,(5.1.5)-3
; #@! TF.FileFunction,Plated,1,6,PTH
FMAT,2
METRIC
T1C0.250
T2C0.300
T3C0.400
T4C0.500
T5C0.780
T6C1.350
T7C3.200
%
G90
G05
T1
X27.15Y2.965
X27.824Y2.965
X28.326Y2.965
X28.899Y0.24
X29.025Y2.965
X29.401Y0.24
X31.3Y-39.26
X31.949Y-39.26
X32.0Y-6.785
X32.399Y-6.235
X32.451Y-39.26
X32.901Y-6.235
X33.175Y-39.26
X33.275Y-38.06
X33.3Y-6.785
X33.399Y0.24
X33.9Y3.14
X33.901Y0.24
X33.949Y-38.06
X34.451Y-38.06
X34.564Y3.14
X35.066Y3.14
X35.15Y-38.06
X35.775Y3.14
X36.275Y-39.285
X36.949Y-39.285
X37.451Y-39.285
X38.15Y-39.285
X38.25Y-38.085
X38.3Y-10.735
X38.772Y-10.288
X38.949Y-38.085
X39.128Y-9.932
X39.451Y-38.085
X39.625Y-9.485
X40.125Y-38.085
X40.275Y-39.36
X40.949Y-39.36
X41.451Y-39.36
X41.65Y-29.385
X42.15Y-39.36
X42.25Y-38.16
X42.274Y-29.385
X42.776Y-29.385
X42.949Y-38.135
X43.451Y-38.135
X43.525Y-29.385
X44.125Y-38.16
X44.275Y-39.41
X44.949Y-39.41
X45.451Y-39.41
X46.15Y-39.41
X46.275Y-38.16
X46.949Y-38.16
X47.451Y-38.16
X48.15Y-38.16
X49.0Y-7.06
X49.422Y-7.532
X49.778Y-7.888
X50.25Y-8.385
X50.25Y-39.585
X50.949Y-39.585
X51.451Y-39.585
X52.125Y-39.585
X52.15Y2.965
X52.275Y-38.335
X52.824Y2.965
X52.949Y-38.335
X53.326Y2.965
X53.451Y-38.335
X53.899Y0.24
X54.025Y2.965
X54.15Y-38.335
X54.275Y-39.56
X54.401Y0.24
X54.949Y-39.56
X55.451Y-39.56
X56.15Y-39.56
X56.275Y-38.335
X56.949Y-38.335
X57.0Y-6.86
X57.399Y-6.285
X57.451Y-38.335
X57.901Y-6.285
X58.15Y-38.335
X58.275Y-39.56
X58.3Y-6.86
X58.399Y0.24
X58.875Y3.14
X58.901Y0.24
X58.949Y-39.56
X59.451Y-39.56
X59.564Y3.14
X60.066Y3.14
X60.15Y-39.56
X60.275Y-38.385
X60.75Y3.14
X60.949Y-38.385
X61.451Y-38.385
X62.15Y-38.385
X62.275Y-39.46
X62.949Y-39.46
X63.451Y-39.46
X64.15Y-39.46
X64.275Y-38.36
X64.949Y-38.36
X65.451Y-38.36
X66.15Y-38.36
T2
X4.325Y-18.385
X5.525Y-9.535
X6.5Y16.915
X6.5Y15.665
X6.5Y14.415
X6.5Y13.165
X6.5Y11.915
X6.5Y10.665
X6.5Y9.415
X6.5Y8.165
X7.275Y-9.31
X7.5Y16.915
X7.5Y15.665
X7.5Y14.415
X7.5Y13.165
X7.5Y11.915
X7.5Y10.665
X7.5Y9.415
X7.5Y8.165
X7.975Y-20.56
X8.5Y16.915
X8.5Y15.665
X8.5Y14.415
X8.5Y13.165
X8.5Y11.915
X8.5Y10.665
X8.5Y9.415
X8.5Y8.165
X9.5Y16.915
X9.5Y15.665
X9.5Y14.415
X9.5Y13.165
X9.5Y11.915
X9.5Y10.665
X9.5Y9.415
X9.5Y8.165
X10.5Y16.915
X10.5Y15.665
X10.5Y14.415
X10.5Y13.165
X10.5Y11.915
X10.5Y10.665
X10.5Y9.415
X10.5Y8.165
X11.5Y16.915
X11.5Y15.665
X11.5Y14.415
X11.5Y13.165
X11.5Y11.915
X11.5Y10.665
X11.5Y9.415
X11.5Y8.165
X13.775Y-17.535
X15.375Y-18.435
X16.6Y-42.335
X17.35Y28.09
X17.6Y13.265
X17.625Y-33.135
X17.625Y-34.135
X17.625Y-35.135
X17.625Y-36.135
X17.625Y-37.135
X17.625Y-38.135
X17.625Y-39.135
X17.625Y-40.135
X18.6Y28.09
X18.6Y17.265
X18.6Y16.265
X18.625Y-33.135
X18.625Y-34.135
X18.625Y-35.135
X18.625Y-36.135
X18.625Y-37.135
X18.625Y-38.135
X18.625Y-39.135
X18.625Y-40.135
X18.925Y12.415
X18.925Y11.165
X18.925Y9.915
X19.85Y28.09
X20.175Y12.415
X20.175Y11.165
X20.175Y9.915
X21.1Y28.09
X21.35Y17.265
X21.35Y16.265
X21.425Y12.415
X21.425Y11.165
X21.425Y9.915
X22.35Y28.09
X22.5Y17.24
X22.5Y16.24
X22.675Y12.415
X22.675Y11.165
X22.675Y9.915
X23.5Y17.24
X23.5Y16.24
X23.525Y-0.91
X23.775Y-34.71
X23.775Y-35.96
X23.775Y-37.21
X23.775Y-38.46
X23.775Y-39.71
X23.775Y-40.96
X23.925Y12.415
X23.925Y11.165
X23.925Y9.915
X24.5Y17.24
X24.5Y16.24
X25.125Y1.64
X25.35Y-10.235
X25.4Y-34.985
X25.4Y-36.235
X25.4Y-37.485
X25.4Y-38.735
X26.25Y-8.535
X27.375Y17.215
X27.375Y16.215
X28.375Y17.215
X28.375Y16.215
X28.39Y-0.335
X28.91Y-5.185
X29.375Y17.215
X29.375Y16.215
X29.89Y-0.335
X30.4Y1.215
X30.41Y-5.185
X30.95Y4.64
X31.175Y0.74
X31.39Y-0.335
X31.825Y7.64
X31.91Y-5.185
X32.075Y-9.485
X32.675Y5.015
X32.775Y18.815
X32.775Y17.565
X32.775Y16.315
X32.775Y15.065
X32.775Y13.815
X32.89Y-0.335
X33.41Y-5.185
X34.39Y-0.335
X34.91Y-5.185
X35.2Y17.99
X35.475Y15.14
X35.5Y16.315
X37.2Y-10.76
X37.675Y1.665
X37.7Y14.74
X38.675Y-23.335
X38.675Y-24.335
X38.7Y12.89
X39.05Y-5.285
X39.7Y-22.335
X39.7Y-23.335
X39.7Y-24.335
X39.7Y-25.335
X39.975Y-3.285
X39.975Y-4.285
X39.975Y-5.285
X39.975Y-6.285
X40.025Y-1.21
X40.3Y3.34
X40.725Y-24.335
X40.925Y-19.26
X40.95Y-22.06
X40.975Y-2.285
X40.975Y-3.285
X40.975Y-4.285
X40.975Y-5.285
X40.975Y-6.285
X40.975Y-17.335
X41.975Y-2.285
X41.975Y-3.285
X41.975Y-4.285
X41.975Y-5.285
X41.975Y-6.285
X42.1Y-22.06
X42.125Y-19.235
X43.25Y-22.06
X43.275Y-19.685
X44.8Y-4.06
X44.8Y-5.06
X44.8Y-6.06
X44.825Y-29.66
X45.325Y-19.935
X45.325Y-26.31
X45.8Y-4.06
X45.8Y-5.06
X45.8Y-6.06
X45.825Y-29.66
X46.05Y-22.16
X46.05Y-23.16
X46.05Y-24.16
X46.475Y-26.71
X46.8Y-4.06
X46.8Y-5.06
X46.8Y-6.06
X46.8Y-18.735
X46.8Y-19.51
X46.825Y-16.81
X46.825Y-29.66
X46.95Y8.915
X47.05Y-22.16
X47.05Y-23.16
X47.05Y-24.16
X47.525Y-26.735
X47.825Y-29.66
X48.0Y-2.685
X48.05Y-22.16
X48.05Y-23.16
X48.05Y-24.16
X48.8Y-19.885
X48.825Y-29.66
X49.2Y-26.685
X49.35Y-19.41
X49.45Y-25.785
X49.6Y-20.535
X49.775Y0.715
X49.825Y-29.66
X50.55Y-21.035
X50.825Y-23.76
X51.025Y-17.81
X51.275Y-8.585
X52.225Y-22.685
X52.325Y7.365
X52.55Y-20.835
X52.8Y-25.06
X53.39Y-0.335
X53.45Y-23.285
X53.91Y-5.185
X54.89Y-0.335
X55.4Y1.59
X55.41Y-5.185
X56.15Y0.915
X56.39Y-0.335
X56.91Y-5.185
X57.55Y-7.96
X57.89Y-0.335
X58.41Y-5.185
X59.39Y-0.335
X59.91Y-5.185
X62.75Y1.715
X64.775Y-7.785
X65.05Y-0.735
X65.175Y-5.46
X66.85Y-39.585
X66.875Y-40.685
X99.7Y-40.61
X99.75Y-39.21
T3
X4.1Y-22.785
X4.35Y-11.385
X5.65Y-11.385
X5.95Y-15.985
X6.65Y-25.385
X6.95Y-11.385
X7.975Y-25.435
X8.25Y-11.385
X9.3Y-25.435
X9.55Y-11.385
X10.3Y-24.585
X10.85Y-11.385
X14.35Y-19.985
X14.8Y-24.585
X15.625Y-13.135
X15.625Y-14.535
X15.625Y-15.985
X17.8Y-24.585
X19.85Y-43.085
X22.35Y-43.085
X30.45Y-43.085
X33.2Y-43.085
X35.7Y-43.085
X38.2Y-43.085
X40.2Y-43.085
X42.2Y-43.085
X44.2Y-43.085
X46.2Y-43.085
X49.2Y-43.085
X50.825Y-25.835
X52.2Y-43.085
X54.2Y-43.085
X56.2Y-43.085
X58.2Y-43.085
X60.2Y-43.085
X62.2Y-43.085
X64.2Y-43.085
X66.7Y-43.085
X69.2Y-43.085
X71.2Y-43.085
X73.2Y-43.085
X75.2Y-43.085
X77.2Y-43.085
X79.2Y-43.085
X81.2Y-43.085
X83.2Y-43.085
X85.2Y-43.085
X87.2Y-43.085
X89.2Y-43.085
X91.2Y-43.085
X93.2Y-43.085
X95.2Y-43.085
X97.2Y-43.085
X99.7Y-43.085
X102.2Y-43.085
X104.2Y-43.085
X106.2Y-43.085
X108.2Y-43.085
X110.2Y-43.085
X112.2Y-43.085
X114.2Y-43.085
X116.2Y-43.085
X118.2Y-43.085
X120.2Y-43.085
X122.2Y-43.085
X124.2Y-43.085
X126.2Y-43.085
X128.2Y-43.085
X130.2Y-43.085
X134.1Y-30.385
T4
X131.5Y0.0
X132.203Y1.697
X132.203Y-1.697
X133.9Y2.4
X133.9Y-2.4
X135.597Y1.697
X135.597Y-1.697
X136.3Y0.0
X-2.4Y0.0
X-1.697Y1.697
X-1.697Y-1.697
X0.0Y2.4
X0.0Y-2.4
X1.697Y1.697
X1.697Y-1.697
X2.4Y0.0
T5
X27.09Y25.415
X27.09Y22.915
X28.09Y27.415
X28.09Y20.915
X29.09Y25.415
X29.09Y22.915
X30.09Y27.415
X30.09Y20.915
X31.09Y25.415
X31.09Y22.915
X32.09Y27.415
X32.09Y20.915
X33.09Y25.415
X33.09Y22.915
X34.09Y27.415
X34.09Y20.915
X35.09Y25.415
X35.09Y22.915
X36.09Y27.415
X36.09Y20.915
X37.09Y25.415
X37.09Y22.915
X40.09Y27.415
X40.09Y20.915
X41.09Y25.415
X41.09Y22.915
X42.09Y27.415
X42.09Y20.915
X43.09Y25.415
X43.09Y22.915
X44.09Y27.415
X44.09Y20.915
X45.09Y25.415
X45.09Y22.915
X46.09Y27.415
X46.09Y20.915
X47.09Y25.415
X47.09Y22.915
X48.09Y27.415
X48.09Y20.915
X49.09Y25.415
X49.09Y22.915
X50.09Y27.415
X50.09Y20.915
X51.09Y25.415
X51.09Y22.915
X52.09Y27.415
X52.09Y20.915
X53.09Y25.415
X53.09Y22.915
X54.09Y27.415
X54.09Y20.915
X55.09Y25.415
X55.09Y22.915
X56.09Y27.415
X56.09Y20.915
X57.09Y25.415
X57.09Y22.915
X58.09Y27.415
X58.09Y20.915
X59.09Y25.415
X59.09Y22.915
X60.09Y27.415
X60.09Y20.915
X61.09Y25.415
X61.09Y22.915
X62.09Y27.415
X62.09Y20.915
X63.09Y25.415
X63.09Y22.915
X64.09Y27.415
X64.09Y20.915
X65.09Y25.415
X65.09Y22.915
X66.09Y27.415
X66.09Y20.915
X67.09Y25.415
X67.09Y22.915
X68.09Y27.415
X68.09Y20.915
X69.09Y25.415
X69.09Y22.915
X70.09Y27.415
X70.09Y20.915
X71.09Y25.415
X71.09Y22.915
X72.09Y27.415
X72.09Y20.915
X73.09Y25.415
X73.09Y22.915
X74.09Y27.415
X74.09Y20.915
X75.09Y25.415
X75.09Y22.915
X76.09Y27.415
X76.09Y20.915
X77.09Y25.415
X77.09Y22.915
X78.09Y27.415
X78.09Y20.915
X79.09Y25.415
X79.09Y22.915
X80.09Y27.415
X80.09Y20.915
X81.09Y25.415
X81.09Y22.915
X82.09Y27.415
X82.09Y20.915
X83.09Y25.415
X83.09Y22.915
X84.09Y27.415
X84.09Y20.915
X85.09Y25.415
X85.09Y22.915
X86.09Y27.415
X86.09Y20.915
X87.09Y25.415
X87.09Y22.915
X88.09Y27.415
X88.09Y20.915
X89.09Y25.415
X89.09Y22.915
X90.09Y27.415
X90.09Y20.915
X91.09Y25.415
X91.09Y22.915
X92.09Y27.415
X92.09Y20.915
X93.09Y25.415
X93.09Y22.915
X94.09Y27.415
X94.09Y20.915
X95.09Y25.415
X95.09Y22.915
X96.09Y27.415
X96.09Y20.915
X97.09Y25.415
X97.09Y22.915
X98.09Y27.415
X98.09Y20.915
X99.09Y25.415
X99.09Y22.915
X100.09Y27.415
X100.09Y20.915
X101.09Y25.415
X101.09Y22.915
X102.09Y27.415
X102.09Y20.915
X103.09Y25.415
X103.09Y22.915
X104.09Y27.415
X104.09Y20.915
X105.09Y25.415
X105.09Y22.915
X106.09Y27.415
X106.09Y20.915
X107.09Y25.415
X107.09Y22.915
X108.09Y27.415
X108.09Y20.915
X109.09Y25.415
X109.09Y22.915
X110.09Y27.415
X110.09Y20.915
T6
X25.07Y-2.53
X38.23Y-2.53
X50.07Y-2.47
X63.23Y-2.47
T7
X133.9Y0.0
X0.0Y0.0
T0
M30
