%TF.GenerationSoftware,KiCad,Pcbnew,(5.1.5)-3*%
%TF.CreationDate,2022-01-08T01:18:32+01:00*%
%TF.ProjectId,Riser Leopard 2OU PCIe x16 2xOculink,52697365-7220-44c6-956f-706172642032,rev?*%
%TF.SameCoordinates,PX459e440PY54cbc38*%
%TF.FileFunction,Copper,L1,Top*%
%TF.FilePolarity,Positive*%
%FSLAX46Y46*%
G04 Gerber Fmt 4.6, Leading zero omitted, Abs format (unit mm)*
G04 Created by KiCad (PCBNEW (5.1.5)-3) date 2022-01-08 01:18:32*
%MOMM*%
%LPD*%
G04 APERTURE LIST*
%TA.AperFunction,ComponentPad*%
%ADD10C,0.800000*%
%TD*%
%TA.AperFunction,ComponentPad*%
%ADD11C,6.400000*%
%TD*%
%TA.AperFunction,SMDPad,CuDef*%
%ADD12R,0.800000X4.200000*%
%TD*%
%TA.AperFunction,SMDPad,CuDef*%
%ADD13R,1.600000X2.800000*%
%TD*%
%TA.AperFunction,SMDPad,CuDef*%
%ADD14R,0.600000X0.500000*%
%TD*%
%TA.AperFunction,SMDPad,CuDef*%
%ADD15R,0.750000X0.800000*%
%TD*%
%TA.AperFunction,SMDPad,CuDef*%
%ADD16R,0.500000X0.600000*%
%TD*%
%TA.AperFunction,SMDPad,CuDef*%
%ADD17R,0.350000X0.300000*%
%TD*%
%TA.AperFunction,SMDPad,CuDef*%
%ADD18R,0.300000X0.350000*%
%TD*%
%TA.AperFunction,WasherPad*%
%ADD19C,2.600000*%
%TD*%
%TA.AperFunction,ComponentPad*%
%ADD20R,1.100000X1.100000*%
%TD*%
%TA.AperFunction,ComponentPad*%
%ADD21C,1.100000*%
%TD*%
%TA.AperFunction,SMDPad,CuDef*%
%ADD22R,0.310000X1.400000*%
%TD*%
%TA.AperFunction,ComponentPad*%
%ADD23C,1.500000*%
%TD*%
%TA.AperFunction,WasherPad*%
%ADD24C,1.150000*%
%TD*%
%TA.AperFunction,SMDPad,CuDef*%
%ADD25R,1.200000X1.800000*%
%TD*%
%TA.AperFunction,SMDPad,CuDef*%
%ADD26R,0.600000X0.400000*%
%TD*%
%TA.AperFunction,SMDPad,CuDef*%
%ADD27R,0.400000X0.600000*%
%TD*%
%TA.AperFunction,BGAPad,CuDef*%
%ADD28C,0.500000*%
%TD*%
%TA.AperFunction,SMDPad,CuDef*%
%ADD29R,0.450000X1.450000*%
%TD*%
%TA.AperFunction,SMDPad,CuDef*%
%ADD30R,1.550000X1.550000*%
%TD*%
%TA.AperFunction,SMDPad,CuDef*%
%ADD31R,0.600000X0.250000*%
%TD*%
%TA.AperFunction,SMDPad,CuDef*%
%ADD32R,0.250000X0.600000*%
%TD*%
%TA.AperFunction,ViaPad*%
%ADD33C,0.400000*%
%TD*%
%TA.AperFunction,ViaPad*%
%ADD34C,0.500000*%
%TD*%
%TA.AperFunction,ViaPad*%
%ADD35C,0.600000*%
%TD*%
%TA.AperFunction,ViaPad*%
%ADD36C,0.350000*%
%TD*%
%TA.AperFunction,Conductor*%
%ADD37C,0.300000*%
%TD*%
%TA.AperFunction,Conductor*%
%ADD38C,0.250000*%
%TD*%
%TA.AperFunction,Conductor*%
%ADD39C,0.400000*%
%TD*%
%TA.AperFunction,Conductor*%
%ADD40C,0.200000*%
%TD*%
%TA.AperFunction,Conductor*%
%ADD41C,0.152400*%
%TD*%
%TA.AperFunction,Conductor*%
%ADD42C,0.127000*%
%TD*%
%TA.AperFunction,Conductor*%
%ADD43C,0.254000*%
%TD*%
G04 APERTURE END LIST*
D10*
%TO.P,H1,1*%
%TO.N,GND*%
X1697056Y1697056D03*
X0Y2400000D03*
X-1697056Y1697056D03*
X-2400000Y0D03*
X-1697056Y-1697056D03*
X0Y-2400000D03*
X1697056Y-1697056D03*
X2400000Y0D03*
D11*
X0Y0D03*
%TD*%
%TO.P,H2,1*%
%TO.N,GND*%
X133900000Y0D03*
D10*
X136300000Y0D03*
X135597056Y-1697056D03*
X133900000Y-2400000D03*
X132202944Y-1697056D03*
X131500000Y0D03*
X132202944Y1697056D03*
X133900000Y2400000D03*
X135597056Y1697056D03*
%TD*%
D12*
%TO.P,J1,B57*%
%TO.N,GND*%
X74700000Y-46085000D03*
%TO.P,J1,B60*%
X77700000Y-46085000D03*
%TO.P,J1,B68*%
X85700000Y-46085000D03*
%TO.P,J1,B80*%
X97700000Y-46085000D03*
%TO.P,J1,B69*%
X86700000Y-46085000D03*
%TO.P,J1,B72*%
X89700000Y-46085000D03*
%TO.P,J1,B56*%
X73700000Y-46085000D03*
%TO.P,J1,B63*%
%TO.N,/CPU0_TX3-*%
X80700000Y-46085000D03*
%TO.P,J1,B74*%
%TO.N,/CPU0_TX6+*%
X91700000Y-46085000D03*
%TO.P,J1,B76*%
%TO.N,GND*%
X93700000Y-46085000D03*
%TO.P,J1,B64*%
X81700000Y-46085000D03*
%TO.P,J1,B58*%
%TO.N,/CPU0_TX2+*%
X75700000Y-46085000D03*
%TO.P,J1,B70*%
%TO.N,/CPU0_TX5+*%
X87700000Y-46085000D03*
%TO.P,J1,B77*%
%TO.N,GND*%
X94700000Y-46085000D03*
%TO.P,J1,B78*%
%TO.N,/CPU0_TX7+*%
X95700000Y-46085000D03*
%TO.P,J1,B67*%
%TO.N,/CPU0_TX4-*%
X84700000Y-46085000D03*
%TO.P,J1,B73*%
%TO.N,GND*%
X90700000Y-46085000D03*
%TO.P,J1,B66*%
%TO.N,/CPU0_TX4+*%
X83700000Y-46085000D03*
%TO.P,J1,B62*%
%TO.N,/CPU0_TX3+*%
X79700000Y-46085000D03*
%TO.P,J1,B59*%
%TO.N,/CPU0_TX2-*%
X76700000Y-46085000D03*
%TO.P,J1,B65*%
%TO.N,GND*%
X82700000Y-46085000D03*
%TO.P,J1,B82*%
X99700000Y-46085000D03*
%TO.P,J1,B81*%
%TO.N,/PCIE_SLOT1_PRSNT_x8*%
X98700000Y-46085000D03*
%TO.P,J1,B71*%
%TO.N,/CPU0_TX5-*%
X88700000Y-46085000D03*
%TO.P,J1,B61*%
%TO.N,GND*%
X78700000Y-46085000D03*
%TO.P,J1,B75*%
%TO.N,/CPU0_TX6-*%
X92700000Y-46085000D03*
%TO.P,J1,B79*%
%TO.N,/CPU0_TX7-*%
X96700000Y-46085000D03*
%TO.P,J1,B55*%
%TO.N,/CPU0_TX1-*%
X72700000Y-46085000D03*
%TO.P,J1,B47*%
%TO.N,GND*%
X64700000Y-46085000D03*
%TO.P,J1,B41*%
%TO.N,/Oculink_1_x4_TX2+*%
X58700000Y-46085000D03*
%TO.P,J1,B43*%
%TO.N,GND*%
X60700000Y-46085000D03*
%TO.P,J1,B39*%
X56700000Y-46085000D03*
%TO.P,J1,B33*%
%TO.N,/Oculink_1_x4_TX0+*%
X50700000Y-46085000D03*
%TO.P,J1,B31*%
%TO.N,Net-(J1-PadB31)*%
X48700000Y-46085000D03*
%TO.P,J1,B23*%
%TO.N,/Oculink_0_x4_TX2+*%
X40700000Y-46085000D03*
%TO.P,J1,B38*%
%TO.N,/Oculink_1_x4_TX1-*%
X55700000Y-46085000D03*
%TO.P,J1,B29*%
%TO.N,GND*%
X46700000Y-46085000D03*
%TO.P,J1,B25*%
X42700000Y-46085000D03*
%TO.P,J1,B37*%
%TO.N,/Oculink_1_x4_TX1+*%
X54700000Y-46085000D03*
%TO.P,J1,B27*%
%TO.N,/Oculink_0_x4_TX3+*%
X44700000Y-46085000D03*
%TO.P,J1,B24*%
%TO.N,/Oculink_0_x4_TX2-*%
X41700000Y-46085000D03*
%TO.P,J1,B35*%
%TO.N,GND*%
X52700000Y-46085000D03*
%TO.P,J1,B54*%
%TO.N,/CPU0_TX1+*%
X71700000Y-46085000D03*
%TO.P,J1,B53*%
%TO.N,GND*%
X70700000Y-46085000D03*
%TO.P,J1,B52*%
X69700000Y-46085000D03*
%TO.P,J1,B51*%
%TO.N,/CPU0_TX0-*%
X68700000Y-46085000D03*
%TO.P,J1,B42*%
%TO.N,/Oculink_1_x4_TX2-*%
X59700000Y-46085000D03*
%TO.P,J1,B40*%
%TO.N,GND*%
X57700000Y-46085000D03*
%TO.P,J1,B34*%
%TO.N,/Oculink_1_x4_TX0-*%
X51700000Y-46085000D03*
%TO.P,J1,B32*%
%TO.N,GND*%
X49700000Y-46085000D03*
%TO.P,J1,B49*%
X66700000Y-46085000D03*
%TO.P,J1,B50*%
%TO.N,/CPU0_TX0+*%
X67700000Y-46085000D03*
%TO.P,J1,B28*%
%TO.N,/Oculink_0_x4_TX3-*%
X45700000Y-46085000D03*
%TO.P,J1,B44*%
%TO.N,GND*%
X61700000Y-46085000D03*
%TO.P,J1,B36*%
X53700000Y-46085000D03*
%TO.P,J1,B26*%
X43700000Y-46085000D03*
%TO.P,J1,B48*%
%TO.N,/PCIE_SLOT1_PRSNT_x1x4*%
X65700000Y-46085000D03*
%TO.P,J1,B30*%
%TO.N,GND*%
X47700000Y-46085000D03*
%TO.P,J1,B46*%
%TO.N,/Oculink_1_x4_TX3-*%
X63700000Y-46085000D03*
%TO.P,J1,B45*%
%TO.N,/Oculink_1_x4_TX3+*%
X62700000Y-46085000D03*
%TO.P,J1,B12*%
%TO.N,/LAN_SMB_ALERT_N*%
X29700000Y-46085000D03*
%TO.P,J1,B1*%
%TO.N,+12V*%
X16600000Y-46085000D03*
%TO.P,J1,B19*%
%TO.N,/Oculink_0_x4_TX1+*%
X36700000Y-46085000D03*
%TO.P,J1,B18*%
%TO.N,GND*%
X35700000Y-46085000D03*
%TO.P,J1,B17*%
%TO.N,/PCIE_SLOT0_PRSNT_x4*%
X34700000Y-46085000D03*
%TO.P,J1,B16*%
%TO.N,GND*%
X33700000Y-46085000D03*
%TO.P,J1,B14*%
%TO.N,/Oculink_0_x4_TX0+*%
X31700000Y-46085000D03*
%TO.P,J1,B13*%
%TO.N,GND*%
X30700000Y-46085000D03*
%TO.P,J1,B22*%
X39700000Y-46085000D03*
%TO.P,J1,B21*%
X38700000Y-46085000D03*
%TO.P,J1,B15*%
%TO.N,/Oculink_0_x4_TX0-*%
X32700000Y-46085000D03*
%TO.P,J1,B20*%
%TO.N,/Oculink_0_x4_TX1-*%
X37700000Y-46085000D03*
%TO.P,J1,B6*%
%TO.N,/SMB_DATA*%
X21600000Y-46085000D03*
%TO.P,J1,B9*%
%TO.N,/LAN_SMB_CLK*%
X24600000Y-46085000D03*
%TO.P,J1,B8*%
%TO.N,+3V3*%
X23600000Y-46085000D03*
%TO.P,J1,B4*%
%TO.N,GND*%
X19600000Y-46085000D03*
%TO.P,J1,B7*%
X22600000Y-46085000D03*
%TO.P,J1,B5*%
%TO.N,/SMB_CLK*%
X20600000Y-46085000D03*
%TO.P,J1,B10*%
%TO.N,+3.3Vaux*%
X25600000Y-46085000D03*
%TO.P,J1,B11*%
%TO.N,/IRQ_LVC_WAKE_N*%
X26600000Y-46085000D03*
%TO.P,J1,B2*%
%TO.N,+12V*%
X17600000Y-46085000D03*
%TO.P,J1,B3*%
X18600000Y-46085000D03*
%TO.P,J1,B83*%
%TO.N,/CPU0_TX8+*%
X100700000Y-46085000D03*
%TO.P,J1,B84*%
%TO.N,/CPU0_TX8-*%
X101700000Y-46085000D03*
%TO.P,J1,B85*%
%TO.N,GND*%
X102700000Y-46085000D03*
%TO.P,J1,B86*%
X103700000Y-46085000D03*
%TO.P,J1,B87*%
%TO.N,/CPU0_TX9+*%
X104700000Y-46085000D03*
%TO.P,J1,B88*%
%TO.N,/CPU0_TX9-*%
X105700000Y-46085000D03*
%TO.P,J1,B89*%
%TO.N,GND*%
X106700000Y-46085000D03*
%TO.P,J1,B90*%
X107700000Y-46085000D03*
%TO.P,J1,B91*%
%TO.N,/CPU0_TX10+*%
X108700000Y-46085000D03*
%TO.P,J1,B92*%
%TO.N,/CPU0_TX10-*%
X109700000Y-46085000D03*
%TO.P,J1,B93*%
%TO.N,GND*%
X110700000Y-46085000D03*
%TO.P,J1,B94*%
X111700000Y-46085000D03*
%TO.P,J1,B95*%
%TO.N,/CPU0_TX11+*%
X112700000Y-46085000D03*
%TO.P,J1,B96*%
%TO.N,/CPU0_TX11-*%
X113700000Y-46085000D03*
%TO.P,J1,B97*%
%TO.N,GND*%
X114700000Y-46085000D03*
%TO.P,J1,B98*%
X115700000Y-46085000D03*
%TO.P,J1,B99*%
%TO.N,/CPU0_TX12+*%
X116700000Y-46085000D03*
%TO.P,J1,B100*%
%TO.N,/CPU0_TX12-*%
X117700000Y-46085000D03*
%TO.P,J1,B101*%
%TO.N,GND*%
X118700000Y-46085000D03*
%TO.P,J1,B102*%
X119700000Y-46085000D03*
%TO.P,J1,B103*%
%TO.N,/CPU0_TX13+*%
X120700000Y-46085000D03*
%TO.P,J1,B104*%
%TO.N,/CPU0_TX13-*%
X121700000Y-46085000D03*
%TO.P,J1,B105*%
%TO.N,GND*%
X122700000Y-46085000D03*
%TO.P,J1,B106*%
X123700000Y-46085000D03*
%TO.P,J1,B107*%
%TO.N,/CPU0_TX14+*%
X124700000Y-46085000D03*
%TO.P,J1,B108*%
%TO.N,/CPU0_TX14-*%
X125700000Y-46085000D03*
%TO.P,J1,B109*%
%TO.N,GND*%
X126700000Y-46085000D03*
%TO.P,J1,B110*%
X127700000Y-46085000D03*
%TO.P,J1,B111*%
%TO.N,/CPU0_TX15+*%
X128700000Y-46085000D03*
%TO.P,J1,B112*%
%TO.N,/CPU0_TX15-*%
X129700000Y-46085000D03*
%TO.P,J1,B113*%
%TO.N,GND*%
X130700000Y-46085000D03*
%TO.P,J1,B114*%
%TO.N,Net-(J1-PadB114)*%
X131700000Y-46085000D03*
%TO.P,J1,B115*%
%TO.N,/PCIE_SLOT1_PRSNT_x16*%
X132700000Y-46085000D03*
%TD*%
D13*
%TO.P,C1,1*%
%TO.N,+3V3*%
X25875000Y12990000D03*
%TO.P,C1,2*%
%TO.N,GND*%
X25875000Y16790000D03*
%TD*%
D14*
%TO.P,C2,2*%
%TO.N,GND*%
X30450000Y15690000D03*
%TO.P,C2,1*%
%TO.N,+3V3*%
X31550000Y15690000D03*
%TD*%
%TO.P,C3,1*%
%TO.N,+3V3*%
X31540000Y16890000D03*
%TO.P,C3,2*%
%TO.N,GND*%
X30440000Y16890000D03*
%TD*%
%TO.P,C4,2*%
%TO.N,GND*%
X30450000Y18090000D03*
%TO.P,C4,1*%
%TO.N,+3V3*%
X31550000Y18090000D03*
%TD*%
%TO.P,C5,1*%
%TO.N,+3.3Vaux*%
X35950000Y18565000D03*
%TO.P,C5,2*%
%TO.N,GND*%
X37050000Y18565000D03*
%TD*%
%TO.P,C6,2*%
%TO.N,GND*%
X37050000Y17365000D03*
%TO.P,C6,1*%
%TO.N,+3.3Vaux*%
X35950000Y17365000D03*
%TD*%
D13*
%TO.P,C7,2*%
%TO.N,GND*%
X20075000Y16790000D03*
%TO.P,C7,1*%
%TO.N,+12V*%
X20075000Y20590000D03*
%TD*%
D15*
%TO.P,C8,1*%
%TO.N,+12V*%
X20925000Y25315000D03*
%TO.P,C8,2*%
%TO.N,GND*%
X20925000Y26815000D03*
%TD*%
%TO.P,C9,2*%
%TO.N,GND*%
X19325000Y26815000D03*
%TO.P,C9,1*%
%TO.N,+12V*%
X19325000Y25315000D03*
%TD*%
%TO.P,C10,1*%
%TO.N,+12V*%
X17725000Y25315000D03*
%TO.P,C10,2*%
%TO.N,GND*%
X17725000Y26815000D03*
%TD*%
D16*
%TO.P,C11,2*%
%TO.N,GND*%
X22350000Y26615000D03*
%TO.P,C11,1*%
%TO.N,+12V*%
X22350000Y25515000D03*
%TD*%
%TO.P,C12,1*%
%TO.N,+3.3Vaux*%
X14350000Y-21885000D03*
%TO.P,C12,2*%
%TO.N,GND*%
X14350000Y-20785000D03*
%TD*%
D17*
%TO.P,C13,2*%
%TO.N,/Oculink_0_C_x4_TX0+*%
X31700000Y-41205000D03*
%TO.P,C13,1*%
%TO.N,/Oculink_0_x4_TX0+*%
X31700000Y-41765000D03*
%TD*%
%TO.P,C14,2*%
%TO.N,/Oculink_0_C_x4_TX1+*%
X36700000Y-41205000D03*
%TO.P,C14,1*%
%TO.N,/Oculink_0_x4_TX1+*%
X36700000Y-41765000D03*
%TD*%
%TO.P,C15,2*%
%TO.N,/Oculink_0_C_x4_TX2+*%
X40700000Y-41205000D03*
%TO.P,C15,1*%
%TO.N,/Oculink_0_x4_TX2+*%
X40700000Y-41765000D03*
%TD*%
%TO.P,C16,2*%
%TO.N,/Oculink_0_C_x4_TX3+*%
X44700000Y-41205000D03*
%TO.P,C16,1*%
%TO.N,/Oculink_0_x4_TX3+*%
X44700000Y-41765000D03*
%TD*%
%TO.P,C17,1*%
%TO.N,/Oculink_0_x4_TX0-*%
X32700000Y-41765000D03*
%TO.P,C17,2*%
%TO.N,/Oculink_0_C_x4_TX0-*%
X32700000Y-41205000D03*
%TD*%
%TO.P,C18,1*%
%TO.N,/Oculink_0_x4_TX1-*%
X37700000Y-41765000D03*
%TO.P,C18,2*%
%TO.N,/Oculink_0_C_x4_TX1-*%
X37700000Y-41205000D03*
%TD*%
%TO.P,C19,1*%
%TO.N,/Oculink_0_x4_TX2-*%
X41700000Y-41765000D03*
%TO.P,C19,2*%
%TO.N,/Oculink_0_C_x4_TX2-*%
X41700000Y-41205000D03*
%TD*%
%TO.P,C20,1*%
%TO.N,/Oculink_0_x4_TX3-*%
X45700000Y-41765000D03*
%TO.P,C20,2*%
%TO.N,/Oculink_0_C_x4_TX3-*%
X45700000Y-41205000D03*
%TD*%
%TO.P,C21,2*%
%TO.N,GND*%
X43275000Y-20255000D03*
%TO.P,C21,1*%
%TO.N,+3V3*%
X43275000Y-20815000D03*
%TD*%
D18*
%TO.P,C22,2*%
%TO.N,GND*%
X51855000Y-21235000D03*
%TO.P,C22,1*%
%TO.N,+3V3*%
X51295000Y-21235000D03*
%TD*%
D17*
%TO.P,C23,1*%
%TO.N,+3V3*%
X50825000Y-24755000D03*
%TO.P,C23,2*%
%TO.N,GND*%
X50825000Y-25315000D03*
%TD*%
D16*
%TO.P,C24,1*%
%TO.N,+3V3*%
X42125000Y-21085000D03*
%TO.P,C24,2*%
%TO.N,GND*%
X42125000Y-19985000D03*
%TD*%
%TO.P,C25,2*%
%TO.N,GND*%
X40925000Y-19985000D03*
%TO.P,C25,1*%
%TO.N,+3V3*%
X40925000Y-21085000D03*
%TD*%
%TO.P,C26,1*%
%TO.N,+3.3VP*%
X49825000Y-27435000D03*
%TO.P,C26,2*%
%TO.N,GND*%
X49825000Y-28535000D03*
%TD*%
%TO.P,C27,2*%
%TO.N,GND*%
X48625000Y-28535000D03*
%TO.P,C27,1*%
%TO.N,+3.3VP*%
X48625000Y-27435000D03*
%TD*%
D17*
%TO.P,C28,1*%
%TO.N,GND*%
X50025000Y-18405000D03*
%TO.P,C28,2*%
%TO.N,+3.3VP*%
X50025000Y-18965000D03*
%TD*%
%TO.P,C29,1*%
%TO.N,GND*%
X46425000Y-28265000D03*
%TO.P,C29,2*%
%TO.N,+3.3VP*%
X46425000Y-27705000D03*
%TD*%
%TO.P,C30,1*%
%TO.N,/Oculink_1_x4_TX0+*%
X50700000Y-41765000D03*
%TO.P,C30,2*%
%TO.N,/Oculink_1_C_x4_TX0+*%
X50700000Y-41205000D03*
%TD*%
%TO.P,C31,1*%
%TO.N,/Oculink_1_x4_TX1+*%
X54700000Y-41765000D03*
%TO.P,C31,2*%
%TO.N,/Oculink_1_C_x4_TX1+*%
X54700000Y-41205000D03*
%TD*%
%TO.P,C32,1*%
%TO.N,/Oculink_1_x4_TX2+*%
X58700000Y-41765000D03*
%TO.P,C32,2*%
%TO.N,/Oculink_1_C_x4_TX2+*%
X58700000Y-41205000D03*
%TD*%
%TO.P,C33,1*%
%TO.N,/Oculink_1_x4_TX3+*%
X62700000Y-41765000D03*
%TO.P,C33,2*%
%TO.N,/Oculink_1_C_x4_TX3+*%
X62700000Y-41205000D03*
%TD*%
%TO.P,C34,2*%
%TO.N,/Oculink_1_C_x4_TX0-*%
X51700000Y-41205000D03*
%TO.P,C34,1*%
%TO.N,/Oculink_1_x4_TX0-*%
X51700000Y-41765000D03*
%TD*%
%TO.P,C35,2*%
%TO.N,/Oculink_1_C_x4_TX1-*%
X55700000Y-41205000D03*
%TO.P,C35,1*%
%TO.N,/Oculink_1_x4_TX1-*%
X55700000Y-41765000D03*
%TD*%
%TO.P,C36,2*%
%TO.N,/Oculink_1_C_x4_TX2-*%
X59700000Y-41205000D03*
%TO.P,C36,1*%
%TO.N,/Oculink_1_x4_TX2-*%
X59700000Y-41765000D03*
%TD*%
%TO.P,C37,2*%
%TO.N,/Oculink_1_C_x4_TX3-*%
X63700000Y-41205000D03*
%TO.P,C37,1*%
%TO.N,/Oculink_1_x4_TX3-*%
X63700000Y-41765000D03*
%TD*%
%TO.P,C38,1*%
%TO.N,GND*%
X52800000Y-24390000D03*
%TO.P,C38,2*%
%TO.N,+3.3VP*%
X52800000Y-23830000D03*
%TD*%
%TO.P,C39,2*%
%TO.N,+3.3VP*%
X46825000Y-18115000D03*
%TO.P,C39,1*%
%TO.N,GND*%
X46825000Y-17555000D03*
%TD*%
%TO.P,C40,2*%
%TO.N,+3.3VP*%
X47475000Y-27705000D03*
%TO.P,C40,1*%
%TO.N,GND*%
X47475000Y-28265000D03*
%TD*%
D19*
%TO.P,J2,*%
%TO.N,*%
X38740000Y24165000D03*
X111890000Y24165000D03*
D20*
%TO.P,J2,A1*%
%TO.N,/PCIE_SLOT_PRSNT#1*%
X27090000Y25415000D03*
D21*
%TO.P,J2,A2*%
%TO.N,+12V*%
X28090000Y27415000D03*
%TO.P,J2,A3*%
X29090000Y25415000D03*
%TO.P,J2,A4*%
%TO.N,GND*%
X30090000Y27415000D03*
%TO.P,J2,A5*%
%TO.N,Net-(J2-PadA5)*%
X31090000Y25415000D03*
%TO.P,J2,A6*%
%TO.N,Net-(J2-PadA6)*%
X32090000Y27415000D03*
%TO.P,J2,A7*%
%TO.N,Net-(J2-PadA7)*%
X33090000Y25415000D03*
%TO.P,J2,A8*%
%TO.N,Net-(J2-PadA8)*%
X34090000Y27415000D03*
%TO.P,J2,A9*%
%TO.N,+3V3*%
X35090000Y25415000D03*
%TO.P,J2,A10*%
X36090000Y27415000D03*
%TO.P,J2,A11*%
%TO.N,/RST_PERST0_N*%
X37090000Y25415000D03*
%TO.P,J2,A12*%
%TO.N,GND*%
X40090000Y27415000D03*
%TO.P,J2,A13*%
%TO.N,/CLK100_SLOT0+*%
X41090000Y25415000D03*
%TO.P,J2,A14*%
%TO.N,/CLK100_SLOT0-*%
X42090000Y27415000D03*
%TO.P,J2,A15*%
%TO.N,GND*%
X43090000Y25415000D03*
%TO.P,J2,A16*%
%TO.N,/CPU0_RX0+*%
X44090000Y27415000D03*
%TO.P,J2,A17*%
%TO.N,/CPU0_RX0-*%
X45090000Y25415000D03*
%TO.P,J2,A18*%
%TO.N,GND*%
X46090000Y27415000D03*
%TO.P,J2,A19*%
%TO.N,Net-(J2-PadA19)*%
X47090000Y25415000D03*
%TO.P,J2,A20*%
%TO.N,GND*%
X48090000Y27415000D03*
%TO.P,J2,A21*%
%TO.N,/CPU0_RX1+*%
X49090000Y25415000D03*
%TO.P,J2,A22*%
%TO.N,/CPU0_RX1-*%
X50090000Y27415000D03*
%TO.P,J2,A23*%
%TO.N,GND*%
X51090000Y25415000D03*
%TO.P,J2,A24*%
X52090000Y27415000D03*
%TO.P,J2,A25*%
%TO.N,/CPU0_RX2+*%
X53090000Y25415000D03*
%TO.P,J2,A26*%
%TO.N,/CPU0_RX2-*%
X54090000Y27415000D03*
%TO.P,J2,A27*%
%TO.N,GND*%
X55090000Y25415000D03*
%TO.P,J2,A28*%
X56090000Y27415000D03*
%TO.P,J2,A29*%
%TO.N,/CPU0_RX3+*%
X57090000Y25415000D03*
%TO.P,J2,A30*%
%TO.N,/CPU0_RX3-*%
X58090000Y27415000D03*
%TO.P,J2,A31*%
%TO.N,GND*%
X59090000Y25415000D03*
%TO.P,J2,A32*%
%TO.N,/LAN_SMB_CLK*%
X60090000Y27415000D03*
%TO.P,J2,A33*%
%TO.N,/LAN_SMB_DAT*%
X61090000Y25415000D03*
%TO.P,J2,A34*%
%TO.N,GND*%
X62090000Y27415000D03*
%TO.P,J2,A35*%
%TO.N,/CPU0_RX4+*%
X63090000Y25415000D03*
%TO.P,J2,A36*%
%TO.N,/CPU0_RX4-*%
X64090000Y27415000D03*
%TO.P,J2,A37*%
%TO.N,GND*%
X65090000Y25415000D03*
%TO.P,J2,A38*%
X66090000Y27415000D03*
%TO.P,J2,A39*%
%TO.N,/CPU0_RX5+*%
X67090000Y25415000D03*
%TO.P,J2,A40*%
%TO.N,/CPU0_RX5-*%
X68090000Y27415000D03*
%TO.P,J2,A41*%
%TO.N,GND*%
X69090000Y25415000D03*
%TO.P,J2,A42*%
X70090000Y27415000D03*
%TO.P,J2,A43*%
%TO.N,/CPU0_RX6+*%
X71090000Y25415000D03*
%TO.P,J2,A44*%
%TO.N,/CPU0_RX6-*%
X72090000Y27415000D03*
%TO.P,J2,A45*%
%TO.N,GND*%
X73090000Y25415000D03*
%TO.P,J2,A46*%
X74090000Y27415000D03*
%TO.P,J2,A47*%
%TO.N,/CPU0_RX7+*%
X75090000Y25415000D03*
%TO.P,J2,A48*%
%TO.N,/CPU0_RX7-*%
X76090000Y27415000D03*
%TO.P,J2,A49*%
%TO.N,GND*%
X77090000Y25415000D03*
%TO.P,J2,A50*%
X78090000Y27415000D03*
%TO.P,J2,A51*%
X79090000Y25415000D03*
%TO.P,J2,A52*%
%TO.N,/CPU0_RX8+*%
X80090000Y27415000D03*
%TO.P,J2,A53*%
%TO.N,/CPU0_RX8-*%
X81090000Y25415000D03*
%TO.P,J2,A54*%
%TO.N,GND*%
X82090000Y27415000D03*
%TO.P,J2,A55*%
X83090000Y25415000D03*
%TO.P,J2,A56*%
%TO.N,/CPU0_RX9+*%
X84090000Y27415000D03*
%TO.P,J2,A57*%
%TO.N,/CPU0_RX9-*%
X85090000Y25415000D03*
%TO.P,J2,A58*%
%TO.N,GND*%
X86090000Y27415000D03*
%TO.P,J2,A59*%
X87090000Y25415000D03*
%TO.P,J2,A60*%
%TO.N,/CPU0_RX10+*%
X88090000Y27415000D03*
%TO.P,J2,A61*%
%TO.N,/CPU0_RX10-*%
X89090000Y25415000D03*
%TO.P,J2,A62*%
%TO.N,GND*%
X90090000Y27415000D03*
%TO.P,J2,A63*%
X91090000Y25415000D03*
%TO.P,J2,A64*%
%TO.N,/CPU0_RX11+*%
X92090000Y27415000D03*
%TO.P,J2,A65*%
%TO.N,/CPU0_RX11-*%
X93090000Y25415000D03*
%TO.P,J2,A66*%
%TO.N,GND*%
X94090000Y27415000D03*
%TO.P,J2,A67*%
X95090000Y25415000D03*
%TO.P,J2,A68*%
%TO.N,/CPU0_RX12+*%
X96090000Y27415000D03*
%TO.P,J2,A69*%
%TO.N,/CPU0_RX12-*%
X97090000Y25415000D03*
%TO.P,J2,A70*%
%TO.N,GND*%
X98090000Y27415000D03*
%TO.P,J2,A71*%
X99090000Y25415000D03*
%TO.P,J2,A72*%
%TO.N,/CPU0_RX13+*%
X100090000Y27415000D03*
%TO.P,J2,A73*%
%TO.N,/CPU0_RX13-*%
X101090000Y25415000D03*
%TO.P,J2,A74*%
%TO.N,GND*%
X102090000Y27415000D03*
%TO.P,J2,A75*%
X103090000Y25415000D03*
%TO.P,J2,A76*%
%TO.N,/CPU0_RX14+*%
X104090000Y27415000D03*
%TO.P,J2,A77*%
%TO.N,/CPU0_RX14-*%
X105090000Y25415000D03*
%TO.P,J2,A78*%
%TO.N,GND*%
X106090000Y27415000D03*
%TO.P,J2,A79*%
X107090000Y25415000D03*
%TO.P,J2,A80*%
%TO.N,/CPU0_RX15+*%
X108090000Y27415000D03*
%TO.P,J2,A81*%
%TO.N,/CPU0_RX15-*%
X109090000Y25415000D03*
%TO.P,J2,B1*%
%TO.N,+12V*%
X27090000Y22915000D03*
%TO.P,J2,B2*%
X28090000Y20915000D03*
%TO.P,J2,B3*%
X29090000Y22915000D03*
%TO.P,J2,B4*%
%TO.N,GND*%
X30090000Y20915000D03*
%TO.P,J2,B5*%
%TO.N,/PCIe_SMB_CLK*%
X31090000Y22915000D03*
%TO.P,J2,B6*%
%TO.N,/PCIe_SMB_DATA*%
X32090000Y20915000D03*
%TO.P,J2,B7*%
%TO.N,GND*%
X33090000Y22915000D03*
%TO.P,J2,B8*%
%TO.N,+3V3*%
X34090000Y20915000D03*
%TO.P,J2,B9*%
%TO.N,Net-(J2-PadB9)*%
X35090000Y22915000D03*
%TO.P,J2,B10*%
%TO.N,+3.3Vaux*%
X36090000Y20915000D03*
%TO.P,J2,B11*%
%TO.N,/IRQ_LVC_WAKE_N*%
X37090000Y22915000D03*
%TO.P,J2,B12*%
%TO.N,/LAN_SMB_ALERT_N*%
X40090000Y20915000D03*
%TO.P,J2,B13*%
%TO.N,GND*%
X41090000Y22915000D03*
%TO.P,J2,B14*%
%TO.N,/CPU0_TX0+*%
X42090000Y20915000D03*
%TO.P,J2,B15*%
%TO.N,/CPU0_TX0-*%
X43090000Y22915000D03*
%TO.P,J2,B16*%
%TO.N,GND*%
X44090000Y20915000D03*
%TO.P,J2,B17*%
%TO.N,Net-(J2-PadB17)*%
X45090000Y22915000D03*
%TO.P,J2,B18*%
%TO.N,GND*%
X46090000Y20915000D03*
%TO.P,J2,B19*%
%TO.N,/CPU0_TX1+*%
X47090000Y22915000D03*
%TO.P,J2,B20*%
%TO.N,/CPU0_TX1-*%
X48090000Y20915000D03*
%TO.P,J2,B21*%
%TO.N,GND*%
X49090000Y22915000D03*
%TO.P,J2,B22*%
X50090000Y20915000D03*
%TO.P,J2,B23*%
%TO.N,/CPU0_TX2+*%
X51090000Y22915000D03*
%TO.P,J2,B24*%
%TO.N,/CPU0_TX2-*%
X52090000Y20915000D03*
%TO.P,J2,B25*%
%TO.N,GND*%
X53090000Y22915000D03*
%TO.P,J2,B26*%
X54090000Y20915000D03*
%TO.P,J2,B27*%
%TO.N,/CPU0_TX3+*%
X55090000Y22915000D03*
%TO.P,J2,B28*%
%TO.N,/CPU0_TX3-*%
X56090000Y20915000D03*
%TO.P,J2,B29*%
%TO.N,GND*%
X57090000Y22915000D03*
%TO.P,J2,B30*%
%TO.N,Net-(J2-PadB30)*%
X58090000Y20915000D03*
%TO.P,J2,B31*%
%TO.N,/PCIE_SLOT1_PRSNT_x1x4*%
X59090000Y22915000D03*
%TO.P,J2,B33*%
%TO.N,/CPU0_TX4+*%
X61090000Y22915000D03*
%TO.P,J2,B34*%
%TO.N,/CPU0_TX4-*%
X62090000Y20915000D03*
%TO.P,J2,B35*%
%TO.N,GND*%
X63090000Y22915000D03*
%TO.P,J2,B36*%
X64090000Y20915000D03*
%TO.P,J2,B37*%
%TO.N,/CPU0_TX5+*%
X65090000Y22915000D03*
%TO.P,J2,B38*%
%TO.N,/CPU0_TX5-*%
X66090000Y20915000D03*
%TO.P,J2,B39*%
%TO.N,GND*%
X67090000Y22915000D03*
%TO.P,J2,B40*%
X68090000Y20915000D03*
%TO.P,J2,B41*%
%TO.N,/CPU0_TX6+*%
X69090000Y22915000D03*
%TO.P,J2,B42*%
%TO.N,/CPU0_TX6-*%
X70090000Y20915000D03*
%TO.P,J2,B43*%
%TO.N,GND*%
X71090000Y22915000D03*
%TO.P,J2,B44*%
X72090000Y20915000D03*
%TO.P,J2,B45*%
%TO.N,/CPU0_TX7+*%
X73090000Y22915000D03*
%TO.P,J2,B46*%
%TO.N,/CPU0_TX7-*%
X74090000Y20915000D03*
%TO.P,J2,B47*%
%TO.N,GND*%
X75090000Y22915000D03*
%TO.P,J2,B48*%
%TO.N,/PCIE_SLOT1_PRSNT_x8*%
X76090000Y20915000D03*
%TO.P,J2,B49*%
%TO.N,GND*%
X77090000Y22915000D03*
%TO.P,J2,B50*%
%TO.N,/CPU0_TX8+*%
X78090000Y20915000D03*
%TO.P,J2,B51*%
%TO.N,/CPU0_TX8-*%
X79090000Y22915000D03*
%TO.P,J2,B52*%
%TO.N,GND*%
X80090000Y20915000D03*
%TO.P,J2,B53*%
X81090000Y22915000D03*
%TO.P,J2,B54*%
%TO.N,/CPU0_TX9+*%
X82090000Y20915000D03*
%TO.P,J2,B55*%
%TO.N,/CPU0_TX9-*%
X83090000Y22915000D03*
%TO.P,J2,B56*%
%TO.N,GND*%
X84090000Y20915000D03*
%TO.P,J2,B57*%
X85090000Y22915000D03*
%TO.P,J2,B58*%
%TO.N,/CPU0_TX10+*%
X86090000Y20915000D03*
%TO.P,J2,B59*%
%TO.N,/CPU0_TX10-*%
X87090000Y22915000D03*
%TO.P,J2,B60*%
%TO.N,GND*%
X88090000Y20915000D03*
%TO.P,J2,B61*%
X89090000Y22915000D03*
%TO.P,J2,B62*%
%TO.N,/CPU0_TX11+*%
X90090000Y20915000D03*
%TO.P,J2,B63*%
%TO.N,/CPU0_TX11-*%
X91090000Y22915000D03*
%TO.P,J2,B64*%
%TO.N,GND*%
X92090000Y20915000D03*
%TO.P,J2,B65*%
X93090000Y22915000D03*
%TO.P,J2,B66*%
%TO.N,/CPU0_TX12+*%
X94090000Y20915000D03*
%TO.P,J2,B67*%
%TO.N,/CPU0_TX12-*%
X95090000Y22915000D03*
%TO.P,J2,B68*%
%TO.N,GND*%
X96090000Y20915000D03*
%TO.P,J2,B69*%
X97090000Y22915000D03*
%TO.P,J2,B70*%
%TO.N,/CPU0_TX13+*%
X98090000Y20915000D03*
%TO.P,J2,B71*%
%TO.N,/CPU0_TX13-*%
X99090000Y22915000D03*
%TO.P,J2,B72*%
%TO.N,GND*%
X100090000Y20915000D03*
%TO.P,J2,B73*%
X101090000Y22915000D03*
%TO.P,J2,B74*%
%TO.N,/CPU0_TX14+*%
X102090000Y20915000D03*
%TO.P,J2,B75*%
%TO.N,/CPU0_TX14-*%
X103090000Y22915000D03*
%TO.P,J2,B76*%
%TO.N,GND*%
X104090000Y20915000D03*
%TO.P,J2,B77*%
X105090000Y22915000D03*
%TO.P,J2,B78*%
%TO.N,/CPU0_TX15+*%
X106090000Y20915000D03*
%TO.P,J2,B79*%
%TO.N,/CPU0_TX15-*%
X107090000Y22915000D03*
%TO.P,J2,B80*%
%TO.N,GND*%
X108090000Y20915000D03*
%TO.P,J2,B81*%
%TO.N,/PCIE_SLOT1_PRSNT_x16*%
X109090000Y22915000D03*
%TO.P,J2,B32*%
%TO.N,GND*%
X60090000Y20915000D03*
%TO.P,J2,A82*%
X110090000Y27415000D03*
%TO.P,J2,B82*%
%TO.N,Net-(J2-PadB82)*%
X110090000Y20915000D03*
%TD*%
D22*
%TO.P,J3,A1*%
%TO.N,+3V3*%
X51900000Y-3730000D03*
%TO.P,J3,A2*%
%TO.N,GND*%
X52400000Y-3730000D03*
%TO.P,J3,A3*%
%TO.N,/Oculink_1_x4_RX0+*%
X52900000Y-3730000D03*
%TO.P,J3,A4*%
%TO.N,/Oculink_1_x4_RX0-*%
X53400000Y-3730000D03*
%TO.P,J3,A5*%
%TO.N,GND*%
X53900000Y-3730000D03*
%TO.P,J3,A6*%
%TO.N,/Oculink_1_x4_RX1+*%
X54400000Y-3730000D03*
%TO.P,J3,A7*%
%TO.N,/Oculink_1_x4_RX1-*%
X54900000Y-3730000D03*
%TO.P,J3,A8*%
%TO.N,GND*%
X55400000Y-3730000D03*
%TO.P,J3,A9*%
%TO.N,Net-(J3-PadA9)*%
X55900000Y-3730000D03*
%TO.P,J3,A10*%
%TO.N,Net-(J3-PadA10)*%
X56400000Y-3730000D03*
%TO.P,J3,A11*%
%TO.N,GND*%
X56900000Y-3730000D03*
%TO.P,J3,A12*%
%TO.N,/Oculink_1_CLK100+*%
X57400000Y-3730000D03*
%TO.P,J3,A13*%
%TO.N,/Oculink_1_CLK100-*%
X57900000Y-3730000D03*
%TO.P,J3,A14*%
%TO.N,GND*%
X58400000Y-3730000D03*
%TO.P,J3,A15*%
%TO.N,/Oculink_1_x4_RX2+*%
X58900000Y-3730000D03*
%TO.P,J3,A16*%
%TO.N,/Oculink_1_x4_RX2-*%
X59400000Y-3730000D03*
%TO.P,J3,A17*%
%TO.N,GND*%
X59900000Y-3730000D03*
%TO.P,J3,A18*%
%TO.N,/Oculink_1_x4_RX3+*%
X60400000Y-3730000D03*
%TO.P,J3,A19*%
%TO.N,/Oculink_1_x4_RX3-*%
X60900000Y-3730000D03*
%TO.P,J3,A20*%
%TO.N,GND*%
X61400000Y-3730000D03*
%TO.P,J3,A21*%
%TO.N,+12V*%
X61900000Y-3730000D03*
%TO.P,J3,B1*%
X51400000Y-1830000D03*
%TO.P,J3,B2*%
%TO.N,GND*%
X51900000Y-1830000D03*
%TO.P,J3,B3*%
%TO.N,/Oculink_1_C_x4_TX0+*%
X52400000Y-1830000D03*
%TO.P,J3,B4*%
%TO.N,/Oculink_1_C_x4_TX0-*%
X52900000Y-1830000D03*
%TO.P,J3,B5*%
%TO.N,GND*%
X53400000Y-1830000D03*
%TO.P,J3,B6*%
%TO.N,/Oculink_1_C_x4_TX1+*%
X53900000Y-1830000D03*
%TO.P,J3,B7*%
%TO.N,/Oculink_1_C_x4_TX1-*%
X54400000Y-1830000D03*
%TO.P,J3,B8*%
%TO.N,GND*%
X54900000Y-1830000D03*
%TO.P,J3,B9*%
%TO.N,/Oculink_1_SMB_CLK*%
X55400000Y-1830000D03*
%TO.P,J3,B10*%
%TO.N,/Oculink_1_SMB_DATA*%
X55900000Y-1830000D03*
%TO.P,J3,B11*%
%TO.N,GND*%
X56400000Y-1830000D03*
%TO.P,J3,B12*%
%TO.N,/RST_PERST0_N*%
X56900000Y-1830000D03*
%TO.P,J3,B13*%
%TO.N,Net-(J3-PadB13)*%
X57400000Y-1830000D03*
%TO.P,J3,B14*%
%TO.N,GND*%
X57900000Y-1830000D03*
%TO.P,J3,B15*%
%TO.N,/Oculink_1_C_x4_TX2+*%
X58400000Y-1830000D03*
%TO.P,J3,B16*%
%TO.N,/Oculink_1_C_x4_TX2-*%
X58900000Y-1830000D03*
%TO.P,J3,B17*%
%TO.N,GND*%
X59400000Y-1830000D03*
%TO.P,J3,B18*%
%TO.N,/Oculink_1_C_x4_TX3+*%
X59900000Y-1830000D03*
%TO.P,J3,B19*%
%TO.N,/Oculink_1_C_x4_TX3-*%
X60400000Y-1830000D03*
%TO.P,J3,B20*%
%TO.N,GND*%
X60900000Y-1830000D03*
%TO.P,J3,B21*%
%TO.N,+3V3*%
X61400000Y-1830000D03*
D23*
%TO.P,J3,C1*%
%TO.N,GND*%
X50070000Y-2470000D03*
X63230000Y-2470000D03*
D24*
%TO.P,J3,*%
%TO.N,*%
X51030000Y-3730000D03*
X62930000Y-4090000D03*
D25*
%TO.P,J3,C1*%
%TO.N,GND*%
X51900000Y-6780000D03*
X51550000Y1220000D03*
X61250000Y1220000D03*
X61600000Y-6780000D03*
%TD*%
%TO.P,J4,C1*%
%TO.N,GND*%
X36600000Y-6840000D03*
X36250000Y1160000D03*
X26550000Y1160000D03*
X26900000Y-6840000D03*
D24*
%TO.P,J4,*%
%TO.N,*%
X37930000Y-4150000D03*
X26030000Y-3790000D03*
D23*
%TO.P,J4,C1*%
%TO.N,GND*%
X38230000Y-2530000D03*
X25070000Y-2530000D03*
D22*
%TO.P,J4,B21*%
%TO.N,+3V3*%
X36400000Y-1890000D03*
%TO.P,J4,B20*%
%TO.N,GND*%
X35900000Y-1890000D03*
%TO.P,J4,B19*%
%TO.N,/Oculink_0_C_x4_TX3-*%
X35400000Y-1890000D03*
%TO.P,J4,B18*%
%TO.N,/Oculink_0_C_x4_TX3+*%
X34900000Y-1890000D03*
%TO.P,J4,B17*%
%TO.N,GND*%
X34400000Y-1890000D03*
%TO.P,J4,B16*%
%TO.N,/Oculink_0_C_x4_TX2-*%
X33900000Y-1890000D03*
%TO.P,J4,B15*%
%TO.N,/Oculink_0_C_x4_TX2+*%
X33400000Y-1890000D03*
%TO.P,J4,B14*%
%TO.N,GND*%
X32900000Y-1890000D03*
%TO.P,J4,B13*%
%TO.N,Net-(J4-PadB13)*%
X32400000Y-1890000D03*
%TO.P,J4,B12*%
%TO.N,/RST_PERST0_N*%
X31900000Y-1890000D03*
%TO.P,J4,B11*%
%TO.N,GND*%
X31400000Y-1890000D03*
%TO.P,J4,B10*%
%TO.N,/Oculink_0_SMB_DATA*%
X30900000Y-1890000D03*
%TO.P,J4,B9*%
%TO.N,/Oculink_0_SMB_CLK*%
X30400000Y-1890000D03*
%TO.P,J4,B8*%
%TO.N,GND*%
X29900000Y-1890000D03*
%TO.P,J4,B7*%
%TO.N,/Oculink_0_C_x4_TX1-*%
X29400000Y-1890000D03*
%TO.P,J4,B6*%
%TO.N,/Oculink_0_C_x4_TX1+*%
X28900000Y-1890000D03*
%TO.P,J4,B5*%
%TO.N,GND*%
X28400000Y-1890000D03*
%TO.P,J4,B4*%
%TO.N,/Oculink_0_C_x4_TX0-*%
X27900000Y-1890000D03*
%TO.P,J4,B3*%
%TO.N,/Oculink_0_C_x4_TX0+*%
X27400000Y-1890000D03*
%TO.P,J4,B2*%
%TO.N,GND*%
X26900000Y-1890000D03*
%TO.P,J4,B1*%
%TO.N,+12V*%
X26400000Y-1890000D03*
%TO.P,J4,A21*%
X36900000Y-3790000D03*
%TO.P,J4,A20*%
%TO.N,GND*%
X36400000Y-3790000D03*
%TO.P,J4,A19*%
%TO.N,/Oculink_0_x4_RX3-*%
X35900000Y-3790000D03*
%TO.P,J4,A18*%
%TO.N,/Oculink_0_x4_RX3+*%
X35400000Y-3790000D03*
%TO.P,J4,A17*%
%TO.N,GND*%
X34900000Y-3790000D03*
%TO.P,J4,A16*%
%TO.N,/Oculink_0_x4_RX2-*%
X34400000Y-3790000D03*
%TO.P,J4,A15*%
%TO.N,/Oculink_0_x4_RX2+*%
X33900000Y-3790000D03*
%TO.P,J4,A14*%
%TO.N,GND*%
X33400000Y-3790000D03*
%TO.P,J4,A13*%
%TO.N,/Oculink_0_CLK100-*%
X32900000Y-3790000D03*
%TO.P,J4,A12*%
%TO.N,/Oculink_0_CLK100+*%
X32400000Y-3790000D03*
%TO.P,J4,A11*%
%TO.N,GND*%
X31900000Y-3790000D03*
%TO.P,J4,A10*%
%TO.N,Net-(J4-PadA10)*%
X31400000Y-3790000D03*
%TO.P,J4,A9*%
%TO.N,Net-(J4-PadA9)*%
X30900000Y-3790000D03*
%TO.P,J4,A8*%
%TO.N,GND*%
X30400000Y-3790000D03*
%TO.P,J4,A7*%
%TO.N,/Oculink_0_x4_RX1-*%
X29900000Y-3790000D03*
%TO.P,J4,A6*%
%TO.N,/Oculink_0_x4_RX1+*%
X29400000Y-3790000D03*
%TO.P,J4,A5*%
%TO.N,GND*%
X28900000Y-3790000D03*
%TO.P,J4,A4*%
%TO.N,/Oculink_0_x4_RX0-*%
X28400000Y-3790000D03*
%TO.P,J4,A3*%
%TO.N,/Oculink_0_x4_RX0+*%
X27900000Y-3790000D03*
%TO.P,J4,A2*%
%TO.N,GND*%
X27400000Y-3790000D03*
%TO.P,J4,A1*%
%TO.N,+3V3*%
X26900000Y-3790000D03*
%TD*%
D26*
%TO.P,R1,2*%
%TO.N,/SLOT0_CONFIG*%
X66700000Y-41385000D03*
%TO.P,R1,1*%
%TO.N,GND*%
X66700000Y-42285000D03*
%TD*%
%TO.P,R2,2*%
%TO.N,/SLOT1_CONFIG*%
X99700000Y-41385000D03*
%TO.P,R2,1*%
%TO.N,GND*%
X99700000Y-42285000D03*
%TD*%
%TO.P,R3,2*%
%TO.N,/PCIE_SLOT0_PRSNT_x4*%
X34700000Y-41935000D03*
%TO.P,R3,1*%
%TO.N,GND*%
X34700000Y-41035000D03*
%TD*%
D27*
%TO.P,R4,1*%
%TO.N,/SMB_DATA*%
X12950000Y-24585000D03*
%TO.P,R4,2*%
%TO.N,+3.3Vaux*%
X13850000Y-24585000D03*
%TD*%
%TO.P,R5,2*%
%TO.N,+3.3Vaux*%
X10950000Y-24585000D03*
%TO.P,R5,1*%
%TO.N,/SMB_CLK*%
X11850000Y-24585000D03*
%TD*%
D26*
%TO.P,R6,1*%
%TO.N,Net-(R6-Pad1)*%
X9300000Y-23885000D03*
%TO.P,R6,2*%
%TO.N,+3.3Vaux*%
X9300000Y-24785000D03*
%TD*%
D27*
%TO.P,R7,2*%
%TO.N,Net-(R7-Pad2)*%
X13975000Y-15985000D03*
%TO.P,R7,1*%
%TO.N,GND*%
X14875000Y-15985000D03*
%TD*%
%TO.P,R8,1*%
%TO.N,GND*%
X14875000Y-14535000D03*
%TO.P,R8,2*%
%TO.N,Net-(R8-Pad2)*%
X13975000Y-14535000D03*
%TD*%
D26*
%TO.P,R9,2*%
%TO.N,+3V3*%
X51375000Y-20110000D03*
%TO.P,R9,1*%
%TO.N,+3.3VP*%
X51375000Y-19210000D03*
%TD*%
D27*
%TO.P,R10,1*%
%TO.N,GND*%
X14875000Y-13135000D03*
%TO.P,R10,2*%
%TO.N,Net-(R10-Pad2)*%
X13975000Y-13135000D03*
%TD*%
D26*
%TO.P,R11,1*%
%TO.N,/CLK100_R_SLOT1+*%
X41923800Y-27135000D03*
%TO.P,R11,2*%
%TO.N,/CLK100_SLOT1+*%
X41923800Y-28035000D03*
%TD*%
%TO.P,R12,2*%
%TO.N,/CLK100_SLOT1-*%
X43126200Y-28035000D03*
%TO.P,R12,1*%
%TO.N,/CLK100_R_SLOT1-*%
X43126200Y-27135000D03*
%TD*%
%TO.P,R13,2*%
%TO.N,+3.3VP*%
X53150000Y-22585000D03*
%TO.P,R13,1*%
%TO.N,Net-(R13-Pad1)*%
X53150000Y-21685000D03*
%TD*%
%TO.P,R14,1*%
%TO.N,Net-(R14-Pad1)*%
X10850000Y-13035000D03*
%TO.P,R14,2*%
%TO.N,+3.3Vaux*%
X10850000Y-12135000D03*
%TD*%
%TO.P,R15,1*%
%TO.N,Net-(R15-Pad1)*%
X6950000Y-13035000D03*
%TO.P,R15,2*%
%TO.N,+3.3Vaux*%
X6950000Y-12135000D03*
%TD*%
%TO.P,R16,1*%
%TO.N,Net-(J4-PadB13)*%
X32675000Y3390000D03*
%TO.P,R16,2*%
%TO.N,+3V3*%
X32675000Y4290000D03*
%TD*%
D27*
%TO.P,R17,1*%
%TO.N,GND*%
X40725000Y-23435000D03*
%TO.P,R17,2*%
%TO.N,Net-(R17-Pad2)*%
X41625000Y-23435000D03*
%TD*%
D26*
%TO.P,R18,2*%
%TO.N,+3.3Vaux*%
X5000000Y-22785000D03*
%TO.P,R18,1*%
%TO.N,Net-(R18-Pad1)*%
X5000000Y-21885000D03*
%TD*%
%TO.P,R19,2*%
%TO.N,Net-(R19-Pad2)*%
X45125000Y-27835000D03*
%TO.P,R19,1*%
%TO.N,GND*%
X45125000Y-28735000D03*
%TD*%
%TO.P,R20,1*%
%TO.N,Net-(R20-Pad1)*%
X51725000Y-26385000D03*
%TO.P,R20,2*%
%TO.N,Net-(R20-Pad2)*%
X51725000Y-27285000D03*
%TD*%
D27*
%TO.P,R21,1*%
%TO.N,GND*%
X41625000Y-17335000D03*
%TO.P,R21,2*%
%TO.N,Net-(R21-Pad2)*%
X42525000Y-17335000D03*
%TD*%
D26*
%TO.P,R22,1*%
%TO.N,/Oculink_0_SMB_DATA*%
X9550000Y-13035000D03*
%TO.P,R22,2*%
%TO.N,+3.3Vaux*%
X9550000Y-12135000D03*
%TD*%
D27*
%TO.P,R23,2*%
%TO.N,+3V3*%
X63800000Y3815000D03*
%TO.P,R23,1*%
%TO.N,Net-(J3-PadB13)*%
X62900000Y3815000D03*
%TD*%
D26*
%TO.P,R24,2*%
%TO.N,/Oculink_0_SMB_CLK*%
X8250000Y-13035000D03*
%TO.P,R24,1*%
%TO.N,+3.3Vaux*%
X8250000Y-12135000D03*
%TD*%
%TO.P,R25,2*%
%TO.N,+3.3Vaux*%
X4350000Y-12135000D03*
%TO.P,R25,1*%
%TO.N,/Oculink_1_SMB_DATA*%
X4350000Y-13035000D03*
%TD*%
%TO.P,R26,1*%
%TO.N,+3.3Vaux*%
X5650000Y-12135000D03*
%TO.P,R26,2*%
%TO.N,/Oculink_1_SMB_CLK*%
X5650000Y-13035000D03*
%TD*%
%TO.P,R27,1*%
%TO.N,/PCIe_SMB_DATA*%
X6650000Y-23885000D03*
%TO.P,R27,2*%
%TO.N,+3.3Vaux*%
X6650000Y-24785000D03*
%TD*%
%TO.P,R28,2*%
%TO.N,/PCIe_SMB_CLK*%
X7975000Y-23885000D03*
%TO.P,R28,1*%
%TO.N,+3.3Vaux*%
X7975000Y-24785000D03*
%TD*%
%TO.P,R29,2*%
%TO.N,/Oculink_1_R_CLK100+*%
X49125000Y-17035000D03*
%TO.P,R29,1*%
%TO.N,/Oculink_1_CLK100+*%
X49125000Y-16135000D03*
%TD*%
%TO.P,R30,1*%
%TO.N,/Oculink_1_CLK100-*%
X47875000Y-16135000D03*
%TO.P,R30,2*%
%TO.N,/Oculink_1_R_CLK100-*%
X47875000Y-17035000D03*
%TD*%
%TO.P,R31,2*%
%TO.N,/Oculink_0_R_CLK100+*%
X45825000Y-17035000D03*
%TO.P,R31,1*%
%TO.N,/Oculink_0_CLK100+*%
X45825000Y-16135000D03*
%TD*%
%TO.P,R32,1*%
%TO.N,/Oculink_0_CLK100-*%
X44575000Y-16135000D03*
%TO.P,R32,2*%
%TO.N,/Oculink_0_R_CLK100-*%
X44575000Y-17035000D03*
%TD*%
D27*
%TO.P,R33,1*%
%TO.N,Net-(J3-PadA10)*%
X50475000Y7365000D03*
%TO.P,R33,2*%
%TO.N,/IRQ_LVC_WAKE_N*%
X49575000Y7365000D03*
%TD*%
D26*
%TO.P,R34,2*%
%TO.N,/IRQ_LVC_WAKE_N*%
X40300000Y7365000D03*
%TO.P,R34,1*%
%TO.N,Net-(J4-PadA10)*%
X40300000Y6465000D03*
%TD*%
D28*
%TO.P,TP1,1*%
%TO.N,Net-(J1-PadB114)*%
X127150000Y11815000D03*
%TD*%
%TO.P,TP2,1*%
%TO.N,/RST_PERST0_N*%
X49600000Y8915000D03*
%TD*%
%TO.P,TP3,1*%
%TO.N,Net-(J1-PadB31)*%
X48325000Y-41635000D03*
%TD*%
%TO.P,TP4,1*%
%TO.N,Net-(J3-PadA9)*%
X56425000Y-12135000D03*
%TD*%
%TO.P,TP5,1*%
%TO.N,Net-(R20-Pad2)*%
X51725000Y-28385000D03*
%TD*%
%TO.P,TP8,1*%
%TO.N,Net-(J4-PadA9)*%
X31900000Y-11210000D03*
%TD*%
D29*
%TO.P,U1,20*%
%TO.N,+3.3Vaux*%
X12525000Y-21885000D03*
%TO.P,U1,19*%
%TO.N,/SMB_DATA*%
X11875000Y-21885000D03*
%TO.P,U1,18*%
%TO.N,/SMB_CLK*%
X11225000Y-21885000D03*
%TO.P,U1,17*%
%TO.N,Net-(R6-Pad1)*%
X10575000Y-21885000D03*
%TO.P,U1,16*%
%TO.N,Net-(U1-Pad16)*%
X9925000Y-21885000D03*
%TO.P,U1,15*%
%TO.N,Net-(U1-Pad15)*%
X9275000Y-21885000D03*
%TO.P,U1,14*%
%TO.N,Net-(U1-Pad14)*%
X8625000Y-21885000D03*
%TO.P,U1,13*%
%TO.N,/PCIe_SMB_CLK*%
X7975000Y-21885000D03*
%TO.P,U1,12*%
%TO.N,/PCIe_SMB_DATA*%
X7325000Y-21885000D03*
%TO.P,U1,11*%
%TO.N,Net-(R18-Pad1)*%
X6675000Y-21885000D03*
%TO.P,U1,10*%
%TO.N,GND*%
X6675000Y-15985000D03*
%TO.P,U1,9*%
%TO.N,/Oculink_1_SMB_CLK*%
X7325000Y-15985000D03*
%TO.P,U1,8*%
%TO.N,/Oculink_1_SMB_DATA*%
X7975000Y-15985000D03*
%TO.P,U1,7*%
%TO.N,Net-(R15-Pad1)*%
X8625000Y-15985000D03*
%TO.P,U1,6*%
%TO.N,/Oculink_0_SMB_CLK*%
X9275000Y-15985000D03*
%TO.P,U1,5*%
%TO.N,/Oculink_0_SMB_DATA*%
X9925000Y-15985000D03*
%TO.P,U1,4*%
%TO.N,Net-(R14-Pad1)*%
X10575000Y-15985000D03*
%TO.P,U1,3*%
%TO.N,Net-(R10-Pad2)*%
X11225000Y-15985000D03*
%TO.P,U1,2*%
%TO.N,Net-(R8-Pad2)*%
X11875000Y-15985000D03*
%TO.P,U1,1*%
%TO.N,Net-(R7-Pad2)*%
X12525000Y-15985000D03*
%TD*%
D30*
%TO.P,U2,33*%
%TO.N,GND*%
X46300000Y-23960000D03*
D31*
%TO.P,U2,32*%
%TO.N,+3V3*%
X49475000Y-21435000D03*
%TO.P,U2,31*%
%TO.N,Net-(R13-Pad1)*%
X49475000Y-21935000D03*
%TO.P,U2,30*%
%TO.N,+3.3VP*%
X49475000Y-22435000D03*
%TO.P,U2,29*%
%TO.N,Net-(R20-Pad1)*%
X49475000Y-22935000D03*
%TO.P,U2,28*%
%TO.N,+3V3*%
X49475000Y-23435000D03*
%TO.P,U2,27*%
%TO.N,Net-(U2-Pad27)*%
X49475000Y-23935000D03*
%TO.P,U2,26*%
%TO.N,Net-(U2-Pad26)*%
X49475000Y-24435000D03*
%TO.P,U2,25*%
%TO.N,Net-(U2-Pad25)*%
X49475000Y-24935000D03*
D32*
%TO.P,U2,24*%
%TO.N,GND*%
X48825000Y-25585000D03*
%TO.P,U2,23*%
%TO.N,+3.3VP*%
X48325000Y-25585000D03*
%TO.P,U2,22*%
%TO.N,Net-(U2-Pad22)*%
X47825000Y-25585000D03*
%TO.P,U2,21*%
%TO.N,Net-(U2-Pad21)*%
X47325000Y-25585000D03*
%TO.P,U2,20*%
%TO.N,+3.3VP*%
X46825000Y-25585000D03*
%TO.P,U2,19*%
%TO.N,Net-(U2-Pad19)*%
X46325000Y-25585000D03*
%TO.P,U2,18*%
%TO.N,Net-(U2-Pad18)*%
X45825000Y-25585000D03*
%TO.P,U2,17*%
%TO.N,GND*%
X45325000Y-25585000D03*
D31*
%TO.P,U2,16*%
%TO.N,Net-(R19-Pad2)*%
X44675000Y-24935000D03*
%TO.P,U2,15*%
%TO.N,/CLK100_R_SLOT1-*%
X44675000Y-24435000D03*
%TO.P,U2,14*%
%TO.N,/CLK100_R_SLOT1+*%
X44675000Y-23935000D03*
%TO.P,U2,13*%
%TO.N,Net-(R17-Pad2)*%
X44675000Y-23435000D03*
%TO.P,U2,12*%
%TO.N,Net-(U2-Pad12)*%
X44675000Y-22935000D03*
%TO.P,U2,11*%
%TO.N,Net-(U2-Pad11)*%
X44675000Y-22435000D03*
%TO.P,U2,10*%
%TO.N,+3V3*%
X44675000Y-21935000D03*
%TO.P,U2,9*%
%TO.N,Net-(R21-Pad2)*%
X44675000Y-21435000D03*
D32*
%TO.P,U2,8*%
%TO.N,GND*%
X45325000Y-20785000D03*
%TO.P,U2,7*%
%TO.N,/Oculink_0_R_CLK100-*%
X45825000Y-20785000D03*
%TO.P,U2,6*%
%TO.N,/Oculink_0_R_CLK100+*%
X46325000Y-20785000D03*
%TO.P,U2,5*%
%TO.N,+3.3VP*%
X46825000Y-20785000D03*
%TO.P,U2,4*%
%TO.N,/Oculink_1_R_CLK100-*%
X47325000Y-20785000D03*
%TO.P,U2,3*%
%TO.N,/Oculink_1_R_CLK100+*%
X47825000Y-20785000D03*
%TO.P,U2,2*%
%TO.N,+3.3VP*%
X48325000Y-20785000D03*
%TO.P,U2,1*%
%TO.N,GND*%
X48825000Y-20785000D03*
D30*
%TO.P,U2,33*%
X47850000Y-23960000D03*
X47850000Y-22410000D03*
X46300000Y-22410000D03*
%TD*%
D28*
%TO.P,3.3V,1*%
%TO.N,+3V3*%
X25350000Y-12685000D03*
%TD*%
%TO.P,3.3V,1*%
%TO.N,+3V3*%
X48000000Y-3660000D03*
%TD*%
%TO.P,12V,1*%
%TO.N,+12V*%
X41875000Y-1010000D03*
%TD*%
%TO.P,12V,1*%
%TO.N,+12V*%
X23525000Y440000D03*
%TD*%
D33*
%TO.N,+12V*%
X65175000Y-5460000D03*
X23525000Y-910000D03*
D34*
X17625000Y-33135000D03*
X18625000Y-33135000D03*
X17625000Y-34135000D03*
X18625000Y-34135000D03*
X17625000Y-35135000D03*
X18625000Y-35135000D03*
X17625000Y-36135000D03*
X18625000Y-36135000D03*
X17625000Y-37135000D03*
X18625000Y-37135000D03*
X17625000Y-38135000D03*
X18625000Y-38135000D03*
X17625000Y-39135000D03*
X18625000Y-39135000D03*
X17625000Y-40135000D03*
X18625000Y-40135000D03*
X6500000Y16915000D03*
X7500000Y16915000D03*
X8500000Y16915000D03*
X9500000Y16915000D03*
X10500000Y16915000D03*
X11500000Y16915000D03*
X6500000Y15665000D03*
X7500000Y15665000D03*
X8500000Y15665000D03*
X9500000Y15665000D03*
X10500000Y15665000D03*
X11500000Y15665000D03*
X6500000Y14415000D03*
X7500000Y14415000D03*
X8500000Y14415000D03*
X9500000Y14415000D03*
X10500000Y14415000D03*
X11500000Y14415000D03*
X6500000Y13165000D03*
X7500000Y13165000D03*
X8500000Y13165000D03*
X9500000Y13165000D03*
X10500000Y13165000D03*
X11500000Y13165000D03*
X6500000Y11915000D03*
X7500000Y11915000D03*
X8500000Y11915000D03*
X9500000Y11915000D03*
X10500000Y11915000D03*
X11500000Y11915000D03*
X6500000Y10665000D03*
X7500000Y10665000D03*
X8500000Y10665000D03*
X9500000Y10665000D03*
X10500000Y10665000D03*
X11500000Y10665000D03*
X6500000Y9415000D03*
X7500000Y9415000D03*
X8500000Y9415000D03*
X9500000Y9415000D03*
X10500000Y9415000D03*
X11500000Y9415000D03*
X6500000Y8165000D03*
X7500000Y8165000D03*
X8500000Y8165000D03*
X9500000Y8165000D03*
X10500000Y8165000D03*
X11500000Y8165000D03*
X39050000Y-5285000D03*
X40975000Y-2285000D03*
X41975000Y-2285000D03*
X39975000Y-3285000D03*
X40975000Y-3285000D03*
X41975000Y-3285000D03*
X39975000Y-4285000D03*
X40975000Y-4285000D03*
X41975000Y-4285000D03*
X39975000Y-5285000D03*
X40975000Y-5285000D03*
X41975000Y-5285000D03*
X39975000Y-6285000D03*
X40975000Y-6285000D03*
X41975000Y-6285000D03*
%TO.N,GND*%
X46050000Y-22160000D03*
D35*
X5950000Y-15985000D03*
X22350000Y-43085000D03*
X19850000Y-43085000D03*
X130200000Y-43085000D03*
X134100000Y-30385000D03*
X128200000Y-43085000D03*
X126200000Y-43085000D03*
X124200000Y-43085000D03*
X122200000Y-43085000D03*
X120200000Y-43085000D03*
X118200000Y-43085000D03*
X116200000Y-43085000D03*
X114200000Y-43085000D03*
X112200000Y-43085000D03*
X110200000Y-43085000D03*
X108200000Y-43085000D03*
X106200000Y-43085000D03*
X104200000Y-43085000D03*
X102200000Y-43085000D03*
X99700000Y-43085000D03*
X97200000Y-43085000D03*
X95200000Y-43085000D03*
X93200000Y-43085000D03*
X91200000Y-43085000D03*
X89200000Y-43085000D03*
X87200000Y-43085000D03*
X85200000Y-43085000D03*
X83200000Y-43085000D03*
X81200000Y-43085000D03*
X79200000Y-43085000D03*
X77200000Y-43085000D03*
X75200000Y-43085000D03*
X73200000Y-43085000D03*
X71200000Y-43085000D03*
X69200000Y-43085000D03*
X66700000Y-43085000D03*
X64200000Y-43085000D03*
X62200000Y-43085000D03*
X60200000Y-43085000D03*
X58200000Y-43085000D03*
X56200000Y-43085000D03*
X54200000Y-43085000D03*
X52200000Y-43085000D03*
X35700000Y-43085000D03*
X33200000Y-43085000D03*
X30450000Y-43085000D03*
X49200000Y-43085000D03*
X46200000Y-43085000D03*
X44200000Y-43085000D03*
X42200000Y-43085000D03*
X40200000Y-43085000D03*
X38200000Y-43085000D03*
X15625000Y-13135000D03*
X50825000Y-25835000D03*
X15625000Y-15985000D03*
D33*
X59390000Y-335000D03*
X57890000Y-335000D03*
X56390000Y-335000D03*
X54890000Y-335000D03*
X53390000Y-335000D03*
X53910000Y-5185000D03*
X55410000Y-5185000D03*
X56910000Y-5185000D03*
X58410000Y-5185000D03*
X59910000Y-5185000D03*
X29890000Y-335000D03*
X28390000Y-335000D03*
X31390000Y-335000D03*
X34390000Y-335000D03*
X32890000Y-335000D03*
X28910000Y-5185000D03*
X30410000Y-5185000D03*
X31910000Y-5185000D03*
X34910000Y-5185000D03*
X33410000Y-5185000D03*
X52550000Y-20835000D03*
X51025000Y-17810000D03*
X52800000Y-25060000D03*
X40725000Y-24335000D03*
X45325000Y-26310000D03*
X49450000Y-25785000D03*
X45325000Y-19935000D03*
X49600000Y-20535000D03*
X46825000Y-16810000D03*
X26250000Y-8535000D03*
X25125000Y1640000D03*
X37675000Y1665000D03*
X62750000Y1715000D03*
X51275000Y-8585000D03*
X64775000Y-7785000D03*
X37700000Y14740000D03*
X27375000Y17215000D03*
X28375000Y17215000D03*
X29375000Y17215000D03*
X27375000Y16215000D03*
X28375000Y16215000D03*
X29375000Y16215000D03*
X22500000Y16240000D03*
X23500000Y17240000D03*
X23500000Y16240000D03*
X24500000Y16240000D03*
X24500000Y17240000D03*
X22500000Y17240000D03*
X18600000Y17265000D03*
X18600000Y16265000D03*
X21350000Y17265000D03*
X21350000Y16265000D03*
D35*
X14350000Y-19985000D03*
X15625000Y-14535000D03*
D33*
X49775000Y715000D03*
D34*
X17350000Y28090000D03*
X18600000Y28090000D03*
X19850000Y28090000D03*
X21100000Y28090000D03*
X22350000Y28090000D03*
X47050000Y-22160000D03*
X48050000Y-22160000D03*
X46050000Y-23160000D03*
X47050000Y-23160000D03*
X48050000Y-23160000D03*
X46050000Y-24160000D03*
X47050000Y-24160000D03*
X48050000Y-24160000D03*
D33*
X40975000Y-17335000D03*
X43275000Y-19685000D03*
X42125000Y-19235000D03*
X40925000Y-19260000D03*
D34*
X44825000Y-29660000D03*
X45825000Y-29660000D03*
X46825000Y-29660000D03*
X47825000Y-29660000D03*
X48825000Y-29660000D03*
X49825000Y-29660000D03*
D33*
X37200000Y-10760000D03*
D36*
X31300000Y-39260000D03*
X33175000Y-39260000D03*
X33275000Y-38060000D03*
X35150000Y-38060000D03*
X36275000Y-39285000D03*
X38150000Y-39285000D03*
X40125000Y-38085000D03*
X38250000Y-38085000D03*
X40275000Y-39360000D03*
X42150000Y-39360000D03*
X44125000Y-38160000D03*
X42250000Y-38160000D03*
X44275000Y-39410000D03*
X46150000Y-39410000D03*
X46275000Y-38160000D03*
X48150000Y-38160000D03*
X52275000Y-38335000D03*
X60275000Y-38385000D03*
X52125000Y-39585000D03*
X58275000Y-39560000D03*
X60150000Y-39560000D03*
X54275000Y-39560000D03*
X58150000Y-38335000D03*
X54150000Y-38335000D03*
X56150000Y-39560000D03*
X50250000Y-39585000D03*
X56275000Y-38335000D03*
X62150000Y-38385000D03*
X64150000Y-39460000D03*
X62275000Y-39460000D03*
X66150000Y-38360000D03*
X64275000Y-38360000D03*
X43525000Y-29385000D03*
X41650000Y-29385000D03*
X27150000Y2965000D03*
X29025000Y2965000D03*
X35775000Y3140000D03*
X33900000Y3140000D03*
X52150000Y2965000D03*
X54025000Y2965000D03*
X58875000Y3140000D03*
X60750000Y3140000D03*
X57000000Y-6860000D03*
X58300000Y-6860000D03*
X33300000Y-6785000D03*
X32000000Y-6785000D03*
X38300000Y-10735000D03*
X39625000Y-9485000D03*
X50250000Y-8385000D03*
X49000000Y-7060000D03*
D34*
%TO.N,+3V3*%
X25400000Y-34985000D03*
X50550000Y-21035000D03*
X50825000Y-23760000D03*
X40950000Y-22060000D03*
X42100000Y-22060000D03*
X43250000Y-22060000D03*
D33*
X65050000Y-735000D03*
X40025000Y-1210000D03*
X32675000Y5015000D03*
D34*
X32775000Y13815000D03*
X32775000Y15065000D03*
X32775000Y16315000D03*
X32775000Y17565000D03*
X32775000Y18815000D03*
X18925000Y12415000D03*
X20175000Y12415000D03*
X21425000Y12415000D03*
X22675000Y12415000D03*
X23925000Y12415000D03*
X18925000Y11165000D03*
X20175000Y11165000D03*
X21425000Y11165000D03*
X22675000Y11165000D03*
X23925000Y11165000D03*
X18925000Y9915000D03*
X20175000Y9915000D03*
X21425000Y9915000D03*
X22675000Y9915000D03*
X23925000Y9915000D03*
X23775000Y-34710000D03*
X23775000Y-35960000D03*
X23775000Y-37210000D03*
X23775000Y-38460000D03*
X23775000Y-39710000D03*
X23775000Y-40960000D03*
X25400000Y-36235000D03*
X25400000Y-37485000D03*
X25400000Y-38735000D03*
X39700000Y-22335000D03*
X39700000Y-23335000D03*
X39700000Y-24335000D03*
X39700000Y-25335000D03*
X38675000Y-23335000D03*
X38675000Y-24335000D03*
D33*
X25350000Y-10235000D03*
D34*
X44800000Y-5060000D03*
X45800000Y-5060000D03*
X46800000Y-5060000D03*
X44800000Y-6060000D03*
X45800000Y-6060000D03*
X46800000Y-6060000D03*
X46800000Y-4060000D03*
X45800000Y-4060000D03*
X44800000Y-4060000D03*
D33*
X48000000Y-2685000D03*
D34*
%TO.N,+3.3Vaux*%
X35200000Y17990000D03*
D35*
X14800000Y-24585000D03*
X10300000Y-24585000D03*
X9550000Y-11385000D03*
X10850000Y-11385000D03*
X8250000Y-11385000D03*
X6950000Y-11385000D03*
X5650000Y-11385000D03*
X4350000Y-11385000D03*
X6650000Y-25385000D03*
X7975000Y-25435000D03*
D34*
X35500000Y16315000D03*
X35475000Y15140000D03*
D35*
X9300000Y-25435000D03*
X4100000Y-22785000D03*
X17800000Y-24585000D03*
D34*
%TO.N,/SLOT0_CONFIG*%
X66875000Y-40685000D03*
%TO.N,/SLOT1_CONFIG*%
X99700000Y-40610000D03*
%TO.N,/LAN_SMB_CLK*%
X17600000Y13265000D03*
%TO.N,/LAN_SMB_DAT*%
X31825000Y7640000D03*
D35*
%TO.N,/LAN_SMB_ALERT_N*%
X38700000Y12890000D03*
D34*
%TO.N,/PCIE_SLOT1_PRSNT_x8*%
X99750000Y-39210000D03*
%TO.N,/PCIE_SLOT1_PRSNT_x1x4*%
X66850000Y-39585000D03*
%TO.N,/PCIE_SLOT_PRSNT#1*%
X16600000Y-42335000D03*
%TO.N,/RST_PERST0_N*%
X30950000Y4640000D03*
X46950000Y8915000D03*
D36*
%TO.N,/CLK100_SLOT1+*%
X42273800Y-29385000D03*
%TO.N,/CLK100_SLOT1-*%
X42776200Y-29385000D03*
D34*
%TO.N,/PCIe_SMB_CLK*%
X7975000Y-20560000D03*
%TO.N,/PCIe_SMB_DATA*%
X4325000Y-18385000D03*
D36*
%TO.N,/Oculink_0_C_x4_TX0+*%
X27823800Y2965000D03*
X31948800Y-39260000D03*
%TO.N,/Oculink_0_C_x4_TX1+*%
X28898800Y240000D03*
X36948800Y-39285000D03*
%TO.N,/Oculink_0_C_x4_TX2+*%
X33398800Y240000D03*
X40948800Y-39360000D03*
%TO.N,/Oculink_0_C_x4_TX3+*%
X34563800Y3140000D03*
X44948800Y-39410000D03*
%TO.N,/Oculink_0_C_x4_TX0-*%
X28326200Y2965000D03*
X32451200Y-39260000D03*
%TO.N,/Oculink_0_C_x4_TX1-*%
X29401200Y240000D03*
X37451200Y-39285000D03*
%TO.N,/Oculink_0_C_x4_TX2-*%
X33901200Y240000D03*
X41451200Y-39360000D03*
%TO.N,/Oculink_0_C_x4_TX3-*%
X35066200Y3140000D03*
X45451200Y-39410000D03*
D34*
%TO.N,+3.3VP*%
X48800000Y-19885000D03*
X46800000Y-18735000D03*
X46800000Y-19510000D03*
X49350000Y-19410000D03*
X46475000Y-26710000D03*
X47525000Y-26735000D03*
X49200000Y-26685000D03*
X52225000Y-22685000D03*
X53450000Y-23285000D03*
D36*
%TO.N,/Oculink_1_C_x4_TX0+*%
X50948800Y-39585000D03*
X52823800Y2965000D03*
%TO.N,/Oculink_1_C_x4_TX1+*%
X53898800Y240000D03*
X54948800Y-39560000D03*
%TO.N,/Oculink_1_C_x4_TX2+*%
X58948800Y-39560000D03*
X58398800Y240000D03*
%TO.N,/Oculink_1_C_x4_TX3+*%
X59563800Y3140000D03*
X62948800Y-39460000D03*
%TO.N,/Oculink_1_C_x4_TX0-*%
X51451200Y-39585000D03*
X53326200Y2965000D03*
%TO.N,/Oculink_1_C_x4_TX1-*%
X54401200Y240000D03*
X55451200Y-39560000D03*
%TO.N,/Oculink_1_C_x4_TX2-*%
X59451200Y-39560000D03*
X58901200Y240000D03*
%TO.N,/Oculink_1_C_x4_TX3-*%
X60066200Y3140000D03*
X63451200Y-39460000D03*
%TO.N,/Oculink_0_x4_RX0+*%
X33948800Y-38060000D03*
%TO.N,/Oculink_0_x4_RX0-*%
X34451200Y-38060000D03*
%TO.N,/Oculink_0_x4_RX1+*%
X38948800Y-38085000D03*
%TO.N,/Oculink_0_x4_RX1-*%
X39451200Y-38085000D03*
%TO.N,/Oculink_0_x4_RX2+*%
X42948800Y-38135000D03*
%TO.N,/Oculink_0_x4_RX2-*%
X43451200Y-38135000D03*
%TO.N,/Oculink_0_x4_RX3+*%
X46948800Y-38160000D03*
%TO.N,/Oculink_0_x4_RX3-*%
X47451200Y-38160000D03*
%TO.N,/Oculink_1_x4_RX0+*%
X52948800Y-38335000D03*
%TO.N,/Oculink_1_x4_RX0-*%
X53451200Y-38335000D03*
%TO.N,/Oculink_1_x4_RX1+*%
X56948800Y-38335000D03*
%TO.N,/Oculink_1_x4_RX1-*%
X57451200Y-38335000D03*
%TO.N,/Oculink_1_x4_RX2+*%
X60948800Y-38385000D03*
%TO.N,/Oculink_1_x4_RX2-*%
X61451200Y-38385000D03*
%TO.N,/Oculink_1_x4_RX3+*%
X64948800Y-38360000D03*
%TO.N,/Oculink_1_x4_RX3-*%
X65451200Y-38360000D03*
D35*
%TO.N,Net-(J3-PadA10)*%
X57550000Y-7960000D03*
D34*
X52325000Y7365000D03*
D36*
%TO.N,/Oculink_1_CLK100+*%
X57398800Y-6285000D03*
X49777626Y-7887626D03*
%TO.N,/Oculink_1_CLK100-*%
X57901200Y-6285000D03*
X49422374Y-7532374D03*
D34*
%TO.N,/Oculink_1_SMB_CLK*%
X55400000Y1590000D03*
X7275000Y-9310000D03*
%TO.N,/Oculink_1_SMB_DATA*%
X56150000Y915000D03*
X5525000Y-9535000D03*
%TO.N,/Oculink_0_SMB_DATA*%
X13775000Y-17535000D03*
X31175000Y740000D03*
%TO.N,/Oculink_0_SMB_CLK*%
X30400000Y1215000D03*
X15375000Y-18435000D03*
D36*
%TO.N,/Oculink_0_CLK100-*%
X32901200Y-6235000D03*
X38772374Y-10287626D03*
%TO.N,/Oculink_0_CLK100+*%
X32398800Y-6235000D03*
X39127626Y-9932374D03*
D35*
%TO.N,Net-(J4-PadA10)*%
X32075000Y-9485000D03*
X40300000Y3340000D03*
%TD*%
D37*
%TO.N,+12V*%
X62630000Y-5460000D02*
X65175000Y-5460000D01*
X61900000Y-3730000D02*
X61900000Y-4730000D01*
X61900000Y-4730000D02*
X62630000Y-5460000D01*
X26400000Y-1890000D02*
X26400000Y-1735000D01*
X26400000Y-1735000D02*
X25575000Y-910000D01*
X25575000Y-910000D02*
X23525000Y-910000D01*
D38*
X23525000Y440000D02*
X23525000Y-910000D01*
D39*
%TO.N,GND*%
X6675000Y-15985000D02*
X5950000Y-15985000D01*
X22600000Y-43335000D02*
X22350000Y-43085000D01*
X22600000Y-46085000D02*
X22600000Y-43335000D01*
X19600000Y-46085000D02*
X19600000Y-43335000D01*
X19600000Y-43335000D02*
X19850000Y-43085000D01*
X130700000Y-43585000D02*
X130200000Y-43085000D01*
X130700000Y-46085000D02*
X130700000Y-43585000D01*
X127700000Y-43585000D02*
X128200000Y-43085000D01*
X127700000Y-46085000D02*
X127700000Y-43585000D01*
X126700000Y-43585000D02*
X126200000Y-43085000D01*
X126700000Y-46085000D02*
X126700000Y-43585000D01*
X102700000Y-43585000D02*
X102200000Y-43085000D01*
X102700000Y-46085000D02*
X102700000Y-43585000D01*
X103700000Y-43585000D02*
X104200000Y-43085000D01*
X103700000Y-46085000D02*
X103700000Y-43585000D01*
X106700000Y-43585000D02*
X106200000Y-43085000D01*
X106700000Y-46085000D02*
X106700000Y-43585000D01*
X107700000Y-43585000D02*
X108200000Y-43085000D01*
X107700000Y-46085000D02*
X107700000Y-43585000D01*
X110700000Y-43585000D02*
X110200000Y-43085000D01*
X110700000Y-46085000D02*
X110700000Y-43585000D01*
X111700000Y-43585000D02*
X112200000Y-43085000D01*
X111700000Y-46085000D02*
X111700000Y-43585000D01*
X114700000Y-43585000D02*
X114200000Y-43085000D01*
X114700000Y-46085000D02*
X114700000Y-43585000D01*
X115700000Y-43585000D02*
X116200000Y-43085000D01*
X115700000Y-46085000D02*
X115700000Y-43585000D01*
X118700000Y-43585000D02*
X118200000Y-43085000D01*
X118700000Y-46085000D02*
X118700000Y-43585000D01*
X119700000Y-43585000D02*
X120200000Y-43085000D01*
X119700000Y-46085000D02*
X119700000Y-43585000D01*
X122700000Y-43585000D02*
X122200000Y-43085000D01*
X122700000Y-46085000D02*
X122700000Y-43585000D01*
X123700000Y-43585000D02*
X124200000Y-43085000D01*
X123700000Y-46085000D02*
X123700000Y-43585000D01*
X99700000Y-46085000D02*
X99700000Y-43085000D01*
X97700000Y-43585000D02*
X97200000Y-43085000D01*
X97700000Y-46085000D02*
X97700000Y-43585000D01*
X94700000Y-43585000D02*
X95200000Y-43085000D01*
X94700000Y-46085000D02*
X94700000Y-43585000D01*
X93700000Y-43585000D02*
X93200000Y-43085000D01*
X93700000Y-46085000D02*
X93700000Y-43585000D01*
X90700000Y-43585000D02*
X91200000Y-43085000D01*
X90700000Y-46085000D02*
X90700000Y-43585000D01*
X89700000Y-43585000D02*
X89200000Y-43085000D01*
X89700000Y-46085000D02*
X89700000Y-43585000D01*
X86700000Y-43585000D02*
X87200000Y-43085000D01*
X86700000Y-46085000D02*
X86700000Y-43585000D01*
X85700000Y-43585000D02*
X85200000Y-43085000D01*
X85700000Y-46085000D02*
X85700000Y-43585000D01*
X82700000Y-43585000D02*
X83200000Y-43085000D01*
X82700000Y-46085000D02*
X82700000Y-43585000D01*
X81700000Y-43585000D02*
X81200000Y-43085000D01*
X81700000Y-46085000D02*
X81700000Y-43585000D01*
X78700000Y-43585000D02*
X79200000Y-43085000D01*
X78700000Y-46085000D02*
X78700000Y-43585000D01*
X77700000Y-43585000D02*
X77200000Y-43085000D01*
X77700000Y-46085000D02*
X77700000Y-43585000D01*
X74700000Y-43585000D02*
X75200000Y-43085000D01*
X74700000Y-46085000D02*
X74700000Y-43585000D01*
X73700000Y-43585000D02*
X73200000Y-43085000D01*
X73700000Y-46085000D02*
X73700000Y-43585000D01*
X70700000Y-43585000D02*
X71200000Y-43085000D01*
X70700000Y-46085000D02*
X70700000Y-43585000D01*
X69700000Y-43585000D02*
X69200000Y-43085000D01*
X69700000Y-46085000D02*
X69700000Y-43585000D01*
X66700000Y-46085000D02*
X66700000Y-43085000D01*
X64700000Y-43585000D02*
X64200000Y-43085000D01*
X64700000Y-46085000D02*
X64700000Y-43585000D01*
X61700000Y-43585000D02*
X62200000Y-43085000D01*
X61700000Y-46085000D02*
X61700000Y-43585000D01*
X60700000Y-43585000D02*
X60200000Y-43085000D01*
X60700000Y-46085000D02*
X60700000Y-43585000D01*
X57700000Y-43585000D02*
X58200000Y-43085000D01*
X57700000Y-46085000D02*
X57700000Y-43585000D01*
X56700000Y-43585000D02*
X56200000Y-43085000D01*
X56700000Y-46085000D02*
X56700000Y-43585000D01*
X53700000Y-43585000D02*
X54200000Y-43085000D01*
X53700000Y-46085000D02*
X53700000Y-43585000D01*
X52700000Y-43585000D02*
X52200000Y-43085000D01*
X52700000Y-46085000D02*
X52700000Y-43585000D01*
X33700000Y-43585000D02*
X33200000Y-43085000D01*
X33700000Y-46085000D02*
X33700000Y-43585000D01*
X35700000Y-46085000D02*
X35700000Y-43085000D01*
X49700000Y-43585000D02*
X49200000Y-43085000D01*
X49700000Y-46085000D02*
X49700000Y-43585000D01*
X46700000Y-43585000D02*
X46200000Y-43085000D01*
X46700000Y-46085000D02*
X46700000Y-43585000D01*
X43700000Y-43585000D02*
X44200000Y-43085000D01*
X43700000Y-46085000D02*
X43700000Y-43585000D01*
X42700000Y-43585000D02*
X42200000Y-43085000D01*
X42700000Y-46085000D02*
X42700000Y-43585000D01*
X39700000Y-43585000D02*
X40200000Y-43085000D01*
X39700000Y-46085000D02*
X39700000Y-43585000D01*
X38700000Y-43585000D02*
X38200000Y-43085000D01*
X38700000Y-46085000D02*
X38700000Y-43585000D01*
X14875000Y-13135000D02*
X15625000Y-13135000D01*
X50825000Y-25315000D02*
X50825000Y-25835000D01*
X14875000Y-15985000D02*
X15625000Y-15985000D01*
D37*
X59400000Y-1830000D02*
X59400000Y-345000D01*
D40*
X59400000Y-345000D02*
X59390000Y-335000D01*
D37*
X57900000Y-1830000D02*
X57900000Y-345000D01*
D40*
X57900000Y-345000D02*
X57890000Y-335000D01*
D37*
X56400000Y-1830000D02*
X56400000Y-345000D01*
X54900000Y-1830000D02*
X54900000Y-345000D01*
X53400000Y-1830000D02*
X53400000Y-345000D01*
X60900000Y-330000D02*
X60900000Y-830000D01*
X61250000Y20000D02*
X60900000Y-330000D01*
X60900000Y-830000D02*
X60900000Y-1830000D01*
X61250000Y1220000D02*
X61250000Y20000D01*
X61400000Y-4730000D02*
X61400000Y-3730000D01*
X61400000Y-5380000D02*
X61400000Y-4730000D01*
X61600000Y-5580000D02*
X61400000Y-5380000D01*
X61600000Y-6780000D02*
X61600000Y-5580000D01*
X51900000Y-330000D02*
X51900000Y-830000D01*
X51550000Y20000D02*
X51900000Y-330000D01*
X51900000Y-830000D02*
X51900000Y-1830000D01*
X51550000Y1220000D02*
X51550000Y20000D01*
X51900000Y-5785000D02*
X51900000Y-6780000D01*
X52400000Y-5285000D02*
X51900000Y-5785000D01*
X52400000Y-3730000D02*
X52400000Y-5285000D01*
X53900000Y-5175000D02*
X53910000Y-5185000D01*
X53900000Y-3730000D02*
X53900000Y-5175000D01*
X55400000Y-3730000D02*
X55400000Y-5175000D01*
X56900000Y-3730000D02*
X56900000Y-5175000D01*
X58400000Y-3730000D02*
X58400000Y-5175000D01*
X59900000Y-3730000D02*
X59900000Y-5175000D01*
X26900000Y-830000D02*
X26900000Y-1830000D01*
X26550000Y20000D02*
X26900000Y-330000D01*
X26900000Y-330000D02*
X26900000Y-830000D01*
X26550000Y1220000D02*
X26550000Y20000D01*
X28400000Y-1830000D02*
X28400000Y-345000D01*
X35900000Y-330000D02*
X35900000Y-830000D01*
X35900000Y-830000D02*
X35900000Y-1830000D01*
X29900000Y-1830000D02*
X29900000Y-345000D01*
X36250000Y20000D02*
X35900000Y-330000D01*
X36250000Y1220000D02*
X36250000Y20000D01*
X31400000Y-1830000D02*
X31400000Y-345000D01*
X34400000Y-1830000D02*
X34400000Y-345000D01*
D40*
X32900000Y-345000D02*
X32890000Y-335000D01*
X34400000Y-345000D02*
X34390000Y-335000D01*
D37*
X32900000Y-1830000D02*
X32900000Y-345000D01*
X28900000Y-5175000D02*
X28910000Y-5185000D01*
X28900000Y-3730000D02*
X28900000Y-5175000D01*
X34900000Y-3730000D02*
X34900000Y-5175000D01*
X30400000Y-3730000D02*
X30400000Y-5175000D01*
X31900000Y-3730000D02*
X31900000Y-5175000D01*
X33400000Y-3730000D02*
X33400000Y-5175000D01*
X27400000Y-3730000D02*
X27400000Y-5285000D01*
X27400000Y-5285000D02*
X26900000Y-5785000D01*
X36400000Y-4730000D02*
X36400000Y-3730000D01*
X36600000Y-5580000D02*
X36400000Y-5380000D01*
X36400000Y-5380000D02*
X36400000Y-4730000D01*
X26900000Y-6840000D02*
X26900000Y-5785000D01*
X36600000Y-6840000D02*
X36600000Y-5580000D01*
X51855000Y-21235000D02*
X52150000Y-21235000D01*
X52150000Y-21235000D02*
X52550000Y-20835000D01*
X35375000Y-41035000D02*
X34700000Y-41035000D01*
X35700000Y-43085000D02*
X35700000Y-41360000D01*
X35700000Y-41360000D02*
X35375000Y-41035000D01*
X50025000Y-18405000D02*
X50430000Y-18405000D01*
X50430000Y-18405000D02*
X51025000Y-17810000D01*
X52800000Y-24390000D02*
X52800000Y-25060000D01*
X40725000Y-23435000D02*
X40725000Y-24335000D01*
X45325000Y-25585000D02*
X45325000Y-26310000D01*
X48825000Y-25585000D02*
X49250000Y-25585000D01*
X49250000Y-25585000D02*
X49450000Y-25785000D01*
X45325000Y-20785000D02*
X45325000Y-19935000D01*
X48825000Y-20785000D02*
X49350000Y-20785000D01*
X49350000Y-20785000D02*
X49600000Y-20535000D01*
X46825000Y-17555000D02*
X46825000Y-16810000D01*
X26900000Y-6840000D02*
X26900000Y-7885000D01*
X26900000Y-7885000D02*
X26250000Y-8535000D01*
X26550000Y1160000D02*
X25605000Y1160000D01*
X25605000Y1160000D02*
X25125000Y1640000D01*
X36250000Y1160000D02*
X37170000Y1160000D01*
X37170000Y1160000D02*
X37675000Y1665000D01*
X51550000Y1220000D02*
X50645000Y1220000D01*
X61250000Y1220000D02*
X62255000Y1220000D01*
X62255000Y1220000D02*
X62750000Y1715000D01*
X61600000Y-6780000D02*
X63330000Y-6780000D01*
X51900000Y-6780000D02*
X51900000Y-7960000D01*
X51900000Y-7960000D02*
X51275000Y-8585000D01*
X63330000Y-6780000D02*
X63770000Y-6780000D01*
X63770000Y-6780000D02*
X64775000Y-7785000D01*
X37050000Y18565000D02*
X37050000Y17365000D01*
X37050000Y17365000D02*
X37050000Y15390000D01*
X37050000Y15390000D02*
X37700000Y14740000D01*
D39*
X14350000Y-20785000D02*
X14350000Y-19985000D01*
X14875000Y-14535000D02*
X15625000Y-14535000D01*
D37*
X50645000Y1220000D02*
X50280000Y1220000D01*
X50280000Y1220000D02*
X49775000Y715000D01*
X41625000Y-17335000D02*
X40975000Y-17335000D01*
X43275000Y-20255000D02*
X43275000Y-19685000D01*
X42125000Y-19985000D02*
X42125000Y-19235000D01*
X40925000Y-19985000D02*
X40925000Y-19260000D01*
X36600000Y-6840000D02*
X36600000Y-10160000D01*
X36600000Y-10160000D02*
X37200000Y-10760000D01*
D39*
X66700000Y-42285000D02*
X66700000Y-43085000D01*
X99700000Y-43085000D02*
X99700000Y-42285000D01*
X30700000Y-43335000D02*
X30450000Y-43085000D01*
X30700000Y-46085000D02*
X30700000Y-43335000D01*
X47700000Y-46085000D02*
X46700000Y-46085000D01*
D37*
%TO.N,+3V3*%
X62950000Y-735000D02*
X65050000Y-735000D01*
X61400000Y-1830000D02*
X61855000Y-1830000D01*
X61855000Y-1830000D02*
X62950000Y-735000D01*
X37535000Y-1210000D02*
X40025000Y-1210000D01*
X36400000Y-1890000D02*
X36855000Y-1890000D01*
X36855000Y-1890000D02*
X37535000Y-1210000D01*
X32675000Y4290000D02*
X32675000Y5015000D01*
X63800000Y3815000D02*
X64525000Y3815000D01*
D38*
X26900000Y-4740000D02*
X26505000Y-5135000D01*
X26900000Y-3790000D02*
X26900000Y-4740000D01*
X26505000Y-5135000D02*
X26100000Y-5135000D01*
X25350000Y-5885000D02*
X25350000Y-10235000D01*
X26100000Y-5135000D02*
X25350000Y-5885000D01*
D37*
X65050000Y-735000D02*
X65650000Y-135000D01*
X65650000Y2690000D02*
X64525000Y3815000D01*
X65650000Y-135000D02*
X65650000Y2690000D01*
D38*
X25350000Y-10235000D02*
X25350000Y-12685000D01*
D37*
X48000000Y-2685000D02*
X48000000Y-3660000D01*
D38*
X51520000Y-5060000D02*
X51900000Y-4680000D01*
X51900000Y-4680000D02*
X51900000Y-3730000D01*
X49046447Y-5060000D02*
X51520000Y-5060000D01*
X48000000Y-4013553D02*
X49046447Y-5060000D01*
X48000000Y-3660000D02*
X48000000Y-4013553D01*
D39*
%TO.N,+3.3Vaux*%
X10950000Y-24585000D02*
X10300000Y-24585000D01*
X9550000Y-12135000D02*
X9550000Y-11385000D01*
X10850000Y-12135000D02*
X10850000Y-11385000D01*
X8250000Y-12135000D02*
X8250000Y-11385000D01*
X6950000Y-12135000D02*
X6950000Y-11385000D01*
X5650000Y-12135000D02*
X5650000Y-11385000D01*
X4350000Y-12135000D02*
X4350000Y-11385000D01*
X6650000Y-24785000D02*
X6650000Y-25385000D01*
X7975000Y-24785000D02*
X7975000Y-25435000D01*
D37*
X7975000Y-25435000D02*
X7950000Y-25460000D01*
D39*
X25600000Y-40360000D02*
X26350000Y-39610000D01*
X25600000Y-46085000D02*
X25600000Y-40360000D01*
X9300000Y-24785000D02*
X9300000Y-25435000D01*
X26350000Y-39610000D02*
X26350000Y-33810000D01*
X5000000Y-22785000D02*
X4100000Y-22785000D01*
X26350000Y-33810000D02*
X26350000Y-31285000D01*
X26350000Y-31285000D02*
X20400000Y-25335000D01*
X19650000Y-24585000D02*
X20400000Y-25335000D01*
X17800000Y-24585000D02*
X19650000Y-24585000D01*
D40*
%TO.N,/SLOT0_CONFIG*%
X66700000Y-40860000D02*
X66875000Y-40685000D01*
X66700000Y-41385000D02*
X66700000Y-40860000D01*
%TO.N,/SLOT1_CONFIG*%
X99700000Y-41385000D02*
X99700000Y-40610000D01*
%TO.N,/LAN_SMB_CLK*%
X24600000Y-31060000D02*
X19050000Y-25510000D01*
X24600000Y-46085000D02*
X24600000Y-31060000D01*
X16600000Y12265000D02*
X17600000Y13265000D01*
X17650000Y-25510000D02*
X16600000Y-24460000D01*
X19050000Y-25510000D02*
X17650000Y-25510000D01*
X16600000Y-24460000D02*
X16600000Y12265000D01*
%TO.N,Net-(R7-Pad2)*%
X13975000Y-15985000D02*
X12525000Y-15985000D01*
%TO.N,Net-(R8-Pad2)*%
X11875000Y-14810000D02*
X11875000Y-15985000D01*
X12150000Y-14535000D02*
X11875000Y-14810000D01*
X13975000Y-14535000D02*
X12150000Y-14535000D01*
%TO.N,/LAN_SMB_ALERT_N*%
X29700000Y-46085000D02*
X29700000Y-38535000D01*
X29700000Y-36910000D02*
X29700000Y-36785000D01*
X29700000Y-38535000D02*
X29700000Y-36910000D01*
X36100000Y10290000D02*
X38700000Y12890000D01*
X22525000Y-24285000D02*
X22525000Y1140000D01*
X31675000Y10290000D02*
X36100000Y10290000D01*
X29700000Y-31460000D02*
X22525000Y-24285000D01*
X29700000Y-36910000D02*
X29700000Y-31460000D01*
X22525000Y1140000D02*
X31675000Y10290000D01*
D41*
%TO.N,/CPU0_TX3-*%
X80700000Y-44385000D02*
X80352400Y-44037400D01*
X80700000Y-46085000D02*
X80700000Y-44385000D01*
X80352400Y-44037400D02*
X80352400Y7128128D01*
X80352400Y7128128D02*
X73963128Y13517400D01*
X73963128Y13517400D02*
X64763128Y13517400D01*
X64763128Y13517400D02*
X59613128Y18667400D01*
X59613128Y18667400D02*
X56113128Y18667400D01*
X56113128Y18667400D02*
X55252400Y19528128D01*
X56090000Y20915000D02*
X56090000Y21475000D01*
X56090000Y21475000D02*
X55900000Y21665000D01*
X55900000Y21665000D02*
X55500000Y21665000D01*
X55252400Y19528128D02*
X55252400Y20312600D01*
X55252400Y20312600D02*
X55250000Y20315000D01*
X55250000Y21415000D02*
X55500000Y21665000D01*
X55250000Y20315000D02*
X55250000Y21415000D01*
%TO.N,/CPU0_TX6+*%
X69090000Y22137183D02*
X68947600Y21994783D01*
X69090000Y22915000D02*
X69090000Y22137183D01*
X68947600Y21994783D02*
X68947600Y19451872D01*
X91700000Y-46085000D02*
X91700000Y-44385000D01*
X91700000Y-44385000D02*
X92047600Y-44037400D01*
X92047600Y-44037400D02*
X92047600Y1751872D01*
X92047600Y1751872D02*
X76836872Y16962600D01*
X76836872Y16962600D02*
X71436872Y16962600D01*
X71436872Y16962600D02*
X68947600Y19451872D01*
%TO.N,/CPU0_TX2+*%
X51090000Y22005000D02*
X50950000Y21865000D01*
X51090000Y22915000D02*
X51090000Y22005000D01*
X50947600Y19401872D02*
X50947600Y20952218D01*
X50950000Y20954618D02*
X50950000Y21865000D01*
X50947600Y20952218D02*
X50950000Y20954618D01*
X75700000Y-46085000D02*
X75700000Y-44385000D01*
X75700000Y-44385000D02*
X76047600Y-44037400D01*
X76047600Y-44037400D02*
X76047600Y8651872D01*
X76047600Y8651872D02*
X72736872Y11962600D01*
X72736872Y11962600D02*
X64136872Y11962600D01*
X64136872Y11962600D02*
X58986872Y17112600D01*
X58986872Y17112600D02*
X53236872Y17112600D01*
X53236872Y17112600D02*
X50947600Y19401872D01*
%TO.N,/CPU0_TX5+*%
X65090000Y22137183D02*
X64947600Y21994783D01*
X65090000Y22915000D02*
X65090000Y22137183D01*
X64947600Y21994783D02*
X64947600Y19451872D01*
X87700000Y-46085000D02*
X87700000Y-44385000D01*
X87700000Y-44385000D02*
X88047600Y-44037400D01*
X88047600Y-44037400D02*
X88047600Y3451872D01*
X88047600Y3451872D02*
X75786872Y15712600D01*
X75786872Y15712600D02*
X68686872Y15712600D01*
X68686872Y15712600D02*
X64947600Y19451872D01*
%TO.N,/CPU0_TX7+*%
X95700000Y-44385000D02*
X95700000Y-46085000D01*
X96047600Y-44037400D02*
X95700000Y-44385000D01*
X77736872Y18212600D02*
X96047600Y-98128D01*
X96047600Y-98128D02*
X96047600Y-44037400D01*
X73090000Y22915000D02*
X73090000Y22137183D01*
X73090000Y22137183D02*
X72947600Y21994783D01*
X72947600Y19451872D02*
X74186872Y18212600D01*
X74186872Y18212600D02*
X77736872Y18212600D01*
X72947600Y21994783D02*
X72947600Y19451872D01*
%TO.N,/CPU0_TX4-*%
X62090000Y21475000D02*
X62090000Y20915000D01*
X61252400Y19578128D02*
X61252400Y21367400D01*
X61550000Y21665000D02*
X61900000Y21665000D01*
X61900000Y21665000D02*
X62090000Y21475000D01*
X61252400Y21367400D02*
X61550000Y21665000D01*
X84700000Y-44385000D02*
X84352400Y-44037400D01*
X84700000Y-46085000D02*
X84700000Y-44385000D01*
X84352400Y-44037400D02*
X84352400Y5028128D01*
X84352400Y5028128D02*
X74613128Y14767400D01*
X66063128Y14767400D02*
X61252400Y19578128D01*
X74613128Y14767400D02*
X66063128Y14767400D01*
%TO.N,/CPU0_TX4+*%
X61090000Y22137183D02*
X60947600Y21994783D01*
X61090000Y22915000D02*
X61090000Y22137183D01*
X60947600Y21994783D02*
X60947600Y19451872D01*
X83700000Y-46085000D02*
X83700000Y-44385000D01*
X83700000Y-44385000D02*
X84047600Y-44037400D01*
X84047600Y-44037400D02*
X84047600Y4901872D01*
X84047600Y4901872D02*
X74486872Y14462600D01*
X74486872Y14462600D02*
X65936872Y14462600D01*
X65936872Y14462600D02*
X60947600Y19451872D01*
%TO.N,/CPU0_TX3+*%
X79700000Y-46085000D02*
X79700000Y-44385000D01*
X79700000Y-44385000D02*
X80047600Y-44037400D01*
X80047600Y-44037400D02*
X80047600Y7001872D01*
X80047600Y7001872D02*
X73836872Y13212600D01*
X73836872Y13212600D02*
X64636872Y13212600D01*
X64636872Y13212600D02*
X59486872Y18362600D01*
X59486872Y18362600D02*
X55986872Y18362600D01*
X55986872Y18362600D02*
X54947600Y19401872D01*
X55090000Y22915000D02*
X55090000Y22005000D01*
X55090000Y22005000D02*
X54950000Y21865000D01*
X54950000Y20954618D02*
X54950000Y21865000D01*
X54947600Y20952218D02*
X54950000Y20954618D01*
X54947600Y19401872D02*
X54947600Y20952218D01*
%TO.N,/CPU0_TX2-*%
X52090000Y20915000D02*
X52090000Y21475000D01*
X52090000Y21475000D02*
X51900000Y21665000D01*
X51252400Y19528128D02*
X51252400Y20312600D01*
X51250000Y21415000D02*
X51500000Y21665000D01*
X51250000Y20315000D02*
X51250000Y21415000D01*
X51252400Y20312600D02*
X51250000Y20315000D01*
X51900000Y21665000D02*
X51500000Y21665000D01*
X76700000Y-44385000D02*
X76352400Y-44037400D01*
X76700000Y-46085000D02*
X76700000Y-44385000D01*
X76352400Y-44037400D02*
X76352400Y8778128D01*
X76352400Y8778128D02*
X72863128Y12267400D01*
X72863128Y12267400D02*
X64263128Y12267400D01*
X64263128Y12267400D02*
X59113128Y17417400D01*
X53363128Y17417400D02*
X51252400Y19528128D01*
X59113128Y17417400D02*
X53363128Y17417400D01*
D40*
%TO.N,/PCIE_SLOT1_PRSNT_x8*%
X98700000Y-46085000D02*
X98700000Y-40260000D01*
X98700000Y-40260000D02*
X99750000Y-39210000D01*
D41*
%TO.N,/CPU0_TX5-*%
X66090000Y21475000D02*
X66090000Y20915000D01*
X65252400Y19578128D02*
X65252400Y21367400D01*
X65550000Y21665000D02*
X65900000Y21665000D01*
X65900000Y21665000D02*
X66090000Y21475000D01*
X65252400Y21367400D02*
X65550000Y21665000D01*
X88700000Y-44385000D02*
X88352400Y-44037400D01*
X88700000Y-46085000D02*
X88700000Y-44385000D01*
X88352400Y-44037400D02*
X88352400Y3578128D01*
X88352400Y3578128D02*
X75913128Y16017400D01*
X68813128Y16017400D02*
X65252400Y19578128D01*
X75913128Y16017400D02*
X68813128Y16017400D01*
%TO.N,/CPU0_TX6-*%
X70090000Y21475000D02*
X70090000Y20915000D01*
X69252400Y19578128D02*
X69252400Y21367400D01*
X69550000Y21665000D02*
X69900000Y21665000D01*
X69900000Y21665000D02*
X70090000Y21475000D01*
X69252400Y21367400D02*
X69550000Y21665000D01*
X92700000Y-44385000D02*
X92352400Y-44037400D01*
X92700000Y-46085000D02*
X92700000Y-44385000D01*
X92352400Y-44037400D02*
X92352400Y1878128D01*
X92352400Y1878128D02*
X76963128Y17267400D01*
X71563128Y17267400D02*
X69252400Y19578128D01*
X76963128Y17267400D02*
X71563128Y17267400D01*
%TO.N,/CPU0_TX7-*%
X73252400Y21367400D02*
X73550000Y21665000D01*
X74313128Y18517400D02*
X73252400Y19578128D01*
X74090000Y21475000D02*
X74090000Y20915000D01*
X73252400Y19578128D02*
X73252400Y21367400D01*
X77863128Y18517400D02*
X74313128Y18517400D01*
X96352400Y28128D02*
X77863128Y18517400D01*
X73900000Y21665000D02*
X74090000Y21475000D01*
X96352400Y-44037400D02*
X96352400Y28128D01*
X96700000Y-44385000D02*
X96352400Y-44037400D01*
X73550000Y21665000D02*
X73900000Y21665000D01*
X96700000Y-46085000D02*
X96700000Y-44385000D01*
%TO.N,/CPU0_TX1-*%
X48090000Y20915000D02*
X48090000Y21475000D01*
X48090000Y21475000D02*
X47900000Y21665000D01*
X47252400Y19528128D02*
X47252400Y20312600D01*
X47250000Y21415000D02*
X47500000Y21665000D01*
X47250000Y20315000D02*
X47250000Y21415000D01*
X47252400Y20312600D02*
X47250000Y20315000D01*
X47900000Y21665000D02*
X47500000Y21665000D01*
X72700000Y-44385000D02*
X72352400Y-44037400D01*
X72700000Y-46085000D02*
X72700000Y-44385000D01*
X72352400Y-44037400D02*
X72352400Y9028128D01*
X72352400Y9028128D02*
X70363128Y11017400D01*
X70363128Y11017400D02*
X63713128Y11017400D01*
X63713128Y11017400D02*
X58563128Y16167400D01*
X50613128Y16167400D02*
X47252400Y19528128D01*
X58563128Y16167400D02*
X50613128Y16167400D01*
D40*
%TO.N,Net-(J1-PadB31)*%
X48325000Y-43410000D02*
X48325000Y-41988553D01*
X48700000Y-43785000D02*
X48325000Y-43410000D01*
X48325000Y-41988553D02*
X48325000Y-41635000D01*
X48700000Y-46085000D02*
X48700000Y-43785000D01*
D41*
%TO.N,/CPU0_TX1+*%
X47090000Y22005000D02*
X46950000Y21865000D01*
X47090000Y22915000D02*
X47090000Y22005000D01*
X46947600Y19401872D02*
X46947600Y20952218D01*
X46950000Y20954618D02*
X46950000Y21865000D01*
X46947600Y20952218D02*
X46950000Y20954618D01*
X71700000Y-46085000D02*
X71700000Y-44385000D01*
X71700000Y-44385000D02*
X72047600Y-44037400D01*
X72047600Y-44037400D02*
X72047600Y8901872D01*
X72047600Y8901872D02*
X70236872Y10712600D01*
X70236872Y10712600D02*
X63586872Y10712600D01*
X63586872Y10712600D02*
X58436872Y15862600D01*
X58436872Y15862600D02*
X50486872Y15862600D01*
X50486872Y15862600D02*
X46947600Y19401872D01*
%TO.N,/CPU0_TX0-*%
X68700000Y-44385000D02*
X68700000Y-46085000D01*
X68352400Y-44037400D02*
X68700000Y-44385000D01*
X43090000Y21850000D02*
X43252400Y21687600D01*
X63163128Y9767400D02*
X65813128Y9767400D01*
X58013128Y14917400D02*
X63163128Y9767400D01*
X43252400Y18678128D02*
X47013128Y14917400D01*
X43090000Y22915000D02*
X43090000Y21850000D01*
X68352400Y7228128D02*
X68352400Y-44037400D01*
X43252400Y21687600D02*
X43252400Y18678128D01*
X65813128Y9767400D02*
X68352400Y7228128D01*
X47013128Y14917400D02*
X58013128Y14917400D01*
%TO.N,/CPU0_TX0+*%
X67700000Y-44385000D02*
X67700000Y-46085000D01*
X65686872Y9462600D02*
X68047600Y7101872D01*
X42090000Y21555000D02*
X42250000Y21715000D01*
X42947600Y18551872D02*
X46886872Y14612600D01*
X68047600Y-44037400D02*
X67700000Y-44385000D01*
X46886872Y14612600D02*
X57886872Y14612600D01*
X57886872Y14612600D02*
X63036872Y9462600D01*
X63036872Y9462600D02*
X65686872Y9462600D01*
X42090000Y20915000D02*
X42090000Y21555000D01*
X68047600Y7101872D02*
X68047600Y-44037400D01*
X42525000Y21715000D02*
X42950000Y21290000D01*
X42250000Y21715000D02*
X42525000Y21715000D01*
X42950000Y21290000D02*
X42947600Y18551872D01*
D40*
%TO.N,/PCIE_SLOT1_PRSNT_x1x4*%
X65700000Y-46085000D02*
X65700000Y-40735000D01*
X65700000Y-40735000D02*
X66850000Y-39585000D01*
%TO.N,/PCIE_SLOT0_PRSNT_x4*%
X34700000Y-46085000D02*
X34700000Y-41935000D01*
%TO.N,/SMB_DATA*%
X11875000Y-21885000D02*
X11875000Y-22910000D01*
X12950000Y-23985000D02*
X12950000Y-24585000D01*
X11875000Y-22910000D02*
X12950000Y-23985000D01*
X18500000Y-26285000D02*
X21600000Y-29385000D01*
X21600000Y-29385000D02*
X21600000Y-46085000D01*
X12950000Y-24585000D02*
X12950000Y-25185000D01*
X12950000Y-25185000D02*
X13375000Y-25610000D01*
X13375000Y-25610000D02*
X15850000Y-25610000D01*
X15850000Y-25610000D02*
X16525000Y-26285000D01*
X16525000Y-26285000D02*
X18500000Y-26285000D01*
%TO.N,/SMB_CLK*%
X11850000Y-24585000D02*
X11850000Y-24035000D01*
X11225000Y-23410000D02*
X11225000Y-21885000D01*
X11850000Y-24035000D02*
X11225000Y-23410000D01*
X20600000Y-46085000D02*
X20600000Y-32985000D01*
X11850000Y-25085000D02*
X13150000Y-26385000D01*
X11850000Y-24585000D02*
X11850000Y-25085000D01*
X13150000Y-26385000D02*
X15400000Y-26385000D01*
X20600000Y-31585000D02*
X20600000Y-32985000D01*
X15400000Y-26385000D02*
X20600000Y-31585000D01*
%TO.N,/IRQ_LVC_WAKE_N*%
X26600000Y-41360000D02*
X26600000Y-46085000D01*
X28000000Y-39960000D02*
X26600000Y-41360000D01*
X28000000Y-31360000D02*
X28000000Y-39960000D01*
X21500000Y-24860000D02*
X28000000Y-31360000D01*
X35525000Y21915000D02*
X35075000Y21465000D01*
X36775000Y22915000D02*
X35775000Y21915000D01*
X37090000Y22915000D02*
X36775000Y22915000D01*
X35075000Y19915000D02*
X34450000Y19290000D01*
X35075000Y21465000D02*
X35075000Y19915000D01*
X35775000Y21915000D02*
X35525000Y21915000D01*
X21500000Y2015000D02*
X21500000Y-24860000D01*
X34450000Y19290000D02*
X34450000Y12390000D01*
X30800000Y11315000D02*
X21500000Y2015000D01*
X34450000Y12390000D02*
X33375000Y11315000D01*
X33375000Y11315000D02*
X30800000Y11315000D01*
X40300000Y7365000D02*
X49575000Y7365000D01*
X39625000Y14440000D02*
X39625000Y7540000D01*
X37090000Y22915000D02*
X37650000Y22355000D01*
X37650000Y22355000D02*
X37650000Y21590000D01*
X37650000Y21590000D02*
X38100000Y21140000D01*
X39625000Y7540000D02*
X39800000Y7365000D01*
X38100000Y21140000D02*
X38100000Y15965000D01*
X39800000Y7365000D02*
X40300000Y7365000D01*
X38100000Y15965000D02*
X39625000Y14440000D01*
D41*
%TO.N,/CPU0_TX8+*%
X78090000Y20915000D02*
X78090000Y21555000D01*
X78090000Y21555000D02*
X78225000Y21690000D01*
X78900000Y21315000D02*
X78897600Y19501872D01*
X78225000Y21690000D02*
X78525000Y21690000D01*
X78525000Y21690000D02*
X78900000Y21315000D01*
X100700000Y-46085000D02*
X100700000Y-44385000D01*
X100700000Y-44385000D02*
X101047600Y-44037400D01*
X101047600Y-44037400D02*
X101047600Y6351872D01*
X101047600Y6351872D02*
X97936872Y9462600D01*
X97936872Y9462600D02*
X88936872Y9462600D01*
X88936872Y9462600D02*
X78897600Y19501872D01*
%TO.N,/CPU0_TX8-*%
X79090000Y21875000D02*
X79090000Y22915000D01*
X79202400Y19628128D02*
X79202400Y21762600D01*
X79202400Y21762600D02*
X79090000Y21875000D01*
X101700000Y-44385000D02*
X101352400Y-44037400D01*
X101700000Y-46085000D02*
X101700000Y-44385000D01*
X101352400Y-44037400D02*
X101352400Y6478128D01*
X101352400Y6478128D02*
X98063128Y9767400D01*
X89063128Y9767400D02*
X79202400Y19628128D01*
X98063128Y9767400D02*
X89063128Y9767400D01*
%TO.N,/CPU0_TX9+*%
X82090000Y20915000D02*
X82090000Y21555000D01*
X82090000Y21555000D02*
X82225000Y21690000D01*
X82900000Y21315000D02*
X82897600Y19501872D01*
X82225000Y21690000D02*
X82525000Y21690000D01*
X82525000Y21690000D02*
X82900000Y21315000D01*
X104700000Y-46085000D02*
X104700000Y-44385000D01*
X104700000Y-44385000D02*
X105047600Y-44037400D01*
X105047600Y-44037400D02*
X105047600Y7651872D01*
X105047600Y7651872D02*
X101986872Y10712600D01*
X101986872Y10712600D02*
X91686872Y10712600D01*
X91686872Y10712600D02*
X82897600Y19501872D01*
%TO.N,/CPU0_TX9-*%
X83090000Y21875000D02*
X83090000Y22915000D01*
X83202400Y19628128D02*
X83202400Y21762600D01*
X83202400Y21762600D02*
X83090000Y21875000D01*
X105700000Y-44385000D02*
X105352400Y-44037400D01*
X105700000Y-46085000D02*
X105700000Y-44385000D01*
X105352400Y-44037400D02*
X105352400Y7778128D01*
X105352400Y7778128D02*
X102113128Y11017400D01*
X91813128Y11017400D02*
X83202400Y19628128D01*
X102113128Y11017400D02*
X91813128Y11017400D01*
%TO.N,/CPU0_TX10+*%
X86090000Y20915000D02*
X86090000Y21555000D01*
X86090000Y21555000D02*
X86225000Y21690000D01*
X86900000Y21315000D02*
X86897600Y19501872D01*
X86225000Y21690000D02*
X86525000Y21690000D01*
X86525000Y21690000D02*
X86900000Y21315000D01*
X108700000Y-46085000D02*
X108700000Y-44385000D01*
X108700000Y-44385000D02*
X109047600Y-44037400D01*
X109047600Y-44037400D02*
X109047600Y9501872D01*
X109047600Y9501872D02*
X106586872Y11962600D01*
X106586872Y11962600D02*
X94436872Y11962600D01*
X94436872Y11962600D02*
X86897600Y19501872D01*
%TO.N,/CPU0_TX10-*%
X87090000Y21875000D02*
X87090000Y22915000D01*
X87202400Y19628128D02*
X87202400Y21762600D01*
X87202400Y21762600D02*
X87090000Y21875000D01*
X109700000Y-44385000D02*
X109352400Y-44037400D01*
X109700000Y-46085000D02*
X109700000Y-44385000D01*
X109352400Y-44037400D02*
X109352400Y9628128D01*
X109352400Y9628128D02*
X106713128Y12267400D01*
X94563128Y12267400D02*
X87202400Y19628128D01*
X106713128Y12267400D02*
X94563128Y12267400D01*
%TO.N,/CPU0_TX11+*%
X90090000Y20915000D02*
X90090000Y21555000D01*
X90090000Y21555000D02*
X90225000Y21690000D01*
X90900000Y21315000D02*
X90897600Y19501872D01*
X90225000Y21690000D02*
X90525000Y21690000D01*
X90525000Y21690000D02*
X90900000Y21315000D01*
X112700000Y-46085000D02*
X112700000Y-44385000D01*
X112700000Y-44385000D02*
X113047600Y-44037400D01*
X113047600Y-44037400D02*
X113047600Y10501872D01*
X113047600Y10501872D02*
X110336872Y13212600D01*
X110336872Y13212600D02*
X97186872Y13212600D01*
X97186872Y13212600D02*
X90897600Y19501872D01*
%TO.N,/CPU0_TX11-*%
X91090000Y21875000D02*
X91090000Y22915000D01*
X91202400Y19628128D02*
X91202400Y21762600D01*
X91202400Y21762600D02*
X91090000Y21875000D01*
X113700000Y-44385000D02*
X113352400Y-44037400D01*
X113700000Y-46085000D02*
X113700000Y-44385000D01*
X113352400Y-44037400D02*
X113352400Y10628128D01*
X113352400Y10628128D02*
X110463128Y13517400D01*
X97313128Y13517400D02*
X91202400Y19628128D01*
X110463128Y13517400D02*
X97313128Y13517400D01*
%TO.N,/CPU0_TX12+*%
X94090000Y20915000D02*
X94090000Y21555000D01*
X94090000Y21555000D02*
X94225000Y21690000D01*
X94900000Y21315000D02*
X94897600Y19501872D01*
X94225000Y21690000D02*
X94525000Y21690000D01*
X94525000Y21690000D02*
X94900000Y21315000D01*
X116700000Y-46085000D02*
X116700000Y-44385000D01*
X116700000Y-44385000D02*
X117047600Y-44037400D01*
X117047600Y-44037400D02*
X117047600Y9801872D01*
X117047600Y9801872D02*
X112386872Y14462600D01*
X112386872Y14462600D02*
X99936872Y14462600D01*
X99936872Y14462600D02*
X94897600Y19501872D01*
%TO.N,/CPU0_TX12-*%
X95090000Y21875000D02*
X95090000Y22915000D01*
X95202400Y19628128D02*
X95202400Y21762600D01*
X95202400Y21762600D02*
X95090000Y21875000D01*
X117700000Y-44385000D02*
X117352400Y-44037400D01*
X117700000Y-46085000D02*
X117700000Y-44385000D01*
X117352400Y-44037400D02*
X117352400Y9928128D01*
X117352400Y9928128D02*
X112513128Y14767400D01*
X112513128Y14767400D02*
X100063128Y14767400D01*
X100063128Y14767400D02*
X95202400Y19628128D01*
%TO.N,/CPU0_TX13+*%
X98090000Y20915000D02*
X98090000Y21555000D01*
X98090000Y21555000D02*
X98225000Y21690000D01*
X98900000Y21315000D02*
X98897600Y19501872D01*
X98225000Y21690000D02*
X98525000Y21690000D01*
X98525000Y21690000D02*
X98900000Y21315000D01*
X120700000Y-46085000D02*
X120700000Y-44385000D01*
X120700000Y-44385000D02*
X121047600Y-44037400D01*
X121047600Y-44037400D02*
X121047600Y7601872D01*
X121047600Y7601872D02*
X112936872Y15712600D01*
X112936872Y15712600D02*
X102686872Y15712600D01*
X102686872Y15712600D02*
X98897600Y19501872D01*
%TO.N,/CPU0_TX13-*%
X99090000Y21875000D02*
X99090000Y22915000D01*
X99202400Y19628128D02*
X99202400Y21762600D01*
X99202400Y21762600D02*
X99090000Y21875000D01*
X121700000Y-44385000D02*
X121352400Y-44037400D01*
X121700000Y-46085000D02*
X121700000Y-44385000D01*
X121352400Y-44037400D02*
X121352400Y7728128D01*
X121352400Y7728128D02*
X113063128Y16017400D01*
X102813128Y16017400D02*
X99202400Y19628128D01*
X113063128Y16017400D02*
X102813128Y16017400D01*
%TO.N,/CPU0_TX14+*%
X102090000Y20915000D02*
X102090000Y21555000D01*
X102090000Y21555000D02*
X102225000Y21690000D01*
X102900000Y21315000D02*
X102897600Y19501872D01*
X102225000Y21690000D02*
X102525000Y21690000D01*
X102525000Y21690000D02*
X102900000Y21315000D01*
X102897600Y19501872D02*
X105436872Y16962600D01*
X105436872Y16962600D02*
X113436872Y16962600D01*
X113436872Y16962600D02*
X123597600Y6801872D01*
X123597600Y6801872D02*
X123597600Y-2898128D01*
X124700000Y-46085000D02*
X124700000Y-44385000D01*
X124700000Y-44385000D02*
X125047600Y-44037400D01*
X125047600Y-44037400D02*
X125047600Y-4348128D01*
X125047600Y-4348128D02*
X123597600Y-2898128D01*
%TO.N,/CPU0_TX14-*%
X103090000Y21875000D02*
X103090000Y22915000D01*
X103202400Y19628128D02*
X103202400Y21762600D01*
X103202400Y21762600D02*
X103090000Y21875000D01*
X103202400Y19628128D02*
X105563128Y17267400D01*
X105563128Y17267400D02*
X113563128Y17267400D01*
X113563128Y17267400D02*
X123902400Y6928128D01*
X123902400Y6928128D02*
X123902400Y-2771872D01*
X125700000Y-44385000D02*
X125352400Y-44037400D01*
X125700000Y-46085000D02*
X125700000Y-44385000D01*
X125352400Y-4221872D02*
X123902400Y-2771872D01*
X125352400Y-44037400D02*
X125352400Y-4221872D01*
%TO.N,/CPU0_TX15+*%
X129047600Y-44037400D02*
X128700000Y-44385000D01*
X106090000Y20915000D02*
X106090000Y21555000D01*
X129047600Y-6578128D02*
X129047600Y-44037400D01*
X124847600Y7301872D02*
X124847600Y-2378128D01*
X128700000Y-44385000D02*
X128700000Y-46085000D01*
X106090000Y21555000D02*
X106225000Y21690000D01*
X106897600Y19501872D02*
X108186872Y18212600D01*
X108186872Y18212600D02*
X113936872Y18212600D01*
X113936872Y18212600D02*
X124847600Y7301872D01*
X124847600Y-2378128D02*
X129047600Y-6578128D01*
X106225000Y21690000D02*
X106525000Y21690000D01*
X106525000Y21690000D02*
X106900000Y21315000D01*
X106900000Y21315000D02*
X106897600Y19501872D01*
%TO.N,/CPU0_TX15-*%
X107202400Y19628128D02*
X107202400Y21762600D01*
X108313128Y18517400D02*
X107202400Y19628128D01*
X114063128Y18517400D02*
X108313128Y18517400D01*
X129700000Y-44385000D02*
X129352400Y-44037400D01*
X129352400Y-44037400D02*
X129352400Y-6451872D01*
X125152400Y7428128D02*
X114063128Y18517400D01*
X129700000Y-46085000D02*
X129700000Y-44385000D01*
X129352400Y-6451872D02*
X125152400Y-2251872D01*
X107090000Y21875000D02*
X107090000Y22915000D01*
X107202400Y21762600D02*
X107090000Y21875000D01*
X125152400Y-2251872D02*
X125152400Y7428128D01*
D40*
%TO.N,Net-(J1-PadB114)*%
X131700000Y-46085000D02*
X131700000Y-6335000D01*
X127150000Y-1785000D02*
X131700000Y-6335000D01*
X127150000Y11815000D02*
X127150000Y-1785000D01*
%TO.N,/PCIE_SLOT1_PRSNT_x16*%
X132700000Y-46085000D02*
X132700000Y-5885000D01*
X132700000Y-5885000D02*
X128800000Y-1985000D01*
X128800000Y-1985000D02*
X128800000Y16515000D01*
X128800000Y16515000D02*
X123250000Y22065000D01*
X109940000Y22065000D02*
X109090000Y22915000D01*
X123250000Y22065000D02*
X109940000Y22065000D01*
%TO.N,/RST_PERST0_N*%
X31900000Y2465000D02*
X31400000Y2965000D01*
X31900000Y-1830000D02*
X31900000Y2465000D01*
X31400000Y3836447D02*
X31400000Y2965000D01*
X30950000Y4286447D02*
X31400000Y3836447D01*
X30950000Y4640000D02*
X30950000Y4286447D01*
X56900000Y-1830000D02*
X56900000Y1990000D01*
X37990000Y26315000D02*
X37090000Y25415000D01*
X38975000Y26315000D02*
X37990000Y26315000D01*
X40425000Y23490000D02*
X40425000Y24865000D01*
X40150000Y23215000D02*
X40425000Y23490000D01*
X40425000Y24865000D02*
X38975000Y26315000D01*
X46950000Y8915000D02*
X39025000Y16840000D01*
X49600000Y8915000D02*
X46950000Y8915000D01*
X39025000Y16840000D02*
X39025000Y21740000D01*
X40150000Y22865000D02*
X40150000Y23215000D01*
X39025000Y21740000D02*
X40150000Y22865000D01*
X55800000Y3090000D02*
X55800000Y7565000D01*
X56900000Y1990000D02*
X55800000Y3090000D01*
X54450000Y8915000D02*
X49600000Y8915000D01*
X55800000Y7565000D02*
X54450000Y8915000D01*
D41*
%TO.N,/CLK100_SLOT1+*%
X42372600Y-29286200D02*
X42372600Y-28933801D01*
X42273800Y-29385000D02*
X42372600Y-29286200D01*
X42372600Y-28933801D02*
X41923800Y-28485001D01*
X41923800Y-28485001D02*
X41923800Y-28035000D01*
%TO.N,/CLK100_SLOT1-*%
X43126200Y-28485001D02*
X43126200Y-28035000D01*
X42677400Y-28933801D02*
X43126200Y-28485001D01*
X42677400Y-29286200D02*
X42677400Y-28933801D01*
X42776200Y-29385000D02*
X42677400Y-29286200D01*
D40*
%TO.N,/PCIe_SMB_CLK*%
X7975000Y-23485000D02*
X7975000Y-21885000D01*
X7975000Y-23885000D02*
X7975000Y-23485000D01*
X7975000Y-21885000D02*
X7975000Y-20560000D01*
%TO.N,/PCIe_SMB_DATA*%
X7325000Y-22810000D02*
X7325000Y-21885000D01*
X6650000Y-23485000D02*
X7325000Y-22810000D01*
X6650000Y-23885000D02*
X6650000Y-23485000D01*
X7325000Y-21885000D02*
X7325000Y-19560000D01*
X7325000Y-19560000D02*
X6825000Y-19060000D01*
X6825000Y-19060000D02*
X5000000Y-19060000D01*
X5000000Y-19060000D02*
X4325000Y-18385000D01*
%TO.N,Net-(J3-PadB13)*%
X62900000Y4590000D02*
X62900000Y3815000D01*
X58075000Y5240000D02*
X62250000Y5240000D01*
X57400000Y4565000D02*
X58075000Y5240000D01*
X57400000Y-585002D02*
X57389999Y-575001D01*
X57400000Y-1830000D02*
X57400000Y-585002D01*
X57389999Y-575001D02*
X57389999Y-94999D01*
X62250000Y5240000D02*
X62900000Y4590000D01*
X57389999Y-94999D02*
X57400000Y-84998D01*
X57400000Y-84998D02*
X57400000Y4565000D01*
%TO.N,Net-(J3-PadA9)*%
X55910001Y-4944999D02*
X55910001Y-11620001D01*
X55910001Y-11620001D02*
X56425000Y-12135000D01*
X55900000Y-3730000D02*
X55900000Y-4934998D01*
X55900000Y-4934998D02*
X55910001Y-4944999D01*
%TO.N,Net-(J4-PadA9)*%
X30910001Y-10220001D02*
X31900000Y-11210000D01*
X30870000Y-3790000D02*
X30855001Y-3804999D01*
X30855001Y-4730001D02*
X30910001Y-4785001D01*
X30900000Y-3790000D02*
X30870000Y-3790000D01*
X30855001Y-3804999D02*
X30855001Y-4730001D01*
X30910001Y-4785001D02*
X30910001Y-10220001D01*
%TO.N,Net-(J4-PadB13)*%
X32400000Y-990000D02*
X32400000Y-1890000D01*
X32400000Y2090000D02*
X32400000Y-990000D01*
X32675000Y2365000D02*
X32400000Y2090000D01*
X32675000Y3390000D02*
X32675000Y2365000D01*
%TO.N,Net-(R6-Pad1)*%
X9300000Y-23885000D02*
X9850000Y-23885000D01*
X10575000Y-23160000D02*
X10575000Y-21885000D01*
X9850000Y-23885000D02*
X10575000Y-23160000D01*
%TO.N,Net-(R10-Pad2)*%
X11225000Y-14510000D02*
X11225000Y-15985000D01*
X12600000Y-13135000D02*
X13975000Y-13135000D01*
X11225000Y-14510000D02*
X12600000Y-13135000D01*
%TO.N,Net-(R14-Pad1)*%
X10575000Y-15985000D02*
X10575000Y-14210000D01*
X10850000Y-13935000D02*
X10850000Y-13035000D01*
X10575000Y-14210000D02*
X10850000Y-13935000D01*
%TO.N,Net-(R15-Pad1)*%
X8625000Y-15060000D02*
X8200000Y-14635000D01*
X8625000Y-15985000D02*
X8625000Y-15060000D01*
X8200000Y-14635000D02*
X7300000Y-14635000D01*
X6950000Y-14285000D02*
X6950000Y-13035000D01*
X7300000Y-14635000D02*
X6950000Y-14285000D01*
%TO.N,Net-(R17-Pad2)*%
X44675000Y-23435000D02*
X41625000Y-23435000D01*
D38*
%TO.N,Net-(R18-Pad1)*%
X6675000Y-21885000D02*
X5000000Y-21885000D01*
D41*
%TO.N,/Oculink_0_C_x4_TX0+*%
X27497600Y128128D02*
X27922600Y553128D01*
X27922600Y553128D02*
X27922600Y2866200D01*
X27922600Y2866200D02*
X27823800Y2965000D01*
X27400000Y-779999D02*
X27497600Y-682399D01*
X27497600Y-682399D02*
X27497600Y128128D01*
X27400000Y-1830000D02*
X27400000Y-779999D01*
X32047600Y-39358800D02*
X31948800Y-39260000D01*
X32047600Y-40594899D02*
X32047600Y-39358800D01*
X31700000Y-41205000D02*
X31700000Y-40942499D01*
X31700000Y-40942499D02*
X32047600Y-40594899D01*
%TO.N,/Oculink_0_x4_TX0+*%
X31700000Y-46085000D02*
X31700000Y-44385000D01*
X31700000Y-44385000D02*
X32047600Y-44037400D01*
X32047600Y-42375101D02*
X31700000Y-42027501D01*
X32047600Y-44037400D02*
X32047600Y-42375101D01*
X31700000Y-42027501D02*
X31700000Y-41765000D01*
%TO.N,/Oculink_0_C_x4_TX1+*%
X28900000Y-1830000D02*
X28900000Y-779999D01*
X28900000Y-779999D02*
X28997600Y-682399D01*
X36700000Y-40942499D02*
X37047600Y-40594899D01*
X36700000Y-41205000D02*
X36700000Y-40942499D01*
X37047600Y-39383800D02*
X36948800Y-39285000D01*
X37047600Y-40594899D02*
X37047600Y-39383800D01*
X28997600Y-682399D02*
X28997600Y141200D01*
X28997600Y141200D02*
X28898800Y240000D01*
%TO.N,/Oculink_0_x4_TX1+*%
X36700000Y-46085000D02*
X36700000Y-44385000D01*
X36700000Y-44385000D02*
X37047600Y-44037400D01*
X37047600Y-42375101D02*
X36700000Y-42027501D01*
X36700000Y-42027501D02*
X36700000Y-41765000D01*
X37047600Y-44037400D02*
X37047600Y-42375101D01*
%TO.N,/Oculink_0_C_x4_TX2+*%
X41047600Y-39458800D02*
X40948800Y-39360000D01*
X40700000Y-41205000D02*
X40700000Y-40942499D01*
X40700000Y-40942499D02*
X41047600Y-40594899D01*
X41047600Y-40594899D02*
X41047600Y-39458800D01*
X33400000Y-839999D02*
X33497600Y-742399D01*
X33400000Y-1890000D02*
X33400000Y-839999D01*
X33497600Y-742399D02*
X33497600Y141200D01*
X33497600Y141200D02*
X33398800Y240000D01*
%TO.N,/Oculink_0_x4_TX2+*%
X40700000Y-46085000D02*
X40700000Y-44385000D01*
X40700000Y-44385000D02*
X41047600Y-44037400D01*
X41047600Y-42375101D02*
X40700000Y-42027501D01*
X41047600Y-44037400D02*
X41047600Y-42375101D01*
X40700000Y-42027501D02*
X40700000Y-41765000D01*
%TO.N,/Oculink_0_C_x4_TX3+*%
X34900000Y-1830000D02*
X34900000Y-779999D01*
X34997600Y91872D02*
X34662600Y426872D01*
X34662600Y426872D02*
X34662600Y3041200D01*
X34997600Y-682399D02*
X34997600Y91872D01*
X34900000Y-779999D02*
X34997600Y-682399D01*
X34662600Y3041200D02*
X34563800Y3140000D01*
X45047600Y-39508800D02*
X44948800Y-39410000D01*
X44700000Y-41205000D02*
X44700000Y-40942499D01*
X44700000Y-40942499D02*
X45047600Y-40594899D01*
X45047600Y-40594899D02*
X45047600Y-39508800D01*
%TO.N,/Oculink_0_x4_TX3+*%
X44700000Y-46085000D02*
X44700000Y-44385000D01*
X44700000Y-44385000D02*
X45047600Y-44037400D01*
X45047600Y-42375101D02*
X44700000Y-42027501D01*
X45047600Y-44037400D02*
X45047600Y-42375101D01*
X44700000Y-42027501D02*
X44700000Y-41765000D01*
%TO.N,/Oculink_0_x4_TX0-*%
X32700000Y-46085000D02*
X32700000Y-44385000D01*
X32700000Y-44385000D02*
X32352400Y-44037400D01*
X32700000Y-42027501D02*
X32700000Y-41765000D01*
X32352400Y-44037400D02*
X32352400Y-42375101D01*
X32352400Y-42375101D02*
X32700000Y-42027501D01*
%TO.N,/Oculink_0_C_x4_TX0-*%
X28227400Y2866200D02*
X28326200Y2965000D01*
X28227400Y426872D02*
X28227400Y2866200D01*
X27802400Y1872D02*
X28227400Y426872D01*
X27900000Y-1830000D02*
X27900000Y-779999D01*
X27802400Y-682399D02*
X27802400Y1872D01*
X27900000Y-779999D02*
X27802400Y-682399D01*
X32700000Y-41205000D02*
X32700000Y-40942499D01*
X32352400Y-40594899D02*
X32352400Y-39358800D01*
X32700000Y-40942499D02*
X32352400Y-40594899D01*
X32352400Y-39358800D02*
X32451200Y-39260000D01*
%TO.N,/Oculink_0_x4_TX1-*%
X37700000Y-46085000D02*
X37700000Y-44385000D01*
X37700000Y-44385000D02*
X37352400Y-44037400D01*
X37700000Y-42027501D02*
X37700000Y-41765000D01*
X37352400Y-44037400D02*
X37352400Y-42375101D01*
X37352400Y-42375101D02*
X37700000Y-42027501D01*
%TO.N,/Oculink_0_C_x4_TX1-*%
X29400000Y-779999D02*
X29302400Y-682399D01*
X29400000Y-1830000D02*
X29400000Y-779999D01*
X37352400Y-40594899D02*
X37352400Y-39383800D01*
X37700000Y-40942499D02*
X37352400Y-40594899D01*
X37700000Y-41205000D02*
X37700000Y-40942499D01*
X37352400Y-39383800D02*
X37451200Y-39285000D01*
X29302400Y141200D02*
X29401200Y240000D01*
X29302400Y-682399D02*
X29302400Y141200D01*
%TO.N,/Oculink_0_x4_TX2-*%
X41700000Y-46085000D02*
X41700000Y-44385000D01*
X41700000Y-44385000D02*
X41352400Y-44037400D01*
X41352400Y-44037400D02*
X41352400Y-42375101D01*
X41352400Y-42375101D02*
X41700000Y-42027501D01*
X41700000Y-42027501D02*
X41700000Y-41765000D01*
%TO.N,/Oculink_0_C_x4_TX2-*%
X41352400Y-39458800D02*
X41451200Y-39360000D01*
X41352400Y-40594899D02*
X41352400Y-39458800D01*
X41700000Y-41205000D02*
X41700000Y-40942499D01*
X41700000Y-40942499D02*
X41352400Y-40594899D01*
X33802400Y-742399D02*
X33802400Y141200D01*
X33900000Y-839999D02*
X33802400Y-742399D01*
X33802400Y141200D02*
X33901200Y240000D01*
X33900000Y-1890000D02*
X33900000Y-839999D01*
%TO.N,/Oculink_0_x4_TX3-*%
X45700000Y-44385000D02*
X45352400Y-44037400D01*
X45700000Y-46085000D02*
X45700000Y-44385000D01*
X45700000Y-42027501D02*
X45700000Y-41765000D01*
X45352400Y-44037400D02*
X45352400Y-42375101D01*
X45352400Y-42375101D02*
X45700000Y-42027501D01*
%TO.N,/Oculink_0_C_x4_TX3-*%
X35302400Y218128D02*
X34967400Y553128D01*
X35302400Y-682399D02*
X35302400Y218128D01*
X35400000Y-1830000D02*
X35400000Y-779999D01*
X34967400Y553128D02*
X34967400Y3041200D01*
X35400000Y-779999D02*
X35302400Y-682399D01*
X34967400Y3041200D02*
X35066200Y3140000D01*
X45700000Y-40942499D02*
X45352400Y-40594899D01*
X45700000Y-41205000D02*
X45700000Y-40942499D01*
X45352400Y-39508800D02*
X45451200Y-39410000D01*
X45352400Y-40594899D02*
X45352400Y-39508800D01*
%TO.N,/Oculink_1_x4_TX0+*%
X50700000Y-46085000D02*
X50700000Y-44385000D01*
X50700000Y-44385000D02*
X51047600Y-44037400D01*
X50700000Y-42027501D02*
X50700000Y-41765000D01*
X51047600Y-42375101D02*
X50700000Y-42027501D01*
X51047600Y-44037400D02*
X51047600Y-42375101D01*
%TO.N,/Oculink_1_C_x4_TX0+*%
X51047600Y-39683800D02*
X50948800Y-39585000D01*
X50700000Y-40942499D02*
X51047600Y-40594899D01*
X50700000Y-41205000D02*
X50700000Y-40942499D01*
X51047600Y-40594899D02*
X51047600Y-39683800D01*
X52400000Y-779999D02*
X52497600Y-682399D01*
X52400000Y-1830000D02*
X52400000Y-779999D01*
X52497600Y-682399D02*
X52497600Y128128D01*
X52497600Y128128D02*
X52922600Y553128D01*
X52922600Y2866200D02*
X52823800Y2965000D01*
X52922600Y553128D02*
X52922600Y2866200D01*
%TO.N,/Oculink_1_x4_TX1+*%
X54700000Y-46085000D02*
X54700000Y-44385000D01*
X54700000Y-44385000D02*
X55047600Y-44037400D01*
X55047600Y-44037400D02*
X55047600Y-42375101D01*
X54700000Y-42027501D02*
X54700000Y-41765000D01*
X55047600Y-42375101D02*
X54700000Y-42027501D01*
%TO.N,/Oculink_1_C_x4_TX1+*%
X53900000Y-1830000D02*
X53900000Y-779999D01*
X53900000Y-779999D02*
X53997600Y-682399D01*
X55047600Y-39658800D02*
X54948800Y-39560000D01*
X54700000Y-40942499D02*
X55047600Y-40594899D01*
X55047600Y-40594899D02*
X55047600Y-39658800D01*
X54700000Y-41205000D02*
X54700000Y-40942499D01*
X53997600Y-682399D02*
X53997600Y141200D01*
X53997600Y141200D02*
X53898800Y240000D01*
%TO.N,/Oculink_1_x4_TX2+*%
X58700000Y-46085000D02*
X58700000Y-44385000D01*
X58700000Y-44385000D02*
X59047600Y-44037400D01*
X59047600Y-42375101D02*
X58700000Y-42027501D01*
X59047600Y-44037400D02*
X59047600Y-42375101D01*
X58700000Y-42027501D02*
X58700000Y-41765000D01*
%TO.N,/Oculink_1_C_x4_TX2+*%
X59047600Y-39658800D02*
X58948800Y-39560000D01*
X58700000Y-41205000D02*
X58700000Y-40942499D01*
X58700000Y-40942499D02*
X59047600Y-40594899D01*
X59047600Y-40594899D02*
X59047600Y-39658800D01*
X58400000Y-779999D02*
X58497600Y-682399D01*
X58400000Y-1830000D02*
X58400000Y-779999D01*
X58497600Y-682399D02*
X58497600Y141200D01*
X58497600Y141200D02*
X58398800Y240000D01*
%TO.N,/Oculink_1_x4_TX3+*%
X62700000Y-46085000D02*
X62700000Y-44385000D01*
X62700000Y-44385000D02*
X63047600Y-44037400D01*
X63047600Y-42375101D02*
X62700000Y-42027501D01*
X63047600Y-44037400D02*
X63047600Y-42375101D01*
X62700000Y-42027501D02*
X62700000Y-41765000D01*
%TO.N,/Oculink_1_C_x4_TX3+*%
X62700000Y-40942499D02*
X63047600Y-40594899D01*
X62700000Y-41205000D02*
X62700000Y-40942499D01*
X63047600Y-40594899D02*
X63047600Y-39558800D01*
X63047600Y-39558800D02*
X62948800Y-39460000D01*
X59997600Y-682399D02*
X59997600Y91872D01*
X59900000Y-1830000D02*
X59900000Y-779999D01*
X59997600Y91872D02*
X59662600Y426872D01*
X59900000Y-779999D02*
X59997600Y-682399D01*
X59662600Y426872D02*
X59662600Y3041200D01*
X59662600Y3041200D02*
X59563800Y3140000D01*
%TO.N,/Oculink_1_C_x4_TX0-*%
X51352400Y-39683800D02*
X51451200Y-39585000D01*
X51352400Y-40594899D02*
X51352400Y-39683800D01*
X51700000Y-40942499D02*
X51352400Y-40594899D01*
X51700000Y-41205000D02*
X51700000Y-40942499D01*
X52802400Y-682399D02*
X52802400Y1872D01*
X52900000Y-779999D02*
X52802400Y-682399D01*
X52900000Y-1830000D02*
X52900000Y-779999D01*
X53227400Y2866200D02*
X53326200Y2965000D01*
X53227400Y426872D02*
X53227400Y2866200D01*
X52802400Y1872D02*
X53227400Y426872D01*
%TO.N,/Oculink_1_x4_TX0-*%
X51700000Y-44385000D02*
X51352400Y-44037400D01*
X51700000Y-46085000D02*
X51700000Y-44385000D01*
X51700000Y-42027501D02*
X51700000Y-41765000D01*
X51352400Y-44037400D02*
X51352400Y-42375101D01*
X51352400Y-42375101D02*
X51700000Y-42027501D01*
%TO.N,/Oculink_1_C_x4_TX1-*%
X54400000Y-779999D02*
X54302400Y-682399D01*
X54400000Y-1830000D02*
X54400000Y-779999D01*
X55352400Y-40594899D02*
X55352400Y-39658800D01*
X55352400Y-39658800D02*
X55451200Y-39560000D01*
X55700000Y-40942499D02*
X55352400Y-40594899D01*
X55700000Y-41205000D02*
X55700000Y-40942499D01*
X54302400Y141200D02*
X54401200Y240000D01*
X54302400Y-682399D02*
X54302400Y141200D01*
%TO.N,/Oculink_1_x4_TX1-*%
X55700000Y-44385000D02*
X55352400Y-44037400D01*
X55700000Y-46085000D02*
X55700000Y-44385000D01*
X55700000Y-42027501D02*
X55700000Y-41765000D01*
X55352400Y-42375101D02*
X55700000Y-42027501D01*
X55352400Y-44037400D02*
X55352400Y-42375101D01*
%TO.N,/Oculink_1_C_x4_TX2-*%
X59352400Y-40594899D02*
X59352400Y-39658800D01*
X59352400Y-39658800D02*
X59451200Y-39560000D01*
X59700000Y-40942499D02*
X59352400Y-40594899D01*
X59700000Y-41205000D02*
X59700000Y-40942499D01*
X58900000Y-1830000D02*
X58900000Y-779999D01*
X58900000Y-779999D02*
X58802400Y-682399D01*
X58802400Y141200D02*
X58901200Y240000D01*
X58802400Y-682399D02*
X58802400Y141200D01*
%TO.N,/Oculink_1_x4_TX2-*%
X59700000Y-44385000D02*
X59352400Y-44037400D01*
X59700000Y-46085000D02*
X59700000Y-44385000D01*
X59700000Y-42027501D02*
X59700000Y-41765000D01*
X59352400Y-42375101D02*
X59700000Y-42027501D01*
X59352400Y-44037400D02*
X59352400Y-42375101D01*
%TO.N,/Oculink_1_C_x4_TX3-*%
X63700000Y-40942499D02*
X63352400Y-40594899D01*
X63700000Y-41205000D02*
X63700000Y-40942499D01*
X63352400Y-39558800D02*
X63451200Y-39460000D01*
X63352400Y-40594899D02*
X63352400Y-39558800D01*
X59967400Y3041200D02*
X60066200Y3140000D01*
X60302400Y-682399D02*
X60302400Y218128D01*
X59967400Y553128D02*
X59967400Y3041200D01*
X60400000Y-1830000D02*
X60400000Y-779999D01*
X60400000Y-779999D02*
X60302400Y-682399D01*
X60302400Y218128D02*
X59967400Y553128D01*
%TO.N,/Oculink_1_x4_TX3-*%
X63700000Y-46085000D02*
X63700000Y-44385000D01*
X63700000Y-44385000D02*
X63352400Y-44037400D01*
X63700000Y-42027501D02*
X63700000Y-41765000D01*
X63352400Y-42375101D02*
X63700000Y-42027501D01*
X63352400Y-44037400D02*
X63352400Y-42375101D01*
%TO.N,/Oculink_0_x4_RX0+*%
X27997600Y-5723128D02*
X28322600Y-6048128D01*
X27900000Y-3730000D02*
X27900000Y-4780001D01*
X27997600Y-4877601D02*
X27997600Y-5723128D01*
X27900000Y-4780001D02*
X27997600Y-4877601D01*
X33948800Y-38060000D02*
X34047600Y-37961200D01*
X34047600Y-37961200D02*
X34047600Y-32848128D01*
X34047600Y-32848128D02*
X28322600Y-27123128D01*
X28322600Y-27123128D02*
X28322600Y-6048128D01*
%TO.N,/Oculink_0_x4_RX0-*%
X28302400Y-5596872D02*
X28627400Y-5921872D01*
X28400000Y-4780001D02*
X28302400Y-4877601D01*
X28302400Y-4877601D02*
X28302400Y-5596872D01*
X28400000Y-3730000D02*
X28400000Y-4780001D01*
X34352400Y-37961200D02*
X34352400Y-32721872D01*
X34451200Y-38060000D02*
X34352400Y-37961200D01*
X28627400Y-26996872D02*
X28627400Y-5921872D01*
X34352400Y-32721872D02*
X28627400Y-26996872D01*
%TO.N,/Oculink_0_x4_RX1+*%
X29400000Y-3730000D02*
X29400000Y-4780001D01*
X29400000Y-4780001D02*
X29497600Y-4877601D01*
X38948800Y-38085000D02*
X39047600Y-37986200D01*
X39047600Y-37986200D02*
X39047600Y-34598128D01*
X39047600Y-34598128D02*
X29497600Y-25048128D01*
X29497600Y-25048128D02*
X29497600Y-4877601D01*
%TO.N,/Oculink_0_x4_RX1-*%
X29900000Y-3730000D02*
X29900000Y-4780001D01*
X29900000Y-4780001D02*
X29802400Y-4877601D01*
X39352400Y-37986200D02*
X39352400Y-34471872D01*
X39451200Y-38085000D02*
X39352400Y-37986200D01*
X29802400Y-24921872D02*
X29802400Y-4877601D01*
X39352400Y-34471872D02*
X29802400Y-24921872D01*
%TO.N,/Oculink_0_x4_RX2+*%
X43047600Y-35948128D02*
X33997600Y-26898128D01*
X43047600Y-38036200D02*
X43047600Y-35948128D01*
X33997600Y-26898128D02*
X33997600Y-4877601D01*
X33997600Y-4877601D02*
X33900000Y-4780001D01*
X33900000Y-4780001D02*
X33900000Y-3730000D01*
X42948800Y-38135000D02*
X43047600Y-38036200D01*
%TO.N,/Oculink_0_x4_RX2-*%
X43352400Y-35821872D02*
X34302400Y-26771872D01*
X34302400Y-4877601D02*
X34400000Y-4780001D01*
X34400000Y-4780001D02*
X34400000Y-3730000D01*
X43451200Y-38135000D02*
X43352400Y-38036200D01*
X43352400Y-38036200D02*
X43352400Y-35821872D01*
X34302400Y-26771872D02*
X34302400Y-4877601D01*
%TO.N,/Oculink_0_x4_RX3+*%
X35400000Y-4780001D02*
X35497600Y-4877601D01*
X35147600Y-5621872D02*
X35147600Y-25648128D01*
X35497600Y-4877601D02*
X35497600Y-5271872D01*
X47047600Y-37548128D02*
X47047600Y-38061200D01*
X35497600Y-5271872D02*
X35147600Y-5621872D01*
X35147600Y-25648128D02*
X47047600Y-37548128D01*
X47047600Y-38061200D02*
X46948800Y-38160000D01*
X35400000Y-3730000D02*
X35400000Y-4780001D01*
%TO.N,/Oculink_0_x4_RX3-*%
X47352400Y-37421872D02*
X47352400Y-38061200D01*
X35452400Y-25521872D02*
X47352400Y-37421872D01*
X35802400Y-5398128D02*
X35452400Y-5748128D01*
X35452400Y-5748128D02*
X35452400Y-25521872D01*
X35900000Y-3730000D02*
X35900000Y-4780001D01*
X47352400Y-38061200D02*
X47451200Y-38160000D01*
X35900000Y-4780001D02*
X35802400Y-4877601D01*
X35802400Y-4877601D02*
X35802400Y-5398128D01*
%TO.N,/Oculink_1_x4_RX0+*%
X53047600Y-38236200D02*
X52948800Y-38335000D01*
X52900000Y-4780001D02*
X52997600Y-4877601D01*
X52900000Y-3730000D02*
X52900000Y-4780001D01*
X57047600Y-19798128D02*
X57047600Y-31496872D01*
X52997600Y-4877601D02*
X52997600Y-5723128D01*
X52997600Y-5723128D02*
X53322600Y-6048128D01*
X53322600Y-6048128D02*
X53322600Y-16073128D01*
X57047600Y-31496872D02*
X53047600Y-35496872D01*
X53322600Y-16073128D02*
X57047600Y-19798128D01*
X53047600Y-35496872D02*
X53047600Y-38236200D01*
%TO.N,/Oculink_1_x4_RX0-*%
X53352400Y-38236200D02*
X53451200Y-38335000D01*
X53352400Y-35623128D02*
X53352400Y-38236200D01*
X57352400Y-19671872D02*
X57352400Y-31623128D01*
X53627400Y-5921872D02*
X53627400Y-15946872D01*
X53627400Y-15946872D02*
X57352400Y-19671872D01*
X53302400Y-5596872D02*
X53627400Y-5921872D01*
X53302400Y-4877601D02*
X53302400Y-5596872D01*
X53400000Y-4780001D02*
X53302400Y-4877601D01*
X53400000Y-3730000D02*
X53400000Y-4780001D01*
X57352400Y-31623128D02*
X53352400Y-35623128D01*
%TO.N,/Oculink_1_x4_RX1+*%
X54497600Y-4877601D02*
X54497600Y-14398128D01*
X54400000Y-4780001D02*
X54497600Y-4877601D01*
X59047600Y-33246872D02*
X57047600Y-35246872D01*
X59047600Y-18948128D02*
X59047600Y-33246872D01*
X54497600Y-14398128D02*
X59047600Y-18948128D01*
X57047600Y-35246872D02*
X57047600Y-38236200D01*
X57047600Y-38236200D02*
X56948800Y-38335000D01*
X54400000Y-3730000D02*
X54400000Y-4780001D01*
%TO.N,/Oculink_1_x4_RX1-*%
X57352400Y-38236200D02*
X57451200Y-38335000D01*
X57352400Y-35373128D02*
X57352400Y-38236200D01*
X59352400Y-33373128D02*
X57352400Y-35373128D01*
X59352400Y-18821872D02*
X59352400Y-33373128D01*
X54802400Y-14271872D02*
X59352400Y-18821872D01*
X54900000Y-4780001D02*
X54802400Y-4877601D01*
X54802400Y-4877601D02*
X54802400Y-14271872D01*
X54900000Y-3730000D02*
X54900000Y-4780001D01*
%TO.N,/Oculink_1_x4_RX2+*%
X58900000Y-4780001D02*
X58997600Y-4877601D01*
X58900000Y-3730000D02*
X58900000Y-4780001D01*
X60948800Y-38385000D02*
X61047600Y-38286200D01*
X61047600Y-35396872D02*
X63047600Y-33396872D01*
X61047600Y-38286200D02*
X61047600Y-35396872D01*
X63047600Y-33396872D02*
X63047600Y-13748128D01*
X58997600Y-9698128D02*
X58997600Y-4877601D01*
X58997600Y-9698128D02*
X63047600Y-13748128D01*
%TO.N,/Oculink_1_x4_RX2-*%
X59400000Y-3730000D02*
X59400000Y-4780001D01*
X59400000Y-4780001D02*
X59302400Y-4877601D01*
X61352400Y-35523128D02*
X63352400Y-33523128D01*
X61451200Y-38385000D02*
X61352400Y-38286200D01*
X61352400Y-38286200D02*
X61352400Y-35523128D01*
X63352400Y-33523128D02*
X63352400Y-13621872D01*
X59302400Y-9571872D02*
X59302400Y-4877601D01*
X59302400Y-9571872D02*
X63352400Y-13621872D01*
%TO.N,/Oculink_1_x4_RX3+*%
X60400000Y-3730000D02*
X60400000Y-4780001D01*
X65047600Y-12873128D02*
X65047600Y-38261200D01*
X60400000Y-4780001D02*
X60497600Y-4877601D01*
X60147600Y-7973128D02*
X65047600Y-12873128D01*
X60497600Y-5271872D02*
X60147600Y-5621872D01*
X60147600Y-5621872D02*
X60147600Y-7973128D01*
X65047600Y-38261200D02*
X64948800Y-38360000D01*
X60497600Y-4877601D02*
X60497600Y-5271872D01*
%TO.N,/Oculink_1_x4_RX3-*%
X65352400Y-38261200D02*
X65451200Y-38360000D01*
X65352400Y-12746872D02*
X65352400Y-38261200D01*
X60452400Y-7846872D02*
X65352400Y-12746872D01*
X60802400Y-5398128D02*
X60452400Y-5748128D01*
X60452400Y-5748128D02*
X60452400Y-7846872D01*
X60900000Y-3730000D02*
X60900000Y-4780001D01*
X60900000Y-4780001D02*
X60802400Y-4877601D01*
X60802400Y-4877601D02*
X60802400Y-5398128D01*
D40*
%TO.N,Net-(J3-PadA10)*%
X50475000Y7365000D02*
X52325000Y7365000D01*
X56850000Y-7960000D02*
X57550000Y-7960000D01*
X56400000Y-3730000D02*
X56400000Y-7510000D01*
X56400000Y-7510000D02*
X56850000Y-7960000D01*
D41*
%TO.N,/Oculink_1_CLK100+*%
X57497600Y-6186200D02*
X57398800Y-6285000D01*
X57400000Y-3730000D02*
X57400000Y-4780001D01*
X57497600Y-4877601D02*
X57497600Y-6186200D01*
X57400000Y-4780001D02*
X57497600Y-4877601D01*
X49125000Y-15684999D02*
X49125000Y-16135000D01*
X49777626Y-7887626D02*
X49637901Y-7887626D01*
X49637901Y-7887626D02*
X48652400Y-8873127D01*
X48652400Y-8873127D02*
X48652400Y-15212399D01*
X48652400Y-15212399D02*
X49125000Y-15684999D01*
%TO.N,/Oculink_1_CLK100-*%
X57802400Y-4877601D02*
X57802400Y-6186200D01*
X57900000Y-3730000D02*
X57900000Y-4780001D01*
X57900000Y-4780001D02*
X57802400Y-4877601D01*
X57802400Y-6186200D02*
X57901200Y-6285000D01*
X47875000Y-15684999D02*
X47875000Y-16135000D01*
X49422374Y-7672099D02*
X48347600Y-8746873D01*
X49422374Y-7532374D02*
X49422374Y-7672099D01*
X48347600Y-8746873D02*
X48347600Y-15212399D01*
X48347600Y-15212399D02*
X47875000Y-15684999D01*
D40*
%TO.N,/Oculink_1_SMB_CLK*%
X7325000Y-17110000D02*
X7325000Y-15985000D01*
X7050000Y-17385000D02*
X7325000Y-17110000D01*
X5650000Y-13585000D02*
X5150000Y-14085000D01*
X5950000Y-17385000D02*
X7050000Y-17385000D01*
X5650000Y-13035000D02*
X5650000Y-13585000D01*
X5150000Y-14085000D02*
X5150000Y-16585000D01*
X5150000Y-16585000D02*
X5950000Y-17385000D01*
X55400000Y-1830000D02*
X55400000Y1590000D01*
X7025001Y-9559999D02*
X7275000Y-9310000D01*
X6300000Y-10285000D02*
X7025001Y-9559999D01*
X5650000Y-13035000D02*
X5750000Y-13035000D01*
X6300000Y-12485000D02*
X6300000Y-10285000D01*
X5750000Y-13035000D02*
X6300000Y-12485000D01*
%TO.N,/Oculink_1_SMB_DATA*%
X4350000Y-17085000D02*
X4350000Y-13035000D01*
X7975000Y-15985000D02*
X7975000Y-17810000D01*
X7975000Y-17810000D02*
X7600000Y-18185000D01*
X5450000Y-18185000D02*
X4350000Y-17085000D01*
X7600000Y-18185000D02*
X5450000Y-18185000D01*
X4490002Y-13035000D02*
X5000000Y-12525002D01*
X4350000Y-13035000D02*
X4490002Y-13035000D01*
X5000000Y-12525002D02*
X5000000Y-10560000D01*
X55889999Y654999D02*
X56150000Y915000D01*
X55889999Y-919999D02*
X55889999Y654999D01*
X55900000Y-1830000D02*
X55900000Y-930000D01*
X55900000Y-930000D02*
X55889999Y-919999D01*
X5000000Y-10560000D02*
X5000000Y-10060000D01*
X5000000Y-10060000D02*
X5525000Y-9535000D01*
%TO.N,/Oculink_0_SMB_DATA*%
X9925000Y-15985000D02*
X9925000Y-14260000D01*
X9550000Y-13885000D02*
X9550000Y-13035000D01*
X9925000Y-14260000D02*
X9550000Y-13885000D01*
X10550000Y-17535000D02*
X13775000Y-17535000D01*
X9925000Y-15985000D02*
X9925000Y-16910000D01*
X9925000Y-16910000D02*
X10550000Y-17535000D01*
X30889999Y454999D02*
X31175000Y740000D01*
X30889999Y-979999D02*
X30889999Y454999D01*
X30900000Y-1890000D02*
X30900000Y-990000D01*
X30900000Y-990000D02*
X30889999Y-979999D01*
%TO.N,/Oculink_0_SMB_CLK*%
X8250000Y-13035000D02*
X8250000Y-13635000D01*
X9275000Y-14660000D02*
X9275000Y-15985000D01*
X8250000Y-13635000D02*
X9275000Y-14660000D01*
X9275000Y-15985000D02*
X9275000Y-16910000D01*
X9275000Y-16910000D02*
X9275000Y-17935000D01*
X9275000Y-17935000D02*
X9775000Y-18435000D01*
X9775000Y-18435000D02*
X11575000Y-18435000D01*
X30400000Y861447D02*
X30400000Y-1890000D01*
X30400000Y1215000D02*
X30400000Y861447D01*
X11575000Y-18435000D02*
X15375000Y-18435000D01*
D41*
%TO.N,/Oculink_0_CLK100-*%
X32802400Y-6136200D02*
X32901200Y-6235000D01*
X32802400Y-4937601D02*
X32802400Y-6136200D01*
X32900000Y-4840001D02*
X32802400Y-4937601D01*
X32900000Y-3790000D02*
X32900000Y-4840001D01*
X38912099Y-10287626D02*
X38772374Y-10287626D01*
X43661873Y-12287400D02*
X40911873Y-12287400D01*
X44575000Y-16135000D02*
X44575000Y-15684999D01*
X45047600Y-15212399D02*
X45047600Y-13673127D01*
X44575000Y-15684999D02*
X45047600Y-15212399D01*
X40911873Y-12287400D02*
X38912099Y-10287626D01*
X45047600Y-13673127D02*
X43661873Y-12287400D01*
%TO.N,/Oculink_0_CLK100+*%
X32497600Y-6136200D02*
X32398800Y-6235000D01*
X32400000Y-3790000D02*
X32400000Y-4840001D01*
X32497600Y-4937601D02*
X32497600Y-6136200D01*
X32400000Y-4840001D02*
X32497600Y-4937601D01*
X45352400Y-15212399D02*
X45352400Y-13546873D01*
X45825000Y-15684999D02*
X45352400Y-15212399D01*
X45825000Y-16135000D02*
X45825000Y-15684999D01*
X39127626Y-10072099D02*
X39127626Y-9932374D01*
X45352400Y-13546873D02*
X43788127Y-11982600D01*
X43788127Y-11982600D02*
X41038127Y-11982600D01*
X41038127Y-11982600D02*
X39127626Y-10072099D01*
D40*
%TO.N,Net-(J4-PadA10)*%
X31400000Y-3790000D02*
X31400000Y-8810000D01*
X31400000Y-8810000D02*
X32075000Y-9485000D01*
X40300000Y3340000D02*
X40300000Y4465000D01*
X40300000Y4465000D02*
X40300000Y6465000D01*
%TO.N,Net-(R13-Pad1)*%
X52900000Y-21935000D02*
X53150000Y-21685000D01*
X49475000Y-21935000D02*
X52900000Y-21935000D01*
%TO.N,Net-(R19-Pad2)*%
X44175000Y-24935000D02*
X43950000Y-25160000D01*
X44675000Y-24935000D02*
X44175000Y-24935000D01*
X43950000Y-26260000D02*
X43950000Y-25160000D01*
X45125000Y-27435000D02*
X43950000Y-26260000D01*
X45125000Y-27835000D02*
X45125000Y-27435000D01*
%TO.N,Net-(R20-Pad1)*%
X51725000Y-26385000D02*
X51725000Y-23535000D01*
X51150000Y-22960000D02*
X49450000Y-22960000D01*
X51725000Y-23535000D02*
X51150000Y-22960000D01*
%TO.N,Net-(R20-Pad2)*%
X51725000Y-27285000D02*
X51725000Y-28385000D01*
%TO.N,Net-(R21-Pad2)*%
X44675000Y-21110000D02*
X44675000Y-21435000D01*
X44675000Y-19985000D02*
X44675000Y-21110000D01*
X42525000Y-17835000D02*
X44675000Y-19985000D01*
X42525000Y-17335000D02*
X42525000Y-17835000D01*
D41*
%TO.N,/Oculink_0_R_CLK100+*%
X45825000Y-17485001D02*
X45352400Y-17957601D01*
X45825000Y-17035000D02*
X45825000Y-17485001D01*
X45352400Y-17957601D02*
X45352400Y-18446872D01*
X46227400Y-19321872D02*
X46227400Y-20237399D01*
X45352400Y-18446872D02*
X46227400Y-19321872D01*
X46227400Y-20237399D02*
X46325000Y-20334999D01*
X46325000Y-20334999D02*
X46325000Y-20785000D01*
%TO.N,/Oculink_0_R_CLK100-*%
X45825000Y-20334999D02*
X45825000Y-20785000D01*
X45922600Y-20237399D02*
X45825000Y-20334999D01*
X45922600Y-19448128D02*
X45922600Y-20237399D01*
X44575000Y-17035000D02*
X44575000Y-17485001D01*
X45047600Y-17957601D02*
X45047600Y-18573128D01*
X44575000Y-17485001D02*
X45047600Y-17957601D01*
X45047600Y-18573128D02*
X45922600Y-19448128D01*
%TO.N,/Oculink_1_R_CLK100+*%
X49125000Y-17485001D02*
X48652400Y-17957601D01*
X47727400Y-20237399D02*
X47825000Y-20334999D01*
X47825000Y-20334999D02*
X47825000Y-20785000D01*
X48652400Y-17957601D02*
X48652400Y-18573128D01*
X48652400Y-18573128D02*
X47727400Y-19498128D01*
X49125000Y-17035000D02*
X49125000Y-17485001D01*
X47727400Y-19498128D02*
X47727400Y-20237399D01*
%TO.N,/Oculink_1_R_CLK100-*%
X47325000Y-20334999D02*
X47325000Y-20785000D01*
X47422600Y-20237399D02*
X47325000Y-20334999D01*
X47422600Y-19371872D02*
X47422600Y-20237399D01*
X47875000Y-17485001D02*
X48347600Y-17957601D01*
X47875000Y-17035000D02*
X47875000Y-17485001D01*
X48347600Y-17957601D02*
X48347600Y-18446872D01*
X48347600Y-18446872D02*
X47422600Y-19371872D01*
%TO.N,/CLK100_R_SLOT1+*%
X41923800Y-26684999D02*
X42372600Y-26236199D01*
X41923800Y-27135000D02*
X41923800Y-26684999D01*
X42372600Y-26236199D02*
X42372600Y-24671872D01*
X43011872Y-24032600D02*
X44127399Y-24032600D01*
X44127399Y-24032600D02*
X44224999Y-23935000D01*
X44224999Y-23935000D02*
X44675000Y-23935000D01*
X42372600Y-24671872D02*
X43011872Y-24032600D01*
%TO.N,/CLK100_R_SLOT1-*%
X42677400Y-26236199D02*
X42677400Y-24798128D01*
X43126200Y-26684999D02*
X42677400Y-26236199D01*
X43126200Y-27135000D02*
X43126200Y-26684999D01*
X44127399Y-24337400D02*
X44224999Y-24435000D01*
X44224999Y-24435000D02*
X44675000Y-24435000D01*
X43138128Y-24337400D02*
X44127399Y-24337400D01*
X42677400Y-24798128D02*
X43138128Y-24337400D01*
%TD*%
D42*
%TO.N,+3.3Vaux*%
G36*
X13403833Y-20928635D02*
G01*
X13865296Y-21390098D01*
X13874918Y-21397995D01*
X13885897Y-21403863D01*
X14102700Y-21493666D01*
X14114612Y-21497280D01*
X14127000Y-21498500D01*
X14910370Y-21498500D01*
X15103833Y-21578635D01*
X15206365Y-21681167D01*
X15286500Y-21874630D01*
X15286500Y-25033982D01*
X15238900Y-25148900D01*
X15133639Y-25192500D01*
X13659039Y-25192500D01*
X13523600Y-25136400D01*
X13463500Y-24991304D01*
X13463500Y-24941210D01*
X13469036Y-24885000D01*
X13469036Y-24285000D01*
X13463500Y-24228790D01*
X13463500Y-23937000D01*
X13462280Y-23924612D01*
X13458666Y-23912700D01*
X13368863Y-23695897D01*
X13362995Y-23684918D01*
X13355098Y-23675296D01*
X12564095Y-22884293D01*
X12554473Y-22876396D01*
X12543494Y-22870528D01*
X12359476Y-22794305D01*
X12365269Y-22787247D01*
X12394751Y-22732090D01*
X12412906Y-22672241D01*
X12419036Y-22610000D01*
X12419036Y-21160000D01*
X12412906Y-21097759D01*
X12394751Y-21037910D01*
X12365269Y-20982753D01*
X12326687Y-20935740D01*
X12348512Y-20883323D01*
X12433022Y-20848500D01*
X13210370Y-20848500D01*
X13403833Y-20928635D01*
G37*
X13403833Y-20928635D02*
X13865296Y-21390098D01*
X13874918Y-21397995D01*
X13885897Y-21403863D01*
X14102700Y-21493666D01*
X14114612Y-21497280D01*
X14127000Y-21498500D01*
X14910370Y-21498500D01*
X15103833Y-21578635D01*
X15206365Y-21681167D01*
X15286500Y-21874630D01*
X15286500Y-25033982D01*
X15238900Y-25148900D01*
X15133639Y-25192500D01*
X13659039Y-25192500D01*
X13523600Y-25136400D01*
X13463500Y-24991304D01*
X13463500Y-24941210D01*
X13469036Y-24885000D01*
X13469036Y-24285000D01*
X13463500Y-24228790D01*
X13463500Y-23937000D01*
X13462280Y-23924612D01*
X13458666Y-23912700D01*
X13368863Y-23695897D01*
X13362995Y-23684918D01*
X13355098Y-23675296D01*
X12564095Y-22884293D01*
X12554473Y-22876396D01*
X12543494Y-22870528D01*
X12359476Y-22794305D01*
X12365269Y-22787247D01*
X12394751Y-22732090D01*
X12412906Y-22672241D01*
X12419036Y-22610000D01*
X12419036Y-21160000D01*
X12412906Y-21097759D01*
X12394751Y-21037910D01*
X12365269Y-20982753D01*
X12326687Y-20935740D01*
X12348512Y-20883323D01*
X12433022Y-20848500D01*
X13210370Y-20848500D01*
X13403833Y-20928635D01*
D43*
%TO.N,+12V*%
G36*
X15998000Y26817000D02*
G01*
X16000440Y26792224D01*
X16007667Y26768399D01*
X16097470Y26551596D01*
X16109206Y26529639D01*
X16125000Y26510394D01*
X16820394Y25815000D01*
X16839640Y25799206D01*
X16861596Y25787470D01*
X17078399Y25697667D01*
X17102223Y25690440D01*
X17127000Y25688000D01*
X21939645Y25688000D01*
X21964421Y25690440D01*
X21988246Y25697667D01*
X22085618Y25738000D01*
X23048000Y25738000D01*
X23072776Y25740440D01*
X23096601Y25747667D01*
X23313404Y25837470D01*
X23335361Y25849206D01*
X23354606Y25865000D01*
X23454606Y25965000D01*
X26284772Y25965000D01*
X26284772Y24865000D01*
X26289676Y24815207D01*
X26304200Y24767328D01*
X26327786Y24723203D01*
X26359527Y24684527D01*
X26398203Y24652786D01*
X26442328Y24629200D01*
X26490207Y24614676D01*
X26540000Y24609772D01*
X27640000Y24609772D01*
X27689793Y24614676D01*
X27737672Y24629200D01*
X27781797Y24652786D01*
X27820473Y24684527D01*
X27852214Y24723203D01*
X27875800Y24767328D01*
X27890324Y24815207D01*
X27895228Y24865000D01*
X27895228Y25965000D01*
X27890324Y26014793D01*
X27875800Y26062672D01*
X27852214Y26106797D01*
X27820473Y26145473D01*
X27781797Y26177214D01*
X27737672Y26200800D01*
X27689793Y26215324D01*
X27640000Y26220228D01*
X26540000Y26220228D01*
X26490207Y26215324D01*
X26442328Y26200800D01*
X26398203Y26177214D01*
X26359527Y26145473D01*
X26327786Y26106797D01*
X26304200Y26062672D01*
X26289676Y26014793D01*
X26284772Y25965000D01*
X23454606Y25965000D01*
X23575000Y26085394D01*
X23590794Y26104640D01*
X23602530Y26126596D01*
X23692333Y26343399D01*
X23699560Y26367223D01*
X23702000Y26392000D01*
X23702000Y27494187D01*
X29286000Y27494187D01*
X29286000Y27335813D01*
X29316897Y27180482D01*
X29377505Y27034163D01*
X29465493Y26902480D01*
X29577480Y26790493D01*
X29709163Y26702505D01*
X29855482Y26641897D01*
X30010813Y26611000D01*
X30169187Y26611000D01*
X30324518Y26641897D01*
X30470837Y26702505D01*
X30602520Y26790493D01*
X30714507Y26902480D01*
X30802495Y27034163D01*
X30863103Y27180482D01*
X30894000Y27335813D01*
X30894000Y27494187D01*
X30863103Y27649518D01*
X30802495Y27795837D01*
X30714507Y27927520D01*
X30602520Y28039507D01*
X30470837Y28127495D01*
X30324518Y28188103D01*
X30169187Y28219000D01*
X30010813Y28219000D01*
X29855482Y28188103D01*
X29709163Y28127495D01*
X29577480Y28039507D01*
X29465493Y27927520D01*
X29377505Y27795837D01*
X29316897Y27649518D01*
X29286000Y27494187D01*
X23702000Y27494187D01*
X23702000Y28561000D01*
X31048000Y28561000D01*
X31048000Y26219000D01*
X31010813Y26219000D01*
X30855482Y26188103D01*
X30709163Y26127495D01*
X30577480Y26039507D01*
X30465493Y25927520D01*
X30377505Y25795837D01*
X30316897Y25649518D01*
X30286000Y25494187D01*
X30286000Y25335813D01*
X30316897Y25180482D01*
X30377505Y25034163D01*
X30465493Y24902480D01*
X30577480Y24790493D01*
X30709163Y24702505D01*
X30855482Y24641897D01*
X31010813Y24611000D01*
X31048000Y24611000D01*
X31048000Y23719000D01*
X31010813Y23719000D01*
X30855482Y23688103D01*
X30709163Y23627495D01*
X30577480Y23539507D01*
X30465493Y23427520D01*
X30377505Y23295837D01*
X30316897Y23149518D01*
X30286000Y22994187D01*
X30286000Y22835813D01*
X30316897Y22680482D01*
X30377505Y22534163D01*
X30465493Y22402480D01*
X30577480Y22290493D01*
X30709163Y22202505D01*
X30855482Y22141897D01*
X31010813Y22111000D01*
X31048000Y22111000D01*
X31048000Y20092263D01*
X30977532Y19922138D01*
X30417862Y19362468D01*
X30247737Y19292000D01*
X13977000Y19292000D01*
X13952224Y19289560D01*
X13928399Y19282333D01*
X13711596Y19192530D01*
X13689639Y19180794D01*
X13670394Y19165000D01*
X12800000Y18294606D01*
X12784206Y18275360D01*
X12772470Y18253404D01*
X12682667Y18036601D01*
X12675440Y18012777D01*
X12673000Y17988000D01*
X12673000Y-8682737D01*
X12602532Y-8852862D01*
X11717862Y-9737532D01*
X11547737Y-9808000D01*
X7354804Y-9808000D01*
X7422011Y-9794632D01*
X7513734Y-9756639D01*
X7596282Y-9701483D01*
X7666483Y-9631282D01*
X7721639Y-9548734D01*
X7759632Y-9457011D01*
X7779000Y-9359640D01*
X7779000Y-9260360D01*
X7759632Y-9162989D01*
X7721639Y-9071266D01*
X7666483Y-8988718D01*
X7596282Y-8918517D01*
X7513734Y-8863361D01*
X7422011Y-8825368D01*
X7324640Y-8806000D01*
X7225360Y-8806000D01*
X7127989Y-8825368D01*
X7036266Y-8863361D01*
X6953718Y-8918517D01*
X6883517Y-8988718D01*
X6828361Y-9071266D01*
X6790368Y-9162989D01*
X6771000Y-9260360D01*
X6771000Y-9313368D01*
X6276369Y-9808000D01*
X5948744Y-9808000D01*
X5971639Y-9773734D01*
X6009632Y-9682011D01*
X6029000Y-9584640D01*
X6029000Y-9485360D01*
X6009632Y-9387989D01*
X5971639Y-9296266D01*
X5916483Y-9213718D01*
X5846282Y-9143517D01*
X5763734Y-9088361D01*
X5672011Y-9050368D01*
X5574640Y-9031000D01*
X5475360Y-9031000D01*
X5377989Y-9050368D01*
X5286266Y-9088361D01*
X5203718Y-9143517D01*
X5133517Y-9213718D01*
X5078361Y-9296266D01*
X5040368Y-9387989D01*
X5021000Y-9485360D01*
X5021000Y-9538369D01*
X4761977Y-9797393D01*
X4748475Y-9808474D01*
X4704237Y-9862377D01*
X4699624Y-9871007D01*
X4611596Y-9907470D01*
X4589639Y-9919206D01*
X4570394Y-9935000D01*
X3450000Y-11055394D01*
X3434206Y-11074640D01*
X3422470Y-11096596D01*
X3332667Y-11313399D01*
X3325440Y-11337223D01*
X3323000Y-11362000D01*
X3323000Y-23008000D01*
X3325440Y-23032776D01*
X3332667Y-23056601D01*
X3422470Y-23273404D01*
X3434206Y-23295361D01*
X3450000Y-23314606D01*
X3670394Y-23535000D01*
X3689640Y-23550794D01*
X3711596Y-23562530D01*
X3928399Y-23652333D01*
X3952223Y-23659560D01*
X3977000Y-23662000D01*
X5570394Y-23662000D01*
X5623000Y-23714606D01*
X5623000Y-25483000D01*
X5625440Y-25507776D01*
X5632667Y-25531601D01*
X5722470Y-25748404D01*
X5734206Y-25770361D01*
X5750000Y-25789606D01*
X6070394Y-26110000D01*
X6089640Y-26125794D01*
X6111596Y-26137530D01*
X6328399Y-26227333D01*
X6352223Y-26234560D01*
X6377000Y-26237000D01*
X9698000Y-26237000D01*
X9722776Y-26234560D01*
X9746601Y-26227333D01*
X9963404Y-26137530D01*
X9985361Y-26125794D01*
X10004606Y-26110000D01*
X10282138Y-25832468D01*
X10452263Y-25762000D01*
X10947737Y-25762000D01*
X11117862Y-25832468D01*
X12070394Y-26785000D01*
X12089640Y-26800794D01*
X12111596Y-26812530D01*
X12328399Y-26902333D01*
X12352223Y-26909560D01*
X12377000Y-26912000D01*
X14247737Y-26912000D01*
X14417862Y-26982468D01*
X20152532Y-32717138D01*
X20223000Y-32887263D01*
X20223000Y-41382737D01*
X20152532Y-41552862D01*
X19050000Y-42655394D01*
X19034206Y-42674640D01*
X19022470Y-42696596D01*
X18932667Y-42913399D01*
X18925440Y-42937223D01*
X18923000Y-42962000D01*
X18923000Y-48158000D01*
X16354000Y-48158000D01*
X16354000Y-42776784D01*
X16361266Y-42781639D01*
X16452989Y-42819632D01*
X16550360Y-42839000D01*
X16649640Y-42839000D01*
X16747011Y-42819632D01*
X16838734Y-42781639D01*
X16921282Y-42726483D01*
X16991483Y-42656282D01*
X17046639Y-42573734D01*
X17084632Y-42482011D01*
X17104000Y-42384640D01*
X17104000Y-42285360D01*
X17084632Y-42187989D01*
X17046639Y-42096266D01*
X16991483Y-42013718D01*
X16921282Y-41943517D01*
X16838734Y-41888361D01*
X16747011Y-41850368D01*
X16649640Y-41831000D01*
X16550360Y-41831000D01*
X16452989Y-41850368D01*
X16361266Y-41888361D01*
X16354000Y-41893216D01*
X16354000Y-33532618D01*
X16352476Y-33517142D01*
X16352519Y-33510934D01*
X16352037Y-33506015D01*
X16331636Y-33311918D01*
X16325179Y-33280462D01*
X16319172Y-33248974D01*
X16317744Y-33244242D01*
X16260032Y-33057804D01*
X16247580Y-33028181D01*
X16235579Y-32998478D01*
X16233259Y-32994113D01*
X16140434Y-32822437D01*
X16122485Y-32795826D01*
X16104923Y-32768989D01*
X16101799Y-32765158D01*
X15977395Y-32614780D01*
X15954604Y-32592147D01*
X15932181Y-32569250D01*
X15928378Y-32566104D01*
X15928372Y-32566098D01*
X15928365Y-32566094D01*
X15777130Y-32442749D01*
X15750406Y-32424994D01*
X15723933Y-32406867D01*
X15719585Y-32404516D01*
X15547263Y-32312890D01*
X15517557Y-32300647D01*
X15488109Y-32288025D01*
X15483387Y-32286563D01*
X15296551Y-32230154D01*
X15265055Y-32223918D01*
X15233694Y-32217252D01*
X15228778Y-32216734D01*
X15034545Y-32197690D01*
X15034541Y-32197690D01*
X15017382Y-32196000D01*
X-1568468Y-32196000D01*
X-1710931Y-32182032D01*
X-1831313Y-32145687D01*
X-1942339Y-32086654D01*
X-2052827Y-31996541D01*
X-3444544Y-30604826D01*
X-3535405Y-30494211D01*
X-3594827Y-30383389D01*
X-3631590Y-30263140D01*
X-3646000Y-30121281D01*
X-3646000Y340189D01*
X-3454000Y340189D01*
X-3454000Y-340189D01*
X-3321264Y-1007495D01*
X-3060895Y-1636082D01*
X-2682897Y-2201796D01*
X-2201796Y-2682897D01*
X-1636082Y-3060895D01*
X-1007495Y-3321264D01*
X-340189Y-3454000D01*
X340189Y-3454000D01*
X1007495Y-3321264D01*
X1636082Y-3060895D01*
X2201796Y-2682897D01*
X2682897Y-2201796D01*
X3060895Y-1636082D01*
X3321264Y-1007495D01*
X3454000Y-340189D01*
X3454000Y340189D01*
X3321264Y1007495D01*
X3060895Y1636082D01*
X2682897Y2201796D01*
X2201796Y2682897D01*
X1636082Y3060895D01*
X1007495Y3321264D01*
X340189Y3454000D01*
X-340189Y3454000D01*
X-1007495Y3321264D01*
X-1636082Y3060895D01*
X-2201796Y2682897D01*
X-2682897Y2201796D01*
X-3060895Y1636082D01*
X-3321264Y1007495D01*
X-3454000Y340189D01*
X-3646000Y340189D01*
X-3646000Y20994187D01*
X29286000Y20994187D01*
X29286000Y20835813D01*
X29316897Y20680482D01*
X29377505Y20534163D01*
X29465493Y20402480D01*
X29577480Y20290493D01*
X29709163Y20202505D01*
X29855482Y20141897D01*
X30010813Y20111000D01*
X30169187Y20111000D01*
X30324518Y20141897D01*
X30470837Y20202505D01*
X30602520Y20290493D01*
X30714507Y20402480D01*
X30802495Y20534163D01*
X30863103Y20680482D01*
X30894000Y20835813D01*
X30894000Y20994187D01*
X30863103Y21149518D01*
X30802495Y21295837D01*
X30714507Y21427520D01*
X30602520Y21539507D01*
X30470837Y21627495D01*
X30324518Y21688103D01*
X30169187Y21719000D01*
X30010813Y21719000D01*
X29855482Y21688103D01*
X29709163Y21627495D01*
X29577480Y21539507D01*
X29465493Y21427520D01*
X29377505Y21295837D01*
X29316897Y21149518D01*
X29286000Y20994187D01*
X-3646000Y20994187D01*
X-3646000Y27768370D01*
X-2853368Y28561000D01*
X15998000Y28561000D01*
X15998000Y26817000D01*
G37*
X15998000Y26817000D02*
X16000440Y26792224D01*
X16007667Y26768399D01*
X16097470Y26551596D01*
X16109206Y26529639D01*
X16125000Y26510394D01*
X16820394Y25815000D01*
X16839640Y25799206D01*
X16861596Y25787470D01*
X17078399Y25697667D01*
X17102223Y25690440D01*
X17127000Y25688000D01*
X21939645Y25688000D01*
X21964421Y25690440D01*
X21988246Y25697667D01*
X22085618Y25738000D01*
X23048000Y25738000D01*
X23072776Y25740440D01*
X23096601Y25747667D01*
X23313404Y25837470D01*
X23335361Y25849206D01*
X23354606Y25865000D01*
X23454606Y25965000D01*
X26284772Y25965000D01*
X26284772Y24865000D01*
X26289676Y24815207D01*
X26304200Y24767328D01*
X26327786Y24723203D01*
X26359527Y24684527D01*
X26398203Y24652786D01*
X26442328Y24629200D01*
X26490207Y24614676D01*
X26540000Y24609772D01*
X27640000Y24609772D01*
X27689793Y24614676D01*
X27737672Y24629200D01*
X27781797Y24652786D01*
X27820473Y24684527D01*
X27852214Y24723203D01*
X27875800Y24767328D01*
X27890324Y24815207D01*
X27895228Y24865000D01*
X27895228Y25965000D01*
X27890324Y26014793D01*
X27875800Y26062672D01*
X27852214Y26106797D01*
X27820473Y26145473D01*
X27781797Y26177214D01*
X27737672Y26200800D01*
X27689793Y26215324D01*
X27640000Y26220228D01*
X26540000Y26220228D01*
X26490207Y26215324D01*
X26442328Y26200800D01*
X26398203Y26177214D01*
X26359527Y26145473D01*
X26327786Y26106797D01*
X26304200Y26062672D01*
X26289676Y26014793D01*
X26284772Y25965000D01*
X23454606Y25965000D01*
X23575000Y26085394D01*
X23590794Y26104640D01*
X23602530Y26126596D01*
X23692333Y26343399D01*
X23699560Y26367223D01*
X23702000Y26392000D01*
X23702000Y27494187D01*
X29286000Y27494187D01*
X29286000Y27335813D01*
X29316897Y27180482D01*
X29377505Y27034163D01*
X29465493Y26902480D01*
X29577480Y26790493D01*
X29709163Y26702505D01*
X29855482Y26641897D01*
X30010813Y26611000D01*
X30169187Y26611000D01*
X30324518Y26641897D01*
X30470837Y26702505D01*
X30602520Y26790493D01*
X30714507Y26902480D01*
X30802495Y27034163D01*
X30863103Y27180482D01*
X30894000Y27335813D01*
X30894000Y27494187D01*
X30863103Y27649518D01*
X30802495Y27795837D01*
X30714507Y27927520D01*
X30602520Y28039507D01*
X30470837Y28127495D01*
X30324518Y28188103D01*
X30169187Y28219000D01*
X30010813Y28219000D01*
X29855482Y28188103D01*
X29709163Y28127495D01*
X29577480Y28039507D01*
X29465493Y27927520D01*
X29377505Y27795837D01*
X29316897Y27649518D01*
X29286000Y27494187D01*
X23702000Y27494187D01*
X23702000Y28561000D01*
X31048000Y28561000D01*
X31048000Y26219000D01*
X31010813Y26219000D01*
X30855482Y26188103D01*
X30709163Y26127495D01*
X30577480Y26039507D01*
X30465493Y25927520D01*
X30377505Y25795837D01*
X30316897Y25649518D01*
X30286000Y25494187D01*
X30286000Y25335813D01*
X30316897Y25180482D01*
X30377505Y25034163D01*
X30465493Y24902480D01*
X30577480Y24790493D01*
X30709163Y24702505D01*
X30855482Y24641897D01*
X31010813Y24611000D01*
X31048000Y24611000D01*
X31048000Y23719000D01*
X31010813Y23719000D01*
X30855482Y23688103D01*
X30709163Y23627495D01*
X30577480Y23539507D01*
X30465493Y23427520D01*
X30377505Y23295837D01*
X30316897Y23149518D01*
X30286000Y22994187D01*
X30286000Y22835813D01*
X30316897Y22680482D01*
X30377505Y22534163D01*
X30465493Y22402480D01*
X30577480Y22290493D01*
X30709163Y22202505D01*
X30855482Y22141897D01*
X31010813Y22111000D01*
X31048000Y22111000D01*
X31048000Y20092263D01*
X30977532Y19922138D01*
X30417862Y19362468D01*
X30247737Y19292000D01*
X13977000Y19292000D01*
X13952224Y19289560D01*
X13928399Y19282333D01*
X13711596Y19192530D01*
X13689639Y19180794D01*
X13670394Y19165000D01*
X12800000Y18294606D01*
X12784206Y18275360D01*
X12772470Y18253404D01*
X12682667Y18036601D01*
X12675440Y18012777D01*
X12673000Y17988000D01*
X12673000Y-8682737D01*
X12602532Y-8852862D01*
X11717862Y-9737532D01*
X11547737Y-9808000D01*
X7354804Y-9808000D01*
X7422011Y-9794632D01*
X7513734Y-9756639D01*
X7596282Y-9701483D01*
X7666483Y-9631282D01*
X7721639Y-9548734D01*
X7759632Y-9457011D01*
X7779000Y-9359640D01*
X7779000Y-9260360D01*
X7759632Y-9162989D01*
X7721639Y-9071266D01*
X7666483Y-8988718D01*
X7596282Y-8918517D01*
X7513734Y-8863361D01*
X7422011Y-8825368D01*
X7324640Y-8806000D01*
X7225360Y-8806000D01*
X7127989Y-8825368D01*
X7036266Y-8863361D01*
X6953718Y-8918517D01*
X6883517Y-8988718D01*
X6828361Y-9071266D01*
X6790368Y-9162989D01*
X6771000Y-9260360D01*
X6771000Y-9313368D01*
X6276369Y-9808000D01*
X5948744Y-9808000D01*
X5971639Y-9773734D01*
X6009632Y-9682011D01*
X6029000Y-9584640D01*
X6029000Y-9485360D01*
X6009632Y-9387989D01*
X5971639Y-9296266D01*
X5916483Y-9213718D01*
X5846282Y-9143517D01*
X5763734Y-9088361D01*
X5672011Y-9050368D01*
X5574640Y-9031000D01*
X5475360Y-9031000D01*
X5377989Y-9050368D01*
X5286266Y-9088361D01*
X5203718Y-9143517D01*
X5133517Y-9213718D01*
X5078361Y-9296266D01*
X5040368Y-9387989D01*
X5021000Y-9485360D01*
X5021000Y-9538369D01*
X4761977Y-9797393D01*
X4748475Y-9808474D01*
X4704237Y-9862377D01*
X4699624Y-9871007D01*
X4611596Y-9907470D01*
X4589639Y-9919206D01*
X4570394Y-9935000D01*
X3450000Y-11055394D01*
X3434206Y-11074640D01*
X3422470Y-11096596D01*
X3332667Y-11313399D01*
X3325440Y-11337223D01*
X3323000Y-11362000D01*
X3323000Y-23008000D01*
X3325440Y-23032776D01*
X3332667Y-23056601D01*
X3422470Y-23273404D01*
X3434206Y-23295361D01*
X3450000Y-23314606D01*
X3670394Y-23535000D01*
X3689640Y-23550794D01*
X3711596Y-23562530D01*
X3928399Y-23652333D01*
X3952223Y-23659560D01*
X3977000Y-23662000D01*
X5570394Y-23662000D01*
X5623000Y-23714606D01*
X5623000Y-25483000D01*
X5625440Y-25507776D01*
X5632667Y-25531601D01*
X5722470Y-25748404D01*
X5734206Y-25770361D01*
X5750000Y-25789606D01*
X6070394Y-26110000D01*
X6089640Y-26125794D01*
X6111596Y-26137530D01*
X6328399Y-26227333D01*
X6352223Y-26234560D01*
X6377000Y-26237000D01*
X9698000Y-26237000D01*
X9722776Y-26234560D01*
X9746601Y-26227333D01*
X9963404Y-26137530D01*
X9985361Y-26125794D01*
X10004606Y-26110000D01*
X10282138Y-25832468D01*
X10452263Y-25762000D01*
X10947737Y-25762000D01*
X11117862Y-25832468D01*
X12070394Y-26785000D01*
X12089640Y-26800794D01*
X12111596Y-26812530D01*
X12328399Y-26902333D01*
X12352223Y-26909560D01*
X12377000Y-26912000D01*
X14247737Y-26912000D01*
X14417862Y-26982468D01*
X20152532Y-32717138D01*
X20223000Y-32887263D01*
X20223000Y-41382737D01*
X20152532Y-41552862D01*
X19050000Y-42655394D01*
X19034206Y-42674640D01*
X19022470Y-42696596D01*
X18932667Y-42913399D01*
X18925440Y-42937223D01*
X18923000Y-42962000D01*
X18923000Y-48158000D01*
X16354000Y-48158000D01*
X16354000Y-42776784D01*
X16361266Y-42781639D01*
X16452989Y-42819632D01*
X16550360Y-42839000D01*
X16649640Y-42839000D01*
X16747011Y-42819632D01*
X16838734Y-42781639D01*
X16921282Y-42726483D01*
X16991483Y-42656282D01*
X17046639Y-42573734D01*
X17084632Y-42482011D01*
X17104000Y-42384640D01*
X17104000Y-42285360D01*
X17084632Y-42187989D01*
X17046639Y-42096266D01*
X16991483Y-42013718D01*
X16921282Y-41943517D01*
X16838734Y-41888361D01*
X16747011Y-41850368D01*
X16649640Y-41831000D01*
X16550360Y-41831000D01*
X16452989Y-41850368D01*
X16361266Y-41888361D01*
X16354000Y-41893216D01*
X16354000Y-33532618D01*
X16352476Y-33517142D01*
X16352519Y-33510934D01*
X16352037Y-33506015D01*
X16331636Y-33311918D01*
X16325179Y-33280462D01*
X16319172Y-33248974D01*
X16317744Y-33244242D01*
X16260032Y-33057804D01*
X16247580Y-33028181D01*
X16235579Y-32998478D01*
X16233259Y-32994113D01*
X16140434Y-32822437D01*
X16122485Y-32795826D01*
X16104923Y-32768989D01*
X16101799Y-32765158D01*
X15977395Y-32614780D01*
X15954604Y-32592147D01*
X15932181Y-32569250D01*
X15928378Y-32566104D01*
X15928372Y-32566098D01*
X15928365Y-32566094D01*
X15777130Y-32442749D01*
X15750406Y-32424994D01*
X15723933Y-32406867D01*
X15719585Y-32404516D01*
X15547263Y-32312890D01*
X15517557Y-32300647D01*
X15488109Y-32288025D01*
X15483387Y-32286563D01*
X15296551Y-32230154D01*
X15265055Y-32223918D01*
X15233694Y-32217252D01*
X15228778Y-32216734D01*
X15034545Y-32197690D01*
X15034541Y-32197690D01*
X15017382Y-32196000D01*
X-1568468Y-32196000D01*
X-1710931Y-32182032D01*
X-1831313Y-32145687D01*
X-1942339Y-32086654D01*
X-2052827Y-31996541D01*
X-3444544Y-30604826D01*
X-3535405Y-30494211D01*
X-3594827Y-30383389D01*
X-3631590Y-30263140D01*
X-3646000Y-30121281D01*
X-3646000Y340189D01*
X-3454000Y340189D01*
X-3454000Y-340189D01*
X-3321264Y-1007495D01*
X-3060895Y-1636082D01*
X-2682897Y-2201796D01*
X-2201796Y-2682897D01*
X-1636082Y-3060895D01*
X-1007495Y-3321264D01*
X-340189Y-3454000D01*
X340189Y-3454000D01*
X1007495Y-3321264D01*
X1636082Y-3060895D01*
X2201796Y-2682897D01*
X2682897Y-2201796D01*
X3060895Y-1636082D01*
X3321264Y-1007495D01*
X3454000Y-340189D01*
X3454000Y340189D01*
X3321264Y1007495D01*
X3060895Y1636082D01*
X2682897Y2201796D01*
X2201796Y2682897D01*
X1636082Y3060895D01*
X1007495Y3321264D01*
X340189Y3454000D01*
X-340189Y3454000D01*
X-1007495Y3321264D01*
X-1636082Y3060895D01*
X-2201796Y2682897D01*
X-2682897Y2201796D01*
X-3060895Y1636082D01*
X-3321264Y1007495D01*
X-3454000Y340189D01*
X-3646000Y340189D01*
X-3646000Y20994187D01*
X29286000Y20994187D01*
X29286000Y20835813D01*
X29316897Y20680482D01*
X29377505Y20534163D01*
X29465493Y20402480D01*
X29577480Y20290493D01*
X29709163Y20202505D01*
X29855482Y20141897D01*
X30010813Y20111000D01*
X30169187Y20111000D01*
X30324518Y20141897D01*
X30470837Y20202505D01*
X30602520Y20290493D01*
X30714507Y20402480D01*
X30802495Y20534163D01*
X30863103Y20680482D01*
X30894000Y20835813D01*
X30894000Y20994187D01*
X30863103Y21149518D01*
X30802495Y21295837D01*
X30714507Y21427520D01*
X30602520Y21539507D01*
X30470837Y21627495D01*
X30324518Y21688103D01*
X30169187Y21719000D01*
X30010813Y21719000D01*
X29855482Y21688103D01*
X29709163Y21627495D01*
X29577480Y21539507D01*
X29465493Y21427520D01*
X29377505Y21295837D01*
X29316897Y21149518D01*
X29286000Y20994187D01*
X-3646000Y20994187D01*
X-3646000Y27768370D01*
X-2853368Y28561000D01*
X15998000Y28561000D01*
X15998000Y26817000D01*
%TO.N,+3.3VP*%
G36*
X46944772Y-25885000D02*
G01*
X46949676Y-25934793D01*
X46964200Y-25982672D01*
X46987786Y-26026797D01*
X47019527Y-26065473D01*
X47058203Y-26097214D01*
X47102328Y-26120800D01*
X47150207Y-26135324D01*
X47200000Y-26140228D01*
X47450000Y-26140228D01*
X47499793Y-26135324D01*
X47547672Y-26120800D01*
X47575000Y-26106192D01*
X47602328Y-26120800D01*
X47650207Y-26135324D01*
X47700000Y-26140228D01*
X47950000Y-26140228D01*
X47999793Y-26135324D01*
X48047672Y-26120800D01*
X48091797Y-26097214D01*
X48130473Y-26065473D01*
X48162214Y-26026797D01*
X48185800Y-25982672D01*
X48200324Y-25934793D01*
X48205228Y-25885000D01*
X48205228Y-25362000D01*
X48396704Y-25362000D01*
X48415298Y-25369702D01*
X48423000Y-25388296D01*
X48423000Y-25544853D01*
X48419046Y-25585000D01*
X48423000Y-25625147D01*
X48423000Y-26036256D01*
X48425440Y-26061032D01*
X48432667Y-26084857D01*
X48520167Y-26296101D01*
X48531903Y-26318057D01*
X48547697Y-26337303D01*
X48566943Y-26353097D01*
X48588899Y-26364833D01*
X48800143Y-26452333D01*
X48823968Y-26459560D01*
X48848744Y-26462000D01*
X49929026Y-26462000D01*
X50003059Y-26492665D01*
X50104835Y-26594441D01*
X50173000Y-26759007D01*
X50173000Y-27596349D01*
X50140298Y-27675298D01*
X50061349Y-27708000D01*
X48210355Y-27708000D01*
X48185579Y-27710440D01*
X48161754Y-27717667D01*
X48064382Y-27758000D01*
X46127000Y-27758000D01*
X46127000Y-26128284D01*
X46150207Y-26135324D01*
X46200000Y-26140228D01*
X46450000Y-26140228D01*
X46499793Y-26135324D01*
X46547672Y-26120800D01*
X46591797Y-26097214D01*
X46630473Y-26065473D01*
X46662214Y-26026797D01*
X46685800Y-25982672D01*
X46700324Y-25934793D01*
X46705228Y-25885000D01*
X46705228Y-25362000D01*
X46944772Y-25362000D01*
X46944772Y-25885000D01*
G37*
X46944772Y-25885000D02*
X46949676Y-25934793D01*
X46964200Y-25982672D01*
X46987786Y-26026797D01*
X47019527Y-26065473D01*
X47058203Y-26097214D01*
X47102328Y-26120800D01*
X47150207Y-26135324D01*
X47200000Y-26140228D01*
X47450000Y-26140228D01*
X47499793Y-26135324D01*
X47547672Y-26120800D01*
X47575000Y-26106192D01*
X47602328Y-26120800D01*
X47650207Y-26135324D01*
X47700000Y-26140228D01*
X47950000Y-26140228D01*
X47999793Y-26135324D01*
X48047672Y-26120800D01*
X48091797Y-26097214D01*
X48130473Y-26065473D01*
X48162214Y-26026797D01*
X48185800Y-25982672D01*
X48200324Y-25934793D01*
X48205228Y-25885000D01*
X48205228Y-25362000D01*
X48396704Y-25362000D01*
X48415298Y-25369702D01*
X48423000Y-25388296D01*
X48423000Y-25544853D01*
X48419046Y-25585000D01*
X48423000Y-25625147D01*
X48423000Y-26036256D01*
X48425440Y-26061032D01*
X48432667Y-26084857D01*
X48520167Y-26296101D01*
X48531903Y-26318057D01*
X48547697Y-26337303D01*
X48566943Y-26353097D01*
X48588899Y-26364833D01*
X48800143Y-26452333D01*
X48823968Y-26459560D01*
X48848744Y-26462000D01*
X49929026Y-26462000D01*
X50003059Y-26492665D01*
X50104835Y-26594441D01*
X50173000Y-26759007D01*
X50173000Y-27596349D01*
X50140298Y-27675298D01*
X50061349Y-27708000D01*
X48210355Y-27708000D01*
X48185579Y-27710440D01*
X48161754Y-27717667D01*
X48064382Y-27758000D01*
X46127000Y-27758000D01*
X46127000Y-26128284D01*
X46150207Y-26135324D01*
X46200000Y-26140228D01*
X46450000Y-26140228D01*
X46499793Y-26135324D01*
X46547672Y-26120800D01*
X46591797Y-26097214D01*
X46630473Y-26065473D01*
X46662214Y-26026797D01*
X46685800Y-25982672D01*
X46700324Y-25934793D01*
X46705228Y-25885000D01*
X46705228Y-25362000D01*
X46944772Y-25362000D01*
X46944772Y-25885000D01*
%TO.N,+3V3*%
G36*
X51014294Y-23324924D02*
G01*
X51335076Y-23645707D01*
X51371001Y-23732437D01*
X51371001Y-24833000D01*
X50327000Y-24833000D01*
X50327000Y-23823388D01*
X50324560Y-23798612D01*
X50317333Y-23774787D01*
X50254833Y-23623899D01*
X50243097Y-23601942D01*
X50227302Y-23582697D01*
X50208057Y-23566903D01*
X50186101Y-23555167D01*
X50035213Y-23492667D01*
X50011389Y-23485440D01*
X49986612Y-23483000D01*
X49227000Y-23483000D01*
X49227000Y-23387000D01*
X49804289Y-23387000D01*
X49829065Y-23384560D01*
X49852890Y-23377333D01*
X50005790Y-23314000D01*
X50987921Y-23314000D01*
X51014294Y-23324924D01*
G37*
X51014294Y-23324924D02*
X51335076Y-23645707D01*
X51371001Y-23732437D01*
X51371001Y-24833000D01*
X50327000Y-24833000D01*
X50327000Y-23823388D01*
X50324560Y-23798612D01*
X50317333Y-23774787D01*
X50254833Y-23623899D01*
X50243097Y-23601942D01*
X50227302Y-23582697D01*
X50208057Y-23566903D01*
X50186101Y-23555167D01*
X50035213Y-23492667D01*
X50011389Y-23485440D01*
X49986612Y-23483000D01*
X49227000Y-23483000D01*
X49227000Y-23387000D01*
X49804289Y-23387000D01*
X49829065Y-23384560D01*
X49852890Y-23377333D01*
X50005790Y-23314000D01*
X50987921Y-23314000D01*
X51014294Y-23324924D01*
G36*
X51698000Y-20457737D02*
G01*
X51627532Y-20627862D01*
X51500000Y-20755394D01*
X51484206Y-20774640D01*
X51472470Y-20796596D01*
X51382667Y-21013399D01*
X51375440Y-21037223D01*
X51373000Y-21062000D01*
X51373000Y-21483000D01*
X49252000Y-21483000D01*
X49252000Y-21372763D01*
X49259182Y-21355424D01*
X49357138Y-21257468D01*
X49527263Y-21187000D01*
X49648000Y-21187000D01*
X49672776Y-21184560D01*
X49696601Y-21177333D01*
X49913404Y-21087530D01*
X49935361Y-21075794D01*
X49954606Y-21060000D01*
X51007138Y-20007468D01*
X51177263Y-19937000D01*
X51698000Y-19937000D01*
X51698000Y-20457737D01*
G37*
X51698000Y-20457737D02*
X51627532Y-20627862D01*
X51500000Y-20755394D01*
X51484206Y-20774640D01*
X51472470Y-20796596D01*
X51382667Y-21013399D01*
X51375440Y-21037223D01*
X51373000Y-21062000D01*
X51373000Y-21483000D01*
X49252000Y-21483000D01*
X49252000Y-21372763D01*
X49259182Y-21355424D01*
X49357138Y-21257468D01*
X49527263Y-21187000D01*
X49648000Y-21187000D01*
X49672776Y-21184560D01*
X49696601Y-21177333D01*
X49913404Y-21087530D01*
X49935361Y-21075794D01*
X49954606Y-21060000D01*
X51007138Y-20007468D01*
X51177263Y-19937000D01*
X51698000Y-19937000D01*
X51698000Y-20457737D01*
%TO.N,+3.3VP*%
G36*
X51717862Y-18707468D02*
G01*
X51802532Y-18792138D01*
X51873000Y-18962263D01*
X51873000Y-19296349D01*
X51840298Y-19375298D01*
X51761349Y-19408000D01*
X49985355Y-19408000D01*
X49960579Y-19410440D01*
X49936754Y-19417667D01*
X49876399Y-19442667D01*
X49854442Y-19454403D01*
X49835197Y-19470197D01*
X49217862Y-20087532D01*
X49047737Y-20158000D01*
X48798744Y-20158000D01*
X48773968Y-20160440D01*
X48750143Y-20167667D01*
X48538899Y-20255167D01*
X48516943Y-20266903D01*
X48497697Y-20282697D01*
X48481903Y-20301943D01*
X48470167Y-20323899D01*
X48382667Y-20535143D01*
X48375440Y-20558968D01*
X48373000Y-20583744D01*
X48373000Y-21008000D01*
X48277000Y-21008000D01*
X48277000Y-20062263D01*
X48347468Y-19892138D01*
X49282138Y-18957468D01*
X49452263Y-18887000D01*
X50257322Y-18887000D01*
X50282098Y-18884560D01*
X50305922Y-18877333D01*
X50336100Y-18864833D01*
X50358057Y-18853097D01*
X50377303Y-18837303D01*
X50405606Y-18809000D01*
X50410163Y-18809000D01*
X50430000Y-18810954D01*
X50449837Y-18809000D01*
X50449840Y-18809000D01*
X50509198Y-18803154D01*
X50585352Y-18780053D01*
X50655536Y-18742538D01*
X50717053Y-18692053D01*
X50729702Y-18676641D01*
X50769343Y-18637000D01*
X51547737Y-18637000D01*
X51717862Y-18707468D01*
G37*
X51717862Y-18707468D02*
X51802532Y-18792138D01*
X51873000Y-18962263D01*
X51873000Y-19296349D01*
X51840298Y-19375298D01*
X51761349Y-19408000D01*
X49985355Y-19408000D01*
X49960579Y-19410440D01*
X49936754Y-19417667D01*
X49876399Y-19442667D01*
X49854442Y-19454403D01*
X49835197Y-19470197D01*
X49217862Y-20087532D01*
X49047737Y-20158000D01*
X48798744Y-20158000D01*
X48773968Y-20160440D01*
X48750143Y-20167667D01*
X48538899Y-20255167D01*
X48516943Y-20266903D01*
X48497697Y-20282697D01*
X48481903Y-20301943D01*
X48470167Y-20323899D01*
X48382667Y-20535143D01*
X48375440Y-20558968D01*
X48373000Y-20583744D01*
X48373000Y-21008000D01*
X48277000Y-21008000D01*
X48277000Y-20062263D01*
X48347468Y-19892138D01*
X49282138Y-18957468D01*
X49452263Y-18887000D01*
X50257322Y-18887000D01*
X50282098Y-18884560D01*
X50305922Y-18877333D01*
X50336100Y-18864833D01*
X50358057Y-18853097D01*
X50377303Y-18837303D01*
X50405606Y-18809000D01*
X50410163Y-18809000D01*
X50430000Y-18810954D01*
X50449837Y-18809000D01*
X50449840Y-18809000D01*
X50509198Y-18803154D01*
X50585352Y-18780053D01*
X50655536Y-18742538D01*
X50717053Y-18692053D01*
X50729702Y-18676641D01*
X50769343Y-18637000D01*
X51547737Y-18637000D01*
X51717862Y-18707468D01*
G36*
X47390298Y-18044702D02*
G01*
X47398000Y-18063296D01*
X47398000Y-18532737D01*
X47327532Y-18702862D01*
X47075000Y-18955394D01*
X47059206Y-18974640D01*
X47047470Y-18996596D01*
X46957667Y-19213399D01*
X46950440Y-19237223D01*
X46948000Y-19262000D01*
X46948000Y-19781704D01*
X46882667Y-19939432D01*
X46875440Y-19963257D01*
X46873000Y-19988033D01*
X46873000Y-21008000D01*
X46752000Y-21008000D01*
X46752000Y-19988033D01*
X46749560Y-19963257D01*
X46742333Y-19939432D01*
X46677000Y-19781704D01*
X46677000Y-19262000D01*
X46674560Y-19237224D01*
X46667333Y-19213399D01*
X46577530Y-18996596D01*
X46565794Y-18974639D01*
X46550000Y-18955394D01*
X46122468Y-18527862D01*
X46052000Y-18357737D01*
X46052000Y-18191329D01*
X46097202Y-18082202D01*
X46206329Y-18037000D01*
X47371704Y-18037000D01*
X47390298Y-18044702D01*
G37*
X47390298Y-18044702D02*
X47398000Y-18063296D01*
X47398000Y-18532737D01*
X47327532Y-18702862D01*
X47075000Y-18955394D01*
X47059206Y-18974640D01*
X47047470Y-18996596D01*
X46957667Y-19213399D01*
X46950440Y-19237223D01*
X46948000Y-19262000D01*
X46948000Y-19781704D01*
X46882667Y-19939432D01*
X46875440Y-19963257D01*
X46873000Y-19988033D01*
X46873000Y-21008000D01*
X46752000Y-21008000D01*
X46752000Y-19988033D01*
X46749560Y-19963257D01*
X46742333Y-19939432D01*
X46677000Y-19781704D01*
X46677000Y-19262000D01*
X46674560Y-19237224D01*
X46667333Y-19213399D01*
X46577530Y-18996596D01*
X46565794Y-18974639D01*
X46550000Y-18955394D01*
X46122468Y-18527862D01*
X46052000Y-18357737D01*
X46052000Y-18191329D01*
X46097202Y-18082202D01*
X46206329Y-18037000D01*
X47371704Y-18037000D01*
X47390298Y-18044702D01*
%TO.N,+3V3*%
G36*
X43740298Y-20794702D02*
G01*
X43773000Y-20873651D01*
X43773000Y-21383000D01*
X43775440Y-21407776D01*
X43782667Y-21431601D01*
X43872470Y-21648404D01*
X43884206Y-21670361D01*
X43900000Y-21689606D01*
X43970394Y-21760000D01*
X43989640Y-21775794D01*
X44011596Y-21787530D01*
X44228399Y-21877333D01*
X44252223Y-21884560D01*
X44277000Y-21887000D01*
X44898000Y-21887000D01*
X44898000Y-21983000D01*
X44377000Y-21983000D01*
X44352224Y-21985440D01*
X44328399Y-21992667D01*
X44111596Y-22082470D01*
X44089639Y-22094206D01*
X44070394Y-22110000D01*
X43542862Y-22637532D01*
X43372737Y-22708000D01*
X40527263Y-22708000D01*
X40367978Y-22642022D01*
X40302000Y-22482737D01*
X40302000Y-20788296D01*
X40309702Y-20769702D01*
X40328296Y-20762000D01*
X43661349Y-20762000D01*
X43740298Y-20794702D01*
G37*
X43740298Y-20794702D02*
X43773000Y-20873651D01*
X43773000Y-21383000D01*
X43775440Y-21407776D01*
X43782667Y-21431601D01*
X43872470Y-21648404D01*
X43884206Y-21670361D01*
X43900000Y-21689606D01*
X43970394Y-21760000D01*
X43989640Y-21775794D01*
X44011596Y-21787530D01*
X44228399Y-21877333D01*
X44252223Y-21884560D01*
X44277000Y-21887000D01*
X44898000Y-21887000D01*
X44898000Y-21983000D01*
X44377000Y-21983000D01*
X44352224Y-21985440D01*
X44328399Y-21992667D01*
X44111596Y-22082470D01*
X44089639Y-22094206D01*
X44070394Y-22110000D01*
X43542862Y-22637532D01*
X43372737Y-22708000D01*
X40527263Y-22708000D01*
X40367978Y-22642022D01*
X40302000Y-22482737D01*
X40302000Y-20788296D01*
X40309702Y-20769702D01*
X40328296Y-20762000D01*
X43661349Y-20762000D01*
X43740298Y-20794702D01*
%TO.N,GND*%
G36*
X30615298Y18305298D02*
G01*
X30623000Y18286704D01*
X30623000Y15371329D01*
X30577798Y15262202D01*
X30468671Y15217000D01*
X18302263Y15217000D01*
X18132138Y15287468D01*
X18097468Y15322138D01*
X18027000Y15492263D01*
X18027000Y17812737D01*
X18097468Y17982862D01*
X18182138Y18067532D01*
X18352263Y18138000D01*
X29126256Y18138000D01*
X29151032Y18140440D01*
X29174857Y18147667D01*
X29574007Y18313000D01*
X30596704Y18313000D01*
X30615298Y18305298D01*
G37*
X30615298Y18305298D02*
X30623000Y18286704D01*
X30623000Y15371329D01*
X30577798Y15262202D01*
X30468671Y15217000D01*
X18302263Y15217000D01*
X18132138Y15287468D01*
X18097468Y15322138D01*
X18027000Y15492263D01*
X18027000Y17812737D01*
X18097468Y17982862D01*
X18182138Y18067532D01*
X18352263Y18138000D01*
X29126256Y18138000D01*
X29151032Y18140440D01*
X29174857Y18147667D01*
X29574007Y18313000D01*
X30596704Y18313000D01*
X30615298Y18305298D01*
%TO.N,+3V3*%
G36*
X37598000Y27017263D02*
G01*
X37527532Y26847138D01*
X36871729Y26191335D01*
X36855482Y26188103D01*
X36709163Y26127495D01*
X36577480Y26039507D01*
X36465493Y25927520D01*
X36377505Y25795837D01*
X36316897Y25649518D01*
X36313665Y25633271D01*
X36225000Y25544606D01*
X36209206Y25525360D01*
X36197470Y25503404D01*
X36107667Y25286601D01*
X36100440Y25262777D01*
X36098000Y25238000D01*
X36098000Y23042263D01*
X36027532Y22872138D01*
X35869863Y22714469D01*
X35894000Y22835813D01*
X35894000Y22994187D01*
X35863103Y23149518D01*
X35802495Y23295837D01*
X35714507Y23427520D01*
X35602520Y23539507D01*
X35470837Y23627495D01*
X35324518Y23688103D01*
X35169187Y23719000D01*
X35010813Y23719000D01*
X34855482Y23688103D01*
X34709163Y23627495D01*
X34577480Y23539507D01*
X34465493Y23427520D01*
X34377505Y23295837D01*
X34316897Y23149518D01*
X34286000Y22994187D01*
X34286000Y22835813D01*
X34316897Y22680482D01*
X34377505Y22534163D01*
X34465493Y22402480D01*
X34577480Y22290493D01*
X34709163Y22202505D01*
X34855482Y22141897D01*
X35010813Y22111000D01*
X35169187Y22111000D01*
X35233078Y22123709D01*
X34836977Y21727607D01*
X34823474Y21716525D01*
X34779236Y21662622D01*
X34746365Y21601124D01*
X34741888Y21586365D01*
X34727674Y21539507D01*
X34726123Y21534395D01*
X34721000Y21482381D01*
X34721000Y21482374D01*
X34719289Y21465000D01*
X34721000Y21447625D01*
X34721001Y20061633D01*
X34211977Y19552607D01*
X34198474Y19541525D01*
X34154236Y19487622D01*
X34121365Y19426124D01*
X34101123Y19359395D01*
X34096000Y19307381D01*
X34096000Y19307374D01*
X34094289Y19290000D01*
X34096000Y19272626D01*
X34096000Y19165606D01*
X33750000Y18819606D01*
X33734206Y18800360D01*
X33722470Y18778404D01*
X33632667Y18561601D01*
X33625440Y18537777D01*
X33623000Y18513000D01*
X33623000Y13067263D01*
X33552532Y12897138D01*
X33017862Y12362468D01*
X32847737Y12292000D01*
X30252000Y12292000D01*
X30227224Y12289560D01*
X30203399Y12282333D01*
X29986596Y12192530D01*
X29964639Y12180794D01*
X29945394Y12165000D01*
X26142862Y8362468D01*
X25972737Y8292000D01*
X18802263Y8292000D01*
X18632138Y8362468D01*
X18147468Y8847138D01*
X18077000Y9017263D01*
X18077000Y13099564D01*
X18084632Y13117989D01*
X18104000Y13215360D01*
X18104000Y13314640D01*
X18084632Y13412011D01*
X18077000Y13430436D01*
X18077000Y13987737D01*
X18147468Y14157862D01*
X18232138Y14242532D01*
X18402263Y14313000D01*
X30773000Y14313000D01*
X30797776Y14315440D01*
X30821601Y14322667D01*
X31038404Y14412470D01*
X31060361Y14424206D01*
X31079606Y14440000D01*
X31250000Y14610394D01*
X31265794Y14629640D01*
X31277530Y14651596D01*
X31367333Y14868399D01*
X31374560Y14892223D01*
X31377000Y14917000D01*
X31377000Y18762737D01*
X31447468Y18932862D01*
X32100000Y19585394D01*
X32115794Y19604640D01*
X32127530Y19626596D01*
X32217333Y19843399D01*
X32224560Y19867223D01*
X32227000Y19892000D01*
X32227000Y20122500D01*
X32324518Y20141897D01*
X32470837Y20202505D01*
X32602520Y20290493D01*
X32714507Y20402480D01*
X32802495Y20534163D01*
X32863103Y20680482D01*
X32894000Y20835813D01*
X32894000Y20994187D01*
X32863103Y21149518D01*
X32802495Y21295837D01*
X32714507Y21427520D01*
X32602520Y21539507D01*
X32470837Y21627495D01*
X32324518Y21688103D01*
X32227000Y21707500D01*
X32227000Y22994187D01*
X32286000Y22994187D01*
X32286000Y22835813D01*
X32316897Y22680482D01*
X32377505Y22534163D01*
X32465493Y22402480D01*
X32577480Y22290493D01*
X32709163Y22202505D01*
X32855482Y22141897D01*
X33010813Y22111000D01*
X33169187Y22111000D01*
X33324518Y22141897D01*
X33470837Y22202505D01*
X33602520Y22290493D01*
X33714507Y22402480D01*
X33802495Y22534163D01*
X33863103Y22680482D01*
X33894000Y22835813D01*
X33894000Y22994187D01*
X33863103Y23149518D01*
X33802495Y23295837D01*
X33714507Y23427520D01*
X33602520Y23539507D01*
X33470837Y23627495D01*
X33324518Y23688103D01*
X33169187Y23719000D01*
X33010813Y23719000D01*
X32855482Y23688103D01*
X32709163Y23627495D01*
X32577480Y23539507D01*
X32465493Y23427520D01*
X32377505Y23295837D01*
X32316897Y23149518D01*
X32286000Y22994187D01*
X32227000Y22994187D01*
X32227000Y25494187D01*
X32286000Y25494187D01*
X32286000Y25335813D01*
X32316897Y25180482D01*
X32377505Y25034163D01*
X32465493Y24902480D01*
X32577480Y24790493D01*
X32709163Y24702505D01*
X32855482Y24641897D01*
X33010813Y24611000D01*
X33169187Y24611000D01*
X33324518Y24641897D01*
X33470837Y24702505D01*
X33602520Y24790493D01*
X33714507Y24902480D01*
X33802495Y25034163D01*
X33863103Y25180482D01*
X33894000Y25335813D01*
X33894000Y25494187D01*
X33863103Y25649518D01*
X33802495Y25795837D01*
X33714507Y25927520D01*
X33602520Y26039507D01*
X33470837Y26127495D01*
X33324518Y26188103D01*
X33169187Y26219000D01*
X33010813Y26219000D01*
X32855482Y26188103D01*
X32709163Y26127495D01*
X32577480Y26039507D01*
X32465493Y25927520D01*
X32377505Y25795837D01*
X32316897Y25649518D01*
X32286000Y25494187D01*
X32227000Y25494187D01*
X32227000Y26622500D01*
X32324518Y26641897D01*
X32470837Y26702505D01*
X32602520Y26790493D01*
X32714507Y26902480D01*
X32802495Y27034163D01*
X32863103Y27180482D01*
X32894000Y27335813D01*
X32894000Y27494187D01*
X33286000Y27494187D01*
X33286000Y27335813D01*
X33316897Y27180482D01*
X33377505Y27034163D01*
X33465493Y26902480D01*
X33577480Y26790493D01*
X33709163Y26702505D01*
X33855482Y26641897D01*
X34010813Y26611000D01*
X34169187Y26611000D01*
X34324518Y26641897D01*
X34470837Y26702505D01*
X34602520Y26790493D01*
X34714507Y26902480D01*
X34802495Y27034163D01*
X34863103Y27180482D01*
X34894000Y27335813D01*
X34894000Y27494187D01*
X34863103Y27649518D01*
X34802495Y27795837D01*
X34714507Y27927520D01*
X34602520Y28039507D01*
X34470837Y28127495D01*
X34324518Y28188103D01*
X34169187Y28219000D01*
X34010813Y28219000D01*
X33855482Y28188103D01*
X33709163Y28127495D01*
X33577480Y28039507D01*
X33465493Y27927520D01*
X33377505Y27795837D01*
X33316897Y27649518D01*
X33286000Y27494187D01*
X32894000Y27494187D01*
X32863103Y27649518D01*
X32802495Y27795837D01*
X32714507Y27927520D01*
X32602520Y28039507D01*
X32470837Y28127495D01*
X32324518Y28188103D01*
X32227000Y28207500D01*
X32227000Y28561000D01*
X37598000Y28561000D01*
X37598000Y27017263D01*
G37*
X37598000Y27017263D02*
X37527532Y26847138D01*
X36871729Y26191335D01*
X36855482Y26188103D01*
X36709163Y26127495D01*
X36577480Y26039507D01*
X36465493Y25927520D01*
X36377505Y25795837D01*
X36316897Y25649518D01*
X36313665Y25633271D01*
X36225000Y25544606D01*
X36209206Y25525360D01*
X36197470Y25503404D01*
X36107667Y25286601D01*
X36100440Y25262777D01*
X36098000Y25238000D01*
X36098000Y23042263D01*
X36027532Y22872138D01*
X35869863Y22714469D01*
X35894000Y22835813D01*
X35894000Y22994187D01*
X35863103Y23149518D01*
X35802495Y23295837D01*
X35714507Y23427520D01*
X35602520Y23539507D01*
X35470837Y23627495D01*
X35324518Y23688103D01*
X35169187Y23719000D01*
X35010813Y23719000D01*
X34855482Y23688103D01*
X34709163Y23627495D01*
X34577480Y23539507D01*
X34465493Y23427520D01*
X34377505Y23295837D01*
X34316897Y23149518D01*
X34286000Y22994187D01*
X34286000Y22835813D01*
X34316897Y22680482D01*
X34377505Y22534163D01*
X34465493Y22402480D01*
X34577480Y22290493D01*
X34709163Y22202505D01*
X34855482Y22141897D01*
X35010813Y22111000D01*
X35169187Y22111000D01*
X35233078Y22123709D01*
X34836977Y21727607D01*
X34823474Y21716525D01*
X34779236Y21662622D01*
X34746365Y21601124D01*
X34741888Y21586365D01*
X34727674Y21539507D01*
X34726123Y21534395D01*
X34721000Y21482381D01*
X34721000Y21482374D01*
X34719289Y21465000D01*
X34721000Y21447625D01*
X34721001Y20061633D01*
X34211977Y19552607D01*
X34198474Y19541525D01*
X34154236Y19487622D01*
X34121365Y19426124D01*
X34101123Y19359395D01*
X34096000Y19307381D01*
X34096000Y19307374D01*
X34094289Y19290000D01*
X34096000Y19272626D01*
X34096000Y19165606D01*
X33750000Y18819606D01*
X33734206Y18800360D01*
X33722470Y18778404D01*
X33632667Y18561601D01*
X33625440Y18537777D01*
X33623000Y18513000D01*
X33623000Y13067263D01*
X33552532Y12897138D01*
X33017862Y12362468D01*
X32847737Y12292000D01*
X30252000Y12292000D01*
X30227224Y12289560D01*
X30203399Y12282333D01*
X29986596Y12192530D01*
X29964639Y12180794D01*
X29945394Y12165000D01*
X26142862Y8362468D01*
X25972737Y8292000D01*
X18802263Y8292000D01*
X18632138Y8362468D01*
X18147468Y8847138D01*
X18077000Y9017263D01*
X18077000Y13099564D01*
X18084632Y13117989D01*
X18104000Y13215360D01*
X18104000Y13314640D01*
X18084632Y13412011D01*
X18077000Y13430436D01*
X18077000Y13987737D01*
X18147468Y14157862D01*
X18232138Y14242532D01*
X18402263Y14313000D01*
X30773000Y14313000D01*
X30797776Y14315440D01*
X30821601Y14322667D01*
X31038404Y14412470D01*
X31060361Y14424206D01*
X31079606Y14440000D01*
X31250000Y14610394D01*
X31265794Y14629640D01*
X31277530Y14651596D01*
X31367333Y14868399D01*
X31374560Y14892223D01*
X31377000Y14917000D01*
X31377000Y18762737D01*
X31447468Y18932862D01*
X32100000Y19585394D01*
X32115794Y19604640D01*
X32127530Y19626596D01*
X32217333Y19843399D01*
X32224560Y19867223D01*
X32227000Y19892000D01*
X32227000Y20122500D01*
X32324518Y20141897D01*
X32470837Y20202505D01*
X32602520Y20290493D01*
X32714507Y20402480D01*
X32802495Y20534163D01*
X32863103Y20680482D01*
X32894000Y20835813D01*
X32894000Y20994187D01*
X32863103Y21149518D01*
X32802495Y21295837D01*
X32714507Y21427520D01*
X32602520Y21539507D01*
X32470837Y21627495D01*
X32324518Y21688103D01*
X32227000Y21707500D01*
X32227000Y22994187D01*
X32286000Y22994187D01*
X32286000Y22835813D01*
X32316897Y22680482D01*
X32377505Y22534163D01*
X32465493Y22402480D01*
X32577480Y22290493D01*
X32709163Y22202505D01*
X32855482Y22141897D01*
X33010813Y22111000D01*
X33169187Y22111000D01*
X33324518Y22141897D01*
X33470837Y22202505D01*
X33602520Y22290493D01*
X33714507Y22402480D01*
X33802495Y22534163D01*
X33863103Y22680482D01*
X33894000Y22835813D01*
X33894000Y22994187D01*
X33863103Y23149518D01*
X33802495Y23295837D01*
X33714507Y23427520D01*
X33602520Y23539507D01*
X33470837Y23627495D01*
X33324518Y23688103D01*
X33169187Y23719000D01*
X33010813Y23719000D01*
X32855482Y23688103D01*
X32709163Y23627495D01*
X32577480Y23539507D01*
X32465493Y23427520D01*
X32377505Y23295837D01*
X32316897Y23149518D01*
X32286000Y22994187D01*
X32227000Y22994187D01*
X32227000Y25494187D01*
X32286000Y25494187D01*
X32286000Y25335813D01*
X32316897Y25180482D01*
X32377505Y25034163D01*
X32465493Y24902480D01*
X32577480Y24790493D01*
X32709163Y24702505D01*
X32855482Y24641897D01*
X33010813Y24611000D01*
X33169187Y24611000D01*
X33324518Y24641897D01*
X33470837Y24702505D01*
X33602520Y24790493D01*
X33714507Y24902480D01*
X33802495Y25034163D01*
X33863103Y25180482D01*
X33894000Y25335813D01*
X33894000Y25494187D01*
X33863103Y25649518D01*
X33802495Y25795837D01*
X33714507Y25927520D01*
X33602520Y26039507D01*
X33470837Y26127495D01*
X33324518Y26188103D01*
X33169187Y26219000D01*
X33010813Y26219000D01*
X32855482Y26188103D01*
X32709163Y26127495D01*
X32577480Y26039507D01*
X32465493Y25927520D01*
X32377505Y25795837D01*
X32316897Y25649518D01*
X32286000Y25494187D01*
X32227000Y25494187D01*
X32227000Y26622500D01*
X32324518Y26641897D01*
X32470837Y26702505D01*
X32602520Y26790493D01*
X32714507Y26902480D01*
X32802495Y27034163D01*
X32863103Y27180482D01*
X32894000Y27335813D01*
X32894000Y27494187D01*
X33286000Y27494187D01*
X33286000Y27335813D01*
X33316897Y27180482D01*
X33377505Y27034163D01*
X33465493Y26902480D01*
X33577480Y26790493D01*
X33709163Y26702505D01*
X33855482Y26641897D01*
X34010813Y26611000D01*
X34169187Y26611000D01*
X34324518Y26641897D01*
X34470837Y26702505D01*
X34602520Y26790493D01*
X34714507Y26902480D01*
X34802495Y27034163D01*
X34863103Y27180482D01*
X34894000Y27335813D01*
X34894000Y27494187D01*
X34863103Y27649518D01*
X34802495Y27795837D01*
X34714507Y27927520D01*
X34602520Y28039507D01*
X34470837Y28127495D01*
X34324518Y28188103D01*
X34169187Y28219000D01*
X34010813Y28219000D01*
X33855482Y28188103D01*
X33709163Y28127495D01*
X33577480Y28039507D01*
X33465493Y27927520D01*
X33377505Y27795837D01*
X33316897Y27649518D01*
X33286000Y27494187D01*
X32894000Y27494187D01*
X32863103Y27649518D01*
X32802495Y27795837D01*
X32714507Y27927520D01*
X32602520Y28039507D01*
X32470837Y28127495D01*
X32324518Y28188103D01*
X32227000Y28207500D01*
X32227000Y28561000D01*
X37598000Y28561000D01*
X37598000Y27017263D01*
%TO.N,+3.3Vaux*%
G36*
X36709163Y22202505D02*
G01*
X36855482Y22141897D01*
X37010813Y22111000D01*
X37169187Y22111000D01*
X37296000Y22136225D01*
X37296001Y21607384D01*
X37294289Y21590000D01*
X37301123Y21520604D01*
X37317991Y21465000D01*
X37321366Y21453875D01*
X37354237Y21392377D01*
X37398475Y21338474D01*
X37411977Y21327393D01*
X37746000Y20993369D01*
X37746000Y19991724D01*
X37727532Y19947138D01*
X37642862Y19862468D01*
X37472737Y19792000D01*
X36902000Y19792000D01*
X36877224Y19789560D01*
X36853399Y19782333D01*
X36636596Y19692530D01*
X36614639Y19680794D01*
X36595394Y19665000D01*
X36500000Y19569606D01*
X36484206Y19550360D01*
X36472470Y19528404D01*
X36382667Y19311601D01*
X36375440Y19287777D01*
X36373000Y19263000D01*
X36373000Y14489007D01*
X36315298Y14349702D01*
X36175993Y14292000D01*
X35052263Y14292000D01*
X34882138Y14362468D01*
X34804000Y14440606D01*
X34804000Y18689394D01*
X35375000Y19260394D01*
X35390794Y19279640D01*
X35402530Y19301596D01*
X35492333Y19518399D01*
X35499560Y19542223D01*
X35502000Y19567000D01*
X35502000Y21387737D01*
X35504569Y21393938D01*
X35671631Y21561000D01*
X35757626Y21561000D01*
X35775000Y21559289D01*
X35792374Y21561000D01*
X35792382Y21561000D01*
X35844396Y21566123D01*
X35911125Y21586365D01*
X35972623Y21619236D01*
X36026526Y21663474D01*
X36037612Y21676982D01*
X36598631Y22238000D01*
X36656041Y22238000D01*
X36709163Y22202505D01*
G37*
X36709163Y22202505D02*
X36855482Y22141897D01*
X37010813Y22111000D01*
X37169187Y22111000D01*
X37296000Y22136225D01*
X37296001Y21607384D01*
X37294289Y21590000D01*
X37301123Y21520604D01*
X37317991Y21465000D01*
X37321366Y21453875D01*
X37354237Y21392377D01*
X37398475Y21338474D01*
X37411977Y21327393D01*
X37746000Y20993369D01*
X37746000Y19991724D01*
X37727532Y19947138D01*
X37642862Y19862468D01*
X37472737Y19792000D01*
X36902000Y19792000D01*
X36877224Y19789560D01*
X36853399Y19782333D01*
X36636596Y19692530D01*
X36614639Y19680794D01*
X36595394Y19665000D01*
X36500000Y19569606D01*
X36484206Y19550360D01*
X36472470Y19528404D01*
X36382667Y19311601D01*
X36375440Y19287777D01*
X36373000Y19263000D01*
X36373000Y14489007D01*
X36315298Y14349702D01*
X36175993Y14292000D01*
X35052263Y14292000D01*
X34882138Y14362468D01*
X34804000Y14440606D01*
X34804000Y18689394D01*
X35375000Y19260394D01*
X35390794Y19279640D01*
X35402530Y19301596D01*
X35492333Y19518399D01*
X35499560Y19542223D01*
X35502000Y19567000D01*
X35502000Y21387737D01*
X35504569Y21393938D01*
X35671631Y21561000D01*
X35757626Y21561000D01*
X35775000Y21559289D01*
X35792374Y21561000D01*
X35792382Y21561000D01*
X35844396Y21566123D01*
X35911125Y21586365D01*
X35972623Y21619236D01*
X36026526Y21663474D01*
X36037612Y21676982D01*
X36598631Y22238000D01*
X36656041Y22238000D01*
X36709163Y22202505D01*
%TO.N,+3V3*%
G36*
X24092862Y-34432468D02*
G01*
X24102532Y-34442138D01*
X24173000Y-34612263D01*
X24173000Y-43357737D01*
X24167050Y-43372101D01*
X24124482Y-43359188D01*
X24000000Y-43346928D01*
X23885750Y-43350000D01*
X23727000Y-43508750D01*
X23727000Y-45958000D01*
X23747000Y-45958000D01*
X23747000Y-46212000D01*
X23727000Y-46212000D01*
X23727000Y-46232000D01*
X23473000Y-46232000D01*
X23473000Y-46212000D01*
X23453000Y-46212000D01*
X23453000Y-45958000D01*
X23473000Y-45958000D01*
X23473000Y-43508750D01*
X23314250Y-43350000D01*
X23302000Y-43349671D01*
X23302000Y-43112000D01*
X23299560Y-43087224D01*
X23292333Y-43063399D01*
X23202530Y-42846596D01*
X23190794Y-42824639D01*
X23175000Y-42805394D01*
X22547468Y-42177862D01*
X22477000Y-42007737D01*
X22477000Y-34587263D01*
X22542978Y-34427978D01*
X22702263Y-34362000D01*
X23922737Y-34362000D01*
X24092862Y-34432468D01*
G37*
X24092862Y-34432468D02*
X24102532Y-34442138D01*
X24173000Y-34612263D01*
X24173000Y-43357737D01*
X24167050Y-43372101D01*
X24124482Y-43359188D01*
X24000000Y-43346928D01*
X23885750Y-43350000D01*
X23727000Y-43508750D01*
X23727000Y-45958000D01*
X23747000Y-45958000D01*
X23747000Y-46212000D01*
X23727000Y-46212000D01*
X23727000Y-46232000D01*
X23473000Y-46232000D01*
X23473000Y-46212000D01*
X23453000Y-46212000D01*
X23453000Y-45958000D01*
X23473000Y-45958000D01*
X23473000Y-43508750D01*
X23314250Y-43350000D01*
X23302000Y-43349671D01*
X23302000Y-43112000D01*
X23299560Y-43087224D01*
X23292333Y-43063399D01*
X23202530Y-42846596D01*
X23190794Y-42824639D01*
X23175000Y-42805394D01*
X22547468Y-42177862D01*
X22477000Y-42007737D01*
X22477000Y-34587263D01*
X22542978Y-34427978D01*
X22702263Y-34362000D01*
X23922737Y-34362000D01*
X24092862Y-34432468D01*
%TO.N,GND*%
G36*
X22898000Y26617263D02*
G01*
X22832022Y26457978D01*
X22672737Y26392000D01*
X22003296Y26392000D01*
X21845568Y26457333D01*
X21821743Y26464560D01*
X21796967Y26467000D01*
X17052263Y26467000D01*
X16882138Y26537468D01*
X16847468Y26572138D01*
X16777000Y26742263D01*
X16777000Y28434000D01*
X22898000Y28434000D01*
X22898000Y26617263D01*
G37*
X22898000Y26617263D02*
X22832022Y26457978D01*
X22672737Y26392000D01*
X22003296Y26392000D01*
X21845568Y26457333D01*
X21821743Y26464560D01*
X21796967Y26467000D01*
X17052263Y26467000D01*
X16882138Y26537468D01*
X16847468Y26572138D01*
X16777000Y26742263D01*
X16777000Y28434000D01*
X22898000Y28434000D01*
X22898000Y26617263D01*
%TO.N,+3.3VP*%
G36*
X53815559Y-22355165D02*
G01*
X53904835Y-22444441D01*
X53973000Y-22609007D01*
X53973000Y-23839026D01*
X53952798Y-23887798D01*
X53904026Y-23908000D01*
X52152000Y-23908000D01*
X52152000Y-23562000D01*
X52149560Y-23537224D01*
X52142333Y-23513399D01*
X52052530Y-23296596D01*
X52040794Y-23274639D01*
X52025000Y-23255394D01*
X51504606Y-22735000D01*
X51485360Y-22719206D01*
X51463404Y-22707470D01*
X51308350Y-22643244D01*
X51286125Y-22631365D01*
X51262012Y-22624050D01*
X51246601Y-22617667D01*
X51222777Y-22610440D01*
X51198000Y-22608000D01*
X51187688Y-22608000D01*
X51167382Y-22606000D01*
X51167374Y-22606000D01*
X51150000Y-22604289D01*
X51132626Y-22606000D01*
X50175606Y-22606000D01*
X50139803Y-22570197D01*
X50120557Y-22554403D01*
X50098601Y-22542667D01*
X49977890Y-22492667D01*
X49954065Y-22485440D01*
X49929289Y-22483000D01*
X49252000Y-22483000D01*
X49252000Y-22412000D01*
X49771967Y-22412000D01*
X49796743Y-22409560D01*
X49820568Y-22402333D01*
X49978296Y-22337000D01*
X53771704Y-22337000D01*
X53815559Y-22355165D01*
G37*
X53815559Y-22355165D02*
X53904835Y-22444441D01*
X53973000Y-22609007D01*
X53973000Y-23839026D01*
X53952798Y-23887798D01*
X53904026Y-23908000D01*
X52152000Y-23908000D01*
X52152000Y-23562000D01*
X52149560Y-23537224D01*
X52142333Y-23513399D01*
X52052530Y-23296596D01*
X52040794Y-23274639D01*
X52025000Y-23255394D01*
X51504606Y-22735000D01*
X51485360Y-22719206D01*
X51463404Y-22707470D01*
X51308350Y-22643244D01*
X51286125Y-22631365D01*
X51262012Y-22624050D01*
X51246601Y-22617667D01*
X51222777Y-22610440D01*
X51198000Y-22608000D01*
X51187688Y-22608000D01*
X51167382Y-22606000D01*
X51167374Y-22606000D01*
X51150000Y-22604289D01*
X51132626Y-22606000D01*
X50175606Y-22606000D01*
X50139803Y-22570197D01*
X50120557Y-22554403D01*
X50098601Y-22542667D01*
X49977890Y-22492667D01*
X49954065Y-22485440D01*
X49929289Y-22483000D01*
X49252000Y-22483000D01*
X49252000Y-22412000D01*
X49771967Y-22412000D01*
X49796743Y-22409560D01*
X49820568Y-22402333D01*
X49978296Y-22337000D01*
X53771704Y-22337000D01*
X53815559Y-22355165D01*
%TO.N,GND*%
G36*
X48304432Y-28277333D02*
G01*
X48328257Y-28284560D01*
X48353033Y-28287000D01*
X50397737Y-28287000D01*
X50557022Y-28352978D01*
X50623000Y-28512263D01*
X50623000Y-30082737D01*
X50552532Y-30252862D01*
X50542862Y-30262532D01*
X50372737Y-30333000D01*
X44577263Y-30333000D01*
X44417978Y-30267022D01*
X44352000Y-30107737D01*
X44352000Y-28837263D01*
X44417978Y-28677978D01*
X44577263Y-28612000D01*
X45448000Y-28612000D01*
X45472776Y-28609560D01*
X45496601Y-28602333D01*
X45713404Y-28512530D01*
X45735361Y-28500794D01*
X45754606Y-28485000D01*
X45957138Y-28282468D01*
X46127263Y-28212000D01*
X48146704Y-28212000D01*
X48304432Y-28277333D01*
G37*
X48304432Y-28277333D02*
X48328257Y-28284560D01*
X48353033Y-28287000D01*
X50397737Y-28287000D01*
X50557022Y-28352978D01*
X50623000Y-28512263D01*
X50623000Y-30082737D01*
X50552532Y-30252862D01*
X50542862Y-30262532D01*
X50372737Y-30333000D01*
X44577263Y-30333000D01*
X44417978Y-30267022D01*
X44352000Y-30107737D01*
X44352000Y-28837263D01*
X44417978Y-28677978D01*
X44577263Y-28612000D01*
X45448000Y-28612000D01*
X45472776Y-28609560D01*
X45496601Y-28602333D01*
X45713404Y-28512530D01*
X45735361Y-28500794D01*
X45754606Y-28485000D01*
X45957138Y-28282468D01*
X46127263Y-28212000D01*
X48146704Y-28212000D01*
X48304432Y-28277333D01*
%TO.N,+12V*%
G36*
X50817862Y-407468D02*
G01*
X51377532Y-967138D01*
X51448000Y-1137263D01*
X51448000Y-2408000D01*
X51077000Y-2408000D01*
X51077000Y-2237000D01*
X51074560Y-2212224D01*
X51067333Y-2188399D01*
X50977530Y-1971596D01*
X50965794Y-1949639D01*
X50950000Y-1930394D01*
X50850392Y-1830786D01*
X50849858Y-1829987D01*
X50710013Y-1690142D01*
X50709214Y-1689608D01*
X50629606Y-1610000D01*
X50610360Y-1594206D01*
X50588404Y-1582470D01*
X50371601Y-1492667D01*
X50347777Y-1485440D01*
X50323000Y-1483000D01*
X50254350Y-1483000D01*
X50168885Y-1466000D01*
X49971115Y-1466000D01*
X49885650Y-1483000D01*
X49727000Y-1483000D01*
X49702224Y-1485440D01*
X49678399Y-1492667D01*
X49461596Y-1582470D01*
X49439639Y-1594206D01*
X49420394Y-1610000D01*
X48967862Y-2062532D01*
X48797737Y-2133000D01*
X44927000Y-2133000D01*
X44902224Y-2135440D01*
X44878399Y-2142667D01*
X44661596Y-2232470D01*
X44639639Y-2244206D01*
X44620394Y-2260000D01*
X43750000Y-3130394D01*
X43734206Y-3149640D01*
X43722277Y-3172066D01*
X43633490Y-3388865D01*
X43626358Y-3412718D01*
X43624020Y-3438012D01*
X43646784Y-6283495D01*
X43577346Y-6453048D01*
X43442862Y-6587532D01*
X43272737Y-6658000D01*
X38926714Y-6658000D01*
X38754244Y-6588238D01*
X37429919Y-5307333D01*
X37249672Y-5130066D01*
X36922468Y-4802862D01*
X36852000Y-4632737D01*
X36852000Y-3187000D01*
X36947737Y-3187000D01*
X37117862Y-3257468D01*
X37384006Y-3523612D01*
X37286074Y-3621543D01*
X37195350Y-3757321D01*
X37132858Y-3908190D01*
X37101000Y-4068351D01*
X37101000Y-4231649D01*
X37132858Y-4391810D01*
X37195350Y-4542679D01*
X37286074Y-4678457D01*
X37401543Y-4793926D01*
X37537321Y-4884650D01*
X37688190Y-4947142D01*
X37848351Y-4979000D01*
X38011649Y-4979000D01*
X38171810Y-4947142D01*
X38322679Y-4884650D01*
X38458457Y-4793926D01*
X38573926Y-4678457D01*
X38664650Y-4542679D01*
X38727142Y-4391810D01*
X38759000Y-4231649D01*
X38759000Y-4068351D01*
X38727142Y-3908190D01*
X38664650Y-3757321D01*
X38617663Y-3687000D01*
X39023000Y-3687000D01*
X39047776Y-3684560D01*
X39071601Y-3677333D01*
X39288404Y-3587530D01*
X39310361Y-3575794D01*
X39329606Y-3560000D01*
X40825000Y-2064606D01*
X40840794Y-2045360D01*
X40852530Y-2023404D01*
X40942333Y-1806601D01*
X40949560Y-1782777D01*
X40952000Y-1758000D01*
X40952000Y-737263D01*
X41022468Y-567138D01*
X41182138Y-407468D01*
X41352263Y-337000D01*
X50647737Y-337000D01*
X50817862Y-407468D01*
G37*
X50817862Y-407468D02*
X51377532Y-967138D01*
X51448000Y-1137263D01*
X51448000Y-2408000D01*
X51077000Y-2408000D01*
X51077000Y-2237000D01*
X51074560Y-2212224D01*
X51067333Y-2188399D01*
X50977530Y-1971596D01*
X50965794Y-1949639D01*
X50950000Y-1930394D01*
X50850392Y-1830786D01*
X50849858Y-1829987D01*
X50710013Y-1690142D01*
X50709214Y-1689608D01*
X50629606Y-1610000D01*
X50610360Y-1594206D01*
X50588404Y-1582470D01*
X50371601Y-1492667D01*
X50347777Y-1485440D01*
X50323000Y-1483000D01*
X50254350Y-1483000D01*
X50168885Y-1466000D01*
X49971115Y-1466000D01*
X49885650Y-1483000D01*
X49727000Y-1483000D01*
X49702224Y-1485440D01*
X49678399Y-1492667D01*
X49461596Y-1582470D01*
X49439639Y-1594206D01*
X49420394Y-1610000D01*
X48967862Y-2062532D01*
X48797737Y-2133000D01*
X44927000Y-2133000D01*
X44902224Y-2135440D01*
X44878399Y-2142667D01*
X44661596Y-2232470D01*
X44639639Y-2244206D01*
X44620394Y-2260000D01*
X43750000Y-3130394D01*
X43734206Y-3149640D01*
X43722277Y-3172066D01*
X43633490Y-3388865D01*
X43626358Y-3412718D01*
X43624020Y-3438012D01*
X43646784Y-6283495D01*
X43577346Y-6453048D01*
X43442862Y-6587532D01*
X43272737Y-6658000D01*
X38926714Y-6658000D01*
X38754244Y-6588238D01*
X37429919Y-5307333D01*
X37249672Y-5130066D01*
X36922468Y-4802862D01*
X36852000Y-4632737D01*
X36852000Y-3187000D01*
X36947737Y-3187000D01*
X37117862Y-3257468D01*
X37384006Y-3523612D01*
X37286074Y-3621543D01*
X37195350Y-3757321D01*
X37132858Y-3908190D01*
X37101000Y-4068351D01*
X37101000Y-4231649D01*
X37132858Y-4391810D01*
X37195350Y-4542679D01*
X37286074Y-4678457D01*
X37401543Y-4793926D01*
X37537321Y-4884650D01*
X37688190Y-4947142D01*
X37848351Y-4979000D01*
X38011649Y-4979000D01*
X38171810Y-4947142D01*
X38322679Y-4884650D01*
X38458457Y-4793926D01*
X38573926Y-4678457D01*
X38664650Y-4542679D01*
X38727142Y-4391810D01*
X38759000Y-4231649D01*
X38759000Y-4068351D01*
X38727142Y-3908190D01*
X38664650Y-3757321D01*
X38617663Y-3687000D01*
X39023000Y-3687000D01*
X39047776Y-3684560D01*
X39071601Y-3677333D01*
X39288404Y-3587530D01*
X39310361Y-3575794D01*
X39329606Y-3560000D01*
X40825000Y-2064606D01*
X40840794Y-2045360D01*
X40852530Y-2023404D01*
X40942333Y-1806601D01*
X40949560Y-1782777D01*
X40952000Y-1758000D01*
X40952000Y-737263D01*
X41022468Y-567138D01*
X41182138Y-407468D01*
X41352263Y-337000D01*
X50647737Y-337000D01*
X50817862Y-407468D01*
%TD*%
M02*
