%TF.GenerationSoftware,KiCad,Pcbnew,(5.1.5)-3*%
%TF.CreationDate,2022-01-08T01:18:32+01:00*%
%TF.ProjectId,Riser Leopard 2OU PCIe x16 2xOculink,52697365-7220-44c6-956f-706172642032,rev?*%
%TF.SameCoordinates,PX459e440PY54cbc38*%
%TF.FileFunction,Copper,L6,Bot*%
%TF.FilePolarity,Positive*%
%FSLAX46Y46*%
G04 Gerber Fmt 4.6, Leading zero omitted, Abs format (unit mm)*
G04 Created by KiCad (PCBNEW (5.1.5)-3) date 2022-01-08 01:18:32*
%MOMM*%
%LPD*%
G04 APERTURE LIST*
%TA.AperFunction,ComponentPad*%
%ADD10C,0.800000*%
%TD*%
%TA.AperFunction,ComponentPad*%
%ADD11C,6.400000*%
%TD*%
%TA.AperFunction,SMDPad,CuDef*%
%ADD12R,0.800000X4.200000*%
%TD*%
%TA.AperFunction,WasherPad*%
%ADD13C,2.600000*%
%TD*%
%TA.AperFunction,ComponentPad*%
%ADD14R,1.100000X1.100000*%
%TD*%
%TA.AperFunction,ComponentPad*%
%ADD15C,1.100000*%
%TD*%
%TA.AperFunction,ComponentPad*%
%ADD16C,1.500000*%
%TD*%
%TA.AperFunction,WasherPad*%
%ADD17C,1.150000*%
%TD*%
%TA.AperFunction,ViaPad*%
%ADD18C,0.400000*%
%TD*%
%TA.AperFunction,ViaPad*%
%ADD19C,0.500000*%
%TD*%
%TA.AperFunction,ViaPad*%
%ADD20C,0.600000*%
%TD*%
%TA.AperFunction,ViaPad*%
%ADD21C,0.350000*%
%TD*%
%TA.AperFunction,Conductor*%
%ADD22C,0.400000*%
%TD*%
%TA.AperFunction,Conductor*%
%ADD23C,0.200000*%
%TD*%
%TA.AperFunction,Conductor*%
%ADD24C,0.152400*%
%TD*%
%TA.AperFunction,Conductor*%
%ADD25C,0.254000*%
%TD*%
G04 APERTURE END LIST*
D10*
%TO.P,H1,1*%
%TO.N,GND*%
X1697056Y1697056D03*
X0Y2400000D03*
X-1697056Y1697056D03*
X-2400000Y0D03*
X-1697056Y-1697056D03*
X0Y-2400000D03*
X1697056Y-1697056D03*
X2400000Y0D03*
D11*
X0Y0D03*
%TD*%
%TO.P,H2,1*%
%TO.N,GND*%
X133900000Y0D03*
D10*
X136300000Y0D03*
X135597056Y-1697056D03*
X133900000Y-2400000D03*
X132202944Y-1697056D03*
X131500000Y0D03*
X132202944Y1697056D03*
X133900000Y2400000D03*
X135597056Y1697056D03*
%TD*%
D12*
%TO.P,J1,A12*%
%TO.N,GND*%
X29700000Y-46085000D03*
%TO.P,J1,A1*%
%TO.N,/PCIE_SLOT_PRSNT#1*%
X16600000Y-46085000D03*
%TO.P,J1,A2*%
%TO.N,+12V*%
X17600000Y-46085000D03*
%TO.P,J1,A3*%
X18600000Y-46085000D03*
%TO.P,J1,A4*%
%TO.N,GND*%
X19600000Y-46085000D03*
%TO.P,J1,A5*%
%TO.N,/CLK100_SLOT0+*%
X20600000Y-46085000D03*
%TO.P,J1,A6*%
%TO.N,/CLK100_SLOT0-*%
X21600000Y-46085000D03*
%TO.P,J1,A7*%
%TO.N,GND*%
X22600000Y-46085000D03*
%TO.P,J1,A8*%
%TO.N,/LAN_SMB_DAT*%
X23600000Y-46085000D03*
%TO.P,J1,A9*%
%TO.N,+3V3*%
X24600000Y-46085000D03*
%TO.P,J1,A10*%
X25600000Y-46085000D03*
%TO.P,J1,A11*%
%TO.N,/RST_PERST0_N*%
X26600000Y-46085000D03*
%TO.P,J1,A13*%
%TO.N,Net-(J1-PadA13)*%
X30700000Y-46085000D03*
%TO.P,J1,A14*%
%TO.N,Net-(J1-PadA14)*%
X31700000Y-46085000D03*
%TO.P,J1,A15*%
%TO.N,GND*%
X32700000Y-46085000D03*
%TO.P,J1,A16*%
%TO.N,/Oculink_0_x4_RX0+*%
X33700000Y-46085000D03*
%TO.P,J1,A17*%
%TO.N,/Oculink_0_x4_RX0-*%
X34700000Y-46085000D03*
%TO.P,J1,A18*%
%TO.N,GND*%
X35700000Y-46085000D03*
%TO.P,J1,A19*%
%TO.N,Net-(J1-PadA19)*%
X36700000Y-46085000D03*
%TO.P,J1,A20*%
%TO.N,GND*%
X37700000Y-46085000D03*
%TO.P,J1,A21*%
%TO.N,/Oculink_0_x4_RX1+*%
X38700000Y-46085000D03*
%TO.P,J1,A22*%
%TO.N,/Oculink_0_x4_RX1-*%
X39700000Y-46085000D03*
%TO.P,J1,A23*%
%TO.N,GND*%
X40700000Y-46085000D03*
%TO.P,J1,A24*%
X41700000Y-46085000D03*
%TO.P,J1,A25*%
%TO.N,/Oculink_0_x4_RX2+*%
X42700000Y-46085000D03*
%TO.P,J1,A26*%
%TO.N,/Oculink_0_x4_RX2-*%
X43700000Y-46085000D03*
%TO.P,J1,A27*%
%TO.N,GND*%
X44700000Y-46085000D03*
%TO.P,J1,A28*%
X45700000Y-46085000D03*
%TO.P,J1,A29*%
%TO.N,/Oculink_0_x4_RX3+*%
X46700000Y-46085000D03*
%TO.P,J1,A30*%
%TO.N,/Oculink_0_x4_RX3-*%
X47700000Y-46085000D03*
%TO.P,J1,A31*%
%TO.N,GND*%
X48700000Y-46085000D03*
%TO.P,J1,A32*%
%TO.N,/CLK100_SLOT1+*%
X49700000Y-46085000D03*
%TO.P,J1,A33*%
%TO.N,/CLK100_SLOT1-*%
X50700000Y-46085000D03*
%TO.P,J1,A34*%
%TO.N,GND*%
X51700000Y-46085000D03*
%TO.P,J1,A35*%
%TO.N,/Oculink_1_x4_RX0+*%
X52700000Y-46085000D03*
%TO.P,J1,A36*%
%TO.N,/Oculink_1_x4_RX0-*%
X53700000Y-46085000D03*
%TO.P,J1,A37*%
%TO.N,GND*%
X54700000Y-46085000D03*
%TO.P,J1,A38*%
X55700000Y-46085000D03*
%TO.P,J1,A39*%
%TO.N,/Oculink_1_x4_RX1+*%
X56700000Y-46085000D03*
%TO.P,J1,A40*%
%TO.N,/Oculink_1_x4_RX1-*%
X57700000Y-46085000D03*
%TO.P,J1,A41*%
%TO.N,GND*%
X58700000Y-46085000D03*
%TO.P,J1,A42*%
X59700000Y-46085000D03*
%TO.P,J1,A43*%
%TO.N,/Oculink_1_x4_RX2+*%
X60700000Y-46085000D03*
%TO.P,J1,A44*%
%TO.N,/Oculink_1_x4_RX2-*%
X61700000Y-46085000D03*
%TO.P,J1,A45*%
%TO.N,GND*%
X62700000Y-46085000D03*
%TO.P,J1,A46*%
X63700000Y-46085000D03*
%TO.P,J1,A47*%
%TO.N,/Oculink_1_x4_RX3+*%
X64700000Y-46085000D03*
%TO.P,J1,A48*%
%TO.N,/Oculink_1_x4_RX3-*%
X65700000Y-46085000D03*
%TO.P,J1,A49*%
%TO.N,GND*%
X66700000Y-46085000D03*
%TO.P,J1,A50*%
%TO.N,/SLOT0_CONFIG*%
X67700000Y-46085000D03*
%TO.P,J1,A51*%
%TO.N,GND*%
X68700000Y-46085000D03*
%TO.P,J1,A52*%
%TO.N,/CPU0_RX0+*%
X69700000Y-46085000D03*
%TO.P,J1,A53*%
%TO.N,/CPU0_RX0-*%
X70700000Y-46085000D03*
%TO.P,J1,A54*%
%TO.N,GND*%
X71700000Y-46085000D03*
%TO.P,J1,A55*%
X72700000Y-46085000D03*
%TO.P,J1,A56*%
%TO.N,/CPU0_RX1+*%
X73700000Y-46085000D03*
%TO.P,J1,A57*%
%TO.N,/CPU0_RX1-*%
X74700000Y-46085000D03*
%TO.P,J1,A58*%
%TO.N,GND*%
X75700000Y-46085000D03*
%TO.P,J1,A59*%
X76700000Y-46085000D03*
%TO.P,J1,A60*%
%TO.N,/CPU0_RX2+*%
X77700000Y-46085000D03*
%TO.P,J1,A61*%
%TO.N,/CPU0_RX2-*%
X78700000Y-46085000D03*
%TO.P,J1,A62*%
%TO.N,GND*%
X79700000Y-46085000D03*
%TO.P,J1,A63*%
X80700000Y-46085000D03*
%TO.P,J1,A64*%
%TO.N,/CPU0_RX3+*%
X81700000Y-46085000D03*
%TO.P,J1,A65*%
%TO.N,/CPU0_RX3-*%
X82700000Y-46085000D03*
%TO.P,J1,A66*%
%TO.N,GND*%
X83700000Y-46085000D03*
%TO.P,J1,A67*%
X84700000Y-46085000D03*
%TO.P,J1,A68*%
%TO.N,/CPU0_RX4+*%
X85700000Y-46085000D03*
%TO.P,J1,A69*%
%TO.N,/CPU0_RX4-*%
X86700000Y-46085000D03*
%TO.P,J1,A70*%
%TO.N,GND*%
X87700000Y-46085000D03*
%TO.P,J1,A71*%
X88700000Y-46085000D03*
%TO.P,J1,A72*%
%TO.N,/CPU0_RX5+*%
X89700000Y-46085000D03*
%TO.P,J1,A73*%
%TO.N,/CPU0_RX5-*%
X90700000Y-46085000D03*
%TO.P,J1,A74*%
%TO.N,GND*%
X91700000Y-46085000D03*
%TO.P,J1,A75*%
X92700000Y-46085000D03*
%TO.P,J1,A76*%
%TO.N,/CPU0_RX6+*%
X93700000Y-46085000D03*
%TO.P,J1,A77*%
%TO.N,/CPU0_RX6-*%
X94700000Y-46085000D03*
%TO.P,J1,A78*%
%TO.N,GND*%
X95700000Y-46085000D03*
%TO.P,J1,A79*%
X96700000Y-46085000D03*
%TO.P,J1,A80*%
%TO.N,/CPU0_RX7+*%
X97700000Y-46085000D03*
%TO.P,J1,A81*%
%TO.N,/CPU0_RX7-*%
X98700000Y-46085000D03*
%TO.P,J1,A82*%
%TO.N,GND*%
X99700000Y-46085000D03*
%TO.P,J1,A83*%
%TO.N,/SLOT1_CONFIG*%
X100700000Y-46085000D03*
%TO.P,J1,A84*%
%TO.N,GND*%
X101700000Y-46085000D03*
%TO.P,J1,A85*%
%TO.N,/CPU0_RX8+*%
X102700000Y-46085000D03*
%TO.P,J1,A86*%
%TO.N,/CPU0_RX8-*%
X103700000Y-46085000D03*
%TO.P,J1,A87*%
%TO.N,GND*%
X104700000Y-46085000D03*
%TO.P,J1,A88*%
X105700000Y-46085000D03*
%TO.P,J1,A89*%
%TO.N,/CPU0_RX9+*%
X106700000Y-46085000D03*
%TO.P,J1,A90*%
%TO.N,/CPU0_RX9-*%
X107700000Y-46085000D03*
%TO.P,J1,A91*%
%TO.N,GND*%
X108700000Y-46085000D03*
%TO.P,J1,A92*%
X109700000Y-46085000D03*
%TO.P,J1,A93*%
%TO.N,/CPU0_RX10+*%
X110700000Y-46085000D03*
%TO.P,J1,A94*%
%TO.N,/CPU0_RX10-*%
X111700000Y-46085000D03*
%TO.P,J1,A95*%
%TO.N,GND*%
X112700000Y-46085000D03*
%TO.P,J1,A96*%
X113700000Y-46085000D03*
%TO.P,J1,A97*%
%TO.N,/CPU0_RX11+*%
X114700000Y-46085000D03*
%TO.P,J1,A98*%
%TO.N,/CPU0_RX11-*%
X115700000Y-46085000D03*
%TO.P,J1,A99*%
%TO.N,GND*%
X116700000Y-46085000D03*
%TO.P,J1,A100*%
X117700000Y-46085000D03*
%TO.P,J1,A101*%
%TO.N,/CPU0_RX12+*%
X118700000Y-46085000D03*
%TO.P,J1,A102*%
%TO.N,/CPU0_RX12-*%
X119700000Y-46085000D03*
%TO.P,J1,A103*%
%TO.N,GND*%
X120700000Y-46085000D03*
%TO.P,J1,A104*%
X121700000Y-46085000D03*
%TO.P,J1,A105*%
%TO.N,/CPU0_RX13+*%
X122700000Y-46085000D03*
%TO.P,J1,A106*%
%TO.N,/CPU0_RX13-*%
X123700000Y-46085000D03*
%TO.P,J1,A107*%
%TO.N,GND*%
X124700000Y-46085000D03*
%TO.P,J1,A108*%
X125700000Y-46085000D03*
%TO.P,J1,A109*%
%TO.N,/CPU0_RX14+*%
X126700000Y-46085000D03*
%TO.P,J1,A110*%
%TO.N,/CPU0_RX14-*%
X127700000Y-46085000D03*
%TO.P,J1,A111*%
%TO.N,GND*%
X128700000Y-46085000D03*
%TO.P,J1,A112*%
X129700000Y-46085000D03*
%TO.P,J1,A113*%
%TO.N,/CPU0_RX15+*%
X130700000Y-46085000D03*
%TO.P,J1,A114*%
%TO.N,/CPU0_RX15-*%
X131700000Y-46085000D03*
%TO.P,J1,A115*%
%TO.N,GND*%
X132700000Y-46085000D03*
%TD*%
D13*
%TO.P,J2,*%
%TO.N,*%
X38740000Y24165000D03*
X111890000Y24165000D03*
D14*
%TO.P,J2,A1*%
%TO.N,/PCIE_SLOT_PRSNT#1*%
X27090000Y25415000D03*
D15*
%TO.P,J2,A2*%
%TO.N,+12V*%
X28090000Y27415000D03*
%TO.P,J2,A3*%
X29090000Y25415000D03*
%TO.P,J2,A4*%
%TO.N,GND*%
X30090000Y27415000D03*
%TO.P,J2,A5*%
%TO.N,Net-(J2-PadA5)*%
X31090000Y25415000D03*
%TO.P,J2,A6*%
%TO.N,Net-(J2-PadA6)*%
X32090000Y27415000D03*
%TO.P,J2,A7*%
%TO.N,Net-(J2-PadA7)*%
X33090000Y25415000D03*
%TO.P,J2,A8*%
%TO.N,Net-(J2-PadA8)*%
X34090000Y27415000D03*
%TO.P,J2,A9*%
%TO.N,+3V3*%
X35090000Y25415000D03*
%TO.P,J2,A10*%
X36090000Y27415000D03*
%TO.P,J2,A11*%
%TO.N,/RST_PERST0_N*%
X37090000Y25415000D03*
%TO.P,J2,A12*%
%TO.N,GND*%
X40090000Y27415000D03*
%TO.P,J2,A13*%
%TO.N,/CLK100_SLOT0+*%
X41090000Y25415000D03*
%TO.P,J2,A14*%
%TO.N,/CLK100_SLOT0-*%
X42090000Y27415000D03*
%TO.P,J2,A15*%
%TO.N,GND*%
X43090000Y25415000D03*
%TO.P,J2,A16*%
%TO.N,/CPU0_RX0+*%
X44090000Y27415000D03*
%TO.P,J2,A17*%
%TO.N,/CPU0_RX0-*%
X45090000Y25415000D03*
%TO.P,J2,A18*%
%TO.N,GND*%
X46090000Y27415000D03*
%TO.P,J2,A19*%
%TO.N,Net-(J2-PadA19)*%
X47090000Y25415000D03*
%TO.P,J2,A20*%
%TO.N,GND*%
X48090000Y27415000D03*
%TO.P,J2,A21*%
%TO.N,/CPU0_RX1+*%
X49090000Y25415000D03*
%TO.P,J2,A22*%
%TO.N,/CPU0_RX1-*%
X50090000Y27415000D03*
%TO.P,J2,A23*%
%TO.N,GND*%
X51090000Y25415000D03*
%TO.P,J2,A24*%
X52090000Y27415000D03*
%TO.P,J2,A25*%
%TO.N,/CPU0_RX2+*%
X53090000Y25415000D03*
%TO.P,J2,A26*%
%TO.N,/CPU0_RX2-*%
X54090000Y27415000D03*
%TO.P,J2,A27*%
%TO.N,GND*%
X55090000Y25415000D03*
%TO.P,J2,A28*%
X56090000Y27415000D03*
%TO.P,J2,A29*%
%TO.N,/CPU0_RX3+*%
X57090000Y25415000D03*
%TO.P,J2,A30*%
%TO.N,/CPU0_RX3-*%
X58090000Y27415000D03*
%TO.P,J2,A31*%
%TO.N,GND*%
X59090000Y25415000D03*
%TO.P,J2,A32*%
%TO.N,/LAN_SMB_CLK*%
X60090000Y27415000D03*
%TO.P,J2,A33*%
%TO.N,/LAN_SMB_DAT*%
X61090000Y25415000D03*
%TO.P,J2,A34*%
%TO.N,GND*%
X62090000Y27415000D03*
%TO.P,J2,A35*%
%TO.N,/CPU0_RX4+*%
X63090000Y25415000D03*
%TO.P,J2,A36*%
%TO.N,/CPU0_RX4-*%
X64090000Y27415000D03*
%TO.P,J2,A37*%
%TO.N,GND*%
X65090000Y25415000D03*
%TO.P,J2,A38*%
X66090000Y27415000D03*
%TO.P,J2,A39*%
%TO.N,/CPU0_RX5+*%
X67090000Y25415000D03*
%TO.P,J2,A40*%
%TO.N,/CPU0_RX5-*%
X68090000Y27415000D03*
%TO.P,J2,A41*%
%TO.N,GND*%
X69090000Y25415000D03*
%TO.P,J2,A42*%
X70090000Y27415000D03*
%TO.P,J2,A43*%
%TO.N,/CPU0_RX6+*%
X71090000Y25415000D03*
%TO.P,J2,A44*%
%TO.N,/CPU0_RX6-*%
X72090000Y27415000D03*
%TO.P,J2,A45*%
%TO.N,GND*%
X73090000Y25415000D03*
%TO.P,J2,A46*%
X74090000Y27415000D03*
%TO.P,J2,A47*%
%TO.N,/CPU0_RX7+*%
X75090000Y25415000D03*
%TO.P,J2,A48*%
%TO.N,/CPU0_RX7-*%
X76090000Y27415000D03*
%TO.P,J2,A49*%
%TO.N,GND*%
X77090000Y25415000D03*
%TO.P,J2,A50*%
X78090000Y27415000D03*
%TO.P,J2,A51*%
X79090000Y25415000D03*
%TO.P,J2,A52*%
%TO.N,/CPU0_RX8+*%
X80090000Y27415000D03*
%TO.P,J2,A53*%
%TO.N,/CPU0_RX8-*%
X81090000Y25415000D03*
%TO.P,J2,A54*%
%TO.N,GND*%
X82090000Y27415000D03*
%TO.P,J2,A55*%
X83090000Y25415000D03*
%TO.P,J2,A56*%
%TO.N,/CPU0_RX9+*%
X84090000Y27415000D03*
%TO.P,J2,A57*%
%TO.N,/CPU0_RX9-*%
X85090000Y25415000D03*
%TO.P,J2,A58*%
%TO.N,GND*%
X86090000Y27415000D03*
%TO.P,J2,A59*%
X87090000Y25415000D03*
%TO.P,J2,A60*%
%TO.N,/CPU0_RX10+*%
X88090000Y27415000D03*
%TO.P,J2,A61*%
%TO.N,/CPU0_RX10-*%
X89090000Y25415000D03*
%TO.P,J2,A62*%
%TO.N,GND*%
X90090000Y27415000D03*
%TO.P,J2,A63*%
X91090000Y25415000D03*
%TO.P,J2,A64*%
%TO.N,/CPU0_RX11+*%
X92090000Y27415000D03*
%TO.P,J2,A65*%
%TO.N,/CPU0_RX11-*%
X93090000Y25415000D03*
%TO.P,J2,A66*%
%TO.N,GND*%
X94090000Y27415000D03*
%TO.P,J2,A67*%
X95090000Y25415000D03*
%TO.P,J2,A68*%
%TO.N,/CPU0_RX12+*%
X96090000Y27415000D03*
%TO.P,J2,A69*%
%TO.N,/CPU0_RX12-*%
X97090000Y25415000D03*
%TO.P,J2,A70*%
%TO.N,GND*%
X98090000Y27415000D03*
%TO.P,J2,A71*%
X99090000Y25415000D03*
%TO.P,J2,A72*%
%TO.N,/CPU0_RX13+*%
X100090000Y27415000D03*
%TO.P,J2,A73*%
%TO.N,/CPU0_RX13-*%
X101090000Y25415000D03*
%TO.P,J2,A74*%
%TO.N,GND*%
X102090000Y27415000D03*
%TO.P,J2,A75*%
X103090000Y25415000D03*
%TO.P,J2,A76*%
%TO.N,/CPU0_RX14+*%
X104090000Y27415000D03*
%TO.P,J2,A77*%
%TO.N,/CPU0_RX14-*%
X105090000Y25415000D03*
%TO.P,J2,A78*%
%TO.N,GND*%
X106090000Y27415000D03*
%TO.P,J2,A79*%
X107090000Y25415000D03*
%TO.P,J2,A80*%
%TO.N,/CPU0_RX15+*%
X108090000Y27415000D03*
%TO.P,J2,A81*%
%TO.N,/CPU0_RX15-*%
X109090000Y25415000D03*
%TO.P,J2,B1*%
%TO.N,+12V*%
X27090000Y22915000D03*
%TO.P,J2,B2*%
X28090000Y20915000D03*
%TO.P,J2,B3*%
X29090000Y22915000D03*
%TO.P,J2,B4*%
%TO.N,GND*%
X30090000Y20915000D03*
%TO.P,J2,B5*%
%TO.N,/PCIe_SMB_CLK*%
X31090000Y22915000D03*
%TO.P,J2,B6*%
%TO.N,/PCIe_SMB_DATA*%
X32090000Y20915000D03*
%TO.P,J2,B7*%
%TO.N,GND*%
X33090000Y22915000D03*
%TO.P,J2,B8*%
%TO.N,+3V3*%
X34090000Y20915000D03*
%TO.P,J2,B9*%
%TO.N,Net-(J2-PadB9)*%
X35090000Y22915000D03*
%TO.P,J2,B10*%
%TO.N,+3.3Vaux*%
X36090000Y20915000D03*
%TO.P,J2,B11*%
%TO.N,/IRQ_LVC_WAKE_N*%
X37090000Y22915000D03*
%TO.P,J2,B12*%
%TO.N,/LAN_SMB_ALERT_N*%
X40090000Y20915000D03*
%TO.P,J2,B13*%
%TO.N,GND*%
X41090000Y22915000D03*
%TO.P,J2,B14*%
%TO.N,/CPU0_TX0+*%
X42090000Y20915000D03*
%TO.P,J2,B15*%
%TO.N,/CPU0_TX0-*%
X43090000Y22915000D03*
%TO.P,J2,B16*%
%TO.N,GND*%
X44090000Y20915000D03*
%TO.P,J2,B17*%
%TO.N,Net-(J2-PadB17)*%
X45090000Y22915000D03*
%TO.P,J2,B18*%
%TO.N,GND*%
X46090000Y20915000D03*
%TO.P,J2,B19*%
%TO.N,/CPU0_TX1+*%
X47090000Y22915000D03*
%TO.P,J2,B20*%
%TO.N,/CPU0_TX1-*%
X48090000Y20915000D03*
%TO.P,J2,B21*%
%TO.N,GND*%
X49090000Y22915000D03*
%TO.P,J2,B22*%
X50090000Y20915000D03*
%TO.P,J2,B23*%
%TO.N,/CPU0_TX2+*%
X51090000Y22915000D03*
%TO.P,J2,B24*%
%TO.N,/CPU0_TX2-*%
X52090000Y20915000D03*
%TO.P,J2,B25*%
%TO.N,GND*%
X53090000Y22915000D03*
%TO.P,J2,B26*%
X54090000Y20915000D03*
%TO.P,J2,B27*%
%TO.N,/CPU0_TX3+*%
X55090000Y22915000D03*
%TO.P,J2,B28*%
%TO.N,/CPU0_TX3-*%
X56090000Y20915000D03*
%TO.P,J2,B29*%
%TO.N,GND*%
X57090000Y22915000D03*
%TO.P,J2,B30*%
%TO.N,Net-(J2-PadB30)*%
X58090000Y20915000D03*
%TO.P,J2,B31*%
%TO.N,/PCIE_SLOT1_PRSNT_x1x4*%
X59090000Y22915000D03*
%TO.P,J2,B33*%
%TO.N,/CPU0_TX4+*%
X61090000Y22915000D03*
%TO.P,J2,B34*%
%TO.N,/CPU0_TX4-*%
X62090000Y20915000D03*
%TO.P,J2,B35*%
%TO.N,GND*%
X63090000Y22915000D03*
%TO.P,J2,B36*%
X64090000Y20915000D03*
%TO.P,J2,B37*%
%TO.N,/CPU0_TX5+*%
X65090000Y22915000D03*
%TO.P,J2,B38*%
%TO.N,/CPU0_TX5-*%
X66090000Y20915000D03*
%TO.P,J2,B39*%
%TO.N,GND*%
X67090000Y22915000D03*
%TO.P,J2,B40*%
X68090000Y20915000D03*
%TO.P,J2,B41*%
%TO.N,/CPU0_TX6+*%
X69090000Y22915000D03*
%TO.P,J2,B42*%
%TO.N,/CPU0_TX6-*%
X70090000Y20915000D03*
%TO.P,J2,B43*%
%TO.N,GND*%
X71090000Y22915000D03*
%TO.P,J2,B44*%
X72090000Y20915000D03*
%TO.P,J2,B45*%
%TO.N,/CPU0_TX7+*%
X73090000Y22915000D03*
%TO.P,J2,B46*%
%TO.N,/CPU0_TX7-*%
X74090000Y20915000D03*
%TO.P,J2,B47*%
%TO.N,GND*%
X75090000Y22915000D03*
%TO.P,J2,B48*%
%TO.N,/PCIE_SLOT1_PRSNT_x8*%
X76090000Y20915000D03*
%TO.P,J2,B49*%
%TO.N,GND*%
X77090000Y22915000D03*
%TO.P,J2,B50*%
%TO.N,/CPU0_TX8+*%
X78090000Y20915000D03*
%TO.P,J2,B51*%
%TO.N,/CPU0_TX8-*%
X79090000Y22915000D03*
%TO.P,J2,B52*%
%TO.N,GND*%
X80090000Y20915000D03*
%TO.P,J2,B53*%
X81090000Y22915000D03*
%TO.P,J2,B54*%
%TO.N,/CPU0_TX9+*%
X82090000Y20915000D03*
%TO.P,J2,B55*%
%TO.N,/CPU0_TX9-*%
X83090000Y22915000D03*
%TO.P,J2,B56*%
%TO.N,GND*%
X84090000Y20915000D03*
%TO.P,J2,B57*%
X85090000Y22915000D03*
%TO.P,J2,B58*%
%TO.N,/CPU0_TX10+*%
X86090000Y20915000D03*
%TO.P,J2,B59*%
%TO.N,/CPU0_TX10-*%
X87090000Y22915000D03*
%TO.P,J2,B60*%
%TO.N,GND*%
X88090000Y20915000D03*
%TO.P,J2,B61*%
X89090000Y22915000D03*
%TO.P,J2,B62*%
%TO.N,/CPU0_TX11+*%
X90090000Y20915000D03*
%TO.P,J2,B63*%
%TO.N,/CPU0_TX11-*%
X91090000Y22915000D03*
%TO.P,J2,B64*%
%TO.N,GND*%
X92090000Y20915000D03*
%TO.P,J2,B65*%
X93090000Y22915000D03*
%TO.P,J2,B66*%
%TO.N,/CPU0_TX12+*%
X94090000Y20915000D03*
%TO.P,J2,B67*%
%TO.N,/CPU0_TX12-*%
X95090000Y22915000D03*
%TO.P,J2,B68*%
%TO.N,GND*%
X96090000Y20915000D03*
%TO.P,J2,B69*%
X97090000Y22915000D03*
%TO.P,J2,B70*%
%TO.N,/CPU0_TX13+*%
X98090000Y20915000D03*
%TO.P,J2,B71*%
%TO.N,/CPU0_TX13-*%
X99090000Y22915000D03*
%TO.P,J2,B72*%
%TO.N,GND*%
X100090000Y20915000D03*
%TO.P,J2,B73*%
X101090000Y22915000D03*
%TO.P,J2,B74*%
%TO.N,/CPU0_TX14+*%
X102090000Y20915000D03*
%TO.P,J2,B75*%
%TO.N,/CPU0_TX14-*%
X103090000Y22915000D03*
%TO.P,J2,B76*%
%TO.N,GND*%
X104090000Y20915000D03*
%TO.P,J2,B77*%
X105090000Y22915000D03*
%TO.P,J2,B78*%
%TO.N,/CPU0_TX15+*%
X106090000Y20915000D03*
%TO.P,J2,B79*%
%TO.N,/CPU0_TX15-*%
X107090000Y22915000D03*
%TO.P,J2,B80*%
%TO.N,GND*%
X108090000Y20915000D03*
%TO.P,J2,B81*%
%TO.N,/PCIE_SLOT1_PRSNT_x16*%
X109090000Y22915000D03*
%TO.P,J2,B32*%
%TO.N,GND*%
X60090000Y20915000D03*
%TO.P,J2,A82*%
X110090000Y27415000D03*
%TO.P,J2,B82*%
%TO.N,Net-(J2-PadB82)*%
X110090000Y20915000D03*
%TD*%
D16*
%TO.P,J3,C1*%
%TO.N,GND*%
X50070000Y-2470000D03*
X63230000Y-2470000D03*
D17*
%TO.P,J3,*%
%TO.N,*%
X51030000Y-3730000D03*
X62930000Y-4090000D03*
%TD*%
%TO.P,J4,*%
%TO.N,*%
X37930000Y-4150000D03*
X26030000Y-3790000D03*
D16*
%TO.P,J4,C1*%
%TO.N,GND*%
X38230000Y-2530000D03*
X25070000Y-2530000D03*
%TD*%
D18*
%TO.N,+12V*%
X65175000Y-5460000D03*
X23525000Y-910000D03*
D19*
X17625000Y-33135000D03*
X18625000Y-33135000D03*
X17625000Y-34135000D03*
X18625000Y-34135000D03*
X17625000Y-35135000D03*
X18625000Y-35135000D03*
X17625000Y-36135000D03*
X18625000Y-36135000D03*
X17625000Y-37135000D03*
X18625000Y-37135000D03*
X17625000Y-38135000D03*
X18625000Y-38135000D03*
X17625000Y-39135000D03*
X18625000Y-39135000D03*
X17625000Y-40135000D03*
X18625000Y-40135000D03*
X6500000Y16915000D03*
X7500000Y16915000D03*
X8500000Y16915000D03*
X9500000Y16915000D03*
X10500000Y16915000D03*
X11500000Y16915000D03*
X6500000Y15665000D03*
X7500000Y15665000D03*
X8500000Y15665000D03*
X9500000Y15665000D03*
X10500000Y15665000D03*
X11500000Y15665000D03*
X6500000Y14415000D03*
X7500000Y14415000D03*
X8500000Y14415000D03*
X9500000Y14415000D03*
X10500000Y14415000D03*
X11500000Y14415000D03*
X6500000Y13165000D03*
X7500000Y13165000D03*
X8500000Y13165000D03*
X9500000Y13165000D03*
X10500000Y13165000D03*
X11500000Y13165000D03*
X6500000Y11915000D03*
X7500000Y11915000D03*
X8500000Y11915000D03*
X9500000Y11915000D03*
X10500000Y11915000D03*
X11500000Y11915000D03*
X6500000Y10665000D03*
X7500000Y10665000D03*
X8500000Y10665000D03*
X9500000Y10665000D03*
X10500000Y10665000D03*
X11500000Y10665000D03*
X6500000Y9415000D03*
X7500000Y9415000D03*
X8500000Y9415000D03*
X9500000Y9415000D03*
X10500000Y9415000D03*
X11500000Y9415000D03*
X6500000Y8165000D03*
X7500000Y8165000D03*
X8500000Y8165000D03*
X9500000Y8165000D03*
X10500000Y8165000D03*
X11500000Y8165000D03*
X39050000Y-5285000D03*
X40975000Y-2285000D03*
X41975000Y-2285000D03*
X39975000Y-3285000D03*
X40975000Y-3285000D03*
X41975000Y-3285000D03*
X39975000Y-4285000D03*
X40975000Y-4285000D03*
X41975000Y-4285000D03*
X39975000Y-5285000D03*
X40975000Y-5285000D03*
X41975000Y-5285000D03*
X39975000Y-6285000D03*
X40975000Y-6285000D03*
X41975000Y-6285000D03*
%TO.N,GND*%
X46050000Y-22160000D03*
D20*
X5950000Y-15985000D03*
X22350000Y-43085000D03*
X19850000Y-43085000D03*
X130200000Y-43085000D03*
X134100000Y-30385000D03*
X128200000Y-43085000D03*
X126200000Y-43085000D03*
X124200000Y-43085000D03*
X122200000Y-43085000D03*
X120200000Y-43085000D03*
X118200000Y-43085000D03*
X116200000Y-43085000D03*
X114200000Y-43085000D03*
X112200000Y-43085000D03*
X110200000Y-43085000D03*
X108200000Y-43085000D03*
X106200000Y-43085000D03*
X104200000Y-43085000D03*
X102200000Y-43085000D03*
X99700000Y-43085000D03*
X97200000Y-43085000D03*
X95200000Y-43085000D03*
X93200000Y-43085000D03*
X91200000Y-43085000D03*
X89200000Y-43085000D03*
X87200000Y-43085000D03*
X85200000Y-43085000D03*
X83200000Y-43085000D03*
X81200000Y-43085000D03*
X79200000Y-43085000D03*
X77200000Y-43085000D03*
X75200000Y-43085000D03*
X73200000Y-43085000D03*
X71200000Y-43085000D03*
X69200000Y-43085000D03*
X66700000Y-43085000D03*
X64200000Y-43085000D03*
X62200000Y-43085000D03*
X60200000Y-43085000D03*
X58200000Y-43085000D03*
X56200000Y-43085000D03*
X54200000Y-43085000D03*
X52200000Y-43085000D03*
X35700000Y-43085000D03*
X33200000Y-43085000D03*
X30450000Y-43085000D03*
X49200000Y-43085000D03*
X46200000Y-43085000D03*
X44200000Y-43085000D03*
X42200000Y-43085000D03*
X40200000Y-43085000D03*
X38200000Y-43085000D03*
X15625000Y-13135000D03*
X50825000Y-25835000D03*
X15625000Y-15985000D03*
D18*
X59390000Y-335000D03*
X57890000Y-335000D03*
X56390000Y-335000D03*
X54890000Y-335000D03*
X53390000Y-335000D03*
X53910000Y-5185000D03*
X55410000Y-5185000D03*
X56910000Y-5185000D03*
X58410000Y-5185000D03*
X59910000Y-5185000D03*
X29890000Y-335000D03*
X28390000Y-335000D03*
X31390000Y-335000D03*
X34390000Y-335000D03*
X32890000Y-335000D03*
X28910000Y-5185000D03*
X30410000Y-5185000D03*
X31910000Y-5185000D03*
X34910000Y-5185000D03*
X33410000Y-5185000D03*
X52550000Y-20835000D03*
X51025000Y-17810000D03*
X52800000Y-25060000D03*
X40725000Y-24335000D03*
X45325000Y-26310000D03*
X49450000Y-25785000D03*
X45325000Y-19935000D03*
X49600000Y-20535000D03*
X46825000Y-16810000D03*
X26250000Y-8535000D03*
X25125000Y1640000D03*
X37675000Y1665000D03*
X62750000Y1715000D03*
X51275000Y-8585000D03*
X64775000Y-7785000D03*
X37700000Y14740000D03*
X27375000Y17215000D03*
X28375000Y17215000D03*
X29375000Y17215000D03*
X27375000Y16215000D03*
X28375000Y16215000D03*
X29375000Y16215000D03*
X22500000Y16240000D03*
X23500000Y17240000D03*
X23500000Y16240000D03*
X24500000Y16240000D03*
X24500000Y17240000D03*
X22500000Y17240000D03*
X18600000Y17265000D03*
X18600000Y16265000D03*
X21350000Y17265000D03*
X21350000Y16265000D03*
D20*
X14350000Y-19985000D03*
X15625000Y-14535000D03*
D18*
X49775000Y715000D03*
D19*
X17350000Y28090000D03*
X18600000Y28090000D03*
X19850000Y28090000D03*
X21100000Y28090000D03*
X22350000Y28090000D03*
X47050000Y-22160000D03*
X48050000Y-22160000D03*
X46050000Y-23160000D03*
X47050000Y-23160000D03*
X48050000Y-23160000D03*
X46050000Y-24160000D03*
X47050000Y-24160000D03*
X48050000Y-24160000D03*
D18*
X40975000Y-17335000D03*
X43275000Y-19685000D03*
X42125000Y-19235000D03*
X40925000Y-19260000D03*
D19*
X44825000Y-29660000D03*
X45825000Y-29660000D03*
X46825000Y-29660000D03*
X47825000Y-29660000D03*
X48825000Y-29660000D03*
X49825000Y-29660000D03*
D18*
X37200000Y-10760000D03*
D21*
X31300000Y-39260000D03*
X33175000Y-39260000D03*
X33275000Y-38060000D03*
X35150000Y-38060000D03*
X36275000Y-39285000D03*
X38150000Y-39285000D03*
X40125000Y-38085000D03*
X38250000Y-38085000D03*
X40275000Y-39360000D03*
X42150000Y-39360000D03*
X44125000Y-38160000D03*
X42250000Y-38160000D03*
X44275000Y-39410000D03*
X46150000Y-39410000D03*
X46275000Y-38160000D03*
X48150000Y-38160000D03*
X52275000Y-38335000D03*
X60275000Y-38385000D03*
X52125000Y-39585000D03*
X58275000Y-39560000D03*
X60150000Y-39560000D03*
X54275000Y-39560000D03*
X58150000Y-38335000D03*
X54150000Y-38335000D03*
X56150000Y-39560000D03*
X50250000Y-39585000D03*
X56275000Y-38335000D03*
X62150000Y-38385000D03*
X64150000Y-39460000D03*
X62275000Y-39460000D03*
X66150000Y-38360000D03*
X64275000Y-38360000D03*
X43525000Y-29385000D03*
X41650000Y-29385000D03*
X27150000Y2965000D03*
X29025000Y2965000D03*
X35775000Y3140000D03*
X33900000Y3140000D03*
X52150000Y2965000D03*
X54025000Y2965000D03*
X58875000Y3140000D03*
X60750000Y3140000D03*
X57000000Y-6860000D03*
X58300000Y-6860000D03*
X33300000Y-6785000D03*
X32000000Y-6785000D03*
X38300000Y-10735000D03*
X39625000Y-9485000D03*
X50250000Y-8385000D03*
X49000000Y-7060000D03*
D19*
%TO.N,+3V3*%
X25400000Y-34985000D03*
X50550000Y-21035000D03*
X50825000Y-23760000D03*
X40950000Y-22060000D03*
X42100000Y-22060000D03*
X43250000Y-22060000D03*
D18*
X65050000Y-735000D03*
X40025000Y-1210000D03*
X32675000Y5015000D03*
D19*
X32775000Y13815000D03*
X32775000Y15065000D03*
X32775000Y16315000D03*
X32775000Y17565000D03*
X32775000Y18815000D03*
X18925000Y12415000D03*
X20175000Y12415000D03*
X21425000Y12415000D03*
X22675000Y12415000D03*
X23925000Y12415000D03*
X18925000Y11165000D03*
X20175000Y11165000D03*
X21425000Y11165000D03*
X22675000Y11165000D03*
X23925000Y11165000D03*
X18925000Y9915000D03*
X20175000Y9915000D03*
X21425000Y9915000D03*
X22675000Y9915000D03*
X23925000Y9915000D03*
X23775000Y-34710000D03*
X23775000Y-35960000D03*
X23775000Y-37210000D03*
X23775000Y-38460000D03*
X23775000Y-39710000D03*
X23775000Y-40960000D03*
X25400000Y-36235000D03*
X25400000Y-37485000D03*
X25400000Y-38735000D03*
X39700000Y-22335000D03*
X39700000Y-23335000D03*
X39700000Y-24335000D03*
X39700000Y-25335000D03*
X38675000Y-23335000D03*
X38675000Y-24335000D03*
D18*
X25350000Y-10235000D03*
D19*
X44800000Y-5060000D03*
X45800000Y-5060000D03*
X46800000Y-5060000D03*
X44800000Y-6060000D03*
X45800000Y-6060000D03*
X46800000Y-6060000D03*
X46800000Y-4060000D03*
X45800000Y-4060000D03*
X44800000Y-4060000D03*
D18*
X48000000Y-2685000D03*
D19*
%TO.N,+3.3Vaux*%
X35200000Y17990000D03*
D20*
X14800000Y-24585000D03*
X10300000Y-24585000D03*
X9550000Y-11385000D03*
X10850000Y-11385000D03*
X8250000Y-11385000D03*
X6950000Y-11385000D03*
X5650000Y-11385000D03*
X4350000Y-11385000D03*
X6650000Y-25385000D03*
X7975000Y-25435000D03*
D19*
X35500000Y16315000D03*
X35475000Y15140000D03*
D20*
X9300000Y-25435000D03*
X4100000Y-22785000D03*
X17800000Y-24585000D03*
D19*
%TO.N,/SLOT0_CONFIG*%
X66875000Y-40685000D03*
%TO.N,/SLOT1_CONFIG*%
X99700000Y-40610000D03*
%TO.N,/LAN_SMB_CLK*%
X17600000Y13265000D03*
%TO.N,/LAN_SMB_DAT*%
X31825000Y7640000D03*
D20*
%TO.N,/LAN_SMB_ALERT_N*%
X38700000Y12890000D03*
D19*
%TO.N,/PCIE_SLOT1_PRSNT_x8*%
X99750000Y-39210000D03*
%TO.N,/PCIE_SLOT1_PRSNT_x1x4*%
X66850000Y-39585000D03*
%TO.N,/PCIE_SLOT_PRSNT#1*%
X16600000Y-42335000D03*
%TO.N,/RST_PERST0_N*%
X30950000Y4640000D03*
X46950000Y8915000D03*
D21*
%TO.N,/CLK100_SLOT1+*%
X42273800Y-29385000D03*
%TO.N,/CLK100_SLOT1-*%
X42776200Y-29385000D03*
D19*
%TO.N,/PCIe_SMB_CLK*%
X7975000Y-20560000D03*
%TO.N,/PCIe_SMB_DATA*%
X4325000Y-18385000D03*
D21*
%TO.N,/Oculink_0_C_x4_TX0+*%
X27823800Y2965000D03*
X31948800Y-39260000D03*
%TO.N,/Oculink_0_C_x4_TX1+*%
X28898800Y240000D03*
X36948800Y-39285000D03*
%TO.N,/Oculink_0_C_x4_TX2+*%
X33398800Y240000D03*
X40948800Y-39360000D03*
%TO.N,/Oculink_0_C_x4_TX3+*%
X34563800Y3140000D03*
X44948800Y-39410000D03*
%TO.N,/Oculink_0_C_x4_TX0-*%
X28326200Y2965000D03*
X32451200Y-39260000D03*
%TO.N,/Oculink_0_C_x4_TX1-*%
X29401200Y240000D03*
X37451200Y-39285000D03*
%TO.N,/Oculink_0_C_x4_TX2-*%
X33901200Y240000D03*
X41451200Y-39360000D03*
%TO.N,/Oculink_0_C_x4_TX3-*%
X35066200Y3140000D03*
X45451200Y-39410000D03*
D19*
%TO.N,+3.3VP*%
X48800000Y-19885000D03*
X46800000Y-18735000D03*
X46800000Y-19510000D03*
X49350000Y-19410000D03*
X46475000Y-26710000D03*
X47525000Y-26735000D03*
X49200000Y-26685000D03*
X52225000Y-22685000D03*
X53450000Y-23285000D03*
D21*
%TO.N,/Oculink_1_C_x4_TX0+*%
X50948800Y-39585000D03*
X52823800Y2965000D03*
%TO.N,/Oculink_1_C_x4_TX1+*%
X53898800Y240000D03*
X54948800Y-39560000D03*
%TO.N,/Oculink_1_C_x4_TX2+*%
X58948800Y-39560000D03*
X58398800Y240000D03*
%TO.N,/Oculink_1_C_x4_TX3+*%
X59563800Y3140000D03*
X62948800Y-39460000D03*
%TO.N,/Oculink_1_C_x4_TX0-*%
X51451200Y-39585000D03*
X53326200Y2965000D03*
%TO.N,/Oculink_1_C_x4_TX1-*%
X54401200Y240000D03*
X55451200Y-39560000D03*
%TO.N,/Oculink_1_C_x4_TX2-*%
X59451200Y-39560000D03*
X58901200Y240000D03*
%TO.N,/Oculink_1_C_x4_TX3-*%
X60066200Y3140000D03*
X63451200Y-39460000D03*
%TO.N,/Oculink_0_x4_RX0+*%
X33948800Y-38060000D03*
%TO.N,/Oculink_0_x4_RX0-*%
X34451200Y-38060000D03*
%TO.N,/Oculink_0_x4_RX1+*%
X38948800Y-38085000D03*
%TO.N,/Oculink_0_x4_RX1-*%
X39451200Y-38085000D03*
%TO.N,/Oculink_0_x4_RX2+*%
X42948800Y-38135000D03*
%TO.N,/Oculink_0_x4_RX2-*%
X43451200Y-38135000D03*
%TO.N,/Oculink_0_x4_RX3+*%
X46948800Y-38160000D03*
%TO.N,/Oculink_0_x4_RX3-*%
X47451200Y-38160000D03*
%TO.N,/Oculink_1_x4_RX0+*%
X52948800Y-38335000D03*
%TO.N,/Oculink_1_x4_RX0-*%
X53451200Y-38335000D03*
%TO.N,/Oculink_1_x4_RX1+*%
X56948800Y-38335000D03*
%TO.N,/Oculink_1_x4_RX1-*%
X57451200Y-38335000D03*
%TO.N,/Oculink_1_x4_RX2+*%
X60948800Y-38385000D03*
%TO.N,/Oculink_1_x4_RX2-*%
X61451200Y-38385000D03*
%TO.N,/Oculink_1_x4_RX3+*%
X64948800Y-38360000D03*
%TO.N,/Oculink_1_x4_RX3-*%
X65451200Y-38360000D03*
D20*
%TO.N,Net-(J3-PadA10)*%
X57550000Y-7960000D03*
D19*
X52325000Y7365000D03*
D21*
%TO.N,/Oculink_1_CLK100+*%
X57398800Y-6285000D03*
X49777626Y-7887626D03*
%TO.N,/Oculink_1_CLK100-*%
X57901200Y-6285000D03*
X49422374Y-7532374D03*
D19*
%TO.N,/Oculink_1_SMB_CLK*%
X55400000Y1590000D03*
X7275000Y-9310000D03*
%TO.N,/Oculink_1_SMB_DATA*%
X56150000Y915000D03*
X5525000Y-9535000D03*
%TO.N,/Oculink_0_SMB_DATA*%
X13775000Y-17535000D03*
X31175000Y740000D03*
%TO.N,/Oculink_0_SMB_CLK*%
X30400000Y1215000D03*
X15375000Y-18435000D03*
D21*
%TO.N,/Oculink_0_CLK100-*%
X32901200Y-6235000D03*
X38772374Y-10287626D03*
%TO.N,/Oculink_0_CLK100+*%
X32398800Y-6235000D03*
X39127626Y-9932374D03*
D20*
%TO.N,Net-(J4-PadA10)*%
X32075000Y-9485000D03*
X40300000Y3340000D03*
%TD*%
D22*
%TO.N,GND*%
X22600000Y-46085000D02*
X22600000Y-43335000D01*
X22600000Y-43335000D02*
X22350000Y-43085000D01*
X19600000Y-43335000D02*
X19600000Y-46085000D01*
X19850000Y-43085000D02*
X19600000Y-43335000D01*
X129700000Y-43585000D02*
X130200000Y-43085000D01*
X129700000Y-46085000D02*
X129700000Y-43585000D01*
X132700000Y-46085000D02*
X132700000Y-31785000D01*
X132700000Y-31785000D02*
X134100000Y-30385000D01*
X128700000Y-43585000D02*
X128200000Y-43085000D01*
X128700000Y-46085000D02*
X128700000Y-43585000D01*
X125700000Y-43585000D02*
X126200000Y-43085000D01*
X125700000Y-46085000D02*
X125700000Y-43585000D01*
X124700000Y-43585000D02*
X124200000Y-43085000D01*
X124700000Y-46085000D02*
X124700000Y-43585000D01*
X121700000Y-43585000D02*
X122200000Y-43085000D01*
X121700000Y-46085000D02*
X121700000Y-43585000D01*
X120700000Y-43585000D02*
X120200000Y-43085000D01*
X120700000Y-46085000D02*
X120700000Y-43585000D01*
X117700000Y-43585000D02*
X118200000Y-43085000D01*
X117700000Y-46085000D02*
X117700000Y-43585000D01*
X116700000Y-43585000D02*
X116200000Y-43085000D01*
X116700000Y-46085000D02*
X116700000Y-43585000D01*
X113700000Y-43585000D02*
X114200000Y-43085000D01*
X113700000Y-46085000D02*
X113700000Y-43585000D01*
X112700000Y-43585000D02*
X112200000Y-43085000D01*
X112700000Y-46085000D02*
X112700000Y-43585000D01*
X109700000Y-43585000D02*
X110200000Y-43085000D01*
X109700000Y-46085000D02*
X109700000Y-43585000D01*
X108700000Y-43585000D02*
X108200000Y-43085000D01*
X108700000Y-46085000D02*
X108700000Y-43585000D01*
X105700000Y-43585000D02*
X106200000Y-43085000D01*
X105700000Y-46085000D02*
X105700000Y-43585000D01*
X104700000Y-43585000D02*
X104200000Y-43085000D01*
X104700000Y-46085000D02*
X104700000Y-43585000D01*
X101700000Y-43585000D02*
X102200000Y-43085000D01*
X101700000Y-46085000D02*
X101700000Y-43585000D01*
X99700000Y-46085000D02*
X99700000Y-43085000D01*
X96700000Y-43585000D02*
X97200000Y-43085000D01*
X96700000Y-46085000D02*
X96700000Y-43585000D01*
X95700000Y-43585000D02*
X95200000Y-43085000D01*
X95700000Y-46085000D02*
X95700000Y-43585000D01*
X92700000Y-43585000D02*
X93200000Y-43085000D01*
X92700000Y-46085000D02*
X92700000Y-43585000D01*
X91700000Y-43585000D02*
X91200000Y-43085000D01*
X91700000Y-46085000D02*
X91700000Y-43585000D01*
X76700000Y-43585000D02*
X77200000Y-43085000D01*
X76700000Y-46085000D02*
X76700000Y-43585000D01*
X79700000Y-43585000D02*
X79200000Y-43085000D01*
X79700000Y-46085000D02*
X79700000Y-43585000D01*
X80700000Y-43585000D02*
X81200000Y-43085000D01*
X80700000Y-46085000D02*
X80700000Y-43585000D01*
X83700000Y-43585000D02*
X83200000Y-43085000D01*
X83700000Y-46085000D02*
X83700000Y-43585000D01*
X84700000Y-43585000D02*
X85200000Y-43085000D01*
X84700000Y-46085000D02*
X84700000Y-43585000D01*
X87700000Y-43585000D02*
X87200000Y-43085000D01*
X87700000Y-46085000D02*
X87700000Y-43585000D01*
X88700000Y-43585000D02*
X89200000Y-43085000D01*
X88700000Y-46085000D02*
X88700000Y-43585000D01*
X75700000Y-43585000D02*
X75200000Y-43085000D01*
X75700000Y-46085000D02*
X75700000Y-43585000D01*
X72700000Y-43585000D02*
X73200000Y-43085000D01*
X72700000Y-46085000D02*
X72700000Y-43585000D01*
X71700000Y-43585000D02*
X71200000Y-43085000D01*
X71700000Y-46085000D02*
X71700000Y-43585000D01*
X68700000Y-43585000D02*
X69200000Y-43085000D01*
X68700000Y-46085000D02*
X68700000Y-43585000D01*
X66700000Y-46085000D02*
X66700000Y-43085000D01*
X29700000Y-46085000D02*
X29700000Y-43585000D01*
X32700000Y-43585000D02*
X33200000Y-43085000D01*
X32700000Y-46085000D02*
X32700000Y-43585000D01*
X35700000Y-46085000D02*
X35700000Y-43085000D01*
X51700000Y-43585000D02*
X52200000Y-43085000D01*
X51700000Y-46085000D02*
X51700000Y-43585000D01*
X54700000Y-43585000D02*
X54200000Y-43085000D01*
X54700000Y-46085000D02*
X54700000Y-43585000D01*
X55700000Y-43585000D02*
X56200000Y-43085000D01*
X55700000Y-46085000D02*
X55700000Y-43585000D01*
X58700000Y-43585000D02*
X58200000Y-43085000D01*
X58700000Y-46085000D02*
X58700000Y-43585000D01*
X59700000Y-43585000D02*
X60200000Y-43085000D01*
X59700000Y-46085000D02*
X59700000Y-43585000D01*
X62700000Y-43585000D02*
X62200000Y-43085000D01*
X62700000Y-46085000D02*
X62700000Y-43585000D01*
X63700000Y-43585000D02*
X64200000Y-43085000D01*
X63700000Y-46085000D02*
X63700000Y-43585000D01*
X48700000Y-43585000D02*
X49200000Y-43085000D01*
X48700000Y-46085000D02*
X48700000Y-43585000D01*
X45700000Y-43585000D02*
X46200000Y-43085000D01*
X45700000Y-46085000D02*
X45700000Y-43585000D01*
X44700000Y-43585000D02*
X44200000Y-43085000D01*
X44700000Y-46085000D02*
X44700000Y-43585000D01*
X41700000Y-43585000D02*
X42200000Y-43085000D01*
X41700000Y-46085000D02*
X41700000Y-43585000D01*
X40700000Y-43585000D02*
X40200000Y-43085000D01*
X40700000Y-46085000D02*
X40700000Y-43585000D01*
X37700000Y-43585000D02*
X38200000Y-43085000D01*
X37700000Y-46085000D02*
X37700000Y-43585000D01*
X30025736Y-43085000D02*
X29700000Y-43410736D01*
X29700000Y-43410736D02*
X29700000Y-43585000D01*
X30450000Y-43085000D02*
X30025736Y-43085000D01*
D23*
%TO.N,/SLOT0_CONFIG*%
X67450000Y-40685000D02*
X66875000Y-40685000D01*
X67700000Y-40935000D02*
X67450000Y-40685000D01*
X67700000Y-43235000D02*
X67700000Y-46085000D01*
X67700000Y-40935000D02*
X67700000Y-43235000D01*
%TO.N,/SLOT1_CONFIG*%
X100700000Y-43785000D02*
X100700000Y-46085000D01*
X100700000Y-41231447D02*
X100700000Y-43785000D01*
X99700000Y-40610000D02*
X100000000Y-40310000D01*
X100000000Y-40310000D02*
X100400000Y-40310000D01*
X100700000Y-40610000D02*
X100700000Y-41235000D01*
X100400000Y-40310000D02*
X100700000Y-40610000D01*
X100700000Y-41235000D02*
X100700000Y-41231447D01*
%TO.N,/LAN_SMB_DAT*%
X23600000Y-42710000D02*
X23600000Y-42535000D01*
X23600000Y-46085000D02*
X23600000Y-42710000D01*
X22900000Y-41835000D02*
X22900000Y-28285000D01*
X23600000Y-42535000D02*
X22900000Y-41835000D01*
X26675000Y5965000D02*
X22525000Y1815000D01*
X22525000Y-27910000D02*
X22900000Y-28285000D01*
X22525000Y1815000D02*
X22525000Y-27910000D01*
X31825000Y7640000D02*
X30150000Y5965000D01*
X30150000Y5965000D02*
X26675000Y5965000D01*
%TO.N,/LAN_SMB_ALERT_N*%
X39312183Y20915000D02*
X38712183Y20315000D01*
X40090000Y20915000D02*
X39312183Y20915000D01*
X38712183Y12902183D02*
X38700000Y12890000D01*
X38712183Y20315000D02*
X38712183Y12902183D01*
%TO.N,/PCIE_SLOT_PRSNT#1*%
X16600000Y-46085000D02*
X16600000Y-42335000D01*
D24*
%TO.N,/CLK100_SLOT0+*%
X20600000Y-46085000D02*
X20600000Y-44385000D01*
X20600000Y-44385000D02*
X20947600Y-44037400D01*
X41947600Y22503128D02*
X40947600Y21503128D01*
X39711872Y10042400D02*
X26561872Y10042400D01*
X26561872Y10042400D02*
X20147600Y3628128D01*
X40947600Y11278128D02*
X39711872Y10042400D01*
X40947600Y21503128D02*
X40947600Y11278128D01*
X20147600Y3628128D02*
X20147600Y-30748128D01*
X20147600Y-30748128D02*
X20947600Y-31548128D01*
X20947600Y-31548128D02*
X20947600Y-44037400D01*
X41090000Y25415000D02*
X41090000Y25955000D01*
X41090000Y25955000D02*
X41300000Y26165000D01*
X41300000Y26165000D02*
X41700000Y26165000D01*
X41947600Y25917400D02*
X41700000Y26165000D01*
X41947600Y22503128D02*
X41947600Y25917400D01*
%TO.N,/CLK100_SLOT0-*%
X42090000Y26637183D02*
X42090000Y27415000D01*
X20452400Y-30621872D02*
X20452400Y3501872D01*
X42252400Y22376872D02*
X42252400Y26474783D01*
X21252400Y-31421872D02*
X20452400Y-30621872D01*
X21252400Y-44037400D02*
X21252400Y-31421872D01*
X21600000Y-46085000D02*
X21600000Y-44385000D01*
X41252400Y11151872D02*
X41252400Y21376872D01*
X21600000Y-44385000D02*
X21252400Y-44037400D01*
X26688128Y9737600D02*
X39838128Y9737600D01*
X42252400Y26474783D02*
X42090000Y26637183D01*
X39838128Y9737600D02*
X41252400Y11151872D01*
X20452400Y3501872D02*
X26688128Y9737600D01*
X41252400Y21376872D02*
X42252400Y22376872D01*
D23*
%TO.N,/RST_PERST0_N*%
X27200000Y-40935000D02*
X26600000Y-41535000D01*
X26600000Y-41535000D02*
X26600000Y-46085000D01*
X27200000Y-30560000D02*
X27200000Y-40935000D01*
X23675000Y-27035000D02*
X27200000Y-30560000D01*
X26850000Y4640000D02*
X24300000Y2090000D01*
X30950000Y4640000D02*
X26850000Y4640000D01*
X24300000Y-1285000D02*
X23675000Y-1910000D01*
X24300000Y2090000D02*
X24300000Y-1285000D01*
X23675000Y-1910000D02*
X23675000Y-27035000D01*
X44700000Y6665000D02*
X46950000Y8915000D01*
X30950000Y4640000D02*
X32975000Y6665000D01*
X32975000Y6665000D02*
X44700000Y6665000D01*
D24*
%TO.N,/CLK100_SLOT1+*%
X42372600Y-29483800D02*
X42273800Y-29385000D01*
X49700000Y-46085000D02*
X49700000Y-44385000D01*
X49700000Y-44385000D02*
X50047600Y-44037400D01*
X50047600Y-44037400D02*
X50047600Y-41473128D01*
X50047600Y-41473128D02*
X49147600Y-40573128D01*
X49147600Y-40573128D02*
X49147600Y-35548128D01*
X49147600Y-35548128D02*
X45136872Y-31537400D01*
X45136872Y-31537400D02*
X43386872Y-31537400D01*
X43386872Y-31537400D02*
X42372600Y-30523128D01*
X42372600Y-30523128D02*
X42372600Y-29483800D01*
%TO.N,/CLK100_SLOT1-*%
X42677400Y-29483800D02*
X42776200Y-29385000D01*
X50700000Y-46085000D02*
X50700000Y-44385000D01*
X50700000Y-44385000D02*
X50352400Y-44037400D01*
X50352400Y-44037400D02*
X50352400Y-41346872D01*
X50352400Y-41346872D02*
X49452400Y-40446872D01*
X49452400Y-40446872D02*
X49452400Y-35421872D01*
X49452400Y-35421872D02*
X45263128Y-31232600D01*
X45263128Y-31232600D02*
X43513128Y-31232600D01*
X42677400Y-30396872D02*
X42677400Y-29483800D01*
X43513128Y-31232600D02*
X42677400Y-30396872D01*
%TO.N,/CPU0_RX0+*%
X69700000Y-44385000D02*
X69700000Y-46085000D01*
X60711872Y14237600D02*
X70047600Y4901872D01*
X70047600Y-44037400D02*
X69700000Y-44385000D01*
X44947600Y19976872D02*
X50686872Y14237600D01*
X44090000Y27415000D02*
X44090000Y26637183D01*
X70047600Y4901872D02*
X70047600Y-44037400D01*
X43947600Y22351872D02*
X44947600Y21351872D01*
X44090000Y26637183D02*
X43947600Y26494783D01*
X50686872Y14237600D02*
X60711872Y14237600D01*
X43947600Y26494783D02*
X43947600Y22351872D01*
X44947600Y21351872D02*
X44947600Y19976872D01*
%TO.N,/CPU0_RX0-*%
X70700000Y-46085000D02*
X70700000Y-44385000D01*
X70700000Y-44385000D02*
X70352400Y-44037400D01*
X70352400Y-44037400D02*
X70352400Y5028128D01*
X70352400Y5028128D02*
X60838128Y14542400D01*
X60838128Y14542400D02*
X50813128Y14542400D01*
X50813128Y14542400D02*
X45252400Y20103128D01*
X45252400Y20103128D02*
X45252400Y21478128D01*
X45252400Y21478128D02*
X44252400Y22478128D01*
X45090000Y25415000D02*
X45090000Y25975000D01*
X45090000Y25975000D02*
X44900000Y26165000D01*
X44900000Y26165000D02*
X44525000Y26165000D01*
X44252400Y25892400D02*
X44525000Y26165000D01*
X44252400Y22478128D02*
X44252400Y25892400D01*
%TO.N,/CPU0_RX1+*%
X49612500Y26177500D02*
X49950000Y25840000D01*
X49090000Y26030000D02*
X49237500Y26177500D01*
X49237500Y26177500D02*
X49612500Y26177500D01*
X49947600Y22351872D02*
X49950000Y25840000D01*
X49090000Y25415000D02*
X49090000Y26030000D01*
X50947600Y21351872D02*
X49947600Y22351872D01*
X73700000Y-46085000D02*
X73700000Y-44385000D01*
X73700000Y-44385000D02*
X74047600Y-44037400D01*
X74047600Y-44037400D02*
X74047600Y3426872D01*
X74047600Y3426872D02*
X61511872Y15962600D01*
X61511872Y15962600D02*
X54636872Y15962600D01*
X54636872Y15962600D02*
X50947600Y19651872D01*
X50947600Y19651872D02*
X50947600Y21351872D01*
%TO.N,/CPU0_RX1-*%
X50090000Y26637183D02*
X50090000Y27415000D01*
X50252400Y22478128D02*
X50252400Y26474783D01*
X50252400Y26474783D02*
X50090000Y26637183D01*
X51252400Y21478128D02*
X50252400Y22478128D01*
X74700000Y-46085000D02*
X74700000Y-44385000D01*
X74700000Y-44385000D02*
X74352400Y-44037400D01*
X74352400Y-44037400D02*
X74352400Y3553128D01*
X74352400Y3553128D02*
X61638128Y16267400D01*
X61638128Y16267400D02*
X54763128Y16267400D01*
X51252400Y19778128D02*
X51252400Y21478128D01*
X54763128Y16267400D02*
X51252400Y19778128D01*
%TO.N,/CPU0_RX2+*%
X53612500Y26177500D02*
X53950000Y25840000D01*
X53090000Y26030000D02*
X53237500Y26177500D01*
X53237500Y26177500D02*
X53612500Y26177500D01*
X53947600Y22351872D02*
X53950000Y25840000D01*
X53090000Y25415000D02*
X53090000Y26030000D01*
X54947600Y21351872D02*
X53947600Y22351872D01*
X77700000Y-46085000D02*
X77700000Y-44385000D01*
X77700000Y-44385000D02*
X78047600Y-44037400D01*
X78047600Y-44037400D02*
X78047600Y1851872D01*
X78047600Y1851872D02*
X62436872Y17462600D01*
X62436872Y17462600D02*
X57436872Y17462600D01*
X57436872Y17462600D02*
X54947600Y19951872D01*
X54947600Y19951872D02*
X54947600Y21351872D01*
%TO.N,/CPU0_RX2-*%
X54090000Y26637183D02*
X54090000Y27415000D01*
X54252400Y22478128D02*
X54252400Y26474783D01*
X54252400Y26474783D02*
X54090000Y26637183D01*
X55252400Y21478128D02*
X54252400Y22478128D01*
X78700000Y-44385000D02*
X78352400Y-44037400D01*
X78700000Y-46085000D02*
X78700000Y-44385000D01*
X78352400Y-44037400D02*
X78352400Y1978128D01*
X78352400Y1978128D02*
X62563128Y17767400D01*
X62563128Y17767400D02*
X57563128Y17767400D01*
X57563128Y17767400D02*
X55252400Y20078128D01*
X55252400Y20078128D02*
X55252400Y21478128D01*
%TO.N,/CPU0_RX3+*%
X81700000Y-46085000D02*
X81700000Y-44385000D01*
X81700000Y-44385000D02*
X82047600Y-44037400D01*
X82047600Y-44037400D02*
X82047600Y326872D01*
X82047600Y326872D02*
X63586872Y18787600D01*
X63586872Y18787600D02*
X60161872Y18787600D01*
X60161872Y18787600D02*
X58947600Y20001872D01*
X58947600Y20001872D02*
X58947600Y21351872D01*
X58947600Y21351872D02*
X57947600Y22351872D01*
X57090000Y25415000D02*
X57090000Y26030000D01*
X57612500Y26177500D02*
X57950000Y25840000D01*
X57237500Y26177500D02*
X57612500Y26177500D01*
X57090000Y26030000D02*
X57237500Y26177500D01*
X57947600Y22351872D02*
X57950000Y25840000D01*
%TO.N,/CPU0_RX3-*%
X58090000Y26637183D02*
X58090000Y27415000D01*
X59252400Y20128128D02*
X59252400Y21478128D01*
X58252400Y26474783D02*
X58090000Y26637183D01*
X60288128Y19092400D02*
X59252400Y20128128D01*
X59252400Y21478128D02*
X58252400Y22478128D01*
X82700000Y-44385000D02*
X82352400Y-44037400D01*
X82700000Y-46085000D02*
X82700000Y-44385000D01*
X82352400Y453128D02*
X63713128Y19092400D01*
X82352400Y-44037400D02*
X82352400Y453128D01*
X58252400Y22478128D02*
X58252400Y26474783D01*
X63713128Y19092400D02*
X60288128Y19092400D01*
%TO.N,/CPU0_RX4+*%
X63090000Y25415000D02*
X63090000Y26005000D01*
X63922600Y22376872D02*
X64922600Y21376872D01*
X63090000Y26005000D02*
X63225000Y26140000D01*
X63625000Y26140000D02*
X63922600Y25842400D01*
X63225000Y26140000D02*
X63625000Y26140000D01*
X63922600Y25842400D02*
X63922600Y22376872D01*
X85700000Y-46085000D02*
X85700000Y-44385000D01*
X85700000Y-44385000D02*
X86047600Y-44037400D01*
X86047600Y-44037400D02*
X86047600Y-1098128D01*
X86047600Y-1098128D02*
X64922600Y20026872D01*
X64922600Y20026872D02*
X64922600Y21376872D01*
%TO.N,/CPU0_RX4-*%
X64227400Y22503128D02*
X64227400Y26499783D01*
X64227400Y26499783D02*
X64090000Y26637183D01*
X64090000Y26637183D02*
X64090000Y27415000D01*
X65227400Y21503128D02*
X64227400Y22503128D01*
X86700000Y-44385000D02*
X86352400Y-44037400D01*
X86700000Y-46085000D02*
X86700000Y-44385000D01*
X86352400Y-44037400D02*
X86352400Y-971872D01*
X65227400Y20153128D02*
X65227400Y21503128D01*
X86352400Y-971872D02*
X65227400Y20153128D01*
%TO.N,/CPU0_RX5+*%
X67090000Y25415000D02*
X67090000Y26005000D01*
X67922600Y22376872D02*
X68922600Y21376872D01*
X67090000Y26005000D02*
X67225000Y26140000D01*
X67625000Y26140000D02*
X67922600Y25842400D01*
X67225000Y26140000D02*
X67625000Y26140000D01*
X67922600Y25842400D02*
X67922600Y22376872D01*
X89700000Y-46085000D02*
X89700000Y-44385000D01*
X89700000Y-44385000D02*
X90047600Y-44037400D01*
X90047600Y-44037400D02*
X90047600Y-1698128D01*
X90047600Y-1698128D02*
X68922600Y19426872D01*
X68922600Y19426872D02*
X68922600Y21376872D01*
%TO.N,/CPU0_RX5-*%
X68227400Y22503128D02*
X68227400Y26499783D01*
X68227400Y26499783D02*
X68090000Y26637183D01*
X68090000Y26637183D02*
X68090000Y27415000D01*
X69227400Y21503128D02*
X68227400Y22503128D01*
X90700000Y-46085000D02*
X90700000Y-44385000D01*
X90700000Y-44385000D02*
X90352400Y-44037400D01*
X90352400Y-44037400D02*
X90352400Y-1571872D01*
X69227400Y19553128D02*
X69227400Y21503128D01*
X90352400Y-1571872D02*
X69227400Y19553128D01*
%TO.N,/CPU0_RX6+*%
X71090000Y25415000D02*
X71090000Y26005000D01*
X71922600Y22376872D02*
X72922600Y21376872D01*
X71090000Y26005000D02*
X71225000Y26140000D01*
X71625000Y26140000D02*
X71922600Y25842400D01*
X71225000Y26140000D02*
X71625000Y26140000D01*
X71922600Y25842400D02*
X71922600Y22376872D01*
X93700000Y-46085000D02*
X93700000Y-44385000D01*
X93700000Y-44385000D02*
X94047600Y-44037400D01*
X94047600Y-44037400D02*
X94047600Y-2923128D01*
X94047600Y-2923128D02*
X72922600Y18201872D01*
X72922600Y18201872D02*
X72922600Y21376872D01*
%TO.N,/CPU0_RX6-*%
X72227400Y22503128D02*
X72227400Y26499783D01*
X72227400Y26499783D02*
X72090000Y26637183D01*
X72090000Y26637183D02*
X72090000Y27415000D01*
X73227400Y21503128D02*
X72227400Y22503128D01*
X94700000Y-44385000D02*
X94352400Y-44037400D01*
X94700000Y-46085000D02*
X94700000Y-44385000D01*
X94352400Y-44037400D02*
X94352400Y-2796872D01*
X73227400Y18328128D02*
X73227400Y21503128D01*
X94352400Y-2796872D02*
X73227400Y18328128D01*
%TO.N,/CPU0_RX7+*%
X97700000Y-44385000D02*
X97700000Y-46085000D01*
X98047600Y-3973128D02*
X98047600Y-44037400D01*
X76922600Y17151872D02*
X98047600Y-3973128D01*
X76922600Y21376872D02*
X76922600Y17151872D01*
X75922600Y22376872D02*
X76922600Y21376872D01*
X75090000Y26005000D02*
X75225000Y26140000D01*
X98047600Y-44037400D02*
X97700000Y-44385000D01*
X75090000Y25415000D02*
X75090000Y26005000D01*
X75625000Y26140000D02*
X75922600Y25842400D01*
X75225000Y26140000D02*
X75625000Y26140000D01*
X75922600Y25842400D02*
X75922600Y22376872D01*
%TO.N,/CPU0_RX7-*%
X76090000Y26637183D02*
X76090000Y27415000D01*
X76227400Y26499783D02*
X76090000Y26637183D01*
X76227400Y22503128D02*
X76227400Y26499783D01*
X98700000Y-44385000D02*
X98352400Y-44037400D01*
X98352400Y-44037400D02*
X98352400Y-3846872D01*
X98352400Y-3846872D02*
X77227400Y17278128D01*
X77227400Y21503128D02*
X76227400Y22503128D01*
X98700000Y-46085000D02*
X98700000Y-44385000D01*
X77227400Y17278128D02*
X77227400Y21503128D01*
%TO.N,/CPU0_RX8+*%
X102700000Y-44385000D02*
X103047600Y-44037400D01*
X102700000Y-46085000D02*
X102700000Y-44385000D01*
X103047600Y-44037400D02*
X103047600Y-5673128D01*
X103047600Y-5673128D02*
X80922600Y16451872D01*
X80922600Y16451872D02*
X80922600Y21351872D01*
X80922600Y21351872D02*
X79947600Y22326872D01*
X79947600Y26494783D02*
X80090000Y26637183D01*
X80090000Y26637183D02*
X80090000Y27415000D01*
X79947600Y22326872D02*
X79947600Y26494783D01*
%TO.N,/CPU0_RX8-*%
X81090000Y25900000D02*
X81090000Y25415000D01*
X80825000Y26165000D02*
X81090000Y25900000D01*
X80475000Y26165000D02*
X80825000Y26165000D01*
X81227400Y21478128D02*
X80252400Y22453128D01*
X81227400Y16578128D02*
X81227400Y21478128D01*
X103352400Y-5546872D02*
X81227400Y16578128D01*
X103352400Y-44037400D02*
X103352400Y-5546872D01*
X80252400Y22453128D02*
X80252400Y25942400D01*
X80252400Y25942400D02*
X80475000Y26165000D01*
X103700000Y-46085000D02*
X103700000Y-44385000D01*
X103700000Y-44385000D02*
X103352400Y-44037400D01*
%TO.N,/CPU0_RX9+*%
X83947600Y26494783D02*
X83947600Y22326872D01*
X84090000Y26637183D02*
X83947600Y26494783D01*
X84090000Y27415000D02*
X84090000Y26637183D01*
X83947600Y22326872D02*
X84922600Y21351872D01*
X106700000Y-46085000D02*
X106700000Y-44385000D01*
X106700000Y-44385000D02*
X107047600Y-44037400D01*
X107047600Y-44037400D02*
X107047600Y-6223128D01*
X107047600Y-6223128D02*
X84922600Y15901872D01*
X84922600Y15901872D02*
X84922600Y21351872D01*
%TO.N,/CPU0_RX9-*%
X84475000Y26165000D02*
X84825000Y26165000D01*
X85090000Y25900000D02*
X85090000Y25415000D01*
X84252400Y25942400D02*
X84475000Y26165000D01*
X85227400Y21478128D02*
X84252400Y22453128D01*
X84825000Y26165000D02*
X85090000Y25900000D01*
X84252400Y22453128D02*
X84252400Y25942400D01*
X107700000Y-44385000D02*
X107352400Y-44037400D01*
X107700000Y-46085000D02*
X107700000Y-44385000D01*
X107352400Y-44037400D02*
X107352400Y-6096872D01*
X85227400Y16028128D02*
X85227400Y21478128D01*
X107352400Y-6096872D02*
X85227400Y16028128D01*
%TO.N,/CPU0_RX10+*%
X87947600Y26494783D02*
X87947600Y22326872D01*
X88090000Y26637183D02*
X87947600Y26494783D01*
X88090000Y27415000D02*
X88090000Y26637183D01*
X87947600Y22326872D02*
X88922600Y21351872D01*
X110700000Y-46085000D02*
X110700000Y-44385000D01*
X110700000Y-44385000D02*
X111047600Y-44037400D01*
X111047600Y-44037400D02*
X111047600Y-6923128D01*
X111047600Y-6923128D02*
X88922600Y15201872D01*
X88922600Y15201872D02*
X88922600Y21351872D01*
%TO.N,/CPU0_RX10-*%
X88475000Y26165000D02*
X88825000Y26165000D01*
X89090000Y25900000D02*
X89090000Y25415000D01*
X88252400Y25942400D02*
X88475000Y26165000D01*
X89227400Y21478128D02*
X88252400Y22453128D01*
X88825000Y26165000D02*
X89090000Y25900000D01*
X88252400Y22453128D02*
X88252400Y25942400D01*
X111700000Y-44385000D02*
X111352400Y-44037400D01*
X111700000Y-46085000D02*
X111700000Y-44385000D01*
X111352400Y-44037400D02*
X111352400Y-6796872D01*
X89227400Y15328128D02*
X89227400Y21478128D01*
X111352400Y-6796872D02*
X89227400Y15328128D01*
%TO.N,/CPU0_RX11+*%
X91947600Y26494783D02*
X91947600Y22326872D01*
X92090000Y26637183D02*
X91947600Y26494783D01*
X92090000Y27415000D02*
X92090000Y26637183D01*
X91947600Y22326872D02*
X92922600Y21351872D01*
X114700000Y-46085000D02*
X114700000Y-44385000D01*
X114700000Y-44385000D02*
X115047600Y-44037400D01*
X115047600Y-44037400D02*
X115047600Y-7523128D01*
X115047600Y-7523128D02*
X92922600Y14601872D01*
X92922600Y14601872D02*
X92922600Y21351872D01*
%TO.N,/CPU0_RX11-*%
X92475000Y26165000D02*
X92825000Y26165000D01*
X93090000Y25900000D02*
X93090000Y25415000D01*
X92252400Y25942400D02*
X92475000Y26165000D01*
X93227400Y21478128D02*
X92252400Y22453128D01*
X92825000Y26165000D02*
X93090000Y25900000D01*
X92252400Y22453128D02*
X92252400Y25942400D01*
X115700000Y-44385000D02*
X115352400Y-44037400D01*
X115700000Y-46085000D02*
X115700000Y-44385000D01*
X115352400Y-44037400D02*
X115352400Y-7396872D01*
X115352400Y-7396872D02*
X93227400Y14728128D01*
X93227400Y14728128D02*
X93227400Y21478128D01*
%TO.N,/CPU0_RX12+*%
X95947600Y26494783D02*
X95947600Y22326872D01*
X96090000Y26637183D02*
X95947600Y26494783D01*
X96090000Y27415000D02*
X96090000Y26637183D01*
X95947600Y22326872D02*
X96922600Y21351872D01*
X118700000Y-46085000D02*
X118700000Y-44385000D01*
X118700000Y-44385000D02*
X119047600Y-44037400D01*
X119047600Y-44037400D02*
X119047600Y-7948128D01*
X119047600Y-7948128D02*
X96922600Y14176872D01*
X96922600Y14176872D02*
X96922600Y21351872D01*
%TO.N,/CPU0_RX12-*%
X96475000Y26165000D02*
X96825000Y26165000D01*
X97090000Y25900000D02*
X97090000Y25415000D01*
X96252400Y25942400D02*
X96475000Y26165000D01*
X97227400Y21478128D02*
X96252400Y22453128D01*
X96825000Y26165000D02*
X97090000Y25900000D01*
X96252400Y22453128D02*
X96252400Y25942400D01*
X119700000Y-46085000D02*
X119700000Y-44385000D01*
X119700000Y-44385000D02*
X119352400Y-44037400D01*
X119352400Y-44037400D02*
X119352400Y-7821872D01*
X97227400Y14303128D02*
X97227400Y21478128D01*
X119352400Y-7821872D02*
X97227400Y14303128D01*
%TO.N,/CPU0_RX13+*%
X99947600Y26494783D02*
X99947600Y22326872D01*
X100090000Y26637183D02*
X99947600Y26494783D01*
X100090000Y27415000D02*
X100090000Y26637183D01*
X99947600Y22326872D02*
X100922600Y21351872D01*
X122700000Y-46085000D02*
X122700000Y-44385000D01*
X122700000Y-44385000D02*
X123047600Y-44037400D01*
X123047600Y-44037400D02*
X123047600Y-8398128D01*
X123047600Y-8398128D02*
X100922600Y13726872D01*
X100922600Y13726872D02*
X100922600Y21351872D01*
%TO.N,/CPU0_RX13-*%
X100475000Y26165000D02*
X100825000Y26165000D01*
X101090000Y25900000D02*
X101090000Y25415000D01*
X100252400Y25942400D02*
X100475000Y26165000D01*
X101227400Y21478128D02*
X100252400Y22453128D01*
X100825000Y26165000D02*
X101090000Y25900000D01*
X100252400Y22453128D02*
X100252400Y25942400D01*
X123700000Y-44385000D02*
X123352400Y-44037400D01*
X123700000Y-46085000D02*
X123700000Y-44385000D01*
X123352400Y-44037400D02*
X123352400Y-8271872D01*
X123352400Y-8271872D02*
X101227400Y13853128D01*
X101227400Y13853128D02*
X101227400Y21478128D01*
%TO.N,/CPU0_RX14+*%
X103947600Y26494783D02*
X103947600Y22326872D01*
X104090000Y26637183D02*
X103947600Y26494783D01*
X104090000Y27415000D02*
X104090000Y26637183D01*
X103947600Y22326872D02*
X104922600Y21351872D01*
X126700000Y-46085000D02*
X126700000Y-44385000D01*
X126700000Y-44385000D02*
X127047600Y-44037400D01*
X127047600Y-44037400D02*
X127047600Y-9148128D01*
X127047600Y-9148128D02*
X104922600Y12976872D01*
X104922600Y12976872D02*
X104922600Y21351872D01*
%TO.N,/CPU0_RX14-*%
X104475000Y26165000D02*
X104825000Y26165000D01*
X105090000Y25900000D02*
X105090000Y25415000D01*
X104252400Y25942400D02*
X104475000Y26165000D01*
X105227400Y21478128D02*
X104252400Y22453128D01*
X104825000Y26165000D02*
X105090000Y25900000D01*
X104252400Y22453128D02*
X104252400Y25942400D01*
X127700000Y-46085000D02*
X127700000Y-44385000D01*
X127700000Y-44385000D02*
X127352400Y-44037400D01*
X127352400Y-44037400D02*
X127352400Y-9021872D01*
X105227400Y13103128D02*
X105227400Y21478128D01*
X127352400Y-9021872D02*
X105227400Y13103128D01*
%TO.N,/CPU0_RX15+*%
X131047600Y-44037400D02*
X130700000Y-44385000D01*
X130700000Y-44385000D02*
X130700000Y-46085000D01*
X131047600Y-9873128D02*
X131047600Y-44037400D01*
X108922600Y12251872D02*
X131047600Y-9873128D01*
X108090000Y27415000D02*
X108090000Y26637183D01*
X108090000Y26637183D02*
X107947600Y26494783D01*
X108922600Y21351872D02*
X108922600Y12251872D01*
X107947600Y26494783D02*
X107947600Y22326872D01*
X107947600Y22326872D02*
X108922600Y21351872D01*
%TO.N,/CPU0_RX15-*%
X109090000Y25900000D02*
X109090000Y25415000D01*
X108825000Y26165000D02*
X109090000Y25900000D01*
X108252400Y25942400D02*
X108475000Y26165000D01*
X108252400Y22453128D02*
X108252400Y25942400D01*
X108475000Y26165000D02*
X108825000Y26165000D01*
X109227400Y21478128D02*
X108252400Y22453128D01*
X131352400Y-9746872D02*
X109227400Y12378128D01*
X131700000Y-44385000D02*
X131352400Y-44037400D01*
X131352400Y-44037400D02*
X131352400Y-9746872D01*
X131700000Y-46085000D02*
X131700000Y-44385000D01*
X109227400Y12378128D02*
X109227400Y21478128D01*
%TO.N,/Oculink_0_C_x4_TX0+*%
X27823800Y2965000D02*
X27922600Y2866200D01*
X27922600Y2866200D02*
X27922600Y803128D01*
X27922600Y803128D02*
X27497600Y378128D01*
X31948800Y-39260000D02*
X32047600Y-39161200D01*
X32047600Y-39161200D02*
X32047600Y-30848128D01*
X32047600Y-30848128D02*
X27497600Y-26298128D01*
X27497600Y-26298128D02*
X27497600Y378128D01*
%TO.N,/Oculink_0_C_x4_TX1+*%
X29497600Y-2073128D02*
X28997600Y-1573128D01*
X36948800Y-39285000D02*
X37047600Y-39186200D01*
X37047600Y-39186200D02*
X37047600Y-32598128D01*
X37047600Y-32598128D02*
X29497600Y-25048128D01*
X29497600Y-25048128D02*
X29497600Y-2073128D01*
X28997600Y-1573128D02*
X28997600Y141200D01*
X28997600Y141200D02*
X28898800Y240000D01*
%TO.N,/Oculink_0_C_x4_TX2+*%
X40948800Y-39360000D02*
X41047600Y-39261200D01*
X41047600Y-39261200D02*
X41047600Y-34273128D01*
X41047600Y-34273128D02*
X33997600Y-27223128D01*
X33997600Y-27223128D02*
X33997600Y-2933128D01*
X33997600Y-2933128D02*
X33497600Y-2433128D01*
X33497600Y-2433128D02*
X33497600Y141200D01*
X33497600Y141200D02*
X33398800Y240000D01*
%TO.N,/Oculink_0_C_x4_TX3+*%
X45047600Y-36148128D02*
X45047600Y-39311200D01*
X34563800Y3140000D02*
X34662600Y3041200D01*
X35487600Y-423128D02*
X35487600Y-26588128D01*
X34662600Y3041200D02*
X34662600Y401872D01*
X35487600Y-26588128D02*
X45047600Y-36148128D01*
X45047600Y-39311200D02*
X44948800Y-39410000D01*
X34662600Y401872D02*
X35487600Y-423128D01*
%TO.N,/Oculink_0_C_x4_TX0-*%
X28227400Y2866200D02*
X28227400Y676872D01*
X28326200Y2965000D02*
X28227400Y2866200D01*
X28227400Y676872D02*
X27802400Y251872D01*
X32352400Y-39161200D02*
X32352400Y-30721872D01*
X32451200Y-39260000D02*
X32352400Y-39161200D01*
X27802400Y-26171872D02*
X27802400Y251872D01*
X32352400Y-30721872D02*
X27802400Y-26171872D01*
%TO.N,/Oculink_0_C_x4_TX1-*%
X29802400Y-1946872D02*
X29302400Y-1446872D01*
X37451200Y-39285000D02*
X37352400Y-39186200D01*
X37352400Y-39186200D02*
X37352400Y-32471872D01*
X29802400Y-24921872D02*
X29802400Y-1946872D01*
X37352400Y-32471872D02*
X29802400Y-24921872D01*
X29302400Y-1446872D02*
X29302400Y141200D01*
X29302400Y141200D02*
X29401200Y240000D01*
%TO.N,/Oculink_0_C_x4_TX2-*%
X41352400Y-39261200D02*
X41352400Y-34146872D01*
X41451200Y-39360000D02*
X41352400Y-39261200D01*
X41352400Y-34146872D02*
X34302400Y-27096872D01*
X34302400Y-2806872D02*
X33802400Y-2306872D01*
X34302400Y-27096872D02*
X34302400Y-2806872D01*
X33802400Y-2306872D02*
X33802400Y141200D01*
X33802400Y141200D02*
X33901200Y240000D01*
%TO.N,/Oculink_0_C_x4_TX3-*%
X45352400Y-36021872D02*
X45352400Y-39311200D01*
X35792400Y-26461872D02*
X45352400Y-36021872D01*
X35066200Y3140000D02*
X34967400Y3041200D01*
X34967400Y528128D02*
X35792400Y-296872D01*
X34967400Y3041200D02*
X34967400Y528128D01*
X45352400Y-39311200D02*
X45451200Y-39410000D01*
X35792400Y-296872D02*
X35792400Y-26461872D01*
%TO.N,/Oculink_1_C_x4_TX0+*%
X52922600Y803128D02*
X52497600Y378128D01*
X52922600Y2866200D02*
X52922600Y803128D01*
X52823800Y2965000D02*
X52922600Y2866200D01*
X57047600Y-31496872D02*
X51047600Y-37496872D01*
X52497600Y378128D02*
X52497600Y-15073128D01*
X51047600Y-37496872D02*
X51047600Y-39486200D01*
X52497600Y-15073128D02*
X57047600Y-19623128D01*
X57047600Y-19623128D02*
X57047600Y-31496872D01*
X51047600Y-39486200D02*
X50948800Y-39585000D01*
%TO.N,/Oculink_1_C_x4_TX1+*%
X53997600Y-1573128D02*
X54497600Y-2073128D01*
X54497600Y-14198128D02*
X59047600Y-18748128D01*
X54497600Y-2073128D02*
X54497600Y-14198128D01*
X59047600Y-33246872D02*
X55047600Y-37246872D01*
X55047600Y-37246872D02*
X55047600Y-39461200D01*
X59047600Y-18748128D02*
X59047600Y-33246872D01*
X55047600Y-39461200D02*
X54948800Y-39560000D01*
X53997600Y-1573128D02*
X53997600Y141200D01*
X53997600Y141200D02*
X53898800Y240000D01*
%TO.N,/Oculink_1_C_x4_TX2+*%
X58497600Y-2433128D02*
X59047600Y-2983128D01*
X59047600Y-2983128D02*
X59047600Y-9673128D01*
X59047600Y-9673128D02*
X61047600Y-11673128D01*
X61047600Y-35396872D02*
X59047600Y-37396872D01*
X59047600Y-39461200D02*
X58948800Y-39560000D01*
X59047600Y-37396872D02*
X59047600Y-39461200D01*
X61047600Y-11673128D02*
X61047600Y-35396872D01*
X58497600Y-2433128D02*
X58497600Y141200D01*
X58497600Y141200D02*
X58398800Y240000D01*
%TO.N,/Oculink_1_C_x4_TX3+*%
X59563800Y3140000D02*
X59662600Y3041200D01*
X59662600Y401872D02*
X60487600Y-423128D01*
X60487600Y-4438128D02*
X63047600Y-6998128D01*
X60487600Y-423128D02*
X60487600Y-4438128D01*
X63047600Y-6998128D02*
X63047600Y-39361200D01*
X63047600Y-39361200D02*
X62948800Y-39460000D01*
X59662600Y3041200D02*
X59662600Y401872D01*
%TO.N,/Oculink_1_C_x4_TX0-*%
X51352400Y-39486200D02*
X51451200Y-39585000D01*
X52802400Y-14946872D02*
X57352400Y-19496872D01*
X52802400Y251872D02*
X52802400Y-14946872D01*
X53227400Y676872D02*
X52802400Y251872D01*
X57352400Y-31623128D02*
X51352400Y-37623128D01*
X57352400Y-19496872D02*
X57352400Y-31623128D01*
X51352400Y-37623128D02*
X51352400Y-39486200D01*
X53227400Y2866200D02*
X53227400Y676872D01*
X53326200Y2965000D02*
X53227400Y2866200D01*
%TO.N,/Oculink_1_C_x4_TX1-*%
X59352400Y-33373128D02*
X55352400Y-37373128D01*
X59352400Y-18621872D02*
X59352400Y-33373128D01*
X54802400Y-14071872D02*
X59352400Y-18621872D01*
X54302400Y-1446872D02*
X54802400Y-1946872D01*
X54802400Y-1946872D02*
X54802400Y-14071872D01*
X55352400Y-37373128D02*
X55352400Y-39461200D01*
X55352400Y-39461200D02*
X55451200Y-39560000D01*
X54302400Y141200D02*
X54401200Y240000D01*
X54302400Y-1446872D02*
X54302400Y141200D01*
%TO.N,/Oculink_1_C_x4_TX2-*%
X61352400Y-35523128D02*
X59352400Y-37523128D01*
X61352400Y-11546872D02*
X61352400Y-35523128D01*
X59352400Y-2856872D02*
X59352400Y-9546872D01*
X59352400Y-9546872D02*
X61352400Y-11546872D01*
X58802400Y-2306872D02*
X59352400Y-2856872D01*
X59352400Y-39461200D02*
X59451200Y-39560000D01*
X59352400Y-37523128D02*
X59352400Y-39461200D01*
X58802400Y141200D02*
X58901200Y240000D01*
X58802400Y-2306872D02*
X58802400Y141200D01*
%TO.N,/Oculink_1_C_x4_TX3-*%
X63352400Y-39361200D02*
X63451200Y-39460000D01*
X63352400Y-6871872D02*
X63352400Y-39361200D01*
X59967400Y3041200D02*
X59967400Y528128D01*
X60792400Y-4311872D02*
X63352400Y-6871872D01*
X60066200Y3140000D02*
X59967400Y3041200D01*
X59967400Y528128D02*
X60792400Y-296872D01*
X60792400Y-296872D02*
X60792400Y-4311872D01*
%TO.N,/Oculink_0_x4_RX0+*%
X33700000Y-46085000D02*
X33700000Y-44385000D01*
X33700000Y-44385000D02*
X34047600Y-44037400D01*
X34047600Y-44037400D02*
X34047600Y-38158800D01*
X34047600Y-38158800D02*
X33948800Y-38060000D01*
%TO.N,/Oculink_0_x4_RX0-*%
X34700000Y-44385000D02*
X34352400Y-44037400D01*
X34700000Y-46085000D02*
X34700000Y-44385000D01*
X34352400Y-38158800D02*
X34451200Y-38060000D01*
X34352400Y-44037400D02*
X34352400Y-38158800D01*
%TO.N,/Oculink_0_x4_RX1+*%
X38700000Y-46085000D02*
X38700000Y-44385000D01*
X38700000Y-44385000D02*
X39047600Y-44037400D01*
X39047600Y-44037400D02*
X39047600Y-38183800D01*
X39047600Y-38183800D02*
X38948800Y-38085000D01*
%TO.N,/Oculink_0_x4_RX1-*%
X39700000Y-44385000D02*
X39352400Y-44037400D01*
X39700000Y-46085000D02*
X39700000Y-44385000D01*
X39352400Y-38183800D02*
X39451200Y-38085000D01*
X39352400Y-44037400D02*
X39352400Y-38183800D01*
%TO.N,/Oculink_0_x4_RX2+*%
X42700000Y-46085000D02*
X42700000Y-44385000D01*
X42700000Y-44385000D02*
X43047600Y-44037400D01*
X43047600Y-38233800D02*
X42948800Y-38135000D01*
X43047600Y-44037400D02*
X43047600Y-38233800D01*
%TO.N,/Oculink_0_x4_RX2-*%
X43700000Y-44385000D02*
X43352400Y-44037400D01*
X43700000Y-46085000D02*
X43700000Y-44385000D01*
X43352400Y-38233800D02*
X43451200Y-38135000D01*
X43352400Y-44037400D02*
X43352400Y-38233800D01*
%TO.N,/Oculink_0_x4_RX3+*%
X46700000Y-46085000D02*
X46700000Y-44385000D01*
X46700000Y-44385000D02*
X47047600Y-44037400D01*
X47047600Y-44037400D02*
X47047600Y-38258800D01*
X47047600Y-38258800D02*
X46948800Y-38160000D01*
%TO.N,/Oculink_0_x4_RX3-*%
X47700000Y-46085000D02*
X47700000Y-44385000D01*
X47700000Y-44385000D02*
X47352400Y-44037400D01*
X47352400Y-38258800D02*
X47451200Y-38160000D01*
X47352400Y-44037400D02*
X47352400Y-38258800D01*
%TO.N,/Oculink_1_x4_RX0+*%
X52700000Y-46085000D02*
X52700000Y-44385000D01*
X52700000Y-44385000D02*
X53047600Y-44037400D01*
X53047600Y-38433800D02*
X52948800Y-38335000D01*
X53047600Y-44037400D02*
X53047600Y-38433800D01*
%TO.N,/Oculink_1_x4_RX0-*%
X53700000Y-46085000D02*
X53700000Y-44385000D01*
X53700000Y-44385000D02*
X53352400Y-44037400D01*
X53352400Y-38433800D02*
X53451200Y-38335000D01*
X53352400Y-44037400D02*
X53352400Y-38433800D01*
%TO.N,/Oculink_1_x4_RX1+*%
X56700000Y-46085000D02*
X56700000Y-44385000D01*
X56700000Y-44385000D02*
X57047600Y-44037400D01*
X57047600Y-38433800D02*
X56948800Y-38335000D01*
X57047600Y-44037400D02*
X57047600Y-38433800D01*
%TO.N,/Oculink_1_x4_RX1-*%
X57700000Y-44385000D02*
X57352400Y-44037400D01*
X57700000Y-46085000D02*
X57700000Y-44385000D01*
X57352400Y-38433800D02*
X57451200Y-38335000D01*
X57352400Y-44037400D02*
X57352400Y-38433800D01*
%TO.N,/Oculink_1_x4_RX2+*%
X60700000Y-46085000D02*
X60700000Y-44385000D01*
X60700000Y-44385000D02*
X61047600Y-44037400D01*
X61047600Y-38483800D02*
X60948800Y-38385000D01*
X61047600Y-44037400D02*
X61047600Y-38483800D01*
%TO.N,/Oculink_1_x4_RX2-*%
X61700000Y-46085000D02*
X61700000Y-44385000D01*
X61700000Y-44385000D02*
X61352400Y-44037400D01*
X61352400Y-38483800D02*
X61451200Y-38385000D01*
X61352400Y-44037400D02*
X61352400Y-38483800D01*
%TO.N,/Oculink_1_x4_RX3+*%
X64700000Y-46085000D02*
X64700000Y-44385000D01*
X64700000Y-44385000D02*
X65047600Y-44037400D01*
X65047600Y-38458800D02*
X64948800Y-38360000D01*
X64700000Y-46085000D02*
X64700000Y-43329738D01*
X64700000Y-43329738D02*
X65047600Y-42982138D01*
X65047600Y-42982138D02*
X65047600Y-38458800D01*
%TO.N,/Oculink_1_x4_RX3-*%
X65700000Y-44385000D02*
X65352400Y-44037400D01*
X65700000Y-46085000D02*
X65700000Y-44385000D01*
X65352400Y-42587399D02*
X65352400Y-38458800D01*
X65700000Y-42934999D02*
X65352400Y-42587399D01*
X65700000Y-46085000D02*
X65700000Y-42934999D01*
X65352400Y-38458800D02*
X65451200Y-38360000D01*
%TD*%
D25*
%TO.N,+3V3*%
G36*
X26090298Y-34119702D02*
G01*
X26123000Y-34198651D01*
X26123000Y-43359042D01*
X26000000Y-43346928D01*
X25885750Y-43350000D01*
X25727000Y-43508750D01*
X25727000Y-45958000D01*
X25747000Y-45958000D01*
X25747000Y-46212000D01*
X25727000Y-46212000D01*
X25727000Y-46232000D01*
X25496250Y-46232000D01*
X25476250Y-46212000D01*
X24723750Y-46212000D01*
X24703750Y-46232000D01*
X24473000Y-46232000D01*
X24473000Y-46212000D01*
X24453000Y-46212000D01*
X24453000Y-45958000D01*
X24473000Y-45958000D01*
X24473000Y-43985000D01*
X24561928Y-43985000D01*
X24565000Y-45799250D01*
X24723750Y-45958000D01*
X25476250Y-45958000D01*
X25635000Y-45799250D01*
X25638072Y-43985000D01*
X25625812Y-43860518D01*
X25589502Y-43740820D01*
X25530537Y-43630506D01*
X25473000Y-43560397D01*
X25473000Y-43508750D01*
X25314250Y-43350000D01*
X25200000Y-43346928D01*
X25100000Y-43356777D01*
X25000000Y-43346928D01*
X24885750Y-43350000D01*
X24727000Y-43508750D01*
X24727000Y-43560397D01*
X24669463Y-43630506D01*
X24610498Y-43740820D01*
X24574188Y-43860518D01*
X24561928Y-43985000D01*
X24473000Y-43985000D01*
X24473000Y-43508750D01*
X24314250Y-43350000D01*
X24200000Y-43346928D01*
X24075518Y-43359188D01*
X24052000Y-43366322D01*
X24052000Y-42337000D01*
X24049560Y-42312224D01*
X24042333Y-42288399D01*
X23952530Y-42071596D01*
X23940794Y-42049639D01*
X23925000Y-42030394D01*
X23547468Y-41652862D01*
X23477000Y-41482737D01*
X23477000Y-34437263D01*
X23547468Y-34267138D01*
X23657138Y-34157468D01*
X23827263Y-34087000D01*
X26011349Y-34087000D01*
X26090298Y-34119702D01*
G37*
X26090298Y-34119702D02*
X26123000Y-34198651D01*
X26123000Y-43359042D01*
X26000000Y-43346928D01*
X25885750Y-43350000D01*
X25727000Y-43508750D01*
X25727000Y-45958000D01*
X25747000Y-45958000D01*
X25747000Y-46212000D01*
X25727000Y-46212000D01*
X25727000Y-46232000D01*
X25496250Y-46232000D01*
X25476250Y-46212000D01*
X24723750Y-46212000D01*
X24703750Y-46232000D01*
X24473000Y-46232000D01*
X24473000Y-46212000D01*
X24453000Y-46212000D01*
X24453000Y-45958000D01*
X24473000Y-45958000D01*
X24473000Y-43985000D01*
X24561928Y-43985000D01*
X24565000Y-45799250D01*
X24723750Y-45958000D01*
X25476250Y-45958000D01*
X25635000Y-45799250D01*
X25638072Y-43985000D01*
X25625812Y-43860518D01*
X25589502Y-43740820D01*
X25530537Y-43630506D01*
X25473000Y-43560397D01*
X25473000Y-43508750D01*
X25314250Y-43350000D01*
X25200000Y-43346928D01*
X25100000Y-43356777D01*
X25000000Y-43346928D01*
X24885750Y-43350000D01*
X24727000Y-43508750D01*
X24727000Y-43560397D01*
X24669463Y-43630506D01*
X24610498Y-43740820D01*
X24574188Y-43860518D01*
X24561928Y-43985000D01*
X24473000Y-43985000D01*
X24473000Y-43508750D01*
X24314250Y-43350000D01*
X24200000Y-43346928D01*
X24075518Y-43359188D01*
X24052000Y-43366322D01*
X24052000Y-42337000D01*
X24049560Y-42312224D01*
X24042333Y-42288399D01*
X23952530Y-42071596D01*
X23940794Y-42049639D01*
X23925000Y-42030394D01*
X23547468Y-41652862D01*
X23477000Y-41482737D01*
X23477000Y-34437263D01*
X23547468Y-34267138D01*
X23657138Y-34157468D01*
X23827263Y-34087000D01*
X26011349Y-34087000D01*
X26090298Y-34119702D01*
%TO.N,+12V*%
G36*
X15998000Y26817000D02*
G01*
X16000440Y26792224D01*
X16007667Y26768399D01*
X16097470Y26551596D01*
X16109206Y26529639D01*
X16125000Y26510394D01*
X16820394Y25815000D01*
X16839640Y25799206D01*
X16861596Y25787470D01*
X17078399Y25697667D01*
X17102223Y25690440D01*
X17127000Y25688000D01*
X21939645Y25688000D01*
X21964421Y25690440D01*
X21988246Y25697667D01*
X22085618Y25738000D01*
X23048000Y25738000D01*
X23072776Y25740440D01*
X23096601Y25747667D01*
X23313404Y25837470D01*
X23335361Y25849206D01*
X23354606Y25865000D01*
X23454606Y25965000D01*
X26284772Y25965000D01*
X26284772Y24865000D01*
X26289676Y24815207D01*
X26304200Y24767328D01*
X26327786Y24723203D01*
X26359527Y24684527D01*
X26398203Y24652786D01*
X26442328Y24629200D01*
X26490207Y24614676D01*
X26540000Y24609772D01*
X27640000Y24609772D01*
X27689793Y24614676D01*
X27737672Y24629200D01*
X27781797Y24652786D01*
X27820473Y24684527D01*
X27852214Y24723203D01*
X27875800Y24767328D01*
X27890324Y24815207D01*
X27895228Y24865000D01*
X27895228Y25965000D01*
X27890324Y26014793D01*
X27875800Y26062672D01*
X27852214Y26106797D01*
X27820473Y26145473D01*
X27781797Y26177214D01*
X27737672Y26200800D01*
X27689793Y26215324D01*
X27640000Y26220228D01*
X26540000Y26220228D01*
X26490207Y26215324D01*
X26442328Y26200800D01*
X26398203Y26177214D01*
X26359527Y26145473D01*
X26327786Y26106797D01*
X26304200Y26062672D01*
X26289676Y26014793D01*
X26284772Y25965000D01*
X23454606Y25965000D01*
X23575000Y26085394D01*
X23590794Y26104640D01*
X23602530Y26126596D01*
X23692333Y26343399D01*
X23699560Y26367223D01*
X23702000Y26392000D01*
X23702000Y27494187D01*
X29286000Y27494187D01*
X29286000Y27335813D01*
X29316897Y27180482D01*
X29377505Y27034163D01*
X29465493Y26902480D01*
X29577480Y26790493D01*
X29709163Y26702505D01*
X29855482Y26641897D01*
X30010813Y26611000D01*
X30169187Y26611000D01*
X30324518Y26641897D01*
X30470837Y26702505D01*
X30602520Y26790493D01*
X30714507Y26902480D01*
X30802495Y27034163D01*
X30863103Y27180482D01*
X30894000Y27335813D01*
X30894000Y27494187D01*
X30863103Y27649518D01*
X30802495Y27795837D01*
X30714507Y27927520D01*
X30602520Y28039507D01*
X30470837Y28127495D01*
X30324518Y28188103D01*
X30169187Y28219000D01*
X30010813Y28219000D01*
X29855482Y28188103D01*
X29709163Y28127495D01*
X29577480Y28039507D01*
X29465493Y27927520D01*
X29377505Y27795837D01*
X29316897Y27649518D01*
X29286000Y27494187D01*
X23702000Y27494187D01*
X23702000Y28561000D01*
X31048000Y28561000D01*
X31048000Y26219000D01*
X31010813Y26219000D01*
X30855482Y26188103D01*
X30709163Y26127495D01*
X30577480Y26039507D01*
X30465493Y25927520D01*
X30377505Y25795837D01*
X30316897Y25649518D01*
X30286000Y25494187D01*
X30286000Y25335813D01*
X30316897Y25180482D01*
X30377505Y25034163D01*
X30465493Y24902480D01*
X30577480Y24790493D01*
X30709163Y24702505D01*
X30855482Y24641897D01*
X31010813Y24611000D01*
X31048000Y24611000D01*
X31048000Y23719000D01*
X31010813Y23719000D01*
X30855482Y23688103D01*
X30709163Y23627495D01*
X30577480Y23539507D01*
X30465493Y23427520D01*
X30377505Y23295837D01*
X30316897Y23149518D01*
X30286000Y22994187D01*
X30286000Y22835813D01*
X30316897Y22680482D01*
X30377505Y22534163D01*
X30465493Y22402480D01*
X30577480Y22290493D01*
X30709163Y22202505D01*
X30855482Y22141897D01*
X31010813Y22111000D01*
X31048000Y22111000D01*
X31048000Y20092263D01*
X30977532Y19922138D01*
X30417862Y19362468D01*
X30247737Y19292000D01*
X13977000Y19292000D01*
X13952224Y19289560D01*
X13928399Y19282333D01*
X13711596Y19192530D01*
X13689639Y19180794D01*
X13670394Y19165000D01*
X12800000Y18294606D01*
X12784206Y18275360D01*
X12772470Y18253404D01*
X12682667Y18036601D01*
X12675440Y18012777D01*
X12673000Y17988000D01*
X12673000Y-8682737D01*
X12602532Y-8852862D01*
X11717862Y-9737532D01*
X11547737Y-9808000D01*
X7354804Y-9808000D01*
X7422011Y-9794632D01*
X7513734Y-9756639D01*
X7596282Y-9701483D01*
X7666483Y-9631282D01*
X7721639Y-9548734D01*
X7759632Y-9457011D01*
X7779000Y-9359640D01*
X7779000Y-9260360D01*
X7759632Y-9162989D01*
X7721639Y-9071266D01*
X7666483Y-8988718D01*
X7596282Y-8918517D01*
X7513734Y-8863361D01*
X7422011Y-8825368D01*
X7324640Y-8806000D01*
X7225360Y-8806000D01*
X7127989Y-8825368D01*
X7036266Y-8863361D01*
X6953718Y-8918517D01*
X6883517Y-8988718D01*
X6828361Y-9071266D01*
X6790368Y-9162989D01*
X6771000Y-9260360D01*
X6771000Y-9359640D01*
X6790368Y-9457011D01*
X6828361Y-9548734D01*
X6883517Y-9631282D01*
X6953718Y-9701483D01*
X7036266Y-9756639D01*
X7127989Y-9794632D01*
X7195196Y-9808000D01*
X5948744Y-9808000D01*
X5971639Y-9773734D01*
X6009632Y-9682011D01*
X6029000Y-9584640D01*
X6029000Y-9485360D01*
X6009632Y-9387989D01*
X5971639Y-9296266D01*
X5916483Y-9213718D01*
X5846282Y-9143517D01*
X5763734Y-9088361D01*
X5672011Y-9050368D01*
X5574640Y-9031000D01*
X5475360Y-9031000D01*
X5377989Y-9050368D01*
X5286266Y-9088361D01*
X5203718Y-9143517D01*
X5133517Y-9213718D01*
X5078361Y-9296266D01*
X5040368Y-9387989D01*
X5021000Y-9485360D01*
X5021000Y-9584640D01*
X5040368Y-9682011D01*
X5078361Y-9773734D01*
X5101256Y-9808000D01*
X4877000Y-9808000D01*
X4852224Y-9810440D01*
X4828399Y-9817667D01*
X4611596Y-9907470D01*
X4589639Y-9919206D01*
X4570394Y-9935000D01*
X3450000Y-11055394D01*
X3434206Y-11074640D01*
X3422470Y-11096596D01*
X3332667Y-11313399D01*
X3325440Y-11337223D01*
X3323000Y-11362000D01*
X3323000Y-23008000D01*
X3325440Y-23032776D01*
X3332667Y-23056601D01*
X3422470Y-23273404D01*
X3434206Y-23295361D01*
X3450000Y-23314606D01*
X3670394Y-23535000D01*
X3689640Y-23550794D01*
X3711596Y-23562530D01*
X3928399Y-23652333D01*
X3952223Y-23659560D01*
X3977000Y-23662000D01*
X5570394Y-23662000D01*
X5623000Y-23714606D01*
X5623000Y-25483000D01*
X5625440Y-25507776D01*
X5632667Y-25531601D01*
X5722470Y-25748404D01*
X5734206Y-25770361D01*
X5750000Y-25789606D01*
X6070394Y-26110000D01*
X6089640Y-26125794D01*
X6111596Y-26137530D01*
X6328399Y-26227333D01*
X6352223Y-26234560D01*
X6377000Y-26237000D01*
X9698000Y-26237000D01*
X9722776Y-26234560D01*
X9746601Y-26227333D01*
X9963404Y-26137530D01*
X9985361Y-26125794D01*
X10004606Y-26110000D01*
X10282138Y-25832468D01*
X10452263Y-25762000D01*
X10947737Y-25762000D01*
X11117862Y-25832468D01*
X12070394Y-26785000D01*
X12089640Y-26800794D01*
X12111596Y-26812530D01*
X12328399Y-26902333D01*
X12352223Y-26909560D01*
X12377000Y-26912000D01*
X14247737Y-26912000D01*
X14417862Y-26982468D01*
X20152532Y-32717138D01*
X20223000Y-32887263D01*
X20223000Y-41382737D01*
X20152532Y-41552862D01*
X19050000Y-42655394D01*
X19034206Y-42674640D01*
X19022470Y-42696596D01*
X18932667Y-42913399D01*
X18925440Y-42937223D01*
X18923000Y-42962000D01*
X18923000Y-48158000D01*
X17255228Y-48158000D01*
X17255228Y-43985000D01*
X17250324Y-43935207D01*
X17235800Y-43887328D01*
X17212214Y-43843203D01*
X17180473Y-43804527D01*
X17141797Y-43772786D01*
X17097672Y-43749200D01*
X17049793Y-43734676D01*
X17000000Y-43729772D01*
X16954000Y-43729772D01*
X16954000Y-42693765D01*
X16991483Y-42656282D01*
X17046639Y-42573734D01*
X17084632Y-42482011D01*
X17104000Y-42384640D01*
X17104000Y-42285360D01*
X17084632Y-42187989D01*
X17046639Y-42096266D01*
X16991483Y-42013718D01*
X16921282Y-41943517D01*
X16838734Y-41888361D01*
X16747011Y-41850368D01*
X16649640Y-41831000D01*
X16550360Y-41831000D01*
X16452989Y-41850368D01*
X16361266Y-41888361D01*
X16354000Y-41893216D01*
X16354000Y-33532618D01*
X16352476Y-33517142D01*
X16352519Y-33510934D01*
X16352037Y-33506015D01*
X16331636Y-33311918D01*
X16325179Y-33280462D01*
X16319172Y-33248974D01*
X16317744Y-33244242D01*
X16260032Y-33057804D01*
X16247580Y-33028181D01*
X16235579Y-32998478D01*
X16233259Y-32994113D01*
X16140434Y-32822437D01*
X16122485Y-32795826D01*
X16104923Y-32768989D01*
X16101799Y-32765158D01*
X15977395Y-32614780D01*
X15954604Y-32592147D01*
X15932181Y-32569250D01*
X15928378Y-32566104D01*
X15928372Y-32566098D01*
X15928365Y-32566094D01*
X15777130Y-32442749D01*
X15750406Y-32424994D01*
X15723933Y-32406867D01*
X15719585Y-32404516D01*
X15547263Y-32312890D01*
X15517557Y-32300647D01*
X15488109Y-32288025D01*
X15483387Y-32286563D01*
X15296551Y-32230154D01*
X15265055Y-32223918D01*
X15233694Y-32217252D01*
X15228778Y-32216734D01*
X15034545Y-32197690D01*
X15034541Y-32197690D01*
X15017382Y-32196000D01*
X-1568468Y-32196000D01*
X-1710931Y-32182032D01*
X-1831313Y-32145687D01*
X-1942339Y-32086654D01*
X-2052827Y-31996541D01*
X-3444544Y-30604826D01*
X-3535405Y-30494211D01*
X-3594827Y-30383389D01*
X-3631590Y-30263140D01*
X-3646000Y-30121281D01*
X-3646000Y340189D01*
X-3454000Y340189D01*
X-3454000Y-340189D01*
X-3321264Y-1007495D01*
X-3060895Y-1636082D01*
X-2682897Y-2201796D01*
X-2201796Y-2682897D01*
X-1636082Y-3060895D01*
X-1007495Y-3321264D01*
X-340189Y-3454000D01*
X340189Y-3454000D01*
X1007495Y-3321264D01*
X1636082Y-3060895D01*
X2201796Y-2682897D01*
X2682897Y-2201796D01*
X3060895Y-1636082D01*
X3321264Y-1007495D01*
X3454000Y-340189D01*
X3454000Y340189D01*
X3321264Y1007495D01*
X3060895Y1636082D01*
X2682897Y2201796D01*
X2201796Y2682897D01*
X1636082Y3060895D01*
X1007495Y3321264D01*
X340189Y3454000D01*
X-340189Y3454000D01*
X-1007495Y3321264D01*
X-1636082Y3060895D01*
X-2201796Y2682897D01*
X-2682897Y2201796D01*
X-3060895Y1636082D01*
X-3321264Y1007495D01*
X-3454000Y340189D01*
X-3646000Y340189D01*
X-3646000Y20994187D01*
X29286000Y20994187D01*
X29286000Y20835813D01*
X29316897Y20680482D01*
X29377505Y20534163D01*
X29465493Y20402480D01*
X29577480Y20290493D01*
X29709163Y20202505D01*
X29855482Y20141897D01*
X30010813Y20111000D01*
X30169187Y20111000D01*
X30324518Y20141897D01*
X30470837Y20202505D01*
X30602520Y20290493D01*
X30714507Y20402480D01*
X30802495Y20534163D01*
X30863103Y20680482D01*
X30894000Y20835813D01*
X30894000Y20994187D01*
X30863103Y21149518D01*
X30802495Y21295837D01*
X30714507Y21427520D01*
X30602520Y21539507D01*
X30470837Y21627495D01*
X30324518Y21688103D01*
X30169187Y21719000D01*
X30010813Y21719000D01*
X29855482Y21688103D01*
X29709163Y21627495D01*
X29577480Y21539507D01*
X29465493Y21427520D01*
X29377505Y21295837D01*
X29316897Y21149518D01*
X29286000Y20994187D01*
X-3646000Y20994187D01*
X-3646000Y27768370D01*
X-2853368Y28561000D01*
X15998000Y28561000D01*
X15998000Y26817000D01*
G37*
X15998000Y26817000D02*
X16000440Y26792224D01*
X16007667Y26768399D01*
X16097470Y26551596D01*
X16109206Y26529639D01*
X16125000Y26510394D01*
X16820394Y25815000D01*
X16839640Y25799206D01*
X16861596Y25787470D01*
X17078399Y25697667D01*
X17102223Y25690440D01*
X17127000Y25688000D01*
X21939645Y25688000D01*
X21964421Y25690440D01*
X21988246Y25697667D01*
X22085618Y25738000D01*
X23048000Y25738000D01*
X23072776Y25740440D01*
X23096601Y25747667D01*
X23313404Y25837470D01*
X23335361Y25849206D01*
X23354606Y25865000D01*
X23454606Y25965000D01*
X26284772Y25965000D01*
X26284772Y24865000D01*
X26289676Y24815207D01*
X26304200Y24767328D01*
X26327786Y24723203D01*
X26359527Y24684527D01*
X26398203Y24652786D01*
X26442328Y24629200D01*
X26490207Y24614676D01*
X26540000Y24609772D01*
X27640000Y24609772D01*
X27689793Y24614676D01*
X27737672Y24629200D01*
X27781797Y24652786D01*
X27820473Y24684527D01*
X27852214Y24723203D01*
X27875800Y24767328D01*
X27890324Y24815207D01*
X27895228Y24865000D01*
X27895228Y25965000D01*
X27890324Y26014793D01*
X27875800Y26062672D01*
X27852214Y26106797D01*
X27820473Y26145473D01*
X27781797Y26177214D01*
X27737672Y26200800D01*
X27689793Y26215324D01*
X27640000Y26220228D01*
X26540000Y26220228D01*
X26490207Y26215324D01*
X26442328Y26200800D01*
X26398203Y26177214D01*
X26359527Y26145473D01*
X26327786Y26106797D01*
X26304200Y26062672D01*
X26289676Y26014793D01*
X26284772Y25965000D01*
X23454606Y25965000D01*
X23575000Y26085394D01*
X23590794Y26104640D01*
X23602530Y26126596D01*
X23692333Y26343399D01*
X23699560Y26367223D01*
X23702000Y26392000D01*
X23702000Y27494187D01*
X29286000Y27494187D01*
X29286000Y27335813D01*
X29316897Y27180482D01*
X29377505Y27034163D01*
X29465493Y26902480D01*
X29577480Y26790493D01*
X29709163Y26702505D01*
X29855482Y26641897D01*
X30010813Y26611000D01*
X30169187Y26611000D01*
X30324518Y26641897D01*
X30470837Y26702505D01*
X30602520Y26790493D01*
X30714507Y26902480D01*
X30802495Y27034163D01*
X30863103Y27180482D01*
X30894000Y27335813D01*
X30894000Y27494187D01*
X30863103Y27649518D01*
X30802495Y27795837D01*
X30714507Y27927520D01*
X30602520Y28039507D01*
X30470837Y28127495D01*
X30324518Y28188103D01*
X30169187Y28219000D01*
X30010813Y28219000D01*
X29855482Y28188103D01*
X29709163Y28127495D01*
X29577480Y28039507D01*
X29465493Y27927520D01*
X29377505Y27795837D01*
X29316897Y27649518D01*
X29286000Y27494187D01*
X23702000Y27494187D01*
X23702000Y28561000D01*
X31048000Y28561000D01*
X31048000Y26219000D01*
X31010813Y26219000D01*
X30855482Y26188103D01*
X30709163Y26127495D01*
X30577480Y26039507D01*
X30465493Y25927520D01*
X30377505Y25795837D01*
X30316897Y25649518D01*
X30286000Y25494187D01*
X30286000Y25335813D01*
X30316897Y25180482D01*
X30377505Y25034163D01*
X30465493Y24902480D01*
X30577480Y24790493D01*
X30709163Y24702505D01*
X30855482Y24641897D01*
X31010813Y24611000D01*
X31048000Y24611000D01*
X31048000Y23719000D01*
X31010813Y23719000D01*
X30855482Y23688103D01*
X30709163Y23627495D01*
X30577480Y23539507D01*
X30465493Y23427520D01*
X30377505Y23295837D01*
X30316897Y23149518D01*
X30286000Y22994187D01*
X30286000Y22835813D01*
X30316897Y22680482D01*
X30377505Y22534163D01*
X30465493Y22402480D01*
X30577480Y22290493D01*
X30709163Y22202505D01*
X30855482Y22141897D01*
X31010813Y22111000D01*
X31048000Y22111000D01*
X31048000Y20092263D01*
X30977532Y19922138D01*
X30417862Y19362468D01*
X30247737Y19292000D01*
X13977000Y19292000D01*
X13952224Y19289560D01*
X13928399Y19282333D01*
X13711596Y19192530D01*
X13689639Y19180794D01*
X13670394Y19165000D01*
X12800000Y18294606D01*
X12784206Y18275360D01*
X12772470Y18253404D01*
X12682667Y18036601D01*
X12675440Y18012777D01*
X12673000Y17988000D01*
X12673000Y-8682737D01*
X12602532Y-8852862D01*
X11717862Y-9737532D01*
X11547737Y-9808000D01*
X7354804Y-9808000D01*
X7422011Y-9794632D01*
X7513734Y-9756639D01*
X7596282Y-9701483D01*
X7666483Y-9631282D01*
X7721639Y-9548734D01*
X7759632Y-9457011D01*
X7779000Y-9359640D01*
X7779000Y-9260360D01*
X7759632Y-9162989D01*
X7721639Y-9071266D01*
X7666483Y-8988718D01*
X7596282Y-8918517D01*
X7513734Y-8863361D01*
X7422011Y-8825368D01*
X7324640Y-8806000D01*
X7225360Y-8806000D01*
X7127989Y-8825368D01*
X7036266Y-8863361D01*
X6953718Y-8918517D01*
X6883517Y-8988718D01*
X6828361Y-9071266D01*
X6790368Y-9162989D01*
X6771000Y-9260360D01*
X6771000Y-9359640D01*
X6790368Y-9457011D01*
X6828361Y-9548734D01*
X6883517Y-9631282D01*
X6953718Y-9701483D01*
X7036266Y-9756639D01*
X7127989Y-9794632D01*
X7195196Y-9808000D01*
X5948744Y-9808000D01*
X5971639Y-9773734D01*
X6009632Y-9682011D01*
X6029000Y-9584640D01*
X6029000Y-9485360D01*
X6009632Y-9387989D01*
X5971639Y-9296266D01*
X5916483Y-9213718D01*
X5846282Y-9143517D01*
X5763734Y-9088361D01*
X5672011Y-9050368D01*
X5574640Y-9031000D01*
X5475360Y-9031000D01*
X5377989Y-9050368D01*
X5286266Y-9088361D01*
X5203718Y-9143517D01*
X5133517Y-9213718D01*
X5078361Y-9296266D01*
X5040368Y-9387989D01*
X5021000Y-9485360D01*
X5021000Y-9584640D01*
X5040368Y-9682011D01*
X5078361Y-9773734D01*
X5101256Y-9808000D01*
X4877000Y-9808000D01*
X4852224Y-9810440D01*
X4828399Y-9817667D01*
X4611596Y-9907470D01*
X4589639Y-9919206D01*
X4570394Y-9935000D01*
X3450000Y-11055394D01*
X3434206Y-11074640D01*
X3422470Y-11096596D01*
X3332667Y-11313399D01*
X3325440Y-11337223D01*
X3323000Y-11362000D01*
X3323000Y-23008000D01*
X3325440Y-23032776D01*
X3332667Y-23056601D01*
X3422470Y-23273404D01*
X3434206Y-23295361D01*
X3450000Y-23314606D01*
X3670394Y-23535000D01*
X3689640Y-23550794D01*
X3711596Y-23562530D01*
X3928399Y-23652333D01*
X3952223Y-23659560D01*
X3977000Y-23662000D01*
X5570394Y-23662000D01*
X5623000Y-23714606D01*
X5623000Y-25483000D01*
X5625440Y-25507776D01*
X5632667Y-25531601D01*
X5722470Y-25748404D01*
X5734206Y-25770361D01*
X5750000Y-25789606D01*
X6070394Y-26110000D01*
X6089640Y-26125794D01*
X6111596Y-26137530D01*
X6328399Y-26227333D01*
X6352223Y-26234560D01*
X6377000Y-26237000D01*
X9698000Y-26237000D01*
X9722776Y-26234560D01*
X9746601Y-26227333D01*
X9963404Y-26137530D01*
X9985361Y-26125794D01*
X10004606Y-26110000D01*
X10282138Y-25832468D01*
X10452263Y-25762000D01*
X10947737Y-25762000D01*
X11117862Y-25832468D01*
X12070394Y-26785000D01*
X12089640Y-26800794D01*
X12111596Y-26812530D01*
X12328399Y-26902333D01*
X12352223Y-26909560D01*
X12377000Y-26912000D01*
X14247737Y-26912000D01*
X14417862Y-26982468D01*
X20152532Y-32717138D01*
X20223000Y-32887263D01*
X20223000Y-41382737D01*
X20152532Y-41552862D01*
X19050000Y-42655394D01*
X19034206Y-42674640D01*
X19022470Y-42696596D01*
X18932667Y-42913399D01*
X18925440Y-42937223D01*
X18923000Y-42962000D01*
X18923000Y-48158000D01*
X17255228Y-48158000D01*
X17255228Y-43985000D01*
X17250324Y-43935207D01*
X17235800Y-43887328D01*
X17212214Y-43843203D01*
X17180473Y-43804527D01*
X17141797Y-43772786D01*
X17097672Y-43749200D01*
X17049793Y-43734676D01*
X17000000Y-43729772D01*
X16954000Y-43729772D01*
X16954000Y-42693765D01*
X16991483Y-42656282D01*
X17046639Y-42573734D01*
X17084632Y-42482011D01*
X17104000Y-42384640D01*
X17104000Y-42285360D01*
X17084632Y-42187989D01*
X17046639Y-42096266D01*
X16991483Y-42013718D01*
X16921282Y-41943517D01*
X16838734Y-41888361D01*
X16747011Y-41850368D01*
X16649640Y-41831000D01*
X16550360Y-41831000D01*
X16452989Y-41850368D01*
X16361266Y-41888361D01*
X16354000Y-41893216D01*
X16354000Y-33532618D01*
X16352476Y-33517142D01*
X16352519Y-33510934D01*
X16352037Y-33506015D01*
X16331636Y-33311918D01*
X16325179Y-33280462D01*
X16319172Y-33248974D01*
X16317744Y-33244242D01*
X16260032Y-33057804D01*
X16247580Y-33028181D01*
X16235579Y-32998478D01*
X16233259Y-32994113D01*
X16140434Y-32822437D01*
X16122485Y-32795826D01*
X16104923Y-32768989D01*
X16101799Y-32765158D01*
X15977395Y-32614780D01*
X15954604Y-32592147D01*
X15932181Y-32569250D01*
X15928378Y-32566104D01*
X15928372Y-32566098D01*
X15928365Y-32566094D01*
X15777130Y-32442749D01*
X15750406Y-32424994D01*
X15723933Y-32406867D01*
X15719585Y-32404516D01*
X15547263Y-32312890D01*
X15517557Y-32300647D01*
X15488109Y-32288025D01*
X15483387Y-32286563D01*
X15296551Y-32230154D01*
X15265055Y-32223918D01*
X15233694Y-32217252D01*
X15228778Y-32216734D01*
X15034545Y-32197690D01*
X15034541Y-32197690D01*
X15017382Y-32196000D01*
X-1568468Y-32196000D01*
X-1710931Y-32182032D01*
X-1831313Y-32145687D01*
X-1942339Y-32086654D01*
X-2052827Y-31996541D01*
X-3444544Y-30604826D01*
X-3535405Y-30494211D01*
X-3594827Y-30383389D01*
X-3631590Y-30263140D01*
X-3646000Y-30121281D01*
X-3646000Y340189D01*
X-3454000Y340189D01*
X-3454000Y-340189D01*
X-3321264Y-1007495D01*
X-3060895Y-1636082D01*
X-2682897Y-2201796D01*
X-2201796Y-2682897D01*
X-1636082Y-3060895D01*
X-1007495Y-3321264D01*
X-340189Y-3454000D01*
X340189Y-3454000D01*
X1007495Y-3321264D01*
X1636082Y-3060895D01*
X2201796Y-2682897D01*
X2682897Y-2201796D01*
X3060895Y-1636082D01*
X3321264Y-1007495D01*
X3454000Y-340189D01*
X3454000Y340189D01*
X3321264Y1007495D01*
X3060895Y1636082D01*
X2682897Y2201796D01*
X2201796Y2682897D01*
X1636082Y3060895D01*
X1007495Y3321264D01*
X340189Y3454000D01*
X-340189Y3454000D01*
X-1007495Y3321264D01*
X-1636082Y3060895D01*
X-2201796Y2682897D01*
X-2682897Y2201796D01*
X-3060895Y1636082D01*
X-3321264Y1007495D01*
X-3454000Y340189D01*
X-3646000Y340189D01*
X-3646000Y20994187D01*
X29286000Y20994187D01*
X29286000Y20835813D01*
X29316897Y20680482D01*
X29377505Y20534163D01*
X29465493Y20402480D01*
X29577480Y20290493D01*
X29709163Y20202505D01*
X29855482Y20141897D01*
X30010813Y20111000D01*
X30169187Y20111000D01*
X30324518Y20141897D01*
X30470837Y20202505D01*
X30602520Y20290493D01*
X30714507Y20402480D01*
X30802495Y20534163D01*
X30863103Y20680482D01*
X30894000Y20835813D01*
X30894000Y20994187D01*
X30863103Y21149518D01*
X30802495Y21295837D01*
X30714507Y21427520D01*
X30602520Y21539507D01*
X30470837Y21627495D01*
X30324518Y21688103D01*
X30169187Y21719000D01*
X30010813Y21719000D01*
X29855482Y21688103D01*
X29709163Y21627495D01*
X29577480Y21539507D01*
X29465493Y21427520D01*
X29377505Y21295837D01*
X29316897Y21149518D01*
X29286000Y20994187D01*
X-3646000Y20994187D01*
X-3646000Y27768370D01*
X-2853368Y28561000D01*
X15998000Y28561000D01*
X15998000Y26817000D01*
%TD*%
M02*
