%TF.GenerationSoftware,KiCad,Pcbnew,(5.1.5)-3*%
%TF.CreationDate,2022-01-08T01:18:32+01:00*%
%TF.ProjectId,Riser Leopard 2OU PCIe x16 2xOculink,52697365-7220-44c6-956f-706172642032,rev?*%
%TF.SameCoordinates,PX459e440PY54cbc38*%
%TF.FileFunction,Copper,L4,Inr*%
%TF.FilePolarity,Positive*%
%FSLAX46Y46*%
G04 Gerber Fmt 4.6, Leading zero omitted, Abs format (unit mm)*
G04 Created by KiCad (PCBNEW (5.1.5)-3) date 2022-01-08 01:18:32*
%MOMM*%
%LPD*%
G04 APERTURE LIST*
%TA.AperFunction,ViaPad*%
%ADD10C,0.800000*%
%TD*%
%TA.AperFunction,ViaPad*%
%ADD11C,6.400000*%
%TD*%
%TA.AperFunction,WasherPad*%
%ADD12C,2.600000*%
%TD*%
%TA.AperFunction,ViaPad*%
%ADD13R,1.100000X1.100000*%
%TD*%
%TA.AperFunction,ViaPad*%
%ADD14C,1.100000*%
%TD*%
%TA.AperFunction,ViaPad*%
%ADD15C,1.500000*%
%TD*%
%TA.AperFunction,WasherPad*%
%ADD16C,1.150000*%
%TD*%
%TA.AperFunction,ViaPad*%
%ADD17C,0.400000*%
%TD*%
%TA.AperFunction,ViaPad*%
%ADD18C,0.500000*%
%TD*%
%TA.AperFunction,ViaPad*%
%ADD19C,0.600000*%
%TD*%
%TA.AperFunction,ViaPad*%
%ADD20C,0.350000*%
%TD*%
%TA.AperFunction,Conductor*%
%ADD21C,0.254000*%
%TD*%
G04 APERTURE END LIST*
D10*
%TO.N,GND*%
%TO.C,H1*%
X1697056Y1697056D03*
X0Y2400000D03*
X-1697056Y1697056D03*
X-2400000Y0D03*
X-1697056Y-1697056D03*
X0Y-2400000D03*
X1697056Y-1697056D03*
X2400000Y0D03*
D11*
X0Y0D03*
%TD*%
%TO.N,GND*%
%TO.C,H2*%
X133900000Y0D03*
D10*
X136300000Y0D03*
X135597056Y-1697056D03*
X133900000Y-2400000D03*
X132202944Y-1697056D03*
X131500000Y0D03*
X132202944Y1697056D03*
X133900000Y2400000D03*
X135597056Y1697056D03*
%TD*%
D12*
%TO.N,*%
%TO.C,J2*%
X38740000Y24165000D03*
X111890000Y24165000D03*
D13*
%TO.N,/PCIE_SLOT_PRSNT#1*%
X27090000Y25415000D03*
D14*
%TO.N,+12V*%
X28090000Y27415000D03*
X29090000Y25415000D03*
%TO.N,GND*%
X30090000Y27415000D03*
%TO.N,Net-(J2-PadA5)*%
X31090000Y25415000D03*
%TO.N,Net-(J2-PadA6)*%
X32090000Y27415000D03*
%TO.N,Net-(J2-PadA7)*%
X33090000Y25415000D03*
%TO.N,Net-(J2-PadA8)*%
X34090000Y27415000D03*
%TO.N,+3V3*%
X35090000Y25415000D03*
X36090000Y27415000D03*
%TO.N,/RST_PERST0_N*%
X37090000Y25415000D03*
%TO.N,GND*%
X40090000Y27415000D03*
%TO.N,/CLK100_SLOT0+*%
X41090000Y25415000D03*
%TO.N,/CLK100_SLOT0-*%
X42090000Y27415000D03*
%TO.N,GND*%
X43090000Y25415000D03*
%TO.N,/CPU0_RX0+*%
X44090000Y27415000D03*
%TO.N,/CPU0_RX0-*%
X45090000Y25415000D03*
%TO.N,GND*%
X46090000Y27415000D03*
%TO.N,Net-(J2-PadA19)*%
X47090000Y25415000D03*
%TO.N,GND*%
X48090000Y27415000D03*
%TO.N,/CPU0_RX1+*%
X49090000Y25415000D03*
%TO.N,/CPU0_RX1-*%
X50090000Y27415000D03*
%TO.N,GND*%
X51090000Y25415000D03*
X52090000Y27415000D03*
%TO.N,/CPU0_RX2+*%
X53090000Y25415000D03*
%TO.N,/CPU0_RX2-*%
X54090000Y27415000D03*
%TO.N,GND*%
X55090000Y25415000D03*
X56090000Y27415000D03*
%TO.N,/CPU0_RX3+*%
X57090000Y25415000D03*
%TO.N,/CPU0_RX3-*%
X58090000Y27415000D03*
%TO.N,GND*%
X59090000Y25415000D03*
%TO.N,/LAN_SMB_CLK*%
X60090000Y27415000D03*
%TO.N,/LAN_SMB_DAT*%
X61090000Y25415000D03*
%TO.N,GND*%
X62090000Y27415000D03*
%TO.N,/CPU0_RX4+*%
X63090000Y25415000D03*
%TO.N,/CPU0_RX4-*%
X64090000Y27415000D03*
%TO.N,GND*%
X65090000Y25415000D03*
X66090000Y27415000D03*
%TO.N,/CPU0_RX5+*%
X67090000Y25415000D03*
%TO.N,/CPU0_RX5-*%
X68090000Y27415000D03*
%TO.N,GND*%
X69090000Y25415000D03*
X70090000Y27415000D03*
%TO.N,/CPU0_RX6+*%
X71090000Y25415000D03*
%TO.N,/CPU0_RX6-*%
X72090000Y27415000D03*
%TO.N,GND*%
X73090000Y25415000D03*
X74090000Y27415000D03*
%TO.N,/CPU0_RX7+*%
X75090000Y25415000D03*
%TO.N,/CPU0_RX7-*%
X76090000Y27415000D03*
%TO.N,GND*%
X77090000Y25415000D03*
X78090000Y27415000D03*
X79090000Y25415000D03*
%TO.N,/CPU0_RX8+*%
X80090000Y27415000D03*
%TO.N,/CPU0_RX8-*%
X81090000Y25415000D03*
%TO.N,GND*%
X82090000Y27415000D03*
X83090000Y25415000D03*
%TO.N,/CPU0_RX9+*%
X84090000Y27415000D03*
%TO.N,/CPU0_RX9-*%
X85090000Y25415000D03*
%TO.N,GND*%
X86090000Y27415000D03*
X87090000Y25415000D03*
%TO.N,/CPU0_RX10+*%
X88090000Y27415000D03*
%TO.N,/CPU0_RX10-*%
X89090000Y25415000D03*
%TO.N,GND*%
X90090000Y27415000D03*
X91090000Y25415000D03*
%TO.N,/CPU0_RX11+*%
X92090000Y27415000D03*
%TO.N,/CPU0_RX11-*%
X93090000Y25415000D03*
%TO.N,GND*%
X94090000Y27415000D03*
X95090000Y25415000D03*
%TO.N,/CPU0_RX12+*%
X96090000Y27415000D03*
%TO.N,/CPU0_RX12-*%
X97090000Y25415000D03*
%TO.N,GND*%
X98090000Y27415000D03*
X99090000Y25415000D03*
%TO.N,/CPU0_RX13+*%
X100090000Y27415000D03*
%TO.N,/CPU0_RX13-*%
X101090000Y25415000D03*
%TO.N,GND*%
X102090000Y27415000D03*
X103090000Y25415000D03*
%TO.N,/CPU0_RX14+*%
X104090000Y27415000D03*
%TO.N,/CPU0_RX14-*%
X105090000Y25415000D03*
%TO.N,GND*%
X106090000Y27415000D03*
X107090000Y25415000D03*
%TO.N,/CPU0_RX15+*%
X108090000Y27415000D03*
%TO.N,/CPU0_RX15-*%
X109090000Y25415000D03*
%TO.N,+12V*%
X27090000Y22915000D03*
X28090000Y20915000D03*
X29090000Y22915000D03*
%TO.N,GND*%
X30090000Y20915000D03*
%TO.N,/PCIe_SMB_CLK*%
X31090000Y22915000D03*
%TO.N,/PCIe_SMB_DATA*%
X32090000Y20915000D03*
%TO.N,GND*%
X33090000Y22915000D03*
%TO.N,+3V3*%
X34090000Y20915000D03*
%TO.N,Net-(J2-PadB9)*%
X35090000Y22915000D03*
%TO.N,+3.3Vaux*%
X36090000Y20915000D03*
%TO.N,/IRQ_LVC_WAKE_N*%
X37090000Y22915000D03*
%TO.N,/LAN_SMB_ALERT_N*%
X40090000Y20915000D03*
%TO.N,GND*%
X41090000Y22915000D03*
%TO.N,/CPU0_TX0+*%
X42090000Y20915000D03*
%TO.N,/CPU0_TX0-*%
X43090000Y22915000D03*
%TO.N,GND*%
X44090000Y20915000D03*
%TO.N,Net-(J2-PadB17)*%
X45090000Y22915000D03*
%TO.N,GND*%
X46090000Y20915000D03*
%TO.N,/CPU0_TX1+*%
X47090000Y22915000D03*
%TO.N,/CPU0_TX1-*%
X48090000Y20915000D03*
%TO.N,GND*%
X49090000Y22915000D03*
X50090000Y20915000D03*
%TO.N,/CPU0_TX2+*%
X51090000Y22915000D03*
%TO.N,/CPU0_TX2-*%
X52090000Y20915000D03*
%TO.N,GND*%
X53090000Y22915000D03*
X54090000Y20915000D03*
%TO.N,/CPU0_TX3+*%
X55090000Y22915000D03*
%TO.N,/CPU0_TX3-*%
X56090000Y20915000D03*
%TO.N,GND*%
X57090000Y22915000D03*
%TO.N,Net-(J2-PadB30)*%
X58090000Y20915000D03*
%TO.N,/PCIE_SLOT1_PRSNT_x1x4*%
X59090000Y22915000D03*
%TO.N,/CPU0_TX4+*%
X61090000Y22915000D03*
%TO.N,/CPU0_TX4-*%
X62090000Y20915000D03*
%TO.N,GND*%
X63090000Y22915000D03*
X64090000Y20915000D03*
%TO.N,/CPU0_TX5+*%
X65090000Y22915000D03*
%TO.N,/CPU0_TX5-*%
X66090000Y20915000D03*
%TO.N,GND*%
X67090000Y22915000D03*
X68090000Y20915000D03*
%TO.N,/CPU0_TX6+*%
X69090000Y22915000D03*
%TO.N,/CPU0_TX6-*%
X70090000Y20915000D03*
%TO.N,GND*%
X71090000Y22915000D03*
X72090000Y20915000D03*
%TO.N,/CPU0_TX7+*%
X73090000Y22915000D03*
%TO.N,/CPU0_TX7-*%
X74090000Y20915000D03*
%TO.N,GND*%
X75090000Y22915000D03*
%TO.N,/PCIE_SLOT1_PRSNT_x8*%
X76090000Y20915000D03*
%TO.N,GND*%
X77090000Y22915000D03*
%TO.N,/CPU0_TX8+*%
X78090000Y20915000D03*
%TO.N,/CPU0_TX8-*%
X79090000Y22915000D03*
%TO.N,GND*%
X80090000Y20915000D03*
X81090000Y22915000D03*
%TO.N,/CPU0_TX9+*%
X82090000Y20915000D03*
%TO.N,/CPU0_TX9-*%
X83090000Y22915000D03*
%TO.N,GND*%
X84090000Y20915000D03*
X85090000Y22915000D03*
%TO.N,/CPU0_TX10+*%
X86090000Y20915000D03*
%TO.N,/CPU0_TX10-*%
X87090000Y22915000D03*
%TO.N,GND*%
X88090000Y20915000D03*
X89090000Y22915000D03*
%TO.N,/CPU0_TX11+*%
X90090000Y20915000D03*
%TO.N,/CPU0_TX11-*%
X91090000Y22915000D03*
%TO.N,GND*%
X92090000Y20915000D03*
X93090000Y22915000D03*
%TO.N,/CPU0_TX12+*%
X94090000Y20915000D03*
%TO.N,/CPU0_TX12-*%
X95090000Y22915000D03*
%TO.N,GND*%
X96090000Y20915000D03*
X97090000Y22915000D03*
%TO.N,/CPU0_TX13+*%
X98090000Y20915000D03*
%TO.N,/CPU0_TX13-*%
X99090000Y22915000D03*
%TO.N,GND*%
X100090000Y20915000D03*
X101090000Y22915000D03*
%TO.N,/CPU0_TX14+*%
X102090000Y20915000D03*
%TO.N,/CPU0_TX14-*%
X103090000Y22915000D03*
%TO.N,GND*%
X104090000Y20915000D03*
X105090000Y22915000D03*
%TO.N,/CPU0_TX15+*%
X106090000Y20915000D03*
%TO.N,/CPU0_TX15-*%
X107090000Y22915000D03*
%TO.N,GND*%
X108090000Y20915000D03*
%TO.N,/PCIE_SLOT1_PRSNT_x16*%
X109090000Y22915000D03*
%TO.N,GND*%
X60090000Y20915000D03*
X110090000Y27415000D03*
%TO.N,Net-(J2-PadB82)*%
X110090000Y20915000D03*
%TD*%
D15*
%TO.N,GND*%
%TO.C,J3*%
X50070000Y-2470000D03*
X63230000Y-2470000D03*
D16*
%TO.N,*%
X51030000Y-3730000D03*
X62930000Y-4090000D03*
%TD*%
%TO.N,*%
%TO.C,J4*%
X37930000Y-4150000D03*
X26030000Y-3790000D03*
D15*
%TO.N,GND*%
X38230000Y-2530000D03*
X25070000Y-2530000D03*
%TD*%
D17*
%TO.N,+12V*%
X65175000Y-5460000D03*
X23525000Y-910000D03*
D18*
X17625000Y-33135000D03*
X18625000Y-33135000D03*
X17625000Y-34135000D03*
X18625000Y-34135000D03*
X17625000Y-35135000D03*
X18625000Y-35135000D03*
X17625000Y-36135000D03*
X18625000Y-36135000D03*
X17625000Y-37135000D03*
X18625000Y-37135000D03*
X17625000Y-38135000D03*
X18625000Y-38135000D03*
X17625000Y-39135000D03*
X18625000Y-39135000D03*
X17625000Y-40135000D03*
X18625000Y-40135000D03*
X6500000Y16915000D03*
X7500000Y16915000D03*
X8500000Y16915000D03*
X9500000Y16915000D03*
X10500000Y16915000D03*
X11500000Y16915000D03*
X6500000Y15665000D03*
X7500000Y15665000D03*
X8500000Y15665000D03*
X9500000Y15665000D03*
X10500000Y15665000D03*
X11500000Y15665000D03*
X6500000Y14415000D03*
X7500000Y14415000D03*
X8500000Y14415000D03*
X9500000Y14415000D03*
X10500000Y14415000D03*
X11500000Y14415000D03*
X6500000Y13165000D03*
X7500000Y13165000D03*
X8500000Y13165000D03*
X9500000Y13165000D03*
X10500000Y13165000D03*
X11500000Y13165000D03*
X6500000Y11915000D03*
X7500000Y11915000D03*
X8500000Y11915000D03*
X9500000Y11915000D03*
X10500000Y11915000D03*
X11500000Y11915000D03*
X6500000Y10665000D03*
X7500000Y10665000D03*
X8500000Y10665000D03*
X9500000Y10665000D03*
X10500000Y10665000D03*
X11500000Y10665000D03*
X6500000Y9415000D03*
X7500000Y9415000D03*
X8500000Y9415000D03*
X9500000Y9415000D03*
X10500000Y9415000D03*
X11500000Y9415000D03*
X6500000Y8165000D03*
X7500000Y8165000D03*
X8500000Y8165000D03*
X9500000Y8165000D03*
X10500000Y8165000D03*
X11500000Y8165000D03*
X39050000Y-5285000D03*
X40975000Y-2285000D03*
X41975000Y-2285000D03*
X39975000Y-3285000D03*
X40975000Y-3285000D03*
X41975000Y-3285000D03*
X39975000Y-4285000D03*
X40975000Y-4285000D03*
X41975000Y-4285000D03*
X39975000Y-5285000D03*
X40975000Y-5285000D03*
X41975000Y-5285000D03*
X39975000Y-6285000D03*
X40975000Y-6285000D03*
X41975000Y-6285000D03*
%TO.N,GND*%
X46050000Y-22160000D03*
D19*
X5950000Y-15985000D03*
X22350000Y-43085000D03*
X19850000Y-43085000D03*
X130200000Y-43085000D03*
X134100000Y-30385000D03*
X128200000Y-43085000D03*
X126200000Y-43085000D03*
X124200000Y-43085000D03*
X122200000Y-43085000D03*
X120200000Y-43085000D03*
X118200000Y-43085000D03*
X116200000Y-43085000D03*
X114200000Y-43085000D03*
X112200000Y-43085000D03*
X110200000Y-43085000D03*
X108200000Y-43085000D03*
X106200000Y-43085000D03*
X104200000Y-43085000D03*
X102200000Y-43085000D03*
X99700000Y-43085000D03*
X97200000Y-43085000D03*
X95200000Y-43085000D03*
X93200000Y-43085000D03*
X91200000Y-43085000D03*
X89200000Y-43085000D03*
X87200000Y-43085000D03*
X85200000Y-43085000D03*
X83200000Y-43085000D03*
X81200000Y-43085000D03*
X79200000Y-43085000D03*
X77200000Y-43085000D03*
X75200000Y-43085000D03*
X73200000Y-43085000D03*
X71200000Y-43085000D03*
X69200000Y-43085000D03*
X66700000Y-43085000D03*
X64200000Y-43085000D03*
X62200000Y-43085000D03*
X60200000Y-43085000D03*
X58200000Y-43085000D03*
X56200000Y-43085000D03*
X54200000Y-43085000D03*
X52200000Y-43085000D03*
X35700000Y-43085000D03*
X33200000Y-43085000D03*
X30450000Y-43085000D03*
X49200000Y-43085000D03*
X46200000Y-43085000D03*
X44200000Y-43085000D03*
X42200000Y-43085000D03*
X40200000Y-43085000D03*
X38200000Y-43085000D03*
X15625000Y-13135000D03*
X50825000Y-25835000D03*
X15625000Y-15985000D03*
D17*
X59390000Y-335000D03*
X57890000Y-335000D03*
X56390000Y-335000D03*
X54890000Y-335000D03*
X53390000Y-335000D03*
X53910000Y-5185000D03*
X55410000Y-5185000D03*
X56910000Y-5185000D03*
X58410000Y-5185000D03*
X59910000Y-5185000D03*
X29890000Y-335000D03*
X28390000Y-335000D03*
X31390000Y-335000D03*
X34390000Y-335000D03*
X32890000Y-335000D03*
X28910000Y-5185000D03*
X30410000Y-5185000D03*
X31910000Y-5185000D03*
X34910000Y-5185000D03*
X33410000Y-5185000D03*
X52550000Y-20835000D03*
X51025000Y-17810000D03*
X52800000Y-25060000D03*
X40725000Y-24335000D03*
X45325000Y-26310000D03*
X49450000Y-25785000D03*
X45325000Y-19935000D03*
X49600000Y-20535000D03*
X46825000Y-16810000D03*
X26250000Y-8535000D03*
X25125000Y1640000D03*
X37675000Y1665000D03*
X62750000Y1715000D03*
X51275000Y-8585000D03*
X64775000Y-7785000D03*
X37700000Y14740000D03*
X27375000Y17215000D03*
X28375000Y17215000D03*
X29375000Y17215000D03*
X27375000Y16215000D03*
X28375000Y16215000D03*
X29375000Y16215000D03*
X22500000Y16240000D03*
X23500000Y17240000D03*
X23500000Y16240000D03*
X24500000Y16240000D03*
X24500000Y17240000D03*
X22500000Y17240000D03*
X18600000Y17265000D03*
X18600000Y16265000D03*
X21350000Y17265000D03*
X21350000Y16265000D03*
D19*
X14350000Y-19985000D03*
X15625000Y-14535000D03*
D17*
X49775000Y715000D03*
D18*
X17350000Y28090000D03*
X18600000Y28090000D03*
X19850000Y28090000D03*
X21100000Y28090000D03*
X22350000Y28090000D03*
X47050000Y-22160000D03*
X48050000Y-22160000D03*
X46050000Y-23160000D03*
X47050000Y-23160000D03*
X48050000Y-23160000D03*
X46050000Y-24160000D03*
X47050000Y-24160000D03*
X48050000Y-24160000D03*
D17*
X40975000Y-17335000D03*
X43275000Y-19685000D03*
X42125000Y-19235000D03*
X40925000Y-19260000D03*
D18*
X44825000Y-29660000D03*
X45825000Y-29660000D03*
X46825000Y-29660000D03*
X47825000Y-29660000D03*
X48825000Y-29660000D03*
X49825000Y-29660000D03*
D17*
X37200000Y-10760000D03*
D20*
X31300000Y-39260000D03*
X33175000Y-39260000D03*
X33275000Y-38060000D03*
X35150000Y-38060000D03*
X36275000Y-39285000D03*
X38150000Y-39285000D03*
X40125000Y-38085000D03*
X38250000Y-38085000D03*
X40275000Y-39360000D03*
X42150000Y-39360000D03*
X44125000Y-38160000D03*
X42250000Y-38160000D03*
X44275000Y-39410000D03*
X46150000Y-39410000D03*
X46275000Y-38160000D03*
X48150000Y-38160000D03*
X52275000Y-38335000D03*
X60275000Y-38385000D03*
X52125000Y-39585000D03*
X58275000Y-39560000D03*
X60150000Y-39560000D03*
X54275000Y-39560000D03*
X58150000Y-38335000D03*
X54150000Y-38335000D03*
X56150000Y-39560000D03*
X50250000Y-39585000D03*
X56275000Y-38335000D03*
X62150000Y-38385000D03*
X64150000Y-39460000D03*
X62275000Y-39460000D03*
X66150000Y-38360000D03*
X64275000Y-38360000D03*
X43525000Y-29385000D03*
X41650000Y-29385000D03*
X27150000Y2965000D03*
X29025000Y2965000D03*
X35775000Y3140000D03*
X33900000Y3140000D03*
X52150000Y2965000D03*
X54025000Y2965000D03*
X58875000Y3140000D03*
X60750000Y3140000D03*
X57000000Y-6860000D03*
X58300000Y-6860000D03*
X33300000Y-6785000D03*
X32000000Y-6785000D03*
X38300000Y-10735000D03*
X39625000Y-9485000D03*
X50250000Y-8385000D03*
X49000000Y-7060000D03*
D18*
%TO.N,+3V3*%
X25400000Y-34985000D03*
X50550000Y-21035000D03*
X50825000Y-23760000D03*
X40950000Y-22060000D03*
X42100000Y-22060000D03*
X43250000Y-22060000D03*
D17*
X65050000Y-735000D03*
X40025000Y-1210000D03*
X32675000Y5015000D03*
D18*
X32775000Y13815000D03*
X32775000Y15065000D03*
X32775000Y16315000D03*
X32775000Y17565000D03*
X32775000Y18815000D03*
X18925000Y12415000D03*
X20175000Y12415000D03*
X21425000Y12415000D03*
X22675000Y12415000D03*
X23925000Y12415000D03*
X18925000Y11165000D03*
X20175000Y11165000D03*
X21425000Y11165000D03*
X22675000Y11165000D03*
X23925000Y11165000D03*
X18925000Y9915000D03*
X20175000Y9915000D03*
X21425000Y9915000D03*
X22675000Y9915000D03*
X23925000Y9915000D03*
X23775000Y-34710000D03*
X23775000Y-35960000D03*
X23775000Y-37210000D03*
X23775000Y-38460000D03*
X23775000Y-39710000D03*
X23775000Y-40960000D03*
X25400000Y-36235000D03*
X25400000Y-37485000D03*
X25400000Y-38735000D03*
X39700000Y-22335000D03*
X39700000Y-23335000D03*
X39700000Y-24335000D03*
X39700000Y-25335000D03*
X38675000Y-23335000D03*
X38675000Y-24335000D03*
D17*
X25350000Y-10235000D03*
D18*
X44800000Y-5060000D03*
X45800000Y-5060000D03*
X46800000Y-5060000D03*
X44800000Y-6060000D03*
X45800000Y-6060000D03*
X46800000Y-6060000D03*
X46800000Y-4060000D03*
X45800000Y-4060000D03*
X44800000Y-4060000D03*
D17*
X48000000Y-2685000D03*
D18*
%TO.N,+3.3Vaux*%
X35200000Y17990000D03*
D19*
X14800000Y-24585000D03*
X10300000Y-24585000D03*
X9550000Y-11385000D03*
X10850000Y-11385000D03*
X8250000Y-11385000D03*
X6950000Y-11385000D03*
X5650000Y-11385000D03*
X4350000Y-11385000D03*
X6650000Y-25385000D03*
X7975000Y-25435000D03*
D18*
X35500000Y16315000D03*
X35475000Y15140000D03*
D19*
X9300000Y-25435000D03*
X4100000Y-22785000D03*
X17800000Y-24585000D03*
D18*
%TO.N,/SLOT0_CONFIG*%
X66875000Y-40685000D03*
%TO.N,/SLOT1_CONFIG*%
X99700000Y-40610000D03*
%TO.N,/LAN_SMB_CLK*%
X17600000Y13265000D03*
%TO.N,/LAN_SMB_DAT*%
X31825000Y7640000D03*
D19*
%TO.N,/LAN_SMB_ALERT_N*%
X38700000Y12890000D03*
D18*
%TO.N,/PCIE_SLOT1_PRSNT_x8*%
X99750000Y-39210000D03*
%TO.N,/PCIE_SLOT1_PRSNT_x1x4*%
X66850000Y-39585000D03*
%TO.N,/PCIE_SLOT_PRSNT#1*%
X16600000Y-42335000D03*
%TO.N,/RST_PERST0_N*%
X30950000Y4640000D03*
X46950000Y8915000D03*
D20*
%TO.N,/CLK100_SLOT1+*%
X42273800Y-29385000D03*
%TO.N,/CLK100_SLOT1-*%
X42776200Y-29385000D03*
D18*
%TO.N,/PCIe_SMB_CLK*%
X7975000Y-20560000D03*
%TO.N,/PCIe_SMB_DATA*%
X4325000Y-18385000D03*
D20*
%TO.N,/Oculink_0_C_x4_TX0+*%
X27823800Y2965000D03*
X31948800Y-39260000D03*
%TO.N,/Oculink_0_C_x4_TX1+*%
X28898800Y240000D03*
X36948800Y-39285000D03*
%TO.N,/Oculink_0_C_x4_TX2+*%
X33398800Y240000D03*
X40948800Y-39360000D03*
%TO.N,/Oculink_0_C_x4_TX3+*%
X34563800Y3140000D03*
X44948800Y-39410000D03*
%TO.N,/Oculink_0_C_x4_TX0-*%
X28326200Y2965000D03*
X32451200Y-39260000D03*
%TO.N,/Oculink_0_C_x4_TX1-*%
X29401200Y240000D03*
X37451200Y-39285000D03*
%TO.N,/Oculink_0_C_x4_TX2-*%
X33901200Y240000D03*
X41451200Y-39360000D03*
%TO.N,/Oculink_0_C_x4_TX3-*%
X35066200Y3140000D03*
X45451200Y-39410000D03*
D18*
%TO.N,+3.3VP*%
X48800000Y-19885000D03*
X46800000Y-18735000D03*
X46800000Y-19510000D03*
X49350000Y-19410000D03*
X46475000Y-26710000D03*
X47525000Y-26735000D03*
X49200000Y-26685000D03*
X52225000Y-22685000D03*
X53450000Y-23285000D03*
D20*
%TO.N,/Oculink_1_C_x4_TX0+*%
X50948800Y-39585000D03*
X52823800Y2965000D03*
%TO.N,/Oculink_1_C_x4_TX1+*%
X53898800Y240000D03*
X54948800Y-39560000D03*
%TO.N,/Oculink_1_C_x4_TX2+*%
X58948800Y-39560000D03*
X58398800Y240000D03*
%TO.N,/Oculink_1_C_x4_TX3+*%
X59563800Y3140000D03*
X62948800Y-39460000D03*
%TO.N,/Oculink_1_C_x4_TX0-*%
X51451200Y-39585000D03*
X53326200Y2965000D03*
%TO.N,/Oculink_1_C_x4_TX1-*%
X54401200Y240000D03*
X55451200Y-39560000D03*
%TO.N,/Oculink_1_C_x4_TX2-*%
X59451200Y-39560000D03*
X58901200Y240000D03*
%TO.N,/Oculink_1_C_x4_TX3-*%
X60066200Y3140000D03*
X63451200Y-39460000D03*
%TO.N,/Oculink_0_x4_RX0+*%
X33948800Y-38060000D03*
%TO.N,/Oculink_0_x4_RX0-*%
X34451200Y-38060000D03*
%TO.N,/Oculink_0_x4_RX1+*%
X38948800Y-38085000D03*
%TO.N,/Oculink_0_x4_RX1-*%
X39451200Y-38085000D03*
%TO.N,/Oculink_0_x4_RX2+*%
X42948800Y-38135000D03*
%TO.N,/Oculink_0_x4_RX2-*%
X43451200Y-38135000D03*
%TO.N,/Oculink_0_x4_RX3+*%
X46948800Y-38160000D03*
%TO.N,/Oculink_0_x4_RX3-*%
X47451200Y-38160000D03*
%TO.N,/Oculink_1_x4_RX0+*%
X52948800Y-38335000D03*
%TO.N,/Oculink_1_x4_RX0-*%
X53451200Y-38335000D03*
%TO.N,/Oculink_1_x4_RX1+*%
X56948800Y-38335000D03*
%TO.N,/Oculink_1_x4_RX1-*%
X57451200Y-38335000D03*
%TO.N,/Oculink_1_x4_RX2+*%
X60948800Y-38385000D03*
%TO.N,/Oculink_1_x4_RX2-*%
X61451200Y-38385000D03*
%TO.N,/Oculink_1_x4_RX3+*%
X64948800Y-38360000D03*
%TO.N,/Oculink_1_x4_RX3-*%
X65451200Y-38360000D03*
D19*
%TO.N,Net-(J3-PadA10)*%
X57550000Y-7960000D03*
D18*
X52325000Y7365000D03*
D20*
%TO.N,/Oculink_1_CLK100+*%
X57398800Y-6285000D03*
X49777626Y-7887626D03*
%TO.N,/Oculink_1_CLK100-*%
X57901200Y-6285000D03*
X49422374Y-7532374D03*
D18*
%TO.N,/Oculink_1_SMB_CLK*%
X55400000Y1590000D03*
X7275000Y-9310000D03*
%TO.N,/Oculink_1_SMB_DATA*%
X56150000Y915000D03*
X5525000Y-9535000D03*
%TO.N,/Oculink_0_SMB_DATA*%
X13775000Y-17535000D03*
X31175000Y740000D03*
%TO.N,/Oculink_0_SMB_CLK*%
X30400000Y1215000D03*
X15375000Y-18435000D03*
D20*
%TO.N,/Oculink_0_CLK100-*%
X32901200Y-6235000D03*
X38772374Y-10287626D03*
%TO.N,/Oculink_0_CLK100+*%
X32398800Y-6235000D03*
X39127626Y-9932374D03*
D19*
%TO.N,Net-(J4-PadA10)*%
X32075000Y-9485000D03*
X40300000Y3340000D03*
%TD*%
D21*
%TO.N,+3V3*%
G36*
X48408517Y-20206282D02*
G01*
X48478718Y-20276483D01*
X48561266Y-20331639D01*
X48652989Y-20369632D01*
X48750360Y-20389000D01*
X48849640Y-20389000D01*
X48947011Y-20369632D01*
X49038734Y-20331639D01*
X49121282Y-20276483D01*
X49191483Y-20206282D01*
X49221071Y-20162000D01*
X49341055Y-20162000D01*
X49310592Y-20182355D01*
X49247355Y-20245592D01*
X49197670Y-20319950D01*
X49163447Y-20402573D01*
X49146000Y-20490285D01*
X49146000Y-20579715D01*
X49163447Y-20667427D01*
X49197670Y-20750050D01*
X49247355Y-20824408D01*
X49310592Y-20887645D01*
X49384950Y-20937330D01*
X49467573Y-20971553D01*
X49555285Y-20989000D01*
X49644715Y-20989000D01*
X49732427Y-20971553D01*
X49815050Y-20937330D01*
X49889408Y-20887645D01*
X49952645Y-20824408D01*
X50002330Y-20750050D01*
X50036553Y-20667427D01*
X50054000Y-20579715D01*
X50054000Y-20490285D01*
X50036553Y-20402573D01*
X50002330Y-20319950D01*
X49952645Y-20245592D01*
X49889408Y-20182355D01*
X49858945Y-20162000D01*
X51022737Y-20162000D01*
X51192862Y-20232468D01*
X51577532Y-20617138D01*
X51648000Y-20787263D01*
X51648000Y-24432737D01*
X51577532Y-24602862D01*
X51267862Y-24912532D01*
X51097737Y-24983000D01*
X41152000Y-24983000D01*
X41127224Y-24985440D01*
X41103399Y-24992667D01*
X40886596Y-25082470D01*
X40864639Y-25094206D01*
X40845394Y-25110000D01*
X28075000Y-37880394D01*
X28059206Y-37899640D01*
X28047470Y-37921596D01*
X27957667Y-38138399D01*
X27950440Y-38162223D01*
X27948000Y-38187000D01*
X27948000Y-40032737D01*
X27877532Y-40202862D01*
X26417862Y-41662532D01*
X26247737Y-41733000D01*
X23477263Y-41733000D01*
X23307138Y-41662532D01*
X23222468Y-41577862D01*
X23152000Y-41407737D01*
X23152000Y-34162263D01*
X23222468Y-33992138D01*
X23532138Y-33682468D01*
X23702263Y-33612000D01*
X27298000Y-33612000D01*
X27322776Y-33609560D01*
X27346658Y-33602309D01*
X27563373Y-33512419D01*
X27585324Y-33500672D01*
X27604605Y-33484825D01*
X36781292Y-24290285D01*
X40271000Y-24290285D01*
X40271000Y-24379715D01*
X40288447Y-24467427D01*
X40322670Y-24550050D01*
X40372355Y-24624408D01*
X40435592Y-24687645D01*
X40509950Y-24737330D01*
X40592573Y-24771553D01*
X40680285Y-24789000D01*
X40769715Y-24789000D01*
X40857427Y-24771553D01*
X40940050Y-24737330D01*
X41014408Y-24687645D01*
X41077645Y-24624408D01*
X41127330Y-24550050D01*
X41161553Y-24467427D01*
X41179000Y-24379715D01*
X41179000Y-24290285D01*
X41161553Y-24202573D01*
X41127330Y-24119950D01*
X41077645Y-24045592D01*
X41014408Y-23982355D01*
X40940050Y-23932670D01*
X40857427Y-23898447D01*
X40769715Y-23881000D01*
X40680285Y-23881000D01*
X40592573Y-23898447D01*
X40509950Y-23932670D01*
X40435592Y-23982355D01*
X40372355Y-24045592D01*
X40322670Y-24119950D01*
X40288447Y-24202573D01*
X40271000Y-24290285D01*
X36781292Y-24290285D01*
X38956984Y-22110360D01*
X45546000Y-22110360D01*
X45546000Y-22209640D01*
X45565368Y-22307011D01*
X45603361Y-22398734D01*
X45658517Y-22481282D01*
X45728718Y-22551483D01*
X45811266Y-22606639D01*
X45902989Y-22644632D01*
X45980250Y-22660000D01*
X45902989Y-22675368D01*
X45811266Y-22713361D01*
X45728718Y-22768517D01*
X45658517Y-22838718D01*
X45603361Y-22921266D01*
X45565368Y-23012989D01*
X45546000Y-23110360D01*
X45546000Y-23209640D01*
X45565368Y-23307011D01*
X45603361Y-23398734D01*
X45658517Y-23481282D01*
X45728718Y-23551483D01*
X45811266Y-23606639D01*
X45902989Y-23644632D01*
X45980250Y-23660000D01*
X45902989Y-23675368D01*
X45811266Y-23713361D01*
X45728718Y-23768517D01*
X45658517Y-23838718D01*
X45603361Y-23921266D01*
X45565368Y-24012989D01*
X45546000Y-24110360D01*
X45546000Y-24209640D01*
X45565368Y-24307011D01*
X45603361Y-24398734D01*
X45658517Y-24481282D01*
X45728718Y-24551483D01*
X45811266Y-24606639D01*
X45902989Y-24644632D01*
X46000360Y-24664000D01*
X46099640Y-24664000D01*
X46197011Y-24644632D01*
X46288734Y-24606639D01*
X46371282Y-24551483D01*
X46441483Y-24481282D01*
X46496639Y-24398734D01*
X46534632Y-24307011D01*
X46550000Y-24229750D01*
X46565368Y-24307011D01*
X46603361Y-24398734D01*
X46658517Y-24481282D01*
X46728718Y-24551483D01*
X46811266Y-24606639D01*
X46902989Y-24644632D01*
X47000360Y-24664000D01*
X47099640Y-24664000D01*
X47197011Y-24644632D01*
X47288734Y-24606639D01*
X47371282Y-24551483D01*
X47441483Y-24481282D01*
X47496639Y-24398734D01*
X47534632Y-24307011D01*
X47550000Y-24229750D01*
X47565368Y-24307011D01*
X47603361Y-24398734D01*
X47658517Y-24481282D01*
X47728718Y-24551483D01*
X47811266Y-24606639D01*
X47902989Y-24644632D01*
X48000360Y-24664000D01*
X48099640Y-24664000D01*
X48197011Y-24644632D01*
X48288734Y-24606639D01*
X48371282Y-24551483D01*
X48441483Y-24481282D01*
X48496639Y-24398734D01*
X48534632Y-24307011D01*
X48554000Y-24209640D01*
X48554000Y-24110360D01*
X48534632Y-24012989D01*
X48496639Y-23921266D01*
X48441483Y-23838718D01*
X48371282Y-23768517D01*
X48288734Y-23713361D01*
X48197011Y-23675368D01*
X48119750Y-23660000D01*
X48197011Y-23644632D01*
X48288734Y-23606639D01*
X48371282Y-23551483D01*
X48441483Y-23481282D01*
X48496639Y-23398734D01*
X48534632Y-23307011D01*
X48554000Y-23209640D01*
X48554000Y-23110360D01*
X48534632Y-23012989D01*
X48496639Y-22921266D01*
X48441483Y-22838718D01*
X48371282Y-22768517D01*
X48288734Y-22713361D01*
X48197011Y-22675368D01*
X48119750Y-22660000D01*
X48197011Y-22644632D01*
X48288734Y-22606639D01*
X48371282Y-22551483D01*
X48441483Y-22481282D01*
X48496639Y-22398734D01*
X48534632Y-22307011D01*
X48554000Y-22209640D01*
X48554000Y-22110360D01*
X48534632Y-22012989D01*
X48496639Y-21921266D01*
X48441483Y-21838718D01*
X48371282Y-21768517D01*
X48288734Y-21713361D01*
X48197011Y-21675368D01*
X48099640Y-21656000D01*
X48000360Y-21656000D01*
X47902989Y-21675368D01*
X47811266Y-21713361D01*
X47728718Y-21768517D01*
X47658517Y-21838718D01*
X47603361Y-21921266D01*
X47565368Y-22012989D01*
X47550000Y-22090250D01*
X47534632Y-22012989D01*
X47496639Y-21921266D01*
X47441483Y-21838718D01*
X47371282Y-21768517D01*
X47288734Y-21713361D01*
X47197011Y-21675368D01*
X47099640Y-21656000D01*
X47000360Y-21656000D01*
X46902989Y-21675368D01*
X46811266Y-21713361D01*
X46728718Y-21768517D01*
X46658517Y-21838718D01*
X46603361Y-21921266D01*
X46565368Y-22012989D01*
X46550000Y-22090250D01*
X46534632Y-22012989D01*
X46496639Y-21921266D01*
X46441483Y-21838718D01*
X46371282Y-21768517D01*
X46288734Y-21713361D01*
X46197011Y-21675368D01*
X46099640Y-21656000D01*
X46000360Y-21656000D01*
X45902989Y-21675368D01*
X45811266Y-21713361D01*
X45728718Y-21768517D01*
X45658517Y-21838718D01*
X45603361Y-21921266D01*
X45565368Y-22012989D01*
X45546000Y-22110360D01*
X38956984Y-22110360D01*
X40257307Y-20807508D01*
X40427294Y-20737000D01*
X46048000Y-20737000D01*
X46072776Y-20734560D01*
X46096601Y-20727333D01*
X46313404Y-20637530D01*
X46335361Y-20625794D01*
X46354606Y-20610000D01*
X46732138Y-20232468D01*
X46902263Y-20162000D01*
X48378929Y-20162000D01*
X48408517Y-20206282D01*
G37*
X48408517Y-20206282D02*
X48478718Y-20276483D01*
X48561266Y-20331639D01*
X48652989Y-20369632D01*
X48750360Y-20389000D01*
X48849640Y-20389000D01*
X48947011Y-20369632D01*
X49038734Y-20331639D01*
X49121282Y-20276483D01*
X49191483Y-20206282D01*
X49221071Y-20162000D01*
X49341055Y-20162000D01*
X49310592Y-20182355D01*
X49247355Y-20245592D01*
X49197670Y-20319950D01*
X49163447Y-20402573D01*
X49146000Y-20490285D01*
X49146000Y-20579715D01*
X49163447Y-20667427D01*
X49197670Y-20750050D01*
X49247355Y-20824408D01*
X49310592Y-20887645D01*
X49384950Y-20937330D01*
X49467573Y-20971553D01*
X49555285Y-20989000D01*
X49644715Y-20989000D01*
X49732427Y-20971553D01*
X49815050Y-20937330D01*
X49889408Y-20887645D01*
X49952645Y-20824408D01*
X50002330Y-20750050D01*
X50036553Y-20667427D01*
X50054000Y-20579715D01*
X50054000Y-20490285D01*
X50036553Y-20402573D01*
X50002330Y-20319950D01*
X49952645Y-20245592D01*
X49889408Y-20182355D01*
X49858945Y-20162000D01*
X51022737Y-20162000D01*
X51192862Y-20232468D01*
X51577532Y-20617138D01*
X51648000Y-20787263D01*
X51648000Y-24432737D01*
X51577532Y-24602862D01*
X51267862Y-24912532D01*
X51097737Y-24983000D01*
X41152000Y-24983000D01*
X41127224Y-24985440D01*
X41103399Y-24992667D01*
X40886596Y-25082470D01*
X40864639Y-25094206D01*
X40845394Y-25110000D01*
X28075000Y-37880394D01*
X28059206Y-37899640D01*
X28047470Y-37921596D01*
X27957667Y-38138399D01*
X27950440Y-38162223D01*
X27948000Y-38187000D01*
X27948000Y-40032737D01*
X27877532Y-40202862D01*
X26417862Y-41662532D01*
X26247737Y-41733000D01*
X23477263Y-41733000D01*
X23307138Y-41662532D01*
X23222468Y-41577862D01*
X23152000Y-41407737D01*
X23152000Y-34162263D01*
X23222468Y-33992138D01*
X23532138Y-33682468D01*
X23702263Y-33612000D01*
X27298000Y-33612000D01*
X27322776Y-33609560D01*
X27346658Y-33602309D01*
X27563373Y-33512419D01*
X27585324Y-33500672D01*
X27604605Y-33484825D01*
X36781292Y-24290285D01*
X40271000Y-24290285D01*
X40271000Y-24379715D01*
X40288447Y-24467427D01*
X40322670Y-24550050D01*
X40372355Y-24624408D01*
X40435592Y-24687645D01*
X40509950Y-24737330D01*
X40592573Y-24771553D01*
X40680285Y-24789000D01*
X40769715Y-24789000D01*
X40857427Y-24771553D01*
X40940050Y-24737330D01*
X41014408Y-24687645D01*
X41077645Y-24624408D01*
X41127330Y-24550050D01*
X41161553Y-24467427D01*
X41179000Y-24379715D01*
X41179000Y-24290285D01*
X41161553Y-24202573D01*
X41127330Y-24119950D01*
X41077645Y-24045592D01*
X41014408Y-23982355D01*
X40940050Y-23932670D01*
X40857427Y-23898447D01*
X40769715Y-23881000D01*
X40680285Y-23881000D01*
X40592573Y-23898447D01*
X40509950Y-23932670D01*
X40435592Y-23982355D01*
X40372355Y-24045592D01*
X40322670Y-24119950D01*
X40288447Y-24202573D01*
X40271000Y-24290285D01*
X36781292Y-24290285D01*
X38956984Y-22110360D01*
X45546000Y-22110360D01*
X45546000Y-22209640D01*
X45565368Y-22307011D01*
X45603361Y-22398734D01*
X45658517Y-22481282D01*
X45728718Y-22551483D01*
X45811266Y-22606639D01*
X45902989Y-22644632D01*
X45980250Y-22660000D01*
X45902989Y-22675368D01*
X45811266Y-22713361D01*
X45728718Y-22768517D01*
X45658517Y-22838718D01*
X45603361Y-22921266D01*
X45565368Y-23012989D01*
X45546000Y-23110360D01*
X45546000Y-23209640D01*
X45565368Y-23307011D01*
X45603361Y-23398734D01*
X45658517Y-23481282D01*
X45728718Y-23551483D01*
X45811266Y-23606639D01*
X45902989Y-23644632D01*
X45980250Y-23660000D01*
X45902989Y-23675368D01*
X45811266Y-23713361D01*
X45728718Y-23768517D01*
X45658517Y-23838718D01*
X45603361Y-23921266D01*
X45565368Y-24012989D01*
X45546000Y-24110360D01*
X45546000Y-24209640D01*
X45565368Y-24307011D01*
X45603361Y-24398734D01*
X45658517Y-24481282D01*
X45728718Y-24551483D01*
X45811266Y-24606639D01*
X45902989Y-24644632D01*
X46000360Y-24664000D01*
X46099640Y-24664000D01*
X46197011Y-24644632D01*
X46288734Y-24606639D01*
X46371282Y-24551483D01*
X46441483Y-24481282D01*
X46496639Y-24398734D01*
X46534632Y-24307011D01*
X46550000Y-24229750D01*
X46565368Y-24307011D01*
X46603361Y-24398734D01*
X46658517Y-24481282D01*
X46728718Y-24551483D01*
X46811266Y-24606639D01*
X46902989Y-24644632D01*
X47000360Y-24664000D01*
X47099640Y-24664000D01*
X47197011Y-24644632D01*
X47288734Y-24606639D01*
X47371282Y-24551483D01*
X47441483Y-24481282D01*
X47496639Y-24398734D01*
X47534632Y-24307011D01*
X47550000Y-24229750D01*
X47565368Y-24307011D01*
X47603361Y-24398734D01*
X47658517Y-24481282D01*
X47728718Y-24551483D01*
X47811266Y-24606639D01*
X47902989Y-24644632D01*
X48000360Y-24664000D01*
X48099640Y-24664000D01*
X48197011Y-24644632D01*
X48288734Y-24606639D01*
X48371282Y-24551483D01*
X48441483Y-24481282D01*
X48496639Y-24398734D01*
X48534632Y-24307011D01*
X48554000Y-24209640D01*
X48554000Y-24110360D01*
X48534632Y-24012989D01*
X48496639Y-23921266D01*
X48441483Y-23838718D01*
X48371282Y-23768517D01*
X48288734Y-23713361D01*
X48197011Y-23675368D01*
X48119750Y-23660000D01*
X48197011Y-23644632D01*
X48288734Y-23606639D01*
X48371282Y-23551483D01*
X48441483Y-23481282D01*
X48496639Y-23398734D01*
X48534632Y-23307011D01*
X48554000Y-23209640D01*
X48554000Y-23110360D01*
X48534632Y-23012989D01*
X48496639Y-22921266D01*
X48441483Y-22838718D01*
X48371282Y-22768517D01*
X48288734Y-22713361D01*
X48197011Y-22675368D01*
X48119750Y-22660000D01*
X48197011Y-22644632D01*
X48288734Y-22606639D01*
X48371282Y-22551483D01*
X48441483Y-22481282D01*
X48496639Y-22398734D01*
X48534632Y-22307011D01*
X48554000Y-22209640D01*
X48554000Y-22110360D01*
X48534632Y-22012989D01*
X48496639Y-21921266D01*
X48441483Y-21838718D01*
X48371282Y-21768517D01*
X48288734Y-21713361D01*
X48197011Y-21675368D01*
X48099640Y-21656000D01*
X48000360Y-21656000D01*
X47902989Y-21675368D01*
X47811266Y-21713361D01*
X47728718Y-21768517D01*
X47658517Y-21838718D01*
X47603361Y-21921266D01*
X47565368Y-22012989D01*
X47550000Y-22090250D01*
X47534632Y-22012989D01*
X47496639Y-21921266D01*
X47441483Y-21838718D01*
X47371282Y-21768517D01*
X47288734Y-21713361D01*
X47197011Y-21675368D01*
X47099640Y-21656000D01*
X47000360Y-21656000D01*
X46902989Y-21675368D01*
X46811266Y-21713361D01*
X46728718Y-21768517D01*
X46658517Y-21838718D01*
X46603361Y-21921266D01*
X46565368Y-22012989D01*
X46550000Y-22090250D01*
X46534632Y-22012989D01*
X46496639Y-21921266D01*
X46441483Y-21838718D01*
X46371282Y-21768517D01*
X46288734Y-21713361D01*
X46197011Y-21675368D01*
X46099640Y-21656000D01*
X46000360Y-21656000D01*
X45902989Y-21675368D01*
X45811266Y-21713361D01*
X45728718Y-21768517D01*
X45658517Y-21838718D01*
X45603361Y-21921266D01*
X45565368Y-22012989D01*
X45546000Y-22110360D01*
X38956984Y-22110360D01*
X40257307Y-20807508D01*
X40427294Y-20737000D01*
X46048000Y-20737000D01*
X46072776Y-20734560D01*
X46096601Y-20727333D01*
X46313404Y-20637530D01*
X46335361Y-20625794D01*
X46354606Y-20610000D01*
X46732138Y-20232468D01*
X46902263Y-20162000D01*
X48378929Y-20162000D01*
X48408517Y-20206282D01*
G36*
X37573000Y26892606D02*
G01*
X36871729Y26191335D01*
X36855482Y26188103D01*
X36709163Y26127495D01*
X36577480Y26039507D01*
X36465493Y25927520D01*
X36377505Y25795837D01*
X36316897Y25649518D01*
X36313665Y25633271D01*
X36135197Y25454803D01*
X36119403Y25435557D01*
X36107667Y25413601D01*
X36100440Y25389776D01*
X36098000Y25365000D01*
X36098000Y22942606D01*
X35869863Y22714469D01*
X35894000Y22835813D01*
X35894000Y22994187D01*
X35863103Y23149518D01*
X35802495Y23295837D01*
X35714507Y23427520D01*
X35602520Y23539507D01*
X35470837Y23627495D01*
X35324518Y23688103D01*
X35169187Y23719000D01*
X35010813Y23719000D01*
X34855482Y23688103D01*
X34709163Y23627495D01*
X34577480Y23539507D01*
X34465493Y23427520D01*
X34377505Y23295837D01*
X34316897Y23149518D01*
X34286000Y22994187D01*
X34286000Y22835813D01*
X34316897Y22680482D01*
X34377505Y22534163D01*
X34465493Y22402480D01*
X34577480Y22290493D01*
X34709163Y22202505D01*
X34855482Y22141897D01*
X35010813Y22111000D01*
X35169187Y22111000D01*
X35290531Y22135137D01*
X35010197Y21854803D01*
X34994403Y21835557D01*
X34982667Y21813601D01*
X34975440Y21789776D01*
X34973000Y21765000D01*
X34973000Y20042606D01*
X33885197Y18954803D01*
X33869403Y18935557D01*
X33857667Y18913601D01*
X33850440Y18889776D01*
X33848000Y18865000D01*
X33848000Y7765000D01*
X33850440Y7740224D01*
X33857667Y7716399D01*
X33869403Y7694443D01*
X33885197Y7675197D01*
X35860197Y5700197D01*
X35879443Y5684403D01*
X35901399Y5672667D01*
X35925224Y5665440D01*
X35950000Y5663000D01*
X45697394Y5663000D01*
X48248000Y3112394D01*
X48248000Y-5281576D01*
X47136190Y-6369216D01*
X47135197Y-6370197D01*
X47047394Y-6458000D01*
X44302606Y-6458000D01*
X44152000Y-6307394D01*
X44152000Y440000D01*
X44149560Y464776D01*
X44142333Y488601D01*
X44130597Y510557D01*
X44114803Y529803D01*
X42164803Y2479803D01*
X42145557Y2495597D01*
X42123601Y2507333D01*
X42099776Y2514560D01*
X42075000Y2517000D01*
X32852606Y2517000D01*
X32187353Y3182253D01*
X33471000Y3182253D01*
X33471000Y3097747D01*
X33487486Y3014865D01*
X33519825Y2936792D01*
X33566774Y2866528D01*
X33626528Y2806774D01*
X33696792Y2759825D01*
X33774865Y2727486D01*
X33857747Y2711000D01*
X33942253Y2711000D01*
X34025135Y2727486D01*
X34103208Y2759825D01*
X34173472Y2806774D01*
X34231900Y2865202D01*
X34290328Y2806774D01*
X34360592Y2759825D01*
X34438665Y2727486D01*
X34521547Y2711000D01*
X34606053Y2711000D01*
X34688935Y2727486D01*
X34767008Y2759825D01*
X34815000Y2791892D01*
X34862992Y2759825D01*
X34941065Y2727486D01*
X35023947Y2711000D01*
X35108453Y2711000D01*
X35191335Y2727486D01*
X35269408Y2759825D01*
X35339672Y2806774D01*
X35399426Y2866528D01*
X35420600Y2898217D01*
X35441774Y2866528D01*
X35501528Y2806774D01*
X35571792Y2759825D01*
X35649865Y2727486D01*
X35732747Y2711000D01*
X35817253Y2711000D01*
X35900135Y2727486D01*
X35978208Y2759825D01*
X36048472Y2806774D01*
X36108226Y2866528D01*
X36155175Y2936792D01*
X36187514Y3014865D01*
X36204000Y3097747D01*
X36204000Y3182253D01*
X36187514Y3265135D01*
X36155175Y3343208D01*
X36120860Y3394564D01*
X39746000Y3394564D01*
X39746000Y3285436D01*
X39767289Y3178404D01*
X39809051Y3077582D01*
X39869680Y2986845D01*
X39946845Y2909680D01*
X40037582Y2849051D01*
X40138404Y2807289D01*
X40245436Y2786000D01*
X40354564Y2786000D01*
X40461596Y2807289D01*
X40562418Y2849051D01*
X40653155Y2909680D01*
X40730320Y2986845D01*
X40790949Y3077582D01*
X40832711Y3178404D01*
X40854000Y3285436D01*
X40854000Y3394564D01*
X40832711Y3501596D01*
X40790949Y3602418D01*
X40730320Y3693155D01*
X40653155Y3770320D01*
X40562418Y3830949D01*
X40461596Y3872711D01*
X40354564Y3894000D01*
X40245436Y3894000D01*
X40138404Y3872711D01*
X40037582Y3830949D01*
X39946845Y3770320D01*
X39869680Y3693155D01*
X39809051Y3602418D01*
X39767289Y3501596D01*
X39746000Y3394564D01*
X36120860Y3394564D01*
X36108226Y3413472D01*
X36048472Y3473226D01*
X35978208Y3520175D01*
X35900135Y3552514D01*
X35817253Y3569000D01*
X35732747Y3569000D01*
X35649865Y3552514D01*
X35571792Y3520175D01*
X35501528Y3473226D01*
X35441774Y3413472D01*
X35420600Y3381783D01*
X35399426Y3413472D01*
X35339672Y3473226D01*
X35269408Y3520175D01*
X35191335Y3552514D01*
X35108453Y3569000D01*
X35023947Y3569000D01*
X34941065Y3552514D01*
X34862992Y3520175D01*
X34815000Y3488108D01*
X34767008Y3520175D01*
X34688935Y3552514D01*
X34606053Y3569000D01*
X34521547Y3569000D01*
X34438665Y3552514D01*
X34360592Y3520175D01*
X34290328Y3473226D01*
X34231900Y3414798D01*
X34173472Y3473226D01*
X34103208Y3520175D01*
X34025135Y3552514D01*
X33942253Y3569000D01*
X33857747Y3569000D01*
X33774865Y3552514D01*
X33696792Y3520175D01*
X33626528Y3473226D01*
X33566774Y3413472D01*
X33519825Y3343208D01*
X33487486Y3265135D01*
X33471000Y3182253D01*
X32187353Y3182253D01*
X31602000Y3767606D01*
X31602000Y7186844D01*
X31677989Y7155368D01*
X31775360Y7136000D01*
X31874640Y7136000D01*
X31972011Y7155368D01*
X32063734Y7193361D01*
X32146282Y7248517D01*
X32216483Y7318718D01*
X32271639Y7401266D01*
X32309632Y7492989D01*
X32329000Y7590360D01*
X32329000Y7689640D01*
X32309632Y7787011D01*
X32271639Y7878734D01*
X32216483Y7961282D01*
X32146282Y8031483D01*
X32063734Y8086639D01*
X31972011Y8124632D01*
X31874640Y8144000D01*
X31775360Y8144000D01*
X31677989Y8124632D01*
X31602000Y8093156D01*
X31602000Y19012394D01*
X32189803Y19600197D01*
X32205597Y19619443D01*
X32217333Y19641399D01*
X32224560Y19665224D01*
X32227000Y19690000D01*
X32227000Y20122500D01*
X32324518Y20141897D01*
X32470837Y20202505D01*
X32602520Y20290493D01*
X32714507Y20402480D01*
X32802495Y20534163D01*
X32863103Y20680482D01*
X32894000Y20835813D01*
X32894000Y20994187D01*
X32863103Y21149518D01*
X32802495Y21295837D01*
X32714507Y21427520D01*
X32602520Y21539507D01*
X32470837Y21627495D01*
X32324518Y21688103D01*
X32227000Y21707500D01*
X32227000Y22994187D01*
X32286000Y22994187D01*
X32286000Y22835813D01*
X32316897Y22680482D01*
X32377505Y22534163D01*
X32465493Y22402480D01*
X32577480Y22290493D01*
X32709163Y22202505D01*
X32855482Y22141897D01*
X33010813Y22111000D01*
X33169187Y22111000D01*
X33324518Y22141897D01*
X33470837Y22202505D01*
X33602520Y22290493D01*
X33714507Y22402480D01*
X33802495Y22534163D01*
X33863103Y22680482D01*
X33894000Y22835813D01*
X33894000Y22994187D01*
X33863103Y23149518D01*
X33802495Y23295837D01*
X33714507Y23427520D01*
X33602520Y23539507D01*
X33470837Y23627495D01*
X33324518Y23688103D01*
X33169187Y23719000D01*
X33010813Y23719000D01*
X32855482Y23688103D01*
X32709163Y23627495D01*
X32577480Y23539507D01*
X32465493Y23427520D01*
X32377505Y23295837D01*
X32316897Y23149518D01*
X32286000Y22994187D01*
X32227000Y22994187D01*
X32227000Y25494187D01*
X32286000Y25494187D01*
X32286000Y25335813D01*
X32316897Y25180482D01*
X32377505Y25034163D01*
X32465493Y24902480D01*
X32577480Y24790493D01*
X32709163Y24702505D01*
X32855482Y24641897D01*
X33010813Y24611000D01*
X33169187Y24611000D01*
X33324518Y24641897D01*
X33470837Y24702505D01*
X33602520Y24790493D01*
X33714507Y24902480D01*
X33802495Y25034163D01*
X33863103Y25180482D01*
X33894000Y25335813D01*
X33894000Y25494187D01*
X33863103Y25649518D01*
X33802495Y25795837D01*
X33714507Y25927520D01*
X33602520Y26039507D01*
X33470837Y26127495D01*
X33324518Y26188103D01*
X33169187Y26219000D01*
X33010813Y26219000D01*
X32855482Y26188103D01*
X32709163Y26127495D01*
X32577480Y26039507D01*
X32465493Y25927520D01*
X32377505Y25795837D01*
X32316897Y25649518D01*
X32286000Y25494187D01*
X32227000Y25494187D01*
X32227000Y26622500D01*
X32324518Y26641897D01*
X32470837Y26702505D01*
X32602520Y26790493D01*
X32714507Y26902480D01*
X32802495Y27034163D01*
X32863103Y27180482D01*
X32894000Y27335813D01*
X32894000Y27494187D01*
X33286000Y27494187D01*
X33286000Y27335813D01*
X33316897Y27180482D01*
X33377505Y27034163D01*
X33465493Y26902480D01*
X33577480Y26790493D01*
X33709163Y26702505D01*
X33855482Y26641897D01*
X34010813Y26611000D01*
X34169187Y26611000D01*
X34324518Y26641897D01*
X34470837Y26702505D01*
X34602520Y26790493D01*
X34714507Y26902480D01*
X34802495Y27034163D01*
X34863103Y27180482D01*
X34894000Y27335813D01*
X34894000Y27494187D01*
X34863103Y27649518D01*
X34802495Y27795837D01*
X34714507Y27927520D01*
X34602520Y28039507D01*
X34470837Y28127495D01*
X34324518Y28188103D01*
X34169187Y28219000D01*
X34010813Y28219000D01*
X33855482Y28188103D01*
X33709163Y28127495D01*
X33577480Y28039507D01*
X33465493Y27927520D01*
X33377505Y27795837D01*
X33316897Y27649518D01*
X33286000Y27494187D01*
X32894000Y27494187D01*
X32863103Y27649518D01*
X32802495Y27795837D01*
X32714507Y27927520D01*
X32602520Y28039507D01*
X32470837Y28127495D01*
X32324518Y28188103D01*
X32227000Y28207500D01*
X32227000Y28390060D01*
X32230597Y28394443D01*
X32242333Y28416399D01*
X32249560Y28440224D01*
X32252000Y28465000D01*
X32249560Y28489776D01*
X32242333Y28513601D01*
X32230597Y28535557D01*
X32227000Y28539940D01*
X32227000Y28561000D01*
X37573000Y28561000D01*
X37573000Y26892606D01*
G37*
X37573000Y26892606D02*
X36871729Y26191335D01*
X36855482Y26188103D01*
X36709163Y26127495D01*
X36577480Y26039507D01*
X36465493Y25927520D01*
X36377505Y25795837D01*
X36316897Y25649518D01*
X36313665Y25633271D01*
X36135197Y25454803D01*
X36119403Y25435557D01*
X36107667Y25413601D01*
X36100440Y25389776D01*
X36098000Y25365000D01*
X36098000Y22942606D01*
X35869863Y22714469D01*
X35894000Y22835813D01*
X35894000Y22994187D01*
X35863103Y23149518D01*
X35802495Y23295837D01*
X35714507Y23427520D01*
X35602520Y23539507D01*
X35470837Y23627495D01*
X35324518Y23688103D01*
X35169187Y23719000D01*
X35010813Y23719000D01*
X34855482Y23688103D01*
X34709163Y23627495D01*
X34577480Y23539507D01*
X34465493Y23427520D01*
X34377505Y23295837D01*
X34316897Y23149518D01*
X34286000Y22994187D01*
X34286000Y22835813D01*
X34316897Y22680482D01*
X34377505Y22534163D01*
X34465493Y22402480D01*
X34577480Y22290493D01*
X34709163Y22202505D01*
X34855482Y22141897D01*
X35010813Y22111000D01*
X35169187Y22111000D01*
X35290531Y22135137D01*
X35010197Y21854803D01*
X34994403Y21835557D01*
X34982667Y21813601D01*
X34975440Y21789776D01*
X34973000Y21765000D01*
X34973000Y20042606D01*
X33885197Y18954803D01*
X33869403Y18935557D01*
X33857667Y18913601D01*
X33850440Y18889776D01*
X33848000Y18865000D01*
X33848000Y7765000D01*
X33850440Y7740224D01*
X33857667Y7716399D01*
X33869403Y7694443D01*
X33885197Y7675197D01*
X35860197Y5700197D01*
X35879443Y5684403D01*
X35901399Y5672667D01*
X35925224Y5665440D01*
X35950000Y5663000D01*
X45697394Y5663000D01*
X48248000Y3112394D01*
X48248000Y-5281576D01*
X47136190Y-6369216D01*
X47135197Y-6370197D01*
X47047394Y-6458000D01*
X44302606Y-6458000D01*
X44152000Y-6307394D01*
X44152000Y440000D01*
X44149560Y464776D01*
X44142333Y488601D01*
X44130597Y510557D01*
X44114803Y529803D01*
X42164803Y2479803D01*
X42145557Y2495597D01*
X42123601Y2507333D01*
X42099776Y2514560D01*
X42075000Y2517000D01*
X32852606Y2517000D01*
X32187353Y3182253D01*
X33471000Y3182253D01*
X33471000Y3097747D01*
X33487486Y3014865D01*
X33519825Y2936792D01*
X33566774Y2866528D01*
X33626528Y2806774D01*
X33696792Y2759825D01*
X33774865Y2727486D01*
X33857747Y2711000D01*
X33942253Y2711000D01*
X34025135Y2727486D01*
X34103208Y2759825D01*
X34173472Y2806774D01*
X34231900Y2865202D01*
X34290328Y2806774D01*
X34360592Y2759825D01*
X34438665Y2727486D01*
X34521547Y2711000D01*
X34606053Y2711000D01*
X34688935Y2727486D01*
X34767008Y2759825D01*
X34815000Y2791892D01*
X34862992Y2759825D01*
X34941065Y2727486D01*
X35023947Y2711000D01*
X35108453Y2711000D01*
X35191335Y2727486D01*
X35269408Y2759825D01*
X35339672Y2806774D01*
X35399426Y2866528D01*
X35420600Y2898217D01*
X35441774Y2866528D01*
X35501528Y2806774D01*
X35571792Y2759825D01*
X35649865Y2727486D01*
X35732747Y2711000D01*
X35817253Y2711000D01*
X35900135Y2727486D01*
X35978208Y2759825D01*
X36048472Y2806774D01*
X36108226Y2866528D01*
X36155175Y2936792D01*
X36187514Y3014865D01*
X36204000Y3097747D01*
X36204000Y3182253D01*
X36187514Y3265135D01*
X36155175Y3343208D01*
X36120860Y3394564D01*
X39746000Y3394564D01*
X39746000Y3285436D01*
X39767289Y3178404D01*
X39809051Y3077582D01*
X39869680Y2986845D01*
X39946845Y2909680D01*
X40037582Y2849051D01*
X40138404Y2807289D01*
X40245436Y2786000D01*
X40354564Y2786000D01*
X40461596Y2807289D01*
X40562418Y2849051D01*
X40653155Y2909680D01*
X40730320Y2986845D01*
X40790949Y3077582D01*
X40832711Y3178404D01*
X40854000Y3285436D01*
X40854000Y3394564D01*
X40832711Y3501596D01*
X40790949Y3602418D01*
X40730320Y3693155D01*
X40653155Y3770320D01*
X40562418Y3830949D01*
X40461596Y3872711D01*
X40354564Y3894000D01*
X40245436Y3894000D01*
X40138404Y3872711D01*
X40037582Y3830949D01*
X39946845Y3770320D01*
X39869680Y3693155D01*
X39809051Y3602418D01*
X39767289Y3501596D01*
X39746000Y3394564D01*
X36120860Y3394564D01*
X36108226Y3413472D01*
X36048472Y3473226D01*
X35978208Y3520175D01*
X35900135Y3552514D01*
X35817253Y3569000D01*
X35732747Y3569000D01*
X35649865Y3552514D01*
X35571792Y3520175D01*
X35501528Y3473226D01*
X35441774Y3413472D01*
X35420600Y3381783D01*
X35399426Y3413472D01*
X35339672Y3473226D01*
X35269408Y3520175D01*
X35191335Y3552514D01*
X35108453Y3569000D01*
X35023947Y3569000D01*
X34941065Y3552514D01*
X34862992Y3520175D01*
X34815000Y3488108D01*
X34767008Y3520175D01*
X34688935Y3552514D01*
X34606053Y3569000D01*
X34521547Y3569000D01*
X34438665Y3552514D01*
X34360592Y3520175D01*
X34290328Y3473226D01*
X34231900Y3414798D01*
X34173472Y3473226D01*
X34103208Y3520175D01*
X34025135Y3552514D01*
X33942253Y3569000D01*
X33857747Y3569000D01*
X33774865Y3552514D01*
X33696792Y3520175D01*
X33626528Y3473226D01*
X33566774Y3413472D01*
X33519825Y3343208D01*
X33487486Y3265135D01*
X33471000Y3182253D01*
X32187353Y3182253D01*
X31602000Y3767606D01*
X31602000Y7186844D01*
X31677989Y7155368D01*
X31775360Y7136000D01*
X31874640Y7136000D01*
X31972011Y7155368D01*
X32063734Y7193361D01*
X32146282Y7248517D01*
X32216483Y7318718D01*
X32271639Y7401266D01*
X32309632Y7492989D01*
X32329000Y7590360D01*
X32329000Y7689640D01*
X32309632Y7787011D01*
X32271639Y7878734D01*
X32216483Y7961282D01*
X32146282Y8031483D01*
X32063734Y8086639D01*
X31972011Y8124632D01*
X31874640Y8144000D01*
X31775360Y8144000D01*
X31677989Y8124632D01*
X31602000Y8093156D01*
X31602000Y19012394D01*
X32189803Y19600197D01*
X32205597Y19619443D01*
X32217333Y19641399D01*
X32224560Y19665224D01*
X32227000Y19690000D01*
X32227000Y20122500D01*
X32324518Y20141897D01*
X32470837Y20202505D01*
X32602520Y20290493D01*
X32714507Y20402480D01*
X32802495Y20534163D01*
X32863103Y20680482D01*
X32894000Y20835813D01*
X32894000Y20994187D01*
X32863103Y21149518D01*
X32802495Y21295837D01*
X32714507Y21427520D01*
X32602520Y21539507D01*
X32470837Y21627495D01*
X32324518Y21688103D01*
X32227000Y21707500D01*
X32227000Y22994187D01*
X32286000Y22994187D01*
X32286000Y22835813D01*
X32316897Y22680482D01*
X32377505Y22534163D01*
X32465493Y22402480D01*
X32577480Y22290493D01*
X32709163Y22202505D01*
X32855482Y22141897D01*
X33010813Y22111000D01*
X33169187Y22111000D01*
X33324518Y22141897D01*
X33470837Y22202505D01*
X33602520Y22290493D01*
X33714507Y22402480D01*
X33802495Y22534163D01*
X33863103Y22680482D01*
X33894000Y22835813D01*
X33894000Y22994187D01*
X33863103Y23149518D01*
X33802495Y23295837D01*
X33714507Y23427520D01*
X33602520Y23539507D01*
X33470837Y23627495D01*
X33324518Y23688103D01*
X33169187Y23719000D01*
X33010813Y23719000D01*
X32855482Y23688103D01*
X32709163Y23627495D01*
X32577480Y23539507D01*
X32465493Y23427520D01*
X32377505Y23295837D01*
X32316897Y23149518D01*
X32286000Y22994187D01*
X32227000Y22994187D01*
X32227000Y25494187D01*
X32286000Y25494187D01*
X32286000Y25335813D01*
X32316897Y25180482D01*
X32377505Y25034163D01*
X32465493Y24902480D01*
X32577480Y24790493D01*
X32709163Y24702505D01*
X32855482Y24641897D01*
X33010813Y24611000D01*
X33169187Y24611000D01*
X33324518Y24641897D01*
X33470837Y24702505D01*
X33602520Y24790493D01*
X33714507Y24902480D01*
X33802495Y25034163D01*
X33863103Y25180482D01*
X33894000Y25335813D01*
X33894000Y25494187D01*
X33863103Y25649518D01*
X33802495Y25795837D01*
X33714507Y25927520D01*
X33602520Y26039507D01*
X33470837Y26127495D01*
X33324518Y26188103D01*
X33169187Y26219000D01*
X33010813Y26219000D01*
X32855482Y26188103D01*
X32709163Y26127495D01*
X32577480Y26039507D01*
X32465493Y25927520D01*
X32377505Y25795837D01*
X32316897Y25649518D01*
X32286000Y25494187D01*
X32227000Y25494187D01*
X32227000Y26622500D01*
X32324518Y26641897D01*
X32470837Y26702505D01*
X32602520Y26790493D01*
X32714507Y26902480D01*
X32802495Y27034163D01*
X32863103Y27180482D01*
X32894000Y27335813D01*
X32894000Y27494187D01*
X33286000Y27494187D01*
X33286000Y27335813D01*
X33316897Y27180482D01*
X33377505Y27034163D01*
X33465493Y26902480D01*
X33577480Y26790493D01*
X33709163Y26702505D01*
X33855482Y26641897D01*
X34010813Y26611000D01*
X34169187Y26611000D01*
X34324518Y26641897D01*
X34470837Y26702505D01*
X34602520Y26790493D01*
X34714507Y26902480D01*
X34802495Y27034163D01*
X34863103Y27180482D01*
X34894000Y27335813D01*
X34894000Y27494187D01*
X34863103Y27649518D01*
X34802495Y27795837D01*
X34714507Y27927520D01*
X34602520Y28039507D01*
X34470837Y28127495D01*
X34324518Y28188103D01*
X34169187Y28219000D01*
X34010813Y28219000D01*
X33855482Y28188103D01*
X33709163Y28127495D01*
X33577480Y28039507D01*
X33465493Y27927520D01*
X33377505Y27795837D01*
X33316897Y27649518D01*
X33286000Y27494187D01*
X32894000Y27494187D01*
X32863103Y27649518D01*
X32802495Y27795837D01*
X32714507Y27927520D01*
X32602520Y28039507D01*
X32470837Y28127495D01*
X32324518Y28188103D01*
X32227000Y28207500D01*
X32227000Y28390060D01*
X32230597Y28394443D01*
X32242333Y28416399D01*
X32249560Y28440224D01*
X32252000Y28465000D01*
X32249560Y28489776D01*
X32242333Y28513601D01*
X32230597Y28535557D01*
X32227000Y28539940D01*
X32227000Y28561000D01*
X37573000Y28561000D01*
X37573000Y26892606D01*
%TO.N,+12V*%
G36*
X12217862Y17867532D02*
G01*
X12452532Y17632862D01*
X12523000Y17462737D01*
X12523000Y13592000D01*
X12525440Y13567224D01*
X12532667Y13543399D01*
X12622470Y13326596D01*
X12634206Y13304639D01*
X12650000Y13285394D01*
X24102532Y1832862D01*
X24173000Y1662737D01*
X24173000Y-2071972D01*
X24104583Y-2237144D01*
X24066000Y-2431115D01*
X24066000Y-2628885D01*
X24104583Y-2822856D01*
X24173000Y-2988028D01*
X24173000Y-3858000D01*
X24175440Y-3882776D01*
X24182667Y-3906601D01*
X24272470Y-4123404D01*
X24284206Y-4145361D01*
X24300000Y-4164606D01*
X32270394Y-12135000D01*
X32289640Y-12150794D01*
X32311596Y-12162530D01*
X32528399Y-12252333D01*
X32552223Y-12259560D01*
X32577000Y-12262000D01*
X38973000Y-12262000D01*
X38997776Y-12259560D01*
X39021601Y-12252333D01*
X39238404Y-12162530D01*
X39260361Y-12150794D01*
X39279606Y-12135000D01*
X40650000Y-10764606D01*
X40665794Y-10745360D01*
X40677530Y-10723404D01*
X40767333Y-10506601D01*
X40774560Y-10482777D01*
X40777000Y-10458000D01*
X40777000Y-7962000D01*
X40774560Y-7937224D01*
X40767333Y-7913399D01*
X40677530Y-7696596D01*
X40665794Y-7674639D01*
X40650000Y-7655394D01*
X38797468Y-5802862D01*
X38727000Y-5632737D01*
X38727000Y-4837263D01*
X38797468Y-4667138D01*
X39250000Y-4214606D01*
X39265794Y-4195360D01*
X39277530Y-4173404D01*
X39367333Y-3956601D01*
X39374560Y-3932777D01*
X39377000Y-3908000D01*
X39377000Y-1165285D01*
X39571000Y-1165285D01*
X39571000Y-1254715D01*
X39588447Y-1342427D01*
X39622670Y-1425050D01*
X39672355Y-1499408D01*
X39735592Y-1562645D01*
X39809950Y-1612330D01*
X39892573Y-1646553D01*
X39980285Y-1664000D01*
X40069715Y-1664000D01*
X40157427Y-1646553D01*
X40240050Y-1612330D01*
X40314408Y-1562645D01*
X40377645Y-1499408D01*
X40427330Y-1425050D01*
X40461553Y-1342427D01*
X40479000Y-1254715D01*
X40479000Y-1165285D01*
X40461553Y-1077573D01*
X40427330Y-994950D01*
X40377645Y-920592D01*
X40314408Y-857355D01*
X40240050Y-807670D01*
X40157427Y-773447D01*
X40069715Y-756000D01*
X39980285Y-756000D01*
X39892573Y-773447D01*
X39809950Y-807670D01*
X39735592Y-857355D01*
X39672355Y-920592D01*
X39622670Y-994950D01*
X39588447Y-1077573D01*
X39571000Y-1165285D01*
X39377000Y-1165285D01*
X39377000Y-737263D01*
X39447468Y-567138D01*
X39732138Y-282468D01*
X39902263Y-212000D01*
X42247737Y-212000D01*
X42417862Y-282468D01*
X42752532Y-617138D01*
X42823000Y-787263D01*
X42823000Y-7808000D01*
X42825440Y-7832776D01*
X42832667Y-7856601D01*
X42922470Y-8073404D01*
X42934206Y-8095361D01*
X42950000Y-8114606D01*
X43320394Y-8485000D01*
X43339640Y-8500794D01*
X43361596Y-8512530D01*
X43578399Y-8602333D01*
X43602223Y-8609560D01*
X43627000Y-8612000D01*
X46547737Y-8612000D01*
X46717862Y-8682468D01*
X48020394Y-9985000D01*
X48039640Y-10000794D01*
X48061596Y-10012530D01*
X48278399Y-10102333D01*
X48302223Y-10109560D01*
X48327000Y-10112000D01*
X51473000Y-10112000D01*
X51497776Y-10109560D01*
X51521601Y-10102333D01*
X51738404Y-10012530D01*
X51760361Y-10000794D01*
X51779606Y-9985000D01*
X52632138Y-9132468D01*
X52802263Y-9062000D01*
X60473000Y-9062000D01*
X60497776Y-9059560D01*
X60521601Y-9052333D01*
X60738404Y-8962530D01*
X60760361Y-8950794D01*
X60779606Y-8935000D01*
X61974321Y-7740285D01*
X64321000Y-7740285D01*
X64321000Y-7829715D01*
X64338447Y-7917427D01*
X64372670Y-8000050D01*
X64422355Y-8074408D01*
X64485592Y-8137645D01*
X64559950Y-8187330D01*
X64642573Y-8221553D01*
X64730285Y-8239000D01*
X64819715Y-8239000D01*
X64907427Y-8221553D01*
X64990050Y-8187330D01*
X65064408Y-8137645D01*
X65127645Y-8074408D01*
X65177330Y-8000050D01*
X65211553Y-7917427D01*
X65229000Y-7829715D01*
X65229000Y-7740285D01*
X65211553Y-7652573D01*
X65177330Y-7569950D01*
X65127645Y-7495592D01*
X65064408Y-7432355D01*
X64990050Y-7382670D01*
X64907427Y-7348447D01*
X64819715Y-7331000D01*
X64730285Y-7331000D01*
X64642573Y-7348447D01*
X64559950Y-7382670D01*
X64485592Y-7432355D01*
X64422355Y-7495592D01*
X64372670Y-7569950D01*
X64338447Y-7652573D01*
X64321000Y-7740285D01*
X61974321Y-7740285D01*
X63350000Y-6364606D01*
X63365794Y-6345360D01*
X63377530Y-6323404D01*
X63467333Y-6106601D01*
X63474560Y-6082777D01*
X63477000Y-6058000D01*
X63477000Y-4715383D01*
X63573926Y-4618457D01*
X63664650Y-4482679D01*
X63727142Y-4331810D01*
X63759000Y-4171649D01*
X63759000Y-4105606D01*
X63782138Y-4082468D01*
X63952263Y-4012000D01*
X66647737Y-4012000D01*
X66817862Y-4082468D01*
X67052532Y-4317138D01*
X67123000Y-4487263D01*
X67123000Y-11832737D01*
X67052532Y-12002862D01*
X60767862Y-18287532D01*
X60597737Y-18358000D01*
X47135765Y-18358000D01*
X47121282Y-18343517D01*
X47038734Y-18288361D01*
X46947011Y-18250368D01*
X46849640Y-18231000D01*
X46750360Y-18231000D01*
X46652989Y-18250368D01*
X46561266Y-18288361D01*
X46478718Y-18343517D01*
X46464235Y-18358000D01*
X30702263Y-18358000D01*
X30532138Y-18287532D01*
X29534891Y-17290285D01*
X40521000Y-17290285D01*
X40521000Y-17379715D01*
X40538447Y-17467427D01*
X40572670Y-17550050D01*
X40622355Y-17624408D01*
X40685592Y-17687645D01*
X40759950Y-17737330D01*
X40842573Y-17771553D01*
X40930285Y-17789000D01*
X41019715Y-17789000D01*
X41107427Y-17771553D01*
X41122559Y-17765285D01*
X50571000Y-17765285D01*
X50571000Y-17854715D01*
X50588447Y-17942427D01*
X50622670Y-18025050D01*
X50672355Y-18099408D01*
X50735592Y-18162645D01*
X50809950Y-18212330D01*
X50892573Y-18246553D01*
X50980285Y-18264000D01*
X51069715Y-18264000D01*
X51157427Y-18246553D01*
X51240050Y-18212330D01*
X51314408Y-18162645D01*
X51377645Y-18099408D01*
X51427330Y-18025050D01*
X51461553Y-17942427D01*
X51479000Y-17854715D01*
X51479000Y-17765285D01*
X51461553Y-17677573D01*
X51427330Y-17594950D01*
X51377645Y-17520592D01*
X51314408Y-17457355D01*
X51240050Y-17407670D01*
X51157427Y-17373447D01*
X51069715Y-17356000D01*
X50980285Y-17356000D01*
X50892573Y-17373447D01*
X50809950Y-17407670D01*
X50735592Y-17457355D01*
X50672355Y-17520592D01*
X50622670Y-17594950D01*
X50588447Y-17677573D01*
X50571000Y-17765285D01*
X41122559Y-17765285D01*
X41190050Y-17737330D01*
X41264408Y-17687645D01*
X41327645Y-17624408D01*
X41377330Y-17550050D01*
X41411553Y-17467427D01*
X41429000Y-17379715D01*
X41429000Y-17290285D01*
X41411553Y-17202573D01*
X41377330Y-17119950D01*
X41327645Y-17045592D01*
X41264408Y-16982355D01*
X41190050Y-16932670D01*
X41107427Y-16898447D01*
X41019715Y-16881000D01*
X40930285Y-16881000D01*
X40842573Y-16898447D01*
X40759950Y-16932670D01*
X40685592Y-16982355D01*
X40622355Y-17045592D01*
X40572670Y-17119950D01*
X40538447Y-17202573D01*
X40521000Y-17290285D01*
X29534891Y-17290285D01*
X29009891Y-16765285D01*
X46371000Y-16765285D01*
X46371000Y-16854715D01*
X46388447Y-16942427D01*
X46422670Y-17025050D01*
X46472355Y-17099408D01*
X46535592Y-17162645D01*
X46609950Y-17212330D01*
X46692573Y-17246553D01*
X46780285Y-17264000D01*
X46869715Y-17264000D01*
X46957427Y-17246553D01*
X47040050Y-17212330D01*
X47114408Y-17162645D01*
X47177645Y-17099408D01*
X47227330Y-17025050D01*
X47261553Y-16942427D01*
X47279000Y-16854715D01*
X47279000Y-16765285D01*
X47261553Y-16677573D01*
X47227330Y-16594950D01*
X47177645Y-16520592D01*
X47114408Y-16457355D01*
X47040050Y-16407670D01*
X46957427Y-16373447D01*
X46869715Y-16356000D01*
X46780285Y-16356000D01*
X46692573Y-16373447D01*
X46609950Y-16407670D01*
X46535592Y-16457355D01*
X46472355Y-16520592D01*
X46422670Y-16594950D01*
X46388447Y-16677573D01*
X46371000Y-16765285D01*
X29009891Y-16765285D01*
X22434891Y-10190285D01*
X24896000Y-10190285D01*
X24896000Y-10279715D01*
X24913447Y-10367427D01*
X24947670Y-10450050D01*
X24997355Y-10524408D01*
X25060592Y-10587645D01*
X25134950Y-10637330D01*
X25217573Y-10671553D01*
X25305285Y-10689000D01*
X25394715Y-10689000D01*
X25482427Y-10671553D01*
X25565050Y-10637330D01*
X25639408Y-10587645D01*
X25702645Y-10524408D01*
X25752330Y-10450050D01*
X25786553Y-10367427D01*
X25804000Y-10279715D01*
X25804000Y-10190285D01*
X25786553Y-10102573D01*
X25752330Y-10019950D01*
X25702645Y-9945592D01*
X25639408Y-9882355D01*
X25565050Y-9832670D01*
X25482427Y-9798447D01*
X25394715Y-9781000D01*
X25305285Y-9781000D01*
X25217573Y-9798447D01*
X25134950Y-9832670D01*
X25060592Y-9882355D01*
X24997355Y-9945592D01*
X24947670Y-10019950D01*
X24913447Y-10102573D01*
X24896000Y-10190285D01*
X22434891Y-10190285D01*
X20734891Y-8490285D01*
X25796000Y-8490285D01*
X25796000Y-8579715D01*
X25813447Y-8667427D01*
X25847670Y-8750050D01*
X25897355Y-8824408D01*
X25960592Y-8887645D01*
X26034950Y-8937330D01*
X26117573Y-8971553D01*
X26205285Y-8989000D01*
X26294715Y-8989000D01*
X26382427Y-8971553D01*
X26465050Y-8937330D01*
X26539408Y-8887645D01*
X26602645Y-8824408D01*
X26652330Y-8750050D01*
X26686553Y-8667427D01*
X26704000Y-8579715D01*
X26704000Y-8490285D01*
X26686553Y-8402573D01*
X26652330Y-8319950D01*
X26602645Y-8245592D01*
X26539408Y-8182355D01*
X26465050Y-8132670D01*
X26382427Y-8098447D01*
X26294715Y-8081000D01*
X26205285Y-8081000D01*
X26117573Y-8098447D01*
X26034950Y-8132670D01*
X25960592Y-8182355D01*
X25897355Y-8245592D01*
X25847670Y-8319950D01*
X25813447Y-8402573D01*
X25796000Y-8490285D01*
X20734891Y-8490285D01*
X5247468Y6997138D01*
X5177000Y7167263D01*
X5177000Y17162737D01*
X5247468Y17332862D01*
X5782138Y17867532D01*
X5952263Y17938000D01*
X12047737Y17938000D01*
X12217862Y17867532D01*
G37*
X12217862Y17867532D02*
X12452532Y17632862D01*
X12523000Y17462737D01*
X12523000Y13592000D01*
X12525440Y13567224D01*
X12532667Y13543399D01*
X12622470Y13326596D01*
X12634206Y13304639D01*
X12650000Y13285394D01*
X24102532Y1832862D01*
X24173000Y1662737D01*
X24173000Y-2071972D01*
X24104583Y-2237144D01*
X24066000Y-2431115D01*
X24066000Y-2628885D01*
X24104583Y-2822856D01*
X24173000Y-2988028D01*
X24173000Y-3858000D01*
X24175440Y-3882776D01*
X24182667Y-3906601D01*
X24272470Y-4123404D01*
X24284206Y-4145361D01*
X24300000Y-4164606D01*
X32270394Y-12135000D01*
X32289640Y-12150794D01*
X32311596Y-12162530D01*
X32528399Y-12252333D01*
X32552223Y-12259560D01*
X32577000Y-12262000D01*
X38973000Y-12262000D01*
X38997776Y-12259560D01*
X39021601Y-12252333D01*
X39238404Y-12162530D01*
X39260361Y-12150794D01*
X39279606Y-12135000D01*
X40650000Y-10764606D01*
X40665794Y-10745360D01*
X40677530Y-10723404D01*
X40767333Y-10506601D01*
X40774560Y-10482777D01*
X40777000Y-10458000D01*
X40777000Y-7962000D01*
X40774560Y-7937224D01*
X40767333Y-7913399D01*
X40677530Y-7696596D01*
X40665794Y-7674639D01*
X40650000Y-7655394D01*
X38797468Y-5802862D01*
X38727000Y-5632737D01*
X38727000Y-4837263D01*
X38797468Y-4667138D01*
X39250000Y-4214606D01*
X39265794Y-4195360D01*
X39277530Y-4173404D01*
X39367333Y-3956601D01*
X39374560Y-3932777D01*
X39377000Y-3908000D01*
X39377000Y-1165285D01*
X39571000Y-1165285D01*
X39571000Y-1254715D01*
X39588447Y-1342427D01*
X39622670Y-1425050D01*
X39672355Y-1499408D01*
X39735592Y-1562645D01*
X39809950Y-1612330D01*
X39892573Y-1646553D01*
X39980285Y-1664000D01*
X40069715Y-1664000D01*
X40157427Y-1646553D01*
X40240050Y-1612330D01*
X40314408Y-1562645D01*
X40377645Y-1499408D01*
X40427330Y-1425050D01*
X40461553Y-1342427D01*
X40479000Y-1254715D01*
X40479000Y-1165285D01*
X40461553Y-1077573D01*
X40427330Y-994950D01*
X40377645Y-920592D01*
X40314408Y-857355D01*
X40240050Y-807670D01*
X40157427Y-773447D01*
X40069715Y-756000D01*
X39980285Y-756000D01*
X39892573Y-773447D01*
X39809950Y-807670D01*
X39735592Y-857355D01*
X39672355Y-920592D01*
X39622670Y-994950D01*
X39588447Y-1077573D01*
X39571000Y-1165285D01*
X39377000Y-1165285D01*
X39377000Y-737263D01*
X39447468Y-567138D01*
X39732138Y-282468D01*
X39902263Y-212000D01*
X42247737Y-212000D01*
X42417862Y-282468D01*
X42752532Y-617138D01*
X42823000Y-787263D01*
X42823000Y-7808000D01*
X42825440Y-7832776D01*
X42832667Y-7856601D01*
X42922470Y-8073404D01*
X42934206Y-8095361D01*
X42950000Y-8114606D01*
X43320394Y-8485000D01*
X43339640Y-8500794D01*
X43361596Y-8512530D01*
X43578399Y-8602333D01*
X43602223Y-8609560D01*
X43627000Y-8612000D01*
X46547737Y-8612000D01*
X46717862Y-8682468D01*
X48020394Y-9985000D01*
X48039640Y-10000794D01*
X48061596Y-10012530D01*
X48278399Y-10102333D01*
X48302223Y-10109560D01*
X48327000Y-10112000D01*
X51473000Y-10112000D01*
X51497776Y-10109560D01*
X51521601Y-10102333D01*
X51738404Y-10012530D01*
X51760361Y-10000794D01*
X51779606Y-9985000D01*
X52632138Y-9132468D01*
X52802263Y-9062000D01*
X60473000Y-9062000D01*
X60497776Y-9059560D01*
X60521601Y-9052333D01*
X60738404Y-8962530D01*
X60760361Y-8950794D01*
X60779606Y-8935000D01*
X61974321Y-7740285D01*
X64321000Y-7740285D01*
X64321000Y-7829715D01*
X64338447Y-7917427D01*
X64372670Y-8000050D01*
X64422355Y-8074408D01*
X64485592Y-8137645D01*
X64559950Y-8187330D01*
X64642573Y-8221553D01*
X64730285Y-8239000D01*
X64819715Y-8239000D01*
X64907427Y-8221553D01*
X64990050Y-8187330D01*
X65064408Y-8137645D01*
X65127645Y-8074408D01*
X65177330Y-8000050D01*
X65211553Y-7917427D01*
X65229000Y-7829715D01*
X65229000Y-7740285D01*
X65211553Y-7652573D01*
X65177330Y-7569950D01*
X65127645Y-7495592D01*
X65064408Y-7432355D01*
X64990050Y-7382670D01*
X64907427Y-7348447D01*
X64819715Y-7331000D01*
X64730285Y-7331000D01*
X64642573Y-7348447D01*
X64559950Y-7382670D01*
X64485592Y-7432355D01*
X64422355Y-7495592D01*
X64372670Y-7569950D01*
X64338447Y-7652573D01*
X64321000Y-7740285D01*
X61974321Y-7740285D01*
X63350000Y-6364606D01*
X63365794Y-6345360D01*
X63377530Y-6323404D01*
X63467333Y-6106601D01*
X63474560Y-6082777D01*
X63477000Y-6058000D01*
X63477000Y-4715383D01*
X63573926Y-4618457D01*
X63664650Y-4482679D01*
X63727142Y-4331810D01*
X63759000Y-4171649D01*
X63759000Y-4105606D01*
X63782138Y-4082468D01*
X63952263Y-4012000D01*
X66647737Y-4012000D01*
X66817862Y-4082468D01*
X67052532Y-4317138D01*
X67123000Y-4487263D01*
X67123000Y-11832737D01*
X67052532Y-12002862D01*
X60767862Y-18287532D01*
X60597737Y-18358000D01*
X47135765Y-18358000D01*
X47121282Y-18343517D01*
X47038734Y-18288361D01*
X46947011Y-18250368D01*
X46849640Y-18231000D01*
X46750360Y-18231000D01*
X46652989Y-18250368D01*
X46561266Y-18288361D01*
X46478718Y-18343517D01*
X46464235Y-18358000D01*
X30702263Y-18358000D01*
X30532138Y-18287532D01*
X29534891Y-17290285D01*
X40521000Y-17290285D01*
X40521000Y-17379715D01*
X40538447Y-17467427D01*
X40572670Y-17550050D01*
X40622355Y-17624408D01*
X40685592Y-17687645D01*
X40759950Y-17737330D01*
X40842573Y-17771553D01*
X40930285Y-17789000D01*
X41019715Y-17789000D01*
X41107427Y-17771553D01*
X41122559Y-17765285D01*
X50571000Y-17765285D01*
X50571000Y-17854715D01*
X50588447Y-17942427D01*
X50622670Y-18025050D01*
X50672355Y-18099408D01*
X50735592Y-18162645D01*
X50809950Y-18212330D01*
X50892573Y-18246553D01*
X50980285Y-18264000D01*
X51069715Y-18264000D01*
X51157427Y-18246553D01*
X51240050Y-18212330D01*
X51314408Y-18162645D01*
X51377645Y-18099408D01*
X51427330Y-18025050D01*
X51461553Y-17942427D01*
X51479000Y-17854715D01*
X51479000Y-17765285D01*
X51461553Y-17677573D01*
X51427330Y-17594950D01*
X51377645Y-17520592D01*
X51314408Y-17457355D01*
X51240050Y-17407670D01*
X51157427Y-17373447D01*
X51069715Y-17356000D01*
X50980285Y-17356000D01*
X50892573Y-17373447D01*
X50809950Y-17407670D01*
X50735592Y-17457355D01*
X50672355Y-17520592D01*
X50622670Y-17594950D01*
X50588447Y-17677573D01*
X50571000Y-17765285D01*
X41122559Y-17765285D01*
X41190050Y-17737330D01*
X41264408Y-17687645D01*
X41327645Y-17624408D01*
X41377330Y-17550050D01*
X41411553Y-17467427D01*
X41429000Y-17379715D01*
X41429000Y-17290285D01*
X41411553Y-17202573D01*
X41377330Y-17119950D01*
X41327645Y-17045592D01*
X41264408Y-16982355D01*
X41190050Y-16932670D01*
X41107427Y-16898447D01*
X41019715Y-16881000D01*
X40930285Y-16881000D01*
X40842573Y-16898447D01*
X40759950Y-16932670D01*
X40685592Y-16982355D01*
X40622355Y-17045592D01*
X40572670Y-17119950D01*
X40538447Y-17202573D01*
X40521000Y-17290285D01*
X29534891Y-17290285D01*
X29009891Y-16765285D01*
X46371000Y-16765285D01*
X46371000Y-16854715D01*
X46388447Y-16942427D01*
X46422670Y-17025050D01*
X46472355Y-17099408D01*
X46535592Y-17162645D01*
X46609950Y-17212330D01*
X46692573Y-17246553D01*
X46780285Y-17264000D01*
X46869715Y-17264000D01*
X46957427Y-17246553D01*
X47040050Y-17212330D01*
X47114408Y-17162645D01*
X47177645Y-17099408D01*
X47227330Y-17025050D01*
X47261553Y-16942427D01*
X47279000Y-16854715D01*
X47279000Y-16765285D01*
X47261553Y-16677573D01*
X47227330Y-16594950D01*
X47177645Y-16520592D01*
X47114408Y-16457355D01*
X47040050Y-16407670D01*
X46957427Y-16373447D01*
X46869715Y-16356000D01*
X46780285Y-16356000D01*
X46692573Y-16373447D01*
X46609950Y-16407670D01*
X46535592Y-16457355D01*
X46472355Y-16520592D01*
X46422670Y-16594950D01*
X46388447Y-16677573D01*
X46371000Y-16765285D01*
X29009891Y-16765285D01*
X22434891Y-10190285D01*
X24896000Y-10190285D01*
X24896000Y-10279715D01*
X24913447Y-10367427D01*
X24947670Y-10450050D01*
X24997355Y-10524408D01*
X25060592Y-10587645D01*
X25134950Y-10637330D01*
X25217573Y-10671553D01*
X25305285Y-10689000D01*
X25394715Y-10689000D01*
X25482427Y-10671553D01*
X25565050Y-10637330D01*
X25639408Y-10587645D01*
X25702645Y-10524408D01*
X25752330Y-10450050D01*
X25786553Y-10367427D01*
X25804000Y-10279715D01*
X25804000Y-10190285D01*
X25786553Y-10102573D01*
X25752330Y-10019950D01*
X25702645Y-9945592D01*
X25639408Y-9882355D01*
X25565050Y-9832670D01*
X25482427Y-9798447D01*
X25394715Y-9781000D01*
X25305285Y-9781000D01*
X25217573Y-9798447D01*
X25134950Y-9832670D01*
X25060592Y-9882355D01*
X24997355Y-9945592D01*
X24947670Y-10019950D01*
X24913447Y-10102573D01*
X24896000Y-10190285D01*
X22434891Y-10190285D01*
X20734891Y-8490285D01*
X25796000Y-8490285D01*
X25796000Y-8579715D01*
X25813447Y-8667427D01*
X25847670Y-8750050D01*
X25897355Y-8824408D01*
X25960592Y-8887645D01*
X26034950Y-8937330D01*
X26117573Y-8971553D01*
X26205285Y-8989000D01*
X26294715Y-8989000D01*
X26382427Y-8971553D01*
X26465050Y-8937330D01*
X26539408Y-8887645D01*
X26602645Y-8824408D01*
X26652330Y-8750050D01*
X26686553Y-8667427D01*
X26704000Y-8579715D01*
X26704000Y-8490285D01*
X26686553Y-8402573D01*
X26652330Y-8319950D01*
X26602645Y-8245592D01*
X26539408Y-8182355D01*
X26465050Y-8132670D01*
X26382427Y-8098447D01*
X26294715Y-8081000D01*
X26205285Y-8081000D01*
X26117573Y-8098447D01*
X26034950Y-8132670D01*
X25960592Y-8182355D01*
X25897355Y-8245592D01*
X25847670Y-8319950D01*
X25813447Y-8402573D01*
X25796000Y-8490285D01*
X20734891Y-8490285D01*
X5247468Y6997138D01*
X5177000Y7167263D01*
X5177000Y17162737D01*
X5247468Y17332862D01*
X5782138Y17867532D01*
X5952263Y17938000D01*
X12047737Y17938000D01*
X12217862Y17867532D01*
%TD*%
M02*
