%TF.GenerationSoftware,KiCad,Pcbnew,(5.1.5)-3*%
%TF.CreationDate,2022-01-08T01:18:32+01:00*%
%TF.ProjectId,Riser Leopard 2OU PCIe x16 2xOculink,52697365-7220-44c6-956f-706172642032,rev?*%
%TF.SameCoordinates,PX459e440PY54cbc38*%
%TF.FileFunction,Paste,Top*%
%TF.FilePolarity,Positive*%
%FSLAX46Y46*%
G04 Gerber Fmt 4.6, Leading zero omitted, Abs format (unit mm)*
G04 Created by KiCad (PCBNEW (5.1.5)-3) date 2022-01-08 01:18:32*
%MOMM*%
%LPD*%
G04 APERTURE LIST*
%ADD10R,0.800000X4.200000*%
%ADD11R,1.600000X2.800000*%
%ADD12R,0.600000X0.500000*%
%ADD13R,0.750000X0.800000*%
%ADD14R,0.500000X0.600000*%
%ADD15R,0.350000X0.300000*%
%ADD16R,0.300000X0.350000*%
%ADD17R,0.310000X1.400000*%
%ADD18R,1.200000X1.800000*%
%ADD19R,0.600000X0.400000*%
%ADD20R,0.400000X0.600000*%
%ADD21R,0.450000X1.450000*%
%ADD22R,0.930000X0.930000*%
%ADD23R,0.600000X0.250000*%
%ADD24R,0.250000X0.600000*%
G04 APERTURE END LIST*
D10*
%TO.C,J1*%
X74700000Y-46085000D03*
X77700000Y-46085000D03*
X85700000Y-46085000D03*
X97700000Y-46085000D03*
X86700000Y-46085000D03*
X89700000Y-46085000D03*
X73700000Y-46085000D03*
X80700000Y-46085000D03*
X91700000Y-46085000D03*
X93700000Y-46085000D03*
X81700000Y-46085000D03*
X75700000Y-46085000D03*
X87700000Y-46085000D03*
X94700000Y-46085000D03*
X95700000Y-46085000D03*
X84700000Y-46085000D03*
X90700000Y-46085000D03*
X83700000Y-46085000D03*
X79700000Y-46085000D03*
X76700000Y-46085000D03*
X82700000Y-46085000D03*
X99700000Y-46085000D03*
X98700000Y-46085000D03*
X88700000Y-46085000D03*
X78700000Y-46085000D03*
X92700000Y-46085000D03*
X96700000Y-46085000D03*
X72700000Y-46085000D03*
X64700000Y-46085000D03*
X58700000Y-46085000D03*
X60700000Y-46085000D03*
X56700000Y-46085000D03*
X50700000Y-46085000D03*
X48700000Y-46085000D03*
X40700000Y-46085000D03*
X55700000Y-46085000D03*
X46700000Y-46085000D03*
X42700000Y-46085000D03*
X54700000Y-46085000D03*
X44700000Y-46085000D03*
X41700000Y-46085000D03*
X52700000Y-46085000D03*
X71700000Y-46085000D03*
X70700000Y-46085000D03*
X69700000Y-46085000D03*
X68700000Y-46085000D03*
X59700000Y-46085000D03*
X57700000Y-46085000D03*
X51700000Y-46085000D03*
X49700000Y-46085000D03*
X66700000Y-46085000D03*
X67700000Y-46085000D03*
X45700000Y-46085000D03*
X61700000Y-46085000D03*
X53700000Y-46085000D03*
X43700000Y-46085000D03*
X65700000Y-46085000D03*
X47700000Y-46085000D03*
X63700000Y-46085000D03*
X62700000Y-46085000D03*
X29700000Y-46085000D03*
X16600000Y-46085000D03*
X36700000Y-46085000D03*
X35700000Y-46085000D03*
X34700000Y-46085000D03*
X33700000Y-46085000D03*
X31700000Y-46085000D03*
X30700000Y-46085000D03*
X39700000Y-46085000D03*
X38700000Y-46085000D03*
X32700000Y-46085000D03*
X37700000Y-46085000D03*
X21600000Y-46085000D03*
X24600000Y-46085000D03*
X23600000Y-46085000D03*
X19600000Y-46085000D03*
X22600000Y-46085000D03*
X20600000Y-46085000D03*
X25600000Y-46085000D03*
X26600000Y-46085000D03*
X17600000Y-46085000D03*
X18600000Y-46085000D03*
X100700000Y-46085000D03*
X101700000Y-46085000D03*
X102700000Y-46085000D03*
X103700000Y-46085000D03*
X104700000Y-46085000D03*
X105700000Y-46085000D03*
X106700000Y-46085000D03*
X107700000Y-46085000D03*
X108700000Y-46085000D03*
X109700000Y-46085000D03*
X110700000Y-46085000D03*
X111700000Y-46085000D03*
X112700000Y-46085000D03*
X113700000Y-46085000D03*
X114700000Y-46085000D03*
X115700000Y-46085000D03*
X116700000Y-46085000D03*
X117700000Y-46085000D03*
X118700000Y-46085000D03*
X119700000Y-46085000D03*
X120700000Y-46085000D03*
X121700000Y-46085000D03*
X122700000Y-46085000D03*
X123700000Y-46085000D03*
X124700000Y-46085000D03*
X125700000Y-46085000D03*
X126700000Y-46085000D03*
X127700000Y-46085000D03*
X128700000Y-46085000D03*
X129700000Y-46085000D03*
X130700000Y-46085000D03*
X131700000Y-46085000D03*
X132700000Y-46085000D03*
%TD*%
D11*
%TO.C,C1*%
X25875000Y12990000D03*
X25875000Y16790000D03*
%TD*%
D12*
%TO.C,C2*%
X30450000Y15690000D03*
X31550000Y15690000D03*
%TD*%
%TO.C,C3*%
X31540000Y16890000D03*
X30440000Y16890000D03*
%TD*%
%TO.C,C4*%
X30450000Y18090000D03*
X31550000Y18090000D03*
%TD*%
%TO.C,C5*%
X35950000Y18565000D03*
X37050000Y18565000D03*
%TD*%
%TO.C,C6*%
X37050000Y17365000D03*
X35950000Y17365000D03*
%TD*%
D11*
%TO.C,C7*%
X20075000Y16790000D03*
X20075000Y20590000D03*
%TD*%
D13*
%TO.C,C8*%
X20925000Y25315000D03*
X20925000Y26815000D03*
%TD*%
%TO.C,C9*%
X19325000Y26815000D03*
X19325000Y25315000D03*
%TD*%
%TO.C,C10*%
X17725000Y25315000D03*
X17725000Y26815000D03*
%TD*%
D14*
%TO.C,C11*%
X22350000Y26615000D03*
X22350000Y25515000D03*
%TD*%
%TO.C,C12*%
X14350000Y-21885000D03*
X14350000Y-20785000D03*
%TD*%
D15*
%TO.C,C13*%
X31700000Y-41205000D03*
X31700000Y-41765000D03*
%TD*%
%TO.C,C14*%
X36700000Y-41205000D03*
X36700000Y-41765000D03*
%TD*%
%TO.C,C15*%
X40700000Y-41205000D03*
X40700000Y-41765000D03*
%TD*%
%TO.C,C16*%
X44700000Y-41205000D03*
X44700000Y-41765000D03*
%TD*%
%TO.C,C17*%
X32700000Y-41765000D03*
X32700000Y-41205000D03*
%TD*%
%TO.C,C18*%
X37700000Y-41765000D03*
X37700000Y-41205000D03*
%TD*%
%TO.C,C19*%
X41700000Y-41765000D03*
X41700000Y-41205000D03*
%TD*%
%TO.C,C20*%
X45700000Y-41765000D03*
X45700000Y-41205000D03*
%TD*%
%TO.C,C21*%
X43275000Y-20255000D03*
X43275000Y-20815000D03*
%TD*%
D16*
%TO.C,C22*%
X51855000Y-21235000D03*
X51295000Y-21235000D03*
%TD*%
D15*
%TO.C,C23*%
X50825000Y-24755000D03*
X50825000Y-25315000D03*
%TD*%
D14*
%TO.C,C24*%
X42125000Y-21085000D03*
X42125000Y-19985000D03*
%TD*%
%TO.C,C25*%
X40925000Y-19985000D03*
X40925000Y-21085000D03*
%TD*%
%TO.C,C26*%
X49825000Y-27435000D03*
X49825000Y-28535000D03*
%TD*%
%TO.C,C27*%
X48625000Y-28535000D03*
X48625000Y-27435000D03*
%TD*%
D15*
%TO.C,C28*%
X50025000Y-18405000D03*
X50025000Y-18965000D03*
%TD*%
%TO.C,C29*%
X46425000Y-28265000D03*
X46425000Y-27705000D03*
%TD*%
%TO.C,C30*%
X50700000Y-41765000D03*
X50700000Y-41205000D03*
%TD*%
%TO.C,C31*%
X54700000Y-41765000D03*
X54700000Y-41205000D03*
%TD*%
%TO.C,C32*%
X58700000Y-41765000D03*
X58700000Y-41205000D03*
%TD*%
%TO.C,C33*%
X62700000Y-41765000D03*
X62700000Y-41205000D03*
%TD*%
%TO.C,C34*%
X51700000Y-41205000D03*
X51700000Y-41765000D03*
%TD*%
%TO.C,C35*%
X55700000Y-41205000D03*
X55700000Y-41765000D03*
%TD*%
%TO.C,C36*%
X59700000Y-41205000D03*
X59700000Y-41765000D03*
%TD*%
%TO.C,C37*%
X63700000Y-41205000D03*
X63700000Y-41765000D03*
%TD*%
%TO.C,C38*%
X52800000Y-24390000D03*
X52800000Y-23830000D03*
%TD*%
%TO.C,C39*%
X46825000Y-18115000D03*
X46825000Y-17555000D03*
%TD*%
%TO.C,C40*%
X47475000Y-27705000D03*
X47475000Y-28265000D03*
%TD*%
D17*
%TO.C,J3*%
X51900000Y-3730000D03*
X52400000Y-3730000D03*
X52900000Y-3730000D03*
X53400000Y-3730000D03*
X53900000Y-3730000D03*
X54400000Y-3730000D03*
X54900000Y-3730000D03*
X55400000Y-3730000D03*
X55900000Y-3730000D03*
X56400000Y-3730000D03*
X56900000Y-3730000D03*
X57400000Y-3730000D03*
X57900000Y-3730000D03*
X58400000Y-3730000D03*
X58900000Y-3730000D03*
X59400000Y-3730000D03*
X59900000Y-3730000D03*
X60400000Y-3730000D03*
X60900000Y-3730000D03*
X61400000Y-3730000D03*
X61900000Y-3730000D03*
X51400000Y-1830000D03*
X51900000Y-1830000D03*
X52400000Y-1830000D03*
X52900000Y-1830000D03*
X53400000Y-1830000D03*
X53900000Y-1830000D03*
X54400000Y-1830000D03*
X54900000Y-1830000D03*
X55400000Y-1830000D03*
X55900000Y-1830000D03*
X56400000Y-1830000D03*
X56900000Y-1830000D03*
X57400000Y-1830000D03*
X57900000Y-1830000D03*
X58400000Y-1830000D03*
X58900000Y-1830000D03*
X59400000Y-1830000D03*
X59900000Y-1830000D03*
X60400000Y-1830000D03*
X60900000Y-1830000D03*
X61400000Y-1830000D03*
D18*
X51900000Y-6780000D03*
X51550000Y1220000D03*
X61250000Y1220000D03*
X61600000Y-6780000D03*
%TD*%
%TO.C,J4*%
X36600000Y-6840000D03*
X36250000Y1160000D03*
X26550000Y1160000D03*
X26900000Y-6840000D03*
D17*
X36400000Y-1890000D03*
X35900000Y-1890000D03*
X35400000Y-1890000D03*
X34900000Y-1890000D03*
X34400000Y-1890000D03*
X33900000Y-1890000D03*
X33400000Y-1890000D03*
X32900000Y-1890000D03*
X32400000Y-1890000D03*
X31900000Y-1890000D03*
X31400000Y-1890000D03*
X30900000Y-1890000D03*
X30400000Y-1890000D03*
X29900000Y-1890000D03*
X29400000Y-1890000D03*
X28900000Y-1890000D03*
X28400000Y-1890000D03*
X27900000Y-1890000D03*
X27400000Y-1890000D03*
X26900000Y-1890000D03*
X26400000Y-1890000D03*
X36900000Y-3790000D03*
X36400000Y-3790000D03*
X35900000Y-3790000D03*
X35400000Y-3790000D03*
X34900000Y-3790000D03*
X34400000Y-3790000D03*
X33900000Y-3790000D03*
X33400000Y-3790000D03*
X32900000Y-3790000D03*
X32400000Y-3790000D03*
X31900000Y-3790000D03*
X31400000Y-3790000D03*
X30900000Y-3790000D03*
X30400000Y-3790000D03*
X29900000Y-3790000D03*
X29400000Y-3790000D03*
X28900000Y-3790000D03*
X28400000Y-3790000D03*
X27900000Y-3790000D03*
X27400000Y-3790000D03*
X26900000Y-3790000D03*
%TD*%
D19*
%TO.C,R1*%
X66700000Y-41385000D03*
X66700000Y-42285000D03*
%TD*%
%TO.C,R2*%
X99700000Y-41385000D03*
X99700000Y-42285000D03*
%TD*%
%TO.C,R3*%
X34700000Y-41935000D03*
X34700000Y-41035000D03*
%TD*%
D20*
%TO.C,R4*%
X12950000Y-24585000D03*
X13850000Y-24585000D03*
%TD*%
%TO.C,R5*%
X10950000Y-24585000D03*
X11850000Y-24585000D03*
%TD*%
D19*
%TO.C,R6*%
X9300000Y-23885000D03*
X9300000Y-24785000D03*
%TD*%
D20*
%TO.C,R7*%
X13975000Y-15985000D03*
X14875000Y-15985000D03*
%TD*%
%TO.C,R8*%
X14875000Y-14535000D03*
X13975000Y-14535000D03*
%TD*%
D19*
%TO.C,R9*%
X51375000Y-20110000D03*
X51375000Y-19210000D03*
%TD*%
D20*
%TO.C,R10*%
X14875000Y-13135000D03*
X13975000Y-13135000D03*
%TD*%
D19*
%TO.C,R11*%
X41923800Y-27135000D03*
X41923800Y-28035000D03*
%TD*%
%TO.C,R12*%
X43126200Y-28035000D03*
X43126200Y-27135000D03*
%TD*%
%TO.C,R13*%
X53150000Y-22585000D03*
X53150000Y-21685000D03*
%TD*%
%TO.C,R14*%
X10850000Y-13035000D03*
X10850000Y-12135000D03*
%TD*%
%TO.C,R15*%
X6950000Y-13035000D03*
X6950000Y-12135000D03*
%TD*%
%TO.C,R16*%
X32675000Y3390000D03*
X32675000Y4290000D03*
%TD*%
D20*
%TO.C,R17*%
X40725000Y-23435000D03*
X41625000Y-23435000D03*
%TD*%
D19*
%TO.C,R18*%
X5000000Y-22785000D03*
X5000000Y-21885000D03*
%TD*%
%TO.C,R19*%
X45125000Y-27835000D03*
X45125000Y-28735000D03*
%TD*%
%TO.C,R20*%
X51725000Y-26385000D03*
X51725000Y-27285000D03*
%TD*%
D20*
%TO.C,R21*%
X41625000Y-17335000D03*
X42525000Y-17335000D03*
%TD*%
D19*
%TO.C,R22*%
X9550000Y-13035000D03*
X9550000Y-12135000D03*
%TD*%
D20*
%TO.C,R23*%
X63800000Y3815000D03*
X62900000Y3815000D03*
%TD*%
D19*
%TO.C,R24*%
X8250000Y-13035000D03*
X8250000Y-12135000D03*
%TD*%
%TO.C,R25*%
X4350000Y-12135000D03*
X4350000Y-13035000D03*
%TD*%
%TO.C,R26*%
X5650000Y-12135000D03*
X5650000Y-13035000D03*
%TD*%
%TO.C,R27*%
X6650000Y-23885000D03*
X6650000Y-24785000D03*
%TD*%
%TO.C,R28*%
X7975000Y-23885000D03*
X7975000Y-24785000D03*
%TD*%
%TO.C,R29*%
X49125000Y-17035000D03*
X49125000Y-16135000D03*
%TD*%
%TO.C,R30*%
X47875000Y-16135000D03*
X47875000Y-17035000D03*
%TD*%
%TO.C,R31*%
X45825000Y-17035000D03*
X45825000Y-16135000D03*
%TD*%
%TO.C,R32*%
X44575000Y-16135000D03*
X44575000Y-17035000D03*
%TD*%
D20*
%TO.C,R33*%
X50475000Y7365000D03*
X49575000Y7365000D03*
%TD*%
D19*
%TO.C,R34*%
X40300000Y7365000D03*
X40300000Y6465000D03*
%TD*%
D21*
%TO.C,U1*%
X12525000Y-21885000D03*
X11875000Y-21885000D03*
X11225000Y-21885000D03*
X10575000Y-21885000D03*
X9925000Y-21885000D03*
X9275000Y-21885000D03*
X8625000Y-21885000D03*
X7975000Y-21885000D03*
X7325000Y-21885000D03*
X6675000Y-21885000D03*
X6675000Y-15985000D03*
X7325000Y-15985000D03*
X7975000Y-15985000D03*
X8625000Y-15985000D03*
X9275000Y-15985000D03*
X9925000Y-15985000D03*
X10575000Y-15985000D03*
X11225000Y-15985000D03*
X11875000Y-15985000D03*
X12525000Y-15985000D03*
%TD*%
D22*
%TO.C,U2*%
X46300000Y-23960000D03*
D23*
X49475000Y-21435000D03*
X49475000Y-21935000D03*
X49475000Y-22435000D03*
X49475000Y-22935000D03*
X49475000Y-23435000D03*
X49475000Y-23935000D03*
X49475000Y-24435000D03*
X49475000Y-24935000D03*
D24*
X48825000Y-25585000D03*
X48325000Y-25585000D03*
X47825000Y-25585000D03*
X47325000Y-25585000D03*
X46825000Y-25585000D03*
X46325000Y-25585000D03*
X45825000Y-25585000D03*
X45325000Y-25585000D03*
D23*
X44675000Y-24935000D03*
X44675000Y-24435000D03*
X44675000Y-23935000D03*
X44675000Y-23435000D03*
X44675000Y-22935000D03*
X44675000Y-22435000D03*
X44675000Y-21935000D03*
X44675000Y-21435000D03*
D24*
X45325000Y-20785000D03*
X45825000Y-20785000D03*
X46325000Y-20785000D03*
X46825000Y-20785000D03*
X47325000Y-20785000D03*
X47825000Y-20785000D03*
X48325000Y-20785000D03*
X48825000Y-20785000D03*
D22*
X47850000Y-23960000D03*
X47850000Y-22410000D03*
X46300000Y-22410000D03*
%TD*%
M02*
