M48
; DRILL file {KiCad (5.1.5)-3} date 17/02/2021 14:45:52
; FORMAT={-:-/ absolute / metric / decimal}
; #@! TF.CreationDate,2021-02-17T14:45:52+01:00
; #@! TF.GenerationSoftware,Kicad,Pcbnew,(5.1.5)-3
; #@! TF.FileFunction,Plated,1,4,PTH
FMAT,2
METRIC
T1C0.300
T2C0.350
T3C0.400
T4C0.500
T5C0.600
T6C0.780
T7C3.200
%
G90
G05
T1
X16.28Y-19.532
X19.28Y-19.532
X22.28Y-19.532
X24.28Y-20.032
X26.28Y-20.032
X28.28Y-20.032
X30.28Y-20.032
X32.28Y-20.032
X33.78Y-20.032
X35.28Y-20.032
X38.28Y-20.032
X40.28Y-20.032
X42.28Y-20.032
X44.28Y-20.032
X46.28Y-20.032
X48.28Y-20.032
X50.28Y-20.032
X52.78Y-20.032
X55.28Y-20.032
X57.28Y-20.032
X59.28Y-20.032
X61.28Y-20.032
X63.28Y-20.032
X65.28Y-20.032
X67.28Y-20.032
X69.28Y-20.032
X71.28Y-20.032
X73.28Y-20.032
X75.28Y-20.032
X77.28Y-20.032
X79.28Y-20.032
X81.28Y-20.032
X83.28Y-20.032
X85.28Y-20.032
X88.28Y-20.032
X90.28Y-20.032
X92.28Y-20.032
X94.28Y-20.032
X96.28Y-20.032
X98.28Y-20.032
X100.28Y-20.032
X102.28Y-20.032
X104.28Y-20.032
X106.28Y-20.032
X108.28Y-20.032
X110.28Y-20.032
X112.28Y-20.032
X114.28Y-20.032
X116.28Y-20.032
X116.384Y-14.311
X5.436Y-8.361
X-0.942Y-10.476
X3.98Y-17.23
X3.98Y-15.73
X4.166Y-8.361
X5.436Y-12.171
X3.98Y-14.23
X3.98Y-18.73
X5.436Y-9.631
X4.166Y-10.901
X4.166Y-9.631
X5.436Y-7.091
X4.166Y-12.171
X5.436Y-10.901
X4.166Y-7.091
T2
X5.6Y-20.467
X8.6Y-20.489
T3
X17.77Y1.01
X46.42Y-16.79
X85.101Y-15.311
T4
X121.9Y0.0
X122.603Y1.697
X122.603Y-1.697
X124.3Y2.4
X124.3Y-2.4
X125.997Y1.697
X125.997Y-1.697
X126.7Y0.0
X-2.4Y0.0
X-1.697Y1.697
X-1.697Y-1.697
X0.0Y2.4
X0.0Y-2.4
X1.697Y1.697
X1.697Y-1.697
X2.4Y0.0
T5
X-7.062Y-8.2
X0.548Y-7.179
X4.78Y3.245
X4.78Y1.445
X4.78Y-0.355
X4.78Y-2.355
X10.504Y-6.297
X10.585Y-7.953
X10.844Y-9.523
X16.915Y-13.795
X23.712Y-12.693
X23.783Y-9.69
X41.691Y-16.157
X82.16Y-13.033
T6
X12.75Y2.29
X12.75Y-0.21
X13.75Y4.29
X13.75Y-2.21
X14.75Y2.29
X14.75Y-0.21
X15.75Y4.29
X15.75Y-2.21
X16.75Y2.29
X16.75Y-0.21
X17.75Y4.29
X17.75Y-2.21
X18.75Y2.29
X18.75Y-0.21
X19.75Y4.29
X19.75Y-2.21
X20.75Y2.29
X20.75Y-0.21
X21.75Y4.29
X21.75Y-2.21
X22.75Y2.29
X22.75Y-0.21
X25.75Y4.29
X25.75Y-2.21
X26.75Y2.29
X26.75Y-0.21
X27.75Y4.29
X27.75Y-2.21
X28.75Y2.29
X28.75Y-0.21
X29.75Y4.29
X29.75Y-2.21
X30.75Y2.29
X30.75Y-0.21
X31.75Y4.29
X31.75Y-2.21
X32.75Y2.29
X32.75Y-0.21
X33.75Y4.29
X33.75Y-2.21
X34.75Y2.29
X34.75Y-0.21
X35.75Y4.29
X35.75Y-2.21
X36.75Y2.29
X36.75Y-0.21
X37.75Y4.29
X37.75Y-2.21
X38.75Y2.29
X38.75Y-0.21
X39.75Y4.29
X39.75Y-2.21
X40.75Y2.29
X40.75Y-0.21
X41.75Y4.29
X41.75Y-2.21
X42.75Y2.29
X42.75Y-0.21
X43.75Y4.29
X43.75Y-2.21
X44.75Y2.29
X44.75Y-0.21
X45.75Y4.29
X45.75Y-2.21
X46.75Y2.29
X46.75Y-0.21
X47.75Y4.29
X47.75Y-2.21
X48.75Y2.29
X48.75Y-0.21
X49.75Y4.29
X49.75Y-2.21
X50.75Y2.29
X50.75Y-0.21
X51.75Y4.29
X51.75Y-2.21
X52.75Y2.29
X52.75Y-0.21
X53.75Y4.29
X53.75Y-2.21
X54.75Y2.29
X54.75Y-0.21
X55.75Y4.29
X55.75Y-2.21
X56.75Y2.29
X56.75Y-0.21
X57.75Y4.29
X57.75Y-2.21
X58.75Y2.29
X58.75Y-0.21
X59.75Y4.29
X59.75Y-2.21
X60.75Y2.29
X60.75Y-0.21
X61.75Y4.29
X61.75Y-2.21
X62.75Y2.29
X62.75Y-0.21
X63.75Y4.29
X63.75Y-2.21
X64.75Y2.29
X64.75Y-0.21
X65.75Y4.29
X65.75Y-2.21
X66.75Y2.29
X66.75Y-0.21
X67.75Y4.29
X67.75Y-2.21
X68.75Y2.29
X68.75Y-0.21
X69.75Y4.29
X69.75Y-2.21
X70.75Y2.29
X70.75Y-0.21
X71.75Y4.29
X71.75Y-2.21
X72.75Y2.29
X72.75Y-0.21
X73.75Y4.29
X73.75Y-2.21
X74.75Y2.29
X74.75Y-0.21
X75.75Y4.29
X75.75Y-2.21
X76.75Y2.29
X76.75Y-0.21
X77.75Y4.29
X77.75Y-2.21
X78.75Y2.29
X78.75Y-0.21
X79.75Y4.29
X79.75Y-2.21
X80.75Y2.29
X80.75Y-0.21
X81.75Y4.29
X81.75Y-2.21
X82.75Y2.29
X82.75Y-0.21
X83.75Y4.29
X83.75Y-2.21
X84.75Y2.29
X84.75Y-0.21
X85.75Y4.29
X85.75Y-2.21
X86.75Y2.29
X86.75Y-0.21
X87.75Y4.29
X87.75Y-2.21
X88.75Y2.29
X88.75Y-0.21
X89.75Y4.29
X89.75Y-2.21
X90.75Y2.29
X90.75Y-0.21
X91.75Y4.29
X91.75Y-2.21
X92.75Y2.29
X92.75Y-0.21
X93.75Y4.29
X93.75Y-2.21
X94.75Y2.29
X94.75Y-0.21
X95.75Y4.29
X95.75Y-2.21
T7
X124.3Y0.0
X0.0Y0.0
T0
M30
