G04 #@! TF.GenerationSoftware,KiCad,Pcbnew,(5.1.5)-3*
G04 #@! TF.CreationDate,2021-02-17T14:45:42+01:00*
G04 #@! TF.ProjectId,riser leopard 1OU,72697365-7220-46c6-956f-706172642031,rev?*
G04 #@! TF.SameCoordinates,PX4a62f80PY5f5e100*
G04 #@! TF.FileFunction,Paste,Bot*
G04 #@! TF.FilePolarity,Positive*
%FSLAX46Y46*%
G04 Gerber Fmt 4.6, Leading zero omitted, Abs format (unit mm)*
G04 Created by KiCad (PCBNEW (5.1.5)-3) date 2021-02-17 14:45:42*
%MOMM*%
%LPD*%
G04 APERTURE LIST*
%ADD10R,0.800000X4.200000*%
G04 APERTURE END LIST*
D10*
X15700000Y-23418600D03*
X2600000Y-23418600D03*
X3600000Y-23418600D03*
X4600000Y-23418600D03*
X5600000Y-23418600D03*
X6600000Y-23418600D03*
X7600000Y-23418600D03*
X8600000Y-23418600D03*
X9600000Y-23418600D03*
X10600000Y-23418600D03*
X11600000Y-23418600D03*
X12600000Y-23418600D03*
X16700000Y-23418600D03*
X17700000Y-23418600D03*
X18700000Y-23418600D03*
X19700000Y-23418600D03*
X20700000Y-23418600D03*
X21700000Y-23418600D03*
X22700000Y-23418600D03*
X23700000Y-23418600D03*
X24700000Y-23418600D03*
X25700000Y-23418600D03*
X26700000Y-23418600D03*
X27700000Y-23418600D03*
X28700000Y-23418600D03*
X29700000Y-23418600D03*
X30700000Y-23418600D03*
X31700000Y-23418600D03*
X32700000Y-23418600D03*
X33700000Y-23418600D03*
X34700000Y-23418600D03*
X35700000Y-23418600D03*
X36700000Y-23418600D03*
X37700000Y-23418600D03*
X38700000Y-23418600D03*
X39700000Y-23418600D03*
X40700000Y-23418600D03*
X41700000Y-23418600D03*
X42700000Y-23418600D03*
X43700000Y-23418600D03*
X44700000Y-23418600D03*
X45700000Y-23418600D03*
X46700000Y-23418600D03*
X47700000Y-23418600D03*
X48700000Y-23418600D03*
X49700000Y-23418600D03*
X50700000Y-23418600D03*
X51700000Y-23418600D03*
X52700000Y-23418600D03*
X53700000Y-23418600D03*
X54700000Y-23418600D03*
X55700000Y-23418600D03*
X56700000Y-23418600D03*
X57700000Y-23418600D03*
X58700000Y-23418600D03*
X59700000Y-23418600D03*
X60700000Y-23418600D03*
X61700000Y-23418600D03*
X62700000Y-23418600D03*
X63700000Y-23418600D03*
X64700000Y-23418600D03*
X65700000Y-23418600D03*
X66700000Y-23418600D03*
X67700000Y-23418600D03*
X68700000Y-23418600D03*
X69700000Y-23418600D03*
X70700000Y-23418600D03*
X71700000Y-23418600D03*
X72700000Y-23418600D03*
X73700000Y-23418600D03*
X74700000Y-23418600D03*
X75700000Y-23418600D03*
X76700000Y-23418600D03*
X77700000Y-23418600D03*
X78700000Y-23418600D03*
X79700000Y-23418600D03*
X80700000Y-23418600D03*
X81700000Y-23418600D03*
X82700000Y-23418600D03*
X83700000Y-23418600D03*
X84700000Y-23418600D03*
X85700000Y-23418600D03*
X86700000Y-23418600D03*
X87700000Y-23418600D03*
X88700000Y-23418600D03*
X89700000Y-23418600D03*
X90700000Y-23418600D03*
X91700000Y-23418600D03*
X92700000Y-23418600D03*
X93700000Y-23418600D03*
X94700000Y-23418600D03*
X95700000Y-23418600D03*
X96700000Y-23418600D03*
X97700000Y-23418600D03*
X98700000Y-23418600D03*
X99700000Y-23418600D03*
X100700000Y-23418600D03*
X101700000Y-23418600D03*
X102700000Y-23418600D03*
X103700000Y-23418600D03*
X104700000Y-23418600D03*
X105700000Y-23418600D03*
X106700000Y-23418600D03*
X107700000Y-23418600D03*
X108700000Y-23418600D03*
X109700000Y-23418600D03*
X110700000Y-23418600D03*
X111700000Y-23418600D03*
X112700000Y-23418600D03*
X113700000Y-23418600D03*
X114700000Y-23418600D03*
X115700000Y-23418600D03*
X116700000Y-23418600D03*
X117700000Y-23418600D03*
X118700000Y-23418600D03*
M02*
