G04 #@! TF.GenerationSoftware,KiCad,Pcbnew,(5.1.5)-3*
G04 #@! TF.CreationDate,2021-02-17T14:45:42+01:00*
G04 #@! TF.ProjectId,riser leopard 1OU,72697365-7220-46c6-956f-706172642031,rev?*
G04 #@! TF.SameCoordinates,PX4a62f80PY5f5e100*
G04 #@! TF.FileFunction,Legend,Top*
G04 #@! TF.FilePolarity,Positive*
%FSLAX46Y46*%
G04 Gerber Fmt 4.6, Leading zero omitted, Abs format (unit mm)*
G04 Created by KiCad (PCBNEW (5.1.5)-3) date 2021-02-17 14:45:42*
%MOMM*%
%LPD*%
G04 APERTURE LIST*
%ADD10C,0.150000*%
%ADD11C,0.120000*%
G04 APERTURE END LIST*
D10*
X9900000Y4790000D02*
X98900000Y4790000D01*
X98900000Y-2710000D02*
X98900000Y4790000D01*
X9900000Y-2710000D02*
X98900000Y-2710000D01*
X9900000Y4790000D02*
X9900000Y-2710000D01*
D11*
X44800420Y-17669600D02*
X43600420Y-17669600D01*
X43600420Y-15909600D02*
X44800420Y-15909600D01*
X84667840Y-13758880D02*
X84667840Y-14958880D01*
X82907840Y-14958880D02*
X82907840Y-13758880D01*
X12299300Y-5274900D02*
X12999300Y-5274900D01*
X12999300Y-6474900D02*
X12299300Y-6474900D01*
X12999300Y-8189400D02*
X12299300Y-8189400D01*
X12299300Y-6989400D02*
X12999300Y-6989400D01*
X12899300Y-8757700D02*
X12399300Y-8757700D01*
X12399300Y-9697700D02*
X12899300Y-9697700D01*
X22845100Y-12363000D02*
X22145100Y-12363000D01*
X22145100Y-11163000D02*
X22845100Y-11163000D01*
X22541900Y-9616600D02*
X22041900Y-9616600D01*
X22041900Y-10556600D02*
X22541900Y-10556600D01*
X6234280Y2183932D02*
X6934280Y2183932D01*
X6934280Y983932D02*
X6234280Y983932D01*
X6921580Y-854254D02*
X6221580Y-854254D01*
X6221580Y345746D02*
X6921580Y345746D01*
X6298720Y-2417440D02*
X6798720Y-2417440D01*
X6798720Y-1477440D02*
X6298720Y-1477440D01*
D10*
X15399600Y-6115400D02*
X15399600Y-5315400D01*
X14999600Y-5715400D02*
X15799600Y-5715400D01*
X20399600Y-11915400D02*
X15099600Y-11915400D01*
X20399600Y-7415400D02*
X19599600Y-6615400D01*
X15399600Y-12915400D02*
X15399600Y-12315400D01*
X15099600Y-7415400D02*
X15899600Y-6615400D01*
X20399600Y-11915400D02*
X20399600Y-7415400D01*
X19599600Y-6615400D02*
X15899600Y-6615400D01*
X15099600Y-11915400D02*
X15099600Y-7415400D01*
X-4968720Y-6125960D02*
X-468720Y-6125960D01*
X331280Y-10625960D02*
X331280Y-6925960D01*
X-4968720Y-11425960D02*
X-468720Y-11425960D01*
X-468720Y-6125960D02*
X331280Y-6925960D01*
X-5968720Y-6425960D02*
X-5368720Y-6425960D01*
X-468720Y-11425960D02*
X331280Y-10625960D01*
X-4968720Y-11425960D02*
X-4968720Y-6125960D01*
X1231280Y-6025960D02*
X1231280Y-6825960D01*
X831280Y-6425960D02*
X1631280Y-6425960D01*
D11*
X6934280Y2822120D02*
X6234280Y2822120D01*
X6234280Y4022120D02*
X6934280Y4022120D01*
X113842620Y-5534920D02*
G75*
G03X113842620Y-5534920I-700000J0D01*
G01*
D10*
X10541666Y-3002380D02*
X10541666Y-3716666D01*
X10494047Y-3859523D01*
X10398809Y-3954761D01*
X10255952Y-4002380D01*
X10160714Y-4002380D01*
X10970238Y-3097619D02*
X11017857Y-3050000D01*
X11113095Y-3002380D01*
X11351190Y-3002380D01*
X11446428Y-3050000D01*
X11494047Y-3097619D01*
X11541666Y-3192857D01*
X11541666Y-3288095D01*
X11494047Y-3430952D01*
X10922619Y-4002380D01*
X11541666Y-4002380D01*
X44033753Y-15591980D02*
X43700420Y-15115790D01*
X43462324Y-15591980D02*
X43462324Y-14591980D01*
X43843277Y-14591980D01*
X43938515Y-14639600D01*
X43986134Y-14687219D01*
X44033753Y-14782457D01*
X44033753Y-14925314D01*
X43986134Y-15020552D01*
X43938515Y-15068171D01*
X43843277Y-15115790D01*
X43462324Y-15115790D01*
X44986134Y-15591980D02*
X44414705Y-15591980D01*
X44700420Y-15591980D02*
X44700420Y-14591980D01*
X44605181Y-14734838D01*
X44509943Y-14830076D01*
X44414705Y-14877695D01*
X85952380Y-14166666D02*
X85476190Y-14500000D01*
X85952380Y-14738095D02*
X84952380Y-14738095D01*
X84952380Y-14357142D01*
X85000000Y-14261904D01*
X85047619Y-14214285D01*
X85142857Y-14166666D01*
X85285714Y-14166666D01*
X85380952Y-14214285D01*
X85428571Y-14261904D01*
X85476190Y-14357142D01*
X85476190Y-14738095D01*
X85047619Y-13785714D02*
X85000000Y-13738095D01*
X84952380Y-13642857D01*
X84952380Y-13404761D01*
X85000000Y-13309523D01*
X85047619Y-13261904D01*
X85142857Y-13214285D01*
X85238095Y-13214285D01*
X85380952Y-13261904D01*
X85952380Y-13833333D01*
X85952380Y-13214285D01*
X8833333Y-6357142D02*
X8785714Y-6404761D01*
X8642857Y-6452380D01*
X8547619Y-6452380D01*
X8404761Y-6404761D01*
X8309523Y-6309523D01*
X8261904Y-6214285D01*
X8214285Y-6023809D01*
X8214285Y-5880952D01*
X8261904Y-5690476D01*
X8309523Y-5595238D01*
X8404761Y-5500000D01*
X8547619Y-5452380D01*
X8642857Y-5452380D01*
X8785714Y-5500000D01*
X8833333Y-5547619D01*
X9214285Y-5547619D02*
X9261904Y-5500000D01*
X9357142Y-5452380D01*
X9595238Y-5452380D01*
X9690476Y-5500000D01*
X9738095Y-5547619D01*
X9785714Y-5642857D01*
X9785714Y-5738095D01*
X9738095Y-5880952D01*
X9166666Y-6452380D01*
X9785714Y-6452380D01*
X8833333Y-8107142D02*
X8785714Y-8154761D01*
X8642857Y-8202380D01*
X8547619Y-8202380D01*
X8404761Y-8154761D01*
X8309523Y-8059523D01*
X8261904Y-7964285D01*
X8214285Y-7773809D01*
X8214285Y-7630952D01*
X8261904Y-7440476D01*
X8309523Y-7345238D01*
X8404761Y-7250000D01*
X8547619Y-7202380D01*
X8642857Y-7202380D01*
X8785714Y-7250000D01*
X8833333Y-7297619D01*
X9166666Y-7202380D02*
X9785714Y-7202380D01*
X9452380Y-7583333D01*
X9595238Y-7583333D01*
X9690476Y-7630952D01*
X9738095Y-7678571D01*
X9785714Y-7773809D01*
X9785714Y-8011904D01*
X9738095Y-8107142D01*
X9690476Y-8154761D01*
X9595238Y-8202380D01*
X9309523Y-8202380D01*
X9214285Y-8154761D01*
X9166666Y-8107142D01*
X8833333Y-9607142D02*
X8785714Y-9654761D01*
X8642857Y-9702380D01*
X8547619Y-9702380D01*
X8404761Y-9654761D01*
X8309523Y-9559523D01*
X8261904Y-9464285D01*
X8214285Y-9273809D01*
X8214285Y-9130952D01*
X8261904Y-8940476D01*
X8309523Y-8845238D01*
X8404761Y-8750000D01*
X8547619Y-8702380D01*
X8642857Y-8702380D01*
X8785714Y-8750000D01*
X8833333Y-8797619D01*
X9690476Y-9035714D02*
X9690476Y-9702380D01*
X9452380Y-8654761D02*
X9214285Y-9369047D01*
X9833333Y-9369047D01*
X25083333Y-12107142D02*
X25035714Y-12154761D01*
X24892857Y-12202380D01*
X24797619Y-12202380D01*
X24654761Y-12154761D01*
X24559523Y-12059523D01*
X24511904Y-11964285D01*
X24464285Y-11773809D01*
X24464285Y-11630952D01*
X24511904Y-11440476D01*
X24559523Y-11345238D01*
X24654761Y-11250000D01*
X24797619Y-11202380D01*
X24892857Y-11202380D01*
X25035714Y-11250000D01*
X25083333Y-11297619D01*
X25988095Y-11202380D02*
X25511904Y-11202380D01*
X25464285Y-11678571D01*
X25511904Y-11630952D01*
X25607142Y-11583333D01*
X25845238Y-11583333D01*
X25940476Y-11630952D01*
X25988095Y-11678571D01*
X26035714Y-11773809D01*
X26035714Y-12011904D01*
X25988095Y-12107142D01*
X25940476Y-12154761D01*
X25845238Y-12202380D01*
X25607142Y-12202380D01*
X25511904Y-12154761D01*
X25464285Y-12107142D01*
X25083333Y-10357142D02*
X25035714Y-10404761D01*
X24892857Y-10452380D01*
X24797619Y-10452380D01*
X24654761Y-10404761D01*
X24559523Y-10309523D01*
X24511904Y-10214285D01*
X24464285Y-10023809D01*
X24464285Y-9880952D01*
X24511904Y-9690476D01*
X24559523Y-9595238D01*
X24654761Y-9500000D01*
X24797619Y-9452380D01*
X24892857Y-9452380D01*
X25035714Y-9500000D01*
X25083333Y-9547619D01*
X25940476Y-9452380D02*
X25750000Y-9452380D01*
X25654761Y-9500000D01*
X25607142Y-9547619D01*
X25511904Y-9690476D01*
X25464285Y-9880952D01*
X25464285Y-10261904D01*
X25511904Y-10357142D01*
X25559523Y-10404761D01*
X25654761Y-10452380D01*
X25845238Y-10452380D01*
X25940476Y-10404761D01*
X25988095Y-10357142D01*
X26035714Y-10261904D01*
X26035714Y-10023809D01*
X25988095Y-9928571D01*
X25940476Y-9880952D01*
X25845238Y-9833333D01*
X25654761Y-9833333D01*
X25559523Y-9880952D01*
X25511904Y-9928571D01*
X25464285Y-10023809D01*
X-6091667Y942858D02*
X-6139286Y895239D01*
X-6282143Y847620D01*
X-6377381Y847620D01*
X-6520239Y895239D01*
X-6615477Y990477D01*
X-6663096Y1085715D01*
X-6710715Y1276191D01*
X-6710715Y1419048D01*
X-6663096Y1609524D01*
X-6615477Y1704762D01*
X-6520239Y1800000D01*
X-6377381Y1847620D01*
X-6282143Y1847620D01*
X-6139286Y1800000D01*
X-6091667Y1752381D01*
X-5615477Y847620D02*
X-5425000Y847620D01*
X-5329762Y895239D01*
X-5282143Y942858D01*
X-5186905Y1085715D01*
X-5139286Y1276191D01*
X-5139286Y1657143D01*
X-5186905Y1752381D01*
X-5234524Y1800000D01*
X-5329762Y1847620D01*
X-5520239Y1847620D01*
X-5615477Y1800000D01*
X-5663096Y1752381D01*
X-5710715Y1657143D01*
X-5710715Y1419048D01*
X-5663096Y1323810D01*
X-5615477Y1276191D01*
X-5520239Y1228572D01*
X-5329762Y1228572D01*
X-5234524Y1276191D01*
X-5186905Y1323810D01*
X-5139286Y1419048D01*
X-6117858Y-357142D02*
X-6165477Y-404761D01*
X-6308334Y-452380D01*
X-6403572Y-452380D01*
X-6546429Y-404761D01*
X-6641667Y-309523D01*
X-6689286Y-214285D01*
X-6736905Y-23809D01*
X-6736905Y119048D01*
X-6689286Y309524D01*
X-6641667Y404762D01*
X-6546429Y500000D01*
X-6403572Y547620D01*
X-6308334Y547620D01*
X-6165477Y500000D01*
X-6117858Y452381D01*
X-5165477Y-452380D02*
X-5736905Y-452380D01*
X-5451191Y-452380D02*
X-5451191Y547620D01*
X-5546429Y404762D01*
X-5641667Y309524D01*
X-5736905Y261905D01*
X-4546429Y547620D02*
X-4451191Y547620D01*
X-4355953Y500000D01*
X-4308334Y452381D01*
X-4260715Y357143D01*
X-4213096Y166667D01*
X-4213096Y-71428D01*
X-4260715Y-261904D01*
X-4308334Y-357142D01*
X-4355953Y-404761D01*
X-4451191Y-452380D01*
X-4546429Y-452380D01*
X-4641667Y-404761D01*
X-4689286Y-357142D01*
X-4736905Y-261904D01*
X-4784524Y-71428D01*
X-4784524Y166667D01*
X-4736905Y357143D01*
X-4689286Y452381D01*
X-4641667Y500000D01*
X-4546429Y547620D01*
X-6092858Y-1682142D02*
X-6140477Y-1729761D01*
X-6283334Y-1777380D01*
X-6378572Y-1777380D01*
X-6521429Y-1729761D01*
X-6616667Y-1634523D01*
X-6664286Y-1539285D01*
X-6711905Y-1348809D01*
X-6711905Y-1205952D01*
X-6664286Y-1015476D01*
X-6616667Y-920238D01*
X-6521429Y-825000D01*
X-6378572Y-777380D01*
X-6283334Y-777380D01*
X-6140477Y-825000D01*
X-6092858Y-872619D01*
X-5140477Y-1777380D02*
X-5711905Y-1777380D01*
X-5426191Y-1777380D02*
X-5426191Y-777380D01*
X-5521429Y-920238D01*
X-5616667Y-1015476D01*
X-5711905Y-1063095D01*
X-4188096Y-1777380D02*
X-4759524Y-1777380D01*
X-4473810Y-1777380D02*
X-4473810Y-777380D01*
X-4569048Y-920238D01*
X-4664286Y-1015476D01*
X-4759524Y-1063095D01*
X13833333Y-11857142D02*
X13785714Y-11904761D01*
X13642857Y-11952380D01*
X13547619Y-11952380D01*
X13404761Y-11904761D01*
X13309523Y-11809523D01*
X13261904Y-11714285D01*
X13214285Y-11523809D01*
X13214285Y-11380952D01*
X13261904Y-11190476D01*
X13309523Y-11095238D01*
X13404761Y-11000000D01*
X13547619Y-10952380D01*
X13642857Y-10952380D01*
X13785714Y-11000000D01*
X13833333Y-11047619D01*
X14785714Y-11952380D02*
X14214285Y-11952380D01*
X14500000Y-11952380D02*
X14500000Y-10952380D01*
X14404761Y-11095238D01*
X14309523Y-11190476D01*
X14214285Y-11238095D01*
X-3159267Y-5773462D02*
X-3206886Y-5821081D01*
X-3349743Y-5868700D01*
X-3444981Y-5868700D01*
X-3587839Y-5821081D01*
X-3683077Y-5725843D01*
X-3730696Y-5630605D01*
X-3778315Y-5440129D01*
X-3778315Y-5297272D01*
X-3730696Y-5106796D01*
X-3683077Y-5011558D01*
X-3587839Y-4916320D01*
X-3444981Y-4868700D01*
X-3349743Y-4868700D01*
X-3206886Y-4916320D01*
X-3159267Y-4963939D01*
X-2825934Y-4868700D02*
X-2159267Y-4868700D01*
X-2587839Y-5868700D01*
X123538095Y3747620D02*
X123538095Y4747620D01*
X123538095Y4271429D02*
X124109523Y4271429D01*
X124109523Y3747620D02*
X124109523Y4747620D01*
X124538095Y4652381D02*
X124585714Y4700000D01*
X124680952Y4747620D01*
X124919047Y4747620D01*
X125014285Y4700000D01*
X125061904Y4652381D01*
X125109523Y4557143D01*
X125109523Y4461905D01*
X125061904Y4319048D01*
X124490476Y3747620D01*
X125109523Y3747620D01*
X-6091667Y2242858D02*
X-6139286Y2195239D01*
X-6282143Y2147620D01*
X-6377381Y2147620D01*
X-6520239Y2195239D01*
X-6615477Y2290477D01*
X-6663096Y2385715D01*
X-6710715Y2576191D01*
X-6710715Y2719048D01*
X-6663096Y2909524D01*
X-6615477Y3004762D01*
X-6520239Y3100000D01*
X-6377381Y3147620D01*
X-6282143Y3147620D01*
X-6139286Y3100000D01*
X-6091667Y3052381D01*
X-5520239Y2719048D02*
X-5615477Y2766667D01*
X-5663096Y2814286D01*
X-5710715Y2909524D01*
X-5710715Y2957143D01*
X-5663096Y3052381D01*
X-5615477Y3100000D01*
X-5520239Y3147620D01*
X-5329762Y3147620D01*
X-5234524Y3100000D01*
X-5186905Y3052381D01*
X-5139286Y2957143D01*
X-5139286Y2909524D01*
X-5186905Y2814286D01*
X-5234524Y2766667D01*
X-5329762Y2719048D01*
X-5520239Y2719048D01*
X-5615477Y2671429D01*
X-5663096Y2623810D01*
X-5710715Y2528572D01*
X-5710715Y2338096D01*
X-5663096Y2242858D01*
X-5615477Y2195239D01*
X-5520239Y2147620D01*
X-5329762Y2147620D01*
X-5234524Y2195239D01*
X-5186905Y2242858D01*
X-5139286Y2338096D01*
X-5139286Y2528572D01*
X-5186905Y2623810D01*
X-5234524Y2671429D01*
X-5329762Y2719048D01*
X111880715Y-3539300D02*
X112452143Y-3539300D01*
X112166429Y-4539300D02*
X112166429Y-3539300D01*
X112785477Y-4539300D02*
X112785477Y-3539300D01*
X113166429Y-3539300D01*
X113261667Y-3586920D01*
X113309286Y-3634539D01*
X113356905Y-3729777D01*
X113356905Y-3872634D01*
X113309286Y-3967872D01*
X113261667Y-4015491D01*
X113166429Y-4063110D01*
X112785477Y-4063110D01*
X114309286Y-4539300D02*
X113737858Y-4539300D01*
X114023572Y-4539300D02*
X114023572Y-3539300D01*
X113928334Y-3682158D01*
X113833096Y-3777396D01*
X113737858Y-3825015D01*
X3828766Y-19353080D02*
X3828766Y-20067366D01*
X3781147Y-20210223D01*
X3685909Y-20305461D01*
X3543052Y-20353080D01*
X3447814Y-20353080D01*
X4828766Y-20353080D02*
X4257338Y-20353080D01*
X4543052Y-20353080D02*
X4543052Y-19353080D01*
X4447814Y-19495938D01*
X4352576Y-19591176D01*
X4257338Y-19638795D01*
X-761905Y3747620D02*
X-761905Y4747620D01*
X-761905Y4271429D02*
X-190477Y4271429D01*
X-190477Y3747620D02*
X-190477Y4747620D01*
X809523Y3747620D02*
X238095Y3747620D01*
X523809Y3747620D02*
X523809Y4747620D01*
X428571Y4604762D01*
X333333Y4509524D01*
X238095Y4461905D01*
M02*
