G04 #@! TF.GenerationSoftware,KiCad,Pcbnew,(5.1.5)-3*
G04 #@! TF.CreationDate,2021-02-17T14:45:42+01:00*
G04 #@! TF.ProjectId,riser leopard 1OU,72697365-7220-46c6-956f-706172642031,rev?*
G04 #@! TF.SameCoordinates,PX4a62f80PY5f5e100*
G04 #@! TF.FileFunction,Legend,Bot*
G04 #@! TF.FilePolarity,Positive*
%FSLAX46Y46*%
G04 Gerber Fmt 4.6, Leading zero omitted, Abs format (unit mm)*
G04 Created by KiCad (PCBNEW (5.1.5)-3) date 2021-02-17 14:45:42*
%MOMM*%
%LPD*%
G04 APERTURE LIST*
%ADD10C,0.120000*%
%ADD11C,0.150000*%
G04 APERTURE END LIST*
D10*
X28358920Y-13185400D02*
G75*
G03X28358920Y-13185400I-700000J0D01*
G01*
X23449100Y-7965700D02*
G75*
G03X23449100Y-7965700I-700000J0D01*
G01*
X24200000Y-16032200D02*
G75*
G03X24200000Y-16032200I-700000J0D01*
G01*
X26700000Y-16032200D02*
G75*
G03X26700000Y-16032200I-700000J0D01*
G01*
D11*
X31374464Y-12685580D02*
X30803036Y-12685580D01*
X31088750Y-13685580D02*
X31088750Y-12685580D01*
X30469702Y-13685580D02*
X30469702Y-12685580D01*
X30088750Y-12685580D01*
X29993512Y-12733200D01*
X29945893Y-12780819D01*
X29898274Y-12876057D01*
X29898274Y-13018914D01*
X29945893Y-13114152D01*
X29993512Y-13161771D01*
X30088750Y-13209390D01*
X30469702Y-13209390D01*
X28993512Y-12685580D02*
X29469702Y-12685580D01*
X29517321Y-13161771D01*
X29469702Y-13114152D01*
X29374464Y-13066533D01*
X29136369Y-13066533D01*
X29041131Y-13114152D01*
X28993512Y-13161771D01*
X28945893Y-13257009D01*
X28945893Y-13495104D01*
X28993512Y-13590342D01*
X29041131Y-13637961D01*
X29136369Y-13685580D01*
X29374464Y-13685580D01*
X29469702Y-13637961D01*
X29517321Y-13590342D01*
X26510364Y-7402380D02*
X25938936Y-7402380D01*
X26224650Y-8402380D02*
X26224650Y-7402380D01*
X25605602Y-8402380D02*
X25605602Y-7402380D01*
X25224650Y-7402380D01*
X25129412Y-7450000D01*
X25081793Y-7497619D01*
X25034174Y-7592857D01*
X25034174Y-7735714D01*
X25081793Y-7830952D01*
X25129412Y-7878571D01*
X25224650Y-7926190D01*
X25605602Y-7926190D01*
X24653221Y-7497619D02*
X24605602Y-7450000D01*
X24510364Y-7402380D01*
X24272269Y-7402380D01*
X24177031Y-7450000D01*
X24129412Y-7497619D01*
X24081793Y-7592857D01*
X24081793Y-7688095D01*
X24129412Y-7830952D01*
X24700840Y-8402380D01*
X24081793Y-8402380D01*
X24761904Y-16932580D02*
X24190476Y-16932580D01*
X24476190Y-17932580D02*
X24476190Y-16932580D01*
X23857142Y-17932580D02*
X23857142Y-16932580D01*
X23476190Y-16932580D01*
X23380952Y-16980200D01*
X23333333Y-17027819D01*
X23285714Y-17123057D01*
X23285714Y-17265914D01*
X23333333Y-17361152D01*
X23380952Y-17408771D01*
X23476190Y-17456390D01*
X23857142Y-17456390D01*
X22952380Y-16932580D02*
X22333333Y-16932580D01*
X22666666Y-17313533D01*
X22523809Y-17313533D01*
X22428571Y-17361152D01*
X22380952Y-17408771D01*
X22333333Y-17504009D01*
X22333333Y-17742104D01*
X22380952Y-17837342D01*
X22428571Y-17884961D01*
X22523809Y-17932580D01*
X22809523Y-17932580D01*
X22904761Y-17884961D01*
X22952380Y-17837342D01*
X29652344Y-15639600D02*
X29080916Y-15639600D01*
X29366630Y-16639600D02*
X29366630Y-15639600D01*
X28747582Y-16639600D02*
X28747582Y-15639600D01*
X28366630Y-15639600D01*
X28271392Y-15687220D01*
X28223773Y-15734839D01*
X28176154Y-15830077D01*
X28176154Y-15972934D01*
X28223773Y-16068172D01*
X28271392Y-16115791D01*
X28366630Y-16163410D01*
X28747582Y-16163410D01*
X27319011Y-15972934D02*
X27319011Y-16639600D01*
X27557106Y-15591981D02*
X27795201Y-16306267D01*
X27176154Y-16306267D01*
M02*
