G04 #@! TF.GenerationSoftware,KiCad,Pcbnew,(5.1.5)-3*
G04 #@! TF.CreationDate,2021-02-17T14:45:42+01:00*
G04 #@! TF.ProjectId,riser leopard 1OU,72697365-7220-46c6-956f-706172642031,rev?*
G04 #@! TF.SameCoordinates,PX4a62f80PY5f5e100*
G04 #@! TF.FileFunction,Other,Comment*
%FSLAX46Y46*%
G04 Gerber Fmt 4.6, Leading zero omitted, Abs format (unit mm)*
G04 Created by KiCad (PCBNEW (5.1.5)-3) date 2021-02-17 14:45:42*
%MOMM*%
%LPD*%
G04 APERTURE LIST*
%ADD10C,0.300000*%
%ADD11C,0.150000*%
G04 APERTURE END LIST*
D10*
X36647619Y-31114285D02*
X36552380Y-31209523D01*
X36266666Y-31304761D01*
X36076190Y-31304761D01*
X35790476Y-31209523D01*
X35600000Y-31019047D01*
X35504761Y-30828571D01*
X35409523Y-30447619D01*
X35409523Y-30161904D01*
X35504761Y-29780952D01*
X35600000Y-29590476D01*
X35790476Y-29400000D01*
X36076190Y-29304761D01*
X36266666Y-29304761D01*
X36552380Y-29400000D01*
X36647619Y-29495238D01*
X37504761Y-31304761D02*
X37504761Y-29304761D01*
X38361904Y-31304761D02*
X38361904Y-30257142D01*
X38266666Y-30066666D01*
X38076190Y-29971428D01*
X37790476Y-29971428D01*
X37600000Y-30066666D01*
X37504761Y-30161904D01*
X40171428Y-31304761D02*
X40171428Y-30257142D01*
X40076190Y-30066666D01*
X39885714Y-29971428D01*
X39504761Y-29971428D01*
X39314285Y-30066666D01*
X40171428Y-31209523D02*
X39980952Y-31304761D01*
X39504761Y-31304761D01*
X39314285Y-31209523D01*
X39219047Y-31019047D01*
X39219047Y-30828571D01*
X39314285Y-30638095D01*
X39504761Y-30542857D01*
X39980952Y-30542857D01*
X40171428Y-30447619D01*
X41123809Y-29971428D02*
X41123809Y-31304761D01*
X41123809Y-30161904D02*
X41219047Y-30066666D01*
X41409523Y-29971428D01*
X41695238Y-29971428D01*
X41885714Y-30066666D01*
X41980952Y-30257142D01*
X41980952Y-31304761D01*
X42647619Y-29971428D02*
X43409523Y-29971428D01*
X42933333Y-31304761D02*
X42933333Y-29590476D01*
X43028571Y-29400000D01*
X43219047Y-29304761D01*
X43409523Y-29304761D01*
X44838095Y-31209523D02*
X44647619Y-31304761D01*
X44266666Y-31304761D01*
X44076190Y-31209523D01*
X43980952Y-31019047D01*
X43980952Y-30257142D01*
X44076190Y-30066666D01*
X44266666Y-29971428D01*
X44647619Y-29971428D01*
X44838095Y-30066666D01*
X44933333Y-30257142D01*
X44933333Y-30447619D01*
X43980952Y-30638095D01*
X45790476Y-31304761D02*
X45790476Y-29971428D01*
X45790476Y-30352380D02*
X45885714Y-30161904D01*
X45980952Y-30066666D01*
X46171428Y-29971428D01*
X46361904Y-29971428D01*
X49600000Y-31304761D02*
X48457142Y-31304761D01*
X49028571Y-31304761D02*
X49028571Y-29304761D01*
X48838095Y-29590476D01*
X48647619Y-29780952D01*
X48457142Y-29876190D01*
X50457142Y-31114285D02*
X50552380Y-31209523D01*
X50457142Y-31304761D01*
X50361904Y-31209523D01*
X50457142Y-31114285D01*
X50457142Y-31304761D01*
X51219047Y-29304761D02*
X52457142Y-29304761D01*
X51790476Y-30066666D01*
X52076190Y-30066666D01*
X52266666Y-30161904D01*
X52361904Y-30257142D01*
X52457142Y-30447619D01*
X52457142Y-30923809D01*
X52361904Y-31114285D01*
X52266666Y-31209523D01*
X52076190Y-31304761D01*
X51504761Y-31304761D01*
X51314285Y-31209523D01*
X51219047Y-31114285D01*
X53695238Y-29304761D02*
X53885714Y-29304761D01*
X54076190Y-29400000D01*
X54171428Y-29495238D01*
X54266666Y-29685714D01*
X54361904Y-30066666D01*
X54361904Y-30542857D01*
X54266666Y-30923809D01*
X54171428Y-31114285D01*
X54076190Y-31209523D01*
X53885714Y-31304761D01*
X53695238Y-31304761D01*
X53504761Y-31209523D01*
X53409523Y-31114285D01*
X53314285Y-30923809D01*
X53219047Y-30542857D01*
X53219047Y-30066666D01*
X53314285Y-29685714D01*
X53409523Y-29495238D01*
X53504761Y-29400000D01*
X53695238Y-29304761D01*
X55219047Y-31304761D02*
X55219047Y-29971428D01*
X55219047Y-30161904D02*
X55314285Y-30066666D01*
X55504761Y-29971428D01*
X55790476Y-29971428D01*
X55980952Y-30066666D01*
X56076190Y-30257142D01*
X56076190Y-31304761D01*
X56076190Y-30257142D02*
X56171428Y-30066666D01*
X56361904Y-29971428D01*
X56647619Y-29971428D01*
X56838095Y-30066666D01*
X56933333Y-30257142D01*
X56933333Y-31304761D01*
X57885714Y-31304761D02*
X57885714Y-29971428D01*
X57885714Y-30161904D02*
X57980952Y-30066666D01*
X58171428Y-29971428D01*
X58457142Y-29971428D01*
X58647619Y-30066666D01*
X58742857Y-30257142D01*
X58742857Y-31304761D01*
X58742857Y-30257142D02*
X58838095Y-30066666D01*
X59028571Y-29971428D01*
X59314285Y-29971428D01*
X59504761Y-30066666D01*
X59600000Y-30257142D01*
X59600000Y-31304761D01*
X62171428Y-31209523D02*
X62171428Y-31304761D01*
X62076190Y-31495238D01*
X61980952Y-31590476D01*
X64457142Y-29495238D02*
X64552380Y-29400000D01*
X64742857Y-29304761D01*
X65219047Y-29304761D01*
X65409523Y-29400000D01*
X65504761Y-29495238D01*
X65600000Y-29685714D01*
X65600000Y-29876190D01*
X65504761Y-30161904D01*
X64361904Y-31304761D01*
X65600000Y-31304761D01*
X66838095Y-29304761D02*
X67028571Y-29304761D01*
X67219047Y-29400000D01*
X67314285Y-29495238D01*
X67409523Y-29685714D01*
X67504761Y-30066666D01*
X67504761Y-30542857D01*
X67409523Y-30923809D01*
X67314285Y-31114285D01*
X67219047Y-31209523D01*
X67028571Y-31304761D01*
X66838095Y-31304761D01*
X66647619Y-31209523D01*
X66552380Y-31114285D01*
X66457142Y-30923809D01*
X66361904Y-30542857D01*
X66361904Y-30066666D01*
X66457142Y-29685714D01*
X66552380Y-29495238D01*
X66647619Y-29400000D01*
X66838095Y-29304761D01*
X68647619Y-29304761D02*
X68457142Y-29400000D01*
X68361904Y-29590476D01*
X68457142Y-29780952D01*
X68647619Y-29876190D01*
X68838095Y-29780952D01*
X68933333Y-29590476D01*
X68838095Y-29400000D01*
X68647619Y-29304761D01*
X69980952Y-31209523D02*
X69980952Y-31304761D01*
X69885714Y-31495238D01*
X69790476Y-31590476D01*
X73219047Y-29971428D02*
X73219047Y-31590476D01*
X73123809Y-31780952D01*
X73028571Y-31876190D01*
X72838095Y-31971428D01*
X72552380Y-31971428D01*
X72361904Y-31876190D01*
X73219047Y-31209523D02*
X73028571Y-31304761D01*
X72647619Y-31304761D01*
X72457142Y-31209523D01*
X72361904Y-31114285D01*
X72266666Y-30923809D01*
X72266666Y-30352380D01*
X72361904Y-30161904D01*
X72457142Y-30066666D01*
X72647619Y-29971428D01*
X73028571Y-29971428D01*
X73219047Y-30066666D01*
X74457142Y-31304761D02*
X74266666Y-31209523D01*
X74171428Y-31114285D01*
X74076190Y-30923809D01*
X74076190Y-30352380D01*
X74171428Y-30161904D01*
X74266666Y-30066666D01*
X74457142Y-29971428D01*
X74742857Y-29971428D01*
X74933333Y-30066666D01*
X75028571Y-30161904D01*
X75123809Y-30352380D01*
X75123809Y-30923809D01*
X75028571Y-31114285D01*
X74933333Y-31209523D01*
X74742857Y-31304761D01*
X74457142Y-31304761D01*
X76266666Y-31304761D02*
X76076190Y-31209523D01*
X75980952Y-31019047D01*
X75980952Y-29304761D01*
X77885714Y-31304761D02*
X77885714Y-29304761D01*
X77885714Y-31209523D02*
X77695238Y-31304761D01*
X77314285Y-31304761D01*
X77123809Y-31209523D01*
X77028571Y-31114285D01*
X76933333Y-30923809D01*
X76933333Y-30352380D01*
X77028571Y-30161904D01*
X77123809Y-30066666D01*
X77314285Y-29971428D01*
X77695238Y-29971428D01*
X77885714Y-30066666D01*
X80076190Y-29971428D02*
X80838095Y-29971428D01*
X80361904Y-31304761D02*
X80361904Y-29590476D01*
X80457142Y-29400000D01*
X80647619Y-29304761D01*
X80838095Y-29304761D01*
X81504761Y-31304761D02*
X81504761Y-29971428D01*
X81504761Y-29304761D02*
X81409523Y-29400000D01*
X81504761Y-29495238D01*
X81600000Y-29400000D01*
X81504761Y-29304761D01*
X81504761Y-29495238D01*
X82457142Y-29971428D02*
X82457142Y-31304761D01*
X82457142Y-30161904D02*
X82552380Y-30066666D01*
X82742857Y-29971428D01*
X83028571Y-29971428D01*
X83219047Y-30066666D01*
X83314285Y-30257142D01*
X83314285Y-31304761D01*
X84266666Y-31304761D02*
X84266666Y-29971428D01*
X84266666Y-29304761D02*
X84171428Y-29400000D01*
X84266666Y-29495238D01*
X84361904Y-29400000D01*
X84266666Y-29304761D01*
X84266666Y-29495238D01*
X85123809Y-31209523D02*
X85314285Y-31304761D01*
X85695238Y-31304761D01*
X85885714Y-31209523D01*
X85980952Y-31019047D01*
X85980952Y-30923809D01*
X85885714Y-30733333D01*
X85695238Y-30638095D01*
X85409523Y-30638095D01*
X85219047Y-30542857D01*
X85123809Y-30352380D01*
X85123809Y-30257142D01*
X85219047Y-30066666D01*
X85409523Y-29971428D01*
X85695238Y-29971428D01*
X85885714Y-30066666D01*
X86838095Y-31304761D02*
X86838095Y-29304761D01*
X87695238Y-31304761D02*
X87695238Y-30257142D01*
X87600000Y-30066666D01*
X87409523Y-29971428D01*
X87123809Y-29971428D01*
X86933333Y-30066666D01*
X86838095Y-30161904D01*
X1400000Y-33000000D02*
X1400000Y-25600000D01*
X120400000Y-33000000D02*
X1400000Y-33000000D01*
X120400000Y-25600000D02*
X120400000Y-33000000D01*
X1400000Y-25600000D02*
X120400000Y-25600000D01*
D11*
X127500000Y0D02*
G75*
G03X127500000Y0I-3200000J0D01*
G01*
X3200000Y0D02*
G75*
G03X3200000Y0I-3200000J0D01*
G01*
M02*
