G04 #@! TF.GenerationSoftware,KiCad,Pcbnew,(5.1.5)-3*
G04 #@! TF.CreationDate,2021-02-17T14:45:42+01:00*
G04 #@! TF.ProjectId,riser leopard 1OU,72697365-7220-46c6-956f-706172642031,rev?*
G04 #@! TF.SameCoordinates,PX4a62f80PY5f5e100*
G04 #@! TF.FileFunction,Copper,L1,Top*
G04 #@! TF.FilePolarity,Positive*
%FSLAX46Y46*%
G04 Gerber Fmt 4.6, Leading zero omitted, Abs format (unit mm)*
G04 Created by KiCad (PCBNEW (5.1.5)-3) date 2021-02-17 14:45:42*
%MOMM*%
%LPD*%
G04 APERTURE LIST*
%ADD10C,0.600000*%
%ADD11C,2.600000*%
%ADD12R,1.100000X1.100000*%
%ADD13C,1.100000*%
%ADD14R,0.700000X1.300000*%
%ADD15R,1.300000X0.700000*%
%ADD16R,0.800000X0.750000*%
%ADD17R,0.600000X0.500000*%
%ADD18R,1.600000X2.800000*%
%ADD19R,2.800000X1.600000*%
%ADD20C,0.800000*%
%ADD21C,6.400000*%
%ADD22C,1.000000*%
%ADD23R,0.800000X4.200000*%
%ADD24C,0.500000*%
%ADD25C,0.250000*%
%ADD26C,0.500000*%
%ADD27C,0.152400*%
%ADD28C,0.127000*%
G04 APERTURE END LIST*
D10*
X3980000Y-18730000D03*
X3980000Y-17230000D03*
X3980000Y-15730000D03*
X3980000Y-14230000D03*
X-941500Y-10476000D03*
X5435700Y-7091100D03*
X4165700Y-7091100D03*
X5435700Y-8361100D03*
X4165700Y-8361100D03*
X5435700Y-9631100D03*
X4165700Y-9631100D03*
X5435700Y-10901100D03*
X4165700Y-10901100D03*
X5435700Y-12171100D03*
X4165700Y-12171100D03*
D11*
X24400000Y1040000D03*
X97550000Y1040000D03*
D12*
X12750000Y2290000D03*
D13*
X13750000Y4290000D03*
X14750000Y2290000D03*
X15750000Y4290000D03*
X16750000Y2290000D03*
X17750000Y4290000D03*
X18750000Y2290000D03*
X19750000Y4290000D03*
X20750000Y2290000D03*
X21750000Y4290000D03*
X22750000Y2290000D03*
X25750000Y4290000D03*
X26750000Y2290000D03*
X27750000Y4290000D03*
X28750000Y2290000D03*
X29750000Y4290000D03*
X30750000Y2290000D03*
X31750000Y4290000D03*
X32750000Y2290000D03*
X33750000Y4290000D03*
X34750000Y2290000D03*
X35750000Y4290000D03*
X36750000Y2290000D03*
X37750000Y4290000D03*
X38750000Y2290000D03*
X39750000Y4290000D03*
X40750000Y2290000D03*
X41750000Y4290000D03*
X42750000Y2290000D03*
X43750000Y4290000D03*
X44750000Y2290000D03*
X45750000Y4290000D03*
X46750000Y2290000D03*
X47750000Y4290000D03*
X48750000Y2290000D03*
X49750000Y4290000D03*
X50750000Y2290000D03*
X51750000Y4290000D03*
X52750000Y2290000D03*
X53750000Y4290000D03*
X54750000Y2290000D03*
X55750000Y4290000D03*
X56750000Y2290000D03*
X57750000Y4290000D03*
X58750000Y2290000D03*
X59750000Y4290000D03*
X60750000Y2290000D03*
X61750000Y4290000D03*
X62750000Y2290000D03*
X63750000Y4290000D03*
X64750000Y2290000D03*
X65750000Y4290000D03*
X66750000Y2290000D03*
X67750000Y4290000D03*
X68750000Y2290000D03*
X69750000Y4290000D03*
X70750000Y2290000D03*
X71750000Y4290000D03*
X72750000Y2290000D03*
X73750000Y4290000D03*
X74750000Y2290000D03*
X75750000Y4290000D03*
X76750000Y2290000D03*
X77750000Y4290000D03*
X78750000Y2290000D03*
X79750000Y4290000D03*
X80750000Y2290000D03*
X81750000Y4290000D03*
X82750000Y2290000D03*
X83750000Y4290000D03*
X84750000Y2290000D03*
X85750000Y4290000D03*
X86750000Y2290000D03*
X87750000Y4290000D03*
X88750000Y2290000D03*
X89750000Y4290000D03*
X90750000Y2290000D03*
X91750000Y4290000D03*
X92750000Y2290000D03*
X93750000Y4290000D03*
X94750000Y2290000D03*
X12750000Y-210000D03*
X13750000Y-2210000D03*
X14750000Y-210000D03*
X15750000Y-2210000D03*
X16750000Y-210000D03*
X17750000Y-2210000D03*
X18750000Y-210000D03*
X19750000Y-2210000D03*
X20750000Y-210000D03*
X21750000Y-2210000D03*
X22750000Y-210000D03*
X25750000Y-2210000D03*
X26750000Y-210000D03*
X27750000Y-2210000D03*
X28750000Y-210000D03*
X29750000Y-2210000D03*
X30750000Y-210000D03*
X31750000Y-2210000D03*
X32750000Y-210000D03*
X33750000Y-2210000D03*
X34750000Y-210000D03*
X35750000Y-2210000D03*
X36750000Y-210000D03*
X37750000Y-2210000D03*
X38750000Y-210000D03*
X39750000Y-2210000D03*
X40750000Y-210000D03*
X41750000Y-2210000D03*
X42750000Y-210000D03*
X43750000Y-2210000D03*
X44750000Y-210000D03*
X46750000Y-210000D03*
X47750000Y-2210000D03*
X48750000Y-210000D03*
X49750000Y-2210000D03*
X50750000Y-210000D03*
X51750000Y-2210000D03*
X52750000Y-210000D03*
X53750000Y-2210000D03*
X54750000Y-210000D03*
X55750000Y-2210000D03*
X56750000Y-210000D03*
X57750000Y-2210000D03*
X58750000Y-210000D03*
X59750000Y-2210000D03*
X60750000Y-210000D03*
X61750000Y-2210000D03*
X62750000Y-210000D03*
X63750000Y-2210000D03*
X64750000Y-210000D03*
X65750000Y-2210000D03*
X66750000Y-210000D03*
X67750000Y-2210000D03*
X68750000Y-210000D03*
X69750000Y-2210000D03*
X70750000Y-210000D03*
X71750000Y-2210000D03*
X72750000Y-210000D03*
X73750000Y-2210000D03*
X74750000Y-210000D03*
X75750000Y-2210000D03*
X76750000Y-210000D03*
X77750000Y-2210000D03*
X78750000Y-210000D03*
X79750000Y-2210000D03*
X80750000Y-210000D03*
X81750000Y-2210000D03*
X82750000Y-210000D03*
X83750000Y-2210000D03*
X84750000Y-210000D03*
X85750000Y-2210000D03*
X86750000Y-210000D03*
X87750000Y-2210000D03*
X88750000Y-210000D03*
X89750000Y-2210000D03*
X90750000Y-210000D03*
X91750000Y-2210000D03*
X92750000Y-210000D03*
X93750000Y-2210000D03*
X94750000Y-210000D03*
X45750000Y-2210000D03*
X95750000Y4290000D03*
X95750000Y-2210000D03*
D14*
X45150420Y-16789600D03*
X43250420Y-16789600D03*
D15*
X83787840Y-13408880D03*
X83787840Y-15308880D03*
D16*
X13399300Y-5874900D03*
X11899300Y-5874900D03*
X11899300Y-7589400D03*
X13399300Y-7589400D03*
D17*
X13199300Y-9227700D03*
X12099300Y-9227700D03*
D16*
X21745100Y-11763000D03*
X23245100Y-11763000D03*
D17*
X22841900Y-10086600D03*
X21741900Y-10086600D03*
D16*
X7334280Y1583932D03*
X5834280Y1583932D03*
X5821580Y-254254D03*
X7321580Y-254254D03*
D17*
X5998720Y-1947440D03*
X7098720Y-1947440D03*
D18*
X17749600Y-7115400D03*
X17749600Y-11415400D03*
D19*
X-4468720Y-8775960D03*
X-168720Y-8775960D03*
D20*
X125997056Y1697056D03*
X124300000Y2400000D03*
X122602944Y1697056D03*
X121900000Y0D03*
X122602944Y-1697056D03*
X124300000Y-2400000D03*
X125997056Y-1697056D03*
X126700000Y0D03*
D21*
X124300000Y0D03*
D16*
X7334280Y3422120D03*
X5834280Y3422120D03*
D22*
X113142620Y-5534920D03*
D23*
X60700000Y-23418600D03*
X63700000Y-23418600D03*
X71700000Y-23418600D03*
X83700000Y-23418600D03*
X72700000Y-23418600D03*
X75700000Y-23418600D03*
X59700000Y-23418600D03*
X66700000Y-23418600D03*
X77700000Y-23418600D03*
X79700000Y-23418600D03*
X67700000Y-23418600D03*
X61700000Y-23418600D03*
X73700000Y-23418600D03*
X80700000Y-23418600D03*
X81700000Y-23418600D03*
X70700000Y-23418600D03*
X76700000Y-23418600D03*
X69700000Y-23418600D03*
X65700000Y-23418600D03*
X62700000Y-23418600D03*
X68700000Y-23418600D03*
X85700000Y-23418600D03*
X84700000Y-23418600D03*
X74700000Y-23418600D03*
X64700000Y-23418600D03*
X78700000Y-23418600D03*
X82700000Y-23418600D03*
X58700000Y-23418600D03*
X50700000Y-23418600D03*
X44700000Y-23418600D03*
X46700000Y-23418600D03*
X42700000Y-23418600D03*
X36700000Y-23418600D03*
X34700000Y-23418600D03*
X26700000Y-23418600D03*
X41700000Y-23418600D03*
X32700000Y-23418600D03*
X28700000Y-23418600D03*
X40700000Y-23418600D03*
X30700000Y-23418600D03*
X27700000Y-23418600D03*
X38700000Y-23418600D03*
X57700000Y-23418600D03*
X56700000Y-23418600D03*
X55700000Y-23418600D03*
X54700000Y-23418600D03*
X45700000Y-23418600D03*
X43700000Y-23418600D03*
X37700000Y-23418600D03*
X35700000Y-23418600D03*
X52700000Y-23418600D03*
X53700000Y-23418600D03*
X31700000Y-23418600D03*
X47700000Y-23418600D03*
X39700000Y-23418600D03*
X29700000Y-23418600D03*
X51700000Y-23418600D03*
X33700000Y-23418600D03*
X49700000Y-23418600D03*
X48700000Y-23418600D03*
X15700000Y-23418600D03*
X2600000Y-23418600D03*
X22700000Y-23418600D03*
X21700000Y-23418600D03*
X20700000Y-23418600D03*
X19700000Y-23418600D03*
X17700000Y-23418600D03*
X16700000Y-23418600D03*
X25700000Y-23418600D03*
X24700000Y-23418600D03*
X18700000Y-23418600D03*
X23700000Y-23418600D03*
X7600000Y-23418600D03*
X10600000Y-23418600D03*
X9600000Y-23418600D03*
X5600000Y-23418600D03*
X8600000Y-23418600D03*
X6600000Y-23418600D03*
X11600000Y-23418600D03*
X12600000Y-23418600D03*
X3600000Y-23418600D03*
X4600000Y-23418600D03*
X86700000Y-23418600D03*
X87700000Y-23418600D03*
X88700000Y-23418600D03*
X89700000Y-23418600D03*
X90700000Y-23418600D03*
X91700000Y-23418600D03*
X92700000Y-23418600D03*
X93700000Y-23418600D03*
X94700000Y-23418600D03*
X95700000Y-23418600D03*
X96700000Y-23418600D03*
X97700000Y-23418600D03*
X98700000Y-23418600D03*
X99700000Y-23418600D03*
X100700000Y-23418600D03*
X101700000Y-23418600D03*
X102700000Y-23418600D03*
X103700000Y-23418600D03*
X104700000Y-23418600D03*
X105700000Y-23418600D03*
X106700000Y-23418600D03*
X107700000Y-23418600D03*
X108700000Y-23418600D03*
X109700000Y-23418600D03*
X110700000Y-23418600D03*
X111700000Y-23418600D03*
X112700000Y-23418600D03*
X113700000Y-23418600D03*
X114700000Y-23418600D03*
X115700000Y-23418600D03*
X116700000Y-23418600D03*
X117700000Y-23418600D03*
X118700000Y-23418600D03*
D20*
X1697056Y1697056D03*
X0Y2400000D03*
X-1697056Y1697056D03*
X-2400000Y0D03*
X-1697056Y-1697056D03*
X0Y-2400000D03*
X1697056Y-1697056D03*
X2400000Y0D03*
D21*
X0Y0D03*
D10*
X8600000Y-20489200D03*
X5600000Y-20466600D03*
D24*
X24280000Y-20032200D03*
X22280000Y-19532200D03*
X19280000Y-19532200D03*
X16280000Y-19532200D03*
X26280000Y-20032200D03*
X28280000Y-20032200D03*
X30280000Y-20032200D03*
X32280000Y-20032200D03*
X35280000Y-20032200D03*
D22*
X-7061680Y-8200160D03*
X10503760Y-6296920D03*
X10585040Y-7953000D03*
X10844120Y-9522720D03*
X23782880Y-9690360D03*
X23711760Y-12692640D03*
X16914720Y-13795000D03*
D24*
X116383660Y-14310620D03*
D22*
X82159700Y-13033000D03*
D24*
X38280000Y-20032200D03*
X40280000Y-20032200D03*
X44280000Y-20032200D03*
X48280000Y-20032200D03*
X52780000Y-20032200D03*
X42280000Y-20032200D03*
X46280000Y-20032200D03*
X50280000Y-20032200D03*
X55280000Y-20032200D03*
X57280000Y-20032200D03*
X59280000Y-20032200D03*
X61280000Y-20032200D03*
X63280000Y-20032200D03*
X65280000Y-20032200D03*
X67280000Y-20032200D03*
X69280000Y-20032200D03*
X71280000Y-20032200D03*
X73280000Y-20032200D03*
X75280000Y-20032200D03*
X77280000Y-20032200D03*
X79280000Y-20032200D03*
X81280000Y-20032200D03*
X83280000Y-20032200D03*
X85280000Y-20032200D03*
X88280000Y-20032200D03*
X90280000Y-20032200D03*
X92280000Y-20032200D03*
X94280000Y-20032200D03*
X96280000Y-20032200D03*
X98280000Y-20032200D03*
X100280000Y-20032200D03*
X102280000Y-20032200D03*
X104280000Y-20032200D03*
X106280000Y-20032200D03*
X108280000Y-20032200D03*
X110280000Y-20032200D03*
X112280000Y-20032200D03*
X114280000Y-20032200D03*
D22*
X41690900Y-16157140D03*
D24*
X33780000Y-20032200D03*
D22*
X4780000Y3245000D03*
X4780000Y1445000D03*
X4780000Y-355000D03*
X4780000Y-2355000D03*
D24*
X116280000Y-20032200D03*
D22*
X548160Y-7179080D03*
D20*
X46420380Y-16789600D03*
X17770000Y1010000D03*
X85101020Y-15311380D03*
D25*
X5600000Y-23418600D02*
X5600000Y-20466600D01*
X8601300Y-23417300D02*
X8600000Y-23418600D01*
X8601300Y-20487900D02*
X8601300Y-23417300D01*
X19780000Y-20032200D02*
X19280000Y-19532200D01*
X19780000Y-23418600D02*
X19780000Y-20532200D01*
X21780000Y-20032200D02*
X22280000Y-19532200D01*
X21780000Y-23418600D02*
X21780000Y-20532200D01*
X16780000Y-20032200D02*
X16280000Y-19532200D01*
X16780000Y-23418600D02*
X16780000Y-20532200D01*
X24780000Y-20532200D02*
X24280000Y-20032200D01*
X25780000Y-20532200D02*
X26280000Y-20032200D01*
X28780000Y-20532200D02*
X28280000Y-20032200D01*
X29780000Y-20532200D02*
X30280000Y-20032200D01*
X32780000Y-20532200D02*
X32280000Y-20032200D01*
X35780000Y-20532200D02*
X35280000Y-20032200D01*
X16780000Y-20032200D02*
X16780000Y-20532200D01*
X19780000Y-20032200D02*
X19780000Y-20532200D01*
X21780000Y-20032200D02*
X21780000Y-20532200D01*
D26*
X-4468720Y-8775960D02*
X-6485880Y-8775960D01*
X-6485880Y-8775960D02*
X-7061680Y-8200160D01*
X11899300Y-5874900D02*
X10925780Y-5874900D01*
X10925780Y-5874900D02*
X10503760Y-6296920D01*
X11899300Y-7589400D02*
X10948640Y-7589400D01*
X10948640Y-7589400D02*
X10585040Y-7953000D01*
X12099300Y-9227700D02*
X11139140Y-9227700D01*
X11139140Y-9227700D02*
X10844120Y-9522720D01*
X22841900Y-10086600D02*
X23386640Y-10086600D01*
X23386640Y-10086600D02*
X23782880Y-9690360D01*
X23245100Y-11763000D02*
X23245100Y-12225980D01*
X23245100Y-12225980D02*
X23711760Y-12692640D01*
X17749600Y-11415400D02*
X17749600Y-12960120D01*
X17749600Y-12960120D02*
X16914720Y-13795000D01*
X83787840Y-13408880D02*
X82535580Y-13408880D01*
X82535580Y-13408880D02*
X82159700Y-13033000D01*
D25*
X24780000Y-20532200D02*
X24780000Y-23418600D01*
X25780000Y-20532200D02*
X25780000Y-23418600D01*
X28780000Y-20532200D02*
X28780000Y-23418600D01*
X29780000Y-20532200D02*
X29780000Y-23418600D01*
X32780000Y-20532200D02*
X32780000Y-23418600D01*
X35780000Y-20532200D02*
X35780000Y-23418600D01*
X38780000Y-20532200D02*
X38280000Y-20032200D01*
X38780000Y-23418600D02*
X38780000Y-20532200D01*
X39780000Y-20532200D02*
X40280000Y-20032200D01*
X39780000Y-23418600D02*
X39780000Y-20532200D01*
X43780000Y-23418600D02*
X43780000Y-20532200D01*
X47780000Y-23418600D02*
X47780000Y-20532200D01*
X43780000Y-20532200D02*
X44280000Y-20032200D01*
X47780000Y-20532200D02*
X48280000Y-20032200D01*
X42780000Y-20532200D02*
X42280000Y-20032200D01*
X46780000Y-20532200D02*
X46280000Y-20032200D01*
X50780000Y-20532200D02*
X50280000Y-20032200D01*
X42780000Y-23418600D02*
X42780000Y-20532200D01*
X46780000Y-23418600D02*
X46780000Y-20532200D01*
X50780000Y-23418600D02*
X50780000Y-20532200D01*
X52780000Y-23418600D02*
X52780000Y-20532200D01*
X55780000Y-20532200D02*
X55280000Y-20032200D01*
X55780000Y-23418600D02*
X55780000Y-20532200D01*
X56780000Y-20532200D02*
X57280000Y-20032200D01*
X56780000Y-23418600D02*
X56780000Y-20532200D01*
X59780000Y-20532200D02*
X59280000Y-20032200D01*
X59780000Y-23418600D02*
X59780000Y-20532200D01*
X60780000Y-20532200D02*
X61280000Y-20032200D01*
X60780000Y-23418600D02*
X60780000Y-20532200D01*
X63780000Y-20532200D02*
X63280000Y-20032200D01*
X63780000Y-23418600D02*
X63780000Y-20532200D01*
X64780000Y-20532200D02*
X65280000Y-20032200D01*
X64780000Y-23418600D02*
X64780000Y-20532200D01*
X67780000Y-20532200D02*
X67280000Y-20032200D01*
X67780000Y-23418600D02*
X67780000Y-20532200D01*
X68780000Y-20532200D02*
X69280000Y-20032200D01*
X68780000Y-23418600D02*
X68780000Y-20532200D01*
X71780000Y-20532200D02*
X71280000Y-20032200D01*
X71780000Y-23418600D02*
X71780000Y-20532200D01*
X72780000Y-20532200D02*
X73280000Y-20032200D01*
X72780000Y-23418600D02*
X72780000Y-20532200D01*
X75780000Y-20532200D02*
X75280000Y-20032200D01*
X75780000Y-23418600D02*
X75780000Y-20532200D01*
X76780000Y-20532200D02*
X77280000Y-20032200D01*
X76780000Y-23418600D02*
X76780000Y-20532200D01*
X79780000Y-20532200D02*
X79280000Y-20032200D01*
X79780000Y-23418600D02*
X79780000Y-20532200D01*
X80780000Y-20532200D02*
X81280000Y-20032200D01*
X80780000Y-23418600D02*
X80780000Y-20532200D01*
X83780000Y-20532200D02*
X83280000Y-20032200D01*
X83780000Y-23418600D02*
X83780000Y-20532200D01*
X85780000Y-20532200D02*
X85280000Y-20032200D01*
X85780000Y-23418600D02*
X85780000Y-20532200D01*
X93780000Y-20532200D02*
X94280000Y-20032200D01*
X93780000Y-23418600D02*
X93780000Y-20532200D01*
X92780000Y-20532200D02*
X92280000Y-20032200D01*
X92780000Y-23418600D02*
X92780000Y-20532200D01*
X89780000Y-20532200D02*
X90280000Y-20032200D01*
X89780000Y-23418600D02*
X89780000Y-20532200D01*
X88780000Y-20532200D02*
X88280000Y-20032200D01*
X88780000Y-23418600D02*
X88780000Y-20532200D01*
X96780000Y-20532200D02*
X96280000Y-20032200D01*
X96780000Y-23418600D02*
X96780000Y-20532200D01*
X97780000Y-20532200D02*
X98280000Y-20032200D01*
X97780000Y-23418600D02*
X97780000Y-20532200D01*
X100780000Y-20532200D02*
X100280000Y-20032200D01*
X100780000Y-23418600D02*
X100780000Y-20532200D01*
X101780000Y-20532200D02*
X102280000Y-20032200D01*
X101780000Y-23418600D02*
X101780000Y-20532200D01*
X104780000Y-20532200D02*
X104280000Y-20032200D01*
X104780000Y-23418600D02*
X104780000Y-20532200D01*
X105780000Y-20532200D02*
X106280000Y-20032200D01*
X105780000Y-23418600D02*
X105780000Y-20532200D01*
X108780000Y-20532200D02*
X108280000Y-20032200D01*
X108780000Y-23418600D02*
X108780000Y-20532200D01*
X109780000Y-20532200D02*
X110280000Y-20032200D01*
X109780000Y-23418600D02*
X109780000Y-20532200D01*
X112780000Y-20532200D02*
X112280000Y-20032200D01*
X112780000Y-23418600D02*
X112780000Y-20532200D01*
X113780000Y-20532200D02*
X114280000Y-20032200D01*
X113780000Y-23418600D02*
X113780000Y-20532200D01*
X52780000Y-20532200D02*
X52780000Y-20032200D01*
D26*
X43250420Y-16789600D02*
X42323360Y-16789600D01*
X42323360Y-16789600D02*
X41690900Y-16157140D01*
D25*
X33780000Y-23418600D02*
X33780000Y-20532200D01*
X33780000Y-20532200D02*
X33780000Y-20032200D01*
D26*
X5834280Y3422120D02*
X4957120Y3422120D01*
X4957120Y3422120D02*
X4780000Y3245000D01*
X5834280Y1583932D02*
X4918932Y1583932D01*
X4918932Y1583932D02*
X4780000Y1445000D01*
X5821580Y-254254D02*
X4880746Y-254254D01*
X4880746Y-254254D02*
X4780000Y-355000D01*
X5998720Y-1947440D02*
X5187560Y-1947440D01*
X5187560Y-1947440D02*
X4780000Y-2355000D01*
D25*
X116780000Y-23418600D02*
X116780000Y-20532200D01*
X116780000Y-20532200D02*
X116280000Y-20032200D01*
D27*
X41750000Y-1634980D02*
X41750000Y-2210000D01*
X41241840Y-1451940D02*
X41566960Y-1451940D01*
X40944660Y-1749120D02*
X41241840Y-1451940D01*
X41566960Y-1451940D02*
X41750000Y-1634980D01*
X66352400Y-16366872D02*
X64243128Y-14257600D01*
X66352400Y-21371000D02*
X66352400Y-16366872D01*
X66700000Y-21718600D02*
X66352400Y-21371000D01*
X66700000Y-23418600D02*
X66700000Y-21718600D01*
X64243128Y-14257600D02*
X55593128Y-14257600D01*
X55593128Y-14257600D02*
X45743128Y-4407600D01*
X45743128Y-4407600D02*
X42243128Y-4407600D01*
X40944660Y-3109132D02*
X40944660Y-1749120D01*
X42243128Y-4407600D02*
X40944660Y-3109132D01*
X54637320Y-4842848D02*
X54637320Y-1100497D01*
X54637320Y-1100497D02*
X54750000Y-987817D01*
X67946872Y-11182400D02*
X60976872Y-11182400D01*
X74770892Y-18006420D02*
X67946872Y-11182400D01*
X78047600Y-19123848D02*
X76930172Y-18006420D01*
X77700000Y-23418600D02*
X77700000Y-21718600D01*
X77700000Y-21718600D02*
X78047600Y-21371000D01*
X78047600Y-21371000D02*
X78047600Y-19123848D01*
X54750000Y-987817D02*
X54750000Y-210000D01*
X60976872Y-11182400D02*
X54637320Y-4842848D01*
X76930172Y-18006420D02*
X74770892Y-18006420D01*
X41216872Y-7692400D02*
X36637320Y-3112848D01*
X46356872Y-7692400D02*
X41216872Y-7692400D01*
X58716872Y-15982400D02*
X54646872Y-15982400D01*
X54646872Y-15982400D02*
X46356872Y-7692400D01*
X62047600Y-19313128D02*
X58716872Y-15982400D01*
X61700000Y-23418600D02*
X61700000Y-21718600D01*
X36637320Y-3112848D02*
X36637320Y-1100497D01*
X36637320Y-1100497D02*
X36750000Y-987817D01*
X36750000Y-987817D02*
X36750000Y-210000D01*
X62047600Y-21371000D02*
X62047600Y-19313128D01*
X61700000Y-21718600D02*
X62047600Y-21371000D01*
X50750000Y-987817D02*
X50750000Y-210000D01*
X50637320Y-1100497D02*
X50750000Y-987817D01*
X73700000Y-23418600D02*
X73700000Y-21718600D01*
X73700000Y-21718600D02*
X74047600Y-21371000D01*
X74047600Y-21371000D02*
X74047600Y-19276748D01*
X74047600Y-19276748D02*
X67083252Y-12312400D01*
X67083252Y-12312400D02*
X59676872Y-12312400D01*
X59676872Y-12312400D02*
X50637320Y-3272848D01*
X50637320Y-3272848D02*
X50637320Y-1100497D01*
X61872512Y-10052400D02*
X58637320Y-6817208D01*
X79863872Y-16868500D02*
X75439192Y-16868500D01*
X81700000Y-21718600D02*
X82047600Y-21371000D01*
X75439192Y-16868500D02*
X68623092Y-10052400D01*
X58637320Y-6817208D02*
X58637320Y-1100497D01*
X82047600Y-19052228D02*
X79863872Y-16868500D01*
X81700000Y-23418600D02*
X81700000Y-21718600D01*
X58750000Y-987817D02*
X58750000Y-210000D01*
X68623092Y-10052400D02*
X61872512Y-10052400D01*
X82047600Y-21371000D02*
X82047600Y-19052228D01*
X58637320Y-1100497D02*
X58750000Y-987817D01*
X47750000Y-1634980D02*
X47566960Y-1451940D01*
X47750000Y-2210000D02*
X47750000Y-1634980D01*
X47566960Y-1451940D02*
X47241840Y-1451940D01*
X47241840Y-1451940D02*
X46944660Y-1749120D01*
X70352400Y-17166872D02*
X66313128Y-13127600D01*
X70352400Y-21371000D02*
X70352400Y-17166872D01*
X70700000Y-21718600D02*
X70352400Y-21371000D01*
X70700000Y-23418600D02*
X70700000Y-21718600D01*
X66313128Y-13127600D02*
X57093128Y-13127600D01*
X57093128Y-13127600D02*
X46944660Y-2979132D01*
X46944660Y-2979132D02*
X46944660Y-1749120D01*
X46750000Y-987817D02*
X46750000Y-210000D01*
X46637320Y-1100497D02*
X46750000Y-987817D01*
X69700000Y-23418600D02*
X69700000Y-21718600D01*
X70047600Y-17293128D02*
X66186872Y-13432400D01*
X70047600Y-21371000D02*
X70047600Y-17293128D01*
X69700000Y-21718600D02*
X70047600Y-21371000D01*
X66186872Y-13432400D02*
X56966872Y-13432400D01*
X56966872Y-13432400D02*
X46637320Y-3102848D01*
X46637320Y-3102848D02*
X46637320Y-1100497D01*
X40750000Y-987817D02*
X40750000Y-210000D01*
X40637320Y-1100497D02*
X40750000Y-987817D01*
X66047600Y-16493128D02*
X64116872Y-14562400D01*
X65700000Y-21718600D02*
X66047600Y-21371000D01*
X66047600Y-21371000D02*
X66047600Y-16493128D01*
X65700000Y-23418600D02*
X65700000Y-21718600D01*
X64116872Y-14562400D02*
X55466872Y-14562400D01*
X55466872Y-14562400D02*
X45616872Y-4712400D01*
X45616872Y-4712400D02*
X42116872Y-4712400D01*
X42116872Y-4712400D02*
X40637320Y-3232848D01*
X40637320Y-3232848D02*
X40637320Y-1100497D01*
X46483128Y-7387600D02*
X41343128Y-7387600D01*
X37750000Y-1634980D02*
X37750000Y-2210000D01*
X62352400Y-19186872D02*
X58843128Y-15677600D01*
X37241840Y-1451940D02*
X37566960Y-1451940D01*
X62700000Y-23418600D02*
X62700000Y-21718600D01*
X37566960Y-1451940D02*
X37750000Y-1634980D01*
X62352400Y-21371000D02*
X62352400Y-19186872D01*
X62700000Y-21718600D02*
X62352400Y-21371000D01*
X54773128Y-15677600D02*
X46483128Y-7387600D01*
X58843128Y-15677600D02*
X54773128Y-15677600D01*
X41343128Y-7387600D02*
X36944660Y-2989132D01*
X36944660Y-2989132D02*
X36944660Y-1749120D01*
X36944660Y-1749120D02*
X37241840Y-1451940D01*
X51750000Y-2210000D02*
X51750000Y-1634980D01*
X51566960Y-1451940D02*
X51241840Y-1451940D01*
X51750000Y-1634980D02*
X51566960Y-1451940D01*
X51241840Y-1451940D02*
X50944660Y-1749120D01*
X74700000Y-23418600D02*
X74700000Y-21718600D01*
X74700000Y-21718600D02*
X74352400Y-21371000D01*
X74352400Y-21371000D02*
X74352400Y-19150212D01*
X74352400Y-19150212D02*
X67209788Y-12007600D01*
X67209788Y-12007600D02*
X59803128Y-12007600D01*
X50944660Y-3149132D02*
X50944660Y-1749120D01*
X59803128Y-12007600D02*
X50944660Y-3149132D01*
X77056508Y-17701420D02*
X74896948Y-17701420D01*
X55750000Y-1634980D02*
X55750000Y-2210000D01*
X54944660Y-4719132D02*
X54944660Y-1749120D01*
X78700000Y-21718600D02*
X78352400Y-21371000D01*
X78352400Y-21371000D02*
X78352400Y-18997312D01*
X78700000Y-23418600D02*
X78700000Y-21718600D01*
X78352400Y-18997312D02*
X77056508Y-17701420D01*
X74896948Y-17701420D02*
X68073128Y-10877600D01*
X68073128Y-10877600D02*
X61103128Y-10877600D01*
X55566960Y-1451940D02*
X55750000Y-1634980D01*
X61103128Y-10877600D02*
X54944660Y-4719132D01*
X54944660Y-1749120D02*
X55241840Y-1451940D01*
X55241840Y-1451940D02*
X55566960Y-1451940D01*
X59750000Y-1634980D02*
X59750000Y-2210000D01*
X82700000Y-21718600D02*
X82352400Y-21371000D01*
X68749628Y-9747600D02*
X61999048Y-9747600D01*
X58944660Y-6693212D02*
X58944660Y-1749120D01*
X61999048Y-9747600D02*
X58944660Y-6693212D01*
X82352400Y-21371000D02*
X82352400Y-18925692D01*
X82352400Y-18925692D02*
X79990208Y-16563500D01*
X59566960Y-1451940D02*
X59750000Y-1634980D01*
X82700000Y-23418600D02*
X82700000Y-21718600D01*
X79990208Y-16563500D02*
X75565528Y-16563500D01*
X75565528Y-16563500D02*
X68749628Y-9747600D01*
X58944660Y-1749120D02*
X59241840Y-1451940D01*
X59241840Y-1451940D02*
X59566960Y-1451940D01*
X33750000Y-1634980D02*
X33750000Y-2210000D01*
X33566960Y-1451940D02*
X33750000Y-1634980D01*
X33241840Y-1451940D02*
X33566960Y-1451940D01*
X32944660Y-1749120D02*
X33241840Y-1451940D01*
X58700000Y-21718600D02*
X58352400Y-21371000D01*
X58700000Y-23418600D02*
X58700000Y-21718600D01*
X58352400Y-21371000D02*
X58352400Y-19056872D01*
X58352400Y-19056872D02*
X56563128Y-17267600D01*
X56563128Y-17267600D02*
X53853128Y-17267600D01*
X53853128Y-17267600D02*
X46263128Y-9677600D01*
X46263128Y-9677600D02*
X39353128Y-9677600D01*
X32944660Y-3269132D02*
X32944660Y-1749120D01*
X39353128Y-9677600D02*
X32944660Y-3269132D01*
X32750000Y-987817D02*
X32750000Y-210000D01*
X32637320Y-1100497D02*
X32750000Y-987817D01*
X57700000Y-23418600D02*
X57700000Y-21718600D01*
X57700000Y-21718600D02*
X58047600Y-21371000D01*
X58047600Y-21371000D02*
X58047600Y-19183128D01*
X58047600Y-19183128D02*
X56436872Y-17572400D01*
X56436872Y-17572400D02*
X53726872Y-17572400D01*
X53726872Y-17572400D02*
X46136872Y-9982400D01*
X46136872Y-9982400D02*
X39226872Y-9982400D01*
X39226872Y-9982400D02*
X32637320Y-3392848D01*
X32637320Y-3392848D02*
X32637320Y-1100497D01*
X28750000Y-1275560D02*
X28850000Y-1375560D01*
X28750000Y-210000D02*
X28750000Y-1275560D01*
X54700000Y-21718600D02*
X54352400Y-21371000D01*
X54700000Y-23418600D02*
X54700000Y-21718600D01*
X54352400Y-21371000D02*
X54352400Y-19706872D01*
X54352400Y-19706872D02*
X46043128Y-11397600D01*
X46043128Y-11397600D02*
X37093128Y-11397600D01*
X28850000Y-3154472D02*
X28850000Y-1375560D01*
X37093128Y-11397600D02*
X28850000Y-3154472D01*
X27750000Y-1617400D02*
X27750000Y-2210000D01*
X27951020Y-1403680D02*
X27750000Y-1617400D01*
X28260900Y-1403680D02*
X27951020Y-1403680D01*
X28545000Y-1687780D02*
X28260900Y-1403680D01*
X53700000Y-23418600D02*
X53700000Y-21718600D01*
X53700000Y-21718600D02*
X54047600Y-21371000D01*
X54047600Y-21371000D02*
X54047600Y-19833128D01*
X54047600Y-19833128D02*
X45916872Y-11702400D01*
X45916872Y-11702400D02*
X36966872Y-11702400D01*
X36966872Y-11702400D02*
X28545000Y-3280528D01*
X28545000Y-3280528D02*
X28545000Y-1687780D01*
D26*
X-168720Y-8775960D02*
X-168720Y-7895960D01*
X-168720Y-7895960D02*
X548160Y-7179080D01*
D25*
X20800700Y-18532100D02*
X25750000Y-13582800D01*
X16322900Y-18532100D02*
X20800700Y-18532100D01*
X15780000Y-21672200D02*
X15573600Y-21465800D01*
X15780000Y-23418600D02*
X15780000Y-21672200D01*
X15573600Y-19281400D02*
X16322900Y-18532100D01*
X15573600Y-21465800D02*
X15573600Y-19281400D01*
X25750000Y-13582800D02*
X25750000Y-2210000D01*
X46420380Y-16789600D02*
X45150420Y-16789600D01*
X17750000Y-3410000D02*
X17750000Y-2210000D01*
X7600000Y-23418600D02*
X7600000Y-15329700D01*
X16805750Y-4354250D02*
X17750000Y-3410000D01*
X8423500Y-14506200D02*
X8423500Y-4905000D01*
X7600000Y-15329700D02*
X8423500Y-14506200D01*
X8423500Y-4905000D02*
X8974250Y-4354250D01*
X8974250Y-4354250D02*
X16805750Y-4354250D01*
X12563700Y-15192000D02*
X10600000Y-17155700D01*
X18024700Y-15192000D02*
X12563700Y-15192000D01*
X20780600Y-12436100D02*
X18024700Y-15192000D01*
X20780600Y-1668300D02*
X20780600Y-12436100D01*
X10600000Y-17155700D02*
X10600000Y-23418600D01*
X21758500Y-690400D02*
X20780600Y-1668300D01*
X21758500Y2751300D02*
X21758500Y-690400D01*
X44791400Y3331400D02*
X45750000Y4290000D01*
X22338600Y3331400D02*
X44791400Y3331400D01*
X22338600Y3331400D02*
X21758500Y2751300D01*
X6600000Y-23418600D02*
X6600000Y-14932700D01*
X6600000Y-14932700D02*
X7509100Y-14023600D01*
X7509100Y-14023600D02*
X7509100Y-4333500D01*
X8291300Y-3551300D02*
X16168700Y-3551300D01*
X7509100Y-4333500D02*
X8291300Y-3551300D01*
X16750000Y-2970000D02*
X16750000Y-210000D01*
X16168700Y-3551300D02*
X16750000Y-2970000D01*
D26*
X11600000Y-23418600D02*
X11600000Y-18111500D01*
X11600000Y-18111500D02*
X12944700Y-16766800D01*
X12944700Y-16766800D02*
X18342200Y-16766800D01*
X18342200Y-16766800D02*
X21750000Y-13359000D01*
X21750000Y-11767900D02*
X21745100Y-11763000D01*
X21750000Y-13359000D02*
X21750000Y-11767900D01*
X21745100Y-10089800D02*
X21741900Y-10086600D01*
X21745100Y-11763000D02*
X21745100Y-10089800D01*
X21750000Y-10078500D02*
X21741900Y-10086600D01*
X21750000Y-2210000D02*
X21750000Y-10078500D01*
D25*
X24743000Y-13096500D02*
X24743000Y-7953000D01*
X24743000Y-7953000D02*
X22750000Y-5960000D01*
X19955100Y-17884400D02*
X24743000Y-13096500D01*
X13351100Y-17884400D02*
X19955100Y-17884400D01*
X12600000Y-18635500D02*
X13351100Y-17884400D01*
X12600000Y-23418600D02*
X12600000Y-18635500D01*
X22750000Y-5960000D02*
X22750000Y-210000D01*
D27*
X64545000Y-1769640D02*
X64208250Y-1432890D01*
X64208250Y-1432890D02*
X63885670Y-1432890D01*
X63885670Y-1432890D02*
X63750000Y-1568560D01*
X63750000Y-1568560D02*
X63750000Y-2210000D01*
X86700000Y-23418600D02*
X86700000Y-21718600D01*
X86700000Y-21718600D02*
X87047600Y-21371000D01*
X87047600Y-21371000D02*
X87047600Y-12743128D01*
X87047600Y-12743128D02*
X85706872Y-11402400D01*
X85706872Y-11402400D02*
X76886872Y-11402400D01*
X76886872Y-11402400D02*
X70806872Y-5322400D01*
X70806872Y-5322400D02*
X66516872Y-5322400D01*
X66516872Y-5322400D02*
X64545000Y-3350528D01*
X64545000Y-3350528D02*
X64545000Y-1769640D01*
X64750000Y-1456480D02*
X64750000Y-210000D01*
X64850000Y-1556480D02*
X64750000Y-1456480D01*
X87352400Y-12616872D02*
X85833128Y-11097600D01*
X87352400Y-21371000D02*
X87352400Y-12616872D01*
X87700000Y-21718600D02*
X87352400Y-21371000D01*
X87700000Y-23418600D02*
X87700000Y-21718600D01*
X85833128Y-11097600D02*
X77013128Y-11097600D01*
X77013128Y-11097600D02*
X70933128Y-5017600D01*
X70933128Y-5017600D02*
X66643128Y-5017600D01*
X66643128Y-5017600D02*
X64850000Y-3224472D01*
X64850000Y-3224472D02*
X64850000Y-1556480D01*
X67885670Y-1432890D02*
X67750000Y-1568560D01*
X68545000Y-1769640D02*
X68208250Y-1432890D01*
X68208250Y-1432890D02*
X67885670Y-1432890D01*
X67750000Y-1568560D02*
X67750000Y-2210000D01*
X91047600Y-12703128D02*
X88616872Y-10272400D01*
X90700000Y-21718600D02*
X91047600Y-21371000D01*
X90700000Y-23418600D02*
X90700000Y-21718600D01*
X91047600Y-21371000D02*
X91047600Y-12703128D01*
X88616872Y-10272400D02*
X77366872Y-10272400D01*
X77366872Y-10272400D02*
X70926872Y-3832400D01*
X70926872Y-3832400D02*
X69366872Y-3832400D01*
X69366872Y-3832400D02*
X68545000Y-3010528D01*
X68545000Y-3010528D02*
X68545000Y-1769640D01*
X68750000Y-1456480D02*
X68750000Y-210000D01*
X68850000Y-1556480D02*
X68750000Y-1456480D01*
X91352400Y-12576872D02*
X88743128Y-9967600D01*
X91352400Y-21371000D02*
X91352400Y-12576872D01*
X91700000Y-21718600D02*
X91352400Y-21371000D01*
X91700000Y-23418600D02*
X91700000Y-21718600D01*
X88743128Y-9967600D02*
X77493128Y-9967600D01*
X77493128Y-9967600D02*
X71053128Y-3527600D01*
X71053128Y-3527600D02*
X69493128Y-3527600D01*
X68850000Y-2884472D02*
X68850000Y-1556480D01*
X69493128Y-3527600D02*
X68850000Y-2884472D01*
X71750000Y-1568560D02*
X71750000Y-2210000D01*
X71885670Y-1432890D02*
X71750000Y-1568560D01*
X72545000Y-1769640D02*
X72208250Y-1432890D01*
X72208250Y-1432890D02*
X71885670Y-1432890D01*
X95047600Y-11903128D02*
X92296872Y-9152400D01*
X94700000Y-23418600D02*
X94700000Y-21718600D01*
X94700000Y-21718600D02*
X95047600Y-21371000D01*
X95047600Y-21371000D02*
X95047600Y-11903128D01*
X92296872Y-9152400D02*
X78586872Y-9152400D01*
X78586872Y-9152400D02*
X72545000Y-3110528D01*
X72545000Y-3110528D02*
X72545000Y-1769640D01*
X72850000Y-1556480D02*
X72750000Y-1456480D01*
X72750000Y-1456480D02*
X72750000Y-210000D01*
X95352400Y-11776872D02*
X92423128Y-8847600D01*
X95352400Y-21371000D02*
X95352400Y-11776872D01*
X95700000Y-21718600D02*
X95352400Y-21371000D01*
X95700000Y-23418600D02*
X95700000Y-21718600D01*
X92423128Y-8847600D02*
X78713128Y-8847600D01*
X72850000Y-2984472D02*
X72850000Y-1556480D01*
X78713128Y-8847600D02*
X72850000Y-2984472D01*
X75750000Y-1568560D02*
X75750000Y-2210000D01*
X76545000Y-1769640D02*
X76208250Y-1432890D01*
X75885670Y-1432890D02*
X75750000Y-1568560D01*
X76208250Y-1432890D02*
X75885670Y-1432890D01*
X99047600Y-9753128D02*
X97326872Y-8032400D01*
X98700000Y-23418600D02*
X98700000Y-21718600D01*
X99047600Y-21371000D02*
X99047600Y-9753128D01*
X98700000Y-21718600D02*
X99047600Y-21371000D01*
X97326872Y-8032400D02*
X81286872Y-8032400D01*
X81286872Y-8032400D02*
X76545000Y-3290528D01*
X76545000Y-3290528D02*
X76545000Y-1769640D01*
X76750000Y-1456480D02*
X76750000Y-210000D01*
X76850000Y-1556480D02*
X76750000Y-1456480D01*
X99352400Y-9626872D02*
X97453128Y-7727600D01*
X99352400Y-21371000D02*
X99352400Y-9626872D01*
X99700000Y-21718600D02*
X99352400Y-21371000D01*
X99700000Y-23418600D02*
X99700000Y-21718600D01*
X97453128Y-7727600D02*
X81413128Y-7727600D01*
X76850000Y-3164472D02*
X76850000Y-1556480D01*
X81413128Y-7727600D02*
X76850000Y-3164472D01*
X79750000Y-1568560D02*
X79750000Y-2210000D01*
X80545000Y-1769640D02*
X80208250Y-1432890D01*
X79885670Y-1432890D02*
X79750000Y-1568560D01*
X80208250Y-1432890D02*
X79885670Y-1432890D01*
X102700000Y-23418600D02*
X102700000Y-21718600D01*
X102700000Y-21718600D02*
X103047600Y-21371000D01*
X103047600Y-21371000D02*
X103047600Y-9453128D01*
X103047600Y-9453128D02*
X100496872Y-6902400D01*
X100496872Y-6902400D02*
X84316872Y-6902400D01*
X84316872Y-6902400D02*
X80545000Y-3130528D01*
X80545000Y-3130528D02*
X80545000Y-1769640D01*
X80850000Y-1556480D02*
X80750000Y-1456480D01*
X80750000Y-1456480D02*
X80750000Y-210000D01*
X103700000Y-21718600D02*
X103352400Y-21371000D01*
X103352400Y-9326872D02*
X100623128Y-6597600D01*
X103352400Y-21371000D02*
X103352400Y-9326872D01*
X103700000Y-23418600D02*
X103700000Y-21718600D01*
X100623128Y-6597600D02*
X84443128Y-6597600D01*
X80850000Y-3004472D02*
X80850000Y-1556480D01*
X84443128Y-6597600D02*
X80850000Y-3004472D01*
X83750000Y-1568560D02*
X83750000Y-2210000D01*
X83885670Y-1432890D02*
X83750000Y-1568560D01*
X84545000Y-1769640D02*
X84208250Y-1432890D01*
X84208250Y-1432890D02*
X83885670Y-1432890D01*
X106700000Y-23418600D02*
X106700000Y-21718600D01*
X107047600Y-21371000D02*
X107047600Y-9443128D01*
X106700000Y-21718600D02*
X107047600Y-21371000D01*
X107047600Y-9443128D02*
X103376872Y-5772400D01*
X103376872Y-5772400D02*
X87226872Y-5772400D01*
X87226872Y-5772400D02*
X84545000Y-3090528D01*
X84545000Y-3090528D02*
X84545000Y-1769640D01*
X84850000Y-1556480D02*
X84750000Y-1456480D01*
X84750000Y-1456480D02*
X84750000Y-210000D01*
X107352400Y-9316872D02*
X103503128Y-5467600D01*
X107700000Y-21718600D02*
X107352400Y-21371000D01*
X107700000Y-23418600D02*
X107700000Y-21718600D01*
X107352400Y-21371000D02*
X107352400Y-9316872D01*
X103503128Y-5467600D02*
X87353128Y-5467600D01*
X87353128Y-5467600D02*
X84850000Y-2964472D01*
X84850000Y-2964472D02*
X84850000Y-1556480D01*
X87750000Y-1568560D02*
X87750000Y-2210000D01*
X87885670Y-1432890D02*
X87750000Y-1568560D01*
X88208250Y-1432890D02*
X87885670Y-1432890D01*
X88545000Y-1769640D02*
X88208250Y-1432890D01*
X110700000Y-23418600D02*
X110700000Y-21718600D01*
X111047600Y-21371000D02*
X111047600Y-10573128D01*
X111047600Y-10573128D02*
X105126872Y-4652400D01*
X110700000Y-21718600D02*
X111047600Y-21371000D01*
X105126872Y-4652400D02*
X90036872Y-4652400D01*
X90036872Y-4652400D02*
X88545000Y-3160528D01*
X88545000Y-3160528D02*
X88545000Y-1769640D01*
X88850000Y-1556480D02*
X88750000Y-1456480D01*
X88750000Y-1456480D02*
X88750000Y-210000D01*
X111352400Y-21371000D02*
X111352400Y-10446872D01*
X111700000Y-21718600D02*
X111352400Y-21371000D01*
X111352400Y-10446872D02*
X105253128Y-4347600D01*
X111700000Y-23418600D02*
X111700000Y-21718600D01*
X105253128Y-4347600D02*
X90163128Y-4347600D01*
X88850000Y-3034472D02*
X88850000Y-1556480D01*
X90163128Y-4347600D02*
X88850000Y-3034472D01*
X91750000Y-1568560D02*
X91750000Y-2210000D01*
X91885670Y-1432890D02*
X91750000Y-1568560D01*
X92208250Y-1432890D02*
X91885670Y-1432890D01*
X92545000Y-1769640D02*
X92208250Y-1432890D01*
X115047600Y-21371000D02*
X115047600Y-12973128D01*
X114700000Y-23418600D02*
X114700000Y-21718600D01*
X114700000Y-21718600D02*
X115047600Y-21371000D01*
X115047600Y-12973128D02*
X105606872Y-3532400D01*
X105606872Y-3532400D02*
X93095072Y-3532400D01*
X93095072Y-3532400D02*
X92545000Y-2982328D01*
X92545000Y-1769640D02*
X92545000Y-2982328D01*
X92850000Y-1556480D02*
X92750000Y-1456480D01*
X92750000Y-1456480D02*
X92750000Y-210000D01*
X93221608Y-3227600D02*
X92850000Y-2855992D01*
X115700000Y-21718600D02*
X115352400Y-21371000D01*
X105733128Y-3227600D02*
X93221608Y-3227600D01*
X115352400Y-12846872D02*
X105733128Y-3227600D01*
X115700000Y-23418600D02*
X115700000Y-21718600D01*
X115352400Y-21371000D02*
X115352400Y-12846872D01*
X92850000Y-1556480D02*
X92850000Y-2855992D01*
D25*
X83790340Y-15311380D02*
X83787840Y-15308880D01*
X85101020Y-15311380D02*
X83790340Y-15311380D01*
X64717520Y-8199380D02*
X61750000Y-5231860D01*
X77626500Y-15180000D02*
X70645880Y-8199380D01*
X84780000Y-20667260D02*
X84435540Y-20322800D01*
X84780000Y-23418600D02*
X84780000Y-20667260D01*
X84435540Y-20322800D02*
X84435540Y-18805540D01*
X70645880Y-8199380D02*
X64717520Y-8199380D01*
X80810000Y-15180000D02*
X77626500Y-15180000D01*
X84435540Y-18805540D02*
X80810000Y-15180000D01*
X61750000Y-5231860D02*
X61750000Y-2210000D01*
X44750000Y-210000D02*
X43449860Y1090140D01*
X32050140Y1090140D02*
X30750000Y-210000D01*
X43449860Y1090140D02*
X32050140Y1090140D01*
X51780000Y-23418600D02*
X51780000Y-19879540D01*
X51780000Y-19879540D02*
X50838960Y-18938500D01*
X50838960Y-18938500D02*
X40206520Y-18938500D01*
X40206520Y-18938500D02*
X26790240Y-5522220D01*
X25874999Y210001D02*
X26608278Y943280D01*
X26790240Y-1726720D02*
X25874999Y-811479D01*
X25874999Y-811479D02*
X25874999Y210001D01*
X29596720Y943280D02*
X30750000Y-210000D01*
X26608278Y943280D02*
X29596720Y943280D01*
X26790240Y-5522220D02*
X26790240Y-1726720D01*
X117780000Y-10172300D02*
X113142620Y-5534920D01*
X117780000Y-23418600D02*
X117780000Y-10172300D01*
X95527817Y-210000D02*
X94750000Y-210000D01*
X112702980Y-1012980D02*
X96330797Y-1012980D01*
X96330797Y-1012980D02*
X95527817Y-210000D01*
X118780000Y-23418600D02*
X118780000Y-7090000D01*
X118780000Y-7090000D02*
X112702980Y-1012980D01*
D28*
G36*
X19076169Y4842999D02*
G01*
X18981232Y4700915D01*
X18915838Y4543040D01*
X18882500Y4375441D01*
X18882500Y4204559D01*
X18915838Y4036960D01*
X18981232Y3879085D01*
X19076169Y3737001D01*
X19197001Y3616169D01*
X19339085Y3521232D01*
X19496960Y3455838D01*
X19664559Y3422500D01*
X19835441Y3422500D01*
X20003040Y3455838D01*
X20160915Y3521232D01*
X20302999Y3616169D01*
X20423831Y3737001D01*
X20518768Y3879085D01*
X20584162Y4036960D01*
X20617500Y4204559D01*
X20617500Y4260681D01*
X20878797Y4260681D01*
X20901257Y4091282D01*
X20956333Y3929518D01*
X21009332Y3830363D01*
X21146645Y3776447D01*
X21660197Y4290000D01*
X21146645Y4803553D01*
X21009332Y4749637D01*
X20933893Y4596308D01*
X20889817Y4431208D01*
X20878797Y4260681D01*
X20617500Y4260681D01*
X20617500Y4375441D01*
X20584162Y4543040D01*
X20518768Y4700915D01*
X20423831Y4842999D01*
X20344330Y4922500D01*
X21247891Y4922500D01*
X21236447Y4893355D01*
X21750000Y4379803D01*
X22263553Y4893355D01*
X22252109Y4922500D01*
X22952300Y4922500D01*
X22952300Y4874902D01*
X22590456Y4513058D01*
X22543667Y4650482D01*
X22490668Y4749637D01*
X22353355Y4803553D01*
X21839803Y4290000D01*
X21853945Y4275858D01*
X21764142Y4186055D01*
X21750000Y4200197D01*
X21236447Y3686645D01*
X21290363Y3549332D01*
X21443692Y3473893D01*
X21608792Y3429817D01*
X21669600Y3425887D01*
X21669600Y3288189D01*
X21460981Y3079570D01*
X21444091Y3065709D01*
X21417967Y3033875D01*
X21388795Y2998329D01*
X21349615Y2925030D01*
X21348809Y2923522D01*
X21321263Y2951068D01*
X21263552Y2893357D01*
X21209637Y3030668D01*
X21056308Y3106107D01*
X20891208Y3150183D01*
X20720681Y3161203D01*
X20551282Y3138743D01*
X20389518Y3083667D01*
X20290363Y3030668D01*
X20236447Y2893355D01*
X20750000Y2379803D01*
X20764142Y2393945D01*
X20853945Y2304142D01*
X20839803Y2290000D01*
X20853945Y2275858D01*
X20764142Y2186055D01*
X20750000Y2200197D01*
X20236447Y1686645D01*
X20290363Y1549332D01*
X20443692Y1473893D01*
X20608792Y1429817D01*
X20779319Y1418797D01*
X20948718Y1441257D01*
X21110482Y1496333D01*
X21209637Y1549332D01*
X21263552Y1686643D01*
X21316000Y1634195D01*
X21316001Y450829D01*
X21302999Y463831D01*
X21160915Y558768D01*
X21003040Y624162D01*
X20835441Y657500D01*
X20664559Y657500D01*
X20496960Y624162D01*
X20339085Y558768D01*
X20197001Y463831D01*
X20076169Y342999D01*
X19981232Y200915D01*
X19915838Y43040D01*
X19882500Y-124559D01*
X19882500Y-295441D01*
X19915838Y-463040D01*
X19981232Y-620915D01*
X20076169Y-762999D01*
X20197001Y-883831D01*
X20339085Y-978768D01*
X20496960Y-1044162D01*
X20664559Y-1077500D01*
X20666300Y-1077500D01*
X20666300Y-1156811D01*
X20483081Y-1340030D01*
X20466191Y-1353891D01*
X20434489Y-1392521D01*
X20410895Y-1421271D01*
X20385206Y-1469332D01*
X20369805Y-1498144D01*
X20346687Y-1574356D01*
X20321263Y-1548932D01*
X20263552Y-1606643D01*
X20209637Y-1469332D01*
X20056308Y-1393893D01*
X19891208Y-1349817D01*
X19720681Y-1338797D01*
X19551282Y-1361257D01*
X19389518Y-1416333D01*
X19290363Y-1469332D01*
X19236447Y-1606645D01*
X19750000Y-2120197D01*
X19764142Y-2106055D01*
X19853945Y-2195858D01*
X19839803Y-2210000D01*
X19853945Y-2224142D01*
X19764142Y-2313945D01*
X19750000Y-2299803D01*
X19236447Y-2813355D01*
X19290363Y-2950668D01*
X19443692Y-3026107D01*
X19608792Y-3070183D01*
X19779319Y-3081203D01*
X19948718Y-3058743D01*
X20110482Y-3003667D01*
X20209637Y-2950668D01*
X20263552Y-2813357D01*
X20321263Y-2871068D01*
X20338100Y-2854231D01*
X20338101Y-8585097D01*
X19877998Y-9045200D01*
X16411800Y-9045200D01*
X16399412Y-9046420D01*
X16387500Y-9050034D01*
X16376521Y-9055902D01*
X16366899Y-9063799D01*
X15833499Y-9597199D01*
X15825602Y-9606821D01*
X15819734Y-9617800D01*
X15816120Y-9629712D01*
X15814900Y-9642100D01*
X15814900Y-12981298D01*
X14264598Y-14531600D01*
X12271600Y-14531600D01*
X12259212Y-14532820D01*
X12247300Y-14536434D01*
X12236321Y-14542302D01*
X12226699Y-14550199D01*
X10067699Y-16709199D01*
X10059802Y-16718821D01*
X10053934Y-16729800D01*
X10050320Y-16741712D01*
X10049100Y-16754100D01*
X10049100Y-21004400D01*
X10000000Y-20999564D01*
X9742875Y-21001100D01*
X9663500Y-21080475D01*
X9663500Y-23355100D01*
X9683500Y-23355100D01*
X9683500Y-23482100D01*
X9663500Y-23482100D01*
X9663500Y-23502100D01*
X9536500Y-23502100D01*
X9536500Y-23482100D01*
X9516500Y-23482100D01*
X9516500Y-23355100D01*
X9536500Y-23355100D01*
X9536500Y-21080475D01*
X9457125Y-21001100D01*
X9200000Y-20999564D01*
X9169895Y-21002529D01*
X9170484Y-20725535D01*
X9193770Y-20669318D01*
X9217500Y-20550018D01*
X9217500Y-20428382D01*
X9193770Y-20309082D01*
X9171485Y-20255280D01*
X9172800Y-19637135D01*
X9171606Y-19624744D01*
X9168018Y-19612824D01*
X9162173Y-19601834D01*
X9154201Y-19592099D01*
X8233000Y-18670898D01*
X8233000Y-15535802D01*
X8836701Y-14932101D01*
X8844598Y-14922479D01*
X8850466Y-14911500D01*
X8854080Y-14899588D01*
X8855300Y-14887200D01*
X8855300Y-14607111D01*
X8859597Y-14592945D01*
X8866000Y-14527937D01*
X8866000Y-14527934D01*
X8868141Y-14506200D01*
X8866000Y-14484466D01*
X8866000Y-11384902D01*
X9834102Y-10416800D01*
X12170000Y-10416800D01*
X12182388Y-10415580D01*
X12194300Y-10411966D01*
X12205279Y-10406098D01*
X12214901Y-10398201D01*
X12710201Y-9902901D01*
X12718098Y-9893279D01*
X12723966Y-9882300D01*
X12727580Y-9870388D01*
X12728800Y-9858000D01*
X12728800Y-9746575D01*
X12777210Y-9772451D01*
X12837059Y-9790606D01*
X12899300Y-9796736D01*
X13056425Y-9795200D01*
X13135800Y-9715825D01*
X13135800Y-9291200D01*
X13262800Y-9291200D01*
X13262800Y-9715825D01*
X13342175Y-9795200D01*
X13499300Y-9796736D01*
X13561541Y-9790606D01*
X13621390Y-9772451D01*
X13676547Y-9742969D01*
X13724893Y-9703293D01*
X13764569Y-9654947D01*
X13794051Y-9599790D01*
X13812206Y-9539941D01*
X13818336Y-9477700D01*
X13816800Y-9370575D01*
X13737425Y-9291200D01*
X13262800Y-9291200D01*
X13135800Y-9291200D01*
X13115800Y-9291200D01*
X13115800Y-9164200D01*
X13135800Y-9164200D01*
X13135800Y-8739575D01*
X13262800Y-8739575D01*
X13262800Y-9164200D01*
X13737425Y-9164200D01*
X13816800Y-9084825D01*
X13818336Y-8977700D01*
X13812206Y-8915459D01*
X13794051Y-8855610D01*
X13764569Y-8800453D01*
X13724893Y-8752107D01*
X13676547Y-8712431D01*
X13621390Y-8682949D01*
X13561541Y-8664794D01*
X13499300Y-8658664D01*
X13342175Y-8660200D01*
X13262800Y-8739575D01*
X13135800Y-8739575D01*
X13056425Y-8660200D01*
X12899300Y-8658664D01*
X12837059Y-8664794D01*
X12777210Y-8682949D01*
X12728800Y-8708825D01*
X12728800Y-8515400D01*
X16630564Y-8515400D01*
X16636694Y-8577641D01*
X16654849Y-8637490D01*
X16684331Y-8692647D01*
X16724007Y-8740993D01*
X16772353Y-8780669D01*
X16827510Y-8810151D01*
X16887359Y-8828306D01*
X16949600Y-8834436D01*
X17606725Y-8832900D01*
X17686100Y-8753525D01*
X17686100Y-7178900D01*
X17813100Y-7178900D01*
X17813100Y-8753525D01*
X17892475Y-8832900D01*
X18549600Y-8834436D01*
X18611841Y-8828306D01*
X18671690Y-8810151D01*
X18726847Y-8780669D01*
X18775193Y-8740993D01*
X18814869Y-8692647D01*
X18844351Y-8637490D01*
X18862506Y-8577641D01*
X18868636Y-8515400D01*
X18867100Y-7258275D01*
X18787725Y-7178900D01*
X17813100Y-7178900D01*
X17686100Y-7178900D01*
X16711475Y-7178900D01*
X16632100Y-7258275D01*
X16630564Y-8515400D01*
X12728800Y-8515400D01*
X12728800Y-8131860D01*
X12734031Y-8141647D01*
X12773707Y-8189993D01*
X12822053Y-8229669D01*
X12877210Y-8259151D01*
X12937059Y-8277306D01*
X12999300Y-8283436D01*
X13256425Y-8281900D01*
X13335800Y-8202525D01*
X13335800Y-7652900D01*
X13462800Y-7652900D01*
X13462800Y-8202525D01*
X13542175Y-8281900D01*
X13799300Y-8283436D01*
X13861541Y-8277306D01*
X13921390Y-8259151D01*
X13976547Y-8229669D01*
X14024893Y-8189993D01*
X14064569Y-8141647D01*
X14094051Y-8086490D01*
X14112206Y-8026641D01*
X14118336Y-7964400D01*
X14116800Y-7732275D01*
X14037425Y-7652900D01*
X13462800Y-7652900D01*
X13335800Y-7652900D01*
X13315800Y-7652900D01*
X13315800Y-7525900D01*
X13335800Y-7525900D01*
X13335800Y-6976275D01*
X13462800Y-6976275D01*
X13462800Y-7525900D01*
X14037425Y-7525900D01*
X14116800Y-7446525D01*
X14118336Y-7214400D01*
X14112206Y-7152159D01*
X14094051Y-7092310D01*
X14064569Y-7037153D01*
X14024893Y-6988807D01*
X13976547Y-6949131D01*
X13921390Y-6919649D01*
X13861541Y-6901494D01*
X13799300Y-6895364D01*
X13542175Y-6896900D01*
X13462800Y-6976275D01*
X13335800Y-6976275D01*
X13256425Y-6896900D01*
X12999300Y-6895364D01*
X12937059Y-6901494D01*
X12877210Y-6919649D01*
X12822053Y-6949131D01*
X12773707Y-6988807D01*
X12734031Y-7037153D01*
X12728800Y-7046940D01*
X12728800Y-6417360D01*
X12734031Y-6427147D01*
X12773707Y-6475493D01*
X12822053Y-6515169D01*
X12877210Y-6544651D01*
X12937059Y-6562806D01*
X12999300Y-6568936D01*
X13256425Y-6567400D01*
X13335800Y-6488025D01*
X13335800Y-5938400D01*
X13462800Y-5938400D01*
X13462800Y-6488025D01*
X13542175Y-6567400D01*
X13799300Y-6568936D01*
X13861541Y-6562806D01*
X13921390Y-6544651D01*
X13976547Y-6515169D01*
X14024893Y-6475493D01*
X14064569Y-6427147D01*
X14094051Y-6371990D01*
X14112206Y-6312141D01*
X14118336Y-6249900D01*
X14116800Y-6017775D01*
X14037425Y-5938400D01*
X13462800Y-5938400D01*
X13335800Y-5938400D01*
X13315800Y-5938400D01*
X13315800Y-5811400D01*
X13335800Y-5811400D01*
X13335800Y-5261775D01*
X13462800Y-5261775D01*
X13462800Y-5811400D01*
X14037425Y-5811400D01*
X14116800Y-5732025D01*
X14116910Y-5715400D01*
X16630564Y-5715400D01*
X16632100Y-6972525D01*
X16711475Y-7051900D01*
X17686100Y-7051900D01*
X17686100Y-5477275D01*
X17813100Y-5477275D01*
X17813100Y-7051900D01*
X18787725Y-7051900D01*
X18867100Y-6972525D01*
X18868636Y-5715400D01*
X18862506Y-5653159D01*
X18844351Y-5593310D01*
X18814869Y-5538153D01*
X18775193Y-5489807D01*
X18726847Y-5450131D01*
X18671690Y-5420649D01*
X18611841Y-5402494D01*
X18549600Y-5396364D01*
X17892475Y-5397900D01*
X17813100Y-5477275D01*
X17686100Y-5477275D01*
X17606725Y-5397900D01*
X16949600Y-5396364D01*
X16887359Y-5402494D01*
X16827510Y-5420649D01*
X16772353Y-5450131D01*
X16724007Y-5489807D01*
X16684331Y-5538153D01*
X16654849Y-5593310D01*
X16636694Y-5653159D01*
X16630564Y-5715400D01*
X14116910Y-5715400D01*
X14118336Y-5499900D01*
X14112206Y-5437659D01*
X14094051Y-5377810D01*
X14064569Y-5322653D01*
X14024893Y-5274307D01*
X13976547Y-5234631D01*
X13921390Y-5205149D01*
X13861541Y-5186994D01*
X13799300Y-5180864D01*
X13542175Y-5182400D01*
X13462800Y-5261775D01*
X13335800Y-5261775D01*
X13256425Y-5182400D01*
X12999300Y-5180864D01*
X12937059Y-5186994D01*
X12877210Y-5205149D01*
X12822053Y-5234631D01*
X12773707Y-5274307D01*
X12734031Y-5322653D01*
X12728800Y-5332440D01*
X12728800Y-4880502D01*
X12812552Y-4796750D01*
X16784016Y-4796750D01*
X16805750Y-4798891D01*
X16827484Y-4796750D01*
X16827487Y-4796750D01*
X16892495Y-4790347D01*
X16975907Y-4765045D01*
X17052779Y-4723955D01*
X17120159Y-4668659D01*
X17134019Y-4651770D01*
X18047526Y-3738264D01*
X18064409Y-3724409D01*
X18078551Y-3707177D01*
X18119705Y-3657030D01*
X18134018Y-3630253D01*
X18160795Y-3580157D01*
X18186097Y-3496745D01*
X18189914Y-3457988D01*
X18234701Y-3413201D01*
X18242598Y-3403579D01*
X18248466Y-3392600D01*
X18252080Y-3380688D01*
X18253300Y-3368300D01*
X18253300Y-2917039D01*
X18302999Y-2883831D01*
X18423831Y-2762999D01*
X18518768Y-2620915D01*
X18584162Y-2463040D01*
X18617500Y-2295441D01*
X18617500Y-2239319D01*
X18878797Y-2239319D01*
X18901257Y-2408718D01*
X18956333Y-2570482D01*
X19009332Y-2669637D01*
X19146645Y-2723553D01*
X19660197Y-2210000D01*
X19146645Y-1696447D01*
X19009332Y-1750363D01*
X18933893Y-1903692D01*
X18889817Y-2068792D01*
X18878797Y-2239319D01*
X18617500Y-2239319D01*
X18617500Y-2124559D01*
X18584162Y-1956960D01*
X18518768Y-1799085D01*
X18423831Y-1657001D01*
X18302999Y-1536169D01*
X18253300Y-1502961D01*
X18253300Y-921449D01*
X18339085Y-978768D01*
X18496960Y-1044162D01*
X18664559Y-1077500D01*
X18835441Y-1077500D01*
X19003040Y-1044162D01*
X19160915Y-978768D01*
X19302999Y-883831D01*
X19423831Y-762999D01*
X19518768Y-620915D01*
X19584162Y-463040D01*
X19617500Y-295441D01*
X19617500Y-124559D01*
X19584162Y43040D01*
X19518768Y200915D01*
X19423831Y342999D01*
X19302999Y463831D01*
X19160915Y558768D01*
X19003040Y624162D01*
X18835441Y657500D01*
X18664559Y657500D01*
X18496960Y624162D01*
X18339085Y558768D01*
X18322154Y547455D01*
X18327319Y552620D01*
X18405841Y670136D01*
X18459927Y800713D01*
X18487500Y939332D01*
X18487500Y1080668D01*
X18459927Y1219287D01*
X18405841Y1349864D01*
X18327319Y1467380D01*
X18227380Y1567319D01*
X18109864Y1645841D01*
X17979287Y1699927D01*
X17840668Y1727500D01*
X17699332Y1727500D01*
X17560713Y1699927D01*
X17430136Y1645841D01*
X17312620Y1567319D01*
X17212681Y1467380D01*
X17134159Y1349864D01*
X17084900Y1230941D01*
X17084900Y1489746D01*
X17160915Y1521232D01*
X17302999Y1616169D01*
X17423831Y1737001D01*
X17518768Y1879085D01*
X17584162Y2036960D01*
X17617500Y2204559D01*
X17617500Y2375441D01*
X17882500Y2375441D01*
X17882500Y2204559D01*
X17915838Y2036960D01*
X17981232Y1879085D01*
X18076169Y1737001D01*
X18197001Y1616169D01*
X18339085Y1521232D01*
X18496960Y1455838D01*
X18664559Y1422500D01*
X18835441Y1422500D01*
X19003040Y1455838D01*
X19160915Y1521232D01*
X19302999Y1616169D01*
X19423831Y1737001D01*
X19518768Y1879085D01*
X19584162Y2036960D01*
X19617500Y2204559D01*
X19617500Y2260681D01*
X19878797Y2260681D01*
X19901257Y2091282D01*
X19956333Y1929518D01*
X20009332Y1830363D01*
X20146645Y1776447D01*
X20660197Y2290000D01*
X20146645Y2803553D01*
X20009332Y2749637D01*
X19933893Y2596308D01*
X19889817Y2431208D01*
X19878797Y2260681D01*
X19617500Y2260681D01*
X19617500Y2375441D01*
X19584162Y2543040D01*
X19518768Y2700915D01*
X19423831Y2842999D01*
X19302999Y2963831D01*
X19160915Y3058768D01*
X19003040Y3124162D01*
X18835441Y3157500D01*
X18664559Y3157500D01*
X18496960Y3124162D01*
X18339085Y3058768D01*
X18197001Y2963831D01*
X18076169Y2842999D01*
X17981232Y2700915D01*
X17915838Y2543040D01*
X17882500Y2375441D01*
X17617500Y2375441D01*
X17584162Y2543040D01*
X17518768Y2700915D01*
X17423831Y2842999D01*
X17302999Y2963831D01*
X17160915Y3058768D01*
X17084900Y3090254D01*
X17084900Y3728270D01*
X17197001Y3616169D01*
X17339085Y3521232D01*
X17496960Y3455838D01*
X17664559Y3422500D01*
X17835441Y3422500D01*
X18003040Y3455838D01*
X18160915Y3521232D01*
X18302999Y3616169D01*
X18423831Y3737001D01*
X18518768Y3879085D01*
X18584162Y4036960D01*
X18617500Y4204559D01*
X18617500Y4375441D01*
X18584162Y4543040D01*
X18518768Y4700915D01*
X18423831Y4842999D01*
X18344330Y4922500D01*
X19155670Y4922500D01*
X19076169Y4842999D01*
G37*
X19076169Y4842999D02*
X18981232Y4700915D01*
X18915838Y4543040D01*
X18882500Y4375441D01*
X18882500Y4204559D01*
X18915838Y4036960D01*
X18981232Y3879085D01*
X19076169Y3737001D01*
X19197001Y3616169D01*
X19339085Y3521232D01*
X19496960Y3455838D01*
X19664559Y3422500D01*
X19835441Y3422500D01*
X20003040Y3455838D01*
X20160915Y3521232D01*
X20302999Y3616169D01*
X20423831Y3737001D01*
X20518768Y3879085D01*
X20584162Y4036960D01*
X20617500Y4204559D01*
X20617500Y4260681D01*
X20878797Y4260681D01*
X20901257Y4091282D01*
X20956333Y3929518D01*
X21009332Y3830363D01*
X21146645Y3776447D01*
X21660197Y4290000D01*
X21146645Y4803553D01*
X21009332Y4749637D01*
X20933893Y4596308D01*
X20889817Y4431208D01*
X20878797Y4260681D01*
X20617500Y4260681D01*
X20617500Y4375441D01*
X20584162Y4543040D01*
X20518768Y4700915D01*
X20423831Y4842999D01*
X20344330Y4922500D01*
X21247891Y4922500D01*
X21236447Y4893355D01*
X21750000Y4379803D01*
X22263553Y4893355D01*
X22252109Y4922500D01*
X22952300Y4922500D01*
X22952300Y4874902D01*
X22590456Y4513058D01*
X22543667Y4650482D01*
X22490668Y4749637D01*
X22353355Y4803553D01*
X21839803Y4290000D01*
X21853945Y4275858D01*
X21764142Y4186055D01*
X21750000Y4200197D01*
X21236447Y3686645D01*
X21290363Y3549332D01*
X21443692Y3473893D01*
X21608792Y3429817D01*
X21669600Y3425887D01*
X21669600Y3288189D01*
X21460981Y3079570D01*
X21444091Y3065709D01*
X21417967Y3033875D01*
X21388795Y2998329D01*
X21349615Y2925030D01*
X21348809Y2923522D01*
X21321263Y2951068D01*
X21263552Y2893357D01*
X21209637Y3030668D01*
X21056308Y3106107D01*
X20891208Y3150183D01*
X20720681Y3161203D01*
X20551282Y3138743D01*
X20389518Y3083667D01*
X20290363Y3030668D01*
X20236447Y2893355D01*
X20750000Y2379803D01*
X20764142Y2393945D01*
X20853945Y2304142D01*
X20839803Y2290000D01*
X20853945Y2275858D01*
X20764142Y2186055D01*
X20750000Y2200197D01*
X20236447Y1686645D01*
X20290363Y1549332D01*
X20443692Y1473893D01*
X20608792Y1429817D01*
X20779319Y1418797D01*
X20948718Y1441257D01*
X21110482Y1496333D01*
X21209637Y1549332D01*
X21263552Y1686643D01*
X21316000Y1634195D01*
X21316001Y450829D01*
X21302999Y463831D01*
X21160915Y558768D01*
X21003040Y624162D01*
X20835441Y657500D01*
X20664559Y657500D01*
X20496960Y624162D01*
X20339085Y558768D01*
X20197001Y463831D01*
X20076169Y342999D01*
X19981232Y200915D01*
X19915838Y43040D01*
X19882500Y-124559D01*
X19882500Y-295441D01*
X19915838Y-463040D01*
X19981232Y-620915D01*
X20076169Y-762999D01*
X20197001Y-883831D01*
X20339085Y-978768D01*
X20496960Y-1044162D01*
X20664559Y-1077500D01*
X20666300Y-1077500D01*
X20666300Y-1156811D01*
X20483081Y-1340030D01*
X20466191Y-1353891D01*
X20434489Y-1392521D01*
X20410895Y-1421271D01*
X20385206Y-1469332D01*
X20369805Y-1498144D01*
X20346687Y-1574356D01*
X20321263Y-1548932D01*
X20263552Y-1606643D01*
X20209637Y-1469332D01*
X20056308Y-1393893D01*
X19891208Y-1349817D01*
X19720681Y-1338797D01*
X19551282Y-1361257D01*
X19389518Y-1416333D01*
X19290363Y-1469332D01*
X19236447Y-1606645D01*
X19750000Y-2120197D01*
X19764142Y-2106055D01*
X19853945Y-2195858D01*
X19839803Y-2210000D01*
X19853945Y-2224142D01*
X19764142Y-2313945D01*
X19750000Y-2299803D01*
X19236447Y-2813355D01*
X19290363Y-2950668D01*
X19443692Y-3026107D01*
X19608792Y-3070183D01*
X19779319Y-3081203D01*
X19948718Y-3058743D01*
X20110482Y-3003667D01*
X20209637Y-2950668D01*
X20263552Y-2813357D01*
X20321263Y-2871068D01*
X20338100Y-2854231D01*
X20338101Y-8585097D01*
X19877998Y-9045200D01*
X16411800Y-9045200D01*
X16399412Y-9046420D01*
X16387500Y-9050034D01*
X16376521Y-9055902D01*
X16366899Y-9063799D01*
X15833499Y-9597199D01*
X15825602Y-9606821D01*
X15819734Y-9617800D01*
X15816120Y-9629712D01*
X15814900Y-9642100D01*
X15814900Y-12981298D01*
X14264598Y-14531600D01*
X12271600Y-14531600D01*
X12259212Y-14532820D01*
X12247300Y-14536434D01*
X12236321Y-14542302D01*
X12226699Y-14550199D01*
X10067699Y-16709199D01*
X10059802Y-16718821D01*
X10053934Y-16729800D01*
X10050320Y-16741712D01*
X10049100Y-16754100D01*
X10049100Y-21004400D01*
X10000000Y-20999564D01*
X9742875Y-21001100D01*
X9663500Y-21080475D01*
X9663500Y-23355100D01*
X9683500Y-23355100D01*
X9683500Y-23482100D01*
X9663500Y-23482100D01*
X9663500Y-23502100D01*
X9536500Y-23502100D01*
X9536500Y-23482100D01*
X9516500Y-23482100D01*
X9516500Y-23355100D01*
X9536500Y-23355100D01*
X9536500Y-21080475D01*
X9457125Y-21001100D01*
X9200000Y-20999564D01*
X9169895Y-21002529D01*
X9170484Y-20725535D01*
X9193770Y-20669318D01*
X9217500Y-20550018D01*
X9217500Y-20428382D01*
X9193770Y-20309082D01*
X9171485Y-20255280D01*
X9172800Y-19637135D01*
X9171606Y-19624744D01*
X9168018Y-19612824D01*
X9162173Y-19601834D01*
X9154201Y-19592099D01*
X8233000Y-18670898D01*
X8233000Y-15535802D01*
X8836701Y-14932101D01*
X8844598Y-14922479D01*
X8850466Y-14911500D01*
X8854080Y-14899588D01*
X8855300Y-14887200D01*
X8855300Y-14607111D01*
X8859597Y-14592945D01*
X8866000Y-14527937D01*
X8866000Y-14527934D01*
X8868141Y-14506200D01*
X8866000Y-14484466D01*
X8866000Y-11384902D01*
X9834102Y-10416800D01*
X12170000Y-10416800D01*
X12182388Y-10415580D01*
X12194300Y-10411966D01*
X12205279Y-10406098D01*
X12214901Y-10398201D01*
X12710201Y-9902901D01*
X12718098Y-9893279D01*
X12723966Y-9882300D01*
X12727580Y-9870388D01*
X12728800Y-9858000D01*
X12728800Y-9746575D01*
X12777210Y-9772451D01*
X12837059Y-9790606D01*
X12899300Y-9796736D01*
X13056425Y-9795200D01*
X13135800Y-9715825D01*
X13135800Y-9291200D01*
X13262800Y-9291200D01*
X13262800Y-9715825D01*
X13342175Y-9795200D01*
X13499300Y-9796736D01*
X13561541Y-9790606D01*
X13621390Y-9772451D01*
X13676547Y-9742969D01*
X13724893Y-9703293D01*
X13764569Y-9654947D01*
X13794051Y-9599790D01*
X13812206Y-9539941D01*
X13818336Y-9477700D01*
X13816800Y-9370575D01*
X13737425Y-9291200D01*
X13262800Y-9291200D01*
X13135800Y-9291200D01*
X13115800Y-9291200D01*
X13115800Y-9164200D01*
X13135800Y-9164200D01*
X13135800Y-8739575D01*
X13262800Y-8739575D01*
X13262800Y-9164200D01*
X13737425Y-9164200D01*
X13816800Y-9084825D01*
X13818336Y-8977700D01*
X13812206Y-8915459D01*
X13794051Y-8855610D01*
X13764569Y-8800453D01*
X13724893Y-8752107D01*
X13676547Y-8712431D01*
X13621390Y-8682949D01*
X13561541Y-8664794D01*
X13499300Y-8658664D01*
X13342175Y-8660200D01*
X13262800Y-8739575D01*
X13135800Y-8739575D01*
X13056425Y-8660200D01*
X12899300Y-8658664D01*
X12837059Y-8664794D01*
X12777210Y-8682949D01*
X12728800Y-8708825D01*
X12728800Y-8515400D01*
X16630564Y-8515400D01*
X16636694Y-8577641D01*
X16654849Y-8637490D01*
X16684331Y-8692647D01*
X16724007Y-8740993D01*
X16772353Y-8780669D01*
X16827510Y-8810151D01*
X16887359Y-8828306D01*
X16949600Y-8834436D01*
X17606725Y-8832900D01*
X17686100Y-8753525D01*
X17686100Y-7178900D01*
X17813100Y-7178900D01*
X17813100Y-8753525D01*
X17892475Y-8832900D01*
X18549600Y-8834436D01*
X18611841Y-8828306D01*
X18671690Y-8810151D01*
X18726847Y-8780669D01*
X18775193Y-8740993D01*
X18814869Y-8692647D01*
X18844351Y-8637490D01*
X18862506Y-8577641D01*
X18868636Y-8515400D01*
X18867100Y-7258275D01*
X18787725Y-7178900D01*
X17813100Y-7178900D01*
X17686100Y-7178900D01*
X16711475Y-7178900D01*
X16632100Y-7258275D01*
X16630564Y-8515400D01*
X12728800Y-8515400D01*
X12728800Y-8131860D01*
X12734031Y-8141647D01*
X12773707Y-8189993D01*
X12822053Y-8229669D01*
X12877210Y-8259151D01*
X12937059Y-8277306D01*
X12999300Y-8283436D01*
X13256425Y-8281900D01*
X13335800Y-8202525D01*
X13335800Y-7652900D01*
X13462800Y-7652900D01*
X13462800Y-8202525D01*
X13542175Y-8281900D01*
X13799300Y-8283436D01*
X13861541Y-8277306D01*
X13921390Y-8259151D01*
X13976547Y-8229669D01*
X14024893Y-8189993D01*
X14064569Y-8141647D01*
X14094051Y-8086490D01*
X14112206Y-8026641D01*
X14118336Y-7964400D01*
X14116800Y-7732275D01*
X14037425Y-7652900D01*
X13462800Y-7652900D01*
X13335800Y-7652900D01*
X13315800Y-7652900D01*
X13315800Y-7525900D01*
X13335800Y-7525900D01*
X13335800Y-6976275D01*
X13462800Y-6976275D01*
X13462800Y-7525900D01*
X14037425Y-7525900D01*
X14116800Y-7446525D01*
X14118336Y-7214400D01*
X14112206Y-7152159D01*
X14094051Y-7092310D01*
X14064569Y-7037153D01*
X14024893Y-6988807D01*
X13976547Y-6949131D01*
X13921390Y-6919649D01*
X13861541Y-6901494D01*
X13799300Y-6895364D01*
X13542175Y-6896900D01*
X13462800Y-6976275D01*
X13335800Y-6976275D01*
X13256425Y-6896900D01*
X12999300Y-6895364D01*
X12937059Y-6901494D01*
X12877210Y-6919649D01*
X12822053Y-6949131D01*
X12773707Y-6988807D01*
X12734031Y-7037153D01*
X12728800Y-7046940D01*
X12728800Y-6417360D01*
X12734031Y-6427147D01*
X12773707Y-6475493D01*
X12822053Y-6515169D01*
X12877210Y-6544651D01*
X12937059Y-6562806D01*
X12999300Y-6568936D01*
X13256425Y-6567400D01*
X13335800Y-6488025D01*
X13335800Y-5938400D01*
X13462800Y-5938400D01*
X13462800Y-6488025D01*
X13542175Y-6567400D01*
X13799300Y-6568936D01*
X13861541Y-6562806D01*
X13921390Y-6544651D01*
X13976547Y-6515169D01*
X14024893Y-6475493D01*
X14064569Y-6427147D01*
X14094051Y-6371990D01*
X14112206Y-6312141D01*
X14118336Y-6249900D01*
X14116800Y-6017775D01*
X14037425Y-5938400D01*
X13462800Y-5938400D01*
X13335800Y-5938400D01*
X13315800Y-5938400D01*
X13315800Y-5811400D01*
X13335800Y-5811400D01*
X13335800Y-5261775D01*
X13462800Y-5261775D01*
X13462800Y-5811400D01*
X14037425Y-5811400D01*
X14116800Y-5732025D01*
X14116910Y-5715400D01*
X16630564Y-5715400D01*
X16632100Y-6972525D01*
X16711475Y-7051900D01*
X17686100Y-7051900D01*
X17686100Y-5477275D01*
X17813100Y-5477275D01*
X17813100Y-7051900D01*
X18787725Y-7051900D01*
X18867100Y-6972525D01*
X18868636Y-5715400D01*
X18862506Y-5653159D01*
X18844351Y-5593310D01*
X18814869Y-5538153D01*
X18775193Y-5489807D01*
X18726847Y-5450131D01*
X18671690Y-5420649D01*
X18611841Y-5402494D01*
X18549600Y-5396364D01*
X17892475Y-5397900D01*
X17813100Y-5477275D01*
X17686100Y-5477275D01*
X17606725Y-5397900D01*
X16949600Y-5396364D01*
X16887359Y-5402494D01*
X16827510Y-5420649D01*
X16772353Y-5450131D01*
X16724007Y-5489807D01*
X16684331Y-5538153D01*
X16654849Y-5593310D01*
X16636694Y-5653159D01*
X16630564Y-5715400D01*
X14116910Y-5715400D01*
X14118336Y-5499900D01*
X14112206Y-5437659D01*
X14094051Y-5377810D01*
X14064569Y-5322653D01*
X14024893Y-5274307D01*
X13976547Y-5234631D01*
X13921390Y-5205149D01*
X13861541Y-5186994D01*
X13799300Y-5180864D01*
X13542175Y-5182400D01*
X13462800Y-5261775D01*
X13335800Y-5261775D01*
X13256425Y-5182400D01*
X12999300Y-5180864D01*
X12937059Y-5186994D01*
X12877210Y-5205149D01*
X12822053Y-5234631D01*
X12773707Y-5274307D01*
X12734031Y-5322653D01*
X12728800Y-5332440D01*
X12728800Y-4880502D01*
X12812552Y-4796750D01*
X16784016Y-4796750D01*
X16805750Y-4798891D01*
X16827484Y-4796750D01*
X16827487Y-4796750D01*
X16892495Y-4790347D01*
X16975907Y-4765045D01*
X17052779Y-4723955D01*
X17120159Y-4668659D01*
X17134019Y-4651770D01*
X18047526Y-3738264D01*
X18064409Y-3724409D01*
X18078551Y-3707177D01*
X18119705Y-3657030D01*
X18134018Y-3630253D01*
X18160795Y-3580157D01*
X18186097Y-3496745D01*
X18189914Y-3457988D01*
X18234701Y-3413201D01*
X18242598Y-3403579D01*
X18248466Y-3392600D01*
X18252080Y-3380688D01*
X18253300Y-3368300D01*
X18253300Y-2917039D01*
X18302999Y-2883831D01*
X18423831Y-2762999D01*
X18518768Y-2620915D01*
X18584162Y-2463040D01*
X18617500Y-2295441D01*
X18617500Y-2239319D01*
X18878797Y-2239319D01*
X18901257Y-2408718D01*
X18956333Y-2570482D01*
X19009332Y-2669637D01*
X19146645Y-2723553D01*
X19660197Y-2210000D01*
X19146645Y-1696447D01*
X19009332Y-1750363D01*
X18933893Y-1903692D01*
X18889817Y-2068792D01*
X18878797Y-2239319D01*
X18617500Y-2239319D01*
X18617500Y-2124559D01*
X18584162Y-1956960D01*
X18518768Y-1799085D01*
X18423831Y-1657001D01*
X18302999Y-1536169D01*
X18253300Y-1502961D01*
X18253300Y-921449D01*
X18339085Y-978768D01*
X18496960Y-1044162D01*
X18664559Y-1077500D01*
X18835441Y-1077500D01*
X19003040Y-1044162D01*
X19160915Y-978768D01*
X19302999Y-883831D01*
X19423831Y-762999D01*
X19518768Y-620915D01*
X19584162Y-463040D01*
X19617500Y-295441D01*
X19617500Y-124559D01*
X19584162Y43040D01*
X19518768Y200915D01*
X19423831Y342999D01*
X19302999Y463831D01*
X19160915Y558768D01*
X19003040Y624162D01*
X18835441Y657500D01*
X18664559Y657500D01*
X18496960Y624162D01*
X18339085Y558768D01*
X18322154Y547455D01*
X18327319Y552620D01*
X18405841Y670136D01*
X18459927Y800713D01*
X18487500Y939332D01*
X18487500Y1080668D01*
X18459927Y1219287D01*
X18405841Y1349864D01*
X18327319Y1467380D01*
X18227380Y1567319D01*
X18109864Y1645841D01*
X17979287Y1699927D01*
X17840668Y1727500D01*
X17699332Y1727500D01*
X17560713Y1699927D01*
X17430136Y1645841D01*
X17312620Y1567319D01*
X17212681Y1467380D01*
X17134159Y1349864D01*
X17084900Y1230941D01*
X17084900Y1489746D01*
X17160915Y1521232D01*
X17302999Y1616169D01*
X17423831Y1737001D01*
X17518768Y1879085D01*
X17584162Y2036960D01*
X17617500Y2204559D01*
X17617500Y2375441D01*
X17882500Y2375441D01*
X17882500Y2204559D01*
X17915838Y2036960D01*
X17981232Y1879085D01*
X18076169Y1737001D01*
X18197001Y1616169D01*
X18339085Y1521232D01*
X18496960Y1455838D01*
X18664559Y1422500D01*
X18835441Y1422500D01*
X19003040Y1455838D01*
X19160915Y1521232D01*
X19302999Y1616169D01*
X19423831Y1737001D01*
X19518768Y1879085D01*
X19584162Y2036960D01*
X19617500Y2204559D01*
X19617500Y2260681D01*
X19878797Y2260681D01*
X19901257Y2091282D01*
X19956333Y1929518D01*
X20009332Y1830363D01*
X20146645Y1776447D01*
X20660197Y2290000D01*
X20146645Y2803553D01*
X20009332Y2749637D01*
X19933893Y2596308D01*
X19889817Y2431208D01*
X19878797Y2260681D01*
X19617500Y2260681D01*
X19617500Y2375441D01*
X19584162Y2543040D01*
X19518768Y2700915D01*
X19423831Y2842999D01*
X19302999Y2963831D01*
X19160915Y3058768D01*
X19003040Y3124162D01*
X18835441Y3157500D01*
X18664559Y3157500D01*
X18496960Y3124162D01*
X18339085Y3058768D01*
X18197001Y2963831D01*
X18076169Y2842999D01*
X17981232Y2700915D01*
X17915838Y2543040D01*
X17882500Y2375441D01*
X17617500Y2375441D01*
X17584162Y2543040D01*
X17518768Y2700915D01*
X17423831Y2842999D01*
X17302999Y2963831D01*
X17160915Y3058768D01*
X17084900Y3090254D01*
X17084900Y3728270D01*
X17197001Y3616169D01*
X17339085Y3521232D01*
X17496960Y3455838D01*
X17664559Y3422500D01*
X17835441Y3422500D01*
X18003040Y3455838D01*
X18160915Y3521232D01*
X18302999Y3616169D01*
X18423831Y3737001D01*
X18518768Y3879085D01*
X18584162Y4036960D01*
X18617500Y4204559D01*
X18617500Y4375441D01*
X18584162Y4543040D01*
X18518768Y4700915D01*
X18423831Y4842999D01*
X18344330Y4922500D01*
X19155670Y4922500D01*
X19076169Y4842999D01*
G36*
X13236447Y4893355D02*
G01*
X13750000Y4379803D01*
X14263553Y4893355D01*
X14252109Y4922500D01*
X15155670Y4922500D01*
X15076169Y4842999D01*
X14981232Y4700915D01*
X14915838Y4543040D01*
X14882500Y4375441D01*
X14882500Y4204559D01*
X14915838Y4036960D01*
X14981232Y3879085D01*
X15076169Y3737001D01*
X15197001Y3616169D01*
X15339085Y3521232D01*
X15496960Y3455838D01*
X15664559Y3422500D01*
X15835441Y3422500D01*
X16003040Y3455838D01*
X16160915Y3521232D01*
X16302999Y3616169D01*
X16406720Y3719890D01*
X16406720Y3086783D01*
X16339085Y3058768D01*
X16197001Y2963831D01*
X16076169Y2842999D01*
X15981232Y2700915D01*
X15915838Y2543040D01*
X15882500Y2375441D01*
X15882500Y2204559D01*
X15915838Y2036960D01*
X15981232Y1879085D01*
X16076169Y1737001D01*
X16197001Y1616169D01*
X16339085Y1521232D01*
X16406720Y1493217D01*
X16406720Y586783D01*
X16339085Y558768D01*
X16197001Y463831D01*
X16076169Y342999D01*
X15981232Y200915D01*
X15915838Y43040D01*
X15882500Y-124559D01*
X15882500Y-295441D01*
X15915838Y-463040D01*
X15981232Y-620915D01*
X16076169Y-762999D01*
X16197001Y-883831D01*
X16307501Y-957664D01*
X16307501Y-1540671D01*
X16302999Y-1536169D01*
X16160915Y-1441232D01*
X16003040Y-1375838D01*
X15835441Y-1342500D01*
X15664559Y-1342500D01*
X15496960Y-1375838D01*
X15339085Y-1441232D01*
X15197001Y-1536169D01*
X15076169Y-1657001D01*
X14981232Y-1799085D01*
X14915838Y-1956960D01*
X14882500Y-2124559D01*
X14882500Y-2295441D01*
X14915838Y-2463040D01*
X14981232Y-2620915D01*
X15076169Y-2762999D01*
X15197001Y-2883831D01*
X15339085Y-2978768D01*
X15402608Y-3005080D01*
X14106332Y-3005080D01*
X14110482Y-3003667D01*
X14209637Y-2950668D01*
X14263553Y-2813355D01*
X13750000Y-2299803D01*
X13236447Y-2813355D01*
X13290363Y-2950668D01*
X13400955Y-3005080D01*
X8090760Y-3005080D01*
X8078372Y-3006300D01*
X8066460Y-3009914D01*
X8055481Y-3015782D01*
X8045859Y-3023679D01*
X7088279Y-3981259D01*
X7080382Y-3990881D01*
X7074514Y-4001860D01*
X7070900Y-4013772D01*
X7069680Y-4026160D01*
X7069680Y-4280499D01*
X7064459Y-4333500D01*
X7066601Y-4355245D01*
X7066600Y-13672718D01*
X5101999Y-15637319D01*
X5094102Y-15646941D01*
X5088234Y-15657920D01*
X5084620Y-15669832D01*
X5083400Y-15682220D01*
X5083400Y-20128275D01*
X5052778Y-20174104D01*
X5006230Y-20286482D01*
X4982500Y-20405782D01*
X4982500Y-20527418D01*
X5006230Y-20646718D01*
X5052778Y-20759096D01*
X5083400Y-20804925D01*
X5083400Y-21012112D01*
X5062241Y-21005694D01*
X5000000Y-20999564D01*
X4742875Y-21001100D01*
X4663500Y-21080475D01*
X4663500Y-23355100D01*
X4683500Y-23355100D01*
X4683500Y-23482100D01*
X4663500Y-23482100D01*
X4663500Y-23502100D01*
X4536500Y-23502100D01*
X4536500Y-23482100D01*
X3663500Y-23482100D01*
X3663500Y-23502100D01*
X3536500Y-23502100D01*
X3536500Y-23482100D01*
X2663500Y-23482100D01*
X2663500Y-23502100D01*
X2536500Y-23502100D01*
X2536500Y-23482100D01*
X2516500Y-23482100D01*
X2516500Y-23355100D01*
X2536500Y-23355100D01*
X2536500Y-21080475D01*
X2663500Y-21080475D01*
X2663500Y-23355100D01*
X3536500Y-23355100D01*
X3536500Y-21080475D01*
X3663500Y-21080475D01*
X3663500Y-23355100D01*
X4536500Y-23355100D01*
X4536500Y-21080475D01*
X4457125Y-21001100D01*
X4200000Y-20999564D01*
X4137759Y-21005694D01*
X4100000Y-21017148D01*
X4062241Y-21005694D01*
X4000000Y-20999564D01*
X3742875Y-21001100D01*
X3663500Y-21080475D01*
X3536500Y-21080475D01*
X3457125Y-21001100D01*
X3200000Y-20999564D01*
X3137759Y-21005694D01*
X3100000Y-21017148D01*
X3062241Y-21005694D01*
X3000000Y-20999564D01*
X2742875Y-21001100D01*
X2663500Y-21080475D01*
X2536500Y-21080475D01*
X2457125Y-21001100D01*
X2417500Y-21000863D01*
X2417500Y-16489491D01*
X2415717Y-16471389D01*
X2415758Y-16465528D01*
X2415190Y-16459726D01*
X2395809Y-16275334D01*
X2388195Y-16238238D01*
X2381110Y-16201100D01*
X2379427Y-16195525D01*
X2379425Y-16195516D01*
X2379421Y-16195508D01*
X2324599Y-16018403D01*
X2309941Y-15983533D01*
X2295760Y-15948434D01*
X2293023Y-15943287D01*
X2293023Y-15943286D01*
X2293022Y-15943285D01*
X2204839Y-15780194D01*
X2183686Y-15748834D01*
X2162958Y-15717159D01*
X2159274Y-15712641D01*
X2063500Y-15596871D01*
X2063500Y-14400000D01*
X2062280Y-14387612D01*
X2058666Y-14375700D01*
X2052798Y-14364721D01*
X2042603Y-14352912D01*
X992603Y-13402912D01*
X982598Y-13395506D01*
X971340Y-13390193D01*
X959263Y-13387179D01*
X950397Y-13386501D01*
X-7025464Y-13336652D01*
X-8486848Y-12021406D01*
X-8535018Y-8119643D01*
X-7879180Y-8119643D01*
X-7879180Y-8280677D01*
X-7847764Y-8438616D01*
X-7786140Y-8587392D01*
X-7696674Y-8721286D01*
X-7582806Y-8835154D01*
X-7448912Y-8924620D01*
X-7300136Y-8986244D01*
X-7142197Y-9017660D01*
X-7046746Y-9017660D01*
X-6906870Y-9157536D01*
X-6889104Y-9179184D01*
X-6867456Y-9196950D01*
X-6802692Y-9250101D01*
X-6749995Y-9278268D01*
X-6704103Y-9302798D01*
X-6597129Y-9335248D01*
X-6513751Y-9343460D01*
X-6513741Y-9343460D01*
X-6485881Y-9346204D01*
X-6458021Y-9343460D01*
X-6187756Y-9343460D01*
X-6187756Y-9575960D01*
X-6181626Y-9638201D01*
X-6163471Y-9698050D01*
X-6133989Y-9753207D01*
X-6094313Y-9801553D01*
X-6045967Y-9841229D01*
X-5990810Y-9870711D01*
X-5930961Y-9888866D01*
X-5868720Y-9894996D01*
X-3068720Y-9894996D01*
X-3006479Y-9888866D01*
X-2946630Y-9870711D01*
X-2891473Y-9841229D01*
X-2843127Y-9801553D01*
X-2803451Y-9753207D01*
X-2773969Y-9698050D01*
X-2755814Y-9638201D01*
X-2749684Y-9575960D01*
X-1887756Y-9575960D01*
X-1881626Y-9638201D01*
X-1863471Y-9698050D01*
X-1833989Y-9753207D01*
X-1794313Y-9801553D01*
X-1745967Y-9841229D01*
X-1690810Y-9870711D01*
X-1630961Y-9888866D01*
X-1568720Y-9894996D01*
X-311595Y-9893460D01*
X-232220Y-9814085D01*
X-232220Y-8839460D01*
X-105220Y-8839460D01*
X-105220Y-9814085D01*
X-25845Y-9893460D01*
X1231280Y-9894996D01*
X1293521Y-9888866D01*
X1353370Y-9870711D01*
X1408527Y-9841229D01*
X1456873Y-9801553D01*
X1496549Y-9753207D01*
X1526031Y-9698050D01*
X1544186Y-9638201D01*
X1550316Y-9575960D01*
X1548780Y-8918835D01*
X1469405Y-8839460D01*
X-105220Y-8839460D01*
X-232220Y-8839460D01*
X-1806845Y-8839460D01*
X-1886220Y-8918835D01*
X-1887756Y-9575960D01*
X-2749684Y-9575960D01*
X-2749684Y-7975960D01*
X-1887756Y-7975960D01*
X-1886220Y-8633085D01*
X-1806845Y-8712460D01*
X-232220Y-8712460D01*
X-232220Y-7737835D01*
X-105220Y-7737835D01*
X-105220Y-8712460D01*
X1469405Y-8712460D01*
X1548780Y-8633085D01*
X1550316Y-7975960D01*
X1544186Y-7913719D01*
X1526031Y-7853870D01*
X1496549Y-7798713D01*
X1456873Y-7750367D01*
X1408527Y-7710691D01*
X1353370Y-7681209D01*
X1293521Y-7663054D01*
X1231280Y-7656924D01*
X-25845Y-7658460D01*
X-105220Y-7737835D01*
X-232220Y-7737835D01*
X-311595Y-7658460D01*
X-1568720Y-7656924D01*
X-1630961Y-7663054D01*
X-1690810Y-7681209D01*
X-1745967Y-7710691D01*
X-1794313Y-7750367D01*
X-1833989Y-7798713D01*
X-1863471Y-7853870D01*
X-1881626Y-7913719D01*
X-1887756Y-7975960D01*
X-2749684Y-7975960D01*
X-2755814Y-7913719D01*
X-2773969Y-7853870D01*
X-2803451Y-7798713D01*
X-2843127Y-7750367D01*
X-2891473Y-7710691D01*
X-2946630Y-7681209D01*
X-3006479Y-7663054D01*
X-3068720Y-7656924D01*
X-5868720Y-7656924D01*
X-5930961Y-7663054D01*
X-5990810Y-7681209D01*
X-6045967Y-7710691D01*
X-6094313Y-7750367D01*
X-6133989Y-7798713D01*
X-6163471Y-7853870D01*
X-6181626Y-7913719D01*
X-6187756Y-7975960D01*
X-6187756Y-8208460D01*
X-6244180Y-8208460D01*
X-6244180Y-8119643D01*
X-6275596Y-7961704D01*
X-6337220Y-7812928D01*
X-6426686Y-7679034D01*
X-6540554Y-7565166D01*
X-6674448Y-7475700D01*
X-6823224Y-7414076D01*
X-6981163Y-7382660D01*
X-7142197Y-7382660D01*
X-7300136Y-7414076D01*
X-7448912Y-7475700D01*
X-7582806Y-7565166D01*
X-7696674Y-7679034D01*
X-7786140Y-7812928D01*
X-7847764Y-7961704D01*
X-7879180Y-8119643D01*
X-8535018Y-8119643D01*
X-8639537Y346444D01*
X-3517500Y346444D01*
X-3517500Y-346444D01*
X-3382325Y-1026017D01*
X-3117168Y-1666161D01*
X-2732221Y-2242276D01*
X-2242276Y-2732221D01*
X-1666161Y-3117168D01*
X-1026017Y-3382325D01*
X-346444Y-3517500D01*
X346444Y-3517500D01*
X1026017Y-3382325D01*
X1666161Y-3117168D01*
X2242276Y-2732221D01*
X2700014Y-2274483D01*
X3962500Y-2274483D01*
X3962500Y-2435517D01*
X3993916Y-2593456D01*
X4055540Y-2742232D01*
X4145006Y-2876126D01*
X4258874Y-2989994D01*
X4392768Y-3079460D01*
X4541544Y-3141084D01*
X4699483Y-3172500D01*
X4860517Y-3172500D01*
X5018456Y-3141084D01*
X5167232Y-3079460D01*
X5301126Y-2989994D01*
X5414994Y-2876126D01*
X5504460Y-2742232D01*
X5566084Y-2593456D01*
X5581702Y-2514940D01*
X5683124Y-2514940D01*
X5698720Y-2516476D01*
X6298720Y-2516476D01*
X6360961Y-2510346D01*
X6420810Y-2492191D01*
X6475967Y-2462709D01*
X6524313Y-2423033D01*
X6548720Y-2393293D01*
X6573127Y-2423033D01*
X6621473Y-2462709D01*
X6676630Y-2492191D01*
X6736479Y-2510346D01*
X6798720Y-2516476D01*
X6955845Y-2514940D01*
X7035220Y-2435565D01*
X7035220Y-2010940D01*
X7162220Y-2010940D01*
X7162220Y-2435565D01*
X7241595Y-2514940D01*
X7398720Y-2516476D01*
X7460961Y-2510346D01*
X7520810Y-2492191D01*
X7575967Y-2462709D01*
X7624313Y-2423033D01*
X7663989Y-2374687D01*
X7693471Y-2319530D01*
X7711626Y-2259681D01*
X7713631Y-2239319D01*
X12878797Y-2239319D01*
X12901257Y-2408718D01*
X12956333Y-2570482D01*
X13009332Y-2669637D01*
X13146645Y-2723553D01*
X13660197Y-2210000D01*
X13839803Y-2210000D01*
X14353355Y-2723553D01*
X14490668Y-2669637D01*
X14566107Y-2516308D01*
X14610183Y-2351208D01*
X14621203Y-2180681D01*
X14598743Y-2011282D01*
X14543667Y-1849518D01*
X14490668Y-1750363D01*
X14353355Y-1696447D01*
X13839803Y-2210000D01*
X13660197Y-2210000D01*
X13146645Y-1696447D01*
X13009332Y-1750363D01*
X12933893Y-1903692D01*
X12889817Y-2068792D01*
X12878797Y-2239319D01*
X7713631Y-2239319D01*
X7717756Y-2197440D01*
X7716220Y-2090315D01*
X7636845Y-2010940D01*
X7162220Y-2010940D01*
X7035220Y-2010940D01*
X7015220Y-2010940D01*
X7015220Y-1883940D01*
X7035220Y-1883940D01*
X7035220Y-1459315D01*
X7162220Y-1459315D01*
X7162220Y-1883940D01*
X7636845Y-1883940D01*
X7716220Y-1804565D01*
X7717756Y-1697440D01*
X7711626Y-1635199D01*
X7702965Y-1606645D01*
X13236447Y-1606645D01*
X13750000Y-2120197D01*
X14263553Y-1606645D01*
X14209637Y-1469332D01*
X14056308Y-1393893D01*
X13891208Y-1349817D01*
X13720681Y-1338797D01*
X13551282Y-1361257D01*
X13389518Y-1416333D01*
X13290363Y-1469332D01*
X13236447Y-1606645D01*
X7702965Y-1606645D01*
X7693471Y-1575350D01*
X7663989Y-1520193D01*
X7624313Y-1471847D01*
X7575967Y-1432171D01*
X7520810Y-1402689D01*
X7460961Y-1384534D01*
X7398720Y-1378404D01*
X7241595Y-1379940D01*
X7162220Y-1459315D01*
X7035220Y-1459315D01*
X6955845Y-1379940D01*
X6798720Y-1378404D01*
X6736479Y-1384534D01*
X6676630Y-1402689D01*
X6621473Y-1432171D01*
X6573127Y-1471847D01*
X6548720Y-1501587D01*
X6524313Y-1471847D01*
X6475967Y-1432171D01*
X6420810Y-1402689D01*
X6360961Y-1384534D01*
X6298720Y-1378404D01*
X5698720Y-1378404D01*
X5683124Y-1379940D01*
X5215420Y-1379940D01*
X5187560Y-1377196D01*
X5159699Y-1379940D01*
X5159689Y-1379940D01*
X5076311Y-1388152D01*
X4969337Y-1420602D01*
X4923445Y-1445132D01*
X4870748Y-1473299D01*
X4813608Y-1520193D01*
X4792520Y-1537500D01*
X4699483Y-1537500D01*
X4541544Y-1568916D01*
X4392768Y-1630540D01*
X4258874Y-1720006D01*
X4145006Y-1833874D01*
X4055540Y-1967768D01*
X3993916Y-2116544D01*
X3962500Y-2274483D01*
X2700014Y-2274483D01*
X2732221Y-2242276D01*
X3117168Y-1666161D01*
X3382325Y-1026017D01*
X3517500Y-346444D01*
X3517500Y-274483D01*
X3962500Y-274483D01*
X3962500Y-435517D01*
X3993916Y-593456D01*
X4055540Y-742232D01*
X4145006Y-876126D01*
X4258874Y-989994D01*
X4392768Y-1079460D01*
X4541544Y-1141084D01*
X4699483Y-1172500D01*
X4860517Y-1172500D01*
X5018456Y-1141084D01*
X5167232Y-1079460D01*
X5301126Y-989994D01*
X5351376Y-939744D01*
X5359339Y-942160D01*
X5421580Y-948290D01*
X6221580Y-948290D01*
X6283821Y-942160D01*
X6343670Y-924005D01*
X6398827Y-894523D01*
X6447173Y-854847D01*
X6486849Y-806501D01*
X6516331Y-751344D01*
X6534486Y-691495D01*
X6540616Y-629254D01*
X6602544Y-629254D01*
X6608674Y-691495D01*
X6626829Y-751344D01*
X6656311Y-806501D01*
X6695987Y-854847D01*
X6744333Y-894523D01*
X6799490Y-924005D01*
X6859339Y-942160D01*
X6921580Y-948290D01*
X7178705Y-946754D01*
X7258080Y-867379D01*
X7258080Y-317754D01*
X7385080Y-317754D01*
X7385080Y-867379D01*
X7464455Y-946754D01*
X7721580Y-948290D01*
X7783821Y-942160D01*
X7843670Y-924005D01*
X7898827Y-894523D01*
X7947173Y-854847D01*
X7981224Y-813355D01*
X12236447Y-813355D01*
X12290363Y-950668D01*
X12443692Y-1026107D01*
X12608792Y-1070183D01*
X12779319Y-1081203D01*
X12948718Y-1058743D01*
X13110482Y-1003667D01*
X13209637Y-950668D01*
X13263553Y-813355D01*
X14236447Y-813355D01*
X14290363Y-950668D01*
X14443692Y-1026107D01*
X14608792Y-1070183D01*
X14779319Y-1081203D01*
X14948718Y-1058743D01*
X15110482Y-1003667D01*
X15209637Y-950668D01*
X15263553Y-813355D01*
X14750000Y-299803D01*
X14236447Y-813355D01*
X13263553Y-813355D01*
X12750000Y-299803D01*
X12236447Y-813355D01*
X7981224Y-813355D01*
X7986849Y-806501D01*
X8016331Y-751344D01*
X8034486Y-691495D01*
X8040616Y-629254D01*
X8039080Y-397129D01*
X7959705Y-317754D01*
X7385080Y-317754D01*
X7258080Y-317754D01*
X6683455Y-317754D01*
X6604080Y-397129D01*
X6602544Y-629254D01*
X6540616Y-629254D01*
X6540616Y-239319D01*
X11878797Y-239319D01*
X11901257Y-408718D01*
X11956333Y-570482D01*
X12009332Y-669637D01*
X12146645Y-723553D01*
X12660197Y-210000D01*
X12839803Y-210000D01*
X13353355Y-723553D01*
X13490668Y-669637D01*
X13566107Y-516308D01*
X13610183Y-351208D01*
X13617413Y-239319D01*
X13878797Y-239319D01*
X13901257Y-408718D01*
X13956333Y-570482D01*
X14009332Y-669637D01*
X14146645Y-723553D01*
X14660197Y-210000D01*
X14839803Y-210000D01*
X15353355Y-723553D01*
X15490668Y-669637D01*
X15566107Y-516308D01*
X15610183Y-351208D01*
X15621203Y-180681D01*
X15598743Y-11282D01*
X15543667Y150482D01*
X15490668Y249637D01*
X15353355Y303553D01*
X14839803Y-210000D01*
X14660197Y-210000D01*
X14146645Y303553D01*
X14009332Y249637D01*
X13933893Y96308D01*
X13889817Y-68792D01*
X13878797Y-239319D01*
X13617413Y-239319D01*
X13621203Y-180681D01*
X13598743Y-11282D01*
X13543667Y150482D01*
X13490668Y249637D01*
X13353355Y303553D01*
X12839803Y-210000D01*
X12660197Y-210000D01*
X12146645Y303553D01*
X12009332Y249637D01*
X11933893Y96308D01*
X11889817Y-68792D01*
X11878797Y-239319D01*
X6540616Y-239319D01*
X6540616Y120746D01*
X6602544Y120746D01*
X6604080Y-111379D01*
X6683455Y-190754D01*
X7258080Y-190754D01*
X7258080Y358871D01*
X7385080Y358871D01*
X7385080Y-190754D01*
X7959705Y-190754D01*
X8039080Y-111379D01*
X8040616Y120746D01*
X8034486Y182987D01*
X8016331Y242836D01*
X7986849Y297993D01*
X7947173Y346339D01*
X7898827Y386015D01*
X7885095Y393355D01*
X12236447Y393355D01*
X12750000Y-120197D01*
X13263553Y393355D01*
X14236447Y393355D01*
X14750000Y-120197D01*
X15263553Y393355D01*
X15209637Y530668D01*
X15056308Y606107D01*
X14891208Y650183D01*
X14720681Y661203D01*
X14551282Y638743D01*
X14389518Y583667D01*
X14290363Y530668D01*
X14236447Y393355D01*
X13263553Y393355D01*
X13209637Y530668D01*
X13056308Y606107D01*
X12891208Y650183D01*
X12720681Y661203D01*
X12551282Y638743D01*
X12389518Y583667D01*
X12290363Y530668D01*
X12236447Y393355D01*
X7885095Y393355D01*
X7843670Y415497D01*
X7783821Y433652D01*
X7721580Y439782D01*
X7464455Y438246D01*
X7385080Y358871D01*
X7258080Y358871D01*
X7178705Y438246D01*
X6921580Y439782D01*
X6859339Y433652D01*
X6799490Y415497D01*
X6744333Y386015D01*
X6695987Y346339D01*
X6656311Y297993D01*
X6626829Y242836D01*
X6608674Y182987D01*
X6602544Y120746D01*
X6540616Y120746D01*
X6534486Y182987D01*
X6516331Y242836D01*
X6486849Y297993D01*
X6447173Y346339D01*
X6398827Y386015D01*
X6343670Y415497D01*
X6283821Y433652D01*
X6221580Y439782D01*
X5421580Y439782D01*
X5359339Y433652D01*
X5299490Y415497D01*
X5244333Y386015D01*
X5198611Y348493D01*
X5167232Y369460D01*
X5018456Y431084D01*
X4860517Y462500D01*
X4699483Y462500D01*
X4541544Y431084D01*
X4392768Y369460D01*
X4258874Y279994D01*
X4145006Y166126D01*
X4055540Y32232D01*
X3993916Y-116544D01*
X3962500Y-274483D01*
X3517500Y-274483D01*
X3517500Y346444D01*
X3382325Y1026017D01*
X3175425Y1525517D01*
X3962500Y1525517D01*
X3962500Y1364483D01*
X3993916Y1206544D01*
X4055540Y1057768D01*
X4145006Y923874D01*
X4258874Y810006D01*
X4392768Y720540D01*
X4541544Y658916D01*
X4699483Y627500D01*
X4860517Y627500D01*
X5018456Y658916D01*
X5167232Y720540D01*
X5301126Y810006D01*
X5385792Y894672D01*
X5434280Y889896D01*
X6234280Y889896D01*
X6296521Y896026D01*
X6356370Y914181D01*
X6411527Y943663D01*
X6459873Y983339D01*
X6499549Y1031685D01*
X6529031Y1086842D01*
X6547186Y1146691D01*
X6553316Y1208932D01*
X6615244Y1208932D01*
X6621374Y1146691D01*
X6639529Y1086842D01*
X6669011Y1031685D01*
X6708687Y983339D01*
X6757033Y943663D01*
X6812190Y914181D01*
X6872039Y896026D01*
X6934280Y889896D01*
X7191405Y891432D01*
X7270780Y970807D01*
X7270780Y1520432D01*
X7397780Y1520432D01*
X7397780Y970807D01*
X7477155Y891432D01*
X7734280Y889896D01*
X7796521Y896026D01*
X7856370Y914181D01*
X7911527Y943663D01*
X7959873Y983339D01*
X7999549Y1031685D01*
X8029031Y1086842D01*
X8047186Y1146691D01*
X8053316Y1208932D01*
X8051780Y1441057D01*
X7972405Y1520432D01*
X7397780Y1520432D01*
X7270780Y1520432D01*
X6696155Y1520432D01*
X6616780Y1441057D01*
X6615244Y1208932D01*
X6553316Y1208932D01*
X6553316Y1958932D01*
X6615244Y1958932D01*
X6616780Y1726807D01*
X6696155Y1647432D01*
X7270780Y1647432D01*
X7270780Y2197057D01*
X7397780Y2197057D01*
X7397780Y1647432D01*
X7972405Y1647432D01*
X8051780Y1726807D01*
X8053316Y1958932D01*
X8047186Y2021173D01*
X8029031Y2081022D01*
X7999549Y2136179D01*
X7959873Y2184525D01*
X7911527Y2224201D01*
X7856370Y2253683D01*
X7796521Y2271838D01*
X7734280Y2277968D01*
X7477155Y2276432D01*
X7397780Y2197057D01*
X7270780Y2197057D01*
X7191405Y2276432D01*
X6934280Y2277968D01*
X6872039Y2271838D01*
X6812190Y2253683D01*
X6757033Y2224201D01*
X6708687Y2184525D01*
X6669011Y2136179D01*
X6639529Y2081022D01*
X6621374Y2021173D01*
X6615244Y1958932D01*
X6553316Y1958932D01*
X6547186Y2021173D01*
X6529031Y2081022D01*
X6499549Y2136179D01*
X6459873Y2184525D01*
X6411527Y2224201D01*
X6356370Y2253683D01*
X6296521Y2271838D01*
X6234280Y2277968D01*
X5434280Y2277968D01*
X5372039Y2271838D01*
X5312190Y2253683D01*
X5257033Y2224201D01*
X5208687Y2184525D01*
X5186021Y2156906D01*
X5167232Y2169460D01*
X5018456Y2231084D01*
X4860517Y2262500D01*
X4699483Y2262500D01*
X4541544Y2231084D01*
X4392768Y2169460D01*
X4258874Y2079994D01*
X4145006Y1966126D01*
X4055540Y1832232D01*
X3993916Y1683456D01*
X3962500Y1525517D01*
X3175425Y1525517D01*
X3117168Y1666161D01*
X2732221Y2242276D01*
X2242276Y2732221D01*
X1666161Y3117168D01*
X1163164Y3325517D01*
X3962500Y3325517D01*
X3962500Y3164483D01*
X3993916Y3006544D01*
X4055540Y2857768D01*
X4145006Y2723874D01*
X4258874Y2610006D01*
X4392768Y2520540D01*
X4541544Y2458916D01*
X4699483Y2427500D01*
X4860517Y2427500D01*
X5018456Y2458916D01*
X5167232Y2520540D01*
X5301126Y2610006D01*
X5414994Y2723874D01*
X5418824Y2729606D01*
X5434280Y2728084D01*
X6234280Y2728084D01*
X6296521Y2734214D01*
X6356370Y2752369D01*
X6411527Y2781851D01*
X6459873Y2821527D01*
X6499549Y2869873D01*
X6529031Y2925030D01*
X6547186Y2984879D01*
X6553316Y3047120D01*
X6615244Y3047120D01*
X6621374Y2984879D01*
X6639529Y2925030D01*
X6669011Y2869873D01*
X6708687Y2821527D01*
X6757033Y2781851D01*
X6812190Y2752369D01*
X6872039Y2734214D01*
X6934280Y2728084D01*
X7191405Y2729620D01*
X7270780Y2808995D01*
X7270780Y3358620D01*
X7397780Y3358620D01*
X7397780Y2808995D01*
X7477155Y2729620D01*
X7734280Y2728084D01*
X7796521Y2734214D01*
X7856370Y2752369D01*
X7911527Y2781851D01*
X7959873Y2821527D01*
X7975033Y2840000D01*
X11880964Y2840000D01*
X11880964Y1740000D01*
X11887094Y1677759D01*
X11905249Y1617910D01*
X11934731Y1562753D01*
X11974407Y1514407D01*
X12022753Y1474731D01*
X12077910Y1445249D01*
X12137759Y1427094D01*
X12200000Y1420964D01*
X13300000Y1420964D01*
X13362241Y1427094D01*
X13422090Y1445249D01*
X13477247Y1474731D01*
X13525593Y1514407D01*
X13565269Y1562753D01*
X13594751Y1617910D01*
X13612906Y1677759D01*
X13613781Y1686645D01*
X14236447Y1686645D01*
X14290363Y1549332D01*
X14443692Y1473893D01*
X14608792Y1429817D01*
X14779319Y1418797D01*
X14948718Y1441257D01*
X15110482Y1496333D01*
X15209637Y1549332D01*
X15263553Y1686645D01*
X14750000Y2200197D01*
X14236447Y1686645D01*
X13613781Y1686645D01*
X13619036Y1740000D01*
X13619036Y2260681D01*
X13878797Y2260681D01*
X13901257Y2091282D01*
X13956333Y1929518D01*
X14009332Y1830363D01*
X14146645Y1776447D01*
X14660197Y2290000D01*
X14839803Y2290000D01*
X15353355Y1776447D01*
X15490668Y1830363D01*
X15566107Y1983692D01*
X15610183Y2148792D01*
X15621203Y2319319D01*
X15598743Y2488718D01*
X15543667Y2650482D01*
X15490668Y2749637D01*
X15353355Y2803553D01*
X14839803Y2290000D01*
X14660197Y2290000D01*
X14146645Y2803553D01*
X14009332Y2749637D01*
X13933893Y2596308D01*
X13889817Y2431208D01*
X13878797Y2260681D01*
X13619036Y2260681D01*
X13619036Y2840000D01*
X13613782Y2893355D01*
X14236447Y2893355D01*
X14750000Y2379803D01*
X15263553Y2893355D01*
X15209637Y3030668D01*
X15056308Y3106107D01*
X14891208Y3150183D01*
X14720681Y3161203D01*
X14551282Y3138743D01*
X14389518Y3083667D01*
X14290363Y3030668D01*
X14236447Y2893355D01*
X13613782Y2893355D01*
X13612906Y2902241D01*
X13594751Y2962090D01*
X13565269Y3017247D01*
X13525593Y3065593D01*
X13477247Y3105269D01*
X13422090Y3134751D01*
X13362241Y3152906D01*
X13300000Y3159036D01*
X12200000Y3159036D01*
X12137759Y3152906D01*
X12077910Y3134751D01*
X12022753Y3105269D01*
X11974407Y3065593D01*
X11934731Y3017247D01*
X11905249Y2962090D01*
X11887094Y2902241D01*
X11880964Y2840000D01*
X7975033Y2840000D01*
X7999549Y2869873D01*
X8029031Y2925030D01*
X8047186Y2984879D01*
X8053316Y3047120D01*
X8051780Y3279245D01*
X7972405Y3358620D01*
X7397780Y3358620D01*
X7270780Y3358620D01*
X6696155Y3358620D01*
X6616780Y3279245D01*
X6615244Y3047120D01*
X6553316Y3047120D01*
X6553316Y3797120D01*
X6615244Y3797120D01*
X6616780Y3564995D01*
X6696155Y3485620D01*
X7270780Y3485620D01*
X7270780Y4035245D01*
X7397780Y4035245D01*
X7397780Y3485620D01*
X7972405Y3485620D01*
X8051780Y3564995D01*
X8052584Y3686645D01*
X13236447Y3686645D01*
X13290363Y3549332D01*
X13443692Y3473893D01*
X13608792Y3429817D01*
X13779319Y3418797D01*
X13948718Y3441257D01*
X14110482Y3496333D01*
X14209637Y3549332D01*
X14263553Y3686645D01*
X13750000Y4200197D01*
X13236447Y3686645D01*
X8052584Y3686645D01*
X8053316Y3797120D01*
X8047186Y3859361D01*
X8029031Y3919210D01*
X7999549Y3974367D01*
X7959873Y4022713D01*
X7911527Y4062389D01*
X7856370Y4091871D01*
X7796521Y4110026D01*
X7734280Y4116156D01*
X7477155Y4114620D01*
X7397780Y4035245D01*
X7270780Y4035245D01*
X7191405Y4114620D01*
X6934280Y4116156D01*
X6872039Y4110026D01*
X6812190Y4091871D01*
X6757033Y4062389D01*
X6708687Y4022713D01*
X6669011Y3974367D01*
X6639529Y3919210D01*
X6621374Y3859361D01*
X6615244Y3797120D01*
X6553316Y3797120D01*
X6547186Y3859361D01*
X6529031Y3919210D01*
X6499549Y3974367D01*
X6459873Y4022713D01*
X6411527Y4062389D01*
X6356370Y4091871D01*
X6296521Y4110026D01*
X6234280Y4116156D01*
X5434280Y4116156D01*
X5372039Y4110026D01*
X5312190Y4091871D01*
X5257033Y4062389D01*
X5208687Y4022713D01*
X5181529Y3989620D01*
X5118561Y3989620D01*
X5018456Y4031084D01*
X4860517Y4062500D01*
X4699483Y4062500D01*
X4541544Y4031084D01*
X4392768Y3969460D01*
X4258874Y3879994D01*
X4145006Y3766126D01*
X4055540Y3632232D01*
X3993916Y3483456D01*
X3962500Y3325517D01*
X1163164Y3325517D01*
X1026017Y3382325D01*
X346444Y3517500D01*
X-346444Y3517500D01*
X-1026017Y3382325D01*
X-1666161Y3117168D01*
X-2242276Y2732221D01*
X-2732221Y2242276D01*
X-3117168Y1666161D01*
X-3382325Y1026017D01*
X-3517500Y346444D01*
X-8639537Y346444D01*
X-8686183Y4124676D01*
X-8554868Y4260681D01*
X12878797Y4260681D01*
X12901257Y4091282D01*
X12956333Y3929518D01*
X13009332Y3830363D01*
X13146645Y3776447D01*
X13660197Y4290000D01*
X13839803Y4290000D01*
X14353355Y3776447D01*
X14490668Y3830363D01*
X14566107Y3983692D01*
X14610183Y4148792D01*
X14621203Y4319319D01*
X14598743Y4488718D01*
X14543667Y4650482D01*
X14490668Y4749637D01*
X14353355Y4803553D01*
X13839803Y4290000D01*
X13660197Y4290000D01*
X13146645Y4803553D01*
X13009332Y4749637D01*
X12933893Y4596308D01*
X12889817Y4431208D01*
X12878797Y4260681D01*
X-8554868Y4260681D01*
X-7915870Y4922500D01*
X13247891Y4922500D01*
X13236447Y4893355D01*
G37*
X13236447Y4893355D02*
X13750000Y4379803D01*
X14263553Y4893355D01*
X14252109Y4922500D01*
X15155670Y4922500D01*
X15076169Y4842999D01*
X14981232Y4700915D01*
X14915838Y4543040D01*
X14882500Y4375441D01*
X14882500Y4204559D01*
X14915838Y4036960D01*
X14981232Y3879085D01*
X15076169Y3737001D01*
X15197001Y3616169D01*
X15339085Y3521232D01*
X15496960Y3455838D01*
X15664559Y3422500D01*
X15835441Y3422500D01*
X16003040Y3455838D01*
X16160915Y3521232D01*
X16302999Y3616169D01*
X16406720Y3719890D01*
X16406720Y3086783D01*
X16339085Y3058768D01*
X16197001Y2963831D01*
X16076169Y2842999D01*
X15981232Y2700915D01*
X15915838Y2543040D01*
X15882500Y2375441D01*
X15882500Y2204559D01*
X15915838Y2036960D01*
X15981232Y1879085D01*
X16076169Y1737001D01*
X16197001Y1616169D01*
X16339085Y1521232D01*
X16406720Y1493217D01*
X16406720Y586783D01*
X16339085Y558768D01*
X16197001Y463831D01*
X16076169Y342999D01*
X15981232Y200915D01*
X15915838Y43040D01*
X15882500Y-124559D01*
X15882500Y-295441D01*
X15915838Y-463040D01*
X15981232Y-620915D01*
X16076169Y-762999D01*
X16197001Y-883831D01*
X16307501Y-957664D01*
X16307501Y-1540671D01*
X16302999Y-1536169D01*
X16160915Y-1441232D01*
X16003040Y-1375838D01*
X15835441Y-1342500D01*
X15664559Y-1342500D01*
X15496960Y-1375838D01*
X15339085Y-1441232D01*
X15197001Y-1536169D01*
X15076169Y-1657001D01*
X14981232Y-1799085D01*
X14915838Y-1956960D01*
X14882500Y-2124559D01*
X14882500Y-2295441D01*
X14915838Y-2463040D01*
X14981232Y-2620915D01*
X15076169Y-2762999D01*
X15197001Y-2883831D01*
X15339085Y-2978768D01*
X15402608Y-3005080D01*
X14106332Y-3005080D01*
X14110482Y-3003667D01*
X14209637Y-2950668D01*
X14263553Y-2813355D01*
X13750000Y-2299803D01*
X13236447Y-2813355D01*
X13290363Y-2950668D01*
X13400955Y-3005080D01*
X8090760Y-3005080D01*
X8078372Y-3006300D01*
X8066460Y-3009914D01*
X8055481Y-3015782D01*
X8045859Y-3023679D01*
X7088279Y-3981259D01*
X7080382Y-3990881D01*
X7074514Y-4001860D01*
X7070900Y-4013772D01*
X7069680Y-4026160D01*
X7069680Y-4280499D01*
X7064459Y-4333500D01*
X7066601Y-4355245D01*
X7066600Y-13672718D01*
X5101999Y-15637319D01*
X5094102Y-15646941D01*
X5088234Y-15657920D01*
X5084620Y-15669832D01*
X5083400Y-15682220D01*
X5083400Y-20128275D01*
X5052778Y-20174104D01*
X5006230Y-20286482D01*
X4982500Y-20405782D01*
X4982500Y-20527418D01*
X5006230Y-20646718D01*
X5052778Y-20759096D01*
X5083400Y-20804925D01*
X5083400Y-21012112D01*
X5062241Y-21005694D01*
X5000000Y-20999564D01*
X4742875Y-21001100D01*
X4663500Y-21080475D01*
X4663500Y-23355100D01*
X4683500Y-23355100D01*
X4683500Y-23482100D01*
X4663500Y-23482100D01*
X4663500Y-23502100D01*
X4536500Y-23502100D01*
X4536500Y-23482100D01*
X3663500Y-23482100D01*
X3663500Y-23502100D01*
X3536500Y-23502100D01*
X3536500Y-23482100D01*
X2663500Y-23482100D01*
X2663500Y-23502100D01*
X2536500Y-23502100D01*
X2536500Y-23482100D01*
X2516500Y-23482100D01*
X2516500Y-23355100D01*
X2536500Y-23355100D01*
X2536500Y-21080475D01*
X2663500Y-21080475D01*
X2663500Y-23355100D01*
X3536500Y-23355100D01*
X3536500Y-21080475D01*
X3663500Y-21080475D01*
X3663500Y-23355100D01*
X4536500Y-23355100D01*
X4536500Y-21080475D01*
X4457125Y-21001100D01*
X4200000Y-20999564D01*
X4137759Y-21005694D01*
X4100000Y-21017148D01*
X4062241Y-21005694D01*
X4000000Y-20999564D01*
X3742875Y-21001100D01*
X3663500Y-21080475D01*
X3536500Y-21080475D01*
X3457125Y-21001100D01*
X3200000Y-20999564D01*
X3137759Y-21005694D01*
X3100000Y-21017148D01*
X3062241Y-21005694D01*
X3000000Y-20999564D01*
X2742875Y-21001100D01*
X2663500Y-21080475D01*
X2536500Y-21080475D01*
X2457125Y-21001100D01*
X2417500Y-21000863D01*
X2417500Y-16489491D01*
X2415717Y-16471389D01*
X2415758Y-16465528D01*
X2415190Y-16459726D01*
X2395809Y-16275334D01*
X2388195Y-16238238D01*
X2381110Y-16201100D01*
X2379427Y-16195525D01*
X2379425Y-16195516D01*
X2379421Y-16195508D01*
X2324599Y-16018403D01*
X2309941Y-15983533D01*
X2295760Y-15948434D01*
X2293023Y-15943287D01*
X2293023Y-15943286D01*
X2293022Y-15943285D01*
X2204839Y-15780194D01*
X2183686Y-15748834D01*
X2162958Y-15717159D01*
X2159274Y-15712641D01*
X2063500Y-15596871D01*
X2063500Y-14400000D01*
X2062280Y-14387612D01*
X2058666Y-14375700D01*
X2052798Y-14364721D01*
X2042603Y-14352912D01*
X992603Y-13402912D01*
X982598Y-13395506D01*
X971340Y-13390193D01*
X959263Y-13387179D01*
X950397Y-13386501D01*
X-7025464Y-13336652D01*
X-8486848Y-12021406D01*
X-8535018Y-8119643D01*
X-7879180Y-8119643D01*
X-7879180Y-8280677D01*
X-7847764Y-8438616D01*
X-7786140Y-8587392D01*
X-7696674Y-8721286D01*
X-7582806Y-8835154D01*
X-7448912Y-8924620D01*
X-7300136Y-8986244D01*
X-7142197Y-9017660D01*
X-7046746Y-9017660D01*
X-6906870Y-9157536D01*
X-6889104Y-9179184D01*
X-6867456Y-9196950D01*
X-6802692Y-9250101D01*
X-6749995Y-9278268D01*
X-6704103Y-9302798D01*
X-6597129Y-9335248D01*
X-6513751Y-9343460D01*
X-6513741Y-9343460D01*
X-6485881Y-9346204D01*
X-6458021Y-9343460D01*
X-6187756Y-9343460D01*
X-6187756Y-9575960D01*
X-6181626Y-9638201D01*
X-6163471Y-9698050D01*
X-6133989Y-9753207D01*
X-6094313Y-9801553D01*
X-6045967Y-9841229D01*
X-5990810Y-9870711D01*
X-5930961Y-9888866D01*
X-5868720Y-9894996D01*
X-3068720Y-9894996D01*
X-3006479Y-9888866D01*
X-2946630Y-9870711D01*
X-2891473Y-9841229D01*
X-2843127Y-9801553D01*
X-2803451Y-9753207D01*
X-2773969Y-9698050D01*
X-2755814Y-9638201D01*
X-2749684Y-9575960D01*
X-1887756Y-9575960D01*
X-1881626Y-9638201D01*
X-1863471Y-9698050D01*
X-1833989Y-9753207D01*
X-1794313Y-9801553D01*
X-1745967Y-9841229D01*
X-1690810Y-9870711D01*
X-1630961Y-9888866D01*
X-1568720Y-9894996D01*
X-311595Y-9893460D01*
X-232220Y-9814085D01*
X-232220Y-8839460D01*
X-105220Y-8839460D01*
X-105220Y-9814085D01*
X-25845Y-9893460D01*
X1231280Y-9894996D01*
X1293521Y-9888866D01*
X1353370Y-9870711D01*
X1408527Y-9841229D01*
X1456873Y-9801553D01*
X1496549Y-9753207D01*
X1526031Y-9698050D01*
X1544186Y-9638201D01*
X1550316Y-9575960D01*
X1548780Y-8918835D01*
X1469405Y-8839460D01*
X-105220Y-8839460D01*
X-232220Y-8839460D01*
X-1806845Y-8839460D01*
X-1886220Y-8918835D01*
X-1887756Y-9575960D01*
X-2749684Y-9575960D01*
X-2749684Y-7975960D01*
X-1887756Y-7975960D01*
X-1886220Y-8633085D01*
X-1806845Y-8712460D01*
X-232220Y-8712460D01*
X-232220Y-7737835D01*
X-105220Y-7737835D01*
X-105220Y-8712460D01*
X1469405Y-8712460D01*
X1548780Y-8633085D01*
X1550316Y-7975960D01*
X1544186Y-7913719D01*
X1526031Y-7853870D01*
X1496549Y-7798713D01*
X1456873Y-7750367D01*
X1408527Y-7710691D01*
X1353370Y-7681209D01*
X1293521Y-7663054D01*
X1231280Y-7656924D01*
X-25845Y-7658460D01*
X-105220Y-7737835D01*
X-232220Y-7737835D01*
X-311595Y-7658460D01*
X-1568720Y-7656924D01*
X-1630961Y-7663054D01*
X-1690810Y-7681209D01*
X-1745967Y-7710691D01*
X-1794313Y-7750367D01*
X-1833989Y-7798713D01*
X-1863471Y-7853870D01*
X-1881626Y-7913719D01*
X-1887756Y-7975960D01*
X-2749684Y-7975960D01*
X-2755814Y-7913719D01*
X-2773969Y-7853870D01*
X-2803451Y-7798713D01*
X-2843127Y-7750367D01*
X-2891473Y-7710691D01*
X-2946630Y-7681209D01*
X-3006479Y-7663054D01*
X-3068720Y-7656924D01*
X-5868720Y-7656924D01*
X-5930961Y-7663054D01*
X-5990810Y-7681209D01*
X-6045967Y-7710691D01*
X-6094313Y-7750367D01*
X-6133989Y-7798713D01*
X-6163471Y-7853870D01*
X-6181626Y-7913719D01*
X-6187756Y-7975960D01*
X-6187756Y-8208460D01*
X-6244180Y-8208460D01*
X-6244180Y-8119643D01*
X-6275596Y-7961704D01*
X-6337220Y-7812928D01*
X-6426686Y-7679034D01*
X-6540554Y-7565166D01*
X-6674448Y-7475700D01*
X-6823224Y-7414076D01*
X-6981163Y-7382660D01*
X-7142197Y-7382660D01*
X-7300136Y-7414076D01*
X-7448912Y-7475700D01*
X-7582806Y-7565166D01*
X-7696674Y-7679034D01*
X-7786140Y-7812928D01*
X-7847764Y-7961704D01*
X-7879180Y-8119643D01*
X-8535018Y-8119643D01*
X-8639537Y346444D01*
X-3517500Y346444D01*
X-3517500Y-346444D01*
X-3382325Y-1026017D01*
X-3117168Y-1666161D01*
X-2732221Y-2242276D01*
X-2242276Y-2732221D01*
X-1666161Y-3117168D01*
X-1026017Y-3382325D01*
X-346444Y-3517500D01*
X346444Y-3517500D01*
X1026017Y-3382325D01*
X1666161Y-3117168D01*
X2242276Y-2732221D01*
X2700014Y-2274483D01*
X3962500Y-2274483D01*
X3962500Y-2435517D01*
X3993916Y-2593456D01*
X4055540Y-2742232D01*
X4145006Y-2876126D01*
X4258874Y-2989994D01*
X4392768Y-3079460D01*
X4541544Y-3141084D01*
X4699483Y-3172500D01*
X4860517Y-3172500D01*
X5018456Y-3141084D01*
X5167232Y-3079460D01*
X5301126Y-2989994D01*
X5414994Y-2876126D01*
X5504460Y-2742232D01*
X5566084Y-2593456D01*
X5581702Y-2514940D01*
X5683124Y-2514940D01*
X5698720Y-2516476D01*
X6298720Y-2516476D01*
X6360961Y-2510346D01*
X6420810Y-2492191D01*
X6475967Y-2462709D01*
X6524313Y-2423033D01*
X6548720Y-2393293D01*
X6573127Y-2423033D01*
X6621473Y-2462709D01*
X6676630Y-2492191D01*
X6736479Y-2510346D01*
X6798720Y-2516476D01*
X6955845Y-2514940D01*
X7035220Y-2435565D01*
X7035220Y-2010940D01*
X7162220Y-2010940D01*
X7162220Y-2435565D01*
X7241595Y-2514940D01*
X7398720Y-2516476D01*
X7460961Y-2510346D01*
X7520810Y-2492191D01*
X7575967Y-2462709D01*
X7624313Y-2423033D01*
X7663989Y-2374687D01*
X7693471Y-2319530D01*
X7711626Y-2259681D01*
X7713631Y-2239319D01*
X12878797Y-2239319D01*
X12901257Y-2408718D01*
X12956333Y-2570482D01*
X13009332Y-2669637D01*
X13146645Y-2723553D01*
X13660197Y-2210000D01*
X13839803Y-2210000D01*
X14353355Y-2723553D01*
X14490668Y-2669637D01*
X14566107Y-2516308D01*
X14610183Y-2351208D01*
X14621203Y-2180681D01*
X14598743Y-2011282D01*
X14543667Y-1849518D01*
X14490668Y-1750363D01*
X14353355Y-1696447D01*
X13839803Y-2210000D01*
X13660197Y-2210000D01*
X13146645Y-1696447D01*
X13009332Y-1750363D01*
X12933893Y-1903692D01*
X12889817Y-2068792D01*
X12878797Y-2239319D01*
X7713631Y-2239319D01*
X7717756Y-2197440D01*
X7716220Y-2090315D01*
X7636845Y-2010940D01*
X7162220Y-2010940D01*
X7035220Y-2010940D01*
X7015220Y-2010940D01*
X7015220Y-1883940D01*
X7035220Y-1883940D01*
X7035220Y-1459315D01*
X7162220Y-1459315D01*
X7162220Y-1883940D01*
X7636845Y-1883940D01*
X7716220Y-1804565D01*
X7717756Y-1697440D01*
X7711626Y-1635199D01*
X7702965Y-1606645D01*
X13236447Y-1606645D01*
X13750000Y-2120197D01*
X14263553Y-1606645D01*
X14209637Y-1469332D01*
X14056308Y-1393893D01*
X13891208Y-1349817D01*
X13720681Y-1338797D01*
X13551282Y-1361257D01*
X13389518Y-1416333D01*
X13290363Y-1469332D01*
X13236447Y-1606645D01*
X7702965Y-1606645D01*
X7693471Y-1575350D01*
X7663989Y-1520193D01*
X7624313Y-1471847D01*
X7575967Y-1432171D01*
X7520810Y-1402689D01*
X7460961Y-1384534D01*
X7398720Y-1378404D01*
X7241595Y-1379940D01*
X7162220Y-1459315D01*
X7035220Y-1459315D01*
X6955845Y-1379940D01*
X6798720Y-1378404D01*
X6736479Y-1384534D01*
X6676630Y-1402689D01*
X6621473Y-1432171D01*
X6573127Y-1471847D01*
X6548720Y-1501587D01*
X6524313Y-1471847D01*
X6475967Y-1432171D01*
X6420810Y-1402689D01*
X6360961Y-1384534D01*
X6298720Y-1378404D01*
X5698720Y-1378404D01*
X5683124Y-1379940D01*
X5215420Y-1379940D01*
X5187560Y-1377196D01*
X5159699Y-1379940D01*
X5159689Y-1379940D01*
X5076311Y-1388152D01*
X4969337Y-1420602D01*
X4923445Y-1445132D01*
X4870748Y-1473299D01*
X4813608Y-1520193D01*
X4792520Y-1537500D01*
X4699483Y-1537500D01*
X4541544Y-1568916D01*
X4392768Y-1630540D01*
X4258874Y-1720006D01*
X4145006Y-1833874D01*
X4055540Y-1967768D01*
X3993916Y-2116544D01*
X3962500Y-2274483D01*
X2700014Y-2274483D01*
X2732221Y-2242276D01*
X3117168Y-1666161D01*
X3382325Y-1026017D01*
X3517500Y-346444D01*
X3517500Y-274483D01*
X3962500Y-274483D01*
X3962500Y-435517D01*
X3993916Y-593456D01*
X4055540Y-742232D01*
X4145006Y-876126D01*
X4258874Y-989994D01*
X4392768Y-1079460D01*
X4541544Y-1141084D01*
X4699483Y-1172500D01*
X4860517Y-1172500D01*
X5018456Y-1141084D01*
X5167232Y-1079460D01*
X5301126Y-989994D01*
X5351376Y-939744D01*
X5359339Y-942160D01*
X5421580Y-948290D01*
X6221580Y-948290D01*
X6283821Y-942160D01*
X6343670Y-924005D01*
X6398827Y-894523D01*
X6447173Y-854847D01*
X6486849Y-806501D01*
X6516331Y-751344D01*
X6534486Y-691495D01*
X6540616Y-629254D01*
X6602544Y-629254D01*
X6608674Y-691495D01*
X6626829Y-751344D01*
X6656311Y-806501D01*
X6695987Y-854847D01*
X6744333Y-894523D01*
X6799490Y-924005D01*
X6859339Y-942160D01*
X6921580Y-948290D01*
X7178705Y-946754D01*
X7258080Y-867379D01*
X7258080Y-317754D01*
X7385080Y-317754D01*
X7385080Y-867379D01*
X7464455Y-946754D01*
X7721580Y-948290D01*
X7783821Y-942160D01*
X7843670Y-924005D01*
X7898827Y-894523D01*
X7947173Y-854847D01*
X7981224Y-813355D01*
X12236447Y-813355D01*
X12290363Y-950668D01*
X12443692Y-1026107D01*
X12608792Y-1070183D01*
X12779319Y-1081203D01*
X12948718Y-1058743D01*
X13110482Y-1003667D01*
X13209637Y-950668D01*
X13263553Y-813355D01*
X14236447Y-813355D01*
X14290363Y-950668D01*
X14443692Y-1026107D01*
X14608792Y-1070183D01*
X14779319Y-1081203D01*
X14948718Y-1058743D01*
X15110482Y-1003667D01*
X15209637Y-950668D01*
X15263553Y-813355D01*
X14750000Y-299803D01*
X14236447Y-813355D01*
X13263553Y-813355D01*
X12750000Y-299803D01*
X12236447Y-813355D01*
X7981224Y-813355D01*
X7986849Y-806501D01*
X8016331Y-751344D01*
X8034486Y-691495D01*
X8040616Y-629254D01*
X8039080Y-397129D01*
X7959705Y-317754D01*
X7385080Y-317754D01*
X7258080Y-317754D01*
X6683455Y-317754D01*
X6604080Y-397129D01*
X6602544Y-629254D01*
X6540616Y-629254D01*
X6540616Y-239319D01*
X11878797Y-239319D01*
X11901257Y-408718D01*
X11956333Y-570482D01*
X12009332Y-669637D01*
X12146645Y-723553D01*
X12660197Y-210000D01*
X12839803Y-210000D01*
X13353355Y-723553D01*
X13490668Y-669637D01*
X13566107Y-516308D01*
X13610183Y-351208D01*
X13617413Y-239319D01*
X13878797Y-239319D01*
X13901257Y-408718D01*
X13956333Y-570482D01*
X14009332Y-669637D01*
X14146645Y-723553D01*
X14660197Y-210000D01*
X14839803Y-210000D01*
X15353355Y-723553D01*
X15490668Y-669637D01*
X15566107Y-516308D01*
X15610183Y-351208D01*
X15621203Y-180681D01*
X15598743Y-11282D01*
X15543667Y150482D01*
X15490668Y249637D01*
X15353355Y303553D01*
X14839803Y-210000D01*
X14660197Y-210000D01*
X14146645Y303553D01*
X14009332Y249637D01*
X13933893Y96308D01*
X13889817Y-68792D01*
X13878797Y-239319D01*
X13617413Y-239319D01*
X13621203Y-180681D01*
X13598743Y-11282D01*
X13543667Y150482D01*
X13490668Y249637D01*
X13353355Y303553D01*
X12839803Y-210000D01*
X12660197Y-210000D01*
X12146645Y303553D01*
X12009332Y249637D01*
X11933893Y96308D01*
X11889817Y-68792D01*
X11878797Y-239319D01*
X6540616Y-239319D01*
X6540616Y120746D01*
X6602544Y120746D01*
X6604080Y-111379D01*
X6683455Y-190754D01*
X7258080Y-190754D01*
X7258080Y358871D01*
X7385080Y358871D01*
X7385080Y-190754D01*
X7959705Y-190754D01*
X8039080Y-111379D01*
X8040616Y120746D01*
X8034486Y182987D01*
X8016331Y242836D01*
X7986849Y297993D01*
X7947173Y346339D01*
X7898827Y386015D01*
X7885095Y393355D01*
X12236447Y393355D01*
X12750000Y-120197D01*
X13263553Y393355D01*
X14236447Y393355D01*
X14750000Y-120197D01*
X15263553Y393355D01*
X15209637Y530668D01*
X15056308Y606107D01*
X14891208Y650183D01*
X14720681Y661203D01*
X14551282Y638743D01*
X14389518Y583667D01*
X14290363Y530668D01*
X14236447Y393355D01*
X13263553Y393355D01*
X13209637Y530668D01*
X13056308Y606107D01*
X12891208Y650183D01*
X12720681Y661203D01*
X12551282Y638743D01*
X12389518Y583667D01*
X12290363Y530668D01*
X12236447Y393355D01*
X7885095Y393355D01*
X7843670Y415497D01*
X7783821Y433652D01*
X7721580Y439782D01*
X7464455Y438246D01*
X7385080Y358871D01*
X7258080Y358871D01*
X7178705Y438246D01*
X6921580Y439782D01*
X6859339Y433652D01*
X6799490Y415497D01*
X6744333Y386015D01*
X6695987Y346339D01*
X6656311Y297993D01*
X6626829Y242836D01*
X6608674Y182987D01*
X6602544Y120746D01*
X6540616Y120746D01*
X6534486Y182987D01*
X6516331Y242836D01*
X6486849Y297993D01*
X6447173Y346339D01*
X6398827Y386015D01*
X6343670Y415497D01*
X6283821Y433652D01*
X6221580Y439782D01*
X5421580Y439782D01*
X5359339Y433652D01*
X5299490Y415497D01*
X5244333Y386015D01*
X5198611Y348493D01*
X5167232Y369460D01*
X5018456Y431084D01*
X4860517Y462500D01*
X4699483Y462500D01*
X4541544Y431084D01*
X4392768Y369460D01*
X4258874Y279994D01*
X4145006Y166126D01*
X4055540Y32232D01*
X3993916Y-116544D01*
X3962500Y-274483D01*
X3517500Y-274483D01*
X3517500Y346444D01*
X3382325Y1026017D01*
X3175425Y1525517D01*
X3962500Y1525517D01*
X3962500Y1364483D01*
X3993916Y1206544D01*
X4055540Y1057768D01*
X4145006Y923874D01*
X4258874Y810006D01*
X4392768Y720540D01*
X4541544Y658916D01*
X4699483Y627500D01*
X4860517Y627500D01*
X5018456Y658916D01*
X5167232Y720540D01*
X5301126Y810006D01*
X5385792Y894672D01*
X5434280Y889896D01*
X6234280Y889896D01*
X6296521Y896026D01*
X6356370Y914181D01*
X6411527Y943663D01*
X6459873Y983339D01*
X6499549Y1031685D01*
X6529031Y1086842D01*
X6547186Y1146691D01*
X6553316Y1208932D01*
X6615244Y1208932D01*
X6621374Y1146691D01*
X6639529Y1086842D01*
X6669011Y1031685D01*
X6708687Y983339D01*
X6757033Y943663D01*
X6812190Y914181D01*
X6872039Y896026D01*
X6934280Y889896D01*
X7191405Y891432D01*
X7270780Y970807D01*
X7270780Y1520432D01*
X7397780Y1520432D01*
X7397780Y970807D01*
X7477155Y891432D01*
X7734280Y889896D01*
X7796521Y896026D01*
X7856370Y914181D01*
X7911527Y943663D01*
X7959873Y983339D01*
X7999549Y1031685D01*
X8029031Y1086842D01*
X8047186Y1146691D01*
X8053316Y1208932D01*
X8051780Y1441057D01*
X7972405Y1520432D01*
X7397780Y1520432D01*
X7270780Y1520432D01*
X6696155Y1520432D01*
X6616780Y1441057D01*
X6615244Y1208932D01*
X6553316Y1208932D01*
X6553316Y1958932D01*
X6615244Y1958932D01*
X6616780Y1726807D01*
X6696155Y1647432D01*
X7270780Y1647432D01*
X7270780Y2197057D01*
X7397780Y2197057D01*
X7397780Y1647432D01*
X7972405Y1647432D01*
X8051780Y1726807D01*
X8053316Y1958932D01*
X8047186Y2021173D01*
X8029031Y2081022D01*
X7999549Y2136179D01*
X7959873Y2184525D01*
X7911527Y2224201D01*
X7856370Y2253683D01*
X7796521Y2271838D01*
X7734280Y2277968D01*
X7477155Y2276432D01*
X7397780Y2197057D01*
X7270780Y2197057D01*
X7191405Y2276432D01*
X6934280Y2277968D01*
X6872039Y2271838D01*
X6812190Y2253683D01*
X6757033Y2224201D01*
X6708687Y2184525D01*
X6669011Y2136179D01*
X6639529Y2081022D01*
X6621374Y2021173D01*
X6615244Y1958932D01*
X6553316Y1958932D01*
X6547186Y2021173D01*
X6529031Y2081022D01*
X6499549Y2136179D01*
X6459873Y2184525D01*
X6411527Y2224201D01*
X6356370Y2253683D01*
X6296521Y2271838D01*
X6234280Y2277968D01*
X5434280Y2277968D01*
X5372039Y2271838D01*
X5312190Y2253683D01*
X5257033Y2224201D01*
X5208687Y2184525D01*
X5186021Y2156906D01*
X5167232Y2169460D01*
X5018456Y2231084D01*
X4860517Y2262500D01*
X4699483Y2262500D01*
X4541544Y2231084D01*
X4392768Y2169460D01*
X4258874Y2079994D01*
X4145006Y1966126D01*
X4055540Y1832232D01*
X3993916Y1683456D01*
X3962500Y1525517D01*
X3175425Y1525517D01*
X3117168Y1666161D01*
X2732221Y2242276D01*
X2242276Y2732221D01*
X1666161Y3117168D01*
X1163164Y3325517D01*
X3962500Y3325517D01*
X3962500Y3164483D01*
X3993916Y3006544D01*
X4055540Y2857768D01*
X4145006Y2723874D01*
X4258874Y2610006D01*
X4392768Y2520540D01*
X4541544Y2458916D01*
X4699483Y2427500D01*
X4860517Y2427500D01*
X5018456Y2458916D01*
X5167232Y2520540D01*
X5301126Y2610006D01*
X5414994Y2723874D01*
X5418824Y2729606D01*
X5434280Y2728084D01*
X6234280Y2728084D01*
X6296521Y2734214D01*
X6356370Y2752369D01*
X6411527Y2781851D01*
X6459873Y2821527D01*
X6499549Y2869873D01*
X6529031Y2925030D01*
X6547186Y2984879D01*
X6553316Y3047120D01*
X6615244Y3047120D01*
X6621374Y2984879D01*
X6639529Y2925030D01*
X6669011Y2869873D01*
X6708687Y2821527D01*
X6757033Y2781851D01*
X6812190Y2752369D01*
X6872039Y2734214D01*
X6934280Y2728084D01*
X7191405Y2729620D01*
X7270780Y2808995D01*
X7270780Y3358620D01*
X7397780Y3358620D01*
X7397780Y2808995D01*
X7477155Y2729620D01*
X7734280Y2728084D01*
X7796521Y2734214D01*
X7856370Y2752369D01*
X7911527Y2781851D01*
X7959873Y2821527D01*
X7975033Y2840000D01*
X11880964Y2840000D01*
X11880964Y1740000D01*
X11887094Y1677759D01*
X11905249Y1617910D01*
X11934731Y1562753D01*
X11974407Y1514407D01*
X12022753Y1474731D01*
X12077910Y1445249D01*
X12137759Y1427094D01*
X12200000Y1420964D01*
X13300000Y1420964D01*
X13362241Y1427094D01*
X13422090Y1445249D01*
X13477247Y1474731D01*
X13525593Y1514407D01*
X13565269Y1562753D01*
X13594751Y1617910D01*
X13612906Y1677759D01*
X13613781Y1686645D01*
X14236447Y1686645D01*
X14290363Y1549332D01*
X14443692Y1473893D01*
X14608792Y1429817D01*
X14779319Y1418797D01*
X14948718Y1441257D01*
X15110482Y1496333D01*
X15209637Y1549332D01*
X15263553Y1686645D01*
X14750000Y2200197D01*
X14236447Y1686645D01*
X13613781Y1686645D01*
X13619036Y1740000D01*
X13619036Y2260681D01*
X13878797Y2260681D01*
X13901257Y2091282D01*
X13956333Y1929518D01*
X14009332Y1830363D01*
X14146645Y1776447D01*
X14660197Y2290000D01*
X14839803Y2290000D01*
X15353355Y1776447D01*
X15490668Y1830363D01*
X15566107Y1983692D01*
X15610183Y2148792D01*
X15621203Y2319319D01*
X15598743Y2488718D01*
X15543667Y2650482D01*
X15490668Y2749637D01*
X15353355Y2803553D01*
X14839803Y2290000D01*
X14660197Y2290000D01*
X14146645Y2803553D01*
X14009332Y2749637D01*
X13933893Y2596308D01*
X13889817Y2431208D01*
X13878797Y2260681D01*
X13619036Y2260681D01*
X13619036Y2840000D01*
X13613782Y2893355D01*
X14236447Y2893355D01*
X14750000Y2379803D01*
X15263553Y2893355D01*
X15209637Y3030668D01*
X15056308Y3106107D01*
X14891208Y3150183D01*
X14720681Y3161203D01*
X14551282Y3138743D01*
X14389518Y3083667D01*
X14290363Y3030668D01*
X14236447Y2893355D01*
X13613782Y2893355D01*
X13612906Y2902241D01*
X13594751Y2962090D01*
X13565269Y3017247D01*
X13525593Y3065593D01*
X13477247Y3105269D01*
X13422090Y3134751D01*
X13362241Y3152906D01*
X13300000Y3159036D01*
X12200000Y3159036D01*
X12137759Y3152906D01*
X12077910Y3134751D01*
X12022753Y3105269D01*
X11974407Y3065593D01*
X11934731Y3017247D01*
X11905249Y2962090D01*
X11887094Y2902241D01*
X11880964Y2840000D01*
X7975033Y2840000D01*
X7999549Y2869873D01*
X8029031Y2925030D01*
X8047186Y2984879D01*
X8053316Y3047120D01*
X8051780Y3279245D01*
X7972405Y3358620D01*
X7397780Y3358620D01*
X7270780Y3358620D01*
X6696155Y3358620D01*
X6616780Y3279245D01*
X6615244Y3047120D01*
X6553316Y3047120D01*
X6553316Y3797120D01*
X6615244Y3797120D01*
X6616780Y3564995D01*
X6696155Y3485620D01*
X7270780Y3485620D01*
X7270780Y4035245D01*
X7397780Y4035245D01*
X7397780Y3485620D01*
X7972405Y3485620D01*
X8051780Y3564995D01*
X8052584Y3686645D01*
X13236447Y3686645D01*
X13290363Y3549332D01*
X13443692Y3473893D01*
X13608792Y3429817D01*
X13779319Y3418797D01*
X13948718Y3441257D01*
X14110482Y3496333D01*
X14209637Y3549332D01*
X14263553Y3686645D01*
X13750000Y4200197D01*
X13236447Y3686645D01*
X8052584Y3686645D01*
X8053316Y3797120D01*
X8047186Y3859361D01*
X8029031Y3919210D01*
X7999549Y3974367D01*
X7959873Y4022713D01*
X7911527Y4062389D01*
X7856370Y4091871D01*
X7796521Y4110026D01*
X7734280Y4116156D01*
X7477155Y4114620D01*
X7397780Y4035245D01*
X7270780Y4035245D01*
X7191405Y4114620D01*
X6934280Y4116156D01*
X6872039Y4110026D01*
X6812190Y4091871D01*
X6757033Y4062389D01*
X6708687Y4022713D01*
X6669011Y3974367D01*
X6639529Y3919210D01*
X6621374Y3859361D01*
X6615244Y3797120D01*
X6553316Y3797120D01*
X6547186Y3859361D01*
X6529031Y3919210D01*
X6499549Y3974367D01*
X6459873Y4022713D01*
X6411527Y4062389D01*
X6356370Y4091871D01*
X6296521Y4110026D01*
X6234280Y4116156D01*
X5434280Y4116156D01*
X5372039Y4110026D01*
X5312190Y4091871D01*
X5257033Y4062389D01*
X5208687Y4022713D01*
X5181529Y3989620D01*
X5118561Y3989620D01*
X5018456Y4031084D01*
X4860517Y4062500D01*
X4699483Y4062500D01*
X4541544Y4031084D01*
X4392768Y3969460D01*
X4258874Y3879994D01*
X4145006Y3766126D01*
X4055540Y3632232D01*
X3993916Y3483456D01*
X3962500Y3325517D01*
X1163164Y3325517D01*
X1026017Y3382325D01*
X346444Y3517500D01*
X-346444Y3517500D01*
X-1026017Y3382325D01*
X-1666161Y3117168D01*
X-2242276Y2732221D01*
X-2732221Y2242276D01*
X-3117168Y1666161D01*
X-3382325Y1026017D01*
X-3517500Y346444D01*
X-8639537Y346444D01*
X-8686183Y4124676D01*
X-8554868Y4260681D01*
X12878797Y4260681D01*
X12901257Y4091282D01*
X12956333Y3929518D01*
X13009332Y3830363D01*
X13146645Y3776447D01*
X13660197Y4290000D01*
X13839803Y4290000D01*
X14353355Y3776447D01*
X14490668Y3830363D01*
X14566107Y3983692D01*
X14610183Y4148792D01*
X14621203Y4319319D01*
X14598743Y4488718D01*
X14543667Y4650482D01*
X14490668Y4749637D01*
X14353355Y4803553D01*
X13839803Y4290000D01*
X13660197Y4290000D01*
X13146645Y4803553D01*
X13009332Y4749637D01*
X12933893Y4596308D01*
X12889817Y4431208D01*
X12878797Y4260681D01*
X-8554868Y4260681D01*
X-7915870Y4922500D01*
X13247891Y4922500D01*
X13236447Y4893355D01*
M02*
