G04 #@! TF.GenerationSoftware,KiCad,Pcbnew,(5.1.5)-3*
G04 #@! TF.CreationDate,2021-02-17T14:45:43+01:00*
G04 #@! TF.ProjectId,riser leopard 1OU,72697365-7220-46c6-956f-706172642031,rev?*
G04 #@! TF.SameCoordinates,PX4a62f80PY5f5e100*
G04 #@! TF.FileFunction,Other,Fab,Top*
%FSLAX46Y46*%
G04 Gerber Fmt 4.6, Leading zero omitted, Abs format (unit mm)*
G04 Created by KiCad (PCBNEW (5.1.5)-3) date 2021-02-17 14:45:43*
%MOMM*%
%LPD*%
G04 APERTURE LIST*
%ADD10C,0.100000*%
%ADD11C,0.150000*%
%ADD12C,0.075000*%
G04 APERTURE END LIST*
D10*
X43200420Y-17409600D02*
X43200420Y-16169600D01*
X45200420Y-17409600D02*
X43200420Y-17409600D01*
X45200420Y-16169600D02*
X45200420Y-17409600D01*
X43200420Y-16169600D02*
X45200420Y-16169600D01*
X84407840Y-13358880D02*
X84407840Y-15358880D01*
X84407840Y-15358880D02*
X83167840Y-15358880D01*
X83167840Y-15358880D02*
X83167840Y-13358880D01*
X83167840Y-13358880D02*
X84407840Y-13358880D01*
X13449300Y-6274900D02*
X11849300Y-6274900D01*
X11849300Y-6274900D02*
X11849300Y-5474900D01*
X11849300Y-5474900D02*
X13449300Y-5474900D01*
X13449300Y-5474900D02*
X13449300Y-6274900D01*
X13449300Y-7189400D02*
X13449300Y-7989400D01*
X11849300Y-7189400D02*
X13449300Y-7189400D01*
X11849300Y-7989400D02*
X11849300Y-7189400D01*
X13449300Y-7989400D02*
X11849300Y-7989400D01*
X13149300Y-9477700D02*
X12149300Y-9477700D01*
X12149300Y-9477700D02*
X12149300Y-8977700D01*
X12149300Y-8977700D02*
X13149300Y-8977700D01*
X13149300Y-8977700D02*
X13149300Y-9477700D01*
X21695100Y-11363000D02*
X23295100Y-11363000D01*
X23295100Y-11363000D02*
X23295100Y-12163000D01*
X23295100Y-12163000D02*
X21695100Y-12163000D01*
X21695100Y-12163000D02*
X21695100Y-11363000D01*
X21791900Y-10336600D02*
X21791900Y-9836600D01*
X22791900Y-10336600D02*
X21791900Y-10336600D01*
X22791900Y-9836600D02*
X22791900Y-10336600D01*
X21791900Y-9836600D02*
X22791900Y-9836600D01*
X7384280Y1183932D02*
X5784280Y1183932D01*
X5784280Y1183932D02*
X5784280Y1983932D01*
X5784280Y1983932D02*
X7384280Y1983932D01*
X7384280Y1983932D02*
X7384280Y1183932D01*
X7371580Y145746D02*
X7371580Y-654254D01*
X5771580Y145746D02*
X7371580Y145746D01*
X5771580Y-654254D02*
X5771580Y145746D01*
X7371580Y-654254D02*
X5771580Y-654254D01*
X7048720Y-1697440D02*
X7048720Y-2197440D01*
X6048720Y-1697440D02*
X7048720Y-1697440D01*
X6048720Y-2197440D02*
X6048720Y-1697440D01*
X7048720Y-2197440D02*
X6048720Y-2197440D01*
X7384280Y3822120D02*
X7384280Y3022120D01*
X5784280Y3822120D02*
X7384280Y3822120D01*
X5784280Y3022120D02*
X5784280Y3822120D01*
X7384280Y3022120D02*
X5784280Y3022120D01*
D11*
X89366276Y-4165361D02*
X89271038Y-4212980D01*
X89080561Y-4212980D01*
X88985323Y-4165361D01*
X88937704Y-4117742D01*
X88890085Y-4022504D01*
X88890085Y-3736790D01*
X88937704Y-3641552D01*
X88985323Y-3593933D01*
X89080561Y-3546314D01*
X89271038Y-3546314D01*
X89366276Y-3593933D01*
X89937704Y-4212980D02*
X89842466Y-4165361D01*
X89794847Y-4117742D01*
X89747228Y-4022504D01*
X89747228Y-3736790D01*
X89794847Y-3641552D01*
X89842466Y-3593933D01*
X89937704Y-3546314D01*
X90080561Y-3546314D01*
X90175800Y-3593933D01*
X90223419Y-3641552D01*
X90271038Y-3736790D01*
X90271038Y-4022504D01*
X90223419Y-4117742D01*
X90175800Y-4165361D01*
X90080561Y-4212980D01*
X89937704Y-4212980D01*
X90699609Y-3546314D02*
X90699609Y-4212980D01*
X90699609Y-3641552D02*
X90747228Y-3593933D01*
X90842466Y-3546314D01*
X90985323Y-3546314D01*
X91080561Y-3593933D01*
X91128180Y-3689171D01*
X91128180Y-4212980D01*
X91604371Y-3546314D02*
X91604371Y-4212980D01*
X91604371Y-3641552D02*
X91651990Y-3593933D01*
X91747228Y-3546314D01*
X91890085Y-3546314D01*
X91985323Y-3593933D01*
X92032942Y-3689171D01*
X92032942Y-4212980D01*
X92890085Y-4165361D02*
X92794847Y-4212980D01*
X92604371Y-4212980D01*
X92509133Y-4165361D01*
X92461514Y-4070123D01*
X92461514Y-3689171D01*
X92509133Y-3593933D01*
X92604371Y-3546314D01*
X92794847Y-3546314D01*
X92890085Y-3593933D01*
X92937704Y-3689171D01*
X92937704Y-3784409D01*
X92461514Y-3879647D01*
X93794847Y-4165361D02*
X93699609Y-4212980D01*
X93509133Y-4212980D01*
X93413895Y-4165361D01*
X93366276Y-4117742D01*
X93318657Y-4022504D01*
X93318657Y-3736790D01*
X93366276Y-3641552D01*
X93413895Y-3593933D01*
X93509133Y-3546314D01*
X93699609Y-3546314D01*
X93794847Y-3593933D01*
X94080561Y-3546314D02*
X94461514Y-3546314D01*
X94223419Y-3212980D02*
X94223419Y-4070123D01*
X94271038Y-4165361D01*
X94366276Y-4212980D01*
X94461514Y-4212980D01*
X94937704Y-4212980D02*
X94842466Y-4165361D01*
X94794847Y-4117742D01*
X94747228Y-4022504D01*
X94747228Y-3736790D01*
X94794847Y-3641552D01*
X94842466Y-3593933D01*
X94937704Y-3546314D01*
X95080561Y-3546314D01*
X95175800Y-3593933D01*
X95223419Y-3641552D01*
X95271038Y-3736790D01*
X95271038Y-4022504D01*
X95223419Y-4117742D01*
X95175800Y-4165361D01*
X95080561Y-4212980D01*
X94937704Y-4212980D01*
X95699609Y-4212980D02*
X95699609Y-3546314D01*
X95699609Y-3736790D02*
X95747228Y-3641552D01*
X95794847Y-3593933D01*
X95890085Y-3546314D01*
X95985323Y-3546314D01*
X96080561Y-4308219D02*
X96842466Y-4308219D01*
X97080561Y-3546314D02*
X97080561Y-4546314D01*
X97080561Y-3593933D02*
X97175800Y-3546314D01*
X97366276Y-3546314D01*
X97461514Y-3593933D01*
X97509133Y-3641552D01*
X97556752Y-3736790D01*
X97556752Y-4022504D01*
X97509133Y-4117742D01*
X97461514Y-4165361D01*
X97366276Y-4212980D01*
X97175800Y-4212980D01*
X97080561Y-4165361D01*
X98413895Y-4165361D02*
X98318657Y-4212980D01*
X98128180Y-4212980D01*
X98032942Y-4165361D01*
X97985323Y-4117742D01*
X97937704Y-4022504D01*
X97937704Y-3736790D01*
X97985323Y-3641552D01*
X98032942Y-3593933D01*
X98128180Y-3546314D01*
X98318657Y-3546314D01*
X98413895Y-3593933D01*
X98842466Y-4212980D02*
X98842466Y-3546314D01*
X98842466Y-3212980D02*
X98794847Y-3260600D01*
X98842466Y-3308219D01*
X98890085Y-3260600D01*
X98842466Y-3212980D01*
X98842466Y-3308219D01*
X99699609Y-4165361D02*
X99604371Y-4212980D01*
X99413895Y-4212980D01*
X99318657Y-4165361D01*
X99271038Y-4070123D01*
X99271038Y-3689171D01*
X99318657Y-3593933D01*
X99413895Y-3546314D01*
X99604371Y-3546314D01*
X99699609Y-3593933D01*
X99747228Y-3689171D01*
X99747228Y-3784409D01*
X99271038Y-3879647D01*
X100699609Y-4212980D02*
X100128180Y-4212980D01*
X100413895Y-4212980D02*
X100413895Y-3212980D01*
X100318657Y-3355838D01*
X100223419Y-3451076D01*
X100128180Y-3498695D01*
X101556752Y-3212980D02*
X101366276Y-3212980D01*
X101271038Y-3260600D01*
X101223419Y-3308219D01*
X101128180Y-3451076D01*
X101080561Y-3641552D01*
X101080561Y-4022504D01*
X101128180Y-4117742D01*
X101175800Y-4165361D01*
X101271038Y-4212980D01*
X101461514Y-4212980D01*
X101556752Y-4165361D01*
X101604371Y-4117742D01*
X101651990Y-4022504D01*
X101651990Y-3784409D01*
X101604371Y-3689171D01*
X101556752Y-3641552D01*
X101461514Y-3593933D01*
X101271038Y-3593933D01*
X101175800Y-3641552D01*
X101128180Y-3689171D01*
X101080561Y-3784409D01*
X101985323Y-4212980D02*
X102509133Y-3546314D01*
X101985323Y-3546314D02*
X102509133Y-4212980D01*
X44152800Y-17991980D02*
X44248039Y-17991980D01*
X44343277Y-18039600D01*
X44390896Y-18087219D01*
X44438515Y-18182457D01*
X44486134Y-18372933D01*
X44486134Y-18611028D01*
X44438515Y-18801504D01*
X44390896Y-18896742D01*
X44343277Y-18944361D01*
X44248039Y-18991980D01*
X44152800Y-18991980D01*
X44057562Y-18944361D01*
X44009943Y-18896742D01*
X43962324Y-18801504D01*
X43914705Y-18611028D01*
X43914705Y-18372933D01*
X43962324Y-18182457D01*
X44009943Y-18087219D01*
X44057562Y-18039600D01*
X44152800Y-17991980D01*
D12*
X44117086Y-17015790D02*
X43950420Y-16777695D01*
X43831372Y-17015790D02*
X43831372Y-16515790D01*
X44021848Y-16515790D01*
X44069467Y-16539600D01*
X44093277Y-16563409D01*
X44117086Y-16611028D01*
X44117086Y-16682457D01*
X44093277Y-16730076D01*
X44069467Y-16753885D01*
X44021848Y-16777695D01*
X43831372Y-16777695D01*
X44593277Y-17015790D02*
X44307562Y-17015790D01*
X44450420Y-17015790D02*
X44450420Y-16515790D01*
X44402800Y-16587219D01*
X44355181Y-16634838D01*
X44307562Y-16658647D01*
D11*
X81490220Y-14406499D02*
X81490220Y-14311260D01*
X81537840Y-14216022D01*
X81585459Y-14168403D01*
X81680697Y-14120784D01*
X81871173Y-14073165D01*
X82109268Y-14073165D01*
X82299744Y-14120784D01*
X82394982Y-14168403D01*
X82442601Y-14216022D01*
X82490220Y-14311260D01*
X82490220Y-14406499D01*
X82442601Y-14501737D01*
X82394982Y-14549356D01*
X82299744Y-14596975D01*
X82109268Y-14644594D01*
X81871173Y-14644594D01*
X81680697Y-14596975D01*
X81585459Y-14549356D01*
X81537840Y-14501737D01*
X81490220Y-14406499D01*
D12*
X84014030Y-14442213D02*
X83775935Y-14608880D01*
X84014030Y-14727927D02*
X83514030Y-14727927D01*
X83514030Y-14537451D01*
X83537840Y-14489832D01*
X83561649Y-14466022D01*
X83609268Y-14442213D01*
X83680697Y-14442213D01*
X83728316Y-14466022D01*
X83752125Y-14489832D01*
X83775935Y-14537451D01*
X83775935Y-14727927D01*
X83561649Y-14251737D02*
X83537840Y-14227927D01*
X83514030Y-14180308D01*
X83514030Y-14061260D01*
X83537840Y-14013641D01*
X83561649Y-13989832D01*
X83609268Y-13966022D01*
X83656887Y-13966022D01*
X83728316Y-13989832D01*
X84014030Y-14275546D01*
X84014030Y-13966022D01*
D11*
X10720728Y-4827280D02*
X10149300Y-4827280D01*
X10435014Y-4827280D02*
X10435014Y-3827280D01*
X10339776Y-3970138D01*
X10244538Y-4065376D01*
X10149300Y-4112995D01*
X11577871Y-4160614D02*
X11577871Y-4827280D01*
X11149300Y-4160614D02*
X11149300Y-4684423D01*
X11196919Y-4779661D01*
X11292157Y-4827280D01*
X11435014Y-4827280D01*
X11530252Y-4779661D01*
X11577871Y-4732042D01*
X13339776Y-4827280D02*
X12768347Y-4827280D01*
X13054061Y-4827280D02*
X13054061Y-3827280D01*
X12958823Y-3970138D01*
X12863585Y-4065376D01*
X12768347Y-4112995D01*
X13958823Y-3827280D02*
X14054061Y-3827280D01*
X14149300Y-3874900D01*
X14196919Y-3922519D01*
X14244538Y-4017757D01*
X14292157Y-4208233D01*
X14292157Y-4446328D01*
X14244538Y-4636804D01*
X14196919Y-4732042D01*
X14149300Y-4779661D01*
X14054061Y-4827280D01*
X13958823Y-4827280D01*
X13863585Y-4779661D01*
X13815966Y-4732042D01*
X13768347Y-4636804D01*
X13720728Y-4446328D01*
X13720728Y-4208233D01*
X13768347Y-4017757D01*
X13815966Y-3922519D01*
X13863585Y-3874900D01*
X13958823Y-3827280D01*
X14577871Y-3827280D02*
X14911204Y-4827280D01*
X15244538Y-3827280D01*
D12*
X12599300Y-5982042D02*
X12585014Y-5996328D01*
X12542157Y-6010614D01*
X12513585Y-6010614D01*
X12470728Y-5996328D01*
X12442157Y-5967757D01*
X12427871Y-5939185D01*
X12413585Y-5882042D01*
X12413585Y-5839185D01*
X12427871Y-5782042D01*
X12442157Y-5753471D01*
X12470728Y-5724900D01*
X12513585Y-5710614D01*
X12542157Y-5710614D01*
X12585014Y-5724900D01*
X12599300Y-5739185D01*
X12713585Y-5739185D02*
X12727871Y-5724900D01*
X12756442Y-5710614D01*
X12827871Y-5710614D01*
X12856442Y-5724900D01*
X12870728Y-5739185D01*
X12885014Y-5767757D01*
X12885014Y-5796328D01*
X12870728Y-5839185D01*
X12699300Y-6010614D01*
X12885014Y-6010614D01*
D11*
X10720728Y-6541780D02*
X10149300Y-6541780D01*
X10435014Y-6541780D02*
X10435014Y-5541780D01*
X10339776Y-5684638D01*
X10244538Y-5779876D01*
X10149300Y-5827495D01*
X11577871Y-5875114D02*
X11577871Y-6541780D01*
X11149300Y-5875114D02*
X11149300Y-6398923D01*
X11196919Y-6494161D01*
X11292157Y-6541780D01*
X11435014Y-6541780D01*
X11530252Y-6494161D01*
X11577871Y-6446542D01*
X13339776Y-6541780D02*
X12768347Y-6541780D01*
X13054061Y-6541780D02*
X13054061Y-5541780D01*
X12958823Y-5684638D01*
X12863585Y-5779876D01*
X12768347Y-5827495D01*
X13958823Y-5541780D02*
X14054061Y-5541780D01*
X14149300Y-5589400D01*
X14196919Y-5637019D01*
X14244538Y-5732257D01*
X14292157Y-5922733D01*
X14292157Y-6160828D01*
X14244538Y-6351304D01*
X14196919Y-6446542D01*
X14149300Y-6494161D01*
X14054061Y-6541780D01*
X13958823Y-6541780D01*
X13863585Y-6494161D01*
X13815966Y-6446542D01*
X13768347Y-6351304D01*
X13720728Y-6160828D01*
X13720728Y-5922733D01*
X13768347Y-5732257D01*
X13815966Y-5637019D01*
X13863585Y-5589400D01*
X13958823Y-5541780D01*
X14577871Y-5541780D02*
X14911204Y-6541780D01*
X15244538Y-5541780D01*
D12*
X12599300Y-7696542D02*
X12585014Y-7710828D01*
X12542157Y-7725114D01*
X12513585Y-7725114D01*
X12470728Y-7710828D01*
X12442157Y-7682257D01*
X12427871Y-7653685D01*
X12413585Y-7596542D01*
X12413585Y-7553685D01*
X12427871Y-7496542D01*
X12442157Y-7467971D01*
X12470728Y-7439400D01*
X12513585Y-7425114D01*
X12542157Y-7425114D01*
X12585014Y-7439400D01*
X12599300Y-7453685D01*
X12699300Y-7425114D02*
X12885014Y-7425114D01*
X12785014Y-7539400D01*
X12827871Y-7539400D01*
X12856442Y-7553685D01*
X12870728Y-7567971D01*
X12885014Y-7596542D01*
X12885014Y-7667971D01*
X12870728Y-7696542D01*
X12856442Y-7710828D01*
X12827871Y-7725114D01*
X12742157Y-7725114D01*
X12713585Y-7710828D01*
X12699300Y-7696542D01*
D11*
X9673109Y-7410080D02*
X9768347Y-7410080D01*
X9863585Y-7457700D01*
X9911204Y-7505319D01*
X9958823Y-7600557D01*
X10006442Y-7791033D01*
X10006442Y-8029128D01*
X9958823Y-8219604D01*
X9911204Y-8314842D01*
X9863585Y-8362461D01*
X9768347Y-8410080D01*
X9673109Y-8410080D01*
X9577871Y-8362461D01*
X9530252Y-8314842D01*
X9482633Y-8219604D01*
X9435014Y-8029128D01*
X9435014Y-7791033D01*
X9482633Y-7600557D01*
X9530252Y-7505319D01*
X9577871Y-7457700D01*
X9673109Y-7410080D01*
X10435014Y-8314842D02*
X10482633Y-8362461D01*
X10435014Y-8410080D01*
X10387395Y-8362461D01*
X10435014Y-8314842D01*
X10435014Y-8410080D01*
X11435014Y-8410080D02*
X10863585Y-8410080D01*
X11149300Y-8410080D02*
X11149300Y-7410080D01*
X11054061Y-7552938D01*
X10958823Y-7648176D01*
X10863585Y-7695795D01*
X12292157Y-7743414D02*
X12292157Y-8410080D01*
X11863585Y-7743414D02*
X11863585Y-8267223D01*
X11911204Y-8362461D01*
X12006442Y-8410080D01*
X12149300Y-8410080D01*
X12244538Y-8362461D01*
X12292157Y-8314842D01*
X14054061Y-8410080D02*
X13482633Y-8410080D01*
X13768347Y-8410080D02*
X13768347Y-7410080D01*
X13673109Y-7552938D01*
X13577871Y-7648176D01*
X13482633Y-7695795D01*
X14673109Y-7410080D02*
X14768347Y-7410080D01*
X14863585Y-7457700D01*
X14911204Y-7505319D01*
X14958823Y-7600557D01*
X15006442Y-7791033D01*
X15006442Y-8029128D01*
X14958823Y-8219604D01*
X14911204Y-8314842D01*
X14863585Y-8362461D01*
X14768347Y-8410080D01*
X14673109Y-8410080D01*
X14577871Y-8362461D01*
X14530252Y-8314842D01*
X14482633Y-8219604D01*
X14435014Y-8029128D01*
X14435014Y-7791033D01*
X14482633Y-7600557D01*
X14530252Y-7505319D01*
X14577871Y-7457700D01*
X14673109Y-7410080D01*
X15292157Y-7410080D02*
X15625490Y-8410080D01*
X15958823Y-7410080D01*
X12482633Y-10854842D02*
X12435014Y-10902461D01*
X12292157Y-10950080D01*
X12196919Y-10950080D01*
X12054061Y-10902461D01*
X11958823Y-10807223D01*
X11911204Y-10711985D01*
X11863585Y-10521509D01*
X11863585Y-10378652D01*
X11911204Y-10188176D01*
X11958823Y-10092938D01*
X12054061Y-9997700D01*
X12196919Y-9950080D01*
X12292157Y-9950080D01*
X12435014Y-9997700D01*
X12482633Y-10045319D01*
X13339776Y-10283414D02*
X13339776Y-10950080D01*
X13101680Y-9902461D02*
X12863585Y-10616747D01*
X13482633Y-10616747D01*
X20566528Y-13715380D02*
X19995100Y-13715380D01*
X20280814Y-13715380D02*
X20280814Y-12715380D01*
X20185576Y-12858238D01*
X20090338Y-12953476D01*
X19995100Y-13001095D01*
X21423671Y-13048714D02*
X21423671Y-13715380D01*
X20995100Y-13048714D02*
X20995100Y-13572523D01*
X21042719Y-13667761D01*
X21137957Y-13715380D01*
X21280814Y-13715380D01*
X21376052Y-13667761D01*
X21423671Y-13620142D01*
X23185576Y-13715380D02*
X22614147Y-13715380D01*
X22899861Y-13715380D02*
X22899861Y-12715380D01*
X22804623Y-12858238D01*
X22709385Y-12953476D01*
X22614147Y-13001095D01*
X23804623Y-12715380D02*
X23899861Y-12715380D01*
X23995100Y-12763000D01*
X24042719Y-12810619D01*
X24090338Y-12905857D01*
X24137957Y-13096333D01*
X24137957Y-13334428D01*
X24090338Y-13524904D01*
X24042719Y-13620142D01*
X23995100Y-13667761D01*
X23899861Y-13715380D01*
X23804623Y-13715380D01*
X23709385Y-13667761D01*
X23661766Y-13620142D01*
X23614147Y-13524904D01*
X23566528Y-13334428D01*
X23566528Y-13096333D01*
X23614147Y-12905857D01*
X23661766Y-12810619D01*
X23709385Y-12763000D01*
X23804623Y-12715380D01*
X24423671Y-12715380D02*
X24757004Y-13715380D01*
X25090338Y-12715380D01*
D12*
X22445100Y-11870142D02*
X22430814Y-11884428D01*
X22387957Y-11898714D01*
X22359385Y-11898714D01*
X22316528Y-11884428D01*
X22287957Y-11855857D01*
X22273671Y-11827285D01*
X22259385Y-11770142D01*
X22259385Y-11727285D01*
X22273671Y-11670142D01*
X22287957Y-11641571D01*
X22316528Y-11613000D01*
X22359385Y-11598714D01*
X22387957Y-11598714D01*
X22430814Y-11613000D01*
X22445100Y-11627285D01*
X22716528Y-11598714D02*
X22573671Y-11598714D01*
X22559385Y-11741571D01*
X22573671Y-11727285D01*
X22602242Y-11713000D01*
X22673671Y-11713000D01*
X22702242Y-11727285D01*
X22716528Y-11741571D01*
X22730814Y-11770142D01*
X22730814Y-11841571D01*
X22716528Y-11870142D01*
X22702242Y-11884428D01*
X22673671Y-11898714D01*
X22602242Y-11898714D01*
X22573671Y-11884428D01*
X22559385Y-11870142D01*
D11*
X19315709Y-10808980D02*
X19410947Y-10808980D01*
X19506185Y-10856600D01*
X19553804Y-10904219D01*
X19601423Y-10999457D01*
X19649042Y-11189933D01*
X19649042Y-11428028D01*
X19601423Y-11618504D01*
X19553804Y-11713742D01*
X19506185Y-11761361D01*
X19410947Y-11808980D01*
X19315709Y-11808980D01*
X19220471Y-11761361D01*
X19172852Y-11713742D01*
X19125233Y-11618504D01*
X19077614Y-11428028D01*
X19077614Y-11189933D01*
X19125233Y-10999457D01*
X19172852Y-10904219D01*
X19220471Y-10856600D01*
X19315709Y-10808980D01*
X20077614Y-11713742D02*
X20125233Y-11761361D01*
X20077614Y-11808980D01*
X20029995Y-11761361D01*
X20077614Y-11713742D01*
X20077614Y-11808980D01*
X21077614Y-11808980D02*
X20506185Y-11808980D01*
X20791900Y-11808980D02*
X20791900Y-10808980D01*
X20696661Y-10951838D01*
X20601423Y-11047076D01*
X20506185Y-11094695D01*
X21934757Y-11142314D02*
X21934757Y-11808980D01*
X21506185Y-11142314D02*
X21506185Y-11666123D01*
X21553804Y-11761361D01*
X21649042Y-11808980D01*
X21791900Y-11808980D01*
X21887138Y-11761361D01*
X21934757Y-11713742D01*
X23696661Y-11808980D02*
X23125233Y-11808980D01*
X23410947Y-11808980D02*
X23410947Y-10808980D01*
X23315709Y-10951838D01*
X23220471Y-11047076D01*
X23125233Y-11094695D01*
X24315709Y-10808980D02*
X24410947Y-10808980D01*
X24506185Y-10856600D01*
X24553804Y-10904219D01*
X24601423Y-10999457D01*
X24649042Y-11189933D01*
X24649042Y-11428028D01*
X24601423Y-11618504D01*
X24553804Y-11713742D01*
X24506185Y-11761361D01*
X24410947Y-11808980D01*
X24315709Y-11808980D01*
X24220471Y-11761361D01*
X24172852Y-11713742D01*
X24125233Y-11618504D01*
X24077614Y-11428028D01*
X24077614Y-11189933D01*
X24125233Y-10999457D01*
X24172852Y-10904219D01*
X24220471Y-10856600D01*
X24315709Y-10808980D01*
X24934757Y-10808980D02*
X25268090Y-11808980D01*
X25601423Y-10808980D01*
X22125233Y-9173742D02*
X22077614Y-9221361D01*
X21934757Y-9268980D01*
X21839519Y-9268980D01*
X21696661Y-9221361D01*
X21601423Y-9126123D01*
X21553804Y-9030885D01*
X21506185Y-8840409D01*
X21506185Y-8697552D01*
X21553804Y-8507076D01*
X21601423Y-8411838D01*
X21696661Y-8316600D01*
X21839519Y-8268980D01*
X21934757Y-8268980D01*
X22077614Y-8316600D01*
X22125233Y-8364219D01*
X22982376Y-8268980D02*
X22791900Y-8268980D01*
X22696661Y-8316600D01*
X22649042Y-8364219D01*
X22553804Y-8507076D01*
X22506185Y-8697552D01*
X22506185Y-9078504D01*
X22553804Y-9173742D01*
X22601423Y-9221361D01*
X22696661Y-9268980D01*
X22887138Y-9268980D01*
X22982376Y-9221361D01*
X23029995Y-9173742D01*
X23077614Y-9078504D01*
X23077614Y-8840409D01*
X23029995Y-8745171D01*
X22982376Y-8697552D01*
X22887138Y-8649933D01*
X22696661Y-8649933D01*
X22601423Y-8697552D01*
X22553804Y-8745171D01*
X22506185Y-8840409D01*
X4655708Y2631552D02*
X4084280Y2631552D01*
X4369994Y2631552D02*
X4369994Y3631552D01*
X4274756Y3488694D01*
X4179518Y3393456D01*
X4084280Y3345837D01*
X5512851Y3298218D02*
X5512851Y2631552D01*
X5084280Y3298218D02*
X5084280Y2774409D01*
X5131899Y2679171D01*
X5227137Y2631552D01*
X5369994Y2631552D01*
X5465232Y2679171D01*
X5512851Y2726790D01*
X6703327Y3536313D02*
X6750946Y3583932D01*
X6846184Y3631552D01*
X7084280Y3631552D01*
X7179518Y3583932D01*
X7227137Y3536313D01*
X7274756Y3441075D01*
X7274756Y3345837D01*
X7227137Y3202980D01*
X6655708Y2631552D01*
X7274756Y2631552D01*
X8179518Y3631552D02*
X7703327Y3631552D01*
X7655708Y3155361D01*
X7703327Y3202980D01*
X7798565Y3250599D01*
X8036660Y3250599D01*
X8131899Y3202980D01*
X8179518Y3155361D01*
X8227137Y3060123D01*
X8227137Y2822028D01*
X8179518Y2726790D01*
X8131899Y2679171D01*
X8036660Y2631552D01*
X7798565Y2631552D01*
X7703327Y2679171D01*
X7655708Y2726790D01*
X8512851Y3631552D02*
X8846184Y2631552D01*
X9179518Y3631552D01*
D12*
X6534280Y1476790D02*
X6519994Y1462504D01*
X6477137Y1448218D01*
X6448565Y1448218D01*
X6405708Y1462504D01*
X6377137Y1491075D01*
X6362851Y1519647D01*
X6348565Y1576790D01*
X6348565Y1619647D01*
X6362851Y1676790D01*
X6377137Y1705361D01*
X6405708Y1733932D01*
X6448565Y1748218D01*
X6477137Y1748218D01*
X6519994Y1733932D01*
X6534280Y1719647D01*
X6677137Y1448218D02*
X6734280Y1448218D01*
X6762851Y1462504D01*
X6777137Y1476790D01*
X6805708Y1519647D01*
X6819994Y1576790D01*
X6819994Y1691075D01*
X6805708Y1719647D01*
X6791422Y1733932D01*
X6762851Y1748218D01*
X6705708Y1748218D01*
X6677137Y1733932D01*
X6662851Y1719647D01*
X6648565Y1691075D01*
X6648565Y1619647D01*
X6662851Y1591075D01*
X6677137Y1576790D01*
X6705708Y1562504D01*
X6762851Y1562504D01*
X6791422Y1576790D01*
X6805708Y1591075D01*
X6819994Y1619647D01*
D11*
X4643008Y793366D02*
X4071580Y793366D01*
X4357294Y793366D02*
X4357294Y1793366D01*
X4262056Y1650508D01*
X4166818Y1555270D01*
X4071580Y1507651D01*
X5500151Y1460032D02*
X5500151Y793366D01*
X5071580Y1460032D02*
X5071580Y936223D01*
X5119199Y840985D01*
X5214437Y793366D01*
X5357294Y793366D01*
X5452532Y840985D01*
X5500151Y888604D01*
X6690627Y1698127D02*
X6738246Y1745746D01*
X6833484Y1793366D01*
X7071580Y1793366D01*
X7166818Y1745746D01*
X7214437Y1698127D01*
X7262056Y1602889D01*
X7262056Y1507651D01*
X7214437Y1364794D01*
X6643008Y793366D01*
X7262056Y793366D01*
X8166818Y1793366D02*
X7690627Y1793366D01*
X7643008Y1317175D01*
X7690627Y1364794D01*
X7785865Y1412413D01*
X8023960Y1412413D01*
X8119199Y1364794D01*
X8166818Y1317175D01*
X8214437Y1221937D01*
X8214437Y983842D01*
X8166818Y888604D01*
X8119199Y840985D01*
X8023960Y793366D01*
X7785865Y793366D01*
X7690627Y840985D01*
X7643008Y888604D01*
X8500151Y1793366D02*
X8833484Y793366D01*
X9166818Y1793366D01*
D12*
X6378722Y-361396D02*
X6364437Y-375682D01*
X6321580Y-389968D01*
X6293008Y-389968D01*
X6250151Y-375682D01*
X6221580Y-347111D01*
X6207294Y-318539D01*
X6193008Y-261396D01*
X6193008Y-218539D01*
X6207294Y-161396D01*
X6221580Y-132825D01*
X6250151Y-104254D01*
X6293008Y-89968D01*
X6321580Y-89968D01*
X6364437Y-104254D01*
X6378722Y-118539D01*
X6664437Y-389968D02*
X6493008Y-389968D01*
X6578722Y-389968D02*
X6578722Y-89968D01*
X6550151Y-132825D01*
X6521580Y-161396D01*
X6493008Y-175682D01*
X6850151Y-89968D02*
X6878722Y-89968D01*
X6907294Y-104254D01*
X6921580Y-118539D01*
X6935865Y-147111D01*
X6950151Y-204254D01*
X6950151Y-275682D01*
X6935865Y-332825D01*
X6921580Y-361396D01*
X6907294Y-375682D01*
X6878722Y-389968D01*
X6850151Y-389968D01*
X6821580Y-375682D01*
X6807294Y-361396D01*
X6793008Y-332825D01*
X6778722Y-275682D01*
X6778722Y-204254D01*
X6793008Y-147111D01*
X6807294Y-118539D01*
X6821580Y-104254D01*
X6850151Y-89968D01*
D11*
X3572529Y-129820D02*
X3667767Y-129820D01*
X3763005Y-177440D01*
X3810624Y-225059D01*
X3858243Y-320297D01*
X3905862Y-510773D01*
X3905862Y-748868D01*
X3858243Y-939344D01*
X3810624Y-1034582D01*
X3763005Y-1082201D01*
X3667767Y-1129820D01*
X3572529Y-1129820D01*
X3477291Y-1082201D01*
X3429672Y-1034582D01*
X3382053Y-939344D01*
X3334434Y-748868D01*
X3334434Y-510773D01*
X3382053Y-320297D01*
X3429672Y-225059D01*
X3477291Y-177440D01*
X3572529Y-129820D01*
X4334434Y-1034582D02*
X4382053Y-1082201D01*
X4334434Y-1129820D01*
X4286815Y-1082201D01*
X4334434Y-1034582D01*
X4334434Y-1129820D01*
X5334434Y-1129820D02*
X4763005Y-1129820D01*
X5048720Y-1129820D02*
X5048720Y-129820D01*
X4953481Y-272678D01*
X4858243Y-367916D01*
X4763005Y-415535D01*
X6191577Y-463154D02*
X6191577Y-1129820D01*
X5763005Y-463154D02*
X5763005Y-986963D01*
X5810624Y-1082201D01*
X5905862Y-1129820D01*
X6048720Y-1129820D01*
X6143958Y-1082201D01*
X6191577Y-1034582D01*
X7382053Y-225059D02*
X7429672Y-177440D01*
X7524910Y-129820D01*
X7763005Y-129820D01*
X7858243Y-177440D01*
X7905862Y-225059D01*
X7953481Y-320297D01*
X7953481Y-415535D01*
X7905862Y-558392D01*
X7334434Y-1129820D01*
X7953481Y-1129820D01*
X8858243Y-129820D02*
X8382053Y-129820D01*
X8334434Y-606011D01*
X8382053Y-558392D01*
X8477291Y-510773D01*
X8715386Y-510773D01*
X8810624Y-558392D01*
X8858243Y-606011D01*
X8905862Y-701249D01*
X8905862Y-939344D01*
X8858243Y-1034582D01*
X8810624Y-1082201D01*
X8715386Y-1129820D01*
X8477291Y-1129820D01*
X8382053Y-1082201D01*
X8334434Y-1034582D01*
X9191577Y-129820D02*
X9524910Y-1129820D01*
X9858243Y-129820D01*
X5905862Y-3574582D02*
X5858243Y-3622201D01*
X5715386Y-3669820D01*
X5620148Y-3669820D01*
X5477291Y-3622201D01*
X5382053Y-3526963D01*
X5334434Y-3431725D01*
X5286815Y-3241249D01*
X5286815Y-3098392D01*
X5334434Y-2907916D01*
X5382053Y-2812678D01*
X5477291Y-2717440D01*
X5620148Y-2669820D01*
X5715386Y-2669820D01*
X5858243Y-2717440D01*
X5905862Y-2765059D01*
X6858243Y-3669820D02*
X6286815Y-3669820D01*
X6572529Y-3669820D02*
X6572529Y-2669820D01*
X6477291Y-2812678D01*
X6382053Y-2907916D01*
X6286815Y-2955535D01*
X7810624Y-3669820D02*
X7239196Y-3669820D01*
X7524910Y-3669820D02*
X7524910Y-2669820D01*
X7429672Y-2812678D01*
X7334434Y-2907916D01*
X7239196Y-2955535D01*
X21807020Y-12109032D02*
X21807020Y-12680460D01*
X21807020Y-12394746D02*
X20807020Y-12394746D01*
X20949878Y-12489984D01*
X21045116Y-12585222D01*
X21092735Y-12680460D01*
X20807020Y-11489984D02*
X20807020Y-11394746D01*
X20854640Y-11299508D01*
X20902259Y-11251889D01*
X20997497Y-11204270D01*
X21187973Y-11156651D01*
X21426068Y-11156651D01*
X21616544Y-11204270D01*
X21711782Y-11251889D01*
X21759401Y-11299508D01*
X21807020Y-11394746D01*
X21807020Y-11489984D01*
X21759401Y-11585222D01*
X21711782Y-11632841D01*
X21616544Y-11680460D01*
X21426068Y-11728080D01*
X21187973Y-11728080D01*
X20997497Y-11680460D01*
X20902259Y-11632841D01*
X20854640Y-11585222D01*
X20807020Y-11489984D01*
X20807020Y-10537603D02*
X20807020Y-10442365D01*
X20854640Y-10347127D01*
X20902259Y-10299508D01*
X20997497Y-10251889D01*
X21187973Y-10204270D01*
X21426068Y-10204270D01*
X21616544Y-10251889D01*
X21711782Y-10299508D01*
X21759401Y-10347127D01*
X21807020Y-10442365D01*
X21807020Y-10537603D01*
X21759401Y-10632841D01*
X21711782Y-10680460D01*
X21616544Y-10728080D01*
X21426068Y-10775699D01*
X21187973Y-10775699D01*
X20997497Y-10728080D01*
X20902259Y-10680460D01*
X20854640Y-10632841D01*
X20807020Y-10537603D01*
X21140354Y-9347127D02*
X21807020Y-9347127D01*
X21140354Y-9775699D02*
X21664163Y-9775699D01*
X21759401Y-9728080D01*
X21807020Y-9632841D01*
X21807020Y-9489984D01*
X21759401Y-9394746D01*
X21711782Y-9347127D01*
X21807020Y-7585222D02*
X21807020Y-8156651D01*
X21807020Y-7870937D02*
X20807020Y-7870937D01*
X20949878Y-7966175D01*
X21045116Y-8061413D01*
X21092735Y-8156651D01*
X20807020Y-6728080D02*
X20807020Y-6918556D01*
X20854640Y-7013794D01*
X20902259Y-7061413D01*
X21045116Y-7156651D01*
X21235592Y-7204270D01*
X21616544Y-7204270D01*
X21711782Y-7156651D01*
X21759401Y-7109032D01*
X21807020Y-7013794D01*
X21807020Y-6823318D01*
X21759401Y-6728080D01*
X21711782Y-6680460D01*
X21616544Y-6632841D01*
X21378449Y-6632841D01*
X21283211Y-6680460D01*
X21235592Y-6728080D01*
X21187973Y-6823318D01*
X21187973Y-7013794D01*
X21235592Y-7109032D01*
X21283211Y-7156651D01*
X21378449Y-7204270D01*
X20807020Y-6347127D02*
X21807020Y-6013794D01*
X20807020Y-5680460D01*
X-5162353Y-12833380D02*
X-5733781Y-12833380D01*
X-5448067Y-12833380D02*
X-5448067Y-11833380D01*
X-5543305Y-11976238D01*
X-5638543Y-12071476D01*
X-5733781Y-12119095D01*
X-4543305Y-11833380D02*
X-4448067Y-11833380D01*
X-4352829Y-11881000D01*
X-4305210Y-11928619D01*
X-4257591Y-12023857D01*
X-4209972Y-12214333D01*
X-4209972Y-12452428D01*
X-4257591Y-12642904D01*
X-4305210Y-12738142D01*
X-4352829Y-12785761D01*
X-4448067Y-12833380D01*
X-4543305Y-12833380D01*
X-4638543Y-12785761D01*
X-4686162Y-12738142D01*
X-4733781Y-12642904D01*
X-4781400Y-12452428D01*
X-4781400Y-12214333D01*
X-4733781Y-12023857D01*
X-4686162Y-11928619D01*
X-4638543Y-11881000D01*
X-4543305Y-11833380D01*
X-3590924Y-11833380D02*
X-3495686Y-11833380D01*
X-3400448Y-11881000D01*
X-3352829Y-11928619D01*
X-3305210Y-12023857D01*
X-3257591Y-12214333D01*
X-3257591Y-12452428D01*
X-3305210Y-12642904D01*
X-3352829Y-12738142D01*
X-3400448Y-12785761D01*
X-3495686Y-12833380D01*
X-3590924Y-12833380D01*
X-3686162Y-12785761D01*
X-3733781Y-12738142D01*
X-3781400Y-12642904D01*
X-3829020Y-12452428D01*
X-3829020Y-12214333D01*
X-3781400Y-12023857D01*
X-3733781Y-11928619D01*
X-3686162Y-11881000D01*
X-3590924Y-11833380D01*
X-2400448Y-12166714D02*
X-2400448Y-12833380D01*
X-2829020Y-12166714D02*
X-2829020Y-12690523D01*
X-2781400Y-12785761D01*
X-2686162Y-12833380D01*
X-2543305Y-12833380D01*
X-2448067Y-12785761D01*
X-2400448Y-12738142D01*
X-638543Y-12833380D02*
X-1209972Y-12833380D01*
X-924258Y-12833380D02*
X-924258Y-11833380D01*
X-1019496Y-11976238D01*
X-1114734Y-12071476D01*
X-1209972Y-12119095D01*
X218600Y-11833380D02*
X28123Y-11833380D01*
X-67115Y-11881000D01*
X-114734Y-11928619D01*
X-209972Y-12071476D01*
X-257591Y-12261952D01*
X-257591Y-12642904D01*
X-209972Y-12738142D01*
X-162353Y-12785761D01*
X-67115Y-12833380D01*
X123361Y-12833380D01*
X218600Y-12785761D01*
X266219Y-12738142D01*
X313838Y-12642904D01*
X313838Y-12404809D01*
X266219Y-12309571D01*
X218600Y-12261952D01*
X123361Y-12214333D01*
X-67115Y-12214333D01*
X-162353Y-12261952D01*
X-209972Y-12309571D01*
X-257591Y-12404809D01*
X599552Y-11833380D02*
X932885Y-12833380D01*
X1266219Y-11833380D01*
X117728571Y-4652380D02*
X117728571Y-3652380D01*
X118061904Y-4366666D01*
X118395238Y-3652380D01*
X118395238Y-4652380D01*
X119014285Y-4652380D02*
X118919047Y-4604761D01*
X118871428Y-4557142D01*
X118823809Y-4461904D01*
X118823809Y-4176190D01*
X118871428Y-4080952D01*
X118919047Y-4033333D01*
X119014285Y-3985714D01*
X119157142Y-3985714D01*
X119252380Y-4033333D01*
X119300000Y-4080952D01*
X119347619Y-4176190D01*
X119347619Y-4461904D01*
X119300000Y-4557142D01*
X119252380Y-4604761D01*
X119157142Y-4652380D01*
X119014285Y-4652380D01*
X120204761Y-3985714D02*
X120204761Y-4652380D01*
X119776190Y-3985714D02*
X119776190Y-4509523D01*
X119823809Y-4604761D01*
X119919047Y-4652380D01*
X120061904Y-4652380D01*
X120157142Y-4604761D01*
X120204761Y-4557142D01*
X120680952Y-3985714D02*
X120680952Y-4652380D01*
X120680952Y-4080952D02*
X120728571Y-4033333D01*
X120823809Y-3985714D01*
X120966666Y-3985714D01*
X121061904Y-4033333D01*
X121109523Y-4128571D01*
X121109523Y-4652380D01*
X121442857Y-3985714D02*
X121823809Y-3985714D01*
X121585714Y-3652380D02*
X121585714Y-4509523D01*
X121633333Y-4604761D01*
X121728571Y-4652380D01*
X121823809Y-4652380D01*
X122157142Y-4652380D02*
X122157142Y-3985714D01*
X122157142Y-3652380D02*
X122109523Y-3700000D01*
X122157142Y-3747619D01*
X122204761Y-3700000D01*
X122157142Y-3652380D01*
X122157142Y-3747619D01*
X122633333Y-3985714D02*
X122633333Y-4652380D01*
X122633333Y-4080952D02*
X122680952Y-4033333D01*
X122776190Y-3985714D01*
X122919047Y-3985714D01*
X123014285Y-4033333D01*
X123061904Y-4128571D01*
X123061904Y-4652380D01*
X123966666Y-3985714D02*
X123966666Y-4795238D01*
X123919047Y-4890476D01*
X123871428Y-4938095D01*
X123776190Y-4985714D01*
X123633333Y-4985714D01*
X123538095Y-4938095D01*
X123966666Y-4604761D02*
X123871428Y-4652380D01*
X123680952Y-4652380D01*
X123585714Y-4604761D01*
X123538095Y-4557142D01*
X123490476Y-4461904D01*
X123490476Y-4176190D01*
X123538095Y-4080952D01*
X123585714Y-4033333D01*
X123680952Y-3985714D01*
X123871428Y-3985714D01*
X123966666Y-4033333D01*
X124442857Y-4652380D02*
X124442857Y-3652380D01*
X124442857Y-4128571D02*
X125014285Y-4128571D01*
X125014285Y-4652380D02*
X125014285Y-3652380D01*
X125633333Y-4652380D02*
X125538095Y-4604761D01*
X125490476Y-4557142D01*
X125442857Y-4461904D01*
X125442857Y-4176190D01*
X125490476Y-4080952D01*
X125538095Y-4033333D01*
X125633333Y-3985714D01*
X125776190Y-3985714D01*
X125871428Y-4033333D01*
X125919047Y-4080952D01*
X125966666Y-4176190D01*
X125966666Y-4461904D01*
X125919047Y-4557142D01*
X125871428Y-4604761D01*
X125776190Y-4652380D01*
X125633333Y-4652380D01*
X126538095Y-4652380D02*
X126442857Y-4604761D01*
X126395238Y-4509523D01*
X126395238Y-3652380D01*
X127300000Y-4604761D02*
X127204761Y-4652380D01*
X127014285Y-4652380D01*
X126919047Y-4604761D01*
X126871428Y-4509523D01*
X126871428Y-4128571D01*
X126919047Y-4033333D01*
X127014285Y-3985714D01*
X127204761Y-3985714D01*
X127300000Y-4033333D01*
X127347619Y-4128571D01*
X127347619Y-4223809D01*
X126871428Y-4319047D01*
X127538095Y-4747619D02*
X128300000Y-4747619D01*
X128538095Y-4652380D02*
X128538095Y-3652380D01*
X128919047Y-3652380D01*
X129014285Y-3700000D01*
X129061904Y-3747619D01*
X129109523Y-3842857D01*
X129109523Y-3985714D01*
X129061904Y-4080952D01*
X129014285Y-4128571D01*
X128919047Y-4176190D01*
X128538095Y-4176190D01*
X129966666Y-4652380D02*
X129966666Y-4128571D01*
X129919047Y-4033333D01*
X129823809Y-3985714D01*
X129633333Y-3985714D01*
X129538095Y-4033333D01*
X129966666Y-4604761D02*
X129871428Y-4652380D01*
X129633333Y-4652380D01*
X129538095Y-4604761D01*
X129490476Y-4509523D01*
X129490476Y-4414285D01*
X129538095Y-4319047D01*
X129633333Y-4271428D01*
X129871428Y-4271428D01*
X129966666Y-4223809D01*
X130871428Y-4652380D02*
X130871428Y-3652380D01*
X130871428Y-4604761D02*
X130776190Y-4652380D01*
X130585714Y-4652380D01*
X130490476Y-4604761D01*
X130442857Y-4557142D01*
X130395238Y-4461904D01*
X130395238Y-4176190D01*
X130442857Y-4080952D01*
X130490476Y-4033333D01*
X130585714Y-3985714D01*
X130776190Y-3985714D01*
X130871428Y-4033333D01*
X123838095Y-452380D02*
X123838095Y547620D01*
X123838095Y71429D02*
X124409523Y71429D01*
X124409523Y-452380D02*
X124409523Y547620D01*
X124838095Y452381D02*
X124885714Y500000D01*
X124980952Y547620D01*
X125219047Y547620D01*
X125314285Y500000D01*
X125361904Y452381D01*
X125409523Y357143D01*
X125409523Y261905D01*
X125361904Y119048D01*
X124790476Y-452380D01*
X125409523Y-452380D01*
X4655708Y4469740D02*
X4084280Y4469740D01*
X4369994Y4469740D02*
X4369994Y5469740D01*
X4274756Y5326882D01*
X4179518Y5231644D01*
X4084280Y5184025D01*
X5512851Y5136406D02*
X5512851Y4469740D01*
X5084280Y5136406D02*
X5084280Y4612597D01*
X5131899Y4517359D01*
X5227137Y4469740D01*
X5369994Y4469740D01*
X5465232Y4517359D01*
X5512851Y4564978D01*
X6703327Y5374501D02*
X6750946Y5422120D01*
X6846184Y5469740D01*
X7084280Y5469740D01*
X7179518Y5422120D01*
X7227137Y5374501D01*
X7274756Y5279263D01*
X7274756Y5184025D01*
X7227137Y5041168D01*
X6655708Y4469740D01*
X7274756Y4469740D01*
X8179518Y5469740D02*
X7703327Y5469740D01*
X7655708Y4993549D01*
X7703327Y5041168D01*
X7798565Y5088787D01*
X8036660Y5088787D01*
X8131899Y5041168D01*
X8179518Y4993549D01*
X8227137Y4898311D01*
X8227137Y4660216D01*
X8179518Y4564978D01*
X8131899Y4517359D01*
X8036660Y4469740D01*
X7798565Y4469740D01*
X7703327Y4517359D01*
X7655708Y4564978D01*
X8512851Y5469740D02*
X8846184Y4469740D01*
X9179518Y5469740D01*
D12*
X6534280Y3314978D02*
X6519994Y3300692D01*
X6477137Y3286406D01*
X6448565Y3286406D01*
X6405708Y3300692D01*
X6377137Y3329263D01*
X6362851Y3357835D01*
X6348565Y3414978D01*
X6348565Y3457835D01*
X6362851Y3514978D01*
X6377137Y3543549D01*
X6405708Y3572120D01*
X6448565Y3586406D01*
X6477137Y3586406D01*
X6519994Y3572120D01*
X6534280Y3557835D01*
X6705708Y3457835D02*
X6677137Y3472120D01*
X6662851Y3486406D01*
X6648565Y3514978D01*
X6648565Y3529263D01*
X6662851Y3557835D01*
X6677137Y3572120D01*
X6705708Y3586406D01*
X6762851Y3586406D01*
X6791422Y3572120D01*
X6805708Y3557835D01*
X6819994Y3529263D01*
X6819994Y3514978D01*
X6805708Y3486406D01*
X6791422Y3472120D01*
X6762851Y3457835D01*
X6705708Y3457835D01*
X6677137Y3443549D01*
X6662851Y3429263D01*
X6648565Y3400692D01*
X6648565Y3343549D01*
X6662851Y3314978D01*
X6677137Y3300692D01*
X6705708Y3286406D01*
X6762851Y3286406D01*
X6791422Y3300692D01*
X6805708Y3314978D01*
X6819994Y3343549D01*
X6819994Y3400692D01*
X6805708Y3429263D01*
X6791422Y3443549D01*
X6762851Y3457835D01*
D11*
X111880715Y-6536240D02*
X112452143Y-6536240D01*
X112166429Y-7536240D02*
X112166429Y-6536240D01*
X112785477Y-7536240D02*
X112785477Y-6536240D01*
X113166429Y-6536240D01*
X113261667Y-6583860D01*
X113309286Y-6631479D01*
X113356905Y-6726717D01*
X113356905Y-6869574D01*
X113309286Y-6964812D01*
X113261667Y-7012431D01*
X113166429Y-7060050D01*
X112785477Y-7060050D01*
X114309286Y-7536240D02*
X113737858Y-7536240D01*
X114023572Y-7536240D02*
X114023572Y-6536240D01*
X113928334Y-6679098D01*
X113833096Y-6774336D01*
X113737858Y-6821955D01*
X111880715Y-3537300D02*
X112452143Y-3537300D01*
X112166429Y-4537300D02*
X112166429Y-3537300D01*
X112785477Y-4537300D02*
X112785477Y-3537300D01*
X113166429Y-3537300D01*
X113261667Y-3584920D01*
X113309286Y-3632539D01*
X113356905Y-3727777D01*
X113356905Y-3870634D01*
X113309286Y-3965872D01*
X113261667Y-4013491D01*
X113166429Y-4061110D01*
X112785477Y-4061110D01*
X114309286Y-4537300D02*
X113737858Y-4537300D01*
X114023572Y-4537300D02*
X114023572Y-3537300D01*
X113928334Y-3680158D01*
X113833096Y-3775396D01*
X113737858Y-3823015D01*
X2684771Y-26760242D02*
X2637152Y-26807861D01*
X2494295Y-26855480D01*
X2399057Y-26855480D01*
X2256200Y-26807861D01*
X2160961Y-26712623D01*
X2113342Y-26617385D01*
X2065723Y-26426909D01*
X2065723Y-26284052D01*
X2113342Y-26093576D01*
X2160961Y-25998338D01*
X2256200Y-25903100D01*
X2399057Y-25855480D01*
X2494295Y-25855480D01*
X2637152Y-25903100D01*
X2684771Y-25950719D01*
X3303819Y-25855480D02*
X3494295Y-25855480D01*
X3589533Y-25903100D01*
X3684771Y-25998338D01*
X3732390Y-26188814D01*
X3732390Y-26522147D01*
X3684771Y-26712623D01*
X3589533Y-26807861D01*
X3494295Y-26855480D01*
X3303819Y-26855480D01*
X3208580Y-26807861D01*
X3113342Y-26712623D01*
X3065723Y-26522147D01*
X3065723Y-26188814D01*
X3113342Y-25998338D01*
X3208580Y-25903100D01*
X3303819Y-25855480D01*
X4160961Y-26855480D02*
X4160961Y-25855480D01*
X4732390Y-26855480D01*
X4732390Y-25855480D01*
X5208580Y-26855480D02*
X5208580Y-25855480D01*
X5780009Y-26855480D01*
X5780009Y-25855480D01*
X6018104Y-26950719D02*
X6780009Y-26950719D01*
X7018104Y-26855480D02*
X7018104Y-25855480D01*
X7399057Y-25855480D01*
X7494295Y-25903100D01*
X7541914Y-25950719D01*
X7589533Y-26045957D01*
X7589533Y-26188814D01*
X7541914Y-26284052D01*
X7494295Y-26331671D01*
X7399057Y-26379290D01*
X7018104Y-26379290D01*
X8589533Y-26760242D02*
X8541914Y-26807861D01*
X8399057Y-26855480D01*
X8303819Y-26855480D01*
X8160961Y-26807861D01*
X8065723Y-26712623D01*
X8018104Y-26617385D01*
X7970485Y-26426909D01*
X7970485Y-26284052D01*
X8018104Y-26093576D01*
X8065723Y-25998338D01*
X8160961Y-25903100D01*
X8303819Y-25855480D01*
X8399057Y-25855480D01*
X8541914Y-25903100D01*
X8589533Y-25950719D01*
X9018104Y-26855480D02*
X9018104Y-25855480D01*
X9494295Y-26331671D02*
X9827628Y-26331671D01*
X9970485Y-26855480D02*
X9494295Y-26855480D01*
X9494295Y-25855480D01*
X9970485Y-25855480D01*
X10160961Y-26950719D02*
X10922866Y-26950719D01*
X11065723Y-26855480D02*
X11589533Y-26188814D01*
X11065723Y-26188814D02*
X11589533Y-26855480D01*
X11922866Y-25950719D02*
X11970485Y-25903100D01*
X12065723Y-25855480D01*
X12303819Y-25855480D01*
X12399057Y-25903100D01*
X12446676Y-25950719D01*
X12494295Y-26045957D01*
X12494295Y-26141195D01*
X12446676Y-26284052D01*
X11875247Y-26855480D01*
X12494295Y-26855480D01*
X13351438Y-26188814D02*
X13351438Y-26855480D01*
X13113342Y-25807861D02*
X12875247Y-26522147D01*
X13494295Y-26522147D01*
X-6571429Y-4652380D02*
X-6571429Y-3652380D01*
X-6238096Y-4366666D01*
X-5904762Y-3652380D01*
X-5904762Y-4652380D01*
X-5285715Y-4652380D02*
X-5380953Y-4604761D01*
X-5428572Y-4557142D01*
X-5476191Y-4461904D01*
X-5476191Y-4176190D01*
X-5428572Y-4080952D01*
X-5380953Y-4033333D01*
X-5285715Y-3985714D01*
X-5142858Y-3985714D01*
X-5047620Y-4033333D01*
X-5000000Y-4080952D01*
X-4952381Y-4176190D01*
X-4952381Y-4461904D01*
X-5000000Y-4557142D01*
X-5047620Y-4604761D01*
X-5142858Y-4652380D01*
X-5285715Y-4652380D01*
X-4095239Y-3985714D02*
X-4095239Y-4652380D01*
X-4523810Y-3985714D02*
X-4523810Y-4509523D01*
X-4476191Y-4604761D01*
X-4380953Y-4652380D01*
X-4238096Y-4652380D01*
X-4142858Y-4604761D01*
X-4095239Y-4557142D01*
X-3619048Y-3985714D02*
X-3619048Y-4652380D01*
X-3619048Y-4080952D02*
X-3571429Y-4033333D01*
X-3476191Y-3985714D01*
X-3333334Y-3985714D01*
X-3238096Y-4033333D01*
X-3190477Y-4128571D01*
X-3190477Y-4652380D01*
X-2857143Y-3985714D02*
X-2476191Y-3985714D01*
X-2714286Y-3652380D02*
X-2714286Y-4509523D01*
X-2666667Y-4604761D01*
X-2571429Y-4652380D01*
X-2476191Y-4652380D01*
X-2142858Y-4652380D02*
X-2142858Y-3985714D01*
X-2142858Y-3652380D02*
X-2190477Y-3700000D01*
X-2142858Y-3747619D01*
X-2095239Y-3700000D01*
X-2142858Y-3652380D01*
X-2142858Y-3747619D01*
X-1666667Y-3985714D02*
X-1666667Y-4652380D01*
X-1666667Y-4080952D02*
X-1619048Y-4033333D01*
X-1523810Y-3985714D01*
X-1380953Y-3985714D01*
X-1285715Y-4033333D01*
X-1238096Y-4128571D01*
X-1238096Y-4652380D01*
X-333334Y-3985714D02*
X-333334Y-4795238D01*
X-380953Y-4890476D01*
X-428572Y-4938095D01*
X-523810Y-4985714D01*
X-666667Y-4985714D01*
X-761905Y-4938095D01*
X-333334Y-4604761D02*
X-428572Y-4652380D01*
X-619048Y-4652380D01*
X-714286Y-4604761D01*
X-761905Y-4557142D01*
X-809524Y-4461904D01*
X-809524Y-4176190D01*
X-761905Y-4080952D01*
X-714286Y-4033333D01*
X-619048Y-3985714D01*
X-428572Y-3985714D01*
X-333334Y-4033333D01*
X142857Y-4652380D02*
X142857Y-3652380D01*
X142857Y-4128571D02*
X714285Y-4128571D01*
X714285Y-4652380D02*
X714285Y-3652380D01*
X1333333Y-4652380D02*
X1238095Y-4604761D01*
X1190476Y-4557142D01*
X1142857Y-4461904D01*
X1142857Y-4176190D01*
X1190476Y-4080952D01*
X1238095Y-4033333D01*
X1333333Y-3985714D01*
X1476190Y-3985714D01*
X1571428Y-4033333D01*
X1619047Y-4080952D01*
X1666666Y-4176190D01*
X1666666Y-4461904D01*
X1619047Y-4557142D01*
X1571428Y-4604761D01*
X1476190Y-4652380D01*
X1333333Y-4652380D01*
X2238095Y-4652380D02*
X2142857Y-4604761D01*
X2095238Y-4509523D01*
X2095238Y-3652380D01*
X3000000Y-4604761D02*
X2904761Y-4652380D01*
X2714285Y-4652380D01*
X2619047Y-4604761D01*
X2571428Y-4509523D01*
X2571428Y-4128571D01*
X2619047Y-4033333D01*
X2714285Y-3985714D01*
X2904761Y-3985714D01*
X3000000Y-4033333D01*
X3047619Y-4128571D01*
X3047619Y-4223809D01*
X2571428Y-4319047D01*
X3238095Y-4747619D02*
X4000000Y-4747619D01*
X4238095Y-4652380D02*
X4238095Y-3652380D01*
X4619047Y-3652380D01*
X4714285Y-3700000D01*
X4761904Y-3747619D01*
X4809523Y-3842857D01*
X4809523Y-3985714D01*
X4761904Y-4080952D01*
X4714285Y-4128571D01*
X4619047Y-4176190D01*
X4238095Y-4176190D01*
X5666666Y-4652380D02*
X5666666Y-4128571D01*
X5619047Y-4033333D01*
X5523809Y-3985714D01*
X5333333Y-3985714D01*
X5238095Y-4033333D01*
X5666666Y-4604761D02*
X5571428Y-4652380D01*
X5333333Y-4652380D01*
X5238095Y-4604761D01*
X5190476Y-4509523D01*
X5190476Y-4414285D01*
X5238095Y-4319047D01*
X5333333Y-4271428D01*
X5571428Y-4271428D01*
X5666666Y-4223809D01*
X6571428Y-4652380D02*
X6571428Y-3652380D01*
X6571428Y-4604761D02*
X6476190Y-4652380D01*
X6285714Y-4652380D01*
X6190476Y-4604761D01*
X6142857Y-4557142D01*
X6095238Y-4461904D01*
X6095238Y-4176190D01*
X6142857Y-4080952D01*
X6190476Y-4033333D01*
X6285714Y-3985714D01*
X6476190Y-3985714D01*
X6571428Y-4033333D01*
X-461905Y-452380D02*
X-461905Y547620D01*
X-461905Y71429D02*
X109523Y71429D01*
X109523Y-452380D02*
X109523Y547620D01*
X1109523Y-452380D02*
X538095Y-452380D01*
X823809Y-452380D02*
X823809Y547620D01*
X728571Y404762D01*
X633333Y309524D01*
X538095Y261905D01*
M02*
