G04 #@! TF.GenerationSoftware,KiCad,Pcbnew,(5.1.5)-3*
G04 #@! TF.CreationDate,2021-02-17T14:45:42+01:00*
G04 #@! TF.ProjectId,riser leopard 1OU,72697365-7220-46c6-956f-706172642031,rev?*
G04 #@! TF.SameCoordinates,PX4a62f80PY5f5e100*
G04 #@! TF.FileFunction,Soldermask,Top*
G04 #@! TF.FilePolarity,Negative*
%FSLAX46Y46*%
G04 Gerber Fmt 4.6, Leading zero omitted, Abs format (unit mm)*
G04 Created by KiCad (PCBNEW (5.1.5)-3) date 2021-02-17 14:45:42*
%MOMM*%
%LPD*%
G04 APERTURE LIST*
%ADD10C,0.100000*%
G04 APERTURE END LIST*
D10*
G36*
X13051000Y-25569600D02*
G01*
X2149000Y-25569600D01*
X2149000Y-21267600D01*
X13051000Y-21267600D01*
X13051000Y-25569600D01*
G37*
G36*
X119151000Y-25569600D02*
G01*
X15249000Y-25569600D01*
X15249000Y-21267600D01*
X119151000Y-21267600D01*
X119151000Y-25569600D01*
G37*
G36*
X43651420Y-17490600D02*
G01*
X42849420Y-17490600D01*
X42849420Y-16088600D01*
X43651420Y-16088600D01*
X43651420Y-17490600D01*
G37*
G36*
X45551420Y-17490600D02*
G01*
X44749420Y-17490600D01*
X44749420Y-16088600D01*
X45551420Y-16088600D01*
X45551420Y-17490600D01*
G37*
G36*
X84488840Y-15709880D02*
G01*
X83086840Y-15709880D01*
X83086840Y-14907880D01*
X84488840Y-14907880D01*
X84488840Y-15709880D01*
G37*
G36*
X84488840Y-13809880D02*
G01*
X83086840Y-13809880D01*
X83086840Y-13007880D01*
X84488840Y-13007880D01*
X84488840Y-13809880D01*
G37*
G36*
X18600600Y-12866400D02*
G01*
X16898600Y-12866400D01*
X16898600Y-9964400D01*
X18600600Y-9964400D01*
X18600600Y-12866400D01*
G37*
G36*
X22196100Y-12189000D02*
G01*
X21294100Y-12189000D01*
X21294100Y-11337000D01*
X22196100Y-11337000D01*
X22196100Y-12189000D01*
G37*
G36*
X23696100Y-12189000D02*
G01*
X22794100Y-12189000D01*
X22794100Y-11337000D01*
X23696100Y-11337000D01*
X23696100Y-12189000D01*
G37*
G36*
X22092900Y-10387600D02*
G01*
X21390900Y-10387600D01*
X21390900Y-9785600D01*
X22092900Y-9785600D01*
X22092900Y-10387600D01*
G37*
G36*
X23192900Y-10387600D02*
G01*
X22490900Y-10387600D01*
X22490900Y-9785600D01*
X23192900Y-9785600D01*
X23192900Y-10387600D01*
G37*
G36*
X-3017720Y-9626960D02*
G01*
X-5919720Y-9626960D01*
X-5919720Y-7924960D01*
X-3017720Y-7924960D01*
X-3017720Y-9626960D01*
G37*
G36*
X1282280Y-9626960D02*
G01*
X-1619720Y-9626960D01*
X-1619720Y-7924960D01*
X1282280Y-7924960D01*
X1282280Y-9626960D01*
G37*
G36*
X12450300Y-9528700D02*
G01*
X11748300Y-9528700D01*
X11748300Y-8926700D01*
X12450300Y-8926700D01*
X12450300Y-9528700D01*
G37*
G36*
X13550300Y-9528700D02*
G01*
X12848300Y-9528700D01*
X12848300Y-8926700D01*
X13550300Y-8926700D01*
X13550300Y-9528700D01*
G37*
G36*
X18600600Y-8566400D02*
G01*
X16898600Y-8566400D01*
X16898600Y-5664400D01*
X18600600Y-5664400D01*
X18600600Y-8566400D01*
G37*
G36*
X13850300Y-8015400D02*
G01*
X12948300Y-8015400D01*
X12948300Y-7163400D01*
X13850300Y-7163400D01*
X13850300Y-8015400D01*
G37*
G36*
X12350300Y-8015400D02*
G01*
X11448300Y-8015400D01*
X11448300Y-7163400D01*
X12350300Y-7163400D01*
X12350300Y-8015400D01*
G37*
G36*
X13850300Y-6300900D02*
G01*
X12948300Y-6300900D01*
X12948300Y-5448900D01*
X13850300Y-5448900D01*
X13850300Y-6300900D01*
G37*
G36*
X12350300Y-6300900D02*
G01*
X11448300Y-6300900D01*
X11448300Y-5448900D01*
X12350300Y-5448900D01*
X12350300Y-6300900D01*
G37*
G36*
X113303341Y-5005094D02*
G01*
X113403615Y-5046629D01*
X113403616Y-5046630D01*
X113493862Y-5106930D01*
X113570610Y-5183678D01*
X113570611Y-5183680D01*
X113630911Y-5273925D01*
X113672446Y-5374199D01*
X113693620Y-5480650D01*
X113693620Y-5589190D01*
X113672446Y-5695641D01*
X113630911Y-5795915D01*
X113630910Y-5795916D01*
X113570610Y-5886162D01*
X113493862Y-5962910D01*
X113448432Y-5993265D01*
X113403615Y-6023211D01*
X113303341Y-6064746D01*
X113196890Y-6085920D01*
X113088350Y-6085920D01*
X112981899Y-6064746D01*
X112881625Y-6023211D01*
X112836808Y-5993265D01*
X112791378Y-5962910D01*
X112714630Y-5886162D01*
X112654330Y-5795916D01*
X112654329Y-5795915D01*
X112612794Y-5695641D01*
X112591620Y-5589190D01*
X112591620Y-5480650D01*
X112612794Y-5374199D01*
X112654329Y-5273925D01*
X112714629Y-5183680D01*
X112714630Y-5183678D01*
X112791378Y-5106930D01*
X112881624Y-5046630D01*
X112881625Y-5046629D01*
X112981899Y-5005094D01*
X113088350Y-4983920D01*
X113196890Y-4983920D01*
X113303341Y-5005094D01*
G37*
G36*
X634239Y3188533D02*
G01*
X948282Y3126066D01*
X1539926Y2880999D01*
X1940073Y2613629D01*
X2072391Y2525217D01*
X2525217Y2072391D01*
X2540388Y2049686D01*
X2880999Y1539926D01*
X3039226Y1157932D01*
X3126066Y948281D01*
X3251000Y320197D01*
X3251000Y-320197D01*
X3216293Y-494680D01*
X3126066Y-948282D01*
X2880999Y-1539926D01*
X2607664Y-1949000D01*
X2550405Y-2034695D01*
X2525216Y-2072392D01*
X2072392Y-2525216D01*
X1539926Y-2880999D01*
X948282Y-3126066D01*
X634239Y-3188533D01*
X320197Y-3251000D01*
X-320197Y-3251000D01*
X-634239Y-3188533D01*
X-948282Y-3126066D01*
X-1539926Y-2880999D01*
X-2072392Y-2525216D01*
X-2525216Y-2072392D01*
X-2550404Y-2034695D01*
X-2607664Y-1949000D01*
X-2880999Y-1539926D01*
X-3126066Y-948282D01*
X-3216293Y-494680D01*
X-3251000Y-320197D01*
X-3251000Y320197D01*
X-3126066Y948281D01*
X-3039226Y1157932D01*
X-2880999Y1539926D01*
X-2540388Y2049686D01*
X-2525217Y2072391D01*
X-2072391Y2525217D01*
X-1940073Y2613629D01*
X-1539926Y2880999D01*
X-948282Y3126066D01*
X-634239Y3188533D01*
X-320197Y3251000D01*
X320197Y3251000D01*
X634239Y3188533D01*
G37*
G36*
X124934239Y3188533D02*
G01*
X125248282Y3126066D01*
X125839926Y2880999D01*
X126240073Y2613629D01*
X126372391Y2525217D01*
X126825217Y2072391D01*
X126840388Y2049686D01*
X127180999Y1539926D01*
X127339226Y1157932D01*
X127426066Y948281D01*
X127551000Y320197D01*
X127551000Y-320197D01*
X127516293Y-494680D01*
X127426066Y-948282D01*
X127180999Y-1539926D01*
X126907664Y-1949000D01*
X126850405Y-2034695D01*
X126825216Y-2072392D01*
X126372392Y-2525216D01*
X125839926Y-2880999D01*
X125248282Y-3126066D01*
X124934239Y-3188533D01*
X124620197Y-3251000D01*
X123979803Y-3251000D01*
X123665761Y-3188533D01*
X123351718Y-3126066D01*
X122760074Y-2880999D01*
X122227608Y-2525216D01*
X121774784Y-2072392D01*
X121749596Y-2034695D01*
X121692336Y-1949000D01*
X121419001Y-1539926D01*
X121173934Y-948282D01*
X121083707Y-494680D01*
X121049000Y-320197D01*
X121049000Y320197D01*
X121173934Y948281D01*
X121260774Y1157932D01*
X121419001Y1539926D01*
X121759612Y2049686D01*
X121774783Y2072391D01*
X122227609Y2525217D01*
X122359927Y2613629D01*
X122760074Y2880999D01*
X123351718Y3126066D01*
X123665761Y3188533D01*
X123979803Y3251000D01*
X124620197Y3251000D01*
X124934239Y3188533D01*
G37*
G36*
X49886601Y-1624397D02*
G01*
X49925305Y-1632096D01*
X49957340Y-1645365D01*
X50034680Y-1677400D01*
X50133115Y-1743173D01*
X50216827Y-1826885D01*
X50282600Y-1925320D01*
X50327904Y-2034696D01*
X50351000Y-2150805D01*
X50351000Y-2269195D01*
X50327904Y-2385304D01*
X50282600Y-2494680D01*
X50216827Y-2593115D01*
X50133115Y-2676827D01*
X50034680Y-2742600D01*
X49957340Y-2774635D01*
X49925305Y-2787904D01*
X49886601Y-2795603D01*
X49809195Y-2811000D01*
X49690805Y-2811000D01*
X49613399Y-2795603D01*
X49574695Y-2787904D01*
X49542660Y-2774635D01*
X49465320Y-2742600D01*
X49366885Y-2676827D01*
X49283173Y-2593115D01*
X49217400Y-2494680D01*
X49172096Y-2385304D01*
X49149000Y-2269195D01*
X49149000Y-2150805D01*
X49172096Y-2034696D01*
X49217400Y-1925320D01*
X49283173Y-1826885D01*
X49366885Y-1743173D01*
X49465320Y-1677400D01*
X49542660Y-1645365D01*
X49574695Y-1632096D01*
X49613399Y-1624397D01*
X49690805Y-1609000D01*
X49809195Y-1609000D01*
X49886601Y-1624397D01*
G37*
G36*
X31886601Y-1624397D02*
G01*
X31925305Y-1632096D01*
X31957340Y-1645365D01*
X32034680Y-1677400D01*
X32133115Y-1743173D01*
X32216827Y-1826885D01*
X32282600Y-1925320D01*
X32327904Y-2034696D01*
X32351000Y-2150805D01*
X32351000Y-2269195D01*
X32327904Y-2385304D01*
X32282600Y-2494680D01*
X32216827Y-2593115D01*
X32133115Y-2676827D01*
X32034680Y-2742600D01*
X31957340Y-2774635D01*
X31925305Y-2787904D01*
X31886601Y-2795603D01*
X31809195Y-2811000D01*
X31690805Y-2811000D01*
X31613399Y-2795603D01*
X31574695Y-2787904D01*
X31542660Y-2774635D01*
X31465320Y-2742600D01*
X31366885Y-2676827D01*
X31283173Y-2593115D01*
X31217400Y-2494680D01*
X31172096Y-2385304D01*
X31149000Y-2269195D01*
X31149000Y-2150805D01*
X31172096Y-2034696D01*
X31217400Y-1925320D01*
X31283173Y-1826885D01*
X31366885Y-1743173D01*
X31465320Y-1677400D01*
X31542660Y-1645365D01*
X31574695Y-1632096D01*
X31613399Y-1624397D01*
X31690805Y-1609000D01*
X31809195Y-1609000D01*
X31886601Y-1624397D01*
G37*
G36*
X43886601Y-1624397D02*
G01*
X43925305Y-1632096D01*
X43957340Y-1645365D01*
X44034680Y-1677400D01*
X44133115Y-1743173D01*
X44216827Y-1826885D01*
X44282600Y-1925320D01*
X44327904Y-2034696D01*
X44351000Y-2150805D01*
X44351000Y-2269195D01*
X44327904Y-2385304D01*
X44282600Y-2494680D01*
X44216827Y-2593115D01*
X44133115Y-2676827D01*
X44034680Y-2742600D01*
X43957340Y-2774635D01*
X43925305Y-2787904D01*
X43886601Y-2795603D01*
X43809195Y-2811000D01*
X43690805Y-2811000D01*
X43613399Y-2795603D01*
X43574695Y-2787904D01*
X43542660Y-2774635D01*
X43465320Y-2742600D01*
X43366885Y-2676827D01*
X43283173Y-2593115D01*
X43217400Y-2494680D01*
X43172096Y-2385304D01*
X43149000Y-2269195D01*
X43149000Y-2150805D01*
X43172096Y-2034696D01*
X43217400Y-1925320D01*
X43283173Y-1826885D01*
X43366885Y-1743173D01*
X43465320Y-1677400D01*
X43542660Y-1645365D01*
X43574695Y-1632096D01*
X43613399Y-1624397D01*
X43690805Y-1609000D01*
X43809195Y-1609000D01*
X43886601Y-1624397D01*
G37*
G36*
X51886601Y-1624397D02*
G01*
X51925305Y-1632096D01*
X51957340Y-1645365D01*
X52034680Y-1677400D01*
X52133115Y-1743173D01*
X52216827Y-1826885D01*
X52282600Y-1925320D01*
X52327904Y-2034696D01*
X52351000Y-2150805D01*
X52351000Y-2269195D01*
X52327904Y-2385304D01*
X52282600Y-2494680D01*
X52216827Y-2593115D01*
X52133115Y-2676827D01*
X52034680Y-2742600D01*
X51957340Y-2774635D01*
X51925305Y-2787904D01*
X51886601Y-2795603D01*
X51809195Y-2811000D01*
X51690805Y-2811000D01*
X51613399Y-2795603D01*
X51574695Y-2787904D01*
X51542660Y-2774635D01*
X51465320Y-2742600D01*
X51366885Y-2676827D01*
X51283173Y-2593115D01*
X51217400Y-2494680D01*
X51172096Y-2385304D01*
X51149000Y-2269195D01*
X51149000Y-2150805D01*
X51172096Y-2034696D01*
X51217400Y-1925320D01*
X51283173Y-1826885D01*
X51366885Y-1743173D01*
X51465320Y-1677400D01*
X51542660Y-1645365D01*
X51574695Y-1632096D01*
X51613399Y-1624397D01*
X51690805Y-1609000D01*
X51809195Y-1609000D01*
X51886601Y-1624397D01*
G37*
G36*
X41886601Y-1624397D02*
G01*
X41925305Y-1632096D01*
X41957340Y-1645365D01*
X42034680Y-1677400D01*
X42133115Y-1743173D01*
X42216827Y-1826885D01*
X42282600Y-1925320D01*
X42327904Y-2034696D01*
X42351000Y-2150805D01*
X42351000Y-2269195D01*
X42327904Y-2385304D01*
X42282600Y-2494680D01*
X42216827Y-2593115D01*
X42133115Y-2676827D01*
X42034680Y-2742600D01*
X41957340Y-2774635D01*
X41925305Y-2787904D01*
X41886601Y-2795603D01*
X41809195Y-2811000D01*
X41690805Y-2811000D01*
X41613399Y-2795603D01*
X41574695Y-2787904D01*
X41542660Y-2774635D01*
X41465320Y-2742600D01*
X41366885Y-2676827D01*
X41283173Y-2593115D01*
X41217400Y-2494680D01*
X41172096Y-2385304D01*
X41149000Y-2269195D01*
X41149000Y-2150805D01*
X41172096Y-2034696D01*
X41217400Y-1925320D01*
X41283173Y-1826885D01*
X41366885Y-1743173D01*
X41465320Y-1677400D01*
X41542660Y-1645365D01*
X41574695Y-1632096D01*
X41613399Y-1624397D01*
X41690805Y-1609000D01*
X41809195Y-1609000D01*
X41886601Y-1624397D01*
G37*
G36*
X39886601Y-1624397D02*
G01*
X39925305Y-1632096D01*
X39957340Y-1645365D01*
X40034680Y-1677400D01*
X40133115Y-1743173D01*
X40216827Y-1826885D01*
X40282600Y-1925320D01*
X40327904Y-2034696D01*
X40351000Y-2150805D01*
X40351000Y-2269195D01*
X40327904Y-2385304D01*
X40282600Y-2494680D01*
X40216827Y-2593115D01*
X40133115Y-2676827D01*
X40034680Y-2742600D01*
X39957340Y-2774635D01*
X39925305Y-2787904D01*
X39886601Y-2795603D01*
X39809195Y-2811000D01*
X39690805Y-2811000D01*
X39613399Y-2795603D01*
X39574695Y-2787904D01*
X39542660Y-2774635D01*
X39465320Y-2742600D01*
X39366885Y-2676827D01*
X39283173Y-2593115D01*
X39217400Y-2494680D01*
X39172096Y-2385304D01*
X39149000Y-2269195D01*
X39149000Y-2150805D01*
X39172096Y-2034696D01*
X39217400Y-1925320D01*
X39283173Y-1826885D01*
X39366885Y-1743173D01*
X39465320Y-1677400D01*
X39542660Y-1645365D01*
X39574695Y-1632096D01*
X39613399Y-1624397D01*
X39690805Y-1609000D01*
X39809195Y-1609000D01*
X39886601Y-1624397D01*
G37*
G36*
X53886601Y-1624397D02*
G01*
X53925305Y-1632096D01*
X53957340Y-1645365D01*
X54034680Y-1677400D01*
X54133115Y-1743173D01*
X54216827Y-1826885D01*
X54282600Y-1925320D01*
X54327904Y-2034696D01*
X54351000Y-2150805D01*
X54351000Y-2269195D01*
X54327904Y-2385304D01*
X54282600Y-2494680D01*
X54216827Y-2593115D01*
X54133115Y-2676827D01*
X54034680Y-2742600D01*
X53957340Y-2774635D01*
X53925305Y-2787904D01*
X53886601Y-2795603D01*
X53809195Y-2811000D01*
X53690805Y-2811000D01*
X53613399Y-2795603D01*
X53574695Y-2787904D01*
X53542660Y-2774635D01*
X53465320Y-2742600D01*
X53366885Y-2676827D01*
X53283173Y-2593115D01*
X53217400Y-2494680D01*
X53172096Y-2385304D01*
X53149000Y-2269195D01*
X53149000Y-2150805D01*
X53172096Y-2034696D01*
X53217400Y-1925320D01*
X53283173Y-1826885D01*
X53366885Y-1743173D01*
X53465320Y-1677400D01*
X53542660Y-1645365D01*
X53574695Y-1632096D01*
X53613399Y-1624397D01*
X53690805Y-1609000D01*
X53809195Y-1609000D01*
X53886601Y-1624397D01*
G37*
G36*
X37886601Y-1624397D02*
G01*
X37925305Y-1632096D01*
X37957340Y-1645365D01*
X38034680Y-1677400D01*
X38133115Y-1743173D01*
X38216827Y-1826885D01*
X38282600Y-1925320D01*
X38327904Y-2034696D01*
X38351000Y-2150805D01*
X38351000Y-2269195D01*
X38327904Y-2385304D01*
X38282600Y-2494680D01*
X38216827Y-2593115D01*
X38133115Y-2676827D01*
X38034680Y-2742600D01*
X37957340Y-2774635D01*
X37925305Y-2787904D01*
X37886601Y-2795603D01*
X37809195Y-2811000D01*
X37690805Y-2811000D01*
X37613399Y-2795603D01*
X37574695Y-2787904D01*
X37542660Y-2774635D01*
X37465320Y-2742600D01*
X37366885Y-2676827D01*
X37283173Y-2593115D01*
X37217400Y-2494680D01*
X37172096Y-2385304D01*
X37149000Y-2269195D01*
X37149000Y-2150805D01*
X37172096Y-2034696D01*
X37217400Y-1925320D01*
X37283173Y-1826885D01*
X37366885Y-1743173D01*
X37465320Y-1677400D01*
X37542660Y-1645365D01*
X37574695Y-1632096D01*
X37613399Y-1624397D01*
X37690805Y-1609000D01*
X37809195Y-1609000D01*
X37886601Y-1624397D01*
G37*
G36*
X35886601Y-1624397D02*
G01*
X35925305Y-1632096D01*
X35957340Y-1645365D01*
X36034680Y-1677400D01*
X36133115Y-1743173D01*
X36216827Y-1826885D01*
X36282600Y-1925320D01*
X36327904Y-2034696D01*
X36351000Y-2150805D01*
X36351000Y-2269195D01*
X36327904Y-2385304D01*
X36282600Y-2494680D01*
X36216827Y-2593115D01*
X36133115Y-2676827D01*
X36034680Y-2742600D01*
X35957340Y-2774635D01*
X35925305Y-2787904D01*
X35886601Y-2795603D01*
X35809195Y-2811000D01*
X35690805Y-2811000D01*
X35613399Y-2795603D01*
X35574695Y-2787904D01*
X35542660Y-2774635D01*
X35465320Y-2742600D01*
X35366885Y-2676827D01*
X35283173Y-2593115D01*
X35217400Y-2494680D01*
X35172096Y-2385304D01*
X35149000Y-2269195D01*
X35149000Y-2150805D01*
X35172096Y-2034696D01*
X35217400Y-1925320D01*
X35283173Y-1826885D01*
X35366885Y-1743173D01*
X35465320Y-1677400D01*
X35542660Y-1645365D01*
X35574695Y-1632096D01*
X35613399Y-1624397D01*
X35690805Y-1609000D01*
X35809195Y-1609000D01*
X35886601Y-1624397D01*
G37*
G36*
X55886601Y-1624397D02*
G01*
X55925305Y-1632096D01*
X55957340Y-1645365D01*
X56034680Y-1677400D01*
X56133115Y-1743173D01*
X56216827Y-1826885D01*
X56282600Y-1925320D01*
X56327904Y-2034696D01*
X56351000Y-2150805D01*
X56351000Y-2269195D01*
X56327904Y-2385304D01*
X56282600Y-2494680D01*
X56216827Y-2593115D01*
X56133115Y-2676827D01*
X56034680Y-2742600D01*
X55957340Y-2774635D01*
X55925305Y-2787904D01*
X55886601Y-2795603D01*
X55809195Y-2811000D01*
X55690805Y-2811000D01*
X55613399Y-2795603D01*
X55574695Y-2787904D01*
X55542660Y-2774635D01*
X55465320Y-2742600D01*
X55366885Y-2676827D01*
X55283173Y-2593115D01*
X55217400Y-2494680D01*
X55172096Y-2385304D01*
X55149000Y-2269195D01*
X55149000Y-2150805D01*
X55172096Y-2034696D01*
X55217400Y-1925320D01*
X55283173Y-1826885D01*
X55366885Y-1743173D01*
X55465320Y-1677400D01*
X55542660Y-1645365D01*
X55574695Y-1632096D01*
X55613399Y-1624397D01*
X55690805Y-1609000D01*
X55809195Y-1609000D01*
X55886601Y-1624397D01*
G37*
G36*
X33886601Y-1624397D02*
G01*
X33925305Y-1632096D01*
X33957340Y-1645365D01*
X34034680Y-1677400D01*
X34133115Y-1743173D01*
X34216827Y-1826885D01*
X34282600Y-1925320D01*
X34327904Y-2034696D01*
X34351000Y-2150805D01*
X34351000Y-2269195D01*
X34327904Y-2385304D01*
X34282600Y-2494680D01*
X34216827Y-2593115D01*
X34133115Y-2676827D01*
X34034680Y-2742600D01*
X33957340Y-2774635D01*
X33925305Y-2787904D01*
X33886601Y-2795603D01*
X33809195Y-2811000D01*
X33690805Y-2811000D01*
X33613399Y-2795603D01*
X33574695Y-2787904D01*
X33542660Y-2774635D01*
X33465320Y-2742600D01*
X33366885Y-2676827D01*
X33283173Y-2593115D01*
X33217400Y-2494680D01*
X33172096Y-2385304D01*
X33149000Y-2269195D01*
X33149000Y-2150805D01*
X33172096Y-2034696D01*
X33217400Y-1925320D01*
X33283173Y-1826885D01*
X33366885Y-1743173D01*
X33465320Y-1677400D01*
X33542660Y-1645365D01*
X33574695Y-1632096D01*
X33613399Y-1624397D01*
X33690805Y-1609000D01*
X33809195Y-1609000D01*
X33886601Y-1624397D01*
G37*
G36*
X63886601Y-1624397D02*
G01*
X63925305Y-1632096D01*
X63957340Y-1645365D01*
X64034680Y-1677400D01*
X64133115Y-1743173D01*
X64216827Y-1826885D01*
X64282600Y-1925320D01*
X64327904Y-2034696D01*
X64351000Y-2150805D01*
X64351000Y-2269195D01*
X64327904Y-2385304D01*
X64282600Y-2494680D01*
X64216827Y-2593115D01*
X64133115Y-2676827D01*
X64034680Y-2742600D01*
X63957340Y-2774635D01*
X63925305Y-2787904D01*
X63886601Y-2795603D01*
X63809195Y-2811000D01*
X63690805Y-2811000D01*
X63613399Y-2795603D01*
X63574695Y-2787904D01*
X63542660Y-2774635D01*
X63465320Y-2742600D01*
X63366885Y-2676827D01*
X63283173Y-2593115D01*
X63217400Y-2494680D01*
X63172096Y-2385304D01*
X63149000Y-2269195D01*
X63149000Y-2150805D01*
X63172096Y-2034696D01*
X63217400Y-1925320D01*
X63283173Y-1826885D01*
X63366885Y-1743173D01*
X63465320Y-1677400D01*
X63542660Y-1645365D01*
X63574695Y-1632096D01*
X63613399Y-1624397D01*
X63690805Y-1609000D01*
X63809195Y-1609000D01*
X63886601Y-1624397D01*
G37*
G36*
X57886601Y-1624397D02*
G01*
X57925305Y-1632096D01*
X57957340Y-1645365D01*
X58034680Y-1677400D01*
X58133115Y-1743173D01*
X58216827Y-1826885D01*
X58282600Y-1925320D01*
X58327904Y-2034696D01*
X58351000Y-2150805D01*
X58351000Y-2269195D01*
X58327904Y-2385304D01*
X58282600Y-2494680D01*
X58216827Y-2593115D01*
X58133115Y-2676827D01*
X58034680Y-2742600D01*
X57957340Y-2774635D01*
X57925305Y-2787904D01*
X57886601Y-2795603D01*
X57809195Y-2811000D01*
X57690805Y-2811000D01*
X57613399Y-2795603D01*
X57574695Y-2787904D01*
X57542660Y-2774635D01*
X57465320Y-2742600D01*
X57366885Y-2676827D01*
X57283173Y-2593115D01*
X57217400Y-2494680D01*
X57172096Y-2385304D01*
X57149000Y-2269195D01*
X57149000Y-2150805D01*
X57172096Y-2034696D01*
X57217400Y-1925320D01*
X57283173Y-1826885D01*
X57366885Y-1743173D01*
X57465320Y-1677400D01*
X57542660Y-1645365D01*
X57574695Y-1632096D01*
X57613399Y-1624397D01*
X57690805Y-1609000D01*
X57809195Y-1609000D01*
X57886601Y-1624397D01*
G37*
G36*
X29886601Y-1624397D02*
G01*
X29925305Y-1632096D01*
X29957340Y-1645365D01*
X30034680Y-1677400D01*
X30133115Y-1743173D01*
X30216827Y-1826885D01*
X30282600Y-1925320D01*
X30327904Y-2034696D01*
X30351000Y-2150805D01*
X30351000Y-2269195D01*
X30327904Y-2385304D01*
X30282600Y-2494680D01*
X30216827Y-2593115D01*
X30133115Y-2676827D01*
X30034680Y-2742600D01*
X29957340Y-2774635D01*
X29925305Y-2787904D01*
X29886601Y-2795603D01*
X29809195Y-2811000D01*
X29690805Y-2811000D01*
X29613399Y-2795603D01*
X29574695Y-2787904D01*
X29542660Y-2774635D01*
X29465320Y-2742600D01*
X29366885Y-2676827D01*
X29283173Y-2593115D01*
X29217400Y-2494680D01*
X29172096Y-2385304D01*
X29149000Y-2269195D01*
X29149000Y-2150805D01*
X29172096Y-2034696D01*
X29217400Y-1925320D01*
X29283173Y-1826885D01*
X29366885Y-1743173D01*
X29465320Y-1677400D01*
X29542660Y-1645365D01*
X29574695Y-1632096D01*
X29613399Y-1624397D01*
X29690805Y-1609000D01*
X29809195Y-1609000D01*
X29886601Y-1624397D01*
G37*
G36*
X27886601Y-1624397D02*
G01*
X27925305Y-1632096D01*
X27957340Y-1645365D01*
X28034680Y-1677400D01*
X28133115Y-1743173D01*
X28216827Y-1826885D01*
X28282600Y-1925320D01*
X28327904Y-2034696D01*
X28351000Y-2150805D01*
X28351000Y-2269195D01*
X28327904Y-2385304D01*
X28282600Y-2494680D01*
X28216827Y-2593115D01*
X28133115Y-2676827D01*
X28034680Y-2742600D01*
X27957340Y-2774635D01*
X27925305Y-2787904D01*
X27886601Y-2795603D01*
X27809195Y-2811000D01*
X27690805Y-2811000D01*
X27613399Y-2795603D01*
X27574695Y-2787904D01*
X27542660Y-2774635D01*
X27465320Y-2742600D01*
X27366885Y-2676827D01*
X27283173Y-2593115D01*
X27217400Y-2494680D01*
X27172096Y-2385304D01*
X27149000Y-2269195D01*
X27149000Y-2150805D01*
X27172096Y-2034696D01*
X27217400Y-1925320D01*
X27283173Y-1826885D01*
X27366885Y-1743173D01*
X27465320Y-1677400D01*
X27542660Y-1645365D01*
X27574695Y-1632096D01*
X27613399Y-1624397D01*
X27690805Y-1609000D01*
X27809195Y-1609000D01*
X27886601Y-1624397D01*
G37*
G36*
X59886601Y-1624397D02*
G01*
X59925305Y-1632096D01*
X59957340Y-1645365D01*
X60034680Y-1677400D01*
X60133115Y-1743173D01*
X60216827Y-1826885D01*
X60282600Y-1925320D01*
X60327904Y-2034696D01*
X60351000Y-2150805D01*
X60351000Y-2269195D01*
X60327904Y-2385304D01*
X60282600Y-2494680D01*
X60216827Y-2593115D01*
X60133115Y-2676827D01*
X60034680Y-2742600D01*
X59957340Y-2774635D01*
X59925305Y-2787904D01*
X59886601Y-2795603D01*
X59809195Y-2811000D01*
X59690805Y-2811000D01*
X59613399Y-2795603D01*
X59574695Y-2787904D01*
X59542660Y-2774635D01*
X59465320Y-2742600D01*
X59366885Y-2676827D01*
X59283173Y-2593115D01*
X59217400Y-2494680D01*
X59172096Y-2385304D01*
X59149000Y-2269195D01*
X59149000Y-2150805D01*
X59172096Y-2034696D01*
X59217400Y-1925320D01*
X59283173Y-1826885D01*
X59366885Y-1743173D01*
X59465320Y-1677400D01*
X59542660Y-1645365D01*
X59574695Y-1632096D01*
X59613399Y-1624397D01*
X59690805Y-1609000D01*
X59809195Y-1609000D01*
X59886601Y-1624397D01*
G37*
G36*
X25886601Y-1624397D02*
G01*
X25925305Y-1632096D01*
X25957340Y-1645365D01*
X26034680Y-1677400D01*
X26133115Y-1743173D01*
X26216827Y-1826885D01*
X26282600Y-1925320D01*
X26327904Y-2034696D01*
X26351000Y-2150805D01*
X26351000Y-2269195D01*
X26327904Y-2385304D01*
X26282600Y-2494680D01*
X26216827Y-2593115D01*
X26133115Y-2676827D01*
X26034680Y-2742600D01*
X25957340Y-2774635D01*
X25925305Y-2787904D01*
X25886601Y-2795603D01*
X25809195Y-2811000D01*
X25690805Y-2811000D01*
X25613399Y-2795603D01*
X25574695Y-2787904D01*
X25542660Y-2774635D01*
X25465320Y-2742600D01*
X25366885Y-2676827D01*
X25283173Y-2593115D01*
X25217400Y-2494680D01*
X25172096Y-2385304D01*
X25149000Y-2269195D01*
X25149000Y-2150805D01*
X25172096Y-2034696D01*
X25217400Y-1925320D01*
X25283173Y-1826885D01*
X25366885Y-1743173D01*
X25465320Y-1677400D01*
X25542660Y-1645365D01*
X25574695Y-1632096D01*
X25613399Y-1624397D01*
X25690805Y-1609000D01*
X25809195Y-1609000D01*
X25886601Y-1624397D01*
G37*
G36*
X21886601Y-1624397D02*
G01*
X21925305Y-1632096D01*
X21957340Y-1645365D01*
X22034680Y-1677400D01*
X22133115Y-1743173D01*
X22216827Y-1826885D01*
X22282600Y-1925320D01*
X22327904Y-2034696D01*
X22351000Y-2150805D01*
X22351000Y-2269195D01*
X22327904Y-2385304D01*
X22282600Y-2494680D01*
X22216827Y-2593115D01*
X22133115Y-2676827D01*
X22034680Y-2742600D01*
X21957340Y-2774635D01*
X21925305Y-2787904D01*
X21886601Y-2795603D01*
X21809195Y-2811000D01*
X21690805Y-2811000D01*
X21613399Y-2795603D01*
X21574695Y-2787904D01*
X21542660Y-2774635D01*
X21465320Y-2742600D01*
X21366885Y-2676827D01*
X21283173Y-2593115D01*
X21217400Y-2494680D01*
X21172096Y-2385304D01*
X21149000Y-2269195D01*
X21149000Y-2150805D01*
X21172096Y-2034696D01*
X21217400Y-1925320D01*
X21283173Y-1826885D01*
X21366885Y-1743173D01*
X21465320Y-1677400D01*
X21542660Y-1645365D01*
X21574695Y-1632096D01*
X21613399Y-1624397D01*
X21690805Y-1609000D01*
X21809195Y-1609000D01*
X21886601Y-1624397D01*
G37*
G36*
X61886601Y-1624397D02*
G01*
X61925305Y-1632096D01*
X61957340Y-1645365D01*
X62034680Y-1677400D01*
X62133115Y-1743173D01*
X62216827Y-1826885D01*
X62282600Y-1925320D01*
X62327904Y-2034696D01*
X62351000Y-2150805D01*
X62351000Y-2269195D01*
X62327904Y-2385304D01*
X62282600Y-2494680D01*
X62216827Y-2593115D01*
X62133115Y-2676827D01*
X62034680Y-2742600D01*
X61957340Y-2774635D01*
X61925305Y-2787904D01*
X61886601Y-2795603D01*
X61809195Y-2811000D01*
X61690805Y-2811000D01*
X61613399Y-2795603D01*
X61574695Y-2787904D01*
X61542660Y-2774635D01*
X61465320Y-2742600D01*
X61366885Y-2676827D01*
X61283173Y-2593115D01*
X61217400Y-2494680D01*
X61172096Y-2385304D01*
X61149000Y-2269195D01*
X61149000Y-2150805D01*
X61172096Y-2034696D01*
X61217400Y-1925320D01*
X61283173Y-1826885D01*
X61366885Y-1743173D01*
X61465320Y-1677400D01*
X61542660Y-1645365D01*
X61574695Y-1632096D01*
X61613399Y-1624397D01*
X61690805Y-1609000D01*
X61809195Y-1609000D01*
X61886601Y-1624397D01*
G37*
G36*
X19886601Y-1624397D02*
G01*
X19925305Y-1632096D01*
X19957340Y-1645365D01*
X20034680Y-1677400D01*
X20133115Y-1743173D01*
X20216827Y-1826885D01*
X20282600Y-1925320D01*
X20327904Y-2034696D01*
X20351000Y-2150805D01*
X20351000Y-2269195D01*
X20327904Y-2385304D01*
X20282600Y-2494680D01*
X20216827Y-2593115D01*
X20133115Y-2676827D01*
X20034680Y-2742600D01*
X19957340Y-2774635D01*
X19925305Y-2787904D01*
X19886601Y-2795603D01*
X19809195Y-2811000D01*
X19690805Y-2811000D01*
X19613399Y-2795603D01*
X19574695Y-2787904D01*
X19542660Y-2774635D01*
X19465320Y-2742600D01*
X19366885Y-2676827D01*
X19283173Y-2593115D01*
X19217400Y-2494680D01*
X19172096Y-2385304D01*
X19149000Y-2269195D01*
X19149000Y-2150805D01*
X19172096Y-2034696D01*
X19217400Y-1925320D01*
X19283173Y-1826885D01*
X19366885Y-1743173D01*
X19465320Y-1677400D01*
X19542660Y-1645365D01*
X19574695Y-1632096D01*
X19613399Y-1624397D01*
X19690805Y-1609000D01*
X19809195Y-1609000D01*
X19886601Y-1624397D01*
G37*
G36*
X17886601Y-1624397D02*
G01*
X17925305Y-1632096D01*
X17957340Y-1645365D01*
X18034680Y-1677400D01*
X18133115Y-1743173D01*
X18216827Y-1826885D01*
X18282600Y-1925320D01*
X18327904Y-2034696D01*
X18351000Y-2150805D01*
X18351000Y-2269195D01*
X18327904Y-2385304D01*
X18282600Y-2494680D01*
X18216827Y-2593115D01*
X18133115Y-2676827D01*
X18034680Y-2742600D01*
X17957340Y-2774635D01*
X17925305Y-2787904D01*
X17886601Y-2795603D01*
X17809195Y-2811000D01*
X17690805Y-2811000D01*
X17613399Y-2795603D01*
X17574695Y-2787904D01*
X17542660Y-2774635D01*
X17465320Y-2742600D01*
X17366885Y-2676827D01*
X17283173Y-2593115D01*
X17217400Y-2494680D01*
X17172096Y-2385304D01*
X17149000Y-2269195D01*
X17149000Y-2150805D01*
X17172096Y-2034696D01*
X17217400Y-1925320D01*
X17283173Y-1826885D01*
X17366885Y-1743173D01*
X17465320Y-1677400D01*
X17542660Y-1645365D01*
X17574695Y-1632096D01*
X17613399Y-1624397D01*
X17690805Y-1609000D01*
X17809195Y-1609000D01*
X17886601Y-1624397D01*
G37*
G36*
X81886601Y-1624397D02*
G01*
X81925305Y-1632096D01*
X81957340Y-1645365D01*
X82034680Y-1677400D01*
X82133115Y-1743173D01*
X82216827Y-1826885D01*
X82282600Y-1925320D01*
X82327904Y-2034696D01*
X82351000Y-2150805D01*
X82351000Y-2269195D01*
X82327904Y-2385304D01*
X82282600Y-2494680D01*
X82216827Y-2593115D01*
X82133115Y-2676827D01*
X82034680Y-2742600D01*
X81957340Y-2774635D01*
X81925305Y-2787904D01*
X81886601Y-2795603D01*
X81809195Y-2811000D01*
X81690805Y-2811000D01*
X81613399Y-2795603D01*
X81574695Y-2787904D01*
X81542660Y-2774635D01*
X81465320Y-2742600D01*
X81366885Y-2676827D01*
X81283173Y-2593115D01*
X81217400Y-2494680D01*
X81172096Y-2385304D01*
X81149000Y-2269195D01*
X81149000Y-2150805D01*
X81172096Y-2034696D01*
X81217400Y-1925320D01*
X81283173Y-1826885D01*
X81366885Y-1743173D01*
X81465320Y-1677400D01*
X81542660Y-1645365D01*
X81574695Y-1632096D01*
X81613399Y-1624397D01*
X81690805Y-1609000D01*
X81809195Y-1609000D01*
X81886601Y-1624397D01*
G37*
G36*
X15886601Y-1624397D02*
G01*
X15925305Y-1632096D01*
X15957340Y-1645365D01*
X16034680Y-1677400D01*
X16133115Y-1743173D01*
X16216827Y-1826885D01*
X16282600Y-1925320D01*
X16327904Y-2034696D01*
X16351000Y-2150805D01*
X16351000Y-2269195D01*
X16327904Y-2385304D01*
X16282600Y-2494680D01*
X16216827Y-2593115D01*
X16133115Y-2676827D01*
X16034680Y-2742600D01*
X15957340Y-2774635D01*
X15925305Y-2787904D01*
X15886601Y-2795603D01*
X15809195Y-2811000D01*
X15690805Y-2811000D01*
X15613399Y-2795603D01*
X15574695Y-2787904D01*
X15542660Y-2774635D01*
X15465320Y-2742600D01*
X15366885Y-2676827D01*
X15283173Y-2593115D01*
X15217400Y-2494680D01*
X15172096Y-2385304D01*
X15149000Y-2269195D01*
X15149000Y-2150805D01*
X15172096Y-2034696D01*
X15217400Y-1925320D01*
X15283173Y-1826885D01*
X15366885Y-1743173D01*
X15465320Y-1677400D01*
X15542660Y-1645365D01*
X15574695Y-1632096D01*
X15613399Y-1624397D01*
X15690805Y-1609000D01*
X15809195Y-1609000D01*
X15886601Y-1624397D01*
G37*
G36*
X13886601Y-1624397D02*
G01*
X13925305Y-1632096D01*
X13957340Y-1645365D01*
X14034680Y-1677400D01*
X14133115Y-1743173D01*
X14216827Y-1826885D01*
X14282600Y-1925320D01*
X14327904Y-2034696D01*
X14351000Y-2150805D01*
X14351000Y-2269195D01*
X14327904Y-2385304D01*
X14282600Y-2494680D01*
X14216827Y-2593115D01*
X14133115Y-2676827D01*
X14034680Y-2742600D01*
X13957340Y-2774635D01*
X13925305Y-2787904D01*
X13886601Y-2795603D01*
X13809195Y-2811000D01*
X13690805Y-2811000D01*
X13613399Y-2795603D01*
X13574695Y-2787904D01*
X13542660Y-2774635D01*
X13465320Y-2742600D01*
X13366885Y-2676827D01*
X13283173Y-2593115D01*
X13217400Y-2494680D01*
X13172096Y-2385304D01*
X13149000Y-2269195D01*
X13149000Y-2150805D01*
X13172096Y-2034696D01*
X13217400Y-1925320D01*
X13283173Y-1826885D01*
X13366885Y-1743173D01*
X13465320Y-1677400D01*
X13542660Y-1645365D01*
X13574695Y-1632096D01*
X13613399Y-1624397D01*
X13690805Y-1609000D01*
X13809195Y-1609000D01*
X13886601Y-1624397D01*
G37*
G36*
X65886601Y-1624397D02*
G01*
X65925305Y-1632096D01*
X65957340Y-1645365D01*
X66034680Y-1677400D01*
X66133115Y-1743173D01*
X66216827Y-1826885D01*
X66282600Y-1925320D01*
X66327904Y-2034696D01*
X66351000Y-2150805D01*
X66351000Y-2269195D01*
X66327904Y-2385304D01*
X66282600Y-2494680D01*
X66216827Y-2593115D01*
X66133115Y-2676827D01*
X66034680Y-2742600D01*
X65957340Y-2774635D01*
X65925305Y-2787904D01*
X65886601Y-2795603D01*
X65809195Y-2811000D01*
X65690805Y-2811000D01*
X65613399Y-2795603D01*
X65574695Y-2787904D01*
X65542660Y-2774635D01*
X65465320Y-2742600D01*
X65366885Y-2676827D01*
X65283173Y-2593115D01*
X65217400Y-2494680D01*
X65172096Y-2385304D01*
X65149000Y-2269195D01*
X65149000Y-2150805D01*
X65172096Y-2034696D01*
X65217400Y-1925320D01*
X65283173Y-1826885D01*
X65366885Y-1743173D01*
X65465320Y-1677400D01*
X65542660Y-1645365D01*
X65574695Y-1632096D01*
X65613399Y-1624397D01*
X65690805Y-1609000D01*
X65809195Y-1609000D01*
X65886601Y-1624397D01*
G37*
G36*
X67886601Y-1624397D02*
G01*
X67925305Y-1632096D01*
X67957340Y-1645365D01*
X68034680Y-1677400D01*
X68133115Y-1743173D01*
X68216827Y-1826885D01*
X68282600Y-1925320D01*
X68327904Y-2034696D01*
X68351000Y-2150805D01*
X68351000Y-2269195D01*
X68327904Y-2385304D01*
X68282600Y-2494680D01*
X68216827Y-2593115D01*
X68133115Y-2676827D01*
X68034680Y-2742600D01*
X67957340Y-2774635D01*
X67925305Y-2787904D01*
X67886601Y-2795603D01*
X67809195Y-2811000D01*
X67690805Y-2811000D01*
X67613399Y-2795603D01*
X67574695Y-2787904D01*
X67542660Y-2774635D01*
X67465320Y-2742600D01*
X67366885Y-2676827D01*
X67283173Y-2593115D01*
X67217400Y-2494680D01*
X67172096Y-2385304D01*
X67149000Y-2269195D01*
X67149000Y-2150805D01*
X67172096Y-2034696D01*
X67217400Y-1925320D01*
X67283173Y-1826885D01*
X67366885Y-1743173D01*
X67465320Y-1677400D01*
X67542660Y-1645365D01*
X67574695Y-1632096D01*
X67613399Y-1624397D01*
X67690805Y-1609000D01*
X67809195Y-1609000D01*
X67886601Y-1624397D01*
G37*
G36*
X69886601Y-1624397D02*
G01*
X69925305Y-1632096D01*
X69957340Y-1645365D01*
X70034680Y-1677400D01*
X70133115Y-1743173D01*
X70216827Y-1826885D01*
X70282600Y-1925320D01*
X70327904Y-2034696D01*
X70351000Y-2150805D01*
X70351000Y-2269195D01*
X70327904Y-2385304D01*
X70282600Y-2494680D01*
X70216827Y-2593115D01*
X70133115Y-2676827D01*
X70034680Y-2742600D01*
X69957340Y-2774635D01*
X69925305Y-2787904D01*
X69886601Y-2795603D01*
X69809195Y-2811000D01*
X69690805Y-2811000D01*
X69613399Y-2795603D01*
X69574695Y-2787904D01*
X69542660Y-2774635D01*
X69465320Y-2742600D01*
X69366885Y-2676827D01*
X69283173Y-2593115D01*
X69217400Y-2494680D01*
X69172096Y-2385304D01*
X69149000Y-2269195D01*
X69149000Y-2150805D01*
X69172096Y-2034696D01*
X69217400Y-1925320D01*
X69283173Y-1826885D01*
X69366885Y-1743173D01*
X69465320Y-1677400D01*
X69542660Y-1645365D01*
X69574695Y-1632096D01*
X69613399Y-1624397D01*
X69690805Y-1609000D01*
X69809195Y-1609000D01*
X69886601Y-1624397D01*
G37*
G36*
X71886601Y-1624397D02*
G01*
X71925305Y-1632096D01*
X71957340Y-1645365D01*
X72034680Y-1677400D01*
X72133115Y-1743173D01*
X72216827Y-1826885D01*
X72282600Y-1925320D01*
X72327904Y-2034696D01*
X72351000Y-2150805D01*
X72351000Y-2269195D01*
X72327904Y-2385304D01*
X72282600Y-2494680D01*
X72216827Y-2593115D01*
X72133115Y-2676827D01*
X72034680Y-2742600D01*
X71957340Y-2774635D01*
X71925305Y-2787904D01*
X71886601Y-2795603D01*
X71809195Y-2811000D01*
X71690805Y-2811000D01*
X71613399Y-2795603D01*
X71574695Y-2787904D01*
X71542660Y-2774635D01*
X71465320Y-2742600D01*
X71366885Y-2676827D01*
X71283173Y-2593115D01*
X71217400Y-2494680D01*
X71172096Y-2385304D01*
X71149000Y-2269195D01*
X71149000Y-2150805D01*
X71172096Y-2034696D01*
X71217400Y-1925320D01*
X71283173Y-1826885D01*
X71366885Y-1743173D01*
X71465320Y-1677400D01*
X71542660Y-1645365D01*
X71574695Y-1632096D01*
X71613399Y-1624397D01*
X71690805Y-1609000D01*
X71809195Y-1609000D01*
X71886601Y-1624397D01*
G37*
G36*
X73886601Y-1624397D02*
G01*
X73925305Y-1632096D01*
X73957340Y-1645365D01*
X74034680Y-1677400D01*
X74133115Y-1743173D01*
X74216827Y-1826885D01*
X74282600Y-1925320D01*
X74327904Y-2034696D01*
X74351000Y-2150805D01*
X74351000Y-2269195D01*
X74327904Y-2385304D01*
X74282600Y-2494680D01*
X74216827Y-2593115D01*
X74133115Y-2676827D01*
X74034680Y-2742600D01*
X73957340Y-2774635D01*
X73925305Y-2787904D01*
X73886601Y-2795603D01*
X73809195Y-2811000D01*
X73690805Y-2811000D01*
X73613399Y-2795603D01*
X73574695Y-2787904D01*
X73542660Y-2774635D01*
X73465320Y-2742600D01*
X73366885Y-2676827D01*
X73283173Y-2593115D01*
X73217400Y-2494680D01*
X73172096Y-2385304D01*
X73149000Y-2269195D01*
X73149000Y-2150805D01*
X73172096Y-2034696D01*
X73217400Y-1925320D01*
X73283173Y-1826885D01*
X73366885Y-1743173D01*
X73465320Y-1677400D01*
X73542660Y-1645365D01*
X73574695Y-1632096D01*
X73613399Y-1624397D01*
X73690805Y-1609000D01*
X73809195Y-1609000D01*
X73886601Y-1624397D01*
G37*
G36*
X75886601Y-1624397D02*
G01*
X75925305Y-1632096D01*
X75957340Y-1645365D01*
X76034680Y-1677400D01*
X76133115Y-1743173D01*
X76216827Y-1826885D01*
X76282600Y-1925320D01*
X76327904Y-2034696D01*
X76351000Y-2150805D01*
X76351000Y-2269195D01*
X76327904Y-2385304D01*
X76282600Y-2494680D01*
X76216827Y-2593115D01*
X76133115Y-2676827D01*
X76034680Y-2742600D01*
X75957340Y-2774635D01*
X75925305Y-2787904D01*
X75886601Y-2795603D01*
X75809195Y-2811000D01*
X75690805Y-2811000D01*
X75613399Y-2795603D01*
X75574695Y-2787904D01*
X75542660Y-2774635D01*
X75465320Y-2742600D01*
X75366885Y-2676827D01*
X75283173Y-2593115D01*
X75217400Y-2494680D01*
X75172096Y-2385304D01*
X75149000Y-2269195D01*
X75149000Y-2150805D01*
X75172096Y-2034696D01*
X75217400Y-1925320D01*
X75283173Y-1826885D01*
X75366885Y-1743173D01*
X75465320Y-1677400D01*
X75542660Y-1645365D01*
X75574695Y-1632096D01*
X75613399Y-1624397D01*
X75690805Y-1609000D01*
X75809195Y-1609000D01*
X75886601Y-1624397D01*
G37*
G36*
X77886601Y-1624397D02*
G01*
X77925305Y-1632096D01*
X77957340Y-1645365D01*
X78034680Y-1677400D01*
X78133115Y-1743173D01*
X78216827Y-1826885D01*
X78282600Y-1925320D01*
X78327904Y-2034696D01*
X78351000Y-2150805D01*
X78351000Y-2269195D01*
X78327904Y-2385304D01*
X78282600Y-2494680D01*
X78216827Y-2593115D01*
X78133115Y-2676827D01*
X78034680Y-2742600D01*
X77957340Y-2774635D01*
X77925305Y-2787904D01*
X77886601Y-2795603D01*
X77809195Y-2811000D01*
X77690805Y-2811000D01*
X77613399Y-2795603D01*
X77574695Y-2787904D01*
X77542660Y-2774635D01*
X77465320Y-2742600D01*
X77366885Y-2676827D01*
X77283173Y-2593115D01*
X77217400Y-2494680D01*
X77172096Y-2385304D01*
X77149000Y-2269195D01*
X77149000Y-2150805D01*
X77172096Y-2034696D01*
X77217400Y-1925320D01*
X77283173Y-1826885D01*
X77366885Y-1743173D01*
X77465320Y-1677400D01*
X77542660Y-1645365D01*
X77574695Y-1632096D01*
X77613399Y-1624397D01*
X77690805Y-1609000D01*
X77809195Y-1609000D01*
X77886601Y-1624397D01*
G37*
G36*
X79886601Y-1624397D02*
G01*
X79925305Y-1632096D01*
X79957340Y-1645365D01*
X80034680Y-1677400D01*
X80133115Y-1743173D01*
X80216827Y-1826885D01*
X80282600Y-1925320D01*
X80327904Y-2034696D01*
X80351000Y-2150805D01*
X80351000Y-2269195D01*
X80327904Y-2385304D01*
X80282600Y-2494680D01*
X80216827Y-2593115D01*
X80133115Y-2676827D01*
X80034680Y-2742600D01*
X79957340Y-2774635D01*
X79925305Y-2787904D01*
X79886601Y-2795603D01*
X79809195Y-2811000D01*
X79690805Y-2811000D01*
X79613399Y-2795603D01*
X79574695Y-2787904D01*
X79542660Y-2774635D01*
X79465320Y-2742600D01*
X79366885Y-2676827D01*
X79283173Y-2593115D01*
X79217400Y-2494680D01*
X79172096Y-2385304D01*
X79149000Y-2269195D01*
X79149000Y-2150805D01*
X79172096Y-2034696D01*
X79217400Y-1925320D01*
X79283173Y-1826885D01*
X79366885Y-1743173D01*
X79465320Y-1677400D01*
X79542660Y-1645365D01*
X79574695Y-1632096D01*
X79613399Y-1624397D01*
X79690805Y-1609000D01*
X79809195Y-1609000D01*
X79886601Y-1624397D01*
G37*
G36*
X83886601Y-1624397D02*
G01*
X83925305Y-1632096D01*
X83957340Y-1645365D01*
X84034680Y-1677400D01*
X84133115Y-1743173D01*
X84216827Y-1826885D01*
X84282600Y-1925320D01*
X84327904Y-2034696D01*
X84351000Y-2150805D01*
X84351000Y-2269195D01*
X84327904Y-2385304D01*
X84282600Y-2494680D01*
X84216827Y-2593115D01*
X84133115Y-2676827D01*
X84034680Y-2742600D01*
X83957340Y-2774635D01*
X83925305Y-2787904D01*
X83886601Y-2795603D01*
X83809195Y-2811000D01*
X83690805Y-2811000D01*
X83613399Y-2795603D01*
X83574695Y-2787904D01*
X83542660Y-2774635D01*
X83465320Y-2742600D01*
X83366885Y-2676827D01*
X83283173Y-2593115D01*
X83217400Y-2494680D01*
X83172096Y-2385304D01*
X83149000Y-2269195D01*
X83149000Y-2150805D01*
X83172096Y-2034696D01*
X83217400Y-1925320D01*
X83283173Y-1826885D01*
X83366885Y-1743173D01*
X83465320Y-1677400D01*
X83542660Y-1645365D01*
X83574695Y-1632096D01*
X83613399Y-1624397D01*
X83690805Y-1609000D01*
X83809195Y-1609000D01*
X83886601Y-1624397D01*
G37*
G36*
X85886601Y-1624397D02*
G01*
X85925305Y-1632096D01*
X85957340Y-1645365D01*
X86034680Y-1677400D01*
X86133115Y-1743173D01*
X86216827Y-1826885D01*
X86282600Y-1925320D01*
X86327904Y-2034696D01*
X86351000Y-2150805D01*
X86351000Y-2269195D01*
X86327904Y-2385304D01*
X86282600Y-2494680D01*
X86216827Y-2593115D01*
X86133115Y-2676827D01*
X86034680Y-2742600D01*
X85957340Y-2774635D01*
X85925305Y-2787904D01*
X85886601Y-2795603D01*
X85809195Y-2811000D01*
X85690805Y-2811000D01*
X85613399Y-2795603D01*
X85574695Y-2787904D01*
X85542660Y-2774635D01*
X85465320Y-2742600D01*
X85366885Y-2676827D01*
X85283173Y-2593115D01*
X85217400Y-2494680D01*
X85172096Y-2385304D01*
X85149000Y-2269195D01*
X85149000Y-2150805D01*
X85172096Y-2034696D01*
X85217400Y-1925320D01*
X85283173Y-1826885D01*
X85366885Y-1743173D01*
X85465320Y-1677400D01*
X85542660Y-1645365D01*
X85574695Y-1632096D01*
X85613399Y-1624397D01*
X85690805Y-1609000D01*
X85809195Y-1609000D01*
X85886601Y-1624397D01*
G37*
G36*
X87886601Y-1624397D02*
G01*
X87925305Y-1632096D01*
X87957340Y-1645365D01*
X88034680Y-1677400D01*
X88133115Y-1743173D01*
X88216827Y-1826885D01*
X88282600Y-1925320D01*
X88327904Y-2034696D01*
X88351000Y-2150805D01*
X88351000Y-2269195D01*
X88327904Y-2385304D01*
X88282600Y-2494680D01*
X88216827Y-2593115D01*
X88133115Y-2676827D01*
X88034680Y-2742600D01*
X87957340Y-2774635D01*
X87925305Y-2787904D01*
X87886601Y-2795603D01*
X87809195Y-2811000D01*
X87690805Y-2811000D01*
X87613399Y-2795603D01*
X87574695Y-2787904D01*
X87542660Y-2774635D01*
X87465320Y-2742600D01*
X87366885Y-2676827D01*
X87283173Y-2593115D01*
X87217400Y-2494680D01*
X87172096Y-2385304D01*
X87149000Y-2269195D01*
X87149000Y-2150805D01*
X87172096Y-2034696D01*
X87217400Y-1925320D01*
X87283173Y-1826885D01*
X87366885Y-1743173D01*
X87465320Y-1677400D01*
X87542660Y-1645365D01*
X87574695Y-1632096D01*
X87613399Y-1624397D01*
X87690805Y-1609000D01*
X87809195Y-1609000D01*
X87886601Y-1624397D01*
G37*
G36*
X89886601Y-1624397D02*
G01*
X89925305Y-1632096D01*
X89957340Y-1645365D01*
X90034680Y-1677400D01*
X90133115Y-1743173D01*
X90216827Y-1826885D01*
X90282600Y-1925320D01*
X90327904Y-2034696D01*
X90351000Y-2150805D01*
X90351000Y-2269195D01*
X90327904Y-2385304D01*
X90282600Y-2494680D01*
X90216827Y-2593115D01*
X90133115Y-2676827D01*
X90034680Y-2742600D01*
X89957340Y-2774635D01*
X89925305Y-2787904D01*
X89886601Y-2795603D01*
X89809195Y-2811000D01*
X89690805Y-2811000D01*
X89613399Y-2795603D01*
X89574695Y-2787904D01*
X89542660Y-2774635D01*
X89465320Y-2742600D01*
X89366885Y-2676827D01*
X89283173Y-2593115D01*
X89217400Y-2494680D01*
X89172096Y-2385304D01*
X89149000Y-2269195D01*
X89149000Y-2150805D01*
X89172096Y-2034696D01*
X89217400Y-1925320D01*
X89283173Y-1826885D01*
X89366885Y-1743173D01*
X89465320Y-1677400D01*
X89542660Y-1645365D01*
X89574695Y-1632096D01*
X89613399Y-1624397D01*
X89690805Y-1609000D01*
X89809195Y-1609000D01*
X89886601Y-1624397D01*
G37*
G36*
X91886601Y-1624397D02*
G01*
X91925305Y-1632096D01*
X91957340Y-1645365D01*
X92034680Y-1677400D01*
X92133115Y-1743173D01*
X92216827Y-1826885D01*
X92282600Y-1925320D01*
X92327904Y-2034696D01*
X92351000Y-2150805D01*
X92351000Y-2269195D01*
X92327904Y-2385304D01*
X92282600Y-2494680D01*
X92216827Y-2593115D01*
X92133115Y-2676827D01*
X92034680Y-2742600D01*
X91957340Y-2774635D01*
X91925305Y-2787904D01*
X91886601Y-2795603D01*
X91809195Y-2811000D01*
X91690805Y-2811000D01*
X91613399Y-2795603D01*
X91574695Y-2787904D01*
X91542660Y-2774635D01*
X91465320Y-2742600D01*
X91366885Y-2676827D01*
X91283173Y-2593115D01*
X91217400Y-2494680D01*
X91172096Y-2385304D01*
X91149000Y-2269195D01*
X91149000Y-2150805D01*
X91172096Y-2034696D01*
X91217400Y-1925320D01*
X91283173Y-1826885D01*
X91366885Y-1743173D01*
X91465320Y-1677400D01*
X91542660Y-1645365D01*
X91574695Y-1632096D01*
X91613399Y-1624397D01*
X91690805Y-1609000D01*
X91809195Y-1609000D01*
X91886601Y-1624397D01*
G37*
G36*
X93886601Y-1624397D02*
G01*
X93925305Y-1632096D01*
X93957340Y-1645365D01*
X94034680Y-1677400D01*
X94133115Y-1743173D01*
X94216827Y-1826885D01*
X94282600Y-1925320D01*
X94327904Y-2034696D01*
X94351000Y-2150805D01*
X94351000Y-2269195D01*
X94327904Y-2385304D01*
X94282600Y-2494680D01*
X94216827Y-2593115D01*
X94133115Y-2676827D01*
X94034680Y-2742600D01*
X93957340Y-2774635D01*
X93925305Y-2787904D01*
X93886601Y-2795603D01*
X93809195Y-2811000D01*
X93690805Y-2811000D01*
X93613399Y-2795603D01*
X93574695Y-2787904D01*
X93542660Y-2774635D01*
X93465320Y-2742600D01*
X93366885Y-2676827D01*
X93283173Y-2593115D01*
X93217400Y-2494680D01*
X93172096Y-2385304D01*
X93149000Y-2269195D01*
X93149000Y-2150805D01*
X93172096Y-2034696D01*
X93217400Y-1925320D01*
X93283173Y-1826885D01*
X93366885Y-1743173D01*
X93465320Y-1677400D01*
X93542660Y-1645365D01*
X93574695Y-1632096D01*
X93613399Y-1624397D01*
X93690805Y-1609000D01*
X93809195Y-1609000D01*
X93886601Y-1624397D01*
G37*
G36*
X45886601Y-1624397D02*
G01*
X45925305Y-1632096D01*
X45957340Y-1645365D01*
X46034680Y-1677400D01*
X46133115Y-1743173D01*
X46216827Y-1826885D01*
X46282600Y-1925320D01*
X46327904Y-2034696D01*
X46351000Y-2150805D01*
X46351000Y-2269195D01*
X46327904Y-2385304D01*
X46282600Y-2494680D01*
X46216827Y-2593115D01*
X46133115Y-2676827D01*
X46034680Y-2742600D01*
X45957340Y-2774635D01*
X45925305Y-2787904D01*
X45886601Y-2795603D01*
X45809195Y-2811000D01*
X45690805Y-2811000D01*
X45613399Y-2795603D01*
X45574695Y-2787904D01*
X45542660Y-2774635D01*
X45465320Y-2742600D01*
X45366885Y-2676827D01*
X45283173Y-2593115D01*
X45217400Y-2494680D01*
X45172096Y-2385304D01*
X45149000Y-2269195D01*
X45149000Y-2150805D01*
X45172096Y-2034696D01*
X45217400Y-1925320D01*
X45283173Y-1826885D01*
X45366885Y-1743173D01*
X45465320Y-1677400D01*
X45542660Y-1645365D01*
X45574695Y-1632096D01*
X45613399Y-1624397D01*
X45690805Y-1609000D01*
X45809195Y-1609000D01*
X45886601Y-1624397D01*
G37*
G36*
X95886601Y-1624397D02*
G01*
X95925305Y-1632096D01*
X95957340Y-1645365D01*
X96034680Y-1677400D01*
X96133115Y-1743173D01*
X96216827Y-1826885D01*
X96282600Y-1925320D01*
X96327904Y-2034696D01*
X96351000Y-2150805D01*
X96351000Y-2269195D01*
X96327904Y-2385304D01*
X96282600Y-2494680D01*
X96216827Y-2593115D01*
X96133115Y-2676827D01*
X96034680Y-2742600D01*
X95957340Y-2774635D01*
X95925305Y-2787904D01*
X95886601Y-2795603D01*
X95809195Y-2811000D01*
X95690805Y-2811000D01*
X95613399Y-2795603D01*
X95574695Y-2787904D01*
X95542660Y-2774635D01*
X95465320Y-2742600D01*
X95366885Y-2676827D01*
X95283173Y-2593115D01*
X95217400Y-2494680D01*
X95172096Y-2385304D01*
X95149000Y-2269195D01*
X95149000Y-2150805D01*
X95172096Y-2034696D01*
X95217400Y-1925320D01*
X95283173Y-1826885D01*
X95366885Y-1743173D01*
X95465320Y-1677400D01*
X95542660Y-1645365D01*
X95574695Y-1632096D01*
X95613399Y-1624397D01*
X95690805Y-1609000D01*
X95809195Y-1609000D01*
X95886601Y-1624397D01*
G37*
G36*
X47886601Y-1624397D02*
G01*
X47925305Y-1632096D01*
X47957340Y-1645365D01*
X48034680Y-1677400D01*
X48133115Y-1743173D01*
X48216827Y-1826885D01*
X48282600Y-1925320D01*
X48327904Y-2034696D01*
X48351000Y-2150805D01*
X48351000Y-2269195D01*
X48327904Y-2385304D01*
X48282600Y-2494680D01*
X48216827Y-2593115D01*
X48133115Y-2676827D01*
X48034680Y-2742600D01*
X47957340Y-2774635D01*
X47925305Y-2787904D01*
X47886601Y-2795603D01*
X47809195Y-2811000D01*
X47690805Y-2811000D01*
X47613399Y-2795603D01*
X47574695Y-2787904D01*
X47542660Y-2774635D01*
X47465320Y-2742600D01*
X47366885Y-2676827D01*
X47283173Y-2593115D01*
X47217400Y-2494680D01*
X47172096Y-2385304D01*
X47149000Y-2269195D01*
X47149000Y-2150805D01*
X47172096Y-2034696D01*
X47217400Y-1925320D01*
X47283173Y-1826885D01*
X47366885Y-1743173D01*
X47465320Y-1677400D01*
X47542660Y-1645365D01*
X47574695Y-1632096D01*
X47613399Y-1624397D01*
X47690805Y-1609000D01*
X47809195Y-1609000D01*
X47886601Y-1624397D01*
G37*
G36*
X7449720Y-2248440D02*
G01*
X6747720Y-2248440D01*
X6747720Y-1646440D01*
X7449720Y-1646440D01*
X7449720Y-2248440D01*
G37*
G36*
X6349720Y-2248440D02*
G01*
X5647720Y-2248440D01*
X5647720Y-1646440D01*
X6349720Y-1646440D01*
X6349720Y-2248440D01*
G37*
G36*
X94886601Y375603D02*
G01*
X94925305Y367904D01*
X94957340Y354635D01*
X95034680Y322600D01*
X95133115Y256827D01*
X95216827Y173115D01*
X95282600Y74680D01*
X95327904Y-34696D01*
X95351000Y-150805D01*
X95351000Y-269195D01*
X95327904Y-385304D01*
X95282600Y-494680D01*
X95216827Y-593115D01*
X95133115Y-676827D01*
X95034680Y-742600D01*
X94957340Y-774635D01*
X94925305Y-787904D01*
X94886601Y-795603D01*
X94809195Y-811000D01*
X94690805Y-811000D01*
X94613399Y-795603D01*
X94574695Y-787904D01*
X94542660Y-774635D01*
X94465320Y-742600D01*
X94366885Y-676827D01*
X94283173Y-593115D01*
X94217400Y-494680D01*
X94172096Y-385304D01*
X94149000Y-269195D01*
X94149000Y-150805D01*
X94172096Y-34696D01*
X94217400Y74680D01*
X94283173Y173115D01*
X94366885Y256827D01*
X94465320Y322600D01*
X94542660Y354635D01*
X94574695Y367904D01*
X94613399Y375603D01*
X94690805Y391000D01*
X94809195Y391000D01*
X94886601Y375603D01*
G37*
G36*
X78886601Y375603D02*
G01*
X78925305Y367904D01*
X78957340Y354635D01*
X79034680Y322600D01*
X79133115Y256827D01*
X79216827Y173115D01*
X79282600Y74680D01*
X79327904Y-34696D01*
X79351000Y-150805D01*
X79351000Y-269195D01*
X79327904Y-385304D01*
X79282600Y-494680D01*
X79216827Y-593115D01*
X79133115Y-676827D01*
X79034680Y-742600D01*
X78957340Y-774635D01*
X78925305Y-787904D01*
X78886601Y-795603D01*
X78809195Y-811000D01*
X78690805Y-811000D01*
X78613399Y-795603D01*
X78574695Y-787904D01*
X78542660Y-774635D01*
X78465320Y-742600D01*
X78366885Y-676827D01*
X78283173Y-593115D01*
X78217400Y-494680D01*
X78172096Y-385304D01*
X78149000Y-269195D01*
X78149000Y-150805D01*
X78172096Y-34696D01*
X78217400Y74680D01*
X78283173Y173115D01*
X78366885Y256827D01*
X78465320Y322600D01*
X78542660Y354635D01*
X78574695Y367904D01*
X78613399Y375603D01*
X78690805Y391000D01*
X78809195Y391000D01*
X78886601Y375603D01*
G37*
G36*
X50886601Y375603D02*
G01*
X50925305Y367904D01*
X50957340Y354635D01*
X51034680Y322600D01*
X51133115Y256827D01*
X51216827Y173115D01*
X51282600Y74680D01*
X51327904Y-34696D01*
X51351000Y-150805D01*
X51351000Y-269195D01*
X51327904Y-385304D01*
X51282600Y-494680D01*
X51216827Y-593115D01*
X51133115Y-676827D01*
X51034680Y-742600D01*
X50957340Y-774635D01*
X50925305Y-787904D01*
X50886601Y-795603D01*
X50809195Y-811000D01*
X50690805Y-811000D01*
X50613399Y-795603D01*
X50574695Y-787904D01*
X50542660Y-774635D01*
X50465320Y-742600D01*
X50366885Y-676827D01*
X50283173Y-593115D01*
X50217400Y-494680D01*
X50172096Y-385304D01*
X50149000Y-269195D01*
X50149000Y-150805D01*
X50172096Y-34696D01*
X50217400Y74680D01*
X50283173Y173115D01*
X50366885Y256827D01*
X50465320Y322600D01*
X50542660Y354635D01*
X50574695Y367904D01*
X50613399Y375603D01*
X50690805Y391000D01*
X50809195Y391000D01*
X50886601Y375603D01*
G37*
G36*
X12886601Y375603D02*
G01*
X12925305Y367904D01*
X12957340Y354635D01*
X13034680Y322600D01*
X13133115Y256827D01*
X13216827Y173115D01*
X13282600Y74680D01*
X13327904Y-34696D01*
X13351000Y-150805D01*
X13351000Y-269195D01*
X13327904Y-385304D01*
X13282600Y-494680D01*
X13216827Y-593115D01*
X13133115Y-676827D01*
X13034680Y-742600D01*
X12957340Y-774635D01*
X12925305Y-787904D01*
X12886601Y-795603D01*
X12809195Y-811000D01*
X12690805Y-811000D01*
X12613399Y-795603D01*
X12574695Y-787904D01*
X12542660Y-774635D01*
X12465320Y-742600D01*
X12366885Y-676827D01*
X12283173Y-593115D01*
X12217400Y-494680D01*
X12172096Y-385304D01*
X12149000Y-269195D01*
X12149000Y-150805D01*
X12172096Y-34696D01*
X12217400Y74680D01*
X12283173Y173115D01*
X12366885Y256827D01*
X12465320Y322600D01*
X12542660Y354635D01*
X12574695Y367904D01*
X12613399Y375603D01*
X12690805Y391000D01*
X12809195Y391000D01*
X12886601Y375603D01*
G37*
G36*
X34886601Y375603D02*
G01*
X34925305Y367904D01*
X34957340Y354635D01*
X35034680Y322600D01*
X35133115Y256827D01*
X35216827Y173115D01*
X35282600Y74680D01*
X35327904Y-34696D01*
X35351000Y-150805D01*
X35351000Y-269195D01*
X35327904Y-385304D01*
X35282600Y-494680D01*
X35216827Y-593115D01*
X35133115Y-676827D01*
X35034680Y-742600D01*
X34957340Y-774635D01*
X34925305Y-787904D01*
X34886601Y-795603D01*
X34809195Y-811000D01*
X34690805Y-811000D01*
X34613399Y-795603D01*
X34574695Y-787904D01*
X34542660Y-774635D01*
X34465320Y-742600D01*
X34366885Y-676827D01*
X34283173Y-593115D01*
X34217400Y-494680D01*
X34172096Y-385304D01*
X34149000Y-269195D01*
X34149000Y-150805D01*
X34172096Y-34696D01*
X34217400Y74680D01*
X34283173Y173115D01*
X34366885Y256827D01*
X34465320Y322600D01*
X34542660Y354635D01*
X34574695Y367904D01*
X34613399Y375603D01*
X34690805Y391000D01*
X34809195Y391000D01*
X34886601Y375603D01*
G37*
G36*
X32886601Y375603D02*
G01*
X32925305Y367904D01*
X32957340Y354635D01*
X33034680Y322600D01*
X33133115Y256827D01*
X33216827Y173115D01*
X33282600Y74680D01*
X33327904Y-34696D01*
X33351000Y-150805D01*
X33351000Y-269195D01*
X33327904Y-385304D01*
X33282600Y-494680D01*
X33216827Y-593115D01*
X33133115Y-676827D01*
X33034680Y-742600D01*
X32957340Y-774635D01*
X32925305Y-787904D01*
X32886601Y-795603D01*
X32809195Y-811000D01*
X32690805Y-811000D01*
X32613399Y-795603D01*
X32574695Y-787904D01*
X32542660Y-774635D01*
X32465320Y-742600D01*
X32366885Y-676827D01*
X32283173Y-593115D01*
X32217400Y-494680D01*
X32172096Y-385304D01*
X32149000Y-269195D01*
X32149000Y-150805D01*
X32172096Y-34696D01*
X32217400Y74680D01*
X32283173Y173115D01*
X32366885Y256827D01*
X32465320Y322600D01*
X32542660Y354635D01*
X32574695Y367904D01*
X32613399Y375603D01*
X32690805Y391000D01*
X32809195Y391000D01*
X32886601Y375603D01*
G37*
G36*
X30886601Y375603D02*
G01*
X30925305Y367904D01*
X30957340Y354635D01*
X31034680Y322600D01*
X31133115Y256827D01*
X31216827Y173115D01*
X31282600Y74680D01*
X31327904Y-34696D01*
X31351000Y-150805D01*
X31351000Y-269195D01*
X31327904Y-385304D01*
X31282600Y-494680D01*
X31216827Y-593115D01*
X31133115Y-676827D01*
X31034680Y-742600D01*
X30957340Y-774635D01*
X30925305Y-787904D01*
X30886601Y-795603D01*
X30809195Y-811000D01*
X30690805Y-811000D01*
X30613399Y-795603D01*
X30574695Y-787904D01*
X30542660Y-774635D01*
X30465320Y-742600D01*
X30366885Y-676827D01*
X30283173Y-593115D01*
X30217400Y-494680D01*
X30172096Y-385304D01*
X30149000Y-269195D01*
X30149000Y-150805D01*
X30172096Y-34696D01*
X30217400Y74680D01*
X30283173Y173115D01*
X30366885Y256827D01*
X30465320Y322600D01*
X30542660Y354635D01*
X30574695Y367904D01*
X30613399Y375603D01*
X30690805Y391000D01*
X30809195Y391000D01*
X30886601Y375603D01*
G37*
G36*
X28886601Y375603D02*
G01*
X28925305Y367904D01*
X28957340Y354635D01*
X29034680Y322600D01*
X29133115Y256827D01*
X29216827Y173115D01*
X29282600Y74680D01*
X29327904Y-34696D01*
X29351000Y-150805D01*
X29351000Y-269195D01*
X29327904Y-385304D01*
X29282600Y-494680D01*
X29216827Y-593115D01*
X29133115Y-676827D01*
X29034680Y-742600D01*
X28957340Y-774635D01*
X28925305Y-787904D01*
X28886601Y-795603D01*
X28809195Y-811000D01*
X28690805Y-811000D01*
X28613399Y-795603D01*
X28574695Y-787904D01*
X28542660Y-774635D01*
X28465320Y-742600D01*
X28366885Y-676827D01*
X28283173Y-593115D01*
X28217400Y-494680D01*
X28172096Y-385304D01*
X28149000Y-269195D01*
X28149000Y-150805D01*
X28172096Y-34696D01*
X28217400Y74680D01*
X28283173Y173115D01*
X28366885Y256827D01*
X28465320Y322600D01*
X28542660Y354635D01*
X28574695Y367904D01*
X28613399Y375603D01*
X28690805Y391000D01*
X28809195Y391000D01*
X28886601Y375603D01*
G37*
G36*
X36886601Y375603D02*
G01*
X36925305Y367904D01*
X36957340Y354635D01*
X37034680Y322600D01*
X37133115Y256827D01*
X37216827Y173115D01*
X37282600Y74680D01*
X37327904Y-34696D01*
X37351000Y-150805D01*
X37351000Y-269195D01*
X37327904Y-385304D01*
X37282600Y-494680D01*
X37216827Y-593115D01*
X37133115Y-676827D01*
X37034680Y-742600D01*
X36957340Y-774635D01*
X36925305Y-787904D01*
X36886601Y-795603D01*
X36809195Y-811000D01*
X36690805Y-811000D01*
X36613399Y-795603D01*
X36574695Y-787904D01*
X36542660Y-774635D01*
X36465320Y-742600D01*
X36366885Y-676827D01*
X36283173Y-593115D01*
X36217400Y-494680D01*
X36172096Y-385304D01*
X36149000Y-269195D01*
X36149000Y-150805D01*
X36172096Y-34696D01*
X36217400Y74680D01*
X36283173Y173115D01*
X36366885Y256827D01*
X36465320Y322600D01*
X36542660Y354635D01*
X36574695Y367904D01*
X36613399Y375603D01*
X36690805Y391000D01*
X36809195Y391000D01*
X36886601Y375603D01*
G37*
G36*
X26886601Y375603D02*
G01*
X26925305Y367904D01*
X26957340Y354635D01*
X27034680Y322600D01*
X27133115Y256827D01*
X27216827Y173115D01*
X27282600Y74680D01*
X27327904Y-34696D01*
X27351000Y-150805D01*
X27351000Y-269195D01*
X27327904Y-385304D01*
X27282600Y-494680D01*
X27216827Y-593115D01*
X27133115Y-676827D01*
X27034680Y-742600D01*
X26957340Y-774635D01*
X26925305Y-787904D01*
X26886601Y-795603D01*
X26809195Y-811000D01*
X26690805Y-811000D01*
X26613399Y-795603D01*
X26574695Y-787904D01*
X26542660Y-774635D01*
X26465320Y-742600D01*
X26366885Y-676827D01*
X26283173Y-593115D01*
X26217400Y-494680D01*
X26172096Y-385304D01*
X26149000Y-269195D01*
X26149000Y-150805D01*
X26172096Y-34696D01*
X26217400Y74680D01*
X26283173Y173115D01*
X26366885Y256827D01*
X26465320Y322600D01*
X26542660Y354635D01*
X26574695Y367904D01*
X26613399Y375603D01*
X26690805Y391000D01*
X26809195Y391000D01*
X26886601Y375603D01*
G37*
G36*
X22859472Y2880999D02*
G01*
X22925305Y2867904D01*
X22957340Y2854635D01*
X23034680Y2822600D01*
X23133115Y2756827D01*
X23216827Y2673115D01*
X23282600Y2574680D01*
X23327904Y2465304D01*
X23351000Y2349195D01*
X23351000Y2230805D01*
X23348648Y2218981D01*
X23346246Y2194595D01*
X23348648Y2170209D01*
X23355761Y2146760D01*
X23367312Y2125149D01*
X23382857Y2106207D01*
X23401799Y2090662D01*
X23423410Y2079111D01*
X23446859Y2071998D01*
X23471245Y2069596D01*
X23495631Y2071998D01*
X23519080Y2079111D01*
X23540691Y2090662D01*
X23696237Y2194595D01*
X23760061Y2237241D01*
X23835402Y2268448D01*
X24005928Y2339082D01*
X24266937Y2391000D01*
X24533063Y2391000D01*
X24794072Y2339082D01*
X24964599Y2268448D01*
X25039939Y2237241D01*
X25103763Y2194595D01*
X25259309Y2090662D01*
X25261212Y2089390D01*
X25449390Y1901212D01*
X25591187Y1689000D01*
X25597242Y1679937D01*
X25699082Y1434072D01*
X25751000Y1173063D01*
X25751000Y906937D01*
X25699082Y645928D01*
X25611162Y433668D01*
X25597241Y400061D01*
X25522813Y288672D01*
X25449391Y178789D01*
X25261211Y-9391D01*
X25175352Y-66760D01*
X25039939Y-157241D01*
X25039938Y-157242D01*
X25039937Y-157242D01*
X24794072Y-259082D01*
X24533063Y-311000D01*
X24266937Y-311000D01*
X24005928Y-259082D01*
X23760063Y-157242D01*
X23760062Y-157242D01*
X23760061Y-157241D01*
X23659741Y-90209D01*
X23540691Y-10662D01*
X23519080Y889D01*
X23495631Y8002D01*
X23471245Y10404D01*
X23446859Y8002D01*
X23423410Y889D01*
X23401799Y-10662D01*
X23382857Y-26207D01*
X23367312Y-45149D01*
X23355761Y-66760D01*
X23348648Y-90209D01*
X23346246Y-114595D01*
X23348648Y-138981D01*
X23351000Y-150805D01*
X23351000Y-269195D01*
X23327904Y-385304D01*
X23282600Y-494680D01*
X23216827Y-593115D01*
X23133115Y-676827D01*
X23034680Y-742600D01*
X22957340Y-774635D01*
X22925305Y-787904D01*
X22886601Y-795603D01*
X22809195Y-811000D01*
X22690805Y-811000D01*
X22613399Y-795603D01*
X22574695Y-787904D01*
X22542660Y-774635D01*
X22465320Y-742600D01*
X22366885Y-676827D01*
X22283173Y-593115D01*
X22217400Y-494680D01*
X22172096Y-385304D01*
X22149000Y-269195D01*
X22149000Y-150805D01*
X22172096Y-34696D01*
X22217400Y74680D01*
X22283173Y173115D01*
X22366885Y256827D01*
X22465320Y322600D01*
X22542660Y354635D01*
X22574695Y367904D01*
X22613399Y375603D01*
X22690805Y391000D01*
X22809195Y391000D01*
X22886601Y375603D01*
X22925305Y367904D01*
X22969610Y349552D01*
X22997497Y338001D01*
X23020946Y330888D01*
X23045332Y328486D01*
X23069718Y330888D01*
X23093167Y338001D01*
X23114778Y349552D01*
X23133720Y365098D01*
X23149265Y384039D01*
X23160816Y405650D01*
X23167929Y429099D01*
X23170331Y453485D01*
X23167929Y477871D01*
X23160816Y501320D01*
X23100918Y645928D01*
X23049000Y906937D01*
X23049000Y1173063D01*
X23100918Y1434072D01*
X23160816Y1578680D01*
X23167929Y1602129D01*
X23170331Y1626516D01*
X23167929Y1650902D01*
X23160816Y1674351D01*
X23149265Y1695961D01*
X23133719Y1714903D01*
X23114777Y1730448D01*
X23093167Y1741999D01*
X23069718Y1749112D01*
X23045331Y1751514D01*
X23020945Y1749112D01*
X22997496Y1741999D01*
X22925305Y1712096D01*
X22886601Y1704397D01*
X22809195Y1689000D01*
X22690805Y1689000D01*
X22613399Y1704397D01*
X22574695Y1712096D01*
X22542660Y1725365D01*
X22465320Y1757400D01*
X22366885Y1823173D01*
X22283173Y1906885D01*
X22217400Y2005320D01*
X22172096Y2114696D01*
X22149000Y2230805D01*
X22149000Y2349195D01*
X22172096Y2465304D01*
X22217400Y2574680D01*
X22283173Y2673115D01*
X22366885Y2756827D01*
X22465320Y2822600D01*
X22542660Y2854635D01*
X22574695Y2867904D01*
X22640528Y2880999D01*
X22690805Y2891000D01*
X22809195Y2891000D01*
X22859472Y2880999D01*
G37*
G36*
X20886601Y375603D02*
G01*
X20925305Y367904D01*
X20957340Y354635D01*
X21034680Y322600D01*
X21133115Y256827D01*
X21216827Y173115D01*
X21282600Y74680D01*
X21327904Y-34696D01*
X21351000Y-150805D01*
X21351000Y-269195D01*
X21327904Y-385304D01*
X21282600Y-494680D01*
X21216827Y-593115D01*
X21133115Y-676827D01*
X21034680Y-742600D01*
X20957340Y-774635D01*
X20925305Y-787904D01*
X20886601Y-795603D01*
X20809195Y-811000D01*
X20690805Y-811000D01*
X20613399Y-795603D01*
X20574695Y-787904D01*
X20542660Y-774635D01*
X20465320Y-742600D01*
X20366885Y-676827D01*
X20283173Y-593115D01*
X20217400Y-494680D01*
X20172096Y-385304D01*
X20149000Y-269195D01*
X20149000Y-150805D01*
X20172096Y-34696D01*
X20217400Y74680D01*
X20283173Y173115D01*
X20366885Y256827D01*
X20465320Y322600D01*
X20542660Y354635D01*
X20574695Y367904D01*
X20613399Y375603D01*
X20690805Y391000D01*
X20809195Y391000D01*
X20886601Y375603D01*
G37*
G36*
X18886601Y375603D02*
G01*
X18925305Y367904D01*
X18957340Y354635D01*
X19034680Y322600D01*
X19133115Y256827D01*
X19216827Y173115D01*
X19282600Y74680D01*
X19327904Y-34696D01*
X19351000Y-150805D01*
X19351000Y-269195D01*
X19327904Y-385304D01*
X19282600Y-494680D01*
X19216827Y-593115D01*
X19133115Y-676827D01*
X19034680Y-742600D01*
X18957340Y-774635D01*
X18925305Y-787904D01*
X18886601Y-795603D01*
X18809195Y-811000D01*
X18690805Y-811000D01*
X18613399Y-795603D01*
X18574695Y-787904D01*
X18542660Y-774635D01*
X18465320Y-742600D01*
X18366885Y-676827D01*
X18283173Y-593115D01*
X18217400Y-494680D01*
X18172096Y-385304D01*
X18149000Y-269195D01*
X18149000Y-150805D01*
X18172096Y-34696D01*
X18217400Y74680D01*
X18283173Y173115D01*
X18366885Y256827D01*
X18465320Y322600D01*
X18542660Y354635D01*
X18574695Y367904D01*
X18613399Y375603D01*
X18690805Y391000D01*
X18809195Y391000D01*
X18886601Y375603D01*
G37*
G36*
X16886601Y375603D02*
G01*
X16925305Y367904D01*
X16957340Y354635D01*
X17034680Y322600D01*
X17133115Y256827D01*
X17216827Y173115D01*
X17282600Y74680D01*
X17327904Y-34696D01*
X17351000Y-150805D01*
X17351000Y-269195D01*
X17327904Y-385304D01*
X17282600Y-494680D01*
X17216827Y-593115D01*
X17133115Y-676827D01*
X17034680Y-742600D01*
X16957340Y-774635D01*
X16925305Y-787904D01*
X16886601Y-795603D01*
X16809195Y-811000D01*
X16690805Y-811000D01*
X16613399Y-795603D01*
X16574695Y-787904D01*
X16542660Y-774635D01*
X16465320Y-742600D01*
X16366885Y-676827D01*
X16283173Y-593115D01*
X16217400Y-494680D01*
X16172096Y-385304D01*
X16149000Y-269195D01*
X16149000Y-150805D01*
X16172096Y-34696D01*
X16217400Y74680D01*
X16283173Y173115D01*
X16366885Y256827D01*
X16465320Y322600D01*
X16542660Y354635D01*
X16574695Y367904D01*
X16613399Y375603D01*
X16690805Y391000D01*
X16809195Y391000D01*
X16886601Y375603D01*
G37*
G36*
X14886601Y375603D02*
G01*
X14925305Y367904D01*
X14957340Y354635D01*
X15034680Y322600D01*
X15133115Y256827D01*
X15216827Y173115D01*
X15282600Y74680D01*
X15327904Y-34696D01*
X15351000Y-150805D01*
X15351000Y-269195D01*
X15327904Y-385304D01*
X15282600Y-494680D01*
X15216827Y-593115D01*
X15133115Y-676827D01*
X15034680Y-742600D01*
X14957340Y-774635D01*
X14925305Y-787904D01*
X14886601Y-795603D01*
X14809195Y-811000D01*
X14690805Y-811000D01*
X14613399Y-795603D01*
X14574695Y-787904D01*
X14542660Y-774635D01*
X14465320Y-742600D01*
X14366885Y-676827D01*
X14283173Y-593115D01*
X14217400Y-494680D01*
X14172096Y-385304D01*
X14149000Y-269195D01*
X14149000Y-150805D01*
X14172096Y-34696D01*
X14217400Y74680D01*
X14283173Y173115D01*
X14366885Y256827D01*
X14465320Y322600D01*
X14542660Y354635D01*
X14574695Y367904D01*
X14613399Y375603D01*
X14690805Y391000D01*
X14809195Y391000D01*
X14886601Y375603D01*
G37*
G36*
X38886601Y375603D02*
G01*
X38925305Y367904D01*
X38957340Y354635D01*
X39034680Y322600D01*
X39133115Y256827D01*
X39216827Y173115D01*
X39282600Y74680D01*
X39327904Y-34696D01*
X39351000Y-150805D01*
X39351000Y-269195D01*
X39327904Y-385304D01*
X39282600Y-494680D01*
X39216827Y-593115D01*
X39133115Y-676827D01*
X39034680Y-742600D01*
X38957340Y-774635D01*
X38925305Y-787904D01*
X38886601Y-795603D01*
X38809195Y-811000D01*
X38690805Y-811000D01*
X38613399Y-795603D01*
X38574695Y-787904D01*
X38542660Y-774635D01*
X38465320Y-742600D01*
X38366885Y-676827D01*
X38283173Y-593115D01*
X38217400Y-494680D01*
X38172096Y-385304D01*
X38149000Y-269195D01*
X38149000Y-150805D01*
X38172096Y-34696D01*
X38217400Y74680D01*
X38283173Y173115D01*
X38366885Y256827D01*
X38465320Y322600D01*
X38542660Y354635D01*
X38574695Y367904D01*
X38613399Y375603D01*
X38690805Y391000D01*
X38809195Y391000D01*
X38886601Y375603D01*
G37*
G36*
X40886601Y375603D02*
G01*
X40925305Y367904D01*
X40957340Y354635D01*
X41034680Y322600D01*
X41133115Y256827D01*
X41216827Y173115D01*
X41282600Y74680D01*
X41327904Y-34696D01*
X41351000Y-150805D01*
X41351000Y-269195D01*
X41327904Y-385304D01*
X41282600Y-494680D01*
X41216827Y-593115D01*
X41133115Y-676827D01*
X41034680Y-742600D01*
X40957340Y-774635D01*
X40925305Y-787904D01*
X40886601Y-795603D01*
X40809195Y-811000D01*
X40690805Y-811000D01*
X40613399Y-795603D01*
X40574695Y-787904D01*
X40542660Y-774635D01*
X40465320Y-742600D01*
X40366885Y-676827D01*
X40283173Y-593115D01*
X40217400Y-494680D01*
X40172096Y-385304D01*
X40149000Y-269195D01*
X40149000Y-150805D01*
X40172096Y-34696D01*
X40217400Y74680D01*
X40283173Y173115D01*
X40366885Y256827D01*
X40465320Y322600D01*
X40542660Y354635D01*
X40574695Y367904D01*
X40613399Y375603D01*
X40690805Y391000D01*
X40809195Y391000D01*
X40886601Y375603D01*
G37*
G36*
X42886601Y375603D02*
G01*
X42925305Y367904D01*
X42957340Y354635D01*
X43034680Y322600D01*
X43133115Y256827D01*
X43216827Y173115D01*
X43282600Y74680D01*
X43327904Y-34696D01*
X43351000Y-150805D01*
X43351000Y-269195D01*
X43327904Y-385304D01*
X43282600Y-494680D01*
X43216827Y-593115D01*
X43133115Y-676827D01*
X43034680Y-742600D01*
X42957340Y-774635D01*
X42925305Y-787904D01*
X42886601Y-795603D01*
X42809195Y-811000D01*
X42690805Y-811000D01*
X42613399Y-795603D01*
X42574695Y-787904D01*
X42542660Y-774635D01*
X42465320Y-742600D01*
X42366885Y-676827D01*
X42283173Y-593115D01*
X42217400Y-494680D01*
X42172096Y-385304D01*
X42149000Y-269195D01*
X42149000Y-150805D01*
X42172096Y-34696D01*
X42217400Y74680D01*
X42283173Y173115D01*
X42366885Y256827D01*
X42465320Y322600D01*
X42542660Y354635D01*
X42574695Y367904D01*
X42613399Y375603D01*
X42690805Y391000D01*
X42809195Y391000D01*
X42886601Y375603D01*
G37*
G36*
X44886601Y375603D02*
G01*
X44925305Y367904D01*
X44957340Y354635D01*
X45034680Y322600D01*
X45133115Y256827D01*
X45216827Y173115D01*
X45282600Y74680D01*
X45327904Y-34696D01*
X45351000Y-150805D01*
X45351000Y-269195D01*
X45327904Y-385304D01*
X45282600Y-494680D01*
X45216827Y-593115D01*
X45133115Y-676827D01*
X45034680Y-742600D01*
X44957340Y-774635D01*
X44925305Y-787904D01*
X44886601Y-795603D01*
X44809195Y-811000D01*
X44690805Y-811000D01*
X44613399Y-795603D01*
X44574695Y-787904D01*
X44542660Y-774635D01*
X44465320Y-742600D01*
X44366885Y-676827D01*
X44283173Y-593115D01*
X44217400Y-494680D01*
X44172096Y-385304D01*
X44149000Y-269195D01*
X44149000Y-150805D01*
X44172096Y-34696D01*
X44217400Y74680D01*
X44283173Y173115D01*
X44366885Y256827D01*
X44465320Y322600D01*
X44542660Y354635D01*
X44574695Y367904D01*
X44613399Y375603D01*
X44690805Y391000D01*
X44809195Y391000D01*
X44886601Y375603D01*
G37*
G36*
X46886601Y375603D02*
G01*
X46925305Y367904D01*
X46957340Y354635D01*
X47034680Y322600D01*
X47133115Y256827D01*
X47216827Y173115D01*
X47282600Y74680D01*
X47327904Y-34696D01*
X47351000Y-150805D01*
X47351000Y-269195D01*
X47327904Y-385304D01*
X47282600Y-494680D01*
X47216827Y-593115D01*
X47133115Y-676827D01*
X47034680Y-742600D01*
X46957340Y-774635D01*
X46925305Y-787904D01*
X46886601Y-795603D01*
X46809195Y-811000D01*
X46690805Y-811000D01*
X46613399Y-795603D01*
X46574695Y-787904D01*
X46542660Y-774635D01*
X46465320Y-742600D01*
X46366885Y-676827D01*
X46283173Y-593115D01*
X46217400Y-494680D01*
X46172096Y-385304D01*
X46149000Y-269195D01*
X46149000Y-150805D01*
X46172096Y-34696D01*
X46217400Y74680D01*
X46283173Y173115D01*
X46366885Y256827D01*
X46465320Y322600D01*
X46542660Y354635D01*
X46574695Y367904D01*
X46613399Y375603D01*
X46690805Y391000D01*
X46809195Y391000D01*
X46886601Y375603D01*
G37*
G36*
X48886601Y375603D02*
G01*
X48925305Y367904D01*
X48957340Y354635D01*
X49034680Y322600D01*
X49133115Y256827D01*
X49216827Y173115D01*
X49282600Y74680D01*
X49327904Y-34696D01*
X49351000Y-150805D01*
X49351000Y-269195D01*
X49327904Y-385304D01*
X49282600Y-494680D01*
X49216827Y-593115D01*
X49133115Y-676827D01*
X49034680Y-742600D01*
X48957340Y-774635D01*
X48925305Y-787904D01*
X48886601Y-795603D01*
X48809195Y-811000D01*
X48690805Y-811000D01*
X48613399Y-795603D01*
X48574695Y-787904D01*
X48542660Y-774635D01*
X48465320Y-742600D01*
X48366885Y-676827D01*
X48283173Y-593115D01*
X48217400Y-494680D01*
X48172096Y-385304D01*
X48149000Y-269195D01*
X48149000Y-150805D01*
X48172096Y-34696D01*
X48217400Y74680D01*
X48283173Y173115D01*
X48366885Y256827D01*
X48465320Y322600D01*
X48542660Y354635D01*
X48574695Y367904D01*
X48613399Y375603D01*
X48690805Y391000D01*
X48809195Y391000D01*
X48886601Y375603D01*
G37*
G36*
X58886601Y375603D02*
G01*
X58925305Y367904D01*
X58957340Y354635D01*
X59034680Y322600D01*
X59133115Y256827D01*
X59216827Y173115D01*
X59282600Y74680D01*
X59327904Y-34696D01*
X59351000Y-150805D01*
X59351000Y-269195D01*
X59327904Y-385304D01*
X59282600Y-494680D01*
X59216827Y-593115D01*
X59133115Y-676827D01*
X59034680Y-742600D01*
X58957340Y-774635D01*
X58925305Y-787904D01*
X58886601Y-795603D01*
X58809195Y-811000D01*
X58690805Y-811000D01*
X58613399Y-795603D01*
X58574695Y-787904D01*
X58542660Y-774635D01*
X58465320Y-742600D01*
X58366885Y-676827D01*
X58283173Y-593115D01*
X58217400Y-494680D01*
X58172096Y-385304D01*
X58149000Y-269195D01*
X58149000Y-150805D01*
X58172096Y-34696D01*
X58217400Y74680D01*
X58283173Y173115D01*
X58366885Y256827D01*
X58465320Y322600D01*
X58542660Y354635D01*
X58574695Y367904D01*
X58613399Y375603D01*
X58690805Y391000D01*
X58809195Y391000D01*
X58886601Y375603D01*
G37*
G36*
X74886601Y375603D02*
G01*
X74925305Y367904D01*
X74957340Y354635D01*
X75034680Y322600D01*
X75133115Y256827D01*
X75216827Y173115D01*
X75282600Y74680D01*
X75327904Y-34696D01*
X75351000Y-150805D01*
X75351000Y-269195D01*
X75327904Y-385304D01*
X75282600Y-494680D01*
X75216827Y-593115D01*
X75133115Y-676827D01*
X75034680Y-742600D01*
X74957340Y-774635D01*
X74925305Y-787904D01*
X74886601Y-795603D01*
X74809195Y-811000D01*
X74690805Y-811000D01*
X74613399Y-795603D01*
X74574695Y-787904D01*
X74542660Y-774635D01*
X74465320Y-742600D01*
X74366885Y-676827D01*
X74283173Y-593115D01*
X74217400Y-494680D01*
X74172096Y-385304D01*
X74149000Y-269195D01*
X74149000Y-150805D01*
X74172096Y-34696D01*
X74217400Y74680D01*
X74283173Y173115D01*
X74366885Y256827D01*
X74465320Y322600D01*
X74542660Y354635D01*
X74574695Y367904D01*
X74613399Y375603D01*
X74690805Y391000D01*
X74809195Y391000D01*
X74886601Y375603D01*
G37*
G36*
X72886601Y375603D02*
G01*
X72925305Y367904D01*
X72957340Y354635D01*
X73034680Y322600D01*
X73133115Y256827D01*
X73216827Y173115D01*
X73282600Y74680D01*
X73327904Y-34696D01*
X73351000Y-150805D01*
X73351000Y-269195D01*
X73327904Y-385304D01*
X73282600Y-494680D01*
X73216827Y-593115D01*
X73133115Y-676827D01*
X73034680Y-742600D01*
X72957340Y-774635D01*
X72925305Y-787904D01*
X72886601Y-795603D01*
X72809195Y-811000D01*
X72690805Y-811000D01*
X72613399Y-795603D01*
X72574695Y-787904D01*
X72542660Y-774635D01*
X72465320Y-742600D01*
X72366885Y-676827D01*
X72283173Y-593115D01*
X72217400Y-494680D01*
X72172096Y-385304D01*
X72149000Y-269195D01*
X72149000Y-150805D01*
X72172096Y-34696D01*
X72217400Y74680D01*
X72283173Y173115D01*
X72366885Y256827D01*
X72465320Y322600D01*
X72542660Y354635D01*
X72574695Y367904D01*
X72613399Y375603D01*
X72690805Y391000D01*
X72809195Y391000D01*
X72886601Y375603D01*
G37*
G36*
X70886601Y375603D02*
G01*
X70925305Y367904D01*
X70957340Y354635D01*
X71034680Y322600D01*
X71133115Y256827D01*
X71216827Y173115D01*
X71282600Y74680D01*
X71327904Y-34696D01*
X71351000Y-150805D01*
X71351000Y-269195D01*
X71327904Y-385304D01*
X71282600Y-494680D01*
X71216827Y-593115D01*
X71133115Y-676827D01*
X71034680Y-742600D01*
X70957340Y-774635D01*
X70925305Y-787904D01*
X70886601Y-795603D01*
X70809195Y-811000D01*
X70690805Y-811000D01*
X70613399Y-795603D01*
X70574695Y-787904D01*
X70542660Y-774635D01*
X70465320Y-742600D01*
X70366885Y-676827D01*
X70283173Y-593115D01*
X70217400Y-494680D01*
X70172096Y-385304D01*
X70149000Y-269195D01*
X70149000Y-150805D01*
X70172096Y-34696D01*
X70217400Y74680D01*
X70283173Y173115D01*
X70366885Y256827D01*
X70465320Y322600D01*
X70542660Y354635D01*
X70574695Y367904D01*
X70613399Y375603D01*
X70690805Y391000D01*
X70809195Y391000D01*
X70886601Y375603D01*
G37*
G36*
X60886601Y375603D02*
G01*
X60925305Y367904D01*
X60957340Y354635D01*
X61034680Y322600D01*
X61133115Y256827D01*
X61216827Y173115D01*
X61282600Y74680D01*
X61327904Y-34696D01*
X61351000Y-150805D01*
X61351000Y-269195D01*
X61327904Y-385304D01*
X61282600Y-494680D01*
X61216827Y-593115D01*
X61133115Y-676827D01*
X61034680Y-742600D01*
X60957340Y-774635D01*
X60925305Y-787904D01*
X60886601Y-795603D01*
X60809195Y-811000D01*
X60690805Y-811000D01*
X60613399Y-795603D01*
X60574695Y-787904D01*
X60542660Y-774635D01*
X60465320Y-742600D01*
X60366885Y-676827D01*
X60283173Y-593115D01*
X60217400Y-494680D01*
X60172096Y-385304D01*
X60149000Y-269195D01*
X60149000Y-150805D01*
X60172096Y-34696D01*
X60217400Y74680D01*
X60283173Y173115D01*
X60366885Y256827D01*
X60465320Y322600D01*
X60542660Y354635D01*
X60574695Y367904D01*
X60613399Y375603D01*
X60690805Y391000D01*
X60809195Y391000D01*
X60886601Y375603D01*
G37*
G36*
X68886601Y375603D02*
G01*
X68925305Y367904D01*
X68957340Y354635D01*
X69034680Y322600D01*
X69133115Y256827D01*
X69216827Y173115D01*
X69282600Y74680D01*
X69327904Y-34696D01*
X69351000Y-150805D01*
X69351000Y-269195D01*
X69327904Y-385304D01*
X69282600Y-494680D01*
X69216827Y-593115D01*
X69133115Y-676827D01*
X69034680Y-742600D01*
X68957340Y-774635D01*
X68925305Y-787904D01*
X68886601Y-795603D01*
X68809195Y-811000D01*
X68690805Y-811000D01*
X68613399Y-795603D01*
X68574695Y-787904D01*
X68542660Y-774635D01*
X68465320Y-742600D01*
X68366885Y-676827D01*
X68283173Y-593115D01*
X68217400Y-494680D01*
X68172096Y-385304D01*
X68149000Y-269195D01*
X68149000Y-150805D01*
X68172096Y-34696D01*
X68217400Y74680D01*
X68283173Y173115D01*
X68366885Y256827D01*
X68465320Y322600D01*
X68542660Y354635D01*
X68574695Y367904D01*
X68613399Y375603D01*
X68690805Y391000D01*
X68809195Y391000D01*
X68886601Y375603D01*
G37*
G36*
X66886601Y375603D02*
G01*
X66925305Y367904D01*
X66957340Y354635D01*
X67034680Y322600D01*
X67133115Y256827D01*
X67216827Y173115D01*
X67282600Y74680D01*
X67327904Y-34696D01*
X67351000Y-150805D01*
X67351000Y-269195D01*
X67327904Y-385304D01*
X67282600Y-494680D01*
X67216827Y-593115D01*
X67133115Y-676827D01*
X67034680Y-742600D01*
X66957340Y-774635D01*
X66925305Y-787904D01*
X66886601Y-795603D01*
X66809195Y-811000D01*
X66690805Y-811000D01*
X66613399Y-795603D01*
X66574695Y-787904D01*
X66542660Y-774635D01*
X66465320Y-742600D01*
X66366885Y-676827D01*
X66283173Y-593115D01*
X66217400Y-494680D01*
X66172096Y-385304D01*
X66149000Y-269195D01*
X66149000Y-150805D01*
X66172096Y-34696D01*
X66217400Y74680D01*
X66283173Y173115D01*
X66366885Y256827D01*
X66465320Y322600D01*
X66542660Y354635D01*
X66574695Y367904D01*
X66613399Y375603D01*
X66690805Y391000D01*
X66809195Y391000D01*
X66886601Y375603D01*
G37*
G36*
X64886601Y375603D02*
G01*
X64925305Y367904D01*
X64957340Y354635D01*
X65034680Y322600D01*
X65133115Y256827D01*
X65216827Y173115D01*
X65282600Y74680D01*
X65327904Y-34696D01*
X65351000Y-150805D01*
X65351000Y-269195D01*
X65327904Y-385304D01*
X65282600Y-494680D01*
X65216827Y-593115D01*
X65133115Y-676827D01*
X65034680Y-742600D01*
X64957340Y-774635D01*
X64925305Y-787904D01*
X64886601Y-795603D01*
X64809195Y-811000D01*
X64690805Y-811000D01*
X64613399Y-795603D01*
X64574695Y-787904D01*
X64542660Y-774635D01*
X64465320Y-742600D01*
X64366885Y-676827D01*
X64283173Y-593115D01*
X64217400Y-494680D01*
X64172096Y-385304D01*
X64149000Y-269195D01*
X64149000Y-150805D01*
X64172096Y-34696D01*
X64217400Y74680D01*
X64283173Y173115D01*
X64366885Y256827D01*
X64465320Y322600D01*
X64542660Y354635D01*
X64574695Y367904D01*
X64613399Y375603D01*
X64690805Y391000D01*
X64809195Y391000D01*
X64886601Y375603D01*
G37*
G36*
X62886601Y375603D02*
G01*
X62925305Y367904D01*
X62957340Y354635D01*
X63034680Y322600D01*
X63133115Y256827D01*
X63216827Y173115D01*
X63282600Y74680D01*
X63327904Y-34696D01*
X63351000Y-150805D01*
X63351000Y-269195D01*
X63327904Y-385304D01*
X63282600Y-494680D01*
X63216827Y-593115D01*
X63133115Y-676827D01*
X63034680Y-742600D01*
X62957340Y-774635D01*
X62925305Y-787904D01*
X62886601Y-795603D01*
X62809195Y-811000D01*
X62690805Y-811000D01*
X62613399Y-795603D01*
X62574695Y-787904D01*
X62542660Y-774635D01*
X62465320Y-742600D01*
X62366885Y-676827D01*
X62283173Y-593115D01*
X62217400Y-494680D01*
X62172096Y-385304D01*
X62149000Y-269195D01*
X62149000Y-150805D01*
X62172096Y-34696D01*
X62217400Y74680D01*
X62283173Y173115D01*
X62366885Y256827D01*
X62465320Y322600D01*
X62542660Y354635D01*
X62574695Y367904D01*
X62613399Y375603D01*
X62690805Y391000D01*
X62809195Y391000D01*
X62886601Y375603D01*
G37*
G36*
X54886601Y375603D02*
G01*
X54925305Y367904D01*
X54957340Y354635D01*
X55034680Y322600D01*
X55133115Y256827D01*
X55216827Y173115D01*
X55282600Y74680D01*
X55327904Y-34696D01*
X55351000Y-150805D01*
X55351000Y-269195D01*
X55327904Y-385304D01*
X55282600Y-494680D01*
X55216827Y-593115D01*
X55133115Y-676827D01*
X55034680Y-742600D01*
X54957340Y-774635D01*
X54925305Y-787904D01*
X54886601Y-795603D01*
X54809195Y-811000D01*
X54690805Y-811000D01*
X54613399Y-795603D01*
X54574695Y-787904D01*
X54542660Y-774635D01*
X54465320Y-742600D01*
X54366885Y-676827D01*
X54283173Y-593115D01*
X54217400Y-494680D01*
X54172096Y-385304D01*
X54149000Y-269195D01*
X54149000Y-150805D01*
X54172096Y-34696D01*
X54217400Y74680D01*
X54283173Y173115D01*
X54366885Y256827D01*
X54465320Y322600D01*
X54542660Y354635D01*
X54574695Y367904D01*
X54613399Y375603D01*
X54690805Y391000D01*
X54809195Y391000D01*
X54886601Y375603D01*
G37*
G36*
X56886601Y375603D02*
G01*
X56925305Y367904D01*
X56957340Y354635D01*
X57034680Y322600D01*
X57133115Y256827D01*
X57216827Y173115D01*
X57282600Y74680D01*
X57327904Y-34696D01*
X57351000Y-150805D01*
X57351000Y-269195D01*
X57327904Y-385304D01*
X57282600Y-494680D01*
X57216827Y-593115D01*
X57133115Y-676827D01*
X57034680Y-742600D01*
X56957340Y-774635D01*
X56925305Y-787904D01*
X56886601Y-795603D01*
X56809195Y-811000D01*
X56690805Y-811000D01*
X56613399Y-795603D01*
X56574695Y-787904D01*
X56542660Y-774635D01*
X56465320Y-742600D01*
X56366885Y-676827D01*
X56283173Y-593115D01*
X56217400Y-494680D01*
X56172096Y-385304D01*
X56149000Y-269195D01*
X56149000Y-150805D01*
X56172096Y-34696D01*
X56217400Y74680D01*
X56283173Y173115D01*
X56366885Y256827D01*
X56465320Y322600D01*
X56542660Y354635D01*
X56574695Y367904D01*
X56613399Y375603D01*
X56690805Y391000D01*
X56809195Y391000D01*
X56886601Y375603D01*
G37*
G36*
X76886601Y375603D02*
G01*
X76925305Y367904D01*
X76957340Y354635D01*
X77034680Y322600D01*
X77133115Y256827D01*
X77216827Y173115D01*
X77282600Y74680D01*
X77327904Y-34696D01*
X77351000Y-150805D01*
X77351000Y-269195D01*
X77327904Y-385304D01*
X77282600Y-494680D01*
X77216827Y-593115D01*
X77133115Y-676827D01*
X77034680Y-742600D01*
X76957340Y-774635D01*
X76925305Y-787904D01*
X76886601Y-795603D01*
X76809195Y-811000D01*
X76690805Y-811000D01*
X76613399Y-795603D01*
X76574695Y-787904D01*
X76542660Y-774635D01*
X76465320Y-742600D01*
X76366885Y-676827D01*
X76283173Y-593115D01*
X76217400Y-494680D01*
X76172096Y-385304D01*
X76149000Y-269195D01*
X76149000Y-150805D01*
X76172096Y-34696D01*
X76217400Y74680D01*
X76283173Y173115D01*
X76366885Y256827D01*
X76465320Y322600D01*
X76542660Y354635D01*
X76574695Y367904D01*
X76613399Y375603D01*
X76690805Y391000D01*
X76809195Y391000D01*
X76886601Y375603D01*
G37*
G36*
X52886601Y375603D02*
G01*
X52925305Y367904D01*
X52957340Y354635D01*
X53034680Y322600D01*
X53133115Y256827D01*
X53216827Y173115D01*
X53282600Y74680D01*
X53327904Y-34696D01*
X53351000Y-150805D01*
X53351000Y-269195D01*
X53327904Y-385304D01*
X53282600Y-494680D01*
X53216827Y-593115D01*
X53133115Y-676827D01*
X53034680Y-742600D01*
X52957340Y-774635D01*
X52925305Y-787904D01*
X52886601Y-795603D01*
X52809195Y-811000D01*
X52690805Y-811000D01*
X52613399Y-795603D01*
X52574695Y-787904D01*
X52542660Y-774635D01*
X52465320Y-742600D01*
X52366885Y-676827D01*
X52283173Y-593115D01*
X52217400Y-494680D01*
X52172096Y-385304D01*
X52149000Y-269195D01*
X52149000Y-150805D01*
X52172096Y-34696D01*
X52217400Y74680D01*
X52283173Y173115D01*
X52366885Y256827D01*
X52465320Y322600D01*
X52542660Y354635D01*
X52574695Y367904D01*
X52613399Y375603D01*
X52690805Y391000D01*
X52809195Y391000D01*
X52886601Y375603D01*
G37*
G36*
X80886601Y375603D02*
G01*
X80925305Y367904D01*
X80957340Y354635D01*
X81034680Y322600D01*
X81133115Y256827D01*
X81216827Y173115D01*
X81282600Y74680D01*
X81327904Y-34696D01*
X81351000Y-150805D01*
X81351000Y-269195D01*
X81327904Y-385304D01*
X81282600Y-494680D01*
X81216827Y-593115D01*
X81133115Y-676827D01*
X81034680Y-742600D01*
X80957340Y-774635D01*
X80925305Y-787904D01*
X80886601Y-795603D01*
X80809195Y-811000D01*
X80690805Y-811000D01*
X80613399Y-795603D01*
X80574695Y-787904D01*
X80542660Y-774635D01*
X80465320Y-742600D01*
X80366885Y-676827D01*
X80283173Y-593115D01*
X80217400Y-494680D01*
X80172096Y-385304D01*
X80149000Y-269195D01*
X80149000Y-150805D01*
X80172096Y-34696D01*
X80217400Y74680D01*
X80283173Y173115D01*
X80366885Y256827D01*
X80465320Y322600D01*
X80542660Y354635D01*
X80574695Y367904D01*
X80613399Y375603D01*
X80690805Y391000D01*
X80809195Y391000D01*
X80886601Y375603D01*
G37*
G36*
X82886601Y375603D02*
G01*
X82925305Y367904D01*
X82957340Y354635D01*
X83034680Y322600D01*
X83133115Y256827D01*
X83216827Y173115D01*
X83282600Y74680D01*
X83327904Y-34696D01*
X83351000Y-150805D01*
X83351000Y-269195D01*
X83327904Y-385304D01*
X83282600Y-494680D01*
X83216827Y-593115D01*
X83133115Y-676827D01*
X83034680Y-742600D01*
X82957340Y-774635D01*
X82925305Y-787904D01*
X82886601Y-795603D01*
X82809195Y-811000D01*
X82690805Y-811000D01*
X82613399Y-795603D01*
X82574695Y-787904D01*
X82542660Y-774635D01*
X82465320Y-742600D01*
X82366885Y-676827D01*
X82283173Y-593115D01*
X82217400Y-494680D01*
X82172096Y-385304D01*
X82149000Y-269195D01*
X82149000Y-150805D01*
X82172096Y-34696D01*
X82217400Y74680D01*
X82283173Y173115D01*
X82366885Y256827D01*
X82465320Y322600D01*
X82542660Y354635D01*
X82574695Y367904D01*
X82613399Y375603D01*
X82690805Y391000D01*
X82809195Y391000D01*
X82886601Y375603D01*
G37*
G36*
X84886601Y375603D02*
G01*
X84925305Y367904D01*
X84957340Y354635D01*
X85034680Y322600D01*
X85133115Y256827D01*
X85216827Y173115D01*
X85282600Y74680D01*
X85327904Y-34696D01*
X85351000Y-150805D01*
X85351000Y-269195D01*
X85327904Y-385304D01*
X85282600Y-494680D01*
X85216827Y-593115D01*
X85133115Y-676827D01*
X85034680Y-742600D01*
X84957340Y-774635D01*
X84925305Y-787904D01*
X84886601Y-795603D01*
X84809195Y-811000D01*
X84690805Y-811000D01*
X84613399Y-795603D01*
X84574695Y-787904D01*
X84542660Y-774635D01*
X84465320Y-742600D01*
X84366885Y-676827D01*
X84283173Y-593115D01*
X84217400Y-494680D01*
X84172096Y-385304D01*
X84149000Y-269195D01*
X84149000Y-150805D01*
X84172096Y-34696D01*
X84217400Y74680D01*
X84283173Y173115D01*
X84366885Y256827D01*
X84465320Y322600D01*
X84542660Y354635D01*
X84574695Y367904D01*
X84613399Y375603D01*
X84690805Y391000D01*
X84809195Y391000D01*
X84886601Y375603D01*
G37*
G36*
X86886601Y375603D02*
G01*
X86925305Y367904D01*
X86957340Y354635D01*
X87034680Y322600D01*
X87133115Y256827D01*
X87216827Y173115D01*
X87282600Y74680D01*
X87327904Y-34696D01*
X87351000Y-150805D01*
X87351000Y-269195D01*
X87327904Y-385304D01*
X87282600Y-494680D01*
X87216827Y-593115D01*
X87133115Y-676827D01*
X87034680Y-742600D01*
X86957340Y-774635D01*
X86925305Y-787904D01*
X86886601Y-795603D01*
X86809195Y-811000D01*
X86690805Y-811000D01*
X86613399Y-795603D01*
X86574695Y-787904D01*
X86542660Y-774635D01*
X86465320Y-742600D01*
X86366885Y-676827D01*
X86283173Y-593115D01*
X86217400Y-494680D01*
X86172096Y-385304D01*
X86149000Y-269195D01*
X86149000Y-150805D01*
X86172096Y-34696D01*
X86217400Y74680D01*
X86283173Y173115D01*
X86366885Y256827D01*
X86465320Y322600D01*
X86542660Y354635D01*
X86574695Y367904D01*
X86613399Y375603D01*
X86690805Y391000D01*
X86809195Y391000D01*
X86886601Y375603D01*
G37*
G36*
X88886601Y375603D02*
G01*
X88925305Y367904D01*
X88957340Y354635D01*
X89034680Y322600D01*
X89133115Y256827D01*
X89216827Y173115D01*
X89282600Y74680D01*
X89327904Y-34696D01*
X89351000Y-150805D01*
X89351000Y-269195D01*
X89327904Y-385304D01*
X89282600Y-494680D01*
X89216827Y-593115D01*
X89133115Y-676827D01*
X89034680Y-742600D01*
X88957340Y-774635D01*
X88925305Y-787904D01*
X88886601Y-795603D01*
X88809195Y-811000D01*
X88690805Y-811000D01*
X88613399Y-795603D01*
X88574695Y-787904D01*
X88542660Y-774635D01*
X88465320Y-742600D01*
X88366885Y-676827D01*
X88283173Y-593115D01*
X88217400Y-494680D01*
X88172096Y-385304D01*
X88149000Y-269195D01*
X88149000Y-150805D01*
X88172096Y-34696D01*
X88217400Y74680D01*
X88283173Y173115D01*
X88366885Y256827D01*
X88465320Y322600D01*
X88542660Y354635D01*
X88574695Y367904D01*
X88613399Y375603D01*
X88690805Y391000D01*
X88809195Y391000D01*
X88886601Y375603D01*
G37*
G36*
X90886601Y375603D02*
G01*
X90925305Y367904D01*
X90957340Y354635D01*
X91034680Y322600D01*
X91133115Y256827D01*
X91216827Y173115D01*
X91282600Y74680D01*
X91327904Y-34696D01*
X91351000Y-150805D01*
X91351000Y-269195D01*
X91327904Y-385304D01*
X91282600Y-494680D01*
X91216827Y-593115D01*
X91133115Y-676827D01*
X91034680Y-742600D01*
X90957340Y-774635D01*
X90925305Y-787904D01*
X90886601Y-795603D01*
X90809195Y-811000D01*
X90690805Y-811000D01*
X90613399Y-795603D01*
X90574695Y-787904D01*
X90542660Y-774635D01*
X90465320Y-742600D01*
X90366885Y-676827D01*
X90283173Y-593115D01*
X90217400Y-494680D01*
X90172096Y-385304D01*
X90149000Y-269195D01*
X90149000Y-150805D01*
X90172096Y-34696D01*
X90217400Y74680D01*
X90283173Y173115D01*
X90366885Y256827D01*
X90465320Y322600D01*
X90542660Y354635D01*
X90574695Y367904D01*
X90613399Y375603D01*
X90690805Y391000D01*
X90809195Y391000D01*
X90886601Y375603D01*
G37*
G36*
X92886601Y375603D02*
G01*
X92925305Y367904D01*
X92957340Y354635D01*
X93034680Y322600D01*
X93133115Y256827D01*
X93216827Y173115D01*
X93282600Y74680D01*
X93327904Y-34696D01*
X93351000Y-150805D01*
X93351000Y-269195D01*
X93327904Y-385304D01*
X93282600Y-494680D01*
X93216827Y-593115D01*
X93133115Y-676827D01*
X93034680Y-742600D01*
X92957340Y-774635D01*
X92925305Y-787904D01*
X92886601Y-795603D01*
X92809195Y-811000D01*
X92690805Y-811000D01*
X92613399Y-795603D01*
X92574695Y-787904D01*
X92542660Y-774635D01*
X92465320Y-742600D01*
X92366885Y-676827D01*
X92283173Y-593115D01*
X92217400Y-494680D01*
X92172096Y-385304D01*
X92149000Y-269195D01*
X92149000Y-150805D01*
X92172096Y-34696D01*
X92217400Y74680D01*
X92283173Y173115D01*
X92366885Y256827D01*
X92465320Y322600D01*
X92542660Y354635D01*
X92574695Y367904D01*
X92613399Y375603D01*
X92690805Y391000D01*
X92809195Y391000D01*
X92886601Y375603D01*
G37*
G36*
X6272580Y-680254D02*
G01*
X5370580Y-680254D01*
X5370580Y171746D01*
X6272580Y171746D01*
X6272580Y-680254D01*
G37*
G36*
X7772580Y-680254D02*
G01*
X6870580Y-680254D01*
X6870580Y171746D01*
X7772580Y171746D01*
X7772580Y-680254D01*
G37*
G36*
X97944072Y2339082D02*
G01*
X98114599Y2268448D01*
X98189939Y2237241D01*
X98253763Y2194595D01*
X98409309Y2090662D01*
X98411212Y2089390D01*
X98599390Y1901212D01*
X98741187Y1689000D01*
X98747242Y1679937D01*
X98849082Y1434072D01*
X98901000Y1173063D01*
X98901000Y906937D01*
X98849082Y645928D01*
X98761162Y433668D01*
X98747241Y400061D01*
X98672813Y288672D01*
X98599391Y178789D01*
X98411211Y-9391D01*
X98325352Y-66760D01*
X98189939Y-157241D01*
X98189938Y-157242D01*
X98189937Y-157242D01*
X97944072Y-259082D01*
X97683063Y-311000D01*
X97416937Y-311000D01*
X97155928Y-259082D01*
X96910063Y-157242D01*
X96910062Y-157242D01*
X96910061Y-157241D01*
X96774648Y-66760D01*
X96688789Y-9391D01*
X96500609Y178789D01*
X96427187Y288672D01*
X96352759Y400061D01*
X96338839Y433668D01*
X96250918Y645928D01*
X96199000Y906937D01*
X96199000Y1173063D01*
X96250918Y1434072D01*
X96352758Y1679937D01*
X96358814Y1689000D01*
X96500610Y1901212D01*
X96688788Y2089390D01*
X96690692Y2090662D01*
X96846237Y2194595D01*
X96910061Y2237241D01*
X96985402Y2268448D01*
X97155928Y2339082D01*
X97416937Y2391000D01*
X97683063Y2391000D01*
X97944072Y2339082D01*
G37*
G36*
X7785280Y1157932D02*
G01*
X6883280Y1157932D01*
X6883280Y2009932D01*
X7785280Y2009932D01*
X7785280Y1157932D01*
G37*
G36*
X6285280Y1157932D02*
G01*
X5383280Y1157932D01*
X5383280Y2009932D01*
X6285280Y2009932D01*
X6285280Y1157932D01*
G37*
G36*
X38859472Y2880999D02*
G01*
X38925305Y2867904D01*
X38957340Y2854635D01*
X39034680Y2822600D01*
X39133115Y2756827D01*
X39216827Y2673115D01*
X39282600Y2574680D01*
X39327904Y2465304D01*
X39351000Y2349195D01*
X39351000Y2230805D01*
X39327904Y2114696D01*
X39282600Y2005320D01*
X39216827Y1906885D01*
X39133115Y1823173D01*
X39034680Y1757400D01*
X38957340Y1725365D01*
X38925305Y1712096D01*
X38886601Y1704397D01*
X38809195Y1689000D01*
X38690805Y1689000D01*
X38613399Y1704397D01*
X38574695Y1712096D01*
X38542660Y1725365D01*
X38465320Y1757400D01*
X38366885Y1823173D01*
X38283173Y1906885D01*
X38217400Y2005320D01*
X38172096Y2114696D01*
X38149000Y2230805D01*
X38149000Y2349195D01*
X38172096Y2465304D01*
X38217400Y2574680D01*
X38283173Y2673115D01*
X38366885Y2756827D01*
X38465320Y2822600D01*
X38542660Y2854635D01*
X38574695Y2867904D01*
X38640528Y2880999D01*
X38690805Y2891000D01*
X38809195Y2891000D01*
X38859472Y2880999D01*
G37*
G36*
X40859472Y2880999D02*
G01*
X40925305Y2867904D01*
X40957340Y2854635D01*
X41034680Y2822600D01*
X41133115Y2756827D01*
X41216827Y2673115D01*
X41282600Y2574680D01*
X41327904Y2465304D01*
X41351000Y2349195D01*
X41351000Y2230805D01*
X41327904Y2114696D01*
X41282600Y2005320D01*
X41216827Y1906885D01*
X41133115Y1823173D01*
X41034680Y1757400D01*
X40957340Y1725365D01*
X40925305Y1712096D01*
X40886601Y1704397D01*
X40809195Y1689000D01*
X40690805Y1689000D01*
X40613399Y1704397D01*
X40574695Y1712096D01*
X40542660Y1725365D01*
X40465320Y1757400D01*
X40366885Y1823173D01*
X40283173Y1906885D01*
X40217400Y2005320D01*
X40172096Y2114696D01*
X40149000Y2230805D01*
X40149000Y2349195D01*
X40172096Y2465304D01*
X40217400Y2574680D01*
X40283173Y2673115D01*
X40366885Y2756827D01*
X40465320Y2822600D01*
X40542660Y2854635D01*
X40574695Y2867904D01*
X40640528Y2880999D01*
X40690805Y2891000D01*
X40809195Y2891000D01*
X40859472Y2880999D01*
G37*
G36*
X13351000Y1689000D02*
G01*
X12149000Y1689000D01*
X12149000Y2891000D01*
X13351000Y2891000D01*
X13351000Y1689000D01*
G37*
G36*
X14859472Y2880999D02*
G01*
X14925305Y2867904D01*
X14957340Y2854635D01*
X15034680Y2822600D01*
X15133115Y2756827D01*
X15216827Y2673115D01*
X15282600Y2574680D01*
X15327904Y2465304D01*
X15351000Y2349195D01*
X15351000Y2230805D01*
X15327904Y2114696D01*
X15282600Y2005320D01*
X15216827Y1906885D01*
X15133115Y1823173D01*
X15034680Y1757400D01*
X14957340Y1725365D01*
X14925305Y1712096D01*
X14886601Y1704397D01*
X14809195Y1689000D01*
X14690805Y1689000D01*
X14613399Y1704397D01*
X14574695Y1712096D01*
X14542660Y1725365D01*
X14465320Y1757400D01*
X14366885Y1823173D01*
X14283173Y1906885D01*
X14217400Y2005320D01*
X14172096Y2114696D01*
X14149000Y2230805D01*
X14149000Y2349195D01*
X14172096Y2465304D01*
X14217400Y2574680D01*
X14283173Y2673115D01*
X14366885Y2756827D01*
X14465320Y2822600D01*
X14542660Y2854635D01*
X14574695Y2867904D01*
X14640528Y2880999D01*
X14690805Y2891000D01*
X14809195Y2891000D01*
X14859472Y2880999D01*
G37*
G36*
X16859472Y2880999D02*
G01*
X16925305Y2867904D01*
X16957340Y2854635D01*
X17034680Y2822600D01*
X17133115Y2756827D01*
X17216827Y2673115D01*
X17282600Y2574680D01*
X17327904Y2465304D01*
X17351000Y2349195D01*
X17351000Y2230805D01*
X17327904Y2114696D01*
X17282600Y2005320D01*
X17216827Y1906885D01*
X17133115Y1823173D01*
X17034680Y1757400D01*
X16957340Y1725365D01*
X16925305Y1712096D01*
X16886601Y1704397D01*
X16809195Y1689000D01*
X16690805Y1689000D01*
X16613399Y1704397D01*
X16574695Y1712096D01*
X16542660Y1725365D01*
X16465320Y1757400D01*
X16366885Y1823173D01*
X16283173Y1906885D01*
X16217400Y2005320D01*
X16172096Y2114696D01*
X16149000Y2230805D01*
X16149000Y2349195D01*
X16172096Y2465304D01*
X16217400Y2574680D01*
X16283173Y2673115D01*
X16366885Y2756827D01*
X16465320Y2822600D01*
X16542660Y2854635D01*
X16574695Y2867904D01*
X16640528Y2880999D01*
X16690805Y2891000D01*
X16809195Y2891000D01*
X16859472Y2880999D01*
G37*
G36*
X18859472Y2880999D02*
G01*
X18925305Y2867904D01*
X18957340Y2854635D01*
X19034680Y2822600D01*
X19133115Y2756827D01*
X19216827Y2673115D01*
X19282600Y2574680D01*
X19327904Y2465304D01*
X19351000Y2349195D01*
X19351000Y2230805D01*
X19327904Y2114696D01*
X19282600Y2005320D01*
X19216827Y1906885D01*
X19133115Y1823173D01*
X19034680Y1757400D01*
X18957340Y1725365D01*
X18925305Y1712096D01*
X18886601Y1704397D01*
X18809195Y1689000D01*
X18690805Y1689000D01*
X18613399Y1704397D01*
X18574695Y1712096D01*
X18542660Y1725365D01*
X18465320Y1757400D01*
X18366885Y1823173D01*
X18283173Y1906885D01*
X18217400Y2005320D01*
X18172096Y2114696D01*
X18149000Y2230805D01*
X18149000Y2349195D01*
X18172096Y2465304D01*
X18217400Y2574680D01*
X18283173Y2673115D01*
X18366885Y2756827D01*
X18465320Y2822600D01*
X18542660Y2854635D01*
X18574695Y2867904D01*
X18640528Y2880999D01*
X18690805Y2891000D01*
X18809195Y2891000D01*
X18859472Y2880999D01*
G37*
G36*
X20859472Y2880999D02*
G01*
X20925305Y2867904D01*
X20957340Y2854635D01*
X21034680Y2822600D01*
X21133115Y2756827D01*
X21216827Y2673115D01*
X21282600Y2574680D01*
X21327904Y2465304D01*
X21351000Y2349195D01*
X21351000Y2230805D01*
X21327904Y2114696D01*
X21282600Y2005320D01*
X21216827Y1906885D01*
X21133115Y1823173D01*
X21034680Y1757400D01*
X20957340Y1725365D01*
X20925305Y1712096D01*
X20886601Y1704397D01*
X20809195Y1689000D01*
X20690805Y1689000D01*
X20613399Y1704397D01*
X20574695Y1712096D01*
X20542660Y1725365D01*
X20465320Y1757400D01*
X20366885Y1823173D01*
X20283173Y1906885D01*
X20217400Y2005320D01*
X20172096Y2114696D01*
X20149000Y2230805D01*
X20149000Y2349195D01*
X20172096Y2465304D01*
X20217400Y2574680D01*
X20283173Y2673115D01*
X20366885Y2756827D01*
X20465320Y2822600D01*
X20542660Y2854635D01*
X20574695Y2867904D01*
X20640528Y2880999D01*
X20690805Y2891000D01*
X20809195Y2891000D01*
X20859472Y2880999D01*
G37*
G36*
X26859472Y2880999D02*
G01*
X26925305Y2867904D01*
X26957340Y2854635D01*
X27034680Y2822600D01*
X27133115Y2756827D01*
X27216827Y2673115D01*
X27282600Y2574680D01*
X27327904Y2465304D01*
X27351000Y2349195D01*
X27351000Y2230805D01*
X27327904Y2114696D01*
X27282600Y2005320D01*
X27216827Y1906885D01*
X27133115Y1823173D01*
X27034680Y1757400D01*
X26957340Y1725365D01*
X26925305Y1712096D01*
X26886601Y1704397D01*
X26809195Y1689000D01*
X26690805Y1689000D01*
X26613399Y1704397D01*
X26574695Y1712096D01*
X26542660Y1725365D01*
X26465320Y1757400D01*
X26366885Y1823173D01*
X26283173Y1906885D01*
X26217400Y2005320D01*
X26172096Y2114696D01*
X26149000Y2230805D01*
X26149000Y2349195D01*
X26172096Y2465304D01*
X26217400Y2574680D01*
X26283173Y2673115D01*
X26366885Y2756827D01*
X26465320Y2822600D01*
X26542660Y2854635D01*
X26574695Y2867904D01*
X26640528Y2880999D01*
X26690805Y2891000D01*
X26809195Y2891000D01*
X26859472Y2880999D01*
G37*
G36*
X28859472Y2880999D02*
G01*
X28925305Y2867904D01*
X28957340Y2854635D01*
X29034680Y2822600D01*
X29133115Y2756827D01*
X29216827Y2673115D01*
X29282600Y2574680D01*
X29327904Y2465304D01*
X29351000Y2349195D01*
X29351000Y2230805D01*
X29327904Y2114696D01*
X29282600Y2005320D01*
X29216827Y1906885D01*
X29133115Y1823173D01*
X29034680Y1757400D01*
X28957340Y1725365D01*
X28925305Y1712096D01*
X28886601Y1704397D01*
X28809195Y1689000D01*
X28690805Y1689000D01*
X28613399Y1704397D01*
X28574695Y1712096D01*
X28542660Y1725365D01*
X28465320Y1757400D01*
X28366885Y1823173D01*
X28283173Y1906885D01*
X28217400Y2005320D01*
X28172096Y2114696D01*
X28149000Y2230805D01*
X28149000Y2349195D01*
X28172096Y2465304D01*
X28217400Y2574680D01*
X28283173Y2673115D01*
X28366885Y2756827D01*
X28465320Y2822600D01*
X28542660Y2854635D01*
X28574695Y2867904D01*
X28640528Y2880999D01*
X28690805Y2891000D01*
X28809195Y2891000D01*
X28859472Y2880999D01*
G37*
G36*
X30859472Y2880999D02*
G01*
X30925305Y2867904D01*
X30957340Y2854635D01*
X31034680Y2822600D01*
X31133115Y2756827D01*
X31216827Y2673115D01*
X31282600Y2574680D01*
X31327904Y2465304D01*
X31351000Y2349195D01*
X31351000Y2230805D01*
X31327904Y2114696D01*
X31282600Y2005320D01*
X31216827Y1906885D01*
X31133115Y1823173D01*
X31034680Y1757400D01*
X30957340Y1725365D01*
X30925305Y1712096D01*
X30886601Y1704397D01*
X30809195Y1689000D01*
X30690805Y1689000D01*
X30613399Y1704397D01*
X30574695Y1712096D01*
X30542660Y1725365D01*
X30465320Y1757400D01*
X30366885Y1823173D01*
X30283173Y1906885D01*
X30217400Y2005320D01*
X30172096Y2114696D01*
X30149000Y2230805D01*
X30149000Y2349195D01*
X30172096Y2465304D01*
X30217400Y2574680D01*
X30283173Y2673115D01*
X30366885Y2756827D01*
X30465320Y2822600D01*
X30542660Y2854635D01*
X30574695Y2867904D01*
X30640528Y2880999D01*
X30690805Y2891000D01*
X30809195Y2891000D01*
X30859472Y2880999D01*
G37*
G36*
X32859472Y2880999D02*
G01*
X32925305Y2867904D01*
X32957340Y2854635D01*
X33034680Y2822600D01*
X33133115Y2756827D01*
X33216827Y2673115D01*
X33282600Y2574680D01*
X33327904Y2465304D01*
X33351000Y2349195D01*
X33351000Y2230805D01*
X33327904Y2114696D01*
X33282600Y2005320D01*
X33216827Y1906885D01*
X33133115Y1823173D01*
X33034680Y1757400D01*
X32957340Y1725365D01*
X32925305Y1712096D01*
X32886601Y1704397D01*
X32809195Y1689000D01*
X32690805Y1689000D01*
X32613399Y1704397D01*
X32574695Y1712096D01*
X32542660Y1725365D01*
X32465320Y1757400D01*
X32366885Y1823173D01*
X32283173Y1906885D01*
X32217400Y2005320D01*
X32172096Y2114696D01*
X32149000Y2230805D01*
X32149000Y2349195D01*
X32172096Y2465304D01*
X32217400Y2574680D01*
X32283173Y2673115D01*
X32366885Y2756827D01*
X32465320Y2822600D01*
X32542660Y2854635D01*
X32574695Y2867904D01*
X32640528Y2880999D01*
X32690805Y2891000D01*
X32809195Y2891000D01*
X32859472Y2880999D01*
G37*
G36*
X34859472Y2880999D02*
G01*
X34925305Y2867904D01*
X34957340Y2854635D01*
X35034680Y2822600D01*
X35133115Y2756827D01*
X35216827Y2673115D01*
X35282600Y2574680D01*
X35327904Y2465304D01*
X35351000Y2349195D01*
X35351000Y2230805D01*
X35327904Y2114696D01*
X35282600Y2005320D01*
X35216827Y1906885D01*
X35133115Y1823173D01*
X35034680Y1757400D01*
X34957340Y1725365D01*
X34925305Y1712096D01*
X34886601Y1704397D01*
X34809195Y1689000D01*
X34690805Y1689000D01*
X34613399Y1704397D01*
X34574695Y1712096D01*
X34542660Y1725365D01*
X34465320Y1757400D01*
X34366885Y1823173D01*
X34283173Y1906885D01*
X34217400Y2005320D01*
X34172096Y2114696D01*
X34149000Y2230805D01*
X34149000Y2349195D01*
X34172096Y2465304D01*
X34217400Y2574680D01*
X34283173Y2673115D01*
X34366885Y2756827D01*
X34465320Y2822600D01*
X34542660Y2854635D01*
X34574695Y2867904D01*
X34640528Y2880999D01*
X34690805Y2891000D01*
X34809195Y2891000D01*
X34859472Y2880999D01*
G37*
G36*
X36859472Y2880999D02*
G01*
X36925305Y2867904D01*
X36957340Y2854635D01*
X37034680Y2822600D01*
X37133115Y2756827D01*
X37216827Y2673115D01*
X37282600Y2574680D01*
X37327904Y2465304D01*
X37351000Y2349195D01*
X37351000Y2230805D01*
X37327904Y2114696D01*
X37282600Y2005320D01*
X37216827Y1906885D01*
X37133115Y1823173D01*
X37034680Y1757400D01*
X36957340Y1725365D01*
X36925305Y1712096D01*
X36886601Y1704397D01*
X36809195Y1689000D01*
X36690805Y1689000D01*
X36613399Y1704397D01*
X36574695Y1712096D01*
X36542660Y1725365D01*
X36465320Y1757400D01*
X36366885Y1823173D01*
X36283173Y1906885D01*
X36217400Y2005320D01*
X36172096Y2114696D01*
X36149000Y2230805D01*
X36149000Y2349195D01*
X36172096Y2465304D01*
X36217400Y2574680D01*
X36283173Y2673115D01*
X36366885Y2756827D01*
X36465320Y2822600D01*
X36542660Y2854635D01*
X36574695Y2867904D01*
X36640528Y2880999D01*
X36690805Y2891000D01*
X36809195Y2891000D01*
X36859472Y2880999D01*
G37*
G36*
X88859472Y2880999D02*
G01*
X88925305Y2867904D01*
X88957340Y2854635D01*
X89034680Y2822600D01*
X89133115Y2756827D01*
X89216827Y2673115D01*
X89282600Y2574680D01*
X89327904Y2465304D01*
X89351000Y2349195D01*
X89351000Y2230805D01*
X89327904Y2114696D01*
X89282600Y2005320D01*
X89216827Y1906885D01*
X89133115Y1823173D01*
X89034680Y1757400D01*
X88957340Y1725365D01*
X88925305Y1712096D01*
X88886601Y1704397D01*
X88809195Y1689000D01*
X88690805Y1689000D01*
X88613399Y1704397D01*
X88574695Y1712096D01*
X88542660Y1725365D01*
X88465320Y1757400D01*
X88366885Y1823173D01*
X88283173Y1906885D01*
X88217400Y2005320D01*
X88172096Y2114696D01*
X88149000Y2230805D01*
X88149000Y2349195D01*
X88172096Y2465304D01*
X88217400Y2574680D01*
X88283173Y2673115D01*
X88366885Y2756827D01*
X88465320Y2822600D01*
X88542660Y2854635D01*
X88574695Y2867904D01*
X88640528Y2880999D01*
X88690805Y2891000D01*
X88809195Y2891000D01*
X88859472Y2880999D01*
G37*
G36*
X42859472Y2880999D02*
G01*
X42925305Y2867904D01*
X42957340Y2854635D01*
X43034680Y2822600D01*
X43133115Y2756827D01*
X43216827Y2673115D01*
X43282600Y2574680D01*
X43327904Y2465304D01*
X43351000Y2349195D01*
X43351000Y2230805D01*
X43327904Y2114696D01*
X43282600Y2005320D01*
X43216827Y1906885D01*
X43133115Y1823173D01*
X43034680Y1757400D01*
X42957340Y1725365D01*
X42925305Y1712096D01*
X42886601Y1704397D01*
X42809195Y1689000D01*
X42690805Y1689000D01*
X42613399Y1704397D01*
X42574695Y1712096D01*
X42542660Y1725365D01*
X42465320Y1757400D01*
X42366885Y1823173D01*
X42283173Y1906885D01*
X42217400Y2005320D01*
X42172096Y2114696D01*
X42149000Y2230805D01*
X42149000Y2349195D01*
X42172096Y2465304D01*
X42217400Y2574680D01*
X42283173Y2673115D01*
X42366885Y2756827D01*
X42465320Y2822600D01*
X42542660Y2854635D01*
X42574695Y2867904D01*
X42640528Y2880999D01*
X42690805Y2891000D01*
X42809195Y2891000D01*
X42859472Y2880999D01*
G37*
G36*
X44859472Y2880999D02*
G01*
X44925305Y2867904D01*
X44957340Y2854635D01*
X45034680Y2822600D01*
X45133115Y2756827D01*
X45216827Y2673115D01*
X45282600Y2574680D01*
X45327904Y2465304D01*
X45351000Y2349195D01*
X45351000Y2230805D01*
X45327904Y2114696D01*
X45282600Y2005320D01*
X45216827Y1906885D01*
X45133115Y1823173D01*
X45034680Y1757400D01*
X44957340Y1725365D01*
X44925305Y1712096D01*
X44886601Y1704397D01*
X44809195Y1689000D01*
X44690805Y1689000D01*
X44613399Y1704397D01*
X44574695Y1712096D01*
X44542660Y1725365D01*
X44465320Y1757400D01*
X44366885Y1823173D01*
X44283173Y1906885D01*
X44217400Y2005320D01*
X44172096Y2114696D01*
X44149000Y2230805D01*
X44149000Y2349195D01*
X44172096Y2465304D01*
X44217400Y2574680D01*
X44283173Y2673115D01*
X44366885Y2756827D01*
X44465320Y2822600D01*
X44542660Y2854635D01*
X44574695Y2867904D01*
X44640528Y2880999D01*
X44690805Y2891000D01*
X44809195Y2891000D01*
X44859472Y2880999D01*
G37*
G36*
X46859472Y2880999D02*
G01*
X46925305Y2867904D01*
X46957340Y2854635D01*
X47034680Y2822600D01*
X47133115Y2756827D01*
X47216827Y2673115D01*
X47282600Y2574680D01*
X47327904Y2465304D01*
X47351000Y2349195D01*
X47351000Y2230805D01*
X47327904Y2114696D01*
X47282600Y2005320D01*
X47216827Y1906885D01*
X47133115Y1823173D01*
X47034680Y1757400D01*
X46957340Y1725365D01*
X46925305Y1712096D01*
X46886601Y1704397D01*
X46809195Y1689000D01*
X46690805Y1689000D01*
X46613399Y1704397D01*
X46574695Y1712096D01*
X46542660Y1725365D01*
X46465320Y1757400D01*
X46366885Y1823173D01*
X46283173Y1906885D01*
X46217400Y2005320D01*
X46172096Y2114696D01*
X46149000Y2230805D01*
X46149000Y2349195D01*
X46172096Y2465304D01*
X46217400Y2574680D01*
X46283173Y2673115D01*
X46366885Y2756827D01*
X46465320Y2822600D01*
X46542660Y2854635D01*
X46574695Y2867904D01*
X46640528Y2880999D01*
X46690805Y2891000D01*
X46809195Y2891000D01*
X46859472Y2880999D01*
G37*
G36*
X48859472Y2880999D02*
G01*
X48925305Y2867904D01*
X48957340Y2854635D01*
X49034680Y2822600D01*
X49133115Y2756827D01*
X49216827Y2673115D01*
X49282600Y2574680D01*
X49327904Y2465304D01*
X49351000Y2349195D01*
X49351000Y2230805D01*
X49327904Y2114696D01*
X49282600Y2005320D01*
X49216827Y1906885D01*
X49133115Y1823173D01*
X49034680Y1757400D01*
X48957340Y1725365D01*
X48925305Y1712096D01*
X48886601Y1704397D01*
X48809195Y1689000D01*
X48690805Y1689000D01*
X48613399Y1704397D01*
X48574695Y1712096D01*
X48542660Y1725365D01*
X48465320Y1757400D01*
X48366885Y1823173D01*
X48283173Y1906885D01*
X48217400Y2005320D01*
X48172096Y2114696D01*
X48149000Y2230805D01*
X48149000Y2349195D01*
X48172096Y2465304D01*
X48217400Y2574680D01*
X48283173Y2673115D01*
X48366885Y2756827D01*
X48465320Y2822600D01*
X48542660Y2854635D01*
X48574695Y2867904D01*
X48640528Y2880999D01*
X48690805Y2891000D01*
X48809195Y2891000D01*
X48859472Y2880999D01*
G37*
G36*
X50859472Y2880999D02*
G01*
X50925305Y2867904D01*
X50957340Y2854635D01*
X51034680Y2822600D01*
X51133115Y2756827D01*
X51216827Y2673115D01*
X51282600Y2574680D01*
X51327904Y2465304D01*
X51351000Y2349195D01*
X51351000Y2230805D01*
X51327904Y2114696D01*
X51282600Y2005320D01*
X51216827Y1906885D01*
X51133115Y1823173D01*
X51034680Y1757400D01*
X50957340Y1725365D01*
X50925305Y1712096D01*
X50886601Y1704397D01*
X50809195Y1689000D01*
X50690805Y1689000D01*
X50613399Y1704397D01*
X50574695Y1712096D01*
X50542660Y1725365D01*
X50465320Y1757400D01*
X50366885Y1823173D01*
X50283173Y1906885D01*
X50217400Y2005320D01*
X50172096Y2114696D01*
X50149000Y2230805D01*
X50149000Y2349195D01*
X50172096Y2465304D01*
X50217400Y2574680D01*
X50283173Y2673115D01*
X50366885Y2756827D01*
X50465320Y2822600D01*
X50542660Y2854635D01*
X50574695Y2867904D01*
X50640528Y2880999D01*
X50690805Y2891000D01*
X50809195Y2891000D01*
X50859472Y2880999D01*
G37*
G36*
X90859472Y2880999D02*
G01*
X90925305Y2867904D01*
X90957340Y2854635D01*
X91034680Y2822600D01*
X91133115Y2756827D01*
X91216827Y2673115D01*
X91282600Y2574680D01*
X91327904Y2465304D01*
X91351000Y2349195D01*
X91351000Y2230805D01*
X91327904Y2114696D01*
X91282600Y2005320D01*
X91216827Y1906885D01*
X91133115Y1823173D01*
X91034680Y1757400D01*
X90957340Y1725365D01*
X90925305Y1712096D01*
X90886601Y1704397D01*
X90809195Y1689000D01*
X90690805Y1689000D01*
X90613399Y1704397D01*
X90574695Y1712096D01*
X90542660Y1725365D01*
X90465320Y1757400D01*
X90366885Y1823173D01*
X90283173Y1906885D01*
X90217400Y2005320D01*
X90172096Y2114696D01*
X90149000Y2230805D01*
X90149000Y2349195D01*
X90172096Y2465304D01*
X90217400Y2574680D01*
X90283173Y2673115D01*
X90366885Y2756827D01*
X90465320Y2822600D01*
X90542660Y2854635D01*
X90574695Y2867904D01*
X90640528Y2880999D01*
X90690805Y2891000D01*
X90809195Y2891000D01*
X90859472Y2880999D01*
G37*
G36*
X94859472Y2880999D02*
G01*
X94925305Y2867904D01*
X94957340Y2854635D01*
X95034680Y2822600D01*
X95133115Y2756827D01*
X95216827Y2673115D01*
X95282600Y2574680D01*
X95327904Y2465304D01*
X95351000Y2349195D01*
X95351000Y2230805D01*
X95327904Y2114696D01*
X95282600Y2005320D01*
X95216827Y1906885D01*
X95133115Y1823173D01*
X95034680Y1757400D01*
X94957340Y1725365D01*
X94925305Y1712096D01*
X94886601Y1704397D01*
X94809195Y1689000D01*
X94690805Y1689000D01*
X94613399Y1704397D01*
X94574695Y1712096D01*
X94542660Y1725365D01*
X94465320Y1757400D01*
X94366885Y1823173D01*
X94283173Y1906885D01*
X94217400Y2005320D01*
X94172096Y2114696D01*
X94149000Y2230805D01*
X94149000Y2349195D01*
X94172096Y2465304D01*
X94217400Y2574680D01*
X94283173Y2673115D01*
X94366885Y2756827D01*
X94465320Y2822600D01*
X94542660Y2854635D01*
X94574695Y2867904D01*
X94640528Y2880999D01*
X94690805Y2891000D01*
X94809195Y2891000D01*
X94859472Y2880999D01*
G37*
G36*
X54859472Y2880999D02*
G01*
X54925305Y2867904D01*
X54957340Y2854635D01*
X55034680Y2822600D01*
X55133115Y2756827D01*
X55216827Y2673115D01*
X55282600Y2574680D01*
X55327904Y2465304D01*
X55351000Y2349195D01*
X55351000Y2230805D01*
X55327904Y2114696D01*
X55282600Y2005320D01*
X55216827Y1906885D01*
X55133115Y1823173D01*
X55034680Y1757400D01*
X54957340Y1725365D01*
X54925305Y1712096D01*
X54886601Y1704397D01*
X54809195Y1689000D01*
X54690805Y1689000D01*
X54613399Y1704397D01*
X54574695Y1712096D01*
X54542660Y1725365D01*
X54465320Y1757400D01*
X54366885Y1823173D01*
X54283173Y1906885D01*
X54217400Y2005320D01*
X54172096Y2114696D01*
X54149000Y2230805D01*
X54149000Y2349195D01*
X54172096Y2465304D01*
X54217400Y2574680D01*
X54283173Y2673115D01*
X54366885Y2756827D01*
X54465320Y2822600D01*
X54542660Y2854635D01*
X54574695Y2867904D01*
X54640528Y2880999D01*
X54690805Y2891000D01*
X54809195Y2891000D01*
X54859472Y2880999D01*
G37*
G36*
X86859472Y2880999D02*
G01*
X86925305Y2867904D01*
X86957340Y2854635D01*
X87034680Y2822600D01*
X87133115Y2756827D01*
X87216827Y2673115D01*
X87282600Y2574680D01*
X87327904Y2465304D01*
X87351000Y2349195D01*
X87351000Y2230805D01*
X87327904Y2114696D01*
X87282600Y2005320D01*
X87216827Y1906885D01*
X87133115Y1823173D01*
X87034680Y1757400D01*
X86957340Y1725365D01*
X86925305Y1712096D01*
X86886601Y1704397D01*
X86809195Y1689000D01*
X86690805Y1689000D01*
X86613399Y1704397D01*
X86574695Y1712096D01*
X86542660Y1725365D01*
X86465320Y1757400D01*
X86366885Y1823173D01*
X86283173Y1906885D01*
X86217400Y2005320D01*
X86172096Y2114696D01*
X86149000Y2230805D01*
X86149000Y2349195D01*
X86172096Y2465304D01*
X86217400Y2574680D01*
X86283173Y2673115D01*
X86366885Y2756827D01*
X86465320Y2822600D01*
X86542660Y2854635D01*
X86574695Y2867904D01*
X86640528Y2880999D01*
X86690805Y2891000D01*
X86809195Y2891000D01*
X86859472Y2880999D01*
G37*
G36*
X78859472Y2880999D02*
G01*
X78925305Y2867904D01*
X78957340Y2854635D01*
X79034680Y2822600D01*
X79133115Y2756827D01*
X79216827Y2673115D01*
X79282600Y2574680D01*
X79327904Y2465304D01*
X79351000Y2349195D01*
X79351000Y2230805D01*
X79327904Y2114696D01*
X79282600Y2005320D01*
X79216827Y1906885D01*
X79133115Y1823173D01*
X79034680Y1757400D01*
X78957340Y1725365D01*
X78925305Y1712096D01*
X78886601Y1704397D01*
X78809195Y1689000D01*
X78690805Y1689000D01*
X78613399Y1704397D01*
X78574695Y1712096D01*
X78542660Y1725365D01*
X78465320Y1757400D01*
X78366885Y1823173D01*
X78283173Y1906885D01*
X78217400Y2005320D01*
X78172096Y2114696D01*
X78149000Y2230805D01*
X78149000Y2349195D01*
X78172096Y2465304D01*
X78217400Y2574680D01*
X78283173Y2673115D01*
X78366885Y2756827D01*
X78465320Y2822600D01*
X78542660Y2854635D01*
X78574695Y2867904D01*
X78640528Y2880999D01*
X78690805Y2891000D01*
X78809195Y2891000D01*
X78859472Y2880999D01*
G37*
G36*
X80859472Y2880999D02*
G01*
X80925305Y2867904D01*
X80957340Y2854635D01*
X81034680Y2822600D01*
X81133115Y2756827D01*
X81216827Y2673115D01*
X81282600Y2574680D01*
X81327904Y2465304D01*
X81351000Y2349195D01*
X81351000Y2230805D01*
X81327904Y2114696D01*
X81282600Y2005320D01*
X81216827Y1906885D01*
X81133115Y1823173D01*
X81034680Y1757400D01*
X80957340Y1725365D01*
X80925305Y1712096D01*
X80886601Y1704397D01*
X80809195Y1689000D01*
X80690805Y1689000D01*
X80613399Y1704397D01*
X80574695Y1712096D01*
X80542660Y1725365D01*
X80465320Y1757400D01*
X80366885Y1823173D01*
X80283173Y1906885D01*
X80217400Y2005320D01*
X80172096Y2114696D01*
X80149000Y2230805D01*
X80149000Y2349195D01*
X80172096Y2465304D01*
X80217400Y2574680D01*
X80283173Y2673115D01*
X80366885Y2756827D01*
X80465320Y2822600D01*
X80542660Y2854635D01*
X80574695Y2867904D01*
X80640528Y2880999D01*
X80690805Y2891000D01*
X80809195Y2891000D01*
X80859472Y2880999D01*
G37*
G36*
X82859472Y2880999D02*
G01*
X82925305Y2867904D01*
X82957340Y2854635D01*
X83034680Y2822600D01*
X83133115Y2756827D01*
X83216827Y2673115D01*
X83282600Y2574680D01*
X83327904Y2465304D01*
X83351000Y2349195D01*
X83351000Y2230805D01*
X83327904Y2114696D01*
X83282600Y2005320D01*
X83216827Y1906885D01*
X83133115Y1823173D01*
X83034680Y1757400D01*
X82957340Y1725365D01*
X82925305Y1712096D01*
X82886601Y1704397D01*
X82809195Y1689000D01*
X82690805Y1689000D01*
X82613399Y1704397D01*
X82574695Y1712096D01*
X82542660Y1725365D01*
X82465320Y1757400D01*
X82366885Y1823173D01*
X82283173Y1906885D01*
X82217400Y2005320D01*
X82172096Y2114696D01*
X82149000Y2230805D01*
X82149000Y2349195D01*
X82172096Y2465304D01*
X82217400Y2574680D01*
X82283173Y2673115D01*
X82366885Y2756827D01*
X82465320Y2822600D01*
X82542660Y2854635D01*
X82574695Y2867904D01*
X82640528Y2880999D01*
X82690805Y2891000D01*
X82809195Y2891000D01*
X82859472Y2880999D01*
G37*
G36*
X52859472Y2880999D02*
G01*
X52925305Y2867904D01*
X52957340Y2854635D01*
X53034680Y2822600D01*
X53133115Y2756827D01*
X53216827Y2673115D01*
X53282600Y2574680D01*
X53327904Y2465304D01*
X53351000Y2349195D01*
X53351000Y2230805D01*
X53327904Y2114696D01*
X53282600Y2005320D01*
X53216827Y1906885D01*
X53133115Y1823173D01*
X53034680Y1757400D01*
X52957340Y1725365D01*
X52925305Y1712096D01*
X52886601Y1704397D01*
X52809195Y1689000D01*
X52690805Y1689000D01*
X52613399Y1704397D01*
X52574695Y1712096D01*
X52542660Y1725365D01*
X52465320Y1757400D01*
X52366885Y1823173D01*
X52283173Y1906885D01*
X52217400Y2005320D01*
X52172096Y2114696D01*
X52149000Y2230805D01*
X52149000Y2349195D01*
X52172096Y2465304D01*
X52217400Y2574680D01*
X52283173Y2673115D01*
X52366885Y2756827D01*
X52465320Y2822600D01*
X52542660Y2854635D01*
X52574695Y2867904D01*
X52640528Y2880999D01*
X52690805Y2891000D01*
X52809195Y2891000D01*
X52859472Y2880999D01*
G37*
G36*
X84859472Y2880999D02*
G01*
X84925305Y2867904D01*
X84957340Y2854635D01*
X85034680Y2822600D01*
X85133115Y2756827D01*
X85216827Y2673115D01*
X85282600Y2574680D01*
X85327904Y2465304D01*
X85351000Y2349195D01*
X85351000Y2230805D01*
X85327904Y2114696D01*
X85282600Y2005320D01*
X85216827Y1906885D01*
X85133115Y1823173D01*
X85034680Y1757400D01*
X84957340Y1725365D01*
X84925305Y1712096D01*
X84886601Y1704397D01*
X84809195Y1689000D01*
X84690805Y1689000D01*
X84613399Y1704397D01*
X84574695Y1712096D01*
X84542660Y1725365D01*
X84465320Y1757400D01*
X84366885Y1823173D01*
X84283173Y1906885D01*
X84217400Y2005320D01*
X84172096Y2114696D01*
X84149000Y2230805D01*
X84149000Y2349195D01*
X84172096Y2465304D01*
X84217400Y2574680D01*
X84283173Y2673115D01*
X84366885Y2756827D01*
X84465320Y2822600D01*
X84542660Y2854635D01*
X84574695Y2867904D01*
X84640528Y2880999D01*
X84690805Y2891000D01*
X84809195Y2891000D01*
X84859472Y2880999D01*
G37*
G36*
X76859472Y2880999D02*
G01*
X76925305Y2867904D01*
X76957340Y2854635D01*
X77034680Y2822600D01*
X77133115Y2756827D01*
X77216827Y2673115D01*
X77282600Y2574680D01*
X77327904Y2465304D01*
X77351000Y2349195D01*
X77351000Y2230805D01*
X77327904Y2114696D01*
X77282600Y2005320D01*
X77216827Y1906885D01*
X77133115Y1823173D01*
X77034680Y1757400D01*
X76957340Y1725365D01*
X76925305Y1712096D01*
X76886601Y1704397D01*
X76809195Y1689000D01*
X76690805Y1689000D01*
X76613399Y1704397D01*
X76574695Y1712096D01*
X76542660Y1725365D01*
X76465320Y1757400D01*
X76366885Y1823173D01*
X76283173Y1906885D01*
X76217400Y2005320D01*
X76172096Y2114696D01*
X76149000Y2230805D01*
X76149000Y2349195D01*
X76172096Y2465304D01*
X76217400Y2574680D01*
X76283173Y2673115D01*
X76366885Y2756827D01*
X76465320Y2822600D01*
X76542660Y2854635D01*
X76574695Y2867904D01*
X76640528Y2880999D01*
X76690805Y2891000D01*
X76809195Y2891000D01*
X76859472Y2880999D01*
G37*
G36*
X74859472Y2880999D02*
G01*
X74925305Y2867904D01*
X74957340Y2854635D01*
X75034680Y2822600D01*
X75133115Y2756827D01*
X75216827Y2673115D01*
X75282600Y2574680D01*
X75327904Y2465304D01*
X75351000Y2349195D01*
X75351000Y2230805D01*
X75327904Y2114696D01*
X75282600Y2005320D01*
X75216827Y1906885D01*
X75133115Y1823173D01*
X75034680Y1757400D01*
X74957340Y1725365D01*
X74925305Y1712096D01*
X74886601Y1704397D01*
X74809195Y1689000D01*
X74690805Y1689000D01*
X74613399Y1704397D01*
X74574695Y1712096D01*
X74542660Y1725365D01*
X74465320Y1757400D01*
X74366885Y1823173D01*
X74283173Y1906885D01*
X74217400Y2005320D01*
X74172096Y2114696D01*
X74149000Y2230805D01*
X74149000Y2349195D01*
X74172096Y2465304D01*
X74217400Y2574680D01*
X74283173Y2673115D01*
X74366885Y2756827D01*
X74465320Y2822600D01*
X74542660Y2854635D01*
X74574695Y2867904D01*
X74640528Y2880999D01*
X74690805Y2891000D01*
X74809195Y2891000D01*
X74859472Y2880999D01*
G37*
G36*
X72859472Y2880999D02*
G01*
X72925305Y2867904D01*
X72957340Y2854635D01*
X73034680Y2822600D01*
X73133115Y2756827D01*
X73216827Y2673115D01*
X73282600Y2574680D01*
X73327904Y2465304D01*
X73351000Y2349195D01*
X73351000Y2230805D01*
X73327904Y2114696D01*
X73282600Y2005320D01*
X73216827Y1906885D01*
X73133115Y1823173D01*
X73034680Y1757400D01*
X72957340Y1725365D01*
X72925305Y1712096D01*
X72886601Y1704397D01*
X72809195Y1689000D01*
X72690805Y1689000D01*
X72613399Y1704397D01*
X72574695Y1712096D01*
X72542660Y1725365D01*
X72465320Y1757400D01*
X72366885Y1823173D01*
X72283173Y1906885D01*
X72217400Y2005320D01*
X72172096Y2114696D01*
X72149000Y2230805D01*
X72149000Y2349195D01*
X72172096Y2465304D01*
X72217400Y2574680D01*
X72283173Y2673115D01*
X72366885Y2756827D01*
X72465320Y2822600D01*
X72542660Y2854635D01*
X72574695Y2867904D01*
X72640528Y2880999D01*
X72690805Y2891000D01*
X72809195Y2891000D01*
X72859472Y2880999D01*
G37*
G36*
X70859472Y2880999D02*
G01*
X70925305Y2867904D01*
X70957340Y2854635D01*
X71034680Y2822600D01*
X71133115Y2756827D01*
X71216827Y2673115D01*
X71282600Y2574680D01*
X71327904Y2465304D01*
X71351000Y2349195D01*
X71351000Y2230805D01*
X71327904Y2114696D01*
X71282600Y2005320D01*
X71216827Y1906885D01*
X71133115Y1823173D01*
X71034680Y1757400D01*
X70957340Y1725365D01*
X70925305Y1712096D01*
X70886601Y1704397D01*
X70809195Y1689000D01*
X70690805Y1689000D01*
X70613399Y1704397D01*
X70574695Y1712096D01*
X70542660Y1725365D01*
X70465320Y1757400D01*
X70366885Y1823173D01*
X70283173Y1906885D01*
X70217400Y2005320D01*
X70172096Y2114696D01*
X70149000Y2230805D01*
X70149000Y2349195D01*
X70172096Y2465304D01*
X70217400Y2574680D01*
X70283173Y2673115D01*
X70366885Y2756827D01*
X70465320Y2822600D01*
X70542660Y2854635D01*
X70574695Y2867904D01*
X70640528Y2880999D01*
X70690805Y2891000D01*
X70809195Y2891000D01*
X70859472Y2880999D01*
G37*
G36*
X68859472Y2880999D02*
G01*
X68925305Y2867904D01*
X68957340Y2854635D01*
X69034680Y2822600D01*
X69133115Y2756827D01*
X69216827Y2673115D01*
X69282600Y2574680D01*
X69327904Y2465304D01*
X69351000Y2349195D01*
X69351000Y2230805D01*
X69327904Y2114696D01*
X69282600Y2005320D01*
X69216827Y1906885D01*
X69133115Y1823173D01*
X69034680Y1757400D01*
X68957340Y1725365D01*
X68925305Y1712096D01*
X68886601Y1704397D01*
X68809195Y1689000D01*
X68690805Y1689000D01*
X68613399Y1704397D01*
X68574695Y1712096D01*
X68542660Y1725365D01*
X68465320Y1757400D01*
X68366885Y1823173D01*
X68283173Y1906885D01*
X68217400Y2005320D01*
X68172096Y2114696D01*
X68149000Y2230805D01*
X68149000Y2349195D01*
X68172096Y2465304D01*
X68217400Y2574680D01*
X68283173Y2673115D01*
X68366885Y2756827D01*
X68465320Y2822600D01*
X68542660Y2854635D01*
X68574695Y2867904D01*
X68640528Y2880999D01*
X68690805Y2891000D01*
X68809195Y2891000D01*
X68859472Y2880999D01*
G37*
G36*
X66859472Y2880999D02*
G01*
X66925305Y2867904D01*
X66957340Y2854635D01*
X67034680Y2822600D01*
X67133115Y2756827D01*
X67216827Y2673115D01*
X67282600Y2574680D01*
X67327904Y2465304D01*
X67351000Y2349195D01*
X67351000Y2230805D01*
X67327904Y2114696D01*
X67282600Y2005320D01*
X67216827Y1906885D01*
X67133115Y1823173D01*
X67034680Y1757400D01*
X66957340Y1725365D01*
X66925305Y1712096D01*
X66886601Y1704397D01*
X66809195Y1689000D01*
X66690805Y1689000D01*
X66613399Y1704397D01*
X66574695Y1712096D01*
X66542660Y1725365D01*
X66465320Y1757400D01*
X66366885Y1823173D01*
X66283173Y1906885D01*
X66217400Y2005320D01*
X66172096Y2114696D01*
X66149000Y2230805D01*
X66149000Y2349195D01*
X66172096Y2465304D01*
X66217400Y2574680D01*
X66283173Y2673115D01*
X66366885Y2756827D01*
X66465320Y2822600D01*
X66542660Y2854635D01*
X66574695Y2867904D01*
X66640528Y2880999D01*
X66690805Y2891000D01*
X66809195Y2891000D01*
X66859472Y2880999D01*
G37*
G36*
X64859472Y2880999D02*
G01*
X64925305Y2867904D01*
X64957340Y2854635D01*
X65034680Y2822600D01*
X65133115Y2756827D01*
X65216827Y2673115D01*
X65282600Y2574680D01*
X65327904Y2465304D01*
X65351000Y2349195D01*
X65351000Y2230805D01*
X65327904Y2114696D01*
X65282600Y2005320D01*
X65216827Y1906885D01*
X65133115Y1823173D01*
X65034680Y1757400D01*
X64957340Y1725365D01*
X64925305Y1712096D01*
X64886601Y1704397D01*
X64809195Y1689000D01*
X64690805Y1689000D01*
X64613399Y1704397D01*
X64574695Y1712096D01*
X64542660Y1725365D01*
X64465320Y1757400D01*
X64366885Y1823173D01*
X64283173Y1906885D01*
X64217400Y2005320D01*
X64172096Y2114696D01*
X64149000Y2230805D01*
X64149000Y2349195D01*
X64172096Y2465304D01*
X64217400Y2574680D01*
X64283173Y2673115D01*
X64366885Y2756827D01*
X64465320Y2822600D01*
X64542660Y2854635D01*
X64574695Y2867904D01*
X64640528Y2880999D01*
X64690805Y2891000D01*
X64809195Y2891000D01*
X64859472Y2880999D01*
G37*
G36*
X62859472Y2880999D02*
G01*
X62925305Y2867904D01*
X62957340Y2854635D01*
X63034680Y2822600D01*
X63133115Y2756827D01*
X63216827Y2673115D01*
X63282600Y2574680D01*
X63327904Y2465304D01*
X63351000Y2349195D01*
X63351000Y2230805D01*
X63327904Y2114696D01*
X63282600Y2005320D01*
X63216827Y1906885D01*
X63133115Y1823173D01*
X63034680Y1757400D01*
X62957340Y1725365D01*
X62925305Y1712096D01*
X62886601Y1704397D01*
X62809195Y1689000D01*
X62690805Y1689000D01*
X62613399Y1704397D01*
X62574695Y1712096D01*
X62542660Y1725365D01*
X62465320Y1757400D01*
X62366885Y1823173D01*
X62283173Y1906885D01*
X62217400Y2005320D01*
X62172096Y2114696D01*
X62149000Y2230805D01*
X62149000Y2349195D01*
X62172096Y2465304D01*
X62217400Y2574680D01*
X62283173Y2673115D01*
X62366885Y2756827D01*
X62465320Y2822600D01*
X62542660Y2854635D01*
X62574695Y2867904D01*
X62640528Y2880999D01*
X62690805Y2891000D01*
X62809195Y2891000D01*
X62859472Y2880999D01*
G37*
G36*
X60859472Y2880999D02*
G01*
X60925305Y2867904D01*
X60957340Y2854635D01*
X61034680Y2822600D01*
X61133115Y2756827D01*
X61216827Y2673115D01*
X61282600Y2574680D01*
X61327904Y2465304D01*
X61351000Y2349195D01*
X61351000Y2230805D01*
X61327904Y2114696D01*
X61282600Y2005320D01*
X61216827Y1906885D01*
X61133115Y1823173D01*
X61034680Y1757400D01*
X60957340Y1725365D01*
X60925305Y1712096D01*
X60886601Y1704397D01*
X60809195Y1689000D01*
X60690805Y1689000D01*
X60613399Y1704397D01*
X60574695Y1712096D01*
X60542660Y1725365D01*
X60465320Y1757400D01*
X60366885Y1823173D01*
X60283173Y1906885D01*
X60217400Y2005320D01*
X60172096Y2114696D01*
X60149000Y2230805D01*
X60149000Y2349195D01*
X60172096Y2465304D01*
X60217400Y2574680D01*
X60283173Y2673115D01*
X60366885Y2756827D01*
X60465320Y2822600D01*
X60542660Y2854635D01*
X60574695Y2867904D01*
X60640528Y2880999D01*
X60690805Y2891000D01*
X60809195Y2891000D01*
X60859472Y2880999D01*
G37*
G36*
X58859472Y2880999D02*
G01*
X58925305Y2867904D01*
X58957340Y2854635D01*
X59034680Y2822600D01*
X59133115Y2756827D01*
X59216827Y2673115D01*
X59282600Y2574680D01*
X59327904Y2465304D01*
X59351000Y2349195D01*
X59351000Y2230805D01*
X59327904Y2114696D01*
X59282600Y2005320D01*
X59216827Y1906885D01*
X59133115Y1823173D01*
X59034680Y1757400D01*
X58957340Y1725365D01*
X58925305Y1712096D01*
X58886601Y1704397D01*
X58809195Y1689000D01*
X58690805Y1689000D01*
X58613399Y1704397D01*
X58574695Y1712096D01*
X58542660Y1725365D01*
X58465320Y1757400D01*
X58366885Y1823173D01*
X58283173Y1906885D01*
X58217400Y2005320D01*
X58172096Y2114696D01*
X58149000Y2230805D01*
X58149000Y2349195D01*
X58172096Y2465304D01*
X58217400Y2574680D01*
X58283173Y2673115D01*
X58366885Y2756827D01*
X58465320Y2822600D01*
X58542660Y2854635D01*
X58574695Y2867904D01*
X58640528Y2880999D01*
X58690805Y2891000D01*
X58809195Y2891000D01*
X58859472Y2880999D01*
G37*
G36*
X56859472Y2880999D02*
G01*
X56925305Y2867904D01*
X56957340Y2854635D01*
X57034680Y2822600D01*
X57133115Y2756827D01*
X57216827Y2673115D01*
X57282600Y2574680D01*
X57327904Y2465304D01*
X57351000Y2349195D01*
X57351000Y2230805D01*
X57327904Y2114696D01*
X57282600Y2005320D01*
X57216827Y1906885D01*
X57133115Y1823173D01*
X57034680Y1757400D01*
X56957340Y1725365D01*
X56925305Y1712096D01*
X56886601Y1704397D01*
X56809195Y1689000D01*
X56690805Y1689000D01*
X56613399Y1704397D01*
X56574695Y1712096D01*
X56542660Y1725365D01*
X56465320Y1757400D01*
X56366885Y1823173D01*
X56283173Y1906885D01*
X56217400Y2005320D01*
X56172096Y2114696D01*
X56149000Y2230805D01*
X56149000Y2349195D01*
X56172096Y2465304D01*
X56217400Y2574680D01*
X56283173Y2673115D01*
X56366885Y2756827D01*
X56465320Y2822600D01*
X56542660Y2854635D01*
X56574695Y2867904D01*
X56640528Y2880999D01*
X56690805Y2891000D01*
X56809195Y2891000D01*
X56859472Y2880999D01*
G37*
G36*
X92859472Y2880999D02*
G01*
X92925305Y2867904D01*
X92957340Y2854635D01*
X93034680Y2822600D01*
X93133115Y2756827D01*
X93216827Y2673115D01*
X93282600Y2574680D01*
X93327904Y2465304D01*
X93351000Y2349195D01*
X93351000Y2230805D01*
X93327904Y2114696D01*
X93282600Y2005320D01*
X93216827Y1906885D01*
X93133115Y1823173D01*
X93034680Y1757400D01*
X92957340Y1725365D01*
X92925305Y1712096D01*
X92886601Y1704397D01*
X92809195Y1689000D01*
X92690805Y1689000D01*
X92613399Y1704397D01*
X92574695Y1712096D01*
X92542660Y1725365D01*
X92465320Y1757400D01*
X92366885Y1823173D01*
X92283173Y1906885D01*
X92217400Y2005320D01*
X92172096Y2114696D01*
X92149000Y2230805D01*
X92149000Y2349195D01*
X92172096Y2465304D01*
X92217400Y2574680D01*
X92283173Y2673115D01*
X92366885Y2756827D01*
X92465320Y2822600D01*
X92542660Y2854635D01*
X92574695Y2867904D01*
X92640528Y2880999D01*
X92690805Y2891000D01*
X92809195Y2891000D01*
X92859472Y2880999D01*
G37*
G36*
X7785280Y2996120D02*
G01*
X6883280Y2996120D01*
X6883280Y3848120D01*
X7785280Y3848120D01*
X7785280Y2996120D01*
G37*
G36*
X6285280Y2996120D02*
G01*
X5383280Y2996120D01*
X5383280Y3848120D01*
X6285280Y3848120D01*
X6285280Y2996120D01*
G37*
G36*
X95886601Y4875603D02*
G01*
X95925305Y4867904D01*
X95957340Y4854635D01*
X96034680Y4822600D01*
X96133115Y4756827D01*
X96216827Y4673115D01*
X96282600Y4574680D01*
X96327904Y4465304D01*
X96351000Y4349195D01*
X96351000Y4230805D01*
X96327904Y4114696D01*
X96282600Y4005320D01*
X96216827Y3906885D01*
X96133115Y3823173D01*
X96034680Y3757400D01*
X95957340Y3725365D01*
X95925305Y3712096D01*
X95886601Y3704397D01*
X95809195Y3689000D01*
X95690805Y3689000D01*
X95613399Y3704397D01*
X95574695Y3712096D01*
X95542660Y3725365D01*
X95465320Y3757400D01*
X95366885Y3823173D01*
X95283173Y3906885D01*
X95217400Y4005320D01*
X95172096Y4114696D01*
X95149000Y4230805D01*
X95149000Y4349195D01*
X95172096Y4465304D01*
X95217400Y4574680D01*
X95283173Y4673115D01*
X95366885Y4756827D01*
X95465320Y4822600D01*
X95542660Y4854635D01*
X95574695Y4867904D01*
X95613399Y4875603D01*
X95690805Y4891000D01*
X95809195Y4891000D01*
X95886601Y4875603D01*
G37*
G36*
X13886601Y4875603D02*
G01*
X13925305Y4867904D01*
X13957340Y4854635D01*
X14034680Y4822600D01*
X14133115Y4756827D01*
X14216827Y4673115D01*
X14282600Y4574680D01*
X14327904Y4465304D01*
X14351000Y4349195D01*
X14351000Y4230805D01*
X14327904Y4114696D01*
X14282600Y4005320D01*
X14216827Y3906885D01*
X14133115Y3823173D01*
X14034680Y3757400D01*
X13957340Y3725365D01*
X13925305Y3712096D01*
X13886601Y3704397D01*
X13809195Y3689000D01*
X13690805Y3689000D01*
X13613399Y3704397D01*
X13574695Y3712096D01*
X13542660Y3725365D01*
X13465320Y3757400D01*
X13366885Y3823173D01*
X13283173Y3906885D01*
X13217400Y4005320D01*
X13172096Y4114696D01*
X13149000Y4230805D01*
X13149000Y4349195D01*
X13172096Y4465304D01*
X13217400Y4574680D01*
X13283173Y4673115D01*
X13366885Y4756827D01*
X13465320Y4822600D01*
X13542660Y4854635D01*
X13574695Y4867904D01*
X13613399Y4875603D01*
X13690805Y4891000D01*
X13809195Y4891000D01*
X13886601Y4875603D01*
G37*
G36*
X93886601Y4875603D02*
G01*
X93925305Y4867904D01*
X93957340Y4854635D01*
X94034680Y4822600D01*
X94133115Y4756827D01*
X94216827Y4673115D01*
X94282600Y4574680D01*
X94327904Y4465304D01*
X94351000Y4349195D01*
X94351000Y4230805D01*
X94327904Y4114696D01*
X94282600Y4005320D01*
X94216827Y3906885D01*
X94133115Y3823173D01*
X94034680Y3757400D01*
X93957340Y3725365D01*
X93925305Y3712096D01*
X93886601Y3704397D01*
X93809195Y3689000D01*
X93690805Y3689000D01*
X93613399Y3704397D01*
X93574695Y3712096D01*
X93542660Y3725365D01*
X93465320Y3757400D01*
X93366885Y3823173D01*
X93283173Y3906885D01*
X93217400Y4005320D01*
X93172096Y4114696D01*
X93149000Y4230805D01*
X93149000Y4349195D01*
X93172096Y4465304D01*
X93217400Y4574680D01*
X93283173Y4673115D01*
X93366885Y4756827D01*
X93465320Y4822600D01*
X93542660Y4854635D01*
X93574695Y4867904D01*
X93613399Y4875603D01*
X93690805Y4891000D01*
X93809195Y4891000D01*
X93886601Y4875603D01*
G37*
G36*
X91886601Y4875603D02*
G01*
X91925305Y4867904D01*
X91957340Y4854635D01*
X92034680Y4822600D01*
X92133115Y4756827D01*
X92216827Y4673115D01*
X92282600Y4574680D01*
X92327904Y4465304D01*
X92351000Y4349195D01*
X92351000Y4230805D01*
X92327904Y4114696D01*
X92282600Y4005320D01*
X92216827Y3906885D01*
X92133115Y3823173D01*
X92034680Y3757400D01*
X91957340Y3725365D01*
X91925305Y3712096D01*
X91886601Y3704397D01*
X91809195Y3689000D01*
X91690805Y3689000D01*
X91613399Y3704397D01*
X91574695Y3712096D01*
X91542660Y3725365D01*
X91465320Y3757400D01*
X91366885Y3823173D01*
X91283173Y3906885D01*
X91217400Y4005320D01*
X91172096Y4114696D01*
X91149000Y4230805D01*
X91149000Y4349195D01*
X91172096Y4465304D01*
X91217400Y4574680D01*
X91283173Y4673115D01*
X91366885Y4756827D01*
X91465320Y4822600D01*
X91542660Y4854635D01*
X91574695Y4867904D01*
X91613399Y4875603D01*
X91690805Y4891000D01*
X91809195Y4891000D01*
X91886601Y4875603D01*
G37*
G36*
X89886601Y4875603D02*
G01*
X89925305Y4867904D01*
X89957340Y4854635D01*
X90034680Y4822600D01*
X90133115Y4756827D01*
X90216827Y4673115D01*
X90282600Y4574680D01*
X90327904Y4465304D01*
X90351000Y4349195D01*
X90351000Y4230805D01*
X90327904Y4114696D01*
X90282600Y4005320D01*
X90216827Y3906885D01*
X90133115Y3823173D01*
X90034680Y3757400D01*
X89957340Y3725365D01*
X89925305Y3712096D01*
X89886601Y3704397D01*
X89809195Y3689000D01*
X89690805Y3689000D01*
X89613399Y3704397D01*
X89574695Y3712096D01*
X89542660Y3725365D01*
X89465320Y3757400D01*
X89366885Y3823173D01*
X89283173Y3906885D01*
X89217400Y4005320D01*
X89172096Y4114696D01*
X89149000Y4230805D01*
X89149000Y4349195D01*
X89172096Y4465304D01*
X89217400Y4574680D01*
X89283173Y4673115D01*
X89366885Y4756827D01*
X89465320Y4822600D01*
X89542660Y4854635D01*
X89574695Y4867904D01*
X89613399Y4875603D01*
X89690805Y4891000D01*
X89809195Y4891000D01*
X89886601Y4875603D01*
G37*
G36*
X63886601Y4875603D02*
G01*
X63925305Y4867904D01*
X63957340Y4854635D01*
X64034680Y4822600D01*
X64133115Y4756827D01*
X64216827Y4673115D01*
X64282600Y4574680D01*
X64327904Y4465304D01*
X64351000Y4349195D01*
X64351000Y4230805D01*
X64327904Y4114696D01*
X64282600Y4005320D01*
X64216827Y3906885D01*
X64133115Y3823173D01*
X64034680Y3757400D01*
X63957340Y3725365D01*
X63925305Y3712096D01*
X63886601Y3704397D01*
X63809195Y3689000D01*
X63690805Y3689000D01*
X63613399Y3704397D01*
X63574695Y3712096D01*
X63542660Y3725365D01*
X63465320Y3757400D01*
X63366885Y3823173D01*
X63283173Y3906885D01*
X63217400Y4005320D01*
X63172096Y4114696D01*
X63149000Y4230805D01*
X63149000Y4349195D01*
X63172096Y4465304D01*
X63217400Y4574680D01*
X63283173Y4673115D01*
X63366885Y4756827D01*
X63465320Y4822600D01*
X63542660Y4854635D01*
X63574695Y4867904D01*
X63613399Y4875603D01*
X63690805Y4891000D01*
X63809195Y4891000D01*
X63886601Y4875603D01*
G37*
G36*
X87886601Y4875603D02*
G01*
X87925305Y4867904D01*
X87957340Y4854635D01*
X88034680Y4822600D01*
X88133115Y4756827D01*
X88216827Y4673115D01*
X88282600Y4574680D01*
X88327904Y4465304D01*
X88351000Y4349195D01*
X88351000Y4230805D01*
X88327904Y4114696D01*
X88282600Y4005320D01*
X88216827Y3906885D01*
X88133115Y3823173D01*
X88034680Y3757400D01*
X87957340Y3725365D01*
X87925305Y3712096D01*
X87886601Y3704397D01*
X87809195Y3689000D01*
X87690805Y3689000D01*
X87613399Y3704397D01*
X87574695Y3712096D01*
X87542660Y3725365D01*
X87465320Y3757400D01*
X87366885Y3823173D01*
X87283173Y3906885D01*
X87217400Y4005320D01*
X87172096Y4114696D01*
X87149000Y4230805D01*
X87149000Y4349195D01*
X87172096Y4465304D01*
X87217400Y4574680D01*
X87283173Y4673115D01*
X87366885Y4756827D01*
X87465320Y4822600D01*
X87542660Y4854635D01*
X87574695Y4867904D01*
X87613399Y4875603D01*
X87690805Y4891000D01*
X87809195Y4891000D01*
X87886601Y4875603D01*
G37*
G36*
X85886601Y4875603D02*
G01*
X85925305Y4867904D01*
X85957340Y4854635D01*
X86034680Y4822600D01*
X86133115Y4756827D01*
X86216827Y4673115D01*
X86282600Y4574680D01*
X86327904Y4465304D01*
X86351000Y4349195D01*
X86351000Y4230805D01*
X86327904Y4114696D01*
X86282600Y4005320D01*
X86216827Y3906885D01*
X86133115Y3823173D01*
X86034680Y3757400D01*
X85957340Y3725365D01*
X85925305Y3712096D01*
X85886601Y3704397D01*
X85809195Y3689000D01*
X85690805Y3689000D01*
X85613399Y3704397D01*
X85574695Y3712096D01*
X85542660Y3725365D01*
X85465320Y3757400D01*
X85366885Y3823173D01*
X85283173Y3906885D01*
X85217400Y4005320D01*
X85172096Y4114696D01*
X85149000Y4230805D01*
X85149000Y4349195D01*
X85172096Y4465304D01*
X85217400Y4574680D01*
X85283173Y4673115D01*
X85366885Y4756827D01*
X85465320Y4822600D01*
X85542660Y4854635D01*
X85574695Y4867904D01*
X85613399Y4875603D01*
X85690805Y4891000D01*
X85809195Y4891000D01*
X85886601Y4875603D01*
G37*
G36*
X81886601Y4875603D02*
G01*
X81925305Y4867904D01*
X81957340Y4854635D01*
X82034680Y4822600D01*
X82133115Y4756827D01*
X82216827Y4673115D01*
X82282600Y4574680D01*
X82327904Y4465304D01*
X82351000Y4349195D01*
X82351000Y4230805D01*
X82327904Y4114696D01*
X82282600Y4005320D01*
X82216827Y3906885D01*
X82133115Y3823173D01*
X82034680Y3757400D01*
X81957340Y3725365D01*
X81925305Y3712096D01*
X81886601Y3704397D01*
X81809195Y3689000D01*
X81690805Y3689000D01*
X81613399Y3704397D01*
X81574695Y3712096D01*
X81542660Y3725365D01*
X81465320Y3757400D01*
X81366885Y3823173D01*
X81283173Y3906885D01*
X81217400Y4005320D01*
X81172096Y4114696D01*
X81149000Y4230805D01*
X81149000Y4349195D01*
X81172096Y4465304D01*
X81217400Y4574680D01*
X81283173Y4673115D01*
X81366885Y4756827D01*
X81465320Y4822600D01*
X81542660Y4854635D01*
X81574695Y4867904D01*
X81613399Y4875603D01*
X81690805Y4891000D01*
X81809195Y4891000D01*
X81886601Y4875603D01*
G37*
G36*
X79886601Y4875603D02*
G01*
X79925305Y4867904D01*
X79957340Y4854635D01*
X80034680Y4822600D01*
X80133115Y4756827D01*
X80216827Y4673115D01*
X80282600Y4574680D01*
X80327904Y4465304D01*
X80351000Y4349195D01*
X80351000Y4230805D01*
X80327904Y4114696D01*
X80282600Y4005320D01*
X80216827Y3906885D01*
X80133115Y3823173D01*
X80034680Y3757400D01*
X79957340Y3725365D01*
X79925305Y3712096D01*
X79886601Y3704397D01*
X79809195Y3689000D01*
X79690805Y3689000D01*
X79613399Y3704397D01*
X79574695Y3712096D01*
X79542660Y3725365D01*
X79465320Y3757400D01*
X79366885Y3823173D01*
X79283173Y3906885D01*
X79217400Y4005320D01*
X79172096Y4114696D01*
X79149000Y4230805D01*
X79149000Y4349195D01*
X79172096Y4465304D01*
X79217400Y4574680D01*
X79283173Y4673115D01*
X79366885Y4756827D01*
X79465320Y4822600D01*
X79542660Y4854635D01*
X79574695Y4867904D01*
X79613399Y4875603D01*
X79690805Y4891000D01*
X79809195Y4891000D01*
X79886601Y4875603D01*
G37*
G36*
X77886601Y4875603D02*
G01*
X77925305Y4867904D01*
X77957340Y4854635D01*
X78034680Y4822600D01*
X78133115Y4756827D01*
X78216827Y4673115D01*
X78282600Y4574680D01*
X78327904Y4465304D01*
X78351000Y4349195D01*
X78351000Y4230805D01*
X78327904Y4114696D01*
X78282600Y4005320D01*
X78216827Y3906885D01*
X78133115Y3823173D01*
X78034680Y3757400D01*
X77957340Y3725365D01*
X77925305Y3712096D01*
X77886601Y3704397D01*
X77809195Y3689000D01*
X77690805Y3689000D01*
X77613399Y3704397D01*
X77574695Y3712096D01*
X77542660Y3725365D01*
X77465320Y3757400D01*
X77366885Y3823173D01*
X77283173Y3906885D01*
X77217400Y4005320D01*
X77172096Y4114696D01*
X77149000Y4230805D01*
X77149000Y4349195D01*
X77172096Y4465304D01*
X77217400Y4574680D01*
X77283173Y4673115D01*
X77366885Y4756827D01*
X77465320Y4822600D01*
X77542660Y4854635D01*
X77574695Y4867904D01*
X77613399Y4875603D01*
X77690805Y4891000D01*
X77809195Y4891000D01*
X77886601Y4875603D01*
G37*
G36*
X75886601Y4875603D02*
G01*
X75925305Y4867904D01*
X75957340Y4854635D01*
X76034680Y4822600D01*
X76133115Y4756827D01*
X76216827Y4673115D01*
X76282600Y4574680D01*
X76327904Y4465304D01*
X76351000Y4349195D01*
X76351000Y4230805D01*
X76327904Y4114696D01*
X76282600Y4005320D01*
X76216827Y3906885D01*
X76133115Y3823173D01*
X76034680Y3757400D01*
X75957340Y3725365D01*
X75925305Y3712096D01*
X75886601Y3704397D01*
X75809195Y3689000D01*
X75690805Y3689000D01*
X75613399Y3704397D01*
X75574695Y3712096D01*
X75542660Y3725365D01*
X75465320Y3757400D01*
X75366885Y3823173D01*
X75283173Y3906885D01*
X75217400Y4005320D01*
X75172096Y4114696D01*
X75149000Y4230805D01*
X75149000Y4349195D01*
X75172096Y4465304D01*
X75217400Y4574680D01*
X75283173Y4673115D01*
X75366885Y4756827D01*
X75465320Y4822600D01*
X75542660Y4854635D01*
X75574695Y4867904D01*
X75613399Y4875603D01*
X75690805Y4891000D01*
X75809195Y4891000D01*
X75886601Y4875603D01*
G37*
G36*
X73886601Y4875603D02*
G01*
X73925305Y4867904D01*
X73957340Y4854635D01*
X74034680Y4822600D01*
X74133115Y4756827D01*
X74216827Y4673115D01*
X74282600Y4574680D01*
X74327904Y4465304D01*
X74351000Y4349195D01*
X74351000Y4230805D01*
X74327904Y4114696D01*
X74282600Y4005320D01*
X74216827Y3906885D01*
X74133115Y3823173D01*
X74034680Y3757400D01*
X73957340Y3725365D01*
X73925305Y3712096D01*
X73886601Y3704397D01*
X73809195Y3689000D01*
X73690805Y3689000D01*
X73613399Y3704397D01*
X73574695Y3712096D01*
X73542660Y3725365D01*
X73465320Y3757400D01*
X73366885Y3823173D01*
X73283173Y3906885D01*
X73217400Y4005320D01*
X73172096Y4114696D01*
X73149000Y4230805D01*
X73149000Y4349195D01*
X73172096Y4465304D01*
X73217400Y4574680D01*
X73283173Y4673115D01*
X73366885Y4756827D01*
X73465320Y4822600D01*
X73542660Y4854635D01*
X73574695Y4867904D01*
X73613399Y4875603D01*
X73690805Y4891000D01*
X73809195Y4891000D01*
X73886601Y4875603D01*
G37*
G36*
X71886601Y4875603D02*
G01*
X71925305Y4867904D01*
X71957340Y4854635D01*
X72034680Y4822600D01*
X72133115Y4756827D01*
X72216827Y4673115D01*
X72282600Y4574680D01*
X72327904Y4465304D01*
X72351000Y4349195D01*
X72351000Y4230805D01*
X72327904Y4114696D01*
X72282600Y4005320D01*
X72216827Y3906885D01*
X72133115Y3823173D01*
X72034680Y3757400D01*
X71957340Y3725365D01*
X71925305Y3712096D01*
X71886601Y3704397D01*
X71809195Y3689000D01*
X71690805Y3689000D01*
X71613399Y3704397D01*
X71574695Y3712096D01*
X71542660Y3725365D01*
X71465320Y3757400D01*
X71366885Y3823173D01*
X71283173Y3906885D01*
X71217400Y4005320D01*
X71172096Y4114696D01*
X71149000Y4230805D01*
X71149000Y4349195D01*
X71172096Y4465304D01*
X71217400Y4574680D01*
X71283173Y4673115D01*
X71366885Y4756827D01*
X71465320Y4822600D01*
X71542660Y4854635D01*
X71574695Y4867904D01*
X71613399Y4875603D01*
X71690805Y4891000D01*
X71809195Y4891000D01*
X71886601Y4875603D01*
G37*
G36*
X69886601Y4875603D02*
G01*
X69925305Y4867904D01*
X69957340Y4854635D01*
X70034680Y4822600D01*
X70133115Y4756827D01*
X70216827Y4673115D01*
X70282600Y4574680D01*
X70327904Y4465304D01*
X70351000Y4349195D01*
X70351000Y4230805D01*
X70327904Y4114696D01*
X70282600Y4005320D01*
X70216827Y3906885D01*
X70133115Y3823173D01*
X70034680Y3757400D01*
X69957340Y3725365D01*
X69925305Y3712096D01*
X69886601Y3704397D01*
X69809195Y3689000D01*
X69690805Y3689000D01*
X69613399Y3704397D01*
X69574695Y3712096D01*
X69542660Y3725365D01*
X69465320Y3757400D01*
X69366885Y3823173D01*
X69283173Y3906885D01*
X69217400Y4005320D01*
X69172096Y4114696D01*
X69149000Y4230805D01*
X69149000Y4349195D01*
X69172096Y4465304D01*
X69217400Y4574680D01*
X69283173Y4673115D01*
X69366885Y4756827D01*
X69465320Y4822600D01*
X69542660Y4854635D01*
X69574695Y4867904D01*
X69613399Y4875603D01*
X69690805Y4891000D01*
X69809195Y4891000D01*
X69886601Y4875603D01*
G37*
G36*
X67886601Y4875603D02*
G01*
X67925305Y4867904D01*
X67957340Y4854635D01*
X68034680Y4822600D01*
X68133115Y4756827D01*
X68216827Y4673115D01*
X68282600Y4574680D01*
X68327904Y4465304D01*
X68351000Y4349195D01*
X68351000Y4230805D01*
X68327904Y4114696D01*
X68282600Y4005320D01*
X68216827Y3906885D01*
X68133115Y3823173D01*
X68034680Y3757400D01*
X67957340Y3725365D01*
X67925305Y3712096D01*
X67886601Y3704397D01*
X67809195Y3689000D01*
X67690805Y3689000D01*
X67613399Y3704397D01*
X67574695Y3712096D01*
X67542660Y3725365D01*
X67465320Y3757400D01*
X67366885Y3823173D01*
X67283173Y3906885D01*
X67217400Y4005320D01*
X67172096Y4114696D01*
X67149000Y4230805D01*
X67149000Y4349195D01*
X67172096Y4465304D01*
X67217400Y4574680D01*
X67283173Y4673115D01*
X67366885Y4756827D01*
X67465320Y4822600D01*
X67542660Y4854635D01*
X67574695Y4867904D01*
X67613399Y4875603D01*
X67690805Y4891000D01*
X67809195Y4891000D01*
X67886601Y4875603D01*
G37*
G36*
X21886601Y4875603D02*
G01*
X21925305Y4867904D01*
X21957340Y4854635D01*
X22034680Y4822600D01*
X22133115Y4756827D01*
X22216827Y4673115D01*
X22282600Y4574680D01*
X22327904Y4465304D01*
X22351000Y4349195D01*
X22351000Y4230805D01*
X22327904Y4114696D01*
X22282600Y4005320D01*
X22216827Y3906885D01*
X22133115Y3823173D01*
X22034680Y3757400D01*
X21957340Y3725365D01*
X21925305Y3712096D01*
X21886601Y3704397D01*
X21809195Y3689000D01*
X21690805Y3689000D01*
X21613399Y3704397D01*
X21574695Y3712096D01*
X21542660Y3725365D01*
X21465320Y3757400D01*
X21366885Y3823173D01*
X21283173Y3906885D01*
X21217400Y4005320D01*
X21172096Y4114696D01*
X21149000Y4230805D01*
X21149000Y4349195D01*
X21172096Y4465304D01*
X21217400Y4574680D01*
X21283173Y4673115D01*
X21366885Y4756827D01*
X21465320Y4822600D01*
X21542660Y4854635D01*
X21574695Y4867904D01*
X21613399Y4875603D01*
X21690805Y4891000D01*
X21809195Y4891000D01*
X21886601Y4875603D01*
G37*
G36*
X19886601Y4875603D02*
G01*
X19925305Y4867904D01*
X19957340Y4854635D01*
X20034680Y4822600D01*
X20133115Y4756827D01*
X20216827Y4673115D01*
X20282600Y4574680D01*
X20327904Y4465304D01*
X20351000Y4349195D01*
X20351000Y4230805D01*
X20327904Y4114696D01*
X20282600Y4005320D01*
X20216827Y3906885D01*
X20133115Y3823173D01*
X20034680Y3757400D01*
X19957340Y3725365D01*
X19925305Y3712096D01*
X19886601Y3704397D01*
X19809195Y3689000D01*
X19690805Y3689000D01*
X19613399Y3704397D01*
X19574695Y3712096D01*
X19542660Y3725365D01*
X19465320Y3757400D01*
X19366885Y3823173D01*
X19283173Y3906885D01*
X19217400Y4005320D01*
X19172096Y4114696D01*
X19149000Y4230805D01*
X19149000Y4349195D01*
X19172096Y4465304D01*
X19217400Y4574680D01*
X19283173Y4673115D01*
X19366885Y4756827D01*
X19465320Y4822600D01*
X19542660Y4854635D01*
X19574695Y4867904D01*
X19613399Y4875603D01*
X19690805Y4891000D01*
X19809195Y4891000D01*
X19886601Y4875603D01*
G37*
G36*
X17886601Y4875603D02*
G01*
X17925305Y4867904D01*
X17957340Y4854635D01*
X18034680Y4822600D01*
X18133115Y4756827D01*
X18216827Y4673115D01*
X18282600Y4574680D01*
X18327904Y4465304D01*
X18351000Y4349195D01*
X18351000Y4230805D01*
X18327904Y4114696D01*
X18282600Y4005320D01*
X18216827Y3906885D01*
X18133115Y3823173D01*
X18034680Y3757400D01*
X17957340Y3725365D01*
X17925305Y3712096D01*
X17886601Y3704397D01*
X17809195Y3689000D01*
X17690805Y3689000D01*
X17613399Y3704397D01*
X17574695Y3712096D01*
X17542660Y3725365D01*
X17465320Y3757400D01*
X17366885Y3823173D01*
X17283173Y3906885D01*
X17217400Y4005320D01*
X17172096Y4114696D01*
X17149000Y4230805D01*
X17149000Y4349195D01*
X17172096Y4465304D01*
X17217400Y4574680D01*
X17283173Y4673115D01*
X17366885Y4756827D01*
X17465320Y4822600D01*
X17542660Y4854635D01*
X17574695Y4867904D01*
X17613399Y4875603D01*
X17690805Y4891000D01*
X17809195Y4891000D01*
X17886601Y4875603D01*
G37*
G36*
X15886601Y4875603D02*
G01*
X15925305Y4867904D01*
X15957340Y4854635D01*
X16034680Y4822600D01*
X16133115Y4756827D01*
X16216827Y4673115D01*
X16282600Y4574680D01*
X16327904Y4465304D01*
X16351000Y4349195D01*
X16351000Y4230805D01*
X16327904Y4114696D01*
X16282600Y4005320D01*
X16216827Y3906885D01*
X16133115Y3823173D01*
X16034680Y3757400D01*
X15957340Y3725365D01*
X15925305Y3712096D01*
X15886601Y3704397D01*
X15809195Y3689000D01*
X15690805Y3689000D01*
X15613399Y3704397D01*
X15574695Y3712096D01*
X15542660Y3725365D01*
X15465320Y3757400D01*
X15366885Y3823173D01*
X15283173Y3906885D01*
X15217400Y4005320D01*
X15172096Y4114696D01*
X15149000Y4230805D01*
X15149000Y4349195D01*
X15172096Y4465304D01*
X15217400Y4574680D01*
X15283173Y4673115D01*
X15366885Y4756827D01*
X15465320Y4822600D01*
X15542660Y4854635D01*
X15574695Y4867904D01*
X15613399Y4875603D01*
X15690805Y4891000D01*
X15809195Y4891000D01*
X15886601Y4875603D01*
G37*
G36*
X43886601Y4875603D02*
G01*
X43925305Y4867904D01*
X43957340Y4854635D01*
X44034680Y4822600D01*
X44133115Y4756827D01*
X44216827Y4673115D01*
X44282600Y4574680D01*
X44327904Y4465304D01*
X44351000Y4349195D01*
X44351000Y4230805D01*
X44327904Y4114696D01*
X44282600Y4005320D01*
X44216827Y3906885D01*
X44133115Y3823173D01*
X44034680Y3757400D01*
X43957340Y3725365D01*
X43925305Y3712096D01*
X43886601Y3704397D01*
X43809195Y3689000D01*
X43690805Y3689000D01*
X43613399Y3704397D01*
X43574695Y3712096D01*
X43542660Y3725365D01*
X43465320Y3757400D01*
X43366885Y3823173D01*
X43283173Y3906885D01*
X43217400Y4005320D01*
X43172096Y4114696D01*
X43149000Y4230805D01*
X43149000Y4349195D01*
X43172096Y4465304D01*
X43217400Y4574680D01*
X43283173Y4673115D01*
X43366885Y4756827D01*
X43465320Y4822600D01*
X43542660Y4854635D01*
X43574695Y4867904D01*
X43613399Y4875603D01*
X43690805Y4891000D01*
X43809195Y4891000D01*
X43886601Y4875603D01*
G37*
G36*
X41886601Y4875603D02*
G01*
X41925305Y4867904D01*
X41957340Y4854635D01*
X42034680Y4822600D01*
X42133115Y4756827D01*
X42216827Y4673115D01*
X42282600Y4574680D01*
X42327904Y4465304D01*
X42351000Y4349195D01*
X42351000Y4230805D01*
X42327904Y4114696D01*
X42282600Y4005320D01*
X42216827Y3906885D01*
X42133115Y3823173D01*
X42034680Y3757400D01*
X41957340Y3725365D01*
X41925305Y3712096D01*
X41886601Y3704397D01*
X41809195Y3689000D01*
X41690805Y3689000D01*
X41613399Y3704397D01*
X41574695Y3712096D01*
X41542660Y3725365D01*
X41465320Y3757400D01*
X41366885Y3823173D01*
X41283173Y3906885D01*
X41217400Y4005320D01*
X41172096Y4114696D01*
X41149000Y4230805D01*
X41149000Y4349195D01*
X41172096Y4465304D01*
X41217400Y4574680D01*
X41283173Y4673115D01*
X41366885Y4756827D01*
X41465320Y4822600D01*
X41542660Y4854635D01*
X41574695Y4867904D01*
X41613399Y4875603D01*
X41690805Y4891000D01*
X41809195Y4891000D01*
X41886601Y4875603D01*
G37*
G36*
X61886601Y4875603D02*
G01*
X61925305Y4867904D01*
X61957340Y4854635D01*
X62034680Y4822600D01*
X62133115Y4756827D01*
X62216827Y4673115D01*
X62282600Y4574680D01*
X62327904Y4465304D01*
X62351000Y4349195D01*
X62351000Y4230805D01*
X62327904Y4114696D01*
X62282600Y4005320D01*
X62216827Y3906885D01*
X62133115Y3823173D01*
X62034680Y3757400D01*
X61957340Y3725365D01*
X61925305Y3712096D01*
X61886601Y3704397D01*
X61809195Y3689000D01*
X61690805Y3689000D01*
X61613399Y3704397D01*
X61574695Y3712096D01*
X61542660Y3725365D01*
X61465320Y3757400D01*
X61366885Y3823173D01*
X61283173Y3906885D01*
X61217400Y4005320D01*
X61172096Y4114696D01*
X61149000Y4230805D01*
X61149000Y4349195D01*
X61172096Y4465304D01*
X61217400Y4574680D01*
X61283173Y4673115D01*
X61366885Y4756827D01*
X61465320Y4822600D01*
X61542660Y4854635D01*
X61574695Y4867904D01*
X61613399Y4875603D01*
X61690805Y4891000D01*
X61809195Y4891000D01*
X61886601Y4875603D01*
G37*
G36*
X59886601Y4875603D02*
G01*
X59925305Y4867904D01*
X59957340Y4854635D01*
X60034680Y4822600D01*
X60133115Y4756827D01*
X60216827Y4673115D01*
X60282600Y4574680D01*
X60327904Y4465304D01*
X60351000Y4349195D01*
X60351000Y4230805D01*
X60327904Y4114696D01*
X60282600Y4005320D01*
X60216827Y3906885D01*
X60133115Y3823173D01*
X60034680Y3757400D01*
X59957340Y3725365D01*
X59925305Y3712096D01*
X59886601Y3704397D01*
X59809195Y3689000D01*
X59690805Y3689000D01*
X59613399Y3704397D01*
X59574695Y3712096D01*
X59542660Y3725365D01*
X59465320Y3757400D01*
X59366885Y3823173D01*
X59283173Y3906885D01*
X59217400Y4005320D01*
X59172096Y4114696D01*
X59149000Y4230805D01*
X59149000Y4349195D01*
X59172096Y4465304D01*
X59217400Y4574680D01*
X59283173Y4673115D01*
X59366885Y4756827D01*
X59465320Y4822600D01*
X59542660Y4854635D01*
X59574695Y4867904D01*
X59613399Y4875603D01*
X59690805Y4891000D01*
X59809195Y4891000D01*
X59886601Y4875603D01*
G37*
G36*
X57886601Y4875603D02*
G01*
X57925305Y4867904D01*
X57957340Y4854635D01*
X58034680Y4822600D01*
X58133115Y4756827D01*
X58216827Y4673115D01*
X58282600Y4574680D01*
X58327904Y4465304D01*
X58351000Y4349195D01*
X58351000Y4230805D01*
X58327904Y4114696D01*
X58282600Y4005320D01*
X58216827Y3906885D01*
X58133115Y3823173D01*
X58034680Y3757400D01*
X57957340Y3725365D01*
X57925305Y3712096D01*
X57886601Y3704397D01*
X57809195Y3689000D01*
X57690805Y3689000D01*
X57613399Y3704397D01*
X57574695Y3712096D01*
X57542660Y3725365D01*
X57465320Y3757400D01*
X57366885Y3823173D01*
X57283173Y3906885D01*
X57217400Y4005320D01*
X57172096Y4114696D01*
X57149000Y4230805D01*
X57149000Y4349195D01*
X57172096Y4465304D01*
X57217400Y4574680D01*
X57283173Y4673115D01*
X57366885Y4756827D01*
X57465320Y4822600D01*
X57542660Y4854635D01*
X57574695Y4867904D01*
X57613399Y4875603D01*
X57690805Y4891000D01*
X57809195Y4891000D01*
X57886601Y4875603D01*
G37*
G36*
X55886601Y4875603D02*
G01*
X55925305Y4867904D01*
X55957340Y4854635D01*
X56034680Y4822600D01*
X56133115Y4756827D01*
X56216827Y4673115D01*
X56282600Y4574680D01*
X56327904Y4465304D01*
X56351000Y4349195D01*
X56351000Y4230805D01*
X56327904Y4114696D01*
X56282600Y4005320D01*
X56216827Y3906885D01*
X56133115Y3823173D01*
X56034680Y3757400D01*
X55957340Y3725365D01*
X55925305Y3712096D01*
X55886601Y3704397D01*
X55809195Y3689000D01*
X55690805Y3689000D01*
X55613399Y3704397D01*
X55574695Y3712096D01*
X55542660Y3725365D01*
X55465320Y3757400D01*
X55366885Y3823173D01*
X55283173Y3906885D01*
X55217400Y4005320D01*
X55172096Y4114696D01*
X55149000Y4230805D01*
X55149000Y4349195D01*
X55172096Y4465304D01*
X55217400Y4574680D01*
X55283173Y4673115D01*
X55366885Y4756827D01*
X55465320Y4822600D01*
X55542660Y4854635D01*
X55574695Y4867904D01*
X55613399Y4875603D01*
X55690805Y4891000D01*
X55809195Y4891000D01*
X55886601Y4875603D01*
G37*
G36*
X53886601Y4875603D02*
G01*
X53925305Y4867904D01*
X53957340Y4854635D01*
X54034680Y4822600D01*
X54133115Y4756827D01*
X54216827Y4673115D01*
X54282600Y4574680D01*
X54327904Y4465304D01*
X54351000Y4349195D01*
X54351000Y4230805D01*
X54327904Y4114696D01*
X54282600Y4005320D01*
X54216827Y3906885D01*
X54133115Y3823173D01*
X54034680Y3757400D01*
X53957340Y3725365D01*
X53925305Y3712096D01*
X53886601Y3704397D01*
X53809195Y3689000D01*
X53690805Y3689000D01*
X53613399Y3704397D01*
X53574695Y3712096D01*
X53542660Y3725365D01*
X53465320Y3757400D01*
X53366885Y3823173D01*
X53283173Y3906885D01*
X53217400Y4005320D01*
X53172096Y4114696D01*
X53149000Y4230805D01*
X53149000Y4349195D01*
X53172096Y4465304D01*
X53217400Y4574680D01*
X53283173Y4673115D01*
X53366885Y4756827D01*
X53465320Y4822600D01*
X53542660Y4854635D01*
X53574695Y4867904D01*
X53613399Y4875603D01*
X53690805Y4891000D01*
X53809195Y4891000D01*
X53886601Y4875603D01*
G37*
G36*
X51886601Y4875603D02*
G01*
X51925305Y4867904D01*
X51957340Y4854635D01*
X52034680Y4822600D01*
X52133115Y4756827D01*
X52216827Y4673115D01*
X52282600Y4574680D01*
X52327904Y4465304D01*
X52351000Y4349195D01*
X52351000Y4230805D01*
X52327904Y4114696D01*
X52282600Y4005320D01*
X52216827Y3906885D01*
X52133115Y3823173D01*
X52034680Y3757400D01*
X51957340Y3725365D01*
X51925305Y3712096D01*
X51886601Y3704397D01*
X51809195Y3689000D01*
X51690805Y3689000D01*
X51613399Y3704397D01*
X51574695Y3712096D01*
X51542660Y3725365D01*
X51465320Y3757400D01*
X51366885Y3823173D01*
X51283173Y3906885D01*
X51217400Y4005320D01*
X51172096Y4114696D01*
X51149000Y4230805D01*
X51149000Y4349195D01*
X51172096Y4465304D01*
X51217400Y4574680D01*
X51283173Y4673115D01*
X51366885Y4756827D01*
X51465320Y4822600D01*
X51542660Y4854635D01*
X51574695Y4867904D01*
X51613399Y4875603D01*
X51690805Y4891000D01*
X51809195Y4891000D01*
X51886601Y4875603D01*
G37*
G36*
X49886601Y4875603D02*
G01*
X49925305Y4867904D01*
X49957340Y4854635D01*
X50034680Y4822600D01*
X50133115Y4756827D01*
X50216827Y4673115D01*
X50282600Y4574680D01*
X50327904Y4465304D01*
X50351000Y4349195D01*
X50351000Y4230805D01*
X50327904Y4114696D01*
X50282600Y4005320D01*
X50216827Y3906885D01*
X50133115Y3823173D01*
X50034680Y3757400D01*
X49957340Y3725365D01*
X49925305Y3712096D01*
X49886601Y3704397D01*
X49809195Y3689000D01*
X49690805Y3689000D01*
X49613399Y3704397D01*
X49574695Y3712096D01*
X49542660Y3725365D01*
X49465320Y3757400D01*
X49366885Y3823173D01*
X49283173Y3906885D01*
X49217400Y4005320D01*
X49172096Y4114696D01*
X49149000Y4230805D01*
X49149000Y4349195D01*
X49172096Y4465304D01*
X49217400Y4574680D01*
X49283173Y4673115D01*
X49366885Y4756827D01*
X49465320Y4822600D01*
X49542660Y4854635D01*
X49574695Y4867904D01*
X49613399Y4875603D01*
X49690805Y4891000D01*
X49809195Y4891000D01*
X49886601Y4875603D01*
G37*
G36*
X47886601Y4875603D02*
G01*
X47925305Y4867904D01*
X47957340Y4854635D01*
X48034680Y4822600D01*
X48133115Y4756827D01*
X48216827Y4673115D01*
X48282600Y4574680D01*
X48327904Y4465304D01*
X48351000Y4349195D01*
X48351000Y4230805D01*
X48327904Y4114696D01*
X48282600Y4005320D01*
X48216827Y3906885D01*
X48133115Y3823173D01*
X48034680Y3757400D01*
X47957340Y3725365D01*
X47925305Y3712096D01*
X47886601Y3704397D01*
X47809195Y3689000D01*
X47690805Y3689000D01*
X47613399Y3704397D01*
X47574695Y3712096D01*
X47542660Y3725365D01*
X47465320Y3757400D01*
X47366885Y3823173D01*
X47283173Y3906885D01*
X47217400Y4005320D01*
X47172096Y4114696D01*
X47149000Y4230805D01*
X47149000Y4349195D01*
X47172096Y4465304D01*
X47217400Y4574680D01*
X47283173Y4673115D01*
X47366885Y4756827D01*
X47465320Y4822600D01*
X47542660Y4854635D01*
X47574695Y4867904D01*
X47613399Y4875603D01*
X47690805Y4891000D01*
X47809195Y4891000D01*
X47886601Y4875603D01*
G37*
G36*
X45886601Y4875603D02*
G01*
X45925305Y4867904D01*
X45957340Y4854635D01*
X46034680Y4822600D01*
X46133115Y4756827D01*
X46216827Y4673115D01*
X46282600Y4574680D01*
X46327904Y4465304D01*
X46351000Y4349195D01*
X46351000Y4230805D01*
X46327904Y4114696D01*
X46282600Y4005320D01*
X46216827Y3906885D01*
X46133115Y3823173D01*
X46034680Y3757400D01*
X45957340Y3725365D01*
X45925305Y3712096D01*
X45886601Y3704397D01*
X45809195Y3689000D01*
X45690805Y3689000D01*
X45613399Y3704397D01*
X45574695Y3712096D01*
X45542660Y3725365D01*
X45465320Y3757400D01*
X45366885Y3823173D01*
X45283173Y3906885D01*
X45217400Y4005320D01*
X45172096Y4114696D01*
X45149000Y4230805D01*
X45149000Y4349195D01*
X45172096Y4465304D01*
X45217400Y4574680D01*
X45283173Y4673115D01*
X45366885Y4756827D01*
X45465320Y4822600D01*
X45542660Y4854635D01*
X45574695Y4867904D01*
X45613399Y4875603D01*
X45690805Y4891000D01*
X45809195Y4891000D01*
X45886601Y4875603D01*
G37*
G36*
X83886601Y4875603D02*
G01*
X83925305Y4867904D01*
X83957340Y4854635D01*
X84034680Y4822600D01*
X84133115Y4756827D01*
X84216827Y4673115D01*
X84282600Y4574680D01*
X84327904Y4465304D01*
X84351000Y4349195D01*
X84351000Y4230805D01*
X84327904Y4114696D01*
X84282600Y4005320D01*
X84216827Y3906885D01*
X84133115Y3823173D01*
X84034680Y3757400D01*
X83957340Y3725365D01*
X83925305Y3712096D01*
X83886601Y3704397D01*
X83809195Y3689000D01*
X83690805Y3689000D01*
X83613399Y3704397D01*
X83574695Y3712096D01*
X83542660Y3725365D01*
X83465320Y3757400D01*
X83366885Y3823173D01*
X83283173Y3906885D01*
X83217400Y4005320D01*
X83172096Y4114696D01*
X83149000Y4230805D01*
X83149000Y4349195D01*
X83172096Y4465304D01*
X83217400Y4574680D01*
X83283173Y4673115D01*
X83366885Y4756827D01*
X83465320Y4822600D01*
X83542660Y4854635D01*
X83574695Y4867904D01*
X83613399Y4875603D01*
X83690805Y4891000D01*
X83809195Y4891000D01*
X83886601Y4875603D01*
G37*
G36*
X65886601Y4875603D02*
G01*
X65925305Y4867904D01*
X65957340Y4854635D01*
X66034680Y4822600D01*
X66133115Y4756827D01*
X66216827Y4673115D01*
X66282600Y4574680D01*
X66327904Y4465304D01*
X66351000Y4349195D01*
X66351000Y4230805D01*
X66327904Y4114696D01*
X66282600Y4005320D01*
X66216827Y3906885D01*
X66133115Y3823173D01*
X66034680Y3757400D01*
X65957340Y3725365D01*
X65925305Y3712096D01*
X65886601Y3704397D01*
X65809195Y3689000D01*
X65690805Y3689000D01*
X65613399Y3704397D01*
X65574695Y3712096D01*
X65542660Y3725365D01*
X65465320Y3757400D01*
X65366885Y3823173D01*
X65283173Y3906885D01*
X65217400Y4005320D01*
X65172096Y4114696D01*
X65149000Y4230805D01*
X65149000Y4349195D01*
X65172096Y4465304D01*
X65217400Y4574680D01*
X65283173Y4673115D01*
X65366885Y4756827D01*
X65465320Y4822600D01*
X65542660Y4854635D01*
X65574695Y4867904D01*
X65613399Y4875603D01*
X65690805Y4891000D01*
X65809195Y4891000D01*
X65886601Y4875603D01*
G37*
G36*
X39886601Y4875603D02*
G01*
X39925305Y4867904D01*
X39957340Y4854635D01*
X40034680Y4822600D01*
X40133115Y4756827D01*
X40216827Y4673115D01*
X40282600Y4574680D01*
X40327904Y4465304D01*
X40351000Y4349195D01*
X40351000Y4230805D01*
X40327904Y4114696D01*
X40282600Y4005320D01*
X40216827Y3906885D01*
X40133115Y3823173D01*
X40034680Y3757400D01*
X39957340Y3725365D01*
X39925305Y3712096D01*
X39886601Y3704397D01*
X39809195Y3689000D01*
X39690805Y3689000D01*
X39613399Y3704397D01*
X39574695Y3712096D01*
X39542660Y3725365D01*
X39465320Y3757400D01*
X39366885Y3823173D01*
X39283173Y3906885D01*
X39217400Y4005320D01*
X39172096Y4114696D01*
X39149000Y4230805D01*
X39149000Y4349195D01*
X39172096Y4465304D01*
X39217400Y4574680D01*
X39283173Y4673115D01*
X39366885Y4756827D01*
X39465320Y4822600D01*
X39542660Y4854635D01*
X39574695Y4867904D01*
X39613399Y4875603D01*
X39690805Y4891000D01*
X39809195Y4891000D01*
X39886601Y4875603D01*
G37*
G36*
X37886601Y4875603D02*
G01*
X37925305Y4867904D01*
X37957340Y4854635D01*
X38034680Y4822600D01*
X38133115Y4756827D01*
X38216827Y4673115D01*
X38282600Y4574680D01*
X38327904Y4465304D01*
X38351000Y4349195D01*
X38351000Y4230805D01*
X38327904Y4114696D01*
X38282600Y4005320D01*
X38216827Y3906885D01*
X38133115Y3823173D01*
X38034680Y3757400D01*
X37957340Y3725365D01*
X37925305Y3712096D01*
X37886601Y3704397D01*
X37809195Y3689000D01*
X37690805Y3689000D01*
X37613399Y3704397D01*
X37574695Y3712096D01*
X37542660Y3725365D01*
X37465320Y3757400D01*
X37366885Y3823173D01*
X37283173Y3906885D01*
X37217400Y4005320D01*
X37172096Y4114696D01*
X37149000Y4230805D01*
X37149000Y4349195D01*
X37172096Y4465304D01*
X37217400Y4574680D01*
X37283173Y4673115D01*
X37366885Y4756827D01*
X37465320Y4822600D01*
X37542660Y4854635D01*
X37574695Y4867904D01*
X37613399Y4875603D01*
X37690805Y4891000D01*
X37809195Y4891000D01*
X37886601Y4875603D01*
G37*
G36*
X35886601Y4875603D02*
G01*
X35925305Y4867904D01*
X35957340Y4854635D01*
X36034680Y4822600D01*
X36133115Y4756827D01*
X36216827Y4673115D01*
X36282600Y4574680D01*
X36327904Y4465304D01*
X36351000Y4349195D01*
X36351000Y4230805D01*
X36327904Y4114696D01*
X36282600Y4005320D01*
X36216827Y3906885D01*
X36133115Y3823173D01*
X36034680Y3757400D01*
X35957340Y3725365D01*
X35925305Y3712096D01*
X35886601Y3704397D01*
X35809195Y3689000D01*
X35690805Y3689000D01*
X35613399Y3704397D01*
X35574695Y3712096D01*
X35542660Y3725365D01*
X35465320Y3757400D01*
X35366885Y3823173D01*
X35283173Y3906885D01*
X35217400Y4005320D01*
X35172096Y4114696D01*
X35149000Y4230805D01*
X35149000Y4349195D01*
X35172096Y4465304D01*
X35217400Y4574680D01*
X35283173Y4673115D01*
X35366885Y4756827D01*
X35465320Y4822600D01*
X35542660Y4854635D01*
X35574695Y4867904D01*
X35613399Y4875603D01*
X35690805Y4891000D01*
X35809195Y4891000D01*
X35886601Y4875603D01*
G37*
G36*
X33886601Y4875603D02*
G01*
X33925305Y4867904D01*
X33957340Y4854635D01*
X34034680Y4822600D01*
X34133115Y4756827D01*
X34216827Y4673115D01*
X34282600Y4574680D01*
X34327904Y4465304D01*
X34351000Y4349195D01*
X34351000Y4230805D01*
X34327904Y4114696D01*
X34282600Y4005320D01*
X34216827Y3906885D01*
X34133115Y3823173D01*
X34034680Y3757400D01*
X33957340Y3725365D01*
X33925305Y3712096D01*
X33886601Y3704397D01*
X33809195Y3689000D01*
X33690805Y3689000D01*
X33613399Y3704397D01*
X33574695Y3712096D01*
X33542660Y3725365D01*
X33465320Y3757400D01*
X33366885Y3823173D01*
X33283173Y3906885D01*
X33217400Y4005320D01*
X33172096Y4114696D01*
X33149000Y4230805D01*
X33149000Y4349195D01*
X33172096Y4465304D01*
X33217400Y4574680D01*
X33283173Y4673115D01*
X33366885Y4756827D01*
X33465320Y4822600D01*
X33542660Y4854635D01*
X33574695Y4867904D01*
X33613399Y4875603D01*
X33690805Y4891000D01*
X33809195Y4891000D01*
X33886601Y4875603D01*
G37*
G36*
X31886601Y4875603D02*
G01*
X31925305Y4867904D01*
X31957340Y4854635D01*
X32034680Y4822600D01*
X32133115Y4756827D01*
X32216827Y4673115D01*
X32282600Y4574680D01*
X32327904Y4465304D01*
X32351000Y4349195D01*
X32351000Y4230805D01*
X32327904Y4114696D01*
X32282600Y4005320D01*
X32216827Y3906885D01*
X32133115Y3823173D01*
X32034680Y3757400D01*
X31957340Y3725365D01*
X31925305Y3712096D01*
X31886601Y3704397D01*
X31809195Y3689000D01*
X31690805Y3689000D01*
X31613399Y3704397D01*
X31574695Y3712096D01*
X31542660Y3725365D01*
X31465320Y3757400D01*
X31366885Y3823173D01*
X31283173Y3906885D01*
X31217400Y4005320D01*
X31172096Y4114696D01*
X31149000Y4230805D01*
X31149000Y4349195D01*
X31172096Y4465304D01*
X31217400Y4574680D01*
X31283173Y4673115D01*
X31366885Y4756827D01*
X31465320Y4822600D01*
X31542660Y4854635D01*
X31574695Y4867904D01*
X31613399Y4875603D01*
X31690805Y4891000D01*
X31809195Y4891000D01*
X31886601Y4875603D01*
G37*
G36*
X29886601Y4875603D02*
G01*
X29925305Y4867904D01*
X29957340Y4854635D01*
X30034680Y4822600D01*
X30133115Y4756827D01*
X30216827Y4673115D01*
X30282600Y4574680D01*
X30327904Y4465304D01*
X30351000Y4349195D01*
X30351000Y4230805D01*
X30327904Y4114696D01*
X30282600Y4005320D01*
X30216827Y3906885D01*
X30133115Y3823173D01*
X30034680Y3757400D01*
X29957340Y3725365D01*
X29925305Y3712096D01*
X29886601Y3704397D01*
X29809195Y3689000D01*
X29690805Y3689000D01*
X29613399Y3704397D01*
X29574695Y3712096D01*
X29542660Y3725365D01*
X29465320Y3757400D01*
X29366885Y3823173D01*
X29283173Y3906885D01*
X29217400Y4005320D01*
X29172096Y4114696D01*
X29149000Y4230805D01*
X29149000Y4349195D01*
X29172096Y4465304D01*
X29217400Y4574680D01*
X29283173Y4673115D01*
X29366885Y4756827D01*
X29465320Y4822600D01*
X29542660Y4854635D01*
X29574695Y4867904D01*
X29613399Y4875603D01*
X29690805Y4891000D01*
X29809195Y4891000D01*
X29886601Y4875603D01*
G37*
G36*
X27886601Y4875603D02*
G01*
X27925305Y4867904D01*
X27957340Y4854635D01*
X28034680Y4822600D01*
X28133115Y4756827D01*
X28216827Y4673115D01*
X28282600Y4574680D01*
X28327904Y4465304D01*
X28351000Y4349195D01*
X28351000Y4230805D01*
X28327904Y4114696D01*
X28282600Y4005320D01*
X28216827Y3906885D01*
X28133115Y3823173D01*
X28034680Y3757400D01*
X27957340Y3725365D01*
X27925305Y3712096D01*
X27886601Y3704397D01*
X27809195Y3689000D01*
X27690805Y3689000D01*
X27613399Y3704397D01*
X27574695Y3712096D01*
X27542660Y3725365D01*
X27465320Y3757400D01*
X27366885Y3823173D01*
X27283173Y3906885D01*
X27217400Y4005320D01*
X27172096Y4114696D01*
X27149000Y4230805D01*
X27149000Y4349195D01*
X27172096Y4465304D01*
X27217400Y4574680D01*
X27283173Y4673115D01*
X27366885Y4756827D01*
X27465320Y4822600D01*
X27542660Y4854635D01*
X27574695Y4867904D01*
X27613399Y4875603D01*
X27690805Y4891000D01*
X27809195Y4891000D01*
X27886601Y4875603D01*
G37*
G36*
X25886601Y4875603D02*
G01*
X25925305Y4867904D01*
X25957340Y4854635D01*
X26034680Y4822600D01*
X26133115Y4756827D01*
X26216827Y4673115D01*
X26282600Y4574680D01*
X26327904Y4465304D01*
X26351000Y4349195D01*
X26351000Y4230805D01*
X26327904Y4114696D01*
X26282600Y4005320D01*
X26216827Y3906885D01*
X26133115Y3823173D01*
X26034680Y3757400D01*
X25957340Y3725365D01*
X25925305Y3712096D01*
X25886601Y3704397D01*
X25809195Y3689000D01*
X25690805Y3689000D01*
X25613399Y3704397D01*
X25574695Y3712096D01*
X25542660Y3725365D01*
X25465320Y3757400D01*
X25366885Y3823173D01*
X25283173Y3906885D01*
X25217400Y4005320D01*
X25172096Y4114696D01*
X25149000Y4230805D01*
X25149000Y4349195D01*
X25172096Y4465304D01*
X25217400Y4574680D01*
X25283173Y4673115D01*
X25366885Y4756827D01*
X25465320Y4822600D01*
X25542660Y4854635D01*
X25574695Y4867904D01*
X25613399Y4875603D01*
X25690805Y4891000D01*
X25809195Y4891000D01*
X25886601Y4875603D01*
G37*
M02*
