G04 #@! TF.GenerationSoftware,KiCad,Pcbnew,(5.1.5)-3*
G04 #@! TF.CreationDate,2021-02-17T14:45:42+01:00*
G04 #@! TF.ProjectId,riser leopard 1OU,72697365-7220-46c6-956f-706172642031,rev?*
G04 #@! TF.SameCoordinates,PX4a62f80PY5f5e100*
G04 #@! TF.FileFunction,Profile,NP*
%FSLAX46Y46*%
G04 Gerber Fmt 4.6, Leading zero omitted, Abs format (unit mm)*
G04 Created by KiCad (PCBNEW (5.1.5)-3) date 2021-02-17 14:45:42*
%MOMM*%
%LPD*%
G04 APERTURE LIST*
%ADD10C,0.200000*%
G04 APERTURE END LIST*
D10*
X119300000Y-6510000D02*
G75*
G02X120250000Y-5560000I950000J0D01*
G01*
X120250000Y-5560000D02*
X129350000Y-5560000D01*
X130300000Y-4610000D02*
G75*
G02X129350000Y-5560000I-950000J0D01*
G01*
X130300000Y-4610000D02*
X130300000Y4340000D01*
X130300000Y4340000D02*
X129300000Y5340000D01*
X129300000Y5340000D02*
X-14050000Y5340000D01*
X-14050000Y5340000D02*
X-15050000Y4340000D01*
X-15050000Y4340000D02*
X-15050000Y-14560000D01*
X-15050000Y-14560000D02*
X-14050000Y-15560000D01*
X-14050000Y-15560000D02*
X1050000Y-15560000D01*
X1050000Y-15560000D02*
G75*
G02X2000000Y-16510000I0J-950000D01*
G01*
X2000000Y-16510000D02*
X2000000Y-26460000D01*
X2000000Y-26460000D02*
X2500000Y-26960000D01*
X2500000Y-26960000D02*
X12700000Y-26960000D01*
X12700000Y-26960000D02*
X13200000Y-26460000D01*
X13200000Y-26460000D02*
X13200000Y-19510000D01*
X13200000Y-19510000D02*
G75*
G02X15100000Y-19510000I950000J0D01*
G01*
X15100000Y-19510000D02*
X15100000Y-26460000D01*
X15100000Y-26460000D02*
X15600000Y-26960000D01*
X15600000Y-26960000D02*
X118800000Y-26960000D01*
X118800000Y-26960000D02*
X119300000Y-26460000D01*
X119300000Y-26460000D02*
X119300000Y-6510000D01*
M02*
