M48
; DRILL file {KiCad (5.1.6)-1} date 10/01/21 17:53:38
; FORMAT={-:-/ absolute / metric / decimal}
; #@! TF.CreationDate,2021-10-01T17:53:38+02:00
; #@! TF.GenerationSoftware,Kicad,Pcbnew,(5.1.6)-1
; #@! TF.FileFunction,Plated,1,4,PTH
FMAT,2
METRIC
T1C0.400
T2C0.600
T3C0.750
T4C1.000
T5C1.070
T6C1.090
T7C3.200
%
G90
G05
T1
X-6.75Y72.25
X-6.75Y70.25
X-6.75Y68.25
X-6.75Y66.25
X-6.75Y64.25
X-6.75Y62.25
X-6.75Y60.25
X-6.75Y58.25
X-5.0Y131.2
X-5.0Y129.2
X-5.0Y127.2
X-5.0Y125.2
X-4.75Y72.25
X-4.75Y70.25
X-4.75Y68.25
X-4.75Y66.25
X-4.75Y64.25
X-4.75Y62.25
X-4.75Y60.25
X-4.75Y58.25
X-3.4Y33.55
X-3.4Y31.55
X-3.4Y29.55
X-3.4Y27.55
X-3.4Y25.55
X-3.4Y23.55
X-3.4Y21.55
X-3.4Y19.55
X-3.0Y131.2
X-3.0Y129.2
X-3.0Y127.2
X-3.0Y125.2
X-2.75Y72.25
X-2.75Y70.25
X-2.75Y68.25
X-2.75Y66.25
X-2.75Y64.25
X-2.75Y62.25
X-2.75Y60.25
X-2.75Y58.25
X-1.4Y33.55
X-1.4Y31.55
X-1.4Y29.55
X-1.4Y27.55
X-1.4Y25.55
X-1.4Y23.55
X-1.4Y21.55
X-1.4Y19.55
X-1.0Y131.2
X-1.0Y129.2
X-1.0Y127.2
X-1.0Y125.2
X-0.75Y72.25
X-0.75Y70.25
X-0.75Y68.25
X-0.75Y66.25
X-0.75Y64.25
X-0.75Y62.25
X-0.75Y60.25
X-0.75Y58.25
X0.6Y33.55
X0.6Y31.55
X0.6Y29.55
X0.6Y27.55
X0.6Y25.55
X0.6Y23.55
X0.6Y21.55
X0.6Y19.55
X1.0Y131.2
X1.0Y129.2
X1.0Y127.2
X1.0Y125.2
X2.6Y33.55
X2.6Y31.55
X2.6Y29.55
X2.6Y27.55
X2.6Y25.55
X2.6Y23.55
X2.6Y21.55
X2.6Y19.55
X3.0Y131.2
X3.0Y129.2
X3.0Y127.2
X3.0Y125.2
X5.0Y131.2
X5.0Y129.2
X5.0Y127.2
X5.0Y125.2
X7.0Y131.2
X7.0Y129.2
X7.0Y127.2
X7.0Y125.2
X8.15Y60.75
X9.0Y131.2
X9.0Y129.2
X9.0Y127.2
X9.0Y125.2
X9.7Y60.85
X11.675Y60.8
X17.6Y5.65
X17.6Y3.65
X17.6Y1.65
X17.6Y-0.35
X17.6Y-2.35
X17.6Y-4.35
X18.8Y62.3
X19.6Y5.65
X19.6Y3.65
X19.6Y1.65
X19.6Y-0.35
X19.6Y-2.35
X19.6Y-4.35
X21.6Y5.65
X21.6Y3.65
X21.6Y1.65
X21.6Y-0.35
X21.6Y-2.35
X21.6Y-4.35
X21.65Y65.2
X23.6Y5.65
X23.6Y3.65
X23.6Y1.65
X23.6Y-0.35
X23.6Y-2.35
X23.6Y-4.35
X25.525Y127.15
X25.675Y78.625
X25.675Y29.6
X26.1Y73.5
X75.15Y15.0
X107.0Y4.9
X107.0Y2.9
X107.0Y0.9
X107.0Y-1.1
X107.0Y-3.1
X107.0Y-5.1
X109.0Y4.9
X109.0Y2.9
X109.0Y0.9
X109.0Y-1.1
X109.0Y-3.1
X109.0Y-5.1
X111.0Y4.9
X111.0Y2.9
X111.0Y0.9
X111.0Y-1.1
X111.0Y-3.1
X111.0Y-5.1
X113.0Y4.9
X113.0Y2.9
X113.0Y0.9
X113.0Y-1.1
X113.0Y-3.1
X113.0Y-5.1
X119.05Y130.8
X119.05Y128.8
X119.05Y126.8
X119.05Y124.8
X119.05Y82.8
X119.05Y80.8
X119.05Y78.8
X119.05Y76.8
X119.05Y34.8
X119.05Y32.8
X119.05Y30.8
X119.05Y28.8
X121.05Y130.8
X121.05Y128.8
X121.05Y126.8
X121.05Y124.8
X121.05Y82.8
X121.05Y80.8
X121.05Y78.8
X121.05Y76.8
X121.05Y34.8
X121.05Y32.8
X121.05Y30.8
X121.05Y28.8
X123.05Y130.8
X123.05Y128.8
X123.05Y126.8
X123.05Y124.8
X123.05Y82.8
X123.05Y80.8
X123.05Y78.8
X123.05Y76.8
X123.05Y34.8
X123.05Y32.8
X123.05Y30.8
X123.05Y28.8
X125.05Y130.8
X125.05Y128.8
X125.05Y126.8
X125.05Y124.8
X125.05Y82.8
X125.05Y80.8
X125.05Y78.8
X125.05Y76.8
X125.05Y34.8
X125.05Y32.8
X125.05Y30.8
X125.05Y28.8
X127.05Y130.8
X127.05Y128.8
X127.05Y126.8
X127.05Y124.8
X127.05Y82.8
X127.05Y80.8
X127.05Y78.8
X127.05Y76.8
X127.05Y34.8
X127.05Y32.8
X127.05Y30.8
X127.05Y28.8
X129.05Y130.8
X129.05Y128.8
X129.05Y126.8
X129.05Y124.8
X129.05Y82.8
X129.05Y80.8
X129.05Y78.8
X129.05Y76.8
X129.05Y34.8
X129.05Y32.8
X129.05Y30.8
X129.05Y28.8
X131.05Y130.8
X131.05Y128.8
X131.05Y126.8
X131.05Y124.8
X131.05Y82.8
X131.05Y80.8
X131.05Y78.8
X131.05Y76.8
X131.05Y34.8
X131.05Y32.8
X131.05Y30.8
X131.05Y28.8
X133.05Y130.8
X133.05Y128.8
X133.05Y126.8
X133.05Y124.8
X133.05Y82.8
X133.05Y80.8
X133.05Y78.8
X133.05Y76.8
X133.05Y34.8
X133.05Y32.8
X133.05Y30.8
X133.05Y28.8
T2
X39.85Y15.6
X44.65Y112.3
X75.1Y63.0
X75.1Y59.6
X75.15Y12.75
X75.2Y77.3
X75.2Y29.0
X75.25Y126.0
X75.5Y110.5
X75.5Y107.5
T3
X83.855Y2.935
X83.855Y1.285
X83.855Y-0.365
X83.855Y-2.015
X83.855Y-3.665
X85.855Y2.935
X85.855Y1.285
X85.855Y-0.365
X85.855Y-2.015
X85.855Y-3.665
X87.855Y2.935
X87.855Y1.285
X87.855Y-0.365
X87.855Y-2.015
X87.855Y-3.665
X89.855Y2.935
X89.855Y1.285
X89.855Y-0.365
X89.855Y-2.015
X89.855Y-3.665
X91.855Y2.935
X91.855Y1.285
X91.855Y-0.365
X91.855Y-2.015
X91.855Y-3.665
X93.855Y2.935
X93.855Y1.285
X93.855Y-0.365
X93.855Y-2.015
X93.855Y-3.665
T4
X-5.26Y78.89
X-5.26Y76.35
X-2.72Y78.89
X-2.72Y76.35
X-0.18Y78.89
X-0.18Y76.35
X2.36Y78.89
X2.36Y76.35
X4.9Y78.89
X4.9Y76.35
T5
X35.665Y5.625
X35.665Y3.125
X35.665Y0.625
X35.665Y-1.875
X35.665Y-4.375
X38.665Y5.625
X38.665Y3.125
X38.665Y0.625
X38.665Y-1.875
X38.665Y-4.375
X41.445Y5.625
X41.445Y3.125
X41.445Y0.625
X41.445Y-1.875
X41.445Y-4.375
X44.445Y5.625
X44.445Y3.125
X44.445Y0.625
X44.445Y-1.875
X44.445Y-4.375
X47.225Y5.625
X47.225Y3.125
X47.225Y0.625
X47.225Y-1.875
X47.225Y-4.375
X50.225Y5.625
X50.225Y3.125
X50.225Y0.625
X50.225Y-1.875
X50.225Y-4.375
X53.005Y5.625
X53.005Y3.125
X53.005Y0.625
X53.005Y-1.875
X53.005Y-4.375
X56.005Y5.625
X56.005Y3.125
X56.005Y0.625
X56.005Y-1.875
X56.005Y-4.375
X58.785Y5.625
X58.785Y3.125
X58.785Y0.625
X58.785Y-1.875
X58.785Y-4.375
X61.785Y5.625
X61.785Y3.125
X61.785Y0.625
X61.785Y-1.875
X61.785Y-4.375
X64.565Y5.625
X64.565Y3.125
X64.565Y0.625
X64.565Y-1.875
X64.565Y-4.375
X67.565Y5.625
X67.565Y3.125
X67.565Y0.625
X67.565Y-1.875
X67.565Y-4.375
X70.345Y5.625
X70.345Y3.125
X70.345Y0.625
X70.345Y-1.875
X70.345Y-4.375
X73.345Y5.625
X73.345Y3.125
X73.345Y0.625
X73.345Y-1.875
X73.345Y-4.375
X76.125Y5.625
X76.125Y3.125
X76.125Y0.625
X76.125Y-1.875
X76.125Y-4.375
X79.125Y5.625
X79.125Y3.125
X79.125Y0.625
X79.125Y-1.875
X79.125Y-4.375
T6
X33.26Y25.12
X33.26Y22.58
X33.26Y20.04
X33.26Y17.5
X35.8Y25.12
X35.8Y22.58
X35.8Y20.04
X35.8Y17.5
X38.34Y25.12
X38.34Y22.58
X38.34Y20.04
X38.34Y17.5
X40.88Y25.12
X40.88Y22.58
X40.88Y20.04
X40.88Y17.5
X43.42Y25.12
X43.42Y22.58
X43.42Y20.04
X43.42Y17.5
X45.96Y25.12
X45.96Y22.58
X45.96Y20.04
X45.96Y17.5
X49.13Y25.12
X49.13Y22.58
X49.13Y20.04
X49.13Y17.5
X51.67Y25.12
X51.67Y22.58
X51.67Y20.04
X51.67Y17.5
X55.48Y25.12
X55.48Y22.58
X55.48Y20.04
X55.48Y17.5
X58.02Y25.12
X58.02Y22.58
X58.02Y20.04
X58.02Y17.5
X61.83Y25.12
X61.83Y22.58
X61.83Y20.04
X61.83Y17.5
X64.37Y25.12
X64.37Y22.58
X64.37Y20.04
X64.37Y17.5
X68.18Y25.12
X68.18Y22.58
X68.18Y20.04
X68.18Y17.5
X70.72Y25.12
X70.72Y22.58
X70.72Y20.04
X70.72Y17.5
X74.53Y25.12
X74.53Y22.58
X74.53Y20.04
X74.53Y17.5
X77.07Y25.12
X77.07Y22.58
X77.07Y20.04
X77.07Y17.5
X80.88Y25.12
X80.88Y22.58
X80.88Y20.04
X80.88Y17.5
X83.42Y25.12
X83.42Y22.58
X83.42Y20.04
X83.42Y17.5
X87.23Y25.12
X87.23Y22.58
X87.23Y20.04
X87.23Y17.5
X89.77Y25.12
X89.77Y22.58
X89.77Y20.04
X89.77Y17.5
X93.58Y25.12
X93.58Y22.58
X93.58Y20.04
X93.58Y17.5
X96.12Y25.12
X96.12Y22.58
X96.12Y20.04
X96.12Y17.5
X33.26Y122.32
X33.26Y119.78
X33.26Y117.24
X33.26Y114.7
X35.8Y122.32
X35.8Y119.78
X35.8Y117.24
X35.8Y114.7
X38.34Y122.32
X38.34Y119.78
X38.34Y117.24
X38.34Y114.7
X40.88Y122.32
X40.88Y119.78
X40.88Y117.24
X40.88Y114.7
X43.42Y122.32
X43.42Y119.78
X43.42Y117.24
X43.42Y114.7
X45.96Y122.32
X45.96Y119.78
X45.96Y117.24
X45.96Y114.7
X49.13Y122.32
X49.13Y119.78
X49.13Y117.24
X49.13Y114.7
X51.67Y122.32
X51.67Y119.78
X51.67Y117.24
X51.67Y114.7
X55.48Y122.32
X55.48Y119.78
X55.48Y117.24
X55.48Y114.7
X58.02Y122.32
X58.02Y119.78
X58.02Y117.24
X58.02Y114.7
X61.83Y122.32
X61.83Y119.78
X61.83Y117.24
X61.83Y114.7
X64.37Y122.32
X64.37Y119.78
X64.37Y117.24
X64.37Y114.7
X68.18Y122.32
X68.18Y119.78
X68.18Y117.24
X68.18Y114.7
X70.72Y122.32
X70.72Y119.78
X70.72Y117.24
X70.72Y114.7
X74.53Y122.32
X74.53Y119.78
X74.53Y117.24
X74.53Y114.7
X77.07Y122.32
X77.07Y119.78
X77.07Y117.24
X77.07Y114.7
X80.88Y122.32
X80.88Y119.78
X80.88Y117.24
X80.88Y114.7
X83.42Y122.32
X83.42Y119.78
X83.42Y117.24
X83.42Y114.7
X87.23Y122.32
X87.23Y119.78
X87.23Y117.24
X87.23Y114.7
X89.77Y122.32
X89.77Y119.78
X89.77Y117.24
X89.77Y114.7
X93.58Y122.32
X93.58Y119.78
X93.58Y117.24
X93.58Y114.7
X96.12Y122.32
X96.12Y119.78
X96.12Y117.24
X96.12Y114.7
X33.26Y73.72
X33.26Y71.18
X33.26Y68.64
X33.26Y66.1
X35.8Y73.72
X35.8Y71.18
X35.8Y68.64
X35.8Y66.1
X38.34Y73.72
X38.34Y71.18
X38.34Y68.64
X38.34Y66.1
X40.88Y73.72
X40.88Y71.18
X40.88Y68.64
X40.88Y66.1
X43.42Y73.72
X43.42Y71.18
X43.42Y68.64
X43.42Y66.1
X45.96Y73.72
X45.96Y71.18
X45.96Y68.64
X45.96Y66.1
X49.13Y73.72
X49.13Y71.18
X49.13Y68.64
X49.13Y66.1
X51.67Y73.72
X51.67Y71.18
X51.67Y68.64
X51.67Y66.1
X55.48Y73.72
X55.48Y71.18
X55.48Y68.64
X55.48Y66.1
X58.02Y73.72
X58.02Y71.18
X58.02Y68.64
X58.02Y66.1
X61.83Y73.72
X61.83Y71.18
X61.83Y68.64
X61.83Y66.1
X64.37Y73.72
X64.37Y71.18
X64.37Y68.64
X64.37Y66.1
X68.18Y73.72
X68.18Y71.18
X68.18Y68.64
X68.18Y66.1
X70.72Y73.72
X70.72Y71.18
X70.72Y68.64
X70.72Y66.1
X74.53Y73.72
X74.53Y71.18
X74.53Y68.64
X74.53Y66.1
X77.07Y73.72
X77.07Y71.18
X77.07Y68.64
X77.07Y66.1
X80.88Y73.72
X80.88Y71.18
X80.88Y68.64
X80.88Y66.1
X83.42Y73.72
X83.42Y71.18
X83.42Y68.64
X83.42Y66.1
X87.23Y73.72
X87.23Y71.18
X87.23Y68.64
X87.23Y66.1
X89.77Y73.72
X89.77Y71.18
X89.77Y68.64
X89.77Y66.1
X93.58Y73.72
X93.58Y71.18
X93.58Y68.64
X93.58Y66.1
X96.12Y73.72
X96.12Y71.18
X96.12Y68.64
X96.12Y66.1
T7
X119.0Y68.06
X11.0Y68.06
X130.0Y140.0
X0.0Y140.0
X11.0Y116.66
X119.0Y116.66
X11.0Y19.46
X119.0Y19.46
X130.0Y0.0
X0.0Y0.0
T0
M30
