G04 #@! TF.GenerationSoftware,KiCad,Pcbnew,(5.1.5)-3*
G04 #@! TF.CreationDate,2022-01-27T06:12:11+01:00*
G04 #@! TF.ProjectId,Riser Tioga Pass 1OU 1xPCIe x16,52697365-7220-4546-996f-676120506173,rev?*
G04 #@! TF.SameCoordinates,PX40f1fa0PY623a7c0*
G04 #@! TF.FileFunction,Soldermask,Top*
G04 #@! TF.FilePolarity,Negative*
%FSLAX46Y46*%
G04 Gerber Fmt 4.6, Leading zero omitted, Abs format (unit mm)*
G04 Created by KiCad (PCBNEW (5.1.5)-3) date 2022-01-27 06:12:11*
%MOMM*%
%LPD*%
G04 APERTURE LIST*
%ADD10C,0.100000*%
G04 APERTURE END LIST*
D10*
G36*
X26821000Y-26131000D02*
G01*
X1369000Y-26131000D01*
X1369000Y-23029000D01*
X26821000Y-23029000D01*
X26821000Y-26131000D01*
G37*
G36*
X84421000Y-26131000D02*
G01*
X30169000Y-26131000D01*
X30169000Y-23029000D01*
X84421000Y-23029000D01*
X84421000Y-26131000D01*
G37*
G36*
X118621000Y-26131000D02*
G01*
X94769000Y-26131000D01*
X94769000Y-23029000D01*
X118621000Y-23029000D01*
X118621000Y-26131000D01*
G37*
G36*
X10441000Y-20451000D02*
G01*
X9909000Y-20451000D01*
X9909000Y-19549000D01*
X10441000Y-19549000D01*
X10441000Y-20451000D01*
G37*
G36*
X83001000Y-20316000D02*
G01*
X82099000Y-20316000D01*
X82099000Y-19784000D01*
X83001000Y-19784000D01*
X83001000Y-20316000D01*
G37*
G36*
X16541000Y-18326000D02*
G01*
X16009000Y-18326000D01*
X16009000Y-17424000D01*
X16541000Y-17424000D01*
X16541000Y-18326000D01*
G37*
G36*
X13351000Y-18316000D02*
G01*
X12449000Y-18316000D01*
X12449000Y-17784000D01*
X13351000Y-17784000D01*
X13351000Y-18316000D01*
G37*
G36*
X20201000Y-18001000D02*
G01*
X19499000Y-18001000D01*
X19499000Y-17399000D01*
X20201000Y-17399000D01*
X20201000Y-18001000D01*
G37*
G36*
X19101000Y-18001000D02*
G01*
X18399000Y-18001000D01*
X18399000Y-17399000D01*
X19101000Y-17399000D01*
X19101000Y-18001000D01*
G37*
G36*
X17926000Y-17326000D02*
G01*
X16874000Y-17326000D01*
X16874000Y-15974000D01*
X17926000Y-15974000D01*
X17926000Y-17326000D01*
G37*
G36*
X15001000Y-17051000D02*
G01*
X13999000Y-17051000D01*
X13999000Y-16149000D01*
X15001000Y-16149000D01*
X15001000Y-17051000D01*
G37*
G36*
X13001000Y-16101000D02*
G01*
X11999000Y-16101000D01*
X11999000Y-15199000D01*
X13001000Y-15199000D01*
X13001000Y-16101000D01*
G37*
G36*
X19401000Y-16016000D02*
G01*
X18499000Y-16016000D01*
X18499000Y-15484000D01*
X19401000Y-15484000D01*
X19401000Y-16016000D01*
G37*
G36*
X16801000Y-15241000D02*
G01*
X15899000Y-15241000D01*
X15899000Y-14709000D01*
X16801000Y-14709000D01*
X16801000Y-15241000D01*
G37*
G36*
X15001000Y-15151000D02*
G01*
X13999000Y-15151000D01*
X13999000Y-14249000D01*
X15001000Y-14249000D01*
X15001000Y-15151000D01*
G37*
G36*
X19476000Y-14466000D02*
G01*
X18574000Y-14466000D01*
X18574000Y-13934000D01*
X19476000Y-13934000D01*
X19476000Y-14466000D01*
G37*
G36*
X9791000Y-14226000D02*
G01*
X9259000Y-14226000D01*
X9259000Y-13324000D01*
X9791000Y-13324000D01*
X9791000Y-14226000D01*
G37*
G36*
X-14399000Y-14051000D02*
G01*
X-15951000Y-14051000D01*
X-15951000Y-9599000D01*
X-14399000Y-9599000D01*
X-14399000Y-14051000D01*
G37*
G36*
X-8499000Y-14051000D02*
G01*
X-10051000Y-14051000D01*
X-10051000Y-9599000D01*
X-8499000Y-9599000D01*
X-8499000Y-14051000D01*
G37*
G36*
X-16659000Y-13836000D02*
G01*
X-17191000Y-13836000D01*
X-17191000Y-12934000D01*
X-16659000Y-12934000D01*
X-16659000Y-13836000D01*
G37*
G36*
X16791000Y-13626000D02*
G01*
X16259000Y-13626000D01*
X16259000Y-12724000D01*
X16791000Y-12724000D01*
X16791000Y-13626000D01*
G37*
G36*
X-2809000Y-13526000D02*
G01*
X-3341000Y-13526000D01*
X-3341000Y-12624000D01*
X-2809000Y-12624000D01*
X-2809000Y-13526000D01*
G37*
G36*
X-3884000Y-13526000D02*
G01*
X-4416000Y-13526000D01*
X-4416000Y-12624000D01*
X-3884000Y-12624000D01*
X-3884000Y-13526000D01*
G37*
G36*
X19476000Y-13366000D02*
G01*
X18574000Y-13366000D01*
X18574000Y-12834000D01*
X19476000Y-12834000D01*
X19476000Y-13366000D01*
G37*
G36*
X6076000Y-13341000D02*
G01*
X5174000Y-13341000D01*
X5174000Y-12809000D01*
X6076000Y-12809000D01*
X6076000Y-13341000D01*
G37*
G36*
X12251000Y-12701000D02*
G01*
X11499000Y-12701000D01*
X11499000Y-10899000D01*
X12251000Y-10899000D01*
X12251000Y-12701000D01*
G37*
G36*
X14151000Y-12701000D02*
G01*
X13399000Y-12701000D01*
X13399000Y-10899000D01*
X14151000Y-10899000D01*
X14151000Y-12701000D01*
G37*
G36*
X93545843Y-11519214D02*
G01*
X93636837Y-11556905D01*
X93636839Y-11556906D01*
X93678063Y-11584451D01*
X93718730Y-11611624D01*
X93788376Y-11681270D01*
X93843095Y-11763163D01*
X93880786Y-11854157D01*
X93900000Y-11950753D01*
X93900000Y-12049247D01*
X93880786Y-12145843D01*
X93843095Y-12236837D01*
X93843094Y-12236839D01*
X93788375Y-12318731D01*
X93718731Y-12388375D01*
X93636839Y-12443094D01*
X93636838Y-12443095D01*
X93636837Y-12443095D01*
X93545843Y-12480786D01*
X93449247Y-12500000D01*
X93350753Y-12500000D01*
X93254157Y-12480786D01*
X93163163Y-12443095D01*
X93163162Y-12443095D01*
X93163161Y-12443094D01*
X93081269Y-12388375D01*
X93011625Y-12318731D01*
X92956906Y-12236839D01*
X92956905Y-12236837D01*
X92919214Y-12145843D01*
X92900000Y-12049247D01*
X92900000Y-11950753D01*
X92919214Y-11854157D01*
X92956905Y-11763163D01*
X93011624Y-11681270D01*
X93081270Y-11611624D01*
X93121937Y-11584451D01*
X93163161Y-11556906D01*
X93163163Y-11556905D01*
X93254157Y-11519214D01*
X93350753Y-11500000D01*
X93449247Y-11500000D01*
X93545843Y-11519214D01*
G37*
G36*
X-2809000Y-12001000D02*
G01*
X-3341000Y-12001000D01*
X-3341000Y-11099000D01*
X-2809000Y-11099000D01*
X-2809000Y-12001000D01*
G37*
G36*
X-3884000Y-12001000D02*
G01*
X-4416000Y-12001000D01*
X-4416000Y-11099000D01*
X-3884000Y-11099000D01*
X-3884000Y-12001000D01*
G37*
G36*
X6151000Y-11941000D02*
G01*
X5249000Y-11941000D01*
X5249000Y-11409000D01*
X6151000Y-11409000D01*
X6151000Y-11941000D01*
G37*
G36*
X1741000Y-11901000D02*
G01*
X1209000Y-11901000D01*
X1209000Y-10999000D01*
X1741000Y-10999000D01*
X1741000Y-11901000D01*
G37*
G36*
X9551000Y-11851000D02*
G01*
X8949000Y-11851000D01*
X8949000Y-11149000D01*
X9551000Y-11149000D01*
X9551000Y-11851000D01*
G37*
G36*
X9551000Y-10751000D02*
G01*
X8949000Y-10751000D01*
X8949000Y-10049000D01*
X9551000Y-10049000D01*
X9551000Y-10751000D01*
G37*
G36*
X6397691Y-9092783D02*
G01*
X6427447Y-9105108D01*
X6454042Y-9122879D01*
X6454225Y-9123001D01*
X6461618Y-9130394D01*
X6480554Y-9145934D01*
X6502165Y-9157485D01*
X6525614Y-9164598D01*
X6550000Y-9167000D01*
X6574386Y-9164598D01*
X6597835Y-9157485D01*
X6619446Y-9145934D01*
X6638382Y-9130394D01*
X6645775Y-9123001D01*
X6645958Y-9122879D01*
X6672553Y-9105108D01*
X6702309Y-9092783D01*
X6733897Y-9086500D01*
X6766103Y-9086500D01*
X6797691Y-9092783D01*
X6827447Y-9105108D01*
X6854042Y-9122879D01*
X6854225Y-9123001D01*
X6861618Y-9130394D01*
X6880554Y-9145934D01*
X6902165Y-9157485D01*
X6925614Y-9164598D01*
X6950000Y-9167000D01*
X6974386Y-9164598D01*
X6997835Y-9157485D01*
X7019446Y-9145934D01*
X7038382Y-9130394D01*
X7045775Y-9123001D01*
X7045958Y-9122879D01*
X7072553Y-9105108D01*
X7102309Y-9092783D01*
X7133897Y-9086500D01*
X7166103Y-9086500D01*
X7197691Y-9092783D01*
X7227447Y-9105108D01*
X7254042Y-9122879D01*
X7254225Y-9123001D01*
X7276999Y-9145775D01*
X7277001Y-9145778D01*
X7294892Y-9172553D01*
X7307217Y-9202309D01*
X7313500Y-9233897D01*
X7313500Y-9266103D01*
X7307217Y-9297691D01*
X7294892Y-9327447D01*
X7277121Y-9354042D01*
X7276999Y-9354225D01*
X7269606Y-9361618D01*
X7254066Y-9380554D01*
X7242515Y-9402165D01*
X7235402Y-9425614D01*
X7233000Y-9450000D01*
X7235402Y-9474386D01*
X7242515Y-9497835D01*
X7254066Y-9519446D01*
X7269606Y-9538382D01*
X7276999Y-9545775D01*
X7277001Y-9545778D01*
X7294892Y-9572553D01*
X7307217Y-9602309D01*
X7313500Y-9633897D01*
X7313500Y-9666103D01*
X7307217Y-9697691D01*
X7294892Y-9727447D01*
X7277121Y-9754042D01*
X7276999Y-9754225D01*
X7269606Y-9761618D01*
X7254066Y-9780554D01*
X7242515Y-9802165D01*
X7235402Y-9825614D01*
X7233000Y-9850000D01*
X7235402Y-9874386D01*
X7242515Y-9897835D01*
X7254066Y-9919446D01*
X7269606Y-9938382D01*
X7276999Y-9945775D01*
X7277001Y-9945778D01*
X7294892Y-9972553D01*
X7307217Y-10002309D01*
X7313500Y-10033897D01*
X7313500Y-10066103D01*
X7307217Y-10097691D01*
X7294892Y-10127447D01*
X7285836Y-10141000D01*
X7276999Y-10154225D01*
X7269606Y-10161618D01*
X7254066Y-10180554D01*
X7242515Y-10202165D01*
X7235402Y-10225614D01*
X7233000Y-10250000D01*
X7235402Y-10274386D01*
X7242515Y-10297835D01*
X7254066Y-10319446D01*
X7269606Y-10338382D01*
X7276999Y-10345775D01*
X7277001Y-10345778D01*
X7294892Y-10372553D01*
X7307217Y-10402309D01*
X7313500Y-10433897D01*
X7313500Y-10466103D01*
X7307217Y-10497691D01*
X7294892Y-10527447D01*
X7277121Y-10554042D01*
X7276999Y-10554225D01*
X7254225Y-10576999D01*
X7254222Y-10577001D01*
X7227447Y-10594892D01*
X7197691Y-10607217D01*
X7166103Y-10613500D01*
X7133897Y-10613500D01*
X7102309Y-10607217D01*
X7072553Y-10594892D01*
X7045778Y-10577001D01*
X7045775Y-10576999D01*
X7038382Y-10569606D01*
X7019446Y-10554066D01*
X6997835Y-10542515D01*
X6974386Y-10535402D01*
X6950000Y-10533000D01*
X6925614Y-10535402D01*
X6902165Y-10542515D01*
X6880554Y-10554066D01*
X6861618Y-10569606D01*
X6854225Y-10576999D01*
X6854222Y-10577001D01*
X6827447Y-10594892D01*
X6797691Y-10607217D01*
X6766103Y-10613500D01*
X6733897Y-10613500D01*
X6702309Y-10607217D01*
X6672553Y-10594892D01*
X6645778Y-10577001D01*
X6645775Y-10576999D01*
X6638382Y-10569606D01*
X6619446Y-10554066D01*
X6597835Y-10542515D01*
X6574386Y-10535402D01*
X6550000Y-10533000D01*
X6525614Y-10535402D01*
X6502165Y-10542515D01*
X6480554Y-10554066D01*
X6461618Y-10569606D01*
X6454225Y-10576999D01*
X6454222Y-10577001D01*
X6427447Y-10594892D01*
X6397691Y-10607217D01*
X6366103Y-10613500D01*
X6333897Y-10613500D01*
X6302309Y-10607217D01*
X6272553Y-10594892D01*
X6245778Y-10577001D01*
X6245775Y-10576999D01*
X6223001Y-10554225D01*
X6222879Y-10554042D01*
X6205108Y-10527447D01*
X6192783Y-10497691D01*
X6186500Y-10466103D01*
X6186500Y-10433897D01*
X6192783Y-10402309D01*
X6205108Y-10372553D01*
X6222999Y-10345778D01*
X6223001Y-10345775D01*
X6230394Y-10338382D01*
X6245934Y-10319446D01*
X6257485Y-10297835D01*
X6264598Y-10274386D01*
X6267000Y-10250000D01*
X6264598Y-10225614D01*
X6257485Y-10202165D01*
X6245934Y-10180554D01*
X6230394Y-10161618D01*
X6223001Y-10154225D01*
X6214164Y-10141000D01*
X6205108Y-10127447D01*
X6192783Y-10097691D01*
X6186500Y-10066103D01*
X6186500Y-10033897D01*
X6192783Y-10002309D01*
X6205108Y-9972553D01*
X6222999Y-9945778D01*
X6223001Y-9945775D01*
X6230394Y-9938382D01*
X6245934Y-9919446D01*
X6257485Y-9897835D01*
X6264598Y-9874386D01*
X6267000Y-9850000D01*
X6264598Y-9825614D01*
X6257485Y-9802165D01*
X6245934Y-9780554D01*
X6230394Y-9761618D01*
X6223001Y-9754225D01*
X6222879Y-9754042D01*
X6205108Y-9727447D01*
X6192783Y-9697691D01*
X6186500Y-9666103D01*
X6186500Y-9633897D01*
X6192783Y-9602309D01*
X6205108Y-9572553D01*
X6222999Y-9545778D01*
X6223001Y-9545775D01*
X6230394Y-9538382D01*
X6245934Y-9519446D01*
X6257485Y-9497835D01*
X6264598Y-9474386D01*
X6267000Y-9450000D01*
X6264598Y-9425614D01*
X6257485Y-9402165D01*
X6245934Y-9380554D01*
X6230394Y-9361618D01*
X6223001Y-9354225D01*
X6222879Y-9354042D01*
X6205108Y-9327447D01*
X6192783Y-9297691D01*
X6186500Y-9266103D01*
X6186500Y-9233897D01*
X6192783Y-9202309D01*
X6205108Y-9172553D01*
X6222999Y-9145778D01*
X6223001Y-9145775D01*
X6245775Y-9123001D01*
X6245958Y-9122879D01*
X6272553Y-9105108D01*
X6302309Y-9092783D01*
X6333897Y-9086500D01*
X6366103Y-9086500D01*
X6397691Y-9092783D01*
G37*
G36*
X15191000Y-10226000D02*
G01*
X14659000Y-10226000D01*
X14659000Y-9324000D01*
X15191000Y-9324000D01*
X15191000Y-10226000D01*
G37*
G36*
X3551000Y-10141000D02*
G01*
X2649000Y-10141000D01*
X2649000Y-9609000D01*
X3551000Y-9609000D01*
X3551000Y-10141000D01*
G37*
G36*
X9676000Y-9451000D02*
G01*
X8824000Y-9451000D01*
X8824000Y-8549000D01*
X9676000Y-8549000D01*
X9676000Y-9451000D01*
G37*
G36*
X20651000Y-9276000D02*
G01*
X19549000Y-9276000D01*
X19549000Y-7924000D01*
X20651000Y-7924000D01*
X20651000Y-9276000D01*
G37*
G36*
X18651000Y-9276000D02*
G01*
X17549000Y-9276000D01*
X17549000Y-7924000D01*
X18651000Y-7924000D01*
X18651000Y-9276000D01*
G37*
G36*
X-3449000Y-8666000D02*
G01*
X-4351000Y-8666000D01*
X-4351000Y-8134000D01*
X-3449000Y-8134000D01*
X-3449000Y-8666000D01*
G37*
G36*
X-4849000Y-8666000D02*
G01*
X-5751000Y-8666000D01*
X-5751000Y-8134000D01*
X-4849000Y-8134000D01*
X-4849000Y-8666000D01*
G37*
G36*
X-7724000Y-8601000D02*
G01*
X-8426000Y-8601000D01*
X-8426000Y-7999000D01*
X-7724000Y-7999000D01*
X-7724000Y-8601000D01*
G37*
G36*
X-13734000Y-8601000D02*
G01*
X-14266000Y-8601000D01*
X-14266000Y-7699000D01*
X-13734000Y-7699000D01*
X-13734000Y-8601000D01*
G37*
G36*
X-12609000Y-8601000D02*
G01*
X-13141000Y-8601000D01*
X-13141000Y-7699000D01*
X-12609000Y-7699000D01*
X-12609000Y-8601000D01*
G37*
G36*
X-14809000Y-8601000D02*
G01*
X-15341000Y-8601000D01*
X-15341000Y-7699000D01*
X-14809000Y-7699000D01*
X-14809000Y-8601000D01*
G37*
G36*
X-15884000Y-8601000D02*
G01*
X-16416000Y-8601000D01*
X-16416000Y-7699000D01*
X-15884000Y-7699000D01*
X-15884000Y-8601000D01*
G37*
G36*
X-16934000Y-8601000D02*
G01*
X-17466000Y-8601000D01*
X-17466000Y-7699000D01*
X-16934000Y-7699000D01*
X-16934000Y-8601000D01*
G37*
G36*
X-8824000Y-8601000D02*
G01*
X-9526000Y-8601000D01*
X-9526000Y-7999000D01*
X-8824000Y-7999000D01*
X-8824000Y-8601000D01*
G37*
G36*
X-10459000Y-8601000D02*
G01*
X-10991000Y-8601000D01*
X-10991000Y-7699000D01*
X-10459000Y-7699000D01*
X-10459000Y-8601000D01*
G37*
G36*
X23041000Y-8401000D02*
G01*
X22509000Y-8401000D01*
X22509000Y-7499000D01*
X23041000Y-7499000D01*
X23041000Y-8401000D01*
G37*
G36*
X9676000Y-7951000D02*
G01*
X8824000Y-7951000D01*
X8824000Y-7049000D01*
X9676000Y-7049000D01*
X9676000Y-7951000D01*
G37*
G36*
X6251000Y-7926000D02*
G01*
X5349000Y-7926000D01*
X5349000Y-7074000D01*
X6251000Y-7074000D01*
X6251000Y-7926000D01*
G37*
G36*
X7751000Y-7926000D02*
G01*
X6849000Y-7926000D01*
X6849000Y-7074000D01*
X7751000Y-7074000D01*
X7751000Y-7926000D01*
G37*
G36*
X19801000Y-7201000D02*
G01*
X19099000Y-7201000D01*
X19099000Y-6599000D01*
X19801000Y-6599000D01*
X19801000Y-7201000D01*
G37*
G36*
X18701000Y-7201000D02*
G01*
X17999000Y-7201000D01*
X17999000Y-6599000D01*
X18701000Y-6599000D01*
X18701000Y-7201000D01*
G37*
G36*
X17051000Y-7026000D02*
G01*
X14149000Y-7026000D01*
X14149000Y-5324000D01*
X17051000Y-5324000D01*
X17051000Y-7026000D01*
G37*
G36*
X13251000Y-7026000D02*
G01*
X10349000Y-7026000D01*
X10349000Y-5324000D01*
X13251000Y-5324000D01*
X13251000Y-7026000D01*
G37*
G36*
X-9199000Y-6901000D02*
G01*
X-9901000Y-6901000D01*
X-9901000Y-6299000D01*
X-9199000Y-6299000D01*
X-9199000Y-6901000D01*
G37*
G36*
X-10299000Y-6901000D02*
G01*
X-11001000Y-6901000D01*
X-11001000Y-6299000D01*
X-10299000Y-6299000D01*
X-10299000Y-6901000D01*
G37*
G36*
X-14924000Y-6816000D02*
G01*
X-15826000Y-6816000D01*
X-15826000Y-6284000D01*
X-14924000Y-6284000D01*
X-14924000Y-6816000D01*
G37*
G36*
X-5049000Y-6591000D02*
G01*
X-5951000Y-6591000D01*
X-5951000Y-6059000D01*
X-5049000Y-6059000D01*
X-5049000Y-6591000D01*
G37*
G36*
X24601000Y-6301000D02*
G01*
X23499000Y-6301000D01*
X23499000Y-4949000D01*
X24601000Y-4949000D01*
X24601000Y-6301000D01*
G37*
G36*
X22601000Y-6301000D02*
G01*
X21499000Y-6301000D01*
X21499000Y-4949000D01*
X22601000Y-4949000D01*
X22601000Y-6301000D01*
G37*
G36*
X6376000Y-6191000D02*
G01*
X5474000Y-6191000D01*
X5474000Y-5659000D01*
X6376000Y-5659000D01*
X6376000Y-6191000D01*
G37*
G36*
X7626000Y-6191000D02*
G01*
X6724000Y-6191000D01*
X6724000Y-5659000D01*
X7626000Y-5659000D01*
X7626000Y-6191000D01*
G37*
G36*
X18701000Y-6001000D02*
G01*
X17999000Y-6001000D01*
X17999000Y-5399000D01*
X18701000Y-5399000D01*
X18701000Y-6001000D01*
G37*
G36*
X19801000Y-6001000D02*
G01*
X19099000Y-6001000D01*
X19099000Y-5399000D01*
X19801000Y-5399000D01*
X19801000Y-6001000D01*
G37*
G36*
X-3399000Y-5951000D02*
G01*
X-4001000Y-5951000D01*
X-4001000Y-5249000D01*
X-3399000Y-5249000D01*
X-3399000Y-5951000D01*
G37*
G36*
X-909000Y-5676000D02*
G01*
X-1441000Y-5676000D01*
X-1441000Y-4774000D01*
X-909000Y-4774000D01*
X-909000Y-5676000D01*
G37*
G36*
X-1984000Y-5666000D02*
G01*
X-2516000Y-5666000D01*
X-2516000Y-4764000D01*
X-1984000Y-4764000D01*
X-1984000Y-5666000D01*
G37*
G36*
X-4849000Y-5651000D02*
G01*
X-9951000Y-5651000D01*
X-9951000Y-4049000D01*
X-4849000Y-4049000D01*
X-4849000Y-5651000D01*
G37*
G36*
X-11299000Y-5651000D02*
G01*
X-16401000Y-5651000D01*
X-16401000Y-4049000D01*
X-11299000Y-4049000D01*
X-11299000Y-5651000D01*
G37*
G36*
X8501000Y-5051000D02*
G01*
X7499000Y-5051000D01*
X7499000Y-3249000D01*
X8501000Y-3249000D01*
X8501000Y-5051000D01*
G37*
G36*
X5601000Y-5051000D02*
G01*
X4599000Y-5051000D01*
X4599000Y-3249000D01*
X5601000Y-3249000D01*
X5601000Y-5051000D01*
G37*
G36*
X-3399000Y-4851000D02*
G01*
X-4001000Y-4851000D01*
X-4001000Y-4149000D01*
X-3399000Y-4149000D01*
X-3399000Y-4851000D01*
G37*
G36*
X18701000Y-4801000D02*
G01*
X17999000Y-4801000D01*
X17999000Y-4199000D01*
X18701000Y-4199000D01*
X18701000Y-4801000D01*
G37*
G36*
X19801000Y-4801000D02*
G01*
X19099000Y-4801000D01*
X19099000Y-4199000D01*
X19801000Y-4199000D01*
X19801000Y-4801000D01*
G37*
G36*
X26016000Y-4701000D02*
G01*
X25484000Y-4701000D01*
X25484000Y-3799000D01*
X26016000Y-3799000D01*
X26016000Y-4701000D01*
G37*
G36*
X22651000Y-4351000D02*
G01*
X21949000Y-4351000D01*
X21949000Y-3749000D01*
X22651000Y-3749000D01*
X22651000Y-4351000D01*
G37*
G36*
X23751000Y-4351000D02*
G01*
X23049000Y-4351000D01*
X23049000Y-3749000D01*
X23751000Y-3749000D01*
X23751000Y-4351000D01*
G37*
G36*
X124875206Y3181270D02*
G01*
X125253282Y3106066D01*
X125844926Y2860999D01*
X126245073Y2593629D01*
X126377391Y2505217D01*
X126830217Y2052391D01*
X126875032Y1985320D01*
X127185999Y1519926D01*
X127422782Y948281D01*
X127431066Y928281D01*
X127556000Y300197D01*
X127556000Y-340197D01*
X127524213Y-500000D01*
X127431066Y-968282D01*
X127185999Y-1559926D01*
X126901083Y-1986332D01*
X126843581Y-2072391D01*
X126830216Y-2092392D01*
X126377392Y-2545216D01*
X125844926Y-2900999D01*
X125253282Y-3146066D01*
X124939239Y-3208533D01*
X124625197Y-3271000D01*
X123984803Y-3271000D01*
X123670761Y-3208533D01*
X123356718Y-3146066D01*
X122765074Y-2900999D01*
X122232608Y-2545216D01*
X121779784Y-2092392D01*
X121766420Y-2072391D01*
X121708917Y-1986332D01*
X121424001Y-1559926D01*
X121178934Y-968282D01*
X121085787Y-500000D01*
X121054000Y-340197D01*
X121054000Y300197D01*
X121178934Y928281D01*
X121187218Y948281D01*
X121424001Y1519926D01*
X121734968Y1985320D01*
X121779783Y2052391D01*
X122232609Y2505217D01*
X122364927Y2593629D01*
X122765074Y2860999D01*
X123356718Y3106066D01*
X123734794Y3181270D01*
X123984803Y3231000D01*
X124625197Y3231000D01*
X124875206Y3181270D01*
G37*
G36*
X634239Y3188533D02*
G01*
X948282Y3126066D01*
X1539926Y2880999D01*
X1829523Y2687496D01*
X2072391Y2525217D01*
X2525217Y2072391D01*
X2538843Y2051998D01*
X2880999Y1539926D01*
X3041243Y1153062D01*
X3126066Y948281D01*
X3251000Y320197D01*
X3251000Y-320197D01*
X3193031Y-611624D01*
X3126066Y-948282D01*
X2880999Y-1539926D01*
X2675895Y-1846885D01*
X2525217Y-2072391D01*
X2072391Y-2525217D01*
X1966477Y-2595986D01*
X1539926Y-2880999D01*
X948282Y-3126066D01*
X634239Y-3188533D01*
X320197Y-3251000D01*
X-320197Y-3251000D01*
X-634239Y-3188533D01*
X-948282Y-3126066D01*
X-1539926Y-2880999D01*
X-1966477Y-2595986D01*
X-2072391Y-2525217D01*
X-2525217Y-2072391D01*
X-2675895Y-1846885D01*
X-2880999Y-1539926D01*
X-3126066Y-948282D01*
X-3193031Y-611624D01*
X-3251000Y-320197D01*
X-3251000Y320197D01*
X-3126066Y948281D01*
X-3041243Y1153062D01*
X-2880999Y1539926D01*
X-2538843Y2051998D01*
X-2525217Y2072391D01*
X-2072391Y2525217D01*
X-1829523Y2687496D01*
X-1539926Y2880999D01*
X-948282Y3126066D01*
X-634239Y3188533D01*
X-320197Y3251000D01*
X320197Y3251000D01*
X634239Y3188533D01*
G37*
G36*
X51891601Y-1644397D02*
G01*
X51930305Y-1652096D01*
X51962340Y-1665365D01*
X52039680Y-1697400D01*
X52138115Y-1763173D01*
X52221827Y-1846885D01*
X52287600Y-1945320D01*
X52332904Y-2054696D01*
X52356000Y-2170805D01*
X52356000Y-2289195D01*
X52332904Y-2405304D01*
X52287600Y-2514680D01*
X52221827Y-2613115D01*
X52138115Y-2696827D01*
X52039680Y-2762600D01*
X51962340Y-2794635D01*
X51930305Y-2807904D01*
X51891601Y-2815603D01*
X51814195Y-2831000D01*
X51695805Y-2831000D01*
X51618399Y-2815603D01*
X51579695Y-2807904D01*
X51547660Y-2794635D01*
X51470320Y-2762600D01*
X51371885Y-2696827D01*
X51288173Y-2613115D01*
X51222400Y-2514680D01*
X51177096Y-2405304D01*
X51154000Y-2289195D01*
X51154000Y-2170805D01*
X51177096Y-2054696D01*
X51222400Y-1945320D01*
X51288173Y-1846885D01*
X51371885Y-1763173D01*
X51470320Y-1697400D01*
X51547660Y-1665365D01*
X51579695Y-1652096D01*
X51618399Y-1644397D01*
X51695805Y-1629000D01*
X51814195Y-1629000D01*
X51891601Y-1644397D01*
G37*
G36*
X29891601Y-1644397D02*
G01*
X29930305Y-1652096D01*
X29962340Y-1665365D01*
X30039680Y-1697400D01*
X30138115Y-1763173D01*
X30221827Y-1846885D01*
X30287600Y-1945320D01*
X30332904Y-2054696D01*
X30356000Y-2170805D01*
X30356000Y-2289195D01*
X30332904Y-2405304D01*
X30287600Y-2514680D01*
X30221827Y-2613115D01*
X30138115Y-2696827D01*
X30039680Y-2762600D01*
X29962340Y-2794635D01*
X29930305Y-2807904D01*
X29891601Y-2815603D01*
X29814195Y-2831000D01*
X29695805Y-2831000D01*
X29618399Y-2815603D01*
X29579695Y-2807904D01*
X29547660Y-2794635D01*
X29470320Y-2762600D01*
X29371885Y-2696827D01*
X29288173Y-2613115D01*
X29222400Y-2514680D01*
X29177096Y-2405304D01*
X29154000Y-2289195D01*
X29154000Y-2170805D01*
X29177096Y-2054696D01*
X29222400Y-1945320D01*
X29288173Y-1846885D01*
X29371885Y-1763173D01*
X29470320Y-1697400D01*
X29547660Y-1665365D01*
X29579695Y-1652096D01*
X29618399Y-1644397D01*
X29695805Y-1629000D01*
X29814195Y-1629000D01*
X29891601Y-1644397D01*
G37*
G36*
X49891601Y-1644397D02*
G01*
X49930305Y-1652096D01*
X49962340Y-1665365D01*
X50039680Y-1697400D01*
X50138115Y-1763173D01*
X50221827Y-1846885D01*
X50287600Y-1945320D01*
X50332904Y-2054696D01*
X50356000Y-2170805D01*
X50356000Y-2289195D01*
X50332904Y-2405304D01*
X50287600Y-2514680D01*
X50221827Y-2613115D01*
X50138115Y-2696827D01*
X50039680Y-2762600D01*
X49962340Y-2794635D01*
X49930305Y-2807904D01*
X49891601Y-2815603D01*
X49814195Y-2831000D01*
X49695805Y-2831000D01*
X49618399Y-2815603D01*
X49579695Y-2807904D01*
X49547660Y-2794635D01*
X49470320Y-2762600D01*
X49371885Y-2696827D01*
X49288173Y-2613115D01*
X49222400Y-2514680D01*
X49177096Y-2405304D01*
X49154000Y-2289195D01*
X49154000Y-2170805D01*
X49177096Y-2054696D01*
X49222400Y-1945320D01*
X49288173Y-1846885D01*
X49371885Y-1763173D01*
X49470320Y-1697400D01*
X49547660Y-1665365D01*
X49579695Y-1652096D01*
X49618399Y-1644397D01*
X49695805Y-1629000D01*
X49814195Y-1629000D01*
X49891601Y-1644397D01*
G37*
G36*
X39891601Y-1644397D02*
G01*
X39930305Y-1652096D01*
X39962340Y-1665365D01*
X40039680Y-1697400D01*
X40138115Y-1763173D01*
X40221827Y-1846885D01*
X40287600Y-1945320D01*
X40332904Y-2054696D01*
X40356000Y-2170805D01*
X40356000Y-2289195D01*
X40332904Y-2405304D01*
X40287600Y-2514680D01*
X40221827Y-2613115D01*
X40138115Y-2696827D01*
X40039680Y-2762600D01*
X39962340Y-2794635D01*
X39930305Y-2807904D01*
X39891601Y-2815603D01*
X39814195Y-2831000D01*
X39695805Y-2831000D01*
X39618399Y-2815603D01*
X39579695Y-2807904D01*
X39547660Y-2794635D01*
X39470320Y-2762600D01*
X39371885Y-2696827D01*
X39288173Y-2613115D01*
X39222400Y-2514680D01*
X39177096Y-2405304D01*
X39154000Y-2289195D01*
X39154000Y-2170805D01*
X39177096Y-2054696D01*
X39222400Y-1945320D01*
X39288173Y-1846885D01*
X39371885Y-1763173D01*
X39470320Y-1697400D01*
X39547660Y-1665365D01*
X39579695Y-1652096D01*
X39618399Y-1644397D01*
X39695805Y-1629000D01*
X39814195Y-1629000D01*
X39891601Y-1644397D01*
G37*
G36*
X21891601Y-1644397D02*
G01*
X21930305Y-1652096D01*
X21962340Y-1665365D01*
X22039680Y-1697400D01*
X22138115Y-1763173D01*
X22221827Y-1846885D01*
X22287600Y-1945320D01*
X22332904Y-2054696D01*
X22356000Y-2170805D01*
X22356000Y-2289195D01*
X22332904Y-2405304D01*
X22287600Y-2514680D01*
X22221827Y-2613115D01*
X22138115Y-2696827D01*
X22039680Y-2762600D01*
X21962340Y-2794635D01*
X21930305Y-2807904D01*
X21891601Y-2815603D01*
X21814195Y-2831000D01*
X21695805Y-2831000D01*
X21618399Y-2815603D01*
X21579695Y-2807904D01*
X21547660Y-2794635D01*
X21470320Y-2762600D01*
X21371885Y-2696827D01*
X21288173Y-2613115D01*
X21222400Y-2514680D01*
X21177096Y-2405304D01*
X21154000Y-2289195D01*
X21154000Y-2170805D01*
X21177096Y-2054696D01*
X21222400Y-1945320D01*
X21288173Y-1846885D01*
X21371885Y-1763173D01*
X21470320Y-1697400D01*
X21547660Y-1665365D01*
X21579695Y-1652096D01*
X21618399Y-1644397D01*
X21695805Y-1629000D01*
X21814195Y-1629000D01*
X21891601Y-1644397D01*
G37*
G36*
X25891601Y-1644397D02*
G01*
X25930305Y-1652096D01*
X25962340Y-1665365D01*
X26039680Y-1697400D01*
X26138115Y-1763173D01*
X26221827Y-1846885D01*
X26287600Y-1945320D01*
X26332904Y-2054696D01*
X26356000Y-2170805D01*
X26356000Y-2289195D01*
X26332904Y-2405304D01*
X26287600Y-2514680D01*
X26221827Y-2613115D01*
X26138115Y-2696827D01*
X26039680Y-2762600D01*
X25962340Y-2794635D01*
X25930305Y-2807904D01*
X25891601Y-2815603D01*
X25814195Y-2831000D01*
X25695805Y-2831000D01*
X25618399Y-2815603D01*
X25579695Y-2807904D01*
X25547660Y-2794635D01*
X25470320Y-2762600D01*
X25371885Y-2696827D01*
X25288173Y-2613115D01*
X25222400Y-2514680D01*
X25177096Y-2405304D01*
X25154000Y-2289195D01*
X25154000Y-2170805D01*
X25177096Y-2054696D01*
X25222400Y-1945320D01*
X25288173Y-1846885D01*
X25371885Y-1763173D01*
X25470320Y-1697400D01*
X25547660Y-1665365D01*
X25579695Y-1652096D01*
X25618399Y-1644397D01*
X25695805Y-1629000D01*
X25814195Y-1629000D01*
X25891601Y-1644397D01*
G37*
G36*
X27891601Y-1644397D02*
G01*
X27930305Y-1652096D01*
X27962340Y-1665365D01*
X28039680Y-1697400D01*
X28138115Y-1763173D01*
X28221827Y-1846885D01*
X28287600Y-1945320D01*
X28332904Y-2054696D01*
X28356000Y-2170805D01*
X28356000Y-2289195D01*
X28332904Y-2405304D01*
X28287600Y-2514680D01*
X28221827Y-2613115D01*
X28138115Y-2696827D01*
X28039680Y-2762600D01*
X27962340Y-2794635D01*
X27930305Y-2807904D01*
X27891601Y-2815603D01*
X27814195Y-2831000D01*
X27695805Y-2831000D01*
X27618399Y-2815603D01*
X27579695Y-2807904D01*
X27547660Y-2794635D01*
X27470320Y-2762600D01*
X27371885Y-2696827D01*
X27288173Y-2613115D01*
X27222400Y-2514680D01*
X27177096Y-2405304D01*
X27154000Y-2289195D01*
X27154000Y-2170805D01*
X27177096Y-2054696D01*
X27222400Y-1945320D01*
X27288173Y-1846885D01*
X27371885Y-1763173D01*
X27470320Y-1697400D01*
X27547660Y-1665365D01*
X27579695Y-1652096D01*
X27618399Y-1644397D01*
X27695805Y-1629000D01*
X27814195Y-1629000D01*
X27891601Y-1644397D01*
G37*
G36*
X31891601Y-1644397D02*
G01*
X31930305Y-1652096D01*
X31962340Y-1665365D01*
X32039680Y-1697400D01*
X32138115Y-1763173D01*
X32221827Y-1846885D01*
X32287600Y-1945320D01*
X32332904Y-2054696D01*
X32356000Y-2170805D01*
X32356000Y-2289195D01*
X32332904Y-2405304D01*
X32287600Y-2514680D01*
X32221827Y-2613115D01*
X32138115Y-2696827D01*
X32039680Y-2762600D01*
X31962340Y-2794635D01*
X31930305Y-2807904D01*
X31891601Y-2815603D01*
X31814195Y-2831000D01*
X31695805Y-2831000D01*
X31618399Y-2815603D01*
X31579695Y-2807904D01*
X31547660Y-2794635D01*
X31470320Y-2762600D01*
X31371885Y-2696827D01*
X31288173Y-2613115D01*
X31222400Y-2514680D01*
X31177096Y-2405304D01*
X31154000Y-2289195D01*
X31154000Y-2170805D01*
X31177096Y-2054696D01*
X31222400Y-1945320D01*
X31288173Y-1846885D01*
X31371885Y-1763173D01*
X31470320Y-1697400D01*
X31547660Y-1665365D01*
X31579695Y-1652096D01*
X31618399Y-1644397D01*
X31695805Y-1629000D01*
X31814195Y-1629000D01*
X31891601Y-1644397D01*
G37*
G36*
X33891601Y-1644397D02*
G01*
X33930305Y-1652096D01*
X33962340Y-1665365D01*
X34039680Y-1697400D01*
X34138115Y-1763173D01*
X34221827Y-1846885D01*
X34287600Y-1945320D01*
X34332904Y-2054696D01*
X34356000Y-2170805D01*
X34356000Y-2289195D01*
X34332904Y-2405304D01*
X34287600Y-2514680D01*
X34221827Y-2613115D01*
X34138115Y-2696827D01*
X34039680Y-2762600D01*
X33962340Y-2794635D01*
X33930305Y-2807904D01*
X33891601Y-2815603D01*
X33814195Y-2831000D01*
X33695805Y-2831000D01*
X33618399Y-2815603D01*
X33579695Y-2807904D01*
X33547660Y-2794635D01*
X33470320Y-2762600D01*
X33371885Y-2696827D01*
X33288173Y-2613115D01*
X33222400Y-2514680D01*
X33177096Y-2405304D01*
X33154000Y-2289195D01*
X33154000Y-2170805D01*
X33177096Y-2054696D01*
X33222400Y-1945320D01*
X33288173Y-1846885D01*
X33371885Y-1763173D01*
X33470320Y-1697400D01*
X33547660Y-1665365D01*
X33579695Y-1652096D01*
X33618399Y-1644397D01*
X33695805Y-1629000D01*
X33814195Y-1629000D01*
X33891601Y-1644397D01*
G37*
G36*
X35891601Y-1644397D02*
G01*
X35930305Y-1652096D01*
X35962340Y-1665365D01*
X36039680Y-1697400D01*
X36138115Y-1763173D01*
X36221827Y-1846885D01*
X36287600Y-1945320D01*
X36332904Y-2054696D01*
X36356000Y-2170805D01*
X36356000Y-2289195D01*
X36332904Y-2405304D01*
X36287600Y-2514680D01*
X36221827Y-2613115D01*
X36138115Y-2696827D01*
X36039680Y-2762600D01*
X35962340Y-2794635D01*
X35930305Y-2807904D01*
X35891601Y-2815603D01*
X35814195Y-2831000D01*
X35695805Y-2831000D01*
X35618399Y-2815603D01*
X35579695Y-2807904D01*
X35547660Y-2794635D01*
X35470320Y-2762600D01*
X35371885Y-2696827D01*
X35288173Y-2613115D01*
X35222400Y-2514680D01*
X35177096Y-2405304D01*
X35154000Y-2289195D01*
X35154000Y-2170805D01*
X35177096Y-2054696D01*
X35222400Y-1945320D01*
X35288173Y-1846885D01*
X35371885Y-1763173D01*
X35470320Y-1697400D01*
X35547660Y-1665365D01*
X35579695Y-1652096D01*
X35618399Y-1644397D01*
X35695805Y-1629000D01*
X35814195Y-1629000D01*
X35891601Y-1644397D01*
G37*
G36*
X37891601Y-1644397D02*
G01*
X37930305Y-1652096D01*
X37962340Y-1665365D01*
X38039680Y-1697400D01*
X38138115Y-1763173D01*
X38221827Y-1846885D01*
X38287600Y-1945320D01*
X38332904Y-2054696D01*
X38356000Y-2170805D01*
X38356000Y-2289195D01*
X38332904Y-2405304D01*
X38287600Y-2514680D01*
X38221827Y-2613115D01*
X38138115Y-2696827D01*
X38039680Y-2762600D01*
X37962340Y-2794635D01*
X37930305Y-2807904D01*
X37891601Y-2815603D01*
X37814195Y-2831000D01*
X37695805Y-2831000D01*
X37618399Y-2815603D01*
X37579695Y-2807904D01*
X37547660Y-2794635D01*
X37470320Y-2762600D01*
X37371885Y-2696827D01*
X37288173Y-2613115D01*
X37222400Y-2514680D01*
X37177096Y-2405304D01*
X37154000Y-2289195D01*
X37154000Y-2170805D01*
X37177096Y-2054696D01*
X37222400Y-1945320D01*
X37288173Y-1846885D01*
X37371885Y-1763173D01*
X37470320Y-1697400D01*
X37547660Y-1665365D01*
X37579695Y-1652096D01*
X37618399Y-1644397D01*
X37695805Y-1629000D01*
X37814195Y-1629000D01*
X37891601Y-1644397D01*
G37*
G36*
X13891601Y-1644397D02*
G01*
X13930305Y-1652096D01*
X13962340Y-1665365D01*
X14039680Y-1697400D01*
X14138115Y-1763173D01*
X14221827Y-1846885D01*
X14287600Y-1945320D01*
X14332904Y-2054696D01*
X14356000Y-2170805D01*
X14356000Y-2289195D01*
X14332904Y-2405304D01*
X14287600Y-2514680D01*
X14221827Y-2613115D01*
X14138115Y-2696827D01*
X14039680Y-2762600D01*
X13962340Y-2794635D01*
X13930305Y-2807904D01*
X13891601Y-2815603D01*
X13814195Y-2831000D01*
X13695805Y-2831000D01*
X13618399Y-2815603D01*
X13579695Y-2807904D01*
X13547660Y-2794635D01*
X13470320Y-2762600D01*
X13371885Y-2696827D01*
X13288173Y-2613115D01*
X13222400Y-2514680D01*
X13177096Y-2405304D01*
X13154000Y-2289195D01*
X13154000Y-2170805D01*
X13177096Y-2054696D01*
X13222400Y-1945320D01*
X13288173Y-1846885D01*
X13371885Y-1763173D01*
X13470320Y-1697400D01*
X13547660Y-1665365D01*
X13579695Y-1652096D01*
X13618399Y-1644397D01*
X13695805Y-1629000D01*
X13814195Y-1629000D01*
X13891601Y-1644397D01*
G37*
G36*
X41891601Y-1644397D02*
G01*
X41930305Y-1652096D01*
X41962340Y-1665365D01*
X42039680Y-1697400D01*
X42138115Y-1763173D01*
X42221827Y-1846885D01*
X42287600Y-1945320D01*
X42332904Y-2054696D01*
X42356000Y-2170805D01*
X42356000Y-2289195D01*
X42332904Y-2405304D01*
X42287600Y-2514680D01*
X42221827Y-2613115D01*
X42138115Y-2696827D01*
X42039680Y-2762600D01*
X41962340Y-2794635D01*
X41930305Y-2807904D01*
X41891601Y-2815603D01*
X41814195Y-2831000D01*
X41695805Y-2831000D01*
X41618399Y-2815603D01*
X41579695Y-2807904D01*
X41547660Y-2794635D01*
X41470320Y-2762600D01*
X41371885Y-2696827D01*
X41288173Y-2613115D01*
X41222400Y-2514680D01*
X41177096Y-2405304D01*
X41154000Y-2289195D01*
X41154000Y-2170805D01*
X41177096Y-2054696D01*
X41222400Y-1945320D01*
X41288173Y-1846885D01*
X41371885Y-1763173D01*
X41470320Y-1697400D01*
X41547660Y-1665365D01*
X41579695Y-1652096D01*
X41618399Y-1644397D01*
X41695805Y-1629000D01*
X41814195Y-1629000D01*
X41891601Y-1644397D01*
G37*
G36*
X43891601Y-1644397D02*
G01*
X43930305Y-1652096D01*
X43962340Y-1665365D01*
X44039680Y-1697400D01*
X44138115Y-1763173D01*
X44221827Y-1846885D01*
X44287600Y-1945320D01*
X44332904Y-2054696D01*
X44356000Y-2170805D01*
X44356000Y-2289195D01*
X44332904Y-2405304D01*
X44287600Y-2514680D01*
X44221827Y-2613115D01*
X44138115Y-2696827D01*
X44039680Y-2762600D01*
X43962340Y-2794635D01*
X43930305Y-2807904D01*
X43891601Y-2815603D01*
X43814195Y-2831000D01*
X43695805Y-2831000D01*
X43618399Y-2815603D01*
X43579695Y-2807904D01*
X43547660Y-2794635D01*
X43470320Y-2762600D01*
X43371885Y-2696827D01*
X43288173Y-2613115D01*
X43222400Y-2514680D01*
X43177096Y-2405304D01*
X43154000Y-2289195D01*
X43154000Y-2170805D01*
X43177096Y-2054696D01*
X43222400Y-1945320D01*
X43288173Y-1846885D01*
X43371885Y-1763173D01*
X43470320Y-1697400D01*
X43547660Y-1665365D01*
X43579695Y-1652096D01*
X43618399Y-1644397D01*
X43695805Y-1629000D01*
X43814195Y-1629000D01*
X43891601Y-1644397D01*
G37*
G36*
X95891601Y-1644397D02*
G01*
X95930305Y-1652096D01*
X95962340Y-1665365D01*
X96039680Y-1697400D01*
X96138115Y-1763173D01*
X96221827Y-1846885D01*
X96287600Y-1945320D01*
X96332904Y-2054696D01*
X96356000Y-2170805D01*
X96356000Y-2289195D01*
X96332904Y-2405304D01*
X96287600Y-2514680D01*
X96221827Y-2613115D01*
X96138115Y-2696827D01*
X96039680Y-2762600D01*
X95962340Y-2794635D01*
X95930305Y-2807904D01*
X95891601Y-2815603D01*
X95814195Y-2831000D01*
X95695805Y-2831000D01*
X95618399Y-2815603D01*
X95579695Y-2807904D01*
X95547660Y-2794635D01*
X95470320Y-2762600D01*
X95371885Y-2696827D01*
X95288173Y-2613115D01*
X95222400Y-2514680D01*
X95177096Y-2405304D01*
X95154000Y-2289195D01*
X95154000Y-2170805D01*
X95177096Y-2054696D01*
X95222400Y-1945320D01*
X95288173Y-1846885D01*
X95371885Y-1763173D01*
X95470320Y-1697400D01*
X95547660Y-1665365D01*
X95579695Y-1652096D01*
X95618399Y-1644397D01*
X95695805Y-1629000D01*
X95814195Y-1629000D01*
X95891601Y-1644397D01*
G37*
G36*
X45891601Y-1644397D02*
G01*
X45930305Y-1652096D01*
X45962340Y-1665365D01*
X46039680Y-1697400D01*
X46138115Y-1763173D01*
X46221827Y-1846885D01*
X46287600Y-1945320D01*
X46332904Y-2054696D01*
X46356000Y-2170805D01*
X46356000Y-2289195D01*
X46332904Y-2405304D01*
X46287600Y-2514680D01*
X46221827Y-2613115D01*
X46138115Y-2696827D01*
X46039680Y-2762600D01*
X45962340Y-2794635D01*
X45930305Y-2807904D01*
X45891601Y-2815603D01*
X45814195Y-2831000D01*
X45695805Y-2831000D01*
X45618399Y-2815603D01*
X45579695Y-2807904D01*
X45547660Y-2794635D01*
X45470320Y-2762600D01*
X45371885Y-2696827D01*
X45288173Y-2613115D01*
X45222400Y-2514680D01*
X45177096Y-2405304D01*
X45154000Y-2289195D01*
X45154000Y-2170805D01*
X45177096Y-2054696D01*
X45222400Y-1945320D01*
X45288173Y-1846885D01*
X45371885Y-1763173D01*
X45470320Y-1697400D01*
X45547660Y-1665365D01*
X45579695Y-1652096D01*
X45618399Y-1644397D01*
X45695805Y-1629000D01*
X45814195Y-1629000D01*
X45891601Y-1644397D01*
G37*
G36*
X93891601Y-1644397D02*
G01*
X93930305Y-1652096D01*
X93962340Y-1665365D01*
X94039680Y-1697400D01*
X94138115Y-1763173D01*
X94221827Y-1846885D01*
X94287600Y-1945320D01*
X94332904Y-2054696D01*
X94356000Y-2170805D01*
X94356000Y-2289195D01*
X94332904Y-2405304D01*
X94287600Y-2514680D01*
X94221827Y-2613115D01*
X94138115Y-2696827D01*
X94039680Y-2762600D01*
X93962340Y-2794635D01*
X93930305Y-2807904D01*
X93891601Y-2815603D01*
X93814195Y-2831000D01*
X93695805Y-2831000D01*
X93618399Y-2815603D01*
X93579695Y-2807904D01*
X93547660Y-2794635D01*
X93470320Y-2762600D01*
X93371885Y-2696827D01*
X93288173Y-2613115D01*
X93222400Y-2514680D01*
X93177096Y-2405304D01*
X93154000Y-2289195D01*
X93154000Y-2170805D01*
X93177096Y-2054696D01*
X93222400Y-1945320D01*
X93288173Y-1846885D01*
X93371885Y-1763173D01*
X93470320Y-1697400D01*
X93547660Y-1665365D01*
X93579695Y-1652096D01*
X93618399Y-1644397D01*
X93695805Y-1629000D01*
X93814195Y-1629000D01*
X93891601Y-1644397D01*
G37*
G36*
X91891601Y-1644397D02*
G01*
X91930305Y-1652096D01*
X91962340Y-1665365D01*
X92039680Y-1697400D01*
X92138115Y-1763173D01*
X92221827Y-1846885D01*
X92287600Y-1945320D01*
X92332904Y-2054696D01*
X92356000Y-2170805D01*
X92356000Y-2289195D01*
X92332904Y-2405304D01*
X92287600Y-2514680D01*
X92221827Y-2613115D01*
X92138115Y-2696827D01*
X92039680Y-2762600D01*
X91962340Y-2794635D01*
X91930305Y-2807904D01*
X91891601Y-2815603D01*
X91814195Y-2831000D01*
X91695805Y-2831000D01*
X91618399Y-2815603D01*
X91579695Y-2807904D01*
X91547660Y-2794635D01*
X91470320Y-2762600D01*
X91371885Y-2696827D01*
X91288173Y-2613115D01*
X91222400Y-2514680D01*
X91177096Y-2405304D01*
X91154000Y-2289195D01*
X91154000Y-2170805D01*
X91177096Y-2054696D01*
X91222400Y-1945320D01*
X91288173Y-1846885D01*
X91371885Y-1763173D01*
X91470320Y-1697400D01*
X91547660Y-1665365D01*
X91579695Y-1652096D01*
X91618399Y-1644397D01*
X91695805Y-1629000D01*
X91814195Y-1629000D01*
X91891601Y-1644397D01*
G37*
G36*
X89891601Y-1644397D02*
G01*
X89930305Y-1652096D01*
X89962340Y-1665365D01*
X90039680Y-1697400D01*
X90138115Y-1763173D01*
X90221827Y-1846885D01*
X90287600Y-1945320D01*
X90332904Y-2054696D01*
X90356000Y-2170805D01*
X90356000Y-2289195D01*
X90332904Y-2405304D01*
X90287600Y-2514680D01*
X90221827Y-2613115D01*
X90138115Y-2696827D01*
X90039680Y-2762600D01*
X89962340Y-2794635D01*
X89930305Y-2807904D01*
X89891601Y-2815603D01*
X89814195Y-2831000D01*
X89695805Y-2831000D01*
X89618399Y-2815603D01*
X89579695Y-2807904D01*
X89547660Y-2794635D01*
X89470320Y-2762600D01*
X89371885Y-2696827D01*
X89288173Y-2613115D01*
X89222400Y-2514680D01*
X89177096Y-2405304D01*
X89154000Y-2289195D01*
X89154000Y-2170805D01*
X89177096Y-2054696D01*
X89222400Y-1945320D01*
X89288173Y-1846885D01*
X89371885Y-1763173D01*
X89470320Y-1697400D01*
X89547660Y-1665365D01*
X89579695Y-1652096D01*
X89618399Y-1644397D01*
X89695805Y-1629000D01*
X89814195Y-1629000D01*
X89891601Y-1644397D01*
G37*
G36*
X87891601Y-1644397D02*
G01*
X87930305Y-1652096D01*
X87962340Y-1665365D01*
X88039680Y-1697400D01*
X88138115Y-1763173D01*
X88221827Y-1846885D01*
X88287600Y-1945320D01*
X88332904Y-2054696D01*
X88356000Y-2170805D01*
X88356000Y-2289195D01*
X88332904Y-2405304D01*
X88287600Y-2514680D01*
X88221827Y-2613115D01*
X88138115Y-2696827D01*
X88039680Y-2762600D01*
X87962340Y-2794635D01*
X87930305Y-2807904D01*
X87891601Y-2815603D01*
X87814195Y-2831000D01*
X87695805Y-2831000D01*
X87618399Y-2815603D01*
X87579695Y-2807904D01*
X87547660Y-2794635D01*
X87470320Y-2762600D01*
X87371885Y-2696827D01*
X87288173Y-2613115D01*
X87222400Y-2514680D01*
X87177096Y-2405304D01*
X87154000Y-2289195D01*
X87154000Y-2170805D01*
X87177096Y-2054696D01*
X87222400Y-1945320D01*
X87288173Y-1846885D01*
X87371885Y-1763173D01*
X87470320Y-1697400D01*
X87547660Y-1665365D01*
X87579695Y-1652096D01*
X87618399Y-1644397D01*
X87695805Y-1629000D01*
X87814195Y-1629000D01*
X87891601Y-1644397D01*
G37*
G36*
X55891601Y-1644397D02*
G01*
X55930305Y-1652096D01*
X55962340Y-1665365D01*
X56039680Y-1697400D01*
X56138115Y-1763173D01*
X56221827Y-1846885D01*
X56287600Y-1945320D01*
X56332904Y-2054696D01*
X56356000Y-2170805D01*
X56356000Y-2289195D01*
X56332904Y-2405304D01*
X56287600Y-2514680D01*
X56221827Y-2613115D01*
X56138115Y-2696827D01*
X56039680Y-2762600D01*
X55962340Y-2794635D01*
X55930305Y-2807904D01*
X55891601Y-2815603D01*
X55814195Y-2831000D01*
X55695805Y-2831000D01*
X55618399Y-2815603D01*
X55579695Y-2807904D01*
X55547660Y-2794635D01*
X55470320Y-2762600D01*
X55371885Y-2696827D01*
X55288173Y-2613115D01*
X55222400Y-2514680D01*
X55177096Y-2405304D01*
X55154000Y-2289195D01*
X55154000Y-2170805D01*
X55177096Y-2054696D01*
X55222400Y-1945320D01*
X55288173Y-1846885D01*
X55371885Y-1763173D01*
X55470320Y-1697400D01*
X55547660Y-1665365D01*
X55579695Y-1652096D01*
X55618399Y-1644397D01*
X55695805Y-1629000D01*
X55814195Y-1629000D01*
X55891601Y-1644397D01*
G37*
G36*
X47891601Y-1644397D02*
G01*
X47930305Y-1652096D01*
X47962340Y-1665365D01*
X48039680Y-1697400D01*
X48138115Y-1763173D01*
X48221827Y-1846885D01*
X48287600Y-1945320D01*
X48332904Y-2054696D01*
X48356000Y-2170805D01*
X48356000Y-2289195D01*
X48332904Y-2405304D01*
X48287600Y-2514680D01*
X48221827Y-2613115D01*
X48138115Y-2696827D01*
X48039680Y-2762600D01*
X47962340Y-2794635D01*
X47930305Y-2807904D01*
X47891601Y-2815603D01*
X47814195Y-2831000D01*
X47695805Y-2831000D01*
X47618399Y-2815603D01*
X47579695Y-2807904D01*
X47547660Y-2794635D01*
X47470320Y-2762600D01*
X47371885Y-2696827D01*
X47288173Y-2613115D01*
X47222400Y-2514680D01*
X47177096Y-2405304D01*
X47154000Y-2289195D01*
X47154000Y-2170805D01*
X47177096Y-2054696D01*
X47222400Y-1945320D01*
X47288173Y-1846885D01*
X47371885Y-1763173D01*
X47470320Y-1697400D01*
X47547660Y-1665365D01*
X47579695Y-1652096D01*
X47618399Y-1644397D01*
X47695805Y-1629000D01*
X47814195Y-1629000D01*
X47891601Y-1644397D01*
G37*
G36*
X15891601Y-1644397D02*
G01*
X15930305Y-1652096D01*
X15962340Y-1665365D01*
X16039680Y-1697400D01*
X16138115Y-1763173D01*
X16221827Y-1846885D01*
X16287600Y-1945320D01*
X16332904Y-2054696D01*
X16356000Y-2170805D01*
X16356000Y-2289195D01*
X16332904Y-2405304D01*
X16287600Y-2514680D01*
X16221827Y-2613115D01*
X16138115Y-2696827D01*
X16039680Y-2762600D01*
X15962340Y-2794635D01*
X15930305Y-2807904D01*
X15891601Y-2815603D01*
X15814195Y-2831000D01*
X15695805Y-2831000D01*
X15618399Y-2815603D01*
X15579695Y-2807904D01*
X15547660Y-2794635D01*
X15470320Y-2762600D01*
X15371885Y-2696827D01*
X15288173Y-2613115D01*
X15222400Y-2514680D01*
X15177096Y-2405304D01*
X15154000Y-2289195D01*
X15154000Y-2170805D01*
X15177096Y-2054696D01*
X15222400Y-1945320D01*
X15288173Y-1846885D01*
X15371885Y-1763173D01*
X15470320Y-1697400D01*
X15547660Y-1665365D01*
X15579695Y-1652096D01*
X15618399Y-1644397D01*
X15695805Y-1629000D01*
X15814195Y-1629000D01*
X15891601Y-1644397D01*
G37*
G36*
X19891601Y-1644397D02*
G01*
X19930305Y-1652096D01*
X19962340Y-1665365D01*
X20039680Y-1697400D01*
X20138115Y-1763173D01*
X20221827Y-1846885D01*
X20287600Y-1945320D01*
X20332904Y-2054696D01*
X20356000Y-2170805D01*
X20356000Y-2289195D01*
X20332904Y-2405304D01*
X20287600Y-2514680D01*
X20221827Y-2613115D01*
X20138115Y-2696827D01*
X20039680Y-2762600D01*
X19962340Y-2794635D01*
X19930305Y-2807904D01*
X19891601Y-2815603D01*
X19814195Y-2831000D01*
X19695805Y-2831000D01*
X19618399Y-2815603D01*
X19579695Y-2807904D01*
X19547660Y-2794635D01*
X19470320Y-2762600D01*
X19371885Y-2696827D01*
X19288173Y-2613115D01*
X19222400Y-2514680D01*
X19177096Y-2405304D01*
X19154000Y-2289195D01*
X19154000Y-2170805D01*
X19177096Y-2054696D01*
X19222400Y-1945320D01*
X19288173Y-1846885D01*
X19371885Y-1763173D01*
X19470320Y-1697400D01*
X19547660Y-1665365D01*
X19579695Y-1652096D01*
X19618399Y-1644397D01*
X19695805Y-1629000D01*
X19814195Y-1629000D01*
X19891601Y-1644397D01*
G37*
G36*
X17891601Y-1644397D02*
G01*
X17930305Y-1652096D01*
X17962340Y-1665365D01*
X18039680Y-1697400D01*
X18138115Y-1763173D01*
X18221827Y-1846885D01*
X18287600Y-1945320D01*
X18332904Y-2054696D01*
X18356000Y-2170805D01*
X18356000Y-2289195D01*
X18332904Y-2405304D01*
X18287600Y-2514680D01*
X18221827Y-2613115D01*
X18138115Y-2696827D01*
X18039680Y-2762600D01*
X17962340Y-2794635D01*
X17930305Y-2807904D01*
X17891601Y-2815603D01*
X17814195Y-2831000D01*
X17695805Y-2831000D01*
X17618399Y-2815603D01*
X17579695Y-2807904D01*
X17547660Y-2794635D01*
X17470320Y-2762600D01*
X17371885Y-2696827D01*
X17288173Y-2613115D01*
X17222400Y-2514680D01*
X17177096Y-2405304D01*
X17154000Y-2289195D01*
X17154000Y-2170805D01*
X17177096Y-2054696D01*
X17222400Y-1945320D01*
X17288173Y-1846885D01*
X17371885Y-1763173D01*
X17470320Y-1697400D01*
X17547660Y-1665365D01*
X17579695Y-1652096D01*
X17618399Y-1644397D01*
X17695805Y-1629000D01*
X17814195Y-1629000D01*
X17891601Y-1644397D01*
G37*
G36*
X65891601Y-1644397D02*
G01*
X65930305Y-1652096D01*
X65962340Y-1665365D01*
X66039680Y-1697400D01*
X66138115Y-1763173D01*
X66221827Y-1846885D01*
X66287600Y-1945320D01*
X66332904Y-2054696D01*
X66356000Y-2170805D01*
X66356000Y-2289195D01*
X66332904Y-2405304D01*
X66287600Y-2514680D01*
X66221827Y-2613115D01*
X66138115Y-2696827D01*
X66039680Y-2762600D01*
X65962340Y-2794635D01*
X65930305Y-2807904D01*
X65891601Y-2815603D01*
X65814195Y-2831000D01*
X65695805Y-2831000D01*
X65618399Y-2815603D01*
X65579695Y-2807904D01*
X65547660Y-2794635D01*
X65470320Y-2762600D01*
X65371885Y-2696827D01*
X65288173Y-2613115D01*
X65222400Y-2514680D01*
X65177096Y-2405304D01*
X65154000Y-2289195D01*
X65154000Y-2170805D01*
X65177096Y-2054696D01*
X65222400Y-1945320D01*
X65288173Y-1846885D01*
X65371885Y-1763173D01*
X65470320Y-1697400D01*
X65547660Y-1665365D01*
X65579695Y-1652096D01*
X65618399Y-1644397D01*
X65695805Y-1629000D01*
X65814195Y-1629000D01*
X65891601Y-1644397D01*
G37*
G36*
X83891601Y-1644397D02*
G01*
X83930305Y-1652096D01*
X83962340Y-1665365D01*
X84039680Y-1697400D01*
X84138115Y-1763173D01*
X84221827Y-1846885D01*
X84287600Y-1945320D01*
X84332904Y-2054696D01*
X84356000Y-2170805D01*
X84356000Y-2289195D01*
X84332904Y-2405304D01*
X84287600Y-2514680D01*
X84221827Y-2613115D01*
X84138115Y-2696827D01*
X84039680Y-2762600D01*
X83962340Y-2794635D01*
X83930305Y-2807904D01*
X83891601Y-2815603D01*
X83814195Y-2831000D01*
X83695805Y-2831000D01*
X83618399Y-2815603D01*
X83579695Y-2807904D01*
X83547660Y-2794635D01*
X83470320Y-2762600D01*
X83371885Y-2696827D01*
X83288173Y-2613115D01*
X83222400Y-2514680D01*
X83177096Y-2405304D01*
X83154000Y-2289195D01*
X83154000Y-2170805D01*
X83177096Y-2054696D01*
X83222400Y-1945320D01*
X83288173Y-1846885D01*
X83371885Y-1763173D01*
X83470320Y-1697400D01*
X83547660Y-1665365D01*
X83579695Y-1652096D01*
X83618399Y-1644397D01*
X83695805Y-1629000D01*
X83814195Y-1629000D01*
X83891601Y-1644397D01*
G37*
G36*
X81891601Y-1644397D02*
G01*
X81930305Y-1652096D01*
X81962340Y-1665365D01*
X82039680Y-1697400D01*
X82138115Y-1763173D01*
X82221827Y-1846885D01*
X82287600Y-1945320D01*
X82332904Y-2054696D01*
X82356000Y-2170805D01*
X82356000Y-2289195D01*
X82332904Y-2405304D01*
X82287600Y-2514680D01*
X82221827Y-2613115D01*
X82138115Y-2696827D01*
X82039680Y-2762600D01*
X81962340Y-2794635D01*
X81930305Y-2807904D01*
X81891601Y-2815603D01*
X81814195Y-2831000D01*
X81695805Y-2831000D01*
X81618399Y-2815603D01*
X81579695Y-2807904D01*
X81547660Y-2794635D01*
X81470320Y-2762600D01*
X81371885Y-2696827D01*
X81288173Y-2613115D01*
X81222400Y-2514680D01*
X81177096Y-2405304D01*
X81154000Y-2289195D01*
X81154000Y-2170805D01*
X81177096Y-2054696D01*
X81222400Y-1945320D01*
X81288173Y-1846885D01*
X81371885Y-1763173D01*
X81470320Y-1697400D01*
X81547660Y-1665365D01*
X81579695Y-1652096D01*
X81618399Y-1644397D01*
X81695805Y-1629000D01*
X81814195Y-1629000D01*
X81891601Y-1644397D01*
G37*
G36*
X79891601Y-1644397D02*
G01*
X79930305Y-1652096D01*
X79962340Y-1665365D01*
X80039680Y-1697400D01*
X80138115Y-1763173D01*
X80221827Y-1846885D01*
X80287600Y-1945320D01*
X80332904Y-2054696D01*
X80356000Y-2170805D01*
X80356000Y-2289195D01*
X80332904Y-2405304D01*
X80287600Y-2514680D01*
X80221827Y-2613115D01*
X80138115Y-2696827D01*
X80039680Y-2762600D01*
X79962340Y-2794635D01*
X79930305Y-2807904D01*
X79891601Y-2815603D01*
X79814195Y-2831000D01*
X79695805Y-2831000D01*
X79618399Y-2815603D01*
X79579695Y-2807904D01*
X79547660Y-2794635D01*
X79470320Y-2762600D01*
X79371885Y-2696827D01*
X79288173Y-2613115D01*
X79222400Y-2514680D01*
X79177096Y-2405304D01*
X79154000Y-2289195D01*
X79154000Y-2170805D01*
X79177096Y-2054696D01*
X79222400Y-1945320D01*
X79288173Y-1846885D01*
X79371885Y-1763173D01*
X79470320Y-1697400D01*
X79547660Y-1665365D01*
X79579695Y-1652096D01*
X79618399Y-1644397D01*
X79695805Y-1629000D01*
X79814195Y-1629000D01*
X79891601Y-1644397D01*
G37*
G36*
X77891601Y-1644397D02*
G01*
X77930305Y-1652096D01*
X77962340Y-1665365D01*
X78039680Y-1697400D01*
X78138115Y-1763173D01*
X78221827Y-1846885D01*
X78287600Y-1945320D01*
X78332904Y-2054696D01*
X78356000Y-2170805D01*
X78356000Y-2289195D01*
X78332904Y-2405304D01*
X78287600Y-2514680D01*
X78221827Y-2613115D01*
X78138115Y-2696827D01*
X78039680Y-2762600D01*
X77962340Y-2794635D01*
X77930305Y-2807904D01*
X77891601Y-2815603D01*
X77814195Y-2831000D01*
X77695805Y-2831000D01*
X77618399Y-2815603D01*
X77579695Y-2807904D01*
X77547660Y-2794635D01*
X77470320Y-2762600D01*
X77371885Y-2696827D01*
X77288173Y-2613115D01*
X77222400Y-2514680D01*
X77177096Y-2405304D01*
X77154000Y-2289195D01*
X77154000Y-2170805D01*
X77177096Y-2054696D01*
X77222400Y-1945320D01*
X77288173Y-1846885D01*
X77371885Y-1763173D01*
X77470320Y-1697400D01*
X77547660Y-1665365D01*
X77579695Y-1652096D01*
X77618399Y-1644397D01*
X77695805Y-1629000D01*
X77814195Y-1629000D01*
X77891601Y-1644397D01*
G37*
G36*
X75891601Y-1644397D02*
G01*
X75930305Y-1652096D01*
X75962340Y-1665365D01*
X76039680Y-1697400D01*
X76138115Y-1763173D01*
X76221827Y-1846885D01*
X76287600Y-1945320D01*
X76332904Y-2054696D01*
X76356000Y-2170805D01*
X76356000Y-2289195D01*
X76332904Y-2405304D01*
X76287600Y-2514680D01*
X76221827Y-2613115D01*
X76138115Y-2696827D01*
X76039680Y-2762600D01*
X75962340Y-2794635D01*
X75930305Y-2807904D01*
X75891601Y-2815603D01*
X75814195Y-2831000D01*
X75695805Y-2831000D01*
X75618399Y-2815603D01*
X75579695Y-2807904D01*
X75547660Y-2794635D01*
X75470320Y-2762600D01*
X75371885Y-2696827D01*
X75288173Y-2613115D01*
X75222400Y-2514680D01*
X75177096Y-2405304D01*
X75154000Y-2289195D01*
X75154000Y-2170805D01*
X75177096Y-2054696D01*
X75222400Y-1945320D01*
X75288173Y-1846885D01*
X75371885Y-1763173D01*
X75470320Y-1697400D01*
X75547660Y-1665365D01*
X75579695Y-1652096D01*
X75618399Y-1644397D01*
X75695805Y-1629000D01*
X75814195Y-1629000D01*
X75891601Y-1644397D01*
G37*
G36*
X71891601Y-1644397D02*
G01*
X71930305Y-1652096D01*
X71962340Y-1665365D01*
X72039680Y-1697400D01*
X72138115Y-1763173D01*
X72221827Y-1846885D01*
X72287600Y-1945320D01*
X72332904Y-2054696D01*
X72356000Y-2170805D01*
X72356000Y-2289195D01*
X72332904Y-2405304D01*
X72287600Y-2514680D01*
X72221827Y-2613115D01*
X72138115Y-2696827D01*
X72039680Y-2762600D01*
X71962340Y-2794635D01*
X71930305Y-2807904D01*
X71891601Y-2815603D01*
X71814195Y-2831000D01*
X71695805Y-2831000D01*
X71618399Y-2815603D01*
X71579695Y-2807904D01*
X71547660Y-2794635D01*
X71470320Y-2762600D01*
X71371885Y-2696827D01*
X71288173Y-2613115D01*
X71222400Y-2514680D01*
X71177096Y-2405304D01*
X71154000Y-2289195D01*
X71154000Y-2170805D01*
X71177096Y-2054696D01*
X71222400Y-1945320D01*
X71288173Y-1846885D01*
X71371885Y-1763173D01*
X71470320Y-1697400D01*
X71547660Y-1665365D01*
X71579695Y-1652096D01*
X71618399Y-1644397D01*
X71695805Y-1629000D01*
X71814195Y-1629000D01*
X71891601Y-1644397D01*
G37*
G36*
X69891601Y-1644397D02*
G01*
X69930305Y-1652096D01*
X69962340Y-1665365D01*
X70039680Y-1697400D01*
X70138115Y-1763173D01*
X70221827Y-1846885D01*
X70287600Y-1945320D01*
X70332904Y-2054696D01*
X70356000Y-2170805D01*
X70356000Y-2289195D01*
X70332904Y-2405304D01*
X70287600Y-2514680D01*
X70221827Y-2613115D01*
X70138115Y-2696827D01*
X70039680Y-2762600D01*
X69962340Y-2794635D01*
X69930305Y-2807904D01*
X69891601Y-2815603D01*
X69814195Y-2831000D01*
X69695805Y-2831000D01*
X69618399Y-2815603D01*
X69579695Y-2807904D01*
X69547660Y-2794635D01*
X69470320Y-2762600D01*
X69371885Y-2696827D01*
X69288173Y-2613115D01*
X69222400Y-2514680D01*
X69177096Y-2405304D01*
X69154000Y-2289195D01*
X69154000Y-2170805D01*
X69177096Y-2054696D01*
X69222400Y-1945320D01*
X69288173Y-1846885D01*
X69371885Y-1763173D01*
X69470320Y-1697400D01*
X69547660Y-1665365D01*
X69579695Y-1652096D01*
X69618399Y-1644397D01*
X69695805Y-1629000D01*
X69814195Y-1629000D01*
X69891601Y-1644397D01*
G37*
G36*
X67891601Y-1644397D02*
G01*
X67930305Y-1652096D01*
X67962340Y-1665365D01*
X68039680Y-1697400D01*
X68138115Y-1763173D01*
X68221827Y-1846885D01*
X68287600Y-1945320D01*
X68332904Y-2054696D01*
X68356000Y-2170805D01*
X68356000Y-2289195D01*
X68332904Y-2405304D01*
X68287600Y-2514680D01*
X68221827Y-2613115D01*
X68138115Y-2696827D01*
X68039680Y-2762600D01*
X67962340Y-2794635D01*
X67930305Y-2807904D01*
X67891601Y-2815603D01*
X67814195Y-2831000D01*
X67695805Y-2831000D01*
X67618399Y-2815603D01*
X67579695Y-2807904D01*
X67547660Y-2794635D01*
X67470320Y-2762600D01*
X67371885Y-2696827D01*
X67288173Y-2613115D01*
X67222400Y-2514680D01*
X67177096Y-2405304D01*
X67154000Y-2289195D01*
X67154000Y-2170805D01*
X67177096Y-2054696D01*
X67222400Y-1945320D01*
X67288173Y-1846885D01*
X67371885Y-1763173D01*
X67470320Y-1697400D01*
X67547660Y-1665365D01*
X67579695Y-1652096D01*
X67618399Y-1644397D01*
X67695805Y-1629000D01*
X67814195Y-1629000D01*
X67891601Y-1644397D01*
G37*
G36*
X73891601Y-1644397D02*
G01*
X73930305Y-1652096D01*
X73962340Y-1665365D01*
X74039680Y-1697400D01*
X74138115Y-1763173D01*
X74221827Y-1846885D01*
X74287600Y-1945320D01*
X74332904Y-2054696D01*
X74356000Y-2170805D01*
X74356000Y-2289195D01*
X74332904Y-2405304D01*
X74287600Y-2514680D01*
X74221827Y-2613115D01*
X74138115Y-2696827D01*
X74039680Y-2762600D01*
X73962340Y-2794635D01*
X73930305Y-2807904D01*
X73891601Y-2815603D01*
X73814195Y-2831000D01*
X73695805Y-2831000D01*
X73618399Y-2815603D01*
X73579695Y-2807904D01*
X73547660Y-2794635D01*
X73470320Y-2762600D01*
X73371885Y-2696827D01*
X73288173Y-2613115D01*
X73222400Y-2514680D01*
X73177096Y-2405304D01*
X73154000Y-2289195D01*
X73154000Y-2170805D01*
X73177096Y-2054696D01*
X73222400Y-1945320D01*
X73288173Y-1846885D01*
X73371885Y-1763173D01*
X73470320Y-1697400D01*
X73547660Y-1665365D01*
X73579695Y-1652096D01*
X73618399Y-1644397D01*
X73695805Y-1629000D01*
X73814195Y-1629000D01*
X73891601Y-1644397D01*
G37*
G36*
X85891601Y-1644397D02*
G01*
X85930305Y-1652096D01*
X85962340Y-1665365D01*
X86039680Y-1697400D01*
X86138115Y-1763173D01*
X86221827Y-1846885D01*
X86287600Y-1945320D01*
X86332904Y-2054696D01*
X86356000Y-2170805D01*
X86356000Y-2289195D01*
X86332904Y-2405304D01*
X86287600Y-2514680D01*
X86221827Y-2613115D01*
X86138115Y-2696827D01*
X86039680Y-2762600D01*
X85962340Y-2794635D01*
X85930305Y-2807904D01*
X85891601Y-2815603D01*
X85814195Y-2831000D01*
X85695805Y-2831000D01*
X85618399Y-2815603D01*
X85579695Y-2807904D01*
X85547660Y-2794635D01*
X85470320Y-2762600D01*
X85371885Y-2696827D01*
X85288173Y-2613115D01*
X85222400Y-2514680D01*
X85177096Y-2405304D01*
X85154000Y-2289195D01*
X85154000Y-2170805D01*
X85177096Y-2054696D01*
X85222400Y-1945320D01*
X85288173Y-1846885D01*
X85371885Y-1763173D01*
X85470320Y-1697400D01*
X85547660Y-1665365D01*
X85579695Y-1652096D01*
X85618399Y-1644397D01*
X85695805Y-1629000D01*
X85814195Y-1629000D01*
X85891601Y-1644397D01*
G37*
G36*
X63891601Y-1644397D02*
G01*
X63930305Y-1652096D01*
X63962340Y-1665365D01*
X64039680Y-1697400D01*
X64138115Y-1763173D01*
X64221827Y-1846885D01*
X64287600Y-1945320D01*
X64332904Y-2054696D01*
X64356000Y-2170805D01*
X64356000Y-2289195D01*
X64332904Y-2405304D01*
X64287600Y-2514680D01*
X64221827Y-2613115D01*
X64138115Y-2696827D01*
X64039680Y-2762600D01*
X63962340Y-2794635D01*
X63930305Y-2807904D01*
X63891601Y-2815603D01*
X63814195Y-2831000D01*
X63695805Y-2831000D01*
X63618399Y-2815603D01*
X63579695Y-2807904D01*
X63547660Y-2794635D01*
X63470320Y-2762600D01*
X63371885Y-2696827D01*
X63288173Y-2613115D01*
X63222400Y-2514680D01*
X63177096Y-2405304D01*
X63154000Y-2289195D01*
X63154000Y-2170805D01*
X63177096Y-2054696D01*
X63222400Y-1945320D01*
X63288173Y-1846885D01*
X63371885Y-1763173D01*
X63470320Y-1697400D01*
X63547660Y-1665365D01*
X63579695Y-1652096D01*
X63618399Y-1644397D01*
X63695805Y-1629000D01*
X63814195Y-1629000D01*
X63891601Y-1644397D01*
G37*
G36*
X61891601Y-1644397D02*
G01*
X61930305Y-1652096D01*
X61962340Y-1665365D01*
X62039680Y-1697400D01*
X62138115Y-1763173D01*
X62221827Y-1846885D01*
X62287600Y-1945320D01*
X62332904Y-2054696D01*
X62356000Y-2170805D01*
X62356000Y-2289195D01*
X62332904Y-2405304D01*
X62287600Y-2514680D01*
X62221827Y-2613115D01*
X62138115Y-2696827D01*
X62039680Y-2762600D01*
X61962340Y-2794635D01*
X61930305Y-2807904D01*
X61891601Y-2815603D01*
X61814195Y-2831000D01*
X61695805Y-2831000D01*
X61618399Y-2815603D01*
X61579695Y-2807904D01*
X61547660Y-2794635D01*
X61470320Y-2762600D01*
X61371885Y-2696827D01*
X61288173Y-2613115D01*
X61222400Y-2514680D01*
X61177096Y-2405304D01*
X61154000Y-2289195D01*
X61154000Y-2170805D01*
X61177096Y-2054696D01*
X61222400Y-1945320D01*
X61288173Y-1846885D01*
X61371885Y-1763173D01*
X61470320Y-1697400D01*
X61547660Y-1665365D01*
X61579695Y-1652096D01*
X61618399Y-1644397D01*
X61695805Y-1629000D01*
X61814195Y-1629000D01*
X61891601Y-1644397D01*
G37*
G36*
X59891601Y-1644397D02*
G01*
X59930305Y-1652096D01*
X59962340Y-1665365D01*
X60039680Y-1697400D01*
X60138115Y-1763173D01*
X60221827Y-1846885D01*
X60287600Y-1945320D01*
X60332904Y-2054696D01*
X60356000Y-2170805D01*
X60356000Y-2289195D01*
X60332904Y-2405304D01*
X60287600Y-2514680D01*
X60221827Y-2613115D01*
X60138115Y-2696827D01*
X60039680Y-2762600D01*
X59962340Y-2794635D01*
X59930305Y-2807904D01*
X59891601Y-2815603D01*
X59814195Y-2831000D01*
X59695805Y-2831000D01*
X59618399Y-2815603D01*
X59579695Y-2807904D01*
X59547660Y-2794635D01*
X59470320Y-2762600D01*
X59371885Y-2696827D01*
X59288173Y-2613115D01*
X59222400Y-2514680D01*
X59177096Y-2405304D01*
X59154000Y-2289195D01*
X59154000Y-2170805D01*
X59177096Y-2054696D01*
X59222400Y-1945320D01*
X59288173Y-1846885D01*
X59371885Y-1763173D01*
X59470320Y-1697400D01*
X59547660Y-1665365D01*
X59579695Y-1652096D01*
X59618399Y-1644397D01*
X59695805Y-1629000D01*
X59814195Y-1629000D01*
X59891601Y-1644397D01*
G37*
G36*
X57891601Y-1644397D02*
G01*
X57930305Y-1652096D01*
X57962340Y-1665365D01*
X58039680Y-1697400D01*
X58138115Y-1763173D01*
X58221827Y-1846885D01*
X58287600Y-1945320D01*
X58332904Y-2054696D01*
X58356000Y-2170805D01*
X58356000Y-2289195D01*
X58332904Y-2405304D01*
X58287600Y-2514680D01*
X58221827Y-2613115D01*
X58138115Y-2696827D01*
X58039680Y-2762600D01*
X57962340Y-2794635D01*
X57930305Y-2807904D01*
X57891601Y-2815603D01*
X57814195Y-2831000D01*
X57695805Y-2831000D01*
X57618399Y-2815603D01*
X57579695Y-2807904D01*
X57547660Y-2794635D01*
X57470320Y-2762600D01*
X57371885Y-2696827D01*
X57288173Y-2613115D01*
X57222400Y-2514680D01*
X57177096Y-2405304D01*
X57154000Y-2289195D01*
X57154000Y-2170805D01*
X57177096Y-2054696D01*
X57222400Y-1945320D01*
X57288173Y-1846885D01*
X57371885Y-1763173D01*
X57470320Y-1697400D01*
X57547660Y-1665365D01*
X57579695Y-1652096D01*
X57618399Y-1644397D01*
X57695805Y-1629000D01*
X57814195Y-1629000D01*
X57891601Y-1644397D01*
G37*
G36*
X53891601Y-1644397D02*
G01*
X53930305Y-1652096D01*
X53962340Y-1665365D01*
X54039680Y-1697400D01*
X54138115Y-1763173D01*
X54221827Y-1846885D01*
X54287600Y-1945320D01*
X54332904Y-2054696D01*
X54356000Y-2170805D01*
X54356000Y-2289195D01*
X54332904Y-2405304D01*
X54287600Y-2514680D01*
X54221827Y-2613115D01*
X54138115Y-2696827D01*
X54039680Y-2762600D01*
X53962340Y-2794635D01*
X53930305Y-2807904D01*
X53891601Y-2815603D01*
X53814195Y-2831000D01*
X53695805Y-2831000D01*
X53618399Y-2815603D01*
X53579695Y-2807904D01*
X53547660Y-2794635D01*
X53470320Y-2762600D01*
X53371885Y-2696827D01*
X53288173Y-2613115D01*
X53222400Y-2514680D01*
X53177096Y-2405304D01*
X53154000Y-2289195D01*
X53154000Y-2170805D01*
X53177096Y-2054696D01*
X53222400Y-1945320D01*
X53288173Y-1846885D01*
X53371885Y-1763173D01*
X53470320Y-1697400D01*
X53547660Y-1665365D01*
X53579695Y-1652096D01*
X53618399Y-1644397D01*
X53695805Y-1629000D01*
X53814195Y-1629000D01*
X53891601Y-1644397D01*
G37*
G36*
X7451000Y-2126000D02*
G01*
X5749000Y-2126000D01*
X5749000Y776000D01*
X7451000Y776000D01*
X7451000Y-2126000D01*
G37*
G36*
X116045843Y-519214D02*
G01*
X116045846Y-519215D01*
X116045845Y-519215D01*
X116136839Y-556906D01*
X116178063Y-584451D01*
X116218730Y-611624D01*
X116288376Y-681270D01*
X116343095Y-763163D01*
X116380786Y-854157D01*
X116400000Y-950753D01*
X116400000Y-1049247D01*
X116380786Y-1145843D01*
X116343095Y-1236837D01*
X116289275Y-1317385D01*
X116288375Y-1318731D01*
X116218731Y-1388375D01*
X116136839Y-1443094D01*
X116136838Y-1443095D01*
X116136837Y-1443095D01*
X116045843Y-1480786D01*
X115949247Y-1500000D01*
X115850753Y-1500000D01*
X115754157Y-1480786D01*
X115663163Y-1443095D01*
X115663162Y-1443095D01*
X115663161Y-1443094D01*
X115581269Y-1388375D01*
X115511625Y-1318731D01*
X115510726Y-1317385D01*
X115456905Y-1236837D01*
X115419214Y-1145843D01*
X115400000Y-1049247D01*
X115400000Y-950753D01*
X115419214Y-854157D01*
X115456905Y-763163D01*
X115511624Y-681270D01*
X115581270Y-611624D01*
X115621937Y-584451D01*
X115663161Y-556906D01*
X115754155Y-519215D01*
X115754154Y-519215D01*
X115754157Y-519214D01*
X115850753Y-500000D01*
X115949247Y-500000D01*
X116045843Y-519214D01*
G37*
G36*
X84891601Y355603D02*
G01*
X84930305Y347904D01*
X84962340Y334635D01*
X85039680Y302600D01*
X85138115Y236827D01*
X85221827Y153115D01*
X85287600Y54680D01*
X85332904Y-54696D01*
X85356000Y-170805D01*
X85356000Y-289195D01*
X85349833Y-320196D01*
X85334025Y-399671D01*
X85332904Y-405304D01*
X85287600Y-514680D01*
X85221827Y-613115D01*
X85138115Y-696827D01*
X85039680Y-762600D01*
X84962340Y-794635D01*
X84930305Y-807904D01*
X84891601Y-815603D01*
X84814195Y-831000D01*
X84695805Y-831000D01*
X84618399Y-815603D01*
X84579695Y-807904D01*
X84547660Y-794635D01*
X84470320Y-762600D01*
X84371885Y-696827D01*
X84288173Y-613115D01*
X84222400Y-514680D01*
X84177096Y-405304D01*
X84175976Y-399671D01*
X84160167Y-320196D01*
X84154000Y-289195D01*
X84154000Y-170805D01*
X84177096Y-54696D01*
X84222400Y54680D01*
X84288173Y153115D01*
X84371885Y236827D01*
X84470320Y302600D01*
X84547660Y334635D01*
X84579695Y347904D01*
X84618399Y355603D01*
X84695805Y371000D01*
X84814195Y371000D01*
X84891601Y355603D01*
G37*
G36*
X70891601Y355603D02*
G01*
X70930305Y347904D01*
X70962340Y334635D01*
X71039680Y302600D01*
X71138115Y236827D01*
X71221827Y153115D01*
X71287600Y54680D01*
X71332904Y-54696D01*
X71356000Y-170805D01*
X71356000Y-289195D01*
X71349833Y-320196D01*
X71334025Y-399671D01*
X71332904Y-405304D01*
X71287600Y-514680D01*
X71221827Y-613115D01*
X71138115Y-696827D01*
X71039680Y-762600D01*
X70962340Y-794635D01*
X70930305Y-807904D01*
X70891601Y-815603D01*
X70814195Y-831000D01*
X70695805Y-831000D01*
X70618399Y-815603D01*
X70579695Y-807904D01*
X70547660Y-794635D01*
X70470320Y-762600D01*
X70371885Y-696827D01*
X70288173Y-613115D01*
X70222400Y-514680D01*
X70177096Y-405304D01*
X70175976Y-399671D01*
X70160167Y-320196D01*
X70154000Y-289195D01*
X70154000Y-170805D01*
X70177096Y-54696D01*
X70222400Y54680D01*
X70288173Y153115D01*
X70371885Y236827D01*
X70470320Y302600D01*
X70547660Y334635D01*
X70579695Y347904D01*
X70618399Y355603D01*
X70695805Y371000D01*
X70814195Y371000D01*
X70891601Y355603D01*
G37*
G36*
X68891601Y355603D02*
G01*
X68930305Y347904D01*
X68962340Y334635D01*
X69039680Y302600D01*
X69138115Y236827D01*
X69221827Y153115D01*
X69287600Y54680D01*
X69332904Y-54696D01*
X69356000Y-170805D01*
X69356000Y-289195D01*
X69349833Y-320196D01*
X69334025Y-399671D01*
X69332904Y-405304D01*
X69287600Y-514680D01*
X69221827Y-613115D01*
X69138115Y-696827D01*
X69039680Y-762600D01*
X68962340Y-794635D01*
X68930305Y-807904D01*
X68891601Y-815603D01*
X68814195Y-831000D01*
X68695805Y-831000D01*
X68618399Y-815603D01*
X68579695Y-807904D01*
X68547660Y-794635D01*
X68470320Y-762600D01*
X68371885Y-696827D01*
X68288173Y-613115D01*
X68222400Y-514680D01*
X68177096Y-405304D01*
X68175976Y-399671D01*
X68160167Y-320196D01*
X68154000Y-289195D01*
X68154000Y-170805D01*
X68177096Y-54696D01*
X68222400Y54680D01*
X68288173Y153115D01*
X68371885Y236827D01*
X68470320Y302600D01*
X68547660Y334635D01*
X68579695Y347904D01*
X68618399Y355603D01*
X68695805Y371000D01*
X68814195Y371000D01*
X68891601Y355603D01*
G37*
G36*
X86891601Y355603D02*
G01*
X86930305Y347904D01*
X86962340Y334635D01*
X87039680Y302600D01*
X87138115Y236827D01*
X87221827Y153115D01*
X87287600Y54680D01*
X87332904Y-54696D01*
X87356000Y-170805D01*
X87356000Y-289195D01*
X87349833Y-320196D01*
X87334025Y-399671D01*
X87332904Y-405304D01*
X87287600Y-514680D01*
X87221827Y-613115D01*
X87138115Y-696827D01*
X87039680Y-762600D01*
X86962340Y-794635D01*
X86930305Y-807904D01*
X86891601Y-815603D01*
X86814195Y-831000D01*
X86695805Y-831000D01*
X86618399Y-815603D01*
X86579695Y-807904D01*
X86547660Y-794635D01*
X86470320Y-762600D01*
X86371885Y-696827D01*
X86288173Y-613115D01*
X86222400Y-514680D01*
X86177096Y-405304D01*
X86175976Y-399671D01*
X86160167Y-320196D01*
X86154000Y-289195D01*
X86154000Y-170805D01*
X86177096Y-54696D01*
X86222400Y54680D01*
X86288173Y153115D01*
X86371885Y236827D01*
X86470320Y302600D01*
X86547660Y334635D01*
X86579695Y347904D01*
X86618399Y355603D01*
X86695805Y371000D01*
X86814195Y371000D01*
X86891601Y355603D01*
G37*
G36*
X66891601Y355603D02*
G01*
X66930305Y347904D01*
X66962340Y334635D01*
X67039680Y302600D01*
X67138115Y236827D01*
X67221827Y153115D01*
X67287600Y54680D01*
X67332904Y-54696D01*
X67356000Y-170805D01*
X67356000Y-289195D01*
X67349833Y-320196D01*
X67334025Y-399671D01*
X67332904Y-405304D01*
X67287600Y-514680D01*
X67221827Y-613115D01*
X67138115Y-696827D01*
X67039680Y-762600D01*
X66962340Y-794635D01*
X66930305Y-807904D01*
X66891601Y-815603D01*
X66814195Y-831000D01*
X66695805Y-831000D01*
X66618399Y-815603D01*
X66579695Y-807904D01*
X66547660Y-794635D01*
X66470320Y-762600D01*
X66371885Y-696827D01*
X66288173Y-613115D01*
X66222400Y-514680D01*
X66177096Y-405304D01*
X66175976Y-399671D01*
X66160167Y-320196D01*
X66154000Y-289195D01*
X66154000Y-170805D01*
X66177096Y-54696D01*
X66222400Y54680D01*
X66288173Y153115D01*
X66371885Y236827D01*
X66470320Y302600D01*
X66547660Y334635D01*
X66579695Y347904D01*
X66618399Y355603D01*
X66695805Y371000D01*
X66814195Y371000D01*
X66891601Y355603D01*
G37*
G36*
X64891601Y355603D02*
G01*
X64930305Y347904D01*
X64962340Y334635D01*
X65039680Y302600D01*
X65138115Y236827D01*
X65221827Y153115D01*
X65287600Y54680D01*
X65332904Y-54696D01*
X65356000Y-170805D01*
X65356000Y-289195D01*
X65349833Y-320196D01*
X65334025Y-399671D01*
X65332904Y-405304D01*
X65287600Y-514680D01*
X65221827Y-613115D01*
X65138115Y-696827D01*
X65039680Y-762600D01*
X64962340Y-794635D01*
X64930305Y-807904D01*
X64891601Y-815603D01*
X64814195Y-831000D01*
X64695805Y-831000D01*
X64618399Y-815603D01*
X64579695Y-807904D01*
X64547660Y-794635D01*
X64470320Y-762600D01*
X64371885Y-696827D01*
X64288173Y-613115D01*
X64222400Y-514680D01*
X64177096Y-405304D01*
X64175976Y-399671D01*
X64160167Y-320196D01*
X64154000Y-289195D01*
X64154000Y-170805D01*
X64177096Y-54696D01*
X64222400Y54680D01*
X64288173Y153115D01*
X64371885Y236827D01*
X64470320Y302600D01*
X64547660Y334635D01*
X64579695Y347904D01*
X64618399Y355603D01*
X64695805Y371000D01*
X64814195Y371000D01*
X64891601Y355603D01*
G37*
G36*
X88891601Y355603D02*
G01*
X88930305Y347904D01*
X88962340Y334635D01*
X89039680Y302600D01*
X89138115Y236827D01*
X89221827Y153115D01*
X89287600Y54680D01*
X89332904Y-54696D01*
X89356000Y-170805D01*
X89356000Y-289195D01*
X89349833Y-320196D01*
X89334025Y-399671D01*
X89332904Y-405304D01*
X89287600Y-514680D01*
X89221827Y-613115D01*
X89138115Y-696827D01*
X89039680Y-762600D01*
X88962340Y-794635D01*
X88930305Y-807904D01*
X88891601Y-815603D01*
X88814195Y-831000D01*
X88695805Y-831000D01*
X88618399Y-815603D01*
X88579695Y-807904D01*
X88547660Y-794635D01*
X88470320Y-762600D01*
X88371885Y-696827D01*
X88288173Y-613115D01*
X88222400Y-514680D01*
X88177096Y-405304D01*
X88175976Y-399671D01*
X88160167Y-320196D01*
X88154000Y-289195D01*
X88154000Y-170805D01*
X88177096Y-54696D01*
X88222400Y54680D01*
X88288173Y153115D01*
X88371885Y236827D01*
X88470320Y302600D01*
X88547660Y334635D01*
X88579695Y347904D01*
X88618399Y355603D01*
X88695805Y371000D01*
X88814195Y371000D01*
X88891601Y355603D01*
G37*
G36*
X42891601Y355603D02*
G01*
X42930305Y347904D01*
X42962340Y334635D01*
X43039680Y302600D01*
X43138115Y236827D01*
X43221827Y153115D01*
X43287600Y54680D01*
X43332904Y-54696D01*
X43356000Y-170805D01*
X43356000Y-289195D01*
X43349833Y-320196D01*
X43334025Y-399671D01*
X43332904Y-405304D01*
X43287600Y-514680D01*
X43221827Y-613115D01*
X43138115Y-696827D01*
X43039680Y-762600D01*
X42962340Y-794635D01*
X42930305Y-807904D01*
X42891601Y-815603D01*
X42814195Y-831000D01*
X42695805Y-831000D01*
X42618399Y-815603D01*
X42579695Y-807904D01*
X42547660Y-794635D01*
X42470320Y-762600D01*
X42371885Y-696827D01*
X42288173Y-613115D01*
X42222400Y-514680D01*
X42177096Y-405304D01*
X42175976Y-399671D01*
X42160167Y-320196D01*
X42154000Y-289195D01*
X42154000Y-170805D01*
X42177096Y-54696D01*
X42222400Y54680D01*
X42288173Y153115D01*
X42371885Y236827D01*
X42470320Y302600D01*
X42547660Y334635D01*
X42579695Y347904D01*
X42618399Y355603D01*
X42695805Y371000D01*
X42814195Y371000D01*
X42891601Y355603D01*
G37*
G36*
X60891601Y355603D02*
G01*
X60930305Y347904D01*
X60962340Y334635D01*
X61039680Y302600D01*
X61138115Y236827D01*
X61221827Y153115D01*
X61287600Y54680D01*
X61332904Y-54696D01*
X61356000Y-170805D01*
X61356000Y-289195D01*
X61349833Y-320196D01*
X61334025Y-399671D01*
X61332904Y-405304D01*
X61287600Y-514680D01*
X61221827Y-613115D01*
X61138115Y-696827D01*
X61039680Y-762600D01*
X60962340Y-794635D01*
X60930305Y-807904D01*
X60891601Y-815603D01*
X60814195Y-831000D01*
X60695805Y-831000D01*
X60618399Y-815603D01*
X60579695Y-807904D01*
X60547660Y-794635D01*
X60470320Y-762600D01*
X60371885Y-696827D01*
X60288173Y-613115D01*
X60222400Y-514680D01*
X60177096Y-405304D01*
X60175976Y-399671D01*
X60160167Y-320196D01*
X60154000Y-289195D01*
X60154000Y-170805D01*
X60177096Y-54696D01*
X60222400Y54680D01*
X60288173Y153115D01*
X60371885Y236827D01*
X60470320Y302600D01*
X60547660Y334635D01*
X60579695Y347904D01*
X60618399Y355603D01*
X60695805Y371000D01*
X60814195Y371000D01*
X60891601Y355603D01*
G37*
G36*
X58891601Y355603D02*
G01*
X58930305Y347904D01*
X58962340Y334635D01*
X59039680Y302600D01*
X59138115Y236827D01*
X59221827Y153115D01*
X59287600Y54680D01*
X59332904Y-54696D01*
X59356000Y-170805D01*
X59356000Y-289195D01*
X59349833Y-320196D01*
X59334025Y-399671D01*
X59332904Y-405304D01*
X59287600Y-514680D01*
X59221827Y-613115D01*
X59138115Y-696827D01*
X59039680Y-762600D01*
X58962340Y-794635D01*
X58930305Y-807904D01*
X58891601Y-815603D01*
X58814195Y-831000D01*
X58695805Y-831000D01*
X58618399Y-815603D01*
X58579695Y-807904D01*
X58547660Y-794635D01*
X58470320Y-762600D01*
X58371885Y-696827D01*
X58288173Y-613115D01*
X58222400Y-514680D01*
X58177096Y-405304D01*
X58175976Y-399671D01*
X58160167Y-320196D01*
X58154000Y-289195D01*
X58154000Y-170805D01*
X58177096Y-54696D01*
X58222400Y54680D01*
X58288173Y153115D01*
X58371885Y236827D01*
X58470320Y302600D01*
X58547660Y334635D01*
X58579695Y347904D01*
X58618399Y355603D01*
X58695805Y371000D01*
X58814195Y371000D01*
X58891601Y355603D01*
G37*
G36*
X56891601Y355603D02*
G01*
X56930305Y347904D01*
X56962340Y334635D01*
X57039680Y302600D01*
X57138115Y236827D01*
X57221827Y153115D01*
X57287600Y54680D01*
X57332904Y-54696D01*
X57356000Y-170805D01*
X57356000Y-289195D01*
X57349833Y-320196D01*
X57334025Y-399671D01*
X57332904Y-405304D01*
X57287600Y-514680D01*
X57221827Y-613115D01*
X57138115Y-696827D01*
X57039680Y-762600D01*
X56962340Y-794635D01*
X56930305Y-807904D01*
X56891601Y-815603D01*
X56814195Y-831000D01*
X56695805Y-831000D01*
X56618399Y-815603D01*
X56579695Y-807904D01*
X56547660Y-794635D01*
X56470320Y-762600D01*
X56371885Y-696827D01*
X56288173Y-613115D01*
X56222400Y-514680D01*
X56177096Y-405304D01*
X56175976Y-399671D01*
X56160167Y-320196D01*
X56154000Y-289195D01*
X56154000Y-170805D01*
X56177096Y-54696D01*
X56222400Y54680D01*
X56288173Y153115D01*
X56371885Y236827D01*
X56470320Y302600D01*
X56547660Y334635D01*
X56579695Y347904D01*
X56618399Y355603D01*
X56695805Y371000D01*
X56814195Y371000D01*
X56891601Y355603D01*
G37*
G36*
X92891601Y355603D02*
G01*
X92930305Y347904D01*
X92962340Y334635D01*
X93039680Y302600D01*
X93138115Y236827D01*
X93221827Y153115D01*
X93287600Y54680D01*
X93332904Y-54696D01*
X93356000Y-170805D01*
X93356000Y-289195D01*
X93349833Y-320196D01*
X93334025Y-399671D01*
X93332904Y-405304D01*
X93287600Y-514680D01*
X93221827Y-613115D01*
X93138115Y-696827D01*
X93039680Y-762600D01*
X92962340Y-794635D01*
X92930305Y-807904D01*
X92891601Y-815603D01*
X92814195Y-831000D01*
X92695805Y-831000D01*
X92618399Y-815603D01*
X92579695Y-807904D01*
X92547660Y-794635D01*
X92470320Y-762600D01*
X92371885Y-696827D01*
X92288173Y-613115D01*
X92222400Y-514680D01*
X92177096Y-405304D01*
X92175976Y-399671D01*
X92160167Y-320196D01*
X92154000Y-289195D01*
X92154000Y-170805D01*
X92177096Y-54696D01*
X92222400Y54680D01*
X92288173Y153115D01*
X92371885Y236827D01*
X92470320Y302600D01*
X92547660Y334635D01*
X92579695Y347904D01*
X92618399Y355603D01*
X92695805Y371000D01*
X92814195Y371000D01*
X92891601Y355603D01*
G37*
G36*
X54891601Y355603D02*
G01*
X54930305Y347904D01*
X54962340Y334635D01*
X55039680Y302600D01*
X55138115Y236827D01*
X55221827Y153115D01*
X55287600Y54680D01*
X55332904Y-54696D01*
X55356000Y-170805D01*
X55356000Y-289195D01*
X55349833Y-320196D01*
X55334025Y-399671D01*
X55332904Y-405304D01*
X55287600Y-514680D01*
X55221827Y-613115D01*
X55138115Y-696827D01*
X55039680Y-762600D01*
X54962340Y-794635D01*
X54930305Y-807904D01*
X54891601Y-815603D01*
X54814195Y-831000D01*
X54695805Y-831000D01*
X54618399Y-815603D01*
X54579695Y-807904D01*
X54547660Y-794635D01*
X54470320Y-762600D01*
X54371885Y-696827D01*
X54288173Y-613115D01*
X54222400Y-514680D01*
X54177096Y-405304D01*
X54175976Y-399671D01*
X54160167Y-320196D01*
X54154000Y-289195D01*
X54154000Y-170805D01*
X54177096Y-54696D01*
X54222400Y54680D01*
X54288173Y153115D01*
X54371885Y236827D01*
X54470320Y302600D01*
X54547660Y334635D01*
X54579695Y347904D01*
X54618399Y355603D01*
X54695805Y371000D01*
X54814195Y371000D01*
X54891601Y355603D01*
G37*
G36*
X52891601Y355603D02*
G01*
X52930305Y347904D01*
X52962340Y334635D01*
X53039680Y302600D01*
X53138115Y236827D01*
X53221827Y153115D01*
X53287600Y54680D01*
X53332904Y-54696D01*
X53356000Y-170805D01*
X53356000Y-289195D01*
X53349833Y-320196D01*
X53334025Y-399671D01*
X53332904Y-405304D01*
X53287600Y-514680D01*
X53221827Y-613115D01*
X53138115Y-696827D01*
X53039680Y-762600D01*
X52962340Y-794635D01*
X52930305Y-807904D01*
X52891601Y-815603D01*
X52814195Y-831000D01*
X52695805Y-831000D01*
X52618399Y-815603D01*
X52579695Y-807904D01*
X52547660Y-794635D01*
X52470320Y-762600D01*
X52371885Y-696827D01*
X52288173Y-613115D01*
X52222400Y-514680D01*
X52177096Y-405304D01*
X52175976Y-399671D01*
X52160167Y-320196D01*
X52154000Y-289195D01*
X52154000Y-170805D01*
X52177096Y-54696D01*
X52222400Y54680D01*
X52288173Y153115D01*
X52371885Y236827D01*
X52470320Y302600D01*
X52547660Y334635D01*
X52579695Y347904D01*
X52618399Y355603D01*
X52695805Y371000D01*
X52814195Y371000D01*
X52891601Y355603D01*
G37*
G36*
X94891601Y355603D02*
G01*
X94930305Y347904D01*
X94962340Y334635D01*
X95039680Y302600D01*
X95138115Y236827D01*
X95221827Y153115D01*
X95287600Y54680D01*
X95332904Y-54696D01*
X95356000Y-170805D01*
X95356000Y-289195D01*
X95349833Y-320196D01*
X95334025Y-399671D01*
X95332904Y-405304D01*
X95287600Y-514680D01*
X95221827Y-613115D01*
X95138115Y-696827D01*
X95039680Y-762600D01*
X94962340Y-794635D01*
X94930305Y-807904D01*
X94891601Y-815603D01*
X94814195Y-831000D01*
X94695805Y-831000D01*
X94618399Y-815603D01*
X94579695Y-807904D01*
X94547660Y-794635D01*
X94470320Y-762600D01*
X94371885Y-696827D01*
X94288173Y-613115D01*
X94222400Y-514680D01*
X94177096Y-405304D01*
X94175976Y-399671D01*
X94160167Y-320196D01*
X94154000Y-289195D01*
X94154000Y-170805D01*
X94177096Y-54696D01*
X94222400Y54680D01*
X94288173Y153115D01*
X94371885Y236827D01*
X94470320Y302600D01*
X94547660Y334635D01*
X94579695Y347904D01*
X94618399Y355603D01*
X94695805Y371000D01*
X94814195Y371000D01*
X94891601Y355603D01*
G37*
G36*
X50891601Y355603D02*
G01*
X50930305Y347904D01*
X50962340Y334635D01*
X51039680Y302600D01*
X51138115Y236827D01*
X51221827Y153115D01*
X51287600Y54680D01*
X51332904Y-54696D01*
X51356000Y-170805D01*
X51356000Y-289195D01*
X51349833Y-320196D01*
X51334025Y-399671D01*
X51332904Y-405304D01*
X51287600Y-514680D01*
X51221827Y-613115D01*
X51138115Y-696827D01*
X51039680Y-762600D01*
X50962340Y-794635D01*
X50930305Y-807904D01*
X50891601Y-815603D01*
X50814195Y-831000D01*
X50695805Y-831000D01*
X50618399Y-815603D01*
X50579695Y-807904D01*
X50547660Y-794635D01*
X50470320Y-762600D01*
X50371885Y-696827D01*
X50288173Y-613115D01*
X50222400Y-514680D01*
X50177096Y-405304D01*
X50175976Y-399671D01*
X50160167Y-320196D01*
X50154000Y-289195D01*
X50154000Y-170805D01*
X50177096Y-54696D01*
X50222400Y54680D01*
X50288173Y153115D01*
X50371885Y236827D01*
X50470320Y302600D01*
X50547660Y334635D01*
X50579695Y347904D01*
X50618399Y355603D01*
X50695805Y371000D01*
X50814195Y371000D01*
X50891601Y355603D01*
G37*
G36*
X80891601Y355603D02*
G01*
X80930305Y347904D01*
X80962340Y334635D01*
X81039680Y302600D01*
X81138115Y236827D01*
X81221827Y153115D01*
X81287600Y54680D01*
X81332904Y-54696D01*
X81356000Y-170805D01*
X81356000Y-289195D01*
X81349833Y-320196D01*
X81334025Y-399671D01*
X81332904Y-405304D01*
X81287600Y-514680D01*
X81221827Y-613115D01*
X81138115Y-696827D01*
X81039680Y-762600D01*
X80962340Y-794635D01*
X80930305Y-807904D01*
X80891601Y-815603D01*
X80814195Y-831000D01*
X80695805Y-831000D01*
X80618399Y-815603D01*
X80579695Y-807904D01*
X80547660Y-794635D01*
X80470320Y-762600D01*
X80371885Y-696827D01*
X80288173Y-613115D01*
X80222400Y-514680D01*
X80177096Y-405304D01*
X80175976Y-399671D01*
X80160167Y-320196D01*
X80154000Y-289195D01*
X80154000Y-170805D01*
X80177096Y-54696D01*
X80222400Y54680D01*
X80288173Y153115D01*
X80371885Y236827D01*
X80470320Y302600D01*
X80547660Y334635D01*
X80579695Y347904D01*
X80618399Y355603D01*
X80695805Y371000D01*
X80814195Y371000D01*
X80891601Y355603D01*
G37*
G36*
X46891601Y355603D02*
G01*
X46930305Y347904D01*
X46962340Y334635D01*
X47039680Y302600D01*
X47138115Y236827D01*
X47221827Y153115D01*
X47287600Y54680D01*
X47332904Y-54696D01*
X47356000Y-170805D01*
X47356000Y-289195D01*
X47349833Y-320196D01*
X47334025Y-399671D01*
X47332904Y-405304D01*
X47287600Y-514680D01*
X47221827Y-613115D01*
X47138115Y-696827D01*
X47039680Y-762600D01*
X46962340Y-794635D01*
X46930305Y-807904D01*
X46891601Y-815603D01*
X46814195Y-831000D01*
X46695805Y-831000D01*
X46618399Y-815603D01*
X46579695Y-807904D01*
X46547660Y-794635D01*
X46470320Y-762600D01*
X46371885Y-696827D01*
X46288173Y-613115D01*
X46222400Y-514680D01*
X46177096Y-405304D01*
X46175976Y-399671D01*
X46160167Y-320196D01*
X46154000Y-289195D01*
X46154000Y-170805D01*
X46177096Y-54696D01*
X46222400Y54680D01*
X46288173Y153115D01*
X46371885Y236827D01*
X46470320Y302600D01*
X46547660Y334635D01*
X46579695Y347904D01*
X46618399Y355603D01*
X46695805Y371000D01*
X46814195Y371000D01*
X46891601Y355603D01*
G37*
G36*
X44891601Y355603D02*
G01*
X44930305Y347904D01*
X44962340Y334635D01*
X45039680Y302600D01*
X45138115Y236827D01*
X45221827Y153115D01*
X45287600Y54680D01*
X45332904Y-54696D01*
X45356000Y-170805D01*
X45356000Y-289195D01*
X45349833Y-320196D01*
X45334025Y-399671D01*
X45332904Y-405304D01*
X45287600Y-514680D01*
X45221827Y-613115D01*
X45138115Y-696827D01*
X45039680Y-762600D01*
X44962340Y-794635D01*
X44930305Y-807904D01*
X44891601Y-815603D01*
X44814195Y-831000D01*
X44695805Y-831000D01*
X44618399Y-815603D01*
X44579695Y-807904D01*
X44547660Y-794635D01*
X44470320Y-762600D01*
X44371885Y-696827D01*
X44288173Y-613115D01*
X44222400Y-514680D01*
X44177096Y-405304D01*
X44175976Y-399671D01*
X44160167Y-320196D01*
X44154000Y-289195D01*
X44154000Y-170805D01*
X44177096Y-54696D01*
X44222400Y54680D01*
X44288173Y153115D01*
X44371885Y236827D01*
X44470320Y302600D01*
X44547660Y334635D01*
X44579695Y347904D01*
X44618399Y355603D01*
X44695805Y371000D01*
X44814195Y371000D01*
X44891601Y355603D01*
G37*
G36*
X16891601Y355603D02*
G01*
X16930305Y347904D01*
X16962340Y334635D01*
X17039680Y302600D01*
X17138115Y236827D01*
X17221827Y153115D01*
X17287600Y54680D01*
X17332904Y-54696D01*
X17356000Y-170805D01*
X17356000Y-289195D01*
X17349833Y-320196D01*
X17334025Y-399671D01*
X17332904Y-405304D01*
X17287600Y-514680D01*
X17221827Y-613115D01*
X17138115Y-696827D01*
X17039680Y-762600D01*
X16962340Y-794635D01*
X16930305Y-807904D01*
X16891601Y-815603D01*
X16814195Y-831000D01*
X16695805Y-831000D01*
X16618399Y-815603D01*
X16579695Y-807904D01*
X16547660Y-794635D01*
X16470320Y-762600D01*
X16371885Y-696827D01*
X16288173Y-613115D01*
X16222400Y-514680D01*
X16177096Y-405304D01*
X16175976Y-399671D01*
X16160167Y-320196D01*
X16154000Y-289195D01*
X16154000Y-170805D01*
X16177096Y-54696D01*
X16222400Y54680D01*
X16288173Y153115D01*
X16371885Y236827D01*
X16470320Y302600D01*
X16547660Y334635D01*
X16579695Y347904D01*
X16618399Y355603D01*
X16695805Y371000D01*
X16814195Y371000D01*
X16891601Y355603D01*
G37*
G36*
X14891601Y355603D02*
G01*
X14930305Y347904D01*
X14962340Y334635D01*
X15039680Y302600D01*
X15138115Y236827D01*
X15221827Y153115D01*
X15287600Y54680D01*
X15332904Y-54696D01*
X15356000Y-170805D01*
X15356000Y-289195D01*
X15349833Y-320196D01*
X15334025Y-399671D01*
X15332904Y-405304D01*
X15287600Y-514680D01*
X15221827Y-613115D01*
X15138115Y-696827D01*
X15039680Y-762600D01*
X14962340Y-794635D01*
X14930305Y-807904D01*
X14891601Y-815603D01*
X14814195Y-831000D01*
X14695805Y-831000D01*
X14618399Y-815603D01*
X14579695Y-807904D01*
X14547660Y-794635D01*
X14470320Y-762600D01*
X14371885Y-696827D01*
X14288173Y-613115D01*
X14222400Y-514680D01*
X14177096Y-405304D01*
X14175976Y-399671D01*
X14160167Y-320196D01*
X14154000Y-289195D01*
X14154000Y-170805D01*
X14177096Y-54696D01*
X14222400Y54680D01*
X14288173Y153115D01*
X14371885Y236827D01*
X14470320Y302600D01*
X14547660Y334635D01*
X14579695Y347904D01*
X14618399Y355603D01*
X14695805Y371000D01*
X14814195Y371000D01*
X14891601Y355603D01*
G37*
G36*
X12891601Y355603D02*
G01*
X12930305Y347904D01*
X12962340Y334635D01*
X13039680Y302600D01*
X13138115Y236827D01*
X13221827Y153115D01*
X13287600Y54680D01*
X13332904Y-54696D01*
X13356000Y-170805D01*
X13356000Y-289195D01*
X13349833Y-320196D01*
X13334025Y-399671D01*
X13332904Y-405304D01*
X13287600Y-514680D01*
X13221827Y-613115D01*
X13138115Y-696827D01*
X13039680Y-762600D01*
X12962340Y-794635D01*
X12930305Y-807904D01*
X12891601Y-815603D01*
X12814195Y-831000D01*
X12695805Y-831000D01*
X12618399Y-815603D01*
X12579695Y-807904D01*
X12547660Y-794635D01*
X12470320Y-762600D01*
X12371885Y-696827D01*
X12288173Y-613115D01*
X12222400Y-514680D01*
X12177096Y-405304D01*
X12175976Y-399671D01*
X12160167Y-320196D01*
X12154000Y-289195D01*
X12154000Y-170805D01*
X12177096Y-54696D01*
X12222400Y54680D01*
X12288173Y153115D01*
X12371885Y236827D01*
X12470320Y302600D01*
X12547660Y334635D01*
X12579695Y347904D01*
X12618399Y355603D01*
X12695805Y371000D01*
X12814195Y371000D01*
X12891601Y355603D01*
G37*
G36*
X34891601Y355603D02*
G01*
X34930305Y347904D01*
X34962340Y334635D01*
X35039680Y302600D01*
X35138115Y236827D01*
X35221827Y153115D01*
X35287600Y54680D01*
X35332904Y-54696D01*
X35356000Y-170805D01*
X35356000Y-289195D01*
X35349833Y-320196D01*
X35334025Y-399671D01*
X35332904Y-405304D01*
X35287600Y-514680D01*
X35221827Y-613115D01*
X35138115Y-696827D01*
X35039680Y-762600D01*
X34962340Y-794635D01*
X34930305Y-807904D01*
X34891601Y-815603D01*
X34814195Y-831000D01*
X34695805Y-831000D01*
X34618399Y-815603D01*
X34579695Y-807904D01*
X34547660Y-794635D01*
X34470320Y-762600D01*
X34371885Y-696827D01*
X34288173Y-613115D01*
X34222400Y-514680D01*
X34177096Y-405304D01*
X34175976Y-399671D01*
X34160167Y-320196D01*
X34154000Y-289195D01*
X34154000Y-170805D01*
X34177096Y-54696D01*
X34222400Y54680D01*
X34288173Y153115D01*
X34371885Y236827D01*
X34470320Y302600D01*
X34547660Y334635D01*
X34579695Y347904D01*
X34618399Y355603D01*
X34695805Y371000D01*
X34814195Y371000D01*
X34891601Y355603D01*
G37*
G36*
X40891601Y355603D02*
G01*
X40930305Y347904D01*
X40962340Y334635D01*
X41039680Y302600D01*
X41138115Y236827D01*
X41221827Y153115D01*
X41287600Y54680D01*
X41332904Y-54696D01*
X41356000Y-170805D01*
X41356000Y-289195D01*
X41349833Y-320196D01*
X41334025Y-399671D01*
X41332904Y-405304D01*
X41287600Y-514680D01*
X41221827Y-613115D01*
X41138115Y-696827D01*
X41039680Y-762600D01*
X40962340Y-794635D01*
X40930305Y-807904D01*
X40891601Y-815603D01*
X40814195Y-831000D01*
X40695805Y-831000D01*
X40618399Y-815603D01*
X40579695Y-807904D01*
X40547660Y-794635D01*
X40470320Y-762600D01*
X40371885Y-696827D01*
X40288173Y-613115D01*
X40222400Y-514680D01*
X40177096Y-405304D01*
X40175976Y-399671D01*
X40160167Y-320196D01*
X40154000Y-289195D01*
X40154000Y-170805D01*
X40177096Y-54696D01*
X40222400Y54680D01*
X40288173Y153115D01*
X40371885Y236827D01*
X40470320Y302600D01*
X40547660Y334635D01*
X40579695Y347904D01*
X40618399Y355603D01*
X40695805Y371000D01*
X40814195Y371000D01*
X40891601Y355603D01*
G37*
G36*
X38891601Y355603D02*
G01*
X38930305Y347904D01*
X38962340Y334635D01*
X39039680Y302600D01*
X39138115Y236827D01*
X39221827Y153115D01*
X39287600Y54680D01*
X39332904Y-54696D01*
X39356000Y-170805D01*
X39356000Y-289195D01*
X39349833Y-320196D01*
X39334025Y-399671D01*
X39332904Y-405304D01*
X39287600Y-514680D01*
X39221827Y-613115D01*
X39138115Y-696827D01*
X39039680Y-762600D01*
X38962340Y-794635D01*
X38930305Y-807904D01*
X38891601Y-815603D01*
X38814195Y-831000D01*
X38695805Y-831000D01*
X38618399Y-815603D01*
X38579695Y-807904D01*
X38547660Y-794635D01*
X38470320Y-762600D01*
X38371885Y-696827D01*
X38288173Y-613115D01*
X38222400Y-514680D01*
X38177096Y-405304D01*
X38175976Y-399671D01*
X38160167Y-320196D01*
X38154000Y-289195D01*
X38154000Y-170805D01*
X38177096Y-54696D01*
X38222400Y54680D01*
X38288173Y153115D01*
X38371885Y236827D01*
X38470320Y302600D01*
X38547660Y334635D01*
X38579695Y347904D01*
X38618399Y355603D01*
X38695805Y371000D01*
X38814195Y371000D01*
X38891601Y355603D01*
G37*
G36*
X36891601Y355603D02*
G01*
X36930305Y347904D01*
X36962340Y334635D01*
X37039680Y302600D01*
X37138115Y236827D01*
X37221827Y153115D01*
X37287600Y54680D01*
X37332904Y-54696D01*
X37356000Y-170805D01*
X37356000Y-289195D01*
X37349833Y-320196D01*
X37334025Y-399671D01*
X37332904Y-405304D01*
X37287600Y-514680D01*
X37221827Y-613115D01*
X37138115Y-696827D01*
X37039680Y-762600D01*
X36962340Y-794635D01*
X36930305Y-807904D01*
X36891601Y-815603D01*
X36814195Y-831000D01*
X36695805Y-831000D01*
X36618399Y-815603D01*
X36579695Y-807904D01*
X36547660Y-794635D01*
X36470320Y-762600D01*
X36371885Y-696827D01*
X36288173Y-613115D01*
X36222400Y-514680D01*
X36177096Y-405304D01*
X36175976Y-399671D01*
X36160167Y-320196D01*
X36154000Y-289195D01*
X36154000Y-170805D01*
X36177096Y-54696D01*
X36222400Y54680D01*
X36288173Y153115D01*
X36371885Y236827D01*
X36470320Y302600D01*
X36547660Y334635D01*
X36579695Y347904D01*
X36618399Y355603D01*
X36695805Y371000D01*
X36814195Y371000D01*
X36891601Y355603D01*
G37*
G36*
X20891601Y355603D02*
G01*
X20930305Y347904D01*
X20962340Y334635D01*
X21039680Y302600D01*
X21138115Y236827D01*
X21221827Y153115D01*
X21287600Y54680D01*
X21332904Y-54696D01*
X21356000Y-170805D01*
X21356000Y-289195D01*
X21349833Y-320196D01*
X21334025Y-399671D01*
X21332904Y-405304D01*
X21287600Y-514680D01*
X21221827Y-613115D01*
X21138115Y-696827D01*
X21039680Y-762600D01*
X20962340Y-794635D01*
X20930305Y-807904D01*
X20891601Y-815603D01*
X20814195Y-831000D01*
X20695805Y-831000D01*
X20618399Y-815603D01*
X20579695Y-807904D01*
X20547660Y-794635D01*
X20470320Y-762600D01*
X20371885Y-696827D01*
X20288173Y-613115D01*
X20222400Y-514680D01*
X20177096Y-405304D01*
X20175976Y-399671D01*
X20160167Y-320196D01*
X20154000Y-289195D01*
X20154000Y-170805D01*
X20177096Y-54696D01*
X20222400Y54680D01*
X20288173Y153115D01*
X20371885Y236827D01*
X20470320Y302600D01*
X20547660Y334635D01*
X20579695Y347904D01*
X20618399Y355603D01*
X20695805Y371000D01*
X20814195Y371000D01*
X20891601Y355603D01*
G37*
G36*
X32891601Y355603D02*
G01*
X32930305Y347904D01*
X32962340Y334635D01*
X33039680Y302600D01*
X33138115Y236827D01*
X33221827Y153115D01*
X33287600Y54680D01*
X33332904Y-54696D01*
X33356000Y-170805D01*
X33356000Y-289195D01*
X33349833Y-320196D01*
X33334025Y-399671D01*
X33332904Y-405304D01*
X33287600Y-514680D01*
X33221827Y-613115D01*
X33138115Y-696827D01*
X33039680Y-762600D01*
X32962340Y-794635D01*
X32930305Y-807904D01*
X32891601Y-815603D01*
X32814195Y-831000D01*
X32695805Y-831000D01*
X32618399Y-815603D01*
X32579695Y-807904D01*
X32547660Y-794635D01*
X32470320Y-762600D01*
X32371885Y-696827D01*
X32288173Y-613115D01*
X32222400Y-514680D01*
X32177096Y-405304D01*
X32175976Y-399671D01*
X32160167Y-320196D01*
X32154000Y-289195D01*
X32154000Y-170805D01*
X32177096Y-54696D01*
X32222400Y54680D01*
X32288173Y153115D01*
X32371885Y236827D01*
X32470320Y302600D01*
X32547660Y334635D01*
X32579695Y347904D01*
X32618399Y355603D01*
X32695805Y371000D01*
X32814195Y371000D01*
X32891601Y355603D01*
G37*
G36*
X30891601Y355603D02*
G01*
X30930305Y347904D01*
X30962340Y334635D01*
X31039680Y302600D01*
X31138115Y236827D01*
X31221827Y153115D01*
X31287600Y54680D01*
X31332904Y-54696D01*
X31356000Y-170805D01*
X31356000Y-289195D01*
X31349833Y-320196D01*
X31334025Y-399671D01*
X31332904Y-405304D01*
X31287600Y-514680D01*
X31221827Y-613115D01*
X31138115Y-696827D01*
X31039680Y-762600D01*
X30962340Y-794635D01*
X30930305Y-807904D01*
X30891601Y-815603D01*
X30814195Y-831000D01*
X30695805Y-831000D01*
X30618399Y-815603D01*
X30579695Y-807904D01*
X30547660Y-794635D01*
X30470320Y-762600D01*
X30371885Y-696827D01*
X30288173Y-613115D01*
X30222400Y-514680D01*
X30177096Y-405304D01*
X30175976Y-399671D01*
X30160167Y-320196D01*
X30154000Y-289195D01*
X30154000Y-170805D01*
X30177096Y-54696D01*
X30222400Y54680D01*
X30288173Y153115D01*
X30371885Y236827D01*
X30470320Y302600D01*
X30547660Y334635D01*
X30579695Y347904D01*
X30618399Y355603D01*
X30695805Y371000D01*
X30814195Y371000D01*
X30891601Y355603D01*
G37*
G36*
X48891601Y355603D02*
G01*
X48930305Y347904D01*
X48962340Y334635D01*
X49039680Y302600D01*
X49138115Y236827D01*
X49221827Y153115D01*
X49287600Y54680D01*
X49332904Y-54696D01*
X49356000Y-170805D01*
X49356000Y-289195D01*
X49349833Y-320196D01*
X49334025Y-399671D01*
X49332904Y-405304D01*
X49287600Y-514680D01*
X49221827Y-613115D01*
X49138115Y-696827D01*
X49039680Y-762600D01*
X48962340Y-794635D01*
X48930305Y-807904D01*
X48891601Y-815603D01*
X48814195Y-831000D01*
X48695805Y-831000D01*
X48618399Y-815603D01*
X48579695Y-807904D01*
X48547660Y-794635D01*
X48470320Y-762600D01*
X48371885Y-696827D01*
X48288173Y-613115D01*
X48222400Y-514680D01*
X48177096Y-405304D01*
X48175976Y-399671D01*
X48160167Y-320196D01*
X48154000Y-289195D01*
X48154000Y-170805D01*
X48177096Y-54696D01*
X48222400Y54680D01*
X48288173Y153115D01*
X48371885Y236827D01*
X48470320Y302600D01*
X48547660Y334635D01*
X48579695Y347904D01*
X48618399Y355603D01*
X48695805Y371000D01*
X48814195Y371000D01*
X48891601Y355603D01*
G37*
G36*
X28891601Y355603D02*
G01*
X28930305Y347904D01*
X28962340Y334635D01*
X29039680Y302600D01*
X29138115Y236827D01*
X29221827Y153115D01*
X29287600Y54680D01*
X29332904Y-54696D01*
X29356000Y-170805D01*
X29356000Y-289195D01*
X29349833Y-320196D01*
X29334025Y-399671D01*
X29332904Y-405304D01*
X29287600Y-514680D01*
X29221827Y-613115D01*
X29138115Y-696827D01*
X29039680Y-762600D01*
X28962340Y-794635D01*
X28930305Y-807904D01*
X28891601Y-815603D01*
X28814195Y-831000D01*
X28695805Y-831000D01*
X28618399Y-815603D01*
X28579695Y-807904D01*
X28547660Y-794635D01*
X28470320Y-762600D01*
X28371885Y-696827D01*
X28288173Y-613115D01*
X28222400Y-514680D01*
X28177096Y-405304D01*
X28175976Y-399671D01*
X28160167Y-320196D01*
X28154000Y-289195D01*
X28154000Y-170805D01*
X28177096Y-54696D01*
X28222400Y54680D01*
X28288173Y153115D01*
X28371885Y236827D01*
X28470320Y302600D01*
X28547660Y334635D01*
X28579695Y347904D01*
X28618399Y355603D01*
X28695805Y371000D01*
X28814195Y371000D01*
X28891601Y355603D01*
G37*
G36*
X22864472Y2860999D02*
G01*
X22930305Y2847904D01*
X22962340Y2834635D01*
X23039680Y2802600D01*
X23138115Y2736827D01*
X23221827Y2653115D01*
X23287600Y2554680D01*
X23332904Y2445304D01*
X23356000Y2329195D01*
X23356000Y2210805D01*
X23353648Y2198981D01*
X23351246Y2174595D01*
X23353648Y2150209D01*
X23360761Y2126760D01*
X23372312Y2105149D01*
X23387857Y2086207D01*
X23406799Y2070662D01*
X23428410Y2059111D01*
X23451859Y2051998D01*
X23476245Y2049596D01*
X23500631Y2051998D01*
X23524080Y2059111D01*
X23545691Y2070662D01*
X23718861Y2186371D01*
X23765061Y2217241D01*
X23840402Y2248448D01*
X24010928Y2319082D01*
X24271937Y2371000D01*
X24538063Y2371000D01*
X24799072Y2319082D01*
X24969599Y2248448D01*
X25044939Y2217241D01*
X25091139Y2186371D01*
X25264309Y2070662D01*
X25266212Y2069390D01*
X25454390Y1881212D01*
X25596187Y1669000D01*
X25602242Y1659937D01*
X25704082Y1414072D01*
X25756000Y1153063D01*
X25756000Y886937D01*
X25704082Y625928D01*
X25616162Y413668D01*
X25602241Y380061D01*
X25540391Y287496D01*
X25454391Y158789D01*
X25266211Y-29391D01*
X25180352Y-86760D01*
X25044939Y-177241D01*
X25044938Y-177242D01*
X25044937Y-177242D01*
X24799072Y-279082D01*
X24538063Y-331000D01*
X24271937Y-331000D01*
X24010928Y-279082D01*
X23765063Y-177242D01*
X23765062Y-177242D01*
X23765061Y-177241D01*
X23664741Y-110209D01*
X23545691Y-30662D01*
X23524080Y-19111D01*
X23500631Y-11998D01*
X23476245Y-9596D01*
X23451859Y-11998D01*
X23428410Y-19111D01*
X23406799Y-30662D01*
X23387857Y-46207D01*
X23372312Y-65149D01*
X23360761Y-86760D01*
X23353648Y-110209D01*
X23351246Y-134595D01*
X23353648Y-158981D01*
X23356000Y-170805D01*
X23356000Y-289195D01*
X23349833Y-320196D01*
X23334025Y-399671D01*
X23332904Y-405304D01*
X23287600Y-514680D01*
X23221827Y-613115D01*
X23138115Y-696827D01*
X23039680Y-762600D01*
X22962340Y-794635D01*
X22930305Y-807904D01*
X22891601Y-815603D01*
X22814195Y-831000D01*
X22695805Y-831000D01*
X22618399Y-815603D01*
X22579695Y-807904D01*
X22547660Y-794635D01*
X22470320Y-762600D01*
X22371885Y-696827D01*
X22288173Y-613115D01*
X22222400Y-514680D01*
X22177096Y-405304D01*
X22175976Y-399671D01*
X22160167Y-320196D01*
X22154000Y-289195D01*
X22154000Y-170805D01*
X22177096Y-54696D01*
X22222400Y54680D01*
X22288173Y153115D01*
X22371885Y236827D01*
X22470320Y302600D01*
X22547660Y334635D01*
X22579695Y347904D01*
X22618399Y355603D01*
X22695805Y371000D01*
X22814195Y371000D01*
X22891601Y355603D01*
X22930305Y347904D01*
X22974610Y329552D01*
X23002497Y318001D01*
X23025946Y310888D01*
X23050332Y308486D01*
X23074718Y310888D01*
X23098167Y318001D01*
X23119778Y329552D01*
X23138720Y345098D01*
X23154265Y364039D01*
X23165816Y385650D01*
X23172929Y409099D01*
X23175331Y433485D01*
X23172929Y457871D01*
X23165816Y481320D01*
X23105918Y625928D01*
X23054000Y886937D01*
X23054000Y1153063D01*
X23105918Y1414072D01*
X23165816Y1558680D01*
X23172929Y1582129D01*
X23175331Y1606516D01*
X23172929Y1630902D01*
X23165816Y1654351D01*
X23154265Y1675961D01*
X23138719Y1694903D01*
X23119777Y1710448D01*
X23098167Y1721999D01*
X23074718Y1729112D01*
X23050331Y1731514D01*
X23025945Y1729112D01*
X23002496Y1721999D01*
X22930305Y1692096D01*
X22891601Y1684397D01*
X22814195Y1669000D01*
X22695805Y1669000D01*
X22618399Y1684397D01*
X22579695Y1692096D01*
X22547660Y1705365D01*
X22470320Y1737400D01*
X22371885Y1803173D01*
X22288173Y1886885D01*
X22222400Y1985320D01*
X22177096Y2094696D01*
X22154000Y2210805D01*
X22154000Y2329195D01*
X22177096Y2445304D01*
X22222400Y2554680D01*
X22288173Y2653115D01*
X22371885Y2736827D01*
X22470320Y2802600D01*
X22547660Y2834635D01*
X22579695Y2847904D01*
X22645528Y2860999D01*
X22695805Y2871000D01*
X22814195Y2871000D01*
X22864472Y2860999D01*
G37*
G36*
X18891601Y355603D02*
G01*
X18930305Y347904D01*
X18962340Y334635D01*
X19039680Y302600D01*
X19138115Y236827D01*
X19221827Y153115D01*
X19287600Y54680D01*
X19332904Y-54696D01*
X19356000Y-170805D01*
X19356000Y-289195D01*
X19349833Y-320196D01*
X19334025Y-399671D01*
X19332904Y-405304D01*
X19287600Y-514680D01*
X19221827Y-613115D01*
X19138115Y-696827D01*
X19039680Y-762600D01*
X18962340Y-794635D01*
X18930305Y-807904D01*
X18891601Y-815603D01*
X18814195Y-831000D01*
X18695805Y-831000D01*
X18618399Y-815603D01*
X18579695Y-807904D01*
X18547660Y-794635D01*
X18470320Y-762600D01*
X18371885Y-696827D01*
X18288173Y-613115D01*
X18222400Y-514680D01*
X18177096Y-405304D01*
X18175976Y-399671D01*
X18160167Y-320196D01*
X18154000Y-289195D01*
X18154000Y-170805D01*
X18177096Y-54696D01*
X18222400Y54680D01*
X18288173Y153115D01*
X18371885Y236827D01*
X18470320Y302600D01*
X18547660Y334635D01*
X18579695Y347904D01*
X18618399Y355603D01*
X18695805Y371000D01*
X18814195Y371000D01*
X18891601Y355603D01*
G37*
G36*
X90891601Y355603D02*
G01*
X90930305Y347904D01*
X90962340Y334635D01*
X91039680Y302600D01*
X91138115Y236827D01*
X91221827Y153115D01*
X91287600Y54680D01*
X91332904Y-54696D01*
X91356000Y-170805D01*
X91356000Y-289195D01*
X91349833Y-320196D01*
X91334025Y-399671D01*
X91332904Y-405304D01*
X91287600Y-514680D01*
X91221827Y-613115D01*
X91138115Y-696827D01*
X91039680Y-762600D01*
X90962340Y-794635D01*
X90930305Y-807904D01*
X90891601Y-815603D01*
X90814195Y-831000D01*
X90695805Y-831000D01*
X90618399Y-815603D01*
X90579695Y-807904D01*
X90547660Y-794635D01*
X90470320Y-762600D01*
X90371885Y-696827D01*
X90288173Y-613115D01*
X90222400Y-514680D01*
X90177096Y-405304D01*
X90175976Y-399671D01*
X90160167Y-320196D01*
X90154000Y-289195D01*
X90154000Y-170805D01*
X90177096Y-54696D01*
X90222400Y54680D01*
X90288173Y153115D01*
X90371885Y236827D01*
X90470320Y302600D01*
X90547660Y334635D01*
X90579695Y347904D01*
X90618399Y355603D01*
X90695805Y371000D01*
X90814195Y371000D01*
X90891601Y355603D01*
G37*
G36*
X72891601Y355603D02*
G01*
X72930305Y347904D01*
X72962340Y334635D01*
X73039680Y302600D01*
X73138115Y236827D01*
X73221827Y153115D01*
X73287600Y54680D01*
X73332904Y-54696D01*
X73356000Y-170805D01*
X73356000Y-289195D01*
X73349833Y-320196D01*
X73334025Y-399671D01*
X73332904Y-405304D01*
X73287600Y-514680D01*
X73221827Y-613115D01*
X73138115Y-696827D01*
X73039680Y-762600D01*
X72962340Y-794635D01*
X72930305Y-807904D01*
X72891601Y-815603D01*
X72814195Y-831000D01*
X72695805Y-831000D01*
X72618399Y-815603D01*
X72579695Y-807904D01*
X72547660Y-794635D01*
X72470320Y-762600D01*
X72371885Y-696827D01*
X72288173Y-613115D01*
X72222400Y-514680D01*
X72177096Y-405304D01*
X72175976Y-399671D01*
X72160167Y-320196D01*
X72154000Y-289195D01*
X72154000Y-170805D01*
X72177096Y-54696D01*
X72222400Y54680D01*
X72288173Y153115D01*
X72371885Y236827D01*
X72470320Y302600D01*
X72547660Y334635D01*
X72579695Y347904D01*
X72618399Y355603D01*
X72695805Y371000D01*
X72814195Y371000D01*
X72891601Y355603D01*
G37*
G36*
X26891601Y355603D02*
G01*
X26930305Y347904D01*
X26962340Y334635D01*
X27039680Y302600D01*
X27138115Y236827D01*
X27221827Y153115D01*
X27287600Y54680D01*
X27332904Y-54696D01*
X27356000Y-170805D01*
X27356000Y-289195D01*
X27349833Y-320196D01*
X27334025Y-399671D01*
X27332904Y-405304D01*
X27287600Y-514680D01*
X27221827Y-613115D01*
X27138115Y-696827D01*
X27039680Y-762600D01*
X26962340Y-794635D01*
X26930305Y-807904D01*
X26891601Y-815603D01*
X26814195Y-831000D01*
X26695805Y-831000D01*
X26618399Y-815603D01*
X26579695Y-807904D01*
X26547660Y-794635D01*
X26470320Y-762600D01*
X26371885Y-696827D01*
X26288173Y-613115D01*
X26222400Y-514680D01*
X26177096Y-405304D01*
X26175976Y-399671D01*
X26160167Y-320196D01*
X26154000Y-289195D01*
X26154000Y-170805D01*
X26177096Y-54696D01*
X26222400Y54680D01*
X26288173Y153115D01*
X26371885Y236827D01*
X26470320Y302600D01*
X26547660Y334635D01*
X26579695Y347904D01*
X26618399Y355603D01*
X26695805Y371000D01*
X26814195Y371000D01*
X26891601Y355603D01*
G37*
G36*
X62891601Y355603D02*
G01*
X62930305Y347904D01*
X62962340Y334635D01*
X63039680Y302600D01*
X63138115Y236827D01*
X63221827Y153115D01*
X63287600Y54680D01*
X63332904Y-54696D01*
X63356000Y-170805D01*
X63356000Y-289195D01*
X63349833Y-320196D01*
X63334025Y-399671D01*
X63332904Y-405304D01*
X63287600Y-514680D01*
X63221827Y-613115D01*
X63138115Y-696827D01*
X63039680Y-762600D01*
X62962340Y-794635D01*
X62930305Y-807904D01*
X62891601Y-815603D01*
X62814195Y-831000D01*
X62695805Y-831000D01*
X62618399Y-815603D01*
X62579695Y-807904D01*
X62547660Y-794635D01*
X62470320Y-762600D01*
X62371885Y-696827D01*
X62288173Y-613115D01*
X62222400Y-514680D01*
X62177096Y-405304D01*
X62175976Y-399671D01*
X62160167Y-320196D01*
X62154000Y-289195D01*
X62154000Y-170805D01*
X62177096Y-54696D01*
X62222400Y54680D01*
X62288173Y153115D01*
X62371885Y236827D01*
X62470320Y302600D01*
X62547660Y334635D01*
X62579695Y347904D01*
X62618399Y355603D01*
X62695805Y371000D01*
X62814195Y371000D01*
X62891601Y355603D01*
G37*
G36*
X78891601Y355603D02*
G01*
X78930305Y347904D01*
X78962340Y334635D01*
X79039680Y302600D01*
X79138115Y236827D01*
X79221827Y153115D01*
X79287600Y54680D01*
X79332904Y-54696D01*
X79356000Y-170805D01*
X79356000Y-289195D01*
X79349833Y-320196D01*
X79334025Y-399671D01*
X79332904Y-405304D01*
X79287600Y-514680D01*
X79221827Y-613115D01*
X79138115Y-696827D01*
X79039680Y-762600D01*
X78962340Y-794635D01*
X78930305Y-807904D01*
X78891601Y-815603D01*
X78814195Y-831000D01*
X78695805Y-831000D01*
X78618399Y-815603D01*
X78579695Y-807904D01*
X78547660Y-794635D01*
X78470320Y-762600D01*
X78371885Y-696827D01*
X78288173Y-613115D01*
X78222400Y-514680D01*
X78177096Y-405304D01*
X78175976Y-399671D01*
X78160167Y-320196D01*
X78154000Y-289195D01*
X78154000Y-170805D01*
X78177096Y-54696D01*
X78222400Y54680D01*
X78288173Y153115D01*
X78371885Y236827D01*
X78470320Y302600D01*
X78547660Y334635D01*
X78579695Y347904D01*
X78618399Y355603D01*
X78695805Y371000D01*
X78814195Y371000D01*
X78891601Y355603D01*
G37*
G36*
X76891601Y355603D02*
G01*
X76930305Y347904D01*
X76962340Y334635D01*
X77039680Y302600D01*
X77138115Y236827D01*
X77221827Y153115D01*
X77287600Y54680D01*
X77332904Y-54696D01*
X77356000Y-170805D01*
X77356000Y-289195D01*
X77349833Y-320196D01*
X77334025Y-399671D01*
X77332904Y-405304D01*
X77287600Y-514680D01*
X77221827Y-613115D01*
X77138115Y-696827D01*
X77039680Y-762600D01*
X76962340Y-794635D01*
X76930305Y-807904D01*
X76891601Y-815603D01*
X76814195Y-831000D01*
X76695805Y-831000D01*
X76618399Y-815603D01*
X76579695Y-807904D01*
X76547660Y-794635D01*
X76470320Y-762600D01*
X76371885Y-696827D01*
X76288173Y-613115D01*
X76222400Y-514680D01*
X76177096Y-405304D01*
X76175976Y-399671D01*
X76160167Y-320196D01*
X76154000Y-289195D01*
X76154000Y-170805D01*
X76177096Y-54696D01*
X76222400Y54680D01*
X76288173Y153115D01*
X76371885Y236827D01*
X76470320Y302600D01*
X76547660Y334635D01*
X76579695Y347904D01*
X76618399Y355603D01*
X76695805Y371000D01*
X76814195Y371000D01*
X76891601Y355603D01*
G37*
G36*
X82891601Y355603D02*
G01*
X82930305Y347904D01*
X82962340Y334635D01*
X83039680Y302600D01*
X83138115Y236827D01*
X83221827Y153115D01*
X83287600Y54680D01*
X83332904Y-54696D01*
X83356000Y-170805D01*
X83356000Y-289195D01*
X83349833Y-320196D01*
X83334025Y-399671D01*
X83332904Y-405304D01*
X83287600Y-514680D01*
X83221827Y-613115D01*
X83138115Y-696827D01*
X83039680Y-762600D01*
X82962340Y-794635D01*
X82930305Y-807904D01*
X82891601Y-815603D01*
X82814195Y-831000D01*
X82695805Y-831000D01*
X82618399Y-815603D01*
X82579695Y-807904D01*
X82547660Y-794635D01*
X82470320Y-762600D01*
X82371885Y-696827D01*
X82288173Y-613115D01*
X82222400Y-514680D01*
X82177096Y-405304D01*
X82175976Y-399671D01*
X82160167Y-320196D01*
X82154000Y-289195D01*
X82154000Y-170805D01*
X82177096Y-54696D01*
X82222400Y54680D01*
X82288173Y153115D01*
X82371885Y236827D01*
X82470320Y302600D01*
X82547660Y334635D01*
X82579695Y347904D01*
X82618399Y355603D01*
X82695805Y371000D01*
X82814195Y371000D01*
X82891601Y355603D01*
G37*
G36*
X74891601Y355603D02*
G01*
X74930305Y347904D01*
X74962340Y334635D01*
X75039680Y302600D01*
X75138115Y236827D01*
X75221827Y153115D01*
X75287600Y54680D01*
X75332904Y-54696D01*
X75356000Y-170805D01*
X75356000Y-289195D01*
X75349833Y-320196D01*
X75334025Y-399671D01*
X75332904Y-405304D01*
X75287600Y-514680D01*
X75221827Y-613115D01*
X75138115Y-696827D01*
X75039680Y-762600D01*
X74962340Y-794635D01*
X74930305Y-807904D01*
X74891601Y-815603D01*
X74814195Y-831000D01*
X74695805Y-831000D01*
X74618399Y-815603D01*
X74579695Y-807904D01*
X74547660Y-794635D01*
X74470320Y-762600D01*
X74371885Y-696827D01*
X74288173Y-613115D01*
X74222400Y-514680D01*
X74177096Y-405304D01*
X74175976Y-399671D01*
X74160167Y-320196D01*
X74154000Y-289195D01*
X74154000Y-170805D01*
X74177096Y-54696D01*
X74222400Y54680D01*
X74288173Y153115D01*
X74371885Y236827D01*
X74470320Y302600D01*
X74547660Y334635D01*
X74579695Y347904D01*
X74618399Y355603D01*
X74695805Y371000D01*
X74814195Y371000D01*
X74891601Y355603D01*
G37*
G36*
X97949072Y2319082D02*
G01*
X98119599Y2248448D01*
X98194939Y2217241D01*
X98241139Y2186371D01*
X98414309Y2070662D01*
X98416212Y2069390D01*
X98604390Y1881212D01*
X98746187Y1669000D01*
X98752242Y1659937D01*
X98854082Y1414072D01*
X98906000Y1153063D01*
X98906000Y886937D01*
X98854082Y625928D01*
X98766162Y413668D01*
X98752241Y380061D01*
X98690391Y287496D01*
X98604391Y158789D01*
X98416211Y-29391D01*
X98330352Y-86760D01*
X98194939Y-177241D01*
X98194938Y-177242D01*
X98194937Y-177242D01*
X97949072Y-279082D01*
X97688063Y-331000D01*
X97421937Y-331000D01*
X97160928Y-279082D01*
X96915063Y-177242D01*
X96915062Y-177242D01*
X96915061Y-177241D01*
X96779648Y-86760D01*
X96693789Y-29391D01*
X96505609Y158789D01*
X96419609Y287496D01*
X96357759Y380061D01*
X96343839Y413668D01*
X96255918Y625928D01*
X96204000Y886937D01*
X96204000Y1153063D01*
X96255918Y1414072D01*
X96357758Y1659937D01*
X96363814Y1669000D01*
X96505610Y1881212D01*
X96693788Y2069390D01*
X96695692Y2070662D01*
X96868861Y2186371D01*
X96915061Y2217241D01*
X96990402Y2248448D01*
X97160928Y2319082D01*
X97421937Y2371000D01*
X97688063Y2371000D01*
X97949072Y2319082D01*
G37*
G36*
X-4849000Y249000D02*
G01*
X-9951000Y249000D01*
X-9951000Y1851000D01*
X-4849000Y1851000D01*
X-4849000Y249000D01*
G37*
G36*
X-11299000Y249000D02*
G01*
X-16401000Y249000D01*
X-16401000Y1851000D01*
X-11299000Y1851000D01*
X-11299000Y249000D01*
G37*
G36*
X80864472Y2860999D02*
G01*
X80930305Y2847904D01*
X80962340Y2834635D01*
X81039680Y2802600D01*
X81138115Y2736827D01*
X81221827Y2653115D01*
X81287600Y2554680D01*
X81332904Y2445304D01*
X81356000Y2329195D01*
X81356000Y2210805D01*
X81332904Y2094696D01*
X81287600Y1985320D01*
X81221827Y1886885D01*
X81138115Y1803173D01*
X81039680Y1737400D01*
X80962340Y1705365D01*
X80930305Y1692096D01*
X80891601Y1684397D01*
X80814195Y1669000D01*
X80695805Y1669000D01*
X80618399Y1684397D01*
X80579695Y1692096D01*
X80547660Y1705365D01*
X80470320Y1737400D01*
X80371885Y1803173D01*
X80288173Y1886885D01*
X80222400Y1985320D01*
X80177096Y2094696D01*
X80154000Y2210805D01*
X80154000Y2329195D01*
X80177096Y2445304D01*
X80222400Y2554680D01*
X80288173Y2653115D01*
X80371885Y2736827D01*
X80470320Y2802600D01*
X80547660Y2834635D01*
X80579695Y2847904D01*
X80645528Y2860999D01*
X80695805Y2871000D01*
X80814195Y2871000D01*
X80864472Y2860999D01*
G37*
G36*
X76864472Y2860999D02*
G01*
X76930305Y2847904D01*
X76962340Y2834635D01*
X77039680Y2802600D01*
X77138115Y2736827D01*
X77221827Y2653115D01*
X77287600Y2554680D01*
X77332904Y2445304D01*
X77356000Y2329195D01*
X77356000Y2210805D01*
X77332904Y2094696D01*
X77287600Y1985320D01*
X77221827Y1886885D01*
X77138115Y1803173D01*
X77039680Y1737400D01*
X76962340Y1705365D01*
X76930305Y1692096D01*
X76891601Y1684397D01*
X76814195Y1669000D01*
X76695805Y1669000D01*
X76618399Y1684397D01*
X76579695Y1692096D01*
X76547660Y1705365D01*
X76470320Y1737400D01*
X76371885Y1803173D01*
X76288173Y1886885D01*
X76222400Y1985320D01*
X76177096Y2094696D01*
X76154000Y2210805D01*
X76154000Y2329195D01*
X76177096Y2445304D01*
X76222400Y2554680D01*
X76288173Y2653115D01*
X76371885Y2736827D01*
X76470320Y2802600D01*
X76547660Y2834635D01*
X76579695Y2847904D01*
X76645528Y2860999D01*
X76695805Y2871000D01*
X76814195Y2871000D01*
X76864472Y2860999D01*
G37*
G36*
X58864472Y2860999D02*
G01*
X58930305Y2847904D01*
X58962340Y2834635D01*
X59039680Y2802600D01*
X59138115Y2736827D01*
X59221827Y2653115D01*
X59287600Y2554680D01*
X59332904Y2445304D01*
X59356000Y2329195D01*
X59356000Y2210805D01*
X59332904Y2094696D01*
X59287600Y1985320D01*
X59221827Y1886885D01*
X59138115Y1803173D01*
X59039680Y1737400D01*
X58962340Y1705365D01*
X58930305Y1692096D01*
X58891601Y1684397D01*
X58814195Y1669000D01*
X58695805Y1669000D01*
X58618399Y1684397D01*
X58579695Y1692096D01*
X58547660Y1705365D01*
X58470320Y1737400D01*
X58371885Y1803173D01*
X58288173Y1886885D01*
X58222400Y1985320D01*
X58177096Y2094696D01*
X58154000Y2210805D01*
X58154000Y2329195D01*
X58177096Y2445304D01*
X58222400Y2554680D01*
X58288173Y2653115D01*
X58371885Y2736827D01*
X58470320Y2802600D01*
X58547660Y2834635D01*
X58579695Y2847904D01*
X58645528Y2860999D01*
X58695805Y2871000D01*
X58814195Y2871000D01*
X58864472Y2860999D01*
G37*
G36*
X60864472Y2860999D02*
G01*
X60930305Y2847904D01*
X60962340Y2834635D01*
X61039680Y2802600D01*
X61138115Y2736827D01*
X61221827Y2653115D01*
X61287600Y2554680D01*
X61332904Y2445304D01*
X61356000Y2329195D01*
X61356000Y2210805D01*
X61332904Y2094696D01*
X61287600Y1985320D01*
X61221827Y1886885D01*
X61138115Y1803173D01*
X61039680Y1737400D01*
X60962340Y1705365D01*
X60930305Y1692096D01*
X60891601Y1684397D01*
X60814195Y1669000D01*
X60695805Y1669000D01*
X60618399Y1684397D01*
X60579695Y1692096D01*
X60547660Y1705365D01*
X60470320Y1737400D01*
X60371885Y1803173D01*
X60288173Y1886885D01*
X60222400Y1985320D01*
X60177096Y2094696D01*
X60154000Y2210805D01*
X60154000Y2329195D01*
X60177096Y2445304D01*
X60222400Y2554680D01*
X60288173Y2653115D01*
X60371885Y2736827D01*
X60470320Y2802600D01*
X60547660Y2834635D01*
X60579695Y2847904D01*
X60645528Y2860999D01*
X60695805Y2871000D01*
X60814195Y2871000D01*
X60864472Y2860999D01*
G37*
G36*
X62864472Y2860999D02*
G01*
X62930305Y2847904D01*
X62962340Y2834635D01*
X63039680Y2802600D01*
X63138115Y2736827D01*
X63221827Y2653115D01*
X63287600Y2554680D01*
X63332904Y2445304D01*
X63356000Y2329195D01*
X63356000Y2210805D01*
X63332904Y2094696D01*
X63287600Y1985320D01*
X63221827Y1886885D01*
X63138115Y1803173D01*
X63039680Y1737400D01*
X62962340Y1705365D01*
X62930305Y1692096D01*
X62891601Y1684397D01*
X62814195Y1669000D01*
X62695805Y1669000D01*
X62618399Y1684397D01*
X62579695Y1692096D01*
X62547660Y1705365D01*
X62470320Y1737400D01*
X62371885Y1803173D01*
X62288173Y1886885D01*
X62222400Y1985320D01*
X62177096Y2094696D01*
X62154000Y2210805D01*
X62154000Y2329195D01*
X62177096Y2445304D01*
X62222400Y2554680D01*
X62288173Y2653115D01*
X62371885Y2736827D01*
X62470320Y2802600D01*
X62547660Y2834635D01*
X62579695Y2847904D01*
X62645528Y2860999D01*
X62695805Y2871000D01*
X62814195Y2871000D01*
X62864472Y2860999D01*
G37*
G36*
X64864472Y2860999D02*
G01*
X64930305Y2847904D01*
X64962340Y2834635D01*
X65039680Y2802600D01*
X65138115Y2736827D01*
X65221827Y2653115D01*
X65287600Y2554680D01*
X65332904Y2445304D01*
X65356000Y2329195D01*
X65356000Y2210805D01*
X65332904Y2094696D01*
X65287600Y1985320D01*
X65221827Y1886885D01*
X65138115Y1803173D01*
X65039680Y1737400D01*
X64962340Y1705365D01*
X64930305Y1692096D01*
X64891601Y1684397D01*
X64814195Y1669000D01*
X64695805Y1669000D01*
X64618399Y1684397D01*
X64579695Y1692096D01*
X64547660Y1705365D01*
X64470320Y1737400D01*
X64371885Y1803173D01*
X64288173Y1886885D01*
X64222400Y1985320D01*
X64177096Y2094696D01*
X64154000Y2210805D01*
X64154000Y2329195D01*
X64177096Y2445304D01*
X64222400Y2554680D01*
X64288173Y2653115D01*
X64371885Y2736827D01*
X64470320Y2802600D01*
X64547660Y2834635D01*
X64579695Y2847904D01*
X64645528Y2860999D01*
X64695805Y2871000D01*
X64814195Y2871000D01*
X64864472Y2860999D01*
G37*
G36*
X66864472Y2860999D02*
G01*
X66930305Y2847904D01*
X66962340Y2834635D01*
X67039680Y2802600D01*
X67138115Y2736827D01*
X67221827Y2653115D01*
X67287600Y2554680D01*
X67332904Y2445304D01*
X67356000Y2329195D01*
X67356000Y2210805D01*
X67332904Y2094696D01*
X67287600Y1985320D01*
X67221827Y1886885D01*
X67138115Y1803173D01*
X67039680Y1737400D01*
X66962340Y1705365D01*
X66930305Y1692096D01*
X66891601Y1684397D01*
X66814195Y1669000D01*
X66695805Y1669000D01*
X66618399Y1684397D01*
X66579695Y1692096D01*
X66547660Y1705365D01*
X66470320Y1737400D01*
X66371885Y1803173D01*
X66288173Y1886885D01*
X66222400Y1985320D01*
X66177096Y2094696D01*
X66154000Y2210805D01*
X66154000Y2329195D01*
X66177096Y2445304D01*
X66222400Y2554680D01*
X66288173Y2653115D01*
X66371885Y2736827D01*
X66470320Y2802600D01*
X66547660Y2834635D01*
X66579695Y2847904D01*
X66645528Y2860999D01*
X66695805Y2871000D01*
X66814195Y2871000D01*
X66864472Y2860999D01*
G37*
G36*
X68864472Y2860999D02*
G01*
X68930305Y2847904D01*
X68962340Y2834635D01*
X69039680Y2802600D01*
X69138115Y2736827D01*
X69221827Y2653115D01*
X69287600Y2554680D01*
X69332904Y2445304D01*
X69356000Y2329195D01*
X69356000Y2210805D01*
X69332904Y2094696D01*
X69287600Y1985320D01*
X69221827Y1886885D01*
X69138115Y1803173D01*
X69039680Y1737400D01*
X68962340Y1705365D01*
X68930305Y1692096D01*
X68891601Y1684397D01*
X68814195Y1669000D01*
X68695805Y1669000D01*
X68618399Y1684397D01*
X68579695Y1692096D01*
X68547660Y1705365D01*
X68470320Y1737400D01*
X68371885Y1803173D01*
X68288173Y1886885D01*
X68222400Y1985320D01*
X68177096Y2094696D01*
X68154000Y2210805D01*
X68154000Y2329195D01*
X68177096Y2445304D01*
X68222400Y2554680D01*
X68288173Y2653115D01*
X68371885Y2736827D01*
X68470320Y2802600D01*
X68547660Y2834635D01*
X68579695Y2847904D01*
X68645528Y2860999D01*
X68695805Y2871000D01*
X68814195Y2871000D01*
X68864472Y2860999D01*
G37*
G36*
X70864472Y2860999D02*
G01*
X70930305Y2847904D01*
X70962340Y2834635D01*
X71039680Y2802600D01*
X71138115Y2736827D01*
X71221827Y2653115D01*
X71287600Y2554680D01*
X71332904Y2445304D01*
X71356000Y2329195D01*
X71356000Y2210805D01*
X71332904Y2094696D01*
X71287600Y1985320D01*
X71221827Y1886885D01*
X71138115Y1803173D01*
X71039680Y1737400D01*
X70962340Y1705365D01*
X70930305Y1692096D01*
X70891601Y1684397D01*
X70814195Y1669000D01*
X70695805Y1669000D01*
X70618399Y1684397D01*
X70579695Y1692096D01*
X70547660Y1705365D01*
X70470320Y1737400D01*
X70371885Y1803173D01*
X70288173Y1886885D01*
X70222400Y1985320D01*
X70177096Y2094696D01*
X70154000Y2210805D01*
X70154000Y2329195D01*
X70177096Y2445304D01*
X70222400Y2554680D01*
X70288173Y2653115D01*
X70371885Y2736827D01*
X70470320Y2802600D01*
X70547660Y2834635D01*
X70579695Y2847904D01*
X70645528Y2860999D01*
X70695805Y2871000D01*
X70814195Y2871000D01*
X70864472Y2860999D01*
G37*
G36*
X72864472Y2860999D02*
G01*
X72930305Y2847904D01*
X72962340Y2834635D01*
X73039680Y2802600D01*
X73138115Y2736827D01*
X73221827Y2653115D01*
X73287600Y2554680D01*
X73332904Y2445304D01*
X73356000Y2329195D01*
X73356000Y2210805D01*
X73332904Y2094696D01*
X73287600Y1985320D01*
X73221827Y1886885D01*
X73138115Y1803173D01*
X73039680Y1737400D01*
X72962340Y1705365D01*
X72930305Y1692096D01*
X72891601Y1684397D01*
X72814195Y1669000D01*
X72695805Y1669000D01*
X72618399Y1684397D01*
X72579695Y1692096D01*
X72547660Y1705365D01*
X72470320Y1737400D01*
X72371885Y1803173D01*
X72288173Y1886885D01*
X72222400Y1985320D01*
X72177096Y2094696D01*
X72154000Y2210805D01*
X72154000Y2329195D01*
X72177096Y2445304D01*
X72222400Y2554680D01*
X72288173Y2653115D01*
X72371885Y2736827D01*
X72470320Y2802600D01*
X72547660Y2834635D01*
X72579695Y2847904D01*
X72645528Y2860999D01*
X72695805Y2871000D01*
X72814195Y2871000D01*
X72864472Y2860999D01*
G37*
G36*
X74864472Y2860999D02*
G01*
X74930305Y2847904D01*
X74962340Y2834635D01*
X75039680Y2802600D01*
X75138115Y2736827D01*
X75221827Y2653115D01*
X75287600Y2554680D01*
X75332904Y2445304D01*
X75356000Y2329195D01*
X75356000Y2210805D01*
X75332904Y2094696D01*
X75287600Y1985320D01*
X75221827Y1886885D01*
X75138115Y1803173D01*
X75039680Y1737400D01*
X74962340Y1705365D01*
X74930305Y1692096D01*
X74891601Y1684397D01*
X74814195Y1669000D01*
X74695805Y1669000D01*
X74618399Y1684397D01*
X74579695Y1692096D01*
X74547660Y1705365D01*
X74470320Y1737400D01*
X74371885Y1803173D01*
X74288173Y1886885D01*
X74222400Y1985320D01*
X74177096Y2094696D01*
X74154000Y2210805D01*
X74154000Y2329195D01*
X74177096Y2445304D01*
X74222400Y2554680D01*
X74288173Y2653115D01*
X74371885Y2736827D01*
X74470320Y2802600D01*
X74547660Y2834635D01*
X74579695Y2847904D01*
X74645528Y2860999D01*
X74695805Y2871000D01*
X74814195Y2871000D01*
X74864472Y2860999D01*
G37*
G36*
X78864472Y2860999D02*
G01*
X78930305Y2847904D01*
X78962340Y2834635D01*
X79039680Y2802600D01*
X79138115Y2736827D01*
X79221827Y2653115D01*
X79287600Y2554680D01*
X79332904Y2445304D01*
X79356000Y2329195D01*
X79356000Y2210805D01*
X79332904Y2094696D01*
X79287600Y1985320D01*
X79221827Y1886885D01*
X79138115Y1803173D01*
X79039680Y1737400D01*
X78962340Y1705365D01*
X78930305Y1692096D01*
X78891601Y1684397D01*
X78814195Y1669000D01*
X78695805Y1669000D01*
X78618399Y1684397D01*
X78579695Y1692096D01*
X78547660Y1705365D01*
X78470320Y1737400D01*
X78371885Y1803173D01*
X78288173Y1886885D01*
X78222400Y1985320D01*
X78177096Y2094696D01*
X78154000Y2210805D01*
X78154000Y2329195D01*
X78177096Y2445304D01*
X78222400Y2554680D01*
X78288173Y2653115D01*
X78371885Y2736827D01*
X78470320Y2802600D01*
X78547660Y2834635D01*
X78579695Y2847904D01*
X78645528Y2860999D01*
X78695805Y2871000D01*
X78814195Y2871000D01*
X78864472Y2860999D01*
G37*
G36*
X82864472Y2860999D02*
G01*
X82930305Y2847904D01*
X82962340Y2834635D01*
X83039680Y2802600D01*
X83138115Y2736827D01*
X83221827Y2653115D01*
X83287600Y2554680D01*
X83332904Y2445304D01*
X83356000Y2329195D01*
X83356000Y2210805D01*
X83332904Y2094696D01*
X83287600Y1985320D01*
X83221827Y1886885D01*
X83138115Y1803173D01*
X83039680Y1737400D01*
X82962340Y1705365D01*
X82930305Y1692096D01*
X82891601Y1684397D01*
X82814195Y1669000D01*
X82695805Y1669000D01*
X82618399Y1684397D01*
X82579695Y1692096D01*
X82547660Y1705365D01*
X82470320Y1737400D01*
X82371885Y1803173D01*
X82288173Y1886885D01*
X82222400Y1985320D01*
X82177096Y2094696D01*
X82154000Y2210805D01*
X82154000Y2329195D01*
X82177096Y2445304D01*
X82222400Y2554680D01*
X82288173Y2653115D01*
X82371885Y2736827D01*
X82470320Y2802600D01*
X82547660Y2834635D01*
X82579695Y2847904D01*
X82645528Y2860999D01*
X82695805Y2871000D01*
X82814195Y2871000D01*
X82864472Y2860999D01*
G37*
G36*
X84864472Y2860999D02*
G01*
X84930305Y2847904D01*
X84962340Y2834635D01*
X85039680Y2802600D01*
X85138115Y2736827D01*
X85221827Y2653115D01*
X85287600Y2554680D01*
X85332904Y2445304D01*
X85356000Y2329195D01*
X85356000Y2210805D01*
X85332904Y2094696D01*
X85287600Y1985320D01*
X85221827Y1886885D01*
X85138115Y1803173D01*
X85039680Y1737400D01*
X84962340Y1705365D01*
X84930305Y1692096D01*
X84891601Y1684397D01*
X84814195Y1669000D01*
X84695805Y1669000D01*
X84618399Y1684397D01*
X84579695Y1692096D01*
X84547660Y1705365D01*
X84470320Y1737400D01*
X84371885Y1803173D01*
X84288173Y1886885D01*
X84222400Y1985320D01*
X84177096Y2094696D01*
X84154000Y2210805D01*
X84154000Y2329195D01*
X84177096Y2445304D01*
X84222400Y2554680D01*
X84288173Y2653115D01*
X84371885Y2736827D01*
X84470320Y2802600D01*
X84547660Y2834635D01*
X84579695Y2847904D01*
X84645528Y2860999D01*
X84695805Y2871000D01*
X84814195Y2871000D01*
X84864472Y2860999D01*
G37*
G36*
X86864472Y2860999D02*
G01*
X86930305Y2847904D01*
X86962340Y2834635D01*
X87039680Y2802600D01*
X87138115Y2736827D01*
X87221827Y2653115D01*
X87287600Y2554680D01*
X87332904Y2445304D01*
X87356000Y2329195D01*
X87356000Y2210805D01*
X87332904Y2094696D01*
X87287600Y1985320D01*
X87221827Y1886885D01*
X87138115Y1803173D01*
X87039680Y1737400D01*
X86962340Y1705365D01*
X86930305Y1692096D01*
X86891601Y1684397D01*
X86814195Y1669000D01*
X86695805Y1669000D01*
X86618399Y1684397D01*
X86579695Y1692096D01*
X86547660Y1705365D01*
X86470320Y1737400D01*
X86371885Y1803173D01*
X86288173Y1886885D01*
X86222400Y1985320D01*
X86177096Y2094696D01*
X86154000Y2210805D01*
X86154000Y2329195D01*
X86177096Y2445304D01*
X86222400Y2554680D01*
X86288173Y2653115D01*
X86371885Y2736827D01*
X86470320Y2802600D01*
X86547660Y2834635D01*
X86579695Y2847904D01*
X86645528Y2860999D01*
X86695805Y2871000D01*
X86814195Y2871000D01*
X86864472Y2860999D01*
G37*
G36*
X88864472Y2860999D02*
G01*
X88930305Y2847904D01*
X88962340Y2834635D01*
X89039680Y2802600D01*
X89138115Y2736827D01*
X89221827Y2653115D01*
X89287600Y2554680D01*
X89332904Y2445304D01*
X89356000Y2329195D01*
X89356000Y2210805D01*
X89332904Y2094696D01*
X89287600Y1985320D01*
X89221827Y1886885D01*
X89138115Y1803173D01*
X89039680Y1737400D01*
X88962340Y1705365D01*
X88930305Y1692096D01*
X88891601Y1684397D01*
X88814195Y1669000D01*
X88695805Y1669000D01*
X88618399Y1684397D01*
X88579695Y1692096D01*
X88547660Y1705365D01*
X88470320Y1737400D01*
X88371885Y1803173D01*
X88288173Y1886885D01*
X88222400Y1985320D01*
X88177096Y2094696D01*
X88154000Y2210805D01*
X88154000Y2329195D01*
X88177096Y2445304D01*
X88222400Y2554680D01*
X88288173Y2653115D01*
X88371885Y2736827D01*
X88470320Y2802600D01*
X88547660Y2834635D01*
X88579695Y2847904D01*
X88645528Y2860999D01*
X88695805Y2871000D01*
X88814195Y2871000D01*
X88864472Y2860999D01*
G37*
G36*
X90864472Y2860999D02*
G01*
X90930305Y2847904D01*
X90962340Y2834635D01*
X91039680Y2802600D01*
X91138115Y2736827D01*
X91221827Y2653115D01*
X91287600Y2554680D01*
X91332904Y2445304D01*
X91356000Y2329195D01*
X91356000Y2210805D01*
X91332904Y2094696D01*
X91287600Y1985320D01*
X91221827Y1886885D01*
X91138115Y1803173D01*
X91039680Y1737400D01*
X90962340Y1705365D01*
X90930305Y1692096D01*
X90891601Y1684397D01*
X90814195Y1669000D01*
X90695805Y1669000D01*
X90618399Y1684397D01*
X90579695Y1692096D01*
X90547660Y1705365D01*
X90470320Y1737400D01*
X90371885Y1803173D01*
X90288173Y1886885D01*
X90222400Y1985320D01*
X90177096Y2094696D01*
X90154000Y2210805D01*
X90154000Y2329195D01*
X90177096Y2445304D01*
X90222400Y2554680D01*
X90288173Y2653115D01*
X90371885Y2736827D01*
X90470320Y2802600D01*
X90547660Y2834635D01*
X90579695Y2847904D01*
X90645528Y2860999D01*
X90695805Y2871000D01*
X90814195Y2871000D01*
X90864472Y2860999D01*
G37*
G36*
X92864472Y2860999D02*
G01*
X92930305Y2847904D01*
X92962340Y2834635D01*
X93039680Y2802600D01*
X93138115Y2736827D01*
X93221827Y2653115D01*
X93287600Y2554680D01*
X93332904Y2445304D01*
X93356000Y2329195D01*
X93356000Y2210805D01*
X93332904Y2094696D01*
X93287600Y1985320D01*
X93221827Y1886885D01*
X93138115Y1803173D01*
X93039680Y1737400D01*
X92962340Y1705365D01*
X92930305Y1692096D01*
X92891601Y1684397D01*
X92814195Y1669000D01*
X92695805Y1669000D01*
X92618399Y1684397D01*
X92579695Y1692096D01*
X92547660Y1705365D01*
X92470320Y1737400D01*
X92371885Y1803173D01*
X92288173Y1886885D01*
X92222400Y1985320D01*
X92177096Y2094696D01*
X92154000Y2210805D01*
X92154000Y2329195D01*
X92177096Y2445304D01*
X92222400Y2554680D01*
X92288173Y2653115D01*
X92371885Y2736827D01*
X92470320Y2802600D01*
X92547660Y2834635D01*
X92579695Y2847904D01*
X92645528Y2860999D01*
X92695805Y2871000D01*
X92814195Y2871000D01*
X92864472Y2860999D01*
G37*
G36*
X94864472Y2860999D02*
G01*
X94930305Y2847904D01*
X94962340Y2834635D01*
X95039680Y2802600D01*
X95138115Y2736827D01*
X95221827Y2653115D01*
X95287600Y2554680D01*
X95332904Y2445304D01*
X95356000Y2329195D01*
X95356000Y2210805D01*
X95332904Y2094696D01*
X95287600Y1985320D01*
X95221827Y1886885D01*
X95138115Y1803173D01*
X95039680Y1737400D01*
X94962340Y1705365D01*
X94930305Y1692096D01*
X94891601Y1684397D01*
X94814195Y1669000D01*
X94695805Y1669000D01*
X94618399Y1684397D01*
X94579695Y1692096D01*
X94547660Y1705365D01*
X94470320Y1737400D01*
X94371885Y1803173D01*
X94288173Y1886885D01*
X94222400Y1985320D01*
X94177096Y2094696D01*
X94154000Y2210805D01*
X94154000Y2329195D01*
X94177096Y2445304D01*
X94222400Y2554680D01*
X94288173Y2653115D01*
X94371885Y2736827D01*
X94470320Y2802600D01*
X94547660Y2834635D01*
X94579695Y2847904D01*
X94645528Y2860999D01*
X94695805Y2871000D01*
X94814195Y2871000D01*
X94864472Y2860999D01*
G37*
G36*
X52864472Y2860999D02*
G01*
X52930305Y2847904D01*
X52962340Y2834635D01*
X53039680Y2802600D01*
X53138115Y2736827D01*
X53221827Y2653115D01*
X53287600Y2554680D01*
X53332904Y2445304D01*
X53356000Y2329195D01*
X53356000Y2210805D01*
X53332904Y2094696D01*
X53287600Y1985320D01*
X53221827Y1886885D01*
X53138115Y1803173D01*
X53039680Y1737400D01*
X52962340Y1705365D01*
X52930305Y1692096D01*
X52891601Y1684397D01*
X52814195Y1669000D01*
X52695805Y1669000D01*
X52618399Y1684397D01*
X52579695Y1692096D01*
X52547660Y1705365D01*
X52470320Y1737400D01*
X52371885Y1803173D01*
X52288173Y1886885D01*
X52222400Y1985320D01*
X52177096Y2094696D01*
X52154000Y2210805D01*
X52154000Y2329195D01*
X52177096Y2445304D01*
X52222400Y2554680D01*
X52288173Y2653115D01*
X52371885Y2736827D01*
X52470320Y2802600D01*
X52547660Y2834635D01*
X52579695Y2847904D01*
X52645528Y2860999D01*
X52695805Y2871000D01*
X52814195Y2871000D01*
X52864472Y2860999D01*
G37*
G36*
X54864472Y2860999D02*
G01*
X54930305Y2847904D01*
X54962340Y2834635D01*
X55039680Y2802600D01*
X55138115Y2736827D01*
X55221827Y2653115D01*
X55287600Y2554680D01*
X55332904Y2445304D01*
X55356000Y2329195D01*
X55356000Y2210805D01*
X55332904Y2094696D01*
X55287600Y1985320D01*
X55221827Y1886885D01*
X55138115Y1803173D01*
X55039680Y1737400D01*
X54962340Y1705365D01*
X54930305Y1692096D01*
X54891601Y1684397D01*
X54814195Y1669000D01*
X54695805Y1669000D01*
X54618399Y1684397D01*
X54579695Y1692096D01*
X54547660Y1705365D01*
X54470320Y1737400D01*
X54371885Y1803173D01*
X54288173Y1886885D01*
X54222400Y1985320D01*
X54177096Y2094696D01*
X54154000Y2210805D01*
X54154000Y2329195D01*
X54177096Y2445304D01*
X54222400Y2554680D01*
X54288173Y2653115D01*
X54371885Y2736827D01*
X54470320Y2802600D01*
X54547660Y2834635D01*
X54579695Y2847904D01*
X54645528Y2860999D01*
X54695805Y2871000D01*
X54814195Y2871000D01*
X54864472Y2860999D01*
G37*
G36*
X40864472Y2860999D02*
G01*
X40930305Y2847904D01*
X40962340Y2834635D01*
X41039680Y2802600D01*
X41138115Y2736827D01*
X41221827Y2653115D01*
X41287600Y2554680D01*
X41332904Y2445304D01*
X41356000Y2329195D01*
X41356000Y2210805D01*
X41332904Y2094696D01*
X41287600Y1985320D01*
X41221827Y1886885D01*
X41138115Y1803173D01*
X41039680Y1737400D01*
X40962340Y1705365D01*
X40930305Y1692096D01*
X40891601Y1684397D01*
X40814195Y1669000D01*
X40695805Y1669000D01*
X40618399Y1684397D01*
X40579695Y1692096D01*
X40547660Y1705365D01*
X40470320Y1737400D01*
X40371885Y1803173D01*
X40288173Y1886885D01*
X40222400Y1985320D01*
X40177096Y2094696D01*
X40154000Y2210805D01*
X40154000Y2329195D01*
X40177096Y2445304D01*
X40222400Y2554680D01*
X40288173Y2653115D01*
X40371885Y2736827D01*
X40470320Y2802600D01*
X40547660Y2834635D01*
X40579695Y2847904D01*
X40645528Y2860999D01*
X40695805Y2871000D01*
X40814195Y2871000D01*
X40864472Y2860999D01*
G37*
G36*
X16864472Y2860999D02*
G01*
X16930305Y2847904D01*
X16962340Y2834635D01*
X17039680Y2802600D01*
X17138115Y2736827D01*
X17221827Y2653115D01*
X17287600Y2554680D01*
X17332904Y2445304D01*
X17356000Y2329195D01*
X17356000Y2210805D01*
X17332904Y2094696D01*
X17287600Y1985320D01*
X17221827Y1886885D01*
X17138115Y1803173D01*
X17039680Y1737400D01*
X16962340Y1705365D01*
X16930305Y1692096D01*
X16891601Y1684397D01*
X16814195Y1669000D01*
X16695805Y1669000D01*
X16618399Y1684397D01*
X16579695Y1692096D01*
X16547660Y1705365D01*
X16470320Y1737400D01*
X16371885Y1803173D01*
X16288173Y1886885D01*
X16222400Y1985320D01*
X16177096Y2094696D01*
X16154000Y2210805D01*
X16154000Y2329195D01*
X16177096Y2445304D01*
X16222400Y2554680D01*
X16288173Y2653115D01*
X16371885Y2736827D01*
X16470320Y2802600D01*
X16547660Y2834635D01*
X16579695Y2847904D01*
X16645528Y2860999D01*
X16695805Y2871000D01*
X16814195Y2871000D01*
X16864472Y2860999D01*
G37*
G36*
X13356000Y1669000D02*
G01*
X12154000Y1669000D01*
X12154000Y2871000D01*
X13356000Y2871000D01*
X13356000Y1669000D01*
G37*
G36*
X46864472Y2860999D02*
G01*
X46930305Y2847904D01*
X46962340Y2834635D01*
X47039680Y2802600D01*
X47138115Y2736827D01*
X47221827Y2653115D01*
X47287600Y2554680D01*
X47332904Y2445304D01*
X47356000Y2329195D01*
X47356000Y2210805D01*
X47332904Y2094696D01*
X47287600Y1985320D01*
X47221827Y1886885D01*
X47138115Y1803173D01*
X47039680Y1737400D01*
X46962340Y1705365D01*
X46930305Y1692096D01*
X46891601Y1684397D01*
X46814195Y1669000D01*
X46695805Y1669000D01*
X46618399Y1684397D01*
X46579695Y1692096D01*
X46547660Y1705365D01*
X46470320Y1737400D01*
X46371885Y1803173D01*
X46288173Y1886885D01*
X46222400Y1985320D01*
X46177096Y2094696D01*
X46154000Y2210805D01*
X46154000Y2329195D01*
X46177096Y2445304D01*
X46222400Y2554680D01*
X46288173Y2653115D01*
X46371885Y2736827D01*
X46470320Y2802600D01*
X46547660Y2834635D01*
X46579695Y2847904D01*
X46645528Y2860999D01*
X46695805Y2871000D01*
X46814195Y2871000D01*
X46864472Y2860999D01*
G37*
G36*
X56864472Y2860999D02*
G01*
X56930305Y2847904D01*
X56962340Y2834635D01*
X57039680Y2802600D01*
X57138115Y2736827D01*
X57221827Y2653115D01*
X57287600Y2554680D01*
X57332904Y2445304D01*
X57356000Y2329195D01*
X57356000Y2210805D01*
X57332904Y2094696D01*
X57287600Y1985320D01*
X57221827Y1886885D01*
X57138115Y1803173D01*
X57039680Y1737400D01*
X56962340Y1705365D01*
X56930305Y1692096D01*
X56891601Y1684397D01*
X56814195Y1669000D01*
X56695805Y1669000D01*
X56618399Y1684397D01*
X56579695Y1692096D01*
X56547660Y1705365D01*
X56470320Y1737400D01*
X56371885Y1803173D01*
X56288173Y1886885D01*
X56222400Y1985320D01*
X56177096Y2094696D01*
X56154000Y2210805D01*
X56154000Y2329195D01*
X56177096Y2445304D01*
X56222400Y2554680D01*
X56288173Y2653115D01*
X56371885Y2736827D01*
X56470320Y2802600D01*
X56547660Y2834635D01*
X56579695Y2847904D01*
X56645528Y2860999D01*
X56695805Y2871000D01*
X56814195Y2871000D01*
X56864472Y2860999D01*
G37*
G36*
X48864472Y2860999D02*
G01*
X48930305Y2847904D01*
X48962340Y2834635D01*
X49039680Y2802600D01*
X49138115Y2736827D01*
X49221827Y2653115D01*
X49287600Y2554680D01*
X49332904Y2445304D01*
X49356000Y2329195D01*
X49356000Y2210805D01*
X49332904Y2094696D01*
X49287600Y1985320D01*
X49221827Y1886885D01*
X49138115Y1803173D01*
X49039680Y1737400D01*
X48962340Y1705365D01*
X48930305Y1692096D01*
X48891601Y1684397D01*
X48814195Y1669000D01*
X48695805Y1669000D01*
X48618399Y1684397D01*
X48579695Y1692096D01*
X48547660Y1705365D01*
X48470320Y1737400D01*
X48371885Y1803173D01*
X48288173Y1886885D01*
X48222400Y1985320D01*
X48177096Y2094696D01*
X48154000Y2210805D01*
X48154000Y2329195D01*
X48177096Y2445304D01*
X48222400Y2554680D01*
X48288173Y2653115D01*
X48371885Y2736827D01*
X48470320Y2802600D01*
X48547660Y2834635D01*
X48579695Y2847904D01*
X48645528Y2860999D01*
X48695805Y2871000D01*
X48814195Y2871000D01*
X48864472Y2860999D01*
G37*
G36*
X44864472Y2860999D02*
G01*
X44930305Y2847904D01*
X44962340Y2834635D01*
X45039680Y2802600D01*
X45138115Y2736827D01*
X45221827Y2653115D01*
X45287600Y2554680D01*
X45332904Y2445304D01*
X45356000Y2329195D01*
X45356000Y2210805D01*
X45332904Y2094696D01*
X45287600Y1985320D01*
X45221827Y1886885D01*
X45138115Y1803173D01*
X45039680Y1737400D01*
X44962340Y1705365D01*
X44930305Y1692096D01*
X44891601Y1684397D01*
X44814195Y1669000D01*
X44695805Y1669000D01*
X44618399Y1684397D01*
X44579695Y1692096D01*
X44547660Y1705365D01*
X44470320Y1737400D01*
X44371885Y1803173D01*
X44288173Y1886885D01*
X44222400Y1985320D01*
X44177096Y2094696D01*
X44154000Y2210805D01*
X44154000Y2329195D01*
X44177096Y2445304D01*
X44222400Y2554680D01*
X44288173Y2653115D01*
X44371885Y2736827D01*
X44470320Y2802600D01*
X44547660Y2834635D01*
X44579695Y2847904D01*
X44645528Y2860999D01*
X44695805Y2871000D01*
X44814195Y2871000D01*
X44864472Y2860999D01*
G37*
G36*
X50864472Y2860999D02*
G01*
X50930305Y2847904D01*
X50962340Y2834635D01*
X51039680Y2802600D01*
X51138115Y2736827D01*
X51221827Y2653115D01*
X51287600Y2554680D01*
X51332904Y2445304D01*
X51356000Y2329195D01*
X51356000Y2210805D01*
X51332904Y2094696D01*
X51287600Y1985320D01*
X51221827Y1886885D01*
X51138115Y1803173D01*
X51039680Y1737400D01*
X50962340Y1705365D01*
X50930305Y1692096D01*
X50891601Y1684397D01*
X50814195Y1669000D01*
X50695805Y1669000D01*
X50618399Y1684397D01*
X50579695Y1692096D01*
X50547660Y1705365D01*
X50470320Y1737400D01*
X50371885Y1803173D01*
X50288173Y1886885D01*
X50222400Y1985320D01*
X50177096Y2094696D01*
X50154000Y2210805D01*
X50154000Y2329195D01*
X50177096Y2445304D01*
X50222400Y2554680D01*
X50288173Y2653115D01*
X50371885Y2736827D01*
X50470320Y2802600D01*
X50547660Y2834635D01*
X50579695Y2847904D01*
X50645528Y2860999D01*
X50695805Y2871000D01*
X50814195Y2871000D01*
X50864472Y2860999D01*
G37*
G36*
X14864472Y2860999D02*
G01*
X14930305Y2847904D01*
X14962340Y2834635D01*
X15039680Y2802600D01*
X15138115Y2736827D01*
X15221827Y2653115D01*
X15287600Y2554680D01*
X15332904Y2445304D01*
X15356000Y2329195D01*
X15356000Y2210805D01*
X15332904Y2094696D01*
X15287600Y1985320D01*
X15221827Y1886885D01*
X15138115Y1803173D01*
X15039680Y1737400D01*
X14962340Y1705365D01*
X14930305Y1692096D01*
X14891601Y1684397D01*
X14814195Y1669000D01*
X14695805Y1669000D01*
X14618399Y1684397D01*
X14579695Y1692096D01*
X14547660Y1705365D01*
X14470320Y1737400D01*
X14371885Y1803173D01*
X14288173Y1886885D01*
X14222400Y1985320D01*
X14177096Y2094696D01*
X14154000Y2210805D01*
X14154000Y2329195D01*
X14177096Y2445304D01*
X14222400Y2554680D01*
X14288173Y2653115D01*
X14371885Y2736827D01*
X14470320Y2802600D01*
X14547660Y2834635D01*
X14579695Y2847904D01*
X14645528Y2860999D01*
X14695805Y2871000D01*
X14814195Y2871000D01*
X14864472Y2860999D01*
G37*
G36*
X42864472Y2860999D02*
G01*
X42930305Y2847904D01*
X42962340Y2834635D01*
X43039680Y2802600D01*
X43138115Y2736827D01*
X43221827Y2653115D01*
X43287600Y2554680D01*
X43332904Y2445304D01*
X43356000Y2329195D01*
X43356000Y2210805D01*
X43332904Y2094696D01*
X43287600Y1985320D01*
X43221827Y1886885D01*
X43138115Y1803173D01*
X43039680Y1737400D01*
X42962340Y1705365D01*
X42930305Y1692096D01*
X42891601Y1684397D01*
X42814195Y1669000D01*
X42695805Y1669000D01*
X42618399Y1684397D01*
X42579695Y1692096D01*
X42547660Y1705365D01*
X42470320Y1737400D01*
X42371885Y1803173D01*
X42288173Y1886885D01*
X42222400Y1985320D01*
X42177096Y2094696D01*
X42154000Y2210805D01*
X42154000Y2329195D01*
X42177096Y2445304D01*
X42222400Y2554680D01*
X42288173Y2653115D01*
X42371885Y2736827D01*
X42470320Y2802600D01*
X42547660Y2834635D01*
X42579695Y2847904D01*
X42645528Y2860999D01*
X42695805Y2871000D01*
X42814195Y2871000D01*
X42864472Y2860999D01*
G37*
G36*
X38864472Y2860999D02*
G01*
X38930305Y2847904D01*
X38962340Y2834635D01*
X39039680Y2802600D01*
X39138115Y2736827D01*
X39221827Y2653115D01*
X39287600Y2554680D01*
X39332904Y2445304D01*
X39356000Y2329195D01*
X39356000Y2210805D01*
X39332904Y2094696D01*
X39287600Y1985320D01*
X39221827Y1886885D01*
X39138115Y1803173D01*
X39039680Y1737400D01*
X38962340Y1705365D01*
X38930305Y1692096D01*
X38891601Y1684397D01*
X38814195Y1669000D01*
X38695805Y1669000D01*
X38618399Y1684397D01*
X38579695Y1692096D01*
X38547660Y1705365D01*
X38470320Y1737400D01*
X38371885Y1803173D01*
X38288173Y1886885D01*
X38222400Y1985320D01*
X38177096Y2094696D01*
X38154000Y2210805D01*
X38154000Y2329195D01*
X38177096Y2445304D01*
X38222400Y2554680D01*
X38288173Y2653115D01*
X38371885Y2736827D01*
X38470320Y2802600D01*
X38547660Y2834635D01*
X38579695Y2847904D01*
X38645528Y2860999D01*
X38695805Y2871000D01*
X38814195Y2871000D01*
X38864472Y2860999D01*
G37*
G36*
X36864472Y2860999D02*
G01*
X36930305Y2847904D01*
X36962340Y2834635D01*
X37039680Y2802600D01*
X37138115Y2736827D01*
X37221827Y2653115D01*
X37287600Y2554680D01*
X37332904Y2445304D01*
X37356000Y2329195D01*
X37356000Y2210805D01*
X37332904Y2094696D01*
X37287600Y1985320D01*
X37221827Y1886885D01*
X37138115Y1803173D01*
X37039680Y1737400D01*
X36962340Y1705365D01*
X36930305Y1692096D01*
X36891601Y1684397D01*
X36814195Y1669000D01*
X36695805Y1669000D01*
X36618399Y1684397D01*
X36579695Y1692096D01*
X36547660Y1705365D01*
X36470320Y1737400D01*
X36371885Y1803173D01*
X36288173Y1886885D01*
X36222400Y1985320D01*
X36177096Y2094696D01*
X36154000Y2210805D01*
X36154000Y2329195D01*
X36177096Y2445304D01*
X36222400Y2554680D01*
X36288173Y2653115D01*
X36371885Y2736827D01*
X36470320Y2802600D01*
X36547660Y2834635D01*
X36579695Y2847904D01*
X36645528Y2860999D01*
X36695805Y2871000D01*
X36814195Y2871000D01*
X36864472Y2860999D01*
G37*
G36*
X34864472Y2860999D02*
G01*
X34930305Y2847904D01*
X34962340Y2834635D01*
X35039680Y2802600D01*
X35138115Y2736827D01*
X35221827Y2653115D01*
X35287600Y2554680D01*
X35332904Y2445304D01*
X35356000Y2329195D01*
X35356000Y2210805D01*
X35332904Y2094696D01*
X35287600Y1985320D01*
X35221827Y1886885D01*
X35138115Y1803173D01*
X35039680Y1737400D01*
X34962340Y1705365D01*
X34930305Y1692096D01*
X34891601Y1684397D01*
X34814195Y1669000D01*
X34695805Y1669000D01*
X34618399Y1684397D01*
X34579695Y1692096D01*
X34547660Y1705365D01*
X34470320Y1737400D01*
X34371885Y1803173D01*
X34288173Y1886885D01*
X34222400Y1985320D01*
X34177096Y2094696D01*
X34154000Y2210805D01*
X34154000Y2329195D01*
X34177096Y2445304D01*
X34222400Y2554680D01*
X34288173Y2653115D01*
X34371885Y2736827D01*
X34470320Y2802600D01*
X34547660Y2834635D01*
X34579695Y2847904D01*
X34645528Y2860999D01*
X34695805Y2871000D01*
X34814195Y2871000D01*
X34864472Y2860999D01*
G37*
G36*
X32864472Y2860999D02*
G01*
X32930305Y2847904D01*
X32962340Y2834635D01*
X33039680Y2802600D01*
X33138115Y2736827D01*
X33221827Y2653115D01*
X33287600Y2554680D01*
X33332904Y2445304D01*
X33356000Y2329195D01*
X33356000Y2210805D01*
X33332904Y2094696D01*
X33287600Y1985320D01*
X33221827Y1886885D01*
X33138115Y1803173D01*
X33039680Y1737400D01*
X32962340Y1705365D01*
X32930305Y1692096D01*
X32891601Y1684397D01*
X32814195Y1669000D01*
X32695805Y1669000D01*
X32618399Y1684397D01*
X32579695Y1692096D01*
X32547660Y1705365D01*
X32470320Y1737400D01*
X32371885Y1803173D01*
X32288173Y1886885D01*
X32222400Y1985320D01*
X32177096Y2094696D01*
X32154000Y2210805D01*
X32154000Y2329195D01*
X32177096Y2445304D01*
X32222400Y2554680D01*
X32288173Y2653115D01*
X32371885Y2736827D01*
X32470320Y2802600D01*
X32547660Y2834635D01*
X32579695Y2847904D01*
X32645528Y2860999D01*
X32695805Y2871000D01*
X32814195Y2871000D01*
X32864472Y2860999D01*
G37*
G36*
X30864472Y2860999D02*
G01*
X30930305Y2847904D01*
X30962340Y2834635D01*
X31039680Y2802600D01*
X31138115Y2736827D01*
X31221827Y2653115D01*
X31287600Y2554680D01*
X31332904Y2445304D01*
X31356000Y2329195D01*
X31356000Y2210805D01*
X31332904Y2094696D01*
X31287600Y1985320D01*
X31221827Y1886885D01*
X31138115Y1803173D01*
X31039680Y1737400D01*
X30962340Y1705365D01*
X30930305Y1692096D01*
X30891601Y1684397D01*
X30814195Y1669000D01*
X30695805Y1669000D01*
X30618399Y1684397D01*
X30579695Y1692096D01*
X30547660Y1705365D01*
X30470320Y1737400D01*
X30371885Y1803173D01*
X30288173Y1886885D01*
X30222400Y1985320D01*
X30177096Y2094696D01*
X30154000Y2210805D01*
X30154000Y2329195D01*
X30177096Y2445304D01*
X30222400Y2554680D01*
X30288173Y2653115D01*
X30371885Y2736827D01*
X30470320Y2802600D01*
X30547660Y2834635D01*
X30579695Y2847904D01*
X30645528Y2860999D01*
X30695805Y2871000D01*
X30814195Y2871000D01*
X30864472Y2860999D01*
G37*
G36*
X28864472Y2860999D02*
G01*
X28930305Y2847904D01*
X28962340Y2834635D01*
X29039680Y2802600D01*
X29138115Y2736827D01*
X29221827Y2653115D01*
X29287600Y2554680D01*
X29332904Y2445304D01*
X29356000Y2329195D01*
X29356000Y2210805D01*
X29332904Y2094696D01*
X29287600Y1985320D01*
X29221827Y1886885D01*
X29138115Y1803173D01*
X29039680Y1737400D01*
X28962340Y1705365D01*
X28930305Y1692096D01*
X28891601Y1684397D01*
X28814195Y1669000D01*
X28695805Y1669000D01*
X28618399Y1684397D01*
X28579695Y1692096D01*
X28547660Y1705365D01*
X28470320Y1737400D01*
X28371885Y1803173D01*
X28288173Y1886885D01*
X28222400Y1985320D01*
X28177096Y2094696D01*
X28154000Y2210805D01*
X28154000Y2329195D01*
X28177096Y2445304D01*
X28222400Y2554680D01*
X28288173Y2653115D01*
X28371885Y2736827D01*
X28470320Y2802600D01*
X28547660Y2834635D01*
X28579695Y2847904D01*
X28645528Y2860999D01*
X28695805Y2871000D01*
X28814195Y2871000D01*
X28864472Y2860999D01*
G37*
G36*
X26864472Y2860999D02*
G01*
X26930305Y2847904D01*
X26962340Y2834635D01*
X27039680Y2802600D01*
X27138115Y2736827D01*
X27221827Y2653115D01*
X27287600Y2554680D01*
X27332904Y2445304D01*
X27356000Y2329195D01*
X27356000Y2210805D01*
X27332904Y2094696D01*
X27287600Y1985320D01*
X27221827Y1886885D01*
X27138115Y1803173D01*
X27039680Y1737400D01*
X26962340Y1705365D01*
X26930305Y1692096D01*
X26891601Y1684397D01*
X26814195Y1669000D01*
X26695805Y1669000D01*
X26618399Y1684397D01*
X26579695Y1692096D01*
X26547660Y1705365D01*
X26470320Y1737400D01*
X26371885Y1803173D01*
X26288173Y1886885D01*
X26222400Y1985320D01*
X26177096Y2094696D01*
X26154000Y2210805D01*
X26154000Y2329195D01*
X26177096Y2445304D01*
X26222400Y2554680D01*
X26288173Y2653115D01*
X26371885Y2736827D01*
X26470320Y2802600D01*
X26547660Y2834635D01*
X26579695Y2847904D01*
X26645528Y2860999D01*
X26695805Y2871000D01*
X26814195Y2871000D01*
X26864472Y2860999D01*
G37*
G36*
X20864472Y2860999D02*
G01*
X20930305Y2847904D01*
X20962340Y2834635D01*
X21039680Y2802600D01*
X21138115Y2736827D01*
X21221827Y2653115D01*
X21287600Y2554680D01*
X21332904Y2445304D01*
X21356000Y2329195D01*
X21356000Y2210805D01*
X21332904Y2094696D01*
X21287600Y1985320D01*
X21221827Y1886885D01*
X21138115Y1803173D01*
X21039680Y1737400D01*
X20962340Y1705365D01*
X20930305Y1692096D01*
X20891601Y1684397D01*
X20814195Y1669000D01*
X20695805Y1669000D01*
X20618399Y1684397D01*
X20579695Y1692096D01*
X20547660Y1705365D01*
X20470320Y1737400D01*
X20371885Y1803173D01*
X20288173Y1886885D01*
X20222400Y1985320D01*
X20177096Y2094696D01*
X20154000Y2210805D01*
X20154000Y2329195D01*
X20177096Y2445304D01*
X20222400Y2554680D01*
X20288173Y2653115D01*
X20371885Y2736827D01*
X20470320Y2802600D01*
X20547660Y2834635D01*
X20579695Y2847904D01*
X20645528Y2860999D01*
X20695805Y2871000D01*
X20814195Y2871000D01*
X20864472Y2860999D01*
G37*
G36*
X18864472Y2860999D02*
G01*
X18930305Y2847904D01*
X18962340Y2834635D01*
X19039680Y2802600D01*
X19138115Y2736827D01*
X19221827Y2653115D01*
X19287600Y2554680D01*
X19332904Y2445304D01*
X19356000Y2329195D01*
X19356000Y2210805D01*
X19332904Y2094696D01*
X19287600Y1985320D01*
X19221827Y1886885D01*
X19138115Y1803173D01*
X19039680Y1737400D01*
X18962340Y1705365D01*
X18930305Y1692096D01*
X18891601Y1684397D01*
X18814195Y1669000D01*
X18695805Y1669000D01*
X18618399Y1684397D01*
X18579695Y1692096D01*
X18547660Y1705365D01*
X18470320Y1737400D01*
X18371885Y1803173D01*
X18288173Y1886885D01*
X18222400Y1985320D01*
X18177096Y2094696D01*
X18154000Y2210805D01*
X18154000Y2329195D01*
X18177096Y2445304D01*
X18222400Y2554680D01*
X18288173Y2653115D01*
X18371885Y2736827D01*
X18470320Y2802600D01*
X18547660Y2834635D01*
X18579695Y2847904D01*
X18645528Y2860999D01*
X18695805Y2871000D01*
X18814195Y2871000D01*
X18864472Y2860999D01*
G37*
G36*
X7451000Y1674000D02*
G01*
X5749000Y1674000D01*
X5749000Y4576000D01*
X7451000Y4576000D01*
X7451000Y1674000D01*
G37*
G36*
X-16704157Y3980786D02*
G01*
X-16704154Y3980785D01*
X-16704155Y3980785D01*
X-16613161Y3943094D01*
X-16571937Y3915549D01*
X-16531270Y3888376D01*
X-16461624Y3818730D01*
X-16406905Y3736837D01*
X-16369214Y3645843D01*
X-16350000Y3549247D01*
X-16350000Y3450753D01*
X-16369214Y3354157D01*
X-16369215Y3354155D01*
X-16406906Y3263161D01*
X-16434451Y3221937D01*
X-16461624Y3181270D01*
X-16531270Y3111624D01*
X-16571937Y3084451D01*
X-16613161Y3056906D01*
X-16613162Y3056905D01*
X-16613163Y3056905D01*
X-16704157Y3019214D01*
X-16800753Y3000000D01*
X-16899247Y3000000D01*
X-16995843Y3019214D01*
X-17086837Y3056905D01*
X-17086838Y3056905D01*
X-17086839Y3056906D01*
X-17128063Y3084451D01*
X-17168730Y3111624D01*
X-17238376Y3181270D01*
X-17265549Y3221937D01*
X-17293094Y3263161D01*
X-17330785Y3354155D01*
X-17330786Y3354157D01*
X-17350000Y3450753D01*
X-17350000Y3549247D01*
X-17330786Y3645843D01*
X-17293095Y3736837D01*
X-17238376Y3818730D01*
X-17168730Y3888376D01*
X-17128063Y3915549D01*
X-17086839Y3943094D01*
X-16995845Y3980785D01*
X-16995846Y3980785D01*
X-16995843Y3980786D01*
X-16899247Y4000000D01*
X-16800753Y4000000D01*
X-16704157Y3980786D01*
G37*
G36*
X43891601Y4855603D02*
G01*
X43930305Y4847904D01*
X43962340Y4834635D01*
X44039680Y4802600D01*
X44138115Y4736827D01*
X44221827Y4653115D01*
X44287600Y4554680D01*
X44332904Y4445304D01*
X44356000Y4329195D01*
X44356000Y4210805D01*
X44332904Y4094696D01*
X44287600Y3985320D01*
X44221827Y3886885D01*
X44138115Y3803173D01*
X44039680Y3737400D01*
X43962340Y3705365D01*
X43930305Y3692096D01*
X43891601Y3684397D01*
X43814195Y3669000D01*
X43695805Y3669000D01*
X43618399Y3684397D01*
X43579695Y3692096D01*
X43547660Y3705365D01*
X43470320Y3737400D01*
X43371885Y3803173D01*
X43288173Y3886885D01*
X43222400Y3985320D01*
X43177096Y4094696D01*
X43154000Y4210805D01*
X43154000Y4329195D01*
X43177096Y4445304D01*
X43222400Y4554680D01*
X43288173Y4653115D01*
X43371885Y4736827D01*
X43470320Y4802600D01*
X43547660Y4834635D01*
X43579695Y4847904D01*
X43618399Y4855603D01*
X43695805Y4871000D01*
X43814195Y4871000D01*
X43891601Y4855603D01*
G37*
G36*
X25891601Y4855603D02*
G01*
X25930305Y4847904D01*
X25962340Y4834635D01*
X26039680Y4802600D01*
X26138115Y4736827D01*
X26221827Y4653115D01*
X26287600Y4554680D01*
X26332904Y4445304D01*
X26356000Y4329195D01*
X26356000Y4210805D01*
X26332904Y4094696D01*
X26287600Y3985320D01*
X26221827Y3886885D01*
X26138115Y3803173D01*
X26039680Y3737400D01*
X25962340Y3705365D01*
X25930305Y3692096D01*
X25891601Y3684397D01*
X25814195Y3669000D01*
X25695805Y3669000D01*
X25618399Y3684397D01*
X25579695Y3692096D01*
X25547660Y3705365D01*
X25470320Y3737400D01*
X25371885Y3803173D01*
X25288173Y3886885D01*
X25222400Y3985320D01*
X25177096Y4094696D01*
X25154000Y4210805D01*
X25154000Y4329195D01*
X25177096Y4445304D01*
X25222400Y4554680D01*
X25288173Y4653115D01*
X25371885Y4736827D01*
X25470320Y4802600D01*
X25547660Y4834635D01*
X25579695Y4847904D01*
X25618399Y4855603D01*
X25695805Y4871000D01*
X25814195Y4871000D01*
X25891601Y4855603D01*
G37*
G36*
X73891601Y4855603D02*
G01*
X73930305Y4847904D01*
X73962340Y4834635D01*
X74039680Y4802600D01*
X74138115Y4736827D01*
X74221827Y4653115D01*
X74287600Y4554680D01*
X74332904Y4445304D01*
X74356000Y4329195D01*
X74356000Y4210805D01*
X74332904Y4094696D01*
X74287600Y3985320D01*
X74221827Y3886885D01*
X74138115Y3803173D01*
X74039680Y3737400D01*
X73962340Y3705365D01*
X73930305Y3692096D01*
X73891601Y3684397D01*
X73814195Y3669000D01*
X73695805Y3669000D01*
X73618399Y3684397D01*
X73579695Y3692096D01*
X73547660Y3705365D01*
X73470320Y3737400D01*
X73371885Y3803173D01*
X73288173Y3886885D01*
X73222400Y3985320D01*
X73177096Y4094696D01*
X73154000Y4210805D01*
X73154000Y4329195D01*
X73177096Y4445304D01*
X73222400Y4554680D01*
X73288173Y4653115D01*
X73371885Y4736827D01*
X73470320Y4802600D01*
X73547660Y4834635D01*
X73579695Y4847904D01*
X73618399Y4855603D01*
X73695805Y4871000D01*
X73814195Y4871000D01*
X73891601Y4855603D01*
G37*
G36*
X85891601Y4855603D02*
G01*
X85930305Y4847904D01*
X85962340Y4834635D01*
X86039680Y4802600D01*
X86138115Y4736827D01*
X86221827Y4653115D01*
X86287600Y4554680D01*
X86332904Y4445304D01*
X86356000Y4329195D01*
X86356000Y4210805D01*
X86332904Y4094696D01*
X86287600Y3985320D01*
X86221827Y3886885D01*
X86138115Y3803173D01*
X86039680Y3737400D01*
X85962340Y3705365D01*
X85930305Y3692096D01*
X85891601Y3684397D01*
X85814195Y3669000D01*
X85695805Y3669000D01*
X85618399Y3684397D01*
X85579695Y3692096D01*
X85547660Y3705365D01*
X85470320Y3737400D01*
X85371885Y3803173D01*
X85288173Y3886885D01*
X85222400Y3985320D01*
X85177096Y4094696D01*
X85154000Y4210805D01*
X85154000Y4329195D01*
X85177096Y4445304D01*
X85222400Y4554680D01*
X85288173Y4653115D01*
X85371885Y4736827D01*
X85470320Y4802600D01*
X85547660Y4834635D01*
X85579695Y4847904D01*
X85618399Y4855603D01*
X85695805Y4871000D01*
X85814195Y4871000D01*
X85891601Y4855603D01*
G37*
G36*
X87891601Y4855603D02*
G01*
X87930305Y4847904D01*
X87962340Y4834635D01*
X88039680Y4802600D01*
X88138115Y4736827D01*
X88221827Y4653115D01*
X88287600Y4554680D01*
X88332904Y4445304D01*
X88356000Y4329195D01*
X88356000Y4210805D01*
X88332904Y4094696D01*
X88287600Y3985320D01*
X88221827Y3886885D01*
X88138115Y3803173D01*
X88039680Y3737400D01*
X87962340Y3705365D01*
X87930305Y3692096D01*
X87891601Y3684397D01*
X87814195Y3669000D01*
X87695805Y3669000D01*
X87618399Y3684397D01*
X87579695Y3692096D01*
X87547660Y3705365D01*
X87470320Y3737400D01*
X87371885Y3803173D01*
X87288173Y3886885D01*
X87222400Y3985320D01*
X87177096Y4094696D01*
X87154000Y4210805D01*
X87154000Y4329195D01*
X87177096Y4445304D01*
X87222400Y4554680D01*
X87288173Y4653115D01*
X87371885Y4736827D01*
X87470320Y4802600D01*
X87547660Y4834635D01*
X87579695Y4847904D01*
X87618399Y4855603D01*
X87695805Y4871000D01*
X87814195Y4871000D01*
X87891601Y4855603D01*
G37*
G36*
X41891601Y4855603D02*
G01*
X41930305Y4847904D01*
X41962340Y4834635D01*
X42039680Y4802600D01*
X42138115Y4736827D01*
X42221827Y4653115D01*
X42287600Y4554680D01*
X42332904Y4445304D01*
X42356000Y4329195D01*
X42356000Y4210805D01*
X42332904Y4094696D01*
X42287600Y3985320D01*
X42221827Y3886885D01*
X42138115Y3803173D01*
X42039680Y3737400D01*
X41962340Y3705365D01*
X41930305Y3692096D01*
X41891601Y3684397D01*
X41814195Y3669000D01*
X41695805Y3669000D01*
X41618399Y3684397D01*
X41579695Y3692096D01*
X41547660Y3705365D01*
X41470320Y3737400D01*
X41371885Y3803173D01*
X41288173Y3886885D01*
X41222400Y3985320D01*
X41177096Y4094696D01*
X41154000Y4210805D01*
X41154000Y4329195D01*
X41177096Y4445304D01*
X41222400Y4554680D01*
X41288173Y4653115D01*
X41371885Y4736827D01*
X41470320Y4802600D01*
X41547660Y4834635D01*
X41579695Y4847904D01*
X41618399Y4855603D01*
X41695805Y4871000D01*
X41814195Y4871000D01*
X41891601Y4855603D01*
G37*
G36*
X69891601Y4855603D02*
G01*
X69930305Y4847904D01*
X69962340Y4834635D01*
X70039680Y4802600D01*
X70138115Y4736827D01*
X70221827Y4653115D01*
X70287600Y4554680D01*
X70332904Y4445304D01*
X70356000Y4329195D01*
X70356000Y4210805D01*
X70332904Y4094696D01*
X70287600Y3985320D01*
X70221827Y3886885D01*
X70138115Y3803173D01*
X70039680Y3737400D01*
X69962340Y3705365D01*
X69930305Y3692096D01*
X69891601Y3684397D01*
X69814195Y3669000D01*
X69695805Y3669000D01*
X69618399Y3684397D01*
X69579695Y3692096D01*
X69547660Y3705365D01*
X69470320Y3737400D01*
X69371885Y3803173D01*
X69288173Y3886885D01*
X69222400Y3985320D01*
X69177096Y4094696D01*
X69154000Y4210805D01*
X69154000Y4329195D01*
X69177096Y4445304D01*
X69222400Y4554680D01*
X69288173Y4653115D01*
X69371885Y4736827D01*
X69470320Y4802600D01*
X69547660Y4834635D01*
X69579695Y4847904D01*
X69618399Y4855603D01*
X69695805Y4871000D01*
X69814195Y4871000D01*
X69891601Y4855603D01*
G37*
G36*
X19891601Y4855603D02*
G01*
X19930305Y4847904D01*
X19962340Y4834635D01*
X20039680Y4802600D01*
X20138115Y4736827D01*
X20221827Y4653115D01*
X20287600Y4554680D01*
X20332904Y4445304D01*
X20356000Y4329195D01*
X20356000Y4210805D01*
X20332904Y4094696D01*
X20287600Y3985320D01*
X20221827Y3886885D01*
X20138115Y3803173D01*
X20039680Y3737400D01*
X19962340Y3705365D01*
X19930305Y3692096D01*
X19891601Y3684397D01*
X19814195Y3669000D01*
X19695805Y3669000D01*
X19618399Y3684397D01*
X19579695Y3692096D01*
X19547660Y3705365D01*
X19470320Y3737400D01*
X19371885Y3803173D01*
X19288173Y3886885D01*
X19222400Y3985320D01*
X19177096Y4094696D01*
X19154000Y4210805D01*
X19154000Y4329195D01*
X19177096Y4445304D01*
X19222400Y4554680D01*
X19288173Y4653115D01*
X19371885Y4736827D01*
X19470320Y4802600D01*
X19547660Y4834635D01*
X19579695Y4847904D01*
X19618399Y4855603D01*
X19695805Y4871000D01*
X19814195Y4871000D01*
X19891601Y4855603D01*
G37*
G36*
X67891601Y4855603D02*
G01*
X67930305Y4847904D01*
X67962340Y4834635D01*
X68039680Y4802600D01*
X68138115Y4736827D01*
X68221827Y4653115D01*
X68287600Y4554680D01*
X68332904Y4445304D01*
X68356000Y4329195D01*
X68356000Y4210805D01*
X68332904Y4094696D01*
X68287600Y3985320D01*
X68221827Y3886885D01*
X68138115Y3803173D01*
X68039680Y3737400D01*
X67962340Y3705365D01*
X67930305Y3692096D01*
X67891601Y3684397D01*
X67814195Y3669000D01*
X67695805Y3669000D01*
X67618399Y3684397D01*
X67579695Y3692096D01*
X67547660Y3705365D01*
X67470320Y3737400D01*
X67371885Y3803173D01*
X67288173Y3886885D01*
X67222400Y3985320D01*
X67177096Y4094696D01*
X67154000Y4210805D01*
X67154000Y4329195D01*
X67177096Y4445304D01*
X67222400Y4554680D01*
X67288173Y4653115D01*
X67371885Y4736827D01*
X67470320Y4802600D01*
X67547660Y4834635D01*
X67579695Y4847904D01*
X67618399Y4855603D01*
X67695805Y4871000D01*
X67814195Y4871000D01*
X67891601Y4855603D01*
G37*
G36*
X39891601Y4855603D02*
G01*
X39930305Y4847904D01*
X39962340Y4834635D01*
X40039680Y4802600D01*
X40138115Y4736827D01*
X40221827Y4653115D01*
X40287600Y4554680D01*
X40332904Y4445304D01*
X40356000Y4329195D01*
X40356000Y4210805D01*
X40332904Y4094696D01*
X40287600Y3985320D01*
X40221827Y3886885D01*
X40138115Y3803173D01*
X40039680Y3737400D01*
X39962340Y3705365D01*
X39930305Y3692096D01*
X39891601Y3684397D01*
X39814195Y3669000D01*
X39695805Y3669000D01*
X39618399Y3684397D01*
X39579695Y3692096D01*
X39547660Y3705365D01*
X39470320Y3737400D01*
X39371885Y3803173D01*
X39288173Y3886885D01*
X39222400Y3985320D01*
X39177096Y4094696D01*
X39154000Y4210805D01*
X39154000Y4329195D01*
X39177096Y4445304D01*
X39222400Y4554680D01*
X39288173Y4653115D01*
X39371885Y4736827D01*
X39470320Y4802600D01*
X39547660Y4834635D01*
X39579695Y4847904D01*
X39618399Y4855603D01*
X39695805Y4871000D01*
X39814195Y4871000D01*
X39891601Y4855603D01*
G37*
G36*
X65891601Y4855603D02*
G01*
X65930305Y4847904D01*
X65962340Y4834635D01*
X66039680Y4802600D01*
X66138115Y4736827D01*
X66221827Y4653115D01*
X66287600Y4554680D01*
X66332904Y4445304D01*
X66356000Y4329195D01*
X66356000Y4210805D01*
X66332904Y4094696D01*
X66287600Y3985320D01*
X66221827Y3886885D01*
X66138115Y3803173D01*
X66039680Y3737400D01*
X65962340Y3705365D01*
X65930305Y3692096D01*
X65891601Y3684397D01*
X65814195Y3669000D01*
X65695805Y3669000D01*
X65618399Y3684397D01*
X65579695Y3692096D01*
X65547660Y3705365D01*
X65470320Y3737400D01*
X65371885Y3803173D01*
X65288173Y3886885D01*
X65222400Y3985320D01*
X65177096Y4094696D01*
X65154000Y4210805D01*
X65154000Y4329195D01*
X65177096Y4445304D01*
X65222400Y4554680D01*
X65288173Y4653115D01*
X65371885Y4736827D01*
X65470320Y4802600D01*
X65547660Y4834635D01*
X65579695Y4847904D01*
X65618399Y4855603D01*
X65695805Y4871000D01*
X65814195Y4871000D01*
X65891601Y4855603D01*
G37*
G36*
X49891601Y4855603D02*
G01*
X49930305Y4847904D01*
X49962340Y4834635D01*
X50039680Y4802600D01*
X50138115Y4736827D01*
X50221827Y4653115D01*
X50287600Y4554680D01*
X50332904Y4445304D01*
X50356000Y4329195D01*
X50356000Y4210805D01*
X50332904Y4094696D01*
X50287600Y3985320D01*
X50221827Y3886885D01*
X50138115Y3803173D01*
X50039680Y3737400D01*
X49962340Y3705365D01*
X49930305Y3692096D01*
X49891601Y3684397D01*
X49814195Y3669000D01*
X49695805Y3669000D01*
X49618399Y3684397D01*
X49579695Y3692096D01*
X49547660Y3705365D01*
X49470320Y3737400D01*
X49371885Y3803173D01*
X49288173Y3886885D01*
X49222400Y3985320D01*
X49177096Y4094696D01*
X49154000Y4210805D01*
X49154000Y4329195D01*
X49177096Y4445304D01*
X49222400Y4554680D01*
X49288173Y4653115D01*
X49371885Y4736827D01*
X49470320Y4802600D01*
X49547660Y4834635D01*
X49579695Y4847904D01*
X49618399Y4855603D01*
X49695805Y4871000D01*
X49814195Y4871000D01*
X49891601Y4855603D01*
G37*
G36*
X37891601Y4855603D02*
G01*
X37930305Y4847904D01*
X37962340Y4834635D01*
X38039680Y4802600D01*
X38138115Y4736827D01*
X38221827Y4653115D01*
X38287600Y4554680D01*
X38332904Y4445304D01*
X38356000Y4329195D01*
X38356000Y4210805D01*
X38332904Y4094696D01*
X38287600Y3985320D01*
X38221827Y3886885D01*
X38138115Y3803173D01*
X38039680Y3737400D01*
X37962340Y3705365D01*
X37930305Y3692096D01*
X37891601Y3684397D01*
X37814195Y3669000D01*
X37695805Y3669000D01*
X37618399Y3684397D01*
X37579695Y3692096D01*
X37547660Y3705365D01*
X37470320Y3737400D01*
X37371885Y3803173D01*
X37288173Y3886885D01*
X37222400Y3985320D01*
X37177096Y4094696D01*
X37154000Y4210805D01*
X37154000Y4329195D01*
X37177096Y4445304D01*
X37222400Y4554680D01*
X37288173Y4653115D01*
X37371885Y4736827D01*
X37470320Y4802600D01*
X37547660Y4834635D01*
X37579695Y4847904D01*
X37618399Y4855603D01*
X37695805Y4871000D01*
X37814195Y4871000D01*
X37891601Y4855603D01*
G37*
G36*
X63891601Y4855603D02*
G01*
X63930305Y4847904D01*
X63962340Y4834635D01*
X64039680Y4802600D01*
X64138115Y4736827D01*
X64221827Y4653115D01*
X64287600Y4554680D01*
X64332904Y4445304D01*
X64356000Y4329195D01*
X64356000Y4210805D01*
X64332904Y4094696D01*
X64287600Y3985320D01*
X64221827Y3886885D01*
X64138115Y3803173D01*
X64039680Y3737400D01*
X63962340Y3705365D01*
X63930305Y3692096D01*
X63891601Y3684397D01*
X63814195Y3669000D01*
X63695805Y3669000D01*
X63618399Y3684397D01*
X63579695Y3692096D01*
X63547660Y3705365D01*
X63470320Y3737400D01*
X63371885Y3803173D01*
X63288173Y3886885D01*
X63222400Y3985320D01*
X63177096Y4094696D01*
X63154000Y4210805D01*
X63154000Y4329195D01*
X63177096Y4445304D01*
X63222400Y4554680D01*
X63288173Y4653115D01*
X63371885Y4736827D01*
X63470320Y4802600D01*
X63547660Y4834635D01*
X63579695Y4847904D01*
X63618399Y4855603D01*
X63695805Y4871000D01*
X63814195Y4871000D01*
X63891601Y4855603D01*
G37*
G36*
X57891601Y4855603D02*
G01*
X57930305Y4847904D01*
X57962340Y4834635D01*
X58039680Y4802600D01*
X58138115Y4736827D01*
X58221827Y4653115D01*
X58287600Y4554680D01*
X58332904Y4445304D01*
X58356000Y4329195D01*
X58356000Y4210805D01*
X58332904Y4094696D01*
X58287600Y3985320D01*
X58221827Y3886885D01*
X58138115Y3803173D01*
X58039680Y3737400D01*
X57962340Y3705365D01*
X57930305Y3692096D01*
X57891601Y3684397D01*
X57814195Y3669000D01*
X57695805Y3669000D01*
X57618399Y3684397D01*
X57579695Y3692096D01*
X57547660Y3705365D01*
X57470320Y3737400D01*
X57371885Y3803173D01*
X57288173Y3886885D01*
X57222400Y3985320D01*
X57177096Y4094696D01*
X57154000Y4210805D01*
X57154000Y4329195D01*
X57177096Y4445304D01*
X57222400Y4554680D01*
X57288173Y4653115D01*
X57371885Y4736827D01*
X57470320Y4802600D01*
X57547660Y4834635D01*
X57579695Y4847904D01*
X57618399Y4855603D01*
X57695805Y4871000D01*
X57814195Y4871000D01*
X57891601Y4855603D01*
G37*
G36*
X95891601Y4855603D02*
G01*
X95930305Y4847904D01*
X95962340Y4834635D01*
X96039680Y4802600D01*
X96138115Y4736827D01*
X96221827Y4653115D01*
X96287600Y4554680D01*
X96332904Y4445304D01*
X96356000Y4329195D01*
X96356000Y4210805D01*
X96332904Y4094696D01*
X96287600Y3985320D01*
X96221827Y3886885D01*
X96138115Y3803173D01*
X96039680Y3737400D01*
X95962340Y3705365D01*
X95930305Y3692096D01*
X95891601Y3684397D01*
X95814195Y3669000D01*
X95695805Y3669000D01*
X95618399Y3684397D01*
X95579695Y3692096D01*
X95547660Y3705365D01*
X95470320Y3737400D01*
X95371885Y3803173D01*
X95288173Y3886885D01*
X95222400Y3985320D01*
X95177096Y4094696D01*
X95154000Y4210805D01*
X95154000Y4329195D01*
X95177096Y4445304D01*
X95222400Y4554680D01*
X95288173Y4653115D01*
X95371885Y4736827D01*
X95470320Y4802600D01*
X95547660Y4834635D01*
X95579695Y4847904D01*
X95618399Y4855603D01*
X95695805Y4871000D01*
X95814195Y4871000D01*
X95891601Y4855603D01*
G37*
G36*
X21891601Y4855603D02*
G01*
X21930305Y4847904D01*
X21962340Y4834635D01*
X22039680Y4802600D01*
X22138115Y4736827D01*
X22221827Y4653115D01*
X22287600Y4554680D01*
X22332904Y4445304D01*
X22356000Y4329195D01*
X22356000Y4210805D01*
X22332904Y4094696D01*
X22287600Y3985320D01*
X22221827Y3886885D01*
X22138115Y3803173D01*
X22039680Y3737400D01*
X21962340Y3705365D01*
X21930305Y3692096D01*
X21891601Y3684397D01*
X21814195Y3669000D01*
X21695805Y3669000D01*
X21618399Y3684397D01*
X21579695Y3692096D01*
X21547660Y3705365D01*
X21470320Y3737400D01*
X21371885Y3803173D01*
X21288173Y3886885D01*
X21222400Y3985320D01*
X21177096Y4094696D01*
X21154000Y4210805D01*
X21154000Y4329195D01*
X21177096Y4445304D01*
X21222400Y4554680D01*
X21288173Y4653115D01*
X21371885Y4736827D01*
X21470320Y4802600D01*
X21547660Y4834635D01*
X21579695Y4847904D01*
X21618399Y4855603D01*
X21695805Y4871000D01*
X21814195Y4871000D01*
X21891601Y4855603D01*
G37*
G36*
X17891601Y4855603D02*
G01*
X17930305Y4847904D01*
X17962340Y4834635D01*
X18039680Y4802600D01*
X18138115Y4736827D01*
X18221827Y4653115D01*
X18287600Y4554680D01*
X18332904Y4445304D01*
X18356000Y4329195D01*
X18356000Y4210805D01*
X18332904Y4094696D01*
X18287600Y3985320D01*
X18221827Y3886885D01*
X18138115Y3803173D01*
X18039680Y3737400D01*
X17962340Y3705365D01*
X17930305Y3692096D01*
X17891601Y3684397D01*
X17814195Y3669000D01*
X17695805Y3669000D01*
X17618399Y3684397D01*
X17579695Y3692096D01*
X17547660Y3705365D01*
X17470320Y3737400D01*
X17371885Y3803173D01*
X17288173Y3886885D01*
X17222400Y3985320D01*
X17177096Y4094696D01*
X17154000Y4210805D01*
X17154000Y4329195D01*
X17177096Y4445304D01*
X17222400Y4554680D01*
X17288173Y4653115D01*
X17371885Y4736827D01*
X17470320Y4802600D01*
X17547660Y4834635D01*
X17579695Y4847904D01*
X17618399Y4855603D01*
X17695805Y4871000D01*
X17814195Y4871000D01*
X17891601Y4855603D01*
G37*
G36*
X15891601Y4855603D02*
G01*
X15930305Y4847904D01*
X15962340Y4834635D01*
X16039680Y4802600D01*
X16138115Y4736827D01*
X16221827Y4653115D01*
X16287600Y4554680D01*
X16332904Y4445304D01*
X16356000Y4329195D01*
X16356000Y4210805D01*
X16332904Y4094696D01*
X16287600Y3985320D01*
X16221827Y3886885D01*
X16138115Y3803173D01*
X16039680Y3737400D01*
X15962340Y3705365D01*
X15930305Y3692096D01*
X15891601Y3684397D01*
X15814195Y3669000D01*
X15695805Y3669000D01*
X15618399Y3684397D01*
X15579695Y3692096D01*
X15547660Y3705365D01*
X15470320Y3737400D01*
X15371885Y3803173D01*
X15288173Y3886885D01*
X15222400Y3985320D01*
X15177096Y4094696D01*
X15154000Y4210805D01*
X15154000Y4329195D01*
X15177096Y4445304D01*
X15222400Y4554680D01*
X15288173Y4653115D01*
X15371885Y4736827D01*
X15470320Y4802600D01*
X15547660Y4834635D01*
X15579695Y4847904D01*
X15618399Y4855603D01*
X15695805Y4871000D01*
X15814195Y4871000D01*
X15891601Y4855603D01*
G37*
G36*
X13891601Y4855603D02*
G01*
X13930305Y4847904D01*
X13962340Y4834635D01*
X14039680Y4802600D01*
X14138115Y4736827D01*
X14221827Y4653115D01*
X14287600Y4554680D01*
X14332904Y4445304D01*
X14356000Y4329195D01*
X14356000Y4210805D01*
X14332904Y4094696D01*
X14287600Y3985320D01*
X14221827Y3886885D01*
X14138115Y3803173D01*
X14039680Y3737400D01*
X13962340Y3705365D01*
X13930305Y3692096D01*
X13891601Y3684397D01*
X13814195Y3669000D01*
X13695805Y3669000D01*
X13618399Y3684397D01*
X13579695Y3692096D01*
X13547660Y3705365D01*
X13470320Y3737400D01*
X13371885Y3803173D01*
X13288173Y3886885D01*
X13222400Y3985320D01*
X13177096Y4094696D01*
X13154000Y4210805D01*
X13154000Y4329195D01*
X13177096Y4445304D01*
X13222400Y4554680D01*
X13288173Y4653115D01*
X13371885Y4736827D01*
X13470320Y4802600D01*
X13547660Y4834635D01*
X13579695Y4847904D01*
X13618399Y4855603D01*
X13695805Y4871000D01*
X13814195Y4871000D01*
X13891601Y4855603D01*
G37*
G36*
X29891601Y4855603D02*
G01*
X29930305Y4847904D01*
X29962340Y4834635D01*
X30039680Y4802600D01*
X30138115Y4736827D01*
X30221827Y4653115D01*
X30287600Y4554680D01*
X30332904Y4445304D01*
X30356000Y4329195D01*
X30356000Y4210805D01*
X30332904Y4094696D01*
X30287600Y3985320D01*
X30221827Y3886885D01*
X30138115Y3803173D01*
X30039680Y3737400D01*
X29962340Y3705365D01*
X29930305Y3692096D01*
X29891601Y3684397D01*
X29814195Y3669000D01*
X29695805Y3669000D01*
X29618399Y3684397D01*
X29579695Y3692096D01*
X29547660Y3705365D01*
X29470320Y3737400D01*
X29371885Y3803173D01*
X29288173Y3886885D01*
X29222400Y3985320D01*
X29177096Y4094696D01*
X29154000Y4210805D01*
X29154000Y4329195D01*
X29177096Y4445304D01*
X29222400Y4554680D01*
X29288173Y4653115D01*
X29371885Y4736827D01*
X29470320Y4802600D01*
X29547660Y4834635D01*
X29579695Y4847904D01*
X29618399Y4855603D01*
X29695805Y4871000D01*
X29814195Y4871000D01*
X29891601Y4855603D01*
G37*
G36*
X35891601Y4855603D02*
G01*
X35930305Y4847904D01*
X35962340Y4834635D01*
X36039680Y4802600D01*
X36138115Y4736827D01*
X36221827Y4653115D01*
X36287600Y4554680D01*
X36332904Y4445304D01*
X36356000Y4329195D01*
X36356000Y4210805D01*
X36332904Y4094696D01*
X36287600Y3985320D01*
X36221827Y3886885D01*
X36138115Y3803173D01*
X36039680Y3737400D01*
X35962340Y3705365D01*
X35930305Y3692096D01*
X35891601Y3684397D01*
X35814195Y3669000D01*
X35695805Y3669000D01*
X35618399Y3684397D01*
X35579695Y3692096D01*
X35547660Y3705365D01*
X35470320Y3737400D01*
X35371885Y3803173D01*
X35288173Y3886885D01*
X35222400Y3985320D01*
X35177096Y4094696D01*
X35154000Y4210805D01*
X35154000Y4329195D01*
X35177096Y4445304D01*
X35222400Y4554680D01*
X35288173Y4653115D01*
X35371885Y4736827D01*
X35470320Y4802600D01*
X35547660Y4834635D01*
X35579695Y4847904D01*
X35618399Y4855603D01*
X35695805Y4871000D01*
X35814195Y4871000D01*
X35891601Y4855603D01*
G37*
G36*
X55891601Y4855603D02*
G01*
X55930305Y4847904D01*
X55962340Y4834635D01*
X56039680Y4802600D01*
X56138115Y4736827D01*
X56221827Y4653115D01*
X56287600Y4554680D01*
X56332904Y4445304D01*
X56356000Y4329195D01*
X56356000Y4210805D01*
X56332904Y4094696D01*
X56287600Y3985320D01*
X56221827Y3886885D01*
X56138115Y3803173D01*
X56039680Y3737400D01*
X55962340Y3705365D01*
X55930305Y3692096D01*
X55891601Y3684397D01*
X55814195Y3669000D01*
X55695805Y3669000D01*
X55618399Y3684397D01*
X55579695Y3692096D01*
X55547660Y3705365D01*
X55470320Y3737400D01*
X55371885Y3803173D01*
X55288173Y3886885D01*
X55222400Y3985320D01*
X55177096Y4094696D01*
X55154000Y4210805D01*
X55154000Y4329195D01*
X55177096Y4445304D01*
X55222400Y4554680D01*
X55288173Y4653115D01*
X55371885Y4736827D01*
X55470320Y4802600D01*
X55547660Y4834635D01*
X55579695Y4847904D01*
X55618399Y4855603D01*
X55695805Y4871000D01*
X55814195Y4871000D01*
X55891601Y4855603D01*
G37*
G36*
X61891601Y4855603D02*
G01*
X61930305Y4847904D01*
X61962340Y4834635D01*
X62039680Y4802600D01*
X62138115Y4736827D01*
X62221827Y4653115D01*
X62287600Y4554680D01*
X62332904Y4445304D01*
X62356000Y4329195D01*
X62356000Y4210805D01*
X62332904Y4094696D01*
X62287600Y3985320D01*
X62221827Y3886885D01*
X62138115Y3803173D01*
X62039680Y3737400D01*
X61962340Y3705365D01*
X61930305Y3692096D01*
X61891601Y3684397D01*
X61814195Y3669000D01*
X61695805Y3669000D01*
X61618399Y3684397D01*
X61579695Y3692096D01*
X61547660Y3705365D01*
X61470320Y3737400D01*
X61371885Y3803173D01*
X61288173Y3886885D01*
X61222400Y3985320D01*
X61177096Y4094696D01*
X61154000Y4210805D01*
X61154000Y4329195D01*
X61177096Y4445304D01*
X61222400Y4554680D01*
X61288173Y4653115D01*
X61371885Y4736827D01*
X61470320Y4802600D01*
X61547660Y4834635D01*
X61579695Y4847904D01*
X61618399Y4855603D01*
X61695805Y4871000D01*
X61814195Y4871000D01*
X61891601Y4855603D01*
G37*
G36*
X33891601Y4855603D02*
G01*
X33930305Y4847904D01*
X33962340Y4834635D01*
X34039680Y4802600D01*
X34138115Y4736827D01*
X34221827Y4653115D01*
X34287600Y4554680D01*
X34332904Y4445304D01*
X34356000Y4329195D01*
X34356000Y4210805D01*
X34332904Y4094696D01*
X34287600Y3985320D01*
X34221827Y3886885D01*
X34138115Y3803173D01*
X34039680Y3737400D01*
X33962340Y3705365D01*
X33930305Y3692096D01*
X33891601Y3684397D01*
X33814195Y3669000D01*
X33695805Y3669000D01*
X33618399Y3684397D01*
X33579695Y3692096D01*
X33547660Y3705365D01*
X33470320Y3737400D01*
X33371885Y3803173D01*
X33288173Y3886885D01*
X33222400Y3985320D01*
X33177096Y4094696D01*
X33154000Y4210805D01*
X33154000Y4329195D01*
X33177096Y4445304D01*
X33222400Y4554680D01*
X33288173Y4653115D01*
X33371885Y4736827D01*
X33470320Y4802600D01*
X33547660Y4834635D01*
X33579695Y4847904D01*
X33618399Y4855603D01*
X33695805Y4871000D01*
X33814195Y4871000D01*
X33891601Y4855603D01*
G37*
G36*
X89891601Y4855603D02*
G01*
X89930305Y4847904D01*
X89962340Y4834635D01*
X90039680Y4802600D01*
X90138115Y4736827D01*
X90221827Y4653115D01*
X90287600Y4554680D01*
X90332904Y4445304D01*
X90356000Y4329195D01*
X90356000Y4210805D01*
X90332904Y4094696D01*
X90287600Y3985320D01*
X90221827Y3886885D01*
X90138115Y3803173D01*
X90039680Y3737400D01*
X89962340Y3705365D01*
X89930305Y3692096D01*
X89891601Y3684397D01*
X89814195Y3669000D01*
X89695805Y3669000D01*
X89618399Y3684397D01*
X89579695Y3692096D01*
X89547660Y3705365D01*
X89470320Y3737400D01*
X89371885Y3803173D01*
X89288173Y3886885D01*
X89222400Y3985320D01*
X89177096Y4094696D01*
X89154000Y4210805D01*
X89154000Y4329195D01*
X89177096Y4445304D01*
X89222400Y4554680D01*
X89288173Y4653115D01*
X89371885Y4736827D01*
X89470320Y4802600D01*
X89547660Y4834635D01*
X89579695Y4847904D01*
X89618399Y4855603D01*
X89695805Y4871000D01*
X89814195Y4871000D01*
X89891601Y4855603D01*
G37*
G36*
X59891601Y4855603D02*
G01*
X59930305Y4847904D01*
X59962340Y4834635D01*
X60039680Y4802600D01*
X60138115Y4736827D01*
X60221827Y4653115D01*
X60287600Y4554680D01*
X60332904Y4445304D01*
X60356000Y4329195D01*
X60356000Y4210805D01*
X60332904Y4094696D01*
X60287600Y3985320D01*
X60221827Y3886885D01*
X60138115Y3803173D01*
X60039680Y3737400D01*
X59962340Y3705365D01*
X59930305Y3692096D01*
X59891601Y3684397D01*
X59814195Y3669000D01*
X59695805Y3669000D01*
X59618399Y3684397D01*
X59579695Y3692096D01*
X59547660Y3705365D01*
X59470320Y3737400D01*
X59371885Y3803173D01*
X59288173Y3886885D01*
X59222400Y3985320D01*
X59177096Y4094696D01*
X59154000Y4210805D01*
X59154000Y4329195D01*
X59177096Y4445304D01*
X59222400Y4554680D01*
X59288173Y4653115D01*
X59371885Y4736827D01*
X59470320Y4802600D01*
X59547660Y4834635D01*
X59579695Y4847904D01*
X59618399Y4855603D01*
X59695805Y4871000D01*
X59814195Y4871000D01*
X59891601Y4855603D01*
G37*
G36*
X51891601Y4855603D02*
G01*
X51930305Y4847904D01*
X51962340Y4834635D01*
X52039680Y4802600D01*
X52138115Y4736827D01*
X52221827Y4653115D01*
X52287600Y4554680D01*
X52332904Y4445304D01*
X52356000Y4329195D01*
X52356000Y4210805D01*
X52332904Y4094696D01*
X52287600Y3985320D01*
X52221827Y3886885D01*
X52138115Y3803173D01*
X52039680Y3737400D01*
X51962340Y3705365D01*
X51930305Y3692096D01*
X51891601Y3684397D01*
X51814195Y3669000D01*
X51695805Y3669000D01*
X51618399Y3684397D01*
X51579695Y3692096D01*
X51547660Y3705365D01*
X51470320Y3737400D01*
X51371885Y3803173D01*
X51288173Y3886885D01*
X51222400Y3985320D01*
X51177096Y4094696D01*
X51154000Y4210805D01*
X51154000Y4329195D01*
X51177096Y4445304D01*
X51222400Y4554680D01*
X51288173Y4653115D01*
X51371885Y4736827D01*
X51470320Y4802600D01*
X51547660Y4834635D01*
X51579695Y4847904D01*
X51618399Y4855603D01*
X51695805Y4871000D01*
X51814195Y4871000D01*
X51891601Y4855603D01*
G37*
G36*
X91891601Y4855603D02*
G01*
X91930305Y4847904D01*
X91962340Y4834635D01*
X92039680Y4802600D01*
X92138115Y4736827D01*
X92221827Y4653115D01*
X92287600Y4554680D01*
X92332904Y4445304D01*
X92356000Y4329195D01*
X92356000Y4210805D01*
X92332904Y4094696D01*
X92287600Y3985320D01*
X92221827Y3886885D01*
X92138115Y3803173D01*
X92039680Y3737400D01*
X91962340Y3705365D01*
X91930305Y3692096D01*
X91891601Y3684397D01*
X91814195Y3669000D01*
X91695805Y3669000D01*
X91618399Y3684397D01*
X91579695Y3692096D01*
X91547660Y3705365D01*
X91470320Y3737400D01*
X91371885Y3803173D01*
X91288173Y3886885D01*
X91222400Y3985320D01*
X91177096Y4094696D01*
X91154000Y4210805D01*
X91154000Y4329195D01*
X91177096Y4445304D01*
X91222400Y4554680D01*
X91288173Y4653115D01*
X91371885Y4736827D01*
X91470320Y4802600D01*
X91547660Y4834635D01*
X91579695Y4847904D01*
X91618399Y4855603D01*
X91695805Y4871000D01*
X91814195Y4871000D01*
X91891601Y4855603D01*
G37*
G36*
X31891601Y4855603D02*
G01*
X31930305Y4847904D01*
X31962340Y4834635D01*
X32039680Y4802600D01*
X32138115Y4736827D01*
X32221827Y4653115D01*
X32287600Y4554680D01*
X32332904Y4445304D01*
X32356000Y4329195D01*
X32356000Y4210805D01*
X32332904Y4094696D01*
X32287600Y3985320D01*
X32221827Y3886885D01*
X32138115Y3803173D01*
X32039680Y3737400D01*
X31962340Y3705365D01*
X31930305Y3692096D01*
X31891601Y3684397D01*
X31814195Y3669000D01*
X31695805Y3669000D01*
X31618399Y3684397D01*
X31579695Y3692096D01*
X31547660Y3705365D01*
X31470320Y3737400D01*
X31371885Y3803173D01*
X31288173Y3886885D01*
X31222400Y3985320D01*
X31177096Y4094696D01*
X31154000Y4210805D01*
X31154000Y4329195D01*
X31177096Y4445304D01*
X31222400Y4554680D01*
X31288173Y4653115D01*
X31371885Y4736827D01*
X31470320Y4802600D01*
X31547660Y4834635D01*
X31579695Y4847904D01*
X31618399Y4855603D01*
X31695805Y4871000D01*
X31814195Y4871000D01*
X31891601Y4855603D01*
G37*
G36*
X93891601Y4855603D02*
G01*
X93930305Y4847904D01*
X93962340Y4834635D01*
X94039680Y4802600D01*
X94138115Y4736827D01*
X94221827Y4653115D01*
X94287600Y4554680D01*
X94332904Y4445304D01*
X94356000Y4329195D01*
X94356000Y4210805D01*
X94332904Y4094696D01*
X94287600Y3985320D01*
X94221827Y3886885D01*
X94138115Y3803173D01*
X94039680Y3737400D01*
X93962340Y3705365D01*
X93930305Y3692096D01*
X93891601Y3684397D01*
X93814195Y3669000D01*
X93695805Y3669000D01*
X93618399Y3684397D01*
X93579695Y3692096D01*
X93547660Y3705365D01*
X93470320Y3737400D01*
X93371885Y3803173D01*
X93288173Y3886885D01*
X93222400Y3985320D01*
X93177096Y4094696D01*
X93154000Y4210805D01*
X93154000Y4329195D01*
X93177096Y4445304D01*
X93222400Y4554680D01*
X93288173Y4653115D01*
X93371885Y4736827D01*
X93470320Y4802600D01*
X93547660Y4834635D01*
X93579695Y4847904D01*
X93618399Y4855603D01*
X93695805Y4871000D01*
X93814195Y4871000D01*
X93891601Y4855603D01*
G37*
G36*
X75891601Y4855603D02*
G01*
X75930305Y4847904D01*
X75962340Y4834635D01*
X76039680Y4802600D01*
X76138115Y4736827D01*
X76221827Y4653115D01*
X76287600Y4554680D01*
X76332904Y4445304D01*
X76356000Y4329195D01*
X76356000Y4210805D01*
X76332904Y4094696D01*
X76287600Y3985320D01*
X76221827Y3886885D01*
X76138115Y3803173D01*
X76039680Y3737400D01*
X75962340Y3705365D01*
X75930305Y3692096D01*
X75891601Y3684397D01*
X75814195Y3669000D01*
X75695805Y3669000D01*
X75618399Y3684397D01*
X75579695Y3692096D01*
X75547660Y3705365D01*
X75470320Y3737400D01*
X75371885Y3803173D01*
X75288173Y3886885D01*
X75222400Y3985320D01*
X75177096Y4094696D01*
X75154000Y4210805D01*
X75154000Y4329195D01*
X75177096Y4445304D01*
X75222400Y4554680D01*
X75288173Y4653115D01*
X75371885Y4736827D01*
X75470320Y4802600D01*
X75547660Y4834635D01*
X75579695Y4847904D01*
X75618399Y4855603D01*
X75695805Y4871000D01*
X75814195Y4871000D01*
X75891601Y4855603D01*
G37*
G36*
X53891601Y4855603D02*
G01*
X53930305Y4847904D01*
X53962340Y4834635D01*
X54039680Y4802600D01*
X54138115Y4736827D01*
X54221827Y4653115D01*
X54287600Y4554680D01*
X54332904Y4445304D01*
X54356000Y4329195D01*
X54356000Y4210805D01*
X54332904Y4094696D01*
X54287600Y3985320D01*
X54221827Y3886885D01*
X54138115Y3803173D01*
X54039680Y3737400D01*
X53962340Y3705365D01*
X53930305Y3692096D01*
X53891601Y3684397D01*
X53814195Y3669000D01*
X53695805Y3669000D01*
X53618399Y3684397D01*
X53579695Y3692096D01*
X53547660Y3705365D01*
X53470320Y3737400D01*
X53371885Y3803173D01*
X53288173Y3886885D01*
X53222400Y3985320D01*
X53177096Y4094696D01*
X53154000Y4210805D01*
X53154000Y4329195D01*
X53177096Y4445304D01*
X53222400Y4554680D01*
X53288173Y4653115D01*
X53371885Y4736827D01*
X53470320Y4802600D01*
X53547660Y4834635D01*
X53579695Y4847904D01*
X53618399Y4855603D01*
X53695805Y4871000D01*
X53814195Y4871000D01*
X53891601Y4855603D01*
G37*
G36*
X27891601Y4855603D02*
G01*
X27930305Y4847904D01*
X27962340Y4834635D01*
X28039680Y4802600D01*
X28138115Y4736827D01*
X28221827Y4653115D01*
X28287600Y4554680D01*
X28332904Y4445304D01*
X28356000Y4329195D01*
X28356000Y4210805D01*
X28332904Y4094696D01*
X28287600Y3985320D01*
X28221827Y3886885D01*
X28138115Y3803173D01*
X28039680Y3737400D01*
X27962340Y3705365D01*
X27930305Y3692096D01*
X27891601Y3684397D01*
X27814195Y3669000D01*
X27695805Y3669000D01*
X27618399Y3684397D01*
X27579695Y3692096D01*
X27547660Y3705365D01*
X27470320Y3737400D01*
X27371885Y3803173D01*
X27288173Y3886885D01*
X27222400Y3985320D01*
X27177096Y4094696D01*
X27154000Y4210805D01*
X27154000Y4329195D01*
X27177096Y4445304D01*
X27222400Y4554680D01*
X27288173Y4653115D01*
X27371885Y4736827D01*
X27470320Y4802600D01*
X27547660Y4834635D01*
X27579695Y4847904D01*
X27618399Y4855603D01*
X27695805Y4871000D01*
X27814195Y4871000D01*
X27891601Y4855603D01*
G37*
G36*
X47891601Y4855603D02*
G01*
X47930305Y4847904D01*
X47962340Y4834635D01*
X48039680Y4802600D01*
X48138115Y4736827D01*
X48221827Y4653115D01*
X48287600Y4554680D01*
X48332904Y4445304D01*
X48356000Y4329195D01*
X48356000Y4210805D01*
X48332904Y4094696D01*
X48287600Y3985320D01*
X48221827Y3886885D01*
X48138115Y3803173D01*
X48039680Y3737400D01*
X47962340Y3705365D01*
X47930305Y3692096D01*
X47891601Y3684397D01*
X47814195Y3669000D01*
X47695805Y3669000D01*
X47618399Y3684397D01*
X47579695Y3692096D01*
X47547660Y3705365D01*
X47470320Y3737400D01*
X47371885Y3803173D01*
X47288173Y3886885D01*
X47222400Y3985320D01*
X47177096Y4094696D01*
X47154000Y4210805D01*
X47154000Y4329195D01*
X47177096Y4445304D01*
X47222400Y4554680D01*
X47288173Y4653115D01*
X47371885Y4736827D01*
X47470320Y4802600D01*
X47547660Y4834635D01*
X47579695Y4847904D01*
X47618399Y4855603D01*
X47695805Y4871000D01*
X47814195Y4871000D01*
X47891601Y4855603D01*
G37*
G36*
X71891601Y4855603D02*
G01*
X71930305Y4847904D01*
X71962340Y4834635D01*
X72039680Y4802600D01*
X72138115Y4736827D01*
X72221827Y4653115D01*
X72287600Y4554680D01*
X72332904Y4445304D01*
X72356000Y4329195D01*
X72356000Y4210805D01*
X72332904Y4094696D01*
X72287600Y3985320D01*
X72221827Y3886885D01*
X72138115Y3803173D01*
X72039680Y3737400D01*
X71962340Y3705365D01*
X71930305Y3692096D01*
X71891601Y3684397D01*
X71814195Y3669000D01*
X71695805Y3669000D01*
X71618399Y3684397D01*
X71579695Y3692096D01*
X71547660Y3705365D01*
X71470320Y3737400D01*
X71371885Y3803173D01*
X71288173Y3886885D01*
X71222400Y3985320D01*
X71177096Y4094696D01*
X71154000Y4210805D01*
X71154000Y4329195D01*
X71177096Y4445304D01*
X71222400Y4554680D01*
X71288173Y4653115D01*
X71371885Y4736827D01*
X71470320Y4802600D01*
X71547660Y4834635D01*
X71579695Y4847904D01*
X71618399Y4855603D01*
X71695805Y4871000D01*
X71814195Y4871000D01*
X71891601Y4855603D01*
G37*
G36*
X81891601Y4855603D02*
G01*
X81930305Y4847904D01*
X81962340Y4834635D01*
X82039680Y4802600D01*
X82138115Y4736827D01*
X82221827Y4653115D01*
X82287600Y4554680D01*
X82332904Y4445304D01*
X82356000Y4329195D01*
X82356000Y4210805D01*
X82332904Y4094696D01*
X82287600Y3985320D01*
X82221827Y3886885D01*
X82138115Y3803173D01*
X82039680Y3737400D01*
X81962340Y3705365D01*
X81930305Y3692096D01*
X81891601Y3684397D01*
X81814195Y3669000D01*
X81695805Y3669000D01*
X81618399Y3684397D01*
X81579695Y3692096D01*
X81547660Y3705365D01*
X81470320Y3737400D01*
X81371885Y3803173D01*
X81288173Y3886885D01*
X81222400Y3985320D01*
X81177096Y4094696D01*
X81154000Y4210805D01*
X81154000Y4329195D01*
X81177096Y4445304D01*
X81222400Y4554680D01*
X81288173Y4653115D01*
X81371885Y4736827D01*
X81470320Y4802600D01*
X81547660Y4834635D01*
X81579695Y4847904D01*
X81618399Y4855603D01*
X81695805Y4871000D01*
X81814195Y4871000D01*
X81891601Y4855603D01*
G37*
G36*
X83891601Y4855603D02*
G01*
X83930305Y4847904D01*
X83962340Y4834635D01*
X84039680Y4802600D01*
X84138115Y4736827D01*
X84221827Y4653115D01*
X84287600Y4554680D01*
X84332904Y4445304D01*
X84356000Y4329195D01*
X84356000Y4210805D01*
X84332904Y4094696D01*
X84287600Y3985320D01*
X84221827Y3886885D01*
X84138115Y3803173D01*
X84039680Y3737400D01*
X83962340Y3705365D01*
X83930305Y3692096D01*
X83891601Y3684397D01*
X83814195Y3669000D01*
X83695805Y3669000D01*
X83618399Y3684397D01*
X83579695Y3692096D01*
X83547660Y3705365D01*
X83470320Y3737400D01*
X83371885Y3803173D01*
X83288173Y3886885D01*
X83222400Y3985320D01*
X83177096Y4094696D01*
X83154000Y4210805D01*
X83154000Y4329195D01*
X83177096Y4445304D01*
X83222400Y4554680D01*
X83288173Y4653115D01*
X83371885Y4736827D01*
X83470320Y4802600D01*
X83547660Y4834635D01*
X83579695Y4847904D01*
X83618399Y4855603D01*
X83695805Y4871000D01*
X83814195Y4871000D01*
X83891601Y4855603D01*
G37*
G36*
X79891601Y4855603D02*
G01*
X79930305Y4847904D01*
X79962340Y4834635D01*
X80039680Y4802600D01*
X80138115Y4736827D01*
X80221827Y4653115D01*
X80287600Y4554680D01*
X80332904Y4445304D01*
X80356000Y4329195D01*
X80356000Y4210805D01*
X80332904Y4094696D01*
X80287600Y3985320D01*
X80221827Y3886885D01*
X80138115Y3803173D01*
X80039680Y3737400D01*
X79962340Y3705365D01*
X79930305Y3692096D01*
X79891601Y3684397D01*
X79814195Y3669000D01*
X79695805Y3669000D01*
X79618399Y3684397D01*
X79579695Y3692096D01*
X79547660Y3705365D01*
X79470320Y3737400D01*
X79371885Y3803173D01*
X79288173Y3886885D01*
X79222400Y3985320D01*
X79177096Y4094696D01*
X79154000Y4210805D01*
X79154000Y4329195D01*
X79177096Y4445304D01*
X79222400Y4554680D01*
X79288173Y4653115D01*
X79371885Y4736827D01*
X79470320Y4802600D01*
X79547660Y4834635D01*
X79579695Y4847904D01*
X79618399Y4855603D01*
X79695805Y4871000D01*
X79814195Y4871000D01*
X79891601Y4855603D01*
G37*
G36*
X45891601Y4855603D02*
G01*
X45930305Y4847904D01*
X45962340Y4834635D01*
X46039680Y4802600D01*
X46138115Y4736827D01*
X46221827Y4653115D01*
X46287600Y4554680D01*
X46332904Y4445304D01*
X46356000Y4329195D01*
X46356000Y4210805D01*
X46332904Y4094696D01*
X46287600Y3985320D01*
X46221827Y3886885D01*
X46138115Y3803173D01*
X46039680Y3737400D01*
X45962340Y3705365D01*
X45930305Y3692096D01*
X45891601Y3684397D01*
X45814195Y3669000D01*
X45695805Y3669000D01*
X45618399Y3684397D01*
X45579695Y3692096D01*
X45547660Y3705365D01*
X45470320Y3737400D01*
X45371885Y3803173D01*
X45288173Y3886885D01*
X45222400Y3985320D01*
X45177096Y4094696D01*
X45154000Y4210805D01*
X45154000Y4329195D01*
X45177096Y4445304D01*
X45222400Y4554680D01*
X45288173Y4653115D01*
X45371885Y4736827D01*
X45470320Y4802600D01*
X45547660Y4834635D01*
X45579695Y4847904D01*
X45618399Y4855603D01*
X45695805Y4871000D01*
X45814195Y4871000D01*
X45891601Y4855603D01*
G37*
G36*
X77891601Y4855603D02*
G01*
X77930305Y4847904D01*
X77962340Y4834635D01*
X78039680Y4802600D01*
X78138115Y4736827D01*
X78221827Y4653115D01*
X78287600Y4554680D01*
X78332904Y4445304D01*
X78356000Y4329195D01*
X78356000Y4210805D01*
X78332904Y4094696D01*
X78287600Y3985320D01*
X78221827Y3886885D01*
X78138115Y3803173D01*
X78039680Y3737400D01*
X77962340Y3705365D01*
X77930305Y3692096D01*
X77891601Y3684397D01*
X77814195Y3669000D01*
X77695805Y3669000D01*
X77618399Y3684397D01*
X77579695Y3692096D01*
X77547660Y3705365D01*
X77470320Y3737400D01*
X77371885Y3803173D01*
X77288173Y3886885D01*
X77222400Y3985320D01*
X77177096Y4094696D01*
X77154000Y4210805D01*
X77154000Y4329195D01*
X77177096Y4445304D01*
X77222400Y4554680D01*
X77288173Y4653115D01*
X77371885Y4736827D01*
X77470320Y4802600D01*
X77547660Y4834635D01*
X77579695Y4847904D01*
X77618399Y4855603D01*
X77695805Y4871000D01*
X77814195Y4871000D01*
X77891601Y4855603D01*
G37*
M02*
