G04 #@! TF.GenerationSoftware,KiCad,Pcbnew,(5.1.5)-3*
G04 #@! TF.CreationDate,2022-01-27T06:12:11+01:00*
G04 #@! TF.ProjectId,Riser Tioga Pass 1OU 1xPCIe x16,52697365-7220-4546-996f-676120506173,rev?*
G04 #@! TF.SameCoordinates,PX40f1fa0PY623a7c0*
G04 #@! TF.FileFunction,Paste,Bot*
G04 #@! TF.FilePolarity,Positive*
%FSLAX46Y46*%
G04 Gerber Fmt 4.6, Leading zero omitted, Abs format (unit mm)*
G04 Created by KiCad (PCBNEW (5.1.5)-3) date 2022-01-27 06:12:11*
%MOMM*%
%LPD*%
G04 APERTURE LIST*
%ADD10R,0.430000X0.280000*%
%ADD11R,0.600000X0.500000*%
%ADD12R,0.550000X3.000000*%
%ADD13R,0.750000X0.800000*%
%ADD14R,0.800000X0.750000*%
%ADD15R,1.450000X0.450000*%
%ADD16R,0.280000X0.430000*%
%ADD17R,0.400000X1.100000*%
G04 APERTURE END LIST*
D10*
X250000Y-6885000D03*
X250000Y-6365000D03*
D11*
X1775000Y-15000000D03*
X2875000Y-15000000D03*
X18975000Y-12075000D03*
X20075000Y-12075000D03*
X13625000Y-14075000D03*
X12525000Y-14075000D03*
D12*
X1695000Y-24580000D03*
X2495000Y-24580000D03*
X3295000Y-24580000D03*
X4095000Y-24580000D03*
X4895000Y-24580000D03*
X5695000Y-24580000D03*
X6495000Y-24580000D03*
X7295000Y-24580000D03*
X8095000Y-24580000D03*
X8895000Y-24580000D03*
X9695000Y-24580000D03*
X10495000Y-24580000D03*
X11295000Y-24580000D03*
X12095000Y-24580000D03*
X12895000Y-24580000D03*
X13695000Y-24580000D03*
X14495000Y-24580000D03*
X15295000Y-24580000D03*
X16095000Y-24580000D03*
X16895000Y-24580000D03*
X17695000Y-24580000D03*
X18495000Y-24580000D03*
X19295000Y-24580000D03*
X20095000Y-24580000D03*
X20895000Y-24580000D03*
X21695000Y-24580000D03*
X22495000Y-24580000D03*
X23295000Y-24580000D03*
X24095000Y-24580000D03*
X24895000Y-24580000D03*
X25695000Y-24580000D03*
X26495000Y-24580000D03*
X30495000Y-24580000D03*
X31295000Y-24580000D03*
X32095000Y-24580000D03*
X32895000Y-24580000D03*
X33695000Y-24580000D03*
X34495000Y-24580000D03*
X35295000Y-24580000D03*
X36095000Y-24580000D03*
X36895000Y-24580000D03*
X37695000Y-24580000D03*
X38495000Y-24580000D03*
X39295000Y-24580000D03*
X40095000Y-24580000D03*
X40895000Y-24580000D03*
X41695000Y-24580000D03*
X42495000Y-24580000D03*
X43295000Y-24580000D03*
X44095000Y-24580000D03*
X44895000Y-24580000D03*
X45695000Y-24580000D03*
X46495000Y-24580000D03*
X47295000Y-24580000D03*
X48095000Y-24580000D03*
X48895000Y-24580000D03*
X49695000Y-24580000D03*
X50495000Y-24580000D03*
X51295000Y-24580000D03*
X52095000Y-24580000D03*
X52895000Y-24580000D03*
X53695000Y-24580000D03*
X54495000Y-24580000D03*
X55295000Y-24580000D03*
X56095000Y-24580000D03*
X56895000Y-24580000D03*
X57695000Y-24580000D03*
X58495000Y-24580000D03*
X59295000Y-24580000D03*
X60095000Y-24580000D03*
X60895000Y-24580000D03*
X61695000Y-24580000D03*
X62495000Y-24580000D03*
X63295000Y-24580000D03*
X64095000Y-24580000D03*
X64895000Y-24580000D03*
X65695000Y-24580000D03*
X66495000Y-24580000D03*
X67295000Y-24580000D03*
X68095000Y-24580000D03*
X68895000Y-24580000D03*
X69695000Y-24580000D03*
X70495000Y-24580000D03*
X71295000Y-24580000D03*
X72095000Y-24580000D03*
X72895000Y-24580000D03*
X73695000Y-24580000D03*
X74495000Y-24580000D03*
X75295000Y-24580000D03*
X76095000Y-24580000D03*
X76895000Y-24580000D03*
X77695000Y-24580000D03*
X78495000Y-24580000D03*
X79295000Y-24580000D03*
X80095000Y-24580000D03*
X80895000Y-24580000D03*
X81695000Y-24580000D03*
X82495000Y-24580000D03*
X83295000Y-24580000D03*
X84095000Y-24580000D03*
X118295000Y-24580000D03*
X117495000Y-24580000D03*
X96695000Y-24580000D03*
X95895000Y-24580000D03*
X97495000Y-24580000D03*
X95095000Y-24580000D03*
X111895000Y-24580000D03*
X111095000Y-24580000D03*
X112695000Y-24580000D03*
X113495000Y-24580000D03*
X115095000Y-24580000D03*
X115895000Y-24580000D03*
X114295000Y-24580000D03*
X116695000Y-24580000D03*
X99095000Y-24580000D03*
X99895000Y-24580000D03*
X98295000Y-24580000D03*
X100695000Y-24580000D03*
X103095000Y-24580000D03*
X101495000Y-24580000D03*
X102295000Y-24580000D03*
X103895000Y-24580000D03*
X107895000Y-24580000D03*
X109495000Y-24580000D03*
X110295000Y-24580000D03*
X108695000Y-24580000D03*
X105495000Y-24580000D03*
X106295000Y-24580000D03*
X104695000Y-24580000D03*
X107095000Y-24580000D03*
D13*
X11075000Y-15525000D03*
X11075000Y-14025000D03*
D14*
X8050000Y3475000D03*
X6550000Y3475000D03*
X6550000Y1925000D03*
X8050000Y1925000D03*
X6550000Y400000D03*
X8050000Y400000D03*
X8075000Y-1150000D03*
X6575000Y-1150000D03*
D15*
X-825000Y-13775000D03*
X-825000Y-13125000D03*
X-825000Y-12475000D03*
X-825000Y-11825000D03*
X-825000Y-11175000D03*
X-825000Y-10525000D03*
X-825000Y-9875000D03*
X-6725000Y-9875000D03*
X-6725000Y-10525000D03*
X-6725000Y-11175000D03*
X-6725000Y-11825000D03*
X-6725000Y-12475000D03*
X-6725000Y-13125000D03*
X-6725000Y-13775000D03*
D10*
X-14175000Y-3060000D03*
X-14175000Y-2540000D03*
D16*
X12610000Y-16875000D03*
X12090000Y-16875000D03*
X12815000Y-15300000D03*
X13335000Y-15300000D03*
X2585000Y-13850000D03*
X2065000Y-13850000D03*
X2065000Y-12775000D03*
X2585000Y-12775000D03*
D10*
X-13200000Y-12475000D03*
X-13200000Y-12995000D03*
D16*
X16010000Y-3625000D03*
X15490000Y-3625000D03*
X15490000Y-4700000D03*
X16010000Y-4700000D03*
X-15735000Y-200000D03*
X-15215000Y-200000D03*
D10*
X-10725000Y-7890000D03*
X-10725000Y-8410000D03*
X250000Y-7665000D03*
X250000Y-8185000D03*
D16*
X-9860000Y-2775000D03*
X-9340000Y-2775000D03*
X-9340000Y-1675000D03*
X-9860000Y-1675000D03*
X-10310000Y-375000D03*
X-9790000Y-375000D03*
D10*
X11550000Y3190000D03*
X11550000Y3710000D03*
X-2250000Y-4955000D03*
X-2250000Y-5475000D03*
D16*
X9765000Y-2675000D03*
X10285000Y-2675000D03*
X10285000Y-1625000D03*
X9765000Y-1625000D03*
D10*
X2275000Y-11315000D03*
X2275000Y-11835000D03*
X-14000000Y-8410000D03*
X-14000000Y-7890000D03*
X-17100000Y-10510000D03*
X-17100000Y-9990000D03*
X-17100000Y-11340000D03*
X-17100000Y-11860000D03*
X3575000Y-9590000D03*
X3575000Y-10110000D03*
X3575000Y-8835000D03*
X3575000Y-8315000D03*
X5100000Y-11340000D03*
X5100000Y-11860000D03*
X6175000Y-11340000D03*
X6175000Y-11860000D03*
X-1175000Y-5485000D03*
X-1175000Y-4965000D03*
X-11800000Y-8410000D03*
X-11800000Y-7890000D03*
X-12950000Y-7890000D03*
X-12950000Y-8410000D03*
X-5125000Y-2640000D03*
X-5125000Y-3160000D03*
X-4075000Y-2640000D03*
X-4075000Y-3160000D03*
D16*
X-11360000Y-1550000D03*
X-10840000Y-1550000D03*
X-11360000Y-2600000D03*
X-10840000Y-2600000D03*
D10*
X-8175000Y-4860000D03*
X-8175000Y-4340000D03*
X-7125000Y-4860000D03*
X-7125000Y-4340000D03*
X-12225000Y-1735000D03*
X-12225000Y-1215000D03*
D16*
X-13745000Y-1725000D03*
X-13225000Y-1725000D03*
D10*
X-8175000Y-3090000D03*
X-8175000Y-3610000D03*
X-7125000Y-3090000D03*
X-7125000Y-3610000D03*
D16*
X-15735000Y-1250000D03*
X-15215000Y-1250000D03*
X-15735000Y-2300000D03*
X-15215000Y-2300000D03*
D17*
X17200000Y-12425000D03*
X16550000Y-12425000D03*
X15900000Y-12425000D03*
X15250000Y-12425000D03*
X15250000Y-16725000D03*
X15900000Y-16725000D03*
X16550000Y-16725000D03*
X17200000Y-16725000D03*
M02*
