G04 #@! TF.GenerationSoftware,KiCad,Pcbnew,(5.1.5)-3*
G04 #@! TF.CreationDate,2022-01-27T06:12:11+01:00*
G04 #@! TF.ProjectId,Riser Tioga Pass 1OU 1xPCIe x16,52697365-7220-4546-996f-676120506173,rev?*
G04 #@! TF.SameCoordinates,PX40f1fa0PY623a7c0*
G04 #@! TF.FileFunction,Copper,L1,Top*
G04 #@! TF.FilePolarity,Positive*
%FSLAX46Y46*%
G04 Gerber Fmt 4.6, Leading zero omitted, Abs format (unit mm)*
G04 Created by KiCad (PCBNEW (5.1.5)-3) date 2022-01-27 06:12:11*
%MOMM*%
%LPD*%
G04 APERTURE LIST*
%ADD10R,0.430000X0.280000*%
%ADD11R,0.600000X0.500000*%
%ADD12R,0.500000X0.600000*%
%ADD13R,0.650000X0.400000*%
%ADD14R,0.900000X0.800000*%
%ADD15R,0.550000X3.000000*%
%ADD16C,0.500000*%
%ADD17C,2.600000*%
%ADD18R,1.100000X1.100000*%
%ADD19C,1.100000*%
%ADD20R,1.600000X2.800000*%
%ADD21R,2.800000X1.600000*%
%ADD22R,1.000000X1.250000*%
%ADD23R,0.800000X0.750000*%
%ADD24R,0.750000X0.800000*%
%ADD25C,6.400000*%
%ADD26C,0.800000*%
%ADD27R,0.900000X1.700000*%
%ADD28C,0.225000*%
%ADD29R,1.450000X0.450000*%
%ADD30R,0.450000X1.500000*%
%ADD31R,0.400000X0.200000*%
%ADD32R,0.280000X0.430000*%
%ADD33C,0.400000*%
%ADD34C,0.600000*%
%ADD35C,0.350000*%
%ADD36C,0.400000*%
%ADD37C,0.300000*%
%ADD38C,0.200000*%
%ADD39C,0.250000*%
%ADD40C,0.121920*%
%ADD41C,0.127000*%
%ADD42C,0.254000*%
G04 APERTURE END LIST*
D10*
X-4150000Y-13335000D03*
X-4150000Y-12815000D03*
X-3075000Y-11290000D03*
X-3075000Y-11810000D03*
D11*
X18750000Y-17700000D03*
X19850000Y-17700000D03*
X22300000Y-4050000D03*
X23400000Y-4050000D03*
X19450000Y-6900000D03*
X18350000Y-6900000D03*
X19450000Y-5700000D03*
X18350000Y-5700000D03*
D12*
X9250000Y-10400000D03*
X9250000Y-11500000D03*
D11*
X18350000Y-4500000D03*
X19450000Y-4500000D03*
X-9550000Y-6600000D03*
X-10650000Y-6600000D03*
D12*
X-3700000Y-5600000D03*
X-3700000Y-4500000D03*
D13*
X11875000Y-12450000D03*
X11875000Y-11150000D03*
X13775000Y-11800000D03*
X11875000Y-11800000D03*
X13775000Y-11150000D03*
X13775000Y-12450000D03*
D14*
X12500000Y-15650000D03*
X14500000Y-14700000D03*
X14500000Y-16600000D03*
D15*
X1695000Y-24580000D03*
X2495000Y-24580000D03*
X3295000Y-24580000D03*
X4095000Y-24580000D03*
X4895000Y-24580000D03*
X5695000Y-24580000D03*
X6495000Y-24580000D03*
X7295000Y-24580000D03*
X8095000Y-24580000D03*
X8895000Y-24580000D03*
X9695000Y-24580000D03*
X10495000Y-24580000D03*
X11295000Y-24580000D03*
X12095000Y-24580000D03*
X12895000Y-24580000D03*
X13695000Y-24580000D03*
X14495000Y-24580000D03*
X15295000Y-24580000D03*
X16095000Y-24580000D03*
X16895000Y-24580000D03*
X17695000Y-24580000D03*
X18495000Y-24580000D03*
X19295000Y-24580000D03*
X20095000Y-24580000D03*
X20895000Y-24580000D03*
X21695000Y-24580000D03*
X22495000Y-24580000D03*
X23295000Y-24580000D03*
X24095000Y-24580000D03*
X24895000Y-24580000D03*
X25695000Y-24580000D03*
X26495000Y-24580000D03*
X30495000Y-24580000D03*
X31295000Y-24580000D03*
X32095000Y-24580000D03*
X32895000Y-24580000D03*
X33695000Y-24580000D03*
X34495000Y-24580000D03*
X35295000Y-24580000D03*
X36095000Y-24580000D03*
X36895000Y-24580000D03*
X37695000Y-24580000D03*
X38495000Y-24580000D03*
X39295000Y-24580000D03*
X40095000Y-24580000D03*
X40895000Y-24580000D03*
X41695000Y-24580000D03*
X42495000Y-24580000D03*
X43295000Y-24580000D03*
X44095000Y-24580000D03*
X44895000Y-24580000D03*
X45695000Y-24580000D03*
X46495000Y-24580000D03*
X47295000Y-24580000D03*
X48095000Y-24580000D03*
X48895000Y-24580000D03*
X49695000Y-24580000D03*
X50495000Y-24580000D03*
X51295000Y-24580000D03*
X52095000Y-24580000D03*
X52895000Y-24580000D03*
X53695000Y-24580000D03*
X54495000Y-24580000D03*
X55295000Y-24580000D03*
X56095000Y-24580000D03*
X56895000Y-24580000D03*
X57695000Y-24580000D03*
X58495000Y-24580000D03*
X59295000Y-24580000D03*
X60095000Y-24580000D03*
X60895000Y-24580000D03*
X61695000Y-24580000D03*
X62495000Y-24580000D03*
X63295000Y-24580000D03*
X64095000Y-24580000D03*
X64895000Y-24580000D03*
X65695000Y-24580000D03*
X66495000Y-24580000D03*
X67295000Y-24580000D03*
X68095000Y-24580000D03*
X68895000Y-24580000D03*
X69695000Y-24580000D03*
X70495000Y-24580000D03*
X71295000Y-24580000D03*
X72095000Y-24580000D03*
X72895000Y-24580000D03*
X73695000Y-24580000D03*
X74495000Y-24580000D03*
X75295000Y-24580000D03*
X76095000Y-24580000D03*
X76895000Y-24580000D03*
X77695000Y-24580000D03*
X78495000Y-24580000D03*
X79295000Y-24580000D03*
X80095000Y-24580000D03*
X80895000Y-24580000D03*
X81695000Y-24580000D03*
X82495000Y-24580000D03*
X83295000Y-24580000D03*
X84095000Y-24580000D03*
X117495000Y-24580000D03*
X118295000Y-24580000D03*
X97495000Y-24580000D03*
X95095000Y-24580000D03*
X96695000Y-24580000D03*
X95895000Y-24580000D03*
X111095000Y-24580000D03*
X112695000Y-24580000D03*
X111895000Y-24580000D03*
X113495000Y-24580000D03*
X114295000Y-24580000D03*
X116695000Y-24580000D03*
X115895000Y-24580000D03*
X115095000Y-24580000D03*
X100695000Y-24580000D03*
X99095000Y-24580000D03*
X99895000Y-24580000D03*
X98295000Y-24580000D03*
X101495000Y-24580000D03*
X103895000Y-24580000D03*
X102295000Y-24580000D03*
X103095000Y-24580000D03*
X108695000Y-24580000D03*
X107895000Y-24580000D03*
X110295000Y-24580000D03*
X109495000Y-24580000D03*
X106295000Y-24580000D03*
X104695000Y-24580000D03*
X107095000Y-24580000D03*
X105495000Y-24580000D03*
D16*
X93400000Y-12000000D03*
X115900000Y-1000000D03*
X-16850000Y3500000D03*
D17*
X24405000Y1020000D03*
X97555000Y1020000D03*
D18*
X12755000Y2270000D03*
D19*
X13755000Y4270000D03*
X14755000Y2270000D03*
X15755000Y4270000D03*
X16755000Y2270000D03*
X17755000Y4270000D03*
X18755000Y2270000D03*
X19755000Y4270000D03*
X20755000Y2270000D03*
X21755000Y4270000D03*
X22755000Y2270000D03*
X25755000Y4270000D03*
X26755000Y2270000D03*
X27755000Y4270000D03*
X28755000Y2270000D03*
X29755000Y4270000D03*
X30755000Y2270000D03*
X31755000Y4270000D03*
X32755000Y2270000D03*
X33755000Y4270000D03*
X34755000Y2270000D03*
X35755000Y4270000D03*
X36755000Y2270000D03*
X37755000Y4270000D03*
X38755000Y2270000D03*
X39755000Y4270000D03*
X40755000Y2270000D03*
X41755000Y4270000D03*
X42755000Y2270000D03*
X43755000Y4270000D03*
X44755000Y2270000D03*
X45755000Y4270000D03*
X46755000Y2270000D03*
X47755000Y4270000D03*
X48755000Y2270000D03*
X49755000Y4270000D03*
X50755000Y2270000D03*
X51755000Y4270000D03*
X52755000Y2270000D03*
X53755000Y4270000D03*
X54755000Y2270000D03*
X55755000Y4270000D03*
X56755000Y2270000D03*
X57755000Y4270000D03*
X58755000Y2270000D03*
X59755000Y4270000D03*
X60755000Y2270000D03*
X61755000Y4270000D03*
X62755000Y2270000D03*
X63755000Y4270000D03*
X64755000Y2270000D03*
X65755000Y4270000D03*
X66755000Y2270000D03*
X67755000Y4270000D03*
X68755000Y2270000D03*
X69755000Y4270000D03*
X70755000Y2270000D03*
X71755000Y4270000D03*
X72755000Y2270000D03*
X73755000Y4270000D03*
X74755000Y2270000D03*
X75755000Y4270000D03*
X76755000Y2270000D03*
X77755000Y4270000D03*
X78755000Y2270000D03*
X79755000Y4270000D03*
X80755000Y2270000D03*
X81755000Y4270000D03*
X82755000Y2270000D03*
X83755000Y4270000D03*
X84755000Y2270000D03*
X85755000Y4270000D03*
X86755000Y2270000D03*
X87755000Y4270000D03*
X88755000Y2270000D03*
X89755000Y4270000D03*
X90755000Y2270000D03*
X91755000Y4270000D03*
X92755000Y2270000D03*
X93755000Y4270000D03*
X94755000Y2270000D03*
X12755000Y-230000D03*
X13755000Y-2230000D03*
X14755000Y-230000D03*
X15755000Y-2230000D03*
X16755000Y-230000D03*
X17755000Y-2230000D03*
X18755000Y-230000D03*
X19755000Y-2230000D03*
X20755000Y-230000D03*
X21755000Y-2230000D03*
X22755000Y-230000D03*
X25755000Y-2230000D03*
X26755000Y-230000D03*
X27755000Y-2230000D03*
X28755000Y-230000D03*
X29755000Y-2230000D03*
X30755000Y-230000D03*
X31755000Y-2230000D03*
X32755000Y-230000D03*
X33755000Y-2230000D03*
X34755000Y-230000D03*
X35755000Y-2230000D03*
X36755000Y-230000D03*
X37755000Y-2230000D03*
X38755000Y-230000D03*
X39755000Y-2230000D03*
X40755000Y-230000D03*
X41755000Y-2230000D03*
X42755000Y-230000D03*
X43755000Y-2230000D03*
X44755000Y-230000D03*
X46755000Y-230000D03*
X47755000Y-2230000D03*
X48755000Y-230000D03*
X49755000Y-2230000D03*
X50755000Y-230000D03*
X51755000Y-2230000D03*
X52755000Y-230000D03*
X53755000Y-2230000D03*
X54755000Y-230000D03*
X55755000Y-2230000D03*
X56755000Y-230000D03*
X57755000Y-2230000D03*
X58755000Y-230000D03*
X59755000Y-2230000D03*
X60755000Y-230000D03*
X61755000Y-2230000D03*
X62755000Y-230000D03*
X63755000Y-2230000D03*
X64755000Y-230000D03*
X65755000Y-2230000D03*
X66755000Y-230000D03*
X67755000Y-2230000D03*
X68755000Y-230000D03*
X69755000Y-2230000D03*
X70755000Y-230000D03*
X71755000Y-2230000D03*
X72755000Y-230000D03*
X73755000Y-2230000D03*
X74755000Y-230000D03*
X75755000Y-2230000D03*
X76755000Y-230000D03*
X77755000Y-2230000D03*
X78755000Y-230000D03*
X79755000Y-2230000D03*
X80755000Y-230000D03*
X81755000Y-2230000D03*
X82755000Y-230000D03*
X83755000Y-2230000D03*
X84755000Y-230000D03*
X85755000Y-2230000D03*
X86755000Y-230000D03*
X87755000Y-2230000D03*
X88755000Y-230000D03*
X89755000Y-2230000D03*
X90755000Y-230000D03*
X91755000Y-2230000D03*
X92755000Y-230000D03*
X93755000Y-2230000D03*
X94755000Y-230000D03*
X45755000Y-2230000D03*
X95755000Y4270000D03*
X95755000Y-2230000D03*
D11*
X-8075000Y-8300000D03*
X-9175000Y-8300000D03*
D20*
X6600000Y-675000D03*
X6600000Y3125000D03*
D21*
X11800000Y-6175000D03*
X15600000Y-6175000D03*
D22*
X22050000Y-5625000D03*
X24050000Y-5625000D03*
X20100000Y-8600000D03*
X18100000Y-8600000D03*
D23*
X5800000Y-7500000D03*
X7300000Y-7500000D03*
D24*
X9250000Y-7500000D03*
X9250000Y-9000000D03*
D25*
X0Y0D03*
D26*
X2400000Y0D03*
X-1697056Y-1697056D03*
X1697056Y-1697056D03*
X0Y-2400000D03*
X-2400000Y0D03*
X1697056Y1697056D03*
X0Y2400000D03*
X-1697056Y1697056D03*
X122607944Y1677056D03*
X124305000Y2380000D03*
X126002056Y1677056D03*
X121905000Y-20000D03*
X124305000Y-2420000D03*
X126002056Y-1717056D03*
X122607944Y-1717056D03*
X126705000Y-20000D03*
D25*
X124305000Y-20000D03*
D27*
X5100000Y-4150000D03*
X8000000Y-4150000D03*
D28*
X7150000Y-10450000D03*
X7150000Y-10050000D03*
X7150000Y-9650000D03*
X7150000Y-9250000D03*
X6750000Y-10450000D03*
X6750000Y-10050000D03*
X6750000Y-9650000D03*
X6750000Y-9250000D03*
X6350000Y-10450000D03*
X6350000Y-10050000D03*
X6350000Y-9650000D03*
X6350000Y-9250000D03*
D29*
X-15175000Y-9875000D03*
X-15175000Y-10525000D03*
X-15175000Y-11175000D03*
X-15175000Y-11825000D03*
X-15175000Y-12475000D03*
X-15175000Y-13125000D03*
X-15175000Y-13775000D03*
X-9275000Y-13775000D03*
X-9275000Y-13125000D03*
X-9275000Y-12475000D03*
X-9275000Y-11825000D03*
X-9275000Y-11175000D03*
X-9275000Y-10525000D03*
X-9275000Y-9875000D03*
D30*
X-5125000Y-4850000D03*
X-5775000Y-4850000D03*
X-6425000Y-4850000D03*
X-7075000Y-4850000D03*
X-7725000Y-4850000D03*
X-8375000Y-4850000D03*
X-9025000Y-4850000D03*
X-9675000Y-4850000D03*
X-9675000Y1050000D03*
X-9025000Y1050000D03*
X-8375000Y1050000D03*
X-7725000Y1050000D03*
X-7075000Y1050000D03*
X-6425000Y1050000D03*
X-5775000Y1050000D03*
X-5125000Y1050000D03*
X-11575000Y1050000D03*
X-12225000Y1050000D03*
X-12875000Y1050000D03*
X-13525000Y1050000D03*
X-14175000Y1050000D03*
X-14825000Y1050000D03*
X-15475000Y1050000D03*
X-16125000Y1050000D03*
X-16125000Y-4850000D03*
X-15475000Y-4850000D03*
X-14825000Y-4850000D03*
X-14175000Y-4850000D03*
X-13525000Y-4850000D03*
X-12875000Y-4850000D03*
X-12225000Y-4850000D03*
X-11575000Y-4850000D03*
D31*
X17675000Y-17175000D03*
X17675000Y-16825000D03*
X17675000Y-16475000D03*
X17675000Y-16125000D03*
X17125000Y-16125000D03*
X17125000Y-16475000D03*
X17125000Y-16825000D03*
X17125000Y-17175000D03*
D32*
X-15635000Y-6550000D03*
X-15115000Y-6550000D03*
X82810000Y-20050000D03*
X82290000Y-20050000D03*
D10*
X10175000Y-19740000D03*
X10175000Y-20260000D03*
D32*
X19210000Y-15750000D03*
X18690000Y-15750000D03*
D10*
X14925000Y-9515000D03*
X14925000Y-10035000D03*
D32*
X16090000Y-14975000D03*
X16610000Y-14975000D03*
X13160000Y-18050000D03*
X12640000Y-18050000D03*
D10*
X16275000Y-17615000D03*
X16275000Y-18135000D03*
X-16925000Y-13645000D03*
X-16925000Y-13125000D03*
X25750000Y-3990000D03*
X25750000Y-4510000D03*
X-10725000Y-8410000D03*
X-10725000Y-7890000D03*
X1475000Y-11190000D03*
X1475000Y-11710000D03*
X16525000Y-12915000D03*
X16525000Y-13435000D03*
D32*
X18765000Y-14200000D03*
X19285000Y-14200000D03*
X19285000Y-13100000D03*
X18765000Y-13100000D03*
D10*
X9525000Y-14035000D03*
X9525000Y-13515000D03*
D32*
X6185000Y-5925000D03*
X5665000Y-5925000D03*
D10*
X22775000Y-7690000D03*
X22775000Y-8210000D03*
D32*
X7435000Y-5925000D03*
X6915000Y-5925000D03*
D10*
X-2250000Y-4955000D03*
X-2250000Y-5475000D03*
X-3075000Y-13335000D03*
X-3075000Y-12815000D03*
X-14000000Y-8410000D03*
X-14000000Y-7890000D03*
X-15075000Y-8410000D03*
X-15075000Y-7890000D03*
X-4150000Y-11290000D03*
X-4150000Y-11810000D03*
D32*
X-4160000Y-8400000D03*
X-3640000Y-8400000D03*
X-5040000Y-8400000D03*
X-5560000Y-8400000D03*
D10*
X-17200000Y-8410000D03*
X-17200000Y-7890000D03*
X-16150000Y-8410000D03*
X-16150000Y-7890000D03*
D32*
X5960000Y-11675000D03*
X5440000Y-11675000D03*
X5365000Y-13075000D03*
X5885000Y-13075000D03*
X3360000Y-9875000D03*
X2840000Y-9875000D03*
X-5760000Y-6325000D03*
X-5240000Y-6325000D03*
D10*
X-1175000Y-4965000D03*
X-1175000Y-5485000D03*
X-12875000Y-7890000D03*
X-12875000Y-8410000D03*
D33*
X25050000Y-14300000D03*
D34*
X6495000Y-21350000D03*
X69295000Y-22450000D03*
X71695000Y-22450000D03*
X74095000Y-22450000D03*
X76495000Y-22450000D03*
X78895000Y-22450000D03*
X81295000Y-22450000D03*
X83695000Y-22450000D03*
X66895000Y-22450000D03*
X64495000Y-22450000D03*
X62095000Y-22450000D03*
X59695000Y-22450000D03*
X57295000Y-22450000D03*
X54895000Y-22450000D03*
X52495000Y-22450000D03*
X50095000Y-22450000D03*
X47695000Y-22450000D03*
X45295000Y-22450000D03*
X42895000Y-22450000D03*
X40495000Y-22450000D03*
X38095000Y-22450000D03*
X35695000Y-22450000D03*
X33295000Y-22450000D03*
X30895000Y-22450000D03*
X95495000Y-22450000D03*
X97895000Y-22450000D03*
X100295000Y-22450000D03*
X102695000Y-22450000D03*
X105095000Y-22450000D03*
X107495000Y-22450000D03*
X109895000Y-22450000D03*
X112295000Y-22450000D03*
X114695000Y-22450000D03*
X117095000Y-22450000D03*
X16495000Y-22450000D03*
X18895000Y-22450000D03*
X21295000Y-22450000D03*
X23695000Y-22450000D03*
X26095000Y-22450000D03*
X81350000Y-20050000D03*
D33*
X15250000Y-15700000D03*
D34*
X14375000Y-21375000D03*
D33*
X13625000Y-13450000D03*
X11075000Y-13225000D03*
X13400000Y-16125000D03*
X11875000Y-10550000D03*
X11800000Y-7725000D03*
X19850000Y-17000000D03*
X17675000Y-15625000D03*
X-4150000Y-12325000D03*
X3600000Y-15275000D03*
X19975000Y-5100000D03*
X19950000Y-6300000D03*
X20200000Y-7350000D03*
X21400000Y-8350000D03*
X21400000Y-9100000D03*
X11550000Y4200000D03*
X4700000Y4450000D03*
X4450000Y3150000D03*
X4450000Y1250000D03*
X4450000Y375000D03*
X4450000Y-500000D03*
D35*
X95700000Y-5500090D03*
X95700000Y-3975000D03*
D33*
X-10300000Y1050000D03*
X-16700000Y1050000D03*
X24450000Y-4050000D03*
X25000000Y-5625000D03*
X5375000Y3125000D03*
X-16175000Y-6550000D03*
X-16150000Y-7400000D03*
X-15075000Y-7400000D03*
X10975000Y-20675000D03*
X8125000Y-9500000D03*
X3575000Y-7825000D03*
X9900000Y-11500000D03*
X6575000Y-12325000D03*
X-8875000Y-6575000D03*
X-7425000Y-8300000D03*
X20725000Y-12075000D03*
X-15175000Y-14375000D03*
X-7900000Y-9875000D03*
X-6150000Y-8400000D03*
X8475000Y-7500000D03*
X-16575000Y-11850000D03*
X-15600000Y-2925000D03*
X-14175000Y-2075000D03*
X26450000Y-15650000D03*
X-11850000Y-3600000D03*
X-6375000Y-3600000D03*
X-4050000Y-3700000D03*
X11575000Y-16875000D03*
X11075000Y-16325000D03*
X7875000Y-8825000D03*
X10125000Y-8975000D03*
X11125000Y-8975000D03*
X2300000Y-5975000D03*
X3550000Y-3575000D03*
X2300000Y-4825000D03*
X3300000Y-4825000D03*
X1250000Y-5950000D03*
X1250000Y-4825000D03*
X1525000Y-17400000D03*
X2525000Y-17400000D03*
X3525000Y-17400000D03*
X4525000Y-17400000D03*
X1525000Y-18400000D03*
X2525000Y-18400000D03*
X3525000Y-18400000D03*
X4525000Y-18400000D03*
X1525000Y-19400000D03*
X2525000Y-19400000D03*
X3525000Y-19400000D03*
X4525000Y-19400000D03*
X1525000Y-20400000D03*
X2525000Y-20400000D03*
X3525000Y-20400000D03*
X4525000Y-20400000D03*
X8800000Y-14750000D03*
X9800000Y-14750000D03*
X8800000Y-15750000D03*
X9800000Y-15750000D03*
X17125000Y-17700000D03*
X3225000Y-10650000D03*
X9525000Y-12950000D03*
X18175000Y-17700000D03*
X19825000Y-14200000D03*
X19825000Y-13100000D03*
X-3075000Y-12325000D03*
X825000Y-14625000D03*
X-5125000Y-3800000D03*
X-16600000Y-9375000D03*
X-17200000Y-7375000D03*
X-14000000Y-7400000D03*
X11550000Y-20775000D03*
X11550000Y-21525000D03*
X11550000Y-22275000D03*
X8200000Y-10250000D03*
X10050000Y-10150000D03*
X-11575000Y-675000D03*
X-12225000Y-2300000D03*
X3900000Y-11025000D03*
X-3050000Y-5600000D03*
X-9275000Y-9275000D03*
X-9800000Y-8300000D03*
X18325000Y-12075000D03*
X17725000Y-12425000D03*
X-13200000Y-13550000D03*
X-10725000Y-7400000D03*
X-10650000Y-5850000D03*
X1475000Y-12300000D03*
X-3000000Y-8400000D03*
X-1925000Y-13775000D03*
X-375000Y-8200000D03*
X-16125000Y-725000D03*
X-10875000Y-3775000D03*
X-17475000Y-13500000D03*
X22825000Y-2200000D03*
X22500000Y-3275000D03*
X21575000Y-3250000D03*
X21275000Y-4025000D03*
X20950000Y-5575000D03*
X22300000Y-6975000D03*
X-425000Y-6225000D03*
X-10075000Y-1050000D03*
X-10475000Y-4225000D03*
X-9025000Y-3600000D03*
X9825000Y-18250000D03*
X10575000Y-18250000D03*
X9825000Y-17475000D03*
X9825000Y-19000000D03*
X10575000Y-19000000D03*
X15900000Y-7450000D03*
X17300000Y-7100000D03*
X17300000Y-5900000D03*
X17300000Y-4700000D03*
X16900000Y-8500000D03*
X17300000Y-11000000D03*
X12600000Y-16375000D03*
X12100000Y-19350000D03*
X14550000Y-11425000D03*
X-14175000Y-3650000D03*
X-13025000Y-2450000D03*
X4125000Y-7275000D03*
X8075000Y-16050000D03*
X4875000Y-9600000D03*
X9675000Y-20950000D03*
X10425000Y-20950000D03*
X9675000Y-21700000D03*
X10425000Y-21700000D03*
X9675000Y-22450000D03*
X10425000Y-22450000D03*
X17100000Y-18325000D03*
X-14175000Y-6400000D03*
X-325000Y-4650000D03*
X-13950000Y-12475000D03*
X8950000Y-1925000D03*
X-2850000Y-3625000D03*
X-11800000Y-9725000D03*
X-10550000Y-13125000D03*
X625000Y-11175000D03*
X-2150000Y-11175000D03*
X-4575000Y-6325000D03*
X1425000Y-10525000D03*
X-2225000Y-6250000D03*
X-2050000Y-8175000D03*
X5200000Y-15700000D03*
X6100000Y-15400000D03*
X15250000Y-13450000D03*
X18125000Y-14200000D03*
X1075000Y-8350000D03*
X15875000Y-9950000D03*
X18075000Y-13100000D03*
X1150000Y-9125000D03*
X16550000Y-11225000D03*
X-5475000Y-11825000D03*
X21250000Y-10300000D03*
X10175000Y-12400000D03*
X-2200000Y-12000000D03*
X-13650000Y-11825000D03*
X850000Y-9875000D03*
X-1175000Y-6200000D03*
X-1175000Y-8175000D03*
X-12175000Y-13575000D03*
X-12950000Y-10900000D03*
X-5550000Y-13775000D03*
X-5475000Y-13125000D03*
X-16350000Y-10525000D03*
X-4160000Y-9175000D03*
D35*
X95700000Y-4479910D03*
X95700000Y-5000090D03*
D33*
X-14550000Y-200000D03*
X-7075000Y2500000D03*
X-7725000Y-500000D03*
X-4950000Y4000000D03*
X-13800000Y3425000D03*
X-8475000Y-450000D03*
X-9250000Y-375000D03*
X-9525000Y2550000D03*
X-12825000Y2550000D03*
X-15475000Y2175000D03*
X-3225000Y-2775000D03*
X-11800000Y-7025000D03*
X-13525000Y-6225000D03*
X-5125000Y-175000D03*
X-11000000Y1050000D03*
X-5775000Y-1250000D03*
X-12225000Y-350000D03*
X-7000000Y-525000D03*
X-13725000Y-925000D03*
X25939284Y-15189284D03*
X25530716Y-14780716D03*
X9375000Y-20000000D03*
X23725000Y-2825000D03*
X8300000Y-5600000D03*
X9300000Y-5600000D03*
X9325000Y4475000D03*
X10325000Y4475000D03*
X9325000Y3475000D03*
X10325000Y3475000D03*
X9325000Y2475000D03*
X10325000Y2475000D03*
X9325000Y1550000D03*
X10325000Y1550000D03*
X9325000Y550000D03*
X10325000Y550000D03*
X9325000Y-450000D03*
X10325000Y-450000D03*
X9325000Y-4150000D03*
X10325000Y-4150000D03*
X10825000Y-2675000D03*
X10750000Y-1625000D03*
X5675000Y-8950000D03*
X5250000Y-10350000D03*
D36*
X6495000Y-21355000D02*
X6500000Y-21350000D01*
X68895000Y-22850000D02*
X69295000Y-22450000D01*
X68895000Y-24580000D02*
X68895000Y-22850000D01*
X71295000Y-24580000D02*
X71295000Y-22850000D01*
X73695000Y-24580000D02*
X73695000Y-22850000D01*
X76095000Y-24580000D02*
X76095000Y-22850000D01*
X78495000Y-24580000D02*
X78495000Y-22850000D01*
X80895000Y-24580000D02*
X80895000Y-22850000D01*
X83295000Y-24580000D02*
X83295000Y-22850000D01*
X71295000Y-22850000D02*
X71695000Y-22450000D01*
X73695000Y-22850000D02*
X74095000Y-22450000D01*
X76095000Y-22850000D02*
X76495000Y-22450000D01*
X78495000Y-22850000D02*
X78895000Y-22450000D01*
X80895000Y-22850000D02*
X81295000Y-22450000D01*
X83295000Y-22850000D02*
X83695000Y-22450000D01*
X66495000Y-24580000D02*
X66495000Y-22850000D01*
X64095000Y-24580000D02*
X64095000Y-22850000D01*
X61695000Y-24580000D02*
X61695000Y-22850000D01*
X59295000Y-24580000D02*
X59295000Y-22850000D01*
X56895000Y-24580000D02*
X56895000Y-22850000D01*
X54495000Y-24580000D02*
X54495000Y-22850000D01*
X52095000Y-24580000D02*
X52095000Y-22850000D01*
X49695000Y-24580000D02*
X49695000Y-22850000D01*
X47295000Y-24580000D02*
X47295000Y-22850000D01*
X44895000Y-24580000D02*
X44895000Y-22850000D01*
X42495000Y-24580000D02*
X42495000Y-22850000D01*
X40095000Y-24580000D02*
X40095000Y-22850000D01*
X37695000Y-24580000D02*
X37695000Y-22850000D01*
X35295000Y-24580000D02*
X35295000Y-22850000D01*
X66495000Y-22850000D02*
X66895000Y-22450000D01*
X64095000Y-22850000D02*
X64495000Y-22450000D01*
X61695000Y-22850000D02*
X62095000Y-22450000D01*
X59295000Y-22850000D02*
X59695000Y-22450000D01*
X56895000Y-22850000D02*
X57295000Y-22450000D01*
X54495000Y-22850000D02*
X54895000Y-22450000D01*
X52095000Y-22850000D02*
X52495000Y-22450000D01*
X49695000Y-22850000D02*
X50095000Y-22450000D01*
X47295000Y-22850000D02*
X47695000Y-22450000D01*
X44895000Y-22850000D02*
X45295000Y-22450000D01*
X42495000Y-22850000D02*
X42895000Y-22450000D01*
X40095000Y-22850000D02*
X40495000Y-22450000D01*
X37695000Y-22850000D02*
X38095000Y-22450000D01*
X35295000Y-22850000D02*
X35695000Y-22450000D01*
X32895000Y-24580000D02*
X32895000Y-22850000D01*
X30495000Y-24580000D02*
X30495000Y-22850000D01*
X32895000Y-22850000D02*
X33295000Y-22450000D01*
X30495000Y-22850000D02*
X30895000Y-22450000D01*
X95095000Y-22850000D02*
X95495000Y-22450000D01*
X95095000Y-24580000D02*
X95095000Y-22850000D01*
X97495000Y-22850000D02*
X97895000Y-22450000D01*
X97495000Y-24580000D02*
X97495000Y-22850000D01*
X116695000Y-22850000D02*
X117095000Y-22450000D01*
X116695000Y-24580000D02*
X116695000Y-22850000D01*
X114295000Y-22850000D02*
X114695000Y-22450000D01*
X114295000Y-24580000D02*
X114295000Y-22850000D01*
X111895000Y-22850000D02*
X112295000Y-22450000D01*
X111895000Y-24580000D02*
X111895000Y-22850000D01*
X109495000Y-22850000D02*
X109895000Y-22450000D01*
X109495000Y-24580000D02*
X109495000Y-22850000D01*
X107095000Y-22850000D02*
X107495000Y-22450000D01*
X107095000Y-24580000D02*
X107095000Y-22850000D01*
X104695000Y-22850000D02*
X105095000Y-22450000D01*
X104695000Y-24580000D02*
X104695000Y-22850000D01*
X102295000Y-22850000D02*
X102695000Y-22450000D01*
X102295000Y-24580000D02*
X102295000Y-22850000D01*
X99895000Y-22850000D02*
X100295000Y-22450000D01*
X99895000Y-24580000D02*
X99895000Y-22850000D01*
X16095000Y-22850000D02*
X16495000Y-22450000D01*
X16095000Y-24580000D02*
X16095000Y-22850000D01*
X18495000Y-22850000D02*
X18895000Y-22450000D01*
X18495000Y-24580000D02*
X18495000Y-22850000D01*
X20895000Y-22850000D02*
X21295000Y-22450000D01*
X20895000Y-24580000D02*
X20895000Y-22850000D01*
X23295000Y-22850000D02*
X23695000Y-22450000D01*
X23295000Y-24580000D02*
X23295000Y-22850000D01*
X25695000Y-22850000D02*
X26095000Y-22450000D01*
X25695000Y-24580000D02*
X25695000Y-22850000D01*
X13695000Y-24580000D02*
X13695000Y-21825000D01*
X82100000Y-20050000D02*
X81350000Y-20050000D01*
X13695000Y-21630736D02*
X13695000Y-21825000D01*
X13950736Y-21375000D02*
X13695000Y-21630736D01*
X14375000Y-21375000D02*
X13950736Y-21375000D01*
D37*
X14825736Y-15700000D02*
X15250000Y-15700000D01*
X14500000Y-16600000D02*
X14500000Y-16025736D01*
X14500000Y-16025736D02*
X14825736Y-15700000D01*
X13775000Y-13300000D02*
X13625000Y-13450000D01*
X13775000Y-12450000D02*
X13775000Y-13300000D01*
X11875000Y-11150000D02*
X11875000Y-10550000D01*
X11800000Y-6175000D02*
X11800000Y-7725000D01*
X19850000Y-17700000D02*
X19850000Y-17000000D01*
D38*
X17675000Y-16125000D02*
X17675000Y-15625000D01*
D36*
X6495000Y-24580000D02*
X6495000Y-21350000D01*
D39*
X-9675000Y1050000D02*
X-10300000Y1050000D01*
X-16125000Y1050000D02*
X-16700000Y1050000D01*
X23400000Y-4050000D02*
X24450000Y-4050000D01*
X24050000Y-5625000D02*
X25000000Y-5625000D01*
X6600000Y3125000D02*
X5375000Y3125000D01*
X-15635000Y-6550000D02*
X-16175000Y-6550000D01*
X-16150000Y-7890000D02*
X-16150000Y-7400000D01*
X-15075000Y-7890000D02*
X-15075000Y-7400000D01*
X7150000Y-9650000D02*
X7975000Y-9650000D01*
X7975000Y-9650000D02*
X8125000Y-9500000D01*
X9250000Y-11500000D02*
X9900000Y-11500000D01*
X-9550000Y-6600000D02*
X-8900000Y-6600000D01*
X-8900000Y-6600000D02*
X-8875000Y-6575000D01*
X-8075000Y-8300000D02*
X-7425000Y-8300000D01*
X-15175000Y-13775000D02*
X-15175000Y-14375000D01*
X-5560000Y-8400000D02*
X-6150000Y-8400000D01*
X-4150000Y-12815000D02*
X-4150000Y-12325000D01*
X-4150000Y-11810000D02*
X-4150000Y-12325000D01*
X9250000Y-7500000D02*
X8475000Y-7500000D01*
X-4050000Y-4150000D02*
X-3700000Y-4500000D01*
X-4050000Y-3700000D02*
X-4050000Y-4150000D01*
D37*
X7150000Y-9250000D02*
X7450000Y-9250000D01*
X7450000Y-9250000D02*
X7875000Y-8825000D01*
D38*
X17125000Y-17700000D02*
X17125000Y-17175000D01*
D37*
X9525000Y-13515000D02*
X9525000Y-12950000D01*
D38*
X18750000Y-17700000D02*
X18175000Y-17700000D01*
D39*
X19285000Y-13100000D02*
X19285000Y-14200000D01*
X19285000Y-14200000D02*
X19825000Y-14200000D01*
X19285000Y-13100000D02*
X19825000Y-13100000D01*
X-5125000Y-4850000D02*
X-5125000Y-3800000D01*
X-17200000Y-7890000D02*
X-17200000Y-7375000D01*
X-14000000Y-7890000D02*
X-14000000Y-7400000D01*
X7150000Y-10050000D02*
X8000000Y-10050000D01*
X8000000Y-10050000D02*
X8200000Y-10250000D01*
X9250000Y-10400000D02*
X9800000Y-10400000D01*
X9800000Y-10400000D02*
X10050000Y-10150000D01*
X-3700000Y-5600000D02*
X-3050000Y-5600000D01*
X-9275000Y-9875000D02*
X-9275000Y-9275000D01*
X-9175000Y-8300000D02*
X-9800000Y-8300000D01*
X-10725000Y-7890000D02*
X-10725000Y-7400000D01*
X-10650000Y-6600000D02*
X-10650000Y-5850000D01*
X1475000Y-11710000D02*
X1475000Y-12300000D01*
X-3640000Y-8400000D02*
X-3000000Y-8400000D01*
X-3075000Y-11810000D02*
X-3075000Y-12325000D01*
X-3075000Y-12325000D02*
X-3075000Y-12815000D01*
X-11575000Y-4850000D02*
X-11575000Y-4475000D01*
X-11575000Y-4475000D02*
X-10875000Y-3775000D01*
X17015000Y-12425000D02*
X16525000Y-12915000D01*
X17725000Y-12425000D02*
X17015000Y-12425000D01*
X-16925000Y-13645000D02*
X-17330000Y-13645000D01*
X-17330000Y-13645000D02*
X-17475000Y-13500000D01*
X-2715000Y-4955000D02*
X-2250000Y-4955000D01*
X-3050000Y-5600000D02*
X-3050000Y-5290000D01*
X-3050000Y-5290000D02*
X-2715000Y-4955000D01*
X14925000Y-9515000D02*
X14925000Y-8425000D01*
X14925000Y-8425000D02*
X15900000Y-7450000D01*
D38*
X12600000Y-15750000D02*
X12500000Y-15650000D01*
X12600000Y-16375000D02*
X12600000Y-15750000D01*
X11875000Y-11800000D02*
X11875000Y-12450000D01*
X11875000Y-11800000D02*
X12425000Y-11800000D01*
X12790000Y-11435000D02*
X12425000Y-11800000D01*
X12790000Y-11435000D02*
X12790000Y-10685000D01*
X13440000Y-10035000D02*
X14925000Y-10035000D01*
X12790000Y-10685000D02*
X13440000Y-10035000D01*
X13250000Y-11800000D02*
X12850000Y-12200000D01*
X13775000Y-11800000D02*
X13250000Y-11800000D01*
X12850000Y-12200000D02*
X12850000Y-13175000D01*
X11990000Y-14035000D02*
X9525000Y-14035000D01*
X12850000Y-13175000D02*
X11990000Y-14035000D01*
X2625000Y-15225000D02*
X3187500Y-14662500D01*
X575000Y-15225000D02*
X2625000Y-15225000D01*
X275000Y-14925000D02*
X575000Y-15225000D01*
X-8225000Y-11825000D02*
X-7875000Y-12175000D01*
X-7875000Y-14350000D02*
X-7300000Y-14925000D01*
X3187500Y-14662500D02*
X7887500Y-14662500D01*
X-7300000Y-14925000D02*
X275000Y-14925000D01*
X8515000Y-14035000D02*
X9525000Y-14035000D01*
X7887500Y-14662500D02*
X8515000Y-14035000D01*
X-9275000Y-11825000D02*
X-8225000Y-11825000D01*
X-7875000Y-12175000D02*
X-7875000Y-14350000D01*
X12095000Y-22880000D02*
X12100000Y-22875000D01*
X12095000Y-24580000D02*
X12095000Y-22880000D01*
X12100000Y-22875000D02*
X12100000Y-20050000D01*
X12100000Y-20050000D02*
X12100000Y-19350000D01*
X14275000Y-11150000D02*
X13775000Y-11150000D01*
X14550000Y-11425000D02*
X14275000Y-11150000D01*
X-14175000Y-4850000D02*
X-14175000Y-3650000D01*
X8895000Y-24580000D02*
X8895000Y-22555000D01*
X8895000Y-22555000D02*
X8895000Y-22295000D01*
X8895000Y-22295000D02*
X8725000Y-22125000D01*
X-7725000Y-4850000D02*
X-7725000Y-5800000D01*
X-6625000Y-6900000D02*
X-7725000Y-5800000D01*
X3842158Y-7275000D02*
X3467158Y-6900000D01*
X3467158Y-6900000D02*
X-6625000Y-6900000D01*
X4125000Y-7275000D02*
X3842158Y-7275000D01*
X8725000Y-16700000D02*
X8075000Y-16050000D01*
X8725000Y-22125000D02*
X8725000Y-16700000D01*
X-7725000Y-2525000D02*
X-7725000Y-4850000D01*
X-8550000Y-1700000D02*
X-7725000Y-2525000D01*
X-13025000Y-1750000D02*
X-12775000Y-1500000D01*
X-13025000Y-2450000D02*
X-13025000Y-1750000D01*
X-10625000Y-1500000D02*
X-10425000Y-1700000D01*
X-12775000Y-1500000D02*
X-10625000Y-1500000D01*
X-10425000Y-1700000D02*
X-8550000Y-1700000D01*
X-14825000Y-6260000D02*
X-15115000Y-6550000D01*
X-14825000Y-4850000D02*
X-14825000Y-6260000D01*
X-8375000Y-6325000D02*
X-8375000Y-4850000D01*
X4875000Y-9600000D02*
X4275000Y-9000000D01*
X4275000Y-9000000D02*
X3250000Y-9000000D01*
X3250000Y-9000000D02*
X1950000Y-7700000D01*
X1950000Y-7700000D02*
X-7000000Y-7700000D01*
X-7000000Y-7700000D02*
X-8375000Y-6325000D01*
X-14825000Y-3350000D02*
X-14825000Y-4850000D01*
X-8375000Y-4850000D02*
X-8375000Y-2975000D01*
X-8375000Y-2975000D02*
X-9000000Y-2350000D01*
X-9000000Y-2350000D02*
X-11250000Y-2350000D01*
X-14525000Y-3050000D02*
X-14825000Y-3350000D01*
X-11950000Y-3050000D02*
X-14525000Y-3050000D01*
X-11250000Y-2350000D02*
X-11950000Y-3050000D01*
X84095000Y-24580000D02*
X84095000Y-23230000D01*
X84095000Y-23230000D02*
X84400000Y-22925000D01*
X84400000Y-22925000D02*
X84400000Y-21075000D01*
X83375000Y-20050000D02*
X82810000Y-20050000D01*
X84400000Y-21075000D02*
X83375000Y-20050000D01*
X17675000Y-16825000D02*
X18875000Y-16825000D01*
X19210000Y-16490000D02*
X19210000Y-15750000D01*
X18875000Y-16825000D02*
X19210000Y-16490000D01*
X18690000Y-16165000D02*
X18380000Y-16475000D01*
X18690000Y-15750000D02*
X18690000Y-16165000D01*
X18380000Y-16475000D02*
X17675000Y-16475000D01*
X15150000Y-14700000D02*
X15425000Y-14975000D01*
X14500000Y-14700000D02*
X15150000Y-14700000D01*
X15425000Y-14975000D02*
X16090000Y-14975000D01*
X17125000Y-15150000D02*
X16950000Y-14975000D01*
X16950000Y-14975000D02*
X16610000Y-14975000D01*
X17125000Y-16125000D02*
X17125000Y-15150000D01*
X17125000Y-16475000D02*
X16125000Y-16475000D01*
X14550000Y-18050000D02*
X13160000Y-18050000D01*
X16125000Y-16475000D02*
X14550000Y-18050000D01*
X17125000Y-16825000D02*
X16625000Y-16825000D01*
X16275000Y-17175000D02*
X16275000Y-17615000D01*
X16625000Y-16825000D02*
X16275000Y-17175000D01*
X16275000Y-18135000D02*
X16910000Y-18135000D01*
X16910000Y-18135000D02*
X17100000Y-18325000D01*
X-15175000Y-13125000D02*
X-16925000Y-13125000D01*
X-15175000Y-13125000D02*
X-13650000Y-13125000D01*
X-13650000Y-13125000D02*
X-12950000Y-12425000D01*
X-12950000Y-12425000D02*
X-12475000Y-11950000D01*
X-12475000Y-11950000D02*
X-12300000Y-11775000D01*
X-12300000Y-11775000D02*
X-12300000Y-10325000D01*
X-12300000Y-10325000D02*
X-13450000Y-9175000D01*
X-13450000Y-9175000D02*
X-13450000Y-7125000D01*
X-13450000Y-7125000D02*
X-14175000Y-6400000D01*
X-15175000Y-12475000D02*
X-13950000Y-12475000D01*
X-11140000Y-8410000D02*
X-12875000Y-8410000D01*
X-10725000Y-8410000D02*
X-11140000Y-8410000D01*
X-10725000Y-8410000D02*
X-10725000Y-11975000D01*
X-10225000Y-12475000D02*
X-9275000Y-12475000D01*
X-10725000Y-11975000D02*
X-10225000Y-12475000D01*
X-10550000Y-13125000D02*
X-9275000Y-13125000D01*
X1850000Y-11175000D02*
X625000Y-11175000D01*
X3750000Y-13075000D02*
X1850000Y-11175000D01*
X5365000Y-13075000D02*
X3750000Y-13075000D01*
X-4575000Y-6325000D02*
X-5240000Y-6325000D01*
X1425000Y-10525000D02*
X2250000Y-10525000D01*
X3400000Y-11675000D02*
X5440000Y-11675000D01*
X2250000Y-10525000D02*
X3400000Y-11675000D01*
X7295000Y-17795000D02*
X7295000Y-24580000D01*
X7295000Y-17795000D02*
X5200000Y-15700000D01*
X8095000Y-24580000D02*
X8095000Y-17395000D01*
X8095000Y-17395000D02*
X6100000Y-15400000D01*
X16525000Y-13775000D02*
X16300000Y-14000000D01*
X16525000Y-13435000D02*
X16525000Y-13775000D01*
X15800000Y-14000000D02*
X15250000Y-13450000D01*
X16300000Y-14000000D02*
X15800000Y-14000000D01*
X18765000Y-14200000D02*
X18125000Y-14200000D01*
X-75000Y-8700000D02*
X275000Y-8350000D01*
X-7675000Y-10525000D02*
X-6837500Y-9687500D01*
X275000Y-8350000D02*
X1075000Y-8350000D01*
X-9275000Y-10525000D02*
X-7675000Y-10525000D01*
X-3287500Y-9687500D02*
X-2300000Y-8700000D01*
X-6837500Y-9687500D02*
X-3287500Y-9687500D01*
X-2300000Y-8700000D02*
X-75000Y-8700000D01*
X18765000Y-13100000D02*
X18075000Y-13100000D01*
X-9275000Y-11175000D02*
X-8350000Y-11175000D01*
X-8350000Y-11175000D02*
X-7550000Y-11175000D01*
X-7550000Y-11175000D02*
X-7025000Y-11175000D01*
X-7025000Y-11175000D02*
X-6325000Y-10475000D01*
X-6325000Y-10475000D02*
X-2575000Y-10475000D01*
X-2575000Y-10475000D02*
X-2525000Y-10475000D01*
X-2525000Y-10475000D02*
X-1475000Y-9425000D01*
X-1475000Y-9425000D02*
X400000Y-9425000D01*
X400000Y-9425000D02*
X700000Y-9125000D01*
X700000Y-9125000D02*
X1150000Y-9125000D01*
X25750000Y-4510000D02*
X25750000Y-6425000D01*
X7425000Y-13750000D02*
X8775000Y-12400000D01*
X8775000Y-12400000D02*
X10175000Y-12400000D01*
X25750000Y-6425000D02*
X25750000Y-6700000D01*
X24240000Y-8210000D02*
X22775000Y-8210000D01*
X25750000Y-6700000D02*
X24240000Y-8210000D01*
X22775000Y-8210000D02*
X22775000Y-9575000D01*
X22775000Y-9575000D02*
X22050000Y-10300000D01*
X22050000Y-10300000D02*
X21250000Y-10300000D01*
X-450000Y-13750000D02*
X-2200000Y-12000000D01*
X7425000Y-13750000D02*
X-450000Y-13750000D01*
X-15175000Y-11825000D02*
X-13650000Y-11825000D01*
X2840000Y-9875000D02*
X850000Y-9875000D01*
X-1185000Y-5475000D02*
X-1175000Y-5485000D01*
X-2250000Y-5475000D02*
X-1185000Y-5475000D01*
X-1175000Y-6200000D02*
X-1175000Y-5485000D01*
X-9275000Y-13775000D02*
X-11975000Y-13775000D01*
X-11975000Y-13775000D02*
X-12175000Y-13575000D01*
X-4150000Y-13335000D02*
X-3075000Y-13335000D01*
X-4827158Y-13335000D02*
X-4150000Y-13335000D01*
X-5550000Y-13775000D02*
X-5267158Y-13775000D01*
X-5267158Y-13775000D02*
X-4827158Y-13335000D01*
X-15175000Y-8510000D02*
X-15075000Y-8410000D01*
X-15175000Y-9875000D02*
X-15175000Y-8510000D01*
X-15075000Y-8410000D02*
X-14000000Y-8410000D01*
X-4150000Y-11290000D02*
X-3075000Y-11290000D01*
X-4150000Y-11290000D02*
X-4690000Y-11290000D01*
X-4900000Y-12550000D02*
X-5475000Y-13125000D01*
X-4900000Y-11500000D02*
X-4900000Y-12550000D01*
X-4690000Y-11290000D02*
X-4900000Y-11500000D01*
X-15175000Y-10525000D02*
X-16350000Y-10525000D01*
X-4160000Y-8400000D02*
X-5040000Y-8400000D01*
X-4160000Y-8400000D02*
X-4160000Y-9175000D01*
X-15175000Y-11175000D02*
X-16950000Y-11175000D01*
X-17200000Y-10925000D02*
X-17200000Y-8410000D01*
X-16950000Y-11175000D02*
X-17200000Y-10925000D01*
X-17200000Y-8410000D02*
X-16150000Y-8410000D01*
D40*
X118041050Y-23101050D02*
X118041050Y-16354504D01*
X118295000Y-24580000D02*
X118295000Y-23355000D01*
X118295000Y-23355000D02*
X118041050Y-23101050D01*
X118041050Y-16354504D02*
X106280496Y-4593950D01*
X106280496Y-4593950D02*
X95814040Y-4593950D01*
X95814040Y-4593950D02*
X95700000Y-4479910D01*
X117748950Y-16475496D02*
X106159504Y-4886050D01*
X95814040Y-4886050D02*
X95700000Y-5000090D01*
X117495000Y-23355000D02*
X117748950Y-23101050D01*
X106159504Y-4886050D02*
X95814040Y-4886050D01*
X117495000Y-24580000D02*
X117495000Y-23355000D01*
X117748950Y-23101050D02*
X117748950Y-16475496D01*
D38*
X-13825000Y-200000D02*
X-13525000Y100000D01*
X-13525000Y100000D02*
X-13525000Y1050000D01*
X-13825000Y-200000D02*
X-14550000Y-200000D01*
X-7075000Y1050000D02*
X-7075000Y2500000D01*
X-7725000Y1050000D02*
X-7725000Y-500000D01*
X-7700000Y1075000D02*
X-7725000Y1050000D01*
X-7700000Y3300000D02*
X-7700000Y1075000D01*
X-7700000Y3300000D02*
X-7000000Y4000000D01*
X-7000000Y4000000D02*
X-4950000Y4000000D01*
X-14175000Y3050000D02*
X-13800000Y3425000D01*
X-14175000Y3050000D02*
X-14175000Y1050000D01*
X-8375000Y1050000D02*
X-8375000Y-350000D01*
X-8375000Y-350000D02*
X-8475000Y-450000D01*
X-14025000Y4325000D02*
X-14825000Y3525000D01*
X-9000000Y4325000D02*
X-14025000Y4325000D01*
X-14825000Y3525000D02*
X-14825000Y1050000D01*
X-8375000Y1050000D02*
X-8375000Y3700000D01*
X-8375000Y3700000D02*
X-9000000Y4325000D01*
X-9025000Y1050000D02*
X-9025000Y-150000D01*
X-9025000Y-150000D02*
X-9250000Y-375000D01*
X-9025000Y1050000D02*
X-9025000Y2050000D01*
X-9025000Y2050000D02*
X-9525000Y2550000D01*
X-9525000Y2550000D02*
X-12825000Y2550000D01*
X-15475000Y1050000D02*
X-15475000Y2175000D01*
X-6425000Y-4850000D02*
X-6425000Y-6100000D01*
X-6200000Y-6325000D02*
X-5760000Y-6325000D01*
X-6425000Y-6100000D02*
X-6200000Y-6325000D01*
X-5775000Y-3300000D02*
X-5775000Y-4850000D01*
X-3225000Y-2775000D02*
X-5250000Y-2775000D01*
X-5250000Y-2775000D02*
X-5775000Y-3300000D01*
X-7075000Y-2425000D02*
X-7075000Y-4850000D01*
X-3275000Y-2000000D02*
X-6650000Y-2000000D01*
X-1175000Y-4965000D02*
X-1175000Y-4100000D01*
X-1175000Y-4100000D02*
X-3275000Y-2000000D01*
X-7075000Y-2425000D02*
X-6650000Y-2000000D01*
X-12875000Y-7550000D02*
X-12875000Y-4850000D01*
X-12875000Y-7890000D02*
X-12875000Y-7550000D01*
X-12225000Y-4850000D02*
X-12225000Y-6600000D01*
X-12225000Y-6600000D02*
X-11800000Y-7025000D01*
X-13525000Y-4850000D02*
X-13525000Y-6225000D01*
X-5125000Y-175000D02*
X-5125000Y1050000D01*
X-11000000Y1050000D02*
X-11575000Y1050000D01*
X-5775000Y1050000D02*
X-5775000Y50000D01*
X-5775000Y50000D02*
X-5775000Y-1250000D01*
X-12225000Y-350000D02*
X-12225000Y1050000D01*
X-6425000Y1050000D02*
X-6425000Y50000D01*
X-6425000Y50000D02*
X-7000000Y-525000D01*
X-12875000Y1050000D02*
X-12875000Y-75000D01*
X-12875000Y-75000D02*
X-13725000Y-925000D01*
D41*
X19558128Y-21377400D02*
X25746243Y-15189284D01*
X15938127Y-21377400D02*
X19558128Y-21377400D01*
X15047400Y-22268127D02*
X15938127Y-21377400D01*
X15047400Y-23107400D02*
X15047400Y-22268127D01*
X15295000Y-23355000D02*
X15047400Y-23107400D01*
X15295000Y-24580000D02*
X15295000Y-23355000D01*
X25746243Y-15189284D02*
X25939284Y-15189284D01*
X25530716Y-14973757D02*
X25530716Y-14780716D01*
X14742601Y-22141872D02*
X15811873Y-21072600D01*
X14495000Y-24580000D02*
X14495000Y-23355000D01*
X14495000Y-23355000D02*
X14742600Y-23107400D01*
X14742600Y-23107400D02*
X14742601Y-22141872D01*
X15811873Y-21072600D02*
X19431872Y-21072600D01*
X19431872Y-21072600D02*
X25530716Y-14973757D01*
X92755000Y-1007817D02*
X92755000Y-230000D01*
X92912400Y-1165217D02*
X92755000Y-1007817D01*
X84823128Y-15652400D02*
X92912400Y-7563128D01*
X63295000Y-23355000D02*
X63047400Y-23107400D01*
X92912400Y-7563128D02*
X92912400Y-1165217D01*
X69813128Y-15652400D02*
X84823128Y-15652400D01*
X63295000Y-24580000D02*
X63295000Y-23355000D01*
X63047400Y-23107400D02*
X63047400Y-22418128D01*
X63047400Y-22418128D02*
X69813128Y-15652400D01*
X92350000Y-1460000D02*
X92030000Y-1460000D01*
X92607600Y-1717600D02*
X92350000Y-1460000D01*
X92607600Y-7436872D02*
X92607600Y-1717600D01*
X92030000Y-1460000D02*
X91755000Y-1735000D01*
X84696872Y-15347600D02*
X92607600Y-7436872D01*
X62495000Y-23355000D02*
X62742600Y-23107400D01*
X91755000Y-1735000D02*
X91755000Y-2230000D01*
X62495000Y-24580000D02*
X62495000Y-23355000D01*
X62742600Y-23107400D02*
X62742600Y-22291872D01*
X62742600Y-22291872D02*
X69686872Y-15347600D01*
X69686872Y-15347600D02*
X84696872Y-15347600D01*
X88755000Y-1007817D02*
X88755000Y-230000D01*
X88912400Y-1165217D02*
X88755000Y-1007817D01*
X60647400Y-23107400D02*
X60647400Y-22228128D01*
X60895000Y-24580000D02*
X60895000Y-23355000D01*
X60895000Y-23355000D02*
X60647400Y-23107400D01*
X60647400Y-22228128D02*
X68673128Y-14202400D01*
X68673128Y-14202400D02*
X83613128Y-14202400D01*
X83613128Y-14202400D02*
X88912400Y-8903128D01*
X88912400Y-8903128D02*
X88912400Y-1165217D01*
X87755000Y-1735000D02*
X87755000Y-2230000D01*
X88350000Y-1460000D02*
X88030000Y-1460000D01*
X88030000Y-1460000D02*
X87755000Y-1735000D01*
X88607600Y-1717600D02*
X88350000Y-1460000D01*
X60095000Y-23355000D02*
X60342600Y-23107400D01*
X60095000Y-24580000D02*
X60095000Y-23355000D01*
X60342600Y-23107400D02*
X60342600Y-22101872D01*
X60342600Y-22101872D02*
X68546872Y-13897600D01*
X68546872Y-13897600D02*
X83486872Y-13897600D01*
X83486872Y-13897600D02*
X88607600Y-8776872D01*
X88607600Y-8776872D02*
X88607600Y-1717600D01*
X84755000Y-1007817D02*
X84755000Y-230000D01*
X84912400Y-1165217D02*
X84755000Y-1007817D01*
X58247400Y-23107400D02*
X58247400Y-22228128D01*
X58495000Y-23355000D02*
X58247400Y-23107400D01*
X58495000Y-24580000D02*
X58495000Y-23355000D01*
X58247400Y-22228128D02*
X67713128Y-12762400D01*
X67713128Y-12762400D02*
X82013128Y-12762400D01*
X84912400Y-9863128D02*
X84912400Y-1165217D01*
X82013128Y-12762400D02*
X84912400Y-9863128D01*
X83755000Y-1735000D02*
X83755000Y-2230000D01*
X84350000Y-1460000D02*
X84030000Y-1460000D01*
X84030000Y-1460000D02*
X83755000Y-1735000D01*
X84607600Y-1717600D02*
X84350000Y-1460000D01*
X57695000Y-24580000D02*
X57695000Y-23355000D01*
X57942600Y-23107400D02*
X57942600Y-22101872D01*
X57695000Y-23355000D02*
X57942600Y-23107400D01*
X57942600Y-22101872D02*
X67586872Y-12457600D01*
X67586872Y-12457600D02*
X81886872Y-12457600D01*
X81886872Y-12457600D02*
X84607600Y-9736872D01*
X84607600Y-9736872D02*
X84607600Y-1717600D01*
X80755000Y-1007817D02*
X80755000Y-230000D01*
X80912400Y-1165217D02*
X80755000Y-1007817D01*
X55847400Y-23107400D02*
X55847400Y-21958128D01*
X55847400Y-21958128D02*
X66593128Y-11212400D01*
X56095000Y-23355000D02*
X55847400Y-23107400D01*
X56095000Y-24580000D02*
X56095000Y-23355000D01*
X66593128Y-11212400D02*
X78433128Y-11212400D01*
X78433128Y-11212400D02*
X80912400Y-8733128D01*
X80912400Y-8733128D02*
X80912400Y-1165217D01*
X79755000Y-1735000D02*
X79755000Y-2230000D01*
X80350000Y-1460000D02*
X80030000Y-1460000D01*
X80030000Y-1460000D02*
X79755000Y-1735000D01*
X80607600Y-1717600D02*
X80350000Y-1460000D01*
X55295000Y-24580000D02*
X55295000Y-23355000D01*
X55542600Y-21831872D02*
X66466872Y-10907600D01*
X55295000Y-23355000D02*
X55542600Y-23107400D01*
X55542600Y-23107400D02*
X55542600Y-21831872D01*
X66466872Y-10907600D02*
X78306872Y-10907600D01*
X78306872Y-10907600D02*
X80607600Y-8606872D01*
X80607600Y-8606872D02*
X80607600Y-1717600D01*
X76755000Y-1007817D02*
X76755000Y-230000D01*
X76912400Y-1165217D02*
X76755000Y-1007817D01*
X53695000Y-23355000D02*
X53447400Y-23107400D01*
X53695000Y-24580000D02*
X53695000Y-23355000D01*
X53447400Y-23107400D02*
X53447400Y-21698128D01*
X53447400Y-21698128D02*
X65593128Y-9552400D01*
X65593128Y-9552400D02*
X75133128Y-9552400D01*
X76912400Y-7773128D02*
X76912400Y-1165217D01*
X75133128Y-9552400D02*
X76912400Y-7773128D01*
X75755000Y-1735000D02*
X75755000Y-2230000D01*
X76350000Y-1460000D02*
X76030000Y-1460000D01*
X76030000Y-1460000D02*
X75755000Y-1735000D01*
X76607600Y-1717600D02*
X76350000Y-1460000D01*
X52895000Y-24580000D02*
X52895000Y-23355000D01*
X52895000Y-23355000D02*
X53142600Y-23107400D01*
X53142600Y-23107400D02*
X53142600Y-21571872D01*
X53142600Y-21571872D02*
X65466872Y-9247600D01*
X65466872Y-9247600D02*
X75006872Y-9247600D01*
X75006872Y-9247600D02*
X76607600Y-7646872D01*
X76607600Y-7646872D02*
X76607600Y-1717600D01*
X72755000Y-1007817D02*
X72755000Y-230000D01*
X72912400Y-1165217D02*
X72755000Y-1007817D01*
X51295000Y-23355000D02*
X51047400Y-23107400D01*
X51295000Y-24580000D02*
X51295000Y-23355000D01*
X51047400Y-23107400D02*
X51047400Y-21258128D01*
X51047400Y-21258128D02*
X64423128Y-7882400D01*
X64423128Y-7882400D02*
X71033128Y-7882400D01*
X71033128Y-7882400D02*
X72912400Y-6003128D01*
X72912400Y-6003128D02*
X72912400Y-1165217D01*
X71755000Y-1735000D02*
X71755000Y-2230000D01*
X72350000Y-1460000D02*
X72030000Y-1460000D01*
X72030000Y-1460000D02*
X71755000Y-1735000D01*
X72607600Y-1717600D02*
X72350000Y-1460000D01*
X50495000Y-24580000D02*
X50495000Y-23355000D01*
X50495000Y-23355000D02*
X50742600Y-23107400D01*
X50742600Y-23107400D02*
X50742600Y-21131872D01*
X50742600Y-21131872D02*
X64296872Y-7577600D01*
X64296872Y-7577600D02*
X70906872Y-7577600D01*
X70906872Y-7577600D02*
X72607600Y-5876872D01*
X72607600Y-5876872D02*
X72607600Y-1717600D01*
X68755000Y-1007817D02*
X68755000Y-230000D01*
X68912400Y-1165217D02*
X68755000Y-1007817D01*
X48895000Y-23355000D02*
X48647400Y-23107400D01*
X48895000Y-24580000D02*
X48895000Y-23355000D01*
X48647400Y-23107400D02*
X48647400Y-20958128D01*
X48647400Y-20958128D02*
X63503128Y-6102400D01*
X63503128Y-6102400D02*
X67483128Y-6102400D01*
X67483128Y-6102400D02*
X68912400Y-4673128D01*
X68912400Y-4673128D02*
X68912400Y-1165217D01*
X67755000Y-1735000D02*
X67755000Y-2230000D01*
X68350000Y-1460000D02*
X68030000Y-1460000D01*
X68030000Y-1460000D02*
X67755000Y-1735000D01*
X68607600Y-1717600D02*
X68350000Y-1460000D01*
X48095000Y-24580000D02*
X48095000Y-23355000D01*
X48095000Y-23355000D02*
X48342600Y-23107400D01*
X48342600Y-23107400D02*
X48342600Y-20831872D01*
X48342600Y-20831872D02*
X63376872Y-5797600D01*
X63376872Y-5797600D02*
X67356872Y-5797600D01*
X67356872Y-5797600D02*
X68607600Y-4546872D01*
X68607600Y-4546872D02*
X68607600Y-1717600D01*
X64755000Y-1007817D02*
X64755000Y-230000D01*
X64912400Y-1165217D02*
X64755000Y-1007817D01*
X46495000Y-23355000D02*
X46247400Y-23107400D01*
X46495000Y-24580000D02*
X46495000Y-23355000D01*
X46247400Y-23107400D02*
X46247400Y-20748128D01*
X46247400Y-20748128D02*
X62563128Y-4432400D01*
X62563128Y-4432400D02*
X63733128Y-4432400D01*
X64912400Y-3253128D02*
X64912400Y-1165217D01*
X63733128Y-4432400D02*
X64912400Y-3253128D01*
X63755000Y-1735000D02*
X63755000Y-2230000D01*
X64350000Y-1460000D02*
X64030000Y-1460000D01*
X64030000Y-1460000D02*
X63755000Y-1735000D01*
X64607600Y-1717600D02*
X64350000Y-1460000D01*
X45695000Y-24580000D02*
X45695000Y-23355000D01*
X45695000Y-23355000D02*
X45942600Y-23107400D01*
X45942600Y-23107400D02*
X45942600Y-20621872D01*
X45942600Y-20621872D02*
X62436872Y-4127600D01*
X62436872Y-4127600D02*
X63606872Y-4127600D01*
X63606872Y-4127600D02*
X64607600Y-3126872D01*
X64607600Y-3126872D02*
X64607600Y-1717600D01*
X59090000Y-1490000D02*
X59450000Y-1490000D01*
X58902400Y-1677600D02*
X59090000Y-1490000D01*
X59450000Y-1490000D02*
X59755000Y-1795000D01*
X44095000Y-23355000D02*
X43847400Y-23107400D01*
X43847400Y-23107400D02*
X43847400Y-20158128D01*
X59755000Y-1795000D02*
X59755000Y-2230000D01*
X44095000Y-24580000D02*
X44095000Y-23355000D01*
X58902400Y-5103128D02*
X58902400Y-1677600D01*
X43847400Y-20158128D02*
X58902400Y-5103128D01*
X43542600Y-23107400D02*
X43295000Y-23355000D01*
X58755000Y-230000D02*
X58755000Y-1007817D01*
X58755000Y-1007817D02*
X58597600Y-1165217D01*
X58597600Y-1165217D02*
X58597600Y-4976872D01*
X43295000Y-23355000D02*
X43295000Y-24580000D01*
X58597600Y-4976872D02*
X43542600Y-20031872D01*
X43542600Y-20031872D02*
X43542600Y-23107400D01*
X55090000Y-1490000D02*
X55450000Y-1490000D01*
X54902400Y-1677600D02*
X55090000Y-1490000D01*
X55450000Y-1490000D02*
X55755000Y-1795000D01*
X55755000Y-1795000D02*
X55755000Y-2230000D01*
X41695000Y-23355000D02*
X41447400Y-23107400D01*
X41695000Y-24580000D02*
X41695000Y-23355000D01*
X41447400Y-23107400D02*
X41447400Y-19968128D01*
X54902400Y-6513128D02*
X54902400Y-1677600D01*
X41447400Y-19968128D02*
X54902400Y-6513128D01*
X54755000Y-1007817D02*
X54597600Y-1165217D01*
X54755000Y-230000D02*
X54755000Y-1007817D01*
X40895000Y-24580000D02*
X40895000Y-23355000D01*
X40895000Y-23355000D02*
X41142600Y-23107400D01*
X41142600Y-23107400D02*
X41142600Y-19841872D01*
X41142600Y-19841872D02*
X54597600Y-6386872D01*
X54597600Y-6386872D02*
X54597600Y-1165217D01*
X51090000Y-1490000D02*
X51450000Y-1490000D01*
X50902400Y-1677600D02*
X51090000Y-1490000D01*
X51450000Y-1490000D02*
X51755000Y-1795000D01*
X51755000Y-1795000D02*
X51755000Y-2230000D01*
X39295000Y-23355000D02*
X39047400Y-23107400D01*
X39295000Y-24580000D02*
X39295000Y-23355000D01*
X39047400Y-23107400D02*
X39047400Y-19658128D01*
X39047400Y-19658128D02*
X50902400Y-7803128D01*
X50902400Y-7803128D02*
X50902400Y-1677600D01*
X50755000Y-1007817D02*
X50597600Y-1165217D01*
X50755000Y-230000D02*
X50755000Y-1007817D01*
X38495000Y-24580000D02*
X38495000Y-23355000D01*
X38495000Y-23355000D02*
X38742600Y-23107400D01*
X38742600Y-23107400D02*
X38742600Y-19531872D01*
X38742600Y-19531872D02*
X50597600Y-7676872D01*
X50597600Y-7676872D02*
X50597600Y-1165217D01*
X46902400Y-1677600D02*
X47090000Y-1490000D01*
X47090000Y-1490000D02*
X47450000Y-1490000D01*
X47450000Y-1490000D02*
X47755000Y-1795000D01*
X47755000Y-1795000D02*
X47755000Y-2230000D01*
X36895000Y-24580000D02*
X36895000Y-23355000D01*
X36895000Y-23355000D02*
X36647400Y-23107400D01*
X36647400Y-23107400D02*
X36647400Y-19218128D01*
X46902400Y-8963128D02*
X46902400Y-1677600D01*
X36647400Y-19218128D02*
X46902400Y-8963128D01*
X46755000Y-1007817D02*
X46597600Y-1165217D01*
X46755000Y-230000D02*
X46755000Y-1007817D01*
X36095000Y-24580000D02*
X36095000Y-23355000D01*
X36095000Y-23355000D02*
X36342600Y-23107400D01*
X36342600Y-23107400D02*
X36342600Y-19091872D01*
X36342600Y-19091872D02*
X46597600Y-8836872D01*
X46597600Y-8836872D02*
X46597600Y-1165217D01*
X40902400Y-1677600D02*
X41090000Y-1490000D01*
X41090000Y-1490000D02*
X41450000Y-1490000D01*
X41755000Y-1795000D02*
X41755000Y-2230000D01*
X41450000Y-1490000D02*
X41755000Y-1795000D01*
X34495000Y-23355000D02*
X34247400Y-23107400D01*
X34495000Y-24580000D02*
X34495000Y-23355000D01*
X34247400Y-23107400D02*
X34247400Y-18738128D01*
X34247400Y-18738128D02*
X40902400Y-12083128D01*
X40902400Y-12083128D02*
X40902400Y-1677600D01*
X40755000Y-1007817D02*
X40597600Y-1165217D01*
X40755000Y-230000D02*
X40755000Y-1007817D01*
X33695000Y-24580000D02*
X33695000Y-23355000D01*
X33695000Y-23355000D02*
X33942600Y-23107400D01*
X33942600Y-23107400D02*
X33942600Y-18611872D01*
X33942600Y-18611872D02*
X40597600Y-11956872D01*
X40597600Y-11956872D02*
X40597600Y-1165217D01*
X37755000Y-1795000D02*
X37755000Y-2230000D01*
X36902400Y-1677600D02*
X37090000Y-1490000D01*
X37090000Y-1490000D02*
X37450000Y-1490000D01*
X37450000Y-1490000D02*
X37755000Y-1795000D01*
X32095000Y-23355000D02*
X31847400Y-23107400D01*
X32095000Y-24580000D02*
X32095000Y-23355000D01*
X31847400Y-23107400D02*
X31847400Y-18528128D01*
X36902400Y-13473128D02*
X36902400Y-1677600D01*
X31847400Y-18528128D02*
X36902400Y-13473128D01*
X36755000Y-230000D02*
X36755000Y-1007817D01*
X36755000Y-1007817D02*
X36597600Y-1165217D01*
X31295000Y-24580000D02*
X31295000Y-23355000D01*
X31295000Y-23355000D02*
X31542600Y-23107400D01*
X31542600Y-23107400D02*
X31542600Y-18401872D01*
X31542600Y-18401872D02*
X36597600Y-13346872D01*
X36597600Y-13346872D02*
X36597600Y-1165217D01*
X33450000Y-1490000D02*
X33755000Y-1795000D01*
X33090000Y-1490000D02*
X33450000Y-1490000D01*
X32902400Y-1677600D02*
X33090000Y-1490000D01*
X32902400Y-14153128D02*
X32902400Y-1677600D01*
X33755000Y-1795000D02*
X33755000Y-2230000D01*
X24895000Y-24580000D02*
X24895000Y-23355000D01*
X24895000Y-23355000D02*
X24647400Y-23107400D01*
X24647400Y-23107400D02*
X24647400Y-22408128D01*
X24647400Y-22408128D02*
X32902400Y-14153128D01*
X24342600Y-23107400D02*
X24342600Y-22281872D01*
X24095000Y-23355000D02*
X24342600Y-23107400D01*
X24095000Y-24580000D02*
X24095000Y-23355000D01*
X24342600Y-22281872D02*
X32597600Y-14026872D01*
X32597600Y-1165217D02*
X32755000Y-1007817D01*
X32755000Y-1007817D02*
X32755000Y-230000D01*
X32597600Y-14026872D02*
X32597600Y-1165217D01*
X28755000Y-1007817D02*
X28755000Y-230000D01*
X28902400Y-1155217D02*
X28755000Y-1007817D01*
X28902400Y-15683128D02*
X28902400Y-1155217D01*
X22247400Y-22338128D02*
X28902400Y-15683128D01*
X22247400Y-23107400D02*
X22247400Y-22338128D01*
X22495000Y-23355000D02*
X22247400Y-23107400D01*
X22495000Y-24580000D02*
X22495000Y-23355000D01*
X21942600Y-23107400D02*
X21942600Y-22211872D01*
X21695000Y-23355000D02*
X21942600Y-23107400D01*
X21695000Y-24580000D02*
X21695000Y-23355000D01*
X21942600Y-22211872D02*
X28597600Y-15556872D01*
X28597600Y-15556872D02*
X28597600Y-1677600D01*
X28597600Y-1677600D02*
X28380000Y-1460000D01*
X28380000Y-1460000D02*
X28050000Y-1460000D01*
X28050000Y-1460000D02*
X27755000Y-1755000D01*
X27755000Y-1755000D02*
X27755000Y-2230000D01*
D38*
X22755000Y-230000D02*
X23725000Y-1200000D01*
X23725000Y-1200000D02*
X23725000Y-2825000D01*
X17675000Y-18500000D02*
X17675000Y-17175000D01*
X14187500Y-19412500D02*
X16762500Y-19412500D01*
X12895000Y-24580000D02*
X12895000Y-20705000D01*
X16762500Y-19412500D02*
X17675000Y-18500000D01*
X12895000Y-20705000D02*
X14187500Y-19412500D01*
X6350000Y-9250000D02*
X6325000Y-9225000D01*
X6325000Y-8625001D02*
X5800000Y-8100001D01*
X6325000Y-9225000D02*
X6325000Y-8625001D01*
X5800000Y-8100001D02*
X5800000Y-7500000D01*
X5800000Y-7500000D02*
X5800000Y-7475000D01*
X5800000Y-7475000D02*
X6325000Y-6950000D01*
X6325000Y-6387501D02*
X6185000Y-6247501D01*
X6325000Y-6950000D02*
X6325000Y-6387501D01*
X6185000Y-6247501D02*
X6185000Y-5925000D01*
X7300000Y-8100001D02*
X7300000Y-7500000D01*
X6775000Y-9225000D02*
X6775000Y-8625001D01*
X6775000Y-8625001D02*
X7300000Y-8100001D01*
X6750000Y-9250000D02*
X6775000Y-9225000D01*
X7300000Y-7475000D02*
X6775000Y-6950000D01*
X7300000Y-7500000D02*
X7300000Y-7475000D01*
X6775000Y-6950000D02*
X6775000Y-6387501D01*
X6915000Y-6247501D02*
X6915000Y-5925000D01*
X6775000Y-6387501D02*
X6915000Y-6247501D01*
X25750000Y-2235000D02*
X25755000Y-2230000D01*
X25750000Y-3990000D02*
X25750000Y-2235000D01*
X6750000Y-10450000D02*
X6750000Y-11375000D01*
X6450000Y-11675000D02*
X5960000Y-11675000D01*
X6750000Y-11375000D02*
X6450000Y-11675000D01*
X7625000Y-10925000D02*
X7625000Y-12175000D01*
X7625000Y-10925000D02*
X7150000Y-10450000D01*
X6725000Y-13075000D02*
X5885000Y-13075000D01*
X7625000Y-12175000D02*
X6725000Y-13075000D01*
X3360000Y-9875000D02*
X3700000Y-9875000D01*
X5900000Y-10900000D02*
X6350000Y-10450000D01*
X4725000Y-10900000D02*
X5900000Y-10900000D01*
X3700000Y-9875000D02*
X4725000Y-10900000D01*
X6190901Y-9650000D02*
X6350000Y-9650000D01*
X5675000Y-9232842D02*
X6092158Y-9650000D01*
X6092158Y-9650000D02*
X6190901Y-9650000D01*
X5675000Y-8950000D02*
X5675000Y-9232842D01*
X6350000Y-10050000D02*
X5550000Y-10050000D01*
X5550000Y-10050000D02*
X5250000Y-10350000D01*
D42*
G36*
X10648000Y-20359947D02*
G01*
X10622355Y-20385592D01*
X10572670Y-20459950D01*
X10538447Y-20542573D01*
X10521000Y-20630285D01*
X10521000Y-20719715D01*
X10538447Y-20807427D01*
X10572670Y-20890050D01*
X10622355Y-20964408D01*
X10648000Y-20990053D01*
X10648000Y-25948000D01*
X9527000Y-25948000D01*
X9527000Y-23081066D01*
X9524560Y-23056290D01*
X9517333Y-23032465D01*
X9377000Y-22693671D01*
X9377000Y-22127000D01*
X9374560Y-22102224D01*
X9367333Y-22078399D01*
X9277530Y-21861596D01*
X9265794Y-21839639D01*
X9250000Y-21820394D01*
X9247468Y-21817862D01*
X9177000Y-21647737D01*
X9177000Y-20409392D01*
X9242573Y-20436553D01*
X9330285Y-20454000D01*
X9419715Y-20454000D01*
X9507427Y-20436553D01*
X9590050Y-20402330D01*
X9664408Y-20352645D01*
X9727645Y-20289408D01*
X9769345Y-20227000D01*
X10648000Y-20227000D01*
X10648000Y-20359947D01*
G37*
X10648000Y-20359947D02*
X10622355Y-20385592D01*
X10572670Y-20459950D01*
X10538447Y-20542573D01*
X10521000Y-20630285D01*
X10521000Y-20719715D01*
X10538447Y-20807427D01*
X10572670Y-20890050D01*
X10622355Y-20964408D01*
X10648000Y-20990053D01*
X10648000Y-25948000D01*
X9527000Y-25948000D01*
X9527000Y-23081066D01*
X9524560Y-23056290D01*
X9517333Y-23032465D01*
X9377000Y-22693671D01*
X9377000Y-22127000D01*
X9374560Y-22102224D01*
X9367333Y-22078399D01*
X9277530Y-21861596D01*
X9265794Y-21839639D01*
X9250000Y-21820394D01*
X9247468Y-21817862D01*
X9177000Y-21647737D01*
X9177000Y-20409392D01*
X9242573Y-20436553D01*
X9330285Y-20454000D01*
X9419715Y-20454000D01*
X9507427Y-20436553D01*
X9590050Y-20402330D01*
X9664408Y-20352645D01*
X9727645Y-20289408D01*
X9769345Y-20227000D01*
X10648000Y-20227000D01*
X10648000Y-20359947D01*
G36*
X10667862Y-17172468D02*
G01*
X10920394Y-17425000D01*
X10939640Y-17440794D01*
X10961596Y-17452530D01*
X11178399Y-17542333D01*
X11202223Y-17549560D01*
X11227000Y-17552000D01*
X12648000Y-17552000D01*
X12648000Y-18621704D01*
X12637108Y-18648000D01*
X11977000Y-18648000D01*
X11952224Y-18650440D01*
X11928399Y-18657667D01*
X11711596Y-18747470D01*
X11689639Y-18759206D01*
X11670394Y-18775000D01*
X11525000Y-18920394D01*
X11509206Y-18939640D01*
X11497470Y-18961596D01*
X11407667Y-19178399D01*
X11400440Y-19202223D01*
X11398000Y-19227000D01*
X11398000Y-19472737D01*
X11327532Y-19642862D01*
X11292862Y-19677532D01*
X11122737Y-19748000D01*
X9752641Y-19748000D01*
X9727645Y-19710592D01*
X9664408Y-19647355D01*
X9590050Y-19597670D01*
X9507427Y-19563447D01*
X9419715Y-19546000D01*
X9330285Y-19546000D01*
X9242573Y-19563447D01*
X9202000Y-19580253D01*
X9202000Y-17299007D01*
X9259702Y-17159702D01*
X9399007Y-17102000D01*
X10497737Y-17102000D01*
X10667862Y-17172468D01*
G37*
X10667862Y-17172468D02*
X10920394Y-17425000D01*
X10939640Y-17440794D01*
X10961596Y-17452530D01*
X11178399Y-17542333D01*
X11202223Y-17549560D01*
X11227000Y-17552000D01*
X12648000Y-17552000D01*
X12648000Y-18621704D01*
X12637108Y-18648000D01*
X11977000Y-18648000D01*
X11952224Y-18650440D01*
X11928399Y-18657667D01*
X11711596Y-18747470D01*
X11689639Y-18759206D01*
X11670394Y-18775000D01*
X11525000Y-18920394D01*
X11509206Y-18939640D01*
X11497470Y-18961596D01*
X11407667Y-19178399D01*
X11400440Y-19202223D01*
X11398000Y-19227000D01*
X11398000Y-19472737D01*
X11327532Y-19642862D01*
X11292862Y-19677532D01*
X11122737Y-19748000D01*
X9752641Y-19748000D01*
X9727645Y-19710592D01*
X9664408Y-19647355D01*
X9590050Y-19597670D01*
X9507427Y-19563447D01*
X9419715Y-19546000D01*
X9330285Y-19546000D01*
X9242573Y-19563447D01*
X9202000Y-19580253D01*
X9202000Y-17299007D01*
X9259702Y-17159702D01*
X9399007Y-17102000D01*
X10497737Y-17102000D01*
X10667862Y-17172468D01*
G36*
X23017862Y-1322468D02*
G01*
X23127532Y-1432138D01*
X23198000Y-1602263D01*
X23198000Y-2922737D01*
X23127532Y-3092862D01*
X22700000Y-3520394D01*
X22684206Y-3539640D01*
X22672470Y-3561596D01*
X22582667Y-3778399D01*
X22575440Y-3802223D01*
X22573000Y-3827000D01*
X22573000Y-5473000D01*
X22575440Y-5497776D01*
X22582667Y-5521601D01*
X22672470Y-5738404D01*
X22684206Y-5760361D01*
X22700000Y-5779606D01*
X23052532Y-6132138D01*
X23123000Y-6302263D01*
X23123000Y-7522737D01*
X23057022Y-7682022D01*
X22897737Y-7748000D01*
X22227263Y-7748000D01*
X22057138Y-7677532D01*
X20922468Y-6542862D01*
X20852000Y-6372737D01*
X20852000Y-4027263D01*
X20922468Y-3857138D01*
X20925000Y-3854606D01*
X20940794Y-3835360D01*
X20952530Y-3813404D01*
X21042333Y-3596601D01*
X21049560Y-3572777D01*
X21052000Y-3548000D01*
X21052000Y-1552263D01*
X21122468Y-1382138D01*
X21182138Y-1322468D01*
X21352263Y-1252000D01*
X22847737Y-1252000D01*
X23017862Y-1322468D01*
G37*
X23017862Y-1322468D02*
X23127532Y-1432138D01*
X23198000Y-1602263D01*
X23198000Y-2922737D01*
X23127532Y-3092862D01*
X22700000Y-3520394D01*
X22684206Y-3539640D01*
X22672470Y-3561596D01*
X22582667Y-3778399D01*
X22575440Y-3802223D01*
X22573000Y-3827000D01*
X22573000Y-5473000D01*
X22575440Y-5497776D01*
X22582667Y-5521601D01*
X22672470Y-5738404D01*
X22684206Y-5760361D01*
X22700000Y-5779606D01*
X23052532Y-6132138D01*
X23123000Y-6302263D01*
X23123000Y-7522737D01*
X23057022Y-7682022D01*
X22897737Y-7748000D01*
X22227263Y-7748000D01*
X22057138Y-7677532D01*
X20922468Y-6542862D01*
X20852000Y-6372737D01*
X20852000Y-4027263D01*
X20922468Y-3857138D01*
X20925000Y-3854606D01*
X20940794Y-3835360D01*
X20952530Y-3813404D01*
X21042333Y-3596601D01*
X21049560Y-3572777D01*
X21052000Y-3548000D01*
X21052000Y-1552263D01*
X21122468Y-1382138D01*
X21182138Y-1322468D01*
X21352263Y-1252000D01*
X22847737Y-1252000D01*
X23017862Y-1322468D01*
G36*
X20217862Y-1222468D02*
G01*
X20227532Y-1232138D01*
X20298000Y-1402263D01*
X20298000Y-2972737D01*
X20227532Y-3142862D01*
X20117862Y-3252532D01*
X19947737Y-3323000D01*
X19252000Y-3323000D01*
X19227224Y-3325440D01*
X19203399Y-3332667D01*
X18986596Y-3422470D01*
X18964639Y-3434206D01*
X18945394Y-3450000D01*
X18650000Y-3745394D01*
X18634206Y-3764640D01*
X18622470Y-3786596D01*
X18532667Y-4003399D01*
X18525440Y-4027223D01*
X18523000Y-4052000D01*
X18523000Y-7198000D01*
X18525440Y-7222776D01*
X18532667Y-7246601D01*
X18622470Y-7463404D01*
X18634206Y-7485361D01*
X18650000Y-7504606D01*
X18652532Y-7507138D01*
X18723000Y-7677263D01*
X18723000Y-10097737D01*
X18652532Y-10267862D01*
X17517862Y-11402532D01*
X17347737Y-11473000D01*
X16930313Y-11473000D01*
X16952330Y-11440050D01*
X16986553Y-11357427D01*
X17004000Y-11269715D01*
X17004000Y-11180285D01*
X16986553Y-11092573D01*
X16952330Y-11009950D01*
X16902645Y-10935592D01*
X16839408Y-10872355D01*
X16765050Y-10822670D01*
X16682427Y-10788447D01*
X16594715Y-10771000D01*
X16505285Y-10771000D01*
X16417573Y-10788447D01*
X16334950Y-10822670D01*
X16260592Y-10872355D01*
X16197355Y-10935592D01*
X16147670Y-11009950D01*
X16113447Y-11092573D01*
X16096000Y-11180285D01*
X16096000Y-11269715D01*
X16113447Y-11357427D01*
X16147670Y-11440050D01*
X16169687Y-11473000D01*
X15981329Y-11473000D01*
X15872202Y-11427798D01*
X15827000Y-11318671D01*
X15827000Y-10677000D01*
X15824560Y-10652224D01*
X15817333Y-10628399D01*
X15727530Y-10411596D01*
X15715794Y-10389639D01*
X15700000Y-10370394D01*
X15697482Y-10367876D01*
X15742573Y-10386553D01*
X15830285Y-10404000D01*
X15919715Y-10404000D01*
X16007427Y-10386553D01*
X16090050Y-10352330D01*
X16164408Y-10302645D01*
X16227645Y-10239408D01*
X16277330Y-10165050D01*
X16311553Y-10082427D01*
X16329000Y-9994715D01*
X16329000Y-9905285D01*
X16311553Y-9817573D01*
X16277330Y-9734950D01*
X16227645Y-9660592D01*
X16164408Y-9597355D01*
X16090050Y-9547670D01*
X16007427Y-9513447D01*
X15919715Y-9496000D01*
X15830285Y-9496000D01*
X15742573Y-9513447D01*
X15659950Y-9547670D01*
X15585592Y-9597355D01*
X15522355Y-9660592D01*
X15472670Y-9734950D01*
X15438447Y-9817573D01*
X15421000Y-9905285D01*
X15421000Y-9994715D01*
X15438447Y-10082427D01*
X15457124Y-10127518D01*
X15395228Y-10065622D01*
X15395228Y-9895000D01*
X15390324Y-9845207D01*
X15375800Y-9797328D01*
X15352214Y-9753203D01*
X15320473Y-9714527D01*
X15281797Y-9682786D01*
X15237672Y-9659200D01*
X15189793Y-9644676D01*
X15140000Y-9639772D01*
X14969378Y-9639772D01*
X14297468Y-8967862D01*
X14227000Y-8797737D01*
X14227000Y-4902263D01*
X14297468Y-4732138D01*
X16052656Y-2976950D01*
X16135837Y-2942495D01*
X16267520Y-2854507D01*
X16379507Y-2742520D01*
X16467495Y-2610837D01*
X16501950Y-2527656D01*
X16968929Y-2060677D01*
X16951000Y-2150813D01*
X16951000Y-2309187D01*
X16981897Y-2464518D01*
X17042505Y-2610837D01*
X17130493Y-2742520D01*
X17242480Y-2854507D01*
X17374163Y-2942495D01*
X17520482Y-3003103D01*
X17675813Y-3034000D01*
X17834187Y-3034000D01*
X17989518Y-3003103D01*
X18135837Y-2942495D01*
X18267520Y-2854507D01*
X18379507Y-2742520D01*
X18467495Y-2610837D01*
X18528103Y-2464518D01*
X18559000Y-2309187D01*
X18559000Y-2150813D01*
X18528103Y-1995482D01*
X18467495Y-1849163D01*
X18379507Y-1717480D01*
X18267520Y-1605493D01*
X18135837Y-1517505D01*
X17989518Y-1456897D01*
X17834187Y-1426000D01*
X17675813Y-1426000D01*
X17585677Y-1443929D01*
X17807138Y-1222468D01*
X17977263Y-1152000D01*
X20047737Y-1152000D01*
X20217862Y-1222468D01*
G37*
X20217862Y-1222468D02*
X20227532Y-1232138D01*
X20298000Y-1402263D01*
X20298000Y-2972737D01*
X20227532Y-3142862D01*
X20117862Y-3252532D01*
X19947737Y-3323000D01*
X19252000Y-3323000D01*
X19227224Y-3325440D01*
X19203399Y-3332667D01*
X18986596Y-3422470D01*
X18964639Y-3434206D01*
X18945394Y-3450000D01*
X18650000Y-3745394D01*
X18634206Y-3764640D01*
X18622470Y-3786596D01*
X18532667Y-4003399D01*
X18525440Y-4027223D01*
X18523000Y-4052000D01*
X18523000Y-7198000D01*
X18525440Y-7222776D01*
X18532667Y-7246601D01*
X18622470Y-7463404D01*
X18634206Y-7485361D01*
X18650000Y-7504606D01*
X18652532Y-7507138D01*
X18723000Y-7677263D01*
X18723000Y-10097737D01*
X18652532Y-10267862D01*
X17517862Y-11402532D01*
X17347737Y-11473000D01*
X16930313Y-11473000D01*
X16952330Y-11440050D01*
X16986553Y-11357427D01*
X17004000Y-11269715D01*
X17004000Y-11180285D01*
X16986553Y-11092573D01*
X16952330Y-11009950D01*
X16902645Y-10935592D01*
X16839408Y-10872355D01*
X16765050Y-10822670D01*
X16682427Y-10788447D01*
X16594715Y-10771000D01*
X16505285Y-10771000D01*
X16417573Y-10788447D01*
X16334950Y-10822670D01*
X16260592Y-10872355D01*
X16197355Y-10935592D01*
X16147670Y-11009950D01*
X16113447Y-11092573D01*
X16096000Y-11180285D01*
X16096000Y-11269715D01*
X16113447Y-11357427D01*
X16147670Y-11440050D01*
X16169687Y-11473000D01*
X15981329Y-11473000D01*
X15872202Y-11427798D01*
X15827000Y-11318671D01*
X15827000Y-10677000D01*
X15824560Y-10652224D01*
X15817333Y-10628399D01*
X15727530Y-10411596D01*
X15715794Y-10389639D01*
X15700000Y-10370394D01*
X15697482Y-10367876D01*
X15742573Y-10386553D01*
X15830285Y-10404000D01*
X15919715Y-10404000D01*
X16007427Y-10386553D01*
X16090050Y-10352330D01*
X16164408Y-10302645D01*
X16227645Y-10239408D01*
X16277330Y-10165050D01*
X16311553Y-10082427D01*
X16329000Y-9994715D01*
X16329000Y-9905285D01*
X16311553Y-9817573D01*
X16277330Y-9734950D01*
X16227645Y-9660592D01*
X16164408Y-9597355D01*
X16090050Y-9547670D01*
X16007427Y-9513447D01*
X15919715Y-9496000D01*
X15830285Y-9496000D01*
X15742573Y-9513447D01*
X15659950Y-9547670D01*
X15585592Y-9597355D01*
X15522355Y-9660592D01*
X15472670Y-9734950D01*
X15438447Y-9817573D01*
X15421000Y-9905285D01*
X15421000Y-9994715D01*
X15438447Y-10082427D01*
X15457124Y-10127518D01*
X15395228Y-10065622D01*
X15395228Y-9895000D01*
X15390324Y-9845207D01*
X15375800Y-9797328D01*
X15352214Y-9753203D01*
X15320473Y-9714527D01*
X15281797Y-9682786D01*
X15237672Y-9659200D01*
X15189793Y-9644676D01*
X15140000Y-9639772D01*
X14969378Y-9639772D01*
X14297468Y-8967862D01*
X14227000Y-8797737D01*
X14227000Y-4902263D01*
X14297468Y-4732138D01*
X16052656Y-2976950D01*
X16135837Y-2942495D01*
X16267520Y-2854507D01*
X16379507Y-2742520D01*
X16467495Y-2610837D01*
X16501950Y-2527656D01*
X16968929Y-2060677D01*
X16951000Y-2150813D01*
X16951000Y-2309187D01*
X16981897Y-2464518D01*
X17042505Y-2610837D01*
X17130493Y-2742520D01*
X17242480Y-2854507D01*
X17374163Y-2942495D01*
X17520482Y-3003103D01*
X17675813Y-3034000D01*
X17834187Y-3034000D01*
X17989518Y-3003103D01*
X18135837Y-2942495D01*
X18267520Y-2854507D01*
X18379507Y-2742520D01*
X18467495Y-2610837D01*
X18528103Y-2464518D01*
X18559000Y-2309187D01*
X18559000Y-2150813D01*
X18528103Y-1995482D01*
X18467495Y-1849163D01*
X18379507Y-1717480D01*
X18267520Y-1605493D01*
X18135837Y-1517505D01*
X17989518Y-1456897D01*
X17834187Y-1426000D01*
X17675813Y-1426000D01*
X17585677Y-1443929D01*
X17807138Y-1222468D01*
X17977263Y-1152000D01*
X20047737Y-1152000D01*
X20217862Y-1222468D01*
G36*
X20173000Y-6473000D02*
G01*
X20175440Y-6497776D01*
X20182667Y-6521601D01*
X20272470Y-6738404D01*
X20284206Y-6760361D01*
X20300000Y-6779606D01*
X21802532Y-8282138D01*
X21873000Y-8452263D01*
X21873000Y-9368671D01*
X21827798Y-9477798D01*
X21718671Y-9523000D01*
X19813651Y-9523000D01*
X19734702Y-9490298D01*
X19702000Y-9411349D01*
X19702000Y-7752000D01*
X19699560Y-7727224D01*
X19692333Y-7703399D01*
X19602530Y-7486596D01*
X19590794Y-7464639D01*
X19575000Y-7445394D01*
X19347468Y-7217862D01*
X19277000Y-7047737D01*
X19277000Y-4302000D01*
X20173000Y-4302000D01*
X20173000Y-6473000D01*
G37*
X20173000Y-6473000D02*
X20175440Y-6497776D01*
X20182667Y-6521601D01*
X20272470Y-6738404D01*
X20284206Y-6760361D01*
X20300000Y-6779606D01*
X21802532Y-8282138D01*
X21873000Y-8452263D01*
X21873000Y-9368671D01*
X21827798Y-9477798D01*
X21718671Y-9523000D01*
X19813651Y-9523000D01*
X19734702Y-9490298D01*
X19702000Y-9411349D01*
X19702000Y-7752000D01*
X19699560Y-7727224D01*
X19692333Y-7703399D01*
X19602530Y-7486596D01*
X19590794Y-7464639D01*
X19575000Y-7445394D01*
X19347468Y-7217862D01*
X19277000Y-7047737D01*
X19277000Y-4302000D01*
X20173000Y-4302000D01*
X20173000Y-6473000D01*
G36*
X15242480Y4894507D02*
G01*
X15130493Y4782520D01*
X15042505Y4650837D01*
X14981897Y4504518D01*
X14951000Y4349187D01*
X14951000Y4190813D01*
X14981897Y4035482D01*
X15042505Y3889163D01*
X15130493Y3757480D01*
X15242480Y3645493D01*
X15374163Y3557505D01*
X15520482Y3496897D01*
X15675813Y3466000D01*
X15834187Y3466000D01*
X15989518Y3496897D01*
X16135837Y3557505D01*
X16267520Y3645493D01*
X16379507Y3757480D01*
X16467495Y3889163D01*
X16528103Y4035482D01*
X16559000Y4190813D01*
X16559000Y4349187D01*
X16528103Y4504518D01*
X16467495Y4650837D01*
X16379507Y4782520D01*
X16267520Y4894507D01*
X16160523Y4966000D01*
X16698000Y4966000D01*
X16698000Y3074000D01*
X16675813Y3074000D01*
X16520482Y3043103D01*
X16374163Y2982495D01*
X16242480Y2894507D01*
X16130493Y2782520D01*
X16042505Y2650837D01*
X15981897Y2504518D01*
X15951000Y2349187D01*
X15951000Y2190813D01*
X15981897Y2035482D01*
X16042505Y1889163D01*
X16130493Y1757480D01*
X16242480Y1645493D01*
X16374163Y1557505D01*
X16520482Y1496897D01*
X16675813Y1466000D01*
X16698000Y1466000D01*
X16698000Y574000D01*
X16675813Y574000D01*
X16520482Y543103D01*
X16374163Y482495D01*
X16242480Y394507D01*
X16130493Y282520D01*
X16042505Y150837D01*
X15981897Y4518D01*
X15951000Y-150813D01*
X15951000Y-309187D01*
X15981897Y-464518D01*
X16042505Y-610837D01*
X16130493Y-742520D01*
X16242480Y-854507D01*
X16374163Y-942495D01*
X16520482Y-1003103D01*
X16559525Y-1010869D01*
X16077184Y-1493210D01*
X15989518Y-1456897D01*
X15834187Y-1426000D01*
X15675813Y-1426000D01*
X15520482Y-1456897D01*
X15374163Y-1517505D01*
X15242480Y-1605493D01*
X15130493Y-1717480D01*
X15042505Y-1849163D01*
X14981897Y-1995482D01*
X14951000Y-2150813D01*
X14951000Y-2309187D01*
X14981897Y-2464518D01*
X15018210Y-2552184D01*
X12867862Y-4702532D01*
X12697737Y-4773000D01*
X10527000Y-4773000D01*
X10502224Y-4775440D01*
X10478399Y-4782667D01*
X10261596Y-4872470D01*
X10239639Y-4884206D01*
X10220394Y-4900000D01*
X9872697Y-5247697D01*
X9856903Y-5266943D01*
X9845167Y-5288899D01*
X9807667Y-5379432D01*
X9800440Y-5403257D01*
X9798000Y-5428033D01*
X9798000Y-6068671D01*
X9752798Y-6177798D01*
X9643671Y-6223000D01*
X7428296Y-6223000D01*
X7409702Y-6215298D01*
X7402000Y-6196704D01*
X7402000Y-3452000D01*
X7399560Y-3427224D01*
X7392333Y-3403399D01*
X7302530Y-3186596D01*
X7290794Y-3164639D01*
X7275000Y-3145394D01*
X6759891Y-2630285D01*
X10371000Y-2630285D01*
X10371000Y-2719715D01*
X10388447Y-2807427D01*
X10422670Y-2890050D01*
X10472355Y-2964408D01*
X10535592Y-3027645D01*
X10609950Y-3077330D01*
X10692573Y-3111553D01*
X10780285Y-3129000D01*
X10869715Y-3129000D01*
X10957427Y-3111553D01*
X11040050Y-3077330D01*
X11114408Y-3027645D01*
X11177645Y-2964408D01*
X11227330Y-2890050D01*
X11261553Y-2807427D01*
X11279000Y-2719715D01*
X11279000Y-2630285D01*
X11261553Y-2542573D01*
X11227330Y-2459950D01*
X11177645Y-2385592D01*
X11114408Y-2322355D01*
X11040050Y-2272670D01*
X10957427Y-2238447D01*
X10869715Y-2221000D01*
X10780285Y-2221000D01*
X10692573Y-2238447D01*
X10609950Y-2272670D01*
X10535592Y-2322355D01*
X10472355Y-2385592D01*
X10422670Y-2459950D01*
X10388447Y-2542573D01*
X10371000Y-2630285D01*
X6759891Y-2630285D01*
X6604606Y-2475000D01*
X6585360Y-2459206D01*
X6563404Y-2447470D01*
X6346601Y-2357667D01*
X6322777Y-2350440D01*
X6298000Y-2348000D01*
X5963651Y-2348000D01*
X5884702Y-2315298D01*
X5852000Y-2236349D01*
X5852000Y-1880285D01*
X8496000Y-1880285D01*
X8496000Y-1969715D01*
X8513447Y-2057427D01*
X8547670Y-2140050D01*
X8597355Y-2214408D01*
X8660592Y-2277645D01*
X8734950Y-2327330D01*
X8817573Y-2361553D01*
X8905285Y-2379000D01*
X8994715Y-2379000D01*
X9082427Y-2361553D01*
X9165050Y-2327330D01*
X9239408Y-2277645D01*
X9302645Y-2214408D01*
X9352330Y-2140050D01*
X9386553Y-2057427D01*
X9404000Y-1969715D01*
X9404000Y-1880285D01*
X9386553Y-1792573D01*
X9352330Y-1709950D01*
X9302645Y-1635592D01*
X9247338Y-1580285D01*
X10296000Y-1580285D01*
X10296000Y-1669715D01*
X10313447Y-1757427D01*
X10347670Y-1840050D01*
X10397355Y-1914408D01*
X10460592Y-1977645D01*
X10534950Y-2027330D01*
X10617573Y-2061553D01*
X10705285Y-2079000D01*
X10794715Y-2079000D01*
X10882427Y-2061553D01*
X10965050Y-2027330D01*
X11039408Y-1977645D01*
X11102645Y-1914408D01*
X11152330Y-1840050D01*
X11186553Y-1757427D01*
X11204000Y-1669715D01*
X11204000Y-1580285D01*
X11186553Y-1492573D01*
X11152330Y-1409950D01*
X11102645Y-1335592D01*
X11039408Y-1272355D01*
X10965050Y-1222670D01*
X10882427Y-1188447D01*
X10794715Y-1171000D01*
X10705285Y-1171000D01*
X10617573Y-1188447D01*
X10534950Y-1222670D01*
X10460592Y-1272355D01*
X10397355Y-1335592D01*
X10347670Y-1409950D01*
X10313447Y-1492573D01*
X10296000Y-1580285D01*
X9247338Y-1580285D01*
X9239408Y-1572355D01*
X9165050Y-1522670D01*
X9082427Y-1488447D01*
X8994715Y-1471000D01*
X8905285Y-1471000D01*
X8817573Y-1488447D01*
X8734950Y-1522670D01*
X8660592Y-1572355D01*
X8597355Y-1635592D01*
X8547670Y-1709950D01*
X8513447Y-1792573D01*
X8496000Y-1880285D01*
X5852000Y-1880285D01*
X5852000Y646704D01*
X5859702Y665298D01*
X5878296Y673000D01*
X7348000Y673000D01*
X7372776Y675440D01*
X7396601Y682667D01*
X7613404Y772470D01*
X7635361Y784206D01*
X7654606Y800000D01*
X7750000Y895394D01*
X7765794Y914640D01*
X7777530Y936596D01*
X7867333Y1153399D01*
X7874560Y1177223D01*
X7877000Y1202000D01*
X7877000Y2820000D01*
X11949772Y2820000D01*
X11949772Y1720000D01*
X11954676Y1670207D01*
X11969200Y1622328D01*
X11992786Y1578203D01*
X12024527Y1539527D01*
X12063203Y1507786D01*
X12107328Y1484200D01*
X12155207Y1469676D01*
X12205000Y1464772D01*
X13305000Y1464772D01*
X13354793Y1469676D01*
X13402672Y1484200D01*
X13446797Y1507786D01*
X13485473Y1539527D01*
X13517214Y1578203D01*
X13540800Y1622328D01*
X13555324Y1670207D01*
X13560228Y1720000D01*
X13560228Y2820000D01*
X13555324Y2869793D01*
X13540800Y2917672D01*
X13517214Y2961797D01*
X13485473Y3000473D01*
X13446797Y3032214D01*
X13402672Y3055800D01*
X13354793Y3070324D01*
X13305000Y3075228D01*
X12205000Y3075228D01*
X12155207Y3070324D01*
X12107328Y3055800D01*
X12063203Y3032214D01*
X12024527Y3000473D01*
X11992786Y2961797D01*
X11969200Y2917672D01*
X11954676Y2869793D01*
X11949772Y2820000D01*
X7877000Y2820000D01*
X7877000Y4244715D01*
X11096000Y4244715D01*
X11096000Y4155285D01*
X11113447Y4067573D01*
X11147670Y3984950D01*
X11197355Y3910592D01*
X11260592Y3847355D01*
X11334950Y3797670D01*
X11417573Y3763447D01*
X11505285Y3746000D01*
X11594715Y3746000D01*
X11682427Y3763447D01*
X11765050Y3797670D01*
X11839408Y3847355D01*
X11902645Y3910592D01*
X11952330Y3984950D01*
X11986553Y4067573D01*
X12004000Y4155285D01*
X12004000Y4244715D01*
X11986553Y4332427D01*
X11952330Y4415050D01*
X11902645Y4489408D01*
X11839408Y4552645D01*
X11765050Y4602330D01*
X11682427Y4636553D01*
X11594715Y4654000D01*
X11505285Y4654000D01*
X11417573Y4636553D01*
X11334950Y4602330D01*
X11260592Y4552645D01*
X11197355Y4489408D01*
X11147670Y4415050D01*
X11113447Y4332427D01*
X11096000Y4244715D01*
X7877000Y4244715D01*
X7877000Y4966000D01*
X15349477Y4966000D01*
X15242480Y4894507D01*
G37*
X15242480Y4894507D02*
X15130493Y4782520D01*
X15042505Y4650837D01*
X14981897Y4504518D01*
X14951000Y4349187D01*
X14951000Y4190813D01*
X14981897Y4035482D01*
X15042505Y3889163D01*
X15130493Y3757480D01*
X15242480Y3645493D01*
X15374163Y3557505D01*
X15520482Y3496897D01*
X15675813Y3466000D01*
X15834187Y3466000D01*
X15989518Y3496897D01*
X16135837Y3557505D01*
X16267520Y3645493D01*
X16379507Y3757480D01*
X16467495Y3889163D01*
X16528103Y4035482D01*
X16559000Y4190813D01*
X16559000Y4349187D01*
X16528103Y4504518D01*
X16467495Y4650837D01*
X16379507Y4782520D01*
X16267520Y4894507D01*
X16160523Y4966000D01*
X16698000Y4966000D01*
X16698000Y3074000D01*
X16675813Y3074000D01*
X16520482Y3043103D01*
X16374163Y2982495D01*
X16242480Y2894507D01*
X16130493Y2782520D01*
X16042505Y2650837D01*
X15981897Y2504518D01*
X15951000Y2349187D01*
X15951000Y2190813D01*
X15981897Y2035482D01*
X16042505Y1889163D01*
X16130493Y1757480D01*
X16242480Y1645493D01*
X16374163Y1557505D01*
X16520482Y1496897D01*
X16675813Y1466000D01*
X16698000Y1466000D01*
X16698000Y574000D01*
X16675813Y574000D01*
X16520482Y543103D01*
X16374163Y482495D01*
X16242480Y394507D01*
X16130493Y282520D01*
X16042505Y150837D01*
X15981897Y4518D01*
X15951000Y-150813D01*
X15951000Y-309187D01*
X15981897Y-464518D01*
X16042505Y-610837D01*
X16130493Y-742520D01*
X16242480Y-854507D01*
X16374163Y-942495D01*
X16520482Y-1003103D01*
X16559525Y-1010869D01*
X16077184Y-1493210D01*
X15989518Y-1456897D01*
X15834187Y-1426000D01*
X15675813Y-1426000D01*
X15520482Y-1456897D01*
X15374163Y-1517505D01*
X15242480Y-1605493D01*
X15130493Y-1717480D01*
X15042505Y-1849163D01*
X14981897Y-1995482D01*
X14951000Y-2150813D01*
X14951000Y-2309187D01*
X14981897Y-2464518D01*
X15018210Y-2552184D01*
X12867862Y-4702532D01*
X12697737Y-4773000D01*
X10527000Y-4773000D01*
X10502224Y-4775440D01*
X10478399Y-4782667D01*
X10261596Y-4872470D01*
X10239639Y-4884206D01*
X10220394Y-4900000D01*
X9872697Y-5247697D01*
X9856903Y-5266943D01*
X9845167Y-5288899D01*
X9807667Y-5379432D01*
X9800440Y-5403257D01*
X9798000Y-5428033D01*
X9798000Y-6068671D01*
X9752798Y-6177798D01*
X9643671Y-6223000D01*
X7428296Y-6223000D01*
X7409702Y-6215298D01*
X7402000Y-6196704D01*
X7402000Y-3452000D01*
X7399560Y-3427224D01*
X7392333Y-3403399D01*
X7302530Y-3186596D01*
X7290794Y-3164639D01*
X7275000Y-3145394D01*
X6759891Y-2630285D01*
X10371000Y-2630285D01*
X10371000Y-2719715D01*
X10388447Y-2807427D01*
X10422670Y-2890050D01*
X10472355Y-2964408D01*
X10535592Y-3027645D01*
X10609950Y-3077330D01*
X10692573Y-3111553D01*
X10780285Y-3129000D01*
X10869715Y-3129000D01*
X10957427Y-3111553D01*
X11040050Y-3077330D01*
X11114408Y-3027645D01*
X11177645Y-2964408D01*
X11227330Y-2890050D01*
X11261553Y-2807427D01*
X11279000Y-2719715D01*
X11279000Y-2630285D01*
X11261553Y-2542573D01*
X11227330Y-2459950D01*
X11177645Y-2385592D01*
X11114408Y-2322355D01*
X11040050Y-2272670D01*
X10957427Y-2238447D01*
X10869715Y-2221000D01*
X10780285Y-2221000D01*
X10692573Y-2238447D01*
X10609950Y-2272670D01*
X10535592Y-2322355D01*
X10472355Y-2385592D01*
X10422670Y-2459950D01*
X10388447Y-2542573D01*
X10371000Y-2630285D01*
X6759891Y-2630285D01*
X6604606Y-2475000D01*
X6585360Y-2459206D01*
X6563404Y-2447470D01*
X6346601Y-2357667D01*
X6322777Y-2350440D01*
X6298000Y-2348000D01*
X5963651Y-2348000D01*
X5884702Y-2315298D01*
X5852000Y-2236349D01*
X5852000Y-1880285D01*
X8496000Y-1880285D01*
X8496000Y-1969715D01*
X8513447Y-2057427D01*
X8547670Y-2140050D01*
X8597355Y-2214408D01*
X8660592Y-2277645D01*
X8734950Y-2327330D01*
X8817573Y-2361553D01*
X8905285Y-2379000D01*
X8994715Y-2379000D01*
X9082427Y-2361553D01*
X9165050Y-2327330D01*
X9239408Y-2277645D01*
X9302645Y-2214408D01*
X9352330Y-2140050D01*
X9386553Y-2057427D01*
X9404000Y-1969715D01*
X9404000Y-1880285D01*
X9386553Y-1792573D01*
X9352330Y-1709950D01*
X9302645Y-1635592D01*
X9247338Y-1580285D01*
X10296000Y-1580285D01*
X10296000Y-1669715D01*
X10313447Y-1757427D01*
X10347670Y-1840050D01*
X10397355Y-1914408D01*
X10460592Y-1977645D01*
X10534950Y-2027330D01*
X10617573Y-2061553D01*
X10705285Y-2079000D01*
X10794715Y-2079000D01*
X10882427Y-2061553D01*
X10965050Y-2027330D01*
X11039408Y-1977645D01*
X11102645Y-1914408D01*
X11152330Y-1840050D01*
X11186553Y-1757427D01*
X11204000Y-1669715D01*
X11204000Y-1580285D01*
X11186553Y-1492573D01*
X11152330Y-1409950D01*
X11102645Y-1335592D01*
X11039408Y-1272355D01*
X10965050Y-1222670D01*
X10882427Y-1188447D01*
X10794715Y-1171000D01*
X10705285Y-1171000D01*
X10617573Y-1188447D01*
X10534950Y-1222670D01*
X10460592Y-1272355D01*
X10397355Y-1335592D01*
X10347670Y-1409950D01*
X10313447Y-1492573D01*
X10296000Y-1580285D01*
X9247338Y-1580285D01*
X9239408Y-1572355D01*
X9165050Y-1522670D01*
X9082427Y-1488447D01*
X8994715Y-1471000D01*
X8905285Y-1471000D01*
X8817573Y-1488447D01*
X8734950Y-1522670D01*
X8660592Y-1572355D01*
X8597355Y-1635592D01*
X8547670Y-1709950D01*
X8513447Y-1792573D01*
X8496000Y-1880285D01*
X5852000Y-1880285D01*
X5852000Y646704D01*
X5859702Y665298D01*
X5878296Y673000D01*
X7348000Y673000D01*
X7372776Y675440D01*
X7396601Y682667D01*
X7613404Y772470D01*
X7635361Y784206D01*
X7654606Y800000D01*
X7750000Y895394D01*
X7765794Y914640D01*
X7777530Y936596D01*
X7867333Y1153399D01*
X7874560Y1177223D01*
X7877000Y1202000D01*
X7877000Y2820000D01*
X11949772Y2820000D01*
X11949772Y1720000D01*
X11954676Y1670207D01*
X11969200Y1622328D01*
X11992786Y1578203D01*
X12024527Y1539527D01*
X12063203Y1507786D01*
X12107328Y1484200D01*
X12155207Y1469676D01*
X12205000Y1464772D01*
X13305000Y1464772D01*
X13354793Y1469676D01*
X13402672Y1484200D01*
X13446797Y1507786D01*
X13485473Y1539527D01*
X13517214Y1578203D01*
X13540800Y1622328D01*
X13555324Y1670207D01*
X13560228Y1720000D01*
X13560228Y2820000D01*
X13555324Y2869793D01*
X13540800Y2917672D01*
X13517214Y2961797D01*
X13485473Y3000473D01*
X13446797Y3032214D01*
X13402672Y3055800D01*
X13354793Y3070324D01*
X13305000Y3075228D01*
X12205000Y3075228D01*
X12155207Y3070324D01*
X12107328Y3055800D01*
X12063203Y3032214D01*
X12024527Y3000473D01*
X11992786Y2961797D01*
X11969200Y2917672D01*
X11954676Y2869793D01*
X11949772Y2820000D01*
X7877000Y2820000D01*
X7877000Y4244715D01*
X11096000Y4244715D01*
X11096000Y4155285D01*
X11113447Y4067573D01*
X11147670Y3984950D01*
X11197355Y3910592D01*
X11260592Y3847355D01*
X11334950Y3797670D01*
X11417573Y3763447D01*
X11505285Y3746000D01*
X11594715Y3746000D01*
X11682427Y3763447D01*
X11765050Y3797670D01*
X11839408Y3847355D01*
X11902645Y3910592D01*
X11952330Y3984950D01*
X11986553Y4067573D01*
X12004000Y4155285D01*
X12004000Y4244715D01*
X11986553Y4332427D01*
X11952330Y4415050D01*
X11902645Y4489408D01*
X11839408Y4552645D01*
X11765050Y4602330D01*
X11682427Y4636553D01*
X11594715Y4654000D01*
X11505285Y4654000D01*
X11417573Y4636553D01*
X11334950Y4602330D01*
X11260592Y4552645D01*
X11197355Y4489408D01*
X11147670Y4415050D01*
X11113447Y4332427D01*
X11096000Y4244715D01*
X7877000Y4244715D01*
X7877000Y4966000D01*
X15349477Y4966000D01*
X15242480Y4894507D01*
G36*
X6042862Y-3222468D02*
G01*
X6127532Y-3307138D01*
X6198000Y-3477263D01*
X6198000Y-5047737D01*
X6127532Y-5217862D01*
X5825000Y-5520394D01*
X5809206Y-5539640D01*
X5797470Y-5561596D01*
X5707667Y-5778399D01*
X5700440Y-5802223D01*
X5698000Y-5827000D01*
X5698000Y-6454026D01*
X5677798Y-6502798D01*
X5629026Y-6523000D01*
X763651Y-6523000D01*
X684702Y-6490298D01*
X652000Y-6411349D01*
X652000Y-5002263D01*
X722468Y-4832138D01*
X1132138Y-4422468D01*
X1302263Y-4352000D01*
X2123000Y-4352000D01*
X2147776Y-4349560D01*
X2171601Y-4342333D01*
X2388404Y-4252530D01*
X2410361Y-4240794D01*
X2429606Y-4225000D01*
X3432138Y-3222468D01*
X3602263Y-3152000D01*
X5872737Y-3152000D01*
X6042862Y-3222468D01*
G37*
X6042862Y-3222468D02*
X6127532Y-3307138D01*
X6198000Y-3477263D01*
X6198000Y-5047737D01*
X6127532Y-5217862D01*
X5825000Y-5520394D01*
X5809206Y-5539640D01*
X5797470Y-5561596D01*
X5707667Y-5778399D01*
X5700440Y-5802223D01*
X5698000Y-5827000D01*
X5698000Y-6454026D01*
X5677798Y-6502798D01*
X5629026Y-6523000D01*
X763651Y-6523000D01*
X684702Y-6490298D01*
X652000Y-6411349D01*
X652000Y-5002263D01*
X722468Y-4832138D01*
X1132138Y-4422468D01*
X1302263Y-4352000D01*
X2123000Y-4352000D01*
X2147776Y-4349560D01*
X2171601Y-4342333D01*
X2388404Y-4252530D01*
X2410361Y-4240794D01*
X2429606Y-4225000D01*
X3432138Y-3222468D01*
X3602263Y-3152000D01*
X5872737Y-3152000D01*
X6042862Y-3222468D01*
G36*
X11467862Y-8397468D02*
G01*
X11552532Y-8482138D01*
X11623000Y-8652263D01*
X11623000Y-9247737D01*
X11552532Y-9417862D01*
X11517862Y-9452532D01*
X11347737Y-9523000D01*
X9052263Y-9523000D01*
X8882138Y-9452532D01*
X8604606Y-9175000D01*
X8585360Y-9159206D01*
X8563404Y-9147470D01*
X8346601Y-9057667D01*
X8322777Y-9050440D01*
X8298000Y-9048000D01*
X8179770Y-9048000D01*
X8169715Y-9046000D01*
X8080285Y-9046000D01*
X8070230Y-9048000D01*
X7977263Y-9048000D01*
X7807138Y-8977532D01*
X7772468Y-8942862D01*
X7702000Y-8772737D01*
X7702000Y-8670974D01*
X7722202Y-8622202D01*
X7770974Y-8602000D01*
X9498000Y-8602000D01*
X9522776Y-8599560D01*
X9546601Y-8592333D01*
X9763404Y-8502530D01*
X9785361Y-8490794D01*
X9804606Y-8475000D01*
X9901230Y-8378376D01*
X10025263Y-8327000D01*
X11297737Y-8327000D01*
X11467862Y-8397468D01*
G37*
X11467862Y-8397468D02*
X11552532Y-8482138D01*
X11623000Y-8652263D01*
X11623000Y-9247737D01*
X11552532Y-9417862D01*
X11517862Y-9452532D01*
X11347737Y-9523000D01*
X9052263Y-9523000D01*
X8882138Y-9452532D01*
X8604606Y-9175000D01*
X8585360Y-9159206D01*
X8563404Y-9147470D01*
X8346601Y-9057667D01*
X8322777Y-9050440D01*
X8298000Y-9048000D01*
X8179770Y-9048000D01*
X8169715Y-9046000D01*
X8080285Y-9046000D01*
X8070230Y-9048000D01*
X7977263Y-9048000D01*
X7807138Y-8977532D01*
X7772468Y-8942862D01*
X7702000Y-8772737D01*
X7702000Y-8670974D01*
X7722202Y-8622202D01*
X7770974Y-8602000D01*
X9498000Y-8602000D01*
X9522776Y-8599560D01*
X9546601Y-8592333D01*
X9763404Y-8502530D01*
X9785361Y-8490794D01*
X9804606Y-8475000D01*
X9901230Y-8378376D01*
X10025263Y-8327000D01*
X11297737Y-8327000D01*
X11467862Y-8397468D01*
G36*
X4667862Y-15997468D02*
G01*
X5777532Y-17107138D01*
X5848000Y-17277263D01*
X5848000Y-25948000D01*
X1019000Y-25948000D01*
X1019000Y-16562618D01*
X1017476Y-16547142D01*
X1017519Y-16540934D01*
X1017037Y-16536015D01*
X996636Y-16341918D01*
X990179Y-16310462D01*
X984172Y-16278974D01*
X982744Y-16274242D01*
X925032Y-16087804D01*
X912580Y-16058181D01*
X900579Y-16028478D01*
X898259Y-16024113D01*
X845750Y-15927000D01*
X4497737Y-15927000D01*
X4667862Y-15997468D01*
G37*
X4667862Y-15997468D02*
X5777532Y-17107138D01*
X5848000Y-17277263D01*
X5848000Y-25948000D01*
X1019000Y-25948000D01*
X1019000Y-16562618D01*
X1017476Y-16547142D01*
X1017519Y-16540934D01*
X1017037Y-16536015D01*
X996636Y-16341918D01*
X990179Y-16310462D01*
X984172Y-16278974D01*
X982744Y-16274242D01*
X925032Y-16087804D01*
X912580Y-16058181D01*
X900579Y-16028478D01*
X898259Y-16024113D01*
X845750Y-15927000D01*
X4497737Y-15927000D01*
X4667862Y-15997468D01*
G36*
X11740298Y-20409702D02*
G01*
X11746001Y-20423470D01*
X11746000Y-22627565D01*
X11677532Y-22792862D01*
X11575000Y-22895394D01*
X11559206Y-22914640D01*
X11547470Y-22936596D01*
X11457667Y-23153399D01*
X11450440Y-23177223D01*
X11448000Y-23202000D01*
X11448000Y-25948000D01*
X11152000Y-25948000D01*
X11152000Y-21093091D01*
X11190050Y-21077330D01*
X11264408Y-21027645D01*
X11327645Y-20964408D01*
X11377330Y-20890050D01*
X11411553Y-20807427D01*
X11429000Y-20719715D01*
X11429000Y-20630285D01*
X11411553Y-20542573D01*
X11397049Y-20507557D01*
X11432138Y-20472468D01*
X11602263Y-20402000D01*
X11721704Y-20402000D01*
X11740298Y-20409702D01*
G37*
X11740298Y-20409702D02*
X11746001Y-20423470D01*
X11746000Y-22627565D01*
X11677532Y-22792862D01*
X11575000Y-22895394D01*
X11559206Y-22914640D01*
X11547470Y-22936596D01*
X11457667Y-23153399D01*
X11450440Y-23177223D01*
X11448000Y-23202000D01*
X11448000Y-25948000D01*
X11152000Y-25948000D01*
X11152000Y-21093091D01*
X11190050Y-21077330D01*
X11264408Y-21027645D01*
X11327645Y-20964408D01*
X11377330Y-20890050D01*
X11411553Y-20807427D01*
X11429000Y-20719715D01*
X11429000Y-20630285D01*
X11411553Y-20542573D01*
X11397049Y-20507557D01*
X11432138Y-20472468D01*
X11602263Y-20402000D01*
X11721704Y-20402000D01*
X11740298Y-20409702D01*
M02*
