G04 #@! TF.GenerationSoftware,KiCad,Pcbnew,(5.1.5)-3*
G04 #@! TF.CreationDate,2022-01-27T06:12:11+01:00*
G04 #@! TF.ProjectId,Riser Tioga Pass 1OU 1xPCIe x16,52697365-7220-4546-996f-676120506173,rev?*
G04 #@! TF.SameCoordinates,PX40f1fa0PY623a7c0*
G04 #@! TF.FileFunction,Legend,Top*
G04 #@! TF.FilePolarity,Positive*
%FSLAX46Y46*%
G04 Gerber Fmt 4.6, Leading zero omitted, Abs format (unit mm)*
G04 Created by KiCad (PCBNEW (5.1.5)-3) date 2022-01-27 06:12:11*
%MOMM*%
%LPD*%
G04 APERTURE LIST*
%ADD10C,0.120000*%
%ADD11C,0.200000*%
%ADD12C,0.150000*%
%ADD13C,0.075000*%
%ADD14C,0.125000*%
G04 APERTURE END LIST*
D10*
X103700000Y-12800000D02*
X103700000Y-12400000D01*
X103100000Y-13000000D02*
X102500000Y-13000000D01*
X97300000Y-13000000D02*
X97900000Y-13000000D01*
X97300000Y-12200000D02*
X97300000Y-13000000D01*
X97300000Y-10100000D02*
X97900000Y-10100000D01*
X97300000Y-10700000D02*
X97300000Y-10100000D01*
X103700000Y-13000000D02*
X103100000Y-13000000D01*
X103700000Y-12800000D02*
X103700000Y-13000000D01*
X97300000Y-10700000D02*
X97300000Y-12200000D01*
X-12400000Y-8800000D02*
X-13000000Y-8800000D01*
X-12400000Y-8600000D02*
X-12400000Y-8800000D01*
X-17800000Y-8900000D02*
X-17600000Y-8900000D01*
X-17800000Y-7400000D02*
X-17800000Y-8900000D01*
X-17600000Y-7400000D02*
X-17800000Y-7400000D01*
D11*
X103150000Y4121429D02*
X104007142Y4121429D01*
X103578571Y2621429D02*
X103578571Y4121429D01*
X104507142Y2621429D02*
X104507142Y4121429D01*
X105078571Y4121429D01*
X105221428Y4050000D01*
X105292857Y3978572D01*
X105364285Y3835715D01*
X105364285Y3621429D01*
X105292857Y3478572D01*
X105221428Y3407143D01*
X105078571Y3335715D01*
X104507142Y3335715D01*
X107935714Y2621429D02*
X107078571Y2621429D01*
X107507142Y2621429D02*
X107507142Y4121429D01*
X107364285Y3907143D01*
X107221428Y3764286D01*
X107078571Y3692858D01*
X108864285Y4121429D02*
X109150000Y4121429D01*
X109292857Y4050000D01*
X109435714Y3907143D01*
X109507142Y3621429D01*
X109507142Y3121429D01*
X109435714Y2835715D01*
X109292857Y2692858D01*
X109150000Y2621429D01*
X108864285Y2621429D01*
X108721428Y2692858D01*
X108578571Y2835715D01*
X108507142Y3121429D01*
X108507142Y3621429D01*
X108578571Y3907143D01*
X108721428Y4050000D01*
X108864285Y4121429D01*
X110150000Y4121429D02*
X110150000Y2907143D01*
X110221428Y2764286D01*
X110292857Y2692858D01*
X110435714Y2621429D01*
X110721428Y2621429D01*
X110864285Y2692858D01*
X110935714Y2764286D01*
X111007142Y2907143D01*
X111007142Y4121429D01*
X112864285Y2621429D02*
X112864285Y3621429D01*
X112864285Y3335715D02*
X112935714Y3478572D01*
X113007142Y3550000D01*
X113150000Y3621429D01*
X113292857Y3621429D01*
X114364285Y2692858D02*
X114221428Y2621429D01*
X113935714Y2621429D01*
X113792857Y2692858D01*
X113721428Y2835715D01*
X113721428Y3407143D01*
X113792857Y3550000D01*
X113935714Y3621429D01*
X114221428Y3621429D01*
X114364285Y3550000D01*
X114435714Y3407143D01*
X114435714Y3264286D01*
X113721428Y3121429D01*
X114935714Y3621429D02*
X115292857Y2621429D01*
X115650000Y3621429D01*
X117292857Y3050000D02*
X118007142Y3050000D01*
X117150000Y2621429D02*
X117650000Y4121429D01*
X118150000Y2621429D01*
D10*
X-4590000Y-12955000D02*
X-4590000Y-13195000D01*
X-3710000Y-13195000D02*
X-3710000Y-12955000D01*
X-2635000Y-11670000D02*
X-2635000Y-11430000D01*
X-3515000Y-11430000D02*
X-3515000Y-11670000D01*
X19550000Y-17230000D02*
X19050000Y-17230000D01*
X19050000Y-18170000D02*
X19550000Y-18170000D01*
X23100000Y-3580000D02*
X22600000Y-3580000D01*
X22600000Y-4520000D02*
X23100000Y-4520000D01*
X18650000Y-7370000D02*
X19150000Y-7370000D01*
X19150000Y-6430000D02*
X18650000Y-6430000D01*
X18650000Y-6170000D02*
X19150000Y-6170000D01*
X19150000Y-5230000D02*
X18650000Y-5230000D01*
X9720000Y-11200000D02*
X9720000Y-10700000D01*
X8780000Y-10700000D02*
X8780000Y-11200000D01*
X19150000Y-4030000D02*
X18650000Y-4030000D01*
X18650000Y-4970000D02*
X19150000Y-4970000D01*
X-10350000Y-7070000D02*
X-9850000Y-7070000D01*
X-9850000Y-6130000D02*
X-10350000Y-6130000D01*
X-4170000Y-4800000D02*
X-4170000Y-5300000D01*
X-3230000Y-5300000D02*
X-3230000Y-4800000D01*
X13525000Y-10640000D02*
X12125000Y-10640000D01*
X12125000Y-12960000D02*
X14025000Y-12960000D01*
X12740000Y-14070000D02*
X14200000Y-14070000D01*
X12740000Y-17230000D02*
X14900000Y-17230000D01*
X12740000Y-17230000D02*
X12740000Y-16300000D01*
X12740000Y-14070000D02*
X12740000Y-15000000D01*
D12*
X9905000Y4770000D02*
X98905000Y4770000D01*
X98905000Y-2730000D02*
X98905000Y4770000D01*
X9905000Y-2730000D02*
X98905000Y-2730000D01*
X9905000Y4770000D02*
X9905000Y-2730000D01*
D10*
X-8875000Y-8770000D02*
X-8375000Y-8770000D01*
X-8375000Y-7830000D02*
X-8875000Y-7830000D01*
D12*
X9250000Y3875000D02*
X9250000Y-425000D01*
X8250000Y-1425000D02*
X4950000Y-1425000D01*
X3950000Y3875000D02*
X3950000Y-425000D01*
X3950000Y3875000D02*
X9250000Y3875000D01*
X4950000Y-1425000D02*
X3950000Y-425000D01*
X9250000Y-425000D02*
X8250000Y-1425000D01*
X15350000Y-3525000D02*
X16350000Y-4525000D01*
X16350000Y-7825000D02*
X15350000Y-8825000D01*
X11050000Y-8825000D02*
X11050000Y-3525000D01*
X11050000Y-8825000D02*
X15350000Y-8825000D01*
X16350000Y-4525000D02*
X16350000Y-7825000D01*
X11050000Y-3525000D02*
X15350000Y-3525000D01*
D10*
X23550000Y-4775000D02*
X22550000Y-4775000D01*
X22550000Y-6475000D02*
X23550000Y-6475000D01*
X18600000Y-9450000D02*
X19600000Y-9450000D01*
X19600000Y-7750000D02*
X18600000Y-7750000D01*
X6200000Y-6900000D02*
X6900000Y-6900000D01*
X6900000Y-8100000D02*
X6200000Y-8100000D01*
X9850000Y-7900000D02*
X9850000Y-8600000D01*
X8650000Y-8600000D02*
X8650000Y-7900000D01*
X7550000Y-5220000D02*
X5550000Y-5220000D01*
X5550000Y-3080000D02*
X7550000Y-3080000D01*
D13*
X7459000Y-10687500D02*
X7459000Y-9012500D01*
X7459000Y-10687500D02*
X6041000Y-10687500D01*
X6041000Y-10687500D02*
X6041000Y-9012500D01*
X7459000Y-9012500D02*
X6041000Y-9012500D01*
X7650000Y-10450000D02*
X7650000Y-10800000D01*
X7650000Y-10800000D02*
X7650000Y-10850000D01*
X7650000Y-10850000D02*
X7200000Y-10850000D01*
D12*
X-14550000Y-9200000D02*
X-14550000Y-9325000D01*
X-9900000Y-9200000D02*
X-9900000Y-9425000D01*
X-9900000Y-14450000D02*
X-9900000Y-14225000D01*
X-14550000Y-14450000D02*
X-14550000Y-14225000D01*
X-14550000Y-9200000D02*
X-9900000Y-9200000D01*
X-14550000Y-14450000D02*
X-9900000Y-14450000D01*
X-14550000Y-9325000D02*
X-15900000Y-9325000D01*
X-4600000Y1875000D02*
X-4600000Y-4100000D01*
X-10125000Y300000D02*
X-10125000Y-4100000D01*
X-16575000Y300000D02*
X-16575000Y-4100000D01*
X-11050000Y1875000D02*
X-11050000Y-4100000D01*
D13*
X17900000Y-17350000D02*
X17900000Y-15950000D01*
X17900000Y-15950000D02*
X16900000Y-15950000D01*
X16900000Y-15950000D02*
X16900000Y-17350000D01*
X17900000Y-17350000D02*
X16900000Y-17350000D01*
X18050000Y-17150000D02*
X18050000Y-17500000D01*
X18050000Y-17500000D02*
X17700000Y-17500000D01*
D10*
X-15255000Y-6110000D02*
X-15495000Y-6110000D01*
X-15495000Y-6990000D02*
X-15255000Y-6990000D01*
X82430000Y-20490000D02*
X82670000Y-20490000D01*
X82670000Y-19610000D02*
X82430000Y-19610000D01*
X10615000Y-20120000D02*
X10615000Y-19880000D01*
X9735000Y-19880000D02*
X9735000Y-20120000D01*
X18830000Y-16190000D02*
X19070000Y-16190000D01*
X19070000Y-15310000D02*
X18830000Y-15310000D01*
X15365000Y-9895000D02*
X15365000Y-9655000D01*
X14485000Y-9655000D02*
X14485000Y-9895000D01*
X16470000Y-14535000D02*
X16230000Y-14535000D01*
X16230000Y-15415000D02*
X16470000Y-15415000D01*
X12780000Y-18490000D02*
X13020000Y-18490000D01*
X13020000Y-17610000D02*
X12780000Y-17610000D01*
X16715000Y-17995000D02*
X16715000Y-17755000D01*
X15835000Y-17755000D02*
X15835000Y-17995000D01*
X-17365000Y-13265000D02*
X-17365000Y-13505000D01*
X-16485000Y-13505000D02*
X-16485000Y-13265000D01*
X26190000Y-4370000D02*
X26190000Y-4130000D01*
X25310000Y-4130000D02*
X25310000Y-4370000D01*
X-11165000Y-8030000D02*
X-11165000Y-8270000D01*
X-10285000Y-8270000D02*
X-10285000Y-8030000D01*
X1915000Y-11570000D02*
X1915000Y-11330000D01*
X1035000Y-11330000D02*
X1035000Y-11570000D01*
X16965000Y-13295000D02*
X16965000Y-13055000D01*
X16085000Y-13055000D02*
X16085000Y-13295000D01*
X19145000Y-13760000D02*
X18905000Y-13760000D01*
X18905000Y-14640000D02*
X19145000Y-14640000D01*
X18905000Y-13540000D02*
X19145000Y-13540000D01*
X19145000Y-12660000D02*
X18905000Y-12660000D01*
X9085000Y-13655000D02*
X9085000Y-13895000D01*
X9965000Y-13895000D02*
X9965000Y-13655000D01*
X5805000Y-6365000D02*
X6045000Y-6365000D01*
X6045000Y-5485000D02*
X5805000Y-5485000D01*
X23215000Y-8070000D02*
X23215000Y-7830000D01*
X22335000Y-7830000D02*
X22335000Y-8070000D01*
X7055000Y-6365000D02*
X7295000Y-6365000D01*
X7295000Y-5485000D02*
X7055000Y-5485000D01*
X-1810000Y-5335000D02*
X-1810000Y-5095000D01*
X-2690000Y-5095000D02*
X-2690000Y-5335000D01*
X-3515000Y-12955000D02*
X-3515000Y-13195000D01*
X-2635000Y-13195000D02*
X-2635000Y-12955000D01*
X-14440000Y-8030000D02*
X-14440000Y-8270000D01*
X-13560000Y-8270000D02*
X-13560000Y-8030000D01*
X-15515000Y-8030000D02*
X-15515000Y-8270000D01*
X-14635000Y-8270000D02*
X-14635000Y-8030000D01*
X-3710000Y-11670000D02*
X-3710000Y-11430000D01*
X-4590000Y-11430000D02*
X-4590000Y-11670000D01*
X-3780000Y-7960000D02*
X-4020000Y-7960000D01*
X-4020000Y-8840000D02*
X-3780000Y-8840000D01*
X-5420000Y-8840000D02*
X-5180000Y-8840000D01*
X-5180000Y-7960000D02*
X-5420000Y-7960000D01*
X-17640000Y-8030000D02*
X-17640000Y-8270000D01*
X-16760000Y-8270000D02*
X-16760000Y-8030000D01*
X-16590000Y-8030000D02*
X-16590000Y-8270000D01*
X-15710000Y-8270000D02*
X-15710000Y-8030000D01*
X5580000Y-12115000D02*
X5820000Y-12115000D01*
X5820000Y-11235000D02*
X5580000Y-11235000D01*
X5745000Y-12635000D02*
X5505000Y-12635000D01*
X5505000Y-13515000D02*
X5745000Y-13515000D01*
X2980000Y-10315000D02*
X3220000Y-10315000D01*
X3220000Y-9435000D02*
X2980000Y-9435000D01*
X-5380000Y-5885000D02*
X-5620000Y-5885000D01*
X-5620000Y-6765000D02*
X-5380000Y-6765000D01*
X-735000Y-5345000D02*
X-735000Y-5105000D01*
X-1615000Y-5105000D02*
X-1615000Y-5345000D01*
X-12435000Y-8270000D02*
X-12435000Y-8030000D01*
X-13315000Y-8030000D02*
X-13315000Y-8270000D01*
D12*
X-1347620Y-14642857D02*
X-1823810Y-14976190D01*
X-1347620Y-15214285D02*
X-2347620Y-15214285D01*
X-2347620Y-14833333D01*
X-2300000Y-14738095D01*
X-2252381Y-14690476D01*
X-2157143Y-14642857D01*
X-2014286Y-14642857D01*
X-1919048Y-14690476D01*
X-1871429Y-14738095D01*
X-1823810Y-14833333D01*
X-1823810Y-15214285D01*
X-2014286Y-13785714D02*
X-1347620Y-13785714D01*
X-2395239Y-14023809D02*
X-1680953Y-14261904D01*
X-1680953Y-13642857D01*
X-2014286Y-12833333D02*
X-1347620Y-12833333D01*
X-2395239Y-13071428D02*
X-1680953Y-13309523D01*
X-1680953Y-12690476D01*
X-147620Y-11842857D02*
X-623810Y-12176190D01*
X-147620Y-12414285D02*
X-1147620Y-12414285D01*
X-1147620Y-12033333D01*
X-1100000Y-11938095D01*
X-1052381Y-11890476D01*
X-957143Y-11842857D01*
X-814286Y-11842857D01*
X-719048Y-11890476D01*
X-671429Y-11938095D01*
X-623810Y-12033333D01*
X-623810Y-12414285D01*
X-814286Y-10985714D02*
X-147620Y-10985714D01*
X-1195239Y-11223809D02*
X-480953Y-11461904D01*
X-480953Y-10842857D01*
X-1147620Y-10557142D02*
X-1147620Y-9890476D01*
X-147620Y-10319047D01*
X19533333Y-19257142D02*
X19485714Y-19304761D01*
X19342857Y-19352380D01*
X19247619Y-19352380D01*
X19104761Y-19304761D01*
X19009523Y-19209523D01*
X18961904Y-19114285D01*
X18914285Y-18923809D01*
X18914285Y-18780952D01*
X18961904Y-18590476D01*
X19009523Y-18495238D01*
X19104761Y-18400000D01*
X19247619Y-18352380D01*
X19342857Y-18352380D01*
X19485714Y-18400000D01*
X19533333Y-18447619D01*
X19866666Y-18352380D02*
X20485714Y-18352380D01*
X20152380Y-18733333D01*
X20295238Y-18733333D01*
X20390476Y-18780952D01*
X20438095Y-18828571D01*
X20485714Y-18923809D01*
X20485714Y-19161904D01*
X20438095Y-19257142D01*
X20390476Y-19304761D01*
X20295238Y-19352380D01*
X20009523Y-19352380D01*
X19914285Y-19304761D01*
X19866666Y-19257142D01*
X25957142Y-6557142D02*
X25909523Y-6604761D01*
X25766666Y-6652380D01*
X25671428Y-6652380D01*
X25528571Y-6604761D01*
X25433333Y-6509523D01*
X25385714Y-6414285D01*
X25338095Y-6223809D01*
X25338095Y-6080952D01*
X25385714Y-5890476D01*
X25433333Y-5795238D01*
X25528571Y-5700000D01*
X25671428Y-5652380D01*
X25766666Y-5652380D01*
X25909523Y-5700000D01*
X25957142Y-5747619D01*
X26909523Y-6652380D02*
X26338095Y-6652380D01*
X26623809Y-6652380D02*
X26623809Y-5652380D01*
X26528571Y-5795238D01*
X26433333Y-5890476D01*
X26338095Y-5938095D01*
X27861904Y-6652380D02*
X27290476Y-6652380D01*
X27576190Y-6652380D02*
X27576190Y-5652380D01*
X27480952Y-5795238D01*
X27385714Y-5890476D01*
X27290476Y-5938095D01*
X23457142Y-11657142D02*
X23409523Y-11704761D01*
X23266666Y-11752380D01*
X23171428Y-11752380D01*
X23028571Y-11704761D01*
X22933333Y-11609523D01*
X22885714Y-11514285D01*
X22838095Y-11323809D01*
X22838095Y-11180952D01*
X22885714Y-10990476D01*
X22933333Y-10895238D01*
X23028571Y-10800000D01*
X23171428Y-10752380D01*
X23266666Y-10752380D01*
X23409523Y-10800000D01*
X23457142Y-10847619D01*
X24409523Y-11752380D02*
X23838095Y-11752380D01*
X24123809Y-11752380D02*
X24123809Y-10752380D01*
X24028571Y-10895238D01*
X23933333Y-10990476D01*
X23838095Y-11038095D01*
X25266666Y-11085714D02*
X25266666Y-11752380D01*
X25028571Y-10704761D02*
X24790476Y-11419047D01*
X25409523Y-11419047D01*
X23457142Y-10457142D02*
X23409523Y-10504761D01*
X23266666Y-10552380D01*
X23171428Y-10552380D01*
X23028571Y-10504761D01*
X22933333Y-10409523D01*
X22885714Y-10314285D01*
X22838095Y-10123809D01*
X22838095Y-9980952D01*
X22885714Y-9790476D01*
X22933333Y-9695238D01*
X23028571Y-9600000D01*
X23171428Y-9552380D01*
X23266666Y-9552380D01*
X23409523Y-9600000D01*
X23457142Y-9647619D01*
X24409523Y-10552380D02*
X23838095Y-10552380D01*
X24123809Y-10552380D02*
X24123809Y-9552380D01*
X24028571Y-9695238D01*
X23933333Y-9790476D01*
X23838095Y-9838095D01*
X25266666Y-9552380D02*
X25076190Y-9552380D01*
X24980952Y-9600000D01*
X24933333Y-9647619D01*
X24838095Y-9790476D01*
X24790476Y-9980952D01*
X24790476Y-10361904D01*
X24838095Y-10457142D01*
X24885714Y-10504761D01*
X24980952Y-10552380D01*
X25171428Y-10552380D01*
X25266666Y-10504761D01*
X25314285Y-10457142D01*
X25361904Y-10361904D01*
X25361904Y-10123809D01*
X25314285Y-10028571D01*
X25266666Y-9980952D01*
X25171428Y-9933333D01*
X24980952Y-9933333D01*
X24885714Y-9980952D01*
X24838095Y-10028571D01*
X24790476Y-10123809D01*
X8857142Y-17242857D02*
X8904761Y-17290476D01*
X8952380Y-17433333D01*
X8952380Y-17528571D01*
X8904761Y-17671428D01*
X8809523Y-17766666D01*
X8714285Y-17814285D01*
X8523809Y-17861904D01*
X8380952Y-17861904D01*
X8190476Y-17814285D01*
X8095238Y-17766666D01*
X8000000Y-17671428D01*
X7952380Y-17528571D01*
X7952380Y-17433333D01*
X8000000Y-17290476D01*
X8047619Y-17242857D01*
X8952380Y-16290476D02*
X8952380Y-16861904D01*
X8952380Y-16576190D02*
X7952380Y-16576190D01*
X8095238Y-16671428D01*
X8190476Y-16766666D01*
X8238095Y-16861904D01*
X7952380Y-15957142D02*
X7952380Y-15290476D01*
X8952380Y-15719047D01*
X18857142Y-3857142D02*
X18809523Y-3904761D01*
X18666666Y-3952380D01*
X18571428Y-3952380D01*
X18428571Y-3904761D01*
X18333333Y-3809523D01*
X18285714Y-3714285D01*
X18238095Y-3523809D01*
X18238095Y-3380952D01*
X18285714Y-3190476D01*
X18333333Y-3095238D01*
X18428571Y-3000000D01*
X18571428Y-2952380D01*
X18666666Y-2952380D01*
X18809523Y-3000000D01*
X18857142Y-3047619D01*
X19809523Y-3952380D02*
X19238095Y-3952380D01*
X19523809Y-3952380D02*
X19523809Y-2952380D01*
X19428571Y-3095238D01*
X19333333Y-3190476D01*
X19238095Y-3238095D01*
X20285714Y-3952380D02*
X20476190Y-3952380D01*
X20571428Y-3904761D01*
X20619047Y-3857142D01*
X20714285Y-3714285D01*
X20761904Y-3523809D01*
X20761904Y-3142857D01*
X20714285Y-3047619D01*
X20666666Y-3000000D01*
X20571428Y-2952380D01*
X20380952Y-2952380D01*
X20285714Y-3000000D01*
X20238095Y-3047619D01*
X20190476Y-3142857D01*
X20190476Y-3380952D01*
X20238095Y-3476190D01*
X20285714Y-3523809D01*
X20380952Y-3571428D01*
X20571428Y-3571428D01*
X20666666Y-3523809D01*
X20714285Y-3476190D01*
X20761904Y-3380952D01*
X-8042858Y-6957142D02*
X-8090477Y-7004761D01*
X-8233334Y-7052380D01*
X-8328572Y-7052380D01*
X-8471429Y-7004761D01*
X-8566667Y-6909523D01*
X-8614286Y-6814285D01*
X-8661905Y-6623809D01*
X-8661905Y-6480952D01*
X-8614286Y-6290476D01*
X-8566667Y-6195238D01*
X-8471429Y-6100000D01*
X-8328572Y-6052380D01*
X-8233334Y-6052380D01*
X-8090477Y-6100000D01*
X-8042858Y-6147619D01*
X-7138096Y-6052380D02*
X-7614286Y-6052380D01*
X-7661905Y-6528571D01*
X-7614286Y-6480952D01*
X-7519048Y-6433333D01*
X-7280953Y-6433333D01*
X-7185715Y-6480952D01*
X-7138096Y-6528571D01*
X-7090477Y-6623809D01*
X-7090477Y-6861904D01*
X-7138096Y-6957142D01*
X-7185715Y-7004761D01*
X-7280953Y-7052380D01*
X-7519048Y-7052380D01*
X-7614286Y-7004761D01*
X-7661905Y-6957142D01*
X-6471429Y-6052380D02*
X-6376191Y-6052380D01*
X-6280953Y-6100000D01*
X-6233334Y-6147619D01*
X-6185715Y-6242857D01*
X-6138096Y-6433333D01*
X-6138096Y-6671428D01*
X-6185715Y-6861904D01*
X-6233334Y-6957142D01*
X-6280953Y-7004761D01*
X-6376191Y-7052380D01*
X-6471429Y-7052380D01*
X-6566667Y-7004761D01*
X-6614286Y-6957142D01*
X-6661905Y-6861904D01*
X-6709524Y-6671428D01*
X-6709524Y-6433333D01*
X-6661905Y-6242857D01*
X-6614286Y-6147619D01*
X-6566667Y-6100000D01*
X-6471429Y-6052380D01*
X-3442858Y-3242857D02*
X-3395239Y-3290476D01*
X-3347620Y-3433333D01*
X-3347620Y-3528571D01*
X-3395239Y-3671428D01*
X-3490477Y-3766666D01*
X-3585715Y-3814285D01*
X-3776191Y-3861904D01*
X-3919048Y-3861904D01*
X-4109524Y-3814285D01*
X-4204762Y-3766666D01*
X-4300000Y-3671428D01*
X-4347620Y-3528571D01*
X-4347620Y-3433333D01*
X-4300000Y-3290476D01*
X-4252381Y-3242857D01*
X-4347620Y-2338095D02*
X-4347620Y-2814285D01*
X-3871429Y-2861904D01*
X-3919048Y-2814285D01*
X-3966667Y-2719047D01*
X-3966667Y-2480952D01*
X-3919048Y-2385714D01*
X-3871429Y-2338095D01*
X-3776191Y-2290476D01*
X-3538096Y-2290476D01*
X-3442858Y-2338095D01*
X-3395239Y-2385714D01*
X-3347620Y-2480952D01*
X-3347620Y-2719047D01*
X-3395239Y-2814285D01*
X-3442858Y-2861904D01*
X-3347620Y-1338095D02*
X-3347620Y-1909523D01*
X-3347620Y-1623809D02*
X-4347620Y-1623809D01*
X-4204762Y-1719047D01*
X-4109524Y-1814285D01*
X-4061905Y-1909523D01*
X11404761Y-10247619D02*
X11309523Y-10200000D01*
X11214285Y-10104761D01*
X11071428Y-9961904D01*
X10976190Y-9914285D01*
X10880952Y-9914285D01*
X10928571Y-10152380D02*
X10833333Y-10104761D01*
X10738095Y-10009523D01*
X10690476Y-9819047D01*
X10690476Y-9485714D01*
X10738095Y-9295238D01*
X10833333Y-9200000D01*
X10928571Y-9152380D01*
X11119047Y-9152380D01*
X11214285Y-9200000D01*
X11309523Y-9295238D01*
X11357142Y-9485714D01*
X11357142Y-9819047D01*
X11309523Y-10009523D01*
X11214285Y-10104761D01*
X11119047Y-10152380D01*
X10928571Y-10152380D01*
X12309523Y-10152380D02*
X11738095Y-10152380D01*
X12023809Y-10152380D02*
X12023809Y-9152380D01*
X11928571Y-9295238D01*
X11833333Y-9390476D01*
X11738095Y-9438095D01*
X10738095Y-16452380D02*
X10738095Y-17261904D01*
X10785714Y-17357142D01*
X10833333Y-17404761D01*
X10928571Y-17452380D01*
X11119047Y-17452380D01*
X11214285Y-17404761D01*
X11261904Y-17357142D01*
X11309523Y-17261904D01*
X11309523Y-16452380D01*
X11738095Y-16547619D02*
X11785714Y-16500000D01*
X11880952Y-16452380D01*
X12119047Y-16452380D01*
X12214285Y-16500000D01*
X12261904Y-16547619D01*
X12309523Y-16642857D01*
X12309523Y-16738095D01*
X12261904Y-16880952D01*
X11690476Y-17452380D01*
X12309523Y-17452380D01*
X2702142Y-21580000D02*
X2606904Y-21532380D01*
X2464047Y-21532380D01*
X2321190Y-21580000D01*
X2225952Y-21675238D01*
X2178333Y-21770476D01*
X2130714Y-21960952D01*
X2130714Y-22103809D01*
X2178333Y-22294285D01*
X2225952Y-22389523D01*
X2321190Y-22484761D01*
X2464047Y-22532380D01*
X2559285Y-22532380D01*
X2702142Y-22484761D01*
X2749761Y-22437142D01*
X2749761Y-22103809D01*
X2559285Y-22103809D01*
X3511666Y-22008571D02*
X3178333Y-22008571D01*
X3178333Y-22532380D02*
X3178333Y-21532380D01*
X3654523Y-21532380D01*
X4559285Y-22532380D02*
X3987857Y-22532380D01*
X4273571Y-22532380D02*
X4273571Y-21532380D01*
X4178333Y-21675238D01*
X4083095Y-21770476D01*
X3987857Y-21818095D01*
X95082142Y-20925000D02*
X94986904Y-20877380D01*
X94844047Y-20877380D01*
X94701190Y-20925000D01*
X94605952Y-21020238D01*
X94558333Y-21115476D01*
X94510714Y-21305952D01*
X94510714Y-21448809D01*
X94558333Y-21639285D01*
X94605952Y-21734523D01*
X94701190Y-21829761D01*
X94844047Y-21877380D01*
X94939285Y-21877380D01*
X95082142Y-21829761D01*
X95129761Y-21782142D01*
X95129761Y-21448809D01*
X94939285Y-21448809D01*
X95891666Y-21353571D02*
X95558333Y-21353571D01*
X95558333Y-21877380D02*
X95558333Y-20877380D01*
X96034523Y-20877380D01*
X96367857Y-20972619D02*
X96415476Y-20925000D01*
X96510714Y-20877380D01*
X96748809Y-20877380D01*
X96844047Y-20925000D01*
X96891666Y-20972619D01*
X96939285Y-21067857D01*
X96939285Y-21163095D01*
X96891666Y-21305952D01*
X96320238Y-21877380D01*
X96939285Y-21877380D01*
D14*
X92596428Y-10446428D02*
X92346428Y-10446428D01*
X92346428Y-10839285D02*
X92346428Y-10089285D01*
X92703571Y-10089285D01*
X92989285Y-10839285D02*
X92989285Y-10089285D01*
X93346428Y-10839285D02*
X93346428Y-10089285D01*
X93525000Y-10089285D01*
X93632142Y-10125000D01*
X93703571Y-10196428D01*
X93739285Y-10267857D01*
X93775000Y-10410714D01*
X93775000Y-10517857D01*
X93739285Y-10660714D01*
X93703571Y-10732142D01*
X93632142Y-10803571D01*
X93525000Y-10839285D01*
X93346428Y-10839285D01*
X94489285Y-10839285D02*
X94060714Y-10839285D01*
X94275000Y-10839285D02*
X94275000Y-10089285D01*
X94203571Y-10196428D01*
X94132142Y-10267857D01*
X94060714Y-10303571D01*
X117096428Y-946428D02*
X116846428Y-946428D01*
X116846428Y-1339285D02*
X116846428Y-589285D01*
X117203571Y-589285D01*
X117489285Y-1339285D02*
X117489285Y-589285D01*
X117846428Y-1339285D02*
X117846428Y-589285D01*
X118025000Y-589285D01*
X118132142Y-625000D01*
X118203571Y-696428D01*
X118239285Y-767857D01*
X118275000Y-910714D01*
X118275000Y-1017857D01*
X118239285Y-1160714D01*
X118203571Y-1232142D01*
X118132142Y-1303571D01*
X118025000Y-1339285D01*
X117846428Y-1339285D01*
X118560714Y-660714D02*
X118596428Y-625000D01*
X118667857Y-589285D01*
X118846428Y-589285D01*
X118917857Y-625000D01*
X118953571Y-660714D01*
X118989285Y-732142D01*
X118989285Y-803571D01*
X118953571Y-910714D01*
X118525000Y-1339285D01*
X118989285Y-1339285D01*
X-15703572Y4253572D02*
X-15953572Y4253572D01*
X-15953572Y3860715D02*
X-15953572Y4610715D01*
X-15596429Y4610715D01*
X-15310715Y3860715D02*
X-15310715Y4610715D01*
X-14953572Y3860715D02*
X-14953572Y4610715D01*
X-14775000Y4610715D01*
X-14667858Y4575000D01*
X-14596429Y4503572D01*
X-14560715Y4432143D01*
X-14525000Y4289286D01*
X-14525000Y4182143D01*
X-14560715Y4039286D01*
X-14596429Y3967858D01*
X-14667858Y3896429D01*
X-14775000Y3860715D01*
X-14953572Y3860715D01*
X-14275000Y4610715D02*
X-13810715Y4610715D01*
X-14060715Y4325000D01*
X-13953572Y4325000D01*
X-13882143Y4289286D01*
X-13846429Y4253572D01*
X-13810715Y4182143D01*
X-13810715Y4003572D01*
X-13846429Y3932143D01*
X-13882143Y3896429D01*
X-13953572Y3860715D01*
X-14167858Y3860715D01*
X-14239286Y3896429D01*
X-14275000Y3932143D01*
D12*
X99328571Y-2504761D02*
X99471428Y-2552380D01*
X99709523Y-2552380D01*
X99804761Y-2504761D01*
X99852380Y-2457142D01*
X99900000Y-2361904D01*
X99900000Y-2266666D01*
X99852380Y-2171428D01*
X99804761Y-2123809D01*
X99709523Y-2076190D01*
X99519047Y-2028571D01*
X99423809Y-1980952D01*
X99376190Y-1933333D01*
X99328571Y-1838095D01*
X99328571Y-1742857D01*
X99376190Y-1647619D01*
X99423809Y-1600000D01*
X99519047Y-1552380D01*
X99757142Y-1552380D01*
X99900000Y-1600000D01*
X100804761Y-2552380D02*
X100328571Y-2552380D01*
X100328571Y-1552380D01*
X101328571Y-1552380D02*
X101519047Y-1552380D01*
X101614285Y-1600000D01*
X101709523Y-1695238D01*
X101757142Y-1885714D01*
X101757142Y-2219047D01*
X101709523Y-2409523D01*
X101614285Y-2504761D01*
X101519047Y-2552380D01*
X101328571Y-2552380D01*
X101233333Y-2504761D01*
X101138095Y-2409523D01*
X101090476Y-2219047D01*
X101090476Y-1885714D01*
X101138095Y-1695238D01*
X101233333Y-1600000D01*
X101328571Y-1552380D01*
X102042857Y-1552380D02*
X102614285Y-1552380D01*
X102328571Y-2552380D02*
X102328571Y-1552380D01*
X103471428Y-2552380D02*
X102900000Y-2552380D01*
X103185714Y-2552380D02*
X103185714Y-1552380D01*
X103090476Y-1695238D01*
X102995238Y-1790476D01*
X102900000Y-1838095D01*
X-6966667Y-8157142D02*
X-7014286Y-8204761D01*
X-7157143Y-8252380D01*
X-7252381Y-8252380D01*
X-7395239Y-8204761D01*
X-7490477Y-8109523D01*
X-7538096Y-8014285D01*
X-7585715Y-7823809D01*
X-7585715Y-7680952D01*
X-7538096Y-7490476D01*
X-7490477Y-7395238D01*
X-7395239Y-7300000D01*
X-7252381Y-7252380D01*
X-7157143Y-7252380D01*
X-7014286Y-7300000D01*
X-6966667Y-7347619D01*
X-6585715Y-7347619D02*
X-6538096Y-7300000D01*
X-6442858Y-7252380D01*
X-6204762Y-7252380D01*
X-6109524Y-7300000D01*
X-6061905Y-7347619D01*
X-6014286Y-7442857D01*
X-6014286Y-7538095D01*
X-6061905Y-7680952D01*
X-6633334Y-8252380D01*
X-6014286Y-8252380D01*
X4133333Y-2657142D02*
X4085714Y-2704761D01*
X3942857Y-2752380D01*
X3847619Y-2752380D01*
X3704761Y-2704761D01*
X3609523Y-2609523D01*
X3561904Y-2514285D01*
X3514285Y-2323809D01*
X3514285Y-2180952D01*
X3561904Y-1990476D01*
X3609523Y-1895238D01*
X3704761Y-1800000D01*
X3847619Y-1752380D01*
X3942857Y-1752380D01*
X4085714Y-1800000D01*
X4133333Y-1847619D01*
X5038095Y-1752380D02*
X4561904Y-1752380D01*
X4514285Y-2228571D01*
X4561904Y-2180952D01*
X4657142Y-2133333D01*
X4895238Y-2133333D01*
X4990476Y-2180952D01*
X5038095Y-2228571D01*
X5085714Y-2323809D01*
X5085714Y-2561904D01*
X5038095Y-2657142D01*
X4990476Y-2704761D01*
X4895238Y-2752380D01*
X4657142Y-2752380D01*
X4561904Y-2704761D01*
X4514285Y-2657142D01*
X17507142Y-4066666D02*
X17554761Y-4114285D01*
X17602380Y-4257142D01*
X17602380Y-4352380D01*
X17554761Y-4495238D01*
X17459523Y-4590476D01*
X17364285Y-4638095D01*
X17173809Y-4685714D01*
X17030952Y-4685714D01*
X16840476Y-4638095D01*
X16745238Y-4590476D01*
X16650000Y-4495238D01*
X16602380Y-4352380D01*
X16602380Y-4257142D01*
X16650000Y-4114285D01*
X16697619Y-4066666D01*
X16602380Y-3733333D02*
X16602380Y-3066666D01*
X17602380Y-3495238D01*
X25933333Y-7757142D02*
X25885714Y-7804761D01*
X25742857Y-7852380D01*
X25647619Y-7852380D01*
X25504761Y-7804761D01*
X25409523Y-7709523D01*
X25361904Y-7614285D01*
X25314285Y-7423809D01*
X25314285Y-7280952D01*
X25361904Y-7090476D01*
X25409523Y-6995238D01*
X25504761Y-6900000D01*
X25647619Y-6852380D01*
X25742857Y-6852380D01*
X25885714Y-6900000D01*
X25933333Y-6947619D01*
X26504761Y-7280952D02*
X26409523Y-7233333D01*
X26361904Y-7185714D01*
X26314285Y-7090476D01*
X26314285Y-7042857D01*
X26361904Y-6947619D01*
X26409523Y-6900000D01*
X26504761Y-6852380D01*
X26695238Y-6852380D01*
X26790476Y-6900000D01*
X26838095Y-6947619D01*
X26885714Y-7042857D01*
X26885714Y-7090476D01*
X26838095Y-7185714D01*
X26790476Y-7233333D01*
X26695238Y-7280952D01*
X26504761Y-7280952D01*
X26409523Y-7328571D01*
X26361904Y-7376190D01*
X26314285Y-7471428D01*
X26314285Y-7661904D01*
X26361904Y-7757142D01*
X26409523Y-7804761D01*
X26504761Y-7852380D01*
X26695238Y-7852380D01*
X26790476Y-7804761D01*
X26838095Y-7757142D01*
X26885714Y-7661904D01*
X26885714Y-7471428D01*
X26838095Y-7376190D01*
X26790476Y-7328571D01*
X26695238Y-7280952D01*
X23457142Y-12857142D02*
X23409523Y-12904761D01*
X23266666Y-12952380D01*
X23171428Y-12952380D01*
X23028571Y-12904761D01*
X22933333Y-12809523D01*
X22885714Y-12714285D01*
X22838095Y-12523809D01*
X22838095Y-12380952D01*
X22885714Y-12190476D01*
X22933333Y-12095238D01*
X23028571Y-12000000D01*
X23171428Y-11952380D01*
X23266666Y-11952380D01*
X23409523Y-12000000D01*
X23457142Y-12047619D01*
X24409523Y-12952380D02*
X23838095Y-12952380D01*
X24123809Y-12952380D02*
X24123809Y-11952380D01*
X24028571Y-12095238D01*
X23933333Y-12190476D01*
X23838095Y-12238095D01*
X25028571Y-11952380D02*
X25123809Y-11952380D01*
X25219047Y-12000000D01*
X25266666Y-12047619D01*
X25314285Y-12142857D01*
X25361904Y-12333333D01*
X25361904Y-12571428D01*
X25314285Y-12761904D01*
X25266666Y-12857142D01*
X25219047Y-12904761D01*
X25123809Y-12952380D01*
X25028571Y-12952380D01*
X24933333Y-12904761D01*
X24885714Y-12857142D01*
X24838095Y-12761904D01*
X24790476Y-12571428D01*
X24790476Y-12333333D01*
X24838095Y-12142857D01*
X24885714Y-12047619D01*
X24933333Y-12000000D01*
X25028571Y-11952380D01*
X3057142Y-7857142D02*
X3009523Y-7904761D01*
X2866666Y-7952380D01*
X2771428Y-7952380D01*
X2628571Y-7904761D01*
X2533333Y-7809523D01*
X2485714Y-7714285D01*
X2438095Y-7523809D01*
X2438095Y-7380952D01*
X2485714Y-7190476D01*
X2533333Y-7095238D01*
X2628571Y-7000000D01*
X2771428Y-6952380D01*
X2866666Y-6952380D01*
X3009523Y-7000000D01*
X3057142Y-7047619D01*
X4009523Y-7952380D02*
X3438095Y-7952380D01*
X3723809Y-7952380D02*
X3723809Y-6952380D01*
X3628571Y-7095238D01*
X3533333Y-7190476D01*
X3438095Y-7238095D01*
X4390476Y-7047619D02*
X4438095Y-7000000D01*
X4533333Y-6952380D01*
X4771428Y-6952380D01*
X4866666Y-7000000D01*
X4914285Y-7047619D01*
X4961904Y-7142857D01*
X4961904Y-7238095D01*
X4914285Y-7380952D01*
X4342857Y-7952380D01*
X4961904Y-7952380D01*
X8757142Y-14342857D02*
X8804761Y-14390476D01*
X8852380Y-14533333D01*
X8852380Y-14628571D01*
X8804761Y-14771428D01*
X8709523Y-14866666D01*
X8614285Y-14914285D01*
X8423809Y-14961904D01*
X8280952Y-14961904D01*
X8090476Y-14914285D01*
X7995238Y-14866666D01*
X7900000Y-14771428D01*
X7852380Y-14628571D01*
X7852380Y-14533333D01*
X7900000Y-14390476D01*
X7947619Y-14342857D01*
X7947619Y-13961904D02*
X7900000Y-13914285D01*
X7852380Y-13819047D01*
X7852380Y-13580952D01*
X7900000Y-13485714D01*
X7947619Y-13438095D01*
X8042857Y-13390476D01*
X8138095Y-13390476D01*
X8280952Y-13438095D01*
X8852380Y-14009523D01*
X8852380Y-13390476D01*
X7852380Y-12771428D02*
X7852380Y-12676190D01*
X7900000Y-12580952D01*
X7947619Y-12533333D01*
X8042857Y-12485714D01*
X8233333Y-12438095D01*
X8471428Y-12438095D01*
X8661904Y-12485714D01*
X8757142Y-12533333D01*
X8804761Y-12580952D01*
X8852380Y-12676190D01*
X8852380Y-12771428D01*
X8804761Y-12866666D01*
X8757142Y-12914285D01*
X8661904Y-12961904D01*
X8471428Y-13009523D01*
X8233333Y-13009523D01*
X8042857Y-12961904D01*
X7947619Y-12914285D01*
X7900000Y-12866666D01*
X7852380Y-12771428D01*
X-461905Y3697620D02*
X-461905Y4697620D01*
X-461905Y4221429D02*
X109523Y4221429D01*
X109523Y3697620D02*
X109523Y4697620D01*
X1109523Y3697620D02*
X538095Y3697620D01*
X823809Y3697620D02*
X823809Y4697620D01*
X728571Y4554762D01*
X633333Y4459524D01*
X538095Y4411905D01*
X123843095Y3677620D02*
X123843095Y4677620D01*
X123843095Y4201429D02*
X124414523Y4201429D01*
X124414523Y3677620D02*
X124414523Y4677620D01*
X124843095Y4582381D02*
X124890714Y4630000D01*
X124985952Y4677620D01*
X125224047Y4677620D01*
X125319285Y4630000D01*
X125366904Y4582381D01*
X125414523Y4487143D01*
X125414523Y4391905D01*
X125366904Y4249048D01*
X124795476Y3677620D01*
X125414523Y3677620D01*
X6457142Y-2852380D02*
X6123809Y-2376190D01*
X5885714Y-2852380D02*
X5885714Y-1852380D01*
X6266666Y-1852380D01*
X6361904Y-1900000D01*
X6409523Y-1947619D01*
X6457142Y-2042857D01*
X6457142Y-2185714D01*
X6409523Y-2280952D01*
X6361904Y-2328571D01*
X6266666Y-2376190D01*
X5885714Y-2376190D01*
X6790476Y-1852380D02*
X7409523Y-1852380D01*
X7076190Y-2233333D01*
X7219047Y-2233333D01*
X7314285Y-2280952D01*
X7361904Y-2328571D01*
X7409523Y-2423809D01*
X7409523Y-2661904D01*
X7361904Y-2757142D01*
X7314285Y-2804761D01*
X7219047Y-2852380D01*
X6933333Y-2852380D01*
X6838095Y-2804761D01*
X6790476Y-2757142D01*
X7742857Y-1852380D02*
X8409523Y-1852380D01*
X7980952Y-2852380D01*
X6538095Y-11052380D02*
X6538095Y-11861904D01*
X6585714Y-11957142D01*
X6633333Y-12004761D01*
X6728571Y-12052380D01*
X6919047Y-12052380D01*
X7014285Y-12004761D01*
X7061904Y-11957142D01*
X7109523Y-11861904D01*
X7109523Y-11052380D01*
X7490476Y-11052380D02*
X8109523Y-11052380D01*
X7776190Y-11433333D01*
X7919047Y-11433333D01*
X8014285Y-11480952D01*
X8061904Y-11528571D01*
X8109523Y-11623809D01*
X8109523Y-11861904D01*
X8061904Y-11957142D01*
X8014285Y-12004761D01*
X7919047Y-12052380D01*
X7633333Y-12052380D01*
X7538095Y-12004761D01*
X7490476Y-11957142D01*
X-8061905Y-13952380D02*
X-8061905Y-14761904D01*
X-8014286Y-14857142D01*
X-7966667Y-14904761D01*
X-7871429Y-14952380D01*
X-7680953Y-14952380D01*
X-7585715Y-14904761D01*
X-7538096Y-14857142D01*
X-7490477Y-14761904D01*
X-7490477Y-13952380D01*
X-6538096Y-13952380D02*
X-7014286Y-13952380D01*
X-7061905Y-14428571D01*
X-7014286Y-14380952D01*
X-6919048Y-14333333D01*
X-6680953Y-14333333D01*
X-6585715Y-14380952D01*
X-6538096Y-14428571D01*
X-6490477Y-14523809D01*
X-6490477Y-14761904D01*
X-6538096Y-14857142D01*
X-6585715Y-14904761D01*
X-6680953Y-14952380D01*
X-6919048Y-14952380D01*
X-7014286Y-14904761D01*
X-7061905Y-14857142D01*
X-6361905Y3247620D02*
X-6361905Y2438096D01*
X-6314286Y2342858D01*
X-6266667Y2295239D01*
X-6171429Y2247620D01*
X-5980953Y2247620D01*
X-5885715Y2295239D01*
X-5838096Y2342858D01*
X-5790477Y2438096D01*
X-5790477Y3247620D01*
X-5409524Y3247620D02*
X-4742858Y3247620D01*
X-5171429Y2247620D01*
X-17847620Y-1561904D02*
X-17038096Y-1561904D01*
X-16942858Y-1514285D01*
X-16895239Y-1466666D01*
X-16847620Y-1371428D01*
X-16847620Y-1180952D01*
X-16895239Y-1085714D01*
X-16942858Y-1038095D01*
X-17038096Y-990476D01*
X-17847620Y-990476D01*
X-17419048Y-371428D02*
X-17466667Y-466666D01*
X-17514286Y-514285D01*
X-17609524Y-561904D01*
X-17657143Y-561904D01*
X-17752381Y-514285D01*
X-17800000Y-466666D01*
X-17847620Y-371428D01*
X-17847620Y-180952D01*
X-17800000Y-85714D01*
X-17752381Y-38095D01*
X-17657143Y9524D01*
X-17609524Y9524D01*
X-17514286Y-38095D01*
X-17466667Y-85714D01*
X-17419048Y-180952D01*
X-17419048Y-371428D01*
X-17371429Y-466666D01*
X-17323810Y-514285D01*
X-17228572Y-561904D01*
X-17038096Y-561904D01*
X-16942858Y-514285D01*
X-16895239Y-466666D01*
X-16847620Y-371428D01*
X-16847620Y-180952D01*
X-16895239Y-85714D01*
X-16942858Y-38095D01*
X-17038096Y9524D01*
X-17228572Y9524D01*
X-17323810Y-38095D01*
X-17371429Y-85714D01*
X-17419048Y-180952D01*
X17038095Y-18252380D02*
X17038095Y-19061904D01*
X17085714Y-19157142D01*
X17133333Y-19204761D01*
X17228571Y-19252380D01*
X17419047Y-19252380D01*
X17514285Y-19204761D01*
X17561904Y-19157142D01*
X17609523Y-19061904D01*
X17609523Y-18252380D01*
X18609523Y-19252380D02*
X18038095Y-19252380D01*
X18323809Y-19252380D02*
X18323809Y-18252380D01*
X18228571Y-18395238D01*
X18133333Y-18490476D01*
X18038095Y-18538095D01*
X-17266667Y-6952380D02*
X-17600000Y-6476190D01*
X-17838096Y-6952380D02*
X-17838096Y-5952380D01*
X-17457143Y-5952380D01*
X-17361905Y-6000000D01*
X-17314286Y-6047619D01*
X-17266667Y-6142857D01*
X-17266667Y-6285714D01*
X-17314286Y-6380952D01*
X-17361905Y-6428571D01*
X-17457143Y-6476190D01*
X-17838096Y-6476190D01*
X-16885715Y-6047619D02*
X-16838096Y-6000000D01*
X-16742858Y-5952380D01*
X-16504762Y-5952380D01*
X-16409524Y-6000000D01*
X-16361905Y-6047619D01*
X-16314286Y-6142857D01*
X-16314286Y-6238095D01*
X-16361905Y-6380952D01*
X-16933334Y-6952380D01*
X-16314286Y-6952380D01*
X82383333Y-21752380D02*
X82050000Y-21276190D01*
X81811904Y-21752380D02*
X81811904Y-20752380D01*
X82192857Y-20752380D01*
X82288095Y-20800000D01*
X82335714Y-20847619D01*
X82383333Y-20942857D01*
X82383333Y-21085714D01*
X82335714Y-21180952D01*
X82288095Y-21228571D01*
X82192857Y-21276190D01*
X81811904Y-21276190D01*
X82716666Y-20752380D02*
X83335714Y-20752380D01*
X83002380Y-21133333D01*
X83145238Y-21133333D01*
X83240476Y-21180952D01*
X83288095Y-21228571D01*
X83335714Y-21323809D01*
X83335714Y-21561904D01*
X83288095Y-21657142D01*
X83240476Y-21704761D01*
X83145238Y-21752380D01*
X82859523Y-21752380D01*
X82764285Y-21704761D01*
X82716666Y-21657142D01*
X11877380Y-20166666D02*
X11401190Y-20500000D01*
X11877380Y-20738095D02*
X10877380Y-20738095D01*
X10877380Y-20357142D01*
X10925000Y-20261904D01*
X10972619Y-20214285D01*
X11067857Y-20166666D01*
X11210714Y-20166666D01*
X11305952Y-20214285D01*
X11353571Y-20261904D01*
X11401190Y-20357142D01*
X11401190Y-20738095D01*
X11210714Y-19309523D02*
X11877380Y-19309523D01*
X10829761Y-19547619D02*
X11544047Y-19785714D01*
X11544047Y-19166666D01*
X20333333Y-16252380D02*
X20000000Y-15776190D01*
X19761904Y-16252380D02*
X19761904Y-15252380D01*
X20142857Y-15252380D01*
X20238095Y-15300000D01*
X20285714Y-15347619D01*
X20333333Y-15442857D01*
X20333333Y-15585714D01*
X20285714Y-15680952D01*
X20238095Y-15728571D01*
X20142857Y-15776190D01*
X19761904Y-15776190D01*
X21238095Y-15252380D02*
X20761904Y-15252380D01*
X20714285Y-15728571D01*
X20761904Y-15680952D01*
X20857142Y-15633333D01*
X21095238Y-15633333D01*
X21190476Y-15680952D01*
X21238095Y-15728571D01*
X21285714Y-15823809D01*
X21285714Y-16061904D01*
X21238095Y-16157142D01*
X21190476Y-16204761D01*
X21095238Y-16252380D01*
X20857142Y-16252380D01*
X20761904Y-16204761D01*
X20714285Y-16157142D01*
X15952380Y-11566666D02*
X15476190Y-11900000D01*
X15952380Y-12138095D02*
X14952380Y-12138095D01*
X14952380Y-11757142D01*
X15000000Y-11661904D01*
X15047619Y-11614285D01*
X15142857Y-11566666D01*
X15285714Y-11566666D01*
X15380952Y-11614285D01*
X15428571Y-11661904D01*
X15476190Y-11757142D01*
X15476190Y-12138095D01*
X15380952Y-10995238D02*
X15333333Y-11090476D01*
X15285714Y-11138095D01*
X15190476Y-11185714D01*
X15142857Y-11185714D01*
X15047619Y-11138095D01*
X15000000Y-11090476D01*
X14952380Y-10995238D01*
X14952380Y-10804761D01*
X15000000Y-10709523D01*
X15047619Y-10661904D01*
X15142857Y-10614285D01*
X15190476Y-10614285D01*
X15285714Y-10661904D01*
X15333333Y-10709523D01*
X15380952Y-10804761D01*
X15380952Y-10995238D01*
X15428571Y-11090476D01*
X15476190Y-11138095D01*
X15571428Y-11185714D01*
X15761904Y-11185714D01*
X15857142Y-11138095D01*
X15904761Y-11090476D01*
X15952380Y-10995238D01*
X15952380Y-10804761D01*
X15904761Y-10709523D01*
X15857142Y-10661904D01*
X15761904Y-10614285D01*
X15571428Y-10614285D01*
X15476190Y-10661904D01*
X15428571Y-10709523D01*
X15380952Y-10804761D01*
X17533333Y-15452380D02*
X17200000Y-14976190D01*
X16961904Y-15452380D02*
X16961904Y-14452380D01*
X17342857Y-14452380D01*
X17438095Y-14500000D01*
X17485714Y-14547619D01*
X17533333Y-14642857D01*
X17533333Y-14785714D01*
X17485714Y-14880952D01*
X17438095Y-14928571D01*
X17342857Y-14976190D01*
X16961904Y-14976190D01*
X18009523Y-15452380D02*
X18200000Y-15452380D01*
X18295238Y-15404761D01*
X18342857Y-15357142D01*
X18438095Y-15214285D01*
X18485714Y-15023809D01*
X18485714Y-14642857D01*
X18438095Y-14547619D01*
X18390476Y-14500000D01*
X18295238Y-14452380D01*
X18104761Y-14452380D01*
X18009523Y-14500000D01*
X17961904Y-14547619D01*
X17914285Y-14642857D01*
X17914285Y-14880952D01*
X17961904Y-14976190D01*
X18009523Y-15023809D01*
X18104761Y-15071428D01*
X18295238Y-15071428D01*
X18390476Y-15023809D01*
X18438095Y-14976190D01*
X18485714Y-14880952D01*
X12957142Y-19652380D02*
X12623809Y-19176190D01*
X12385714Y-19652380D02*
X12385714Y-18652380D01*
X12766666Y-18652380D01*
X12861904Y-18700000D01*
X12909523Y-18747619D01*
X12957142Y-18842857D01*
X12957142Y-18985714D01*
X12909523Y-19080952D01*
X12861904Y-19128571D01*
X12766666Y-19176190D01*
X12385714Y-19176190D01*
X13909523Y-19652380D02*
X13338095Y-19652380D01*
X13623809Y-19652380D02*
X13623809Y-18652380D01*
X13528571Y-18795238D01*
X13433333Y-18890476D01*
X13338095Y-18938095D01*
X14528571Y-18652380D02*
X14623809Y-18652380D01*
X14719047Y-18700000D01*
X14766666Y-18747619D01*
X14814285Y-18842857D01*
X14861904Y-19033333D01*
X14861904Y-19271428D01*
X14814285Y-19461904D01*
X14766666Y-19557142D01*
X14719047Y-19604761D01*
X14623809Y-19652380D01*
X14528571Y-19652380D01*
X14433333Y-19604761D01*
X14385714Y-19557142D01*
X14338095Y-19461904D01*
X14290476Y-19271428D01*
X14290476Y-19033333D01*
X14338095Y-18842857D01*
X14385714Y-18747619D01*
X14433333Y-18700000D01*
X14528571Y-18652380D01*
X16752380Y-20442857D02*
X16276190Y-20776190D01*
X16752380Y-21014285D02*
X15752380Y-21014285D01*
X15752380Y-20633333D01*
X15800000Y-20538095D01*
X15847619Y-20490476D01*
X15942857Y-20442857D01*
X16085714Y-20442857D01*
X16180952Y-20490476D01*
X16228571Y-20538095D01*
X16276190Y-20633333D01*
X16276190Y-21014285D01*
X16752380Y-19490476D02*
X16752380Y-20061904D01*
X16752380Y-19776190D02*
X15752380Y-19776190D01*
X15895238Y-19871428D01*
X15990476Y-19966666D01*
X16038095Y-20061904D01*
X16752380Y-18538095D02*
X16752380Y-19109523D01*
X16752380Y-18823809D02*
X15752380Y-18823809D01*
X15895238Y-18919047D01*
X15990476Y-19014285D01*
X16038095Y-19109523D01*
X-16847620Y-12042857D02*
X-17323810Y-12376190D01*
X-16847620Y-12614285D02*
X-17847620Y-12614285D01*
X-17847620Y-12233333D01*
X-17800000Y-12138095D01*
X-17752381Y-12090476D01*
X-17657143Y-12042857D01*
X-17514286Y-12042857D01*
X-17419048Y-12090476D01*
X-17371429Y-12138095D01*
X-17323810Y-12233333D01*
X-17323810Y-12614285D01*
X-16847620Y-11090476D02*
X-16847620Y-11661904D01*
X-16847620Y-11376190D02*
X-17847620Y-11376190D01*
X-17704762Y-11471428D01*
X-17609524Y-11566666D01*
X-17561905Y-11661904D01*
X-17514286Y-10233333D02*
X-16847620Y-10233333D01*
X-17895239Y-10471428D02*
X-17180953Y-10709523D01*
X-17180953Y-10090476D01*
X27452380Y-4892857D02*
X26976190Y-5226190D01*
X27452380Y-5464285D02*
X26452380Y-5464285D01*
X26452380Y-5083333D01*
X26500000Y-4988095D01*
X26547619Y-4940476D01*
X26642857Y-4892857D01*
X26785714Y-4892857D01*
X26880952Y-4940476D01*
X26928571Y-4988095D01*
X26976190Y-5083333D01*
X26976190Y-5464285D01*
X27452380Y-3940476D02*
X27452380Y-4511904D01*
X27452380Y-4226190D02*
X26452380Y-4226190D01*
X26595238Y-4321428D01*
X26690476Y-4416666D01*
X26738095Y-4511904D01*
X26880952Y-3369047D02*
X26833333Y-3464285D01*
X26785714Y-3511904D01*
X26690476Y-3559523D01*
X26642857Y-3559523D01*
X26547619Y-3511904D01*
X26500000Y-3464285D01*
X26452380Y-3369047D01*
X26452380Y-3178571D01*
X26500000Y-3083333D01*
X26547619Y-3035714D01*
X26642857Y-2988095D01*
X26690476Y-2988095D01*
X26785714Y-3035714D01*
X26833333Y-3083333D01*
X26880952Y-3178571D01*
X26880952Y-3369047D01*
X26928571Y-3464285D01*
X26976190Y-3511904D01*
X27071428Y-3559523D01*
X27261904Y-3559523D01*
X27357142Y-3511904D01*
X27404761Y-3464285D01*
X27452380Y-3369047D01*
X27452380Y-3178571D01*
X27404761Y-3083333D01*
X27357142Y-3035714D01*
X27261904Y-2988095D01*
X27071428Y-2988095D01*
X26976190Y-3035714D01*
X26928571Y-3083333D01*
X26880952Y-3178571D01*
X-11247620Y-8142857D02*
X-11723810Y-8476190D01*
X-11247620Y-8714285D02*
X-12247620Y-8714285D01*
X-12247620Y-8333333D01*
X-12200000Y-8238095D01*
X-12152381Y-8190476D01*
X-12057143Y-8142857D01*
X-11914286Y-8142857D01*
X-11819048Y-8190476D01*
X-11771429Y-8238095D01*
X-11723810Y-8333333D01*
X-11723810Y-8714285D01*
X-12152381Y-7761904D02*
X-12200000Y-7714285D01*
X-12247620Y-7619047D01*
X-12247620Y-7380952D01*
X-12200000Y-7285714D01*
X-12152381Y-7238095D01*
X-12057143Y-7190476D01*
X-11961905Y-7190476D01*
X-11819048Y-7238095D01*
X-11247620Y-7809523D01*
X-11247620Y-7190476D01*
X-12247620Y-6571428D02*
X-12247620Y-6476190D01*
X-12200000Y-6380952D01*
X-12152381Y-6333333D01*
X-12057143Y-6285714D01*
X-11866667Y-6238095D01*
X-11628572Y-6238095D01*
X-11438096Y-6285714D01*
X-11342858Y-6333333D01*
X-11295239Y-6380952D01*
X-11247620Y-6476190D01*
X-11247620Y-6571428D01*
X-11295239Y-6666666D01*
X-11342858Y-6714285D01*
X-11438096Y-6761904D01*
X-11628572Y-6809523D01*
X-11866667Y-6809523D01*
X-12057143Y-6761904D01*
X-12152381Y-6714285D01*
X-12200000Y-6666666D01*
X-12247620Y-6571428D01*
X1952380Y-14542857D02*
X1476190Y-14876190D01*
X1952380Y-15114285D02*
X952380Y-15114285D01*
X952380Y-14733333D01*
X1000000Y-14638095D01*
X1047619Y-14590476D01*
X1142857Y-14542857D01*
X1285714Y-14542857D01*
X1380952Y-14590476D01*
X1428571Y-14638095D01*
X1476190Y-14733333D01*
X1476190Y-15114285D01*
X1047619Y-14161904D02*
X1000000Y-14114285D01*
X952380Y-14019047D01*
X952380Y-13780952D01*
X1000000Y-13685714D01*
X1047619Y-13638095D01*
X1142857Y-13590476D01*
X1238095Y-13590476D01*
X1380952Y-13638095D01*
X1952380Y-14209523D01*
X1952380Y-13590476D01*
X1380952Y-13019047D02*
X1333333Y-13114285D01*
X1285714Y-13161904D01*
X1190476Y-13209523D01*
X1142857Y-13209523D01*
X1047619Y-13161904D01*
X1000000Y-13114285D01*
X952380Y-13019047D01*
X952380Y-12828571D01*
X1000000Y-12733333D01*
X1047619Y-12685714D01*
X1142857Y-12638095D01*
X1190476Y-12638095D01*
X1285714Y-12685714D01*
X1333333Y-12733333D01*
X1380952Y-12828571D01*
X1380952Y-13019047D01*
X1428571Y-13114285D01*
X1476190Y-13161904D01*
X1571428Y-13209523D01*
X1761904Y-13209523D01*
X1857142Y-13161904D01*
X1904761Y-13114285D01*
X1952380Y-13019047D01*
X1952380Y-12828571D01*
X1904761Y-12733333D01*
X1857142Y-12685714D01*
X1761904Y-12638095D01*
X1571428Y-12638095D01*
X1476190Y-12685714D01*
X1428571Y-12733333D01*
X1380952Y-12828571D01*
X17252380Y-11742857D02*
X16776190Y-12076190D01*
X17252380Y-12314285D02*
X16252380Y-12314285D01*
X16252380Y-11933333D01*
X16300000Y-11838095D01*
X16347619Y-11790476D01*
X16442857Y-11742857D01*
X16585714Y-11742857D01*
X16680952Y-11790476D01*
X16728571Y-11838095D01*
X16776190Y-11933333D01*
X16776190Y-12314285D01*
X16252380Y-11409523D02*
X16252380Y-10790476D01*
X16633333Y-11123809D01*
X16633333Y-10980952D01*
X16680952Y-10885714D01*
X16728571Y-10838095D01*
X16823809Y-10790476D01*
X17061904Y-10790476D01*
X17157142Y-10838095D01*
X17204761Y-10885714D01*
X17252380Y-10980952D01*
X17252380Y-11266666D01*
X17204761Y-11361904D01*
X17157142Y-11409523D01*
X16347619Y-10409523D02*
X16300000Y-10361904D01*
X16252380Y-10266666D01*
X16252380Y-10028571D01*
X16300000Y-9933333D01*
X16347619Y-9885714D01*
X16442857Y-9838095D01*
X16538095Y-9838095D01*
X16680952Y-9885714D01*
X17252380Y-10457142D01*
X17252380Y-9838095D01*
X20857142Y-14652380D02*
X20523809Y-14176190D01*
X20285714Y-14652380D02*
X20285714Y-13652380D01*
X20666666Y-13652380D01*
X20761904Y-13700000D01*
X20809523Y-13747619D01*
X20857142Y-13842857D01*
X20857142Y-13985714D01*
X20809523Y-14080952D01*
X20761904Y-14128571D01*
X20666666Y-14176190D01*
X20285714Y-14176190D01*
X21190476Y-13652380D02*
X21809523Y-13652380D01*
X21476190Y-14033333D01*
X21619047Y-14033333D01*
X21714285Y-14080952D01*
X21761904Y-14128571D01*
X21809523Y-14223809D01*
X21809523Y-14461904D01*
X21761904Y-14557142D01*
X21714285Y-14604761D01*
X21619047Y-14652380D01*
X21333333Y-14652380D01*
X21238095Y-14604761D01*
X21190476Y-14557142D01*
X22142857Y-13652380D02*
X22761904Y-13652380D01*
X22428571Y-14033333D01*
X22571428Y-14033333D01*
X22666666Y-14080952D01*
X22714285Y-14128571D01*
X22761904Y-14223809D01*
X22761904Y-14461904D01*
X22714285Y-14557142D01*
X22666666Y-14604761D01*
X22571428Y-14652380D01*
X22285714Y-14652380D01*
X22190476Y-14604761D01*
X22142857Y-14557142D01*
X20857142Y-13452380D02*
X20523809Y-12976190D01*
X20285714Y-13452380D02*
X20285714Y-12452380D01*
X20666666Y-12452380D01*
X20761904Y-12500000D01*
X20809523Y-12547619D01*
X20857142Y-12642857D01*
X20857142Y-12785714D01*
X20809523Y-12880952D01*
X20761904Y-12928571D01*
X20666666Y-12976190D01*
X20285714Y-12976190D01*
X21190476Y-12452380D02*
X21809523Y-12452380D01*
X21476190Y-12833333D01*
X21619047Y-12833333D01*
X21714285Y-12880952D01*
X21761904Y-12928571D01*
X21809523Y-13023809D01*
X21809523Y-13261904D01*
X21761904Y-13357142D01*
X21714285Y-13404761D01*
X21619047Y-13452380D01*
X21333333Y-13452380D01*
X21238095Y-13404761D01*
X21190476Y-13357142D01*
X22666666Y-12785714D02*
X22666666Y-13452380D01*
X22428571Y-12404761D02*
X22190476Y-13119047D01*
X22809523Y-13119047D01*
X11152380Y-15442857D02*
X10676190Y-15776190D01*
X11152380Y-16014285D02*
X10152380Y-16014285D01*
X10152380Y-15633333D01*
X10200000Y-15538095D01*
X10247619Y-15490476D01*
X10342857Y-15442857D01*
X10485714Y-15442857D01*
X10580952Y-15490476D01*
X10628571Y-15538095D01*
X10676190Y-15633333D01*
X10676190Y-16014285D01*
X10152380Y-15109523D02*
X10152380Y-14490476D01*
X10533333Y-14823809D01*
X10533333Y-14680952D01*
X10580952Y-14585714D01*
X10628571Y-14538095D01*
X10723809Y-14490476D01*
X10961904Y-14490476D01*
X11057142Y-14538095D01*
X11104761Y-14585714D01*
X11152380Y-14680952D01*
X11152380Y-14966666D01*
X11104761Y-15061904D01*
X11057142Y-15109523D01*
X10152380Y-13633333D02*
X10152380Y-13823809D01*
X10200000Y-13919047D01*
X10247619Y-13966666D01*
X10390476Y-14061904D01*
X10580952Y-14109523D01*
X10961904Y-14109523D01*
X11057142Y-14061904D01*
X11104761Y-14014285D01*
X11152380Y-13919047D01*
X11152380Y-13728571D01*
X11104761Y-13633333D01*
X11057142Y-13585714D01*
X10961904Y-13538095D01*
X10723809Y-13538095D01*
X10628571Y-13585714D01*
X10580952Y-13633333D01*
X10533333Y-13728571D01*
X10533333Y-13919047D01*
X10580952Y-14014285D01*
X10628571Y-14061904D01*
X10723809Y-14109523D01*
X3257142Y-6452380D02*
X2923809Y-5976190D01*
X2685714Y-6452380D02*
X2685714Y-5452380D01*
X3066666Y-5452380D01*
X3161904Y-5500000D01*
X3209523Y-5547619D01*
X3257142Y-5642857D01*
X3257142Y-5785714D01*
X3209523Y-5880952D01*
X3161904Y-5928571D01*
X3066666Y-5976190D01*
X2685714Y-5976190D01*
X3590476Y-5452380D02*
X4209523Y-5452380D01*
X3876190Y-5833333D01*
X4019047Y-5833333D01*
X4114285Y-5880952D01*
X4161904Y-5928571D01*
X4209523Y-6023809D01*
X4209523Y-6261904D01*
X4161904Y-6357142D01*
X4114285Y-6404761D01*
X4019047Y-6452380D01*
X3733333Y-6452380D01*
X3638095Y-6404761D01*
X3590476Y-6357142D01*
X4780952Y-5880952D02*
X4685714Y-5833333D01*
X4638095Y-5785714D01*
X4590476Y-5690476D01*
X4590476Y-5642857D01*
X4638095Y-5547619D01*
X4685714Y-5500000D01*
X4780952Y-5452380D01*
X4971428Y-5452380D01*
X5066666Y-5500000D01*
X5114285Y-5547619D01*
X5161904Y-5642857D01*
X5161904Y-5690476D01*
X5114285Y-5785714D01*
X5066666Y-5833333D01*
X4971428Y-5880952D01*
X4780952Y-5880952D01*
X4685714Y-5928571D01*
X4638095Y-5976190D01*
X4590476Y-6071428D01*
X4590476Y-6261904D01*
X4638095Y-6357142D01*
X4685714Y-6404761D01*
X4780952Y-6452380D01*
X4971428Y-6452380D01*
X5066666Y-6404761D01*
X5114285Y-6357142D01*
X5161904Y-6261904D01*
X5161904Y-6071428D01*
X5114285Y-5976190D01*
X5066666Y-5928571D01*
X4971428Y-5880952D01*
X24477380Y-8592857D02*
X24001190Y-8926190D01*
X24477380Y-9164285D02*
X23477380Y-9164285D01*
X23477380Y-8783333D01*
X23525000Y-8688095D01*
X23572619Y-8640476D01*
X23667857Y-8592857D01*
X23810714Y-8592857D01*
X23905952Y-8640476D01*
X23953571Y-8688095D01*
X24001190Y-8783333D01*
X24001190Y-9164285D01*
X23477380Y-8259523D02*
X23477380Y-7640476D01*
X23858333Y-7973809D01*
X23858333Y-7830952D01*
X23905952Y-7735714D01*
X23953571Y-7688095D01*
X24048809Y-7640476D01*
X24286904Y-7640476D01*
X24382142Y-7688095D01*
X24429761Y-7735714D01*
X24477380Y-7830952D01*
X24477380Y-8116666D01*
X24429761Y-8211904D01*
X24382142Y-8259523D01*
X24477380Y-7164285D02*
X24477380Y-6973809D01*
X24429761Y-6878571D01*
X24382142Y-6830952D01*
X24239285Y-6735714D01*
X24048809Y-6688095D01*
X23667857Y-6688095D01*
X23572619Y-6735714D01*
X23525000Y-6783333D01*
X23477380Y-6878571D01*
X23477380Y-7069047D01*
X23525000Y-7164285D01*
X23572619Y-7211904D01*
X23667857Y-7259523D01*
X23905952Y-7259523D01*
X24001190Y-7211904D01*
X24048809Y-7164285D01*
X24096428Y-7069047D01*
X24096428Y-6878571D01*
X24048809Y-6783333D01*
X24001190Y-6735714D01*
X23905952Y-6688095D01*
X8457142Y-6452380D02*
X8123809Y-5976190D01*
X7885714Y-6452380D02*
X7885714Y-5452380D01*
X8266666Y-5452380D01*
X8361904Y-5500000D01*
X8409523Y-5547619D01*
X8457142Y-5642857D01*
X8457142Y-5785714D01*
X8409523Y-5880952D01*
X8361904Y-5928571D01*
X8266666Y-5976190D01*
X7885714Y-5976190D01*
X9314285Y-5785714D02*
X9314285Y-6452380D01*
X9076190Y-5404761D02*
X8838095Y-6119047D01*
X9457142Y-6119047D01*
X10028571Y-5452380D02*
X10123809Y-5452380D01*
X10219047Y-5500000D01*
X10266666Y-5547619D01*
X10314285Y-5642857D01*
X10361904Y-5833333D01*
X10361904Y-6071428D01*
X10314285Y-6261904D01*
X10266666Y-6357142D01*
X10219047Y-6404761D01*
X10123809Y-6452380D01*
X10028571Y-6452380D01*
X9933333Y-6404761D01*
X9885714Y-6357142D01*
X9838095Y-6261904D01*
X9790476Y-6071428D01*
X9790476Y-5833333D01*
X9838095Y-5642857D01*
X9885714Y-5547619D01*
X9933333Y-5500000D01*
X10028571Y-5452380D01*
X952380Y-6142857D02*
X476190Y-6476190D01*
X952380Y-6714285D02*
X-47620Y-6714285D01*
X-47620Y-6333333D01*
X0Y-6238095D01*
X47619Y-6190476D01*
X142857Y-6142857D01*
X285714Y-6142857D01*
X380952Y-6190476D01*
X428571Y-6238095D01*
X476190Y-6333333D01*
X476190Y-6714285D01*
X285714Y-5285714D02*
X952380Y-5285714D01*
X-95239Y-5523809D02*
X619047Y-5761904D01*
X619047Y-5142857D01*
X952380Y-4238095D02*
X952380Y-4809523D01*
X952380Y-4523809D02*
X-47620Y-4523809D01*
X95238Y-4619047D01*
X190476Y-4714285D01*
X238095Y-4809523D01*
X-147620Y-14642857D02*
X-623810Y-14976190D01*
X-147620Y-15214285D02*
X-1147620Y-15214285D01*
X-1147620Y-14833333D01*
X-1100000Y-14738095D01*
X-1052381Y-14690476D01*
X-957143Y-14642857D01*
X-814286Y-14642857D01*
X-719048Y-14690476D01*
X-671429Y-14738095D01*
X-623810Y-14833333D01*
X-623810Y-15214285D01*
X-814286Y-13785714D02*
X-147620Y-13785714D01*
X-1195239Y-14023809D02*
X-480953Y-14261904D01*
X-480953Y-13642857D01*
X-1147620Y-13357142D02*
X-1147620Y-12738095D01*
X-766667Y-13071428D01*
X-766667Y-12928571D01*
X-719048Y-12833333D01*
X-671429Y-12785714D01*
X-576191Y-12738095D01*
X-338096Y-12738095D01*
X-242858Y-12785714D01*
X-195239Y-12833333D01*
X-147620Y-12928571D01*
X-147620Y-13214285D01*
X-195239Y-13309523D01*
X-242858Y-13357142D01*
X102252380Y-12242857D02*
X101776190Y-12576190D01*
X102252380Y-12814285D02*
X101252380Y-12814285D01*
X101252380Y-12433333D01*
X101300000Y-12338095D01*
X101347619Y-12290476D01*
X101442857Y-12242857D01*
X101585714Y-12242857D01*
X101680952Y-12290476D01*
X101728571Y-12338095D01*
X101776190Y-12433333D01*
X101776190Y-12814285D01*
X101585714Y-11385714D02*
X102252380Y-11385714D01*
X101204761Y-11623809D02*
X101919047Y-11861904D01*
X101919047Y-11242857D01*
X101252380Y-10385714D02*
X101252380Y-10861904D01*
X101728571Y-10909523D01*
X101680952Y-10861904D01*
X101633333Y-10766666D01*
X101633333Y-10528571D01*
X101680952Y-10433333D01*
X101728571Y-10385714D01*
X101823809Y-10338095D01*
X102061904Y-10338095D01*
X102157142Y-10385714D01*
X102204761Y-10433333D01*
X102252380Y-10528571D01*
X102252380Y-10766666D01*
X102204761Y-10861904D01*
X102157142Y-10909523D01*
X101052380Y-12242857D02*
X100576190Y-12576190D01*
X101052380Y-12814285D02*
X100052380Y-12814285D01*
X100052380Y-12433333D01*
X100100000Y-12338095D01*
X100147619Y-12290476D01*
X100242857Y-12242857D01*
X100385714Y-12242857D01*
X100480952Y-12290476D01*
X100528571Y-12338095D01*
X100576190Y-12433333D01*
X100576190Y-12814285D01*
X100385714Y-11385714D02*
X101052380Y-11385714D01*
X100004761Y-11623809D02*
X100719047Y-11861904D01*
X100719047Y-11242857D01*
X100052380Y-10433333D02*
X100052380Y-10623809D01*
X100100000Y-10719047D01*
X100147619Y-10766666D01*
X100290476Y-10861904D01*
X100480952Y-10909523D01*
X100861904Y-10909523D01*
X100957142Y-10861904D01*
X101004761Y-10814285D01*
X101052380Y-10719047D01*
X101052380Y-10528571D01*
X101004761Y-10433333D01*
X100957142Y-10385714D01*
X100861904Y-10338095D01*
X100623809Y-10338095D01*
X100528571Y-10385714D01*
X100480952Y-10433333D01*
X100433333Y-10528571D01*
X100433333Y-10719047D01*
X100480952Y-10814285D01*
X100528571Y-10861904D01*
X100623809Y-10909523D01*
X-1347620Y-11842857D02*
X-1823810Y-12176190D01*
X-1347620Y-12414285D02*
X-2347620Y-12414285D01*
X-2347620Y-12033333D01*
X-2300000Y-11938095D01*
X-2252381Y-11890476D01*
X-2157143Y-11842857D01*
X-2014286Y-11842857D01*
X-1919048Y-11890476D01*
X-1871429Y-11938095D01*
X-1823810Y-12033333D01*
X-1823810Y-12414285D01*
X-2014286Y-10985714D02*
X-1347620Y-10985714D01*
X-2395239Y-11223809D02*
X-1680953Y-11461904D01*
X-1680953Y-10842857D01*
X-1919048Y-10319047D02*
X-1966667Y-10414285D01*
X-2014286Y-10461904D01*
X-2109524Y-10509523D01*
X-2157143Y-10509523D01*
X-2252381Y-10461904D01*
X-2300000Y-10414285D01*
X-2347620Y-10319047D01*
X-2347620Y-10128571D01*
X-2300000Y-10033333D01*
X-2252381Y-9985714D01*
X-2157143Y-9938095D01*
X-2109524Y-9938095D01*
X-2014286Y-9985714D01*
X-1966667Y-10033333D01*
X-1919048Y-10128571D01*
X-1919048Y-10319047D01*
X-1871429Y-10414285D01*
X-1823810Y-10461904D01*
X-1728572Y-10509523D01*
X-1538096Y-10509523D01*
X-1442858Y-10461904D01*
X-1395239Y-10414285D01*
X-1347620Y-10319047D01*
X-1347620Y-10128571D01*
X-1395239Y-10033333D01*
X-1442858Y-9985714D01*
X-1538096Y-9938095D01*
X-1728572Y-9938095D01*
X-1823810Y-9985714D01*
X-1871429Y-10033333D01*
X-1919048Y-10128571D01*
X-2542858Y-9752380D02*
X-2876191Y-9276190D01*
X-3114286Y-9752380D02*
X-3114286Y-8752380D01*
X-2733334Y-8752380D01*
X-2638096Y-8800000D01*
X-2590477Y-8847619D01*
X-2542858Y-8942857D01*
X-2542858Y-9085714D01*
X-2590477Y-9180952D01*
X-2638096Y-9228571D01*
X-2733334Y-9276190D01*
X-3114286Y-9276190D01*
X-1638096Y-8752380D02*
X-2114286Y-8752380D01*
X-2161905Y-9228571D01*
X-2114286Y-9180952D01*
X-2019048Y-9133333D01*
X-1780953Y-9133333D01*
X-1685715Y-9180952D01*
X-1638096Y-9228571D01*
X-1590477Y-9323809D01*
X-1590477Y-9561904D01*
X-1638096Y-9657142D01*
X-1685715Y-9704761D01*
X-1780953Y-9752380D01*
X-2019048Y-9752380D01*
X-2114286Y-9704761D01*
X-2161905Y-9657142D01*
X-638096Y-9752380D02*
X-1209524Y-9752380D01*
X-923810Y-9752380D02*
X-923810Y-8752380D01*
X-1019048Y-8895238D01*
X-1114286Y-8990476D01*
X-1209524Y-9038095D01*
X-6342858Y-10052380D02*
X-6676191Y-9576190D01*
X-6914286Y-10052380D02*
X-6914286Y-9052380D01*
X-6533334Y-9052380D01*
X-6438096Y-9100000D01*
X-6390477Y-9147619D01*
X-6342858Y-9242857D01*
X-6342858Y-9385714D01*
X-6390477Y-9480952D01*
X-6438096Y-9528571D01*
X-6533334Y-9576190D01*
X-6914286Y-9576190D01*
X-5438096Y-9052380D02*
X-5914286Y-9052380D01*
X-5961905Y-9528571D01*
X-5914286Y-9480952D01*
X-5819048Y-9433333D01*
X-5580953Y-9433333D01*
X-5485715Y-9480952D01*
X-5438096Y-9528571D01*
X-5390477Y-9623809D01*
X-5390477Y-9861904D01*
X-5438096Y-9957142D01*
X-5485715Y-10004761D01*
X-5580953Y-10052380D01*
X-5819048Y-10052380D01*
X-5914286Y-10004761D01*
X-5961905Y-9957142D01*
X-5009524Y-9147619D02*
X-4961905Y-9100000D01*
X-4866667Y-9052380D01*
X-4628572Y-9052380D01*
X-4533334Y-9100000D01*
X-4485715Y-9147619D01*
X-4438096Y-9242857D01*
X-4438096Y-9338095D01*
X-4485715Y-9480952D01*
X-5057143Y-10052380D01*
X-4438096Y-10052380D01*
X98652380Y-12242857D02*
X98176190Y-12576190D01*
X98652380Y-12814285D02*
X97652380Y-12814285D01*
X97652380Y-12433333D01*
X97700000Y-12338095D01*
X97747619Y-12290476D01*
X97842857Y-12242857D01*
X97985714Y-12242857D01*
X98080952Y-12290476D01*
X98128571Y-12338095D01*
X98176190Y-12433333D01*
X98176190Y-12814285D01*
X97652380Y-11338095D02*
X97652380Y-11814285D01*
X98128571Y-11861904D01*
X98080952Y-11814285D01*
X98033333Y-11719047D01*
X98033333Y-11480952D01*
X98080952Y-11385714D01*
X98128571Y-11338095D01*
X98223809Y-11290476D01*
X98461904Y-11290476D01*
X98557142Y-11338095D01*
X98604761Y-11385714D01*
X98652380Y-11480952D01*
X98652380Y-11719047D01*
X98604761Y-11814285D01*
X98557142Y-11861904D01*
X97652380Y-10957142D02*
X97652380Y-10338095D01*
X98033333Y-10671428D01*
X98033333Y-10528571D01*
X98080952Y-10433333D01*
X98128571Y-10385714D01*
X98223809Y-10338095D01*
X98461904Y-10338095D01*
X98557142Y-10385714D01*
X98604761Y-10433333D01*
X98652380Y-10528571D01*
X98652380Y-10814285D01*
X98604761Y-10909523D01*
X98557142Y-10957142D01*
X99852380Y-12242857D02*
X99376190Y-12576190D01*
X99852380Y-12814285D02*
X98852380Y-12814285D01*
X98852380Y-12433333D01*
X98900000Y-12338095D01*
X98947619Y-12290476D01*
X99042857Y-12242857D01*
X99185714Y-12242857D01*
X99280952Y-12290476D01*
X99328571Y-12338095D01*
X99376190Y-12433333D01*
X99376190Y-12814285D01*
X98852380Y-11338095D02*
X98852380Y-11814285D01*
X99328571Y-11861904D01*
X99280952Y-11814285D01*
X99233333Y-11719047D01*
X99233333Y-11480952D01*
X99280952Y-11385714D01*
X99328571Y-11338095D01*
X99423809Y-11290476D01*
X99661904Y-11290476D01*
X99757142Y-11338095D01*
X99804761Y-11385714D01*
X99852380Y-11480952D01*
X99852380Y-11719047D01*
X99804761Y-11814285D01*
X99757142Y-11861904D01*
X99185714Y-10433333D02*
X99852380Y-10433333D01*
X98804761Y-10671428D02*
X99519047Y-10909523D01*
X99519047Y-10290476D01*
X3057142Y-12452380D02*
X2723809Y-11976190D01*
X2485714Y-12452380D02*
X2485714Y-11452380D01*
X2866666Y-11452380D01*
X2961904Y-11500000D01*
X3009523Y-11547619D01*
X3057142Y-11642857D01*
X3057142Y-11785714D01*
X3009523Y-11880952D01*
X2961904Y-11928571D01*
X2866666Y-11976190D01*
X2485714Y-11976190D01*
X3961904Y-11452380D02*
X3485714Y-11452380D01*
X3438095Y-11928571D01*
X3485714Y-11880952D01*
X3580952Y-11833333D01*
X3819047Y-11833333D01*
X3914285Y-11880952D01*
X3961904Y-11928571D01*
X4009523Y-12023809D01*
X4009523Y-12261904D01*
X3961904Y-12357142D01*
X3914285Y-12404761D01*
X3819047Y-12452380D01*
X3580952Y-12452380D01*
X3485714Y-12404761D01*
X3438095Y-12357142D01*
X4914285Y-11452380D02*
X4438095Y-11452380D01*
X4390476Y-11928571D01*
X4438095Y-11880952D01*
X4533333Y-11833333D01*
X4771428Y-11833333D01*
X4866666Y-11880952D01*
X4914285Y-11928571D01*
X4961904Y-12023809D01*
X4961904Y-12261904D01*
X4914285Y-12357142D01*
X4866666Y-12404761D01*
X4771428Y-12452380D01*
X4533333Y-12452380D01*
X4438095Y-12404761D01*
X4390476Y-12357142D01*
X3057142Y-13652380D02*
X2723809Y-13176190D01*
X2485714Y-13652380D02*
X2485714Y-12652380D01*
X2866666Y-12652380D01*
X2961904Y-12700000D01*
X3009523Y-12747619D01*
X3057142Y-12842857D01*
X3057142Y-12985714D01*
X3009523Y-13080952D01*
X2961904Y-13128571D01*
X2866666Y-13176190D01*
X2485714Y-13176190D01*
X3961904Y-12652380D02*
X3485714Y-12652380D01*
X3438095Y-13128571D01*
X3485714Y-13080952D01*
X3580952Y-13033333D01*
X3819047Y-13033333D01*
X3914285Y-13080952D01*
X3961904Y-13128571D01*
X4009523Y-13223809D01*
X4009523Y-13461904D01*
X3961904Y-13557142D01*
X3914285Y-13604761D01*
X3819047Y-13652380D01*
X3580952Y-13652380D01*
X3485714Y-13604761D01*
X3438095Y-13557142D01*
X4866666Y-12652380D02*
X4676190Y-12652380D01*
X4580952Y-12700000D01*
X4533333Y-12747619D01*
X4438095Y-12890476D01*
X4390476Y-13080952D01*
X4390476Y-13461904D01*
X4438095Y-13557142D01*
X4485714Y-13604761D01*
X4580952Y-13652380D01*
X4771428Y-13652380D01*
X4866666Y-13604761D01*
X4914285Y-13557142D01*
X4961904Y-13461904D01*
X4961904Y-13223809D01*
X4914285Y-13128571D01*
X4866666Y-13080952D01*
X4771428Y-13033333D01*
X4580952Y-13033333D01*
X4485714Y-13080952D01*
X4438095Y-13128571D01*
X4390476Y-13223809D01*
X457142Y-10352380D02*
X123809Y-9876190D01*
X-114286Y-10352380D02*
X-114286Y-9352380D01*
X266666Y-9352380D01*
X361904Y-9400000D01*
X409523Y-9447619D01*
X457142Y-9542857D01*
X457142Y-9685714D01*
X409523Y-9780952D01*
X361904Y-9828571D01*
X266666Y-9876190D01*
X-114286Y-9876190D01*
X1361904Y-9352380D02*
X885714Y-9352380D01*
X838095Y-9828571D01*
X885714Y-9780952D01*
X980952Y-9733333D01*
X1219047Y-9733333D01*
X1314285Y-9780952D01*
X1361904Y-9828571D01*
X1409523Y-9923809D01*
X1409523Y-10161904D01*
X1361904Y-10257142D01*
X1314285Y-10304761D01*
X1219047Y-10352380D01*
X980952Y-10352380D01*
X885714Y-10304761D01*
X838095Y-10257142D01*
X1742857Y-9352380D02*
X2409523Y-9352380D01*
X1980952Y-10352380D01*
X-4119048Y-7752380D02*
X-4452381Y-7276190D01*
X-4690477Y-7752380D02*
X-4690477Y-6752380D01*
X-4309524Y-6752380D01*
X-4214286Y-6800000D01*
X-4166667Y-6847619D01*
X-4119048Y-6942857D01*
X-4119048Y-7085714D01*
X-4166667Y-7180952D01*
X-4214286Y-7228571D01*
X-4309524Y-7276190D01*
X-4690477Y-7276190D01*
X-3166667Y-7752380D02*
X-3738096Y-7752380D01*
X-3452381Y-7752380D02*
X-3452381Y-6752380D01*
X-3547620Y-6895238D01*
X-3642858Y-6990476D01*
X-3738096Y-7038095D01*
X-2547620Y-6752380D02*
X-2452381Y-6752380D01*
X-2357143Y-6800000D01*
X-2309524Y-6847619D01*
X-2261905Y-6942857D01*
X-2214286Y-7133333D01*
X-2214286Y-7371428D01*
X-2261905Y-7561904D01*
X-2309524Y-7657142D01*
X-2357143Y-7704761D01*
X-2452381Y-7752380D01*
X-2547620Y-7752380D01*
X-2642858Y-7704761D01*
X-2690477Y-7657142D01*
X-2738096Y-7561904D01*
X-2785715Y-7371428D01*
X-2785715Y-7133333D01*
X-2738096Y-6942857D01*
X-2690477Y-6847619D01*
X-2642858Y-6800000D01*
X-2547620Y-6752380D01*
X-1880953Y-6752380D02*
X-1214286Y-6752380D01*
X-1642858Y-7752380D01*
X2152380Y-6219047D02*
X1676190Y-6552380D01*
X2152380Y-6790476D02*
X1152380Y-6790476D01*
X1152380Y-6409523D01*
X1200000Y-6314285D01*
X1247619Y-6266666D01*
X1342857Y-6219047D01*
X1485714Y-6219047D01*
X1580952Y-6266666D01*
X1628571Y-6314285D01*
X1676190Y-6409523D01*
X1676190Y-6790476D01*
X2152380Y-5266666D02*
X2152380Y-5838095D01*
X2152380Y-5552380D02*
X1152380Y-5552380D01*
X1295238Y-5647619D01*
X1390476Y-5742857D01*
X1438095Y-5838095D01*
X1152380Y-4647619D02*
X1152380Y-4552380D01*
X1200000Y-4457142D01*
X1247619Y-4409523D01*
X1342857Y-4361904D01*
X1533333Y-4314285D01*
X1771428Y-4314285D01*
X1961904Y-4361904D01*
X2057142Y-4409523D01*
X2104761Y-4457142D01*
X2152380Y-4552380D01*
X2152380Y-4647619D01*
X2104761Y-4742857D01*
X2057142Y-4790476D01*
X1961904Y-4838095D01*
X1771428Y-4885714D01*
X1533333Y-4885714D01*
X1342857Y-4838095D01*
X1247619Y-4790476D01*
X1200000Y-4742857D01*
X1152380Y-4647619D01*
X2152380Y-3838095D02*
X2152380Y-3647619D01*
X2104761Y-3552380D01*
X2057142Y-3504761D01*
X1914285Y-3409523D01*
X1723809Y-3361904D01*
X1342857Y-3361904D01*
X1247619Y-3409523D01*
X1200000Y-3457142D01*
X1152380Y-3552380D01*
X1152380Y-3742857D01*
X1200000Y-3838095D01*
X1247619Y-3885714D01*
X1342857Y-3933333D01*
X1580952Y-3933333D01*
X1676190Y-3885714D01*
X1723809Y-3838095D01*
X1771428Y-3742857D01*
X1771428Y-3552380D01*
X1723809Y-3457142D01*
X1676190Y-3409523D01*
X1580952Y-3361904D01*
X103452380Y-12219047D02*
X102976190Y-12552380D01*
X103452380Y-12790476D02*
X102452380Y-12790476D01*
X102452380Y-12409523D01*
X102500000Y-12314285D01*
X102547619Y-12266666D01*
X102642857Y-12219047D01*
X102785714Y-12219047D01*
X102880952Y-12266666D01*
X102928571Y-12314285D01*
X102976190Y-12409523D01*
X102976190Y-12790476D01*
X103452380Y-11266666D02*
X103452380Y-11838095D01*
X103452380Y-11552380D02*
X102452380Y-11552380D01*
X102595238Y-11647619D01*
X102690476Y-11742857D01*
X102738095Y-11838095D01*
X103452380Y-10314285D02*
X103452380Y-10885714D01*
X103452380Y-10600000D02*
X102452380Y-10600000D01*
X102595238Y-10695238D01*
X102690476Y-10790476D01*
X102738095Y-10885714D01*
X102452380Y-9695238D02*
X102452380Y-9600000D01*
X102500000Y-9504761D01*
X102547619Y-9457142D01*
X102642857Y-9409523D01*
X102833333Y-9361904D01*
X103071428Y-9361904D01*
X103261904Y-9409523D01*
X103357142Y-9457142D01*
X103404761Y-9504761D01*
X103452380Y-9600000D01*
X103452380Y-9695238D01*
X103404761Y-9790476D01*
X103357142Y-9838095D01*
X103261904Y-9885714D01*
X103071428Y-9933333D01*
X102833333Y-9933333D01*
X102642857Y-9885714D01*
X102547619Y-9838095D01*
X102500000Y-9790476D01*
X102452380Y-9695238D01*
M02*
