G04 #@! TF.GenerationSoftware,KiCad,Pcbnew,(5.1.5)-3*
G04 #@! TF.CreationDate,2022-01-27T06:12:11+01:00*
G04 #@! TF.ProjectId,Riser Tioga Pass 1OU 1xPCIe x16,52697365-7220-4546-996f-676120506173,rev?*
G04 #@! TF.SameCoordinates,PX40f1fa0PY623a7c0*
G04 #@! TF.FileFunction,Legend,Bot*
G04 #@! TF.FilePolarity,Positive*
%FSLAX46Y46*%
G04 Gerber Fmt 4.6, Leading zero omitted, Abs format (unit mm)*
G04 Created by KiCad (PCBNEW (5.1.5)-3) date 2022-01-27 06:12:11*
%MOMM*%
%LPD*%
G04 APERTURE LIST*
%ADD10C,0.120000*%
%ADD11C,0.150000*%
G04 APERTURE END LIST*
D10*
X690000Y-6505000D02*
X690000Y-6745000D01*
X-190000Y-6745000D02*
X-190000Y-6505000D01*
X2575000Y-15470000D02*
X2075000Y-15470000D01*
X2075000Y-14530000D02*
X2575000Y-14530000D01*
X19775000Y-12545000D02*
X19275000Y-12545000D01*
X19275000Y-11605000D02*
X19775000Y-11605000D01*
X12825000Y-13605000D02*
X13325000Y-13605000D01*
X13325000Y-14545000D02*
X12825000Y-14545000D01*
X10475000Y-14425000D02*
X10475000Y-15125000D01*
X11675000Y-15125000D02*
X11675000Y-14425000D01*
X7650000Y4075000D02*
X6950000Y4075000D01*
X6950000Y2875000D02*
X7650000Y2875000D01*
X6950000Y1325000D02*
X7650000Y1325000D01*
X7650000Y2525000D02*
X6950000Y2525000D01*
X6950000Y-200000D02*
X7650000Y-200000D01*
X7650000Y1000000D02*
X6950000Y1000000D01*
X7675000Y-550000D02*
X6975000Y-550000D01*
X6975000Y-1750000D02*
X7675000Y-1750000D01*
D11*
X-6100000Y-14325000D02*
X-7450000Y-14325000D01*
X-6100000Y-9200000D02*
X-1450000Y-9200000D01*
X-6100000Y-14450000D02*
X-1450000Y-14450000D01*
X-6100000Y-9200000D02*
X-6100000Y-9425000D01*
X-1450000Y-9200000D02*
X-1450000Y-9425000D01*
X-1450000Y-14450000D02*
X-1450000Y-14225000D01*
X-6100000Y-14450000D02*
X-6100000Y-14325000D01*
D10*
X-13735000Y-2680000D02*
X-13735000Y-2920000D01*
X-14615000Y-2920000D02*
X-14615000Y-2680000D01*
X12230000Y-16435000D02*
X12470000Y-16435000D01*
X12470000Y-17315000D02*
X12230000Y-17315000D01*
X13195000Y-15740000D02*
X12955000Y-15740000D01*
X12955000Y-14860000D02*
X13195000Y-14860000D01*
X2205000Y-13410000D02*
X2445000Y-13410000D01*
X2445000Y-14290000D02*
X2205000Y-14290000D01*
X2445000Y-13215000D02*
X2205000Y-13215000D01*
X2205000Y-12335000D02*
X2445000Y-12335000D01*
X-13640000Y-12855000D02*
X-13640000Y-12615000D01*
X-12760000Y-12615000D02*
X-12760000Y-12855000D01*
X15630000Y-3185000D02*
X15870000Y-3185000D01*
X15870000Y-4065000D02*
X15630000Y-4065000D01*
X15870000Y-5140000D02*
X15630000Y-5140000D01*
X15630000Y-4260000D02*
X15870000Y-4260000D01*
X-15355000Y-640000D02*
X-15595000Y-640000D01*
X-15595000Y240000D02*
X-15355000Y240000D01*
X-11165000Y-8270000D02*
X-11165000Y-8030000D01*
X-10285000Y-8030000D02*
X-10285000Y-8270000D01*
X-190000Y-8045000D02*
X-190000Y-7805000D01*
X690000Y-7805000D02*
X690000Y-8045000D01*
X-9480000Y-3215000D02*
X-9720000Y-3215000D01*
X-9720000Y-2335000D02*
X-9480000Y-2335000D01*
X-9720000Y-1235000D02*
X-9480000Y-1235000D01*
X-9480000Y-2115000D02*
X-9720000Y-2115000D01*
X-9930000Y-815000D02*
X-10170000Y-815000D01*
X-10170000Y65000D02*
X-9930000Y65000D01*
X11990000Y3570000D02*
X11990000Y3330000D01*
X11110000Y3330000D02*
X11110000Y3570000D01*
X-2690000Y-5335000D02*
X-2690000Y-5095000D01*
X-1810000Y-5095000D02*
X-1810000Y-5335000D01*
X10145000Y-3115000D02*
X9905000Y-3115000D01*
X9905000Y-2235000D02*
X10145000Y-2235000D01*
X9905000Y-1185000D02*
X10145000Y-1185000D01*
X10145000Y-2065000D02*
X9905000Y-2065000D01*
X1835000Y-11695000D02*
X1835000Y-11455000D01*
X2715000Y-11455000D02*
X2715000Y-11695000D01*
X-13560000Y-8030000D02*
X-13560000Y-8270000D01*
X-14440000Y-8270000D02*
X-14440000Y-8030000D01*
X-16660000Y-10130000D02*
X-16660000Y-10370000D01*
X-17540000Y-10370000D02*
X-17540000Y-10130000D01*
X-17540000Y-11720000D02*
X-17540000Y-11480000D01*
X-16660000Y-11480000D02*
X-16660000Y-11720000D01*
X3135000Y-9970000D02*
X3135000Y-9730000D01*
X4015000Y-9730000D02*
X4015000Y-9970000D01*
X4015000Y-8455000D02*
X4015000Y-8695000D01*
X3135000Y-8695000D02*
X3135000Y-8455000D01*
X4660000Y-11720000D02*
X4660000Y-11480000D01*
X5540000Y-11480000D02*
X5540000Y-11720000D01*
X5735000Y-11720000D02*
X5735000Y-11480000D01*
X6615000Y-11480000D02*
X6615000Y-11720000D01*
X-735000Y-5105000D02*
X-735000Y-5345000D01*
X-1615000Y-5345000D02*
X-1615000Y-5105000D01*
X-11360000Y-8030000D02*
X-11360000Y-8270000D01*
X-12240000Y-8270000D02*
X-12240000Y-8030000D01*
X-13390000Y-8270000D02*
X-13390000Y-8030000D01*
X-12510000Y-8030000D02*
X-12510000Y-8270000D01*
X-5565000Y-3020000D02*
X-5565000Y-2780000D01*
X-4685000Y-2780000D02*
X-4685000Y-3020000D01*
X-4515000Y-3020000D02*
X-4515000Y-2780000D01*
X-3635000Y-2780000D02*
X-3635000Y-3020000D01*
X-10980000Y-1990000D02*
X-11220000Y-1990000D01*
X-11220000Y-1110000D02*
X-10980000Y-1110000D01*
X-10980000Y-3040000D02*
X-11220000Y-3040000D01*
X-11220000Y-2160000D02*
X-10980000Y-2160000D01*
X-7735000Y-4480000D02*
X-7735000Y-4720000D01*
X-8615000Y-4720000D02*
X-8615000Y-4480000D01*
X-6685000Y-4480000D02*
X-6685000Y-4720000D01*
X-7565000Y-4720000D02*
X-7565000Y-4480000D01*
X-11785000Y-1355000D02*
X-11785000Y-1595000D01*
X-12665000Y-1595000D02*
X-12665000Y-1355000D01*
X-13365000Y-2165000D02*
X-13605000Y-2165000D01*
X-13605000Y-1285000D02*
X-13365000Y-1285000D01*
X-8615000Y-3470000D02*
X-8615000Y-3230000D01*
X-7735000Y-3230000D02*
X-7735000Y-3470000D01*
X-7565000Y-3470000D02*
X-7565000Y-3230000D01*
X-6685000Y-3230000D02*
X-6685000Y-3470000D01*
X-15355000Y-1690000D02*
X-15595000Y-1690000D01*
X-15595000Y-810000D02*
X-15355000Y-810000D01*
X-15355000Y-2740000D02*
X-15595000Y-2740000D01*
X-15595000Y-1860000D02*
X-15355000Y-1860000D01*
D11*
X17725000Y-16200000D02*
X17725000Y-17275000D01*
X14600000Y-16200000D02*
X14600000Y-12950000D01*
X17850000Y-16200000D02*
X17850000Y-12950000D01*
X14600000Y-16200000D02*
X14825000Y-16200000D01*
X14600000Y-12950000D02*
X14825000Y-12950000D01*
X17850000Y-12950000D02*
X17625000Y-12950000D01*
X17850000Y-16200000D02*
X17725000Y-16200000D01*
X2052380Y-3357142D02*
X1576190Y-3023809D01*
X2052380Y-2785714D02*
X1052380Y-2785714D01*
X1052380Y-3166666D01*
X1100000Y-3261904D01*
X1147619Y-3309523D01*
X1242857Y-3357142D01*
X1385714Y-3357142D01*
X1480952Y-3309523D01*
X1528571Y-3261904D01*
X1576190Y-3166666D01*
X1576190Y-2785714D01*
X1147619Y-3738095D02*
X1100000Y-3785714D01*
X1052380Y-3880952D01*
X1052380Y-4119047D01*
X1100000Y-4214285D01*
X1147619Y-4261904D01*
X1242857Y-4309523D01*
X1338095Y-4309523D01*
X1480952Y-4261904D01*
X2052380Y-3690476D01*
X2052380Y-4309523D01*
X1147619Y-4690476D02*
X1100000Y-4738095D01*
X1052380Y-4833333D01*
X1052380Y-5071428D01*
X1100000Y-5166666D01*
X1147619Y-5214285D01*
X1242857Y-5261904D01*
X1338095Y-5261904D01*
X1480952Y-5214285D01*
X2052380Y-4642857D01*
X2052380Y-5261904D01*
X6966666Y-20157142D02*
X7014285Y-20204761D01*
X7157142Y-20252380D01*
X7252380Y-20252380D01*
X7395238Y-20204761D01*
X7490476Y-20109523D01*
X7538095Y-20014285D01*
X7585714Y-19823809D01*
X7585714Y-19680952D01*
X7538095Y-19490476D01*
X7490476Y-19395238D01*
X7395238Y-19300000D01*
X7252380Y-19252380D01*
X7157142Y-19252380D01*
X7014285Y-19300000D01*
X6966666Y-19347619D01*
X6109523Y-19585714D02*
X6109523Y-20252380D01*
X6347619Y-19204761D02*
X6585714Y-19919047D01*
X5966666Y-19919047D01*
X19666666Y-13657142D02*
X19714285Y-13704761D01*
X19857142Y-13752380D01*
X19952380Y-13752380D01*
X20095238Y-13704761D01*
X20190476Y-13609523D01*
X20238095Y-13514285D01*
X20285714Y-13323809D01*
X20285714Y-13180952D01*
X20238095Y-12990476D01*
X20190476Y-12895238D01*
X20095238Y-12800000D01*
X19952380Y-12752380D01*
X19857142Y-12752380D01*
X19714285Y-12800000D01*
X19666666Y-12847619D01*
X18809523Y-12752380D02*
X19000000Y-12752380D01*
X19095238Y-12800000D01*
X19142857Y-12847619D01*
X19238095Y-12990476D01*
X19285714Y-13180952D01*
X19285714Y-13561904D01*
X19238095Y-13657142D01*
X19190476Y-13704761D01*
X19095238Y-13752380D01*
X18904761Y-13752380D01*
X18809523Y-13704761D01*
X18761904Y-13657142D01*
X18714285Y-13561904D01*
X18714285Y-13323809D01*
X18761904Y-13228571D01*
X18809523Y-13180952D01*
X18904761Y-13133333D01*
X19095238Y-13133333D01*
X19190476Y-13180952D01*
X19238095Y-13228571D01*
X19285714Y-13323809D01*
X13642857Y-13057142D02*
X13690476Y-13104761D01*
X13833333Y-13152380D01*
X13928571Y-13152380D01*
X14071428Y-13104761D01*
X14166666Y-13009523D01*
X14214285Y-12914285D01*
X14261904Y-12723809D01*
X14261904Y-12580952D01*
X14214285Y-12390476D01*
X14166666Y-12295238D01*
X14071428Y-12200000D01*
X13928571Y-12152380D01*
X13833333Y-12152380D01*
X13690476Y-12200000D01*
X13642857Y-12247619D01*
X12738095Y-12152380D02*
X13214285Y-12152380D01*
X13261904Y-12628571D01*
X13214285Y-12580952D01*
X13119047Y-12533333D01*
X12880952Y-12533333D01*
X12785714Y-12580952D01*
X12738095Y-12628571D01*
X12690476Y-12723809D01*
X12690476Y-12961904D01*
X12738095Y-13057142D01*
X12785714Y-13104761D01*
X12880952Y-13152380D01*
X13119047Y-13152380D01*
X13214285Y-13104761D01*
X13261904Y-13057142D01*
X12214285Y-13152380D02*
X12023809Y-13152380D01*
X11928571Y-13104761D01*
X11880952Y-13057142D01*
X11785714Y-12914285D01*
X11738095Y-12723809D01*
X11738095Y-12342857D01*
X11785714Y-12247619D01*
X11833333Y-12200000D01*
X11928571Y-12152380D01*
X12119047Y-12152380D01*
X12214285Y-12200000D01*
X12261904Y-12247619D01*
X12309523Y-12342857D01*
X12309523Y-12580952D01*
X12261904Y-12676190D01*
X12214285Y-12723809D01*
X12119047Y-12771428D01*
X11928571Y-12771428D01*
X11833333Y-12723809D01*
X11785714Y-12676190D01*
X11738095Y-12580952D01*
X10057142Y-13833333D02*
X10104761Y-13785714D01*
X10152380Y-13642857D01*
X10152380Y-13547619D01*
X10104761Y-13404761D01*
X10009523Y-13309523D01*
X9914285Y-13261904D01*
X9723809Y-13214285D01*
X9580952Y-13214285D01*
X9390476Y-13261904D01*
X9295238Y-13309523D01*
X9200000Y-13404761D01*
X9152380Y-13547619D01*
X9152380Y-13642857D01*
X9200000Y-13785714D01*
X9247619Y-13833333D01*
X10152380Y-14785714D02*
X10152380Y-14214285D01*
X10152380Y-14500000D02*
X9152380Y-14500000D01*
X9295238Y-14404761D01*
X9390476Y-14309523D01*
X9438095Y-14214285D01*
X4766666Y3142858D02*
X4814285Y3095239D01*
X4957142Y3047620D01*
X5052380Y3047620D01*
X5195238Y3095239D01*
X5290476Y3190477D01*
X5338095Y3285715D01*
X5385714Y3476191D01*
X5385714Y3619048D01*
X5338095Y3809524D01*
X5290476Y3904762D01*
X5195238Y4000000D01*
X5052380Y4047620D01*
X4957142Y4047620D01*
X4814285Y4000000D01*
X4766666Y3952381D01*
X4290476Y3047620D02*
X4100000Y3047620D01*
X4004761Y3095239D01*
X3957142Y3142858D01*
X3861904Y3285715D01*
X3814285Y3476191D01*
X3814285Y3857143D01*
X3861904Y3952381D01*
X3909523Y4000000D01*
X4004761Y4047620D01*
X4195238Y4047620D01*
X4290476Y4000000D01*
X4338095Y3952381D01*
X4385714Y3857143D01*
X4385714Y3619048D01*
X4338095Y3523810D01*
X4290476Y3476191D01*
X4195238Y3428572D01*
X4004761Y3428572D01*
X3909523Y3476191D01*
X3861904Y3523810D01*
X3814285Y3619048D01*
X4942857Y1542858D02*
X4990476Y1495239D01*
X5133333Y1447620D01*
X5228571Y1447620D01*
X5371428Y1495239D01*
X5466666Y1590477D01*
X5514285Y1685715D01*
X5561904Y1876191D01*
X5561904Y2019048D01*
X5514285Y2209524D01*
X5466666Y2304762D01*
X5371428Y2400000D01*
X5228571Y2447620D01*
X5133333Y2447620D01*
X4990476Y2400000D01*
X4942857Y2352381D01*
X3990476Y1447620D02*
X4561904Y1447620D01*
X4276190Y1447620D02*
X4276190Y2447620D01*
X4371428Y2304762D01*
X4466666Y2209524D01*
X4561904Y2161905D01*
X3657142Y2447620D02*
X3038095Y2447620D01*
X3371428Y2066667D01*
X3228571Y2066667D01*
X3133333Y2019048D01*
X3085714Y1971429D01*
X3038095Y1876191D01*
X3038095Y1638096D01*
X3085714Y1542858D01*
X3133333Y1495239D01*
X3228571Y1447620D01*
X3514285Y1447620D01*
X3609523Y1495239D01*
X3657142Y1542858D01*
X4942857Y42858D02*
X4990476Y-4761D01*
X5133333Y-52380D01*
X5228571Y-52380D01*
X5371428Y-4761D01*
X5466666Y90477D01*
X5514285Y185715D01*
X5561904Y376191D01*
X5561904Y519048D01*
X5514285Y709524D01*
X5466666Y804762D01*
X5371428Y900000D01*
X5228571Y947620D01*
X5133333Y947620D01*
X4990476Y900000D01*
X4942857Y852381D01*
X3990476Y-52380D02*
X4561904Y-52380D01*
X4276190Y-52380D02*
X4276190Y947620D01*
X4371428Y804762D01*
X4466666Y709524D01*
X4561904Y661905D01*
X3085714Y947620D02*
X3561904Y947620D01*
X3609523Y471429D01*
X3561904Y519048D01*
X3466666Y566667D01*
X3228571Y566667D01*
X3133333Y519048D01*
X3085714Y471429D01*
X3038095Y376191D01*
X3038095Y138096D01*
X3085714Y42858D01*
X3133333Y-4761D01*
X3228571Y-52380D01*
X3466666Y-52380D01*
X3561904Y-4761D01*
X3609523Y42858D01*
X4942857Y-1457142D02*
X4990476Y-1504761D01*
X5133333Y-1552380D01*
X5228571Y-1552380D01*
X5371428Y-1504761D01*
X5466666Y-1409523D01*
X5514285Y-1314285D01*
X5561904Y-1123809D01*
X5561904Y-980952D01*
X5514285Y-790476D01*
X5466666Y-695238D01*
X5371428Y-600000D01*
X5228571Y-552380D01*
X5133333Y-552380D01*
X4990476Y-600000D01*
X4942857Y-647619D01*
X3990476Y-1552380D02*
X4561904Y-1552380D01*
X4276190Y-1552380D02*
X4276190Y-552380D01*
X4371428Y-695238D01*
X4466666Y-790476D01*
X4561904Y-838095D01*
X3419047Y-980952D02*
X3514285Y-933333D01*
X3561904Y-885714D01*
X3609523Y-790476D01*
X3609523Y-742857D01*
X3561904Y-647619D01*
X3514285Y-600000D01*
X3419047Y-552380D01*
X3228571Y-552380D01*
X3133333Y-600000D01*
X3085714Y-647619D01*
X3038095Y-742857D01*
X3038095Y-790476D01*
X3085714Y-885714D01*
X3133333Y-933333D01*
X3228571Y-980952D01*
X3419047Y-980952D01*
X3514285Y-1028571D01*
X3561904Y-1076190D01*
X3609523Y-1171428D01*
X3609523Y-1361904D01*
X3561904Y-1457142D01*
X3514285Y-1504761D01*
X3419047Y-1552380D01*
X3228571Y-1552380D01*
X3133333Y-1504761D01*
X3085714Y-1457142D01*
X3038095Y-1361904D01*
X3038095Y-1171428D01*
X3085714Y-1076190D01*
X3133333Y-1028571D01*
X3228571Y-980952D01*
X-7938096Y-13452380D02*
X-7938096Y-14261904D01*
X-7985715Y-14357142D01*
X-8033334Y-14404761D01*
X-8128572Y-14452380D01*
X-8319048Y-14452380D01*
X-8414286Y-14404761D01*
X-8461905Y-14357142D01*
X-8509524Y-14261904D01*
X-8509524Y-13452380D01*
X-9414286Y-13452380D02*
X-9223810Y-13452380D01*
X-9128572Y-13500000D01*
X-9080953Y-13547619D01*
X-8985715Y-13690476D01*
X-8938096Y-13880952D01*
X-8938096Y-14261904D01*
X-8985715Y-14357142D01*
X-9033334Y-14404761D01*
X-9128572Y-14452380D01*
X-9319048Y-14452380D01*
X-9414286Y-14404761D01*
X-9461905Y-14357142D01*
X-9509524Y-14261904D01*
X-9509524Y-14023809D01*
X-9461905Y-13928571D01*
X-9414286Y-13880952D01*
X-9319048Y-13833333D01*
X-9128572Y-13833333D01*
X-9033334Y-13880952D01*
X-8985715Y-13928571D01*
X-8938096Y-14023809D01*
X-16447620Y-5733333D02*
X-16923810Y-5400000D01*
X-16447620Y-5161904D02*
X-17447620Y-5161904D01*
X-17447620Y-5542857D01*
X-17400000Y-5638095D01*
X-17352381Y-5685714D01*
X-17257143Y-5733333D01*
X-17114286Y-5733333D01*
X-17019048Y-5685714D01*
X-16971429Y-5638095D01*
X-16923810Y-5542857D01*
X-16923810Y-5161904D01*
X-16447620Y-6685714D02*
X-16447620Y-6114285D01*
X-16447620Y-6400000D02*
X-17447620Y-6400000D01*
X-17304762Y-6304761D01*
X-17209524Y-6209523D01*
X-17161905Y-6114285D01*
X12516666Y-19852380D02*
X12850000Y-19376190D01*
X13088095Y-19852380D02*
X13088095Y-18852380D01*
X12707142Y-18852380D01*
X12611904Y-18900000D01*
X12564285Y-18947619D01*
X12516666Y-19042857D01*
X12516666Y-19185714D01*
X12564285Y-19280952D01*
X12611904Y-19328571D01*
X12707142Y-19376190D01*
X13088095Y-19376190D01*
X11659523Y-18852380D02*
X11850000Y-18852380D01*
X11945238Y-18900000D01*
X11992857Y-18947619D01*
X12088095Y-19090476D01*
X12135714Y-19280952D01*
X12135714Y-19661904D01*
X12088095Y-19757142D01*
X12040476Y-19804761D01*
X11945238Y-19852380D01*
X11754761Y-19852380D01*
X11659523Y-19804761D01*
X11611904Y-19757142D01*
X11564285Y-19661904D01*
X11564285Y-19423809D01*
X11611904Y-19328571D01*
X11659523Y-19280952D01*
X11754761Y-19233333D01*
X11945238Y-19233333D01*
X12040476Y-19280952D01*
X12088095Y-19328571D01*
X12135714Y-19423809D01*
X13466666Y-18552380D02*
X13800000Y-18076190D01*
X14038095Y-18552380D02*
X14038095Y-17552380D01*
X13657142Y-17552380D01*
X13561904Y-17600000D01*
X13514285Y-17647619D01*
X13466666Y-17742857D01*
X13466666Y-17885714D01*
X13514285Y-17980952D01*
X13561904Y-18028571D01*
X13657142Y-18076190D01*
X14038095Y-18076190D01*
X13133333Y-17552380D02*
X12466666Y-17552380D01*
X12895238Y-18552380D01*
X7242857Y-18952380D02*
X7576190Y-18476190D01*
X7814285Y-18952380D02*
X7814285Y-17952380D01*
X7433333Y-17952380D01*
X7338095Y-18000000D01*
X7290476Y-18047619D01*
X7242857Y-18142857D01*
X7242857Y-18285714D01*
X7290476Y-18380952D01*
X7338095Y-18428571D01*
X7433333Y-18476190D01*
X7814285Y-18476190D01*
X6290476Y-18952380D02*
X6861904Y-18952380D01*
X6576190Y-18952380D02*
X6576190Y-17952380D01*
X6671428Y-18095238D01*
X6766666Y-18190476D01*
X6861904Y-18238095D01*
X5909523Y-18047619D02*
X5861904Y-18000000D01*
X5766666Y-17952380D01*
X5528571Y-17952380D01*
X5433333Y-18000000D01*
X5385714Y-18047619D01*
X5338095Y-18142857D01*
X5338095Y-18238095D01*
X5385714Y-18380952D01*
X5957142Y-18952380D01*
X5338095Y-18952380D01*
X7242857Y-17752380D02*
X7576190Y-17276190D01*
X7814285Y-17752380D02*
X7814285Y-16752380D01*
X7433333Y-16752380D01*
X7338095Y-16800000D01*
X7290476Y-16847619D01*
X7242857Y-16942857D01*
X7242857Y-17085714D01*
X7290476Y-17180952D01*
X7338095Y-17228571D01*
X7433333Y-17276190D01*
X7814285Y-17276190D01*
X6290476Y-17752380D02*
X6861904Y-17752380D01*
X6576190Y-17752380D02*
X6576190Y-16752380D01*
X6671428Y-16895238D01*
X6766666Y-16990476D01*
X6861904Y-17038095D01*
X5957142Y-16752380D02*
X5338095Y-16752380D01*
X5671428Y-17133333D01*
X5528571Y-17133333D01*
X5433333Y-17180952D01*
X5385714Y-17228571D01*
X5338095Y-17323809D01*
X5338095Y-17561904D01*
X5385714Y-17657142D01*
X5433333Y-17704761D01*
X5528571Y-17752380D01*
X5814285Y-17752380D01*
X5909523Y-17704761D01*
X5957142Y-17657142D01*
X-13847620Y-12857142D02*
X-14323810Y-12523809D01*
X-13847620Y-12285714D02*
X-14847620Y-12285714D01*
X-14847620Y-12666666D01*
X-14800000Y-12761904D01*
X-14752381Y-12809523D01*
X-14657143Y-12857142D01*
X-14514286Y-12857142D01*
X-14419048Y-12809523D01*
X-14371429Y-12761904D01*
X-14323810Y-12666666D01*
X-14323810Y-12285714D01*
X-13847620Y-13809523D02*
X-13847620Y-13238095D01*
X-13847620Y-13523809D02*
X-14847620Y-13523809D01*
X-14704762Y-13428571D01*
X-14609524Y-13333333D01*
X-14561905Y-13238095D01*
X-14847620Y-14714285D02*
X-14847620Y-14238095D01*
X-14371429Y-14190476D01*
X-14419048Y-14238095D01*
X-14466667Y-14333333D01*
X-14466667Y-14571428D01*
X-14419048Y-14666666D01*
X-14371429Y-14714285D01*
X-14276191Y-14761904D01*
X-14038096Y-14761904D01*
X-13942858Y-14714285D01*
X-13895239Y-14666666D01*
X-13847620Y-14571428D01*
X-13847620Y-14333333D01*
X-13895239Y-14238095D01*
X-13942858Y-14190476D01*
X14342857Y-4052380D02*
X14676190Y-3576190D01*
X14914285Y-4052380D02*
X14914285Y-3052380D01*
X14533333Y-3052380D01*
X14438095Y-3100000D01*
X14390476Y-3147619D01*
X14342857Y-3242857D01*
X14342857Y-3385714D01*
X14390476Y-3480952D01*
X14438095Y-3528571D01*
X14533333Y-3576190D01*
X14914285Y-3576190D01*
X13390476Y-4052380D02*
X13961904Y-4052380D01*
X13676190Y-4052380D02*
X13676190Y-3052380D01*
X13771428Y-3195238D01*
X13866666Y-3290476D01*
X13961904Y-3338095D01*
X12533333Y-3052380D02*
X12723809Y-3052380D01*
X12819047Y-3100000D01*
X12866666Y-3147619D01*
X12961904Y-3290476D01*
X13009523Y-3480952D01*
X13009523Y-3861904D01*
X12961904Y-3957142D01*
X12914285Y-4004761D01*
X12819047Y-4052380D01*
X12628571Y-4052380D01*
X12533333Y-4004761D01*
X12485714Y-3957142D01*
X12438095Y-3861904D01*
X12438095Y-3623809D01*
X12485714Y-3528571D01*
X12533333Y-3480952D01*
X12628571Y-3433333D01*
X12819047Y-3433333D01*
X12914285Y-3480952D01*
X12961904Y-3528571D01*
X13009523Y-3623809D01*
X14342857Y-5252380D02*
X14676190Y-4776190D01*
X14914285Y-5252380D02*
X14914285Y-4252380D01*
X14533333Y-4252380D01*
X14438095Y-4300000D01*
X14390476Y-4347619D01*
X14342857Y-4442857D01*
X14342857Y-4585714D01*
X14390476Y-4680952D01*
X14438095Y-4728571D01*
X14533333Y-4776190D01*
X14914285Y-4776190D01*
X13390476Y-5252380D02*
X13961904Y-5252380D01*
X13676190Y-5252380D02*
X13676190Y-4252380D01*
X13771428Y-4395238D01*
X13866666Y-4490476D01*
X13961904Y-4538095D01*
X13057142Y-4252380D02*
X12390476Y-4252380D01*
X12819047Y-5252380D01*
X-14957143Y2947620D02*
X-14623810Y3423810D01*
X-14385715Y2947620D02*
X-14385715Y3947620D01*
X-14766667Y3947620D01*
X-14861905Y3900000D01*
X-14909524Y3852381D01*
X-14957143Y3757143D01*
X-14957143Y3614286D01*
X-14909524Y3519048D01*
X-14861905Y3471429D01*
X-14766667Y3423810D01*
X-14385715Y3423810D01*
X-15909524Y2947620D02*
X-15338096Y2947620D01*
X-15623810Y2947620D02*
X-15623810Y3947620D01*
X-15528572Y3804762D01*
X-15433334Y3709524D01*
X-15338096Y3661905D01*
X-16385715Y2947620D02*
X-16576191Y2947620D01*
X-16671429Y2995239D01*
X-16719048Y3042858D01*
X-16814286Y3185715D01*
X-16861905Y3376191D01*
X-16861905Y3757143D01*
X-16814286Y3852381D01*
X-16766667Y3900000D01*
X-16671429Y3947620D01*
X-16480953Y3947620D01*
X-16385715Y3900000D01*
X-16338096Y3852381D01*
X-16290477Y3757143D01*
X-16290477Y3519048D01*
X-16338096Y3423810D01*
X-16385715Y3376191D01*
X-16480953Y3328572D01*
X-16671429Y3328572D01*
X-16766667Y3376191D01*
X-16814286Y3423810D01*
X-16861905Y3519048D01*
X-9247620Y-9557142D02*
X-9723810Y-9223809D01*
X-9247620Y-8985714D02*
X-10247620Y-8985714D01*
X-10247620Y-9366666D01*
X-10200000Y-9461904D01*
X-10152381Y-9509523D01*
X-10057143Y-9557142D01*
X-9914286Y-9557142D01*
X-9819048Y-9509523D01*
X-9771429Y-9461904D01*
X-9723810Y-9366666D01*
X-9723810Y-8985714D01*
X-10152381Y-9938095D02*
X-10200000Y-9985714D01*
X-10247620Y-10080952D01*
X-10247620Y-10319047D01*
X-10200000Y-10414285D01*
X-10152381Y-10461904D01*
X-10057143Y-10509523D01*
X-9961905Y-10509523D01*
X-9819048Y-10461904D01*
X-9247620Y-9890476D01*
X-9247620Y-10509523D01*
X-9247620Y-11461904D02*
X-9247620Y-10890476D01*
X-9247620Y-11176190D02*
X-10247620Y-11176190D01*
X-10104762Y-11080952D01*
X-10009524Y-10985714D01*
X-9961905Y-10890476D01*
X2052380Y-6157142D02*
X1576190Y-5823809D01*
X2052380Y-5585714D02*
X1052380Y-5585714D01*
X1052380Y-5966666D01*
X1100000Y-6061904D01*
X1147619Y-6109523D01*
X1242857Y-6157142D01*
X1385714Y-6157142D01*
X1480952Y-6109523D01*
X1528571Y-6061904D01*
X1576190Y-5966666D01*
X1576190Y-5585714D01*
X1147619Y-6538095D02*
X1100000Y-6585714D01*
X1052380Y-6680952D01*
X1052380Y-6919047D01*
X1100000Y-7014285D01*
X1147619Y-7061904D01*
X1242857Y-7109523D01*
X1338095Y-7109523D01*
X1480952Y-7061904D01*
X2052380Y-6490476D01*
X2052380Y-7109523D01*
X1052380Y-7442857D02*
X1052380Y-8061904D01*
X1433333Y-7728571D01*
X1433333Y-7871428D01*
X1480952Y-7966666D01*
X1528571Y-8014285D01*
X1623809Y-8061904D01*
X1861904Y-8061904D01*
X1957142Y-8014285D01*
X2004761Y-7966666D01*
X2052380Y-7871428D01*
X2052380Y-7585714D01*
X2004761Y-7490476D01*
X1957142Y-7442857D01*
X-8657143Y1147620D02*
X-8323810Y1623810D01*
X-8085715Y1147620D02*
X-8085715Y2147620D01*
X-8466667Y2147620D01*
X-8561905Y2100000D01*
X-8609524Y2052381D01*
X-8657143Y1957143D01*
X-8657143Y1814286D01*
X-8609524Y1719048D01*
X-8561905Y1671429D01*
X-8466667Y1623810D01*
X-8085715Y1623810D01*
X-9038096Y2052381D02*
X-9085715Y2100000D01*
X-9180953Y2147620D01*
X-9419048Y2147620D01*
X-9514286Y2100000D01*
X-9561905Y2052381D01*
X-9609524Y1957143D01*
X-9609524Y1861905D01*
X-9561905Y1719048D01*
X-8990477Y1147620D01*
X-9609524Y1147620D01*
X-10466667Y1814286D02*
X-10466667Y1147620D01*
X-10228572Y2195239D02*
X-9990477Y1480953D01*
X-10609524Y1480953D01*
X-8657143Y2347620D02*
X-8323810Y2823810D01*
X-8085715Y2347620D02*
X-8085715Y3347620D01*
X-8466667Y3347620D01*
X-8561905Y3300000D01*
X-8609524Y3252381D01*
X-8657143Y3157143D01*
X-8657143Y3014286D01*
X-8609524Y2919048D01*
X-8561905Y2871429D01*
X-8466667Y2823810D01*
X-8085715Y2823810D01*
X-9038096Y3252381D02*
X-9085715Y3300000D01*
X-9180953Y3347620D01*
X-9419048Y3347620D01*
X-9514286Y3300000D01*
X-9561905Y3252381D01*
X-9609524Y3157143D01*
X-9609524Y3061905D01*
X-9561905Y2919048D01*
X-8990477Y2347620D01*
X-9609524Y2347620D01*
X-10514286Y3347620D02*
X-10038096Y3347620D01*
X-9990477Y2871429D01*
X-10038096Y2919048D01*
X-10133334Y2966667D01*
X-10371429Y2966667D01*
X-10466667Y2919048D01*
X-10514286Y2871429D01*
X-10561905Y2776191D01*
X-10561905Y2538096D01*
X-10514286Y2442858D01*
X-10466667Y2395239D01*
X-10371429Y2347620D01*
X-10133334Y2347620D01*
X-10038096Y2395239D01*
X-9990477Y2442858D01*
X-9357143Y3547620D02*
X-9023810Y4023810D01*
X-8785715Y3547620D02*
X-8785715Y4547620D01*
X-9166667Y4547620D01*
X-9261905Y4500000D01*
X-9309524Y4452381D01*
X-9357143Y4357143D01*
X-9357143Y4214286D01*
X-9309524Y4119048D01*
X-9261905Y4071429D01*
X-9166667Y4023810D01*
X-8785715Y4023810D01*
X-9738096Y4452381D02*
X-9785715Y4500000D01*
X-9880953Y4547620D01*
X-10119048Y4547620D01*
X-10214286Y4500000D01*
X-10261905Y4452381D01*
X-10309524Y4357143D01*
X-10309524Y4261905D01*
X-10261905Y4119048D01*
X-9690477Y3547620D01*
X-10309524Y3547620D01*
X-11166667Y4547620D02*
X-10976191Y4547620D01*
X-10880953Y4500000D01*
X-10833334Y4452381D01*
X-10738096Y4309524D01*
X-10690477Y4119048D01*
X-10690477Y3738096D01*
X-10738096Y3642858D01*
X-10785715Y3595239D01*
X-10880953Y3547620D01*
X-11071429Y3547620D01*
X-11166667Y3595239D01*
X-11214286Y3642858D01*
X-11261905Y3738096D01*
X-11261905Y3976191D01*
X-11214286Y4071429D01*
X-11166667Y4119048D01*
X-11071429Y4166667D01*
X-10880953Y4166667D01*
X-10785715Y4119048D01*
X-10738096Y4071429D01*
X-10690477Y3976191D01*
X10752380Y4092858D02*
X10276190Y4426191D01*
X10752380Y4664286D02*
X9752380Y4664286D01*
X9752380Y4283334D01*
X9800000Y4188096D01*
X9847619Y4140477D01*
X9942857Y4092858D01*
X10085714Y4092858D01*
X10180952Y4140477D01*
X10228571Y4188096D01*
X10276190Y4283334D01*
X10276190Y4664286D01*
X9847619Y3711905D02*
X9800000Y3664286D01*
X9752380Y3569048D01*
X9752380Y3330953D01*
X9800000Y3235715D01*
X9847619Y3188096D01*
X9942857Y3140477D01*
X10038095Y3140477D01*
X10180952Y3188096D01*
X10752380Y3759524D01*
X10752380Y3140477D01*
X9752380Y2807143D02*
X9752380Y2140477D01*
X10752380Y2569048D01*
X-1847620Y-1557142D02*
X-2323810Y-1223809D01*
X-1847620Y-985714D02*
X-2847620Y-985714D01*
X-2847620Y-1366666D01*
X-2800000Y-1461904D01*
X-2752381Y-1509523D01*
X-2657143Y-1557142D01*
X-2514286Y-1557142D01*
X-2419048Y-1509523D01*
X-2371429Y-1461904D01*
X-2323810Y-1366666D01*
X-2323810Y-985714D01*
X-2752381Y-1938095D02*
X-2800000Y-1985714D01*
X-2847620Y-2080952D01*
X-2847620Y-2319047D01*
X-2800000Y-2414285D01*
X-2752381Y-2461904D01*
X-2657143Y-2509523D01*
X-2561905Y-2509523D01*
X-2419048Y-2461904D01*
X-1847620Y-1890476D01*
X-1847620Y-2509523D01*
X-1847620Y-2985714D02*
X-1847620Y-3176190D01*
X-1895239Y-3271428D01*
X-1942858Y-3319047D01*
X-2085715Y-3414285D01*
X-2276191Y-3461904D01*
X-2657143Y-3461904D01*
X-2752381Y-3414285D01*
X-2800000Y-3366666D01*
X-2847620Y-3271428D01*
X-2847620Y-3080952D01*
X-2800000Y-2985714D01*
X-2752381Y-2938095D01*
X-2657143Y-2890476D01*
X-2419048Y-2890476D01*
X-2323810Y-2938095D01*
X-2276191Y-2985714D01*
X-2228572Y-3080952D01*
X-2228572Y-3271428D01*
X-2276191Y-3366666D01*
X-2323810Y-3414285D01*
X-2419048Y-3461904D01*
X8042857Y-4252380D02*
X8376190Y-3776190D01*
X8614285Y-4252380D02*
X8614285Y-3252380D01*
X8233333Y-3252380D01*
X8138095Y-3300000D01*
X8090476Y-3347619D01*
X8042857Y-3442857D01*
X8042857Y-3585714D01*
X8090476Y-3680952D01*
X8138095Y-3728571D01*
X8233333Y-3776190D01*
X8614285Y-3776190D01*
X7709523Y-3252380D02*
X7090476Y-3252380D01*
X7423809Y-3633333D01*
X7280952Y-3633333D01*
X7185714Y-3680952D01*
X7138095Y-3728571D01*
X7090476Y-3823809D01*
X7090476Y-4061904D01*
X7138095Y-4157142D01*
X7185714Y-4204761D01*
X7280952Y-4252380D01*
X7566666Y-4252380D01*
X7661904Y-4204761D01*
X7709523Y-4157142D01*
X6471428Y-3252380D02*
X6376190Y-3252380D01*
X6280952Y-3300000D01*
X6233333Y-3347619D01*
X6185714Y-3442857D01*
X6138095Y-3633333D01*
X6138095Y-3871428D01*
X6185714Y-4061904D01*
X6233333Y-4157142D01*
X6280952Y-4204761D01*
X6376190Y-4252380D01*
X6471428Y-4252380D01*
X6566666Y-4204761D01*
X6614285Y-4157142D01*
X6661904Y-4061904D01*
X6709523Y-3871428D01*
X6709523Y-3633333D01*
X6661904Y-3442857D01*
X6614285Y-3347619D01*
X6566666Y-3300000D01*
X6471428Y-3252380D01*
X8042857Y-3052380D02*
X8376190Y-2576190D01*
X8614285Y-3052380D02*
X8614285Y-2052380D01*
X8233333Y-2052380D01*
X8138095Y-2100000D01*
X8090476Y-2147619D01*
X8042857Y-2242857D01*
X8042857Y-2385714D01*
X8090476Y-2480952D01*
X8138095Y-2528571D01*
X8233333Y-2576190D01*
X8614285Y-2576190D01*
X7709523Y-2052380D02*
X7090476Y-2052380D01*
X7423809Y-2433333D01*
X7280952Y-2433333D01*
X7185714Y-2480952D01*
X7138095Y-2528571D01*
X7090476Y-2623809D01*
X7090476Y-2861904D01*
X7138095Y-2957142D01*
X7185714Y-3004761D01*
X7280952Y-3052380D01*
X7566666Y-3052380D01*
X7661904Y-3004761D01*
X7709523Y-2957142D01*
X6138095Y-3052380D02*
X6709523Y-3052380D01*
X6423809Y-3052380D02*
X6423809Y-2052380D01*
X6519047Y-2195238D01*
X6614285Y-2290476D01*
X6709523Y-2338095D01*
X2852380Y-8857142D02*
X2376190Y-8523809D01*
X2852380Y-8285714D02*
X1852380Y-8285714D01*
X1852380Y-8666666D01*
X1900000Y-8761904D01*
X1947619Y-8809523D01*
X2042857Y-8857142D01*
X2185714Y-8857142D01*
X2280952Y-8809523D01*
X2328571Y-8761904D01*
X2376190Y-8666666D01*
X2376190Y-8285714D01*
X1852380Y-9190476D02*
X1852380Y-9809523D01*
X2233333Y-9476190D01*
X2233333Y-9619047D01*
X2280952Y-9714285D01*
X2328571Y-9761904D01*
X2423809Y-9809523D01*
X2661904Y-9809523D01*
X2757142Y-9761904D01*
X2804761Y-9714285D01*
X2852380Y-9619047D01*
X2852380Y-9333333D01*
X2804761Y-9238095D01*
X2757142Y-9190476D01*
X1852380Y-10714285D02*
X1852380Y-10238095D01*
X2328571Y-10190476D01*
X2280952Y-10238095D01*
X2233333Y-10333333D01*
X2233333Y-10571428D01*
X2280952Y-10666666D01*
X2328571Y-10714285D01*
X2423809Y-10761904D01*
X2661904Y-10761904D01*
X2757142Y-10714285D01*
X2804761Y-10666666D01*
X2852380Y-10571428D01*
X2852380Y-10333333D01*
X2804761Y-10238095D01*
X2757142Y-10190476D01*
X-14797620Y-7507142D02*
X-15273810Y-7173809D01*
X-14797620Y-6935714D02*
X-15797620Y-6935714D01*
X-15797620Y-7316666D01*
X-15750000Y-7411904D01*
X-15702381Y-7459523D01*
X-15607143Y-7507142D01*
X-15464286Y-7507142D01*
X-15369048Y-7459523D01*
X-15321429Y-7411904D01*
X-15273810Y-7316666D01*
X-15273810Y-6935714D01*
X-15464286Y-8364285D02*
X-14797620Y-8364285D01*
X-15845239Y-8126190D02*
X-15130953Y-7888095D01*
X-15130953Y-8507142D01*
X-15702381Y-8840476D02*
X-15750000Y-8888095D01*
X-15797620Y-8983333D01*
X-15797620Y-9221428D01*
X-15750000Y-9316666D01*
X-15702381Y-9364285D01*
X-15607143Y-9411904D01*
X-15511905Y-9411904D01*
X-15369048Y-9364285D01*
X-14797620Y-8792857D01*
X-14797620Y-9411904D01*
X-15247620Y-10157142D02*
X-15723810Y-9823809D01*
X-15247620Y-9585714D02*
X-16247620Y-9585714D01*
X-16247620Y-9966666D01*
X-16200000Y-10061904D01*
X-16152381Y-10109523D01*
X-16057143Y-10157142D01*
X-15914286Y-10157142D01*
X-15819048Y-10109523D01*
X-15771429Y-10061904D01*
X-15723810Y-9966666D01*
X-15723810Y-9585714D01*
X-15914286Y-11014285D02*
X-15247620Y-11014285D01*
X-16295239Y-10776190D02*
X-15580953Y-10538095D01*
X-15580953Y-11157142D01*
X-15247620Y-11585714D02*
X-15247620Y-11776190D01*
X-15295239Y-11871428D01*
X-15342858Y-11919047D01*
X-15485715Y-12014285D01*
X-15676191Y-12061904D01*
X-16057143Y-12061904D01*
X-16152381Y-12014285D01*
X-16200000Y-11966666D01*
X-16247620Y-11871428D01*
X-16247620Y-11680952D01*
X-16200000Y-11585714D01*
X-16152381Y-11538095D01*
X-16057143Y-11490476D01*
X-15819048Y-11490476D01*
X-15723810Y-11538095D01*
X-15676191Y-11585714D01*
X-15628572Y-11680952D01*
X-15628572Y-11871428D01*
X-15676191Y-11966666D01*
X-15723810Y-12014285D01*
X-15819048Y-12061904D01*
X-15247620Y-12857142D02*
X-15723810Y-12523809D01*
X-15247620Y-12285714D02*
X-16247620Y-12285714D01*
X-16247620Y-12666666D01*
X-16200000Y-12761904D01*
X-16152381Y-12809523D01*
X-16057143Y-12857142D01*
X-15914286Y-12857142D01*
X-15819048Y-12809523D01*
X-15771429Y-12761904D01*
X-15723810Y-12666666D01*
X-15723810Y-12285714D01*
X-16247620Y-13761904D02*
X-16247620Y-13285714D01*
X-15771429Y-13238095D01*
X-15819048Y-13285714D01*
X-15866667Y-13380952D01*
X-15866667Y-13619047D01*
X-15819048Y-13714285D01*
X-15771429Y-13761904D01*
X-15676191Y-13809523D01*
X-15438096Y-13809523D01*
X-15342858Y-13761904D01*
X-15295239Y-13714285D01*
X-15247620Y-13619047D01*
X-15247620Y-13380952D01*
X-15295239Y-13285714D01*
X-15342858Y-13238095D01*
X-16247620Y-14428571D02*
X-16247620Y-14523809D01*
X-16200000Y-14619047D01*
X-16152381Y-14666666D01*
X-16057143Y-14714285D01*
X-15866667Y-14761904D01*
X-15628572Y-14761904D01*
X-15438096Y-14714285D01*
X-15342858Y-14666666D01*
X-15295239Y-14619047D01*
X-15247620Y-14523809D01*
X-15247620Y-14428571D01*
X-15295239Y-14333333D01*
X-15342858Y-14285714D01*
X-15438096Y-14238095D01*
X-15628572Y-14190476D01*
X-15866667Y-14190476D01*
X-16057143Y-14238095D01*
X-16152381Y-14285714D01*
X-16200000Y-14333333D01*
X-16247620Y-14428571D01*
X5152380Y-8957142D02*
X4676190Y-8623809D01*
X5152380Y-8385714D02*
X4152380Y-8385714D01*
X4152380Y-8766666D01*
X4200000Y-8861904D01*
X4247619Y-8909523D01*
X4342857Y-8957142D01*
X4485714Y-8957142D01*
X4580952Y-8909523D01*
X4628571Y-8861904D01*
X4676190Y-8766666D01*
X4676190Y-8385714D01*
X4152380Y-9861904D02*
X4152380Y-9385714D01*
X4628571Y-9338095D01*
X4580952Y-9385714D01*
X4533333Y-9480952D01*
X4533333Y-9719047D01*
X4580952Y-9814285D01*
X4628571Y-9861904D01*
X4723809Y-9909523D01*
X4961904Y-9909523D01*
X5057142Y-9861904D01*
X5104761Y-9814285D01*
X5152380Y-9719047D01*
X5152380Y-9480952D01*
X5104761Y-9385714D01*
X5057142Y-9338095D01*
X4580952Y-10480952D02*
X4533333Y-10385714D01*
X4485714Y-10338095D01*
X4390476Y-10290476D01*
X4342857Y-10290476D01*
X4247619Y-10338095D01*
X4200000Y-10385714D01*
X4152380Y-10480952D01*
X4152380Y-10671428D01*
X4200000Y-10766666D01*
X4247619Y-10814285D01*
X4342857Y-10861904D01*
X4390476Y-10861904D01*
X4485714Y-10814285D01*
X4533333Y-10766666D01*
X4580952Y-10671428D01*
X4580952Y-10480952D01*
X4628571Y-10385714D01*
X4676190Y-10338095D01*
X4771428Y-10290476D01*
X4961904Y-10290476D01*
X5057142Y-10338095D01*
X5104761Y-10385714D01*
X5152380Y-10480952D01*
X5152380Y-10671428D01*
X5104761Y-10766666D01*
X5057142Y-10814285D01*
X4961904Y-10861904D01*
X4771428Y-10861904D01*
X4676190Y-10814285D01*
X4628571Y-10766666D01*
X4580952Y-10671428D01*
X5152380Y-6157142D02*
X4676190Y-5823809D01*
X5152380Y-5585714D02*
X4152380Y-5585714D01*
X4152380Y-5966666D01*
X4200000Y-6061904D01*
X4247619Y-6109523D01*
X4342857Y-6157142D01*
X4485714Y-6157142D01*
X4580952Y-6109523D01*
X4628571Y-6061904D01*
X4676190Y-5966666D01*
X4676190Y-5585714D01*
X4152380Y-7061904D02*
X4152380Y-6585714D01*
X4628571Y-6538095D01*
X4580952Y-6585714D01*
X4533333Y-6680952D01*
X4533333Y-6919047D01*
X4580952Y-7014285D01*
X4628571Y-7061904D01*
X4723809Y-7109523D01*
X4961904Y-7109523D01*
X5057142Y-7061904D01*
X5104761Y-7014285D01*
X5152380Y-6919047D01*
X5152380Y-6680952D01*
X5104761Y-6585714D01*
X5057142Y-6538095D01*
X5152380Y-7585714D02*
X5152380Y-7776190D01*
X5104761Y-7871428D01*
X5057142Y-7919047D01*
X4914285Y-8014285D01*
X4723809Y-8061904D01*
X4342857Y-8061904D01*
X4247619Y-8014285D01*
X4200000Y-7966666D01*
X4152380Y-7871428D01*
X4152380Y-7680952D01*
X4200000Y-7585714D01*
X4247619Y-7538095D01*
X4342857Y-7490476D01*
X4580952Y-7490476D01*
X4676190Y-7538095D01*
X4723809Y-7585714D01*
X4771428Y-7680952D01*
X4771428Y-7871428D01*
X4723809Y-7966666D01*
X4676190Y-8014285D01*
X4580952Y-8061904D01*
X5552380Y-12957142D02*
X5076190Y-12623809D01*
X5552380Y-12385714D02*
X4552380Y-12385714D01*
X4552380Y-12766666D01*
X4600000Y-12861904D01*
X4647619Y-12909523D01*
X4742857Y-12957142D01*
X4885714Y-12957142D01*
X4980952Y-12909523D01*
X5028571Y-12861904D01*
X5076190Y-12766666D01*
X5076190Y-12385714D01*
X4552380Y-13814285D02*
X4552380Y-13623809D01*
X4600000Y-13528571D01*
X4647619Y-13480952D01*
X4790476Y-13385714D01*
X4980952Y-13338095D01*
X5361904Y-13338095D01*
X5457142Y-13385714D01*
X5504761Y-13433333D01*
X5552380Y-13528571D01*
X5552380Y-13719047D01*
X5504761Y-13814285D01*
X5457142Y-13861904D01*
X5361904Y-13909523D01*
X5123809Y-13909523D01*
X5028571Y-13861904D01*
X4980952Y-13814285D01*
X4933333Y-13719047D01*
X4933333Y-13528571D01*
X4980952Y-13433333D01*
X5028571Y-13385714D01*
X5123809Y-13338095D01*
X4552380Y-14528571D02*
X4552380Y-14623809D01*
X4600000Y-14719047D01*
X4647619Y-14766666D01*
X4742857Y-14814285D01*
X4933333Y-14861904D01*
X5171428Y-14861904D01*
X5361904Y-14814285D01*
X5457142Y-14766666D01*
X5504761Y-14719047D01*
X5552380Y-14623809D01*
X5552380Y-14528571D01*
X5504761Y-14433333D01*
X5457142Y-14385714D01*
X5361904Y-14338095D01*
X5171428Y-14290476D01*
X4933333Y-14290476D01*
X4742857Y-14338095D01*
X4647619Y-14385714D01*
X4600000Y-14433333D01*
X4552380Y-14528571D01*
X6852380Y-12957142D02*
X6376190Y-12623809D01*
X6852380Y-12385714D02*
X5852380Y-12385714D01*
X5852380Y-12766666D01*
X5900000Y-12861904D01*
X5947619Y-12909523D01*
X6042857Y-12957142D01*
X6185714Y-12957142D01*
X6280952Y-12909523D01*
X6328571Y-12861904D01*
X6376190Y-12766666D01*
X6376190Y-12385714D01*
X5852380Y-13814285D02*
X5852380Y-13623809D01*
X5900000Y-13528571D01*
X5947619Y-13480952D01*
X6090476Y-13385714D01*
X6280952Y-13338095D01*
X6661904Y-13338095D01*
X6757142Y-13385714D01*
X6804761Y-13433333D01*
X6852380Y-13528571D01*
X6852380Y-13719047D01*
X6804761Y-13814285D01*
X6757142Y-13861904D01*
X6661904Y-13909523D01*
X6423809Y-13909523D01*
X6328571Y-13861904D01*
X6280952Y-13814285D01*
X6233333Y-13719047D01*
X6233333Y-13528571D01*
X6280952Y-13433333D01*
X6328571Y-13385714D01*
X6423809Y-13338095D01*
X6852380Y-14861904D02*
X6852380Y-14290476D01*
X6852380Y-14576190D02*
X5852380Y-14576190D01*
X5995238Y-14480952D01*
X6090476Y-14385714D01*
X6138095Y-14290476D01*
X-647620Y-1580952D02*
X-1123810Y-1247619D01*
X-647620Y-1009523D02*
X-1647620Y-1009523D01*
X-1647620Y-1390476D01*
X-1600000Y-1485714D01*
X-1552381Y-1533333D01*
X-1457143Y-1580952D01*
X-1314286Y-1580952D01*
X-1219048Y-1533333D01*
X-1171429Y-1485714D01*
X-1123810Y-1390476D01*
X-1123810Y-1009523D01*
X-647620Y-2533333D02*
X-647620Y-1961904D01*
X-647620Y-2247619D02*
X-1647620Y-2247619D01*
X-1504762Y-2152380D01*
X-1409524Y-2057142D01*
X-1361905Y-1961904D01*
X-1647620Y-3152380D02*
X-1647620Y-3247619D01*
X-1600000Y-3342857D01*
X-1552381Y-3390476D01*
X-1457143Y-3438095D01*
X-1266667Y-3485714D01*
X-1028572Y-3485714D01*
X-838096Y-3438095D01*
X-742858Y-3390476D01*
X-695239Y-3342857D01*
X-647620Y-3247619D01*
X-647620Y-3152380D01*
X-695239Y-3057142D01*
X-742858Y-3009523D01*
X-838096Y-2961904D01*
X-1028572Y-2914285D01*
X-1266667Y-2914285D01*
X-1457143Y-2961904D01*
X-1552381Y-3009523D01*
X-1600000Y-3057142D01*
X-1647620Y-3152380D01*
X-1219048Y-4057142D02*
X-1266667Y-3961904D01*
X-1314286Y-3914285D01*
X-1409524Y-3866666D01*
X-1457143Y-3866666D01*
X-1552381Y-3914285D01*
X-1600000Y-3961904D01*
X-1647620Y-4057142D01*
X-1647620Y-4247619D01*
X-1600000Y-4342857D01*
X-1552381Y-4390476D01*
X-1457143Y-4438095D01*
X-1409524Y-4438095D01*
X-1314286Y-4390476D01*
X-1266667Y-4342857D01*
X-1219048Y-4247619D01*
X-1219048Y-4057142D01*
X-1171429Y-3961904D01*
X-1123810Y-3914285D01*
X-1028572Y-3866666D01*
X-838096Y-3866666D01*
X-742858Y-3914285D01*
X-695239Y-3961904D01*
X-647620Y-4057142D01*
X-647620Y-4247619D01*
X-695239Y-4342857D01*
X-742858Y-4390476D01*
X-838096Y-4438095D01*
X-1028572Y-4438095D01*
X-1123810Y-4390476D01*
X-1171429Y-4342857D01*
X-1219048Y-4247619D01*
X-10447620Y-9580952D02*
X-10923810Y-9247619D01*
X-10447620Y-9009523D02*
X-11447620Y-9009523D01*
X-11447620Y-9390476D01*
X-11400000Y-9485714D01*
X-11352381Y-9533333D01*
X-11257143Y-9580952D01*
X-11114286Y-9580952D01*
X-11019048Y-9533333D01*
X-10971429Y-9485714D01*
X-10923810Y-9390476D01*
X-10923810Y-9009523D01*
X-10447620Y-10533333D02*
X-10447620Y-9961904D01*
X-10447620Y-10247619D02*
X-11447620Y-10247619D01*
X-11304762Y-10152380D01*
X-11209524Y-10057142D01*
X-11161905Y-9961904D01*
X-10447620Y-11485714D02*
X-10447620Y-10914285D01*
X-10447620Y-11200000D02*
X-11447620Y-11200000D01*
X-11304762Y-11104761D01*
X-11209524Y-11009523D01*
X-11161905Y-10914285D01*
X-10447620Y-12438095D02*
X-10447620Y-11866666D01*
X-10447620Y-12152380D02*
X-11447620Y-12152380D01*
X-11304762Y-12057142D01*
X-11209524Y-11961904D01*
X-11161905Y-11866666D01*
X-11647620Y-9580952D02*
X-12123810Y-9247619D01*
X-11647620Y-9009523D02*
X-12647620Y-9009523D01*
X-12647620Y-9390476D01*
X-12600000Y-9485714D01*
X-12552381Y-9533333D01*
X-12457143Y-9580952D01*
X-12314286Y-9580952D01*
X-12219048Y-9533333D01*
X-12171429Y-9485714D01*
X-12123810Y-9390476D01*
X-12123810Y-9009523D01*
X-11647620Y-10533333D02*
X-11647620Y-9961904D01*
X-11647620Y-10247619D02*
X-12647620Y-10247619D01*
X-12504762Y-10152380D01*
X-12409524Y-10057142D01*
X-12361905Y-9961904D01*
X-11647620Y-11485714D02*
X-11647620Y-10914285D01*
X-11647620Y-11200000D02*
X-12647620Y-11200000D01*
X-12504762Y-11104761D01*
X-12409524Y-11009523D01*
X-12361905Y-10914285D01*
X-12552381Y-11866666D02*
X-12600000Y-11914285D01*
X-12647620Y-12009523D01*
X-12647620Y-12247619D01*
X-12600000Y-12342857D01*
X-12552381Y-12390476D01*
X-12457143Y-12438095D01*
X-12361905Y-12438095D01*
X-12219048Y-12390476D01*
X-11647620Y-11819047D01*
X-11647620Y-12438095D01*
X-4647620Y1119048D02*
X-5123810Y1452381D01*
X-4647620Y1690477D02*
X-5647620Y1690477D01*
X-5647620Y1309524D01*
X-5600000Y1214286D01*
X-5552381Y1166667D01*
X-5457143Y1119048D01*
X-5314286Y1119048D01*
X-5219048Y1166667D01*
X-5171429Y1214286D01*
X-5123810Y1309524D01*
X-5123810Y1690477D01*
X-4647620Y166667D02*
X-4647620Y738096D01*
X-4647620Y452381D02*
X-5647620Y452381D01*
X-5504762Y547620D01*
X-5409524Y642858D01*
X-5361905Y738096D01*
X-4647620Y-785714D02*
X-4647620Y-214285D01*
X-4647620Y-500000D02*
X-5647620Y-500000D01*
X-5504762Y-404761D01*
X-5409524Y-309523D01*
X-5361905Y-214285D01*
X-5647620Y-1119047D02*
X-5647620Y-1738095D01*
X-5266667Y-1404761D01*
X-5266667Y-1547619D01*
X-5219048Y-1642857D01*
X-5171429Y-1690476D01*
X-5076191Y-1738095D01*
X-4838096Y-1738095D01*
X-4742858Y-1690476D01*
X-4695239Y-1642857D01*
X-4647620Y-1547619D01*
X-4647620Y-1261904D01*
X-4695239Y-1166666D01*
X-4742858Y-1119047D01*
X-3347620Y1119048D02*
X-3823810Y1452381D01*
X-3347620Y1690477D02*
X-4347620Y1690477D01*
X-4347620Y1309524D01*
X-4300000Y1214286D01*
X-4252381Y1166667D01*
X-4157143Y1119048D01*
X-4014286Y1119048D01*
X-3919048Y1166667D01*
X-3871429Y1214286D01*
X-3823810Y1309524D01*
X-3823810Y1690477D01*
X-3347620Y166667D02*
X-3347620Y738096D01*
X-3347620Y452381D02*
X-4347620Y452381D01*
X-4204762Y547620D01*
X-4109524Y642858D01*
X-4061905Y738096D01*
X-3347620Y-785714D02*
X-3347620Y-214285D01*
X-3347620Y-500000D02*
X-4347620Y-500000D01*
X-4204762Y-404761D01*
X-4109524Y-309523D01*
X-4061905Y-214285D01*
X-4014286Y-1642857D02*
X-3347620Y-1642857D01*
X-4395239Y-1404761D02*
X-3680953Y-1166666D01*
X-3680953Y-1785714D01*
X-11380953Y2347620D02*
X-11047620Y2823810D01*
X-10809524Y2347620D02*
X-10809524Y3347620D01*
X-11190477Y3347620D01*
X-11285715Y3300000D01*
X-11333334Y3252381D01*
X-11380953Y3157143D01*
X-11380953Y3014286D01*
X-11333334Y2919048D01*
X-11285715Y2871429D01*
X-11190477Y2823810D01*
X-10809524Y2823810D01*
X-12333334Y2347620D02*
X-11761905Y2347620D01*
X-12047620Y2347620D02*
X-12047620Y3347620D01*
X-11952381Y3204762D01*
X-11857143Y3109524D01*
X-11761905Y3061905D01*
X-13285715Y2347620D02*
X-12714286Y2347620D01*
X-13000000Y2347620D02*
X-13000000Y3347620D01*
X-12904762Y3204762D01*
X-12809524Y3109524D01*
X-12714286Y3061905D01*
X-14190477Y3347620D02*
X-13714286Y3347620D01*
X-13666667Y2871429D01*
X-13714286Y2919048D01*
X-13809524Y2966667D01*
X-14047620Y2966667D01*
X-14142858Y2919048D01*
X-14190477Y2871429D01*
X-14238096Y2776191D01*
X-14238096Y2538096D01*
X-14190477Y2442858D01*
X-14142858Y2395239D01*
X-14047620Y2347620D01*
X-13809524Y2347620D01*
X-13714286Y2395239D01*
X-13666667Y2442858D01*
X-11380953Y1147620D02*
X-11047620Y1623810D01*
X-10809524Y1147620D02*
X-10809524Y2147620D01*
X-11190477Y2147620D01*
X-11285715Y2100000D01*
X-11333334Y2052381D01*
X-11380953Y1957143D01*
X-11380953Y1814286D01*
X-11333334Y1719048D01*
X-11285715Y1671429D01*
X-11190477Y1623810D01*
X-10809524Y1623810D01*
X-12333334Y1147620D02*
X-11761905Y1147620D01*
X-12047620Y1147620D02*
X-12047620Y2147620D01*
X-11952381Y2004762D01*
X-11857143Y1909524D01*
X-11761905Y1861905D01*
X-13285715Y1147620D02*
X-12714286Y1147620D01*
X-13000000Y1147620D02*
X-13000000Y2147620D01*
X-12904762Y2004762D01*
X-12809524Y1909524D01*
X-12714286Y1861905D01*
X-14142858Y2147620D02*
X-13952381Y2147620D01*
X-13857143Y2100000D01*
X-13809524Y2052381D01*
X-13714286Y1909524D01*
X-13666667Y1719048D01*
X-13666667Y1338096D01*
X-13714286Y1242858D01*
X-13761905Y1195239D01*
X-13857143Y1147620D01*
X-14047620Y1147620D01*
X-14142858Y1195239D01*
X-14190477Y1242858D01*
X-14238096Y1338096D01*
X-14238096Y1576191D01*
X-14190477Y1671429D01*
X-14142858Y1719048D01*
X-14047620Y1766667D01*
X-13857143Y1766667D01*
X-13761905Y1719048D01*
X-13714286Y1671429D01*
X-13666667Y1576191D01*
X-7747620Y-5880952D02*
X-8223810Y-5547619D01*
X-7747620Y-5309523D02*
X-8747620Y-5309523D01*
X-8747620Y-5690476D01*
X-8700000Y-5785714D01*
X-8652381Y-5833333D01*
X-8557143Y-5880952D01*
X-8414286Y-5880952D01*
X-8319048Y-5833333D01*
X-8271429Y-5785714D01*
X-8223810Y-5690476D01*
X-8223810Y-5309523D01*
X-7747620Y-6833333D02*
X-7747620Y-6261904D01*
X-7747620Y-6547619D02*
X-8747620Y-6547619D01*
X-8604762Y-6452380D01*
X-8509524Y-6357142D01*
X-8461905Y-6261904D01*
X-7747620Y-7785714D02*
X-7747620Y-7214285D01*
X-7747620Y-7500000D02*
X-8747620Y-7500000D01*
X-8604762Y-7404761D01*
X-8509524Y-7309523D01*
X-8461905Y-7214285D01*
X-8747620Y-8119047D02*
X-8747620Y-8785714D01*
X-7747620Y-8357142D01*
X-6547620Y-5880952D02*
X-7023810Y-5547619D01*
X-6547620Y-5309523D02*
X-7547620Y-5309523D01*
X-7547620Y-5690476D01*
X-7500000Y-5785714D01*
X-7452381Y-5833333D01*
X-7357143Y-5880952D01*
X-7214286Y-5880952D01*
X-7119048Y-5833333D01*
X-7071429Y-5785714D01*
X-7023810Y-5690476D01*
X-7023810Y-5309523D01*
X-6547620Y-6833333D02*
X-6547620Y-6261904D01*
X-6547620Y-6547619D02*
X-7547620Y-6547619D01*
X-7404762Y-6452380D01*
X-7309524Y-6357142D01*
X-7261905Y-6261904D01*
X-6547620Y-7785714D02*
X-6547620Y-7214285D01*
X-6547620Y-7500000D02*
X-7547620Y-7500000D01*
X-7404762Y-7404761D01*
X-7309524Y-7309523D01*
X-7261905Y-7214285D01*
X-7119048Y-8357142D02*
X-7166667Y-8261904D01*
X-7214286Y-8214285D01*
X-7309524Y-8166666D01*
X-7357143Y-8166666D01*
X-7452381Y-8214285D01*
X-7500000Y-8261904D01*
X-7547620Y-8357142D01*
X-7547620Y-8547619D01*
X-7500000Y-8642857D01*
X-7452381Y-8690476D01*
X-7357143Y-8738095D01*
X-7309524Y-8738095D01*
X-7214286Y-8690476D01*
X-7166667Y-8642857D01*
X-7119048Y-8547619D01*
X-7119048Y-8357142D01*
X-7071429Y-8261904D01*
X-7023810Y-8214285D01*
X-6928572Y-8166666D01*
X-6738096Y-8166666D01*
X-6642858Y-8214285D01*
X-6595239Y-8261904D01*
X-6547620Y-8357142D01*
X-6547620Y-8547619D01*
X-6595239Y-8642857D01*
X-6642858Y-8690476D01*
X-6738096Y-8738095D01*
X-6928572Y-8738095D01*
X-7023810Y-8690476D01*
X-7071429Y-8642857D01*
X-7119048Y-8547619D01*
X-11847620Y-3180952D02*
X-12323810Y-2847619D01*
X-11847620Y-2609523D02*
X-12847620Y-2609523D01*
X-12847620Y-2990476D01*
X-12800000Y-3085714D01*
X-12752381Y-3133333D01*
X-12657143Y-3180952D01*
X-12514286Y-3180952D01*
X-12419048Y-3133333D01*
X-12371429Y-3085714D01*
X-12323810Y-2990476D01*
X-12323810Y-2609523D01*
X-11847620Y-4133333D02*
X-11847620Y-3561904D01*
X-11847620Y-3847619D02*
X-12847620Y-3847619D01*
X-12704762Y-3752380D01*
X-12609524Y-3657142D01*
X-12561905Y-3561904D01*
X-11847620Y-5085714D02*
X-11847620Y-4514285D01*
X-11847620Y-4800000D02*
X-12847620Y-4800000D01*
X-12704762Y-4704761D01*
X-12609524Y-4609523D01*
X-12561905Y-4514285D01*
X-11847620Y-5561904D02*
X-11847620Y-5752380D01*
X-11895239Y-5847619D01*
X-11942858Y-5895238D01*
X-12085715Y-5990476D01*
X-12276191Y-6038095D01*
X-12657143Y-6038095D01*
X-12752381Y-5990476D01*
X-12800000Y-5942857D01*
X-12847620Y-5847619D01*
X-12847620Y-5657142D01*
X-12800000Y-5561904D01*
X-12752381Y-5514285D01*
X-12657143Y-5466666D01*
X-12419048Y-5466666D01*
X-12323810Y-5514285D01*
X-12276191Y-5561904D01*
X-12228572Y-5657142D01*
X-12228572Y-5847619D01*
X-12276191Y-5942857D01*
X-12323810Y-5990476D01*
X-12419048Y-6038095D01*
X-13580953Y-4952380D02*
X-13247620Y-4476190D01*
X-13009524Y-4952380D02*
X-13009524Y-3952380D01*
X-13390477Y-3952380D01*
X-13485715Y-4000000D01*
X-13533334Y-4047619D01*
X-13580953Y-4142857D01*
X-13580953Y-4285714D01*
X-13533334Y-4380952D01*
X-13485715Y-4428571D01*
X-13390477Y-4476190D01*
X-13009524Y-4476190D01*
X-14533334Y-4952380D02*
X-13961905Y-4952380D01*
X-14247620Y-4952380D02*
X-14247620Y-3952380D01*
X-14152381Y-4095238D01*
X-14057143Y-4190476D01*
X-13961905Y-4238095D01*
X-14914286Y-4047619D02*
X-14961905Y-4000000D01*
X-15057143Y-3952380D01*
X-15295239Y-3952380D01*
X-15390477Y-4000000D01*
X-15438096Y-4047619D01*
X-15485715Y-4142857D01*
X-15485715Y-4238095D01*
X-15438096Y-4380952D01*
X-14866667Y-4952380D01*
X-15485715Y-4952380D01*
X-16104762Y-3952380D02*
X-16200000Y-3952380D01*
X-16295239Y-4000000D01*
X-16342858Y-4047619D01*
X-16390477Y-4142857D01*
X-16438096Y-4333333D01*
X-16438096Y-4571428D01*
X-16390477Y-4761904D01*
X-16342858Y-4857142D01*
X-16295239Y-4904761D01*
X-16200000Y-4952380D01*
X-16104762Y-4952380D01*
X-16009524Y-4904761D01*
X-15961905Y-4857142D01*
X-15914286Y-4761904D01*
X-15866667Y-4571428D01*
X-15866667Y-4333333D01*
X-15914286Y-4142857D01*
X-15961905Y-4047619D01*
X-16009524Y-4000000D01*
X-16104762Y-3952380D01*
X-7847620Y219048D02*
X-8323810Y552381D01*
X-7847620Y790477D02*
X-8847620Y790477D01*
X-8847620Y409524D01*
X-8800000Y314286D01*
X-8752381Y266667D01*
X-8657143Y219048D01*
X-8514286Y219048D01*
X-8419048Y266667D01*
X-8371429Y314286D01*
X-8323810Y409524D01*
X-8323810Y790477D01*
X-7847620Y-733333D02*
X-7847620Y-161904D01*
X-7847620Y-447619D02*
X-8847620Y-447619D01*
X-8704762Y-352380D01*
X-8609524Y-257142D01*
X-8561905Y-161904D01*
X-8752381Y-1114285D02*
X-8800000Y-1161904D01*
X-8847620Y-1257142D01*
X-8847620Y-1495238D01*
X-8800000Y-1590476D01*
X-8752381Y-1638095D01*
X-8657143Y-1685714D01*
X-8561905Y-1685714D01*
X-8419048Y-1638095D01*
X-7847620Y-1066666D01*
X-7847620Y-1685714D01*
X-7847620Y-2638095D02*
X-7847620Y-2066666D01*
X-7847620Y-2352380D02*
X-8847620Y-2352380D01*
X-8704762Y-2257142D01*
X-8609524Y-2161904D01*
X-8561905Y-2066666D01*
X-6547620Y219048D02*
X-7023810Y552381D01*
X-6547620Y790477D02*
X-7547620Y790477D01*
X-7547620Y409524D01*
X-7500000Y314286D01*
X-7452381Y266667D01*
X-7357143Y219048D01*
X-7214286Y219048D01*
X-7119048Y266667D01*
X-7071429Y314286D01*
X-7023810Y409524D01*
X-7023810Y790477D01*
X-6547620Y-733333D02*
X-6547620Y-161904D01*
X-6547620Y-447619D02*
X-7547620Y-447619D01*
X-7404762Y-352380D01*
X-7309524Y-257142D01*
X-7261905Y-161904D01*
X-7452381Y-1114285D02*
X-7500000Y-1161904D01*
X-7547620Y-1257142D01*
X-7547620Y-1495238D01*
X-7500000Y-1590476D01*
X-7452381Y-1638095D01*
X-7357143Y-1685714D01*
X-7261905Y-1685714D01*
X-7119048Y-1638095D01*
X-6547620Y-1066666D01*
X-6547620Y-1685714D01*
X-7452381Y-2066666D02*
X-7500000Y-2114285D01*
X-7547620Y-2209523D01*
X-7547620Y-2447619D01*
X-7500000Y-2542857D01*
X-7452381Y-2590476D01*
X-7357143Y-2638095D01*
X-7261905Y-2638095D01*
X-7119048Y-2590476D01*
X-6547620Y-2019047D01*
X-6547620Y-2638095D01*
X-14980953Y1747620D02*
X-14647620Y2223810D01*
X-14409524Y1747620D02*
X-14409524Y2747620D01*
X-14790477Y2747620D01*
X-14885715Y2700000D01*
X-14933334Y2652381D01*
X-14980953Y2557143D01*
X-14980953Y2414286D01*
X-14933334Y2319048D01*
X-14885715Y2271429D01*
X-14790477Y2223810D01*
X-14409524Y2223810D01*
X-15933334Y1747620D02*
X-15361905Y1747620D01*
X-15647620Y1747620D02*
X-15647620Y2747620D01*
X-15552381Y2604762D01*
X-15457143Y2509524D01*
X-15361905Y2461905D01*
X-16314286Y2652381D02*
X-16361905Y2700000D01*
X-16457143Y2747620D01*
X-16695239Y2747620D01*
X-16790477Y2700000D01*
X-16838096Y2652381D01*
X-16885715Y2557143D01*
X-16885715Y2461905D01*
X-16838096Y2319048D01*
X-16266667Y1747620D01*
X-16885715Y1747620D01*
X-17219048Y2747620D02*
X-17838096Y2747620D01*
X-17504762Y2366667D01*
X-17647620Y2366667D01*
X-17742858Y2319048D01*
X-17790477Y2271429D01*
X-17838096Y2176191D01*
X-17838096Y1938096D01*
X-17790477Y1842858D01*
X-17742858Y1795239D01*
X-17647620Y1747620D01*
X-17361905Y1747620D01*
X-17266667Y1795239D01*
X-17219048Y1842858D01*
X-14980953Y547620D02*
X-14647620Y1023810D01*
X-14409524Y547620D02*
X-14409524Y1547620D01*
X-14790477Y1547620D01*
X-14885715Y1500000D01*
X-14933334Y1452381D01*
X-14980953Y1357143D01*
X-14980953Y1214286D01*
X-14933334Y1119048D01*
X-14885715Y1071429D01*
X-14790477Y1023810D01*
X-14409524Y1023810D01*
X-15933334Y547620D02*
X-15361905Y547620D01*
X-15647620Y547620D02*
X-15647620Y1547620D01*
X-15552381Y1404762D01*
X-15457143Y1309524D01*
X-15361905Y1261905D01*
X-16314286Y1452381D02*
X-16361905Y1500000D01*
X-16457143Y1547620D01*
X-16695239Y1547620D01*
X-16790477Y1500000D01*
X-16838096Y1452381D01*
X-16885715Y1357143D01*
X-16885715Y1261905D01*
X-16838096Y1119048D01*
X-16266667Y547620D01*
X-16885715Y547620D01*
X-17742858Y1214286D02*
X-17742858Y547620D01*
X-17504762Y1595239D02*
X-17266667Y880953D01*
X-17885715Y880953D01*
X18252380Y-15538095D02*
X19061904Y-15538095D01*
X19157142Y-15585714D01*
X19204761Y-15633333D01*
X19252380Y-15728571D01*
X19252380Y-15919047D01*
X19204761Y-16014285D01*
X19157142Y-16061904D01*
X19061904Y-16109523D01*
X18252380Y-16109523D01*
X18585714Y-17014285D02*
X19252380Y-17014285D01*
X18204761Y-16776190D02*
X18919047Y-16538095D01*
X18919047Y-17157142D01*
M02*
