G04 #@! TF.GenerationSoftware,KiCad,Pcbnew,(5.1.5)-3*
G04 #@! TF.CreationDate,2021-10-23T00:21:41+02:00*
G04 #@! TF.ProjectId,riser leopard 2OU Oculink,72697365-7220-46c6-956f-706172642032,rev?*
G04 #@! TF.SameCoordinates,PX4d4b990PY36d6160*
G04 #@! TF.FileFunction,Paste,Top*
G04 #@! TF.FilePolarity,Positive*
%FSLAX46Y46*%
G04 Gerber Fmt 4.6, Leading zero omitted, Abs format (unit mm)*
G04 Created by KiCad (PCBNEW (5.1.5)-3) date 2021-10-23 00:21:41*
%MOMM*%
%LPD*%
G04 APERTURE LIST*
%ADD10R,0.600000X0.400000*%
%ADD11R,0.350000X0.300000*%
%ADD12R,0.300000X0.350000*%
%ADD13R,0.500000X0.600000*%
%ADD14R,0.600000X0.500000*%
%ADD15R,0.750000X0.800000*%
%ADD16R,0.800000X4.200000*%
%ADD17R,0.400000X0.600000*%
%ADD18C,0.100000*%
%ADD19R,0.930000X0.930000*%
%ADD20R,0.250000X0.600000*%
%ADD21R,0.600000X0.250000*%
%ADD22R,1.600000X2.800000*%
%ADD23R,0.600000X2.000000*%
%ADD24R,1.400000X0.310000*%
%ADD25R,1.800000X1.200000*%
G04 APERTURE END LIST*
D10*
X52250000Y-25250000D03*
X52250000Y-26150000D03*
D11*
X11150000Y2445000D03*
X11150000Y3005000D03*
D12*
X19370000Y2275000D03*
X19930000Y2275000D03*
D11*
X18925000Y-945000D03*
X18925000Y-1505000D03*
D13*
X18650000Y-24050000D03*
X18650000Y-25150000D03*
D12*
X18895000Y4625000D03*
X19455000Y4625000D03*
D11*
X13775000Y-4620000D03*
X13775000Y-5180000D03*
X20400000Y-945000D03*
X20400000Y-1505000D03*
X15000000Y5680000D03*
X15000000Y5120000D03*
X14975000Y-5180000D03*
X14975000Y-4620000D03*
D13*
X10000000Y3275000D03*
X10000000Y2175000D03*
X16150000Y-4350000D03*
X16150000Y-5450000D03*
X8850000Y3275000D03*
X8850000Y2175000D03*
X17300000Y-5450000D03*
X17300000Y-4350000D03*
D14*
X42075000Y-21375000D03*
X43175000Y-21375000D03*
D11*
X47500000Y-21370000D03*
X47500000Y-21930000D03*
X47050000Y-12530000D03*
X47050000Y-11970000D03*
D14*
X43175000Y-22575000D03*
X42075000Y-22575000D03*
D12*
X51380000Y-13300000D03*
X50820000Y-13300000D03*
D11*
X45900000Y-13380000D03*
X45900000Y-12820000D03*
D12*
X55170000Y-16900000D03*
X55730000Y-16900000D03*
X49020000Y-11900000D03*
X49580000Y-11900000D03*
D13*
X55200000Y-22875000D03*
X55200000Y-21775000D03*
D12*
X42570000Y-16800000D03*
X43130000Y-16800000D03*
D11*
X52350000Y-12720000D03*
X52350000Y-13280000D03*
D13*
X54000000Y-21775000D03*
X54000000Y-22875000D03*
X4800000Y15100000D03*
X4800000Y16200000D03*
D15*
X5550000Y24350000D03*
X5550000Y22850000D03*
D13*
X6000000Y16200000D03*
X6000000Y15100000D03*
D15*
X7050000Y22850000D03*
X7050000Y24350000D03*
D13*
X7200000Y15100000D03*
X7200000Y16200000D03*
D15*
X8550000Y24350000D03*
X8550000Y22850000D03*
D13*
X9900000Y23050000D03*
X9900000Y24150000D03*
X23425000Y-34275000D03*
X23425000Y-33175000D03*
X24575000Y-34275000D03*
X24575000Y-33175000D03*
D11*
X31700000Y-40220000D03*
X31700000Y-40780000D03*
X36700000Y-40220000D03*
X36700000Y-40780000D03*
X40700000Y-40220000D03*
X40700000Y-40780000D03*
X44700000Y-40780000D03*
X44700000Y-40220000D03*
X32700000Y-40780000D03*
X32700000Y-40220000D03*
X37700000Y-40780000D03*
X37700000Y-40220000D03*
X41700000Y-40220000D03*
X41700000Y-40780000D03*
X45700000Y-40220000D03*
X45700000Y-40780000D03*
X67700000Y-40780000D03*
X67700000Y-40220000D03*
X71700000Y-40220000D03*
X71700000Y-40780000D03*
X75700000Y-40220000D03*
X75700000Y-40780000D03*
X79700000Y-40220000D03*
X79700000Y-40780000D03*
X68700000Y-40780000D03*
X68700000Y-40220000D03*
X72700000Y-40780000D03*
X72700000Y-40220000D03*
X76700000Y-40780000D03*
X76700000Y-40220000D03*
X80700000Y-40780000D03*
X80700000Y-40220000D03*
X100700000Y-40220000D03*
X100700000Y-40780000D03*
X104700000Y-40220000D03*
X104700000Y-40780000D03*
X108700000Y-40220000D03*
X108700000Y-40780000D03*
X112700000Y-40220000D03*
X112700000Y-40780000D03*
X101700000Y-40780000D03*
X101700000Y-40220000D03*
X105700000Y-40780000D03*
X105700000Y-40220000D03*
X109700000Y-40780000D03*
X109700000Y-40220000D03*
X113700000Y-40780000D03*
X113700000Y-40220000D03*
X116700000Y-40780000D03*
X116700000Y-40220000D03*
X120700000Y-40780000D03*
X120700000Y-40220000D03*
X124700000Y-40780000D03*
X124700000Y-40220000D03*
X128700000Y-40780000D03*
X128700000Y-40220000D03*
X50700000Y-40220000D03*
X50700000Y-40780000D03*
X54700000Y-40220000D03*
X54700000Y-40780000D03*
X58700000Y-40220000D03*
X58700000Y-40780000D03*
X62700000Y-40220000D03*
X62700000Y-40780000D03*
X117700000Y-40220000D03*
X117700000Y-40780000D03*
X121700000Y-40220000D03*
X121700000Y-40780000D03*
X125700000Y-40220000D03*
X125700000Y-40780000D03*
X129700000Y-40220000D03*
X129700000Y-40780000D03*
X51700000Y-40780000D03*
X51700000Y-40220000D03*
X55700000Y-40780000D03*
X55700000Y-40220000D03*
X59700000Y-40780000D03*
X59700000Y-40220000D03*
X63700000Y-40220000D03*
X63700000Y-40780000D03*
X83700000Y-40780000D03*
X83700000Y-40220000D03*
X87700000Y-40220000D03*
X87700000Y-40780000D03*
X91700000Y-40780000D03*
X91700000Y-40220000D03*
X95700000Y-40780000D03*
X95700000Y-40220000D03*
X84700000Y-40780000D03*
X84700000Y-40220000D03*
X88700000Y-40220000D03*
X88700000Y-40780000D03*
X92700000Y-40220000D03*
X92700000Y-40780000D03*
X96700000Y-40220000D03*
X96700000Y-40780000D03*
D16*
X74700000Y-46258600D03*
X77700000Y-46258600D03*
X85700000Y-46258600D03*
X97700000Y-46258600D03*
X86700000Y-46258600D03*
X89700000Y-46258600D03*
X73700000Y-46258600D03*
X80700000Y-46258600D03*
X91700000Y-46258600D03*
X93700000Y-46258600D03*
X81700000Y-46258600D03*
X75700000Y-46258600D03*
X87700000Y-46258600D03*
X94700000Y-46258600D03*
X95700000Y-46258600D03*
X84700000Y-46258600D03*
X90700000Y-46258600D03*
X83700000Y-46258600D03*
X79700000Y-46258600D03*
X76700000Y-46258600D03*
X82700000Y-46258600D03*
X99700000Y-46258600D03*
X98700000Y-46258600D03*
X88700000Y-46258600D03*
X78700000Y-46258600D03*
X92700000Y-46258600D03*
X96700000Y-46258600D03*
X72700000Y-46258600D03*
X64700000Y-46258600D03*
X58700000Y-46258600D03*
X60700000Y-46258600D03*
X56700000Y-46258600D03*
X50700000Y-46258600D03*
X48700000Y-46258600D03*
X40700000Y-46258600D03*
X55700000Y-46258600D03*
X46700000Y-46258600D03*
X42700000Y-46258600D03*
X54700000Y-46258600D03*
X44700000Y-46258600D03*
X41700000Y-46258600D03*
X52700000Y-46258600D03*
X71700000Y-46258600D03*
X70700000Y-46258600D03*
X69700000Y-46258600D03*
X68700000Y-46258600D03*
X59700000Y-46258600D03*
X57700000Y-46258600D03*
X51700000Y-46258600D03*
X49700000Y-46258600D03*
X66700000Y-46258600D03*
X67700000Y-46258600D03*
X45700000Y-46258600D03*
X61700000Y-46258600D03*
X53700000Y-46258600D03*
X43700000Y-46258600D03*
X65700000Y-46258600D03*
X47700000Y-46258600D03*
X63700000Y-46258600D03*
X62700000Y-46258600D03*
X29700000Y-46258600D03*
X16600000Y-46258600D03*
X36700000Y-46258600D03*
X35700000Y-46258600D03*
X34700000Y-46258600D03*
X33700000Y-46258600D03*
X31700000Y-46258600D03*
X30700000Y-46258600D03*
X39700000Y-46258600D03*
X38700000Y-46258600D03*
X32700000Y-46258600D03*
X37700000Y-46258600D03*
X21600000Y-46258600D03*
X24600000Y-46258600D03*
X23600000Y-46258600D03*
X19600000Y-46258600D03*
X22600000Y-46258600D03*
X20600000Y-46258600D03*
X25600000Y-46258600D03*
X26600000Y-46258600D03*
X17600000Y-46258600D03*
X18600000Y-46258600D03*
X100700000Y-46258600D03*
X101700000Y-46258600D03*
X102700000Y-46258600D03*
X103700000Y-46258600D03*
X104700000Y-46258600D03*
X105700000Y-46258600D03*
X106700000Y-46258600D03*
X107700000Y-46258600D03*
X108700000Y-46258600D03*
X109700000Y-46258600D03*
X110700000Y-46258600D03*
X111700000Y-46258600D03*
X112700000Y-46258600D03*
X113700000Y-46258600D03*
X114700000Y-46258600D03*
X115700000Y-46258600D03*
X116700000Y-46258600D03*
X117700000Y-46258600D03*
X118700000Y-46258600D03*
X119700000Y-46258600D03*
X120700000Y-46258600D03*
X121700000Y-46258600D03*
X122700000Y-46258600D03*
X123700000Y-46258600D03*
X124700000Y-46258600D03*
X125700000Y-46258600D03*
X126700000Y-46258600D03*
X127700000Y-46258600D03*
X128700000Y-46258600D03*
X129700000Y-46258600D03*
X130700000Y-46258600D03*
X131700000Y-46258600D03*
X132700000Y-46258600D03*
D10*
X18750000Y-15900000D03*
X18750000Y-16800000D03*
X21350000Y550000D03*
X21350000Y1450000D03*
D17*
X8450000Y-50000D03*
X9350000Y-50000D03*
D10*
X12400000Y-4825000D03*
X12400000Y-5725000D03*
X18650000Y-22000000D03*
X18650000Y-21100000D03*
X9975000Y7750000D03*
X9975000Y6850000D03*
X18650000Y-19200000D03*
X18650000Y-20100000D03*
X9822600Y-3200000D03*
X9822600Y-2300000D03*
X11077400Y-2300000D03*
X11077400Y-3200000D03*
D17*
X19675000Y-2925000D03*
X20575000Y-2925000D03*
D10*
X12550000Y-12100000D03*
X12550000Y-13000000D03*
X13850000Y-13000000D03*
X13850000Y-12100000D03*
X9950000Y-13000000D03*
X9950000Y-12100000D03*
X11250000Y-12100000D03*
X11250000Y-13000000D03*
X7350000Y-12100000D03*
X7350000Y-13000000D03*
X8650000Y-13000000D03*
X8650000Y-12100000D03*
X4750000Y-13000000D03*
X4750000Y-12100000D03*
X6050000Y-12100000D03*
X6050000Y-13000000D03*
X2150000Y-12100000D03*
X2150000Y-13000000D03*
X3450000Y-13000000D03*
X3450000Y-12100000D03*
X6450000Y-27950000D03*
X6450000Y-28850000D03*
X17800000Y6300000D03*
X17800000Y7200000D03*
X16600000Y6300000D03*
X16600000Y7200000D03*
X13200000Y7200000D03*
X13200000Y6300000D03*
X12000000Y7200000D03*
X12000000Y6300000D03*
X5150000Y-28850000D03*
X5150000Y-27950000D03*
D17*
X19200000Y3450000D03*
X20100000Y3450000D03*
D10*
X47900000Y-10900000D03*
X47900000Y-10000000D03*
X48000000Y-26150000D03*
X48000000Y-25250000D03*
X46600000Y-25250000D03*
X46600000Y-26150000D03*
X49522600Y-21350000D03*
X49522600Y-22250000D03*
X50777400Y-22250000D03*
X50777400Y-21350000D03*
X51100000Y-10450000D03*
X51100000Y-11350000D03*
X45175000Y-21925000D03*
X45175000Y-21025000D03*
X44500000Y-14625000D03*
X44500000Y-13725000D03*
X43300000Y-13725000D03*
X43300000Y-14625000D03*
D17*
X43300000Y-18250000D03*
X42400000Y-18250000D03*
X42400000Y-19450000D03*
X43300000Y-19450000D03*
X55000000Y-18250000D03*
X55900000Y-18250000D03*
X55900000Y-19450000D03*
X55000000Y-19450000D03*
D18*
G36*
X54511091Y-14314645D02*
G01*
X54935355Y-14738909D01*
X54652513Y-15021751D01*
X54228249Y-14597487D01*
X54511091Y-14314645D01*
G37*
G36*
X55147487Y-13678249D02*
G01*
X55571751Y-14102513D01*
X55288909Y-14385355D01*
X54864645Y-13961091D01*
X55147487Y-13678249D01*
G37*
G36*
X55997487Y-14528249D02*
G01*
X56421751Y-14952513D01*
X56138909Y-15235355D01*
X55714645Y-14811091D01*
X55997487Y-14528249D01*
G37*
G36*
X55361091Y-15164645D02*
G01*
X55785355Y-15588909D01*
X55502513Y-15871751D01*
X55078249Y-15447487D01*
X55361091Y-15164645D01*
G37*
D10*
X65200000Y-38450000D03*
X65200000Y-37550000D03*
X34700000Y-39750000D03*
X34700000Y-40650000D03*
X66450000Y-38450000D03*
X66450000Y-37550000D03*
X99450000Y-37550000D03*
X99450000Y-38450000D03*
D17*
X23100000Y8400000D03*
X22200000Y8400000D03*
X59500000Y8400000D03*
X60400000Y8400000D03*
X95500000Y8375000D03*
X96400000Y8375000D03*
X114400000Y8400000D03*
X113500000Y8400000D03*
X42400000Y8400000D03*
X41500000Y8400000D03*
X77500000Y8400000D03*
X78400000Y8400000D03*
D10*
X37150000Y13700000D03*
X37150000Y12800000D03*
X70950000Y15350000D03*
X70950000Y16250000D03*
X106950000Y16250000D03*
X106950000Y15350000D03*
X124950000Y15350000D03*
X124950000Y16250000D03*
X52950000Y16250000D03*
X52950000Y15350000D03*
X88950000Y16250000D03*
X88950000Y15350000D03*
X55325000Y20125000D03*
X55325000Y19225000D03*
X127700000Y19225000D03*
X127700000Y20125000D03*
X98200000Y-37550000D03*
X98200000Y-38450000D03*
D19*
X14475000Y975000D03*
X16025000Y975000D03*
X16025000Y-575000D03*
D20*
X17000000Y2600000D03*
X16500000Y2600000D03*
X16000000Y2600000D03*
X15500000Y2600000D03*
X15000000Y2600000D03*
X14500000Y2600000D03*
X14000000Y2600000D03*
X13500000Y2600000D03*
D21*
X12850000Y1950000D03*
X12850000Y1450000D03*
X12850000Y950000D03*
X12850000Y450000D03*
X12850000Y-50000D03*
X12850000Y-550000D03*
X12850000Y-1050000D03*
X12850000Y-1550000D03*
D20*
X13500000Y-2200000D03*
X14000000Y-2200000D03*
X14500000Y-2200000D03*
X15000000Y-2200000D03*
X15500000Y-2200000D03*
X16000000Y-2200000D03*
X16500000Y-2200000D03*
X17000000Y-2200000D03*
D21*
X17650000Y-1550000D03*
X17650000Y-1050000D03*
X17650000Y-550000D03*
X17650000Y-50000D03*
X17650000Y450000D03*
X17650000Y950000D03*
X17650000Y1450000D03*
X17650000Y1950000D03*
D19*
X14475000Y-575000D03*
X49925000Y-17875000D03*
D20*
X47400000Y-14700000D03*
X47900000Y-14700000D03*
X48400000Y-14700000D03*
X48900000Y-14700000D03*
X49400000Y-14700000D03*
X49900000Y-14700000D03*
X50400000Y-14700000D03*
X50900000Y-14700000D03*
D21*
X51550000Y-15350000D03*
X51550000Y-15850000D03*
X51550000Y-16350000D03*
X51550000Y-16850000D03*
X51550000Y-17350000D03*
X51550000Y-17850000D03*
X51550000Y-18350000D03*
X51550000Y-18850000D03*
D20*
X50900000Y-19500000D03*
X50400000Y-19500000D03*
X49900000Y-19500000D03*
X49400000Y-19500000D03*
X48900000Y-19500000D03*
X48400000Y-19500000D03*
X47900000Y-19500000D03*
X47400000Y-19500000D03*
D21*
X46750000Y-18850000D03*
X46750000Y-18350000D03*
X46750000Y-17850000D03*
X46750000Y-17350000D03*
X46750000Y-16850000D03*
X46750000Y-16350000D03*
X46750000Y-15850000D03*
X46750000Y-15350000D03*
D19*
X49925000Y-16325000D03*
X48375000Y-16325000D03*
X48375000Y-17875000D03*
D22*
X1050000Y21600000D03*
X1050000Y25400000D03*
X1100000Y13800000D03*
X1100000Y17600000D03*
D23*
X16585000Y-25850000D03*
X15315000Y-25850000D03*
X14045000Y-25850000D03*
X12775000Y-25850000D03*
X11505000Y-25850000D03*
X10235000Y-25850000D03*
X8965000Y-25850000D03*
X7695000Y-25850000D03*
X6425000Y-25850000D03*
X5155000Y-25850000D03*
X3885000Y-25850000D03*
X2615000Y-25850000D03*
X2615000Y-16450000D03*
X3885000Y-16450000D03*
X5155000Y-16450000D03*
X6425000Y-16450000D03*
X7695000Y-16450000D03*
X8965000Y-16450000D03*
X10235000Y-16450000D03*
X11505000Y-16450000D03*
X12775000Y-16450000D03*
X14045000Y-16450000D03*
X15315000Y-16450000D03*
X16585000Y-16450000D03*
D24*
X101540000Y2900000D03*
X101540000Y3400000D03*
X101540000Y3900000D03*
X101540000Y4400000D03*
X101540000Y4900000D03*
X101540000Y5400000D03*
X101540000Y5900000D03*
X101540000Y6400000D03*
X101540000Y6900000D03*
X101540000Y7400000D03*
X101540000Y7900000D03*
X101540000Y8400000D03*
X101540000Y8900000D03*
X101540000Y9400000D03*
X101540000Y9900000D03*
X101540000Y10400000D03*
X101540000Y10900000D03*
X101540000Y11400000D03*
X101540000Y11900000D03*
X101540000Y12400000D03*
X101540000Y12900000D03*
X99640000Y2400000D03*
X99640000Y2900000D03*
X99640000Y3400000D03*
X99640000Y3900000D03*
X99640000Y4400000D03*
X99640000Y4900000D03*
X99640000Y5400000D03*
X99640000Y5900000D03*
X99640000Y6400000D03*
X99640000Y6900000D03*
X99640000Y7400000D03*
X99640000Y7900000D03*
X99640000Y8400000D03*
X99640000Y8900000D03*
X99640000Y9400000D03*
X99640000Y9900000D03*
X99640000Y10400000D03*
X99640000Y10900000D03*
X99640000Y11400000D03*
X99640000Y11900000D03*
X99640000Y12400000D03*
D25*
X104590000Y2900000D03*
X96590000Y2550000D03*
X96590000Y12250000D03*
X104590000Y12600000D03*
X68590000Y12600000D03*
X60590000Y12250000D03*
X60590000Y2550000D03*
X68590000Y2900000D03*
D24*
X63640000Y12400000D03*
X63640000Y11900000D03*
X63640000Y11400000D03*
X63640000Y10900000D03*
X63640000Y10400000D03*
X63640000Y9900000D03*
X63640000Y9400000D03*
X63640000Y8900000D03*
X63640000Y8400000D03*
X63640000Y7900000D03*
X63640000Y7400000D03*
X63640000Y6900000D03*
X63640000Y6400000D03*
X63640000Y5900000D03*
X63640000Y5400000D03*
X63640000Y4900000D03*
X63640000Y4400000D03*
X63640000Y3900000D03*
X63640000Y3400000D03*
X63640000Y2900000D03*
X63640000Y2400000D03*
X65540000Y12900000D03*
X65540000Y12400000D03*
X65540000Y11900000D03*
X65540000Y11400000D03*
X65540000Y10900000D03*
X65540000Y10400000D03*
X65540000Y9900000D03*
X65540000Y9400000D03*
X65540000Y8900000D03*
X65540000Y8400000D03*
X65540000Y7900000D03*
X65540000Y7400000D03*
X65540000Y6900000D03*
X65540000Y6400000D03*
X65540000Y5900000D03*
X65540000Y5400000D03*
X65540000Y4900000D03*
X65540000Y4400000D03*
X65540000Y3900000D03*
X65540000Y3400000D03*
X65540000Y2900000D03*
X83540000Y2900000D03*
X83540000Y3400000D03*
X83540000Y3900000D03*
X83540000Y4400000D03*
X83540000Y4900000D03*
X83540000Y5400000D03*
X83540000Y5900000D03*
X83540000Y6400000D03*
X83540000Y6900000D03*
X83540000Y7400000D03*
X83540000Y7900000D03*
X83540000Y8400000D03*
X83540000Y8900000D03*
X83540000Y9400000D03*
X83540000Y9900000D03*
X83540000Y10400000D03*
X83540000Y10900000D03*
X83540000Y11400000D03*
X83540000Y11900000D03*
X83540000Y12400000D03*
X83540000Y12900000D03*
X81640000Y2400000D03*
X81640000Y2900000D03*
X81640000Y3400000D03*
X81640000Y3900000D03*
X81640000Y4400000D03*
X81640000Y4900000D03*
X81640000Y5400000D03*
X81640000Y5900000D03*
X81640000Y6400000D03*
X81640000Y6900000D03*
X81640000Y7400000D03*
X81640000Y7900000D03*
X81640000Y8400000D03*
X81640000Y8900000D03*
X81640000Y9400000D03*
X81640000Y9900000D03*
X81640000Y10400000D03*
X81640000Y10900000D03*
X81640000Y11400000D03*
X81640000Y11900000D03*
X81640000Y12400000D03*
D25*
X86590000Y2900000D03*
X78590000Y2550000D03*
X78590000Y12250000D03*
X86590000Y12600000D03*
X32590000Y12600000D03*
X24590000Y12250000D03*
X24590000Y2550000D03*
X32590000Y2900000D03*
D24*
X27640000Y12400000D03*
X27640000Y11900000D03*
X27640000Y11400000D03*
X27640000Y10900000D03*
X27640000Y10400000D03*
X27640000Y9900000D03*
X27640000Y9400000D03*
X27640000Y8900000D03*
X27640000Y8400000D03*
X27640000Y7900000D03*
X27640000Y7400000D03*
X27640000Y6900000D03*
X27640000Y6400000D03*
X27640000Y5900000D03*
X27640000Y5400000D03*
X27640000Y4900000D03*
X27640000Y4400000D03*
X27640000Y3900000D03*
X27640000Y3400000D03*
X27640000Y2900000D03*
X27640000Y2400000D03*
X29540000Y12900000D03*
X29540000Y12400000D03*
X29540000Y11900000D03*
X29540000Y11400000D03*
X29540000Y10900000D03*
X29540000Y10400000D03*
X29540000Y9900000D03*
X29540000Y9400000D03*
X29540000Y8900000D03*
X29540000Y8400000D03*
X29540000Y7900000D03*
X29540000Y7400000D03*
X29540000Y6900000D03*
X29540000Y6400000D03*
X29540000Y5900000D03*
X29540000Y5400000D03*
X29540000Y4900000D03*
X29540000Y4400000D03*
X29540000Y3900000D03*
X29540000Y3400000D03*
X29540000Y2900000D03*
X47540000Y2900000D03*
X47540000Y3400000D03*
X47540000Y3900000D03*
X47540000Y4400000D03*
X47540000Y4900000D03*
X47540000Y5400000D03*
X47540000Y5900000D03*
X47540000Y6400000D03*
X47540000Y6900000D03*
X47540000Y7400000D03*
X47540000Y7900000D03*
X47540000Y8400000D03*
X47540000Y8900000D03*
X47540000Y9400000D03*
X47540000Y9900000D03*
X47540000Y10400000D03*
X47540000Y10900000D03*
X47540000Y11400000D03*
X47540000Y11900000D03*
X47540000Y12400000D03*
X47540000Y12900000D03*
X45640000Y2400000D03*
X45640000Y2900000D03*
X45640000Y3400000D03*
X45640000Y3900000D03*
X45640000Y4400000D03*
X45640000Y4900000D03*
X45640000Y5400000D03*
X45640000Y5900000D03*
X45640000Y6400000D03*
X45640000Y6900000D03*
X45640000Y7400000D03*
X45640000Y7900000D03*
X45640000Y8400000D03*
X45640000Y8900000D03*
X45640000Y9400000D03*
X45640000Y9900000D03*
X45640000Y10400000D03*
X45640000Y10900000D03*
X45640000Y11400000D03*
X45640000Y11900000D03*
X45640000Y12400000D03*
D25*
X50590000Y2900000D03*
X42590000Y2550000D03*
X42590000Y12250000D03*
X50590000Y12600000D03*
D17*
X45250000Y-11600000D03*
X44350000Y-11600000D03*
D10*
X58175000Y-17500000D03*
X58175000Y-18400000D03*
D17*
X43450000Y-11600000D03*
X42550000Y-11600000D03*
D10*
X58175000Y-19300000D03*
X58175000Y-20200000D03*
D17*
X41150000Y-17200000D03*
X40250000Y-17200000D03*
D10*
X58175000Y-13100000D03*
X58175000Y-12200000D03*
D17*
X39350000Y-17200000D03*
X38450000Y-17200000D03*
D10*
X58175000Y-14900000D03*
X58175000Y-14000000D03*
D17*
X18600000Y9000000D03*
X17700000Y9000000D03*
X16700000Y9000000D03*
X15800000Y9000000D03*
X13100000Y9000000D03*
X14000000Y9000000D03*
X11200000Y9000000D03*
X12100000Y9000000D03*
D24*
X119540000Y2900000D03*
X119540000Y3400000D03*
X119540000Y3900000D03*
X119540000Y4400000D03*
X119540000Y4900000D03*
X119540000Y5400000D03*
X119540000Y5900000D03*
X119540000Y6400000D03*
X119540000Y6900000D03*
X119540000Y7400000D03*
X119540000Y7900000D03*
X119540000Y8400000D03*
X119540000Y8900000D03*
X119540000Y9400000D03*
X119540000Y9900000D03*
X119540000Y10400000D03*
X119540000Y10900000D03*
X119540000Y11400000D03*
X119540000Y11900000D03*
X119540000Y12400000D03*
X119540000Y12900000D03*
X117640000Y2400000D03*
X117640000Y2900000D03*
X117640000Y3400000D03*
X117640000Y3900000D03*
X117640000Y4400000D03*
X117640000Y4900000D03*
X117640000Y5400000D03*
X117640000Y5900000D03*
X117640000Y6400000D03*
X117640000Y6900000D03*
X117640000Y7400000D03*
X117640000Y7900000D03*
X117640000Y8400000D03*
X117640000Y8900000D03*
X117640000Y9400000D03*
X117640000Y9900000D03*
X117640000Y10400000D03*
X117640000Y10900000D03*
X117640000Y11400000D03*
X117640000Y11900000D03*
X117640000Y12400000D03*
D25*
X122590000Y3050000D03*
X114590000Y2550000D03*
X114590000Y12250000D03*
X122590000Y12750000D03*
M02*
