G04 #@! TF.GenerationSoftware,KiCad,Pcbnew,(5.1.5)-3*
G04 #@! TF.CreationDate,2021-10-23T00:21:41+02:00*
G04 #@! TF.ProjectId,riser leopard 2OU Oculink,72697365-7220-46c6-956f-706172642032,rev?*
G04 #@! TF.SameCoordinates,PX4d4b990PY36d6160*
G04 #@! TF.FileFunction,Copper,L3,Inr*
G04 #@! TF.FilePolarity,Positive*
%FSLAX46Y46*%
G04 Gerber Fmt 4.6, Leading zero omitted, Abs format (unit mm)*
G04 Created by KiCad (PCBNEW (5.1.5)-3) date 2021-10-23 00:21:41*
%MOMM*%
%LPD*%
G04 APERTURE LIST*
%ADD10C,0.800000*%
%ADD11C,6.400000*%
%ADD12C,1.500000*%
%ADD13C,1.150000*%
%ADD14C,1.250000*%
%ADD15C,0.500000*%
%ADD16C,0.600000*%
%ADD17C,0.400000*%
%ADD18C,0.350000*%
%ADD19C,0.300000*%
%ADD20C,0.250000*%
%ADD21C,0.200000*%
%ADD22C,0.152400*%
%ADD23C,0.254000*%
G04 APERTURE END LIST*
D10*
X1697056Y1697056D03*
X0Y2400000D03*
X-1697056Y1697056D03*
X-2400000Y0D03*
X-1697056Y-1697056D03*
X0Y-2400000D03*
X1697056Y-1697056D03*
X2400000Y0D03*
D11*
X0Y0D03*
X133900000Y-10000D03*
D10*
X136300000Y-10000D03*
X135597056Y-1707056D03*
X133900000Y-2410000D03*
X132202944Y-1707056D03*
X131500000Y-10000D03*
X132202944Y1687056D03*
X133900000Y2390000D03*
X135597056Y1687056D03*
D12*
X100280000Y1070000D03*
X100280000Y14230000D03*
D13*
X101540000Y2030000D03*
D14*
X101900000Y13930000D03*
X65900000Y13930000D03*
D13*
X65540000Y2030000D03*
D12*
X64280000Y14230000D03*
X64280000Y1070000D03*
X82280000Y1070000D03*
X82280000Y14230000D03*
D13*
X83540000Y2030000D03*
D14*
X83900000Y13930000D03*
X29900000Y13930000D03*
D13*
X29540000Y2030000D03*
D12*
X28280000Y14230000D03*
X28280000Y1070000D03*
X46280000Y1070000D03*
X46280000Y14230000D03*
D13*
X47540000Y2030000D03*
D14*
X47900000Y13930000D03*
D12*
X118280000Y1070000D03*
X118280000Y14230000D03*
D13*
X119540000Y2030000D03*
X119900000Y13930000D03*
D15*
X14275000Y1250000D03*
D16*
X19600000Y-43306600D03*
D15*
X36200000Y-42872200D03*
X33200000Y-42872200D03*
X30325000Y-42872200D03*
X46200000Y-42872200D03*
X49200000Y-42872200D03*
X66700000Y-42872200D03*
X64200000Y-42872200D03*
X99700000Y-42872200D03*
X130200000Y-42872200D03*
X128200000Y-42872200D03*
X126200000Y-42872200D03*
X124200000Y-42872200D03*
X122200000Y-42872200D03*
X120200000Y-42872200D03*
X118200000Y-42872200D03*
X116200000Y-42872200D03*
X114200000Y-42872200D03*
X112200000Y-42872200D03*
X110200000Y-42872200D03*
X108200000Y-42872200D03*
X106200000Y-42872200D03*
X104200000Y-42872200D03*
X102200000Y-42872200D03*
X97200000Y-42872200D03*
X95200000Y-42872200D03*
X93200000Y-42872200D03*
X91200000Y-42872200D03*
X89200000Y-42872200D03*
X87200000Y-42872200D03*
X85200000Y-42872200D03*
X83200000Y-42872200D03*
X81200000Y-42872200D03*
X79200000Y-42872200D03*
X77200000Y-42872200D03*
X75200000Y-42872200D03*
X73200000Y-42872200D03*
X71200000Y-42872200D03*
X69200000Y-42872200D03*
X62200000Y-42872200D03*
X60200000Y-42872200D03*
X58200000Y-42872200D03*
X56200000Y-42872200D03*
X54200000Y-42872200D03*
X52200000Y-42872200D03*
X44200000Y-42872200D03*
X42200000Y-42872200D03*
X40200000Y-42872200D03*
X38200000Y-42872200D03*
X17550000Y-16450000D03*
X15350000Y-14650000D03*
D17*
X121050000Y4900000D03*
X116100000Y4400000D03*
X121100000Y10900000D03*
X116100000Y10400000D03*
X121100000Y9400000D03*
X116100000Y7400000D03*
X116100000Y5900000D03*
X121050000Y6400000D03*
X121100000Y7900000D03*
X116100000Y8900000D03*
D16*
X114600000Y13350000D03*
D15*
X122850000Y13900000D03*
X114200000Y1350000D03*
D16*
X132700000Y-41000000D03*
D17*
X98100000Y4400000D03*
X98100000Y10400000D03*
X103100000Y9400000D03*
X103050000Y6400000D03*
X98100000Y7400000D03*
X103100000Y7900000D03*
X98100000Y5900000D03*
X103100000Y10900000D03*
X103050000Y4900000D03*
D15*
X96600000Y13350000D03*
X104850000Y13900000D03*
D17*
X98100000Y8900000D03*
D15*
X96200000Y1350000D03*
X105150000Y1500000D03*
D17*
X80100000Y8900000D03*
X62100000Y8900000D03*
X44100000Y8900000D03*
D15*
X87150000Y1500000D03*
X51150000Y1500000D03*
D17*
X80100000Y5900000D03*
X62100000Y5900000D03*
X44100000Y5900000D03*
X80100000Y10400000D03*
X62100000Y10400000D03*
X44100000Y10400000D03*
X85100000Y9400000D03*
X67100000Y9400000D03*
X49100000Y9400000D03*
X80100000Y4400000D03*
X62100000Y4400000D03*
X44100000Y4400000D03*
X85050000Y6400000D03*
X67050000Y6400000D03*
X49050000Y6400000D03*
X80100000Y7400000D03*
X62100000Y7400000D03*
X44100000Y7400000D03*
X85100000Y7900000D03*
X67100000Y7900000D03*
X49100000Y7900000D03*
X85100000Y10900000D03*
X67100000Y10900000D03*
X49100000Y10900000D03*
D15*
X78600000Y13350000D03*
X60600000Y13350000D03*
X42600000Y13350000D03*
D17*
X85050000Y4900000D03*
X67050000Y4900000D03*
X49050000Y4900000D03*
D15*
X86850000Y13900000D03*
X68850000Y13900000D03*
X50850000Y13900000D03*
X15000000Y6325000D03*
X45600000Y-19375000D03*
X41900000Y-17200000D03*
X46750000Y-14750000D03*
X51550000Y-14700000D03*
X66450000Y-36750000D03*
X99450000Y-36850000D03*
X35550000Y-38550000D03*
X68150000Y1150000D03*
D17*
X26100000Y8900000D03*
D15*
X24600000Y13350000D03*
D17*
X31100000Y7900000D03*
X26100000Y4400000D03*
X31100000Y9400000D03*
X31050000Y4900000D03*
X31050000Y6400000D03*
X26100000Y7400000D03*
X26100000Y5900000D03*
X26100000Y10400000D03*
D15*
X32850000Y13900000D03*
X33150000Y1500000D03*
X46600000Y-26875000D03*
X48000000Y-26875000D03*
X52250000Y-26875000D03*
X55200000Y-23725000D03*
X54000000Y-23725000D03*
X47500000Y-22650000D03*
X41225000Y-22575000D03*
X41250000Y-21375000D03*
X41750000Y-11600000D03*
X22600000Y-43325000D03*
X21175000Y-1500000D03*
X18925000Y-2150000D03*
X17650000Y2600000D03*
X13175000Y3400000D03*
X8450000Y-875000D03*
X13500000Y-3000000D03*
X17650000Y-2200000D03*
D18*
X22650000Y11700000D03*
X22650000Y9925000D03*
X22950000Y4950000D03*
X22950000Y3175000D03*
X40650000Y11700000D03*
X58650000Y11700000D03*
X76650000Y11700000D03*
X94650000Y11700000D03*
X112650000Y11700000D03*
X40950000Y3175000D03*
X58950000Y3175000D03*
X76950000Y3175000D03*
X94950000Y3175000D03*
X112950000Y3175000D03*
X40650000Y9925000D03*
X58650000Y9925000D03*
X76650000Y9925000D03*
X94650000Y9925000D03*
X112650000Y9925000D03*
X40950000Y4950000D03*
X58950000Y4950000D03*
X76950000Y4950000D03*
X94950000Y4950000D03*
X112950000Y4950000D03*
X46725000Y-3750000D03*
X46725000Y-1975000D03*
X48375000Y-8100000D03*
X48375000Y-6325000D03*
X14700000Y11400000D03*
X13400000Y12625000D03*
X17050000Y11425000D03*
X18350000Y10200000D03*
D15*
X19375000Y9000000D03*
X14950000Y9000000D03*
X10400000Y9000000D03*
X9050000Y7750000D03*
X46725000Y-37500000D03*
X24575000Y-32350000D03*
X23425000Y-32375000D03*
X20100000Y4625000D03*
X20625000Y2275000D03*
X9000000Y4375000D03*
X10000000Y4375000D03*
X10975000Y3875000D03*
X13750000Y-6050000D03*
X14900000Y-6075000D03*
X12300000Y-7050000D03*
X13550000Y-7050000D03*
X14800000Y-7050000D03*
X16050000Y-7050000D03*
X17300000Y-7050000D03*
X15275000Y1250000D03*
X16275000Y1250000D03*
X14275000Y250000D03*
X15275000Y250000D03*
X16275000Y250000D03*
X14275000Y-750000D03*
X15275000Y-750000D03*
X16275000Y-750000D03*
X3375000Y20775000D03*
X4625000Y20775000D03*
X5875000Y20775000D03*
X7125000Y20775000D03*
X8375000Y20775000D03*
X3375000Y19525000D03*
X4625000Y19525000D03*
X5875000Y19525000D03*
X7125000Y19525000D03*
X8375000Y19525000D03*
X3375000Y18275000D03*
X4625000Y18275000D03*
X5875000Y18275000D03*
X7125000Y18275000D03*
X50150000Y-16075000D03*
X50150000Y-17075000D03*
X50150000Y-18075000D03*
X48150000Y-18075000D03*
X49150000Y-18075000D03*
X49150000Y-16075000D03*
X48150000Y-17075000D03*
X48150000Y-16075000D03*
X49150000Y-17075000D03*
X24575000Y1275000D03*
D17*
X31000000Y10900000D03*
D15*
X52425000Y-18850000D03*
X49900000Y-11175000D03*
X46875000Y-11150000D03*
X45400000Y-10075000D03*
X45975000Y-11600000D03*
X123400000Y1400000D03*
X52475000Y-11600000D03*
X18650000Y-22800000D03*
X12800000Y-22650000D03*
X42550000Y1300000D03*
X2625000Y-17975000D03*
X60900000Y1450000D03*
X58900000Y-20200000D03*
D18*
X59900000Y-17975000D03*
X59900000Y-19750000D03*
D15*
X58875000Y-17500000D03*
X46400000Y-10075000D03*
X78600000Y1275000D03*
X57275000Y-12200000D03*
X56475000Y-17375000D03*
X57350000Y-14900000D03*
D18*
X60050000Y-12650000D03*
X60050000Y-14425000D03*
D15*
X37900000Y-17200000D03*
D18*
X63550000Y-21400000D03*
X61850000Y-21400000D03*
X67050000Y-21400000D03*
X70550000Y-21400000D03*
X74050000Y-21400000D03*
X77300000Y-21400000D03*
X80800000Y-21400000D03*
X84300000Y-21400000D03*
X87800000Y-21400000D03*
X91300000Y-21400000D03*
X94800000Y-21400000D03*
X98300000Y-21400000D03*
X102050000Y-21400000D03*
X105550000Y-21400000D03*
X109050000Y-21400000D03*
X112550000Y-21400000D03*
X116050000Y-21400000D03*
X119550000Y-21400000D03*
X123050000Y-21400000D03*
X126550000Y-21400000D03*
X130300000Y-21400000D03*
X65350000Y-21400000D03*
X68850000Y-21400000D03*
X72350000Y-21400000D03*
X75600000Y-21400000D03*
X79100000Y-21400000D03*
X82600000Y-21400000D03*
X86100000Y-21400000D03*
X89600000Y-21400000D03*
X93100000Y-21400000D03*
X96600000Y-21400000D03*
X100350000Y-21400000D03*
X103850000Y-21400000D03*
X107350000Y-21400000D03*
X110850000Y-21400000D03*
X114350000Y-21400000D03*
X117850000Y-21400000D03*
X121350000Y-21400000D03*
X124850000Y-21400000D03*
X128600000Y-21400000D03*
X65300000Y-22350000D03*
X63600000Y-22350000D03*
X103800000Y-22350000D03*
X93050000Y-22350000D03*
X68800000Y-22350000D03*
X72300000Y-22350000D03*
X86050000Y-22350000D03*
X96550000Y-22350000D03*
X107300000Y-22350000D03*
X79050000Y-22350000D03*
X117800000Y-22350000D03*
X75800000Y-22350000D03*
X116100000Y-22350000D03*
X119600000Y-22350000D03*
X123100000Y-22350000D03*
X112600000Y-22350000D03*
X82550000Y-22350000D03*
X94850000Y-22350000D03*
X132050000Y-22350000D03*
X77350000Y-22350000D03*
X91350000Y-22350000D03*
X84350000Y-22350000D03*
X87850000Y-22350000D03*
X126850000Y-22350000D03*
X121300000Y-22350000D03*
X124800000Y-22350000D03*
X128550000Y-22350000D03*
X110800000Y-22350000D03*
X98600000Y-22350000D03*
X102100000Y-22350000D03*
X80850000Y-22350000D03*
X89550000Y-22350000D03*
X74100000Y-22350000D03*
X130350000Y-22350000D03*
X114300000Y-22350000D03*
X67100000Y-22350000D03*
X70600000Y-22350000D03*
X100300000Y-22350000D03*
X109100000Y-22350000D03*
X105600000Y-22350000D03*
X23550000Y-18900000D03*
X21850000Y-18900000D03*
X27050000Y-18900000D03*
X30550000Y-18900000D03*
X34050000Y-18900000D03*
X32350000Y-18900000D03*
X25350000Y-18900000D03*
X28850000Y-18900000D03*
X25300000Y-19850000D03*
X34100000Y-19850000D03*
X35800000Y-19850000D03*
X23600000Y-19850000D03*
X32300000Y-19850000D03*
X28800000Y-19850000D03*
X30600000Y-19850000D03*
X27100000Y-19850000D03*
D15*
X103750000Y14725000D03*
X85750000Y14800000D03*
X67750000Y14775000D03*
X49750000Y14975000D03*
X31200000Y14675000D03*
X17600000Y-34550000D03*
X18600000Y-34550000D03*
X17600000Y-35550000D03*
X18600000Y-35550000D03*
X17600000Y-36550000D03*
X18600000Y-36550000D03*
X17600000Y-37550000D03*
X18600000Y-37550000D03*
X17600000Y-38550000D03*
X18600000Y-38550000D03*
X17600000Y-39550000D03*
X18600000Y-39550000D03*
X17600000Y-40550000D03*
X18600000Y-40550000D03*
X111700000Y15200000D03*
X93700000Y15200000D03*
X75700000Y15200000D03*
X57700000Y15200000D03*
X111700000Y1475000D03*
X93700000Y1475000D03*
X57700000Y1475000D03*
X40425000Y1500000D03*
X34025000Y15100000D03*
X39950000Y-23750000D03*
X18625000Y2200000D03*
X8900000Y1100000D03*
X9975000Y1100000D03*
X11125000Y1100000D03*
X18600000Y-275000D03*
X25650000Y14650000D03*
X43850000Y14550000D03*
X61850000Y14550000D03*
X79850000Y14550000D03*
X97850000Y14550000D03*
X115850000Y14550000D03*
X40950000Y-23750000D03*
X41950000Y-23750000D03*
X42950000Y-23750000D03*
X43950000Y-23750000D03*
X44950000Y-23750000D03*
X40400000Y-24750000D03*
X41400000Y-24750000D03*
X39400000Y-24750000D03*
X47500000Y-20450000D03*
X47050000Y-13475000D03*
X50025000Y-13725000D03*
X23875000Y-38850000D03*
X24875000Y-38850000D03*
X23875000Y-39850000D03*
X24875000Y-39850000D03*
X23875000Y-40850000D03*
X24875000Y-40850000D03*
X23875000Y-41850000D03*
X24875000Y-41850000D03*
X23875000Y-42850000D03*
X24875000Y-42850000D03*
X2625000Y14950000D03*
X3625000Y14950000D03*
X2625000Y13950000D03*
X3625000Y13950000D03*
X4625000Y13950000D03*
X5625000Y13950000D03*
X6625000Y13950000D03*
X3625000Y12950000D03*
X2625000Y12950000D03*
X40750000Y8400000D03*
X20850000Y14550000D03*
X58750000Y8400000D03*
X76750000Y8400000D03*
X94750000Y8400000D03*
X112750000Y8400000D03*
D18*
X20725000Y3425000D03*
D15*
X8700000Y-28550000D03*
X9950000Y-28550000D03*
X11200000Y-28550000D03*
X8700000Y-29800000D03*
X9950000Y-29800000D03*
X11200000Y-29800000D03*
X30825000Y2475000D03*
X24400000Y275000D03*
X48875000Y2300000D03*
X41500000Y6925000D03*
X66875000Y2425000D03*
X84850000Y2325000D03*
X77500000Y6925000D03*
X95500000Y7025000D03*
X102900000Y2450000D03*
X87050000Y9125000D03*
X87850000Y14700000D03*
X121025000Y2275000D03*
X116775000Y14975000D03*
X37200000Y14600000D03*
X18750000Y-15150000D03*
X17800000Y-21100000D03*
X17800000Y-20100000D03*
X23525000Y-35325000D03*
X24525000Y-35325000D03*
X23525000Y-36325000D03*
X24525000Y-36325000D03*
X5150000Y-29575000D03*
X6450000Y-29575000D03*
X11250000Y-11375000D03*
X9950000Y-11375000D03*
X8650000Y-11375000D03*
X7350000Y-11375000D03*
X6050000Y-11375000D03*
X4750000Y-11375000D03*
X3450000Y-11375000D03*
X2150000Y-11375000D03*
X13850000Y-11375000D03*
X12550000Y-11375000D03*
X17500000Y-25850000D03*
X18650000Y-26025000D03*
X55325000Y18350000D03*
X42300000Y15375000D03*
X18050000Y4400000D03*
X18400000Y3600000D03*
X17475000Y3600000D03*
X45175000Y-20325000D03*
X15000000Y4425000D03*
X15000000Y3725000D03*
X13800000Y-3900000D03*
X14975000Y-3925000D03*
X15650000Y-3250000D03*
X16900000Y-3250000D03*
X18150000Y-3250000D03*
X20250000Y800000D03*
X20250000Y50000D03*
X21100000Y-325000D03*
X49075000Y-10100000D03*
X48875000Y-11150000D03*
X48500000Y-13025000D03*
X52600000Y-14325000D03*
X52600000Y-15325000D03*
X52750000Y-17300000D03*
X53750000Y-17300000D03*
X53100000Y-20825000D03*
X54350000Y-20825000D03*
X55600000Y-20825000D03*
X56850000Y-20825000D03*
X56375000Y-21850000D03*
X57625000Y-21850000D03*
X44100000Y-17325000D03*
X45350000Y-17325000D03*
X45775000Y-15525000D03*
X45775000Y-14275000D03*
D18*
X22448800Y-18900000D03*
X22950000Y3798800D03*
X25954168Y-18900000D03*
X25450000Y4898800D03*
X29448800Y-18900000D03*
X25400000Y9398800D03*
X32948800Y-18900000D03*
X22650000Y10548800D03*
X22951200Y-18900000D03*
X22950000Y4301200D03*
X26456568Y-18900000D03*
X25450000Y5401200D03*
X29951200Y-18900000D03*
X25400000Y9901200D03*
X33451200Y-18900000D03*
X22650000Y11051200D03*
X76198800Y-21400000D03*
X58950000Y3798800D03*
X79698800Y-21400000D03*
X61450000Y4898800D03*
X83198800Y-21400000D03*
X61400000Y9398800D03*
X86698800Y-21400000D03*
X58650000Y10548800D03*
X76701200Y-21400000D03*
X58950000Y4301200D03*
X80201200Y-21400000D03*
X61450000Y5401200D03*
X83701200Y-21400000D03*
X61400000Y9901200D03*
X87201200Y-21400000D03*
X58650000Y11051200D03*
X104448800Y-21400000D03*
X94950000Y3798800D03*
X107948800Y-21400000D03*
X97450000Y4898800D03*
X111448800Y-21400000D03*
X97400000Y9398800D03*
X114948800Y-21400000D03*
X94650000Y10548800D03*
X104951200Y-21400000D03*
X94950000Y4301200D03*
X108451200Y-21400000D03*
X97450000Y5401200D03*
X111951200Y-21400000D03*
X97400000Y9901200D03*
X115451200Y-21400000D03*
X94650000Y11051200D03*
X118448800Y-21400000D03*
X112950000Y3798800D03*
X121948800Y-21400000D03*
X115450000Y4898800D03*
X125448800Y-21400000D03*
X115400000Y9398800D03*
X129198800Y-21400000D03*
X112650000Y10548800D03*
X40950000Y3798800D03*
X62448800Y-21400000D03*
X43450000Y4898800D03*
X65948800Y-21400000D03*
X43400000Y9398800D03*
X69448800Y-21400000D03*
X40650000Y10548800D03*
X72948800Y-21400000D03*
X118951200Y-21400000D03*
X112950000Y4301200D03*
X122451200Y-21400000D03*
X115450000Y5401200D03*
X125951200Y-21400000D03*
X115400000Y9901200D03*
X129701200Y-21400000D03*
X112650000Y11051200D03*
X40950000Y4301200D03*
X62951200Y-21400000D03*
X43450000Y5401200D03*
X66451200Y-21400000D03*
X43400000Y9901200D03*
X69951200Y-21400000D03*
X40650000Y11051200D03*
X73451200Y-21400000D03*
X76950000Y3798800D03*
X90198800Y-21400000D03*
X79450000Y4898800D03*
X93698800Y-21400000D03*
X79400000Y9398800D03*
X97198800Y-21400000D03*
X76650000Y10548800D03*
X100948800Y-21400000D03*
X76950000Y4301200D03*
X90701200Y-21400000D03*
X79450000Y5401200D03*
X94201200Y-21400000D03*
X79400000Y9901200D03*
X97701200Y-21400000D03*
X76650000Y11051200D03*
X101451200Y-21400000D03*
D15*
X34125000Y13900000D03*
X126425000Y20125000D03*
X56775000Y20125000D03*
X53950000Y20125000D03*
X18350000Y-11025000D03*
X39225000Y19000000D03*
X35500000Y13700000D03*
X123600000Y16250000D03*
X108225000Y16250000D03*
X105375000Y16250000D03*
X90225000Y16250000D03*
X87650000Y16250000D03*
X72225000Y16250000D03*
X69675000Y16250000D03*
X56525000Y16250000D03*
X51325000Y16250000D03*
X43850000Y16250000D03*
X29150000Y-1450000D03*
X135600000Y-8800000D03*
X127700000Y16000000D03*
D18*
X10198800Y-4600000D03*
X10701200Y-4600000D03*
D15*
X27650000Y-37900000D03*
X115100000Y7650000D03*
X97100000Y7650000D03*
X79100000Y7650000D03*
X61100000Y7650000D03*
X43100000Y7650000D03*
X25100000Y7650000D03*
D18*
X24198800Y-19850000D03*
X24701200Y-19850000D03*
X27698800Y-19850000D03*
X28201200Y-19850000D03*
X31198800Y-19850000D03*
X31701200Y-19850000D03*
X34698800Y-19850000D03*
X35201200Y-19850000D03*
X49898800Y-23800000D03*
X50401200Y-23800000D03*
X64198800Y-22350000D03*
X64701200Y-22350000D03*
X67698800Y-22350000D03*
X68201200Y-22350000D03*
X71198800Y-22350000D03*
X71701200Y-22350000D03*
X74698800Y-22350000D03*
X75201200Y-22350000D03*
D15*
X66450000Y-39700000D03*
D18*
X77948800Y-22350000D03*
X78451200Y-22350000D03*
X81448800Y-22350000D03*
X81951200Y-22350000D03*
X84948800Y-22350000D03*
X85451200Y-22350000D03*
X88448800Y-22350000D03*
X88951200Y-22350000D03*
X91948800Y-22350000D03*
X92451200Y-22350000D03*
X95448800Y-22350000D03*
X95951200Y-22350000D03*
X99198800Y-22350000D03*
X99701200Y-22350000D03*
X102698800Y-22350000D03*
X103201200Y-22350000D03*
D15*
X99450000Y-40000000D03*
D18*
X106198800Y-22350000D03*
X106701200Y-22350000D03*
X109698800Y-22350000D03*
X110201200Y-22350000D03*
X113198800Y-22350000D03*
X113701200Y-22350000D03*
X116698800Y-22350000D03*
X117201200Y-22350000D03*
X120198800Y-22350000D03*
X120701200Y-22350000D03*
X123698800Y-22350000D03*
X124201200Y-22350000D03*
X127448800Y-22350000D03*
X127951200Y-22350000D03*
X130948800Y-22350000D03*
X131451200Y-22350000D03*
D15*
X25200000Y6900000D03*
X4100000Y-10625000D03*
X24225000Y6400000D03*
X2800000Y-10625000D03*
D18*
X31650000Y8901200D03*
X17497374Y11002626D03*
X31650000Y8398800D03*
X17852626Y10647374D03*
D15*
X37150000Y12050000D03*
X34500000Y8225000D03*
X69300000Y8400000D03*
X70950000Y14375000D03*
D18*
X67650000Y8398800D03*
X46725000Y-3101200D03*
X67650000Y8901200D03*
X46725000Y-2598800D03*
D15*
X10600000Y-10375000D03*
X60925000Y6050000D03*
X60525000Y6900000D03*
X11900000Y-10375000D03*
X96775000Y6900000D03*
X6700000Y-10375000D03*
X96750000Y6000000D03*
X5400000Y-10375000D03*
D18*
X103650000Y8901200D03*
X60050000Y-13801200D03*
X103650000Y8398800D03*
X60050000Y-13298800D03*
D15*
X105950000Y7825000D03*
X106950000Y14425000D03*
X124000000Y7900000D03*
X124950000Y14325000D03*
D18*
X121650000Y8398800D03*
X59900000Y-18598800D03*
X121650000Y8901200D03*
X59900000Y-19101200D03*
D15*
X114750000Y6000000D03*
X7100000Y-24300000D03*
X114775000Y6900000D03*
X6400000Y-23500000D03*
X42775000Y6900000D03*
X16350000Y-11700000D03*
X42750000Y6000000D03*
X13200000Y-10375000D03*
D18*
X49650000Y8901200D03*
X13863660Y12193913D03*
X49650000Y8398800D03*
X14218912Y11838661D03*
D15*
X51300000Y8400000D03*
X52950000Y14325000D03*
X86800000Y7900000D03*
X88950000Y14300000D03*
D18*
X85650000Y8398800D03*
X48375000Y-7451200D03*
X85650000Y8901200D03*
X48375000Y-6948800D03*
D15*
X8000000Y-10375000D03*
X78875000Y6000000D03*
X9300000Y-10375000D03*
X78900000Y6900000D03*
D19*
X111700000Y1475000D02*
X111700000Y15200000D01*
X93700000Y1475000D02*
X93700000Y15200000D01*
X57700000Y1475000D02*
X57700000Y15200000D01*
X40425000Y1500000D02*
X39700000Y2225000D01*
X39700000Y2225000D02*
X39250000Y2675000D01*
X39250000Y2675000D02*
X38300000Y3625000D01*
X38300000Y3625000D02*
X38300000Y12025000D01*
X38300000Y12025000D02*
X35225000Y15100000D01*
X35225000Y15100000D02*
X34025000Y15100000D01*
D20*
X87050000Y9125000D02*
X87050000Y9618962D01*
X87050000Y9618962D02*
X87050000Y11750000D01*
X87050000Y11750000D02*
X87850000Y12550000D01*
X87850000Y12550000D02*
X87850000Y14700000D01*
D21*
X42300000Y15375000D02*
X42300000Y16450000D01*
X42300000Y16450000D02*
X43675000Y17825000D01*
X54800000Y17825000D02*
X55325000Y18350000D01*
X43675000Y17825000D02*
X54800000Y17825000D01*
X32850000Y12625000D02*
X32850000Y3475000D01*
X34125000Y13900000D02*
X32850000Y12625000D01*
X56775000Y20125000D02*
X126425000Y20125000D01*
X53950000Y20125000D02*
X40350000Y20125000D01*
X18350000Y-11025000D02*
X32850000Y3475000D01*
X40350000Y20125000D02*
X39225000Y19000000D01*
X33712500Y11912500D02*
X33712500Y3112500D01*
X35500000Y13700000D02*
X33712500Y11912500D01*
X123600000Y16250000D02*
X108225000Y16250000D01*
X105375000Y16250000D02*
X90225000Y16250000D01*
X87650000Y16250000D02*
X72225000Y16250000D01*
X69675000Y16250000D02*
X56500000Y16250000D01*
X51325000Y16250000D02*
X43850000Y16250000D01*
X33712500Y3112500D02*
X29150000Y-1450000D01*
X135600000Y-8800000D02*
X129450000Y-2650000D01*
X127700000Y16000000D02*
X127700000Y13975000D01*
X129450000Y-2650000D02*
X129450000Y12225000D01*
X127700000Y13975000D02*
X129450000Y12225000D01*
X25200000Y6900000D02*
X24925000Y6625000D01*
X24925000Y6625000D02*
X24925000Y6050000D01*
X24925000Y6050000D02*
X24475000Y5600000D01*
X24475000Y5600000D02*
X24475000Y2450000D01*
X24475000Y2450000D02*
X23350000Y1325000D01*
X23350000Y1325000D02*
X23350000Y-4850000D01*
X18937500Y-9262500D02*
X4587500Y-9262500D01*
X23350000Y-4850000D02*
X18937500Y-9262500D01*
X4100000Y-9750000D02*
X4100000Y-10625000D01*
X4587500Y-9262500D02*
X4100000Y-9750000D01*
X23800000Y2675000D02*
X23800000Y5975000D01*
X23800000Y5975000D02*
X24225000Y6400000D01*
X22562500Y-4612500D02*
X22562500Y1437500D01*
X22562500Y1437500D02*
X23800000Y2675000D01*
X18700000Y-8475000D02*
X3550000Y-8475000D01*
X18700000Y-8475000D02*
X22562500Y-4612500D01*
X2800000Y-9225000D02*
X2800000Y-10625000D01*
X3550000Y-8475000D02*
X2800000Y-9225000D01*
D22*
X17637099Y11002626D02*
X17497374Y11002626D01*
X31551200Y8802400D02*
X30038128Y8802400D01*
X30038128Y8802400D02*
X26263128Y12577400D01*
X31650000Y8901200D02*
X31551200Y8802400D01*
X19211873Y12577400D02*
X17637099Y11002626D01*
X19211873Y12577400D02*
X26263128Y12577400D01*
X17852626Y10787099D02*
X17852626Y10647374D01*
X19338127Y12272600D02*
X17852626Y10787099D01*
X26136872Y12272600D02*
X19338127Y12272600D01*
X26463460Y11946012D02*
X26136872Y12272600D01*
X27306477Y11102994D02*
X26463460Y11946012D01*
X27314658Y11092735D02*
X27306477Y11102994D01*
X27320352Y11080913D02*
X27314658Y11092735D01*
X27323271Y11068120D02*
X27320352Y11080913D01*
X27323270Y11055000D02*
X27323271Y11068120D01*
X27320351Y11042207D02*
X27323270Y11055000D01*
X27314657Y11030385D02*
X27320351Y11042207D01*
X27306476Y11020126D02*
X27314657Y11030385D01*
X27306477Y11020124D02*
X27306476Y11020126D01*
X27298295Y11009867D02*
X27306477Y11020124D01*
X27292603Y10998044D02*
X27298295Y11009867D01*
X27289682Y10985252D02*
X27292603Y10998044D01*
X27289682Y10972130D02*
X27289682Y10985252D01*
X27292602Y10959338D02*
X27289682Y10972130D01*
X27298296Y10947515D02*
X27292602Y10959338D01*
X27306477Y10937256D02*
X27298296Y10947515D01*
X27534736Y10708997D02*
X27306477Y10937256D01*
X27544995Y10700816D02*
X27534736Y10708997D01*
X27556817Y10695122D02*
X27544995Y10700816D01*
X27569610Y10692203D02*
X27556817Y10695122D01*
X27582730Y10692204D02*
X27569610Y10692203D01*
X27595523Y10695123D02*
X27582730Y10692204D01*
X27607345Y10700817D02*
X27595523Y10695123D01*
X27617604Y10708998D02*
X27607345Y10700817D01*
X27617606Y10708997D02*
X27617604Y10708998D01*
X27627864Y10717180D02*
X27617606Y10708997D01*
X27639687Y10722872D02*
X27627864Y10717180D01*
X27652479Y10725792D02*
X27639687Y10722872D01*
X27665601Y10725792D02*
X27652479Y10725792D01*
X27678393Y10722873D02*
X27665601Y10725792D01*
X27690216Y10717179D02*
X27678393Y10722873D01*
X27700474Y10708998D02*
X27690216Y10717179D01*
X27928731Y10480740D02*
X27700474Y10708998D01*
X27936912Y10470481D02*
X27928731Y10480740D01*
X28827238Y9447696D02*
X28814118Y9447695D01*
X28851853Y9456309D02*
X28840031Y9450615D01*
X28862112Y9464490D02*
X28851853Y9456309D01*
X28862114Y9464489D02*
X28862112Y9464490D01*
X27920550Y10325261D02*
X27914856Y10337084D01*
X28884195Y9478364D02*
X28872372Y9472672D01*
X28896987Y9481284D02*
X28884195Y9478364D01*
X28910109Y9481284D02*
X28896987Y9481284D01*
X28934724Y9472671D02*
X28922901Y9478365D01*
X28944982Y9464490D02*
X28934724Y9472671D01*
X29190033Y9201358D02*
X29187114Y9214151D01*
X29556978Y8850417D02*
X29545155Y8856111D01*
X29190032Y9188238D02*
X29190033Y9201358D01*
X29173239Y9153362D02*
X29173238Y9153364D01*
X28167249Y10078562D02*
X28156990Y10086743D01*
X29165057Y9143105D02*
X29173239Y9153362D01*
X29159365Y9131282D02*
X29165057Y9143105D01*
X29156444Y9118490D02*
X29159365Y9131282D01*
X27936911Y10408131D02*
X27942605Y10419953D01*
X29187114Y9214151D02*
X29181420Y9225973D01*
X29506449Y8856110D02*
X29494626Y8850418D01*
X28312470Y10094925D02*
X28300647Y10100619D01*
X29519241Y8859030D02*
X29506449Y8856110D01*
X27942605Y10419953D02*
X27945524Y10432746D01*
X29173239Y9236232D02*
X28944982Y9464490D01*
X29532363Y8859030D02*
X29519241Y8859030D01*
X29156444Y9105368D02*
X29156444Y9118490D01*
X29181420Y9225973D02*
X29173239Y9236232D01*
X28840031Y9450615D02*
X28827238Y9447696D01*
X31650000Y8398800D02*
X31551200Y8497600D01*
X29545155Y8856111D02*
X29532363Y8859030D01*
X31551200Y8497600D02*
X29911872Y8497600D01*
X28550984Y9775618D02*
X28559165Y9785877D01*
X29181419Y9163623D02*
X29187113Y9175445D01*
X29911872Y8497600D02*
X29567236Y8842236D01*
X29187113Y9175445D02*
X29190032Y9188238D01*
X29567236Y8842236D02*
X29556978Y8850417D01*
X29436372Y8825441D02*
X29423579Y8828360D01*
X27928730Y10397872D02*
X27936911Y10408131D01*
X29173238Y9153364D02*
X29181419Y9163623D01*
X28156990Y10086743D02*
X27928731Y10315002D01*
X29484366Y8842236D02*
X29474107Y8834055D01*
X28567779Y9823612D02*
X28564860Y9836405D01*
X28872372Y9472672D02*
X28862114Y9464489D01*
X29474107Y8834055D02*
X29462285Y8828361D01*
X29173239Y9070494D02*
X29165058Y9080753D01*
X29484368Y8842235D02*
X29484366Y8842236D01*
X29165058Y9080753D02*
X29159364Y9092576D01*
X29462285Y8828361D02*
X29449492Y8825442D01*
X29449492Y8825442D02*
X29436372Y8825441D01*
X29423579Y8828360D02*
X29411757Y8834054D01*
X29411757Y8834054D02*
X29401498Y8842235D01*
X27945525Y10445866D02*
X27942606Y10458659D01*
X28922901Y9478365D02*
X28910109Y9481284D01*
X29494626Y8850418D02*
X29484368Y8842235D01*
X28542804Y9703007D02*
X28537110Y9714830D01*
X29401498Y8842235D02*
X29173239Y9070494D01*
X29159364Y9092576D02*
X29156444Y9105368D01*
X27928731Y10397870D02*
X27928730Y10397872D01*
X28814118Y9447695D02*
X28801325Y9450614D01*
X28801325Y9450614D02*
X28789503Y9456308D01*
X28789503Y9456308D02*
X28779244Y9464489D01*
X28779244Y9464489D02*
X28550985Y9692748D01*
X28550985Y9692748D02*
X28542804Y9703007D01*
X28537110Y9714830D02*
X28534190Y9727622D01*
X28534190Y9727622D02*
X28534190Y9740744D01*
X27911936Y10349876D02*
X27911936Y10362998D01*
X28534190Y9740744D02*
X28537111Y9753536D01*
X28537111Y9753536D02*
X28542803Y9765359D01*
X28542803Y9765359D02*
X28550985Y9775616D01*
X28550985Y9775616D02*
X28550984Y9775618D01*
X28559165Y9785877D02*
X28564859Y9797699D01*
X28564859Y9797699D02*
X28567778Y9810492D01*
X28567778Y9810492D02*
X28567779Y9823612D01*
X28564860Y9836405D02*
X28559166Y9848227D01*
X28559166Y9848227D02*
X28550985Y9858486D01*
X28550985Y9858486D02*
X28322728Y10086744D01*
X28322728Y10086744D02*
X28312470Y10094925D01*
X28300647Y10100619D02*
X28287855Y10103538D01*
X28287855Y10103538D02*
X28274733Y10103538D01*
X28274733Y10103538D02*
X28261941Y10100618D01*
X28261941Y10100618D02*
X28250118Y10094926D01*
X28250118Y10094926D02*
X28239860Y10086743D01*
X28239860Y10086743D02*
X28239858Y10086744D01*
X28239858Y10086744D02*
X28229599Y10078563D01*
X27914856Y10337084D02*
X27911936Y10349876D01*
X28229599Y10078563D02*
X28217777Y10072869D01*
X28217777Y10072869D02*
X28204984Y10069950D01*
X28204984Y10069950D02*
X28191864Y10069949D01*
X28191864Y10069949D02*
X28179071Y10072868D01*
X28179071Y10072868D02*
X28167249Y10078562D01*
X27928731Y10315002D02*
X27920550Y10325261D01*
X27911936Y10362998D02*
X27914857Y10375790D01*
X27914857Y10375790D02*
X27920549Y10387613D01*
X27920549Y10387613D02*
X27928731Y10397870D01*
X27945524Y10432746D02*
X27945525Y10445866D01*
X27942606Y10458659D02*
X27936912Y10470481D01*
D21*
X37150000Y10875000D02*
X34500000Y8225000D01*
X37150000Y12050000D02*
X37150000Y10875000D01*
X69300000Y8400000D02*
X70050000Y9150000D01*
X70950000Y10050000D02*
X70050000Y9150000D01*
X70950000Y14375000D02*
X70950000Y10050000D01*
D22*
X46823800Y-3002400D02*
X46725000Y-3101200D01*
X59513128Y-3002400D02*
X46823800Y-3002400D01*
X62852400Y336872D02*
X59513128Y-3002400D01*
X62852400Y1961872D02*
X62852400Y336872D01*
X64727400Y3836872D02*
X62852400Y1961872D01*
X64727400Y4612810D02*
X64727400Y3836872D01*
X64728837Y4625560D02*
X64727400Y4612810D01*
X64733074Y4637670D02*
X64728837Y4625560D01*
X64739900Y4648533D02*
X64733074Y4637670D01*
X64748973Y4657606D02*
X64739900Y4648533D01*
X64759836Y4664432D02*
X64748973Y4657606D01*
X64771946Y4668669D02*
X64759836Y4664432D01*
X64797445Y4671542D02*
X64771946Y4668669D01*
X64809555Y4675779D02*
X64797445Y4671542D01*
X64820418Y4682605D02*
X64809555Y4675779D01*
X64829491Y4691678D02*
X64820418Y4682605D01*
X64836317Y4702541D02*
X64829491Y4691678D01*
X64840554Y4714651D02*
X64836317Y4702541D01*
X64841990Y4727400D02*
X64840554Y4714651D01*
X64841990Y5052810D02*
X64841990Y4727400D01*
X64840554Y5065560D02*
X64841990Y5052810D01*
X64836317Y5077670D02*
X64840554Y5065560D01*
X64829491Y5088533D02*
X64836317Y5077670D01*
X64820418Y5097606D02*
X64829491Y5088533D01*
X64829491Y6848533D02*
X64836317Y6837670D01*
X64797445Y6868669D02*
X64809555Y6864432D01*
X64733074Y6022541D02*
X64739900Y6011678D01*
X64759836Y6875779D02*
X64771946Y6871542D01*
X64748973Y6882605D02*
X64759836Y6875779D01*
X64739900Y6891678D02*
X64748973Y6882605D01*
X64841990Y6487400D02*
X64840554Y6474651D01*
X64733074Y6902541D02*
X64739900Y6891678D01*
X64727400Y6927400D02*
X64728837Y6914651D01*
X64727400Y5167400D02*
X64728837Y5154651D01*
X64727400Y7236872D02*
X64727400Y6927400D01*
X65320751Y7830220D02*
X64727400Y7236872D01*
X64771946Y5111542D02*
X64797445Y5108669D01*
X65331693Y7838946D02*
X65320751Y7830220D01*
X65344303Y7845018D02*
X65331693Y7838946D01*
X64840554Y6825560D02*
X64841990Y6812810D01*
X65460330Y7812307D02*
X65446334Y7812306D01*
X65357947Y7848131D02*
X65344303Y7845018D01*
X65385587Y7845017D02*
X65371943Y7848132D01*
X65398197Y7838946D02*
X65385587Y7845017D01*
X65420081Y7821494D02*
X65398197Y7838946D01*
X64728837Y6385560D02*
X64727400Y6372810D01*
X65711539Y8152290D02*
X65728992Y8130405D01*
X65705467Y8164900D02*
X65711539Y8152290D01*
X64809555Y6864432D02*
X64820418Y6857606D01*
X65728992Y8130405D02*
X65735063Y8117795D01*
X64820418Y6857606D02*
X64829491Y6848533D01*
X65702352Y8178544D02*
X65705467Y8164900D01*
X64727400Y6047400D02*
X64728837Y6034651D01*
X67551200Y8497600D02*
X65988128Y8497600D01*
X64748973Y6002605D02*
X64759836Y5995779D01*
X67650000Y8398800D02*
X67551200Y8497600D01*
X64748973Y6417606D02*
X64739900Y6408533D01*
X64836317Y6837670D02*
X64840554Y6825560D01*
X65702353Y8192540D02*
X65702352Y8178544D01*
X64797445Y5988669D02*
X64809555Y5984432D01*
X65371943Y7848132D02*
X65357947Y7848131D01*
X64836317Y5582541D02*
X64829491Y5571678D01*
X65705466Y8206184D02*
X65702353Y8192540D01*
X65988128Y8497600D02*
X65720264Y8229736D01*
X64727400Y6372810D02*
X64727400Y6047400D01*
X65720264Y8229736D02*
X65711539Y8218794D01*
X64748973Y5537606D02*
X64739900Y5528533D01*
X65735063Y8117795D02*
X65738178Y8104151D01*
X64809555Y5104432D02*
X64820418Y5097606D01*
X65711539Y8218794D02*
X65705466Y8206184D01*
X65735064Y8076511D02*
X65728992Y8063901D01*
X64771946Y6871542D02*
X64797445Y6868669D01*
X65720264Y8052958D02*
X65497527Y7830220D01*
X64797445Y6431542D02*
X64771946Y6428669D01*
X65738178Y8104151D02*
X65738177Y8090155D01*
X65738177Y8090155D02*
X65735064Y8076511D01*
X65497527Y7830220D02*
X65486585Y7821494D01*
X64840554Y5945560D02*
X64841990Y5932810D01*
X65728992Y8063901D02*
X65720264Y8052958D01*
X65473974Y7815420D02*
X65460330Y7812307D01*
X64829491Y5968533D02*
X64836317Y5957670D01*
X64728837Y6914651D02*
X64733074Y6902541D01*
X65486585Y7821494D02*
X65473974Y7815420D01*
X64841990Y6812810D02*
X64841990Y6487400D01*
X65446334Y7812306D02*
X65432690Y7815421D01*
X64739900Y6408533D02*
X64733074Y6397670D01*
X65432690Y7815421D02*
X65420081Y7821494D01*
X64809555Y5555779D02*
X64797445Y5551542D01*
X64840554Y6474651D02*
X64836317Y6462541D01*
X64836317Y6462541D02*
X64829491Y6451678D01*
X64829491Y6451678D02*
X64820418Y6442605D01*
X64820418Y6442605D02*
X64809555Y6435779D01*
X64809555Y6435779D02*
X64797445Y6431542D01*
X64771946Y6428669D02*
X64759836Y6424432D01*
X64759836Y6424432D02*
X64748973Y6417606D01*
X64733074Y6397670D02*
X64728837Y6385560D01*
X64728837Y6034651D02*
X64733074Y6022541D01*
X64739900Y6011678D02*
X64748973Y6002605D01*
X64759836Y5995779D02*
X64771946Y5991542D01*
X64771946Y5991542D02*
X64797445Y5988669D01*
X64809555Y5984432D02*
X64820418Y5977606D01*
X64820418Y5977606D02*
X64829491Y5968533D01*
X64836317Y5957670D02*
X64840554Y5945560D01*
X64841990Y5932810D02*
X64841990Y5607400D01*
X64841990Y5607400D02*
X64840554Y5594651D01*
X64840554Y5594651D02*
X64836317Y5582541D01*
X64829491Y5571678D02*
X64820418Y5562605D01*
X64820418Y5562605D02*
X64809555Y5555779D01*
X64797445Y5551542D02*
X64771946Y5548669D01*
X64771946Y5548669D02*
X64759836Y5544432D01*
X64759836Y5544432D02*
X64748973Y5537606D01*
X64739900Y5528533D02*
X64733074Y5517670D01*
X64733074Y5517670D02*
X64728837Y5505560D01*
X64728837Y5505560D02*
X64727400Y5492810D01*
X64727400Y5492810D02*
X64727400Y5167400D01*
X64728837Y5154651D02*
X64733074Y5142541D01*
X64733074Y5142541D02*
X64739900Y5131678D01*
X64739900Y5131678D02*
X64748973Y5122605D01*
X64748973Y5122605D02*
X64759836Y5115779D01*
X64759836Y5115779D02*
X64771946Y5111542D01*
X64797445Y5108669D02*
X64809555Y5104432D01*
X46823800Y-2697600D02*
X46725000Y-2598800D01*
X62547600Y463128D02*
X59386872Y-2697600D01*
X64422600Y3963128D02*
X62547600Y2088128D01*
X65861872Y8802400D02*
X64422600Y7363128D01*
X67650000Y8901200D02*
X67551200Y8802400D01*
X64422600Y7363128D02*
X64422600Y3963128D01*
X59386872Y-2697600D02*
X46823800Y-2697600D01*
X67551200Y8802400D02*
X65861872Y8802400D01*
X62547600Y2088128D02*
X62547600Y463128D01*
D21*
X60550000Y5675000D02*
X60925000Y6050000D01*
X60550000Y2060000D02*
X60550000Y5675000D01*
X58395000Y-95000D02*
X60550000Y2060000D01*
X13550000Y-14050000D02*
X20275000Y-14050000D01*
X11900000Y-12400000D02*
X13550000Y-14050000D01*
X10600000Y-10375000D02*
X11075000Y-10375000D01*
X11075000Y-10375000D02*
X11900000Y-11200000D01*
X27725000Y-6600000D02*
X38200000Y-6600000D01*
X20275000Y-14050000D02*
X27725000Y-6600000D01*
X43800000Y-1000000D02*
X47500000Y-1000000D01*
X47500000Y-1000000D02*
X48405000Y-95000D01*
X38200000Y-6600000D02*
X43800000Y-1000000D01*
X11900000Y-11200000D02*
X11900000Y-12400000D01*
X48405000Y-95000D02*
X58395000Y-95000D01*
X38300000Y-5500000D02*
X43500000Y-300000D01*
X27550000Y-5500000D02*
X38300000Y-5500000D01*
X11900000Y-10375000D02*
X12375000Y-10375000D01*
X19700000Y-13350000D02*
X27550000Y-5500000D01*
X13200000Y-11200000D02*
X13200000Y-12500000D01*
X12375000Y-10375000D02*
X13200000Y-11200000D01*
X14050000Y-13350000D02*
X19700000Y-13350000D01*
X13200000Y-12500000D02*
X14050000Y-13350000D01*
X47900000Y625000D02*
X46975000Y-300000D01*
X58075000Y625000D02*
X47900000Y625000D01*
X43500000Y-300000D02*
X46975000Y-300000D01*
X58075000Y625000D02*
X59800000Y2350000D01*
X60175000Y6550000D02*
X60525000Y6900000D01*
X59800000Y6175000D02*
X60175000Y6550000D01*
X59800000Y2350000D02*
X59800000Y6175000D01*
X8000000Y-13475000D02*
X8000000Y-11200000D01*
X18525000Y-18375000D02*
X12900000Y-18375000D01*
X22525000Y-22375000D02*
X18525000Y-18375000D01*
X8000000Y-11200000D02*
X7175000Y-10375000D01*
X35300000Y-22375000D02*
X22525000Y-22375000D01*
X38487500Y-19187500D02*
X35300000Y-22375000D01*
X12900000Y-18375000D02*
X8000000Y-13475000D01*
X95425000Y1850000D02*
X95425000Y-9150000D01*
X7175000Y-10375000D02*
X6700000Y-10375000D01*
X96275000Y6900000D02*
X96000000Y6625000D01*
X96000000Y6625000D02*
X96000000Y2425000D01*
X96000000Y2425000D02*
X95425000Y1850000D01*
X96775000Y6900000D02*
X96275000Y6900000D01*
X95425000Y-9150000D02*
X94200000Y-10375000D01*
X94200000Y-10375000D02*
X57025000Y-10375000D01*
X57025000Y-10375000D02*
X56187500Y-9537500D01*
X40037500Y-9537500D02*
X38487500Y-11087500D01*
X56187500Y-9537500D02*
X40037500Y-9537500D01*
X38487500Y-11087500D02*
X38487500Y-19187500D01*
X5875000Y-10375000D02*
X5400000Y-10375000D01*
X6700000Y-11200000D02*
X5875000Y-10375000D01*
X6700000Y-13350000D02*
X6700000Y-11200000D01*
X12550000Y-19200000D02*
X6700000Y-13350000D01*
X18025000Y-19200000D02*
X12550000Y-19200000D01*
X22025000Y-23200000D02*
X18025000Y-19200000D01*
X96750000Y2050000D02*
X97125000Y1675000D01*
X97125000Y1675000D02*
X97125000Y-9775000D01*
X96750000Y6000000D02*
X96750000Y2050000D01*
X40150000Y-10625000D02*
X39362500Y-11412500D01*
X39362500Y-11412500D02*
X39362500Y-19487500D01*
X95700000Y-11200000D02*
X56250000Y-11200000D01*
X56250000Y-11200000D02*
X55675000Y-10625000D01*
X55675000Y-10625000D02*
X40150000Y-10625000D01*
X97125000Y-9775000D02*
X95700000Y-11200000D01*
X39362500Y-19487500D02*
X35650000Y-23200000D01*
X35650000Y-23200000D02*
X22025000Y-23200000D01*
D22*
X104052400Y-12188128D02*
X102538128Y-13702400D01*
X104052400Y1636872D02*
X104052400Y-12188128D01*
X105052400Y2636872D02*
X104052400Y1636872D01*
X103748800Y8802400D02*
X104413128Y8802400D01*
X103650000Y8901200D02*
X103748800Y8802400D01*
X104413128Y8802400D02*
X105052400Y8163128D01*
X105052400Y8163128D02*
X105052400Y2636872D01*
X60148800Y-13702400D02*
X60050000Y-13801200D01*
X102538128Y-13702400D02*
X60148800Y-13702400D01*
X60148800Y-13397600D02*
X60050000Y-13298800D01*
X102411872Y-13397600D02*
X60148800Y-13397600D01*
X103747600Y-12061872D02*
X102411872Y-13397600D01*
X103747600Y-172400D02*
X103747600Y-12061872D01*
X103746032Y-158492D02*
X103747600Y-172400D01*
X103741410Y-145282D02*
X103746032Y-158492D01*
X104657982Y5038911D02*
X104646131Y5031465D01*
X104699007Y5046668D02*
X104671192Y5043533D01*
X104712217Y5051290D02*
X104699007Y5046668D01*
X104733964Y5068632D02*
X104724068Y5058736D01*
X104741410Y5080483D02*
X104733964Y5068632D01*
X104747600Y5107600D02*
X104746032Y5093693D01*
X104747600Y5422600D02*
X104747600Y5107600D01*
X104746032Y5436508D02*
X104747600Y5422600D01*
X104724068Y5471465D02*
X104733964Y5461569D01*
X104657982Y5491290D02*
X104671192Y5486668D01*
X104636235Y5508632D02*
X104646131Y5498736D01*
X104628789Y5520483D02*
X104636235Y5508632D01*
X104622600Y5862600D02*
X104622600Y5547600D01*
X104624167Y5876508D02*
X104622600Y5862600D01*
X104636235Y5901569D02*
X104628789Y5889718D01*
X104657982Y5918911D02*
X104646131Y5911465D01*
X104671192Y5923533D02*
X104657982Y5918911D01*
X104699007Y5926668D02*
X104671192Y5923533D01*
X104724068Y5938736D02*
X104712217Y5931290D01*
X104741410Y5960483D02*
X104733964Y5948632D01*
X104746032Y5973693D02*
X104741410Y5960483D01*
X104747600Y5987600D02*
X104746032Y5973693D01*
X104747600Y6302600D02*
X104747600Y5987600D01*
X104733964Y5948632D02*
X104724068Y5938736D01*
X104741410Y6329718D02*
X104746032Y6316508D01*
X104733964Y6341569D02*
X104741410Y6329718D01*
X104712217Y6358911D02*
X104724068Y6351465D01*
X104699007Y6363533D02*
X104712217Y6358911D01*
X104671192Y6366668D02*
X104699007Y6363533D01*
X104628789Y6400483D02*
X104636235Y6388632D01*
X104624167Y6413693D02*
X104628789Y6400483D01*
X104657982Y6371290D02*
X104671192Y6366668D01*
X103724068Y1223736D02*
X103712217Y1216290D01*
X104741410Y7720483D02*
X104733964Y7708632D01*
X104622600Y7307600D02*
X104624167Y7293693D01*
X104671192Y5486668D02*
X104699007Y5483533D01*
X104628789Y7649718D02*
X104624167Y7636508D01*
X104746032Y6316508D02*
X104747600Y6302600D01*
X104636235Y7268632D02*
X104646131Y7258736D01*
X104712217Y5478911D02*
X104724068Y5471465D01*
X103733964Y-133431D02*
X103741410Y-145282D01*
X104622600Y7622600D02*
X104622600Y7307600D01*
X104646131Y5498736D02*
X104657982Y5491290D01*
X103733964Y1233632D02*
X103724068Y1223736D01*
X104747600Y8036872D02*
X104747600Y7747600D01*
X104628789Y7280483D02*
X104636235Y7268632D01*
X104671192Y5043533D02*
X104657982Y5038911D01*
X104636235Y6388632D02*
X104646131Y6378736D01*
X103628789Y805483D02*
X103636235Y793632D01*
X104657982Y6798911D02*
X104646131Y6791465D01*
X103712217Y763911D02*
X103724068Y756465D01*
X104636235Y7661569D02*
X104628789Y7649718D01*
X104747600Y7747600D02*
X104746032Y7733693D01*
X104646131Y5911465D02*
X104636235Y5901569D01*
X104646131Y7671465D02*
X104636235Y7661569D01*
X103636235Y793632D02*
X103646131Y783736D01*
X104733964Y7708632D02*
X104724068Y7698736D01*
X104286872Y8497600D02*
X104747600Y8036872D01*
X103657982Y-103710D02*
X103671192Y-108332D01*
X104724068Y6351465D02*
X104733964Y6341569D01*
X103699007Y1211668D02*
X103671192Y1208533D01*
X104671192Y7683533D02*
X104657982Y7678911D01*
X104746032Y7733693D02*
X104741410Y7720483D01*
X104624167Y7293693D02*
X104628789Y7280483D01*
X103699007Y331668D02*
X103671192Y328533D01*
X104657982Y7678911D02*
X104646131Y7671465D01*
X103671192Y771668D02*
X103699007Y768533D01*
X104724068Y7698736D02*
X104712217Y7691290D01*
X104657982Y7251290D02*
X104671192Y7246668D01*
X104746032Y5093693D02*
X104741410Y5080483D01*
X104671192Y7246668D02*
X104699007Y7243533D01*
X104699007Y7243533D02*
X104712217Y7238911D01*
X104699007Y5483533D02*
X104712217Y5478911D01*
X103748800Y8497600D02*
X104286872Y8497600D01*
X104624167Y3773693D02*
X104628789Y3760483D01*
X104622600Y5547600D02*
X104624167Y5533693D01*
X103724068Y756465D02*
X103733964Y746569D01*
X104622600Y6742600D02*
X104622600Y6427600D01*
X104733964Y5461569D02*
X104741410Y5449718D01*
X104733964Y7221569D02*
X104741410Y7209718D01*
X104741410Y7209718D02*
X104746032Y7196508D01*
X104747600Y7182600D02*
X104747600Y6867600D01*
X104747600Y6867600D02*
X104746032Y6853693D01*
X103747600Y1272600D02*
X103746032Y1258693D01*
X104746032Y6853693D02*
X104741410Y6840483D01*
X104741410Y6840483D02*
X104733964Y6828632D01*
X104628789Y5889718D02*
X104624167Y5876508D01*
X104746032Y7196508D02*
X104747600Y7182600D01*
X103747600Y707600D02*
X103747600Y392600D01*
X104622600Y6427600D02*
X104624167Y6413693D01*
X104624167Y5533693D02*
X104628789Y5520483D01*
X104724068Y6818736D02*
X104712217Y6811290D01*
X103724068Y-123535D02*
X103733964Y-133431D01*
X104724068Y5058736D02*
X104712217Y5051290D01*
X104646131Y6378736D02*
X104657982Y6371290D01*
X103712217Y336290D02*
X103699007Y331668D01*
X104712217Y5931290D02*
X104699007Y5926668D01*
X104671192Y6803533D02*
X104657982Y6798911D01*
X104636235Y6781569D02*
X104628789Y6769718D01*
X104741410Y5449718D02*
X104746032Y5436508D01*
X104712217Y6811290D02*
X104699007Y6806668D01*
X103741410Y365483D02*
X103733964Y353632D01*
X104624167Y6756508D02*
X104622600Y6742600D01*
X104646131Y5031465D02*
X104636235Y5021569D01*
X103699007Y-111467D02*
X103712217Y-116089D01*
X104636235Y5021569D02*
X104628789Y5009718D01*
X104628789Y5009718D02*
X104624167Y4996508D01*
X104624167Y4996508D02*
X104622600Y4982600D01*
X104622600Y4982600D02*
X104622600Y4667600D01*
X104622600Y4667600D02*
X104624167Y4653693D01*
X104624167Y4653693D02*
X104628789Y4640483D01*
X104628789Y4640483D02*
X104636235Y4628632D01*
X104636235Y4628632D02*
X104646131Y4618736D01*
X104646131Y4618736D02*
X104657982Y4611290D01*
X104657982Y4611290D02*
X104671192Y4606668D01*
X104671192Y4606668D02*
X104699007Y4603533D01*
X104699007Y4603533D02*
X104712217Y4598911D01*
X104712217Y4598911D02*
X104724068Y4591465D01*
X104724068Y4591465D02*
X104733964Y4581569D01*
X104733964Y4581569D02*
X104741410Y4569718D01*
X104741410Y4569718D02*
X104746032Y4556508D01*
X104746032Y4556508D02*
X104747600Y4542600D01*
X103671192Y-108332D02*
X103699007Y-111467D01*
X104747600Y4542600D02*
X104747600Y4227600D01*
X104747600Y4227600D02*
X104746032Y4213693D01*
X104746032Y4213693D02*
X104741410Y4200483D01*
X104741410Y4200483D02*
X104733964Y4188632D01*
X104733964Y4188632D02*
X104724068Y4178736D01*
X104724068Y4178736D02*
X104712217Y4171290D01*
X104712217Y4171290D02*
X104699007Y4166668D01*
X104699007Y4166668D02*
X104671192Y4163533D01*
X104671192Y4163533D02*
X104657982Y4158911D01*
X104657982Y4158911D02*
X104646131Y4151465D01*
X104646131Y4151465D02*
X104636235Y4141569D01*
X104636235Y4141569D02*
X104628789Y4129718D01*
X104628789Y4129718D02*
X104624167Y4116508D01*
X104624167Y4116508D02*
X104622600Y4102600D01*
X104622600Y4102600D02*
X104622600Y3787600D01*
X104622600Y3787600D02*
X104624167Y3773693D01*
X104628789Y3760483D02*
X104636235Y3748632D01*
X104636235Y3748632D02*
X104646131Y3738736D01*
X104724068Y7231465D02*
X104733964Y7221569D01*
X104646131Y3738736D02*
X104657982Y3731290D01*
X104699007Y7686668D02*
X104671192Y7683533D01*
X104657982Y3731290D02*
X104671192Y3726668D01*
X104671192Y3726668D02*
X104699007Y3723533D01*
X104712217Y7691290D02*
X104699007Y7686668D01*
X104699007Y3723533D02*
X104712217Y3718911D01*
X103650000Y8398800D02*
X103748800Y8497600D01*
X104712217Y3718911D02*
X104724068Y3711465D01*
X104712217Y7238911D02*
X104724068Y7231465D01*
X104724068Y3711465D02*
X104733964Y3701569D01*
X104733964Y3701569D02*
X104741410Y3689718D01*
X104741410Y3689718D02*
X104746032Y3676508D01*
X104624167Y7636508D02*
X104622600Y7622600D01*
X104746032Y3676508D02*
X104747600Y3662600D01*
X104747600Y3662600D02*
X104747600Y2763128D01*
X103712217Y-116089D02*
X103724068Y-123535D01*
X104747600Y2763128D02*
X103747600Y1763128D01*
X103747600Y1763128D02*
X103747600Y1272600D01*
X103746032Y1258693D02*
X103741410Y1245483D01*
X103741410Y1245483D02*
X103733964Y1233632D01*
X103712217Y1216290D02*
X103699007Y1211668D01*
X103671192Y1208533D02*
X103657982Y1203911D01*
X104733964Y6828632D02*
X104724068Y6818736D01*
X103657982Y1203911D02*
X103646131Y1196465D01*
X104628789Y6769718D02*
X104624167Y6756508D01*
X103646131Y1196465D02*
X103636235Y1186569D01*
X104699007Y6806668D02*
X104671192Y6803533D01*
X103636235Y1186569D02*
X103628789Y1174718D01*
X103628789Y1174718D02*
X103624167Y1161508D01*
X103624167Y1161508D02*
X103622600Y1147600D01*
X103622600Y1147600D02*
X103622600Y832600D01*
X104646131Y7258736D02*
X104657982Y7251290D01*
X103622600Y832600D02*
X103624167Y818693D01*
X104646131Y6791465D02*
X104636235Y6781569D01*
X103624167Y818693D02*
X103628789Y805483D01*
X103646131Y783736D02*
X103657982Y776290D01*
X103657982Y776290D02*
X103671192Y771668D01*
X103699007Y768533D02*
X103712217Y763911D01*
X103733964Y746569D02*
X103741410Y734718D01*
X103741410Y734718D02*
X103746032Y721508D01*
X103746032Y721508D02*
X103747600Y707600D01*
X103747600Y392600D02*
X103746032Y378693D01*
X103746032Y378693D02*
X103741410Y365483D01*
X103733964Y353632D02*
X103724068Y343736D01*
X103724068Y343736D02*
X103712217Y336290D01*
X103671192Y328533D02*
X103657982Y323911D01*
X103657982Y323911D02*
X103646131Y316465D01*
X103646131Y316465D02*
X103636235Y306569D01*
X103636235Y306569D02*
X103628789Y294718D01*
X103628789Y294718D02*
X103624167Y281508D01*
X103624167Y281508D02*
X103622600Y267600D01*
X103622600Y267600D02*
X103622600Y-47400D01*
X103622600Y-47400D02*
X103624167Y-61307D01*
X103624167Y-61307D02*
X103628789Y-74517D01*
X103628789Y-74517D02*
X103636235Y-86368D01*
X103636235Y-86368D02*
X103646131Y-96264D01*
X103646131Y-96264D02*
X103657982Y-103710D01*
D21*
X106950000Y8825000D02*
X105950000Y7825000D01*
X106950000Y14425000D02*
X106950000Y8825000D01*
X124950000Y8850000D02*
X124000000Y7900000D01*
X124950000Y14325000D02*
X124950000Y8850000D01*
D22*
X59998800Y-18697600D02*
X59900000Y-18598800D01*
X120136872Y-18697600D02*
X59998800Y-18697600D01*
X122197600Y-16636872D02*
X120136872Y-18697600D01*
X122197600Y252600D02*
X122197600Y-16636872D01*
X122196032Y266508D02*
X122197600Y252600D01*
X122191410Y279718D02*
X122196032Y266508D01*
X122757982Y5093711D02*
X122746131Y5086265D01*
X122771192Y5098333D02*
X122757982Y5093711D01*
X122799007Y5101468D02*
X122771192Y5098333D01*
X122812217Y5106090D02*
X122799007Y5101468D01*
X122824068Y5113536D02*
X122812217Y5106090D01*
X122833964Y5123432D02*
X122824068Y5113536D01*
X122841410Y5135283D02*
X122833964Y5123432D01*
X122846032Y5148493D02*
X122841410Y5135283D01*
X122847600Y5477400D02*
X122847600Y5162400D01*
X122841410Y5504518D02*
X122846032Y5491308D01*
X122824068Y5526265D02*
X122833964Y5516369D01*
X122812217Y5533711D02*
X122824068Y5526265D01*
X122771192Y5541468D02*
X122799007Y5538333D01*
X122757982Y5546090D02*
X122771192Y5541468D01*
X122736235Y5563432D02*
X122746131Y5553536D01*
X122722600Y5602400D02*
X122724167Y5588493D01*
X122722600Y5917400D02*
X122722600Y5602400D01*
X122724167Y5931308D02*
X122722600Y5917400D01*
X122728789Y5944518D02*
X122724167Y5931308D01*
X122736235Y5956369D02*
X122728789Y5944518D01*
X122746131Y5966265D02*
X122736235Y5956369D01*
X122757982Y5973711D02*
X122746131Y5966265D01*
X122771192Y5978333D02*
X122757982Y5973711D01*
X122799007Y5981468D02*
X122771192Y5978333D01*
X122812217Y5986090D02*
X122799007Y5981468D01*
X122824068Y5993536D02*
X122812217Y5986090D01*
X122833964Y6003432D02*
X122824068Y5993536D01*
X122841410Y6015283D02*
X122833964Y6003432D01*
X122846032Y5491308D02*
X122847600Y5477400D01*
X122846032Y6028493D02*
X122841410Y6015283D01*
X122847600Y6042400D02*
X122846032Y6028493D01*
X122847600Y6357400D02*
X122847600Y6042400D01*
X122846032Y6371308D02*
X122847600Y6357400D01*
X122841410Y6384518D02*
X122846032Y6371308D01*
X122833964Y6396369D02*
X122841410Y6384518D01*
X122824068Y6406265D02*
X122833964Y6396369D01*
X122812217Y6413711D02*
X122824068Y6406265D01*
X122799007Y6418333D02*
X122812217Y6413711D01*
X122771192Y6421468D02*
X122799007Y6418333D01*
X122757982Y6426090D02*
X122771192Y6421468D01*
X122746131Y6433536D02*
X122757982Y6426090D01*
X122736235Y6443432D02*
X122746131Y6433536D01*
X122728789Y6455283D02*
X122736235Y6443432D01*
X122746131Y7313536D02*
X122757982Y7306090D01*
X122728789Y7335283D02*
X122736235Y7323432D01*
X122736235Y7716369D02*
X122728789Y7704518D01*
X122746131Y6846265D02*
X122736235Y6836369D01*
X122757982Y7733711D02*
X122746131Y7726265D01*
X122722600Y6482400D02*
X122724167Y6468493D01*
X122722600Y7677400D02*
X122722600Y7362400D01*
X122461872Y8497600D02*
X122847600Y8111872D01*
X122174068Y1181465D02*
X122183964Y1171569D01*
X122812217Y7746090D02*
X122799007Y7741468D01*
X122847600Y8111872D02*
X122847600Y7802400D01*
X122191410Y1159718D02*
X122196032Y1146508D01*
X122746131Y7726265D02*
X122736235Y7716369D01*
X122799007Y6861468D02*
X122771192Y6858333D01*
X122736235Y7323432D02*
X122746131Y7313536D01*
X122847600Y5162400D02*
X122846032Y5148493D01*
X122724167Y7691308D02*
X122722600Y7677400D01*
X122824068Y7753536D02*
X122812217Y7746090D01*
X122771192Y7738333D02*
X122757982Y7733711D01*
X121748800Y8497600D02*
X122461872Y8497600D01*
X122191410Y1670483D02*
X122183964Y1658632D01*
X122757982Y6853711D02*
X122746131Y6846265D01*
X122799007Y7741468D02*
X122771192Y7738333D01*
X122724167Y7348493D02*
X122728789Y7335283D01*
X121650000Y8398800D02*
X121748800Y8497600D01*
X122846032Y3731308D02*
X122847600Y3717400D01*
X122847600Y6922400D02*
X122846032Y6908493D01*
X122722600Y7362400D02*
X122724167Y7348493D01*
X122846032Y7788493D02*
X122841410Y7775283D01*
X122074167Y706508D02*
X122072600Y692600D01*
X122722600Y6797400D02*
X122722600Y6482400D01*
X122724167Y6468493D02*
X122728789Y6455283D01*
X122841410Y7775283D02*
X122833964Y7763432D01*
X122196032Y803693D02*
X122191410Y790483D01*
X122728789Y7704518D02*
X122724167Y7691308D01*
X122841410Y7264518D02*
X122846032Y7251308D01*
X122833964Y7763432D02*
X122824068Y7753536D01*
X122072600Y692600D02*
X122072600Y377600D01*
X122846032Y6908493D02*
X122841410Y6895283D01*
X122847600Y7802400D02*
X122846032Y7788493D01*
X122121192Y753533D02*
X122107982Y748911D01*
X122812217Y6866090D02*
X122799007Y6861468D01*
X122757982Y7306090D02*
X122771192Y7301468D01*
X122771192Y7301468D02*
X122799007Y7298333D01*
X122724167Y5588493D02*
X122728789Y5575283D01*
X122799007Y7298333D02*
X122812217Y7293711D01*
X122812217Y7293711D02*
X122824068Y7286265D01*
X122799007Y5538333D02*
X122812217Y5533711D01*
X122824068Y7286265D02*
X122833964Y7276369D01*
X122728789Y5575283D02*
X122736235Y5563432D01*
X122833964Y7276369D02*
X122841410Y7264518D01*
X122846032Y7251308D02*
X122847600Y7237400D01*
X122847600Y7237400D02*
X122847600Y6922400D01*
X122833964Y5516369D02*
X122841410Y5504518D01*
X122833964Y6883432D02*
X122824068Y6873536D01*
X122746131Y5553536D02*
X122757982Y5546090D01*
X122841410Y6895283D02*
X122833964Y6883432D01*
X122824068Y6873536D02*
X122812217Y6866090D01*
X122771192Y6858333D02*
X122757982Y6853711D01*
X122736235Y6836369D02*
X122728789Y6824518D01*
X122728789Y6824518D02*
X122724167Y6811308D01*
X122724167Y6811308D02*
X122722600Y6797400D01*
X122746131Y5086265D02*
X122736235Y5076369D01*
X122736235Y5076369D02*
X122728789Y5064518D01*
X122728789Y5064518D02*
X122724167Y5051308D01*
X122724167Y5051308D02*
X122722600Y5037400D01*
X122722600Y5037400D02*
X122722600Y4722400D01*
X122722600Y4722400D02*
X122724167Y4708493D01*
X122724167Y4708493D02*
X122728789Y4695283D01*
X122728789Y4695283D02*
X122736235Y4683432D01*
X122736235Y4683432D02*
X122746131Y4673536D01*
X122746131Y4673536D02*
X122757982Y4666090D01*
X122757982Y4666090D02*
X122771192Y4661468D01*
X122771192Y4661468D02*
X122799007Y4658333D01*
X122799007Y4658333D02*
X122812217Y4653711D01*
X122812217Y4653711D02*
X122824068Y4646265D01*
X122824068Y4646265D02*
X122833964Y4636369D01*
X122833964Y4636369D02*
X122841410Y4624518D01*
X122841410Y4624518D02*
X122846032Y4611308D01*
X122846032Y4611308D02*
X122847600Y4597400D01*
X122847600Y4597400D02*
X122847600Y4282400D01*
X122847600Y4282400D02*
X122846032Y4268493D01*
X122846032Y4268493D02*
X122841410Y4255283D01*
X122841410Y4255283D02*
X122833964Y4243432D01*
X122833964Y4243432D02*
X122824068Y4233536D01*
X122824068Y4233536D02*
X122812217Y4226090D01*
X122812217Y4226090D02*
X122799007Y4221468D01*
X122799007Y4221468D02*
X122771192Y4218333D01*
X122771192Y4218333D02*
X122757982Y4213711D01*
X122757982Y4213711D02*
X122746131Y4206265D01*
X122746131Y4206265D02*
X122736235Y4196369D01*
X122736235Y4196369D02*
X122728789Y4184518D01*
X122728789Y4184518D02*
X122724167Y4171308D01*
X122724167Y4171308D02*
X122722600Y4157400D01*
X122722600Y4157400D02*
X122722600Y3842400D01*
X122722600Y3842400D02*
X122724167Y3828493D01*
X122724167Y3828493D02*
X122728789Y3815283D01*
X122728789Y3815283D02*
X122736235Y3803432D01*
X122736235Y3803432D02*
X122746131Y3793536D01*
X122746131Y3793536D02*
X122757982Y3786090D01*
X122757982Y3786090D02*
X122771192Y3781468D01*
X122771192Y3781468D02*
X122799007Y3778333D01*
X122799007Y3778333D02*
X122812217Y3773711D01*
X122812217Y3773711D02*
X122824068Y3766265D01*
X122824068Y3766265D02*
X122833964Y3756369D01*
X122833964Y3756369D02*
X122841410Y3744518D01*
X122841410Y3744518D02*
X122846032Y3731308D01*
X122847600Y3717400D02*
X122847600Y2663128D01*
X122847600Y2663128D02*
X122197600Y2013128D01*
X122197600Y2013128D02*
X122197600Y1697600D01*
X122197600Y1697600D02*
X122196032Y1683693D01*
X122196032Y1683693D02*
X122191410Y1670483D01*
X122183964Y1658632D02*
X122174068Y1648736D01*
X122174068Y1648736D02*
X122162217Y1641290D01*
X122162217Y1641290D02*
X122149007Y1636668D01*
X122149007Y1636668D02*
X122121192Y1633533D01*
X122121192Y1633533D02*
X122107982Y1628911D01*
X122107982Y1628911D02*
X122096131Y1621465D01*
X122096131Y1621465D02*
X122086235Y1611569D01*
X122086235Y1611569D02*
X122078789Y1599718D01*
X122078789Y1599718D02*
X122074167Y1586508D01*
X122074167Y1586508D02*
X122072600Y1572600D01*
X122072600Y1572600D02*
X122072600Y1257600D01*
X122072600Y1257600D02*
X122074167Y1243693D01*
X122074167Y1243693D02*
X122078789Y1230483D01*
X122078789Y1230483D02*
X122086235Y1218632D01*
X122086235Y1218632D02*
X122096131Y1208736D01*
X122096131Y1208736D02*
X122107982Y1201290D01*
X122107982Y1201290D02*
X122121192Y1196668D01*
X122121192Y1196668D02*
X122149007Y1193533D01*
X122149007Y1193533D02*
X122162217Y1188911D01*
X122162217Y1188911D02*
X122174068Y1181465D01*
X122183964Y1171569D02*
X122191410Y1159718D01*
X122196032Y1146508D02*
X122197600Y1132600D01*
X122197600Y1132600D02*
X122197600Y817600D01*
X122197600Y817600D02*
X122196032Y803693D01*
X122191410Y790483D02*
X122183964Y778632D01*
X122183964Y778632D02*
X122174068Y768736D01*
X122174068Y768736D02*
X122162217Y761290D01*
X122162217Y761290D02*
X122149007Y756668D01*
X122149007Y756668D02*
X122121192Y753533D01*
X122107982Y748911D02*
X122096131Y741465D01*
X122096131Y741465D02*
X122086235Y731569D01*
X122086235Y731569D02*
X122078789Y719718D01*
X122078789Y719718D02*
X122074167Y706508D01*
X122072600Y377600D02*
X122074167Y363693D01*
X122074167Y363693D02*
X122078789Y350483D01*
X122078789Y350483D02*
X122086235Y338632D01*
X122086235Y338632D02*
X122096131Y328736D01*
X122096131Y328736D02*
X122107982Y321290D01*
X122107982Y321290D02*
X122121192Y316668D01*
X122121192Y316668D02*
X122149007Y313533D01*
X122149007Y313533D02*
X122162217Y308911D01*
X122162217Y308911D02*
X122174068Y301465D01*
X122174068Y301465D02*
X122183964Y291569D01*
X122183964Y291569D02*
X122191410Y279718D01*
X121748800Y8802400D02*
X121650000Y8901200D01*
X123152400Y2536872D02*
X123152400Y8238128D01*
X122502400Y1886872D02*
X123152400Y2536872D01*
X122502400Y-16763128D02*
X122502400Y1886872D01*
X120263128Y-19002400D02*
X122502400Y-16763128D01*
X122588128Y8802400D02*
X121748800Y8802400D01*
X123152400Y8238128D02*
X122588128Y8802400D01*
X59900000Y-19101200D02*
X59998800Y-19002400D01*
X59998800Y-19002400D02*
X120263128Y-19002400D01*
D21*
X8050000Y-24300000D02*
X7100000Y-24300000D01*
X36400000Y-25000000D02*
X8750000Y-25000000D01*
X41137500Y-20262500D02*
X36400000Y-25000000D01*
X43575000Y-13600000D02*
X41137500Y-16037500D01*
X115025000Y-15675000D02*
X114075000Y-16625000D01*
X114075000Y-16625000D02*
X55900000Y-16625000D01*
X55900000Y-16625000D02*
X52300000Y-13025000D01*
X51250000Y-13025000D02*
X50700000Y-12475000D01*
X8750000Y-25000000D02*
X8050000Y-24300000D01*
X52300000Y-13025000D02*
X51250000Y-13025000D01*
X50700000Y-12475000D02*
X47200000Y-12475000D01*
X115025000Y2000000D02*
X115025000Y-15675000D01*
X47200000Y-12475000D02*
X46075000Y-13600000D01*
X41137500Y-16037500D02*
X41137500Y-20262500D01*
X46075000Y-13600000D02*
X43575000Y-13600000D01*
X114750000Y2275000D02*
X115025000Y2000000D01*
X114750000Y6000000D02*
X114750000Y2275000D01*
X9100000Y-24025000D02*
X8575000Y-23500000D01*
X36150000Y-24025000D02*
X9100000Y-24025000D01*
X40312500Y-19862500D02*
X36150000Y-24025000D01*
X45750000Y-12750000D02*
X43025000Y-12750000D01*
X46712500Y-11787500D02*
X45750000Y-12750000D01*
X43025000Y-12750000D02*
X40312500Y-15462500D01*
X114025000Y2800000D02*
X113525000Y2300000D01*
X114025000Y6575000D02*
X114025000Y2800000D01*
X114775000Y6900000D02*
X114350000Y6900000D01*
X40312500Y-15462500D02*
X40312500Y-19862500D01*
X56350000Y-15850000D02*
X52850000Y-12350000D01*
X113525000Y2300000D02*
X113525000Y-15100000D01*
X114350000Y6900000D02*
X114025000Y6575000D01*
X113525000Y-15100000D02*
X112775000Y-15850000D01*
X8575000Y-23500000D02*
X6400000Y-23500000D01*
X51237500Y-11787500D02*
X46712500Y-11787500D01*
X112775000Y-15850000D02*
X56350000Y-15850000D01*
X52850000Y-12350000D02*
X51800000Y-12350000D01*
X51800000Y-12350000D02*
X51237500Y-11787500D01*
X42050000Y6528553D02*
X42421447Y6900000D01*
X37450000Y-3875000D02*
X41800000Y475000D01*
X42421447Y6900000D02*
X42775000Y6900000D01*
X26725000Y-3875000D02*
X37450000Y-3875000D01*
X18912500Y-11687500D02*
X26725000Y-3875000D01*
X18912500Y-11687500D02*
X16362500Y-11687500D01*
X16362500Y-11687500D02*
X16350000Y-11700000D01*
X42050000Y6528553D02*
X42050000Y2150000D01*
X41800000Y1900000D02*
X41800000Y475000D01*
X42050000Y2150000D02*
X41800000Y1900000D01*
X42750000Y2925000D02*
X42750000Y6000000D01*
X15550000Y-12050000D02*
X16050000Y-12550000D01*
X15550000Y-10750000D02*
X15550000Y-12050000D01*
X19400000Y-12550000D02*
X27250000Y-4700000D01*
X14900000Y-10100000D02*
X15550000Y-10750000D01*
X13200000Y-10375000D02*
X13475000Y-10100000D01*
X27250000Y-4700000D02*
X37950000Y-4700000D01*
X13475000Y-10100000D02*
X14900000Y-10100000D01*
X16050000Y-12550000D02*
X19400000Y-12550000D01*
X43400000Y2275000D02*
X42750000Y2925000D01*
X37950000Y-4700000D02*
X43400000Y750000D01*
X43400000Y750000D02*
X43400000Y2275000D01*
D22*
X14003385Y12193913D02*
X13863660Y12193913D01*
X19086872Y17277400D02*
X14003385Y12193913D01*
X37113128Y17277400D02*
X19086872Y17277400D01*
X42038128Y12352400D02*
X37113128Y17277400D01*
X43563128Y12352400D02*
X42038128Y12352400D01*
X49551200Y8802400D02*
X47113128Y8802400D01*
X47113128Y8802400D02*
X43563128Y12352400D01*
X49650000Y8901200D02*
X49551200Y8802400D01*
X14218912Y11978386D02*
X14218912Y11838661D01*
X19213126Y16972600D02*
X14218912Y11978386D01*
X43436872Y12047600D02*
X41911872Y12047600D01*
X45072196Y10412276D02*
X43436872Y12047600D01*
X45694007Y9790464D02*
X45072196Y10412276D01*
X45701642Y9780890D02*
X45694007Y9790464D01*
X45706957Y9769854D02*
X45701642Y9780890D01*
X45706957Y9733726D02*
X45709682Y9745667D01*
X45678331Y9680567D02*
X45681056Y9692508D01*
X45678332Y9668319D02*
X45678331Y9680567D01*
X45686371Y9645344D02*
X45681056Y9656380D01*
X45694006Y9635770D02*
X45686371Y9645344D01*
X45927786Y9401990D02*
X45694006Y9635770D01*
X45937362Y9394353D02*
X45927786Y9401990D01*
X47300282Y8378790D02*
X47288431Y8386236D01*
X41911872Y12047600D02*
X36986872Y16972600D01*
X48549517Y8378790D02*
X48536307Y8374168D01*
X47313492Y8374168D02*
X47300282Y8378790D01*
X46308624Y9081288D02*
X46316261Y9090862D01*
X45709681Y9757915D02*
X45706957Y9769854D01*
X46684127Y8792686D02*
X46672186Y8795411D01*
X47698710Y8407983D02*
X47691264Y8396132D01*
X47711089Y8462218D02*
X47706467Y8449008D01*
X46037684Y9417666D02*
X46025745Y9414940D01*
X47718535Y8474069D02*
X47711089Y8462218D01*
X47740282Y8491411D02*
X47728431Y8483965D01*
X48158535Y8396132D02*
X48151089Y8407983D01*
X47229517Y8491411D02*
X47216307Y8496033D01*
X46606778Y8766786D02*
X46594837Y8764061D01*
X48096307Y8496033D02*
X48082400Y8497600D01*
X48121368Y8483965D02*
X48109517Y8491411D01*
X45972583Y9386315D02*
X45960337Y9386314D01*
X48138710Y8462218D02*
X48131264Y8474069D01*
X47327400Y8372600D02*
X47313492Y8374168D01*
X45948396Y9389040D02*
X45937362Y9394353D01*
X48143332Y8449008D02*
X48138710Y8462218D01*
X48109517Y8491411D02*
X48096307Y8496033D01*
X48591089Y8462218D02*
X48586467Y8449008D01*
X45681056Y9656380D02*
X45678332Y9668319D01*
X48583332Y8421193D02*
X48578710Y8407983D01*
X47669517Y8378790D02*
X47656307Y8374168D01*
X48608431Y8483965D02*
X48598535Y8474069D01*
X48131264Y8474069D02*
X48121368Y8483965D01*
X48620282Y8491411D02*
X48608431Y8483965D01*
X47703332Y8421193D02*
X47698710Y8407983D01*
X48647400Y8497600D02*
X48633492Y8496033D01*
X47728431Y8483965D02*
X47718535Y8474069D01*
X46559616Y8772099D02*
X46550040Y8779736D01*
X46331936Y9123413D02*
X46331935Y9135661D01*
X48146467Y8421193D02*
X48143332Y8449008D01*
X48207400Y8372600D02*
X48193492Y8374168D01*
X45686370Y9703542D02*
X45694007Y9713116D01*
X46300586Y9046065D02*
X46300585Y9058313D01*
X48633492Y8496033D02*
X48620282Y8491411D01*
X46072907Y9409626D02*
X46061873Y9414940D01*
X48082400Y8497600D02*
X47767400Y8497600D01*
X48578710Y8407983D02*
X48571264Y8396132D01*
X46316260Y9013516D02*
X46308625Y9023090D01*
X45995558Y9394354D02*
X45984524Y9389040D01*
X48151089Y8407983D02*
X48146467Y8421193D01*
X46049932Y9417665D02*
X46037684Y9417666D01*
X47691264Y8396132D02*
X47681368Y8386236D01*
X46659938Y8795412D02*
X46647999Y8792686D01*
X45709682Y9745667D02*
X45709681Y9757915D01*
X46550040Y8779736D02*
X46316260Y9013516D01*
X45694007Y9713116D02*
X45701643Y9722692D01*
X48571264Y8396132D02*
X48561368Y8386236D01*
X47767400Y8497600D02*
X47753492Y8496033D01*
X47706467Y8449008D02*
X47703332Y8421193D01*
X48598535Y8474069D02*
X48591089Y8462218D01*
X47263332Y8449008D02*
X47258710Y8462218D01*
X48536307Y8374168D02*
X48522400Y8372600D01*
X48193492Y8374168D02*
X48180282Y8378790D01*
X48522400Y8372600D02*
X48207400Y8372600D01*
X47258710Y8462218D02*
X47251264Y8474069D01*
X46323897Y9100438D02*
X46329211Y9111472D01*
X47642400Y8372600D02*
X47327400Y8372600D01*
X46331935Y9135661D02*
X46329211Y9147600D01*
X45701643Y9722692D02*
X45706957Y9733726D01*
X47278535Y8396132D02*
X47271089Y8407983D01*
X47266467Y8421193D02*
X47263332Y8449008D01*
X47251264Y8474069D02*
X47241368Y8483965D01*
X47241368Y8483965D02*
X47229517Y8491411D01*
X47216307Y8496033D02*
X47202400Y8497600D01*
X47202400Y8497600D02*
X46986872Y8497600D01*
X49551200Y8497600D02*
X48647400Y8497600D01*
X45984524Y9389040D02*
X45972583Y9386315D01*
X46986872Y8497600D02*
X46704736Y8779736D01*
X46570650Y8766786D02*
X46559616Y8772099D01*
X46695161Y8787372D02*
X46684127Y8792686D01*
X46316261Y9168210D02*
X46082482Y9401990D01*
X46672186Y8795411D02*
X46659938Y8795412D01*
X46014709Y9409627D02*
X45995558Y9394354D01*
X45960337Y9386314D02*
X45948396Y9389040D01*
X48180282Y8378790D02*
X48168431Y8386236D01*
X46647999Y8792686D02*
X46636963Y8787373D01*
X48586467Y8449008D02*
X48583332Y8421193D01*
X46636963Y8787373D02*
X46617812Y8772100D01*
X48561368Y8386236D02*
X48549517Y8378790D01*
X47271089Y8407983D02*
X47266467Y8421193D01*
X46617812Y8772100D02*
X46606778Y8766786D01*
X47681368Y8386236D02*
X47669517Y8378790D01*
X46594837Y8764061D02*
X46582591Y8764060D01*
X47288431Y8386236D02*
X47278535Y8396132D01*
X46582591Y8764060D02*
X46570650Y8766786D01*
X47656307Y8374168D02*
X47642400Y8372600D01*
X46329211Y9111472D02*
X46331936Y9123413D01*
X45681056Y9692508D02*
X45686370Y9703542D01*
X46308625Y9023090D02*
X46303310Y9034126D01*
X49650000Y8398800D02*
X49551200Y8497600D01*
X46316261Y9090862D02*
X46323897Y9100438D01*
X46303310Y9034126D02*
X46300586Y9046065D01*
X36986872Y16972600D02*
X19213126Y16972600D01*
X46300585Y9058313D02*
X46303310Y9070254D01*
X46303310Y9070254D02*
X46308624Y9081288D01*
X47753492Y8496033D02*
X47740282Y8491411D01*
X46329211Y9147600D02*
X46323896Y9158636D01*
X46323896Y9158636D02*
X46316261Y9168210D01*
X46704736Y8779736D02*
X46695161Y8787372D01*
X46082482Y9401990D02*
X46072907Y9409626D01*
X48168431Y8386236D02*
X48158535Y8396132D01*
X46061873Y9414940D02*
X46049932Y9417665D01*
X46025745Y9414940D02*
X46014709Y9409627D01*
D21*
X51300000Y8400000D02*
X52050000Y9150000D01*
X52950000Y10050000D02*
X52050000Y9150000D01*
X52950000Y14325000D02*
X52950000Y10050000D01*
X88950000Y14300000D02*
X88950000Y10050000D01*
X88950000Y10050000D02*
X86800000Y7900000D01*
D22*
X48473800Y-7352400D02*
X48375000Y-7451200D01*
X73163128Y-7352400D02*
X48473800Y-7352400D01*
X80827400Y311872D02*
X73163128Y-7352400D01*
X80827400Y1811872D02*
X80827400Y311872D01*
X82777400Y3761872D02*
X80827400Y1811872D01*
X82777400Y4712810D02*
X82777400Y3761872D01*
X82778837Y4725560D02*
X82777400Y4712810D01*
X82783074Y4737670D02*
X82778837Y4725560D01*
X82789900Y4748533D02*
X82783074Y4737670D01*
X82798973Y4757606D02*
X82789900Y4748533D01*
X82809836Y4764432D02*
X82798973Y4757606D01*
X82821946Y4768669D02*
X82809836Y4764432D01*
X82847445Y4771542D02*
X82821946Y4768669D01*
X82859555Y4775779D02*
X82847445Y4771542D01*
X82870418Y4782605D02*
X82859555Y4775779D01*
X82879491Y4791678D02*
X82870418Y4782605D01*
X82886317Y4802541D02*
X82879491Y4791678D01*
X82890554Y4814651D02*
X82886317Y4802541D01*
X82891990Y4827400D02*
X82890554Y4814651D01*
X82891990Y5152810D02*
X82891990Y4827400D01*
X82890554Y5165560D02*
X82891990Y5152810D01*
X82886317Y5177670D02*
X82890554Y5165560D01*
X82879491Y5188533D02*
X82886317Y5177670D01*
X82870418Y5197606D02*
X82879491Y5188533D01*
X82891990Y6912810D02*
X82891990Y6587400D01*
X83394193Y7901446D02*
X83383251Y7892720D01*
X82879491Y6948533D02*
X82886317Y6937670D01*
X82870418Y6957606D02*
X82879491Y6948533D01*
X82859555Y6964432D02*
X82870418Y6957606D01*
X82777400Y7027400D02*
X82778837Y7014651D01*
X82847445Y6968669D02*
X82859555Y6964432D01*
X82783074Y7002541D02*
X82789900Y6991678D01*
X82821946Y6091542D02*
X82847445Y6088669D01*
X82778837Y7014651D02*
X82783074Y7002541D01*
X82778837Y6134651D02*
X82783074Y6122541D01*
X82777400Y7286872D02*
X82777400Y7027400D01*
X82809836Y5644432D02*
X82798973Y5637606D01*
X83383251Y7892720D02*
X82777400Y7286872D01*
X82891990Y5707400D02*
X82890554Y5694651D01*
X82798973Y6982605D02*
X82809836Y6975779D01*
X83522830Y7874807D02*
X83508834Y7874806D01*
X83406803Y7907518D02*
X83394193Y7901446D01*
X82886317Y6937670D02*
X82890554Y6925560D01*
X83434443Y7910632D02*
X83420447Y7910631D01*
X82777400Y6472810D02*
X82777400Y6147400D01*
X83448087Y7907517D02*
X83434443Y7910632D01*
X82798973Y6102605D02*
X82809836Y6095779D01*
X83764852Y8241044D02*
X83767967Y8227400D01*
X82789900Y6991678D02*
X82798973Y6982605D01*
X83508834Y7874806D02*
X83495190Y7877921D01*
X83767967Y8227400D02*
X83774039Y8214790D01*
X83764853Y8255040D02*
X83764852Y8241044D01*
X82891990Y6032810D02*
X82891990Y5707400D01*
X83782764Y8292236D02*
X83774039Y8281294D01*
X83420447Y7910631D02*
X83406803Y7907518D01*
X82777400Y6147400D02*
X82778837Y6134651D01*
X83800677Y8152655D02*
X83797564Y8139011D01*
X82891990Y6587400D02*
X82890554Y6574651D01*
X83791492Y8192905D02*
X83797563Y8180295D01*
X82777400Y5592810D02*
X82777400Y5267400D01*
X82890554Y6925560D02*
X82891990Y6912810D01*
X83560027Y7892720D02*
X83549085Y7883994D01*
X83767966Y8268684D02*
X83764853Y8255040D01*
X85551200Y8497600D02*
X83988128Y8497600D01*
X83774039Y8214790D02*
X83791492Y8192905D01*
X82821946Y6971542D02*
X82847445Y6968669D01*
X83797564Y8139011D02*
X83791492Y8126401D01*
X85650000Y8398800D02*
X85551200Y8497600D01*
X82809836Y6975779D02*
X82821946Y6971542D01*
X83797563Y8180295D02*
X83800678Y8166651D01*
X83482581Y7883994D02*
X83460697Y7901446D01*
X82789900Y6508533D02*
X82783074Y6497670D01*
X83988128Y8497600D02*
X83782764Y8292236D01*
X83791492Y8126401D02*
X83782764Y8115458D01*
X82886317Y6057670D02*
X82890554Y6045560D01*
X83460697Y7901446D02*
X83448087Y7907517D01*
X82789900Y6111678D02*
X82798973Y6102605D01*
X83774039Y8281294D02*
X83767966Y8268684D01*
X83800678Y8166651D02*
X83800677Y8152655D01*
X83549085Y7883994D02*
X83536474Y7877920D01*
X82783074Y5617670D02*
X82778837Y5605560D01*
X83782764Y8115458D02*
X83560027Y7892720D01*
X82783074Y5242541D02*
X82789900Y5231678D01*
X83536474Y7877920D02*
X83522830Y7874807D01*
X82890554Y6574651D02*
X82886317Y6562541D01*
X83495190Y7877921D02*
X83482581Y7883994D01*
X82783074Y6122541D02*
X82789900Y6111678D01*
X82886317Y6562541D02*
X82879491Y6551678D01*
X82879491Y6551678D02*
X82870418Y6542605D01*
X82870418Y6542605D02*
X82859555Y6535779D01*
X82859555Y6535779D02*
X82847445Y6531542D01*
X82847445Y6531542D02*
X82821946Y6528669D01*
X82821946Y6528669D02*
X82809836Y6524432D01*
X82809836Y6524432D02*
X82798973Y6517606D01*
X82798973Y6517606D02*
X82789900Y6508533D01*
X82783074Y6497670D02*
X82778837Y6485560D01*
X82778837Y6485560D02*
X82777400Y6472810D01*
X82809836Y6095779D02*
X82821946Y6091542D01*
X82847445Y6088669D02*
X82859555Y6084432D01*
X82859555Y6084432D02*
X82870418Y6077606D01*
X82870418Y6077606D02*
X82879491Y6068533D01*
X82879491Y6068533D02*
X82886317Y6057670D01*
X82890554Y6045560D02*
X82891990Y6032810D01*
X82890554Y5694651D02*
X82886317Y5682541D01*
X82886317Y5682541D02*
X82879491Y5671678D01*
X82879491Y5671678D02*
X82870418Y5662605D01*
X82870418Y5662605D02*
X82859555Y5655779D01*
X82859555Y5655779D02*
X82847445Y5651542D01*
X82847445Y5651542D02*
X82821946Y5648669D01*
X82821946Y5648669D02*
X82809836Y5644432D01*
X82798973Y5637606D02*
X82789900Y5628533D01*
X82789900Y5628533D02*
X82783074Y5617670D01*
X82778837Y5605560D02*
X82777400Y5592810D01*
X82777400Y5267400D02*
X82778837Y5254651D01*
X82778837Y5254651D02*
X82783074Y5242541D01*
X82789900Y5231678D02*
X82798973Y5222605D01*
X82798973Y5222605D02*
X82809836Y5215779D01*
X82809836Y5215779D02*
X82821946Y5211542D01*
X82821946Y5211542D02*
X82847445Y5208669D01*
X82847445Y5208669D02*
X82859555Y5204432D01*
X82859555Y5204432D02*
X82870418Y5197606D01*
X73036872Y-7047600D02*
X48473800Y-7047600D01*
X82472600Y3888128D02*
X80522600Y1938128D01*
X48473800Y-7047600D02*
X48375000Y-6948800D01*
X82472600Y7413128D02*
X82472600Y3888128D01*
X83861872Y8802400D02*
X82472600Y7413128D01*
X80522600Y1938128D02*
X80522600Y438128D01*
X85551200Y8802400D02*
X83861872Y8802400D01*
X85650000Y8901200D02*
X85551200Y8802400D01*
X80522600Y438128D02*
X73036872Y-7047600D01*
D21*
X71200000Y-5125000D02*
X78875000Y2550000D01*
X9300000Y-11200000D02*
X9300000Y-13250000D01*
X32362500Y-15887500D02*
X39700000Y-8550000D01*
X9300000Y-13250000D02*
X13450000Y-17400000D01*
X44350000Y-8550000D02*
X47775000Y-5125000D01*
X8475000Y-10375000D02*
X9300000Y-11200000D01*
X13450000Y-17400000D02*
X19025000Y-17400000D01*
X19025000Y-17400000D02*
X20537500Y-15887500D01*
X39700000Y-8550000D02*
X44350000Y-8550000D01*
X78875000Y2550000D02*
X78875000Y6000000D01*
X47775000Y-5125000D02*
X71200000Y-5125000D01*
X8000000Y-10375000D02*
X8475000Y-10375000D01*
X20537500Y-15887500D02*
X32362500Y-15887500D01*
X9775000Y-10375000D02*
X9300000Y-10375000D01*
X10600000Y-11200000D02*
X9775000Y-10375000D01*
X10600000Y-13050000D02*
X10600000Y-11200000D01*
X13350000Y-15800000D02*
X10600000Y-13050000D01*
X78050000Y2700000D02*
X70925000Y-4425000D01*
X78050000Y6475000D02*
X78050000Y2700000D01*
X78900000Y6900000D02*
X78475000Y6900000D01*
X78475000Y6900000D02*
X78050000Y6475000D01*
X47425000Y-4425000D02*
X44175000Y-7675000D01*
X20175000Y-14975000D02*
X19350000Y-15800000D01*
X44175000Y-7675000D02*
X39325000Y-7675000D01*
X39325000Y-7675000D02*
X32025000Y-14975000D01*
X32025000Y-14975000D02*
X20175000Y-14975000D01*
X70925000Y-4425000D02*
X47425000Y-4425000D01*
X19350000Y-15800000D02*
X13350000Y-15800000D01*
D23*
G36*
X18842862Y4827532D02*
G01*
X20298074Y3372320D01*
X20312486Y3299865D01*
X20344825Y3221792D01*
X20391774Y3151528D01*
X20451528Y3091774D01*
X20521792Y3044825D01*
X20599865Y3012486D01*
X20672320Y2998074D01*
X21452532Y2217862D01*
X21523000Y2047737D01*
X21523000Y-1135235D01*
X21496282Y-1108517D01*
X21413734Y-1053361D01*
X21322011Y-1015368D01*
X21224640Y-996000D01*
X21125360Y-996000D01*
X21027989Y-1015368D01*
X20936266Y-1053361D01*
X20853718Y-1108517D01*
X20783517Y-1178718D01*
X20728361Y-1261266D01*
X20690368Y-1352989D01*
X20671000Y-1450360D01*
X20671000Y-1549640D01*
X20690368Y-1647011D01*
X20728361Y-1738734D01*
X20783517Y-1821282D01*
X20853718Y-1891483D01*
X20936266Y-1946639D01*
X21027989Y-1984632D01*
X21125360Y-2004000D01*
X21224640Y-2004000D01*
X21322011Y-1984632D01*
X21413734Y-1946639D01*
X21496282Y-1891483D01*
X21523000Y-1864765D01*
X21523000Y-2847737D01*
X21452532Y-3017862D01*
X19892862Y-4577532D01*
X19722737Y-4648000D01*
X13377263Y-4648000D01*
X13207138Y-4577532D01*
X13097468Y-4467862D01*
X13027000Y-4297737D01*
X13027000Y-3175093D01*
X13053361Y-3238734D01*
X13108517Y-3321282D01*
X13178718Y-3391483D01*
X13261266Y-3446639D01*
X13352989Y-3484632D01*
X13450360Y-3504000D01*
X13549640Y-3504000D01*
X13647011Y-3484632D01*
X13738734Y-3446639D01*
X13821282Y-3391483D01*
X13891483Y-3321282D01*
X13946639Y-3238734D01*
X13984632Y-3147011D01*
X14004000Y-3049640D01*
X14004000Y-2950360D01*
X13984632Y-2852989D01*
X13946639Y-2761266D01*
X13891483Y-2678718D01*
X13821282Y-2608517D01*
X13738734Y-2553361D01*
X13647011Y-2515368D01*
X13549640Y-2496000D01*
X13450360Y-2496000D01*
X13352989Y-2515368D01*
X13261266Y-2553361D01*
X13178718Y-2608517D01*
X13108517Y-2678718D01*
X13053361Y-2761266D01*
X13027000Y-2824907D01*
X13027000Y-2150360D01*
X17146000Y-2150360D01*
X17146000Y-2249640D01*
X17165368Y-2347011D01*
X17203361Y-2438734D01*
X17258517Y-2521282D01*
X17328718Y-2591483D01*
X17411266Y-2646639D01*
X17502989Y-2684632D01*
X17600360Y-2704000D01*
X17699640Y-2704000D01*
X17797011Y-2684632D01*
X17888734Y-2646639D01*
X17971282Y-2591483D01*
X18041483Y-2521282D01*
X18096639Y-2438734D01*
X18134632Y-2347011D01*
X18154000Y-2249640D01*
X18154000Y-2150360D01*
X18144055Y-2100360D01*
X18421000Y-2100360D01*
X18421000Y-2199640D01*
X18440368Y-2297011D01*
X18478361Y-2388734D01*
X18533517Y-2471282D01*
X18603718Y-2541483D01*
X18686266Y-2596639D01*
X18777989Y-2634632D01*
X18875360Y-2654000D01*
X18974640Y-2654000D01*
X19072011Y-2634632D01*
X19163734Y-2596639D01*
X19246282Y-2541483D01*
X19316483Y-2471282D01*
X19371639Y-2388734D01*
X19409632Y-2297011D01*
X19429000Y-2199640D01*
X19429000Y-2100360D01*
X19409632Y-2002989D01*
X19371639Y-1911266D01*
X19316483Y-1828718D01*
X19246282Y-1758517D01*
X19163734Y-1703361D01*
X19072011Y-1665368D01*
X18974640Y-1646000D01*
X18875360Y-1646000D01*
X18777989Y-1665368D01*
X18686266Y-1703361D01*
X18603718Y-1758517D01*
X18533517Y-1828718D01*
X18478361Y-1911266D01*
X18440368Y-2002989D01*
X18421000Y-2100360D01*
X18144055Y-2100360D01*
X18134632Y-2052989D01*
X18096639Y-1961266D01*
X18041483Y-1878718D01*
X17971282Y-1808517D01*
X17888734Y-1753361D01*
X17797011Y-1715368D01*
X17699640Y-1696000D01*
X17600360Y-1696000D01*
X17502989Y-1715368D01*
X17411266Y-1753361D01*
X17328718Y-1808517D01*
X17258517Y-1878718D01*
X17203361Y-1961266D01*
X17165368Y-2052989D01*
X17146000Y-2150360D01*
X13027000Y-2150360D01*
X13027000Y1299640D01*
X13771000Y1299640D01*
X13771000Y1200360D01*
X13790368Y1102989D01*
X13828361Y1011266D01*
X13883517Y928718D01*
X13953718Y858517D01*
X14036266Y803361D01*
X14127989Y765368D01*
X14205250Y750000D01*
X14127989Y734632D01*
X14036266Y696639D01*
X13953718Y641483D01*
X13883517Y571282D01*
X13828361Y488734D01*
X13790368Y397011D01*
X13771000Y299640D01*
X13771000Y200360D01*
X13790368Y102989D01*
X13828361Y11266D01*
X13883517Y-71282D01*
X13953718Y-141483D01*
X14036266Y-196639D01*
X14127989Y-234632D01*
X14205250Y-250000D01*
X14127989Y-265368D01*
X14036266Y-303361D01*
X13953718Y-358517D01*
X13883517Y-428718D01*
X13828361Y-511266D01*
X13790368Y-602989D01*
X13771000Y-700360D01*
X13771000Y-799640D01*
X13790368Y-897011D01*
X13828361Y-988734D01*
X13883517Y-1071282D01*
X13953718Y-1141483D01*
X14036266Y-1196639D01*
X14127989Y-1234632D01*
X14225360Y-1254000D01*
X14324640Y-1254000D01*
X14422011Y-1234632D01*
X14513734Y-1196639D01*
X14596282Y-1141483D01*
X14666483Y-1071282D01*
X14721639Y-988734D01*
X14759632Y-897011D01*
X14775000Y-819750D01*
X14790368Y-897011D01*
X14828361Y-988734D01*
X14883517Y-1071282D01*
X14953718Y-1141483D01*
X15036266Y-1196639D01*
X15127989Y-1234632D01*
X15225360Y-1254000D01*
X15324640Y-1254000D01*
X15422011Y-1234632D01*
X15513734Y-1196639D01*
X15596282Y-1141483D01*
X15666483Y-1071282D01*
X15721639Y-988734D01*
X15759632Y-897011D01*
X15775000Y-819750D01*
X15790368Y-897011D01*
X15828361Y-988734D01*
X15883517Y-1071282D01*
X15953718Y-1141483D01*
X16036266Y-1196639D01*
X16127989Y-1234632D01*
X16225360Y-1254000D01*
X16324640Y-1254000D01*
X16422011Y-1234632D01*
X16513734Y-1196639D01*
X16596282Y-1141483D01*
X16666483Y-1071282D01*
X16721639Y-988734D01*
X16759632Y-897011D01*
X16779000Y-799640D01*
X16779000Y-700360D01*
X16759632Y-602989D01*
X16721639Y-511266D01*
X16666483Y-428718D01*
X16596282Y-358517D01*
X16513734Y-303361D01*
X16422011Y-265368D01*
X16344750Y-250000D01*
X16422011Y-234632D01*
X16444395Y-225360D01*
X18096000Y-225360D01*
X18096000Y-324640D01*
X18115368Y-422011D01*
X18153361Y-513734D01*
X18208517Y-596282D01*
X18278718Y-666483D01*
X18361266Y-721639D01*
X18452989Y-759632D01*
X18550360Y-779000D01*
X18649640Y-779000D01*
X18747011Y-759632D01*
X18838734Y-721639D01*
X18921282Y-666483D01*
X18991483Y-596282D01*
X19046639Y-513734D01*
X19084632Y-422011D01*
X19104000Y-324640D01*
X19104000Y-225360D01*
X19084632Y-127989D01*
X19046639Y-36266D01*
X18991483Y46282D01*
X18921282Y116483D01*
X18838734Y171639D01*
X18747011Y209632D01*
X18649640Y229000D01*
X18550360Y229000D01*
X18452989Y209632D01*
X18361266Y171639D01*
X18278718Y116483D01*
X18208517Y46282D01*
X18153361Y-36266D01*
X18115368Y-127989D01*
X18096000Y-225360D01*
X16444395Y-225360D01*
X16513734Y-196639D01*
X16596282Y-141483D01*
X16666483Y-71282D01*
X16721639Y11266D01*
X16759632Y102989D01*
X16779000Y200360D01*
X16779000Y299640D01*
X16759632Y397011D01*
X16721639Y488734D01*
X16666483Y571282D01*
X16596282Y641483D01*
X16513734Y696639D01*
X16422011Y734632D01*
X16344750Y750000D01*
X16422011Y765368D01*
X16513734Y803361D01*
X16596282Y858517D01*
X16666483Y928718D01*
X16721639Y1011266D01*
X16759632Y1102989D01*
X16779000Y1200360D01*
X16779000Y1299640D01*
X16759632Y1397011D01*
X16721639Y1488734D01*
X16666483Y1571282D01*
X16596282Y1641483D01*
X16513734Y1696639D01*
X16422011Y1734632D01*
X16324640Y1754000D01*
X16225360Y1754000D01*
X16127989Y1734632D01*
X16036266Y1696639D01*
X15953718Y1641483D01*
X15883517Y1571282D01*
X15828361Y1488734D01*
X15790368Y1397011D01*
X15775000Y1319750D01*
X15759632Y1397011D01*
X15721639Y1488734D01*
X15666483Y1571282D01*
X15596282Y1641483D01*
X15513734Y1696639D01*
X15422011Y1734632D01*
X15324640Y1754000D01*
X15225360Y1754000D01*
X15127989Y1734632D01*
X15036266Y1696639D01*
X14953718Y1641483D01*
X14883517Y1571282D01*
X14828361Y1488734D01*
X14790368Y1397011D01*
X14775000Y1319750D01*
X14759632Y1397011D01*
X14721639Y1488734D01*
X14666483Y1571282D01*
X14596282Y1641483D01*
X14513734Y1696639D01*
X14422011Y1734632D01*
X14324640Y1754000D01*
X14225360Y1754000D01*
X14127989Y1734632D01*
X14036266Y1696639D01*
X13953718Y1641483D01*
X13883517Y1571282D01*
X13828361Y1488734D01*
X13790368Y1397011D01*
X13771000Y1299640D01*
X13027000Y1299640D01*
X13027000Y2649640D01*
X17146000Y2649640D01*
X17146000Y2550360D01*
X17165368Y2452989D01*
X17203361Y2361266D01*
X17258517Y2278718D01*
X17328718Y2208517D01*
X17411266Y2153361D01*
X17502989Y2115368D01*
X17600360Y2096000D01*
X17699640Y2096000D01*
X17797011Y2115368D01*
X17888734Y2153361D01*
X17971282Y2208517D01*
X18012405Y2249640D01*
X18121000Y2249640D01*
X18121000Y2150360D01*
X18140368Y2052989D01*
X18178361Y1961266D01*
X18233517Y1878718D01*
X18303718Y1808517D01*
X18386266Y1753361D01*
X18477989Y1715368D01*
X18575360Y1696000D01*
X18674640Y1696000D01*
X18772011Y1715368D01*
X18863734Y1753361D01*
X18946282Y1808517D01*
X19016483Y1878718D01*
X19071639Y1961266D01*
X19109632Y2052989D01*
X19129000Y2150360D01*
X19129000Y2249640D01*
X19114082Y2324640D01*
X20121000Y2324640D01*
X20121000Y2225360D01*
X20140368Y2127989D01*
X20178361Y2036266D01*
X20233517Y1953718D01*
X20303718Y1883517D01*
X20386266Y1828361D01*
X20477989Y1790368D01*
X20575360Y1771000D01*
X20674640Y1771000D01*
X20772011Y1790368D01*
X20863734Y1828361D01*
X20946282Y1883517D01*
X21016483Y1953718D01*
X21071639Y2036266D01*
X21109632Y2127989D01*
X21129000Y2225360D01*
X21129000Y2324640D01*
X21109632Y2422011D01*
X21071639Y2513734D01*
X21016483Y2596282D01*
X20946282Y2666483D01*
X20863734Y2721639D01*
X20772011Y2759632D01*
X20674640Y2779000D01*
X20575360Y2779000D01*
X20477989Y2759632D01*
X20386266Y2721639D01*
X20303718Y2666483D01*
X20233517Y2596282D01*
X20178361Y2513734D01*
X20140368Y2422011D01*
X20121000Y2324640D01*
X19114082Y2324640D01*
X19109632Y2347011D01*
X19071639Y2438734D01*
X19016483Y2521282D01*
X18946282Y2591483D01*
X18863734Y2646639D01*
X18772011Y2684632D01*
X18674640Y2704000D01*
X18575360Y2704000D01*
X18477989Y2684632D01*
X18386266Y2646639D01*
X18303718Y2591483D01*
X18233517Y2521282D01*
X18178361Y2438734D01*
X18140368Y2347011D01*
X18121000Y2249640D01*
X18012405Y2249640D01*
X18041483Y2278718D01*
X18096639Y2361266D01*
X18134632Y2452989D01*
X18154000Y2550360D01*
X18154000Y2649640D01*
X18134632Y2747011D01*
X18096639Y2838734D01*
X18041483Y2921282D01*
X17971282Y2991483D01*
X17888734Y3046639D01*
X17797011Y3084632D01*
X17699640Y3104000D01*
X17600360Y3104000D01*
X17502989Y3084632D01*
X17411266Y3046639D01*
X17328718Y2991483D01*
X17258517Y2921282D01*
X17203361Y2838734D01*
X17165368Y2747011D01*
X17146000Y2649640D01*
X13027000Y2649640D01*
X13027000Y2915778D01*
X13027989Y2915368D01*
X13125360Y2896000D01*
X13224640Y2896000D01*
X13322011Y2915368D01*
X13413734Y2953361D01*
X13496282Y3008517D01*
X13566483Y3078718D01*
X13621639Y3161266D01*
X13659632Y3252989D01*
X13679000Y3350360D01*
X13679000Y3449640D01*
X13659632Y3547011D01*
X13621639Y3638734D01*
X13566483Y3721282D01*
X13496282Y3791483D01*
X13413734Y3846639D01*
X13322011Y3884632D01*
X13224640Y3904000D01*
X13125360Y3904000D01*
X13027989Y3884632D01*
X13027000Y3884222D01*
X13027000Y4347737D01*
X13097468Y4517862D01*
X13407138Y4827532D01*
X13577263Y4898000D01*
X18672737Y4898000D01*
X18842862Y4827532D01*
G37*
X18842862Y4827532D02*
X20298074Y3372320D01*
X20312486Y3299865D01*
X20344825Y3221792D01*
X20391774Y3151528D01*
X20451528Y3091774D01*
X20521792Y3044825D01*
X20599865Y3012486D01*
X20672320Y2998074D01*
X21452532Y2217862D01*
X21523000Y2047737D01*
X21523000Y-1135235D01*
X21496282Y-1108517D01*
X21413734Y-1053361D01*
X21322011Y-1015368D01*
X21224640Y-996000D01*
X21125360Y-996000D01*
X21027989Y-1015368D01*
X20936266Y-1053361D01*
X20853718Y-1108517D01*
X20783517Y-1178718D01*
X20728361Y-1261266D01*
X20690368Y-1352989D01*
X20671000Y-1450360D01*
X20671000Y-1549640D01*
X20690368Y-1647011D01*
X20728361Y-1738734D01*
X20783517Y-1821282D01*
X20853718Y-1891483D01*
X20936266Y-1946639D01*
X21027989Y-1984632D01*
X21125360Y-2004000D01*
X21224640Y-2004000D01*
X21322011Y-1984632D01*
X21413734Y-1946639D01*
X21496282Y-1891483D01*
X21523000Y-1864765D01*
X21523000Y-2847737D01*
X21452532Y-3017862D01*
X19892862Y-4577532D01*
X19722737Y-4648000D01*
X13377263Y-4648000D01*
X13207138Y-4577532D01*
X13097468Y-4467862D01*
X13027000Y-4297737D01*
X13027000Y-3175093D01*
X13053361Y-3238734D01*
X13108517Y-3321282D01*
X13178718Y-3391483D01*
X13261266Y-3446639D01*
X13352989Y-3484632D01*
X13450360Y-3504000D01*
X13549640Y-3504000D01*
X13647011Y-3484632D01*
X13738734Y-3446639D01*
X13821282Y-3391483D01*
X13891483Y-3321282D01*
X13946639Y-3238734D01*
X13984632Y-3147011D01*
X14004000Y-3049640D01*
X14004000Y-2950360D01*
X13984632Y-2852989D01*
X13946639Y-2761266D01*
X13891483Y-2678718D01*
X13821282Y-2608517D01*
X13738734Y-2553361D01*
X13647011Y-2515368D01*
X13549640Y-2496000D01*
X13450360Y-2496000D01*
X13352989Y-2515368D01*
X13261266Y-2553361D01*
X13178718Y-2608517D01*
X13108517Y-2678718D01*
X13053361Y-2761266D01*
X13027000Y-2824907D01*
X13027000Y-2150360D01*
X17146000Y-2150360D01*
X17146000Y-2249640D01*
X17165368Y-2347011D01*
X17203361Y-2438734D01*
X17258517Y-2521282D01*
X17328718Y-2591483D01*
X17411266Y-2646639D01*
X17502989Y-2684632D01*
X17600360Y-2704000D01*
X17699640Y-2704000D01*
X17797011Y-2684632D01*
X17888734Y-2646639D01*
X17971282Y-2591483D01*
X18041483Y-2521282D01*
X18096639Y-2438734D01*
X18134632Y-2347011D01*
X18154000Y-2249640D01*
X18154000Y-2150360D01*
X18144055Y-2100360D01*
X18421000Y-2100360D01*
X18421000Y-2199640D01*
X18440368Y-2297011D01*
X18478361Y-2388734D01*
X18533517Y-2471282D01*
X18603718Y-2541483D01*
X18686266Y-2596639D01*
X18777989Y-2634632D01*
X18875360Y-2654000D01*
X18974640Y-2654000D01*
X19072011Y-2634632D01*
X19163734Y-2596639D01*
X19246282Y-2541483D01*
X19316483Y-2471282D01*
X19371639Y-2388734D01*
X19409632Y-2297011D01*
X19429000Y-2199640D01*
X19429000Y-2100360D01*
X19409632Y-2002989D01*
X19371639Y-1911266D01*
X19316483Y-1828718D01*
X19246282Y-1758517D01*
X19163734Y-1703361D01*
X19072011Y-1665368D01*
X18974640Y-1646000D01*
X18875360Y-1646000D01*
X18777989Y-1665368D01*
X18686266Y-1703361D01*
X18603718Y-1758517D01*
X18533517Y-1828718D01*
X18478361Y-1911266D01*
X18440368Y-2002989D01*
X18421000Y-2100360D01*
X18144055Y-2100360D01*
X18134632Y-2052989D01*
X18096639Y-1961266D01*
X18041483Y-1878718D01*
X17971282Y-1808517D01*
X17888734Y-1753361D01*
X17797011Y-1715368D01*
X17699640Y-1696000D01*
X17600360Y-1696000D01*
X17502989Y-1715368D01*
X17411266Y-1753361D01*
X17328718Y-1808517D01*
X17258517Y-1878718D01*
X17203361Y-1961266D01*
X17165368Y-2052989D01*
X17146000Y-2150360D01*
X13027000Y-2150360D01*
X13027000Y1299640D01*
X13771000Y1299640D01*
X13771000Y1200360D01*
X13790368Y1102989D01*
X13828361Y1011266D01*
X13883517Y928718D01*
X13953718Y858517D01*
X14036266Y803361D01*
X14127989Y765368D01*
X14205250Y750000D01*
X14127989Y734632D01*
X14036266Y696639D01*
X13953718Y641483D01*
X13883517Y571282D01*
X13828361Y488734D01*
X13790368Y397011D01*
X13771000Y299640D01*
X13771000Y200360D01*
X13790368Y102989D01*
X13828361Y11266D01*
X13883517Y-71282D01*
X13953718Y-141483D01*
X14036266Y-196639D01*
X14127989Y-234632D01*
X14205250Y-250000D01*
X14127989Y-265368D01*
X14036266Y-303361D01*
X13953718Y-358517D01*
X13883517Y-428718D01*
X13828361Y-511266D01*
X13790368Y-602989D01*
X13771000Y-700360D01*
X13771000Y-799640D01*
X13790368Y-897011D01*
X13828361Y-988734D01*
X13883517Y-1071282D01*
X13953718Y-1141483D01*
X14036266Y-1196639D01*
X14127989Y-1234632D01*
X14225360Y-1254000D01*
X14324640Y-1254000D01*
X14422011Y-1234632D01*
X14513734Y-1196639D01*
X14596282Y-1141483D01*
X14666483Y-1071282D01*
X14721639Y-988734D01*
X14759632Y-897011D01*
X14775000Y-819750D01*
X14790368Y-897011D01*
X14828361Y-988734D01*
X14883517Y-1071282D01*
X14953718Y-1141483D01*
X15036266Y-1196639D01*
X15127989Y-1234632D01*
X15225360Y-1254000D01*
X15324640Y-1254000D01*
X15422011Y-1234632D01*
X15513734Y-1196639D01*
X15596282Y-1141483D01*
X15666483Y-1071282D01*
X15721639Y-988734D01*
X15759632Y-897011D01*
X15775000Y-819750D01*
X15790368Y-897011D01*
X15828361Y-988734D01*
X15883517Y-1071282D01*
X15953718Y-1141483D01*
X16036266Y-1196639D01*
X16127989Y-1234632D01*
X16225360Y-1254000D01*
X16324640Y-1254000D01*
X16422011Y-1234632D01*
X16513734Y-1196639D01*
X16596282Y-1141483D01*
X16666483Y-1071282D01*
X16721639Y-988734D01*
X16759632Y-897011D01*
X16779000Y-799640D01*
X16779000Y-700360D01*
X16759632Y-602989D01*
X16721639Y-511266D01*
X16666483Y-428718D01*
X16596282Y-358517D01*
X16513734Y-303361D01*
X16422011Y-265368D01*
X16344750Y-250000D01*
X16422011Y-234632D01*
X16444395Y-225360D01*
X18096000Y-225360D01*
X18096000Y-324640D01*
X18115368Y-422011D01*
X18153361Y-513734D01*
X18208517Y-596282D01*
X18278718Y-666483D01*
X18361266Y-721639D01*
X18452989Y-759632D01*
X18550360Y-779000D01*
X18649640Y-779000D01*
X18747011Y-759632D01*
X18838734Y-721639D01*
X18921282Y-666483D01*
X18991483Y-596282D01*
X19046639Y-513734D01*
X19084632Y-422011D01*
X19104000Y-324640D01*
X19104000Y-225360D01*
X19084632Y-127989D01*
X19046639Y-36266D01*
X18991483Y46282D01*
X18921282Y116483D01*
X18838734Y171639D01*
X18747011Y209632D01*
X18649640Y229000D01*
X18550360Y229000D01*
X18452989Y209632D01*
X18361266Y171639D01*
X18278718Y116483D01*
X18208517Y46282D01*
X18153361Y-36266D01*
X18115368Y-127989D01*
X18096000Y-225360D01*
X16444395Y-225360D01*
X16513734Y-196639D01*
X16596282Y-141483D01*
X16666483Y-71282D01*
X16721639Y11266D01*
X16759632Y102989D01*
X16779000Y200360D01*
X16779000Y299640D01*
X16759632Y397011D01*
X16721639Y488734D01*
X16666483Y571282D01*
X16596282Y641483D01*
X16513734Y696639D01*
X16422011Y734632D01*
X16344750Y750000D01*
X16422011Y765368D01*
X16513734Y803361D01*
X16596282Y858517D01*
X16666483Y928718D01*
X16721639Y1011266D01*
X16759632Y1102989D01*
X16779000Y1200360D01*
X16779000Y1299640D01*
X16759632Y1397011D01*
X16721639Y1488734D01*
X16666483Y1571282D01*
X16596282Y1641483D01*
X16513734Y1696639D01*
X16422011Y1734632D01*
X16324640Y1754000D01*
X16225360Y1754000D01*
X16127989Y1734632D01*
X16036266Y1696639D01*
X15953718Y1641483D01*
X15883517Y1571282D01*
X15828361Y1488734D01*
X15790368Y1397011D01*
X15775000Y1319750D01*
X15759632Y1397011D01*
X15721639Y1488734D01*
X15666483Y1571282D01*
X15596282Y1641483D01*
X15513734Y1696639D01*
X15422011Y1734632D01*
X15324640Y1754000D01*
X15225360Y1754000D01*
X15127989Y1734632D01*
X15036266Y1696639D01*
X14953718Y1641483D01*
X14883517Y1571282D01*
X14828361Y1488734D01*
X14790368Y1397011D01*
X14775000Y1319750D01*
X14759632Y1397011D01*
X14721639Y1488734D01*
X14666483Y1571282D01*
X14596282Y1641483D01*
X14513734Y1696639D01*
X14422011Y1734632D01*
X14324640Y1754000D01*
X14225360Y1754000D01*
X14127989Y1734632D01*
X14036266Y1696639D01*
X13953718Y1641483D01*
X13883517Y1571282D01*
X13828361Y1488734D01*
X13790368Y1397011D01*
X13771000Y1299640D01*
X13027000Y1299640D01*
X13027000Y2649640D01*
X17146000Y2649640D01*
X17146000Y2550360D01*
X17165368Y2452989D01*
X17203361Y2361266D01*
X17258517Y2278718D01*
X17328718Y2208517D01*
X17411266Y2153361D01*
X17502989Y2115368D01*
X17600360Y2096000D01*
X17699640Y2096000D01*
X17797011Y2115368D01*
X17888734Y2153361D01*
X17971282Y2208517D01*
X18012405Y2249640D01*
X18121000Y2249640D01*
X18121000Y2150360D01*
X18140368Y2052989D01*
X18178361Y1961266D01*
X18233517Y1878718D01*
X18303718Y1808517D01*
X18386266Y1753361D01*
X18477989Y1715368D01*
X18575360Y1696000D01*
X18674640Y1696000D01*
X18772011Y1715368D01*
X18863734Y1753361D01*
X18946282Y1808517D01*
X19016483Y1878718D01*
X19071639Y1961266D01*
X19109632Y2052989D01*
X19129000Y2150360D01*
X19129000Y2249640D01*
X19114082Y2324640D01*
X20121000Y2324640D01*
X20121000Y2225360D01*
X20140368Y2127989D01*
X20178361Y2036266D01*
X20233517Y1953718D01*
X20303718Y1883517D01*
X20386266Y1828361D01*
X20477989Y1790368D01*
X20575360Y1771000D01*
X20674640Y1771000D01*
X20772011Y1790368D01*
X20863734Y1828361D01*
X20946282Y1883517D01*
X21016483Y1953718D01*
X21071639Y2036266D01*
X21109632Y2127989D01*
X21129000Y2225360D01*
X21129000Y2324640D01*
X21109632Y2422011D01*
X21071639Y2513734D01*
X21016483Y2596282D01*
X20946282Y2666483D01*
X20863734Y2721639D01*
X20772011Y2759632D01*
X20674640Y2779000D01*
X20575360Y2779000D01*
X20477989Y2759632D01*
X20386266Y2721639D01*
X20303718Y2666483D01*
X20233517Y2596282D01*
X20178361Y2513734D01*
X20140368Y2422011D01*
X20121000Y2324640D01*
X19114082Y2324640D01*
X19109632Y2347011D01*
X19071639Y2438734D01*
X19016483Y2521282D01*
X18946282Y2591483D01*
X18863734Y2646639D01*
X18772011Y2684632D01*
X18674640Y2704000D01*
X18575360Y2704000D01*
X18477989Y2684632D01*
X18386266Y2646639D01*
X18303718Y2591483D01*
X18233517Y2521282D01*
X18178361Y2438734D01*
X18140368Y2347011D01*
X18121000Y2249640D01*
X18012405Y2249640D01*
X18041483Y2278718D01*
X18096639Y2361266D01*
X18134632Y2452989D01*
X18154000Y2550360D01*
X18154000Y2649640D01*
X18134632Y2747011D01*
X18096639Y2838734D01*
X18041483Y2921282D01*
X17971282Y2991483D01*
X17888734Y3046639D01*
X17797011Y3084632D01*
X17699640Y3104000D01*
X17600360Y3104000D01*
X17502989Y3084632D01*
X17411266Y3046639D01*
X17328718Y2991483D01*
X17258517Y2921282D01*
X17203361Y2838734D01*
X17165368Y2747011D01*
X17146000Y2649640D01*
X13027000Y2649640D01*
X13027000Y2915778D01*
X13027989Y2915368D01*
X13125360Y2896000D01*
X13224640Y2896000D01*
X13322011Y2915368D01*
X13413734Y2953361D01*
X13496282Y3008517D01*
X13566483Y3078718D01*
X13621639Y3161266D01*
X13659632Y3252989D01*
X13679000Y3350360D01*
X13679000Y3449640D01*
X13659632Y3547011D01*
X13621639Y3638734D01*
X13566483Y3721282D01*
X13496282Y3791483D01*
X13413734Y3846639D01*
X13322011Y3884632D01*
X13224640Y3904000D01*
X13125360Y3904000D01*
X13027989Y3884632D01*
X13027000Y3884222D01*
X13027000Y4347737D01*
X13097468Y4517862D01*
X13407138Y4827532D01*
X13577263Y4898000D01*
X18672737Y4898000D01*
X18842862Y4827532D01*
G36*
X48015368Y-12877989D02*
G01*
X47996000Y-12975360D01*
X47996000Y-13074640D01*
X48015368Y-13172011D01*
X48053361Y-13263734D01*
X48108517Y-13346282D01*
X48178718Y-13416483D01*
X48261266Y-13471639D01*
X48352989Y-13509632D01*
X48450360Y-13529000D01*
X48549640Y-13529000D01*
X48647011Y-13509632D01*
X48738734Y-13471639D01*
X48821282Y-13416483D01*
X48891483Y-13346282D01*
X48946639Y-13263734D01*
X48984632Y-13172011D01*
X49004000Y-13074640D01*
X49004000Y-12975360D01*
X48984632Y-12877989D01*
X48973867Y-12852000D01*
X50543842Y-12852000D01*
X50898000Y-13206158D01*
X50898000Y-17772737D01*
X50827532Y-17942862D01*
X50654000Y-18116394D01*
X50654000Y-18025360D01*
X50634632Y-17927989D01*
X50596639Y-17836266D01*
X50541483Y-17753718D01*
X50471282Y-17683517D01*
X50388734Y-17628361D01*
X50297011Y-17590368D01*
X50219750Y-17575000D01*
X50297011Y-17559632D01*
X50388734Y-17521639D01*
X50471282Y-17466483D01*
X50541483Y-17396282D01*
X50596639Y-17313734D01*
X50634632Y-17222011D01*
X50654000Y-17124640D01*
X50654000Y-17025360D01*
X50634632Y-16927989D01*
X50596639Y-16836266D01*
X50541483Y-16753718D01*
X50471282Y-16683517D01*
X50388734Y-16628361D01*
X50297011Y-16590368D01*
X50219750Y-16575000D01*
X50297011Y-16559632D01*
X50388734Y-16521639D01*
X50471282Y-16466483D01*
X50541483Y-16396282D01*
X50596639Y-16313734D01*
X50634632Y-16222011D01*
X50654000Y-16124640D01*
X50654000Y-16025360D01*
X50634632Y-15927989D01*
X50596639Y-15836266D01*
X50541483Y-15753718D01*
X50471282Y-15683517D01*
X50388734Y-15628361D01*
X50297011Y-15590368D01*
X50199640Y-15571000D01*
X50100360Y-15571000D01*
X50002989Y-15590368D01*
X49911266Y-15628361D01*
X49828718Y-15683517D01*
X49758517Y-15753718D01*
X49703361Y-15836266D01*
X49665368Y-15927989D01*
X49650000Y-16005250D01*
X49634632Y-15927989D01*
X49596639Y-15836266D01*
X49541483Y-15753718D01*
X49471282Y-15683517D01*
X49388734Y-15628361D01*
X49297011Y-15590368D01*
X49199640Y-15571000D01*
X49100360Y-15571000D01*
X49002989Y-15590368D01*
X48911266Y-15628361D01*
X48828718Y-15683517D01*
X48758517Y-15753718D01*
X48703361Y-15836266D01*
X48665368Y-15927989D01*
X48650000Y-16005250D01*
X48634632Y-15927989D01*
X48596639Y-15836266D01*
X48541483Y-15753718D01*
X48471282Y-15683517D01*
X48388734Y-15628361D01*
X48297011Y-15590368D01*
X48199640Y-15571000D01*
X48100360Y-15571000D01*
X48002989Y-15590368D01*
X47911266Y-15628361D01*
X47828718Y-15683517D01*
X47758517Y-15753718D01*
X47703361Y-15836266D01*
X47665368Y-15927989D01*
X47646000Y-16025360D01*
X47646000Y-16124640D01*
X47665368Y-16222011D01*
X47703361Y-16313734D01*
X47758517Y-16396282D01*
X47828718Y-16466483D01*
X47911266Y-16521639D01*
X48002989Y-16559632D01*
X48080250Y-16575000D01*
X48002989Y-16590368D01*
X47911266Y-16628361D01*
X47828718Y-16683517D01*
X47758517Y-16753718D01*
X47703361Y-16836266D01*
X47665368Y-16927989D01*
X47646000Y-17025360D01*
X47646000Y-17124640D01*
X47665368Y-17222011D01*
X47703361Y-17313734D01*
X47758517Y-17396282D01*
X47828718Y-17466483D01*
X47911266Y-17521639D01*
X48002989Y-17559632D01*
X48080250Y-17575000D01*
X48002989Y-17590368D01*
X47911266Y-17628361D01*
X47828718Y-17683517D01*
X47758517Y-17753718D01*
X47703361Y-17836266D01*
X47665368Y-17927989D01*
X47646000Y-18025360D01*
X47646000Y-18124640D01*
X47665368Y-18222011D01*
X47703361Y-18313734D01*
X47758517Y-18396282D01*
X47828718Y-18466483D01*
X47911266Y-18521639D01*
X48002989Y-18559632D01*
X48100360Y-18579000D01*
X48199640Y-18579000D01*
X48297011Y-18559632D01*
X48388734Y-18521639D01*
X48471282Y-18466483D01*
X48541483Y-18396282D01*
X48596639Y-18313734D01*
X48634632Y-18222011D01*
X48650000Y-18144750D01*
X48665368Y-18222011D01*
X48703361Y-18313734D01*
X48758517Y-18396282D01*
X48828718Y-18466483D01*
X48911266Y-18521639D01*
X49002989Y-18559632D01*
X49100360Y-18579000D01*
X49199640Y-18579000D01*
X49297011Y-18559632D01*
X49388734Y-18521639D01*
X49471282Y-18466483D01*
X49541483Y-18396282D01*
X49596639Y-18313734D01*
X49634632Y-18222011D01*
X49650000Y-18144750D01*
X49665368Y-18222011D01*
X49703361Y-18313734D01*
X49758517Y-18396282D01*
X49828718Y-18466483D01*
X49911266Y-18521639D01*
X50002989Y-18559632D01*
X50100360Y-18579000D01*
X50191394Y-18579000D01*
X49250000Y-19520394D01*
X49234206Y-19539640D01*
X49222470Y-19561596D01*
X49132667Y-19778399D01*
X49125440Y-19802223D01*
X49123000Y-19827000D01*
X49123000Y-23697737D01*
X49052532Y-23867862D01*
X48267862Y-24652532D01*
X48097737Y-24723000D01*
X42877000Y-24723000D01*
X42852224Y-24725440D01*
X42828399Y-24732667D01*
X42611596Y-24822470D01*
X42589639Y-24834206D01*
X42570394Y-24850000D01*
X26300000Y-41120394D01*
X26284206Y-41139640D01*
X26272470Y-41161596D01*
X26182667Y-41378399D01*
X26175440Y-41402223D01*
X26173000Y-41427000D01*
X26173000Y-43518671D01*
X26127798Y-43627798D01*
X26018671Y-43673000D01*
X23681329Y-43673000D01*
X23572202Y-43627798D01*
X23527000Y-43518671D01*
X23527000Y-37848095D01*
X27123000Y-37848095D01*
X27123000Y-37951905D01*
X27143252Y-38053720D01*
X27182979Y-38149628D01*
X27240652Y-38235943D01*
X27314057Y-38309348D01*
X27400372Y-38367021D01*
X27496280Y-38406748D01*
X27598095Y-38427000D01*
X27701905Y-38427000D01*
X27803720Y-38406748D01*
X27899628Y-38367021D01*
X27985943Y-38309348D01*
X28059348Y-38235943D01*
X28117021Y-38149628D01*
X28156748Y-38053720D01*
X28177000Y-37951905D01*
X28177000Y-37848095D01*
X28156748Y-37746280D01*
X28117021Y-37650372D01*
X28059348Y-37564057D01*
X27985943Y-37490652D01*
X27899628Y-37432979D01*
X27803720Y-37393252D01*
X27701905Y-37373000D01*
X27598095Y-37373000D01*
X27496280Y-37393252D01*
X27400372Y-37432979D01*
X27314057Y-37490652D01*
X27240652Y-37564057D01*
X27182979Y-37650372D01*
X27143252Y-37746280D01*
X27123000Y-37848095D01*
X23527000Y-37848095D01*
X23527000Y-36829000D01*
X23574640Y-36829000D01*
X23672011Y-36809632D01*
X23763734Y-36771639D01*
X23846282Y-36716483D01*
X23916483Y-36646282D01*
X23971639Y-36563734D01*
X24009632Y-36472011D01*
X24025000Y-36394750D01*
X24040368Y-36472011D01*
X24078361Y-36563734D01*
X24133517Y-36646282D01*
X24203718Y-36716483D01*
X24286266Y-36771639D01*
X24377989Y-36809632D01*
X24475360Y-36829000D01*
X24574640Y-36829000D01*
X24672011Y-36809632D01*
X24763734Y-36771639D01*
X24846282Y-36716483D01*
X24916483Y-36646282D01*
X24971639Y-36563734D01*
X25009632Y-36472011D01*
X25029000Y-36374640D01*
X25029000Y-36275360D01*
X25009632Y-36177989D01*
X24971639Y-36086266D01*
X24916483Y-36003718D01*
X24846282Y-35933517D01*
X24763734Y-35878361D01*
X24672011Y-35840368D01*
X24594750Y-35825000D01*
X24672011Y-35809632D01*
X24763734Y-35771639D01*
X24846282Y-35716483D01*
X24916483Y-35646282D01*
X24971639Y-35563734D01*
X25009632Y-35472011D01*
X25029000Y-35374640D01*
X25029000Y-35275360D01*
X25009632Y-35177989D01*
X24971639Y-35086266D01*
X24916483Y-35003718D01*
X24846282Y-34933517D01*
X24763734Y-34878361D01*
X24672011Y-34840368D01*
X24574640Y-34821000D01*
X24475360Y-34821000D01*
X24377989Y-34840368D01*
X24286266Y-34878361D01*
X24203718Y-34933517D01*
X24133517Y-35003718D01*
X24078361Y-35086266D01*
X24040368Y-35177989D01*
X24025000Y-35255250D01*
X24009632Y-35177989D01*
X23971639Y-35086266D01*
X23916483Y-35003718D01*
X23846282Y-34933517D01*
X23763734Y-34878361D01*
X23672011Y-34840368D01*
X23574640Y-34821000D01*
X23475360Y-34821000D01*
X23377989Y-34840368D01*
X23286266Y-34878361D01*
X23203718Y-34933517D01*
X23133517Y-35003718D01*
X23078361Y-35086266D01*
X23052736Y-35148130D01*
X20254606Y-32350000D01*
X20235360Y-32334206D01*
X20218811Y-32325360D01*
X22921000Y-32325360D01*
X22921000Y-32424640D01*
X22940368Y-32522011D01*
X22978361Y-32613734D01*
X23033517Y-32696282D01*
X23103718Y-32766483D01*
X23186266Y-32821639D01*
X23277989Y-32859632D01*
X23375360Y-32879000D01*
X23474640Y-32879000D01*
X23572011Y-32859632D01*
X23663734Y-32821639D01*
X23746282Y-32766483D01*
X23816483Y-32696282D01*
X23871639Y-32613734D01*
X23909632Y-32522011D01*
X23929000Y-32424640D01*
X23929000Y-32325360D01*
X23909632Y-32227989D01*
X23871639Y-32136266D01*
X23816483Y-32053718D01*
X23746282Y-31983517D01*
X23663734Y-31928361D01*
X23572011Y-31890368D01*
X23474640Y-31871000D01*
X23375360Y-31871000D01*
X23277989Y-31890368D01*
X23186266Y-31928361D01*
X23103718Y-31983517D01*
X23033517Y-32053718D01*
X22978361Y-32136266D01*
X22940368Y-32227989D01*
X22921000Y-32325360D01*
X20218811Y-32325360D01*
X20213404Y-32322470D01*
X19996601Y-32232667D01*
X19972777Y-32225440D01*
X19948000Y-32223000D01*
X15190694Y-32223000D01*
X15034545Y-32207690D01*
X15034541Y-32207690D01*
X15017382Y-32206000D01*
X7061221Y-32206000D01*
X6932138Y-32152532D01*
X6822468Y-32042862D01*
X6752000Y-31872737D01*
X6752000Y-29979367D01*
X6771282Y-29966483D01*
X6841483Y-29896282D01*
X6896639Y-29813734D01*
X6934632Y-29722011D01*
X6954000Y-29624640D01*
X6954000Y-29525360D01*
X6934632Y-29427989D01*
X6896639Y-29336266D01*
X6841483Y-29253718D01*
X6771282Y-29183517D01*
X6752000Y-29170633D01*
X6752000Y-27327263D01*
X6822468Y-27157138D01*
X7282138Y-26697468D01*
X7452263Y-26627000D01*
X19397867Y-26627000D01*
X19568551Y-26697305D01*
X24820444Y-31907845D01*
X24813734Y-31903361D01*
X24722011Y-31865368D01*
X24624640Y-31846000D01*
X24525360Y-31846000D01*
X24427989Y-31865368D01*
X24336266Y-31903361D01*
X24253718Y-31958517D01*
X24183517Y-32028718D01*
X24128361Y-32111266D01*
X24090368Y-32202989D01*
X24071000Y-32300360D01*
X24071000Y-32399640D01*
X24090368Y-32497011D01*
X24128361Y-32588734D01*
X24183517Y-32671282D01*
X24253718Y-32741483D01*
X24336266Y-32796639D01*
X24427989Y-32834632D01*
X24525360Y-32854000D01*
X24624640Y-32854000D01*
X24722011Y-32834632D01*
X24813734Y-32796639D01*
X24896282Y-32741483D01*
X24966483Y-32671282D01*
X25021639Y-32588734D01*
X25059632Y-32497011D01*
X25079000Y-32399640D01*
X25079000Y-32300360D01*
X25059632Y-32202989D01*
X25021639Y-32111266D01*
X25014085Y-32099961D01*
X25720396Y-32800710D01*
X25739704Y-32816428D01*
X25761474Y-32827982D01*
X25978631Y-32917429D01*
X26002470Y-32924608D01*
X26027000Y-32927000D01*
X29523000Y-32927000D01*
X29547776Y-32924560D01*
X29571601Y-32917333D01*
X29788404Y-32827530D01*
X29810361Y-32815794D01*
X29829606Y-32800000D01*
X40104246Y-22525360D01*
X40721000Y-22525360D01*
X40721000Y-22624640D01*
X40740368Y-22722011D01*
X40778361Y-22813734D01*
X40833517Y-22896282D01*
X40903718Y-22966483D01*
X40986266Y-23021639D01*
X41077989Y-23059632D01*
X41175360Y-23079000D01*
X41274640Y-23079000D01*
X41372011Y-23059632D01*
X41463734Y-23021639D01*
X41546282Y-22966483D01*
X41616483Y-22896282D01*
X41671639Y-22813734D01*
X41709632Y-22722011D01*
X41729000Y-22624640D01*
X41729000Y-22600360D01*
X46996000Y-22600360D01*
X46996000Y-22699640D01*
X47015368Y-22797011D01*
X47053361Y-22888734D01*
X47108517Y-22971282D01*
X47178718Y-23041483D01*
X47261266Y-23096639D01*
X47352989Y-23134632D01*
X47450360Y-23154000D01*
X47549640Y-23154000D01*
X47647011Y-23134632D01*
X47738734Y-23096639D01*
X47821282Y-23041483D01*
X47891483Y-22971282D01*
X47946639Y-22888734D01*
X47984632Y-22797011D01*
X48004000Y-22699640D01*
X48004000Y-22600360D01*
X47984632Y-22502989D01*
X47946639Y-22411266D01*
X47891483Y-22328718D01*
X47821282Y-22258517D01*
X47738734Y-22203361D01*
X47647011Y-22165368D01*
X47549640Y-22146000D01*
X47450360Y-22146000D01*
X47352989Y-22165368D01*
X47261266Y-22203361D01*
X47178718Y-22258517D01*
X47108517Y-22328718D01*
X47053361Y-22411266D01*
X47015368Y-22502989D01*
X46996000Y-22600360D01*
X41729000Y-22600360D01*
X41729000Y-22525360D01*
X41709632Y-22427989D01*
X41671639Y-22336266D01*
X41616483Y-22253718D01*
X41546282Y-22183517D01*
X41463734Y-22128361D01*
X41372011Y-22090368D01*
X41274640Y-22071000D01*
X41175360Y-22071000D01*
X41077989Y-22090368D01*
X40986266Y-22128361D01*
X40903718Y-22183517D01*
X40833517Y-22253718D01*
X40778361Y-22336266D01*
X40740368Y-22427989D01*
X40721000Y-22525360D01*
X40104246Y-22525360D01*
X40895921Y-21733686D01*
X40928718Y-21766483D01*
X41011266Y-21821639D01*
X41102989Y-21859632D01*
X41200360Y-21879000D01*
X41299640Y-21879000D01*
X41397011Y-21859632D01*
X41488734Y-21821639D01*
X41571282Y-21766483D01*
X41641483Y-21696282D01*
X41696639Y-21613734D01*
X41734632Y-21522011D01*
X41754000Y-21424640D01*
X41754000Y-21325360D01*
X41734632Y-21227989D01*
X41696639Y-21136266D01*
X41641483Y-21053718D01*
X41608686Y-21020921D01*
X42432138Y-20197468D01*
X42602263Y-20127000D01*
X44711488Y-20127000D01*
X44690368Y-20177989D01*
X44671000Y-20275360D01*
X44671000Y-20374640D01*
X44690368Y-20472011D01*
X44728361Y-20563734D01*
X44783517Y-20646282D01*
X44853718Y-20716483D01*
X44936266Y-20771639D01*
X45027989Y-20809632D01*
X45125360Y-20829000D01*
X45224640Y-20829000D01*
X45322011Y-20809632D01*
X45413734Y-20771639D01*
X45496282Y-20716483D01*
X45566483Y-20646282D01*
X45621639Y-20563734D01*
X45659632Y-20472011D01*
X45679000Y-20374640D01*
X45679000Y-20275360D01*
X45659632Y-20177989D01*
X45638512Y-20127000D01*
X45898000Y-20127000D01*
X45922776Y-20124560D01*
X45946601Y-20117333D01*
X46163404Y-20027530D01*
X46185361Y-20015794D01*
X46204606Y-20000000D01*
X46275000Y-19929606D01*
X46290794Y-19910360D01*
X46302530Y-19888404D01*
X46392333Y-19671601D01*
X46399560Y-19647777D01*
X46402000Y-19623000D01*
X46402000Y-15114765D01*
X46428718Y-15141483D01*
X46511266Y-15196639D01*
X46602989Y-15234632D01*
X46700360Y-15254000D01*
X46799640Y-15254000D01*
X46897011Y-15234632D01*
X46988734Y-15196639D01*
X47071282Y-15141483D01*
X47141483Y-15071282D01*
X47196639Y-14988734D01*
X47234632Y-14897011D01*
X47254000Y-14799640D01*
X47254000Y-14700360D01*
X47234632Y-14602989D01*
X47196639Y-14511266D01*
X47141483Y-14428718D01*
X47071282Y-14358517D01*
X46988734Y-14303361D01*
X46897011Y-14265368D01*
X46799640Y-14246000D01*
X46700360Y-14246000D01*
X46602989Y-14265368D01*
X46511266Y-14303361D01*
X46428718Y-14358517D01*
X46402000Y-14385235D01*
X46402000Y-13806158D01*
X47356158Y-12852000D01*
X48026133Y-12852000D01*
X48015368Y-12877989D01*
G37*
X48015368Y-12877989D02*
X47996000Y-12975360D01*
X47996000Y-13074640D01*
X48015368Y-13172011D01*
X48053361Y-13263734D01*
X48108517Y-13346282D01*
X48178718Y-13416483D01*
X48261266Y-13471639D01*
X48352989Y-13509632D01*
X48450360Y-13529000D01*
X48549640Y-13529000D01*
X48647011Y-13509632D01*
X48738734Y-13471639D01*
X48821282Y-13416483D01*
X48891483Y-13346282D01*
X48946639Y-13263734D01*
X48984632Y-13172011D01*
X49004000Y-13074640D01*
X49004000Y-12975360D01*
X48984632Y-12877989D01*
X48973867Y-12852000D01*
X50543842Y-12852000D01*
X50898000Y-13206158D01*
X50898000Y-17772737D01*
X50827532Y-17942862D01*
X50654000Y-18116394D01*
X50654000Y-18025360D01*
X50634632Y-17927989D01*
X50596639Y-17836266D01*
X50541483Y-17753718D01*
X50471282Y-17683517D01*
X50388734Y-17628361D01*
X50297011Y-17590368D01*
X50219750Y-17575000D01*
X50297011Y-17559632D01*
X50388734Y-17521639D01*
X50471282Y-17466483D01*
X50541483Y-17396282D01*
X50596639Y-17313734D01*
X50634632Y-17222011D01*
X50654000Y-17124640D01*
X50654000Y-17025360D01*
X50634632Y-16927989D01*
X50596639Y-16836266D01*
X50541483Y-16753718D01*
X50471282Y-16683517D01*
X50388734Y-16628361D01*
X50297011Y-16590368D01*
X50219750Y-16575000D01*
X50297011Y-16559632D01*
X50388734Y-16521639D01*
X50471282Y-16466483D01*
X50541483Y-16396282D01*
X50596639Y-16313734D01*
X50634632Y-16222011D01*
X50654000Y-16124640D01*
X50654000Y-16025360D01*
X50634632Y-15927989D01*
X50596639Y-15836266D01*
X50541483Y-15753718D01*
X50471282Y-15683517D01*
X50388734Y-15628361D01*
X50297011Y-15590368D01*
X50199640Y-15571000D01*
X50100360Y-15571000D01*
X50002989Y-15590368D01*
X49911266Y-15628361D01*
X49828718Y-15683517D01*
X49758517Y-15753718D01*
X49703361Y-15836266D01*
X49665368Y-15927989D01*
X49650000Y-16005250D01*
X49634632Y-15927989D01*
X49596639Y-15836266D01*
X49541483Y-15753718D01*
X49471282Y-15683517D01*
X49388734Y-15628361D01*
X49297011Y-15590368D01*
X49199640Y-15571000D01*
X49100360Y-15571000D01*
X49002989Y-15590368D01*
X48911266Y-15628361D01*
X48828718Y-15683517D01*
X48758517Y-15753718D01*
X48703361Y-15836266D01*
X48665368Y-15927989D01*
X48650000Y-16005250D01*
X48634632Y-15927989D01*
X48596639Y-15836266D01*
X48541483Y-15753718D01*
X48471282Y-15683517D01*
X48388734Y-15628361D01*
X48297011Y-15590368D01*
X48199640Y-15571000D01*
X48100360Y-15571000D01*
X48002989Y-15590368D01*
X47911266Y-15628361D01*
X47828718Y-15683517D01*
X47758517Y-15753718D01*
X47703361Y-15836266D01*
X47665368Y-15927989D01*
X47646000Y-16025360D01*
X47646000Y-16124640D01*
X47665368Y-16222011D01*
X47703361Y-16313734D01*
X47758517Y-16396282D01*
X47828718Y-16466483D01*
X47911266Y-16521639D01*
X48002989Y-16559632D01*
X48080250Y-16575000D01*
X48002989Y-16590368D01*
X47911266Y-16628361D01*
X47828718Y-16683517D01*
X47758517Y-16753718D01*
X47703361Y-16836266D01*
X47665368Y-16927989D01*
X47646000Y-17025360D01*
X47646000Y-17124640D01*
X47665368Y-17222011D01*
X47703361Y-17313734D01*
X47758517Y-17396282D01*
X47828718Y-17466483D01*
X47911266Y-17521639D01*
X48002989Y-17559632D01*
X48080250Y-17575000D01*
X48002989Y-17590368D01*
X47911266Y-17628361D01*
X47828718Y-17683517D01*
X47758517Y-17753718D01*
X47703361Y-17836266D01*
X47665368Y-17927989D01*
X47646000Y-18025360D01*
X47646000Y-18124640D01*
X47665368Y-18222011D01*
X47703361Y-18313734D01*
X47758517Y-18396282D01*
X47828718Y-18466483D01*
X47911266Y-18521639D01*
X48002989Y-18559632D01*
X48100360Y-18579000D01*
X48199640Y-18579000D01*
X48297011Y-18559632D01*
X48388734Y-18521639D01*
X48471282Y-18466483D01*
X48541483Y-18396282D01*
X48596639Y-18313734D01*
X48634632Y-18222011D01*
X48650000Y-18144750D01*
X48665368Y-18222011D01*
X48703361Y-18313734D01*
X48758517Y-18396282D01*
X48828718Y-18466483D01*
X48911266Y-18521639D01*
X49002989Y-18559632D01*
X49100360Y-18579000D01*
X49199640Y-18579000D01*
X49297011Y-18559632D01*
X49388734Y-18521639D01*
X49471282Y-18466483D01*
X49541483Y-18396282D01*
X49596639Y-18313734D01*
X49634632Y-18222011D01*
X49650000Y-18144750D01*
X49665368Y-18222011D01*
X49703361Y-18313734D01*
X49758517Y-18396282D01*
X49828718Y-18466483D01*
X49911266Y-18521639D01*
X50002989Y-18559632D01*
X50100360Y-18579000D01*
X50191394Y-18579000D01*
X49250000Y-19520394D01*
X49234206Y-19539640D01*
X49222470Y-19561596D01*
X49132667Y-19778399D01*
X49125440Y-19802223D01*
X49123000Y-19827000D01*
X49123000Y-23697737D01*
X49052532Y-23867862D01*
X48267862Y-24652532D01*
X48097737Y-24723000D01*
X42877000Y-24723000D01*
X42852224Y-24725440D01*
X42828399Y-24732667D01*
X42611596Y-24822470D01*
X42589639Y-24834206D01*
X42570394Y-24850000D01*
X26300000Y-41120394D01*
X26284206Y-41139640D01*
X26272470Y-41161596D01*
X26182667Y-41378399D01*
X26175440Y-41402223D01*
X26173000Y-41427000D01*
X26173000Y-43518671D01*
X26127798Y-43627798D01*
X26018671Y-43673000D01*
X23681329Y-43673000D01*
X23572202Y-43627798D01*
X23527000Y-43518671D01*
X23527000Y-37848095D01*
X27123000Y-37848095D01*
X27123000Y-37951905D01*
X27143252Y-38053720D01*
X27182979Y-38149628D01*
X27240652Y-38235943D01*
X27314057Y-38309348D01*
X27400372Y-38367021D01*
X27496280Y-38406748D01*
X27598095Y-38427000D01*
X27701905Y-38427000D01*
X27803720Y-38406748D01*
X27899628Y-38367021D01*
X27985943Y-38309348D01*
X28059348Y-38235943D01*
X28117021Y-38149628D01*
X28156748Y-38053720D01*
X28177000Y-37951905D01*
X28177000Y-37848095D01*
X28156748Y-37746280D01*
X28117021Y-37650372D01*
X28059348Y-37564057D01*
X27985943Y-37490652D01*
X27899628Y-37432979D01*
X27803720Y-37393252D01*
X27701905Y-37373000D01*
X27598095Y-37373000D01*
X27496280Y-37393252D01*
X27400372Y-37432979D01*
X27314057Y-37490652D01*
X27240652Y-37564057D01*
X27182979Y-37650372D01*
X27143252Y-37746280D01*
X27123000Y-37848095D01*
X23527000Y-37848095D01*
X23527000Y-36829000D01*
X23574640Y-36829000D01*
X23672011Y-36809632D01*
X23763734Y-36771639D01*
X23846282Y-36716483D01*
X23916483Y-36646282D01*
X23971639Y-36563734D01*
X24009632Y-36472011D01*
X24025000Y-36394750D01*
X24040368Y-36472011D01*
X24078361Y-36563734D01*
X24133517Y-36646282D01*
X24203718Y-36716483D01*
X24286266Y-36771639D01*
X24377989Y-36809632D01*
X24475360Y-36829000D01*
X24574640Y-36829000D01*
X24672011Y-36809632D01*
X24763734Y-36771639D01*
X24846282Y-36716483D01*
X24916483Y-36646282D01*
X24971639Y-36563734D01*
X25009632Y-36472011D01*
X25029000Y-36374640D01*
X25029000Y-36275360D01*
X25009632Y-36177989D01*
X24971639Y-36086266D01*
X24916483Y-36003718D01*
X24846282Y-35933517D01*
X24763734Y-35878361D01*
X24672011Y-35840368D01*
X24594750Y-35825000D01*
X24672011Y-35809632D01*
X24763734Y-35771639D01*
X24846282Y-35716483D01*
X24916483Y-35646282D01*
X24971639Y-35563734D01*
X25009632Y-35472011D01*
X25029000Y-35374640D01*
X25029000Y-35275360D01*
X25009632Y-35177989D01*
X24971639Y-35086266D01*
X24916483Y-35003718D01*
X24846282Y-34933517D01*
X24763734Y-34878361D01*
X24672011Y-34840368D01*
X24574640Y-34821000D01*
X24475360Y-34821000D01*
X24377989Y-34840368D01*
X24286266Y-34878361D01*
X24203718Y-34933517D01*
X24133517Y-35003718D01*
X24078361Y-35086266D01*
X24040368Y-35177989D01*
X24025000Y-35255250D01*
X24009632Y-35177989D01*
X23971639Y-35086266D01*
X23916483Y-35003718D01*
X23846282Y-34933517D01*
X23763734Y-34878361D01*
X23672011Y-34840368D01*
X23574640Y-34821000D01*
X23475360Y-34821000D01*
X23377989Y-34840368D01*
X23286266Y-34878361D01*
X23203718Y-34933517D01*
X23133517Y-35003718D01*
X23078361Y-35086266D01*
X23052736Y-35148130D01*
X20254606Y-32350000D01*
X20235360Y-32334206D01*
X20218811Y-32325360D01*
X22921000Y-32325360D01*
X22921000Y-32424640D01*
X22940368Y-32522011D01*
X22978361Y-32613734D01*
X23033517Y-32696282D01*
X23103718Y-32766483D01*
X23186266Y-32821639D01*
X23277989Y-32859632D01*
X23375360Y-32879000D01*
X23474640Y-32879000D01*
X23572011Y-32859632D01*
X23663734Y-32821639D01*
X23746282Y-32766483D01*
X23816483Y-32696282D01*
X23871639Y-32613734D01*
X23909632Y-32522011D01*
X23929000Y-32424640D01*
X23929000Y-32325360D01*
X23909632Y-32227989D01*
X23871639Y-32136266D01*
X23816483Y-32053718D01*
X23746282Y-31983517D01*
X23663734Y-31928361D01*
X23572011Y-31890368D01*
X23474640Y-31871000D01*
X23375360Y-31871000D01*
X23277989Y-31890368D01*
X23186266Y-31928361D01*
X23103718Y-31983517D01*
X23033517Y-32053718D01*
X22978361Y-32136266D01*
X22940368Y-32227989D01*
X22921000Y-32325360D01*
X20218811Y-32325360D01*
X20213404Y-32322470D01*
X19996601Y-32232667D01*
X19972777Y-32225440D01*
X19948000Y-32223000D01*
X15190694Y-32223000D01*
X15034545Y-32207690D01*
X15034541Y-32207690D01*
X15017382Y-32206000D01*
X7061221Y-32206000D01*
X6932138Y-32152532D01*
X6822468Y-32042862D01*
X6752000Y-31872737D01*
X6752000Y-29979367D01*
X6771282Y-29966483D01*
X6841483Y-29896282D01*
X6896639Y-29813734D01*
X6934632Y-29722011D01*
X6954000Y-29624640D01*
X6954000Y-29525360D01*
X6934632Y-29427989D01*
X6896639Y-29336266D01*
X6841483Y-29253718D01*
X6771282Y-29183517D01*
X6752000Y-29170633D01*
X6752000Y-27327263D01*
X6822468Y-27157138D01*
X7282138Y-26697468D01*
X7452263Y-26627000D01*
X19397867Y-26627000D01*
X19568551Y-26697305D01*
X24820444Y-31907845D01*
X24813734Y-31903361D01*
X24722011Y-31865368D01*
X24624640Y-31846000D01*
X24525360Y-31846000D01*
X24427989Y-31865368D01*
X24336266Y-31903361D01*
X24253718Y-31958517D01*
X24183517Y-32028718D01*
X24128361Y-32111266D01*
X24090368Y-32202989D01*
X24071000Y-32300360D01*
X24071000Y-32399640D01*
X24090368Y-32497011D01*
X24128361Y-32588734D01*
X24183517Y-32671282D01*
X24253718Y-32741483D01*
X24336266Y-32796639D01*
X24427989Y-32834632D01*
X24525360Y-32854000D01*
X24624640Y-32854000D01*
X24722011Y-32834632D01*
X24813734Y-32796639D01*
X24896282Y-32741483D01*
X24966483Y-32671282D01*
X25021639Y-32588734D01*
X25059632Y-32497011D01*
X25079000Y-32399640D01*
X25079000Y-32300360D01*
X25059632Y-32202989D01*
X25021639Y-32111266D01*
X25014085Y-32099961D01*
X25720396Y-32800710D01*
X25739704Y-32816428D01*
X25761474Y-32827982D01*
X25978631Y-32917429D01*
X26002470Y-32924608D01*
X26027000Y-32927000D01*
X29523000Y-32927000D01*
X29547776Y-32924560D01*
X29571601Y-32917333D01*
X29788404Y-32827530D01*
X29810361Y-32815794D01*
X29829606Y-32800000D01*
X40104246Y-22525360D01*
X40721000Y-22525360D01*
X40721000Y-22624640D01*
X40740368Y-22722011D01*
X40778361Y-22813734D01*
X40833517Y-22896282D01*
X40903718Y-22966483D01*
X40986266Y-23021639D01*
X41077989Y-23059632D01*
X41175360Y-23079000D01*
X41274640Y-23079000D01*
X41372011Y-23059632D01*
X41463734Y-23021639D01*
X41546282Y-22966483D01*
X41616483Y-22896282D01*
X41671639Y-22813734D01*
X41709632Y-22722011D01*
X41729000Y-22624640D01*
X41729000Y-22600360D01*
X46996000Y-22600360D01*
X46996000Y-22699640D01*
X47015368Y-22797011D01*
X47053361Y-22888734D01*
X47108517Y-22971282D01*
X47178718Y-23041483D01*
X47261266Y-23096639D01*
X47352989Y-23134632D01*
X47450360Y-23154000D01*
X47549640Y-23154000D01*
X47647011Y-23134632D01*
X47738734Y-23096639D01*
X47821282Y-23041483D01*
X47891483Y-22971282D01*
X47946639Y-22888734D01*
X47984632Y-22797011D01*
X48004000Y-22699640D01*
X48004000Y-22600360D01*
X47984632Y-22502989D01*
X47946639Y-22411266D01*
X47891483Y-22328718D01*
X47821282Y-22258517D01*
X47738734Y-22203361D01*
X47647011Y-22165368D01*
X47549640Y-22146000D01*
X47450360Y-22146000D01*
X47352989Y-22165368D01*
X47261266Y-22203361D01*
X47178718Y-22258517D01*
X47108517Y-22328718D01*
X47053361Y-22411266D01*
X47015368Y-22502989D01*
X46996000Y-22600360D01*
X41729000Y-22600360D01*
X41729000Y-22525360D01*
X41709632Y-22427989D01*
X41671639Y-22336266D01*
X41616483Y-22253718D01*
X41546282Y-22183517D01*
X41463734Y-22128361D01*
X41372011Y-22090368D01*
X41274640Y-22071000D01*
X41175360Y-22071000D01*
X41077989Y-22090368D01*
X40986266Y-22128361D01*
X40903718Y-22183517D01*
X40833517Y-22253718D01*
X40778361Y-22336266D01*
X40740368Y-22427989D01*
X40721000Y-22525360D01*
X40104246Y-22525360D01*
X40895921Y-21733686D01*
X40928718Y-21766483D01*
X41011266Y-21821639D01*
X41102989Y-21859632D01*
X41200360Y-21879000D01*
X41299640Y-21879000D01*
X41397011Y-21859632D01*
X41488734Y-21821639D01*
X41571282Y-21766483D01*
X41641483Y-21696282D01*
X41696639Y-21613734D01*
X41734632Y-21522011D01*
X41754000Y-21424640D01*
X41754000Y-21325360D01*
X41734632Y-21227989D01*
X41696639Y-21136266D01*
X41641483Y-21053718D01*
X41608686Y-21020921D01*
X42432138Y-20197468D01*
X42602263Y-20127000D01*
X44711488Y-20127000D01*
X44690368Y-20177989D01*
X44671000Y-20275360D01*
X44671000Y-20374640D01*
X44690368Y-20472011D01*
X44728361Y-20563734D01*
X44783517Y-20646282D01*
X44853718Y-20716483D01*
X44936266Y-20771639D01*
X45027989Y-20809632D01*
X45125360Y-20829000D01*
X45224640Y-20829000D01*
X45322011Y-20809632D01*
X45413734Y-20771639D01*
X45496282Y-20716483D01*
X45566483Y-20646282D01*
X45621639Y-20563734D01*
X45659632Y-20472011D01*
X45679000Y-20374640D01*
X45679000Y-20275360D01*
X45659632Y-20177989D01*
X45638512Y-20127000D01*
X45898000Y-20127000D01*
X45922776Y-20124560D01*
X45946601Y-20117333D01*
X46163404Y-20027530D01*
X46185361Y-20015794D01*
X46204606Y-20000000D01*
X46275000Y-19929606D01*
X46290794Y-19910360D01*
X46302530Y-19888404D01*
X46392333Y-19671601D01*
X46399560Y-19647777D01*
X46402000Y-19623000D01*
X46402000Y-15114765D01*
X46428718Y-15141483D01*
X46511266Y-15196639D01*
X46602989Y-15234632D01*
X46700360Y-15254000D01*
X46799640Y-15254000D01*
X46897011Y-15234632D01*
X46988734Y-15196639D01*
X47071282Y-15141483D01*
X47141483Y-15071282D01*
X47196639Y-14988734D01*
X47234632Y-14897011D01*
X47254000Y-14799640D01*
X47254000Y-14700360D01*
X47234632Y-14602989D01*
X47196639Y-14511266D01*
X47141483Y-14428718D01*
X47071282Y-14358517D01*
X46988734Y-14303361D01*
X46897011Y-14265368D01*
X46799640Y-14246000D01*
X46700360Y-14246000D01*
X46602989Y-14265368D01*
X46511266Y-14303361D01*
X46428718Y-14358517D01*
X46402000Y-14385235D01*
X46402000Y-13806158D01*
X47356158Y-12852000D01*
X48026133Y-12852000D01*
X48015368Y-12877989D01*
M02*
