G04 #@! TF.GenerationSoftware,KiCad,Pcbnew,(5.1.5)-3*
G04 #@! TF.CreationDate,2021-10-23T00:21:41+02:00*
G04 #@! TF.ProjectId,riser leopard 2OU Oculink,72697365-7220-46c6-956f-706172642032,rev?*
G04 #@! TF.SameCoordinates,PX4d4b990PY36d6160*
G04 #@! TF.FileFunction,Profile,NP*
%FSLAX46Y46*%
G04 Gerber Fmt 4.6, Leading zero omitted, Abs format (unit mm)*
G04 Created by KiCad (PCBNEW (5.1.5)-3) date 2021-10-23 00:21:41*
%MOMM*%
%LPD*%
G04 APERTURE LIST*
%ADD10C,0.200000*%
G04 APERTURE END LIST*
D10*
X27200000Y-42350000D02*
X27200000Y-48500000D01*
X132800000Y-49800000D02*
X29600000Y-49800000D01*
X133300000Y-49300000D02*
X132800000Y-49800000D01*
X29100000Y-49300000D02*
X29100000Y-48500000D01*
X29600000Y-49800000D02*
X29100000Y-49300000D01*
X-3000000Y28905000D02*
X148985786Y28905000D01*
X-4000000Y27905000D02*
G75*
G02X-3000000Y28905000I1000000J0D01*
G01*
X-4000000Y-30145786D02*
X-4000000Y27905000D01*
X149692893Y28612107D02*
X152107107Y26197893D01*
X148985786Y28905000D02*
G75*
G02X149692893Y28612107I0J-1000000D01*
G01*
X137900000Y6905000D02*
G75*
G02X138900000Y7905000I1000000J0D01*
G01*
X152107107Y26197894D02*
G75*
G02X152400000Y25490787I-707107J-707107D01*
G01*
X152400000Y25490787D02*
X152400000Y8905000D01*
X151400000Y7905000D02*
X138900000Y7905000D01*
X152400000Y8905000D02*
G75*
G02X151400000Y7905000I-1000000J0D01*
G01*
X15000000Y-32560000D02*
G75*
G02X16000000Y-33560000I0J-1000000D01*
G01*
X-1585786Y-32560000D02*
G75*
G02X-2292893Y-32267107I-1J1000000D01*
G01*
X-3707107Y-30852893D02*
G75*
G02X-4000000Y-30145786I707107J707107D01*
G01*
X-2292893Y-32267107D02*
X-3707107Y-30852893D01*
X15000000Y-32560000D02*
X-1585787Y-32560000D01*
X137900000Y-30145786D02*
G75*
G02X137607107Y-30852893I-1000000J0D01*
G01*
X137900000Y6905000D02*
X137900000Y-30145786D01*
X135485786Y-32560000D02*
X134300000Y-32560000D01*
X137607107Y-30852893D02*
X136192893Y-32267107D01*
X136192893Y-32267107D02*
G75*
G02X135485786Y-32560000I-707107J707107D01*
G01*
X29100000Y-48500000D02*
X29100000Y-42350000D01*
X133300000Y-33560000D02*
G75*
G02X134300000Y-32560000I1000000J0D01*
G01*
X133300000Y-33560000D02*
X133300000Y-48500000D01*
X27200000Y-48500000D02*
X27200000Y-49300000D01*
X16000000Y-48500000D02*
X16000000Y-33560000D01*
X133300000Y-48500000D02*
X133300000Y-49300000D01*
X27200000Y-42350000D02*
G75*
G02X29100000Y-42350000I950000J0D01*
G01*
X16000000Y-49300000D02*
X16000000Y-48500000D01*
X16500000Y-49800000D02*
X16000000Y-49300000D01*
X27200000Y-49300000D02*
X26700000Y-49800000D01*
X26700000Y-49800000D02*
X16500000Y-49800000D01*
M02*
