G04 #@! TF.GenerationSoftware,KiCad,Pcbnew,(5.1.5)-3*
G04 #@! TF.CreationDate,2021-10-23T00:21:41+02:00*
G04 #@! TF.ProjectId,riser leopard 2OU Oculink,72697365-7220-46c6-956f-706172642032,rev?*
G04 #@! TF.SameCoordinates,PX4d4b990PY36d6160*
G04 #@! TF.FileFunction,Other,Comment*
%FSLAX46Y46*%
G04 Gerber Fmt 4.6, Leading zero omitted, Abs format (unit mm)*
G04 Created by KiCad (PCBNEW (5.1.5)-3) date 2021-10-23 00:21:41*
%MOMM*%
%LPD*%
G04 APERTURE LIST*
%ADD10C,0.300000*%
%ADD11C,0.150000*%
G04 APERTURE END LIST*
D10*
X49822619Y-52339285D02*
X49727380Y-52434523D01*
X49441666Y-52529761D01*
X49251190Y-52529761D01*
X48965476Y-52434523D01*
X48775000Y-52244047D01*
X48679761Y-52053571D01*
X48584523Y-51672619D01*
X48584523Y-51386904D01*
X48679761Y-51005952D01*
X48775000Y-50815476D01*
X48965476Y-50625000D01*
X49251190Y-50529761D01*
X49441666Y-50529761D01*
X49727380Y-50625000D01*
X49822619Y-50720238D01*
X50679761Y-52529761D02*
X50679761Y-50529761D01*
X51536904Y-52529761D02*
X51536904Y-51482142D01*
X51441666Y-51291666D01*
X51251190Y-51196428D01*
X50965476Y-51196428D01*
X50775000Y-51291666D01*
X50679761Y-51386904D01*
X53346428Y-52529761D02*
X53346428Y-51482142D01*
X53251190Y-51291666D01*
X53060714Y-51196428D01*
X52679761Y-51196428D01*
X52489285Y-51291666D01*
X53346428Y-52434523D02*
X53155952Y-52529761D01*
X52679761Y-52529761D01*
X52489285Y-52434523D01*
X52394047Y-52244047D01*
X52394047Y-52053571D01*
X52489285Y-51863095D01*
X52679761Y-51767857D01*
X53155952Y-51767857D01*
X53346428Y-51672619D01*
X54298809Y-51196428D02*
X54298809Y-52529761D01*
X54298809Y-51386904D02*
X54394047Y-51291666D01*
X54584523Y-51196428D01*
X54870238Y-51196428D01*
X55060714Y-51291666D01*
X55155952Y-51482142D01*
X55155952Y-52529761D01*
X55822619Y-51196428D02*
X56584523Y-51196428D01*
X56108333Y-52529761D02*
X56108333Y-50815476D01*
X56203571Y-50625000D01*
X56394047Y-50529761D01*
X56584523Y-50529761D01*
X58013095Y-52434523D02*
X57822619Y-52529761D01*
X57441666Y-52529761D01*
X57251190Y-52434523D01*
X57155952Y-52244047D01*
X57155952Y-51482142D01*
X57251190Y-51291666D01*
X57441666Y-51196428D01*
X57822619Y-51196428D01*
X58013095Y-51291666D01*
X58108333Y-51482142D01*
X58108333Y-51672619D01*
X57155952Y-51863095D01*
X58965476Y-52529761D02*
X58965476Y-51196428D01*
X58965476Y-51577380D02*
X59060714Y-51386904D01*
X59155952Y-51291666D01*
X59346428Y-51196428D01*
X59536904Y-51196428D01*
X62775000Y-52529761D02*
X61632142Y-52529761D01*
X62203571Y-52529761D02*
X62203571Y-50529761D01*
X62013095Y-50815476D01*
X61822619Y-51005952D01*
X61632142Y-51101190D01*
X63632142Y-52339285D02*
X63727380Y-52434523D01*
X63632142Y-52529761D01*
X63536904Y-52434523D01*
X63632142Y-52339285D01*
X63632142Y-52529761D01*
X64394047Y-50529761D02*
X65632142Y-50529761D01*
X64965476Y-51291666D01*
X65251190Y-51291666D01*
X65441666Y-51386904D01*
X65536904Y-51482142D01*
X65632142Y-51672619D01*
X65632142Y-52148809D01*
X65536904Y-52339285D01*
X65441666Y-52434523D01*
X65251190Y-52529761D01*
X64679761Y-52529761D01*
X64489285Y-52434523D01*
X64394047Y-52339285D01*
X66870238Y-50529761D02*
X67060714Y-50529761D01*
X67251190Y-50625000D01*
X67346428Y-50720238D01*
X67441666Y-50910714D01*
X67536904Y-51291666D01*
X67536904Y-51767857D01*
X67441666Y-52148809D01*
X67346428Y-52339285D01*
X67251190Y-52434523D01*
X67060714Y-52529761D01*
X66870238Y-52529761D01*
X66679761Y-52434523D01*
X66584523Y-52339285D01*
X66489285Y-52148809D01*
X66394047Y-51767857D01*
X66394047Y-51291666D01*
X66489285Y-50910714D01*
X66584523Y-50720238D01*
X66679761Y-50625000D01*
X66870238Y-50529761D01*
X68394047Y-52529761D02*
X68394047Y-51196428D01*
X68394047Y-51386904D02*
X68489285Y-51291666D01*
X68679761Y-51196428D01*
X68965476Y-51196428D01*
X69155952Y-51291666D01*
X69251190Y-51482142D01*
X69251190Y-52529761D01*
X69251190Y-51482142D02*
X69346428Y-51291666D01*
X69536904Y-51196428D01*
X69822619Y-51196428D01*
X70013095Y-51291666D01*
X70108333Y-51482142D01*
X70108333Y-52529761D01*
X71060714Y-52529761D02*
X71060714Y-51196428D01*
X71060714Y-51386904D02*
X71155952Y-51291666D01*
X71346428Y-51196428D01*
X71632142Y-51196428D01*
X71822619Y-51291666D01*
X71917857Y-51482142D01*
X71917857Y-52529761D01*
X71917857Y-51482142D02*
X72013095Y-51291666D01*
X72203571Y-51196428D01*
X72489285Y-51196428D01*
X72679761Y-51291666D01*
X72775000Y-51482142D01*
X72775000Y-52529761D01*
X75346428Y-52434523D02*
X75346428Y-52529761D01*
X75251190Y-52720238D01*
X75155952Y-52815476D01*
X77632142Y-50720238D02*
X77727380Y-50625000D01*
X77917857Y-50529761D01*
X78394047Y-50529761D01*
X78584523Y-50625000D01*
X78679761Y-50720238D01*
X78775000Y-50910714D01*
X78775000Y-51101190D01*
X78679761Y-51386904D01*
X77536904Y-52529761D01*
X78775000Y-52529761D01*
X80013095Y-50529761D02*
X80203571Y-50529761D01*
X80394047Y-50625000D01*
X80489285Y-50720238D01*
X80584523Y-50910714D01*
X80679761Y-51291666D01*
X80679761Y-51767857D01*
X80584523Y-52148809D01*
X80489285Y-52339285D01*
X80394047Y-52434523D01*
X80203571Y-52529761D01*
X80013095Y-52529761D01*
X79822619Y-52434523D01*
X79727380Y-52339285D01*
X79632142Y-52148809D01*
X79536904Y-51767857D01*
X79536904Y-51291666D01*
X79632142Y-50910714D01*
X79727380Y-50720238D01*
X79822619Y-50625000D01*
X80013095Y-50529761D01*
X81822619Y-50529761D02*
X81632142Y-50625000D01*
X81536904Y-50815476D01*
X81632142Y-51005952D01*
X81822619Y-51101190D01*
X82013095Y-51005952D01*
X82108333Y-50815476D01*
X82013095Y-50625000D01*
X81822619Y-50529761D01*
X83155952Y-52434523D02*
X83155952Y-52529761D01*
X83060714Y-52720238D01*
X82965476Y-52815476D01*
X86394047Y-51196428D02*
X86394047Y-52815476D01*
X86298809Y-53005952D01*
X86203571Y-53101190D01*
X86013095Y-53196428D01*
X85727380Y-53196428D01*
X85536904Y-53101190D01*
X86394047Y-52434523D02*
X86203571Y-52529761D01*
X85822619Y-52529761D01*
X85632142Y-52434523D01*
X85536904Y-52339285D01*
X85441666Y-52148809D01*
X85441666Y-51577380D01*
X85536904Y-51386904D01*
X85632142Y-51291666D01*
X85822619Y-51196428D01*
X86203571Y-51196428D01*
X86394047Y-51291666D01*
X87632142Y-52529761D02*
X87441666Y-52434523D01*
X87346428Y-52339285D01*
X87251190Y-52148809D01*
X87251190Y-51577380D01*
X87346428Y-51386904D01*
X87441666Y-51291666D01*
X87632142Y-51196428D01*
X87917857Y-51196428D01*
X88108333Y-51291666D01*
X88203571Y-51386904D01*
X88298809Y-51577380D01*
X88298809Y-52148809D01*
X88203571Y-52339285D01*
X88108333Y-52434523D01*
X87917857Y-52529761D01*
X87632142Y-52529761D01*
X89441666Y-52529761D02*
X89251190Y-52434523D01*
X89155952Y-52244047D01*
X89155952Y-50529761D01*
X91060714Y-52529761D02*
X91060714Y-50529761D01*
X91060714Y-52434523D02*
X90870238Y-52529761D01*
X90489285Y-52529761D01*
X90298809Y-52434523D01*
X90203571Y-52339285D01*
X90108333Y-52148809D01*
X90108333Y-51577380D01*
X90203571Y-51386904D01*
X90298809Y-51291666D01*
X90489285Y-51196428D01*
X90870238Y-51196428D01*
X91060714Y-51291666D01*
X93251190Y-51196428D02*
X94013095Y-51196428D01*
X93536904Y-52529761D02*
X93536904Y-50815476D01*
X93632142Y-50625000D01*
X93822619Y-50529761D01*
X94013095Y-50529761D01*
X94679761Y-52529761D02*
X94679761Y-51196428D01*
X94679761Y-50529761D02*
X94584523Y-50625000D01*
X94679761Y-50720238D01*
X94775000Y-50625000D01*
X94679761Y-50529761D01*
X94679761Y-50720238D01*
X95632142Y-51196428D02*
X95632142Y-52529761D01*
X95632142Y-51386904D02*
X95727380Y-51291666D01*
X95917857Y-51196428D01*
X96203571Y-51196428D01*
X96394047Y-51291666D01*
X96489285Y-51482142D01*
X96489285Y-52529761D01*
X97441666Y-52529761D02*
X97441666Y-51196428D01*
X97441666Y-50529761D02*
X97346428Y-50625000D01*
X97441666Y-50720238D01*
X97536904Y-50625000D01*
X97441666Y-50529761D01*
X97441666Y-50720238D01*
X98298809Y-52434523D02*
X98489285Y-52529761D01*
X98870238Y-52529761D01*
X99060714Y-52434523D01*
X99155952Y-52244047D01*
X99155952Y-52148809D01*
X99060714Y-51958333D01*
X98870238Y-51863095D01*
X98584523Y-51863095D01*
X98394047Y-51767857D01*
X98298809Y-51577380D01*
X98298809Y-51482142D01*
X98394047Y-51291666D01*
X98584523Y-51196428D01*
X98870238Y-51196428D01*
X99060714Y-51291666D01*
X100013095Y-52529761D02*
X100013095Y-50529761D01*
X100870238Y-52529761D02*
X100870238Y-51482142D01*
X100775000Y-51291666D01*
X100584523Y-51196428D01*
X100298809Y-51196428D01*
X100108333Y-51291666D01*
X100013095Y-51386904D01*
X15275000Y-55235000D02*
X15275000Y-48335000D01*
X134275000Y-55235000D02*
X15275000Y-55235000D01*
X134275000Y-48335000D02*
X134275000Y-55235000D01*
X15275000Y-48335000D02*
X134275000Y-48335000D01*
D11*
X3200000Y0D02*
G75*
G03X3200000Y0I-3200000J0D01*
G01*
X137100000Y-10000D02*
G75*
G03X137100000Y-10000I-3200000J0D01*
G01*
M02*
