G04 #@! TF.GenerationSoftware,KiCad,Pcbnew,(5.1.5)-3*
G04 #@! TF.CreationDate,2021-10-23T00:21:41+02:00*
G04 #@! TF.ProjectId,riser leopard 2OU Oculink,72697365-7220-46c6-956f-706172642032,rev?*
G04 #@! TF.SameCoordinates,PX4d4b990PY36d6160*
G04 #@! TF.FileFunction,Other,User*
%FSLAX46Y46*%
G04 Gerber Fmt 4.6, Leading zero omitted, Abs format (unit mm)*
G04 Created by KiCad (PCBNEW (5.1.5)-3) date 2021-10-23 00:21:41*
%MOMM*%
%LPD*%
G04 APERTURE LIST*
%ADD10C,0.050000*%
%ADD11C,0.120000*%
%ADD12C,0.040000*%
G04 APERTURE END LIST*
D10*
X52700000Y-24900000D02*
X52700000Y-26500000D01*
X52700000Y-24900000D02*
X51800000Y-24900000D01*
X51800000Y-26500000D02*
X52700000Y-26500000D01*
X51800000Y-26500000D02*
X51800000Y-24900000D01*
X10820000Y2145000D02*
X10820000Y3305000D01*
X10820000Y2145000D02*
X11470000Y2145000D01*
X11470000Y3305000D02*
X10820000Y3305000D01*
X11470000Y3305000D02*
X11470000Y2145000D01*
X19070000Y2605000D02*
X20230000Y2605000D01*
X19070000Y2605000D02*
X19070000Y1955000D01*
X20230000Y1955000D02*
X20230000Y2605000D01*
X20230000Y1955000D02*
X19070000Y1955000D01*
X19255000Y-645000D02*
X19255000Y-1805000D01*
X19255000Y-645000D02*
X18605000Y-645000D01*
X18605000Y-1805000D02*
X19255000Y-1805000D01*
X18605000Y-1805000D02*
X18605000Y-645000D01*
X19050000Y-23600000D02*
X19050000Y-25600000D01*
X19050000Y-23600000D02*
X18250000Y-23600000D01*
X18250000Y-25600000D02*
X19050000Y-25600000D01*
X18250000Y-25600000D02*
X18250000Y-23600000D01*
X18595000Y4945000D02*
X19755000Y4945000D01*
X18595000Y4945000D02*
X18595000Y4295000D01*
X19755000Y4295000D02*
X19755000Y4945000D01*
X19755000Y4295000D02*
X18595000Y4295000D01*
X14095000Y-4320000D02*
X14095000Y-5480000D01*
X14095000Y-4320000D02*
X13445000Y-4320000D01*
X13445000Y-5480000D02*
X14095000Y-5480000D01*
X13445000Y-5480000D02*
X13445000Y-4320000D01*
X20720000Y-645000D02*
X20720000Y-1805000D01*
X20720000Y-645000D02*
X20070000Y-645000D01*
X20070000Y-1805000D02*
X20720000Y-1805000D01*
X20070000Y-1805000D02*
X20070000Y-645000D01*
X15330000Y5980000D02*
X15330000Y4820000D01*
X15330000Y5980000D02*
X14680000Y5980000D01*
X14680000Y4820000D02*
X15330000Y4820000D01*
X14680000Y4820000D02*
X14680000Y5980000D01*
X14645000Y-5480000D02*
X14645000Y-4320000D01*
X14645000Y-5480000D02*
X15295000Y-5480000D01*
X15295000Y-4320000D02*
X14645000Y-4320000D01*
X15295000Y-4320000D02*
X15295000Y-5480000D01*
X10400000Y3725000D02*
X10400000Y1725000D01*
X10400000Y3725000D02*
X9600000Y3725000D01*
X9600000Y1725000D02*
X10400000Y1725000D01*
X9600000Y1725000D02*
X9600000Y3725000D01*
X16550000Y-3900000D02*
X16550000Y-5900000D01*
X16550000Y-3900000D02*
X15750000Y-3900000D01*
X15750000Y-5900000D02*
X16550000Y-5900000D01*
X15750000Y-5900000D02*
X15750000Y-3900000D01*
X9250000Y3725000D02*
X9250000Y1725000D01*
X9250000Y3725000D02*
X8450000Y3725000D01*
X8450000Y1725000D02*
X9250000Y1725000D01*
X8450000Y1725000D02*
X8450000Y3725000D01*
X16900000Y-5900000D02*
X16900000Y-3900000D01*
X16900000Y-5900000D02*
X17700000Y-5900000D01*
X17700000Y-3900000D02*
X16900000Y-3900000D01*
X17700000Y-3900000D02*
X17700000Y-5900000D01*
X41625000Y-20975000D02*
X43625000Y-20975000D01*
X41625000Y-20975000D02*
X41625000Y-21775000D01*
X43625000Y-21775000D02*
X43625000Y-20975000D01*
X43625000Y-21775000D02*
X41625000Y-21775000D01*
X47830000Y-21070000D02*
X47830000Y-22230000D01*
X47830000Y-21070000D02*
X47180000Y-21070000D01*
X47180000Y-22230000D02*
X47830000Y-22230000D01*
X47180000Y-22230000D02*
X47180000Y-21070000D01*
X46720000Y-12830000D02*
X46720000Y-11670000D01*
X46720000Y-12830000D02*
X47370000Y-12830000D01*
X47370000Y-11670000D02*
X46720000Y-11670000D01*
X47370000Y-11670000D02*
X47370000Y-12830000D01*
X43625000Y-22975000D02*
X41625000Y-22975000D01*
X43625000Y-22975000D02*
X43625000Y-22175000D01*
X41625000Y-22175000D02*
X41625000Y-22975000D01*
X41625000Y-22175000D02*
X43625000Y-22175000D01*
X51680000Y-13620000D02*
X50520000Y-13620000D01*
X51680000Y-13620000D02*
X51680000Y-12970000D01*
X50520000Y-12970000D02*
X50520000Y-13620000D01*
X50520000Y-12970000D02*
X51680000Y-12970000D01*
X45580000Y-13680000D02*
X45580000Y-12520000D01*
X45580000Y-13680000D02*
X46230000Y-13680000D01*
X46230000Y-12520000D02*
X45580000Y-12520000D01*
X46230000Y-12520000D02*
X46230000Y-13680000D01*
X54870000Y-16580000D02*
X56030000Y-16580000D01*
X54870000Y-16580000D02*
X54870000Y-17230000D01*
X56030000Y-17230000D02*
X56030000Y-16580000D01*
X56030000Y-17230000D02*
X54870000Y-17230000D01*
X48720000Y-11580000D02*
X49880000Y-11580000D01*
X48720000Y-11580000D02*
X48720000Y-12230000D01*
X49880000Y-12230000D02*
X49880000Y-11580000D01*
X49880000Y-12230000D02*
X48720000Y-12230000D01*
X54800000Y-23325000D02*
X54800000Y-21325000D01*
X54800000Y-23325000D02*
X55600000Y-23325000D01*
X55600000Y-21325000D02*
X54800000Y-21325000D01*
X55600000Y-21325000D02*
X55600000Y-23325000D01*
X42270000Y-16470000D02*
X43430000Y-16470000D01*
X42270000Y-16470000D02*
X42270000Y-17120000D01*
X43430000Y-17120000D02*
X43430000Y-16470000D01*
X43430000Y-17120000D02*
X42270000Y-17120000D01*
X52680000Y-12420000D02*
X52680000Y-13580000D01*
X52680000Y-12420000D02*
X52030000Y-12420000D01*
X52030000Y-13580000D02*
X52680000Y-13580000D01*
X52030000Y-13580000D02*
X52030000Y-12420000D01*
X54400000Y-21325000D02*
X54400000Y-23325000D01*
X54400000Y-21325000D02*
X53600000Y-21325000D01*
X53600000Y-23325000D02*
X54400000Y-23325000D01*
X53600000Y-23325000D02*
X53600000Y-21325000D01*
X4400000Y14650000D02*
X4400000Y16650000D01*
X4400000Y14650000D02*
X5200000Y14650000D01*
X5200000Y16650000D02*
X4400000Y16650000D01*
X5200000Y16650000D02*
X5200000Y14650000D01*
X6200000Y25000000D02*
X6200000Y22200000D01*
X6200000Y25000000D02*
X4900000Y25000000D01*
X4900000Y22200000D02*
X6200000Y22200000D01*
X4900000Y22200000D02*
X4900000Y25000000D01*
X6400000Y16650000D02*
X6400000Y14650000D01*
X6400000Y16650000D02*
X5600000Y16650000D01*
X5600000Y14650000D02*
X6400000Y14650000D01*
X5600000Y14650000D02*
X5600000Y16650000D01*
X6400000Y22200000D02*
X6400000Y25000000D01*
X6400000Y22200000D02*
X7700000Y22200000D01*
X7700000Y25000000D02*
X6400000Y25000000D01*
X7700000Y25000000D02*
X7700000Y22200000D01*
X6800000Y14650000D02*
X6800000Y16650000D01*
X6800000Y14650000D02*
X7600000Y14650000D01*
X7600000Y16650000D02*
X6800000Y16650000D01*
X7600000Y16650000D02*
X7600000Y14650000D01*
X9200000Y25000000D02*
X9200000Y22200000D01*
X9200000Y25000000D02*
X7900000Y25000000D01*
X7900000Y22200000D02*
X9200000Y22200000D01*
X7900000Y22200000D02*
X7900000Y25000000D01*
X9500000Y22600000D02*
X9500000Y24600000D01*
X9500000Y22600000D02*
X10300000Y22600000D01*
X10300000Y24600000D02*
X9500000Y24600000D01*
X10300000Y24600000D02*
X10300000Y22600000D01*
X23025000Y-34725000D02*
X23025000Y-32725000D01*
X23025000Y-34725000D02*
X23825000Y-34725000D01*
X23825000Y-32725000D02*
X23025000Y-32725000D01*
X23825000Y-32725000D02*
X23825000Y-34725000D01*
X24175000Y-34725000D02*
X24175000Y-32725000D01*
X24175000Y-34725000D02*
X24975000Y-34725000D01*
X24975000Y-32725000D02*
X24175000Y-32725000D01*
X24975000Y-32725000D02*
X24975000Y-34725000D01*
X32020000Y-39920000D02*
X32020000Y-41080000D01*
X32020000Y-39920000D02*
X31370000Y-39920000D01*
X31370000Y-41080000D02*
X32020000Y-41080000D01*
X31370000Y-41080000D02*
X31370000Y-39920000D01*
X37020000Y-39920000D02*
X37020000Y-41080000D01*
X37020000Y-39920000D02*
X36370000Y-39920000D01*
X36370000Y-41080000D02*
X37020000Y-41080000D01*
X36370000Y-41080000D02*
X36370000Y-39920000D01*
X41020000Y-39920000D02*
X41020000Y-41080000D01*
X41020000Y-39920000D02*
X40370000Y-39920000D01*
X40370000Y-41080000D02*
X41020000Y-41080000D01*
X40370000Y-41080000D02*
X40370000Y-39920000D01*
X44370000Y-41080000D02*
X44370000Y-39920000D01*
X44370000Y-41080000D02*
X45020000Y-41080000D01*
X45020000Y-39920000D02*
X44370000Y-39920000D01*
X45020000Y-39920000D02*
X45020000Y-41080000D01*
X32370000Y-41080000D02*
X32370000Y-39920000D01*
X32370000Y-41080000D02*
X33020000Y-41080000D01*
X33020000Y-39920000D02*
X32370000Y-39920000D01*
X33020000Y-39920000D02*
X33020000Y-41080000D01*
X37370000Y-41080000D02*
X37370000Y-39920000D01*
X37370000Y-41080000D02*
X38020000Y-41080000D01*
X38020000Y-39920000D02*
X37370000Y-39920000D01*
X38020000Y-39920000D02*
X38020000Y-41080000D01*
X42020000Y-39920000D02*
X42020000Y-41080000D01*
X42020000Y-39920000D02*
X41370000Y-39920000D01*
X41370000Y-41080000D02*
X42020000Y-41080000D01*
X41370000Y-41080000D02*
X41370000Y-39920000D01*
X46020000Y-39920000D02*
X46020000Y-41080000D01*
X46020000Y-39920000D02*
X45370000Y-39920000D01*
X45370000Y-41080000D02*
X46020000Y-41080000D01*
X45370000Y-41080000D02*
X45370000Y-39920000D01*
X67370000Y-41080000D02*
X67370000Y-39920000D01*
X67370000Y-41080000D02*
X68020000Y-41080000D01*
X68020000Y-39920000D02*
X67370000Y-39920000D01*
X68020000Y-39920000D02*
X68020000Y-41080000D01*
X72020000Y-39920000D02*
X72020000Y-41080000D01*
X72020000Y-39920000D02*
X71370000Y-39920000D01*
X71370000Y-41080000D02*
X72020000Y-41080000D01*
X71370000Y-41080000D02*
X71370000Y-39920000D01*
X76020000Y-39920000D02*
X76020000Y-41080000D01*
X76020000Y-39920000D02*
X75370000Y-39920000D01*
X75370000Y-41080000D02*
X76020000Y-41080000D01*
X75370000Y-41080000D02*
X75370000Y-39920000D01*
X80020000Y-39920000D02*
X80020000Y-41080000D01*
X80020000Y-39920000D02*
X79370000Y-39920000D01*
X79370000Y-41080000D02*
X80020000Y-41080000D01*
X79370000Y-41080000D02*
X79370000Y-39920000D01*
X68370000Y-41080000D02*
X68370000Y-39920000D01*
X68370000Y-41080000D02*
X69020000Y-41080000D01*
X69020000Y-39920000D02*
X68370000Y-39920000D01*
X69020000Y-39920000D02*
X69020000Y-41080000D01*
X72370000Y-41080000D02*
X72370000Y-39920000D01*
X72370000Y-41080000D02*
X73020000Y-41080000D01*
X73020000Y-39920000D02*
X72370000Y-39920000D01*
X73020000Y-39920000D02*
X73020000Y-41080000D01*
X76370000Y-41080000D02*
X76370000Y-39920000D01*
X76370000Y-41080000D02*
X77020000Y-41080000D01*
X77020000Y-39920000D02*
X76370000Y-39920000D01*
X77020000Y-39920000D02*
X77020000Y-41080000D01*
X80370000Y-41080000D02*
X80370000Y-39920000D01*
X80370000Y-41080000D02*
X81020000Y-41080000D01*
X81020000Y-39920000D02*
X80370000Y-39920000D01*
X81020000Y-39920000D02*
X81020000Y-41080000D01*
X101020000Y-39920000D02*
X101020000Y-41080000D01*
X101020000Y-39920000D02*
X100370000Y-39920000D01*
X100370000Y-41080000D02*
X101020000Y-41080000D01*
X100370000Y-41080000D02*
X100370000Y-39920000D01*
X105020000Y-39920000D02*
X105020000Y-41080000D01*
X105020000Y-39920000D02*
X104370000Y-39920000D01*
X104370000Y-41080000D02*
X105020000Y-41080000D01*
X104370000Y-41080000D02*
X104370000Y-39920000D01*
X109020000Y-39920000D02*
X109020000Y-41080000D01*
X109020000Y-39920000D02*
X108370000Y-39920000D01*
X108370000Y-41080000D02*
X109020000Y-41080000D01*
X108370000Y-41080000D02*
X108370000Y-39920000D01*
X113020000Y-39920000D02*
X113020000Y-41080000D01*
X113020000Y-39920000D02*
X112370000Y-39920000D01*
X112370000Y-41080000D02*
X113020000Y-41080000D01*
X112370000Y-41080000D02*
X112370000Y-39920000D01*
X101370000Y-41080000D02*
X101370000Y-39920000D01*
X101370000Y-41080000D02*
X102020000Y-41080000D01*
X102020000Y-39920000D02*
X101370000Y-39920000D01*
X102020000Y-39920000D02*
X102020000Y-41080000D01*
X105370000Y-41080000D02*
X105370000Y-39920000D01*
X105370000Y-41080000D02*
X106020000Y-41080000D01*
X106020000Y-39920000D02*
X105370000Y-39920000D01*
X106020000Y-39920000D02*
X106020000Y-41080000D01*
X109370000Y-41080000D02*
X109370000Y-39920000D01*
X109370000Y-41080000D02*
X110020000Y-41080000D01*
X110020000Y-39920000D02*
X109370000Y-39920000D01*
X110020000Y-39920000D02*
X110020000Y-41080000D01*
X113370000Y-41080000D02*
X113370000Y-39920000D01*
X113370000Y-41080000D02*
X114020000Y-41080000D01*
X114020000Y-39920000D02*
X113370000Y-39920000D01*
X114020000Y-39920000D02*
X114020000Y-41080000D01*
X116370000Y-41080000D02*
X116370000Y-39920000D01*
X116370000Y-41080000D02*
X117020000Y-41080000D01*
X117020000Y-39920000D02*
X116370000Y-39920000D01*
X117020000Y-39920000D02*
X117020000Y-41080000D01*
X120370000Y-41080000D02*
X120370000Y-39920000D01*
X120370000Y-41080000D02*
X121020000Y-41080000D01*
X121020000Y-39920000D02*
X120370000Y-39920000D01*
X121020000Y-39920000D02*
X121020000Y-41080000D01*
X124370000Y-41080000D02*
X124370000Y-39920000D01*
X124370000Y-41080000D02*
X125020000Y-41080000D01*
X125020000Y-39920000D02*
X124370000Y-39920000D01*
X125020000Y-39920000D02*
X125020000Y-41080000D01*
X128370000Y-41080000D02*
X128370000Y-39920000D01*
X128370000Y-41080000D02*
X129020000Y-41080000D01*
X129020000Y-39920000D02*
X128370000Y-39920000D01*
X129020000Y-39920000D02*
X129020000Y-41080000D01*
X51020000Y-39920000D02*
X51020000Y-41080000D01*
X51020000Y-39920000D02*
X50370000Y-39920000D01*
X50370000Y-41080000D02*
X51020000Y-41080000D01*
X50370000Y-41080000D02*
X50370000Y-39920000D01*
X55020000Y-39920000D02*
X55020000Y-41080000D01*
X55020000Y-39920000D02*
X54370000Y-39920000D01*
X54370000Y-41080000D02*
X55020000Y-41080000D01*
X54370000Y-41080000D02*
X54370000Y-39920000D01*
X59020000Y-39920000D02*
X59020000Y-41080000D01*
X59020000Y-39920000D02*
X58370000Y-39920000D01*
X58370000Y-41080000D02*
X59020000Y-41080000D01*
X58370000Y-41080000D02*
X58370000Y-39920000D01*
X63020000Y-39920000D02*
X63020000Y-41080000D01*
X63020000Y-39920000D02*
X62370000Y-39920000D01*
X62370000Y-41080000D02*
X63020000Y-41080000D01*
X62370000Y-41080000D02*
X62370000Y-39920000D01*
X118020000Y-39920000D02*
X118020000Y-41080000D01*
X118020000Y-39920000D02*
X117370000Y-39920000D01*
X117370000Y-41080000D02*
X118020000Y-41080000D01*
X117370000Y-41080000D02*
X117370000Y-39920000D01*
X122020000Y-39920000D02*
X122020000Y-41080000D01*
X122020000Y-39920000D02*
X121370000Y-39920000D01*
X121370000Y-41080000D02*
X122020000Y-41080000D01*
X121370000Y-41080000D02*
X121370000Y-39920000D01*
X126020000Y-39920000D02*
X126020000Y-41080000D01*
X126020000Y-39920000D02*
X125370000Y-39920000D01*
X125370000Y-41080000D02*
X126020000Y-41080000D01*
X125370000Y-41080000D02*
X125370000Y-39920000D01*
X130020000Y-39920000D02*
X130020000Y-41080000D01*
X130020000Y-39920000D02*
X129370000Y-39920000D01*
X129370000Y-41080000D02*
X130020000Y-41080000D01*
X129370000Y-41080000D02*
X129370000Y-39920000D01*
X51370000Y-41080000D02*
X51370000Y-39920000D01*
X51370000Y-41080000D02*
X52020000Y-41080000D01*
X52020000Y-39920000D02*
X51370000Y-39920000D01*
X52020000Y-39920000D02*
X52020000Y-41080000D01*
X55370000Y-41080000D02*
X55370000Y-39920000D01*
X55370000Y-41080000D02*
X56020000Y-41080000D01*
X56020000Y-39920000D02*
X55370000Y-39920000D01*
X56020000Y-39920000D02*
X56020000Y-41080000D01*
X59370000Y-41080000D02*
X59370000Y-39920000D01*
X59370000Y-41080000D02*
X60020000Y-41080000D01*
X60020000Y-39920000D02*
X59370000Y-39920000D01*
X60020000Y-39920000D02*
X60020000Y-41080000D01*
X64020000Y-39920000D02*
X64020000Y-41080000D01*
X64020000Y-39920000D02*
X63370000Y-39920000D01*
X63370000Y-41080000D02*
X64020000Y-41080000D01*
X63370000Y-41080000D02*
X63370000Y-39920000D01*
X83370000Y-41080000D02*
X83370000Y-39920000D01*
X83370000Y-41080000D02*
X84020000Y-41080000D01*
X84020000Y-39920000D02*
X83370000Y-39920000D01*
X84020000Y-39920000D02*
X84020000Y-41080000D01*
X88020000Y-39920000D02*
X88020000Y-41080000D01*
X88020000Y-39920000D02*
X87370000Y-39920000D01*
X87370000Y-41080000D02*
X88020000Y-41080000D01*
X87370000Y-41080000D02*
X87370000Y-39920000D01*
X91370000Y-41080000D02*
X91370000Y-39920000D01*
X91370000Y-41080000D02*
X92020000Y-41080000D01*
X92020000Y-39920000D02*
X91370000Y-39920000D01*
X92020000Y-39920000D02*
X92020000Y-41080000D01*
X95370000Y-41080000D02*
X95370000Y-39920000D01*
X95370000Y-41080000D02*
X96020000Y-41080000D01*
X96020000Y-39920000D02*
X95370000Y-39920000D01*
X96020000Y-39920000D02*
X96020000Y-41080000D01*
X84370000Y-41080000D02*
X84370000Y-39920000D01*
X84370000Y-41080000D02*
X85020000Y-41080000D01*
X85020000Y-39920000D02*
X84370000Y-39920000D01*
X85020000Y-39920000D02*
X85020000Y-41080000D01*
X89020000Y-39920000D02*
X89020000Y-41080000D01*
X89020000Y-39920000D02*
X88370000Y-39920000D01*
X88370000Y-41080000D02*
X89020000Y-41080000D01*
X88370000Y-41080000D02*
X88370000Y-39920000D01*
X93020000Y-39920000D02*
X93020000Y-41080000D01*
X93020000Y-39920000D02*
X92370000Y-39920000D01*
X92370000Y-41080000D02*
X93020000Y-41080000D01*
X92370000Y-41080000D02*
X92370000Y-39920000D01*
X97020000Y-39920000D02*
X97020000Y-41080000D01*
X97020000Y-39920000D02*
X96370000Y-39920000D01*
X96370000Y-41080000D02*
X97020000Y-41080000D01*
X96370000Y-41080000D02*
X96370000Y-39920000D01*
X3450000Y0D02*
G75*
G03X3450000Y0I-3450000J0D01*
G01*
X137350000Y-10000D02*
G75*
G03X137350000Y-10000I-3450000J0D01*
G01*
X19200000Y-15550000D02*
X19200000Y-17150000D01*
X19200000Y-15550000D02*
X18300000Y-15550000D01*
X18300000Y-17150000D02*
X19200000Y-17150000D01*
X18300000Y-17150000D02*
X18300000Y-15550000D01*
X20900000Y200000D02*
X20900000Y1800000D01*
X20900000Y200000D02*
X21800000Y200000D01*
X21800000Y1800000D02*
X20900000Y1800000D01*
X21800000Y1800000D02*
X21800000Y200000D01*
X8100000Y400000D02*
X9700000Y400000D01*
X8100000Y400000D02*
X8100000Y-500000D01*
X9700000Y-500000D02*
X9700000Y400000D01*
X9700000Y-500000D02*
X8100000Y-500000D01*
X12850000Y-4475000D02*
X12850000Y-6075000D01*
X12850000Y-4475000D02*
X11950000Y-4475000D01*
X11950000Y-6075000D02*
X12850000Y-6075000D01*
X11950000Y-6075000D02*
X11950000Y-4475000D01*
X18200000Y-22350000D02*
X18200000Y-20750000D01*
X18200000Y-22350000D02*
X19100000Y-22350000D01*
X19100000Y-20750000D02*
X18200000Y-20750000D01*
X19100000Y-20750000D02*
X19100000Y-22350000D01*
X10425000Y8100000D02*
X10425000Y6500000D01*
X10425000Y8100000D02*
X9525000Y8100000D01*
X9525000Y6500000D02*
X10425000Y6500000D01*
X9525000Y6500000D02*
X9525000Y8100000D01*
X19100000Y-18850000D02*
X19100000Y-20450000D01*
X19100000Y-18850000D02*
X18200000Y-18850000D01*
X18200000Y-20450000D02*
X19100000Y-20450000D01*
X18200000Y-20450000D02*
X18200000Y-18850000D01*
X9372600Y-3550000D02*
X9372600Y-1950000D01*
X9372600Y-3550000D02*
X10272600Y-3550000D01*
X10272600Y-1950000D02*
X9372600Y-1950000D01*
X10272600Y-1950000D02*
X10272600Y-3550000D01*
X11527400Y-1950000D02*
X11527400Y-3550000D01*
X11527400Y-1950000D02*
X10627400Y-1950000D01*
X10627400Y-3550000D02*
X11527400Y-3550000D01*
X10627400Y-3550000D02*
X10627400Y-1950000D01*
X19325000Y-2475000D02*
X20925000Y-2475000D01*
X19325000Y-2475000D02*
X19325000Y-3375000D01*
X20925000Y-3375000D02*
X20925000Y-2475000D01*
X20925000Y-3375000D02*
X19325000Y-3375000D01*
X13000000Y-11750000D02*
X13000000Y-13350000D01*
X13000000Y-11750000D02*
X12100000Y-11750000D01*
X12100000Y-13350000D02*
X13000000Y-13350000D01*
X12100000Y-13350000D02*
X12100000Y-11750000D01*
X13400000Y-13350000D02*
X13400000Y-11750000D01*
X13400000Y-13350000D02*
X14300000Y-13350000D01*
X14300000Y-11750000D02*
X13400000Y-11750000D01*
X14300000Y-11750000D02*
X14300000Y-13350000D01*
X9500000Y-13350000D02*
X9500000Y-11750000D01*
X9500000Y-13350000D02*
X10400000Y-13350000D01*
X10400000Y-11750000D02*
X9500000Y-11750000D01*
X10400000Y-11750000D02*
X10400000Y-13350000D01*
X11700000Y-11750000D02*
X11700000Y-13350000D01*
X11700000Y-11750000D02*
X10800000Y-11750000D01*
X10800000Y-13350000D02*
X11700000Y-13350000D01*
X10800000Y-13350000D02*
X10800000Y-11750000D01*
X7800000Y-11750000D02*
X7800000Y-13350000D01*
X7800000Y-11750000D02*
X6900000Y-11750000D01*
X6900000Y-13350000D02*
X7800000Y-13350000D01*
X6900000Y-13350000D02*
X6900000Y-11750000D01*
X8200000Y-13350000D02*
X8200000Y-11750000D01*
X8200000Y-13350000D02*
X9100000Y-13350000D01*
X9100000Y-11750000D02*
X8200000Y-11750000D01*
X9100000Y-11750000D02*
X9100000Y-13350000D01*
X4300000Y-13350000D02*
X4300000Y-11750000D01*
X4300000Y-13350000D02*
X5200000Y-13350000D01*
X5200000Y-11750000D02*
X4300000Y-11750000D01*
X5200000Y-11750000D02*
X5200000Y-13350000D01*
X6500000Y-11750000D02*
X6500000Y-13350000D01*
X6500000Y-11750000D02*
X5600000Y-11750000D01*
X5600000Y-13350000D02*
X6500000Y-13350000D01*
X5600000Y-13350000D02*
X5600000Y-11750000D01*
X2600000Y-11750000D02*
X2600000Y-13350000D01*
X2600000Y-11750000D02*
X1700000Y-11750000D01*
X1700000Y-13350000D02*
X2600000Y-13350000D01*
X1700000Y-13350000D02*
X1700000Y-11750000D01*
X3000000Y-13350000D02*
X3000000Y-11750000D01*
X3000000Y-13350000D02*
X3900000Y-13350000D01*
X3900000Y-11750000D02*
X3000000Y-11750000D01*
X3900000Y-11750000D02*
X3900000Y-13350000D01*
X6900000Y-27600000D02*
X6900000Y-29200000D01*
X6900000Y-27600000D02*
X6000000Y-27600000D01*
X6000000Y-29200000D02*
X6900000Y-29200000D01*
X6000000Y-29200000D02*
X6000000Y-27600000D01*
X17350000Y5950000D02*
X17350000Y7550000D01*
X17350000Y5950000D02*
X18250000Y5950000D01*
X18250000Y7550000D02*
X17350000Y7550000D01*
X18250000Y7550000D02*
X18250000Y5950000D01*
X16150000Y5950000D02*
X16150000Y7550000D01*
X16150000Y5950000D02*
X17050000Y5950000D01*
X17050000Y7550000D02*
X16150000Y7550000D01*
X17050000Y7550000D02*
X17050000Y5950000D01*
X13650000Y7550000D02*
X13650000Y5950000D01*
X13650000Y7550000D02*
X12750000Y7550000D01*
X12750000Y5950000D02*
X13650000Y5950000D01*
X12750000Y5950000D02*
X12750000Y7550000D01*
X12450000Y7550000D02*
X12450000Y5950000D01*
X12450000Y7550000D02*
X11550000Y7550000D01*
X11550000Y5950000D02*
X12450000Y5950000D01*
X11550000Y5950000D02*
X11550000Y7550000D01*
X4700000Y-29200000D02*
X4700000Y-27600000D01*
X4700000Y-29200000D02*
X5600000Y-29200000D01*
X5600000Y-27600000D02*
X4700000Y-27600000D01*
X5600000Y-27600000D02*
X5600000Y-29200000D01*
X18850000Y3900000D02*
X20450000Y3900000D01*
X18850000Y3900000D02*
X18850000Y3000000D01*
X20450000Y3000000D02*
X20450000Y3900000D01*
X20450000Y3000000D02*
X18850000Y3000000D01*
X47450000Y-11250000D02*
X47450000Y-9650000D01*
X47450000Y-11250000D02*
X48350000Y-11250000D01*
X48350000Y-9650000D02*
X47450000Y-9650000D01*
X48350000Y-9650000D02*
X48350000Y-11250000D01*
X47550000Y-26500000D02*
X47550000Y-24900000D01*
X47550000Y-26500000D02*
X48450000Y-26500000D01*
X48450000Y-24900000D02*
X47550000Y-24900000D01*
X48450000Y-24900000D02*
X48450000Y-26500000D01*
X47050000Y-24900000D02*
X47050000Y-26500000D01*
X47050000Y-24900000D02*
X46150000Y-24900000D01*
X46150000Y-26500000D02*
X47050000Y-26500000D01*
X46150000Y-26500000D02*
X46150000Y-24900000D01*
X49972600Y-21000000D02*
X49972600Y-22600000D01*
X49972600Y-21000000D02*
X49072600Y-21000000D01*
X49072600Y-22600000D02*
X49972600Y-22600000D01*
X49072600Y-22600000D02*
X49072600Y-21000000D01*
X50327400Y-22600000D02*
X50327400Y-21000000D01*
X50327400Y-22600000D02*
X51227400Y-22600000D01*
X51227400Y-21000000D02*
X50327400Y-21000000D01*
X51227400Y-21000000D02*
X51227400Y-22600000D01*
X51550000Y-10100000D02*
X51550000Y-11700000D01*
X51550000Y-10100000D02*
X50650000Y-10100000D01*
X50650000Y-11700000D02*
X51550000Y-11700000D01*
X50650000Y-11700000D02*
X50650000Y-10100000D01*
X44725000Y-22275000D02*
X44725000Y-20675000D01*
X44725000Y-22275000D02*
X45625000Y-22275000D01*
X45625000Y-20675000D02*
X44725000Y-20675000D01*
X45625000Y-20675000D02*
X45625000Y-22275000D01*
X44050000Y-14975000D02*
X44050000Y-13375000D01*
X44050000Y-14975000D02*
X44950000Y-14975000D01*
X44950000Y-13375000D02*
X44050000Y-13375000D01*
X44950000Y-13375000D02*
X44950000Y-14975000D01*
X43750000Y-13375000D02*
X43750000Y-14975000D01*
X43750000Y-13375000D02*
X42850000Y-13375000D01*
X42850000Y-14975000D02*
X43750000Y-14975000D01*
X42850000Y-14975000D02*
X42850000Y-13375000D01*
X43650000Y-18700000D02*
X42050000Y-18700000D01*
X43650000Y-18700000D02*
X43650000Y-17800000D01*
X42050000Y-17800000D02*
X42050000Y-18700000D01*
X42050000Y-17800000D02*
X43650000Y-17800000D01*
X42050000Y-19000000D02*
X43650000Y-19000000D01*
X42050000Y-19000000D02*
X42050000Y-19900000D01*
X43650000Y-19900000D02*
X43650000Y-19000000D01*
X43650000Y-19900000D02*
X42050000Y-19900000D01*
X54650000Y-17800000D02*
X56250000Y-17800000D01*
X54650000Y-17800000D02*
X54650000Y-18700000D01*
X56250000Y-18700000D02*
X56250000Y-17800000D01*
X56250000Y-18700000D02*
X54650000Y-18700000D01*
X56250000Y-19900000D02*
X54650000Y-19900000D01*
X56250000Y-19900000D02*
X56250000Y-19000000D01*
X54650000Y-19000000D02*
X54650000Y-19900000D01*
X54650000Y-19000000D02*
X56250000Y-19000000D01*
X54016117Y-14597487D02*
X55147487Y-13466117D01*
X54016117Y-14597487D02*
X54652513Y-15233883D01*
X55783883Y-14102513D02*
X55147487Y-13466117D01*
X55783883Y-14102513D02*
X54652513Y-15233883D01*
X56633883Y-14952513D02*
X55502513Y-16083883D01*
X56633883Y-14952513D02*
X55997487Y-14316117D01*
X54866117Y-15447487D02*
X55502513Y-16083883D01*
X54866117Y-15447487D02*
X55997487Y-14316117D01*
X64750000Y-38800000D02*
X64750000Y-37200000D01*
X64750000Y-38800000D02*
X65650000Y-38800000D01*
X65650000Y-37200000D02*
X64750000Y-37200000D01*
X65650000Y-37200000D02*
X65650000Y-38800000D01*
X35150000Y-39400000D02*
X35150000Y-41000000D01*
X35150000Y-39400000D02*
X34250000Y-39400000D01*
X34250000Y-41000000D02*
X35150000Y-41000000D01*
X34250000Y-41000000D02*
X34250000Y-39400000D01*
X66000000Y-38800000D02*
X66000000Y-37200000D01*
X66000000Y-38800000D02*
X66900000Y-38800000D01*
X66900000Y-37200000D02*
X66000000Y-37200000D01*
X66900000Y-37200000D02*
X66900000Y-38800000D01*
X99900000Y-37200000D02*
X99900000Y-38800000D01*
X99900000Y-37200000D02*
X99000000Y-37200000D01*
X99000000Y-38800000D02*
X99900000Y-38800000D01*
X99000000Y-38800000D02*
X99000000Y-37200000D01*
X23450000Y7950000D02*
X21850000Y7950000D01*
X23450000Y7950000D02*
X23450000Y8850000D01*
X21850000Y8850000D02*
X21850000Y7950000D01*
X21850000Y8850000D02*
X23450000Y8850000D01*
X59150000Y8850000D02*
X60750000Y8850000D01*
X59150000Y8850000D02*
X59150000Y7950000D01*
X60750000Y7950000D02*
X60750000Y8850000D01*
X60750000Y7950000D02*
X59150000Y7950000D01*
X95150000Y8825000D02*
X96750000Y8825000D01*
X95150000Y8825000D02*
X95150000Y7925000D01*
X96750000Y7925000D02*
X96750000Y8825000D01*
X96750000Y7925000D02*
X95150000Y7925000D01*
X114750000Y7950000D02*
X113150000Y7950000D01*
X114750000Y7950000D02*
X114750000Y8850000D01*
X113150000Y8850000D02*
X113150000Y7950000D01*
X113150000Y8850000D02*
X114750000Y8850000D01*
X42750000Y7950000D02*
X41150000Y7950000D01*
X42750000Y7950000D02*
X42750000Y8850000D01*
X41150000Y8850000D02*
X41150000Y7950000D01*
X41150000Y8850000D02*
X42750000Y8850000D01*
X77150000Y8850000D02*
X78750000Y8850000D01*
X77150000Y8850000D02*
X77150000Y7950000D01*
X78750000Y7950000D02*
X78750000Y8850000D01*
X78750000Y7950000D02*
X77150000Y7950000D01*
X37600000Y14050000D02*
X37600000Y12450000D01*
X37600000Y14050000D02*
X36700000Y14050000D01*
X36700000Y12450000D02*
X37600000Y12450000D01*
X36700000Y12450000D02*
X36700000Y14050000D01*
X70500000Y15000000D02*
X70500000Y16600000D01*
X70500000Y15000000D02*
X71400000Y15000000D01*
X71400000Y16600000D02*
X70500000Y16600000D01*
X71400000Y16600000D02*
X71400000Y15000000D01*
X107400000Y16600000D02*
X107400000Y15000000D01*
X107400000Y16600000D02*
X106500000Y16600000D01*
X106500000Y15000000D02*
X107400000Y15000000D01*
X106500000Y15000000D02*
X106500000Y16600000D01*
X124500000Y15000000D02*
X124500000Y16600000D01*
X124500000Y15000000D02*
X125400000Y15000000D01*
X125400000Y16600000D02*
X124500000Y16600000D01*
X125400000Y16600000D02*
X125400000Y15000000D01*
X53400000Y16600000D02*
X53400000Y15000000D01*
X53400000Y16600000D02*
X52500000Y16600000D01*
X52500000Y15000000D02*
X53400000Y15000000D01*
X52500000Y15000000D02*
X52500000Y16600000D01*
X89400000Y16600000D02*
X89400000Y15000000D01*
X89400000Y16600000D02*
X88500000Y16600000D01*
X88500000Y15000000D02*
X89400000Y15000000D01*
X88500000Y15000000D02*
X88500000Y16600000D01*
X55775000Y20475000D02*
X55775000Y18875000D01*
X55775000Y20475000D02*
X54875000Y20475000D01*
X54875000Y18875000D02*
X55775000Y18875000D01*
X54875000Y18875000D02*
X54875000Y20475000D01*
X127250000Y18875000D02*
X127250000Y20475000D01*
X127250000Y18875000D02*
X128150000Y18875000D01*
X128150000Y20475000D02*
X127250000Y20475000D01*
X128150000Y20475000D02*
X128150000Y18875000D01*
X98650000Y-37200000D02*
X98650000Y-38800000D01*
X98650000Y-37200000D02*
X97750000Y-37200000D01*
X97750000Y-38800000D02*
X98650000Y-38800000D01*
X97750000Y-38800000D02*
X97750000Y-37200000D01*
X18200000Y3150000D02*
X18200000Y-2750000D01*
X18200000Y-2750000D02*
X12300000Y-2750000D01*
X12300000Y-2750000D02*
X12300000Y3150000D01*
X12300000Y3150000D02*
X18200000Y3150000D01*
X46200000Y-20050000D02*
X46200000Y-14150000D01*
X52100000Y-20050000D02*
X46200000Y-20050000D01*
X52100000Y-14150000D02*
X52100000Y-20050000D01*
X46200000Y-14150000D02*
X52100000Y-14150000D01*
D11*
X-1700000Y26250000D02*
X3800000Y26250000D01*
X3800000Y26250000D02*
X3800000Y24950000D01*
X3800000Y24950000D02*
X3800000Y20750000D01*
X3800000Y20750000D02*
X-1700000Y20750000D01*
X-1700000Y20750000D02*
X-1700000Y26250000D01*
X3850000Y18450000D02*
X3850000Y12950000D01*
X-1650000Y18450000D02*
X3850000Y18450000D01*
X-1650000Y14250000D02*
X-1650000Y18450000D01*
X-1650000Y12950000D02*
X-1650000Y14250000D01*
X3850000Y12950000D02*
X-1650000Y12950000D01*
D10*
X1550000Y-15200000D02*
X1550000Y-27100000D01*
X17650000Y-15200000D02*
X17650000Y-27100000D01*
X17650000Y-27100000D02*
X1550000Y-27100000D01*
X17650000Y-15200000D02*
X1550000Y-15200000D01*
D11*
X95650000Y15250000D02*
X95650000Y2250000D01*
X105550000Y15250000D02*
X95650000Y15250000D01*
X105550000Y150000D02*
X105550000Y15250000D01*
X95650000Y150000D02*
X105550000Y150000D01*
X95650000Y2250000D02*
X95650000Y150000D01*
X59650000Y2250000D02*
X59650000Y150000D01*
X59650000Y150000D02*
X69550000Y150000D01*
X69550000Y150000D02*
X69550000Y15250000D01*
X69550000Y15250000D02*
X59650000Y15250000D01*
X59650000Y15250000D02*
X59650000Y2250000D01*
X77650000Y15250000D02*
X77650000Y2250000D01*
X87550000Y15250000D02*
X77650000Y15250000D01*
X87550000Y150000D02*
X87550000Y15250000D01*
X77650000Y150000D02*
X87550000Y150000D01*
X77650000Y2250000D02*
X77650000Y150000D01*
X23650000Y2250000D02*
X23650000Y150000D01*
X23650000Y150000D02*
X33550000Y150000D01*
X33550000Y150000D02*
X33550000Y15250000D01*
X33550000Y15250000D02*
X23650000Y15250000D01*
X23650000Y15250000D02*
X23650000Y2250000D01*
X41650000Y15250000D02*
X41650000Y2250000D01*
X51550000Y15250000D02*
X41650000Y15250000D01*
X51550000Y150000D02*
X51550000Y15250000D01*
X41650000Y150000D02*
X51550000Y150000D01*
X41650000Y2250000D02*
X41650000Y150000D01*
D12*
X21075000Y-4900000D02*
G75*
G03X21075000Y-4900000I-500000J0D01*
G01*
X51600000Y-9175000D02*
G75*
G03X51600000Y-9175000I-500000J0D01*
G01*
X30200000Y-40450000D02*
G75*
G03X30200000Y-40450000I-500000J0D01*
G01*
X134200000Y-25750000D02*
G75*
G03X134200000Y-25750000I-500000J0D01*
G01*
X22750000Y6500000D02*
G75*
G03X22750000Y6500000I-500000J0D01*
G01*
X34950000Y6900000D02*
G75*
G03X34950000Y6900000I-500000J0D01*
G01*
X70950000Y6900000D02*
G75*
G03X70950000Y6900000I-500000J0D01*
G01*
X106950000Y6900000D02*
G75*
G03X106950000Y6900000I-500000J0D01*
G01*
X124950000Y6900000D02*
G75*
G03X124950000Y6900000I-500000J0D01*
G01*
X52950000Y6900000D02*
G75*
G03X52950000Y6900000I-500000J0D01*
G01*
X88950000Y6900000D02*
G75*
G03X88950000Y6900000I-500000J0D01*
G01*
D10*
X45600000Y-12050000D02*
X44000000Y-12050000D01*
X45600000Y-12050000D02*
X45600000Y-11150000D01*
X44000000Y-11150000D02*
X44000000Y-12050000D01*
X44000000Y-11150000D02*
X45600000Y-11150000D01*
X58625000Y-17150000D02*
X58625000Y-18750000D01*
X58625000Y-17150000D02*
X57725000Y-17150000D01*
X57725000Y-18750000D02*
X58625000Y-18750000D01*
X57725000Y-18750000D02*
X57725000Y-17150000D01*
X43800000Y-12050000D02*
X42200000Y-12050000D01*
X43800000Y-12050000D02*
X43800000Y-11150000D01*
X42200000Y-11150000D02*
X42200000Y-12050000D01*
X42200000Y-11150000D02*
X43800000Y-11150000D01*
X58625000Y-18950000D02*
X58625000Y-20550000D01*
X58625000Y-18950000D02*
X57725000Y-18950000D01*
X57725000Y-20550000D02*
X58625000Y-20550000D01*
X57725000Y-20550000D02*
X57725000Y-18950000D01*
X41500000Y-17650000D02*
X39900000Y-17650000D01*
X41500000Y-17650000D02*
X41500000Y-16750000D01*
X39900000Y-16750000D02*
X39900000Y-17650000D01*
X39900000Y-16750000D02*
X41500000Y-16750000D01*
X57725000Y-13450000D02*
X57725000Y-11850000D01*
X57725000Y-13450000D02*
X58625000Y-13450000D01*
X58625000Y-11850000D02*
X57725000Y-11850000D01*
X58625000Y-11850000D02*
X58625000Y-13450000D01*
X39700000Y-17650000D02*
X38100000Y-17650000D01*
X39700000Y-17650000D02*
X39700000Y-16750000D01*
X38100000Y-16750000D02*
X38100000Y-17650000D01*
X38100000Y-16750000D02*
X39700000Y-16750000D01*
X57725000Y-15250000D02*
X57725000Y-13650000D01*
X57725000Y-15250000D02*
X58625000Y-15250000D01*
X58625000Y-13650000D02*
X57725000Y-13650000D01*
X58625000Y-13650000D02*
X58625000Y-15250000D01*
X18950000Y8550000D02*
X17350000Y8550000D01*
X18950000Y8550000D02*
X18950000Y9450000D01*
X17350000Y9450000D02*
X17350000Y8550000D01*
X17350000Y9450000D02*
X18950000Y9450000D01*
X17050000Y8550000D02*
X15450000Y8550000D01*
X17050000Y8550000D02*
X17050000Y9450000D01*
X15450000Y9450000D02*
X15450000Y8550000D01*
X15450000Y9450000D02*
X17050000Y9450000D01*
X12750000Y9450000D02*
X14350000Y9450000D01*
X12750000Y9450000D02*
X12750000Y8550000D01*
X14350000Y8550000D02*
X14350000Y9450000D01*
X14350000Y8550000D02*
X12750000Y8550000D01*
X10850000Y9450000D02*
X12450000Y9450000D01*
X10850000Y9450000D02*
X10850000Y8550000D01*
X12450000Y8550000D02*
X12450000Y9450000D01*
X12450000Y8550000D02*
X10850000Y8550000D01*
D11*
X113650000Y15250000D02*
X113650000Y2250000D01*
X123550000Y15250000D02*
X113650000Y15250000D01*
X123550000Y150000D02*
X123550000Y15250000D01*
X113650000Y150000D02*
X123550000Y150000D01*
X113650000Y2250000D02*
X113650000Y150000D01*
D10*
X122750000Y17625000D02*
G75*
G03X122750000Y17625000I-1000000J0D01*
G01*
M02*
