G04 #@! TF.GenerationSoftware,KiCad,Pcbnew,(5.1.5)-3*
G04 #@! TF.CreationDate,2021-10-23T00:21:41+02:00*
G04 #@! TF.ProjectId,riser leopard 2OU Oculink,72697365-7220-46c6-956f-706172642032,rev?*
G04 #@! TF.SameCoordinates,PX4d4b990PY36d6160*
G04 #@! TF.FileFunction,Copper,L4,Inr*
G04 #@! TF.FilePolarity,Positive*
%FSLAX46Y46*%
G04 Gerber Fmt 4.6, Leading zero omitted, Abs format (unit mm)*
G04 Created by KiCad (PCBNEW (5.1.5)-3) date 2021-10-23 00:21:41*
%MOMM*%
%LPD*%
G04 APERTURE LIST*
%ADD10C,0.800000*%
%ADD11C,6.400000*%
%ADD12C,1.500000*%
%ADD13C,1.150000*%
%ADD14C,1.250000*%
%ADD15C,0.500000*%
%ADD16C,0.600000*%
%ADD17C,0.400000*%
%ADD18C,0.350000*%
%ADD19C,0.250000*%
%ADD20C,0.200000*%
%ADD21C,0.254000*%
G04 APERTURE END LIST*
D10*
X1697056Y1697056D03*
X0Y2400000D03*
X-1697056Y1697056D03*
X-2400000Y0D03*
X-1697056Y-1697056D03*
X0Y-2400000D03*
X1697056Y-1697056D03*
X2400000Y0D03*
D11*
X0Y0D03*
X133900000Y-10000D03*
D10*
X136300000Y-10000D03*
X135597056Y-1707056D03*
X133900000Y-2410000D03*
X132202944Y-1707056D03*
X131500000Y-10000D03*
X132202944Y1687056D03*
X133900000Y2390000D03*
X135597056Y1687056D03*
D12*
X100280000Y1070000D03*
X100280000Y14230000D03*
D13*
X101540000Y2030000D03*
D14*
X101900000Y13930000D03*
X65900000Y13930000D03*
D13*
X65540000Y2030000D03*
D12*
X64280000Y14230000D03*
X64280000Y1070000D03*
X82280000Y1070000D03*
X82280000Y14230000D03*
D13*
X83540000Y2030000D03*
D14*
X83900000Y13930000D03*
X29900000Y13930000D03*
D13*
X29540000Y2030000D03*
D12*
X28280000Y14230000D03*
X28280000Y1070000D03*
X46280000Y1070000D03*
X46280000Y14230000D03*
D13*
X47540000Y2030000D03*
D14*
X47900000Y13930000D03*
D12*
X118280000Y1070000D03*
X118280000Y14230000D03*
D13*
X119540000Y2030000D03*
X119900000Y13930000D03*
D15*
X14275000Y1250000D03*
D16*
X19600000Y-43306600D03*
D15*
X36200000Y-42872200D03*
X33200000Y-42872200D03*
X30325000Y-42872200D03*
X46200000Y-42872200D03*
X49200000Y-42872200D03*
X66700000Y-42872200D03*
X64200000Y-42872200D03*
X99700000Y-42872200D03*
X130200000Y-42872200D03*
X128200000Y-42872200D03*
X126200000Y-42872200D03*
X124200000Y-42872200D03*
X122200000Y-42872200D03*
X120200000Y-42872200D03*
X118200000Y-42872200D03*
X116200000Y-42872200D03*
X114200000Y-42872200D03*
X112200000Y-42872200D03*
X110200000Y-42872200D03*
X108200000Y-42872200D03*
X106200000Y-42872200D03*
X104200000Y-42872200D03*
X102200000Y-42872200D03*
X97200000Y-42872200D03*
X95200000Y-42872200D03*
X93200000Y-42872200D03*
X91200000Y-42872200D03*
X89200000Y-42872200D03*
X87200000Y-42872200D03*
X85200000Y-42872200D03*
X83200000Y-42872200D03*
X81200000Y-42872200D03*
X79200000Y-42872200D03*
X77200000Y-42872200D03*
X75200000Y-42872200D03*
X73200000Y-42872200D03*
X71200000Y-42872200D03*
X69200000Y-42872200D03*
X62200000Y-42872200D03*
X60200000Y-42872200D03*
X58200000Y-42872200D03*
X56200000Y-42872200D03*
X54200000Y-42872200D03*
X52200000Y-42872200D03*
X44200000Y-42872200D03*
X42200000Y-42872200D03*
X40200000Y-42872200D03*
X38200000Y-42872200D03*
X17550000Y-16450000D03*
X15350000Y-14650000D03*
D17*
X121050000Y4900000D03*
X116100000Y4400000D03*
X121100000Y10900000D03*
X116100000Y10400000D03*
X121100000Y9400000D03*
X116100000Y7400000D03*
X116100000Y5900000D03*
X121050000Y6400000D03*
X121100000Y7900000D03*
X116100000Y8900000D03*
D16*
X114600000Y13350000D03*
D15*
X122850000Y13900000D03*
X114200000Y1350000D03*
D16*
X132700000Y-41000000D03*
D17*
X98100000Y4400000D03*
X98100000Y10400000D03*
X103100000Y9400000D03*
X103050000Y6400000D03*
X98100000Y7400000D03*
X103100000Y7900000D03*
X98100000Y5900000D03*
X103100000Y10900000D03*
X103050000Y4900000D03*
D15*
X96600000Y13350000D03*
X104850000Y13900000D03*
D17*
X98100000Y8900000D03*
D15*
X96200000Y1350000D03*
X105150000Y1500000D03*
D17*
X80100000Y8900000D03*
X62100000Y8900000D03*
X44100000Y8900000D03*
D15*
X87150000Y1500000D03*
X51150000Y1500000D03*
D17*
X80100000Y5900000D03*
X62100000Y5900000D03*
X44100000Y5900000D03*
X80100000Y10400000D03*
X62100000Y10400000D03*
X44100000Y10400000D03*
X85100000Y9400000D03*
X67100000Y9400000D03*
X49100000Y9400000D03*
X80100000Y4400000D03*
X62100000Y4400000D03*
X44100000Y4400000D03*
X85050000Y6400000D03*
X67050000Y6400000D03*
X49050000Y6400000D03*
X80100000Y7400000D03*
X62100000Y7400000D03*
X44100000Y7400000D03*
X85100000Y7900000D03*
X67100000Y7900000D03*
X49100000Y7900000D03*
X85100000Y10900000D03*
X67100000Y10900000D03*
X49100000Y10900000D03*
D15*
X78600000Y13350000D03*
X60600000Y13350000D03*
X42600000Y13350000D03*
D17*
X85050000Y4900000D03*
X67050000Y4900000D03*
X49050000Y4900000D03*
D15*
X86850000Y13900000D03*
X68850000Y13900000D03*
X50850000Y13900000D03*
X15000000Y6325000D03*
X45600000Y-19375000D03*
X41900000Y-17200000D03*
X46750000Y-14750000D03*
X51550000Y-14700000D03*
X66450000Y-36750000D03*
X99450000Y-36850000D03*
X35550000Y-38550000D03*
X68150000Y1150000D03*
D17*
X26100000Y8900000D03*
D15*
X24600000Y13350000D03*
D17*
X31100000Y7900000D03*
X26100000Y4400000D03*
X31100000Y9400000D03*
X31050000Y4900000D03*
X31050000Y6400000D03*
X26100000Y7400000D03*
X26100000Y5900000D03*
X26100000Y10400000D03*
D15*
X32850000Y13900000D03*
X33150000Y1500000D03*
X46600000Y-26875000D03*
X48000000Y-26875000D03*
X52250000Y-26875000D03*
X55200000Y-23725000D03*
X54000000Y-23725000D03*
X47500000Y-22650000D03*
X41225000Y-22575000D03*
X41250000Y-21375000D03*
X41750000Y-11600000D03*
X22600000Y-43325000D03*
X21175000Y-1500000D03*
X18925000Y-2150000D03*
X17650000Y2600000D03*
X13175000Y3400000D03*
X8450000Y-875000D03*
X13500000Y-3000000D03*
X17650000Y-2200000D03*
D18*
X22650000Y11700000D03*
X22650000Y9925000D03*
X22950000Y4950000D03*
X22950000Y3175000D03*
X40650000Y11700000D03*
X58650000Y11700000D03*
X76650000Y11700000D03*
X94650000Y11700000D03*
X112650000Y11700000D03*
X40950000Y3175000D03*
X58950000Y3175000D03*
X76950000Y3175000D03*
X94950000Y3175000D03*
X112950000Y3175000D03*
X40650000Y9925000D03*
X58650000Y9925000D03*
X76650000Y9925000D03*
X94650000Y9925000D03*
X112650000Y9925000D03*
X40950000Y4950000D03*
X58950000Y4950000D03*
X76950000Y4950000D03*
X94950000Y4950000D03*
X112950000Y4950000D03*
X46725000Y-3750000D03*
X46725000Y-1975000D03*
X48375000Y-8100000D03*
X48375000Y-6325000D03*
X14700000Y11400000D03*
X13400000Y12625000D03*
X17050000Y11425000D03*
X18350000Y10200000D03*
D15*
X19375000Y9000000D03*
X14950000Y9000000D03*
X10400000Y9000000D03*
X9050000Y7750000D03*
X46725000Y-37500000D03*
X24575000Y-32350000D03*
X23425000Y-32375000D03*
X20100000Y4625000D03*
X20625000Y2275000D03*
X9000000Y4375000D03*
X10000000Y4375000D03*
X10975000Y3875000D03*
X13750000Y-6050000D03*
X14900000Y-6075000D03*
X12300000Y-7050000D03*
X13550000Y-7050000D03*
X14800000Y-7050000D03*
X16050000Y-7050000D03*
X17300000Y-7050000D03*
X15275000Y1250000D03*
X16275000Y1250000D03*
X14275000Y250000D03*
X15275000Y250000D03*
X16275000Y250000D03*
X14275000Y-750000D03*
X15275000Y-750000D03*
X16275000Y-750000D03*
X3375000Y20775000D03*
X4625000Y20775000D03*
X5875000Y20775000D03*
X7125000Y20775000D03*
X8375000Y20775000D03*
X3375000Y19525000D03*
X4625000Y19525000D03*
X5875000Y19525000D03*
X7125000Y19525000D03*
X8375000Y19525000D03*
X3375000Y18275000D03*
X4625000Y18275000D03*
X5875000Y18275000D03*
X7125000Y18275000D03*
X50150000Y-16075000D03*
X50150000Y-17075000D03*
X50150000Y-18075000D03*
X48150000Y-18075000D03*
X49150000Y-18075000D03*
X49150000Y-16075000D03*
X48150000Y-17075000D03*
X48150000Y-16075000D03*
X49150000Y-17075000D03*
X24575000Y1275000D03*
D17*
X31000000Y10900000D03*
D15*
X52425000Y-18850000D03*
X49900000Y-11175000D03*
X46875000Y-11150000D03*
X45400000Y-10075000D03*
X45975000Y-11600000D03*
X123400000Y1400000D03*
X52475000Y-11600000D03*
X18650000Y-22800000D03*
X12800000Y-22650000D03*
X42550000Y1300000D03*
X2625000Y-17975000D03*
X60900000Y1450000D03*
X58900000Y-20200000D03*
D18*
X59900000Y-17975000D03*
X59900000Y-19750000D03*
D15*
X58875000Y-17500000D03*
X46400000Y-10075000D03*
X78600000Y1275000D03*
X57275000Y-12200000D03*
X56475000Y-17375000D03*
X57350000Y-14900000D03*
D18*
X60050000Y-12650000D03*
X60050000Y-14425000D03*
D15*
X37900000Y-17200000D03*
D18*
X63550000Y-21400000D03*
X61850000Y-21400000D03*
X67050000Y-21400000D03*
X70550000Y-21400000D03*
X74050000Y-21400000D03*
X77300000Y-21400000D03*
X80800000Y-21400000D03*
X84300000Y-21400000D03*
X87800000Y-21400000D03*
X91300000Y-21400000D03*
X94800000Y-21400000D03*
X98300000Y-21400000D03*
X102050000Y-21400000D03*
X105550000Y-21400000D03*
X109050000Y-21400000D03*
X112550000Y-21400000D03*
X116050000Y-21400000D03*
X119550000Y-21400000D03*
X123050000Y-21400000D03*
X126550000Y-21400000D03*
X130300000Y-21400000D03*
X65350000Y-21400000D03*
X68850000Y-21400000D03*
X72350000Y-21400000D03*
X75600000Y-21400000D03*
X79100000Y-21400000D03*
X82600000Y-21400000D03*
X86100000Y-21400000D03*
X89600000Y-21400000D03*
X93100000Y-21400000D03*
X96600000Y-21400000D03*
X100350000Y-21400000D03*
X103850000Y-21400000D03*
X107350000Y-21400000D03*
X110850000Y-21400000D03*
X114350000Y-21400000D03*
X117850000Y-21400000D03*
X121350000Y-21400000D03*
X124850000Y-21400000D03*
X128600000Y-21400000D03*
X65300000Y-22350000D03*
X63600000Y-22350000D03*
X103800000Y-22350000D03*
X93050000Y-22350000D03*
X68800000Y-22350000D03*
X72300000Y-22350000D03*
X86050000Y-22350000D03*
X96550000Y-22350000D03*
X107300000Y-22350000D03*
X79050000Y-22350000D03*
X117800000Y-22350000D03*
X75800000Y-22350000D03*
X116100000Y-22350000D03*
X119600000Y-22350000D03*
X123100000Y-22350000D03*
X112600000Y-22350000D03*
X82550000Y-22350000D03*
X94850000Y-22350000D03*
X132050000Y-22350000D03*
X77350000Y-22350000D03*
X91350000Y-22350000D03*
X84350000Y-22350000D03*
X87850000Y-22350000D03*
X126850000Y-22350000D03*
X121300000Y-22350000D03*
X124800000Y-22350000D03*
X128550000Y-22350000D03*
X110800000Y-22350000D03*
X98600000Y-22350000D03*
X102100000Y-22350000D03*
X80850000Y-22350000D03*
X89550000Y-22350000D03*
X74100000Y-22350000D03*
X130350000Y-22350000D03*
X114300000Y-22350000D03*
X67100000Y-22350000D03*
X70600000Y-22350000D03*
X100300000Y-22350000D03*
X109100000Y-22350000D03*
X105600000Y-22350000D03*
X23550000Y-18900000D03*
X21850000Y-18900000D03*
X27050000Y-18900000D03*
X30550000Y-18900000D03*
X34050000Y-18900000D03*
X32350000Y-18900000D03*
X25350000Y-18900000D03*
X28850000Y-18900000D03*
X25300000Y-19850000D03*
X34100000Y-19850000D03*
X35800000Y-19850000D03*
X23600000Y-19850000D03*
X32300000Y-19850000D03*
X28800000Y-19850000D03*
X30600000Y-19850000D03*
X27100000Y-19850000D03*
D15*
X103750000Y14725000D03*
X85750000Y14800000D03*
X67750000Y14775000D03*
X49750000Y14975000D03*
X31200000Y14675000D03*
X17600000Y-34550000D03*
X18600000Y-34550000D03*
X17600000Y-35550000D03*
X18600000Y-35550000D03*
X17600000Y-36550000D03*
X18600000Y-36550000D03*
X17600000Y-37550000D03*
X18600000Y-37550000D03*
X17600000Y-38550000D03*
X18600000Y-38550000D03*
X17600000Y-39550000D03*
X18600000Y-39550000D03*
X17600000Y-40550000D03*
X18600000Y-40550000D03*
X111700000Y15200000D03*
X93700000Y15200000D03*
X75700000Y15200000D03*
X57700000Y15200000D03*
X111700000Y1475000D03*
X93700000Y1475000D03*
X57700000Y1475000D03*
X40425000Y1500000D03*
X34025000Y15100000D03*
X39950000Y-23750000D03*
X18625000Y2200000D03*
X8900000Y1100000D03*
X9975000Y1100000D03*
X11125000Y1100000D03*
X18600000Y-275000D03*
X25650000Y14650000D03*
X43850000Y14550000D03*
X61850000Y14550000D03*
X79850000Y14550000D03*
X97850000Y14550000D03*
X115850000Y14550000D03*
X40950000Y-23750000D03*
X41950000Y-23750000D03*
X42950000Y-23750000D03*
X43950000Y-23750000D03*
X44950000Y-23750000D03*
X40400000Y-24750000D03*
X41400000Y-24750000D03*
X39400000Y-24750000D03*
X47500000Y-20450000D03*
X47050000Y-13475000D03*
X50025000Y-13725000D03*
X23875000Y-38850000D03*
X24875000Y-38850000D03*
X23875000Y-39850000D03*
X24875000Y-39850000D03*
X23875000Y-40850000D03*
X24875000Y-40850000D03*
X23875000Y-41850000D03*
X24875000Y-41850000D03*
X23875000Y-42850000D03*
X24875000Y-42850000D03*
X2625000Y14950000D03*
X3625000Y14950000D03*
X2625000Y13950000D03*
X3625000Y13950000D03*
X4625000Y13950000D03*
X5625000Y13950000D03*
X6625000Y13950000D03*
X3625000Y12950000D03*
X2625000Y12950000D03*
X40750000Y8400000D03*
X20850000Y14550000D03*
X58750000Y8400000D03*
X76750000Y8400000D03*
X94750000Y8400000D03*
X112750000Y8400000D03*
D18*
X20725000Y3425000D03*
D15*
X8700000Y-28550000D03*
X9950000Y-28550000D03*
X11200000Y-28550000D03*
X8700000Y-29800000D03*
X9950000Y-29800000D03*
X11200000Y-29800000D03*
X30825000Y2475000D03*
X24400000Y275000D03*
X48875000Y2300000D03*
X41500000Y6925000D03*
X66875000Y2425000D03*
X84850000Y2325000D03*
X77500000Y6925000D03*
X95500000Y7025000D03*
X102900000Y2450000D03*
X87050000Y9125000D03*
X87850000Y14700000D03*
X121025000Y2275000D03*
X116775000Y14975000D03*
X37200000Y14600000D03*
X18750000Y-15150000D03*
X17800000Y-21100000D03*
X17800000Y-20100000D03*
X23525000Y-35325000D03*
X24525000Y-35325000D03*
X23525000Y-36325000D03*
X24525000Y-36325000D03*
X5150000Y-29575000D03*
X6450000Y-29575000D03*
X11250000Y-11375000D03*
X9950000Y-11375000D03*
X8650000Y-11375000D03*
X7350000Y-11375000D03*
X6050000Y-11375000D03*
X4750000Y-11375000D03*
X3450000Y-11375000D03*
X2150000Y-11375000D03*
X13850000Y-11375000D03*
X12550000Y-11375000D03*
X17500000Y-25850000D03*
X18650000Y-26025000D03*
X55325000Y18350000D03*
X42300000Y15375000D03*
X18050000Y4400000D03*
X18400000Y3600000D03*
X17475000Y3600000D03*
X45175000Y-20325000D03*
X15000000Y4425000D03*
X15000000Y3725000D03*
X13800000Y-3900000D03*
X14975000Y-3925000D03*
X15650000Y-3250000D03*
X16900000Y-3250000D03*
X18150000Y-3250000D03*
X20250000Y800000D03*
X20250000Y50000D03*
X21100000Y-325000D03*
X49075000Y-10100000D03*
X48875000Y-11150000D03*
X48500000Y-13025000D03*
X52600000Y-14325000D03*
X52600000Y-15325000D03*
X52750000Y-17300000D03*
X53750000Y-17300000D03*
X53100000Y-20825000D03*
X54350000Y-20825000D03*
X55600000Y-20825000D03*
X56850000Y-20825000D03*
X56375000Y-21850000D03*
X57625000Y-21850000D03*
X44100000Y-17325000D03*
X45350000Y-17325000D03*
X45775000Y-15525000D03*
X45775000Y-14275000D03*
D18*
X22448800Y-18900000D03*
X22950000Y3798800D03*
X25954168Y-18900000D03*
X25450000Y4898800D03*
X29448800Y-18900000D03*
X25400000Y9398800D03*
X32948800Y-18900000D03*
X22650000Y10548800D03*
X22951200Y-18900000D03*
X22950000Y4301200D03*
X26456568Y-18900000D03*
X25450000Y5401200D03*
X29951200Y-18900000D03*
X25400000Y9901200D03*
X33451200Y-18900000D03*
X22650000Y11051200D03*
X76198800Y-21400000D03*
X58950000Y3798800D03*
X79698800Y-21400000D03*
X61450000Y4898800D03*
X83198800Y-21400000D03*
X61400000Y9398800D03*
X86698800Y-21400000D03*
X58650000Y10548800D03*
X76701200Y-21400000D03*
X58950000Y4301200D03*
X80201200Y-21400000D03*
X61450000Y5401200D03*
X83701200Y-21400000D03*
X61400000Y9901200D03*
X87201200Y-21400000D03*
X58650000Y11051200D03*
X104448800Y-21400000D03*
X94950000Y3798800D03*
X107948800Y-21400000D03*
X97450000Y4898800D03*
X111448800Y-21400000D03*
X97400000Y9398800D03*
X114948800Y-21400000D03*
X94650000Y10548800D03*
X104951200Y-21400000D03*
X94950000Y4301200D03*
X108451200Y-21400000D03*
X97450000Y5401200D03*
X111951200Y-21400000D03*
X97400000Y9901200D03*
X115451200Y-21400000D03*
X94650000Y11051200D03*
X118448800Y-21400000D03*
X112950000Y3798800D03*
X121948800Y-21400000D03*
X115450000Y4898800D03*
X125448800Y-21400000D03*
X115400000Y9398800D03*
X129198800Y-21400000D03*
X112650000Y10548800D03*
X40950000Y3798800D03*
X62448800Y-21400000D03*
X43450000Y4898800D03*
X65948800Y-21400000D03*
X43400000Y9398800D03*
X69448800Y-21400000D03*
X40650000Y10548800D03*
X72948800Y-21400000D03*
X118951200Y-21400000D03*
X112950000Y4301200D03*
X122451200Y-21400000D03*
X115450000Y5401200D03*
X125951200Y-21400000D03*
X115400000Y9901200D03*
X129701200Y-21400000D03*
X112650000Y11051200D03*
X40950000Y4301200D03*
X62951200Y-21400000D03*
X43450000Y5401200D03*
X66451200Y-21400000D03*
X43400000Y9901200D03*
X69951200Y-21400000D03*
X40650000Y11051200D03*
X73451200Y-21400000D03*
X76950000Y3798800D03*
X90198800Y-21400000D03*
X79450000Y4898800D03*
X93698800Y-21400000D03*
X79400000Y9398800D03*
X97198800Y-21400000D03*
X76650000Y10548800D03*
X100948800Y-21400000D03*
X76950000Y4301200D03*
X90701200Y-21400000D03*
X79450000Y5401200D03*
X94201200Y-21400000D03*
X79400000Y9901200D03*
X97701200Y-21400000D03*
X76650000Y11051200D03*
X101451200Y-21400000D03*
D15*
X34125000Y13900000D03*
X126425000Y20125000D03*
X56775000Y20125000D03*
X53950000Y20125000D03*
X18350000Y-11025000D03*
X39225000Y19000000D03*
X35500000Y13700000D03*
X123600000Y16250000D03*
X108225000Y16250000D03*
X105375000Y16250000D03*
X90225000Y16250000D03*
X87650000Y16250000D03*
X72225000Y16250000D03*
X69675000Y16250000D03*
X56525000Y16250000D03*
X51325000Y16250000D03*
X43850000Y16250000D03*
X29150000Y-1450000D03*
X135600000Y-8800000D03*
X127700000Y16000000D03*
D18*
X10198800Y-4600000D03*
X10701200Y-4600000D03*
D15*
X27650000Y-37900000D03*
X115100000Y7650000D03*
X97100000Y7650000D03*
X79100000Y7650000D03*
X61100000Y7650000D03*
X43100000Y7650000D03*
X25100000Y7650000D03*
D18*
X24198800Y-19850000D03*
X24701200Y-19850000D03*
X27698800Y-19850000D03*
X28201200Y-19850000D03*
X31198800Y-19850000D03*
X31701200Y-19850000D03*
X34698800Y-19850000D03*
X35201200Y-19850000D03*
X49898800Y-23800000D03*
X50401200Y-23800000D03*
X64198800Y-22350000D03*
X64701200Y-22350000D03*
X67698800Y-22350000D03*
X68201200Y-22350000D03*
X71198800Y-22350000D03*
X71701200Y-22350000D03*
X74698800Y-22350000D03*
X75201200Y-22350000D03*
D15*
X66450000Y-39700000D03*
D18*
X77948800Y-22350000D03*
X78451200Y-22350000D03*
X81448800Y-22350000D03*
X81951200Y-22350000D03*
X84948800Y-22350000D03*
X85451200Y-22350000D03*
X88448800Y-22350000D03*
X88951200Y-22350000D03*
X91948800Y-22350000D03*
X92451200Y-22350000D03*
X95448800Y-22350000D03*
X95951200Y-22350000D03*
X99198800Y-22350000D03*
X99701200Y-22350000D03*
X102698800Y-22350000D03*
X103201200Y-22350000D03*
D15*
X99450000Y-40000000D03*
D18*
X106198800Y-22350000D03*
X106701200Y-22350000D03*
X109698800Y-22350000D03*
X110201200Y-22350000D03*
X113198800Y-22350000D03*
X113701200Y-22350000D03*
X116698800Y-22350000D03*
X117201200Y-22350000D03*
X120198800Y-22350000D03*
X120701200Y-22350000D03*
X123698800Y-22350000D03*
X124201200Y-22350000D03*
X127448800Y-22350000D03*
X127951200Y-22350000D03*
X130948800Y-22350000D03*
X131451200Y-22350000D03*
D15*
X25200000Y6900000D03*
X4100000Y-10625000D03*
X24225000Y6400000D03*
X2800000Y-10625000D03*
D18*
X31650000Y8901200D03*
X17497374Y11002626D03*
X31650000Y8398800D03*
X17852626Y10647374D03*
D15*
X37150000Y12050000D03*
X34500000Y8225000D03*
X69300000Y8400000D03*
X70950000Y14375000D03*
D18*
X67650000Y8398800D03*
X46725000Y-3101200D03*
X67650000Y8901200D03*
X46725000Y-2598800D03*
D15*
X10600000Y-10375000D03*
X60925000Y6050000D03*
X60525000Y6900000D03*
X11900000Y-10375000D03*
X96775000Y6900000D03*
X6700000Y-10375000D03*
X96750000Y6000000D03*
X5400000Y-10375000D03*
D18*
X103650000Y8901200D03*
X60050000Y-13801200D03*
X103650000Y8398800D03*
X60050000Y-13298800D03*
D15*
X105950000Y7825000D03*
X106950000Y14425000D03*
X124000000Y7900000D03*
X124950000Y14325000D03*
D18*
X121650000Y8398800D03*
X59900000Y-18598800D03*
X121650000Y8901200D03*
X59900000Y-19101200D03*
D15*
X114750000Y6000000D03*
X7100000Y-24300000D03*
X114775000Y6900000D03*
X6400000Y-23500000D03*
X42775000Y6900000D03*
X16350000Y-11700000D03*
X42750000Y6000000D03*
X13200000Y-10375000D03*
D18*
X49650000Y8901200D03*
X13863660Y12193913D03*
X49650000Y8398800D03*
X14218912Y11838661D03*
D15*
X51300000Y8400000D03*
X52950000Y14325000D03*
X86800000Y7900000D03*
X88950000Y14300000D03*
D18*
X85650000Y8398800D03*
X48375000Y-7451200D03*
X85650000Y8901200D03*
X48375000Y-6948800D03*
D15*
X8000000Y-10375000D03*
X78875000Y6000000D03*
X9300000Y-10375000D03*
X78900000Y6900000D03*
D19*
X30825000Y2475000D02*
X30175000Y3125000D01*
X30175000Y3125000D02*
X28275000Y3125000D01*
X28275000Y3125000D02*
X25425000Y275000D01*
X25425000Y275000D02*
X24400000Y275000D01*
X48875000Y2300000D02*
X47500000Y3675000D01*
X47500000Y3675000D02*
X43800000Y3675000D01*
X43800000Y3675000D02*
X41500000Y5975000D01*
X41500000Y5975000D02*
X41500000Y6925000D01*
X66875000Y2425000D02*
X67228553Y2425000D01*
X67228553Y2425000D02*
X71600000Y2425000D01*
X71600000Y2425000D02*
X75200000Y6025000D01*
X75200000Y6025000D02*
X76600000Y6025000D01*
X76600000Y6025000D02*
X77500000Y6925000D01*
X102900000Y2450000D02*
X102050000Y3300000D01*
X102050000Y3300000D02*
X99850000Y3300000D01*
X99850000Y3300000D02*
X97000000Y450000D01*
X97000000Y450000D02*
X95825000Y450000D01*
X95825000Y450000D02*
X93700000Y2575000D01*
X93700000Y5225000D02*
X95500000Y7025000D01*
X93700000Y2575000D02*
X93700000Y5225000D01*
X85203553Y2325000D02*
X87825000Y4946447D01*
X84850000Y2325000D02*
X85203553Y2325000D01*
X87825000Y4946447D02*
X87825000Y8350000D01*
X87825000Y8350000D02*
X87050000Y9125000D01*
X121025000Y2275000D02*
X118625000Y4675000D01*
X118625000Y4675000D02*
X118625000Y11025000D01*
X118625000Y11025000D02*
X116775000Y12875000D01*
X116775000Y12875000D02*
X116775000Y14975000D01*
D20*
X43100000Y7650000D02*
X43350000Y7900000D01*
X43350000Y7900000D02*
X45850000Y7900000D01*
X45850000Y7900000D02*
X46600000Y7150000D01*
X61350000Y7900000D02*
X62800000Y7900000D01*
X61100000Y7650000D02*
X61350000Y7900000D01*
X62800000Y7900000D02*
X65050000Y10150000D01*
X65050000Y10150000D02*
X73800000Y10150000D01*
X76300000Y7650000D02*
X79100000Y7650000D01*
X73800000Y10150000D02*
X76300000Y7650000D01*
X93600000Y7650000D02*
X97100000Y7650000D01*
X79350000Y7900000D02*
X80600000Y7900000D01*
X79100000Y7650000D02*
X79350000Y7900000D01*
X80600000Y7900000D02*
X82850000Y10150000D01*
X82850000Y10150000D02*
X91100000Y10150000D01*
X91100000Y10150000D02*
X93600000Y7650000D01*
X111800000Y7650000D02*
X115100000Y7650000D01*
X97350000Y7900000D02*
X98700000Y7900000D01*
X97100000Y7650000D02*
X97350000Y7900000D01*
X98700000Y7900000D02*
X100950000Y10150000D01*
X109300000Y10150000D02*
X111800000Y7650000D01*
X100950000Y10150000D02*
X109300000Y10150000D01*
X27650000Y-34250000D02*
X27650000Y-37900000D01*
X19600000Y-26200000D02*
X27650000Y-34250000D01*
X23400000Y7650000D02*
X21900000Y6150000D01*
X19600000Y-12000000D02*
X19600000Y-26200000D01*
X25100000Y7650000D02*
X23400000Y7650000D01*
X21900000Y6150000D02*
X21900000Y-9700000D01*
X21900000Y-9700000D02*
X19600000Y-12000000D01*
X54800000Y7650000D02*
X54300000Y7150000D01*
X61100000Y7650000D02*
X54800000Y7650000D01*
X46600000Y7150000D02*
X54300000Y7150000D01*
X25350000Y7900000D02*
X25100000Y7650000D01*
X43100000Y7650000D02*
X39175000Y7650000D01*
X39175000Y7650000D02*
X38650000Y7125000D01*
X27750000Y7900000D02*
X25350000Y7900000D01*
X38650000Y7125000D02*
X28500000Y7150000D01*
X28500000Y7150000D02*
X27750000Y7900000D01*
D21*
G36*
X52953059Y-12182665D02*
G01*
X58383655Y-17613261D01*
X58390368Y-17647011D01*
X58428361Y-17738734D01*
X58483517Y-17821282D01*
X58553718Y-17891483D01*
X58634951Y-17945761D01*
X58648000Y-17977263D01*
X58648000Y-19762225D01*
X58578718Y-19808517D01*
X58508517Y-19878718D01*
X58453361Y-19961266D01*
X58415368Y-20052989D01*
X58396000Y-20150360D01*
X58396000Y-20249640D01*
X58415368Y-20347011D01*
X58453361Y-20438734D01*
X58508517Y-20521282D01*
X58578718Y-20591483D01*
X58648000Y-20637775D01*
X58648000Y-21922737D01*
X58577532Y-22092862D01*
X57642862Y-23027532D01*
X57472737Y-23098000D01*
X53702263Y-23098000D01*
X53532138Y-23027532D01*
X51329606Y-20825000D01*
X51310360Y-20809206D01*
X51288404Y-20797470D01*
X51071601Y-20707667D01*
X51047777Y-20700440D01*
X51023000Y-20698000D01*
X47940448Y-20698000D01*
X47946639Y-20688734D01*
X47984632Y-20597011D01*
X48004000Y-20499640D01*
X48004000Y-20400360D01*
X47984632Y-20302989D01*
X47946639Y-20211266D01*
X47891483Y-20128718D01*
X47821282Y-20058517D01*
X47738734Y-20003361D01*
X47647011Y-19965368D01*
X47549640Y-19946000D01*
X47450360Y-19946000D01*
X47352989Y-19965368D01*
X47261266Y-20003361D01*
X47178718Y-20058517D01*
X47108517Y-20128718D01*
X47053361Y-20211266D01*
X47015368Y-20302989D01*
X46996000Y-20400360D01*
X46996000Y-20499640D01*
X47015368Y-20597011D01*
X47053361Y-20688734D01*
X47059552Y-20698000D01*
X43602263Y-20698000D01*
X43432138Y-20627532D01*
X43122468Y-20317862D01*
X43052000Y-20147737D01*
X43052000Y-19325360D01*
X45096000Y-19325360D01*
X45096000Y-19424640D01*
X45115368Y-19522011D01*
X45153361Y-19613734D01*
X45208517Y-19696282D01*
X45278718Y-19766483D01*
X45361266Y-19821639D01*
X45452989Y-19859632D01*
X45550360Y-19879000D01*
X45649640Y-19879000D01*
X45747011Y-19859632D01*
X45838734Y-19821639D01*
X45921282Y-19766483D01*
X45991483Y-19696282D01*
X46046639Y-19613734D01*
X46084632Y-19522011D01*
X46104000Y-19424640D01*
X46104000Y-19325360D01*
X46084632Y-19227989D01*
X46046639Y-19136266D01*
X45991483Y-19053718D01*
X45921282Y-18983517D01*
X45838734Y-18928361D01*
X45747011Y-18890368D01*
X45649640Y-18871000D01*
X45550360Y-18871000D01*
X45452989Y-18890368D01*
X45361266Y-18928361D01*
X45278718Y-18983517D01*
X45208517Y-19053718D01*
X45153361Y-19136266D01*
X45115368Y-19227989D01*
X45096000Y-19325360D01*
X43052000Y-19325360D01*
X43052000Y-18800360D01*
X51921000Y-18800360D01*
X51921000Y-18899640D01*
X51940368Y-18997011D01*
X51978361Y-19088734D01*
X52033517Y-19171282D01*
X52103718Y-19241483D01*
X52186266Y-19296639D01*
X52277989Y-19334632D01*
X52375360Y-19354000D01*
X52474640Y-19354000D01*
X52572011Y-19334632D01*
X52663734Y-19296639D01*
X52746282Y-19241483D01*
X52816483Y-19171282D01*
X52871639Y-19088734D01*
X52909632Y-18997011D01*
X52929000Y-18899640D01*
X52929000Y-18800360D01*
X52909632Y-18702989D01*
X52871639Y-18611266D01*
X52816483Y-18528718D01*
X52746282Y-18458517D01*
X52663734Y-18403361D01*
X52572011Y-18365368D01*
X52474640Y-18346000D01*
X52375360Y-18346000D01*
X52277989Y-18365368D01*
X52186266Y-18403361D01*
X52103718Y-18458517D01*
X52033517Y-18528718D01*
X51978361Y-18611266D01*
X51940368Y-18702989D01*
X51921000Y-18800360D01*
X43052000Y-18800360D01*
X43052000Y-16538651D01*
X43084702Y-16459702D01*
X43163651Y-16427000D01*
X43948000Y-16427000D01*
X43972776Y-16424560D01*
X43996601Y-16417333D01*
X44213404Y-16327530D01*
X44235361Y-16315794D01*
X44254606Y-16300000D01*
X44529246Y-16025360D01*
X47646000Y-16025360D01*
X47646000Y-16124640D01*
X47665368Y-16222011D01*
X47703361Y-16313734D01*
X47758517Y-16396282D01*
X47828718Y-16466483D01*
X47911266Y-16521639D01*
X48002989Y-16559632D01*
X48080250Y-16575000D01*
X48002989Y-16590368D01*
X47911266Y-16628361D01*
X47828718Y-16683517D01*
X47758517Y-16753718D01*
X47703361Y-16836266D01*
X47665368Y-16927989D01*
X47646000Y-17025360D01*
X47646000Y-17124640D01*
X47665368Y-17222011D01*
X47703361Y-17313734D01*
X47758517Y-17396282D01*
X47828718Y-17466483D01*
X47911266Y-17521639D01*
X48002989Y-17559632D01*
X48080250Y-17575000D01*
X48002989Y-17590368D01*
X47911266Y-17628361D01*
X47828718Y-17683517D01*
X47758517Y-17753718D01*
X47703361Y-17836266D01*
X47665368Y-17927989D01*
X47646000Y-18025360D01*
X47646000Y-18124640D01*
X47665368Y-18222011D01*
X47703361Y-18313734D01*
X47758517Y-18396282D01*
X47828718Y-18466483D01*
X47911266Y-18521639D01*
X48002989Y-18559632D01*
X48100360Y-18579000D01*
X48199640Y-18579000D01*
X48297011Y-18559632D01*
X48388734Y-18521639D01*
X48471282Y-18466483D01*
X48541483Y-18396282D01*
X48596639Y-18313734D01*
X48634632Y-18222011D01*
X48650000Y-18144750D01*
X48665368Y-18222011D01*
X48703361Y-18313734D01*
X48758517Y-18396282D01*
X48828718Y-18466483D01*
X48911266Y-18521639D01*
X49002989Y-18559632D01*
X49100360Y-18579000D01*
X49199640Y-18579000D01*
X49297011Y-18559632D01*
X49388734Y-18521639D01*
X49471282Y-18466483D01*
X49541483Y-18396282D01*
X49596639Y-18313734D01*
X49634632Y-18222011D01*
X49650000Y-18144750D01*
X49665368Y-18222011D01*
X49703361Y-18313734D01*
X49758517Y-18396282D01*
X49828718Y-18466483D01*
X49911266Y-18521639D01*
X50002989Y-18559632D01*
X50100360Y-18579000D01*
X50199640Y-18579000D01*
X50297011Y-18559632D01*
X50388734Y-18521639D01*
X50471282Y-18466483D01*
X50541483Y-18396282D01*
X50596639Y-18313734D01*
X50634632Y-18222011D01*
X50654000Y-18124640D01*
X50654000Y-18025360D01*
X50634632Y-17927989D01*
X50596639Y-17836266D01*
X50541483Y-17753718D01*
X50471282Y-17683517D01*
X50388734Y-17628361D01*
X50297011Y-17590368D01*
X50219750Y-17575000D01*
X50297011Y-17559632D01*
X50388734Y-17521639D01*
X50471282Y-17466483D01*
X50541483Y-17396282D01*
X50588870Y-17325360D01*
X55971000Y-17325360D01*
X55971000Y-17424640D01*
X55990368Y-17522011D01*
X56028361Y-17613734D01*
X56083517Y-17696282D01*
X56153718Y-17766483D01*
X56236266Y-17821639D01*
X56327989Y-17859632D01*
X56425360Y-17879000D01*
X56524640Y-17879000D01*
X56622011Y-17859632D01*
X56713734Y-17821639D01*
X56796282Y-17766483D01*
X56866483Y-17696282D01*
X56921639Y-17613734D01*
X56959632Y-17522011D01*
X56979000Y-17424640D01*
X56979000Y-17325360D01*
X56959632Y-17227989D01*
X56921639Y-17136266D01*
X56866483Y-17053718D01*
X56796282Y-16983517D01*
X56713734Y-16928361D01*
X56622011Y-16890368D01*
X56524640Y-16871000D01*
X56425360Y-16871000D01*
X56327989Y-16890368D01*
X56236266Y-16928361D01*
X56153718Y-16983517D01*
X56083517Y-17053718D01*
X56028361Y-17136266D01*
X55990368Y-17227989D01*
X55971000Y-17325360D01*
X50588870Y-17325360D01*
X50596639Y-17313734D01*
X50634632Y-17222011D01*
X50654000Y-17124640D01*
X50654000Y-17025360D01*
X50634632Y-16927989D01*
X50596639Y-16836266D01*
X50541483Y-16753718D01*
X50471282Y-16683517D01*
X50388734Y-16628361D01*
X50297011Y-16590368D01*
X50219750Y-16575000D01*
X50297011Y-16559632D01*
X50388734Y-16521639D01*
X50471282Y-16466483D01*
X50541483Y-16396282D01*
X50596639Y-16313734D01*
X50634632Y-16222011D01*
X50654000Y-16124640D01*
X50654000Y-16025360D01*
X50634632Y-15927989D01*
X50596639Y-15836266D01*
X50541483Y-15753718D01*
X50471282Y-15683517D01*
X50388734Y-15628361D01*
X50297011Y-15590368D01*
X50199640Y-15571000D01*
X50100360Y-15571000D01*
X50002989Y-15590368D01*
X49911266Y-15628361D01*
X49828718Y-15683517D01*
X49758517Y-15753718D01*
X49703361Y-15836266D01*
X49665368Y-15927989D01*
X49650000Y-16005250D01*
X49634632Y-15927989D01*
X49596639Y-15836266D01*
X49541483Y-15753718D01*
X49471282Y-15683517D01*
X49388734Y-15628361D01*
X49297011Y-15590368D01*
X49199640Y-15571000D01*
X49100360Y-15571000D01*
X49002989Y-15590368D01*
X48911266Y-15628361D01*
X48828718Y-15683517D01*
X48758517Y-15753718D01*
X48703361Y-15836266D01*
X48665368Y-15927989D01*
X48650000Y-16005250D01*
X48634632Y-15927989D01*
X48596639Y-15836266D01*
X48541483Y-15753718D01*
X48471282Y-15683517D01*
X48388734Y-15628361D01*
X48297011Y-15590368D01*
X48199640Y-15571000D01*
X48100360Y-15571000D01*
X48002989Y-15590368D01*
X47911266Y-15628361D01*
X47828718Y-15683517D01*
X47758517Y-15753718D01*
X47703361Y-15836266D01*
X47665368Y-15927989D01*
X47646000Y-16025360D01*
X44529246Y-16025360D01*
X45050000Y-15504606D01*
X45065794Y-15485360D01*
X45077530Y-15463404D01*
X45167333Y-15246601D01*
X45174560Y-15222777D01*
X45177000Y-15198000D01*
X45177000Y-14700360D01*
X46246000Y-14700360D01*
X46246000Y-14799640D01*
X46265368Y-14897011D01*
X46303361Y-14988734D01*
X46358517Y-15071282D01*
X46428718Y-15141483D01*
X46511266Y-15196639D01*
X46602989Y-15234632D01*
X46700360Y-15254000D01*
X46799640Y-15254000D01*
X46897011Y-15234632D01*
X46988734Y-15196639D01*
X47071282Y-15141483D01*
X47141483Y-15071282D01*
X47196639Y-14988734D01*
X47234632Y-14897011D01*
X47254000Y-14799640D01*
X47254000Y-14700360D01*
X47244055Y-14650360D01*
X51046000Y-14650360D01*
X51046000Y-14749640D01*
X51065368Y-14847011D01*
X51103361Y-14938734D01*
X51158517Y-15021282D01*
X51228718Y-15091483D01*
X51311266Y-15146639D01*
X51402989Y-15184632D01*
X51500360Y-15204000D01*
X51599640Y-15204000D01*
X51697011Y-15184632D01*
X51788734Y-15146639D01*
X51871282Y-15091483D01*
X51941483Y-15021282D01*
X51996639Y-14938734D01*
X52034632Y-14847011D01*
X52054000Y-14749640D01*
X52054000Y-14650360D01*
X52034632Y-14552989D01*
X51996639Y-14461266D01*
X51941483Y-14378718D01*
X51871282Y-14308517D01*
X51788734Y-14253361D01*
X51697011Y-14215368D01*
X51599640Y-14196000D01*
X51500360Y-14196000D01*
X51402989Y-14215368D01*
X51311266Y-14253361D01*
X51228718Y-14308517D01*
X51158517Y-14378718D01*
X51103361Y-14461266D01*
X51065368Y-14552989D01*
X51046000Y-14650360D01*
X47244055Y-14650360D01*
X47234632Y-14602989D01*
X47196639Y-14511266D01*
X47141483Y-14428718D01*
X47071282Y-14358517D01*
X46988734Y-14303361D01*
X46897011Y-14265368D01*
X46799640Y-14246000D01*
X46700360Y-14246000D01*
X46602989Y-14265368D01*
X46511266Y-14303361D01*
X46428718Y-14358517D01*
X46358517Y-14428718D01*
X46303361Y-14511266D01*
X46265368Y-14602989D01*
X46246000Y-14700360D01*
X45177000Y-14700360D01*
X45177000Y-13425360D01*
X46546000Y-13425360D01*
X46546000Y-13524640D01*
X46565368Y-13622011D01*
X46603361Y-13713734D01*
X46658517Y-13796282D01*
X46728718Y-13866483D01*
X46811266Y-13921639D01*
X46902989Y-13959632D01*
X47000360Y-13979000D01*
X47099640Y-13979000D01*
X47197011Y-13959632D01*
X47288734Y-13921639D01*
X47371282Y-13866483D01*
X47441483Y-13796282D01*
X47496639Y-13713734D01*
X47512534Y-13675360D01*
X49521000Y-13675360D01*
X49521000Y-13774640D01*
X49540368Y-13872011D01*
X49578361Y-13963734D01*
X49633517Y-14046282D01*
X49703718Y-14116483D01*
X49786266Y-14171639D01*
X49877989Y-14209632D01*
X49975360Y-14229000D01*
X50074640Y-14229000D01*
X50172011Y-14209632D01*
X50263734Y-14171639D01*
X50346282Y-14116483D01*
X50416483Y-14046282D01*
X50471639Y-13963734D01*
X50509632Y-13872011D01*
X50529000Y-13774640D01*
X50529000Y-13675360D01*
X50509632Y-13577989D01*
X50471639Y-13486266D01*
X50416483Y-13403718D01*
X50346282Y-13333517D01*
X50263734Y-13278361D01*
X50172011Y-13240368D01*
X50074640Y-13221000D01*
X49975360Y-13221000D01*
X49877989Y-13240368D01*
X49786266Y-13278361D01*
X49703718Y-13333517D01*
X49633517Y-13403718D01*
X49578361Y-13486266D01*
X49540368Y-13577989D01*
X49521000Y-13675360D01*
X47512534Y-13675360D01*
X47534632Y-13622011D01*
X47554000Y-13524640D01*
X47554000Y-13425360D01*
X47534632Y-13327989D01*
X47496639Y-13236266D01*
X47441483Y-13153718D01*
X47371282Y-13083517D01*
X47288734Y-13028361D01*
X47197011Y-12990368D01*
X47099640Y-12971000D01*
X47000360Y-12971000D01*
X46902989Y-12990368D01*
X46811266Y-13028361D01*
X46728718Y-13083517D01*
X46658517Y-13153718D01*
X46603361Y-13236266D01*
X46565368Y-13327989D01*
X46546000Y-13425360D01*
X45177000Y-13425360D01*
X45177000Y-12802263D01*
X45247468Y-12632138D01*
X45682138Y-12197468D01*
X45852263Y-12127000D01*
X52818671Y-12127000D01*
X52953059Y-12182665D01*
G37*
X52953059Y-12182665D02*
X58383655Y-17613261D01*
X58390368Y-17647011D01*
X58428361Y-17738734D01*
X58483517Y-17821282D01*
X58553718Y-17891483D01*
X58634951Y-17945761D01*
X58648000Y-17977263D01*
X58648000Y-19762225D01*
X58578718Y-19808517D01*
X58508517Y-19878718D01*
X58453361Y-19961266D01*
X58415368Y-20052989D01*
X58396000Y-20150360D01*
X58396000Y-20249640D01*
X58415368Y-20347011D01*
X58453361Y-20438734D01*
X58508517Y-20521282D01*
X58578718Y-20591483D01*
X58648000Y-20637775D01*
X58648000Y-21922737D01*
X58577532Y-22092862D01*
X57642862Y-23027532D01*
X57472737Y-23098000D01*
X53702263Y-23098000D01*
X53532138Y-23027532D01*
X51329606Y-20825000D01*
X51310360Y-20809206D01*
X51288404Y-20797470D01*
X51071601Y-20707667D01*
X51047777Y-20700440D01*
X51023000Y-20698000D01*
X47940448Y-20698000D01*
X47946639Y-20688734D01*
X47984632Y-20597011D01*
X48004000Y-20499640D01*
X48004000Y-20400360D01*
X47984632Y-20302989D01*
X47946639Y-20211266D01*
X47891483Y-20128718D01*
X47821282Y-20058517D01*
X47738734Y-20003361D01*
X47647011Y-19965368D01*
X47549640Y-19946000D01*
X47450360Y-19946000D01*
X47352989Y-19965368D01*
X47261266Y-20003361D01*
X47178718Y-20058517D01*
X47108517Y-20128718D01*
X47053361Y-20211266D01*
X47015368Y-20302989D01*
X46996000Y-20400360D01*
X46996000Y-20499640D01*
X47015368Y-20597011D01*
X47053361Y-20688734D01*
X47059552Y-20698000D01*
X43602263Y-20698000D01*
X43432138Y-20627532D01*
X43122468Y-20317862D01*
X43052000Y-20147737D01*
X43052000Y-19325360D01*
X45096000Y-19325360D01*
X45096000Y-19424640D01*
X45115368Y-19522011D01*
X45153361Y-19613734D01*
X45208517Y-19696282D01*
X45278718Y-19766483D01*
X45361266Y-19821639D01*
X45452989Y-19859632D01*
X45550360Y-19879000D01*
X45649640Y-19879000D01*
X45747011Y-19859632D01*
X45838734Y-19821639D01*
X45921282Y-19766483D01*
X45991483Y-19696282D01*
X46046639Y-19613734D01*
X46084632Y-19522011D01*
X46104000Y-19424640D01*
X46104000Y-19325360D01*
X46084632Y-19227989D01*
X46046639Y-19136266D01*
X45991483Y-19053718D01*
X45921282Y-18983517D01*
X45838734Y-18928361D01*
X45747011Y-18890368D01*
X45649640Y-18871000D01*
X45550360Y-18871000D01*
X45452989Y-18890368D01*
X45361266Y-18928361D01*
X45278718Y-18983517D01*
X45208517Y-19053718D01*
X45153361Y-19136266D01*
X45115368Y-19227989D01*
X45096000Y-19325360D01*
X43052000Y-19325360D01*
X43052000Y-18800360D01*
X51921000Y-18800360D01*
X51921000Y-18899640D01*
X51940368Y-18997011D01*
X51978361Y-19088734D01*
X52033517Y-19171282D01*
X52103718Y-19241483D01*
X52186266Y-19296639D01*
X52277989Y-19334632D01*
X52375360Y-19354000D01*
X52474640Y-19354000D01*
X52572011Y-19334632D01*
X52663734Y-19296639D01*
X52746282Y-19241483D01*
X52816483Y-19171282D01*
X52871639Y-19088734D01*
X52909632Y-18997011D01*
X52929000Y-18899640D01*
X52929000Y-18800360D01*
X52909632Y-18702989D01*
X52871639Y-18611266D01*
X52816483Y-18528718D01*
X52746282Y-18458517D01*
X52663734Y-18403361D01*
X52572011Y-18365368D01*
X52474640Y-18346000D01*
X52375360Y-18346000D01*
X52277989Y-18365368D01*
X52186266Y-18403361D01*
X52103718Y-18458517D01*
X52033517Y-18528718D01*
X51978361Y-18611266D01*
X51940368Y-18702989D01*
X51921000Y-18800360D01*
X43052000Y-18800360D01*
X43052000Y-16538651D01*
X43084702Y-16459702D01*
X43163651Y-16427000D01*
X43948000Y-16427000D01*
X43972776Y-16424560D01*
X43996601Y-16417333D01*
X44213404Y-16327530D01*
X44235361Y-16315794D01*
X44254606Y-16300000D01*
X44529246Y-16025360D01*
X47646000Y-16025360D01*
X47646000Y-16124640D01*
X47665368Y-16222011D01*
X47703361Y-16313734D01*
X47758517Y-16396282D01*
X47828718Y-16466483D01*
X47911266Y-16521639D01*
X48002989Y-16559632D01*
X48080250Y-16575000D01*
X48002989Y-16590368D01*
X47911266Y-16628361D01*
X47828718Y-16683517D01*
X47758517Y-16753718D01*
X47703361Y-16836266D01*
X47665368Y-16927989D01*
X47646000Y-17025360D01*
X47646000Y-17124640D01*
X47665368Y-17222011D01*
X47703361Y-17313734D01*
X47758517Y-17396282D01*
X47828718Y-17466483D01*
X47911266Y-17521639D01*
X48002989Y-17559632D01*
X48080250Y-17575000D01*
X48002989Y-17590368D01*
X47911266Y-17628361D01*
X47828718Y-17683517D01*
X47758517Y-17753718D01*
X47703361Y-17836266D01*
X47665368Y-17927989D01*
X47646000Y-18025360D01*
X47646000Y-18124640D01*
X47665368Y-18222011D01*
X47703361Y-18313734D01*
X47758517Y-18396282D01*
X47828718Y-18466483D01*
X47911266Y-18521639D01*
X48002989Y-18559632D01*
X48100360Y-18579000D01*
X48199640Y-18579000D01*
X48297011Y-18559632D01*
X48388734Y-18521639D01*
X48471282Y-18466483D01*
X48541483Y-18396282D01*
X48596639Y-18313734D01*
X48634632Y-18222011D01*
X48650000Y-18144750D01*
X48665368Y-18222011D01*
X48703361Y-18313734D01*
X48758517Y-18396282D01*
X48828718Y-18466483D01*
X48911266Y-18521639D01*
X49002989Y-18559632D01*
X49100360Y-18579000D01*
X49199640Y-18579000D01*
X49297011Y-18559632D01*
X49388734Y-18521639D01*
X49471282Y-18466483D01*
X49541483Y-18396282D01*
X49596639Y-18313734D01*
X49634632Y-18222011D01*
X49650000Y-18144750D01*
X49665368Y-18222011D01*
X49703361Y-18313734D01*
X49758517Y-18396282D01*
X49828718Y-18466483D01*
X49911266Y-18521639D01*
X50002989Y-18559632D01*
X50100360Y-18579000D01*
X50199640Y-18579000D01*
X50297011Y-18559632D01*
X50388734Y-18521639D01*
X50471282Y-18466483D01*
X50541483Y-18396282D01*
X50596639Y-18313734D01*
X50634632Y-18222011D01*
X50654000Y-18124640D01*
X50654000Y-18025360D01*
X50634632Y-17927989D01*
X50596639Y-17836266D01*
X50541483Y-17753718D01*
X50471282Y-17683517D01*
X50388734Y-17628361D01*
X50297011Y-17590368D01*
X50219750Y-17575000D01*
X50297011Y-17559632D01*
X50388734Y-17521639D01*
X50471282Y-17466483D01*
X50541483Y-17396282D01*
X50588870Y-17325360D01*
X55971000Y-17325360D01*
X55971000Y-17424640D01*
X55990368Y-17522011D01*
X56028361Y-17613734D01*
X56083517Y-17696282D01*
X56153718Y-17766483D01*
X56236266Y-17821639D01*
X56327989Y-17859632D01*
X56425360Y-17879000D01*
X56524640Y-17879000D01*
X56622011Y-17859632D01*
X56713734Y-17821639D01*
X56796282Y-17766483D01*
X56866483Y-17696282D01*
X56921639Y-17613734D01*
X56959632Y-17522011D01*
X56979000Y-17424640D01*
X56979000Y-17325360D01*
X56959632Y-17227989D01*
X56921639Y-17136266D01*
X56866483Y-17053718D01*
X56796282Y-16983517D01*
X56713734Y-16928361D01*
X56622011Y-16890368D01*
X56524640Y-16871000D01*
X56425360Y-16871000D01*
X56327989Y-16890368D01*
X56236266Y-16928361D01*
X56153718Y-16983517D01*
X56083517Y-17053718D01*
X56028361Y-17136266D01*
X55990368Y-17227989D01*
X55971000Y-17325360D01*
X50588870Y-17325360D01*
X50596639Y-17313734D01*
X50634632Y-17222011D01*
X50654000Y-17124640D01*
X50654000Y-17025360D01*
X50634632Y-16927989D01*
X50596639Y-16836266D01*
X50541483Y-16753718D01*
X50471282Y-16683517D01*
X50388734Y-16628361D01*
X50297011Y-16590368D01*
X50219750Y-16575000D01*
X50297011Y-16559632D01*
X50388734Y-16521639D01*
X50471282Y-16466483D01*
X50541483Y-16396282D01*
X50596639Y-16313734D01*
X50634632Y-16222011D01*
X50654000Y-16124640D01*
X50654000Y-16025360D01*
X50634632Y-15927989D01*
X50596639Y-15836266D01*
X50541483Y-15753718D01*
X50471282Y-15683517D01*
X50388734Y-15628361D01*
X50297011Y-15590368D01*
X50199640Y-15571000D01*
X50100360Y-15571000D01*
X50002989Y-15590368D01*
X49911266Y-15628361D01*
X49828718Y-15683517D01*
X49758517Y-15753718D01*
X49703361Y-15836266D01*
X49665368Y-15927989D01*
X49650000Y-16005250D01*
X49634632Y-15927989D01*
X49596639Y-15836266D01*
X49541483Y-15753718D01*
X49471282Y-15683517D01*
X49388734Y-15628361D01*
X49297011Y-15590368D01*
X49199640Y-15571000D01*
X49100360Y-15571000D01*
X49002989Y-15590368D01*
X48911266Y-15628361D01*
X48828718Y-15683517D01*
X48758517Y-15753718D01*
X48703361Y-15836266D01*
X48665368Y-15927989D01*
X48650000Y-16005250D01*
X48634632Y-15927989D01*
X48596639Y-15836266D01*
X48541483Y-15753718D01*
X48471282Y-15683517D01*
X48388734Y-15628361D01*
X48297011Y-15590368D01*
X48199640Y-15571000D01*
X48100360Y-15571000D01*
X48002989Y-15590368D01*
X47911266Y-15628361D01*
X47828718Y-15683517D01*
X47758517Y-15753718D01*
X47703361Y-15836266D01*
X47665368Y-15927989D01*
X47646000Y-16025360D01*
X44529246Y-16025360D01*
X45050000Y-15504606D01*
X45065794Y-15485360D01*
X45077530Y-15463404D01*
X45167333Y-15246601D01*
X45174560Y-15222777D01*
X45177000Y-15198000D01*
X45177000Y-14700360D01*
X46246000Y-14700360D01*
X46246000Y-14799640D01*
X46265368Y-14897011D01*
X46303361Y-14988734D01*
X46358517Y-15071282D01*
X46428718Y-15141483D01*
X46511266Y-15196639D01*
X46602989Y-15234632D01*
X46700360Y-15254000D01*
X46799640Y-15254000D01*
X46897011Y-15234632D01*
X46988734Y-15196639D01*
X47071282Y-15141483D01*
X47141483Y-15071282D01*
X47196639Y-14988734D01*
X47234632Y-14897011D01*
X47254000Y-14799640D01*
X47254000Y-14700360D01*
X47244055Y-14650360D01*
X51046000Y-14650360D01*
X51046000Y-14749640D01*
X51065368Y-14847011D01*
X51103361Y-14938734D01*
X51158517Y-15021282D01*
X51228718Y-15091483D01*
X51311266Y-15146639D01*
X51402989Y-15184632D01*
X51500360Y-15204000D01*
X51599640Y-15204000D01*
X51697011Y-15184632D01*
X51788734Y-15146639D01*
X51871282Y-15091483D01*
X51941483Y-15021282D01*
X51996639Y-14938734D01*
X52034632Y-14847011D01*
X52054000Y-14749640D01*
X52054000Y-14650360D01*
X52034632Y-14552989D01*
X51996639Y-14461266D01*
X51941483Y-14378718D01*
X51871282Y-14308517D01*
X51788734Y-14253361D01*
X51697011Y-14215368D01*
X51599640Y-14196000D01*
X51500360Y-14196000D01*
X51402989Y-14215368D01*
X51311266Y-14253361D01*
X51228718Y-14308517D01*
X51158517Y-14378718D01*
X51103361Y-14461266D01*
X51065368Y-14552989D01*
X51046000Y-14650360D01*
X47244055Y-14650360D01*
X47234632Y-14602989D01*
X47196639Y-14511266D01*
X47141483Y-14428718D01*
X47071282Y-14358517D01*
X46988734Y-14303361D01*
X46897011Y-14265368D01*
X46799640Y-14246000D01*
X46700360Y-14246000D01*
X46602989Y-14265368D01*
X46511266Y-14303361D01*
X46428718Y-14358517D01*
X46358517Y-14428718D01*
X46303361Y-14511266D01*
X46265368Y-14602989D01*
X46246000Y-14700360D01*
X45177000Y-14700360D01*
X45177000Y-13425360D01*
X46546000Y-13425360D01*
X46546000Y-13524640D01*
X46565368Y-13622011D01*
X46603361Y-13713734D01*
X46658517Y-13796282D01*
X46728718Y-13866483D01*
X46811266Y-13921639D01*
X46902989Y-13959632D01*
X47000360Y-13979000D01*
X47099640Y-13979000D01*
X47197011Y-13959632D01*
X47288734Y-13921639D01*
X47371282Y-13866483D01*
X47441483Y-13796282D01*
X47496639Y-13713734D01*
X47512534Y-13675360D01*
X49521000Y-13675360D01*
X49521000Y-13774640D01*
X49540368Y-13872011D01*
X49578361Y-13963734D01*
X49633517Y-14046282D01*
X49703718Y-14116483D01*
X49786266Y-14171639D01*
X49877989Y-14209632D01*
X49975360Y-14229000D01*
X50074640Y-14229000D01*
X50172011Y-14209632D01*
X50263734Y-14171639D01*
X50346282Y-14116483D01*
X50416483Y-14046282D01*
X50471639Y-13963734D01*
X50509632Y-13872011D01*
X50529000Y-13774640D01*
X50529000Y-13675360D01*
X50509632Y-13577989D01*
X50471639Y-13486266D01*
X50416483Y-13403718D01*
X50346282Y-13333517D01*
X50263734Y-13278361D01*
X50172011Y-13240368D01*
X50074640Y-13221000D01*
X49975360Y-13221000D01*
X49877989Y-13240368D01*
X49786266Y-13278361D01*
X49703718Y-13333517D01*
X49633517Y-13403718D01*
X49578361Y-13486266D01*
X49540368Y-13577989D01*
X49521000Y-13675360D01*
X47512534Y-13675360D01*
X47534632Y-13622011D01*
X47554000Y-13524640D01*
X47554000Y-13425360D01*
X47534632Y-13327989D01*
X47496639Y-13236266D01*
X47441483Y-13153718D01*
X47371282Y-13083517D01*
X47288734Y-13028361D01*
X47197011Y-12990368D01*
X47099640Y-12971000D01*
X47000360Y-12971000D01*
X46902989Y-12990368D01*
X46811266Y-13028361D01*
X46728718Y-13083517D01*
X46658517Y-13153718D01*
X46603361Y-13236266D01*
X46565368Y-13327989D01*
X46546000Y-13425360D01*
X45177000Y-13425360D01*
X45177000Y-12802263D01*
X45247468Y-12632138D01*
X45682138Y-12197468D01*
X45852263Y-12127000D01*
X52818671Y-12127000D01*
X52953059Y-12182665D01*
G36*
X2273000Y-10676905D02*
G01*
X2293252Y-10778720D01*
X2332979Y-10874628D01*
X2390652Y-10960943D01*
X2464057Y-11034348D01*
X2550372Y-11092021D01*
X2646280Y-11131748D01*
X2748095Y-11152000D01*
X2851905Y-11152000D01*
X2953720Y-11131748D01*
X3049628Y-11092021D01*
X3135943Y-11034348D01*
X3209348Y-10960943D01*
X3267021Y-10874628D01*
X3306748Y-10778720D01*
X3327000Y-10676905D01*
X3327000Y-10627000D01*
X3573000Y-10627000D01*
X3573000Y-10676905D01*
X3593252Y-10778720D01*
X3632979Y-10874628D01*
X3690652Y-10960943D01*
X3764057Y-11034348D01*
X3850372Y-11092021D01*
X3946280Y-11131748D01*
X4048095Y-11152000D01*
X4151905Y-11152000D01*
X4253720Y-11131748D01*
X4349628Y-11092021D01*
X4435943Y-11034348D01*
X4509348Y-10960943D01*
X4567021Y-10874628D01*
X4606748Y-10778720D01*
X4627000Y-10676905D01*
X4627000Y-10627000D01*
X4934564Y-10627000D01*
X4990652Y-10710943D01*
X5064057Y-10784348D01*
X5150372Y-10842021D01*
X5246280Y-10881748D01*
X5348095Y-10902000D01*
X5451905Y-10902000D01*
X5553720Y-10881748D01*
X5649628Y-10842021D01*
X5735943Y-10784348D01*
X5809348Y-10710943D01*
X5865436Y-10627000D01*
X6234564Y-10627000D01*
X6290652Y-10710943D01*
X6364057Y-10784348D01*
X6450372Y-10842021D01*
X6546280Y-10881748D01*
X6648095Y-10902000D01*
X6751905Y-10902000D01*
X6853720Y-10881748D01*
X6949628Y-10842021D01*
X7035943Y-10784348D01*
X7109348Y-10710943D01*
X7165436Y-10627000D01*
X7534564Y-10627000D01*
X7590652Y-10710943D01*
X7664057Y-10784348D01*
X7750372Y-10842021D01*
X7846280Y-10881748D01*
X7948095Y-10902000D01*
X8051905Y-10902000D01*
X8153720Y-10881748D01*
X8249628Y-10842021D01*
X8335943Y-10784348D01*
X8409348Y-10710943D01*
X8465436Y-10627000D01*
X8834564Y-10627000D01*
X8890652Y-10710943D01*
X8964057Y-10784348D01*
X9050372Y-10842021D01*
X9146280Y-10881748D01*
X9248095Y-10902000D01*
X9351905Y-10902000D01*
X9453720Y-10881748D01*
X9549628Y-10842021D01*
X9635943Y-10784348D01*
X9709348Y-10710943D01*
X9765436Y-10627000D01*
X10134564Y-10627000D01*
X10190652Y-10710943D01*
X10264057Y-10784348D01*
X10350372Y-10842021D01*
X10446280Y-10881748D01*
X10548095Y-10902000D01*
X10651905Y-10902000D01*
X10753720Y-10881748D01*
X10849628Y-10842021D01*
X10935943Y-10784348D01*
X11009348Y-10710943D01*
X11065436Y-10627000D01*
X11434564Y-10627000D01*
X11490652Y-10710943D01*
X11564057Y-10784348D01*
X11650372Y-10842021D01*
X11746280Y-10881748D01*
X11848095Y-10902000D01*
X11951905Y-10902000D01*
X12053720Y-10881748D01*
X12149628Y-10842021D01*
X12235943Y-10784348D01*
X12309348Y-10710943D01*
X12365436Y-10627000D01*
X12734564Y-10627000D01*
X12790652Y-10710943D01*
X12864057Y-10784348D01*
X12950372Y-10842021D01*
X13046280Y-10881748D01*
X13148095Y-10902000D01*
X13251905Y-10902000D01*
X13353720Y-10881748D01*
X13449628Y-10842021D01*
X13535943Y-10784348D01*
X13609348Y-10710943D01*
X13665436Y-10627000D01*
X14797737Y-10627000D01*
X14967862Y-10697468D01*
X15838842Y-11568448D01*
X15823000Y-11648095D01*
X15823000Y-11751905D01*
X15843252Y-11853720D01*
X15882979Y-11949628D01*
X15940652Y-12035943D01*
X16014057Y-12109348D01*
X16100372Y-12167021D01*
X16196280Y-12206748D01*
X16298095Y-12227000D01*
X16401905Y-12227000D01*
X16481552Y-12211158D01*
X19127532Y-14857138D01*
X19198000Y-15027263D01*
X19198000Y-25673000D01*
X19200440Y-25697776D01*
X19207667Y-25721601D01*
X19223001Y-25758620D01*
X19223001Y-26181478D01*
X19221177Y-26200000D01*
X19228455Y-26273905D01*
X19250012Y-26344969D01*
X19285020Y-26410463D01*
X19320326Y-26453484D01*
X19320329Y-26453487D01*
X19332132Y-26467869D01*
X19346514Y-26479672D01*
X24739421Y-31872579D01*
X24722011Y-31865368D01*
X24624640Y-31846000D01*
X24525360Y-31846000D01*
X24427989Y-31865368D01*
X24336266Y-31903361D01*
X24253718Y-31958517D01*
X24183517Y-32028718D01*
X24128361Y-32111266D01*
X24090368Y-32202989D01*
X24071000Y-32300360D01*
X24071000Y-32399640D01*
X24090368Y-32497011D01*
X24128361Y-32588734D01*
X24183517Y-32671282D01*
X24253718Y-32741483D01*
X24336266Y-32796639D01*
X24427989Y-32834632D01*
X24525360Y-32854000D01*
X24624640Y-32854000D01*
X24722011Y-32834632D01*
X24813734Y-32796639D01*
X24896282Y-32741483D01*
X24966483Y-32671282D01*
X25021639Y-32588734D01*
X25059632Y-32497011D01*
X25079000Y-32399640D01*
X25079000Y-32300360D01*
X25059632Y-32202989D01*
X25052421Y-32185579D01*
X25648000Y-32781158D01*
X25648000Y-36447737D01*
X25577532Y-36617862D01*
X25442862Y-36752532D01*
X25272737Y-36823000D01*
X23099007Y-36823000D01*
X22959702Y-36765298D01*
X22902000Y-36625993D01*
X22902000Y-32677000D01*
X22899560Y-32652224D01*
X22892333Y-32628399D01*
X22802530Y-32411596D01*
X22790794Y-32389639D01*
X22775000Y-32370394D01*
X22729966Y-32325360D01*
X22921000Y-32325360D01*
X22921000Y-32424640D01*
X22940368Y-32522011D01*
X22978361Y-32613734D01*
X23033517Y-32696282D01*
X23103718Y-32766483D01*
X23186266Y-32821639D01*
X23277989Y-32859632D01*
X23375360Y-32879000D01*
X23474640Y-32879000D01*
X23572011Y-32859632D01*
X23663734Y-32821639D01*
X23746282Y-32766483D01*
X23816483Y-32696282D01*
X23871639Y-32613734D01*
X23909632Y-32522011D01*
X23929000Y-32424640D01*
X23929000Y-32325360D01*
X23909632Y-32227989D01*
X23871639Y-32136266D01*
X23816483Y-32053718D01*
X23746282Y-31983517D01*
X23663734Y-31928361D01*
X23572011Y-31890368D01*
X23474640Y-31871000D01*
X23375360Y-31871000D01*
X23277989Y-31890368D01*
X23186266Y-31928361D01*
X23103718Y-31983517D01*
X23033517Y-32053718D01*
X22978361Y-32136266D01*
X22940368Y-32227989D01*
X22921000Y-32325360D01*
X22729966Y-32325360D01*
X20779606Y-30375000D01*
X20760360Y-30359206D01*
X20738404Y-30347470D01*
X20521601Y-30257667D01*
X20497777Y-30250440D01*
X20473000Y-30248000D01*
X11435448Y-30248000D01*
X11438734Y-30246639D01*
X11521282Y-30191483D01*
X11591483Y-30121282D01*
X11646639Y-30038734D01*
X11684632Y-29947011D01*
X11704000Y-29849640D01*
X11704000Y-29750360D01*
X11684632Y-29652989D01*
X11646639Y-29561266D01*
X11591483Y-29478718D01*
X11521282Y-29408517D01*
X11438734Y-29353361D01*
X11347011Y-29315368D01*
X11249640Y-29296000D01*
X11150360Y-29296000D01*
X11052989Y-29315368D01*
X10961266Y-29353361D01*
X10878718Y-29408517D01*
X10808517Y-29478718D01*
X10753361Y-29561266D01*
X10715368Y-29652989D01*
X10696000Y-29750360D01*
X10696000Y-29849640D01*
X10715368Y-29947011D01*
X10753361Y-30038734D01*
X10808517Y-30121282D01*
X10878718Y-30191483D01*
X10961266Y-30246639D01*
X10964552Y-30248000D01*
X10185448Y-30248000D01*
X10188734Y-30246639D01*
X10271282Y-30191483D01*
X10341483Y-30121282D01*
X10396639Y-30038734D01*
X10434632Y-29947011D01*
X10454000Y-29849640D01*
X10454000Y-29750360D01*
X10434632Y-29652989D01*
X10396639Y-29561266D01*
X10341483Y-29478718D01*
X10271282Y-29408517D01*
X10188734Y-29353361D01*
X10097011Y-29315368D01*
X9999640Y-29296000D01*
X9900360Y-29296000D01*
X9802989Y-29315368D01*
X9711266Y-29353361D01*
X9628718Y-29408517D01*
X9558517Y-29478718D01*
X9503361Y-29561266D01*
X9465368Y-29652989D01*
X9446000Y-29750360D01*
X9446000Y-29849640D01*
X9465368Y-29947011D01*
X9503361Y-30038734D01*
X9558517Y-30121282D01*
X9628718Y-30191483D01*
X9711266Y-30246639D01*
X9714552Y-30248000D01*
X8935448Y-30248000D01*
X8938734Y-30246639D01*
X9021282Y-30191483D01*
X9091483Y-30121282D01*
X9146639Y-30038734D01*
X9184632Y-29947011D01*
X9204000Y-29849640D01*
X9204000Y-29750360D01*
X9184632Y-29652989D01*
X9146639Y-29561266D01*
X9091483Y-29478718D01*
X9021282Y-29408517D01*
X8938734Y-29353361D01*
X8847011Y-29315368D01*
X8749640Y-29296000D01*
X8650360Y-29296000D01*
X8552989Y-29315368D01*
X8461266Y-29353361D01*
X8378718Y-29408517D01*
X8308517Y-29478718D01*
X8253361Y-29561266D01*
X8215368Y-29652989D01*
X8196000Y-29750360D01*
X8196000Y-29849640D01*
X8215368Y-29947011D01*
X8253361Y-30038734D01*
X8308517Y-30121282D01*
X8378718Y-30191483D01*
X8461266Y-30246639D01*
X8464552Y-30248000D01*
X4102263Y-30248000D01*
X3932138Y-30177532D01*
X3547468Y-29792862D01*
X3477000Y-29622737D01*
X3477000Y-28500360D01*
X8196000Y-28500360D01*
X8196000Y-28599640D01*
X8215368Y-28697011D01*
X8253361Y-28788734D01*
X8308517Y-28871282D01*
X8378718Y-28941483D01*
X8461266Y-28996639D01*
X8552989Y-29034632D01*
X8650360Y-29054000D01*
X8749640Y-29054000D01*
X8847011Y-29034632D01*
X8938734Y-28996639D01*
X9021282Y-28941483D01*
X9091483Y-28871282D01*
X9146639Y-28788734D01*
X9184632Y-28697011D01*
X9204000Y-28599640D01*
X9204000Y-28500360D01*
X9446000Y-28500360D01*
X9446000Y-28599640D01*
X9465368Y-28697011D01*
X9503361Y-28788734D01*
X9558517Y-28871282D01*
X9628718Y-28941483D01*
X9711266Y-28996639D01*
X9802989Y-29034632D01*
X9900360Y-29054000D01*
X9999640Y-29054000D01*
X10097011Y-29034632D01*
X10188734Y-28996639D01*
X10271282Y-28941483D01*
X10341483Y-28871282D01*
X10396639Y-28788734D01*
X10434632Y-28697011D01*
X10454000Y-28599640D01*
X10454000Y-28500360D01*
X10696000Y-28500360D01*
X10696000Y-28599640D01*
X10715368Y-28697011D01*
X10753361Y-28788734D01*
X10808517Y-28871282D01*
X10878718Y-28941483D01*
X10961266Y-28996639D01*
X11052989Y-29034632D01*
X11150360Y-29054000D01*
X11249640Y-29054000D01*
X11347011Y-29034632D01*
X11438734Y-28996639D01*
X11521282Y-28941483D01*
X11591483Y-28871282D01*
X11646639Y-28788734D01*
X11684632Y-28697011D01*
X11704000Y-28599640D01*
X11704000Y-28500360D01*
X11684632Y-28402989D01*
X11646639Y-28311266D01*
X11591483Y-28228718D01*
X11521282Y-28158517D01*
X11438734Y-28103361D01*
X11347011Y-28065368D01*
X11249640Y-28046000D01*
X11150360Y-28046000D01*
X11052989Y-28065368D01*
X10961266Y-28103361D01*
X10878718Y-28158517D01*
X10808517Y-28228718D01*
X10753361Y-28311266D01*
X10715368Y-28402989D01*
X10696000Y-28500360D01*
X10454000Y-28500360D01*
X10434632Y-28402989D01*
X10396639Y-28311266D01*
X10341483Y-28228718D01*
X10271282Y-28158517D01*
X10188734Y-28103361D01*
X10097011Y-28065368D01*
X9999640Y-28046000D01*
X9900360Y-28046000D01*
X9802989Y-28065368D01*
X9711266Y-28103361D01*
X9628718Y-28158517D01*
X9558517Y-28228718D01*
X9503361Y-28311266D01*
X9465368Y-28402989D01*
X9446000Y-28500360D01*
X9204000Y-28500360D01*
X9184632Y-28402989D01*
X9146639Y-28311266D01*
X9091483Y-28228718D01*
X9021282Y-28158517D01*
X8938734Y-28103361D01*
X8847011Y-28065368D01*
X8749640Y-28046000D01*
X8650360Y-28046000D01*
X8552989Y-28065368D01*
X8461266Y-28103361D01*
X8378718Y-28158517D01*
X8308517Y-28228718D01*
X8253361Y-28311266D01*
X8215368Y-28402989D01*
X8196000Y-28500360D01*
X3477000Y-28500360D01*
X3477000Y-24248095D01*
X6573000Y-24248095D01*
X6573000Y-24351905D01*
X6593252Y-24453720D01*
X6632979Y-24549628D01*
X6690652Y-24635943D01*
X6764057Y-24709348D01*
X6850372Y-24767021D01*
X6946280Y-24806748D01*
X7048095Y-24827000D01*
X7151905Y-24827000D01*
X7253720Y-24806748D01*
X7349628Y-24767021D01*
X7435943Y-24709348D01*
X7509348Y-24635943D01*
X7567021Y-24549628D01*
X7606748Y-24453720D01*
X7627000Y-24351905D01*
X7627000Y-24248095D01*
X7606748Y-24146280D01*
X7567021Y-24050372D01*
X7509348Y-23964057D01*
X7435943Y-23890652D01*
X7349628Y-23832979D01*
X7253720Y-23793252D01*
X7151905Y-23773000D01*
X7048095Y-23773000D01*
X6946280Y-23793252D01*
X6850372Y-23832979D01*
X6764057Y-23890652D01*
X6690652Y-23964057D01*
X6632979Y-24050372D01*
X6593252Y-24146280D01*
X6573000Y-24248095D01*
X3477000Y-24248095D01*
X3477000Y-23448095D01*
X5873000Y-23448095D01*
X5873000Y-23551905D01*
X5893252Y-23653720D01*
X5932979Y-23749628D01*
X5990652Y-23835943D01*
X6064057Y-23909348D01*
X6150372Y-23967021D01*
X6246280Y-24006748D01*
X6348095Y-24027000D01*
X6451905Y-24027000D01*
X6553720Y-24006748D01*
X6649628Y-23967021D01*
X6735943Y-23909348D01*
X6809348Y-23835943D01*
X6867021Y-23749628D01*
X6906748Y-23653720D01*
X6927000Y-23551905D01*
X6927000Y-23448095D01*
X6906748Y-23346280D01*
X6867021Y-23250372D01*
X6809348Y-23164057D01*
X6735943Y-23090652D01*
X6649628Y-23032979D01*
X6553720Y-22993252D01*
X6451905Y-22973000D01*
X6348095Y-22973000D01*
X6246280Y-22993252D01*
X6150372Y-23032979D01*
X6064057Y-23090652D01*
X5990652Y-23164057D01*
X5932979Y-23250372D01*
X5893252Y-23346280D01*
X5873000Y-23448095D01*
X3477000Y-23448095D01*
X3477000Y-22600360D01*
X12296000Y-22600360D01*
X12296000Y-22699640D01*
X12315368Y-22797011D01*
X12353361Y-22888734D01*
X12408517Y-22971282D01*
X12478718Y-23041483D01*
X12561266Y-23096639D01*
X12652989Y-23134632D01*
X12750360Y-23154000D01*
X12849640Y-23154000D01*
X12947011Y-23134632D01*
X13038734Y-23096639D01*
X13121282Y-23041483D01*
X13191483Y-22971282D01*
X13246639Y-22888734D01*
X13284632Y-22797011D01*
X13293911Y-22750360D01*
X18146000Y-22750360D01*
X18146000Y-22849640D01*
X18165368Y-22947011D01*
X18203361Y-23038734D01*
X18258517Y-23121282D01*
X18328718Y-23191483D01*
X18411266Y-23246639D01*
X18502989Y-23284632D01*
X18600360Y-23304000D01*
X18699640Y-23304000D01*
X18797011Y-23284632D01*
X18888734Y-23246639D01*
X18971282Y-23191483D01*
X19041483Y-23121282D01*
X19096639Y-23038734D01*
X19134632Y-22947011D01*
X19154000Y-22849640D01*
X19154000Y-22750360D01*
X19134632Y-22652989D01*
X19096639Y-22561266D01*
X19041483Y-22478718D01*
X18971282Y-22408517D01*
X18888734Y-22353361D01*
X18797011Y-22315368D01*
X18699640Y-22296000D01*
X18600360Y-22296000D01*
X18502989Y-22315368D01*
X18411266Y-22353361D01*
X18328718Y-22408517D01*
X18258517Y-22478718D01*
X18203361Y-22561266D01*
X18165368Y-22652989D01*
X18146000Y-22750360D01*
X13293911Y-22750360D01*
X13304000Y-22699640D01*
X13304000Y-22600360D01*
X13284632Y-22502989D01*
X13246639Y-22411266D01*
X13191483Y-22328718D01*
X13121282Y-22258517D01*
X13038734Y-22203361D01*
X12947011Y-22165368D01*
X12849640Y-22146000D01*
X12750360Y-22146000D01*
X12652989Y-22165368D01*
X12561266Y-22203361D01*
X12478718Y-22258517D01*
X12408517Y-22328718D01*
X12353361Y-22411266D01*
X12315368Y-22502989D01*
X12296000Y-22600360D01*
X3477000Y-22600360D01*
X3477000Y-16400360D01*
X17046000Y-16400360D01*
X17046000Y-16499640D01*
X17065368Y-16597011D01*
X17103361Y-16688734D01*
X17158517Y-16771282D01*
X17228718Y-16841483D01*
X17311266Y-16896639D01*
X17402989Y-16934632D01*
X17500360Y-16954000D01*
X17599640Y-16954000D01*
X17697011Y-16934632D01*
X17788734Y-16896639D01*
X17871282Y-16841483D01*
X17941483Y-16771282D01*
X17996639Y-16688734D01*
X18034632Y-16597011D01*
X18054000Y-16499640D01*
X18054000Y-16400360D01*
X18034632Y-16302989D01*
X17996639Y-16211266D01*
X17941483Y-16128718D01*
X17871282Y-16058517D01*
X17788734Y-16003361D01*
X17697011Y-15965368D01*
X17599640Y-15946000D01*
X17500360Y-15946000D01*
X17402989Y-15965368D01*
X17311266Y-16003361D01*
X17228718Y-16058517D01*
X17158517Y-16128718D01*
X17103361Y-16211266D01*
X17065368Y-16302989D01*
X17046000Y-16400360D01*
X3477000Y-16400360D01*
X3477000Y-15102000D01*
X3474560Y-15077224D01*
X3467333Y-15053399D01*
X3377530Y-14836596D01*
X3365794Y-14814639D01*
X3350000Y-14795394D01*
X3154966Y-14600360D01*
X14846000Y-14600360D01*
X14846000Y-14699640D01*
X14865368Y-14797011D01*
X14903361Y-14888734D01*
X14958517Y-14971282D01*
X15028718Y-15041483D01*
X15111266Y-15096639D01*
X15202989Y-15134632D01*
X15300360Y-15154000D01*
X15399640Y-15154000D01*
X15497011Y-15134632D01*
X15588734Y-15096639D01*
X15671282Y-15041483D01*
X15741483Y-14971282D01*
X15796639Y-14888734D01*
X15834632Y-14797011D01*
X15854000Y-14699640D01*
X15854000Y-14600360D01*
X15834632Y-14502989D01*
X15796639Y-14411266D01*
X15741483Y-14328718D01*
X15671282Y-14258517D01*
X15588734Y-14203361D01*
X15497011Y-14165368D01*
X15399640Y-14146000D01*
X15300360Y-14146000D01*
X15202989Y-14165368D01*
X15111266Y-14203361D01*
X15028718Y-14258517D01*
X14958517Y-14328718D01*
X14903361Y-14411266D01*
X14865368Y-14502989D01*
X14846000Y-14600360D01*
X3154966Y-14600360D01*
X1297468Y-12742862D01*
X1227000Y-12572737D01*
X1227000Y-10952263D01*
X1297468Y-10782138D01*
X1382138Y-10697468D01*
X1552263Y-10627000D01*
X2273000Y-10627000D01*
X2273000Y-10676905D01*
G37*
X2273000Y-10676905D02*
X2293252Y-10778720D01*
X2332979Y-10874628D01*
X2390652Y-10960943D01*
X2464057Y-11034348D01*
X2550372Y-11092021D01*
X2646280Y-11131748D01*
X2748095Y-11152000D01*
X2851905Y-11152000D01*
X2953720Y-11131748D01*
X3049628Y-11092021D01*
X3135943Y-11034348D01*
X3209348Y-10960943D01*
X3267021Y-10874628D01*
X3306748Y-10778720D01*
X3327000Y-10676905D01*
X3327000Y-10627000D01*
X3573000Y-10627000D01*
X3573000Y-10676905D01*
X3593252Y-10778720D01*
X3632979Y-10874628D01*
X3690652Y-10960943D01*
X3764057Y-11034348D01*
X3850372Y-11092021D01*
X3946280Y-11131748D01*
X4048095Y-11152000D01*
X4151905Y-11152000D01*
X4253720Y-11131748D01*
X4349628Y-11092021D01*
X4435943Y-11034348D01*
X4509348Y-10960943D01*
X4567021Y-10874628D01*
X4606748Y-10778720D01*
X4627000Y-10676905D01*
X4627000Y-10627000D01*
X4934564Y-10627000D01*
X4990652Y-10710943D01*
X5064057Y-10784348D01*
X5150372Y-10842021D01*
X5246280Y-10881748D01*
X5348095Y-10902000D01*
X5451905Y-10902000D01*
X5553720Y-10881748D01*
X5649628Y-10842021D01*
X5735943Y-10784348D01*
X5809348Y-10710943D01*
X5865436Y-10627000D01*
X6234564Y-10627000D01*
X6290652Y-10710943D01*
X6364057Y-10784348D01*
X6450372Y-10842021D01*
X6546280Y-10881748D01*
X6648095Y-10902000D01*
X6751905Y-10902000D01*
X6853720Y-10881748D01*
X6949628Y-10842021D01*
X7035943Y-10784348D01*
X7109348Y-10710943D01*
X7165436Y-10627000D01*
X7534564Y-10627000D01*
X7590652Y-10710943D01*
X7664057Y-10784348D01*
X7750372Y-10842021D01*
X7846280Y-10881748D01*
X7948095Y-10902000D01*
X8051905Y-10902000D01*
X8153720Y-10881748D01*
X8249628Y-10842021D01*
X8335943Y-10784348D01*
X8409348Y-10710943D01*
X8465436Y-10627000D01*
X8834564Y-10627000D01*
X8890652Y-10710943D01*
X8964057Y-10784348D01*
X9050372Y-10842021D01*
X9146280Y-10881748D01*
X9248095Y-10902000D01*
X9351905Y-10902000D01*
X9453720Y-10881748D01*
X9549628Y-10842021D01*
X9635943Y-10784348D01*
X9709348Y-10710943D01*
X9765436Y-10627000D01*
X10134564Y-10627000D01*
X10190652Y-10710943D01*
X10264057Y-10784348D01*
X10350372Y-10842021D01*
X10446280Y-10881748D01*
X10548095Y-10902000D01*
X10651905Y-10902000D01*
X10753720Y-10881748D01*
X10849628Y-10842021D01*
X10935943Y-10784348D01*
X11009348Y-10710943D01*
X11065436Y-10627000D01*
X11434564Y-10627000D01*
X11490652Y-10710943D01*
X11564057Y-10784348D01*
X11650372Y-10842021D01*
X11746280Y-10881748D01*
X11848095Y-10902000D01*
X11951905Y-10902000D01*
X12053720Y-10881748D01*
X12149628Y-10842021D01*
X12235943Y-10784348D01*
X12309348Y-10710943D01*
X12365436Y-10627000D01*
X12734564Y-10627000D01*
X12790652Y-10710943D01*
X12864057Y-10784348D01*
X12950372Y-10842021D01*
X13046280Y-10881748D01*
X13148095Y-10902000D01*
X13251905Y-10902000D01*
X13353720Y-10881748D01*
X13449628Y-10842021D01*
X13535943Y-10784348D01*
X13609348Y-10710943D01*
X13665436Y-10627000D01*
X14797737Y-10627000D01*
X14967862Y-10697468D01*
X15838842Y-11568448D01*
X15823000Y-11648095D01*
X15823000Y-11751905D01*
X15843252Y-11853720D01*
X15882979Y-11949628D01*
X15940652Y-12035943D01*
X16014057Y-12109348D01*
X16100372Y-12167021D01*
X16196280Y-12206748D01*
X16298095Y-12227000D01*
X16401905Y-12227000D01*
X16481552Y-12211158D01*
X19127532Y-14857138D01*
X19198000Y-15027263D01*
X19198000Y-25673000D01*
X19200440Y-25697776D01*
X19207667Y-25721601D01*
X19223001Y-25758620D01*
X19223001Y-26181478D01*
X19221177Y-26200000D01*
X19228455Y-26273905D01*
X19250012Y-26344969D01*
X19285020Y-26410463D01*
X19320326Y-26453484D01*
X19320329Y-26453487D01*
X19332132Y-26467869D01*
X19346514Y-26479672D01*
X24739421Y-31872579D01*
X24722011Y-31865368D01*
X24624640Y-31846000D01*
X24525360Y-31846000D01*
X24427989Y-31865368D01*
X24336266Y-31903361D01*
X24253718Y-31958517D01*
X24183517Y-32028718D01*
X24128361Y-32111266D01*
X24090368Y-32202989D01*
X24071000Y-32300360D01*
X24071000Y-32399640D01*
X24090368Y-32497011D01*
X24128361Y-32588734D01*
X24183517Y-32671282D01*
X24253718Y-32741483D01*
X24336266Y-32796639D01*
X24427989Y-32834632D01*
X24525360Y-32854000D01*
X24624640Y-32854000D01*
X24722011Y-32834632D01*
X24813734Y-32796639D01*
X24896282Y-32741483D01*
X24966483Y-32671282D01*
X25021639Y-32588734D01*
X25059632Y-32497011D01*
X25079000Y-32399640D01*
X25079000Y-32300360D01*
X25059632Y-32202989D01*
X25052421Y-32185579D01*
X25648000Y-32781158D01*
X25648000Y-36447737D01*
X25577532Y-36617862D01*
X25442862Y-36752532D01*
X25272737Y-36823000D01*
X23099007Y-36823000D01*
X22959702Y-36765298D01*
X22902000Y-36625993D01*
X22902000Y-32677000D01*
X22899560Y-32652224D01*
X22892333Y-32628399D01*
X22802530Y-32411596D01*
X22790794Y-32389639D01*
X22775000Y-32370394D01*
X22729966Y-32325360D01*
X22921000Y-32325360D01*
X22921000Y-32424640D01*
X22940368Y-32522011D01*
X22978361Y-32613734D01*
X23033517Y-32696282D01*
X23103718Y-32766483D01*
X23186266Y-32821639D01*
X23277989Y-32859632D01*
X23375360Y-32879000D01*
X23474640Y-32879000D01*
X23572011Y-32859632D01*
X23663734Y-32821639D01*
X23746282Y-32766483D01*
X23816483Y-32696282D01*
X23871639Y-32613734D01*
X23909632Y-32522011D01*
X23929000Y-32424640D01*
X23929000Y-32325360D01*
X23909632Y-32227989D01*
X23871639Y-32136266D01*
X23816483Y-32053718D01*
X23746282Y-31983517D01*
X23663734Y-31928361D01*
X23572011Y-31890368D01*
X23474640Y-31871000D01*
X23375360Y-31871000D01*
X23277989Y-31890368D01*
X23186266Y-31928361D01*
X23103718Y-31983517D01*
X23033517Y-32053718D01*
X22978361Y-32136266D01*
X22940368Y-32227989D01*
X22921000Y-32325360D01*
X22729966Y-32325360D01*
X20779606Y-30375000D01*
X20760360Y-30359206D01*
X20738404Y-30347470D01*
X20521601Y-30257667D01*
X20497777Y-30250440D01*
X20473000Y-30248000D01*
X11435448Y-30248000D01*
X11438734Y-30246639D01*
X11521282Y-30191483D01*
X11591483Y-30121282D01*
X11646639Y-30038734D01*
X11684632Y-29947011D01*
X11704000Y-29849640D01*
X11704000Y-29750360D01*
X11684632Y-29652989D01*
X11646639Y-29561266D01*
X11591483Y-29478718D01*
X11521282Y-29408517D01*
X11438734Y-29353361D01*
X11347011Y-29315368D01*
X11249640Y-29296000D01*
X11150360Y-29296000D01*
X11052989Y-29315368D01*
X10961266Y-29353361D01*
X10878718Y-29408517D01*
X10808517Y-29478718D01*
X10753361Y-29561266D01*
X10715368Y-29652989D01*
X10696000Y-29750360D01*
X10696000Y-29849640D01*
X10715368Y-29947011D01*
X10753361Y-30038734D01*
X10808517Y-30121282D01*
X10878718Y-30191483D01*
X10961266Y-30246639D01*
X10964552Y-30248000D01*
X10185448Y-30248000D01*
X10188734Y-30246639D01*
X10271282Y-30191483D01*
X10341483Y-30121282D01*
X10396639Y-30038734D01*
X10434632Y-29947011D01*
X10454000Y-29849640D01*
X10454000Y-29750360D01*
X10434632Y-29652989D01*
X10396639Y-29561266D01*
X10341483Y-29478718D01*
X10271282Y-29408517D01*
X10188734Y-29353361D01*
X10097011Y-29315368D01*
X9999640Y-29296000D01*
X9900360Y-29296000D01*
X9802989Y-29315368D01*
X9711266Y-29353361D01*
X9628718Y-29408517D01*
X9558517Y-29478718D01*
X9503361Y-29561266D01*
X9465368Y-29652989D01*
X9446000Y-29750360D01*
X9446000Y-29849640D01*
X9465368Y-29947011D01*
X9503361Y-30038734D01*
X9558517Y-30121282D01*
X9628718Y-30191483D01*
X9711266Y-30246639D01*
X9714552Y-30248000D01*
X8935448Y-30248000D01*
X8938734Y-30246639D01*
X9021282Y-30191483D01*
X9091483Y-30121282D01*
X9146639Y-30038734D01*
X9184632Y-29947011D01*
X9204000Y-29849640D01*
X9204000Y-29750360D01*
X9184632Y-29652989D01*
X9146639Y-29561266D01*
X9091483Y-29478718D01*
X9021282Y-29408517D01*
X8938734Y-29353361D01*
X8847011Y-29315368D01*
X8749640Y-29296000D01*
X8650360Y-29296000D01*
X8552989Y-29315368D01*
X8461266Y-29353361D01*
X8378718Y-29408517D01*
X8308517Y-29478718D01*
X8253361Y-29561266D01*
X8215368Y-29652989D01*
X8196000Y-29750360D01*
X8196000Y-29849640D01*
X8215368Y-29947011D01*
X8253361Y-30038734D01*
X8308517Y-30121282D01*
X8378718Y-30191483D01*
X8461266Y-30246639D01*
X8464552Y-30248000D01*
X4102263Y-30248000D01*
X3932138Y-30177532D01*
X3547468Y-29792862D01*
X3477000Y-29622737D01*
X3477000Y-28500360D01*
X8196000Y-28500360D01*
X8196000Y-28599640D01*
X8215368Y-28697011D01*
X8253361Y-28788734D01*
X8308517Y-28871282D01*
X8378718Y-28941483D01*
X8461266Y-28996639D01*
X8552989Y-29034632D01*
X8650360Y-29054000D01*
X8749640Y-29054000D01*
X8847011Y-29034632D01*
X8938734Y-28996639D01*
X9021282Y-28941483D01*
X9091483Y-28871282D01*
X9146639Y-28788734D01*
X9184632Y-28697011D01*
X9204000Y-28599640D01*
X9204000Y-28500360D01*
X9446000Y-28500360D01*
X9446000Y-28599640D01*
X9465368Y-28697011D01*
X9503361Y-28788734D01*
X9558517Y-28871282D01*
X9628718Y-28941483D01*
X9711266Y-28996639D01*
X9802989Y-29034632D01*
X9900360Y-29054000D01*
X9999640Y-29054000D01*
X10097011Y-29034632D01*
X10188734Y-28996639D01*
X10271282Y-28941483D01*
X10341483Y-28871282D01*
X10396639Y-28788734D01*
X10434632Y-28697011D01*
X10454000Y-28599640D01*
X10454000Y-28500360D01*
X10696000Y-28500360D01*
X10696000Y-28599640D01*
X10715368Y-28697011D01*
X10753361Y-28788734D01*
X10808517Y-28871282D01*
X10878718Y-28941483D01*
X10961266Y-28996639D01*
X11052989Y-29034632D01*
X11150360Y-29054000D01*
X11249640Y-29054000D01*
X11347011Y-29034632D01*
X11438734Y-28996639D01*
X11521282Y-28941483D01*
X11591483Y-28871282D01*
X11646639Y-28788734D01*
X11684632Y-28697011D01*
X11704000Y-28599640D01*
X11704000Y-28500360D01*
X11684632Y-28402989D01*
X11646639Y-28311266D01*
X11591483Y-28228718D01*
X11521282Y-28158517D01*
X11438734Y-28103361D01*
X11347011Y-28065368D01*
X11249640Y-28046000D01*
X11150360Y-28046000D01*
X11052989Y-28065368D01*
X10961266Y-28103361D01*
X10878718Y-28158517D01*
X10808517Y-28228718D01*
X10753361Y-28311266D01*
X10715368Y-28402989D01*
X10696000Y-28500360D01*
X10454000Y-28500360D01*
X10434632Y-28402989D01*
X10396639Y-28311266D01*
X10341483Y-28228718D01*
X10271282Y-28158517D01*
X10188734Y-28103361D01*
X10097011Y-28065368D01*
X9999640Y-28046000D01*
X9900360Y-28046000D01*
X9802989Y-28065368D01*
X9711266Y-28103361D01*
X9628718Y-28158517D01*
X9558517Y-28228718D01*
X9503361Y-28311266D01*
X9465368Y-28402989D01*
X9446000Y-28500360D01*
X9204000Y-28500360D01*
X9184632Y-28402989D01*
X9146639Y-28311266D01*
X9091483Y-28228718D01*
X9021282Y-28158517D01*
X8938734Y-28103361D01*
X8847011Y-28065368D01*
X8749640Y-28046000D01*
X8650360Y-28046000D01*
X8552989Y-28065368D01*
X8461266Y-28103361D01*
X8378718Y-28158517D01*
X8308517Y-28228718D01*
X8253361Y-28311266D01*
X8215368Y-28402989D01*
X8196000Y-28500360D01*
X3477000Y-28500360D01*
X3477000Y-24248095D01*
X6573000Y-24248095D01*
X6573000Y-24351905D01*
X6593252Y-24453720D01*
X6632979Y-24549628D01*
X6690652Y-24635943D01*
X6764057Y-24709348D01*
X6850372Y-24767021D01*
X6946280Y-24806748D01*
X7048095Y-24827000D01*
X7151905Y-24827000D01*
X7253720Y-24806748D01*
X7349628Y-24767021D01*
X7435943Y-24709348D01*
X7509348Y-24635943D01*
X7567021Y-24549628D01*
X7606748Y-24453720D01*
X7627000Y-24351905D01*
X7627000Y-24248095D01*
X7606748Y-24146280D01*
X7567021Y-24050372D01*
X7509348Y-23964057D01*
X7435943Y-23890652D01*
X7349628Y-23832979D01*
X7253720Y-23793252D01*
X7151905Y-23773000D01*
X7048095Y-23773000D01*
X6946280Y-23793252D01*
X6850372Y-23832979D01*
X6764057Y-23890652D01*
X6690652Y-23964057D01*
X6632979Y-24050372D01*
X6593252Y-24146280D01*
X6573000Y-24248095D01*
X3477000Y-24248095D01*
X3477000Y-23448095D01*
X5873000Y-23448095D01*
X5873000Y-23551905D01*
X5893252Y-23653720D01*
X5932979Y-23749628D01*
X5990652Y-23835943D01*
X6064057Y-23909348D01*
X6150372Y-23967021D01*
X6246280Y-24006748D01*
X6348095Y-24027000D01*
X6451905Y-24027000D01*
X6553720Y-24006748D01*
X6649628Y-23967021D01*
X6735943Y-23909348D01*
X6809348Y-23835943D01*
X6867021Y-23749628D01*
X6906748Y-23653720D01*
X6927000Y-23551905D01*
X6927000Y-23448095D01*
X6906748Y-23346280D01*
X6867021Y-23250372D01*
X6809348Y-23164057D01*
X6735943Y-23090652D01*
X6649628Y-23032979D01*
X6553720Y-22993252D01*
X6451905Y-22973000D01*
X6348095Y-22973000D01*
X6246280Y-22993252D01*
X6150372Y-23032979D01*
X6064057Y-23090652D01*
X5990652Y-23164057D01*
X5932979Y-23250372D01*
X5893252Y-23346280D01*
X5873000Y-23448095D01*
X3477000Y-23448095D01*
X3477000Y-22600360D01*
X12296000Y-22600360D01*
X12296000Y-22699640D01*
X12315368Y-22797011D01*
X12353361Y-22888734D01*
X12408517Y-22971282D01*
X12478718Y-23041483D01*
X12561266Y-23096639D01*
X12652989Y-23134632D01*
X12750360Y-23154000D01*
X12849640Y-23154000D01*
X12947011Y-23134632D01*
X13038734Y-23096639D01*
X13121282Y-23041483D01*
X13191483Y-22971282D01*
X13246639Y-22888734D01*
X13284632Y-22797011D01*
X13293911Y-22750360D01*
X18146000Y-22750360D01*
X18146000Y-22849640D01*
X18165368Y-22947011D01*
X18203361Y-23038734D01*
X18258517Y-23121282D01*
X18328718Y-23191483D01*
X18411266Y-23246639D01*
X18502989Y-23284632D01*
X18600360Y-23304000D01*
X18699640Y-23304000D01*
X18797011Y-23284632D01*
X18888734Y-23246639D01*
X18971282Y-23191483D01*
X19041483Y-23121282D01*
X19096639Y-23038734D01*
X19134632Y-22947011D01*
X19154000Y-22849640D01*
X19154000Y-22750360D01*
X19134632Y-22652989D01*
X19096639Y-22561266D01*
X19041483Y-22478718D01*
X18971282Y-22408517D01*
X18888734Y-22353361D01*
X18797011Y-22315368D01*
X18699640Y-22296000D01*
X18600360Y-22296000D01*
X18502989Y-22315368D01*
X18411266Y-22353361D01*
X18328718Y-22408517D01*
X18258517Y-22478718D01*
X18203361Y-22561266D01*
X18165368Y-22652989D01*
X18146000Y-22750360D01*
X13293911Y-22750360D01*
X13304000Y-22699640D01*
X13304000Y-22600360D01*
X13284632Y-22502989D01*
X13246639Y-22411266D01*
X13191483Y-22328718D01*
X13121282Y-22258517D01*
X13038734Y-22203361D01*
X12947011Y-22165368D01*
X12849640Y-22146000D01*
X12750360Y-22146000D01*
X12652989Y-22165368D01*
X12561266Y-22203361D01*
X12478718Y-22258517D01*
X12408517Y-22328718D01*
X12353361Y-22411266D01*
X12315368Y-22502989D01*
X12296000Y-22600360D01*
X3477000Y-22600360D01*
X3477000Y-16400360D01*
X17046000Y-16400360D01*
X17046000Y-16499640D01*
X17065368Y-16597011D01*
X17103361Y-16688734D01*
X17158517Y-16771282D01*
X17228718Y-16841483D01*
X17311266Y-16896639D01*
X17402989Y-16934632D01*
X17500360Y-16954000D01*
X17599640Y-16954000D01*
X17697011Y-16934632D01*
X17788734Y-16896639D01*
X17871282Y-16841483D01*
X17941483Y-16771282D01*
X17996639Y-16688734D01*
X18034632Y-16597011D01*
X18054000Y-16499640D01*
X18054000Y-16400360D01*
X18034632Y-16302989D01*
X17996639Y-16211266D01*
X17941483Y-16128718D01*
X17871282Y-16058517D01*
X17788734Y-16003361D01*
X17697011Y-15965368D01*
X17599640Y-15946000D01*
X17500360Y-15946000D01*
X17402989Y-15965368D01*
X17311266Y-16003361D01*
X17228718Y-16058517D01*
X17158517Y-16128718D01*
X17103361Y-16211266D01*
X17065368Y-16302989D01*
X17046000Y-16400360D01*
X3477000Y-16400360D01*
X3477000Y-15102000D01*
X3474560Y-15077224D01*
X3467333Y-15053399D01*
X3377530Y-14836596D01*
X3365794Y-14814639D01*
X3350000Y-14795394D01*
X3154966Y-14600360D01*
X14846000Y-14600360D01*
X14846000Y-14699640D01*
X14865368Y-14797011D01*
X14903361Y-14888734D01*
X14958517Y-14971282D01*
X15028718Y-15041483D01*
X15111266Y-15096639D01*
X15202989Y-15134632D01*
X15300360Y-15154000D01*
X15399640Y-15154000D01*
X15497011Y-15134632D01*
X15588734Y-15096639D01*
X15671282Y-15041483D01*
X15741483Y-14971282D01*
X15796639Y-14888734D01*
X15834632Y-14797011D01*
X15854000Y-14699640D01*
X15854000Y-14600360D01*
X15834632Y-14502989D01*
X15796639Y-14411266D01*
X15741483Y-14328718D01*
X15671282Y-14258517D01*
X15588734Y-14203361D01*
X15497011Y-14165368D01*
X15399640Y-14146000D01*
X15300360Y-14146000D01*
X15202989Y-14165368D01*
X15111266Y-14203361D01*
X15028718Y-14258517D01*
X14958517Y-14328718D01*
X14903361Y-14411266D01*
X14865368Y-14502989D01*
X14846000Y-14600360D01*
X3154966Y-14600360D01*
X1297468Y-12742862D01*
X1227000Y-12572737D01*
X1227000Y-10952263D01*
X1297468Y-10782138D01*
X1382138Y-10697468D01*
X1552263Y-10627000D01*
X2273000Y-10627000D01*
X2273000Y-10676905D01*
M02*
