G04 #@! TF.GenerationSoftware,KiCad,Pcbnew,(5.1.5)-3*
G04 #@! TF.CreationDate,2021-10-23T00:21:41+02:00*
G04 #@! TF.ProjectId,riser leopard 2OU Oculink,72697365-7220-46c6-956f-706172642032,rev?*
G04 #@! TF.SameCoordinates,PX4d4b990PY36d6160*
G04 #@! TF.FileFunction,Other,Fab,Bot*
%FSLAX46Y46*%
G04 Gerber Fmt 4.6, Leading zero omitted, Abs format (unit mm)*
G04 Created by KiCad (PCBNEW (5.1.5)-3) date 2021-10-23 00:21:41*
%MOMM*%
%LPD*%
G04 APERTURE LIST*
%ADD10C,0.150000*%
G04 APERTURE END LIST*
D10*
X76251190Y18822620D02*
X75632142Y18822620D01*
X75965476Y18441667D01*
X75822619Y18441667D01*
X75727380Y18394048D01*
X75679761Y18346429D01*
X75632142Y18251191D01*
X75632142Y18013096D01*
X75679761Y17917858D01*
X75727380Y17870239D01*
X75822619Y17822620D01*
X76108333Y17822620D01*
X76203571Y17870239D01*
X76251190Y17917858D01*
X75203571Y17917858D02*
X75155952Y17870239D01*
X75203571Y17822620D01*
X75251190Y17870239D01*
X75203571Y17917858D01*
X75203571Y17822620D01*
X74822619Y18822620D02*
X74203571Y18822620D01*
X74536904Y18441667D01*
X74394047Y18441667D01*
X74298809Y18394048D01*
X74251190Y18346429D01*
X74203571Y18251191D01*
X74203571Y18013096D01*
X74251190Y17917858D01*
X74298809Y17870239D01*
X74394047Y17822620D01*
X74679761Y17822620D01*
X74775000Y17870239D01*
X74822619Y17917858D01*
X73917857Y18822620D02*
X73584523Y17822620D01*
X73251190Y18822620D01*
X76036904Y15822620D02*
X75465476Y15822620D01*
X75751190Y14822620D02*
X75751190Y15822620D01*
X75132142Y14822620D02*
X75132142Y15822620D01*
X74751190Y15822620D01*
X74655952Y15775000D01*
X74608333Y15727381D01*
X74560714Y15632143D01*
X74560714Y15489286D01*
X74608333Y15394048D01*
X74655952Y15346429D01*
X74751190Y15298810D01*
X75132142Y15298810D01*
X74227380Y15822620D02*
X73560714Y15822620D01*
X73989285Y14822620D01*
M02*
