G04 #@! TF.GenerationSoftware,KiCad,Pcbnew,(5.1.5)-3*
G04 #@! TF.CreationDate,2021-10-23T00:21:41+02:00*
G04 #@! TF.ProjectId,riser leopard 2OU Oculink,72697365-7220-46c6-956f-706172642032,rev?*
G04 #@! TF.SameCoordinates,PX4d4b990PY36d6160*
G04 #@! TF.FileFunction,Legend,Top*
G04 #@! TF.FilePolarity,Positive*
%FSLAX46Y46*%
G04 Gerber Fmt 4.6, Leading zero omitted, Abs format (unit mm)*
G04 Created by KiCad (PCBNEW (5.1.5)-3) date 2021-10-23 00:21:41*
%MOMM*%
%LPD*%
G04 APERTURE LIST*
%ADD10C,0.150000*%
%ADD11C,0.120000*%
%ADD12C,0.200000*%
%ADD13C,0.100000*%
G04 APERTURE END LIST*
D10*
X59642857Y24272620D02*
X59309523Y24748810D01*
X59071428Y24272620D02*
X59071428Y25272620D01*
X59452380Y25272620D01*
X59547619Y25225000D01*
X59595238Y25177381D01*
X59642857Y25082143D01*
X59642857Y24939286D01*
X59595238Y24844048D01*
X59547619Y24796429D01*
X59452380Y24748810D01*
X59071428Y24748810D01*
X60071428Y24272620D02*
X60071428Y24939286D01*
X60071428Y25272620D02*
X60023809Y25225000D01*
X60071428Y25177381D01*
X60119047Y25225000D01*
X60071428Y25272620D01*
X60071428Y25177381D01*
X60500000Y24320239D02*
X60595238Y24272620D01*
X60785714Y24272620D01*
X60880952Y24320239D01*
X60928571Y24415477D01*
X60928571Y24463096D01*
X60880952Y24558334D01*
X60785714Y24605953D01*
X60642857Y24605953D01*
X60547619Y24653572D01*
X60500000Y24748810D01*
X60500000Y24796429D01*
X60547619Y24891667D01*
X60642857Y24939286D01*
X60785714Y24939286D01*
X60880952Y24891667D01*
X61738095Y24320239D02*
X61642857Y24272620D01*
X61452380Y24272620D01*
X61357142Y24320239D01*
X61309523Y24415477D01*
X61309523Y24796429D01*
X61357142Y24891667D01*
X61452380Y24939286D01*
X61642857Y24939286D01*
X61738095Y24891667D01*
X61785714Y24796429D01*
X61785714Y24701191D01*
X61309523Y24605953D01*
X62214285Y24272620D02*
X62214285Y24939286D01*
X62214285Y24748810D02*
X62261904Y24844048D01*
X62309523Y24891667D01*
X62404761Y24939286D01*
X62500000Y24939286D01*
X64071428Y24272620D02*
X63595238Y24272620D01*
X63595238Y25272620D01*
X64785714Y24320239D02*
X64690476Y24272620D01*
X64500000Y24272620D01*
X64404761Y24320239D01*
X64357142Y24415477D01*
X64357142Y24796429D01*
X64404761Y24891667D01*
X64500000Y24939286D01*
X64690476Y24939286D01*
X64785714Y24891667D01*
X64833333Y24796429D01*
X64833333Y24701191D01*
X64357142Y24605953D01*
X65404761Y24272620D02*
X65309523Y24320239D01*
X65261904Y24367858D01*
X65214285Y24463096D01*
X65214285Y24748810D01*
X65261904Y24844048D01*
X65309523Y24891667D01*
X65404761Y24939286D01*
X65547619Y24939286D01*
X65642857Y24891667D01*
X65690476Y24844048D01*
X65738095Y24748810D01*
X65738095Y24463096D01*
X65690476Y24367858D01*
X65642857Y24320239D01*
X65547619Y24272620D01*
X65404761Y24272620D01*
X66166666Y24939286D02*
X66166666Y23939286D01*
X66166666Y24891667D02*
X66261904Y24939286D01*
X66452380Y24939286D01*
X66547619Y24891667D01*
X66595238Y24844048D01*
X66642857Y24748810D01*
X66642857Y24463096D01*
X66595238Y24367858D01*
X66547619Y24320239D01*
X66452380Y24272620D01*
X66261904Y24272620D01*
X66166666Y24320239D01*
X67500000Y24272620D02*
X67500000Y24796429D01*
X67452380Y24891667D01*
X67357142Y24939286D01*
X67166666Y24939286D01*
X67071428Y24891667D01*
X67500000Y24320239D02*
X67404761Y24272620D01*
X67166666Y24272620D01*
X67071428Y24320239D01*
X67023809Y24415477D01*
X67023809Y24510715D01*
X67071428Y24605953D01*
X67166666Y24653572D01*
X67404761Y24653572D01*
X67500000Y24701191D01*
X67976190Y24272620D02*
X67976190Y24939286D01*
X67976190Y24748810D02*
X68023809Y24844048D01*
X68071428Y24891667D01*
X68166666Y24939286D01*
X68261904Y24939286D01*
X69023809Y24272620D02*
X69023809Y25272620D01*
X69023809Y24320239D02*
X68928571Y24272620D01*
X68738095Y24272620D01*
X68642857Y24320239D01*
X68595238Y24367858D01*
X68547619Y24463096D01*
X68547619Y24748810D01*
X68595238Y24844048D01*
X68642857Y24891667D01*
X68738095Y24939286D01*
X68928571Y24939286D01*
X69023809Y24891667D01*
X70452380Y25272620D02*
X70642857Y25272620D01*
X70738095Y25225000D01*
X70833333Y25129762D01*
X70880952Y24939286D01*
X70880952Y24605953D01*
X70833333Y24415477D01*
X70738095Y24320239D01*
X70642857Y24272620D01*
X70452380Y24272620D01*
X70357142Y24320239D01*
X70261904Y24415477D01*
X70214285Y24605953D01*
X70214285Y24939286D01*
X70261904Y25129762D01*
X70357142Y25225000D01*
X70452380Y25272620D01*
X71738095Y24320239D02*
X71642857Y24272620D01*
X71452380Y24272620D01*
X71357142Y24320239D01*
X71309523Y24367858D01*
X71261904Y24463096D01*
X71261904Y24748810D01*
X71309523Y24844048D01*
X71357142Y24891667D01*
X71452380Y24939286D01*
X71642857Y24939286D01*
X71738095Y24891667D01*
X72595238Y24939286D02*
X72595238Y24272620D01*
X72166666Y24939286D02*
X72166666Y24415477D01*
X72214285Y24320239D01*
X72309523Y24272620D01*
X72452380Y24272620D01*
X72547619Y24320239D01*
X72595238Y24367858D01*
X73214285Y24272620D02*
X73119047Y24320239D01*
X73071428Y24415477D01*
X73071428Y25272620D01*
X73595238Y24272620D02*
X73595238Y24939286D01*
X73595238Y25272620D02*
X73547619Y25225000D01*
X73595238Y25177381D01*
X73642857Y25225000D01*
X73595238Y25272620D01*
X73595238Y25177381D01*
X74071428Y24939286D02*
X74071428Y24272620D01*
X74071428Y24844048D02*
X74119047Y24891667D01*
X74214285Y24939286D01*
X74357142Y24939286D01*
X74452380Y24891667D01*
X74500000Y24796429D01*
X74500000Y24272620D01*
X74976190Y24272620D02*
X74976190Y25272620D01*
X75071428Y24653572D02*
X75357142Y24272620D01*
X75357142Y24939286D02*
X74976190Y24558334D01*
X76547619Y24272620D02*
X76547619Y24939286D01*
X76547619Y24748810D02*
X76595238Y24844048D01*
X76642857Y24891667D01*
X76738095Y24939286D01*
X76833333Y24939286D01*
X77547619Y24320239D02*
X77452380Y24272620D01*
X77261904Y24272620D01*
X77166666Y24320239D01*
X77119047Y24415477D01*
X77119047Y24796429D01*
X77166666Y24891667D01*
X77261904Y24939286D01*
X77452380Y24939286D01*
X77547619Y24891667D01*
X77595238Y24796429D01*
X77595238Y24701191D01*
X77119047Y24605953D01*
X77928571Y24939286D02*
X78166666Y24272620D01*
X78404761Y24939286D01*
X79500000Y24558334D02*
X79976190Y24558334D01*
X79404761Y24272620D02*
X79738095Y25272620D01*
X80071428Y24272620D01*
D11*
X52780000Y-25950000D02*
X52780000Y-25450000D01*
X51720000Y-25450000D02*
X51720000Y-25950000D01*
X11550000Y2975000D02*
X11550000Y2475000D01*
X10750000Y2475000D02*
X10750000Y2975000D01*
X19900000Y1875000D02*
X19400000Y1875000D01*
X19400000Y2675000D02*
X19900000Y2675000D01*
X18525000Y-1475000D02*
X18525000Y-975000D01*
X19325000Y-975000D02*
X19325000Y-1475000D01*
X19120000Y-24850000D02*
X19120000Y-24350000D01*
X18180000Y-24350000D02*
X18180000Y-24850000D01*
X19425000Y4225000D02*
X18925000Y4225000D01*
X18925000Y5025000D02*
X19425000Y5025000D01*
X13375000Y-5150000D02*
X13375000Y-4650000D01*
X14175000Y-4650000D02*
X14175000Y-5150000D01*
X20000000Y-1475000D02*
X20000000Y-975000D01*
X20800000Y-975000D02*
X20800000Y-1475000D01*
X14600000Y5150000D02*
X14600000Y5650000D01*
X15400000Y5650000D02*
X15400000Y5150000D01*
X15375000Y-4650000D02*
X15375000Y-5150000D01*
X14575000Y-5150000D02*
X14575000Y-4650000D01*
X10470000Y2475000D02*
X10470000Y2975000D01*
X9530000Y2975000D02*
X9530000Y2475000D01*
X16620000Y-5150000D02*
X16620000Y-4650000D01*
X15680000Y-4650000D02*
X15680000Y-5150000D01*
X9320000Y2475000D02*
X9320000Y2975000D01*
X8380000Y2975000D02*
X8380000Y2475000D01*
X16830000Y-4650000D02*
X16830000Y-5150000D01*
X17770000Y-5150000D02*
X17770000Y-4650000D01*
X42875000Y-20905000D02*
X42375000Y-20905000D01*
X42375000Y-21845000D02*
X42875000Y-21845000D01*
X47100000Y-21900000D02*
X47100000Y-21400000D01*
X47900000Y-21400000D02*
X47900000Y-21900000D01*
X47450000Y-12000000D02*
X47450000Y-12500000D01*
X46650000Y-12500000D02*
X46650000Y-12000000D01*
X42375000Y-23045000D02*
X42875000Y-23045000D01*
X42875000Y-22105000D02*
X42375000Y-22105000D01*
X50850000Y-12900000D02*
X51350000Y-12900000D01*
X51350000Y-13700000D02*
X50850000Y-13700000D01*
X46300000Y-12850000D02*
X46300000Y-13350000D01*
X45500000Y-13350000D02*
X45500000Y-12850000D01*
X55700000Y-17300000D02*
X55200000Y-17300000D01*
X55200000Y-16500000D02*
X55700000Y-16500000D01*
X49550000Y-12300000D02*
X49050000Y-12300000D01*
X49050000Y-11500000D02*
X49550000Y-11500000D01*
X54730000Y-22075000D02*
X54730000Y-22575000D01*
X55670000Y-22575000D02*
X55670000Y-22075000D01*
X43100000Y-17200000D02*
X42600000Y-17200000D01*
X42600000Y-16400000D02*
X43100000Y-16400000D01*
X51950000Y-13250000D02*
X51950000Y-12750000D01*
X52750000Y-12750000D02*
X52750000Y-13250000D01*
X54470000Y-22575000D02*
X54470000Y-22075000D01*
X53530000Y-22075000D02*
X53530000Y-22575000D01*
X4330000Y15900000D02*
X4330000Y15400000D01*
X5270000Y15400000D02*
X5270000Y15900000D01*
X6150000Y23950000D02*
X6150000Y23250000D01*
X4950000Y23250000D02*
X4950000Y23950000D01*
X6470000Y15400000D02*
X6470000Y15900000D01*
X5530000Y15900000D02*
X5530000Y15400000D01*
X6450000Y23250000D02*
X6450000Y23950000D01*
X7650000Y23950000D02*
X7650000Y23250000D01*
X6730000Y15900000D02*
X6730000Y15400000D01*
X7670000Y15400000D02*
X7670000Y15900000D01*
X9150000Y23950000D02*
X9150000Y23250000D01*
X7950000Y23250000D02*
X7950000Y23950000D01*
X9430000Y23850000D02*
X9430000Y23350000D01*
X10370000Y23350000D02*
X10370000Y23850000D01*
X22955000Y-33475000D02*
X22955000Y-33975000D01*
X23895000Y-33975000D02*
X23895000Y-33475000D01*
X24105000Y-33475000D02*
X24105000Y-33975000D01*
X25045000Y-33975000D02*
X25045000Y-33475000D01*
X31300000Y-40750000D02*
X31300000Y-40250000D01*
X32100000Y-40250000D02*
X32100000Y-40750000D01*
X36300000Y-40750000D02*
X36300000Y-40250000D01*
X37100000Y-40250000D02*
X37100000Y-40750000D01*
X40300000Y-40750000D02*
X40300000Y-40250000D01*
X41100000Y-40250000D02*
X41100000Y-40750000D01*
X45100000Y-40250000D02*
X45100000Y-40750000D01*
X44300000Y-40750000D02*
X44300000Y-40250000D01*
X33100000Y-40250000D02*
X33100000Y-40750000D01*
X32300000Y-40750000D02*
X32300000Y-40250000D01*
X38100000Y-40250000D02*
X38100000Y-40750000D01*
X37300000Y-40750000D02*
X37300000Y-40250000D01*
X41300000Y-40750000D02*
X41300000Y-40250000D01*
X42100000Y-40250000D02*
X42100000Y-40750000D01*
X45300000Y-40750000D02*
X45300000Y-40250000D01*
X46100000Y-40250000D02*
X46100000Y-40750000D01*
X68100000Y-40250000D02*
X68100000Y-40750000D01*
X67300000Y-40750000D02*
X67300000Y-40250000D01*
X71300000Y-40750000D02*
X71300000Y-40250000D01*
X72100000Y-40250000D02*
X72100000Y-40750000D01*
X75300000Y-40750000D02*
X75300000Y-40250000D01*
X76100000Y-40250000D02*
X76100000Y-40750000D01*
X79300000Y-40750000D02*
X79300000Y-40250000D01*
X80100000Y-40250000D02*
X80100000Y-40750000D01*
X69100000Y-40250000D02*
X69100000Y-40750000D01*
X68300000Y-40750000D02*
X68300000Y-40250000D01*
X73100000Y-40250000D02*
X73100000Y-40750000D01*
X72300000Y-40750000D02*
X72300000Y-40250000D01*
X77100000Y-40250000D02*
X77100000Y-40750000D01*
X76300000Y-40750000D02*
X76300000Y-40250000D01*
X81100000Y-40250000D02*
X81100000Y-40750000D01*
X80300000Y-40750000D02*
X80300000Y-40250000D01*
X100300000Y-40750000D02*
X100300000Y-40250000D01*
X101100000Y-40250000D02*
X101100000Y-40750000D01*
X104300000Y-40750000D02*
X104300000Y-40250000D01*
X105100000Y-40250000D02*
X105100000Y-40750000D01*
X108300000Y-40750000D02*
X108300000Y-40250000D01*
X109100000Y-40250000D02*
X109100000Y-40750000D01*
X112300000Y-40750000D02*
X112300000Y-40250000D01*
X113100000Y-40250000D02*
X113100000Y-40750000D01*
X102100000Y-40250000D02*
X102100000Y-40750000D01*
X101300000Y-40750000D02*
X101300000Y-40250000D01*
X106100000Y-40250000D02*
X106100000Y-40750000D01*
X105300000Y-40750000D02*
X105300000Y-40250000D01*
X110100000Y-40250000D02*
X110100000Y-40750000D01*
X109300000Y-40750000D02*
X109300000Y-40250000D01*
X114100000Y-40250000D02*
X114100000Y-40750000D01*
X113300000Y-40750000D02*
X113300000Y-40250000D01*
X117100000Y-40250000D02*
X117100000Y-40750000D01*
X116300000Y-40750000D02*
X116300000Y-40250000D01*
X121100000Y-40250000D02*
X121100000Y-40750000D01*
X120300000Y-40750000D02*
X120300000Y-40250000D01*
X125100000Y-40250000D02*
X125100000Y-40750000D01*
X124300000Y-40750000D02*
X124300000Y-40250000D01*
X129100000Y-40250000D02*
X129100000Y-40750000D01*
X128300000Y-40750000D02*
X128300000Y-40250000D01*
X50300000Y-40750000D02*
X50300000Y-40250000D01*
X51100000Y-40250000D02*
X51100000Y-40750000D01*
X54300000Y-40750000D02*
X54300000Y-40250000D01*
X55100000Y-40250000D02*
X55100000Y-40750000D01*
X58300000Y-40750000D02*
X58300000Y-40250000D01*
X59100000Y-40250000D02*
X59100000Y-40750000D01*
X62300000Y-40750000D02*
X62300000Y-40250000D01*
X63100000Y-40250000D02*
X63100000Y-40750000D01*
X117300000Y-40750000D02*
X117300000Y-40250000D01*
X118100000Y-40250000D02*
X118100000Y-40750000D01*
X121300000Y-40750000D02*
X121300000Y-40250000D01*
X122100000Y-40250000D02*
X122100000Y-40750000D01*
X125300000Y-40750000D02*
X125300000Y-40250000D01*
X126100000Y-40250000D02*
X126100000Y-40750000D01*
X129300000Y-40750000D02*
X129300000Y-40250000D01*
X130100000Y-40250000D02*
X130100000Y-40750000D01*
X52100000Y-40250000D02*
X52100000Y-40750000D01*
X51300000Y-40750000D02*
X51300000Y-40250000D01*
X56100000Y-40250000D02*
X56100000Y-40750000D01*
X55300000Y-40750000D02*
X55300000Y-40250000D01*
X60100000Y-40250000D02*
X60100000Y-40750000D01*
X59300000Y-40750000D02*
X59300000Y-40250000D01*
X63300000Y-40750000D02*
X63300000Y-40250000D01*
X64100000Y-40250000D02*
X64100000Y-40750000D01*
X84100000Y-40250000D02*
X84100000Y-40750000D01*
X83300000Y-40750000D02*
X83300000Y-40250000D01*
X87300000Y-40750000D02*
X87300000Y-40250000D01*
X88100000Y-40250000D02*
X88100000Y-40750000D01*
X92100000Y-40250000D02*
X92100000Y-40750000D01*
X91300000Y-40750000D02*
X91300000Y-40250000D01*
X96100000Y-40250000D02*
X96100000Y-40750000D01*
X95300000Y-40750000D02*
X95300000Y-40250000D01*
X85100000Y-40250000D02*
X85100000Y-40750000D01*
X84300000Y-40750000D02*
X84300000Y-40250000D01*
X88300000Y-40750000D02*
X88300000Y-40250000D01*
X89100000Y-40250000D02*
X89100000Y-40750000D01*
X92300000Y-40750000D02*
X92300000Y-40250000D01*
X93100000Y-40250000D02*
X93100000Y-40750000D01*
X96300000Y-40750000D02*
X96300000Y-40250000D01*
X97100000Y-40250000D02*
X97100000Y-40750000D01*
X19280000Y-16600000D02*
X19280000Y-16100000D01*
X18220000Y-16100000D02*
X18220000Y-16600000D01*
X20820000Y1250000D02*
X20820000Y750000D01*
X21880000Y750000D02*
X21880000Y1250000D01*
X9150000Y480000D02*
X8650000Y480000D01*
X8650000Y-580000D02*
X9150000Y-580000D01*
X12930000Y-5525000D02*
X12930000Y-5025000D01*
X11870000Y-5025000D02*
X11870000Y-5525000D01*
X18120000Y-21300000D02*
X18120000Y-21800000D01*
X19180000Y-21800000D02*
X19180000Y-21300000D01*
X10505000Y7050000D02*
X10505000Y7550000D01*
X9445000Y7550000D02*
X9445000Y7050000D01*
X19180000Y-19900000D02*
X19180000Y-19400000D01*
X18120000Y-19400000D02*
X18120000Y-19900000D01*
X9292600Y-2500000D02*
X9292600Y-3000000D01*
X10352600Y-3000000D02*
X10352600Y-2500000D01*
X11607400Y-3000000D02*
X11607400Y-2500000D01*
X10547400Y-2500000D02*
X10547400Y-3000000D01*
X20375000Y-2395000D02*
X19875000Y-2395000D01*
X19875000Y-3455000D02*
X20375000Y-3455000D01*
X13080000Y-12800000D02*
X13080000Y-12300000D01*
X12020000Y-12300000D02*
X12020000Y-12800000D01*
X13320000Y-12300000D02*
X13320000Y-12800000D01*
X14380000Y-12800000D02*
X14380000Y-12300000D01*
X9420000Y-12300000D02*
X9420000Y-12800000D01*
X10480000Y-12800000D02*
X10480000Y-12300000D01*
X11780000Y-12800000D02*
X11780000Y-12300000D01*
X10720000Y-12300000D02*
X10720000Y-12800000D01*
X7880000Y-12800000D02*
X7880000Y-12300000D01*
X6820000Y-12300000D02*
X6820000Y-12800000D01*
X8120000Y-12300000D02*
X8120000Y-12800000D01*
X9180000Y-12800000D02*
X9180000Y-12300000D01*
X4220000Y-12300000D02*
X4220000Y-12800000D01*
X5280000Y-12800000D02*
X5280000Y-12300000D01*
X6580000Y-12800000D02*
X6580000Y-12300000D01*
X5520000Y-12300000D02*
X5520000Y-12800000D01*
X2680000Y-12800000D02*
X2680000Y-12300000D01*
X1620000Y-12300000D02*
X1620000Y-12800000D01*
X2920000Y-12300000D02*
X2920000Y-12800000D01*
X3980000Y-12800000D02*
X3980000Y-12300000D01*
X6980000Y-28650000D02*
X6980000Y-28150000D01*
X5920000Y-28150000D02*
X5920000Y-28650000D01*
X17270000Y7000000D02*
X17270000Y6500000D01*
X18330000Y6500000D02*
X18330000Y7000000D01*
X16070000Y7000000D02*
X16070000Y6500000D01*
X17130000Y6500000D02*
X17130000Y7000000D01*
X13730000Y6500000D02*
X13730000Y7000000D01*
X12670000Y7000000D02*
X12670000Y6500000D01*
X12530000Y6500000D02*
X12530000Y7000000D01*
X11470000Y7000000D02*
X11470000Y6500000D01*
X4620000Y-28150000D02*
X4620000Y-28650000D01*
X5680000Y-28650000D02*
X5680000Y-28150000D01*
X19900000Y3980000D02*
X19400000Y3980000D01*
X19400000Y2920000D02*
X19900000Y2920000D01*
X47370000Y-10200000D02*
X47370000Y-10700000D01*
X48430000Y-10700000D02*
X48430000Y-10200000D01*
X47470000Y-25450000D02*
X47470000Y-25950000D01*
X48530000Y-25950000D02*
X48530000Y-25450000D01*
X47130000Y-25950000D02*
X47130000Y-25450000D01*
X46070000Y-25450000D02*
X46070000Y-25950000D01*
X50052600Y-22050000D02*
X50052600Y-21550000D01*
X48992600Y-21550000D02*
X48992600Y-22050000D01*
X50247400Y-21550000D02*
X50247400Y-22050000D01*
X51307400Y-22050000D02*
X51307400Y-21550000D01*
X51630000Y-11150000D02*
X51630000Y-10650000D01*
X50570000Y-10650000D02*
X50570000Y-11150000D01*
X44645000Y-21225000D02*
X44645000Y-21725000D01*
X45705000Y-21725000D02*
X45705000Y-21225000D01*
X43970000Y-13925000D02*
X43970000Y-14425000D01*
X45030000Y-14425000D02*
X45030000Y-13925000D01*
X43830000Y-14425000D02*
X43830000Y-13925000D01*
X42770000Y-13925000D02*
X42770000Y-14425000D01*
X42600000Y-18780000D02*
X43100000Y-18780000D01*
X43100000Y-17720000D02*
X42600000Y-17720000D01*
X43100000Y-18920000D02*
X42600000Y-18920000D01*
X42600000Y-19980000D02*
X43100000Y-19980000D01*
X55700000Y-17720000D02*
X55200000Y-17720000D01*
X55200000Y-18780000D02*
X55700000Y-18780000D01*
X55200000Y-19980000D02*
X55700000Y-19980000D01*
X55700000Y-18920000D02*
X55200000Y-18920000D01*
X54702010Y-13798457D02*
X54348457Y-14152010D01*
X55097990Y-14901543D02*
X55451543Y-14547990D01*
X55947990Y-15751543D02*
X56301543Y-15397990D01*
X55552010Y-14648457D02*
X55198457Y-15002010D01*
X64670000Y-37750000D02*
X64670000Y-38250000D01*
X65730000Y-38250000D02*
X65730000Y-37750000D01*
X35230000Y-40450000D02*
X35230000Y-39950000D01*
X34170000Y-39950000D02*
X34170000Y-40450000D01*
X65920000Y-37750000D02*
X65920000Y-38250000D01*
X66980000Y-38250000D02*
X66980000Y-37750000D01*
X99980000Y-38250000D02*
X99980000Y-37750000D01*
X98920000Y-37750000D02*
X98920000Y-38250000D01*
X22400000Y7870000D02*
X22900000Y7870000D01*
X22900000Y8930000D02*
X22400000Y8930000D01*
X60200000Y8930000D02*
X59700000Y8930000D01*
X59700000Y7870000D02*
X60200000Y7870000D01*
X96200000Y8905000D02*
X95700000Y8905000D01*
X95700000Y7845000D02*
X96200000Y7845000D01*
X113700000Y7870000D02*
X114200000Y7870000D01*
X114200000Y8930000D02*
X113700000Y8930000D01*
X41700000Y7870000D02*
X42200000Y7870000D01*
X42200000Y8930000D02*
X41700000Y8930000D01*
X78200000Y8930000D02*
X77700000Y8930000D01*
X77700000Y7870000D02*
X78200000Y7870000D01*
X37680000Y13000000D02*
X37680000Y13500000D01*
X36620000Y13500000D02*
X36620000Y13000000D01*
X70420000Y16050000D02*
X70420000Y15550000D01*
X71480000Y15550000D02*
X71480000Y16050000D01*
X107480000Y15550000D02*
X107480000Y16050000D01*
X106420000Y16050000D02*
X106420000Y15550000D01*
X124420000Y16050000D02*
X124420000Y15550000D01*
X125480000Y15550000D02*
X125480000Y16050000D01*
X53480000Y15550000D02*
X53480000Y16050000D01*
X52420000Y16050000D02*
X52420000Y15550000D01*
X89480000Y15550000D02*
X89480000Y16050000D01*
X88420000Y16050000D02*
X88420000Y15550000D01*
X55855000Y19425000D02*
X55855000Y19925000D01*
X54795000Y19925000D02*
X54795000Y19425000D01*
X127170000Y19925000D02*
X127170000Y19425000D01*
X128230000Y19425000D02*
X128230000Y19925000D01*
X98730000Y-38250000D02*
X98730000Y-37750000D01*
X97670000Y-37750000D02*
X97670000Y-38250000D01*
X17917000Y2359000D02*
X17917000Y2867000D01*
X12583000Y2359000D02*
X12583000Y2867000D01*
X12583000Y2867000D02*
X13091000Y2867000D01*
X13091000Y-2467000D02*
X12583000Y-2467000D01*
X12583000Y-2467000D02*
X12583000Y-1959000D01*
X17917000Y-1959000D02*
X17917000Y-2467000D01*
X17917000Y-2467000D02*
X17409000Y-2467000D01*
X51817000Y-14433000D02*
X51817000Y-14941000D01*
X51309000Y-14433000D02*
X51817000Y-14433000D01*
X51817000Y-19767000D02*
X51309000Y-19767000D01*
X51817000Y-19259000D02*
X51817000Y-19767000D01*
X46483000Y-19767000D02*
X46483000Y-19259000D01*
X46991000Y-19767000D02*
X46483000Y-19767000D01*
X46991000Y-14433000D02*
X46483000Y-14433000D01*
D10*
X-1600000Y25150000D02*
X-600000Y26150000D01*
X2700000Y26150000D02*
X3700000Y25150000D01*
X3700000Y20850000D02*
X-1600000Y20850000D01*
X3700000Y20850000D02*
X3700000Y25150000D01*
X-600000Y26150000D02*
X2700000Y26150000D01*
X-1600000Y20850000D02*
X-1600000Y25150000D01*
X3750000Y18350000D02*
X3750000Y14050000D01*
X2750000Y13050000D02*
X-550000Y13050000D01*
X-1550000Y18350000D02*
X-1550000Y14050000D01*
X-1550000Y18350000D02*
X3750000Y18350000D01*
X-550000Y13050000D02*
X-1550000Y14050000D01*
X3750000Y14050000D02*
X2750000Y13050000D01*
X17200000Y-17275000D02*
X17200000Y-15450000D01*
X1725000Y-17275000D02*
X1725000Y-25025000D01*
X17475000Y-17275000D02*
X17475000Y-25025000D01*
X1725000Y-17275000D02*
X2090000Y-17275000D01*
X1725000Y-25025000D02*
X2090000Y-25025000D01*
X17475000Y-25025000D02*
X17110000Y-25025000D01*
X17475000Y-17275000D02*
X17200000Y-17275000D01*
D12*
X98430000Y250000D02*
X98430000Y15050000D01*
X98430000Y15050000D02*
X102750000Y15050000D01*
X102750000Y250000D02*
X102750000Y15050000D01*
X98430000Y250000D02*
X102750000Y250000D01*
X62430000Y250000D02*
X66750000Y250000D01*
X66750000Y250000D02*
X66750000Y15050000D01*
X62430000Y15050000D02*
X66750000Y15050000D01*
X62430000Y250000D02*
X62430000Y15050000D01*
X80430000Y250000D02*
X80430000Y15050000D01*
X80430000Y15050000D02*
X84750000Y15050000D01*
X84750000Y250000D02*
X84750000Y15050000D01*
X80430000Y250000D02*
X84750000Y250000D01*
X26430000Y250000D02*
X30750000Y250000D01*
X30750000Y250000D02*
X30750000Y15050000D01*
X26430000Y15050000D02*
X30750000Y15050000D01*
X26430000Y250000D02*
X26430000Y15050000D01*
X44430000Y250000D02*
X44430000Y15050000D01*
X44430000Y15050000D02*
X48750000Y15050000D01*
X48750000Y250000D02*
X48750000Y15050000D01*
X44430000Y250000D02*
X48750000Y250000D01*
D13*
X20925000Y-4900000D02*
G75*
G03X20925000Y-4900000I-350000J0D01*
G01*
X51450000Y-9175000D02*
G75*
G03X51450000Y-9175000I-350000J0D01*
G01*
X30050000Y-40450000D02*
G75*
G03X30050000Y-40450000I-350000J0D01*
G01*
X134050000Y-25750000D02*
G75*
G03X134050000Y-25750000I-350000J0D01*
G01*
X22600000Y6500000D02*
G75*
G03X22600000Y6500000I-350000J0D01*
G01*
X34800000Y6900000D02*
G75*
G03X34800000Y6900000I-350000J0D01*
G01*
X70800000Y6900000D02*
G75*
G03X70800000Y6900000I-350000J0D01*
G01*
X106800000Y6900000D02*
G75*
G03X106800000Y6900000I-350000J0D01*
G01*
X124800000Y6900000D02*
G75*
G03X124800000Y6900000I-350000J0D01*
G01*
X52800000Y6900000D02*
G75*
G03X52800000Y6900000I-350000J0D01*
G01*
X88800000Y6900000D02*
G75*
G03X88800000Y6900000I-350000J0D01*
G01*
D11*
X44550000Y-12130000D02*
X45050000Y-12130000D01*
X45050000Y-11070000D02*
X44550000Y-11070000D01*
X58705000Y-18200000D02*
X58705000Y-17700000D01*
X57645000Y-17700000D02*
X57645000Y-18200000D01*
X42750000Y-12130000D02*
X43250000Y-12130000D01*
X43250000Y-11070000D02*
X42750000Y-11070000D01*
X58705000Y-20000000D02*
X58705000Y-19500000D01*
X57645000Y-19500000D02*
X57645000Y-20000000D01*
X40450000Y-17730000D02*
X40950000Y-17730000D01*
X40950000Y-16670000D02*
X40450000Y-16670000D01*
X57645000Y-12400000D02*
X57645000Y-12900000D01*
X58705000Y-12900000D02*
X58705000Y-12400000D01*
X38650000Y-17730000D02*
X39150000Y-17730000D01*
X39150000Y-16670000D02*
X38650000Y-16670000D01*
X57645000Y-14200000D02*
X57645000Y-14700000D01*
X58705000Y-14700000D02*
X58705000Y-14200000D01*
X17900000Y8470000D02*
X18400000Y8470000D01*
X18400000Y9530000D02*
X17900000Y9530000D01*
X16000000Y8470000D02*
X16500000Y8470000D01*
X16500000Y9530000D02*
X16000000Y9530000D01*
X13800000Y9530000D02*
X13300000Y9530000D01*
X13300000Y8470000D02*
X13800000Y8470000D01*
X11900000Y9530000D02*
X11400000Y9530000D01*
X11400000Y8470000D02*
X11900000Y8470000D01*
D12*
X116430000Y250000D02*
X116430000Y15050000D01*
X116430000Y15050000D02*
X120750000Y15050000D01*
X120750000Y250000D02*
X120750000Y15050000D01*
X116430000Y250000D02*
X120750000Y250000D01*
D11*
X122450000Y17625000D02*
G75*
G03X122450000Y17625000I-700000J0D01*
G01*
D10*
X54002380Y-26442857D02*
X53526190Y-26776190D01*
X54002380Y-27014285D02*
X53002380Y-27014285D01*
X53002380Y-26633333D01*
X53050000Y-26538095D01*
X53097619Y-26490476D01*
X53192857Y-26442857D01*
X53335714Y-26442857D01*
X53430952Y-26490476D01*
X53478571Y-26538095D01*
X53526190Y-26633333D01*
X53526190Y-27014285D01*
X53002380Y-26109523D02*
X53002380Y-25490476D01*
X53383333Y-25823809D01*
X53383333Y-25680952D01*
X53430952Y-25585714D01*
X53478571Y-25538095D01*
X53573809Y-25490476D01*
X53811904Y-25490476D01*
X53907142Y-25538095D01*
X53954761Y-25585714D01*
X54002380Y-25680952D01*
X54002380Y-25966666D01*
X53954761Y-26061904D01*
X53907142Y-26109523D01*
X53002380Y-24871428D02*
X53002380Y-24776190D01*
X53050000Y-24680952D01*
X53097619Y-24633333D01*
X53192857Y-24585714D01*
X53383333Y-24538095D01*
X53621428Y-24538095D01*
X53811904Y-24585714D01*
X53907142Y-24633333D01*
X53954761Y-24680952D01*
X54002380Y-24776190D01*
X54002380Y-24871428D01*
X53954761Y-24966666D01*
X53907142Y-25014285D01*
X53811904Y-25061904D01*
X53621428Y-25109523D01*
X53383333Y-25109523D01*
X53192857Y-25061904D01*
X53097619Y-25014285D01*
X53050000Y-24966666D01*
X53002380Y-24871428D01*
X8007142Y2633334D02*
X8054761Y2585715D01*
X8102380Y2442858D01*
X8102380Y2347620D01*
X8054761Y2204762D01*
X7959523Y2109524D01*
X7864285Y2061905D01*
X7673809Y2014286D01*
X7530952Y2014286D01*
X7340476Y2061905D01*
X7245238Y2109524D01*
X7150000Y2204762D01*
X7102380Y2347620D01*
X7102380Y2442858D01*
X7150000Y2585715D01*
X7197619Y2633334D01*
X8102380Y3585715D02*
X8102380Y3014286D01*
X8102380Y3300000D02*
X7102380Y3300000D01*
X7245238Y3204762D01*
X7340476Y3109524D01*
X7388095Y3014286D01*
X21583333Y2042858D02*
X21535714Y1995239D01*
X21392857Y1947620D01*
X21297619Y1947620D01*
X21154761Y1995239D01*
X21059523Y2090477D01*
X21011904Y2185715D01*
X20964285Y2376191D01*
X20964285Y2519048D01*
X21011904Y2709524D01*
X21059523Y2804762D01*
X21154761Y2900000D01*
X21297619Y2947620D01*
X21392857Y2947620D01*
X21535714Y2900000D01*
X21583333Y2852381D01*
X21964285Y2852381D02*
X22011904Y2900000D01*
X22107142Y2947620D01*
X22345238Y2947620D01*
X22440476Y2900000D01*
X22488095Y2852381D01*
X22535714Y2757143D01*
X22535714Y2661905D01*
X22488095Y2519048D01*
X21916666Y1947620D01*
X22535714Y1947620D01*
X22607142Y-1466666D02*
X22654761Y-1514285D01*
X22702380Y-1657142D01*
X22702380Y-1752380D01*
X22654761Y-1895238D01*
X22559523Y-1990476D01*
X22464285Y-2038095D01*
X22273809Y-2085714D01*
X22130952Y-2085714D01*
X21940476Y-2038095D01*
X21845238Y-1990476D01*
X21750000Y-1895238D01*
X21702380Y-1752380D01*
X21702380Y-1657142D01*
X21750000Y-1514285D01*
X21797619Y-1466666D01*
X21702380Y-1133333D02*
X21702380Y-514285D01*
X22083333Y-847619D01*
X22083333Y-704761D01*
X22130952Y-609523D01*
X22178571Y-561904D01*
X22273809Y-514285D01*
X22511904Y-514285D01*
X22607142Y-561904D01*
X22654761Y-609523D01*
X22702380Y-704761D01*
X22702380Y-990476D01*
X22654761Y-1085714D01*
X22607142Y-1133333D01*
X20307142Y-24866666D02*
X20354761Y-24914285D01*
X20402380Y-25057142D01*
X20402380Y-25152380D01*
X20354761Y-25295238D01*
X20259523Y-25390476D01*
X20164285Y-25438095D01*
X19973809Y-25485714D01*
X19830952Y-25485714D01*
X19640476Y-25438095D01*
X19545238Y-25390476D01*
X19450000Y-25295238D01*
X19402380Y-25152380D01*
X19402380Y-25057142D01*
X19450000Y-24914285D01*
X19497619Y-24866666D01*
X19735714Y-24009523D02*
X20402380Y-24009523D01*
X19354761Y-24247619D02*
X20069047Y-24485714D01*
X20069047Y-23866666D01*
X21183333Y4442858D02*
X21135714Y4395239D01*
X20992857Y4347620D01*
X20897619Y4347620D01*
X20754761Y4395239D01*
X20659523Y4490477D01*
X20611904Y4585715D01*
X20564285Y4776191D01*
X20564285Y4919048D01*
X20611904Y5109524D01*
X20659523Y5204762D01*
X20754761Y5300000D01*
X20897619Y5347620D01*
X20992857Y5347620D01*
X21135714Y5300000D01*
X21183333Y5252381D01*
X22088095Y5347620D02*
X21611904Y5347620D01*
X21564285Y4871429D01*
X21611904Y4919048D01*
X21707142Y4966667D01*
X21945238Y4966667D01*
X22040476Y4919048D01*
X22088095Y4871429D01*
X22135714Y4776191D01*
X22135714Y4538096D01*
X22088095Y4442858D01*
X22040476Y4395239D01*
X21945238Y4347620D01*
X21707142Y4347620D01*
X21611904Y4395239D01*
X21564285Y4442858D01*
X10107142Y-5966666D02*
X10154761Y-6014285D01*
X10202380Y-6157142D01*
X10202380Y-6252380D01*
X10154761Y-6395238D01*
X10059523Y-6490476D01*
X9964285Y-6538095D01*
X9773809Y-6585714D01*
X9630952Y-6585714D01*
X9440476Y-6538095D01*
X9345238Y-6490476D01*
X9250000Y-6395238D01*
X9202380Y-6252380D01*
X9202380Y-6157142D01*
X9250000Y-6014285D01*
X9297619Y-5966666D01*
X9202380Y-5109523D02*
X9202380Y-5300000D01*
X9250000Y-5395238D01*
X9297619Y-5442857D01*
X9440476Y-5538095D01*
X9630952Y-5585714D01*
X10011904Y-5585714D01*
X10107142Y-5538095D01*
X10154761Y-5490476D01*
X10202380Y-5395238D01*
X10202380Y-5204761D01*
X10154761Y-5109523D01*
X10107142Y-5061904D01*
X10011904Y-5014285D01*
X9773809Y-5014285D01*
X9678571Y-5061904D01*
X9630952Y-5109523D01*
X9583333Y-5204761D01*
X9583333Y-5395238D01*
X9630952Y-5490476D01*
X9678571Y-5538095D01*
X9773809Y-5585714D01*
X23907142Y-1466666D02*
X23954761Y-1514285D01*
X24002380Y-1657142D01*
X24002380Y-1752380D01*
X23954761Y-1895238D01*
X23859523Y-1990476D01*
X23764285Y-2038095D01*
X23573809Y-2085714D01*
X23430952Y-2085714D01*
X23240476Y-2038095D01*
X23145238Y-1990476D01*
X23050000Y-1895238D01*
X23002380Y-1752380D01*
X23002380Y-1657142D01*
X23050000Y-1514285D01*
X23097619Y-1466666D01*
X23002380Y-1133333D02*
X23002380Y-466666D01*
X24002380Y-895238D01*
X15407142Y7433334D02*
X15454761Y7385715D01*
X15502380Y7242858D01*
X15502380Y7147620D01*
X15454761Y7004762D01*
X15359523Y6909524D01*
X15264285Y6861905D01*
X15073809Y6814286D01*
X14930952Y6814286D01*
X14740476Y6861905D01*
X14645238Y6909524D01*
X14550000Y7004762D01*
X14502380Y7147620D01*
X14502380Y7242858D01*
X14550000Y7385715D01*
X14597619Y7433334D01*
X14930952Y8004762D02*
X14883333Y7909524D01*
X14835714Y7861905D01*
X14740476Y7814286D01*
X14692857Y7814286D01*
X14597619Y7861905D01*
X14550000Y7909524D01*
X14502380Y8004762D01*
X14502380Y8195239D01*
X14550000Y8290477D01*
X14597619Y8338096D01*
X14692857Y8385715D01*
X14740476Y8385715D01*
X14835714Y8338096D01*
X14883333Y8290477D01*
X14930952Y8195239D01*
X14930952Y8004762D01*
X14978571Y7909524D01*
X15026190Y7861905D01*
X15121428Y7814286D01*
X15311904Y7814286D01*
X15407142Y7861905D01*
X15454761Y7909524D01*
X15502380Y8004762D01*
X15502380Y8195239D01*
X15454761Y8290477D01*
X15407142Y8338096D01*
X15311904Y8385715D01*
X15121428Y8385715D01*
X15026190Y8338096D01*
X14978571Y8290477D01*
X14930952Y8195239D01*
X11407142Y-5966666D02*
X11454761Y-6014285D01*
X11502380Y-6157142D01*
X11502380Y-6252380D01*
X11454761Y-6395238D01*
X11359523Y-6490476D01*
X11264285Y-6538095D01*
X11073809Y-6585714D01*
X10930952Y-6585714D01*
X10740476Y-6538095D01*
X10645238Y-6490476D01*
X10550000Y-6395238D01*
X10502380Y-6252380D01*
X10502380Y-6157142D01*
X10550000Y-6014285D01*
X10597619Y-5966666D01*
X11502380Y-5490476D02*
X11502380Y-5300000D01*
X11454761Y-5204761D01*
X11407142Y-5157142D01*
X11264285Y-5061904D01*
X11073809Y-5014285D01*
X10692857Y-5014285D01*
X10597619Y-5061904D01*
X10550000Y-5109523D01*
X10502380Y-5204761D01*
X10502380Y-5395238D01*
X10550000Y-5490476D01*
X10597619Y-5538095D01*
X10692857Y-5585714D01*
X10930952Y-5585714D01*
X11026190Y-5538095D01*
X11073809Y-5490476D01*
X11121428Y-5395238D01*
X11121428Y-5204761D01*
X11073809Y-5109523D01*
X11026190Y-5061904D01*
X10930952Y-5014285D01*
X6707142Y2057143D02*
X6754761Y2009524D01*
X6802380Y1866667D01*
X6802380Y1771429D01*
X6754761Y1628572D01*
X6659523Y1533334D01*
X6564285Y1485715D01*
X6373809Y1438096D01*
X6230952Y1438096D01*
X6040476Y1485715D01*
X5945238Y1533334D01*
X5850000Y1628572D01*
X5802380Y1771429D01*
X5802380Y1866667D01*
X5850000Y2009524D01*
X5897619Y2057143D01*
X6802380Y3009524D02*
X6802380Y2438096D01*
X6802380Y2723810D02*
X5802380Y2723810D01*
X5945238Y2628572D01*
X6040476Y2533334D01*
X6088095Y2438096D01*
X5802380Y3628572D02*
X5802380Y3723810D01*
X5850000Y3819048D01*
X5897619Y3866667D01*
X5992857Y3914286D01*
X6183333Y3961905D01*
X6421428Y3961905D01*
X6611904Y3914286D01*
X6707142Y3866667D01*
X6754761Y3819048D01*
X6802380Y3723810D01*
X6802380Y3628572D01*
X6754761Y3533334D01*
X6707142Y3485715D01*
X6611904Y3438096D01*
X6421428Y3390477D01*
X6183333Y3390477D01*
X5992857Y3438096D01*
X5897619Y3485715D01*
X5850000Y3533334D01*
X5802380Y3628572D01*
X16507142Y-8042857D02*
X16554761Y-8090476D01*
X16602380Y-8233333D01*
X16602380Y-8328571D01*
X16554761Y-8471428D01*
X16459523Y-8566666D01*
X16364285Y-8614285D01*
X16173809Y-8661904D01*
X16030952Y-8661904D01*
X15840476Y-8614285D01*
X15745238Y-8566666D01*
X15650000Y-8471428D01*
X15602380Y-8328571D01*
X15602380Y-8233333D01*
X15650000Y-8090476D01*
X15697619Y-8042857D01*
X16602380Y-7090476D02*
X16602380Y-7661904D01*
X16602380Y-7376190D02*
X15602380Y-7376190D01*
X15745238Y-7471428D01*
X15840476Y-7566666D01*
X15888095Y-7661904D01*
X16602380Y-6138095D02*
X16602380Y-6709523D01*
X16602380Y-6423809D02*
X15602380Y-6423809D01*
X15745238Y-6519047D01*
X15840476Y-6614285D01*
X15888095Y-6709523D01*
X5507142Y2057143D02*
X5554761Y2009524D01*
X5602380Y1866667D01*
X5602380Y1771429D01*
X5554761Y1628572D01*
X5459523Y1533334D01*
X5364285Y1485715D01*
X5173809Y1438096D01*
X5030952Y1438096D01*
X4840476Y1485715D01*
X4745238Y1533334D01*
X4650000Y1628572D01*
X4602380Y1771429D01*
X4602380Y1866667D01*
X4650000Y2009524D01*
X4697619Y2057143D01*
X5602380Y3009524D02*
X5602380Y2438096D01*
X5602380Y2723810D02*
X4602380Y2723810D01*
X4745238Y2628572D01*
X4840476Y2533334D01*
X4888095Y2438096D01*
X4697619Y3390477D02*
X4650000Y3438096D01*
X4602380Y3533334D01*
X4602380Y3771429D01*
X4650000Y3866667D01*
X4697619Y3914286D01*
X4792857Y3961905D01*
X4888095Y3961905D01*
X5030952Y3914286D01*
X5602380Y3342858D01*
X5602380Y3961905D01*
X17707142Y-8042857D02*
X17754761Y-8090476D01*
X17802380Y-8233333D01*
X17802380Y-8328571D01*
X17754761Y-8471428D01*
X17659523Y-8566666D01*
X17564285Y-8614285D01*
X17373809Y-8661904D01*
X17230952Y-8661904D01*
X17040476Y-8614285D01*
X16945238Y-8566666D01*
X16850000Y-8471428D01*
X16802380Y-8328571D01*
X16802380Y-8233333D01*
X16850000Y-8090476D01*
X16897619Y-8042857D01*
X17802380Y-7090476D02*
X17802380Y-7661904D01*
X17802380Y-7376190D02*
X16802380Y-7376190D01*
X16945238Y-7471428D01*
X17040476Y-7566666D01*
X17088095Y-7661904D01*
X16802380Y-6757142D02*
X16802380Y-6138095D01*
X17183333Y-6471428D01*
X17183333Y-6328571D01*
X17230952Y-6233333D01*
X17278571Y-6185714D01*
X17373809Y-6138095D01*
X17611904Y-6138095D01*
X17707142Y-6185714D01*
X17754761Y-6233333D01*
X17802380Y-6328571D01*
X17802380Y-6614285D01*
X17754761Y-6709523D01*
X17707142Y-6757142D01*
X38982142Y-21802142D02*
X38934523Y-21849761D01*
X38791666Y-21897380D01*
X38696428Y-21897380D01*
X38553571Y-21849761D01*
X38458333Y-21754523D01*
X38410714Y-21659285D01*
X38363095Y-21468809D01*
X38363095Y-21325952D01*
X38410714Y-21135476D01*
X38458333Y-21040238D01*
X38553571Y-20945000D01*
X38696428Y-20897380D01*
X38791666Y-20897380D01*
X38934523Y-20945000D01*
X38982142Y-20992619D01*
X39934523Y-21897380D02*
X39363095Y-21897380D01*
X39648809Y-21897380D02*
X39648809Y-20897380D01*
X39553571Y-21040238D01*
X39458333Y-21135476D01*
X39363095Y-21183095D01*
X40791666Y-21230714D02*
X40791666Y-21897380D01*
X40553571Y-20849761D02*
X40315476Y-21564047D01*
X40934523Y-21564047D01*
X46807142Y-22242857D02*
X46854761Y-22290476D01*
X46902380Y-22433333D01*
X46902380Y-22528571D01*
X46854761Y-22671428D01*
X46759523Y-22766666D01*
X46664285Y-22814285D01*
X46473809Y-22861904D01*
X46330952Y-22861904D01*
X46140476Y-22814285D01*
X46045238Y-22766666D01*
X45950000Y-22671428D01*
X45902380Y-22528571D01*
X45902380Y-22433333D01*
X45950000Y-22290476D01*
X45997619Y-22242857D01*
X46902380Y-21290476D02*
X46902380Y-21861904D01*
X46902380Y-21576190D02*
X45902380Y-21576190D01*
X46045238Y-21671428D01*
X46140476Y-21766666D01*
X46188095Y-21861904D01*
X45902380Y-20385714D02*
X45902380Y-20861904D01*
X46378571Y-20909523D01*
X46330952Y-20861904D01*
X46283333Y-20766666D01*
X46283333Y-20528571D01*
X46330952Y-20433333D01*
X46378571Y-20385714D01*
X46473809Y-20338095D01*
X46711904Y-20338095D01*
X46807142Y-20385714D01*
X46854761Y-20433333D01*
X46902380Y-20528571D01*
X46902380Y-20766666D01*
X46854761Y-20861904D01*
X46807142Y-20909523D01*
X46307142Y-8242857D02*
X46354761Y-8290476D01*
X46402380Y-8433333D01*
X46402380Y-8528571D01*
X46354761Y-8671428D01*
X46259523Y-8766666D01*
X46164285Y-8814285D01*
X45973809Y-8861904D01*
X45830952Y-8861904D01*
X45640476Y-8814285D01*
X45545238Y-8766666D01*
X45450000Y-8671428D01*
X45402380Y-8528571D01*
X45402380Y-8433333D01*
X45450000Y-8290476D01*
X45497619Y-8242857D01*
X46402380Y-7290476D02*
X46402380Y-7861904D01*
X46402380Y-7576190D02*
X45402380Y-7576190D01*
X45545238Y-7671428D01*
X45640476Y-7766666D01*
X45688095Y-7861904D01*
X45402380Y-6433333D02*
X45402380Y-6623809D01*
X45450000Y-6719047D01*
X45497619Y-6766666D01*
X45640476Y-6861904D01*
X45830952Y-6909523D01*
X46211904Y-6909523D01*
X46307142Y-6861904D01*
X46354761Y-6814285D01*
X46402380Y-6719047D01*
X46402380Y-6528571D01*
X46354761Y-6433333D01*
X46307142Y-6385714D01*
X46211904Y-6338095D01*
X45973809Y-6338095D01*
X45878571Y-6385714D01*
X45830952Y-6433333D01*
X45783333Y-6528571D01*
X45783333Y-6719047D01*
X45830952Y-6814285D01*
X45878571Y-6861904D01*
X45973809Y-6909523D01*
X38982142Y-23002142D02*
X38934523Y-23049761D01*
X38791666Y-23097380D01*
X38696428Y-23097380D01*
X38553571Y-23049761D01*
X38458333Y-22954523D01*
X38410714Y-22859285D01*
X38363095Y-22668809D01*
X38363095Y-22525952D01*
X38410714Y-22335476D01*
X38458333Y-22240238D01*
X38553571Y-22145000D01*
X38696428Y-22097380D01*
X38791666Y-22097380D01*
X38934523Y-22145000D01*
X38982142Y-22192619D01*
X39934523Y-23097380D02*
X39363095Y-23097380D01*
X39648809Y-23097380D02*
X39648809Y-22097380D01*
X39553571Y-22240238D01*
X39458333Y-22335476D01*
X39363095Y-22383095D01*
X40267857Y-22097380D02*
X40934523Y-22097380D01*
X40505952Y-23097380D01*
X54907142Y-10057142D02*
X54859523Y-10104761D01*
X54716666Y-10152380D01*
X54621428Y-10152380D01*
X54478571Y-10104761D01*
X54383333Y-10009523D01*
X54335714Y-9914285D01*
X54288095Y-9723809D01*
X54288095Y-9580952D01*
X54335714Y-9390476D01*
X54383333Y-9295238D01*
X54478571Y-9200000D01*
X54621428Y-9152380D01*
X54716666Y-9152380D01*
X54859523Y-9200000D01*
X54907142Y-9247619D01*
X55859523Y-10152380D02*
X55288095Y-10152380D01*
X55573809Y-10152380D02*
X55573809Y-9152380D01*
X55478571Y-9295238D01*
X55383333Y-9390476D01*
X55288095Y-9438095D01*
X56430952Y-9580952D02*
X56335714Y-9533333D01*
X56288095Y-9485714D01*
X56240476Y-9390476D01*
X56240476Y-9342857D01*
X56288095Y-9247619D01*
X56335714Y-9200000D01*
X56430952Y-9152380D01*
X56621428Y-9152380D01*
X56716666Y-9200000D01*
X56764285Y-9247619D01*
X56811904Y-9342857D01*
X56811904Y-9390476D01*
X56764285Y-9485714D01*
X56716666Y-9533333D01*
X56621428Y-9580952D01*
X56430952Y-9580952D01*
X56335714Y-9628571D01*
X56288095Y-9676190D01*
X56240476Y-9771428D01*
X56240476Y-9961904D01*
X56288095Y-10057142D01*
X56335714Y-10104761D01*
X56430952Y-10152380D01*
X56621428Y-10152380D01*
X56716666Y-10104761D01*
X56764285Y-10057142D01*
X56811904Y-9961904D01*
X56811904Y-9771428D01*
X56764285Y-9676190D01*
X56716666Y-9628571D01*
X56621428Y-9580952D01*
X45107142Y-8942857D02*
X45154761Y-8990476D01*
X45202380Y-9133333D01*
X45202380Y-9228571D01*
X45154761Y-9371428D01*
X45059523Y-9466666D01*
X44964285Y-9514285D01*
X44773809Y-9561904D01*
X44630952Y-9561904D01*
X44440476Y-9514285D01*
X44345238Y-9466666D01*
X44250000Y-9371428D01*
X44202380Y-9228571D01*
X44202380Y-9133333D01*
X44250000Y-8990476D01*
X44297619Y-8942857D01*
X45202380Y-7990476D02*
X45202380Y-8561904D01*
X45202380Y-8276190D02*
X44202380Y-8276190D01*
X44345238Y-8371428D01*
X44440476Y-8466666D01*
X44488095Y-8561904D01*
X45202380Y-7514285D02*
X45202380Y-7323809D01*
X45154761Y-7228571D01*
X45107142Y-7180952D01*
X44964285Y-7085714D01*
X44773809Y-7038095D01*
X44392857Y-7038095D01*
X44297619Y-7085714D01*
X44250000Y-7133333D01*
X44202380Y-7228571D01*
X44202380Y-7419047D01*
X44250000Y-7514285D01*
X44297619Y-7561904D01*
X44392857Y-7609523D01*
X44630952Y-7609523D01*
X44726190Y-7561904D01*
X44773809Y-7514285D01*
X44821428Y-7419047D01*
X44821428Y-7228571D01*
X44773809Y-7133333D01*
X44726190Y-7085714D01*
X44630952Y-7038095D01*
X57807142Y-21657142D02*
X57759523Y-21704761D01*
X57616666Y-21752380D01*
X57521428Y-21752380D01*
X57378571Y-21704761D01*
X57283333Y-21609523D01*
X57235714Y-21514285D01*
X57188095Y-21323809D01*
X57188095Y-21180952D01*
X57235714Y-20990476D01*
X57283333Y-20895238D01*
X57378571Y-20800000D01*
X57521428Y-20752380D01*
X57616666Y-20752380D01*
X57759523Y-20800000D01*
X57807142Y-20847619D01*
X58188095Y-20847619D02*
X58235714Y-20800000D01*
X58330952Y-20752380D01*
X58569047Y-20752380D01*
X58664285Y-20800000D01*
X58711904Y-20847619D01*
X58759523Y-20942857D01*
X58759523Y-21038095D01*
X58711904Y-21180952D01*
X58140476Y-21752380D01*
X58759523Y-21752380D01*
X59378571Y-20752380D02*
X59473809Y-20752380D01*
X59569047Y-20800000D01*
X59616666Y-20847619D01*
X59664285Y-20942857D01*
X59711904Y-21133333D01*
X59711904Y-21371428D01*
X59664285Y-21561904D01*
X59616666Y-21657142D01*
X59569047Y-21704761D01*
X59473809Y-21752380D01*
X59378571Y-21752380D01*
X59283333Y-21704761D01*
X59235714Y-21657142D01*
X59188095Y-21561904D01*
X59140476Y-21371428D01*
X59140476Y-21133333D01*
X59188095Y-20942857D01*
X59235714Y-20847619D01*
X59283333Y-20800000D01*
X59378571Y-20752380D01*
X53407142Y-8557142D02*
X53359523Y-8604761D01*
X53216666Y-8652380D01*
X53121428Y-8652380D01*
X52978571Y-8604761D01*
X52883333Y-8509523D01*
X52835714Y-8414285D01*
X52788095Y-8223809D01*
X52788095Y-8080952D01*
X52835714Y-7890476D01*
X52883333Y-7795238D01*
X52978571Y-7700000D01*
X53121428Y-7652380D01*
X53216666Y-7652380D01*
X53359523Y-7700000D01*
X53407142Y-7747619D01*
X53788095Y-7747619D02*
X53835714Y-7700000D01*
X53930952Y-7652380D01*
X54169047Y-7652380D01*
X54264285Y-7700000D01*
X54311904Y-7747619D01*
X54359523Y-7842857D01*
X54359523Y-7938095D01*
X54311904Y-8080952D01*
X53740476Y-8652380D01*
X54359523Y-8652380D01*
X55311904Y-8652380D02*
X54740476Y-8652380D01*
X55026190Y-8652380D02*
X55026190Y-7652380D01*
X54930952Y-7795238D01*
X54835714Y-7890476D01*
X54740476Y-7938095D01*
X58227142Y-26367857D02*
X58274761Y-26415476D01*
X58322380Y-26558333D01*
X58322380Y-26653571D01*
X58274761Y-26796428D01*
X58179523Y-26891666D01*
X58084285Y-26939285D01*
X57893809Y-26986904D01*
X57750952Y-26986904D01*
X57560476Y-26939285D01*
X57465238Y-26891666D01*
X57370000Y-26796428D01*
X57322380Y-26653571D01*
X57322380Y-26558333D01*
X57370000Y-26415476D01*
X57417619Y-26367857D01*
X57417619Y-25986904D02*
X57370000Y-25939285D01*
X57322380Y-25844047D01*
X57322380Y-25605952D01*
X57370000Y-25510714D01*
X57417619Y-25463095D01*
X57512857Y-25415476D01*
X57608095Y-25415476D01*
X57750952Y-25463095D01*
X58322380Y-26034523D01*
X58322380Y-25415476D01*
X57417619Y-25034523D02*
X57370000Y-24986904D01*
X57322380Y-24891666D01*
X57322380Y-24653571D01*
X57370000Y-24558333D01*
X57417619Y-24510714D01*
X57512857Y-24463095D01*
X57608095Y-24463095D01*
X57750952Y-24510714D01*
X58322380Y-25082142D01*
X58322380Y-24463095D01*
X42207142Y-16057142D02*
X42159523Y-16104761D01*
X42016666Y-16152380D01*
X41921428Y-16152380D01*
X41778571Y-16104761D01*
X41683333Y-16009523D01*
X41635714Y-15914285D01*
X41588095Y-15723809D01*
X41588095Y-15580952D01*
X41635714Y-15390476D01*
X41683333Y-15295238D01*
X41778571Y-15200000D01*
X41921428Y-15152380D01*
X42016666Y-15152380D01*
X42159523Y-15200000D01*
X42207142Y-15247619D01*
X42588095Y-15247619D02*
X42635714Y-15200000D01*
X42730952Y-15152380D01*
X42969047Y-15152380D01*
X43064285Y-15200000D01*
X43111904Y-15247619D01*
X43159523Y-15342857D01*
X43159523Y-15438095D01*
X43111904Y-15580952D01*
X42540476Y-16152380D01*
X43159523Y-16152380D01*
X43492857Y-15152380D02*
X44111904Y-15152380D01*
X43778571Y-15533333D01*
X43921428Y-15533333D01*
X44016666Y-15580952D01*
X44064285Y-15628571D01*
X44111904Y-15723809D01*
X44111904Y-15961904D01*
X44064285Y-16057142D01*
X44016666Y-16104761D01*
X43921428Y-16152380D01*
X43635714Y-16152380D01*
X43540476Y-16104761D01*
X43492857Y-16057142D01*
X58007142Y-9542857D02*
X58054761Y-9590476D01*
X58102380Y-9733333D01*
X58102380Y-9828571D01*
X58054761Y-9971428D01*
X57959523Y-10066666D01*
X57864285Y-10114285D01*
X57673809Y-10161904D01*
X57530952Y-10161904D01*
X57340476Y-10114285D01*
X57245238Y-10066666D01*
X57150000Y-9971428D01*
X57102380Y-9828571D01*
X57102380Y-9733333D01*
X57150000Y-9590476D01*
X57197619Y-9542857D01*
X57197619Y-9161904D02*
X57150000Y-9114285D01*
X57102380Y-9019047D01*
X57102380Y-8780952D01*
X57150000Y-8685714D01*
X57197619Y-8638095D01*
X57292857Y-8590476D01*
X57388095Y-8590476D01*
X57530952Y-8638095D01*
X58102380Y-9209523D01*
X58102380Y-8590476D01*
X57435714Y-7733333D02*
X58102380Y-7733333D01*
X57054761Y-7971428D02*
X57769047Y-8209523D01*
X57769047Y-7590476D01*
X57027142Y-26367857D02*
X57074761Y-26415476D01*
X57122380Y-26558333D01*
X57122380Y-26653571D01*
X57074761Y-26796428D01*
X56979523Y-26891666D01*
X56884285Y-26939285D01*
X56693809Y-26986904D01*
X56550952Y-26986904D01*
X56360476Y-26939285D01*
X56265238Y-26891666D01*
X56170000Y-26796428D01*
X56122380Y-26653571D01*
X56122380Y-26558333D01*
X56170000Y-26415476D01*
X56217619Y-26367857D01*
X56217619Y-25986904D02*
X56170000Y-25939285D01*
X56122380Y-25844047D01*
X56122380Y-25605952D01*
X56170000Y-25510714D01*
X56217619Y-25463095D01*
X56312857Y-25415476D01*
X56408095Y-25415476D01*
X56550952Y-25463095D01*
X57122380Y-26034523D01*
X57122380Y-25415476D01*
X56122380Y-24510714D02*
X56122380Y-24986904D01*
X56598571Y-25034523D01*
X56550952Y-24986904D01*
X56503333Y-24891666D01*
X56503333Y-24653571D01*
X56550952Y-24558333D01*
X56598571Y-24510714D01*
X56693809Y-24463095D01*
X56931904Y-24463095D01*
X57027142Y-24510714D01*
X57074761Y-24558333D01*
X57122380Y-24653571D01*
X57122380Y-24891666D01*
X57074761Y-24986904D01*
X57027142Y-25034523D01*
X8887142Y15107143D02*
X8934761Y15059524D01*
X8982380Y14916667D01*
X8982380Y14821429D01*
X8934761Y14678572D01*
X8839523Y14583334D01*
X8744285Y14535715D01*
X8553809Y14488096D01*
X8410952Y14488096D01*
X8220476Y14535715D01*
X8125238Y14583334D01*
X8030000Y14678572D01*
X7982380Y14821429D01*
X7982380Y14916667D01*
X8030000Y15059524D01*
X8077619Y15107143D01*
X8077619Y15488096D02*
X8030000Y15535715D01*
X7982380Y15630953D01*
X7982380Y15869048D01*
X8030000Y15964286D01*
X8077619Y16011905D01*
X8172857Y16059524D01*
X8268095Y16059524D01*
X8410952Y16011905D01*
X8982380Y15440477D01*
X8982380Y16059524D01*
X8410952Y16630953D02*
X8363333Y16535715D01*
X8315714Y16488096D01*
X8220476Y16440477D01*
X8172857Y16440477D01*
X8077619Y16488096D01*
X8030000Y16535715D01*
X7982380Y16630953D01*
X7982380Y16821429D01*
X8030000Y16916667D01*
X8077619Y16964286D01*
X8172857Y17011905D01*
X8220476Y17011905D01*
X8315714Y16964286D01*
X8363333Y16916667D01*
X8410952Y16821429D01*
X8410952Y16630953D01*
X8458571Y16535715D01*
X8506190Y16488096D01*
X8601428Y16440477D01*
X8791904Y16440477D01*
X8887142Y16488096D01*
X8934761Y16535715D01*
X8982380Y16630953D01*
X8982380Y16821429D01*
X8934761Y16916667D01*
X8887142Y16964286D01*
X8791904Y17011905D01*
X8601428Y17011905D01*
X8506190Y16964286D01*
X8458571Y16916667D01*
X8410952Y16821429D01*
X5907142Y25857143D02*
X5954761Y25809524D01*
X6002380Y25666667D01*
X6002380Y25571429D01*
X5954761Y25428572D01*
X5859523Y25333334D01*
X5764285Y25285715D01*
X5573809Y25238096D01*
X5430952Y25238096D01*
X5240476Y25285715D01*
X5145238Y25333334D01*
X5050000Y25428572D01*
X5002380Y25571429D01*
X5002380Y25666667D01*
X5050000Y25809524D01*
X5097619Y25857143D01*
X5097619Y26238096D02*
X5050000Y26285715D01*
X5002380Y26380953D01*
X5002380Y26619048D01*
X5050000Y26714286D01*
X5097619Y26761905D01*
X5192857Y26809524D01*
X5288095Y26809524D01*
X5430952Y26761905D01*
X6002380Y26190477D01*
X6002380Y26809524D01*
X6002380Y27285715D02*
X6002380Y27476191D01*
X5954761Y27571429D01*
X5907142Y27619048D01*
X5764285Y27714286D01*
X5573809Y27761905D01*
X5192857Y27761905D01*
X5097619Y27714286D01*
X5050000Y27666667D01*
X5002380Y27571429D01*
X5002380Y27380953D01*
X5050000Y27285715D01*
X5097619Y27238096D01*
X5192857Y27190477D01*
X5430952Y27190477D01*
X5526190Y27238096D01*
X5573809Y27285715D01*
X5621428Y27380953D01*
X5621428Y27571429D01*
X5573809Y27666667D01*
X5526190Y27714286D01*
X5430952Y27761905D01*
X10087142Y15107143D02*
X10134761Y15059524D01*
X10182380Y14916667D01*
X10182380Y14821429D01*
X10134761Y14678572D01*
X10039523Y14583334D01*
X9944285Y14535715D01*
X9753809Y14488096D01*
X9610952Y14488096D01*
X9420476Y14535715D01*
X9325238Y14583334D01*
X9230000Y14678572D01*
X9182380Y14821429D01*
X9182380Y14916667D01*
X9230000Y15059524D01*
X9277619Y15107143D01*
X9182380Y15440477D02*
X9182380Y16059524D01*
X9563333Y15726191D01*
X9563333Y15869048D01*
X9610952Y15964286D01*
X9658571Y16011905D01*
X9753809Y16059524D01*
X9991904Y16059524D01*
X10087142Y16011905D01*
X10134761Y15964286D01*
X10182380Y15869048D01*
X10182380Y15583334D01*
X10134761Y15488096D01*
X10087142Y15440477D01*
X9182380Y16678572D02*
X9182380Y16773810D01*
X9230000Y16869048D01*
X9277619Y16916667D01*
X9372857Y16964286D01*
X9563333Y17011905D01*
X9801428Y17011905D01*
X9991904Y16964286D01*
X10087142Y16916667D01*
X10134761Y16869048D01*
X10182380Y16773810D01*
X10182380Y16678572D01*
X10134761Y16583334D01*
X10087142Y16535715D01*
X9991904Y16488096D01*
X9801428Y16440477D01*
X9563333Y16440477D01*
X9372857Y16488096D01*
X9277619Y16535715D01*
X9230000Y16583334D01*
X9182380Y16678572D01*
X7407142Y25857143D02*
X7454761Y25809524D01*
X7502380Y25666667D01*
X7502380Y25571429D01*
X7454761Y25428572D01*
X7359523Y25333334D01*
X7264285Y25285715D01*
X7073809Y25238096D01*
X6930952Y25238096D01*
X6740476Y25285715D01*
X6645238Y25333334D01*
X6550000Y25428572D01*
X6502380Y25571429D01*
X6502380Y25666667D01*
X6550000Y25809524D01*
X6597619Y25857143D01*
X6502380Y26190477D02*
X6502380Y26809524D01*
X6883333Y26476191D01*
X6883333Y26619048D01*
X6930952Y26714286D01*
X6978571Y26761905D01*
X7073809Y26809524D01*
X7311904Y26809524D01*
X7407142Y26761905D01*
X7454761Y26714286D01*
X7502380Y26619048D01*
X7502380Y26333334D01*
X7454761Y26238096D01*
X7407142Y26190477D01*
X7502380Y27761905D02*
X7502380Y27190477D01*
X7502380Y27476191D02*
X6502380Y27476191D01*
X6645238Y27380953D01*
X6740476Y27285715D01*
X6788095Y27190477D01*
X11287142Y15107143D02*
X11334761Y15059524D01*
X11382380Y14916667D01*
X11382380Y14821429D01*
X11334761Y14678572D01*
X11239523Y14583334D01*
X11144285Y14535715D01*
X10953809Y14488096D01*
X10810952Y14488096D01*
X10620476Y14535715D01*
X10525238Y14583334D01*
X10430000Y14678572D01*
X10382380Y14821429D01*
X10382380Y14916667D01*
X10430000Y15059524D01*
X10477619Y15107143D01*
X10382380Y15440477D02*
X10382380Y16059524D01*
X10763333Y15726191D01*
X10763333Y15869048D01*
X10810952Y15964286D01*
X10858571Y16011905D01*
X10953809Y16059524D01*
X11191904Y16059524D01*
X11287142Y16011905D01*
X11334761Y15964286D01*
X11382380Y15869048D01*
X11382380Y15583334D01*
X11334761Y15488096D01*
X11287142Y15440477D01*
X10477619Y16440477D02*
X10430000Y16488096D01*
X10382380Y16583334D01*
X10382380Y16821429D01*
X10430000Y16916667D01*
X10477619Y16964286D01*
X10572857Y17011905D01*
X10668095Y17011905D01*
X10810952Y16964286D01*
X11382380Y16392858D01*
X11382380Y17011905D01*
X8907142Y25857143D02*
X8954761Y25809524D01*
X9002380Y25666667D01*
X9002380Y25571429D01*
X8954761Y25428572D01*
X8859523Y25333334D01*
X8764285Y25285715D01*
X8573809Y25238096D01*
X8430952Y25238096D01*
X8240476Y25285715D01*
X8145238Y25333334D01*
X8050000Y25428572D01*
X8002380Y25571429D01*
X8002380Y25666667D01*
X8050000Y25809524D01*
X8097619Y25857143D01*
X8002380Y26190477D02*
X8002380Y26809524D01*
X8383333Y26476191D01*
X8383333Y26619048D01*
X8430952Y26714286D01*
X8478571Y26761905D01*
X8573809Y26809524D01*
X8811904Y26809524D01*
X8907142Y26761905D01*
X8954761Y26714286D01*
X9002380Y26619048D01*
X9002380Y26333334D01*
X8954761Y26238096D01*
X8907142Y26190477D01*
X8002380Y27142858D02*
X8002380Y27761905D01*
X8383333Y27428572D01*
X8383333Y27571429D01*
X8430952Y27666667D01*
X8478571Y27714286D01*
X8573809Y27761905D01*
X8811904Y27761905D01*
X8907142Y27714286D01*
X8954761Y27666667D01*
X9002380Y27571429D01*
X9002380Y27285715D01*
X8954761Y27190477D01*
X8907142Y27142858D01*
X10307142Y25557143D02*
X10354761Y25509524D01*
X10402380Y25366667D01*
X10402380Y25271429D01*
X10354761Y25128572D01*
X10259523Y25033334D01*
X10164285Y24985715D01*
X9973809Y24938096D01*
X9830952Y24938096D01*
X9640476Y24985715D01*
X9545238Y25033334D01*
X9450000Y25128572D01*
X9402380Y25271429D01*
X9402380Y25366667D01*
X9450000Y25509524D01*
X9497619Y25557143D01*
X9402380Y25890477D02*
X9402380Y26509524D01*
X9783333Y26176191D01*
X9783333Y26319048D01*
X9830952Y26414286D01*
X9878571Y26461905D01*
X9973809Y26509524D01*
X10211904Y26509524D01*
X10307142Y26461905D01*
X10354761Y26414286D01*
X10402380Y26319048D01*
X10402380Y26033334D01*
X10354761Y25938096D01*
X10307142Y25890477D01*
X9735714Y27366667D02*
X10402380Y27366667D01*
X9354761Y27128572D02*
X10069047Y26890477D01*
X10069047Y27509524D01*
X22512142Y-34367857D02*
X22559761Y-34415476D01*
X22607380Y-34558333D01*
X22607380Y-34653571D01*
X22559761Y-34796428D01*
X22464523Y-34891666D01*
X22369285Y-34939285D01*
X22178809Y-34986904D01*
X22035952Y-34986904D01*
X21845476Y-34939285D01*
X21750238Y-34891666D01*
X21655000Y-34796428D01*
X21607380Y-34653571D01*
X21607380Y-34558333D01*
X21655000Y-34415476D01*
X21702619Y-34367857D01*
X21607380Y-34034523D02*
X21607380Y-33415476D01*
X21988333Y-33748809D01*
X21988333Y-33605952D01*
X22035952Y-33510714D01*
X22083571Y-33463095D01*
X22178809Y-33415476D01*
X22416904Y-33415476D01*
X22512142Y-33463095D01*
X22559761Y-33510714D01*
X22607380Y-33605952D01*
X22607380Y-33891666D01*
X22559761Y-33986904D01*
X22512142Y-34034523D01*
X21607380Y-32510714D02*
X21607380Y-32986904D01*
X22083571Y-33034523D01*
X22035952Y-32986904D01*
X21988333Y-32891666D01*
X21988333Y-32653571D01*
X22035952Y-32558333D01*
X22083571Y-32510714D01*
X22178809Y-32463095D01*
X22416904Y-32463095D01*
X22512142Y-32510714D01*
X22559761Y-32558333D01*
X22607380Y-32653571D01*
X22607380Y-32891666D01*
X22559761Y-32986904D01*
X22512142Y-33034523D01*
X26207142Y-34367857D02*
X26254761Y-34415476D01*
X26302380Y-34558333D01*
X26302380Y-34653571D01*
X26254761Y-34796428D01*
X26159523Y-34891666D01*
X26064285Y-34939285D01*
X25873809Y-34986904D01*
X25730952Y-34986904D01*
X25540476Y-34939285D01*
X25445238Y-34891666D01*
X25350000Y-34796428D01*
X25302380Y-34653571D01*
X25302380Y-34558333D01*
X25350000Y-34415476D01*
X25397619Y-34367857D01*
X25302380Y-34034523D02*
X25302380Y-33415476D01*
X25683333Y-33748809D01*
X25683333Y-33605952D01*
X25730952Y-33510714D01*
X25778571Y-33463095D01*
X25873809Y-33415476D01*
X26111904Y-33415476D01*
X26207142Y-33463095D01*
X26254761Y-33510714D01*
X26302380Y-33605952D01*
X26302380Y-33891666D01*
X26254761Y-33986904D01*
X26207142Y-34034523D01*
X25302380Y-32558333D02*
X25302380Y-32748809D01*
X25350000Y-32844047D01*
X25397619Y-32891666D01*
X25540476Y-32986904D01*
X25730952Y-33034523D01*
X26111904Y-33034523D01*
X26207142Y-32986904D01*
X26254761Y-32939285D01*
X26302380Y-32844047D01*
X26302380Y-32653571D01*
X26254761Y-32558333D01*
X26207142Y-32510714D01*
X26111904Y-32463095D01*
X25873809Y-32463095D01*
X25778571Y-32510714D01*
X25730952Y-32558333D01*
X25683333Y-32653571D01*
X25683333Y-32844047D01*
X25730952Y-32939285D01*
X25778571Y-32986904D01*
X25873809Y-33034523D01*
X31807142Y-39142857D02*
X31854761Y-39190476D01*
X31902380Y-39333333D01*
X31902380Y-39428571D01*
X31854761Y-39571428D01*
X31759523Y-39666666D01*
X31664285Y-39714285D01*
X31473809Y-39761904D01*
X31330952Y-39761904D01*
X31140476Y-39714285D01*
X31045238Y-39666666D01*
X30950000Y-39571428D01*
X30902380Y-39428571D01*
X30902380Y-39333333D01*
X30950000Y-39190476D01*
X30997619Y-39142857D01*
X30902380Y-38809523D02*
X30902380Y-38190476D01*
X31283333Y-38523809D01*
X31283333Y-38380952D01*
X31330952Y-38285714D01*
X31378571Y-38238095D01*
X31473809Y-38190476D01*
X31711904Y-38190476D01*
X31807142Y-38238095D01*
X31854761Y-38285714D01*
X31902380Y-38380952D01*
X31902380Y-38666666D01*
X31854761Y-38761904D01*
X31807142Y-38809523D01*
X30902380Y-37857142D02*
X30902380Y-37190476D01*
X31902380Y-37619047D01*
X36807142Y-39042857D02*
X36854761Y-39090476D01*
X36902380Y-39233333D01*
X36902380Y-39328571D01*
X36854761Y-39471428D01*
X36759523Y-39566666D01*
X36664285Y-39614285D01*
X36473809Y-39661904D01*
X36330952Y-39661904D01*
X36140476Y-39614285D01*
X36045238Y-39566666D01*
X35950000Y-39471428D01*
X35902380Y-39328571D01*
X35902380Y-39233333D01*
X35950000Y-39090476D01*
X35997619Y-39042857D01*
X35902380Y-38709523D02*
X35902380Y-38090476D01*
X36283333Y-38423809D01*
X36283333Y-38280952D01*
X36330952Y-38185714D01*
X36378571Y-38138095D01*
X36473809Y-38090476D01*
X36711904Y-38090476D01*
X36807142Y-38138095D01*
X36854761Y-38185714D01*
X36902380Y-38280952D01*
X36902380Y-38566666D01*
X36854761Y-38661904D01*
X36807142Y-38709523D01*
X36330952Y-37519047D02*
X36283333Y-37614285D01*
X36235714Y-37661904D01*
X36140476Y-37709523D01*
X36092857Y-37709523D01*
X35997619Y-37661904D01*
X35950000Y-37614285D01*
X35902380Y-37519047D01*
X35902380Y-37328571D01*
X35950000Y-37233333D01*
X35997619Y-37185714D01*
X36092857Y-37138095D01*
X36140476Y-37138095D01*
X36235714Y-37185714D01*
X36283333Y-37233333D01*
X36330952Y-37328571D01*
X36330952Y-37519047D01*
X36378571Y-37614285D01*
X36426190Y-37661904D01*
X36521428Y-37709523D01*
X36711904Y-37709523D01*
X36807142Y-37661904D01*
X36854761Y-37614285D01*
X36902380Y-37519047D01*
X36902380Y-37328571D01*
X36854761Y-37233333D01*
X36807142Y-37185714D01*
X36711904Y-37138095D01*
X36521428Y-37138095D01*
X36426190Y-37185714D01*
X36378571Y-37233333D01*
X36330952Y-37328571D01*
X40807142Y-39042857D02*
X40854761Y-39090476D01*
X40902380Y-39233333D01*
X40902380Y-39328571D01*
X40854761Y-39471428D01*
X40759523Y-39566666D01*
X40664285Y-39614285D01*
X40473809Y-39661904D01*
X40330952Y-39661904D01*
X40140476Y-39614285D01*
X40045238Y-39566666D01*
X39950000Y-39471428D01*
X39902380Y-39328571D01*
X39902380Y-39233333D01*
X39950000Y-39090476D01*
X39997619Y-39042857D01*
X39902380Y-38709523D02*
X39902380Y-38090476D01*
X40283333Y-38423809D01*
X40283333Y-38280952D01*
X40330952Y-38185714D01*
X40378571Y-38138095D01*
X40473809Y-38090476D01*
X40711904Y-38090476D01*
X40807142Y-38138095D01*
X40854761Y-38185714D01*
X40902380Y-38280952D01*
X40902380Y-38566666D01*
X40854761Y-38661904D01*
X40807142Y-38709523D01*
X40902380Y-37614285D02*
X40902380Y-37423809D01*
X40854761Y-37328571D01*
X40807142Y-37280952D01*
X40664285Y-37185714D01*
X40473809Y-37138095D01*
X40092857Y-37138095D01*
X39997619Y-37185714D01*
X39950000Y-37233333D01*
X39902380Y-37328571D01*
X39902380Y-37519047D01*
X39950000Y-37614285D01*
X39997619Y-37661904D01*
X40092857Y-37709523D01*
X40330952Y-37709523D01*
X40426190Y-37661904D01*
X40473809Y-37614285D01*
X40521428Y-37519047D01*
X40521428Y-37328571D01*
X40473809Y-37233333D01*
X40426190Y-37185714D01*
X40330952Y-37138095D01*
X44807142Y-39142857D02*
X44854761Y-39190476D01*
X44902380Y-39333333D01*
X44902380Y-39428571D01*
X44854761Y-39571428D01*
X44759523Y-39666666D01*
X44664285Y-39714285D01*
X44473809Y-39761904D01*
X44330952Y-39761904D01*
X44140476Y-39714285D01*
X44045238Y-39666666D01*
X43950000Y-39571428D01*
X43902380Y-39428571D01*
X43902380Y-39333333D01*
X43950000Y-39190476D01*
X43997619Y-39142857D01*
X44235714Y-38285714D02*
X44902380Y-38285714D01*
X43854761Y-38523809D02*
X44569047Y-38761904D01*
X44569047Y-38142857D01*
X43902380Y-37571428D02*
X43902380Y-37476190D01*
X43950000Y-37380952D01*
X43997619Y-37333333D01*
X44092857Y-37285714D01*
X44283333Y-37238095D01*
X44521428Y-37238095D01*
X44711904Y-37285714D01*
X44807142Y-37333333D01*
X44854761Y-37380952D01*
X44902380Y-37476190D01*
X44902380Y-37571428D01*
X44854761Y-37666666D01*
X44807142Y-37714285D01*
X44711904Y-37761904D01*
X44521428Y-37809523D01*
X44283333Y-37809523D01*
X44092857Y-37761904D01*
X43997619Y-37714285D01*
X43950000Y-37666666D01*
X43902380Y-37571428D01*
X33207142Y-39142857D02*
X33254761Y-39190476D01*
X33302380Y-39333333D01*
X33302380Y-39428571D01*
X33254761Y-39571428D01*
X33159523Y-39666666D01*
X33064285Y-39714285D01*
X32873809Y-39761904D01*
X32730952Y-39761904D01*
X32540476Y-39714285D01*
X32445238Y-39666666D01*
X32350000Y-39571428D01*
X32302380Y-39428571D01*
X32302380Y-39333333D01*
X32350000Y-39190476D01*
X32397619Y-39142857D01*
X32635714Y-38285714D02*
X33302380Y-38285714D01*
X32254761Y-38523809D02*
X32969047Y-38761904D01*
X32969047Y-38142857D01*
X33302380Y-37238095D02*
X33302380Y-37809523D01*
X33302380Y-37523809D02*
X32302380Y-37523809D01*
X32445238Y-37619047D01*
X32540476Y-37714285D01*
X32588095Y-37809523D01*
X38307142Y-39042857D02*
X38354761Y-39090476D01*
X38402380Y-39233333D01*
X38402380Y-39328571D01*
X38354761Y-39471428D01*
X38259523Y-39566666D01*
X38164285Y-39614285D01*
X37973809Y-39661904D01*
X37830952Y-39661904D01*
X37640476Y-39614285D01*
X37545238Y-39566666D01*
X37450000Y-39471428D01*
X37402380Y-39328571D01*
X37402380Y-39233333D01*
X37450000Y-39090476D01*
X37497619Y-39042857D01*
X37735714Y-38185714D02*
X38402380Y-38185714D01*
X37354761Y-38423809D02*
X38069047Y-38661904D01*
X38069047Y-38042857D01*
X37497619Y-37709523D02*
X37450000Y-37661904D01*
X37402380Y-37566666D01*
X37402380Y-37328571D01*
X37450000Y-37233333D01*
X37497619Y-37185714D01*
X37592857Y-37138095D01*
X37688095Y-37138095D01*
X37830952Y-37185714D01*
X38402380Y-37757142D01*
X38402380Y-37138095D01*
X42407142Y-39142857D02*
X42454761Y-39190476D01*
X42502380Y-39333333D01*
X42502380Y-39428571D01*
X42454761Y-39571428D01*
X42359523Y-39666666D01*
X42264285Y-39714285D01*
X42073809Y-39761904D01*
X41930952Y-39761904D01*
X41740476Y-39714285D01*
X41645238Y-39666666D01*
X41550000Y-39571428D01*
X41502380Y-39428571D01*
X41502380Y-39333333D01*
X41550000Y-39190476D01*
X41597619Y-39142857D01*
X41835714Y-38285714D02*
X42502380Y-38285714D01*
X41454761Y-38523809D02*
X42169047Y-38761904D01*
X42169047Y-38142857D01*
X41502380Y-37857142D02*
X41502380Y-37238095D01*
X41883333Y-37571428D01*
X41883333Y-37428571D01*
X41930952Y-37333333D01*
X41978571Y-37285714D01*
X42073809Y-37238095D01*
X42311904Y-37238095D01*
X42407142Y-37285714D01*
X42454761Y-37333333D01*
X42502380Y-37428571D01*
X42502380Y-37714285D01*
X42454761Y-37809523D01*
X42407142Y-37857142D01*
X46407142Y-39142857D02*
X46454761Y-39190476D01*
X46502380Y-39333333D01*
X46502380Y-39428571D01*
X46454761Y-39571428D01*
X46359523Y-39666666D01*
X46264285Y-39714285D01*
X46073809Y-39761904D01*
X45930952Y-39761904D01*
X45740476Y-39714285D01*
X45645238Y-39666666D01*
X45550000Y-39571428D01*
X45502380Y-39428571D01*
X45502380Y-39333333D01*
X45550000Y-39190476D01*
X45597619Y-39142857D01*
X45835714Y-38285714D02*
X46502380Y-38285714D01*
X45454761Y-38523809D02*
X46169047Y-38761904D01*
X46169047Y-38142857D01*
X45835714Y-37333333D02*
X46502380Y-37333333D01*
X45454761Y-37571428D02*
X46169047Y-37809523D01*
X46169047Y-37190476D01*
X68007142Y-38942857D02*
X68054761Y-38990476D01*
X68102380Y-39133333D01*
X68102380Y-39228571D01*
X68054761Y-39371428D01*
X67959523Y-39466666D01*
X67864285Y-39514285D01*
X67673809Y-39561904D01*
X67530952Y-39561904D01*
X67340476Y-39514285D01*
X67245238Y-39466666D01*
X67150000Y-39371428D01*
X67102380Y-39228571D01*
X67102380Y-39133333D01*
X67150000Y-38990476D01*
X67197619Y-38942857D01*
X67435714Y-38085714D02*
X68102380Y-38085714D01*
X67054761Y-38323809D02*
X67769047Y-38561904D01*
X67769047Y-37942857D01*
X67102380Y-37085714D02*
X67102380Y-37561904D01*
X67578571Y-37609523D01*
X67530952Y-37561904D01*
X67483333Y-37466666D01*
X67483333Y-37228571D01*
X67530952Y-37133333D01*
X67578571Y-37085714D01*
X67673809Y-37038095D01*
X67911904Y-37038095D01*
X68007142Y-37085714D01*
X68054761Y-37133333D01*
X68102380Y-37228571D01*
X68102380Y-37466666D01*
X68054761Y-37561904D01*
X68007142Y-37609523D01*
X71807142Y-39042857D02*
X71854761Y-39090476D01*
X71902380Y-39233333D01*
X71902380Y-39328571D01*
X71854761Y-39471428D01*
X71759523Y-39566666D01*
X71664285Y-39614285D01*
X71473809Y-39661904D01*
X71330952Y-39661904D01*
X71140476Y-39614285D01*
X71045238Y-39566666D01*
X70950000Y-39471428D01*
X70902380Y-39328571D01*
X70902380Y-39233333D01*
X70950000Y-39090476D01*
X70997619Y-39042857D01*
X71235714Y-38185714D02*
X71902380Y-38185714D01*
X70854761Y-38423809D02*
X71569047Y-38661904D01*
X71569047Y-38042857D01*
X70902380Y-37233333D02*
X70902380Y-37423809D01*
X70950000Y-37519047D01*
X70997619Y-37566666D01*
X71140476Y-37661904D01*
X71330952Y-37709523D01*
X71711904Y-37709523D01*
X71807142Y-37661904D01*
X71854761Y-37614285D01*
X71902380Y-37519047D01*
X71902380Y-37328571D01*
X71854761Y-37233333D01*
X71807142Y-37185714D01*
X71711904Y-37138095D01*
X71473809Y-37138095D01*
X71378571Y-37185714D01*
X71330952Y-37233333D01*
X71283333Y-37328571D01*
X71283333Y-37519047D01*
X71330952Y-37614285D01*
X71378571Y-37661904D01*
X71473809Y-37709523D01*
X75807142Y-39142857D02*
X75854761Y-39190476D01*
X75902380Y-39333333D01*
X75902380Y-39428571D01*
X75854761Y-39571428D01*
X75759523Y-39666666D01*
X75664285Y-39714285D01*
X75473809Y-39761904D01*
X75330952Y-39761904D01*
X75140476Y-39714285D01*
X75045238Y-39666666D01*
X74950000Y-39571428D01*
X74902380Y-39428571D01*
X74902380Y-39333333D01*
X74950000Y-39190476D01*
X74997619Y-39142857D01*
X75235714Y-38285714D02*
X75902380Y-38285714D01*
X74854761Y-38523809D02*
X75569047Y-38761904D01*
X75569047Y-38142857D01*
X74902380Y-37857142D02*
X74902380Y-37190476D01*
X75902380Y-37619047D01*
X79807142Y-39142857D02*
X79854761Y-39190476D01*
X79902380Y-39333333D01*
X79902380Y-39428571D01*
X79854761Y-39571428D01*
X79759523Y-39666666D01*
X79664285Y-39714285D01*
X79473809Y-39761904D01*
X79330952Y-39761904D01*
X79140476Y-39714285D01*
X79045238Y-39666666D01*
X78950000Y-39571428D01*
X78902380Y-39428571D01*
X78902380Y-39333333D01*
X78950000Y-39190476D01*
X78997619Y-39142857D01*
X79235714Y-38285714D02*
X79902380Y-38285714D01*
X78854761Y-38523809D02*
X79569047Y-38761904D01*
X79569047Y-38142857D01*
X79330952Y-37619047D02*
X79283333Y-37714285D01*
X79235714Y-37761904D01*
X79140476Y-37809523D01*
X79092857Y-37809523D01*
X78997619Y-37761904D01*
X78950000Y-37714285D01*
X78902380Y-37619047D01*
X78902380Y-37428571D01*
X78950000Y-37333333D01*
X78997619Y-37285714D01*
X79092857Y-37238095D01*
X79140476Y-37238095D01*
X79235714Y-37285714D01*
X79283333Y-37333333D01*
X79330952Y-37428571D01*
X79330952Y-37619047D01*
X79378571Y-37714285D01*
X79426190Y-37761904D01*
X79521428Y-37809523D01*
X79711904Y-37809523D01*
X79807142Y-37761904D01*
X79854761Y-37714285D01*
X79902380Y-37619047D01*
X79902380Y-37428571D01*
X79854761Y-37333333D01*
X79807142Y-37285714D01*
X79711904Y-37238095D01*
X79521428Y-37238095D01*
X79426190Y-37285714D01*
X79378571Y-37333333D01*
X79330952Y-37428571D01*
X69307142Y-38942857D02*
X69354761Y-38990476D01*
X69402380Y-39133333D01*
X69402380Y-39228571D01*
X69354761Y-39371428D01*
X69259523Y-39466666D01*
X69164285Y-39514285D01*
X68973809Y-39561904D01*
X68830952Y-39561904D01*
X68640476Y-39514285D01*
X68545238Y-39466666D01*
X68450000Y-39371428D01*
X68402380Y-39228571D01*
X68402380Y-39133333D01*
X68450000Y-38990476D01*
X68497619Y-38942857D01*
X68735714Y-38085714D02*
X69402380Y-38085714D01*
X68354761Y-38323809D02*
X69069047Y-38561904D01*
X69069047Y-37942857D01*
X69402380Y-37514285D02*
X69402380Y-37323809D01*
X69354761Y-37228571D01*
X69307142Y-37180952D01*
X69164285Y-37085714D01*
X68973809Y-37038095D01*
X68592857Y-37038095D01*
X68497619Y-37085714D01*
X68450000Y-37133333D01*
X68402380Y-37228571D01*
X68402380Y-37419047D01*
X68450000Y-37514285D01*
X68497619Y-37561904D01*
X68592857Y-37609523D01*
X68830952Y-37609523D01*
X68926190Y-37561904D01*
X68973809Y-37514285D01*
X69021428Y-37419047D01*
X69021428Y-37228571D01*
X68973809Y-37133333D01*
X68926190Y-37085714D01*
X68830952Y-37038095D01*
X73407142Y-39042857D02*
X73454761Y-39090476D01*
X73502380Y-39233333D01*
X73502380Y-39328571D01*
X73454761Y-39471428D01*
X73359523Y-39566666D01*
X73264285Y-39614285D01*
X73073809Y-39661904D01*
X72930952Y-39661904D01*
X72740476Y-39614285D01*
X72645238Y-39566666D01*
X72550000Y-39471428D01*
X72502380Y-39328571D01*
X72502380Y-39233333D01*
X72550000Y-39090476D01*
X72597619Y-39042857D01*
X72502380Y-38138095D02*
X72502380Y-38614285D01*
X72978571Y-38661904D01*
X72930952Y-38614285D01*
X72883333Y-38519047D01*
X72883333Y-38280952D01*
X72930952Y-38185714D01*
X72978571Y-38138095D01*
X73073809Y-38090476D01*
X73311904Y-38090476D01*
X73407142Y-38138095D01*
X73454761Y-38185714D01*
X73502380Y-38280952D01*
X73502380Y-38519047D01*
X73454761Y-38614285D01*
X73407142Y-38661904D01*
X72502380Y-37471428D02*
X72502380Y-37376190D01*
X72550000Y-37280952D01*
X72597619Y-37233333D01*
X72692857Y-37185714D01*
X72883333Y-37138095D01*
X73121428Y-37138095D01*
X73311904Y-37185714D01*
X73407142Y-37233333D01*
X73454761Y-37280952D01*
X73502380Y-37376190D01*
X73502380Y-37471428D01*
X73454761Y-37566666D01*
X73407142Y-37614285D01*
X73311904Y-37661904D01*
X73121428Y-37709523D01*
X72883333Y-37709523D01*
X72692857Y-37661904D01*
X72597619Y-37614285D01*
X72550000Y-37566666D01*
X72502380Y-37471428D01*
X77407142Y-39142857D02*
X77454761Y-39190476D01*
X77502380Y-39333333D01*
X77502380Y-39428571D01*
X77454761Y-39571428D01*
X77359523Y-39666666D01*
X77264285Y-39714285D01*
X77073809Y-39761904D01*
X76930952Y-39761904D01*
X76740476Y-39714285D01*
X76645238Y-39666666D01*
X76550000Y-39571428D01*
X76502380Y-39428571D01*
X76502380Y-39333333D01*
X76550000Y-39190476D01*
X76597619Y-39142857D01*
X76502380Y-38238095D02*
X76502380Y-38714285D01*
X76978571Y-38761904D01*
X76930952Y-38714285D01*
X76883333Y-38619047D01*
X76883333Y-38380952D01*
X76930952Y-38285714D01*
X76978571Y-38238095D01*
X77073809Y-38190476D01*
X77311904Y-38190476D01*
X77407142Y-38238095D01*
X77454761Y-38285714D01*
X77502380Y-38380952D01*
X77502380Y-38619047D01*
X77454761Y-38714285D01*
X77407142Y-38761904D01*
X77502380Y-37238095D02*
X77502380Y-37809523D01*
X77502380Y-37523809D02*
X76502380Y-37523809D01*
X76645238Y-37619047D01*
X76740476Y-37714285D01*
X76788095Y-37809523D01*
X81407142Y-39142857D02*
X81454761Y-39190476D01*
X81502380Y-39333333D01*
X81502380Y-39428571D01*
X81454761Y-39571428D01*
X81359523Y-39666666D01*
X81264285Y-39714285D01*
X81073809Y-39761904D01*
X80930952Y-39761904D01*
X80740476Y-39714285D01*
X80645238Y-39666666D01*
X80550000Y-39571428D01*
X80502380Y-39428571D01*
X80502380Y-39333333D01*
X80550000Y-39190476D01*
X80597619Y-39142857D01*
X80502380Y-38238095D02*
X80502380Y-38714285D01*
X80978571Y-38761904D01*
X80930952Y-38714285D01*
X80883333Y-38619047D01*
X80883333Y-38380952D01*
X80930952Y-38285714D01*
X80978571Y-38238095D01*
X81073809Y-38190476D01*
X81311904Y-38190476D01*
X81407142Y-38238095D01*
X81454761Y-38285714D01*
X81502380Y-38380952D01*
X81502380Y-38619047D01*
X81454761Y-38714285D01*
X81407142Y-38761904D01*
X80597619Y-37809523D02*
X80550000Y-37761904D01*
X80502380Y-37666666D01*
X80502380Y-37428571D01*
X80550000Y-37333333D01*
X80597619Y-37285714D01*
X80692857Y-37238095D01*
X80788095Y-37238095D01*
X80930952Y-37285714D01*
X81502380Y-37857142D01*
X81502380Y-37238095D01*
X101107142Y-39042857D02*
X101154761Y-39090476D01*
X101202380Y-39233333D01*
X101202380Y-39328571D01*
X101154761Y-39471428D01*
X101059523Y-39566666D01*
X100964285Y-39614285D01*
X100773809Y-39661904D01*
X100630952Y-39661904D01*
X100440476Y-39614285D01*
X100345238Y-39566666D01*
X100250000Y-39471428D01*
X100202380Y-39328571D01*
X100202380Y-39233333D01*
X100250000Y-39090476D01*
X100297619Y-39042857D01*
X100202380Y-38138095D02*
X100202380Y-38614285D01*
X100678571Y-38661904D01*
X100630952Y-38614285D01*
X100583333Y-38519047D01*
X100583333Y-38280952D01*
X100630952Y-38185714D01*
X100678571Y-38138095D01*
X100773809Y-38090476D01*
X101011904Y-38090476D01*
X101107142Y-38138095D01*
X101154761Y-38185714D01*
X101202380Y-38280952D01*
X101202380Y-38519047D01*
X101154761Y-38614285D01*
X101107142Y-38661904D01*
X100202380Y-37757142D02*
X100202380Y-37138095D01*
X100583333Y-37471428D01*
X100583333Y-37328571D01*
X100630952Y-37233333D01*
X100678571Y-37185714D01*
X100773809Y-37138095D01*
X101011904Y-37138095D01*
X101107142Y-37185714D01*
X101154761Y-37233333D01*
X101202380Y-37328571D01*
X101202380Y-37614285D01*
X101154761Y-37709523D01*
X101107142Y-37757142D01*
X104807142Y-39142857D02*
X104854761Y-39190476D01*
X104902380Y-39333333D01*
X104902380Y-39428571D01*
X104854761Y-39571428D01*
X104759523Y-39666666D01*
X104664285Y-39714285D01*
X104473809Y-39761904D01*
X104330952Y-39761904D01*
X104140476Y-39714285D01*
X104045238Y-39666666D01*
X103950000Y-39571428D01*
X103902380Y-39428571D01*
X103902380Y-39333333D01*
X103950000Y-39190476D01*
X103997619Y-39142857D01*
X103902380Y-38238095D02*
X103902380Y-38714285D01*
X104378571Y-38761904D01*
X104330952Y-38714285D01*
X104283333Y-38619047D01*
X104283333Y-38380952D01*
X104330952Y-38285714D01*
X104378571Y-38238095D01*
X104473809Y-38190476D01*
X104711904Y-38190476D01*
X104807142Y-38238095D01*
X104854761Y-38285714D01*
X104902380Y-38380952D01*
X104902380Y-38619047D01*
X104854761Y-38714285D01*
X104807142Y-38761904D01*
X104235714Y-37333333D02*
X104902380Y-37333333D01*
X103854761Y-37571428D02*
X104569047Y-37809523D01*
X104569047Y-37190476D01*
X108807142Y-39142857D02*
X108854761Y-39190476D01*
X108902380Y-39333333D01*
X108902380Y-39428571D01*
X108854761Y-39571428D01*
X108759523Y-39666666D01*
X108664285Y-39714285D01*
X108473809Y-39761904D01*
X108330952Y-39761904D01*
X108140476Y-39714285D01*
X108045238Y-39666666D01*
X107950000Y-39571428D01*
X107902380Y-39428571D01*
X107902380Y-39333333D01*
X107950000Y-39190476D01*
X107997619Y-39142857D01*
X107902380Y-38238095D02*
X107902380Y-38714285D01*
X108378571Y-38761904D01*
X108330952Y-38714285D01*
X108283333Y-38619047D01*
X108283333Y-38380952D01*
X108330952Y-38285714D01*
X108378571Y-38238095D01*
X108473809Y-38190476D01*
X108711904Y-38190476D01*
X108807142Y-38238095D01*
X108854761Y-38285714D01*
X108902380Y-38380952D01*
X108902380Y-38619047D01*
X108854761Y-38714285D01*
X108807142Y-38761904D01*
X107902380Y-37285714D02*
X107902380Y-37761904D01*
X108378571Y-37809523D01*
X108330952Y-37761904D01*
X108283333Y-37666666D01*
X108283333Y-37428571D01*
X108330952Y-37333333D01*
X108378571Y-37285714D01*
X108473809Y-37238095D01*
X108711904Y-37238095D01*
X108807142Y-37285714D01*
X108854761Y-37333333D01*
X108902380Y-37428571D01*
X108902380Y-37666666D01*
X108854761Y-37761904D01*
X108807142Y-37809523D01*
X112807142Y-39142857D02*
X112854761Y-39190476D01*
X112902380Y-39333333D01*
X112902380Y-39428571D01*
X112854761Y-39571428D01*
X112759523Y-39666666D01*
X112664285Y-39714285D01*
X112473809Y-39761904D01*
X112330952Y-39761904D01*
X112140476Y-39714285D01*
X112045238Y-39666666D01*
X111950000Y-39571428D01*
X111902380Y-39428571D01*
X111902380Y-39333333D01*
X111950000Y-39190476D01*
X111997619Y-39142857D01*
X111902380Y-38238095D02*
X111902380Y-38714285D01*
X112378571Y-38761904D01*
X112330952Y-38714285D01*
X112283333Y-38619047D01*
X112283333Y-38380952D01*
X112330952Y-38285714D01*
X112378571Y-38238095D01*
X112473809Y-38190476D01*
X112711904Y-38190476D01*
X112807142Y-38238095D01*
X112854761Y-38285714D01*
X112902380Y-38380952D01*
X112902380Y-38619047D01*
X112854761Y-38714285D01*
X112807142Y-38761904D01*
X111902380Y-37333333D02*
X111902380Y-37523809D01*
X111950000Y-37619047D01*
X111997619Y-37666666D01*
X112140476Y-37761904D01*
X112330952Y-37809523D01*
X112711904Y-37809523D01*
X112807142Y-37761904D01*
X112854761Y-37714285D01*
X112902380Y-37619047D01*
X112902380Y-37428571D01*
X112854761Y-37333333D01*
X112807142Y-37285714D01*
X112711904Y-37238095D01*
X112473809Y-37238095D01*
X112378571Y-37285714D01*
X112330952Y-37333333D01*
X112283333Y-37428571D01*
X112283333Y-37619047D01*
X112330952Y-37714285D01*
X112378571Y-37761904D01*
X112473809Y-37809523D01*
X102407142Y-39042857D02*
X102454761Y-39090476D01*
X102502380Y-39233333D01*
X102502380Y-39328571D01*
X102454761Y-39471428D01*
X102359523Y-39566666D01*
X102264285Y-39614285D01*
X102073809Y-39661904D01*
X101930952Y-39661904D01*
X101740476Y-39614285D01*
X101645238Y-39566666D01*
X101550000Y-39471428D01*
X101502380Y-39328571D01*
X101502380Y-39233333D01*
X101550000Y-39090476D01*
X101597619Y-39042857D01*
X101502380Y-38138095D02*
X101502380Y-38614285D01*
X101978571Y-38661904D01*
X101930952Y-38614285D01*
X101883333Y-38519047D01*
X101883333Y-38280952D01*
X101930952Y-38185714D01*
X101978571Y-38138095D01*
X102073809Y-38090476D01*
X102311904Y-38090476D01*
X102407142Y-38138095D01*
X102454761Y-38185714D01*
X102502380Y-38280952D01*
X102502380Y-38519047D01*
X102454761Y-38614285D01*
X102407142Y-38661904D01*
X101502380Y-37757142D02*
X101502380Y-37090476D01*
X102502380Y-37519047D01*
X106407142Y-39142857D02*
X106454761Y-39190476D01*
X106502380Y-39333333D01*
X106502380Y-39428571D01*
X106454761Y-39571428D01*
X106359523Y-39666666D01*
X106264285Y-39714285D01*
X106073809Y-39761904D01*
X105930952Y-39761904D01*
X105740476Y-39714285D01*
X105645238Y-39666666D01*
X105550000Y-39571428D01*
X105502380Y-39428571D01*
X105502380Y-39333333D01*
X105550000Y-39190476D01*
X105597619Y-39142857D01*
X105502380Y-38238095D02*
X105502380Y-38714285D01*
X105978571Y-38761904D01*
X105930952Y-38714285D01*
X105883333Y-38619047D01*
X105883333Y-38380952D01*
X105930952Y-38285714D01*
X105978571Y-38238095D01*
X106073809Y-38190476D01*
X106311904Y-38190476D01*
X106407142Y-38238095D01*
X106454761Y-38285714D01*
X106502380Y-38380952D01*
X106502380Y-38619047D01*
X106454761Y-38714285D01*
X106407142Y-38761904D01*
X105930952Y-37619047D02*
X105883333Y-37714285D01*
X105835714Y-37761904D01*
X105740476Y-37809523D01*
X105692857Y-37809523D01*
X105597619Y-37761904D01*
X105550000Y-37714285D01*
X105502380Y-37619047D01*
X105502380Y-37428571D01*
X105550000Y-37333333D01*
X105597619Y-37285714D01*
X105692857Y-37238095D01*
X105740476Y-37238095D01*
X105835714Y-37285714D01*
X105883333Y-37333333D01*
X105930952Y-37428571D01*
X105930952Y-37619047D01*
X105978571Y-37714285D01*
X106026190Y-37761904D01*
X106121428Y-37809523D01*
X106311904Y-37809523D01*
X106407142Y-37761904D01*
X106454761Y-37714285D01*
X106502380Y-37619047D01*
X106502380Y-37428571D01*
X106454761Y-37333333D01*
X106407142Y-37285714D01*
X106311904Y-37238095D01*
X106121428Y-37238095D01*
X106026190Y-37285714D01*
X105978571Y-37333333D01*
X105930952Y-37428571D01*
X110407142Y-39142857D02*
X110454761Y-39190476D01*
X110502380Y-39333333D01*
X110502380Y-39428571D01*
X110454761Y-39571428D01*
X110359523Y-39666666D01*
X110264285Y-39714285D01*
X110073809Y-39761904D01*
X109930952Y-39761904D01*
X109740476Y-39714285D01*
X109645238Y-39666666D01*
X109550000Y-39571428D01*
X109502380Y-39428571D01*
X109502380Y-39333333D01*
X109550000Y-39190476D01*
X109597619Y-39142857D01*
X109502380Y-38238095D02*
X109502380Y-38714285D01*
X109978571Y-38761904D01*
X109930952Y-38714285D01*
X109883333Y-38619047D01*
X109883333Y-38380952D01*
X109930952Y-38285714D01*
X109978571Y-38238095D01*
X110073809Y-38190476D01*
X110311904Y-38190476D01*
X110407142Y-38238095D01*
X110454761Y-38285714D01*
X110502380Y-38380952D01*
X110502380Y-38619047D01*
X110454761Y-38714285D01*
X110407142Y-38761904D01*
X110502380Y-37714285D02*
X110502380Y-37523809D01*
X110454761Y-37428571D01*
X110407142Y-37380952D01*
X110264285Y-37285714D01*
X110073809Y-37238095D01*
X109692857Y-37238095D01*
X109597619Y-37285714D01*
X109550000Y-37333333D01*
X109502380Y-37428571D01*
X109502380Y-37619047D01*
X109550000Y-37714285D01*
X109597619Y-37761904D01*
X109692857Y-37809523D01*
X109930952Y-37809523D01*
X110026190Y-37761904D01*
X110073809Y-37714285D01*
X110121428Y-37619047D01*
X110121428Y-37428571D01*
X110073809Y-37333333D01*
X110026190Y-37285714D01*
X109930952Y-37238095D01*
X114307142Y-39142857D02*
X114354761Y-39190476D01*
X114402380Y-39333333D01*
X114402380Y-39428571D01*
X114354761Y-39571428D01*
X114259523Y-39666666D01*
X114164285Y-39714285D01*
X113973809Y-39761904D01*
X113830952Y-39761904D01*
X113640476Y-39714285D01*
X113545238Y-39666666D01*
X113450000Y-39571428D01*
X113402380Y-39428571D01*
X113402380Y-39333333D01*
X113450000Y-39190476D01*
X113497619Y-39142857D01*
X113402380Y-38285714D02*
X113402380Y-38476190D01*
X113450000Y-38571428D01*
X113497619Y-38619047D01*
X113640476Y-38714285D01*
X113830952Y-38761904D01*
X114211904Y-38761904D01*
X114307142Y-38714285D01*
X114354761Y-38666666D01*
X114402380Y-38571428D01*
X114402380Y-38380952D01*
X114354761Y-38285714D01*
X114307142Y-38238095D01*
X114211904Y-38190476D01*
X113973809Y-38190476D01*
X113878571Y-38238095D01*
X113830952Y-38285714D01*
X113783333Y-38380952D01*
X113783333Y-38571428D01*
X113830952Y-38666666D01*
X113878571Y-38714285D01*
X113973809Y-38761904D01*
X113402380Y-37571428D02*
X113402380Y-37476190D01*
X113450000Y-37380952D01*
X113497619Y-37333333D01*
X113592857Y-37285714D01*
X113783333Y-37238095D01*
X114021428Y-37238095D01*
X114211904Y-37285714D01*
X114307142Y-37333333D01*
X114354761Y-37380952D01*
X114402380Y-37476190D01*
X114402380Y-37571428D01*
X114354761Y-37666666D01*
X114307142Y-37714285D01*
X114211904Y-37761904D01*
X114021428Y-37809523D01*
X113783333Y-37809523D01*
X113592857Y-37761904D01*
X113497619Y-37714285D01*
X113450000Y-37666666D01*
X113402380Y-37571428D01*
X116807142Y-39142857D02*
X116854761Y-39190476D01*
X116902380Y-39333333D01*
X116902380Y-39428571D01*
X116854761Y-39571428D01*
X116759523Y-39666666D01*
X116664285Y-39714285D01*
X116473809Y-39761904D01*
X116330952Y-39761904D01*
X116140476Y-39714285D01*
X116045238Y-39666666D01*
X115950000Y-39571428D01*
X115902380Y-39428571D01*
X115902380Y-39333333D01*
X115950000Y-39190476D01*
X115997619Y-39142857D01*
X115902380Y-38285714D02*
X115902380Y-38476190D01*
X115950000Y-38571428D01*
X115997619Y-38619047D01*
X116140476Y-38714285D01*
X116330952Y-38761904D01*
X116711904Y-38761904D01*
X116807142Y-38714285D01*
X116854761Y-38666666D01*
X116902380Y-38571428D01*
X116902380Y-38380952D01*
X116854761Y-38285714D01*
X116807142Y-38238095D01*
X116711904Y-38190476D01*
X116473809Y-38190476D01*
X116378571Y-38238095D01*
X116330952Y-38285714D01*
X116283333Y-38380952D01*
X116283333Y-38571428D01*
X116330952Y-38666666D01*
X116378571Y-38714285D01*
X116473809Y-38761904D01*
X116902380Y-37238095D02*
X116902380Y-37809523D01*
X116902380Y-37523809D02*
X115902380Y-37523809D01*
X116045238Y-37619047D01*
X116140476Y-37714285D01*
X116188095Y-37809523D01*
X120807142Y-39142857D02*
X120854761Y-39190476D01*
X120902380Y-39333333D01*
X120902380Y-39428571D01*
X120854761Y-39571428D01*
X120759523Y-39666666D01*
X120664285Y-39714285D01*
X120473809Y-39761904D01*
X120330952Y-39761904D01*
X120140476Y-39714285D01*
X120045238Y-39666666D01*
X119950000Y-39571428D01*
X119902380Y-39428571D01*
X119902380Y-39333333D01*
X119950000Y-39190476D01*
X119997619Y-39142857D01*
X119902380Y-38285714D02*
X119902380Y-38476190D01*
X119950000Y-38571428D01*
X119997619Y-38619047D01*
X120140476Y-38714285D01*
X120330952Y-38761904D01*
X120711904Y-38761904D01*
X120807142Y-38714285D01*
X120854761Y-38666666D01*
X120902380Y-38571428D01*
X120902380Y-38380952D01*
X120854761Y-38285714D01*
X120807142Y-38238095D01*
X120711904Y-38190476D01*
X120473809Y-38190476D01*
X120378571Y-38238095D01*
X120330952Y-38285714D01*
X120283333Y-38380952D01*
X120283333Y-38571428D01*
X120330952Y-38666666D01*
X120378571Y-38714285D01*
X120473809Y-38761904D01*
X119997619Y-37809523D02*
X119950000Y-37761904D01*
X119902380Y-37666666D01*
X119902380Y-37428571D01*
X119950000Y-37333333D01*
X119997619Y-37285714D01*
X120092857Y-37238095D01*
X120188095Y-37238095D01*
X120330952Y-37285714D01*
X120902380Y-37857142D01*
X120902380Y-37238095D01*
X124807142Y-39142857D02*
X124854761Y-39190476D01*
X124902380Y-39333333D01*
X124902380Y-39428571D01*
X124854761Y-39571428D01*
X124759523Y-39666666D01*
X124664285Y-39714285D01*
X124473809Y-39761904D01*
X124330952Y-39761904D01*
X124140476Y-39714285D01*
X124045238Y-39666666D01*
X123950000Y-39571428D01*
X123902380Y-39428571D01*
X123902380Y-39333333D01*
X123950000Y-39190476D01*
X123997619Y-39142857D01*
X123902380Y-38285714D02*
X123902380Y-38476190D01*
X123950000Y-38571428D01*
X123997619Y-38619047D01*
X124140476Y-38714285D01*
X124330952Y-38761904D01*
X124711904Y-38761904D01*
X124807142Y-38714285D01*
X124854761Y-38666666D01*
X124902380Y-38571428D01*
X124902380Y-38380952D01*
X124854761Y-38285714D01*
X124807142Y-38238095D01*
X124711904Y-38190476D01*
X124473809Y-38190476D01*
X124378571Y-38238095D01*
X124330952Y-38285714D01*
X124283333Y-38380952D01*
X124283333Y-38571428D01*
X124330952Y-38666666D01*
X124378571Y-38714285D01*
X124473809Y-38761904D01*
X123902380Y-37857142D02*
X123902380Y-37238095D01*
X124283333Y-37571428D01*
X124283333Y-37428571D01*
X124330952Y-37333333D01*
X124378571Y-37285714D01*
X124473809Y-37238095D01*
X124711904Y-37238095D01*
X124807142Y-37285714D01*
X124854761Y-37333333D01*
X124902380Y-37428571D01*
X124902380Y-37714285D01*
X124854761Y-37809523D01*
X124807142Y-37857142D01*
X128807142Y-39142857D02*
X128854761Y-39190476D01*
X128902380Y-39333333D01*
X128902380Y-39428571D01*
X128854761Y-39571428D01*
X128759523Y-39666666D01*
X128664285Y-39714285D01*
X128473809Y-39761904D01*
X128330952Y-39761904D01*
X128140476Y-39714285D01*
X128045238Y-39666666D01*
X127950000Y-39571428D01*
X127902380Y-39428571D01*
X127902380Y-39333333D01*
X127950000Y-39190476D01*
X127997619Y-39142857D01*
X127902380Y-38285714D02*
X127902380Y-38476190D01*
X127950000Y-38571428D01*
X127997619Y-38619047D01*
X128140476Y-38714285D01*
X128330952Y-38761904D01*
X128711904Y-38761904D01*
X128807142Y-38714285D01*
X128854761Y-38666666D01*
X128902380Y-38571428D01*
X128902380Y-38380952D01*
X128854761Y-38285714D01*
X128807142Y-38238095D01*
X128711904Y-38190476D01*
X128473809Y-38190476D01*
X128378571Y-38238095D01*
X128330952Y-38285714D01*
X128283333Y-38380952D01*
X128283333Y-38571428D01*
X128330952Y-38666666D01*
X128378571Y-38714285D01*
X128473809Y-38761904D01*
X128235714Y-37333333D02*
X128902380Y-37333333D01*
X127854761Y-37571428D02*
X128569047Y-37809523D01*
X128569047Y-37190476D01*
X50807142Y-39042857D02*
X50854761Y-39090476D01*
X50902380Y-39233333D01*
X50902380Y-39328571D01*
X50854761Y-39471428D01*
X50759523Y-39566666D01*
X50664285Y-39614285D01*
X50473809Y-39661904D01*
X50330952Y-39661904D01*
X50140476Y-39614285D01*
X50045238Y-39566666D01*
X49950000Y-39471428D01*
X49902380Y-39328571D01*
X49902380Y-39233333D01*
X49950000Y-39090476D01*
X49997619Y-39042857D01*
X49902380Y-38185714D02*
X49902380Y-38376190D01*
X49950000Y-38471428D01*
X49997619Y-38519047D01*
X50140476Y-38614285D01*
X50330952Y-38661904D01*
X50711904Y-38661904D01*
X50807142Y-38614285D01*
X50854761Y-38566666D01*
X50902380Y-38471428D01*
X50902380Y-38280952D01*
X50854761Y-38185714D01*
X50807142Y-38138095D01*
X50711904Y-38090476D01*
X50473809Y-38090476D01*
X50378571Y-38138095D01*
X50330952Y-38185714D01*
X50283333Y-38280952D01*
X50283333Y-38471428D01*
X50330952Y-38566666D01*
X50378571Y-38614285D01*
X50473809Y-38661904D01*
X49902380Y-37185714D02*
X49902380Y-37661904D01*
X50378571Y-37709523D01*
X50330952Y-37661904D01*
X50283333Y-37566666D01*
X50283333Y-37328571D01*
X50330952Y-37233333D01*
X50378571Y-37185714D01*
X50473809Y-37138095D01*
X50711904Y-37138095D01*
X50807142Y-37185714D01*
X50854761Y-37233333D01*
X50902380Y-37328571D01*
X50902380Y-37566666D01*
X50854761Y-37661904D01*
X50807142Y-37709523D01*
X54807142Y-38942857D02*
X54854761Y-38990476D01*
X54902380Y-39133333D01*
X54902380Y-39228571D01*
X54854761Y-39371428D01*
X54759523Y-39466666D01*
X54664285Y-39514285D01*
X54473809Y-39561904D01*
X54330952Y-39561904D01*
X54140476Y-39514285D01*
X54045238Y-39466666D01*
X53950000Y-39371428D01*
X53902380Y-39228571D01*
X53902380Y-39133333D01*
X53950000Y-38990476D01*
X53997619Y-38942857D01*
X53902380Y-38085714D02*
X53902380Y-38276190D01*
X53950000Y-38371428D01*
X53997619Y-38419047D01*
X54140476Y-38514285D01*
X54330952Y-38561904D01*
X54711904Y-38561904D01*
X54807142Y-38514285D01*
X54854761Y-38466666D01*
X54902380Y-38371428D01*
X54902380Y-38180952D01*
X54854761Y-38085714D01*
X54807142Y-38038095D01*
X54711904Y-37990476D01*
X54473809Y-37990476D01*
X54378571Y-38038095D01*
X54330952Y-38085714D01*
X54283333Y-38180952D01*
X54283333Y-38371428D01*
X54330952Y-38466666D01*
X54378571Y-38514285D01*
X54473809Y-38561904D01*
X53902380Y-37133333D02*
X53902380Y-37323809D01*
X53950000Y-37419047D01*
X53997619Y-37466666D01*
X54140476Y-37561904D01*
X54330952Y-37609523D01*
X54711904Y-37609523D01*
X54807142Y-37561904D01*
X54854761Y-37514285D01*
X54902380Y-37419047D01*
X54902380Y-37228571D01*
X54854761Y-37133333D01*
X54807142Y-37085714D01*
X54711904Y-37038095D01*
X54473809Y-37038095D01*
X54378571Y-37085714D01*
X54330952Y-37133333D01*
X54283333Y-37228571D01*
X54283333Y-37419047D01*
X54330952Y-37514285D01*
X54378571Y-37561904D01*
X54473809Y-37609523D01*
X58807142Y-39042857D02*
X58854761Y-39090476D01*
X58902380Y-39233333D01*
X58902380Y-39328571D01*
X58854761Y-39471428D01*
X58759523Y-39566666D01*
X58664285Y-39614285D01*
X58473809Y-39661904D01*
X58330952Y-39661904D01*
X58140476Y-39614285D01*
X58045238Y-39566666D01*
X57950000Y-39471428D01*
X57902380Y-39328571D01*
X57902380Y-39233333D01*
X57950000Y-39090476D01*
X57997619Y-39042857D01*
X57902380Y-38185714D02*
X57902380Y-38376190D01*
X57950000Y-38471428D01*
X57997619Y-38519047D01*
X58140476Y-38614285D01*
X58330952Y-38661904D01*
X58711904Y-38661904D01*
X58807142Y-38614285D01*
X58854761Y-38566666D01*
X58902380Y-38471428D01*
X58902380Y-38280952D01*
X58854761Y-38185714D01*
X58807142Y-38138095D01*
X58711904Y-38090476D01*
X58473809Y-38090476D01*
X58378571Y-38138095D01*
X58330952Y-38185714D01*
X58283333Y-38280952D01*
X58283333Y-38471428D01*
X58330952Y-38566666D01*
X58378571Y-38614285D01*
X58473809Y-38661904D01*
X57902380Y-37757142D02*
X57902380Y-37090476D01*
X58902380Y-37519047D01*
X62807142Y-39042857D02*
X62854761Y-39090476D01*
X62902380Y-39233333D01*
X62902380Y-39328571D01*
X62854761Y-39471428D01*
X62759523Y-39566666D01*
X62664285Y-39614285D01*
X62473809Y-39661904D01*
X62330952Y-39661904D01*
X62140476Y-39614285D01*
X62045238Y-39566666D01*
X61950000Y-39471428D01*
X61902380Y-39328571D01*
X61902380Y-39233333D01*
X61950000Y-39090476D01*
X61997619Y-39042857D01*
X61902380Y-38185714D02*
X61902380Y-38376190D01*
X61950000Y-38471428D01*
X61997619Y-38519047D01*
X62140476Y-38614285D01*
X62330952Y-38661904D01*
X62711904Y-38661904D01*
X62807142Y-38614285D01*
X62854761Y-38566666D01*
X62902380Y-38471428D01*
X62902380Y-38280952D01*
X62854761Y-38185714D01*
X62807142Y-38138095D01*
X62711904Y-38090476D01*
X62473809Y-38090476D01*
X62378571Y-38138095D01*
X62330952Y-38185714D01*
X62283333Y-38280952D01*
X62283333Y-38471428D01*
X62330952Y-38566666D01*
X62378571Y-38614285D01*
X62473809Y-38661904D01*
X62330952Y-37519047D02*
X62283333Y-37614285D01*
X62235714Y-37661904D01*
X62140476Y-37709523D01*
X62092857Y-37709523D01*
X61997619Y-37661904D01*
X61950000Y-37614285D01*
X61902380Y-37519047D01*
X61902380Y-37328571D01*
X61950000Y-37233333D01*
X61997619Y-37185714D01*
X62092857Y-37138095D01*
X62140476Y-37138095D01*
X62235714Y-37185714D01*
X62283333Y-37233333D01*
X62330952Y-37328571D01*
X62330952Y-37519047D01*
X62378571Y-37614285D01*
X62426190Y-37661904D01*
X62521428Y-37709523D01*
X62711904Y-37709523D01*
X62807142Y-37661904D01*
X62854761Y-37614285D01*
X62902380Y-37519047D01*
X62902380Y-37328571D01*
X62854761Y-37233333D01*
X62807142Y-37185714D01*
X62711904Y-37138095D01*
X62521428Y-37138095D01*
X62426190Y-37185714D01*
X62378571Y-37233333D01*
X62330952Y-37328571D01*
X118407142Y-39142857D02*
X118454761Y-39190476D01*
X118502380Y-39333333D01*
X118502380Y-39428571D01*
X118454761Y-39571428D01*
X118359523Y-39666666D01*
X118264285Y-39714285D01*
X118073809Y-39761904D01*
X117930952Y-39761904D01*
X117740476Y-39714285D01*
X117645238Y-39666666D01*
X117550000Y-39571428D01*
X117502380Y-39428571D01*
X117502380Y-39333333D01*
X117550000Y-39190476D01*
X117597619Y-39142857D01*
X117502380Y-38285714D02*
X117502380Y-38476190D01*
X117550000Y-38571428D01*
X117597619Y-38619047D01*
X117740476Y-38714285D01*
X117930952Y-38761904D01*
X118311904Y-38761904D01*
X118407142Y-38714285D01*
X118454761Y-38666666D01*
X118502380Y-38571428D01*
X118502380Y-38380952D01*
X118454761Y-38285714D01*
X118407142Y-38238095D01*
X118311904Y-38190476D01*
X118073809Y-38190476D01*
X117978571Y-38238095D01*
X117930952Y-38285714D01*
X117883333Y-38380952D01*
X117883333Y-38571428D01*
X117930952Y-38666666D01*
X117978571Y-38714285D01*
X118073809Y-38761904D01*
X118502380Y-37714285D02*
X118502380Y-37523809D01*
X118454761Y-37428571D01*
X118407142Y-37380952D01*
X118264285Y-37285714D01*
X118073809Y-37238095D01*
X117692857Y-37238095D01*
X117597619Y-37285714D01*
X117550000Y-37333333D01*
X117502380Y-37428571D01*
X117502380Y-37619047D01*
X117550000Y-37714285D01*
X117597619Y-37761904D01*
X117692857Y-37809523D01*
X117930952Y-37809523D01*
X118026190Y-37761904D01*
X118073809Y-37714285D01*
X118121428Y-37619047D01*
X118121428Y-37428571D01*
X118073809Y-37333333D01*
X118026190Y-37285714D01*
X117930952Y-37238095D01*
X122407142Y-39142857D02*
X122454761Y-39190476D01*
X122502380Y-39333333D01*
X122502380Y-39428571D01*
X122454761Y-39571428D01*
X122359523Y-39666666D01*
X122264285Y-39714285D01*
X122073809Y-39761904D01*
X121930952Y-39761904D01*
X121740476Y-39714285D01*
X121645238Y-39666666D01*
X121550000Y-39571428D01*
X121502380Y-39428571D01*
X121502380Y-39333333D01*
X121550000Y-39190476D01*
X121597619Y-39142857D01*
X121502380Y-38809523D02*
X121502380Y-38142857D01*
X122502380Y-38571428D01*
X121502380Y-37571428D02*
X121502380Y-37476190D01*
X121550000Y-37380952D01*
X121597619Y-37333333D01*
X121692857Y-37285714D01*
X121883333Y-37238095D01*
X122121428Y-37238095D01*
X122311904Y-37285714D01*
X122407142Y-37333333D01*
X122454761Y-37380952D01*
X122502380Y-37476190D01*
X122502380Y-37571428D01*
X122454761Y-37666666D01*
X122407142Y-37714285D01*
X122311904Y-37761904D01*
X122121428Y-37809523D01*
X121883333Y-37809523D01*
X121692857Y-37761904D01*
X121597619Y-37714285D01*
X121550000Y-37666666D01*
X121502380Y-37571428D01*
X126407142Y-39142857D02*
X126454761Y-39190476D01*
X126502380Y-39333333D01*
X126502380Y-39428571D01*
X126454761Y-39571428D01*
X126359523Y-39666666D01*
X126264285Y-39714285D01*
X126073809Y-39761904D01*
X125930952Y-39761904D01*
X125740476Y-39714285D01*
X125645238Y-39666666D01*
X125550000Y-39571428D01*
X125502380Y-39428571D01*
X125502380Y-39333333D01*
X125550000Y-39190476D01*
X125597619Y-39142857D01*
X125502380Y-38809523D02*
X125502380Y-38142857D01*
X126502380Y-38571428D01*
X126502380Y-37238095D02*
X126502380Y-37809523D01*
X126502380Y-37523809D02*
X125502380Y-37523809D01*
X125645238Y-37619047D01*
X125740476Y-37714285D01*
X125788095Y-37809523D01*
X130407142Y-39142857D02*
X130454761Y-39190476D01*
X130502380Y-39333333D01*
X130502380Y-39428571D01*
X130454761Y-39571428D01*
X130359523Y-39666666D01*
X130264285Y-39714285D01*
X130073809Y-39761904D01*
X129930952Y-39761904D01*
X129740476Y-39714285D01*
X129645238Y-39666666D01*
X129550000Y-39571428D01*
X129502380Y-39428571D01*
X129502380Y-39333333D01*
X129550000Y-39190476D01*
X129597619Y-39142857D01*
X129502380Y-38809523D02*
X129502380Y-38142857D01*
X130502380Y-38571428D01*
X129597619Y-37809523D02*
X129550000Y-37761904D01*
X129502380Y-37666666D01*
X129502380Y-37428571D01*
X129550000Y-37333333D01*
X129597619Y-37285714D01*
X129692857Y-37238095D01*
X129788095Y-37238095D01*
X129930952Y-37285714D01*
X130502380Y-37857142D01*
X130502380Y-37238095D01*
X52407142Y-39042857D02*
X52454761Y-39090476D01*
X52502380Y-39233333D01*
X52502380Y-39328571D01*
X52454761Y-39471428D01*
X52359523Y-39566666D01*
X52264285Y-39614285D01*
X52073809Y-39661904D01*
X51930952Y-39661904D01*
X51740476Y-39614285D01*
X51645238Y-39566666D01*
X51550000Y-39471428D01*
X51502380Y-39328571D01*
X51502380Y-39233333D01*
X51550000Y-39090476D01*
X51597619Y-39042857D01*
X51502380Y-38709523D02*
X51502380Y-38042857D01*
X52502380Y-38471428D01*
X51502380Y-37757142D02*
X51502380Y-37138095D01*
X51883333Y-37471428D01*
X51883333Y-37328571D01*
X51930952Y-37233333D01*
X51978571Y-37185714D01*
X52073809Y-37138095D01*
X52311904Y-37138095D01*
X52407142Y-37185714D01*
X52454761Y-37233333D01*
X52502380Y-37328571D01*
X52502380Y-37614285D01*
X52454761Y-37709523D01*
X52407142Y-37757142D01*
X56307142Y-38942857D02*
X56354761Y-38990476D01*
X56402380Y-39133333D01*
X56402380Y-39228571D01*
X56354761Y-39371428D01*
X56259523Y-39466666D01*
X56164285Y-39514285D01*
X55973809Y-39561904D01*
X55830952Y-39561904D01*
X55640476Y-39514285D01*
X55545238Y-39466666D01*
X55450000Y-39371428D01*
X55402380Y-39228571D01*
X55402380Y-39133333D01*
X55450000Y-38990476D01*
X55497619Y-38942857D01*
X55402380Y-38609523D02*
X55402380Y-37942857D01*
X56402380Y-38371428D01*
X55735714Y-37133333D02*
X56402380Y-37133333D01*
X55354761Y-37371428D02*
X56069047Y-37609523D01*
X56069047Y-36990476D01*
X60407142Y-39142857D02*
X60454761Y-39190476D01*
X60502380Y-39333333D01*
X60502380Y-39428571D01*
X60454761Y-39571428D01*
X60359523Y-39666666D01*
X60264285Y-39714285D01*
X60073809Y-39761904D01*
X59930952Y-39761904D01*
X59740476Y-39714285D01*
X59645238Y-39666666D01*
X59550000Y-39571428D01*
X59502380Y-39428571D01*
X59502380Y-39333333D01*
X59550000Y-39190476D01*
X59597619Y-39142857D01*
X59502380Y-38809523D02*
X59502380Y-38142857D01*
X60502380Y-38571428D01*
X59502380Y-37285714D02*
X59502380Y-37761904D01*
X59978571Y-37809523D01*
X59930952Y-37761904D01*
X59883333Y-37666666D01*
X59883333Y-37428571D01*
X59930952Y-37333333D01*
X59978571Y-37285714D01*
X60073809Y-37238095D01*
X60311904Y-37238095D01*
X60407142Y-37285714D01*
X60454761Y-37333333D01*
X60502380Y-37428571D01*
X60502380Y-37666666D01*
X60454761Y-37761904D01*
X60407142Y-37809523D01*
X64407142Y-39042857D02*
X64454761Y-39090476D01*
X64502380Y-39233333D01*
X64502380Y-39328571D01*
X64454761Y-39471428D01*
X64359523Y-39566666D01*
X64264285Y-39614285D01*
X64073809Y-39661904D01*
X63930952Y-39661904D01*
X63740476Y-39614285D01*
X63645238Y-39566666D01*
X63550000Y-39471428D01*
X63502380Y-39328571D01*
X63502380Y-39233333D01*
X63550000Y-39090476D01*
X63597619Y-39042857D01*
X63502380Y-38709523D02*
X63502380Y-38042857D01*
X64502380Y-38471428D01*
X63502380Y-37233333D02*
X63502380Y-37423809D01*
X63550000Y-37519047D01*
X63597619Y-37566666D01*
X63740476Y-37661904D01*
X63930952Y-37709523D01*
X64311904Y-37709523D01*
X64407142Y-37661904D01*
X64454761Y-37614285D01*
X64502380Y-37519047D01*
X64502380Y-37328571D01*
X64454761Y-37233333D01*
X64407142Y-37185714D01*
X64311904Y-37138095D01*
X64073809Y-37138095D01*
X63978571Y-37185714D01*
X63930952Y-37233333D01*
X63883333Y-37328571D01*
X63883333Y-37519047D01*
X63930952Y-37614285D01*
X63978571Y-37661904D01*
X64073809Y-37709523D01*
X83807142Y-39142857D02*
X83854761Y-39190476D01*
X83902380Y-39333333D01*
X83902380Y-39428571D01*
X83854761Y-39571428D01*
X83759523Y-39666666D01*
X83664285Y-39714285D01*
X83473809Y-39761904D01*
X83330952Y-39761904D01*
X83140476Y-39714285D01*
X83045238Y-39666666D01*
X82950000Y-39571428D01*
X82902380Y-39428571D01*
X82902380Y-39333333D01*
X82950000Y-39190476D01*
X82997619Y-39142857D01*
X82902380Y-38809523D02*
X82902380Y-38142857D01*
X83902380Y-38571428D01*
X82902380Y-37857142D02*
X82902380Y-37190476D01*
X83902380Y-37619047D01*
X87807142Y-39142857D02*
X87854761Y-39190476D01*
X87902380Y-39333333D01*
X87902380Y-39428571D01*
X87854761Y-39571428D01*
X87759523Y-39666666D01*
X87664285Y-39714285D01*
X87473809Y-39761904D01*
X87330952Y-39761904D01*
X87140476Y-39714285D01*
X87045238Y-39666666D01*
X86950000Y-39571428D01*
X86902380Y-39428571D01*
X86902380Y-39333333D01*
X86950000Y-39190476D01*
X86997619Y-39142857D01*
X86902380Y-38809523D02*
X86902380Y-38142857D01*
X87902380Y-38571428D01*
X87330952Y-37619047D02*
X87283333Y-37714285D01*
X87235714Y-37761904D01*
X87140476Y-37809523D01*
X87092857Y-37809523D01*
X86997619Y-37761904D01*
X86950000Y-37714285D01*
X86902380Y-37619047D01*
X86902380Y-37428571D01*
X86950000Y-37333333D01*
X86997619Y-37285714D01*
X87092857Y-37238095D01*
X87140476Y-37238095D01*
X87235714Y-37285714D01*
X87283333Y-37333333D01*
X87330952Y-37428571D01*
X87330952Y-37619047D01*
X87378571Y-37714285D01*
X87426190Y-37761904D01*
X87521428Y-37809523D01*
X87711904Y-37809523D01*
X87807142Y-37761904D01*
X87854761Y-37714285D01*
X87902380Y-37619047D01*
X87902380Y-37428571D01*
X87854761Y-37333333D01*
X87807142Y-37285714D01*
X87711904Y-37238095D01*
X87521428Y-37238095D01*
X87426190Y-37285714D01*
X87378571Y-37333333D01*
X87330952Y-37428571D01*
X91807142Y-39142857D02*
X91854761Y-39190476D01*
X91902380Y-39333333D01*
X91902380Y-39428571D01*
X91854761Y-39571428D01*
X91759523Y-39666666D01*
X91664285Y-39714285D01*
X91473809Y-39761904D01*
X91330952Y-39761904D01*
X91140476Y-39714285D01*
X91045238Y-39666666D01*
X90950000Y-39571428D01*
X90902380Y-39428571D01*
X90902380Y-39333333D01*
X90950000Y-39190476D01*
X90997619Y-39142857D01*
X90902380Y-38809523D02*
X90902380Y-38142857D01*
X91902380Y-38571428D01*
X91902380Y-37714285D02*
X91902380Y-37523809D01*
X91854761Y-37428571D01*
X91807142Y-37380952D01*
X91664285Y-37285714D01*
X91473809Y-37238095D01*
X91092857Y-37238095D01*
X90997619Y-37285714D01*
X90950000Y-37333333D01*
X90902380Y-37428571D01*
X90902380Y-37619047D01*
X90950000Y-37714285D01*
X90997619Y-37761904D01*
X91092857Y-37809523D01*
X91330952Y-37809523D01*
X91426190Y-37761904D01*
X91473809Y-37714285D01*
X91521428Y-37619047D01*
X91521428Y-37428571D01*
X91473809Y-37333333D01*
X91426190Y-37285714D01*
X91330952Y-37238095D01*
X95807142Y-39142857D02*
X95854761Y-39190476D01*
X95902380Y-39333333D01*
X95902380Y-39428571D01*
X95854761Y-39571428D01*
X95759523Y-39666666D01*
X95664285Y-39714285D01*
X95473809Y-39761904D01*
X95330952Y-39761904D01*
X95140476Y-39714285D01*
X95045238Y-39666666D01*
X94950000Y-39571428D01*
X94902380Y-39428571D01*
X94902380Y-39333333D01*
X94950000Y-39190476D01*
X94997619Y-39142857D01*
X95330952Y-38571428D02*
X95283333Y-38666666D01*
X95235714Y-38714285D01*
X95140476Y-38761904D01*
X95092857Y-38761904D01*
X94997619Y-38714285D01*
X94950000Y-38666666D01*
X94902380Y-38571428D01*
X94902380Y-38380952D01*
X94950000Y-38285714D01*
X94997619Y-38238095D01*
X95092857Y-38190476D01*
X95140476Y-38190476D01*
X95235714Y-38238095D01*
X95283333Y-38285714D01*
X95330952Y-38380952D01*
X95330952Y-38571428D01*
X95378571Y-38666666D01*
X95426190Y-38714285D01*
X95521428Y-38761904D01*
X95711904Y-38761904D01*
X95807142Y-38714285D01*
X95854761Y-38666666D01*
X95902380Y-38571428D01*
X95902380Y-38380952D01*
X95854761Y-38285714D01*
X95807142Y-38238095D01*
X95711904Y-38190476D01*
X95521428Y-38190476D01*
X95426190Y-38238095D01*
X95378571Y-38285714D01*
X95330952Y-38380952D01*
X94902380Y-37571428D02*
X94902380Y-37476190D01*
X94950000Y-37380952D01*
X94997619Y-37333333D01*
X95092857Y-37285714D01*
X95283333Y-37238095D01*
X95521428Y-37238095D01*
X95711904Y-37285714D01*
X95807142Y-37333333D01*
X95854761Y-37380952D01*
X95902380Y-37476190D01*
X95902380Y-37571428D01*
X95854761Y-37666666D01*
X95807142Y-37714285D01*
X95711904Y-37761904D01*
X95521428Y-37809523D01*
X95283333Y-37809523D01*
X95092857Y-37761904D01*
X94997619Y-37714285D01*
X94950000Y-37666666D01*
X94902380Y-37571428D01*
X85407142Y-39142857D02*
X85454761Y-39190476D01*
X85502380Y-39333333D01*
X85502380Y-39428571D01*
X85454761Y-39571428D01*
X85359523Y-39666666D01*
X85264285Y-39714285D01*
X85073809Y-39761904D01*
X84930952Y-39761904D01*
X84740476Y-39714285D01*
X84645238Y-39666666D01*
X84550000Y-39571428D01*
X84502380Y-39428571D01*
X84502380Y-39333333D01*
X84550000Y-39190476D01*
X84597619Y-39142857D01*
X84930952Y-38571428D02*
X84883333Y-38666666D01*
X84835714Y-38714285D01*
X84740476Y-38761904D01*
X84692857Y-38761904D01*
X84597619Y-38714285D01*
X84550000Y-38666666D01*
X84502380Y-38571428D01*
X84502380Y-38380952D01*
X84550000Y-38285714D01*
X84597619Y-38238095D01*
X84692857Y-38190476D01*
X84740476Y-38190476D01*
X84835714Y-38238095D01*
X84883333Y-38285714D01*
X84930952Y-38380952D01*
X84930952Y-38571428D01*
X84978571Y-38666666D01*
X85026190Y-38714285D01*
X85121428Y-38761904D01*
X85311904Y-38761904D01*
X85407142Y-38714285D01*
X85454761Y-38666666D01*
X85502380Y-38571428D01*
X85502380Y-38380952D01*
X85454761Y-38285714D01*
X85407142Y-38238095D01*
X85311904Y-38190476D01*
X85121428Y-38190476D01*
X85026190Y-38238095D01*
X84978571Y-38285714D01*
X84930952Y-38380952D01*
X85502380Y-37238095D02*
X85502380Y-37809523D01*
X85502380Y-37523809D02*
X84502380Y-37523809D01*
X84645238Y-37619047D01*
X84740476Y-37714285D01*
X84788095Y-37809523D01*
X89407142Y-39142857D02*
X89454761Y-39190476D01*
X89502380Y-39333333D01*
X89502380Y-39428571D01*
X89454761Y-39571428D01*
X89359523Y-39666666D01*
X89264285Y-39714285D01*
X89073809Y-39761904D01*
X88930952Y-39761904D01*
X88740476Y-39714285D01*
X88645238Y-39666666D01*
X88550000Y-39571428D01*
X88502380Y-39428571D01*
X88502380Y-39333333D01*
X88550000Y-39190476D01*
X88597619Y-39142857D01*
X88930952Y-38571428D02*
X88883333Y-38666666D01*
X88835714Y-38714285D01*
X88740476Y-38761904D01*
X88692857Y-38761904D01*
X88597619Y-38714285D01*
X88550000Y-38666666D01*
X88502380Y-38571428D01*
X88502380Y-38380952D01*
X88550000Y-38285714D01*
X88597619Y-38238095D01*
X88692857Y-38190476D01*
X88740476Y-38190476D01*
X88835714Y-38238095D01*
X88883333Y-38285714D01*
X88930952Y-38380952D01*
X88930952Y-38571428D01*
X88978571Y-38666666D01*
X89026190Y-38714285D01*
X89121428Y-38761904D01*
X89311904Y-38761904D01*
X89407142Y-38714285D01*
X89454761Y-38666666D01*
X89502380Y-38571428D01*
X89502380Y-38380952D01*
X89454761Y-38285714D01*
X89407142Y-38238095D01*
X89311904Y-38190476D01*
X89121428Y-38190476D01*
X89026190Y-38238095D01*
X88978571Y-38285714D01*
X88930952Y-38380952D01*
X88597619Y-37809523D02*
X88550000Y-37761904D01*
X88502380Y-37666666D01*
X88502380Y-37428571D01*
X88550000Y-37333333D01*
X88597619Y-37285714D01*
X88692857Y-37238095D01*
X88788095Y-37238095D01*
X88930952Y-37285714D01*
X89502380Y-37857142D01*
X89502380Y-37238095D01*
X93407142Y-39142857D02*
X93454761Y-39190476D01*
X93502380Y-39333333D01*
X93502380Y-39428571D01*
X93454761Y-39571428D01*
X93359523Y-39666666D01*
X93264285Y-39714285D01*
X93073809Y-39761904D01*
X92930952Y-39761904D01*
X92740476Y-39714285D01*
X92645238Y-39666666D01*
X92550000Y-39571428D01*
X92502380Y-39428571D01*
X92502380Y-39333333D01*
X92550000Y-39190476D01*
X92597619Y-39142857D01*
X92930952Y-38571428D02*
X92883333Y-38666666D01*
X92835714Y-38714285D01*
X92740476Y-38761904D01*
X92692857Y-38761904D01*
X92597619Y-38714285D01*
X92550000Y-38666666D01*
X92502380Y-38571428D01*
X92502380Y-38380952D01*
X92550000Y-38285714D01*
X92597619Y-38238095D01*
X92692857Y-38190476D01*
X92740476Y-38190476D01*
X92835714Y-38238095D01*
X92883333Y-38285714D01*
X92930952Y-38380952D01*
X92930952Y-38571428D01*
X92978571Y-38666666D01*
X93026190Y-38714285D01*
X93121428Y-38761904D01*
X93311904Y-38761904D01*
X93407142Y-38714285D01*
X93454761Y-38666666D01*
X93502380Y-38571428D01*
X93502380Y-38380952D01*
X93454761Y-38285714D01*
X93407142Y-38238095D01*
X93311904Y-38190476D01*
X93121428Y-38190476D01*
X93026190Y-38238095D01*
X92978571Y-38285714D01*
X92930952Y-38380952D01*
X92502380Y-37857142D02*
X92502380Y-37238095D01*
X92883333Y-37571428D01*
X92883333Y-37428571D01*
X92930952Y-37333333D01*
X92978571Y-37285714D01*
X93073809Y-37238095D01*
X93311904Y-37238095D01*
X93407142Y-37285714D01*
X93454761Y-37333333D01*
X93502380Y-37428571D01*
X93502380Y-37714285D01*
X93454761Y-37809523D01*
X93407142Y-37857142D01*
X97407142Y-39142857D02*
X97454761Y-39190476D01*
X97502380Y-39333333D01*
X97502380Y-39428571D01*
X97454761Y-39571428D01*
X97359523Y-39666666D01*
X97264285Y-39714285D01*
X97073809Y-39761904D01*
X96930952Y-39761904D01*
X96740476Y-39714285D01*
X96645238Y-39666666D01*
X96550000Y-39571428D01*
X96502380Y-39428571D01*
X96502380Y-39333333D01*
X96550000Y-39190476D01*
X96597619Y-39142857D01*
X96930952Y-38571428D02*
X96883333Y-38666666D01*
X96835714Y-38714285D01*
X96740476Y-38761904D01*
X96692857Y-38761904D01*
X96597619Y-38714285D01*
X96550000Y-38666666D01*
X96502380Y-38571428D01*
X96502380Y-38380952D01*
X96550000Y-38285714D01*
X96597619Y-38238095D01*
X96692857Y-38190476D01*
X96740476Y-38190476D01*
X96835714Y-38238095D01*
X96883333Y-38285714D01*
X96930952Y-38380952D01*
X96930952Y-38571428D01*
X96978571Y-38666666D01*
X97026190Y-38714285D01*
X97121428Y-38761904D01*
X97311904Y-38761904D01*
X97407142Y-38714285D01*
X97454761Y-38666666D01*
X97502380Y-38571428D01*
X97502380Y-38380952D01*
X97454761Y-38285714D01*
X97407142Y-38238095D01*
X97311904Y-38190476D01*
X97121428Y-38190476D01*
X97026190Y-38238095D01*
X96978571Y-38285714D01*
X96930952Y-38380952D01*
X96835714Y-37333333D02*
X97502380Y-37333333D01*
X96454761Y-37571428D02*
X97169047Y-37809523D01*
X97169047Y-37190476D01*
X-761905Y3747620D02*
X-761905Y4747620D01*
X-761905Y4271429D02*
X-190477Y4271429D01*
X-190477Y3747620D02*
X-190477Y4747620D01*
X809523Y3747620D02*
X238095Y3747620D01*
X523809Y3747620D02*
X523809Y4747620D01*
X428571Y4604762D01*
X333333Y4509524D01*
X238095Y4461905D01*
X133138095Y3737620D02*
X133138095Y4737620D01*
X133138095Y4261429D02*
X133709523Y4261429D01*
X133709523Y3737620D02*
X133709523Y4737620D01*
X134138095Y4642381D02*
X134185714Y4690000D01*
X134280952Y4737620D01*
X134519047Y4737620D01*
X134614285Y4690000D01*
X134661904Y4642381D01*
X134709523Y4547143D01*
X134709523Y4451905D01*
X134661904Y4309048D01*
X134090476Y3737620D01*
X134709523Y3737620D01*
X17828766Y-42193080D02*
X17828766Y-42907366D01*
X17781147Y-43050223D01*
X17685909Y-43145461D01*
X17543052Y-43193080D01*
X17447814Y-43193080D01*
X18828766Y-43193080D02*
X18257338Y-43193080D01*
X18543052Y-43193080D02*
X18543052Y-42193080D01*
X18447814Y-42335938D01*
X18352576Y-42431176D01*
X18257338Y-42478795D01*
X17852380Y-16516666D02*
X17376190Y-16850000D01*
X17852380Y-17088095D02*
X16852380Y-17088095D01*
X16852380Y-16707142D01*
X16900000Y-16611904D01*
X16947619Y-16564285D01*
X17042857Y-16516666D01*
X17185714Y-16516666D01*
X17280952Y-16564285D01*
X17328571Y-16611904D01*
X17376190Y-16707142D01*
X17376190Y-17088095D01*
X17852380Y-15564285D02*
X17852380Y-16135714D01*
X17852380Y-15850000D02*
X16852380Y-15850000D01*
X16995238Y-15945238D01*
X17090476Y-16040476D01*
X17138095Y-16135714D01*
X23152380Y833334D02*
X22676190Y500000D01*
X23152380Y261905D02*
X22152380Y261905D01*
X22152380Y642858D01*
X22200000Y738096D01*
X22247619Y785715D01*
X22342857Y833334D01*
X22485714Y833334D01*
X22580952Y785715D01*
X22628571Y738096D01*
X22676190Y642858D01*
X22676190Y261905D01*
X22247619Y1214286D02*
X22200000Y1261905D01*
X22152380Y1357143D01*
X22152380Y1595239D01*
X22200000Y1690477D01*
X22247619Y1738096D01*
X22342857Y1785715D01*
X22438095Y1785715D01*
X22580952Y1738096D01*
X23152380Y1166667D01*
X23152380Y1785715D01*
X6883333Y-552380D02*
X6550000Y-76190D01*
X6311904Y-552380D02*
X6311904Y447620D01*
X6692857Y447620D01*
X6788095Y400000D01*
X6835714Y352381D01*
X6883333Y257143D01*
X6883333Y114286D01*
X6835714Y19048D01*
X6788095Y-28571D01*
X6692857Y-76190D01*
X6311904Y-76190D01*
X7216666Y447620D02*
X7835714Y447620D01*
X7502380Y66667D01*
X7645238Y66667D01*
X7740476Y19048D01*
X7788095Y-28571D01*
X7835714Y-123809D01*
X7835714Y-361904D01*
X7788095Y-457142D01*
X7740476Y-504761D01*
X7645238Y-552380D01*
X7359523Y-552380D01*
X7264285Y-504761D01*
X7216666Y-457142D01*
X9002380Y-6266666D02*
X8526190Y-6600000D01*
X9002380Y-6838095D02*
X8002380Y-6838095D01*
X8002380Y-6457142D01*
X8050000Y-6361904D01*
X8097619Y-6314285D01*
X8192857Y-6266666D01*
X8335714Y-6266666D01*
X8430952Y-6314285D01*
X8478571Y-6361904D01*
X8526190Y-6457142D01*
X8526190Y-6838095D01*
X8335714Y-5409523D02*
X9002380Y-5409523D01*
X7954761Y-5647619D02*
X8669047Y-5885714D01*
X8669047Y-5266666D01*
X20402380Y-21666666D02*
X19926190Y-22000000D01*
X20402380Y-22238095D02*
X19402380Y-22238095D01*
X19402380Y-21857142D01*
X19450000Y-21761904D01*
X19497619Y-21714285D01*
X19592857Y-21666666D01*
X19735714Y-21666666D01*
X19830952Y-21714285D01*
X19878571Y-21761904D01*
X19926190Y-21857142D01*
X19926190Y-22238095D01*
X19402380Y-20761904D02*
X19402380Y-21238095D01*
X19878571Y-21285714D01*
X19830952Y-21238095D01*
X19783333Y-21142857D01*
X19783333Y-20904761D01*
X19830952Y-20809523D01*
X19878571Y-20761904D01*
X19973809Y-20714285D01*
X20211904Y-20714285D01*
X20307142Y-20761904D01*
X20354761Y-20809523D01*
X20402380Y-20904761D01*
X20402380Y-21142857D01*
X20354761Y-21238095D01*
X20307142Y-21285714D01*
X6002380Y7933334D02*
X5526190Y7600000D01*
X6002380Y7361905D02*
X5002380Y7361905D01*
X5002380Y7742858D01*
X5050000Y7838096D01*
X5097619Y7885715D01*
X5192857Y7933334D01*
X5335714Y7933334D01*
X5430952Y7885715D01*
X5478571Y7838096D01*
X5526190Y7742858D01*
X5526190Y7361905D01*
X5002380Y8790477D02*
X5002380Y8600000D01*
X5050000Y8504762D01*
X5097619Y8457143D01*
X5240476Y8361905D01*
X5430952Y8314286D01*
X5811904Y8314286D01*
X5907142Y8361905D01*
X5954761Y8409524D01*
X6002380Y8504762D01*
X6002380Y8695239D01*
X5954761Y8790477D01*
X5907142Y8838096D01*
X5811904Y8885715D01*
X5573809Y8885715D01*
X5478571Y8838096D01*
X5430952Y8790477D01*
X5383333Y8695239D01*
X5383333Y8504762D01*
X5430952Y8409524D01*
X5478571Y8361905D01*
X5573809Y8314286D01*
X20402380Y-19766666D02*
X19926190Y-20100000D01*
X20402380Y-20338095D02*
X19402380Y-20338095D01*
X19402380Y-19957142D01*
X19450000Y-19861904D01*
X19497619Y-19814285D01*
X19592857Y-19766666D01*
X19735714Y-19766666D01*
X19830952Y-19814285D01*
X19878571Y-19861904D01*
X19926190Y-19957142D01*
X19926190Y-20338095D01*
X19402380Y-19433333D02*
X19402380Y-18766666D01*
X20402380Y-19195238D01*
X7702380Y-2916666D02*
X7226190Y-3250000D01*
X7702380Y-3488095D02*
X6702380Y-3488095D01*
X6702380Y-3107142D01*
X6750000Y-3011904D01*
X6797619Y-2964285D01*
X6892857Y-2916666D01*
X7035714Y-2916666D01*
X7130952Y-2964285D01*
X7178571Y-3011904D01*
X7226190Y-3107142D01*
X7226190Y-3488095D01*
X7130952Y-2345238D02*
X7083333Y-2440476D01*
X7035714Y-2488095D01*
X6940476Y-2535714D01*
X6892857Y-2535714D01*
X6797619Y-2488095D01*
X6750000Y-2440476D01*
X6702380Y-2345238D01*
X6702380Y-2154761D01*
X6750000Y-2059523D01*
X6797619Y-2011904D01*
X6892857Y-1964285D01*
X6940476Y-1964285D01*
X7035714Y-2011904D01*
X7083333Y-2059523D01*
X7130952Y-2154761D01*
X7130952Y-2345238D01*
X7178571Y-2440476D01*
X7226190Y-2488095D01*
X7321428Y-2535714D01*
X7511904Y-2535714D01*
X7607142Y-2488095D01*
X7654761Y-2440476D01*
X7702380Y-2345238D01*
X7702380Y-2154761D01*
X7654761Y-2059523D01*
X7607142Y-2011904D01*
X7511904Y-1964285D01*
X7321428Y-1964285D01*
X7226190Y-2011904D01*
X7178571Y-2059523D01*
X7130952Y-2154761D01*
X9002380Y-2916666D02*
X8526190Y-3250000D01*
X9002380Y-3488095D02*
X8002380Y-3488095D01*
X8002380Y-3107142D01*
X8050000Y-3011904D01*
X8097619Y-2964285D01*
X8192857Y-2916666D01*
X8335714Y-2916666D01*
X8430952Y-2964285D01*
X8478571Y-3011904D01*
X8526190Y-3107142D01*
X8526190Y-3488095D01*
X9002380Y-2440476D02*
X9002380Y-2250000D01*
X8954761Y-2154761D01*
X8907142Y-2107142D01*
X8764285Y-2011904D01*
X8573809Y-1964285D01*
X8192857Y-1964285D01*
X8097619Y-2011904D01*
X8050000Y-2059523D01*
X8002380Y-2154761D01*
X8002380Y-2345238D01*
X8050000Y-2440476D01*
X8097619Y-2488095D01*
X8192857Y-2535714D01*
X8430952Y-2535714D01*
X8526190Y-2488095D01*
X8573809Y-2440476D01*
X8621428Y-2345238D01*
X8621428Y-2154761D01*
X8573809Y-2059523D01*
X8526190Y-2011904D01*
X8430952Y-1964285D01*
X21707142Y-3352380D02*
X21373809Y-2876190D01*
X21135714Y-3352380D02*
X21135714Y-2352380D01*
X21516666Y-2352380D01*
X21611904Y-2400000D01*
X21659523Y-2447619D01*
X21707142Y-2542857D01*
X21707142Y-2685714D01*
X21659523Y-2780952D01*
X21611904Y-2828571D01*
X21516666Y-2876190D01*
X21135714Y-2876190D01*
X22659523Y-3352380D02*
X22088095Y-3352380D01*
X22373809Y-3352380D02*
X22373809Y-2352380D01*
X22278571Y-2495238D01*
X22183333Y-2590476D01*
X22088095Y-2638095D01*
X23278571Y-2352380D02*
X23373809Y-2352380D01*
X23469047Y-2400000D01*
X23516666Y-2447619D01*
X23564285Y-2542857D01*
X23611904Y-2733333D01*
X23611904Y-2971428D01*
X23564285Y-3161904D01*
X23516666Y-3257142D01*
X23469047Y-3304761D01*
X23373809Y-3352380D01*
X23278571Y-3352380D01*
X23183333Y-3304761D01*
X23135714Y-3257142D01*
X23088095Y-3161904D01*
X23040476Y-2971428D01*
X23040476Y-2733333D01*
X23088095Y-2542857D01*
X23135714Y-2447619D01*
X23183333Y-2400000D01*
X23278571Y-2352380D01*
X12952380Y-9492857D02*
X12476190Y-9826190D01*
X12952380Y-10064285D02*
X11952380Y-10064285D01*
X11952380Y-9683333D01*
X12000000Y-9588095D01*
X12047619Y-9540476D01*
X12142857Y-9492857D01*
X12285714Y-9492857D01*
X12380952Y-9540476D01*
X12428571Y-9588095D01*
X12476190Y-9683333D01*
X12476190Y-10064285D01*
X12952380Y-8540476D02*
X12952380Y-9111904D01*
X12952380Y-8826190D02*
X11952380Y-8826190D01*
X12095238Y-8921428D01*
X12190476Y-9016666D01*
X12238095Y-9111904D01*
X12952380Y-7588095D02*
X12952380Y-8159523D01*
X12952380Y-7873809D02*
X11952380Y-7873809D01*
X12095238Y-7969047D01*
X12190476Y-8064285D01*
X12238095Y-8159523D01*
X14252380Y-9492857D02*
X13776190Y-9826190D01*
X14252380Y-10064285D02*
X13252380Y-10064285D01*
X13252380Y-9683333D01*
X13300000Y-9588095D01*
X13347619Y-9540476D01*
X13442857Y-9492857D01*
X13585714Y-9492857D01*
X13680952Y-9540476D01*
X13728571Y-9588095D01*
X13776190Y-9683333D01*
X13776190Y-10064285D01*
X14252380Y-8540476D02*
X14252380Y-9111904D01*
X14252380Y-8826190D02*
X13252380Y-8826190D01*
X13395238Y-8921428D01*
X13490476Y-9016666D01*
X13538095Y-9111904D01*
X13347619Y-8159523D02*
X13300000Y-8111904D01*
X13252380Y-8016666D01*
X13252380Y-7778571D01*
X13300000Y-7683333D01*
X13347619Y-7635714D01*
X13442857Y-7588095D01*
X13538095Y-7588095D01*
X13680952Y-7635714D01*
X14252380Y-8207142D01*
X14252380Y-7588095D01*
X10352380Y-9492857D02*
X9876190Y-9826190D01*
X10352380Y-10064285D02*
X9352380Y-10064285D01*
X9352380Y-9683333D01*
X9400000Y-9588095D01*
X9447619Y-9540476D01*
X9542857Y-9492857D01*
X9685714Y-9492857D01*
X9780952Y-9540476D01*
X9828571Y-9588095D01*
X9876190Y-9683333D01*
X9876190Y-10064285D01*
X10352380Y-8540476D02*
X10352380Y-9111904D01*
X10352380Y-8826190D02*
X9352380Y-8826190D01*
X9495238Y-8921428D01*
X9590476Y-9016666D01*
X9638095Y-9111904D01*
X9352380Y-8207142D02*
X9352380Y-7588095D01*
X9733333Y-7921428D01*
X9733333Y-7778571D01*
X9780952Y-7683333D01*
X9828571Y-7635714D01*
X9923809Y-7588095D01*
X10161904Y-7588095D01*
X10257142Y-7635714D01*
X10304761Y-7683333D01*
X10352380Y-7778571D01*
X10352380Y-8064285D01*
X10304761Y-8159523D01*
X10257142Y-8207142D01*
X11652380Y-9492857D02*
X11176190Y-9826190D01*
X11652380Y-10064285D02*
X10652380Y-10064285D01*
X10652380Y-9683333D01*
X10700000Y-9588095D01*
X10747619Y-9540476D01*
X10842857Y-9492857D01*
X10985714Y-9492857D01*
X11080952Y-9540476D01*
X11128571Y-9588095D01*
X11176190Y-9683333D01*
X11176190Y-10064285D01*
X11652380Y-8540476D02*
X11652380Y-9111904D01*
X11652380Y-8826190D02*
X10652380Y-8826190D01*
X10795238Y-8921428D01*
X10890476Y-9016666D01*
X10938095Y-9111904D01*
X10985714Y-7683333D02*
X11652380Y-7683333D01*
X10604761Y-7921428D02*
X11319047Y-8159523D01*
X11319047Y-7540476D01*
X7752380Y-9492857D02*
X7276190Y-9826190D01*
X7752380Y-10064285D02*
X6752380Y-10064285D01*
X6752380Y-9683333D01*
X6800000Y-9588095D01*
X6847619Y-9540476D01*
X6942857Y-9492857D01*
X7085714Y-9492857D01*
X7180952Y-9540476D01*
X7228571Y-9588095D01*
X7276190Y-9683333D01*
X7276190Y-10064285D01*
X7752380Y-8540476D02*
X7752380Y-9111904D01*
X7752380Y-8826190D02*
X6752380Y-8826190D01*
X6895238Y-8921428D01*
X6990476Y-9016666D01*
X7038095Y-9111904D01*
X6752380Y-7635714D02*
X6752380Y-8111904D01*
X7228571Y-8159523D01*
X7180952Y-8111904D01*
X7133333Y-8016666D01*
X7133333Y-7778571D01*
X7180952Y-7683333D01*
X7228571Y-7635714D01*
X7323809Y-7588095D01*
X7561904Y-7588095D01*
X7657142Y-7635714D01*
X7704761Y-7683333D01*
X7752380Y-7778571D01*
X7752380Y-8016666D01*
X7704761Y-8111904D01*
X7657142Y-8159523D01*
X9052380Y-9492857D02*
X8576190Y-9826190D01*
X9052380Y-10064285D02*
X8052380Y-10064285D01*
X8052380Y-9683333D01*
X8100000Y-9588095D01*
X8147619Y-9540476D01*
X8242857Y-9492857D01*
X8385714Y-9492857D01*
X8480952Y-9540476D01*
X8528571Y-9588095D01*
X8576190Y-9683333D01*
X8576190Y-10064285D01*
X9052380Y-8540476D02*
X9052380Y-9111904D01*
X9052380Y-8826190D02*
X8052380Y-8826190D01*
X8195238Y-8921428D01*
X8290476Y-9016666D01*
X8338095Y-9111904D01*
X8052380Y-7683333D02*
X8052380Y-7873809D01*
X8100000Y-7969047D01*
X8147619Y-8016666D01*
X8290476Y-8111904D01*
X8480952Y-8159523D01*
X8861904Y-8159523D01*
X8957142Y-8111904D01*
X9004761Y-8064285D01*
X9052380Y-7969047D01*
X9052380Y-7778571D01*
X9004761Y-7683333D01*
X8957142Y-7635714D01*
X8861904Y-7588095D01*
X8623809Y-7588095D01*
X8528571Y-7635714D01*
X8480952Y-7683333D01*
X8433333Y-7778571D01*
X8433333Y-7969047D01*
X8480952Y-8064285D01*
X8528571Y-8111904D01*
X8623809Y-8159523D01*
X5152380Y-9492857D02*
X4676190Y-9826190D01*
X5152380Y-10064285D02*
X4152380Y-10064285D01*
X4152380Y-9683333D01*
X4200000Y-9588095D01*
X4247619Y-9540476D01*
X4342857Y-9492857D01*
X4485714Y-9492857D01*
X4580952Y-9540476D01*
X4628571Y-9588095D01*
X4676190Y-9683333D01*
X4676190Y-10064285D01*
X5152380Y-8540476D02*
X5152380Y-9111904D01*
X5152380Y-8826190D02*
X4152380Y-8826190D01*
X4295238Y-8921428D01*
X4390476Y-9016666D01*
X4438095Y-9111904D01*
X4152380Y-8207142D02*
X4152380Y-7540476D01*
X5152380Y-7969047D01*
X6452380Y-9492857D02*
X5976190Y-9826190D01*
X6452380Y-10064285D02*
X5452380Y-10064285D01*
X5452380Y-9683333D01*
X5500000Y-9588095D01*
X5547619Y-9540476D01*
X5642857Y-9492857D01*
X5785714Y-9492857D01*
X5880952Y-9540476D01*
X5928571Y-9588095D01*
X5976190Y-9683333D01*
X5976190Y-10064285D01*
X6452380Y-8540476D02*
X6452380Y-9111904D01*
X6452380Y-8826190D02*
X5452380Y-8826190D01*
X5595238Y-8921428D01*
X5690476Y-9016666D01*
X5738095Y-9111904D01*
X5880952Y-7969047D02*
X5833333Y-8064285D01*
X5785714Y-8111904D01*
X5690476Y-8159523D01*
X5642857Y-8159523D01*
X5547619Y-8111904D01*
X5500000Y-8064285D01*
X5452380Y-7969047D01*
X5452380Y-7778571D01*
X5500000Y-7683333D01*
X5547619Y-7635714D01*
X5642857Y-7588095D01*
X5690476Y-7588095D01*
X5785714Y-7635714D01*
X5833333Y-7683333D01*
X5880952Y-7778571D01*
X5880952Y-7969047D01*
X5928571Y-8064285D01*
X5976190Y-8111904D01*
X6071428Y-8159523D01*
X6261904Y-8159523D01*
X6357142Y-8111904D01*
X6404761Y-8064285D01*
X6452380Y-7969047D01*
X6452380Y-7778571D01*
X6404761Y-7683333D01*
X6357142Y-7635714D01*
X6261904Y-7588095D01*
X6071428Y-7588095D01*
X5976190Y-7635714D01*
X5928571Y-7683333D01*
X5880952Y-7778571D01*
X2552380Y-9492857D02*
X2076190Y-9826190D01*
X2552380Y-10064285D02*
X1552380Y-10064285D01*
X1552380Y-9683333D01*
X1600000Y-9588095D01*
X1647619Y-9540476D01*
X1742857Y-9492857D01*
X1885714Y-9492857D01*
X1980952Y-9540476D01*
X2028571Y-9588095D01*
X2076190Y-9683333D01*
X2076190Y-10064285D01*
X2552380Y-8540476D02*
X2552380Y-9111904D01*
X2552380Y-8826190D02*
X1552380Y-8826190D01*
X1695238Y-8921428D01*
X1790476Y-9016666D01*
X1838095Y-9111904D01*
X2552380Y-8064285D02*
X2552380Y-7873809D01*
X2504761Y-7778571D01*
X2457142Y-7730952D01*
X2314285Y-7635714D01*
X2123809Y-7588095D01*
X1742857Y-7588095D01*
X1647619Y-7635714D01*
X1600000Y-7683333D01*
X1552380Y-7778571D01*
X1552380Y-7969047D01*
X1600000Y-8064285D01*
X1647619Y-8111904D01*
X1742857Y-8159523D01*
X1980952Y-8159523D01*
X2076190Y-8111904D01*
X2123809Y-8064285D01*
X2171428Y-7969047D01*
X2171428Y-7778571D01*
X2123809Y-7683333D01*
X2076190Y-7635714D01*
X1980952Y-7588095D01*
X3852380Y-9492857D02*
X3376190Y-9826190D01*
X3852380Y-10064285D02*
X2852380Y-10064285D01*
X2852380Y-9683333D01*
X2900000Y-9588095D01*
X2947619Y-9540476D01*
X3042857Y-9492857D01*
X3185714Y-9492857D01*
X3280952Y-9540476D01*
X3328571Y-9588095D01*
X3376190Y-9683333D01*
X3376190Y-10064285D01*
X2947619Y-9111904D02*
X2900000Y-9064285D01*
X2852380Y-8969047D01*
X2852380Y-8730952D01*
X2900000Y-8635714D01*
X2947619Y-8588095D01*
X3042857Y-8540476D01*
X3138095Y-8540476D01*
X3280952Y-8588095D01*
X3852380Y-9159523D01*
X3852380Y-8540476D01*
X2852380Y-7921428D02*
X2852380Y-7826190D01*
X2900000Y-7730952D01*
X2947619Y-7683333D01*
X3042857Y-7635714D01*
X3233333Y-7588095D01*
X3471428Y-7588095D01*
X3661904Y-7635714D01*
X3757142Y-7683333D01*
X3804761Y-7730952D01*
X3852380Y-7826190D01*
X3852380Y-7921428D01*
X3804761Y-8016666D01*
X3757142Y-8064285D01*
X3661904Y-8111904D01*
X3471428Y-8159523D01*
X3233333Y-8159523D01*
X3042857Y-8111904D01*
X2947619Y-8064285D01*
X2900000Y-8016666D01*
X2852380Y-7921428D01*
X8202380Y-29142857D02*
X7726190Y-29476190D01*
X8202380Y-29714285D02*
X7202380Y-29714285D01*
X7202380Y-29333333D01*
X7250000Y-29238095D01*
X7297619Y-29190476D01*
X7392857Y-29142857D01*
X7535714Y-29142857D01*
X7630952Y-29190476D01*
X7678571Y-29238095D01*
X7726190Y-29333333D01*
X7726190Y-29714285D01*
X7297619Y-28761904D02*
X7250000Y-28714285D01*
X7202380Y-28619047D01*
X7202380Y-28380952D01*
X7250000Y-28285714D01*
X7297619Y-28238095D01*
X7392857Y-28190476D01*
X7488095Y-28190476D01*
X7630952Y-28238095D01*
X8202380Y-28809523D01*
X8202380Y-28190476D01*
X8202380Y-27238095D02*
X8202380Y-27809523D01*
X8202380Y-27523809D02*
X7202380Y-27523809D01*
X7345238Y-27619047D01*
X7440476Y-27714285D01*
X7488095Y-27809523D01*
X21002380Y6157143D02*
X20526190Y5823810D01*
X21002380Y5585715D02*
X20002380Y5585715D01*
X20002380Y5966667D01*
X20050000Y6061905D01*
X20097619Y6109524D01*
X20192857Y6157143D01*
X20335714Y6157143D01*
X20430952Y6109524D01*
X20478571Y6061905D01*
X20526190Y5966667D01*
X20526190Y5585715D01*
X20097619Y6538096D02*
X20050000Y6585715D01*
X20002380Y6680953D01*
X20002380Y6919048D01*
X20050000Y7014286D01*
X20097619Y7061905D01*
X20192857Y7109524D01*
X20288095Y7109524D01*
X20430952Y7061905D01*
X21002380Y6490477D01*
X21002380Y7109524D01*
X20097619Y7490477D02*
X20050000Y7538096D01*
X20002380Y7633334D01*
X20002380Y7871429D01*
X20050000Y7966667D01*
X20097619Y8014286D01*
X20192857Y8061905D01*
X20288095Y8061905D01*
X20430952Y8014286D01*
X21002380Y7442858D01*
X21002380Y8061905D01*
X19702380Y6157143D02*
X19226190Y5823810D01*
X19702380Y5585715D02*
X18702380Y5585715D01*
X18702380Y5966667D01*
X18750000Y6061905D01*
X18797619Y6109524D01*
X18892857Y6157143D01*
X19035714Y6157143D01*
X19130952Y6109524D01*
X19178571Y6061905D01*
X19226190Y5966667D01*
X19226190Y5585715D01*
X18797619Y6538096D02*
X18750000Y6585715D01*
X18702380Y6680953D01*
X18702380Y6919048D01*
X18750000Y7014286D01*
X18797619Y7061905D01*
X18892857Y7109524D01*
X18988095Y7109524D01*
X19130952Y7061905D01*
X19702380Y6490477D01*
X19702380Y7109524D01*
X18702380Y7442858D02*
X18702380Y8061905D01*
X19083333Y7728572D01*
X19083333Y7871429D01*
X19130952Y7966667D01*
X19178571Y8014286D01*
X19273809Y8061905D01*
X19511904Y8061905D01*
X19607142Y8014286D01*
X19654761Y7966667D01*
X19702380Y7871429D01*
X19702380Y7585715D01*
X19654761Y7490477D01*
X19607142Y7442858D01*
X8802380Y6457143D02*
X8326190Y6123810D01*
X8802380Y5885715D02*
X7802380Y5885715D01*
X7802380Y6266667D01*
X7850000Y6361905D01*
X7897619Y6409524D01*
X7992857Y6457143D01*
X8135714Y6457143D01*
X8230952Y6409524D01*
X8278571Y6361905D01*
X8326190Y6266667D01*
X8326190Y5885715D01*
X7897619Y6838096D02*
X7850000Y6885715D01*
X7802380Y6980953D01*
X7802380Y7219048D01*
X7850000Y7314286D01*
X7897619Y7361905D01*
X7992857Y7409524D01*
X8088095Y7409524D01*
X8230952Y7361905D01*
X8802380Y6790477D01*
X8802380Y7409524D01*
X8135714Y8266667D02*
X8802380Y8266667D01*
X7754761Y8028572D02*
X8469047Y7790477D01*
X8469047Y8409524D01*
X7402380Y6457143D02*
X6926190Y6123810D01*
X7402380Y5885715D02*
X6402380Y5885715D01*
X6402380Y6266667D01*
X6450000Y6361905D01*
X6497619Y6409524D01*
X6592857Y6457143D01*
X6735714Y6457143D01*
X6830952Y6409524D01*
X6878571Y6361905D01*
X6926190Y6266667D01*
X6926190Y5885715D01*
X6497619Y6838096D02*
X6450000Y6885715D01*
X6402380Y6980953D01*
X6402380Y7219048D01*
X6450000Y7314286D01*
X6497619Y7361905D01*
X6592857Y7409524D01*
X6688095Y7409524D01*
X6830952Y7361905D01*
X7402380Y6790477D01*
X7402380Y7409524D01*
X6402380Y8314286D02*
X6402380Y7838096D01*
X6878571Y7790477D01*
X6830952Y7838096D01*
X6783333Y7933334D01*
X6783333Y8171429D01*
X6830952Y8266667D01*
X6878571Y8314286D01*
X6973809Y8361905D01*
X7211904Y8361905D01*
X7307142Y8314286D01*
X7354761Y8266667D01*
X7402380Y8171429D01*
X7402380Y7933334D01*
X7354761Y7838096D01*
X7307142Y7790477D01*
X4402380Y-29242857D02*
X3926190Y-29576190D01*
X4402380Y-29814285D02*
X3402380Y-29814285D01*
X3402380Y-29433333D01*
X3450000Y-29338095D01*
X3497619Y-29290476D01*
X3592857Y-29242857D01*
X3735714Y-29242857D01*
X3830952Y-29290476D01*
X3878571Y-29338095D01*
X3926190Y-29433333D01*
X3926190Y-29814285D01*
X3497619Y-28861904D02*
X3450000Y-28814285D01*
X3402380Y-28719047D01*
X3402380Y-28480952D01*
X3450000Y-28385714D01*
X3497619Y-28338095D01*
X3592857Y-28290476D01*
X3688095Y-28290476D01*
X3830952Y-28338095D01*
X4402380Y-28909523D01*
X4402380Y-28290476D01*
X3402380Y-27433333D02*
X3402380Y-27623809D01*
X3450000Y-27719047D01*
X3497619Y-27766666D01*
X3640476Y-27861904D01*
X3830952Y-27909523D01*
X4211904Y-27909523D01*
X4307142Y-27861904D01*
X4354761Y-27814285D01*
X4402380Y-27719047D01*
X4402380Y-27528571D01*
X4354761Y-27433333D01*
X4307142Y-27385714D01*
X4211904Y-27338095D01*
X3973809Y-27338095D01*
X3878571Y-27385714D01*
X3830952Y-27433333D01*
X3783333Y-27528571D01*
X3783333Y-27719047D01*
X3830952Y-27814285D01*
X3878571Y-27861904D01*
X3973809Y-27909523D01*
X21607142Y3147620D02*
X21273809Y3623810D01*
X21035714Y3147620D02*
X21035714Y4147620D01*
X21416666Y4147620D01*
X21511904Y4100000D01*
X21559523Y4052381D01*
X21607142Y3957143D01*
X21607142Y3814286D01*
X21559523Y3719048D01*
X21511904Y3671429D01*
X21416666Y3623810D01*
X21035714Y3623810D01*
X21988095Y4052381D02*
X22035714Y4100000D01*
X22130952Y4147620D01*
X22369047Y4147620D01*
X22464285Y4100000D01*
X22511904Y4052381D01*
X22559523Y3957143D01*
X22559523Y3861905D01*
X22511904Y3719048D01*
X21940476Y3147620D01*
X22559523Y3147620D01*
X22892857Y4147620D02*
X23559523Y4147620D01*
X23130952Y3147620D01*
X47602380Y-7442857D02*
X47126190Y-7776190D01*
X47602380Y-8014285D02*
X46602380Y-8014285D01*
X46602380Y-7633333D01*
X46650000Y-7538095D01*
X46697619Y-7490476D01*
X46792857Y-7442857D01*
X46935714Y-7442857D01*
X47030952Y-7490476D01*
X47078571Y-7538095D01*
X47126190Y-7633333D01*
X47126190Y-8014285D01*
X46697619Y-7061904D02*
X46650000Y-7014285D01*
X46602380Y-6919047D01*
X46602380Y-6680952D01*
X46650000Y-6585714D01*
X46697619Y-6538095D01*
X46792857Y-6490476D01*
X46888095Y-6490476D01*
X47030952Y-6538095D01*
X47602380Y-7109523D01*
X47602380Y-6490476D01*
X47030952Y-5919047D02*
X46983333Y-6014285D01*
X46935714Y-6061904D01*
X46840476Y-6109523D01*
X46792857Y-6109523D01*
X46697619Y-6061904D01*
X46650000Y-6014285D01*
X46602380Y-5919047D01*
X46602380Y-5728571D01*
X46650000Y-5633333D01*
X46697619Y-5585714D01*
X46792857Y-5538095D01*
X46840476Y-5538095D01*
X46935714Y-5585714D01*
X46983333Y-5633333D01*
X47030952Y-5728571D01*
X47030952Y-5919047D01*
X47078571Y-6014285D01*
X47126190Y-6061904D01*
X47221428Y-6109523D01*
X47411904Y-6109523D01*
X47507142Y-6061904D01*
X47554761Y-6014285D01*
X47602380Y-5919047D01*
X47602380Y-5728571D01*
X47554761Y-5633333D01*
X47507142Y-5585714D01*
X47411904Y-5538095D01*
X47221428Y-5538095D01*
X47126190Y-5585714D01*
X47078571Y-5633333D01*
X47030952Y-5728571D01*
X45802380Y-27142857D02*
X45326190Y-27476190D01*
X45802380Y-27714285D02*
X44802380Y-27714285D01*
X44802380Y-27333333D01*
X44850000Y-27238095D01*
X44897619Y-27190476D01*
X44992857Y-27142857D01*
X45135714Y-27142857D01*
X45230952Y-27190476D01*
X45278571Y-27238095D01*
X45326190Y-27333333D01*
X45326190Y-27714285D01*
X44897619Y-26761904D02*
X44850000Y-26714285D01*
X44802380Y-26619047D01*
X44802380Y-26380952D01*
X44850000Y-26285714D01*
X44897619Y-26238095D01*
X44992857Y-26190476D01*
X45088095Y-26190476D01*
X45230952Y-26238095D01*
X45802380Y-26809523D01*
X45802380Y-26190476D01*
X45802380Y-25714285D02*
X45802380Y-25523809D01*
X45754761Y-25428571D01*
X45707142Y-25380952D01*
X45564285Y-25285714D01*
X45373809Y-25238095D01*
X44992857Y-25238095D01*
X44897619Y-25285714D01*
X44850000Y-25333333D01*
X44802380Y-25428571D01*
X44802380Y-25619047D01*
X44850000Y-25714285D01*
X44897619Y-25761904D01*
X44992857Y-25809523D01*
X45230952Y-25809523D01*
X45326190Y-25761904D01*
X45373809Y-25714285D01*
X45421428Y-25619047D01*
X45421428Y-25428571D01*
X45373809Y-25333333D01*
X45326190Y-25285714D01*
X45230952Y-25238095D01*
X44402380Y-27142857D02*
X43926190Y-27476190D01*
X44402380Y-27714285D02*
X43402380Y-27714285D01*
X43402380Y-27333333D01*
X43450000Y-27238095D01*
X43497619Y-27190476D01*
X43592857Y-27142857D01*
X43735714Y-27142857D01*
X43830952Y-27190476D01*
X43878571Y-27238095D01*
X43926190Y-27333333D01*
X43926190Y-27714285D01*
X43402380Y-26809523D02*
X43402380Y-26190476D01*
X43783333Y-26523809D01*
X43783333Y-26380952D01*
X43830952Y-26285714D01*
X43878571Y-26238095D01*
X43973809Y-26190476D01*
X44211904Y-26190476D01*
X44307142Y-26238095D01*
X44354761Y-26285714D01*
X44402380Y-26380952D01*
X44402380Y-26666666D01*
X44354761Y-26761904D01*
X44307142Y-26809523D01*
X44402380Y-25238095D02*
X44402380Y-25809523D01*
X44402380Y-25523809D02*
X43402380Y-25523809D01*
X43545238Y-25619047D01*
X43640476Y-25714285D01*
X43688095Y-25809523D01*
X49602380Y-24642857D02*
X49126190Y-24976190D01*
X49602380Y-25214285D02*
X48602380Y-25214285D01*
X48602380Y-24833333D01*
X48650000Y-24738095D01*
X48697619Y-24690476D01*
X48792857Y-24642857D01*
X48935714Y-24642857D01*
X49030952Y-24690476D01*
X49078571Y-24738095D01*
X49126190Y-24833333D01*
X49126190Y-25214285D01*
X48602380Y-24309523D02*
X48602380Y-23690476D01*
X48983333Y-24023809D01*
X48983333Y-23880952D01*
X49030952Y-23785714D01*
X49078571Y-23738095D01*
X49173809Y-23690476D01*
X49411904Y-23690476D01*
X49507142Y-23738095D01*
X49554761Y-23785714D01*
X49602380Y-23880952D01*
X49602380Y-24166666D01*
X49554761Y-24261904D01*
X49507142Y-24309523D01*
X48697619Y-23309523D02*
X48650000Y-23261904D01*
X48602380Y-23166666D01*
X48602380Y-22928571D01*
X48650000Y-22833333D01*
X48697619Y-22785714D01*
X48792857Y-22738095D01*
X48888095Y-22738095D01*
X49030952Y-22785714D01*
X49602380Y-23357142D01*
X49602380Y-22738095D01*
X51602380Y-24642857D02*
X51126190Y-24976190D01*
X51602380Y-25214285D02*
X50602380Y-25214285D01*
X50602380Y-24833333D01*
X50650000Y-24738095D01*
X50697619Y-24690476D01*
X50792857Y-24642857D01*
X50935714Y-24642857D01*
X51030952Y-24690476D01*
X51078571Y-24738095D01*
X51126190Y-24833333D01*
X51126190Y-25214285D01*
X50602380Y-24309523D02*
X50602380Y-23690476D01*
X50983333Y-24023809D01*
X50983333Y-23880952D01*
X51030952Y-23785714D01*
X51078571Y-23738095D01*
X51173809Y-23690476D01*
X51411904Y-23690476D01*
X51507142Y-23738095D01*
X51554761Y-23785714D01*
X51602380Y-23880952D01*
X51602380Y-24166666D01*
X51554761Y-24261904D01*
X51507142Y-24309523D01*
X50602380Y-23357142D02*
X50602380Y-22738095D01*
X50983333Y-23071428D01*
X50983333Y-22928571D01*
X51030952Y-22833333D01*
X51078571Y-22785714D01*
X51173809Y-22738095D01*
X51411904Y-22738095D01*
X51507142Y-22785714D01*
X51554761Y-22833333D01*
X51602380Y-22928571D01*
X51602380Y-23214285D01*
X51554761Y-23309523D01*
X51507142Y-23357142D01*
X56402380Y-7242857D02*
X55926190Y-7576190D01*
X56402380Y-7814285D02*
X55402380Y-7814285D01*
X55402380Y-7433333D01*
X55450000Y-7338095D01*
X55497619Y-7290476D01*
X55592857Y-7242857D01*
X55735714Y-7242857D01*
X55830952Y-7290476D01*
X55878571Y-7338095D01*
X55926190Y-7433333D01*
X55926190Y-7814285D01*
X55402380Y-6909523D02*
X55402380Y-6290476D01*
X55783333Y-6623809D01*
X55783333Y-6480952D01*
X55830952Y-6385714D01*
X55878571Y-6338095D01*
X55973809Y-6290476D01*
X56211904Y-6290476D01*
X56307142Y-6338095D01*
X56354761Y-6385714D01*
X56402380Y-6480952D01*
X56402380Y-6766666D01*
X56354761Y-6861904D01*
X56307142Y-6909523D01*
X55735714Y-5433333D02*
X56402380Y-5433333D01*
X55354761Y-5671428D02*
X56069047Y-5909523D01*
X56069047Y-5290476D01*
X45702380Y-24342857D02*
X45226190Y-24676190D01*
X45702380Y-24914285D02*
X44702380Y-24914285D01*
X44702380Y-24533333D01*
X44750000Y-24438095D01*
X44797619Y-24390476D01*
X44892857Y-24342857D01*
X45035714Y-24342857D01*
X45130952Y-24390476D01*
X45178571Y-24438095D01*
X45226190Y-24533333D01*
X45226190Y-24914285D01*
X44702380Y-24009523D02*
X44702380Y-23390476D01*
X45083333Y-23723809D01*
X45083333Y-23580952D01*
X45130952Y-23485714D01*
X45178571Y-23438095D01*
X45273809Y-23390476D01*
X45511904Y-23390476D01*
X45607142Y-23438095D01*
X45654761Y-23485714D01*
X45702380Y-23580952D01*
X45702380Y-23866666D01*
X45654761Y-23961904D01*
X45607142Y-24009523D01*
X44702380Y-22485714D02*
X44702380Y-22961904D01*
X45178571Y-23009523D01*
X45130952Y-22961904D01*
X45083333Y-22866666D01*
X45083333Y-22628571D01*
X45130952Y-22533333D01*
X45178571Y-22485714D01*
X45273809Y-22438095D01*
X45511904Y-22438095D01*
X45607142Y-22485714D01*
X45654761Y-22533333D01*
X45702380Y-22628571D01*
X45702380Y-22866666D01*
X45654761Y-22961904D01*
X45607142Y-23009523D01*
X42602380Y-14342857D02*
X42126190Y-14676190D01*
X42602380Y-14914285D02*
X41602380Y-14914285D01*
X41602380Y-14533333D01*
X41650000Y-14438095D01*
X41697619Y-14390476D01*
X41792857Y-14342857D01*
X41935714Y-14342857D01*
X42030952Y-14390476D01*
X42078571Y-14438095D01*
X42126190Y-14533333D01*
X42126190Y-14914285D01*
X41602380Y-14009523D02*
X41602380Y-13390476D01*
X41983333Y-13723809D01*
X41983333Y-13580952D01*
X42030952Y-13485714D01*
X42078571Y-13438095D01*
X42173809Y-13390476D01*
X42411904Y-13390476D01*
X42507142Y-13438095D01*
X42554761Y-13485714D01*
X42602380Y-13580952D01*
X42602380Y-13866666D01*
X42554761Y-13961904D01*
X42507142Y-14009523D01*
X41602380Y-12533333D02*
X41602380Y-12723809D01*
X41650000Y-12819047D01*
X41697619Y-12866666D01*
X41840476Y-12961904D01*
X42030952Y-13009523D01*
X42411904Y-13009523D01*
X42507142Y-12961904D01*
X42554761Y-12914285D01*
X42602380Y-12819047D01*
X42602380Y-12628571D01*
X42554761Y-12533333D01*
X42507142Y-12485714D01*
X42411904Y-12438095D01*
X42173809Y-12438095D01*
X42078571Y-12485714D01*
X42030952Y-12533333D01*
X41983333Y-12628571D01*
X41983333Y-12819047D01*
X42030952Y-12914285D01*
X42078571Y-12961904D01*
X42173809Y-13009523D01*
X41402380Y-14342857D02*
X40926190Y-14676190D01*
X41402380Y-14914285D02*
X40402380Y-14914285D01*
X40402380Y-14533333D01*
X40450000Y-14438095D01*
X40497619Y-14390476D01*
X40592857Y-14342857D01*
X40735714Y-14342857D01*
X40830952Y-14390476D01*
X40878571Y-14438095D01*
X40926190Y-14533333D01*
X40926190Y-14914285D01*
X40402380Y-14009523D02*
X40402380Y-13390476D01*
X40783333Y-13723809D01*
X40783333Y-13580952D01*
X40830952Y-13485714D01*
X40878571Y-13438095D01*
X40973809Y-13390476D01*
X41211904Y-13390476D01*
X41307142Y-13438095D01*
X41354761Y-13485714D01*
X41402380Y-13580952D01*
X41402380Y-13866666D01*
X41354761Y-13961904D01*
X41307142Y-14009523D01*
X40402380Y-13057142D02*
X40402380Y-12390476D01*
X41402380Y-12819047D01*
X39707142Y-18952380D02*
X39373809Y-18476190D01*
X39135714Y-18952380D02*
X39135714Y-17952380D01*
X39516666Y-17952380D01*
X39611904Y-18000000D01*
X39659523Y-18047619D01*
X39707142Y-18142857D01*
X39707142Y-18285714D01*
X39659523Y-18380952D01*
X39611904Y-18428571D01*
X39516666Y-18476190D01*
X39135714Y-18476190D01*
X40040476Y-17952380D02*
X40659523Y-17952380D01*
X40326190Y-18333333D01*
X40469047Y-18333333D01*
X40564285Y-18380952D01*
X40611904Y-18428571D01*
X40659523Y-18523809D01*
X40659523Y-18761904D01*
X40611904Y-18857142D01*
X40564285Y-18904761D01*
X40469047Y-18952380D01*
X40183333Y-18952380D01*
X40088095Y-18904761D01*
X40040476Y-18857142D01*
X41230952Y-18380952D02*
X41135714Y-18333333D01*
X41088095Y-18285714D01*
X41040476Y-18190476D01*
X41040476Y-18142857D01*
X41088095Y-18047619D01*
X41135714Y-18000000D01*
X41230952Y-17952380D01*
X41421428Y-17952380D01*
X41516666Y-18000000D01*
X41564285Y-18047619D01*
X41611904Y-18142857D01*
X41611904Y-18190476D01*
X41564285Y-18285714D01*
X41516666Y-18333333D01*
X41421428Y-18380952D01*
X41230952Y-18380952D01*
X41135714Y-18428571D01*
X41088095Y-18476190D01*
X41040476Y-18571428D01*
X41040476Y-18761904D01*
X41088095Y-18857142D01*
X41135714Y-18904761D01*
X41230952Y-18952380D01*
X41421428Y-18952380D01*
X41516666Y-18904761D01*
X41564285Y-18857142D01*
X41611904Y-18761904D01*
X41611904Y-18571428D01*
X41564285Y-18476190D01*
X41516666Y-18428571D01*
X41421428Y-18380952D01*
X39707142Y-20152380D02*
X39373809Y-19676190D01*
X39135714Y-20152380D02*
X39135714Y-19152380D01*
X39516666Y-19152380D01*
X39611904Y-19200000D01*
X39659523Y-19247619D01*
X39707142Y-19342857D01*
X39707142Y-19485714D01*
X39659523Y-19580952D01*
X39611904Y-19628571D01*
X39516666Y-19676190D01*
X39135714Y-19676190D01*
X40040476Y-19152380D02*
X40659523Y-19152380D01*
X40326190Y-19533333D01*
X40469047Y-19533333D01*
X40564285Y-19580952D01*
X40611904Y-19628571D01*
X40659523Y-19723809D01*
X40659523Y-19961904D01*
X40611904Y-20057142D01*
X40564285Y-20104761D01*
X40469047Y-20152380D01*
X40183333Y-20152380D01*
X40088095Y-20104761D01*
X40040476Y-20057142D01*
X41135714Y-20152380D02*
X41326190Y-20152380D01*
X41421428Y-20104761D01*
X41469047Y-20057142D01*
X41564285Y-19914285D01*
X41611904Y-19723809D01*
X41611904Y-19342857D01*
X41564285Y-19247619D01*
X41516666Y-19200000D01*
X41421428Y-19152380D01*
X41230952Y-19152380D01*
X41135714Y-19200000D01*
X41088095Y-19247619D01*
X41040476Y-19342857D01*
X41040476Y-19580952D01*
X41088095Y-19676190D01*
X41135714Y-19723809D01*
X41230952Y-19771428D01*
X41421428Y-19771428D01*
X41516666Y-19723809D01*
X41564285Y-19676190D01*
X41611904Y-19580952D01*
X57807142Y-23052380D02*
X57473809Y-22576190D01*
X57235714Y-23052380D02*
X57235714Y-22052380D01*
X57616666Y-22052380D01*
X57711904Y-22100000D01*
X57759523Y-22147619D01*
X57807142Y-22242857D01*
X57807142Y-22385714D01*
X57759523Y-22480952D01*
X57711904Y-22528571D01*
X57616666Y-22576190D01*
X57235714Y-22576190D01*
X58664285Y-22385714D02*
X58664285Y-23052380D01*
X58426190Y-22004761D02*
X58188095Y-22719047D01*
X58807142Y-22719047D01*
X59378571Y-22052380D02*
X59473809Y-22052380D01*
X59569047Y-22100000D01*
X59616666Y-22147619D01*
X59664285Y-22242857D01*
X59711904Y-22433333D01*
X59711904Y-22671428D01*
X59664285Y-22861904D01*
X59616666Y-22957142D01*
X59569047Y-23004761D01*
X59473809Y-23052380D01*
X59378571Y-23052380D01*
X59283333Y-23004761D01*
X59235714Y-22957142D01*
X59188095Y-22861904D01*
X59140476Y-22671428D01*
X59140476Y-22433333D01*
X59188095Y-22242857D01*
X59235714Y-22147619D01*
X59283333Y-22100000D01*
X59378571Y-22052380D01*
X57807142Y-24252380D02*
X57473809Y-23776190D01*
X57235714Y-24252380D02*
X57235714Y-23252380D01*
X57616666Y-23252380D01*
X57711904Y-23300000D01*
X57759523Y-23347619D01*
X57807142Y-23442857D01*
X57807142Y-23585714D01*
X57759523Y-23680952D01*
X57711904Y-23728571D01*
X57616666Y-23776190D01*
X57235714Y-23776190D01*
X58664285Y-23585714D02*
X58664285Y-24252380D01*
X58426190Y-23204761D02*
X58188095Y-23919047D01*
X58807142Y-23919047D01*
X59711904Y-24252380D02*
X59140476Y-24252380D01*
X59426190Y-24252380D02*
X59426190Y-23252380D01*
X59330952Y-23395238D01*
X59235714Y-23490476D01*
X59140476Y-23538095D01*
X55115312Y-12274450D02*
X54542893Y-12173435D01*
X54711251Y-12678511D02*
X54004145Y-11971404D01*
X54273519Y-11702030D01*
X54374534Y-11668358D01*
X54441877Y-11668358D01*
X54542893Y-11702030D01*
X54643908Y-11803045D01*
X54677580Y-11904061D01*
X54677580Y-11971404D01*
X54643908Y-12072419D01*
X54374534Y-12341793D01*
X55250000Y-11196954D02*
X55721404Y-11668358D01*
X54812267Y-11095938D02*
X55148984Y-11769374D01*
X55586717Y-11331641D01*
X55418358Y-10691877D02*
X55418358Y-10624534D01*
X55452030Y-10523519D01*
X55620389Y-10355160D01*
X55721404Y-10321488D01*
X55788748Y-10321488D01*
X55889763Y-10355160D01*
X55957106Y-10422503D01*
X56024450Y-10557190D01*
X56024450Y-11365312D01*
X56462183Y-10927580D01*
X56015312Y-13174450D02*
X55442893Y-13073435D01*
X55611251Y-13578511D02*
X54904145Y-12871404D01*
X55173519Y-12602030D01*
X55274534Y-12568358D01*
X55341877Y-12568358D01*
X55442893Y-12602030D01*
X55543908Y-12703045D01*
X55577580Y-12804061D01*
X55577580Y-12871404D01*
X55543908Y-12972419D01*
X55274534Y-13241793D01*
X56150000Y-12096954D02*
X56621404Y-12568358D01*
X55712267Y-11995938D02*
X56048984Y-12669374D01*
X56486717Y-12231641D01*
X56217343Y-11558206D02*
X56655076Y-11120473D01*
X56688748Y-11625549D01*
X56789763Y-11524534D01*
X56890778Y-11490862D01*
X56958122Y-11490862D01*
X57059137Y-11524534D01*
X57227496Y-11692893D01*
X57261167Y-11793908D01*
X57261167Y-11861251D01*
X57227496Y-11962267D01*
X57025465Y-12164297D01*
X56924450Y-12197969D01*
X56857106Y-12197969D01*
X65702380Y-35942857D02*
X65226190Y-36276190D01*
X65702380Y-36514285D02*
X64702380Y-36514285D01*
X64702380Y-36133333D01*
X64750000Y-36038095D01*
X64797619Y-35990476D01*
X64892857Y-35942857D01*
X65035714Y-35942857D01*
X65130952Y-35990476D01*
X65178571Y-36038095D01*
X65226190Y-36133333D01*
X65226190Y-36514285D01*
X65035714Y-35085714D02*
X65702380Y-35085714D01*
X64654761Y-35323809D02*
X65369047Y-35561904D01*
X65369047Y-34942857D01*
X65035714Y-34133333D02*
X65702380Y-34133333D01*
X64654761Y-34371428D02*
X65369047Y-34609523D01*
X65369047Y-33990476D01*
X35202380Y-38642857D02*
X34726190Y-38976190D01*
X35202380Y-39214285D02*
X34202380Y-39214285D01*
X34202380Y-38833333D01*
X34250000Y-38738095D01*
X34297619Y-38690476D01*
X34392857Y-38642857D01*
X34535714Y-38642857D01*
X34630952Y-38690476D01*
X34678571Y-38738095D01*
X34726190Y-38833333D01*
X34726190Y-39214285D01*
X34535714Y-37785714D02*
X35202380Y-37785714D01*
X34154761Y-38023809D02*
X34869047Y-38261904D01*
X34869047Y-37642857D01*
X34202380Y-36785714D02*
X34202380Y-37261904D01*
X34678571Y-37309523D01*
X34630952Y-37261904D01*
X34583333Y-37166666D01*
X34583333Y-36928571D01*
X34630952Y-36833333D01*
X34678571Y-36785714D01*
X34773809Y-36738095D01*
X35011904Y-36738095D01*
X35107142Y-36785714D01*
X35154761Y-36833333D01*
X35202380Y-36928571D01*
X35202380Y-37166666D01*
X35154761Y-37261904D01*
X35107142Y-37309523D01*
X66952380Y-35942857D02*
X66476190Y-36276190D01*
X66952380Y-36514285D02*
X65952380Y-36514285D01*
X65952380Y-36133333D01*
X66000000Y-36038095D01*
X66047619Y-35990476D01*
X66142857Y-35942857D01*
X66285714Y-35942857D01*
X66380952Y-35990476D01*
X66428571Y-36038095D01*
X66476190Y-36133333D01*
X66476190Y-36514285D01*
X66285714Y-35085714D02*
X66952380Y-35085714D01*
X65904761Y-35323809D02*
X66619047Y-35561904D01*
X66619047Y-34942857D01*
X65952380Y-34133333D02*
X65952380Y-34323809D01*
X66000000Y-34419047D01*
X66047619Y-34466666D01*
X66190476Y-34561904D01*
X66380952Y-34609523D01*
X66761904Y-34609523D01*
X66857142Y-34561904D01*
X66904761Y-34514285D01*
X66952380Y-34419047D01*
X66952380Y-34228571D01*
X66904761Y-34133333D01*
X66857142Y-34085714D01*
X66761904Y-34038095D01*
X66523809Y-34038095D01*
X66428571Y-34085714D01*
X66380952Y-34133333D01*
X66333333Y-34228571D01*
X66333333Y-34419047D01*
X66380952Y-34514285D01*
X66428571Y-34561904D01*
X66523809Y-34609523D01*
X99952380Y-35942857D02*
X99476190Y-36276190D01*
X99952380Y-36514285D02*
X98952380Y-36514285D01*
X98952380Y-36133333D01*
X99000000Y-36038095D01*
X99047619Y-35990476D01*
X99142857Y-35942857D01*
X99285714Y-35942857D01*
X99380952Y-35990476D01*
X99428571Y-36038095D01*
X99476190Y-36133333D01*
X99476190Y-36514285D01*
X99285714Y-35085714D02*
X99952380Y-35085714D01*
X98904761Y-35323809D02*
X99619047Y-35561904D01*
X99619047Y-34942857D01*
X98952380Y-34657142D02*
X98952380Y-33990476D01*
X99952380Y-34419047D01*
X21507142Y9147620D02*
X21173809Y9623810D01*
X20935714Y9147620D02*
X20935714Y10147620D01*
X21316666Y10147620D01*
X21411904Y10100000D01*
X21459523Y10052381D01*
X21507142Y9957143D01*
X21507142Y9814286D01*
X21459523Y9719048D01*
X21411904Y9671429D01*
X21316666Y9623810D01*
X20935714Y9623810D01*
X22364285Y9814286D02*
X22364285Y9147620D01*
X22126190Y10195239D02*
X21888095Y9480953D01*
X22507142Y9480953D01*
X23030952Y9719048D02*
X22935714Y9766667D01*
X22888095Y9814286D01*
X22840476Y9909524D01*
X22840476Y9957143D01*
X22888095Y10052381D01*
X22935714Y10100000D01*
X23030952Y10147620D01*
X23221428Y10147620D01*
X23316666Y10100000D01*
X23364285Y10052381D01*
X23411904Y9957143D01*
X23411904Y9909524D01*
X23364285Y9814286D01*
X23316666Y9766667D01*
X23221428Y9719048D01*
X23030952Y9719048D01*
X22935714Y9671429D01*
X22888095Y9623810D01*
X22840476Y9528572D01*
X22840476Y9338096D01*
X22888095Y9242858D01*
X22935714Y9195239D01*
X23030952Y9147620D01*
X23221428Y9147620D01*
X23316666Y9195239D01*
X23364285Y9242858D01*
X23411904Y9338096D01*
X23411904Y9528572D01*
X23364285Y9623810D01*
X23316666Y9671429D01*
X23221428Y9719048D01*
X56407142Y7947620D02*
X56073809Y8423810D01*
X55835714Y7947620D02*
X55835714Y8947620D01*
X56216666Y8947620D01*
X56311904Y8900000D01*
X56359523Y8852381D01*
X56407142Y8757143D01*
X56407142Y8614286D01*
X56359523Y8519048D01*
X56311904Y8471429D01*
X56216666Y8423810D01*
X55835714Y8423810D01*
X57264285Y8614286D02*
X57264285Y7947620D01*
X57026190Y8995239D02*
X56788095Y8280953D01*
X57407142Y8280953D01*
X57835714Y7947620D02*
X58026190Y7947620D01*
X58121428Y7995239D01*
X58169047Y8042858D01*
X58264285Y8185715D01*
X58311904Y8376191D01*
X58311904Y8757143D01*
X58264285Y8852381D01*
X58216666Y8900000D01*
X58121428Y8947620D01*
X57930952Y8947620D01*
X57835714Y8900000D01*
X57788095Y8852381D01*
X57740476Y8757143D01*
X57740476Y8519048D01*
X57788095Y8423810D01*
X57835714Y8376191D01*
X57930952Y8328572D01*
X58121428Y8328572D01*
X58216666Y8376191D01*
X58264285Y8423810D01*
X58311904Y8519048D01*
X92307142Y7947620D02*
X91973809Y8423810D01*
X91735714Y7947620D02*
X91735714Y8947620D01*
X92116666Y8947620D01*
X92211904Y8900000D01*
X92259523Y8852381D01*
X92307142Y8757143D01*
X92307142Y8614286D01*
X92259523Y8519048D01*
X92211904Y8471429D01*
X92116666Y8423810D01*
X91735714Y8423810D01*
X93211904Y8947620D02*
X92735714Y8947620D01*
X92688095Y8471429D01*
X92735714Y8519048D01*
X92830952Y8566667D01*
X93069047Y8566667D01*
X93164285Y8519048D01*
X93211904Y8471429D01*
X93259523Y8376191D01*
X93259523Y8138096D01*
X93211904Y8042858D01*
X93164285Y7995239D01*
X93069047Y7947620D01*
X92830952Y7947620D01*
X92735714Y7995239D01*
X92688095Y8042858D01*
X93878571Y8947620D02*
X93973809Y8947620D01*
X94069047Y8900000D01*
X94116666Y8852381D01*
X94164285Y8757143D01*
X94211904Y8566667D01*
X94211904Y8328572D01*
X94164285Y8138096D01*
X94116666Y8042858D01*
X94069047Y7995239D01*
X93973809Y7947620D01*
X93878571Y7947620D01*
X93783333Y7995239D01*
X93735714Y8042858D01*
X93688095Y8138096D01*
X93640476Y8328572D01*
X93640476Y8566667D01*
X93688095Y8757143D01*
X93735714Y8852381D01*
X93783333Y8900000D01*
X93878571Y8947620D01*
X110407142Y8047620D02*
X110073809Y8523810D01*
X109835714Y8047620D02*
X109835714Y9047620D01*
X110216666Y9047620D01*
X110311904Y9000000D01*
X110359523Y8952381D01*
X110407142Y8857143D01*
X110407142Y8714286D01*
X110359523Y8619048D01*
X110311904Y8571429D01*
X110216666Y8523810D01*
X109835714Y8523810D01*
X111311904Y9047620D02*
X110835714Y9047620D01*
X110788095Y8571429D01*
X110835714Y8619048D01*
X110930952Y8666667D01*
X111169047Y8666667D01*
X111264285Y8619048D01*
X111311904Y8571429D01*
X111359523Y8476191D01*
X111359523Y8238096D01*
X111311904Y8142858D01*
X111264285Y8095239D01*
X111169047Y8047620D01*
X110930952Y8047620D01*
X110835714Y8095239D01*
X110788095Y8142858D01*
X112311904Y8047620D02*
X111740476Y8047620D01*
X112026190Y8047620D02*
X112026190Y9047620D01*
X111930952Y8904762D01*
X111835714Y8809524D01*
X111740476Y8761905D01*
X38407142Y7947620D02*
X38073809Y8423810D01*
X37835714Y7947620D02*
X37835714Y8947620D01*
X38216666Y8947620D01*
X38311904Y8900000D01*
X38359523Y8852381D01*
X38407142Y8757143D01*
X38407142Y8614286D01*
X38359523Y8519048D01*
X38311904Y8471429D01*
X38216666Y8423810D01*
X37835714Y8423810D01*
X39311904Y8947620D02*
X38835714Y8947620D01*
X38788095Y8471429D01*
X38835714Y8519048D01*
X38930952Y8566667D01*
X39169047Y8566667D01*
X39264285Y8519048D01*
X39311904Y8471429D01*
X39359523Y8376191D01*
X39359523Y8138096D01*
X39311904Y8042858D01*
X39264285Y7995239D01*
X39169047Y7947620D01*
X38930952Y7947620D01*
X38835714Y7995239D01*
X38788095Y8042858D01*
X39740476Y8852381D02*
X39788095Y8900000D01*
X39883333Y8947620D01*
X40121428Y8947620D01*
X40216666Y8900000D01*
X40264285Y8852381D01*
X40311904Y8757143D01*
X40311904Y8661905D01*
X40264285Y8519048D01*
X39692857Y7947620D01*
X40311904Y7947620D01*
X74407142Y7947620D02*
X74073809Y8423810D01*
X73835714Y7947620D02*
X73835714Y8947620D01*
X74216666Y8947620D01*
X74311904Y8900000D01*
X74359523Y8852381D01*
X74407142Y8757143D01*
X74407142Y8614286D01*
X74359523Y8519048D01*
X74311904Y8471429D01*
X74216666Y8423810D01*
X73835714Y8423810D01*
X75311904Y8947620D02*
X74835714Y8947620D01*
X74788095Y8471429D01*
X74835714Y8519048D01*
X74930952Y8566667D01*
X75169047Y8566667D01*
X75264285Y8519048D01*
X75311904Y8471429D01*
X75359523Y8376191D01*
X75359523Y8138096D01*
X75311904Y8042858D01*
X75264285Y7995239D01*
X75169047Y7947620D01*
X74930952Y7947620D01*
X74835714Y7995239D01*
X74788095Y8042858D01*
X75692857Y8947620D02*
X76311904Y8947620D01*
X75978571Y8566667D01*
X76121428Y8566667D01*
X76216666Y8519048D01*
X76264285Y8471429D01*
X76311904Y8376191D01*
X76311904Y8138096D01*
X76264285Y8042858D01*
X76216666Y7995239D01*
X76121428Y7947620D01*
X75835714Y7947620D01*
X75740476Y7995239D01*
X75692857Y8042858D01*
X36252380Y12607143D02*
X35776190Y12273810D01*
X36252380Y12035715D02*
X35252380Y12035715D01*
X35252380Y12416667D01*
X35300000Y12511905D01*
X35347619Y12559524D01*
X35442857Y12607143D01*
X35585714Y12607143D01*
X35680952Y12559524D01*
X35728571Y12511905D01*
X35776190Y12416667D01*
X35776190Y12035715D01*
X35252380Y13511905D02*
X35252380Y13035715D01*
X35728571Y12988096D01*
X35680952Y13035715D01*
X35633333Y13130953D01*
X35633333Y13369048D01*
X35680952Y13464286D01*
X35728571Y13511905D01*
X35823809Y13559524D01*
X36061904Y13559524D01*
X36157142Y13511905D01*
X36204761Y13464286D01*
X36252380Y13369048D01*
X36252380Y13130953D01*
X36204761Y13035715D01*
X36157142Y12988096D01*
X35585714Y14416667D02*
X36252380Y14416667D01*
X35204761Y14178572D02*
X35919047Y13940477D01*
X35919047Y14559524D01*
X71402380Y17457143D02*
X70926190Y17123810D01*
X71402380Y16885715D02*
X70402380Y16885715D01*
X70402380Y17266667D01*
X70450000Y17361905D01*
X70497619Y17409524D01*
X70592857Y17457143D01*
X70735714Y17457143D01*
X70830952Y17409524D01*
X70878571Y17361905D01*
X70926190Y17266667D01*
X70926190Y16885715D01*
X70402380Y18361905D02*
X70402380Y17885715D01*
X70878571Y17838096D01*
X70830952Y17885715D01*
X70783333Y17980953D01*
X70783333Y18219048D01*
X70830952Y18314286D01*
X70878571Y18361905D01*
X70973809Y18409524D01*
X71211904Y18409524D01*
X71307142Y18361905D01*
X71354761Y18314286D01*
X71402380Y18219048D01*
X71402380Y17980953D01*
X71354761Y17885715D01*
X71307142Y17838096D01*
X70402380Y19314286D02*
X70402380Y18838096D01*
X70878571Y18790477D01*
X70830952Y18838096D01*
X70783333Y18933334D01*
X70783333Y19171429D01*
X70830952Y19266667D01*
X70878571Y19314286D01*
X70973809Y19361905D01*
X71211904Y19361905D01*
X71307142Y19314286D01*
X71354761Y19266667D01*
X71402380Y19171429D01*
X71402380Y18933334D01*
X71354761Y18838096D01*
X71307142Y18790477D01*
X107402380Y17457143D02*
X106926190Y17123810D01*
X107402380Y16885715D02*
X106402380Y16885715D01*
X106402380Y17266667D01*
X106450000Y17361905D01*
X106497619Y17409524D01*
X106592857Y17457143D01*
X106735714Y17457143D01*
X106830952Y17409524D01*
X106878571Y17361905D01*
X106926190Y17266667D01*
X106926190Y16885715D01*
X106402380Y18361905D02*
X106402380Y17885715D01*
X106878571Y17838096D01*
X106830952Y17885715D01*
X106783333Y17980953D01*
X106783333Y18219048D01*
X106830952Y18314286D01*
X106878571Y18361905D01*
X106973809Y18409524D01*
X107211904Y18409524D01*
X107307142Y18361905D01*
X107354761Y18314286D01*
X107402380Y18219048D01*
X107402380Y17980953D01*
X107354761Y17885715D01*
X107307142Y17838096D01*
X106402380Y19266667D02*
X106402380Y19076191D01*
X106450000Y18980953D01*
X106497619Y18933334D01*
X106640476Y18838096D01*
X106830952Y18790477D01*
X107211904Y18790477D01*
X107307142Y18838096D01*
X107354761Y18885715D01*
X107402380Y18980953D01*
X107402380Y19171429D01*
X107354761Y19266667D01*
X107307142Y19314286D01*
X107211904Y19361905D01*
X106973809Y19361905D01*
X106878571Y19314286D01*
X106830952Y19266667D01*
X106783333Y19171429D01*
X106783333Y18980953D01*
X106830952Y18885715D01*
X106878571Y18838096D01*
X106973809Y18790477D01*
X125402380Y17457143D02*
X124926190Y17123810D01*
X125402380Y16885715D02*
X124402380Y16885715D01*
X124402380Y17266667D01*
X124450000Y17361905D01*
X124497619Y17409524D01*
X124592857Y17457143D01*
X124735714Y17457143D01*
X124830952Y17409524D01*
X124878571Y17361905D01*
X124926190Y17266667D01*
X124926190Y16885715D01*
X124402380Y18361905D02*
X124402380Y17885715D01*
X124878571Y17838096D01*
X124830952Y17885715D01*
X124783333Y17980953D01*
X124783333Y18219048D01*
X124830952Y18314286D01*
X124878571Y18361905D01*
X124973809Y18409524D01*
X125211904Y18409524D01*
X125307142Y18361905D01*
X125354761Y18314286D01*
X125402380Y18219048D01*
X125402380Y17980953D01*
X125354761Y17885715D01*
X125307142Y17838096D01*
X124402380Y18742858D02*
X124402380Y19409524D01*
X125402380Y18980953D01*
X53402380Y17457143D02*
X52926190Y17123810D01*
X53402380Y16885715D02*
X52402380Y16885715D01*
X52402380Y17266667D01*
X52450000Y17361905D01*
X52497619Y17409524D01*
X52592857Y17457143D01*
X52735714Y17457143D01*
X52830952Y17409524D01*
X52878571Y17361905D01*
X52926190Y17266667D01*
X52926190Y16885715D01*
X52402380Y18361905D02*
X52402380Y17885715D01*
X52878571Y17838096D01*
X52830952Y17885715D01*
X52783333Y17980953D01*
X52783333Y18219048D01*
X52830952Y18314286D01*
X52878571Y18361905D01*
X52973809Y18409524D01*
X53211904Y18409524D01*
X53307142Y18361905D01*
X53354761Y18314286D01*
X53402380Y18219048D01*
X53402380Y17980953D01*
X53354761Y17885715D01*
X53307142Y17838096D01*
X52830952Y18980953D02*
X52783333Y18885715D01*
X52735714Y18838096D01*
X52640476Y18790477D01*
X52592857Y18790477D01*
X52497619Y18838096D01*
X52450000Y18885715D01*
X52402380Y18980953D01*
X52402380Y19171429D01*
X52450000Y19266667D01*
X52497619Y19314286D01*
X52592857Y19361905D01*
X52640476Y19361905D01*
X52735714Y19314286D01*
X52783333Y19266667D01*
X52830952Y19171429D01*
X52830952Y18980953D01*
X52878571Y18885715D01*
X52926190Y18838096D01*
X53021428Y18790477D01*
X53211904Y18790477D01*
X53307142Y18838096D01*
X53354761Y18885715D01*
X53402380Y18980953D01*
X53402380Y19171429D01*
X53354761Y19266667D01*
X53307142Y19314286D01*
X53211904Y19361905D01*
X53021428Y19361905D01*
X52926190Y19314286D01*
X52878571Y19266667D01*
X52830952Y19171429D01*
X89402380Y17457143D02*
X88926190Y17123810D01*
X89402380Y16885715D02*
X88402380Y16885715D01*
X88402380Y17266667D01*
X88450000Y17361905D01*
X88497619Y17409524D01*
X88592857Y17457143D01*
X88735714Y17457143D01*
X88830952Y17409524D01*
X88878571Y17361905D01*
X88926190Y17266667D01*
X88926190Y16885715D01*
X88402380Y18361905D02*
X88402380Y17885715D01*
X88878571Y17838096D01*
X88830952Y17885715D01*
X88783333Y17980953D01*
X88783333Y18219048D01*
X88830952Y18314286D01*
X88878571Y18361905D01*
X88973809Y18409524D01*
X89211904Y18409524D01*
X89307142Y18361905D01*
X89354761Y18314286D01*
X89402380Y18219048D01*
X89402380Y17980953D01*
X89354761Y17885715D01*
X89307142Y17838096D01*
X89402380Y18885715D02*
X89402380Y19076191D01*
X89354761Y19171429D01*
X89307142Y19219048D01*
X89164285Y19314286D01*
X88973809Y19361905D01*
X88592857Y19361905D01*
X88497619Y19314286D01*
X88450000Y19266667D01*
X88402380Y19171429D01*
X88402380Y18980953D01*
X88450000Y18885715D01*
X88497619Y18838096D01*
X88592857Y18790477D01*
X88830952Y18790477D01*
X88926190Y18838096D01*
X88973809Y18885715D01*
X89021428Y18980953D01*
X89021428Y19171429D01*
X88973809Y19266667D01*
X88926190Y19314286D01*
X88830952Y19361905D01*
X55802380Y21457143D02*
X55326190Y21123810D01*
X55802380Y20885715D02*
X54802380Y20885715D01*
X54802380Y21266667D01*
X54850000Y21361905D01*
X54897619Y21409524D01*
X54992857Y21457143D01*
X55135714Y21457143D01*
X55230952Y21409524D01*
X55278571Y21361905D01*
X55326190Y21266667D01*
X55326190Y20885715D01*
X54802380Y22314286D02*
X54802380Y22123810D01*
X54850000Y22028572D01*
X54897619Y21980953D01*
X55040476Y21885715D01*
X55230952Y21838096D01*
X55611904Y21838096D01*
X55707142Y21885715D01*
X55754761Y21933334D01*
X55802380Y22028572D01*
X55802380Y22219048D01*
X55754761Y22314286D01*
X55707142Y22361905D01*
X55611904Y22409524D01*
X55373809Y22409524D01*
X55278571Y22361905D01*
X55230952Y22314286D01*
X55183333Y22219048D01*
X55183333Y22028572D01*
X55230952Y21933334D01*
X55278571Y21885715D01*
X55373809Y21838096D01*
X54802380Y23028572D02*
X54802380Y23123810D01*
X54850000Y23219048D01*
X54897619Y23266667D01*
X54992857Y23314286D01*
X55183333Y23361905D01*
X55421428Y23361905D01*
X55611904Y23314286D01*
X55707142Y23266667D01*
X55754761Y23219048D01*
X55802380Y23123810D01*
X55802380Y23028572D01*
X55754761Y22933334D01*
X55707142Y22885715D01*
X55611904Y22838096D01*
X55421428Y22790477D01*
X55183333Y22790477D01*
X54992857Y22838096D01*
X54897619Y22885715D01*
X54850000Y22933334D01*
X54802380Y23028572D01*
X129502380Y19032143D02*
X129026190Y18698810D01*
X129502380Y18460715D02*
X128502380Y18460715D01*
X128502380Y18841667D01*
X128550000Y18936905D01*
X128597619Y18984524D01*
X128692857Y19032143D01*
X128835714Y19032143D01*
X128930952Y18984524D01*
X128978571Y18936905D01*
X129026190Y18841667D01*
X129026190Y18460715D01*
X128502380Y19889286D02*
X128502380Y19698810D01*
X128550000Y19603572D01*
X128597619Y19555953D01*
X128740476Y19460715D01*
X128930952Y19413096D01*
X129311904Y19413096D01*
X129407142Y19460715D01*
X129454761Y19508334D01*
X129502380Y19603572D01*
X129502380Y19794048D01*
X129454761Y19889286D01*
X129407142Y19936905D01*
X129311904Y19984524D01*
X129073809Y19984524D01*
X128978571Y19936905D01*
X128930952Y19889286D01*
X128883333Y19794048D01*
X128883333Y19603572D01*
X128930952Y19508334D01*
X128978571Y19460715D01*
X129073809Y19413096D01*
X129502380Y20936905D02*
X129502380Y20365477D01*
X129502380Y20651191D02*
X128502380Y20651191D01*
X128645238Y20555953D01*
X128740476Y20460715D01*
X128788095Y20365477D01*
X98702380Y-35942857D02*
X98226190Y-36276190D01*
X98702380Y-36514285D02*
X97702380Y-36514285D01*
X97702380Y-36133333D01*
X97750000Y-36038095D01*
X97797619Y-35990476D01*
X97892857Y-35942857D01*
X98035714Y-35942857D01*
X98130952Y-35990476D01*
X98178571Y-36038095D01*
X98226190Y-36133333D01*
X98226190Y-36514285D01*
X97702380Y-35085714D02*
X97702380Y-35276190D01*
X97750000Y-35371428D01*
X97797619Y-35419047D01*
X97940476Y-35514285D01*
X98130952Y-35561904D01*
X98511904Y-35561904D01*
X98607142Y-35514285D01*
X98654761Y-35466666D01*
X98702380Y-35371428D01*
X98702380Y-35180952D01*
X98654761Y-35085714D01*
X98607142Y-35038095D01*
X98511904Y-34990476D01*
X98273809Y-34990476D01*
X98178571Y-35038095D01*
X98130952Y-35085714D01*
X98083333Y-35180952D01*
X98083333Y-35371428D01*
X98130952Y-35466666D01*
X98178571Y-35514285D01*
X98273809Y-35561904D01*
X97797619Y-34609523D02*
X97750000Y-34561904D01*
X97702380Y-34466666D01*
X97702380Y-34228571D01*
X97750000Y-34133333D01*
X97797619Y-34085714D01*
X97892857Y-34038095D01*
X97988095Y-34038095D01*
X98130952Y-34085714D01*
X98702380Y-34657142D01*
X98702380Y-34038095D01*
X18512380Y-561904D02*
X19321904Y-561904D01*
X19417142Y-514285D01*
X19464761Y-466666D01*
X19512380Y-371428D01*
X19512380Y-180952D01*
X19464761Y-85714D01*
X19417142Y-38095D01*
X19321904Y9524D01*
X18512380Y9524D01*
X18607619Y438096D02*
X18560000Y485715D01*
X18512380Y580953D01*
X18512380Y819048D01*
X18560000Y914286D01*
X18607619Y961905D01*
X18702857Y1009524D01*
X18798095Y1009524D01*
X18940952Y961905D01*
X19512380Y390477D01*
X19512380Y1009524D01*
X52288095Y-19452380D02*
X52288095Y-20261904D01*
X52335714Y-20357142D01*
X52383333Y-20404761D01*
X52478571Y-20452380D01*
X52669047Y-20452380D01*
X52764285Y-20404761D01*
X52811904Y-20357142D01*
X52859523Y-20261904D01*
X52859523Y-19452380D01*
X53240476Y-19452380D02*
X53859523Y-19452380D01*
X53526190Y-19833333D01*
X53669047Y-19833333D01*
X53764285Y-19880952D01*
X53811904Y-19928571D01*
X53859523Y-20023809D01*
X53859523Y-20261904D01*
X53811904Y-20357142D01*
X53764285Y-20404761D01*
X53669047Y-20452380D01*
X53383333Y-20452380D01*
X53288095Y-20404761D01*
X53240476Y-20357142D01*
X-2292858Y26642858D02*
X-2340477Y26595239D01*
X-2483334Y26547620D01*
X-2578572Y26547620D01*
X-2721429Y26595239D01*
X-2816667Y26690477D01*
X-2864286Y26785715D01*
X-2911905Y26976191D01*
X-2911905Y27119048D01*
X-2864286Y27309524D01*
X-2816667Y27404762D01*
X-2721429Y27500000D01*
X-2578572Y27547620D01*
X-2483334Y27547620D01*
X-2340477Y27500000D01*
X-2292858Y27452381D01*
X-1911905Y27452381D02*
X-1864286Y27500000D01*
X-1769048Y27547620D01*
X-1530953Y27547620D01*
X-1435715Y27500000D01*
X-1388096Y27452381D01*
X-1340477Y27357143D01*
X-1340477Y27261905D01*
X-1388096Y27119048D01*
X-1959524Y26547620D01*
X-1340477Y26547620D01*
X-483334Y27547620D02*
X-673810Y27547620D01*
X-769048Y27500000D01*
X-816667Y27452381D01*
X-911905Y27309524D01*
X-959524Y27119048D01*
X-959524Y26738096D01*
X-911905Y26642858D01*
X-864286Y26595239D01*
X-769048Y26547620D01*
X-578572Y26547620D01*
X-483334Y26595239D01*
X-435715Y26642858D01*
X-388096Y26738096D01*
X-388096Y26976191D01*
X-435715Y27071429D01*
X-483334Y27119048D01*
X-578572Y27166667D01*
X-769048Y27166667D01*
X-864286Y27119048D01*
X-911905Y27071429D01*
X-959524Y26976191D01*
X-2092858Y11642858D02*
X-2140477Y11595239D01*
X-2283334Y11547620D01*
X-2378572Y11547620D01*
X-2521429Y11595239D01*
X-2616667Y11690477D01*
X-2664286Y11785715D01*
X-2711905Y11976191D01*
X-2711905Y12119048D01*
X-2664286Y12309524D01*
X-2616667Y12404762D01*
X-2521429Y12500000D01*
X-2378572Y12547620D01*
X-2283334Y12547620D01*
X-2140477Y12500000D01*
X-2092858Y12452381D01*
X-1711905Y12452381D02*
X-1664286Y12500000D01*
X-1569048Y12547620D01*
X-1330953Y12547620D01*
X-1235715Y12500000D01*
X-1188096Y12452381D01*
X-1140477Y12357143D01*
X-1140477Y12261905D01*
X-1188096Y12119048D01*
X-1759524Y11547620D01*
X-1140477Y11547620D01*
X-807143Y12547620D02*
X-140477Y12547620D01*
X-569048Y11547620D01*
X-311905Y-23752380D02*
X-311905Y-24561904D01*
X-264286Y-24657142D01*
X-216667Y-24704761D01*
X-121429Y-24752380D01*
X69047Y-24752380D01*
X164285Y-24704761D01*
X211904Y-24657142D01*
X259523Y-24561904D01*
X259523Y-23752380D01*
X1259523Y-24752380D02*
X688095Y-24752380D01*
X973809Y-24752380D02*
X973809Y-23752380D01*
X878571Y-23895238D01*
X783333Y-23990476D01*
X688095Y-24038095D01*
X100116666Y16547620D02*
X100116666Y15833334D01*
X100069047Y15690477D01*
X99973809Y15595239D01*
X99830952Y15547620D01*
X99735714Y15547620D01*
X101021428Y16214286D02*
X101021428Y15547620D01*
X100783333Y16595239D02*
X100545238Y15880953D01*
X101164285Y15880953D01*
X64416666Y16647620D02*
X64416666Y15933334D01*
X64369047Y15790477D01*
X64273809Y15695239D01*
X64130952Y15647620D01*
X64035714Y15647620D01*
X64797619Y16647620D02*
X65416666Y16647620D01*
X65083333Y16266667D01*
X65226190Y16266667D01*
X65321428Y16219048D01*
X65369047Y16171429D01*
X65416666Y16076191D01*
X65416666Y15838096D01*
X65369047Y15742858D01*
X65321428Y15695239D01*
X65226190Y15647620D01*
X64940476Y15647620D01*
X64845238Y15695239D01*
X64797619Y15742858D01*
X82216666Y16547620D02*
X82216666Y15833334D01*
X82169047Y15690477D01*
X82073809Y15595239D01*
X81930952Y15547620D01*
X81835714Y15547620D01*
X82597619Y16547620D02*
X83264285Y16547620D01*
X82835714Y15547620D01*
X28416666Y16447620D02*
X28416666Y15733334D01*
X28369047Y15590477D01*
X28273809Y15495239D01*
X28130952Y15447620D01*
X28035714Y15447620D01*
X28845238Y16352381D02*
X28892857Y16400000D01*
X28988095Y16447620D01*
X29226190Y16447620D01*
X29321428Y16400000D01*
X29369047Y16352381D01*
X29416666Y16257143D01*
X29416666Y16161905D01*
X29369047Y16019048D01*
X28797619Y15447620D01*
X29416666Y15447620D01*
X46316666Y16747620D02*
X46316666Y16033334D01*
X46269047Y15890477D01*
X46173809Y15795239D01*
X46030952Y15747620D01*
X45935714Y15747620D01*
X47221428Y16747620D02*
X47030952Y16747620D01*
X46935714Y16700000D01*
X46888095Y16652381D01*
X46792857Y16509524D01*
X46745238Y16319048D01*
X46745238Y15938096D01*
X46792857Y15842858D01*
X46840476Y15795239D01*
X46935714Y15747620D01*
X47126190Y15747620D01*
X47221428Y15795239D01*
X47269047Y15842858D01*
X47316666Y15938096D01*
X47316666Y16176191D01*
X47269047Y16271429D01*
X47221428Y16319048D01*
X47126190Y16366667D01*
X46935714Y16366667D01*
X46840476Y16319048D01*
X46792857Y16271429D01*
X46745238Y16176191D01*
X21188095Y-4352380D02*
X21759523Y-4352380D01*
X21473809Y-5352380D02*
X21473809Y-4352380D01*
X22092857Y-5352380D02*
X22092857Y-4352380D01*
X22473809Y-4352380D01*
X22569047Y-4400000D01*
X22616666Y-4447619D01*
X22664285Y-4542857D01*
X22664285Y-4685714D01*
X22616666Y-4780952D01*
X22569047Y-4828571D01*
X22473809Y-4876190D01*
X22092857Y-4876190D01*
X23616666Y-5352380D02*
X23045238Y-5352380D01*
X23330952Y-5352380D02*
X23330952Y-4352380D01*
X23235714Y-4495238D01*
X23140476Y-4590476D01*
X23045238Y-4638095D01*
X49888095Y-7352380D02*
X50459523Y-7352380D01*
X50173809Y-8352380D02*
X50173809Y-7352380D01*
X50792857Y-8352380D02*
X50792857Y-7352380D01*
X51173809Y-7352380D01*
X51269047Y-7400000D01*
X51316666Y-7447619D01*
X51364285Y-7542857D01*
X51364285Y-7685714D01*
X51316666Y-7780952D01*
X51269047Y-7828571D01*
X51173809Y-7876190D01*
X50792857Y-7876190D01*
X51745238Y-7447619D02*
X51792857Y-7400000D01*
X51888095Y-7352380D01*
X52126190Y-7352380D01*
X52221428Y-7400000D01*
X52269047Y-7447619D01*
X52316666Y-7542857D01*
X52316666Y-7638095D01*
X52269047Y-7780952D01*
X51697619Y-8352380D01*
X52316666Y-8352380D01*
X26988095Y-38752380D02*
X27559523Y-38752380D01*
X27273809Y-39752380D02*
X27273809Y-38752380D01*
X27892857Y-39752380D02*
X27892857Y-38752380D01*
X28273809Y-38752380D01*
X28369047Y-38800000D01*
X28416666Y-38847619D01*
X28464285Y-38942857D01*
X28464285Y-39085714D01*
X28416666Y-39180952D01*
X28369047Y-39228571D01*
X28273809Y-39276190D01*
X27892857Y-39276190D01*
X28797619Y-38752380D02*
X29416666Y-38752380D01*
X29083333Y-39133333D01*
X29226190Y-39133333D01*
X29321428Y-39180952D01*
X29369047Y-39228571D01*
X29416666Y-39323809D01*
X29416666Y-39561904D01*
X29369047Y-39657142D01*
X29321428Y-39704761D01*
X29226190Y-39752380D01*
X28940476Y-39752380D01*
X28845238Y-39704761D01*
X28797619Y-39657142D01*
X132798775Y-24105100D02*
X133370203Y-24105100D01*
X133084489Y-25105100D02*
X133084489Y-24105100D01*
X133703537Y-25105100D02*
X133703537Y-24105100D01*
X134084489Y-24105100D01*
X134179727Y-24152720D01*
X134227346Y-24200339D01*
X134274965Y-24295577D01*
X134274965Y-24438434D01*
X134227346Y-24533672D01*
X134179727Y-24581291D01*
X134084489Y-24628910D01*
X133703537Y-24628910D01*
X135132108Y-24438434D02*
X135132108Y-25105100D01*
X134894013Y-24057481D02*
X134655918Y-24771767D01*
X135274965Y-24771767D01*
X22788095Y6047620D02*
X23359523Y6047620D01*
X23073809Y5047620D02*
X23073809Y6047620D01*
X23692857Y5047620D02*
X23692857Y6047620D01*
X24073809Y6047620D01*
X24169047Y6000000D01*
X24216666Y5952381D01*
X24264285Y5857143D01*
X24264285Y5714286D01*
X24216666Y5619048D01*
X24169047Y5571429D01*
X24073809Y5523810D01*
X23692857Y5523810D01*
X25169047Y6047620D02*
X24692857Y6047620D01*
X24645238Y5571429D01*
X24692857Y5619048D01*
X24788095Y5666667D01*
X25026190Y5666667D01*
X25121428Y5619048D01*
X25169047Y5571429D01*
X25216666Y5476191D01*
X25216666Y5238096D01*
X25169047Y5142858D01*
X25121428Y5095239D01*
X25026190Y5047620D01*
X24788095Y5047620D01*
X24692857Y5095239D01*
X24645238Y5142858D01*
X35088095Y7447620D02*
X35659523Y7447620D01*
X35373809Y6447620D02*
X35373809Y7447620D01*
X35992857Y6447620D02*
X35992857Y7447620D01*
X36373809Y7447620D01*
X36469047Y7400000D01*
X36516666Y7352381D01*
X36564285Y7257143D01*
X36564285Y7114286D01*
X36516666Y7019048D01*
X36469047Y6971429D01*
X36373809Y6923810D01*
X35992857Y6923810D01*
X37421428Y7447620D02*
X37230952Y7447620D01*
X37135714Y7400000D01*
X37088095Y7352381D01*
X36992857Y7209524D01*
X36945238Y7019048D01*
X36945238Y6638096D01*
X36992857Y6542858D01*
X37040476Y6495239D01*
X37135714Y6447620D01*
X37326190Y6447620D01*
X37421428Y6495239D01*
X37469047Y6542858D01*
X37516666Y6638096D01*
X37516666Y6876191D01*
X37469047Y6971429D01*
X37421428Y7019048D01*
X37326190Y7066667D01*
X37135714Y7066667D01*
X37040476Y7019048D01*
X36992857Y6971429D01*
X36945238Y6876191D01*
X71088095Y7447620D02*
X71659523Y7447620D01*
X71373809Y6447620D02*
X71373809Y7447620D01*
X71992857Y6447620D02*
X71992857Y7447620D01*
X72373809Y7447620D01*
X72469047Y7400000D01*
X72516666Y7352381D01*
X72564285Y7257143D01*
X72564285Y7114286D01*
X72516666Y7019048D01*
X72469047Y6971429D01*
X72373809Y6923810D01*
X71992857Y6923810D01*
X73135714Y7019048D02*
X73040476Y7066667D01*
X72992857Y7114286D01*
X72945238Y7209524D01*
X72945238Y7257143D01*
X72992857Y7352381D01*
X73040476Y7400000D01*
X73135714Y7447620D01*
X73326190Y7447620D01*
X73421428Y7400000D01*
X73469047Y7352381D01*
X73516666Y7257143D01*
X73516666Y7209524D01*
X73469047Y7114286D01*
X73421428Y7066667D01*
X73326190Y7019048D01*
X73135714Y7019048D01*
X73040476Y6971429D01*
X72992857Y6923810D01*
X72945238Y6828572D01*
X72945238Y6638096D01*
X72992857Y6542858D01*
X73040476Y6495239D01*
X73135714Y6447620D01*
X73326190Y6447620D01*
X73421428Y6495239D01*
X73469047Y6542858D01*
X73516666Y6638096D01*
X73516666Y6828572D01*
X73469047Y6923810D01*
X73421428Y6971429D01*
X73326190Y7019048D01*
X105072584Y8544900D02*
X105644013Y8544900D01*
X105358299Y7544900D02*
X105358299Y8544900D01*
X105977346Y7544900D02*
X105977346Y8544900D01*
X106358299Y8544900D01*
X106453537Y8497280D01*
X106501156Y8449661D01*
X106548775Y8354423D01*
X106548775Y8211566D01*
X106501156Y8116328D01*
X106453537Y8068709D01*
X106358299Y8021090D01*
X105977346Y8021090D01*
X107501156Y7544900D02*
X106929727Y7544900D01*
X107215441Y7544900D02*
X107215441Y8544900D01*
X107120203Y8402042D01*
X107024965Y8306804D01*
X106929727Y8259185D01*
X108120203Y8544900D02*
X108215441Y8544900D01*
X108310680Y8497280D01*
X108358299Y8449661D01*
X108405918Y8354423D01*
X108453537Y8163947D01*
X108453537Y7925852D01*
X108405918Y7735376D01*
X108358299Y7640138D01*
X108310680Y7592519D01*
X108215441Y7544900D01*
X108120203Y7544900D01*
X108024965Y7592519D01*
X107977346Y7640138D01*
X107929727Y7735376D01*
X107882108Y7925852D01*
X107882108Y8163947D01*
X107929727Y8354423D01*
X107977346Y8449661D01*
X108024965Y8497280D01*
X108120203Y8544900D01*
X125111904Y7447620D02*
X125683333Y7447620D01*
X125397619Y6447620D02*
X125397619Y7447620D01*
X126016666Y6447620D02*
X126016666Y7447620D01*
X126397619Y7447620D01*
X126492857Y7400000D01*
X126540476Y7352381D01*
X126588095Y7257143D01*
X126588095Y7114286D01*
X126540476Y7019048D01*
X126492857Y6971429D01*
X126397619Y6923810D01*
X126016666Y6923810D01*
X127540476Y6447620D02*
X126969047Y6447620D01*
X127254761Y6447620D02*
X127254761Y7447620D01*
X127159523Y7304762D01*
X127064285Y7209524D01*
X126969047Y7161905D01*
X127921428Y7352381D02*
X127969047Y7400000D01*
X128064285Y7447620D01*
X128302380Y7447620D01*
X128397619Y7400000D01*
X128445238Y7352381D01*
X128492857Y7257143D01*
X128492857Y7161905D01*
X128445238Y7019048D01*
X127873809Y6447620D01*
X128492857Y6447620D01*
X53111904Y7447620D02*
X53683333Y7447620D01*
X53397619Y6447620D02*
X53397619Y7447620D01*
X54016666Y6447620D02*
X54016666Y7447620D01*
X54397619Y7447620D01*
X54492857Y7400000D01*
X54540476Y7352381D01*
X54588095Y7257143D01*
X54588095Y7114286D01*
X54540476Y7019048D01*
X54492857Y6971429D01*
X54397619Y6923810D01*
X54016666Y6923810D01*
X55540476Y6447620D02*
X54969047Y6447620D01*
X55254761Y6447620D02*
X55254761Y7447620D01*
X55159523Y7304762D01*
X55064285Y7209524D01*
X54969047Y7161905D01*
X56397619Y7114286D02*
X56397619Y6447620D01*
X56159523Y7495239D02*
X55921428Y6780953D01*
X56540476Y6780953D01*
X89111904Y7447620D02*
X89683333Y7447620D01*
X89397619Y6447620D02*
X89397619Y7447620D01*
X90016666Y6447620D02*
X90016666Y7447620D01*
X90397619Y7447620D01*
X90492857Y7400000D01*
X90540476Y7352381D01*
X90588095Y7257143D01*
X90588095Y7114286D01*
X90540476Y7019048D01*
X90492857Y6971429D01*
X90397619Y6923810D01*
X90016666Y6923810D01*
X91540476Y6447620D02*
X90969047Y6447620D01*
X91254761Y6447620D02*
X91254761Y7447620D01*
X91159523Y7304762D01*
X91064285Y7209524D01*
X90969047Y7161905D01*
X92397619Y7447620D02*
X92207142Y7447620D01*
X92111904Y7400000D01*
X92064285Y7352381D01*
X91969047Y7209524D01*
X91921428Y7019048D01*
X91921428Y6638096D01*
X91969047Y6542858D01*
X92016666Y6495239D01*
X92111904Y6447620D01*
X92302380Y6447620D01*
X92397619Y6495239D01*
X92445238Y6542858D01*
X92492857Y6638096D01*
X92492857Y6876191D01*
X92445238Y6971429D01*
X92397619Y7019048D01*
X92302380Y7066667D01*
X92111904Y7066667D01*
X92016666Y7019048D01*
X91969047Y6971429D01*
X91921428Y6876191D01*
X43207142Y-10852380D02*
X42873809Y-10376190D01*
X42635714Y-10852380D02*
X42635714Y-9852380D01*
X43016666Y-9852380D01*
X43111904Y-9900000D01*
X43159523Y-9947619D01*
X43207142Y-10042857D01*
X43207142Y-10185714D01*
X43159523Y-10280952D01*
X43111904Y-10328571D01*
X43016666Y-10376190D01*
X42635714Y-10376190D01*
X44064285Y-9852380D02*
X43873809Y-9852380D01*
X43778571Y-9900000D01*
X43730952Y-9947619D01*
X43635714Y-10090476D01*
X43588095Y-10280952D01*
X43588095Y-10661904D01*
X43635714Y-10757142D01*
X43683333Y-10804761D01*
X43778571Y-10852380D01*
X43969047Y-10852380D01*
X44064285Y-10804761D01*
X44111904Y-10757142D01*
X44159523Y-10661904D01*
X44159523Y-10423809D01*
X44111904Y-10328571D01*
X44064285Y-10280952D01*
X43969047Y-10233333D01*
X43778571Y-10233333D01*
X43683333Y-10280952D01*
X43635714Y-10328571D01*
X43588095Y-10423809D01*
X44492857Y-9852380D02*
X45111904Y-9852380D01*
X44778571Y-10233333D01*
X44921428Y-10233333D01*
X45016666Y-10280952D01*
X45064285Y-10328571D01*
X45111904Y-10423809D01*
X45111904Y-10661904D01*
X45064285Y-10757142D01*
X45016666Y-10804761D01*
X44921428Y-10852380D01*
X44635714Y-10852380D01*
X44540476Y-10804761D01*
X44492857Y-10757142D01*
X61402380Y-22842857D02*
X60926190Y-23176190D01*
X61402380Y-23414285D02*
X60402380Y-23414285D01*
X60402380Y-23033333D01*
X60450000Y-22938095D01*
X60497619Y-22890476D01*
X60592857Y-22842857D01*
X60735714Y-22842857D01*
X60830952Y-22890476D01*
X60878571Y-22938095D01*
X60926190Y-23033333D01*
X60926190Y-23414285D01*
X60402380Y-21985714D02*
X60402380Y-22176190D01*
X60450000Y-22271428D01*
X60497619Y-22319047D01*
X60640476Y-22414285D01*
X60830952Y-22461904D01*
X61211904Y-22461904D01*
X61307142Y-22414285D01*
X61354761Y-22366666D01*
X61402380Y-22271428D01*
X61402380Y-22080952D01*
X61354761Y-21985714D01*
X61307142Y-21938095D01*
X61211904Y-21890476D01*
X60973809Y-21890476D01*
X60878571Y-21938095D01*
X60830952Y-21985714D01*
X60783333Y-22080952D01*
X60783333Y-22271428D01*
X60830952Y-22366666D01*
X60878571Y-22414285D01*
X60973809Y-22461904D01*
X60735714Y-21033333D02*
X61402380Y-21033333D01*
X60354761Y-21271428D02*
X61069047Y-21509523D01*
X61069047Y-20890476D01*
X40507142Y-10852380D02*
X40173809Y-10376190D01*
X39935714Y-10852380D02*
X39935714Y-9852380D01*
X40316666Y-9852380D01*
X40411904Y-9900000D01*
X40459523Y-9947619D01*
X40507142Y-10042857D01*
X40507142Y-10185714D01*
X40459523Y-10280952D01*
X40411904Y-10328571D01*
X40316666Y-10376190D01*
X39935714Y-10376190D01*
X41364285Y-9852380D02*
X41173809Y-9852380D01*
X41078571Y-9900000D01*
X41030952Y-9947619D01*
X40935714Y-10090476D01*
X40888095Y-10280952D01*
X40888095Y-10661904D01*
X40935714Y-10757142D01*
X40983333Y-10804761D01*
X41078571Y-10852380D01*
X41269047Y-10852380D01*
X41364285Y-10804761D01*
X41411904Y-10757142D01*
X41459523Y-10661904D01*
X41459523Y-10423809D01*
X41411904Y-10328571D01*
X41364285Y-10280952D01*
X41269047Y-10233333D01*
X41078571Y-10233333D01*
X40983333Y-10280952D01*
X40935714Y-10328571D01*
X40888095Y-10423809D01*
X42364285Y-9852380D02*
X41888095Y-9852380D01*
X41840476Y-10328571D01*
X41888095Y-10280952D01*
X41983333Y-10233333D01*
X42221428Y-10233333D01*
X42316666Y-10280952D01*
X42364285Y-10328571D01*
X42411904Y-10423809D01*
X42411904Y-10661904D01*
X42364285Y-10757142D01*
X42316666Y-10804761D01*
X42221428Y-10852380D01*
X41983333Y-10852380D01*
X41888095Y-10804761D01*
X41840476Y-10757142D01*
X61402380Y-25742857D02*
X60926190Y-26076190D01*
X61402380Y-26314285D02*
X60402380Y-26314285D01*
X60402380Y-25933333D01*
X60450000Y-25838095D01*
X60497619Y-25790476D01*
X60592857Y-25742857D01*
X60735714Y-25742857D01*
X60830952Y-25790476D01*
X60878571Y-25838095D01*
X60926190Y-25933333D01*
X60926190Y-26314285D01*
X60402380Y-24885714D02*
X60402380Y-25076190D01*
X60450000Y-25171428D01*
X60497619Y-25219047D01*
X60640476Y-25314285D01*
X60830952Y-25361904D01*
X61211904Y-25361904D01*
X61307142Y-25314285D01*
X61354761Y-25266666D01*
X61402380Y-25171428D01*
X61402380Y-24980952D01*
X61354761Y-24885714D01*
X61307142Y-24838095D01*
X61211904Y-24790476D01*
X60973809Y-24790476D01*
X60878571Y-24838095D01*
X60830952Y-24885714D01*
X60783333Y-24980952D01*
X60783333Y-25171428D01*
X60830952Y-25266666D01*
X60878571Y-25314285D01*
X60973809Y-25361904D01*
X60402380Y-23933333D02*
X60402380Y-24123809D01*
X60450000Y-24219047D01*
X60497619Y-24266666D01*
X60640476Y-24361904D01*
X60830952Y-24409523D01*
X61211904Y-24409523D01*
X61307142Y-24361904D01*
X61354761Y-24314285D01*
X61402380Y-24219047D01*
X61402380Y-24028571D01*
X61354761Y-23933333D01*
X61307142Y-23885714D01*
X61211904Y-23838095D01*
X60973809Y-23838095D01*
X60878571Y-23885714D01*
X60830952Y-23933333D01*
X60783333Y-24028571D01*
X60783333Y-24219047D01*
X60830952Y-24314285D01*
X60878571Y-24361904D01*
X60973809Y-24409523D01*
X39507142Y-16352380D02*
X39173809Y-15876190D01*
X38935714Y-16352380D02*
X38935714Y-15352380D01*
X39316666Y-15352380D01*
X39411904Y-15400000D01*
X39459523Y-15447619D01*
X39507142Y-15542857D01*
X39507142Y-15685714D01*
X39459523Y-15780952D01*
X39411904Y-15828571D01*
X39316666Y-15876190D01*
X38935714Y-15876190D01*
X40364285Y-15352380D02*
X40173809Y-15352380D01*
X40078571Y-15400000D01*
X40030952Y-15447619D01*
X39935714Y-15590476D01*
X39888095Y-15780952D01*
X39888095Y-16161904D01*
X39935714Y-16257142D01*
X39983333Y-16304761D01*
X40078571Y-16352380D01*
X40269047Y-16352380D01*
X40364285Y-16304761D01*
X40411904Y-16257142D01*
X40459523Y-16161904D01*
X40459523Y-15923809D01*
X40411904Y-15828571D01*
X40364285Y-15780952D01*
X40269047Y-15733333D01*
X40078571Y-15733333D01*
X39983333Y-15780952D01*
X39935714Y-15828571D01*
X39888095Y-15923809D01*
X40792857Y-15352380D02*
X41459523Y-15352380D01*
X41030952Y-16352380D01*
X59902380Y-12542857D02*
X59426190Y-12876190D01*
X59902380Y-13114285D02*
X58902380Y-13114285D01*
X58902380Y-12733333D01*
X58950000Y-12638095D01*
X58997619Y-12590476D01*
X59092857Y-12542857D01*
X59235714Y-12542857D01*
X59330952Y-12590476D01*
X59378571Y-12638095D01*
X59426190Y-12733333D01*
X59426190Y-13114285D01*
X58902380Y-11685714D02*
X58902380Y-11876190D01*
X58950000Y-11971428D01*
X58997619Y-12019047D01*
X59140476Y-12114285D01*
X59330952Y-12161904D01*
X59711904Y-12161904D01*
X59807142Y-12114285D01*
X59854761Y-12066666D01*
X59902380Y-11971428D01*
X59902380Y-11780952D01*
X59854761Y-11685714D01*
X59807142Y-11638095D01*
X59711904Y-11590476D01*
X59473809Y-11590476D01*
X59378571Y-11638095D01*
X59330952Y-11685714D01*
X59283333Y-11780952D01*
X59283333Y-11971428D01*
X59330952Y-12066666D01*
X59378571Y-12114285D01*
X59473809Y-12161904D01*
X59330952Y-11019047D02*
X59283333Y-11114285D01*
X59235714Y-11161904D01*
X59140476Y-11209523D01*
X59092857Y-11209523D01*
X58997619Y-11161904D01*
X58950000Y-11114285D01*
X58902380Y-11019047D01*
X58902380Y-10828571D01*
X58950000Y-10733333D01*
X58997619Y-10685714D01*
X59092857Y-10638095D01*
X59140476Y-10638095D01*
X59235714Y-10685714D01*
X59283333Y-10733333D01*
X59330952Y-10828571D01*
X59330952Y-11019047D01*
X59378571Y-11114285D01*
X59426190Y-11161904D01*
X59521428Y-11209523D01*
X59711904Y-11209523D01*
X59807142Y-11161904D01*
X59854761Y-11114285D01*
X59902380Y-11019047D01*
X59902380Y-10828571D01*
X59854761Y-10733333D01*
X59807142Y-10685714D01*
X59711904Y-10638095D01*
X59521428Y-10638095D01*
X59426190Y-10685714D01*
X59378571Y-10733333D01*
X59330952Y-10828571D01*
X36707142Y-16352380D02*
X36373809Y-15876190D01*
X36135714Y-16352380D02*
X36135714Y-15352380D01*
X36516666Y-15352380D01*
X36611904Y-15400000D01*
X36659523Y-15447619D01*
X36707142Y-15542857D01*
X36707142Y-15685714D01*
X36659523Y-15780952D01*
X36611904Y-15828571D01*
X36516666Y-15876190D01*
X36135714Y-15876190D01*
X37564285Y-15352380D02*
X37373809Y-15352380D01*
X37278571Y-15400000D01*
X37230952Y-15447619D01*
X37135714Y-15590476D01*
X37088095Y-15780952D01*
X37088095Y-16161904D01*
X37135714Y-16257142D01*
X37183333Y-16304761D01*
X37278571Y-16352380D01*
X37469047Y-16352380D01*
X37564285Y-16304761D01*
X37611904Y-16257142D01*
X37659523Y-16161904D01*
X37659523Y-15923809D01*
X37611904Y-15828571D01*
X37564285Y-15780952D01*
X37469047Y-15733333D01*
X37278571Y-15733333D01*
X37183333Y-15780952D01*
X37135714Y-15828571D01*
X37088095Y-15923809D01*
X38135714Y-16352380D02*
X38326190Y-16352380D01*
X38421428Y-16304761D01*
X38469047Y-16257142D01*
X38564285Y-16114285D01*
X38611904Y-15923809D01*
X38611904Y-15542857D01*
X38564285Y-15447619D01*
X38516666Y-15400000D01*
X38421428Y-15352380D01*
X38230952Y-15352380D01*
X38135714Y-15400000D01*
X38088095Y-15447619D01*
X38040476Y-15542857D01*
X38040476Y-15780952D01*
X38088095Y-15876190D01*
X38135714Y-15923809D01*
X38230952Y-15971428D01*
X38421428Y-15971428D01*
X38516666Y-15923809D01*
X38564285Y-15876190D01*
X38611904Y-15780952D01*
X59902380Y-15742857D02*
X59426190Y-16076190D01*
X59902380Y-16314285D02*
X58902380Y-16314285D01*
X58902380Y-15933333D01*
X58950000Y-15838095D01*
X58997619Y-15790476D01*
X59092857Y-15742857D01*
X59235714Y-15742857D01*
X59330952Y-15790476D01*
X59378571Y-15838095D01*
X59426190Y-15933333D01*
X59426190Y-16314285D01*
X58902380Y-15409523D02*
X58902380Y-14742857D01*
X59902380Y-15171428D01*
X58902380Y-14171428D02*
X58902380Y-14076190D01*
X58950000Y-13980952D01*
X58997619Y-13933333D01*
X59092857Y-13885714D01*
X59283333Y-13838095D01*
X59521428Y-13838095D01*
X59711904Y-13885714D01*
X59807142Y-13933333D01*
X59854761Y-13980952D01*
X59902380Y-14076190D01*
X59902380Y-14171428D01*
X59854761Y-14266666D01*
X59807142Y-14314285D01*
X59711904Y-14361904D01*
X59521428Y-14409523D01*
X59283333Y-14409523D01*
X59092857Y-14361904D01*
X58997619Y-14314285D01*
X58950000Y-14266666D01*
X58902380Y-14171428D01*
X18607142Y9847620D02*
X18273809Y10323810D01*
X18035714Y9847620D02*
X18035714Y10847620D01*
X18416666Y10847620D01*
X18511904Y10800000D01*
X18559523Y10752381D01*
X18607142Y10657143D01*
X18607142Y10514286D01*
X18559523Y10419048D01*
X18511904Y10371429D01*
X18416666Y10323810D01*
X18035714Y10323810D01*
X18940476Y10847620D02*
X19607142Y10847620D01*
X19178571Y9847620D01*
X20511904Y9847620D02*
X19940476Y9847620D01*
X20226190Y9847620D02*
X20226190Y10847620D01*
X20130952Y10704762D01*
X20035714Y10609524D01*
X19940476Y10561905D01*
X15407142Y9847620D02*
X15073809Y10323810D01*
X14835714Y9847620D02*
X14835714Y10847620D01*
X15216666Y10847620D01*
X15311904Y10800000D01*
X15359523Y10752381D01*
X15407142Y10657143D01*
X15407142Y10514286D01*
X15359523Y10419048D01*
X15311904Y10371429D01*
X15216666Y10323810D01*
X14835714Y10323810D01*
X15740476Y10847620D02*
X16407142Y10847620D01*
X15978571Y9847620D01*
X16740476Y10752381D02*
X16788095Y10800000D01*
X16883333Y10847620D01*
X17121428Y10847620D01*
X17216666Y10800000D01*
X17264285Y10752381D01*
X17311904Y10657143D01*
X17311904Y10561905D01*
X17264285Y10419048D01*
X16692857Y9847620D01*
X17311904Y9847620D01*
X12607142Y9847620D02*
X12273809Y10323810D01*
X12035714Y9847620D02*
X12035714Y10847620D01*
X12416666Y10847620D01*
X12511904Y10800000D01*
X12559523Y10752381D01*
X12607142Y10657143D01*
X12607142Y10514286D01*
X12559523Y10419048D01*
X12511904Y10371429D01*
X12416666Y10323810D01*
X12035714Y10323810D01*
X12940476Y10847620D02*
X13607142Y10847620D01*
X13178571Y9847620D01*
X13892857Y10847620D02*
X14511904Y10847620D01*
X14178571Y10466667D01*
X14321428Y10466667D01*
X14416666Y10419048D01*
X14464285Y10371429D01*
X14511904Y10276191D01*
X14511904Y10038096D01*
X14464285Y9942858D01*
X14416666Y9895239D01*
X14321428Y9847620D01*
X14035714Y9847620D01*
X13940476Y9895239D01*
X13892857Y9942858D01*
X9607142Y9847620D02*
X9273809Y10323810D01*
X9035714Y9847620D02*
X9035714Y10847620D01*
X9416666Y10847620D01*
X9511904Y10800000D01*
X9559523Y10752381D01*
X9607142Y10657143D01*
X9607142Y10514286D01*
X9559523Y10419048D01*
X9511904Y10371429D01*
X9416666Y10323810D01*
X9035714Y10323810D01*
X9940476Y10847620D02*
X10607142Y10847620D01*
X10178571Y9847620D01*
X11416666Y10514286D02*
X11416666Y9847620D01*
X11178571Y10895239D02*
X10940476Y10180953D01*
X11559523Y10180953D01*
X118416666Y16547620D02*
X118416666Y15833334D01*
X118369047Y15690477D01*
X118273809Y15595239D01*
X118130952Y15547620D01*
X118035714Y15547620D01*
X119369047Y16547620D02*
X118892857Y16547620D01*
X118845238Y16071429D01*
X118892857Y16119048D01*
X118988095Y16166667D01*
X119226190Y16166667D01*
X119321428Y16119048D01*
X119369047Y16071429D01*
X119416666Y15976191D01*
X119416666Y15738096D01*
X119369047Y15642858D01*
X119321428Y15595239D01*
X119226190Y15547620D01*
X118988095Y15547620D01*
X118892857Y15595239D01*
X118845238Y15642858D01*
X120488095Y19747620D02*
X121059523Y19747620D01*
X120773809Y18747620D02*
X120773809Y19747620D01*
X121392857Y18747620D02*
X121392857Y19747620D01*
X121773809Y19747620D01*
X121869047Y19700000D01*
X121916666Y19652381D01*
X121964285Y19557143D01*
X121964285Y19414286D01*
X121916666Y19319048D01*
X121869047Y19271429D01*
X121773809Y19223810D01*
X121392857Y19223810D01*
X122440476Y18747620D02*
X122630952Y18747620D01*
X122726190Y18795239D01*
X122773809Y18842858D01*
X122869047Y18985715D01*
X122916666Y19176191D01*
X122916666Y19557143D01*
X122869047Y19652381D01*
X122821428Y19700000D01*
X122726190Y19747620D01*
X122535714Y19747620D01*
X122440476Y19700000D01*
X122392857Y19652381D01*
X122345238Y19557143D01*
X122345238Y19319048D01*
X122392857Y19223810D01*
X122440476Y19176191D01*
X122535714Y19128572D01*
X122726190Y19128572D01*
X122821428Y19176191D01*
X122869047Y19223810D01*
X122916666Y19319048D01*
M02*
