G04 #@! TF.GenerationSoftware,KiCad,Pcbnew,(5.0.1)-3*
G04 #@! TF.CreationDate,2019-09-13T18:10:52+02:00*
G04 #@! TF.ProjectId,discovery,646973636F766572792E6B696361645F,rev?*
G04 #@! TF.SameCoordinates,PX4c4b360PY85843d4*
G04 #@! TF.FileFunction,Soldermask,Top*
G04 #@! TF.FilePolarity,Negative*
%FSLAX46Y46*%
G04 Gerber Fmt 4.6, Leading zero omitted, Abs format (unit mm)*
G04 Created by KiCad (PCBNEW (5.0.1)-3) date 13/09/2019 18:10:52*
%MOMM*%
%LPD*%
G01*
G04 APERTURE LIST*
%ADD10C,0.100000*%
G04 APERTURE END LIST*
D10*
G36*
X140744256Y2455227D02*
X140744258Y2455226D01*
X140744259Y2455226D01*
X141208512Y2262927D01*
X141624444Y1985010D01*
X141626331Y1983749D01*
X141981649Y1628431D01*
X141981651Y1628428D01*
X142260827Y1210612D01*
X142453126Y746359D01*
X142551160Y253512D01*
X142551160Y-248992D01*
X142453126Y-741839D01*
X142260827Y-1206092D01*
X141982910Y-1622024D01*
X141981649Y-1623911D01*
X141626331Y-1979229D01*
X141626328Y-1979231D01*
X141208512Y-2258407D01*
X140744259Y-2450706D01*
X140744258Y-2450706D01*
X140744256Y-2450707D01*
X140251413Y-2548740D01*
X139748907Y-2548740D01*
X139256064Y-2450707D01*
X139256062Y-2450706D01*
X139256061Y-2450706D01*
X138791808Y-2258407D01*
X138373992Y-1979231D01*
X138373989Y-1979229D01*
X138018671Y-1623911D01*
X138017410Y-1622024D01*
X137739493Y-1206092D01*
X137547194Y-741839D01*
X137449160Y-248992D01*
X137449160Y253512D01*
X137547194Y746359D01*
X137739493Y1210612D01*
X138018669Y1628428D01*
X138018671Y1628431D01*
X138373989Y1983749D01*
X138375876Y1985010D01*
X138791808Y2262927D01*
X139256061Y2455226D01*
X139256062Y2455226D01*
X139256064Y2455227D01*
X139748907Y2553260D01*
X140251413Y2553260D01*
X140744256Y2455227D01*
X140744256Y2455227D01*
G37*
G36*
X744256Y2455227D02*
X744258Y2455226D01*
X744259Y2455226D01*
X1208512Y2262927D01*
X1624444Y1985010D01*
X1626331Y1983749D01*
X1981649Y1628431D01*
X1981651Y1628428D01*
X2260827Y1210612D01*
X2453126Y746359D01*
X2551160Y253512D01*
X2551160Y-248992D01*
X2453126Y-741839D01*
X2260827Y-1206092D01*
X1982910Y-1622024D01*
X1981649Y-1623911D01*
X1626331Y-1979229D01*
X1626328Y-1979231D01*
X1208512Y-2258407D01*
X744259Y-2450706D01*
X744258Y-2450706D01*
X744256Y-2450707D01*
X251413Y-2548740D01*
X-251093Y-2548740D01*
X-743936Y-2450707D01*
X-743938Y-2450706D01*
X-743939Y-2450706D01*
X-1208192Y-2258407D01*
X-1626008Y-1979231D01*
X-1626011Y-1979229D01*
X-1981329Y-1623911D01*
X-1982590Y-1622024D01*
X-2260507Y-1206092D01*
X-2452806Y-741839D01*
X-2550840Y-248992D01*
X-2550840Y253512D01*
X-2452806Y746359D01*
X-2260507Y1210612D01*
X-1981331Y1628428D01*
X-1981329Y1628431D01*
X-1626011Y1983749D01*
X-1624124Y1985010D01*
X-1208192Y2262927D01*
X-743939Y2455226D01*
X-743938Y2455226D01*
X-743936Y2455227D01*
X-251093Y2553260D01*
X251413Y2553260D01*
X744256Y2455227D01*
X744256Y2455227D01*
G37*
G36*
X30698412Y8841842D02*
X30698414Y8841841D01*
X30698415Y8841841D01*
X31071673Y8687233D01*
X31071674Y8687232D01*
X31407599Y8462774D01*
X31693274Y8177099D01*
X31693276Y8177096D01*
X31917733Y7841173D01*
X32072341Y7467915D01*
X32151160Y7071666D01*
X32151160Y6667654D01*
X32072341Y6271405D01*
X31917733Y5898147D01*
X31917732Y5898146D01*
X31693274Y5562221D01*
X31407599Y5276546D01*
X31407596Y5276544D01*
X31071673Y5052087D01*
X30698415Y4897479D01*
X30698414Y4897479D01*
X30698412Y4897478D01*
X30302167Y4818660D01*
X29898153Y4818660D01*
X29501908Y4897478D01*
X29501906Y4897479D01*
X29501905Y4897479D01*
X29128647Y5052087D01*
X28792724Y5276544D01*
X28792721Y5276546D01*
X28507046Y5562221D01*
X28282588Y5898146D01*
X28282587Y5898147D01*
X28127979Y6271405D01*
X28049160Y6667654D01*
X28049160Y7071666D01*
X28127979Y7467915D01*
X28282587Y7841173D01*
X28507044Y8177096D01*
X28507046Y8177099D01*
X28792721Y8462774D01*
X29128646Y8687232D01*
X29128647Y8687233D01*
X29501905Y8841841D01*
X29501906Y8841841D01*
X29501908Y8841842D01*
X29898153Y8920660D01*
X30302167Y8920660D01*
X30698412Y8841842D01*
X30698412Y8841842D01*
G37*
G36*
X6498412Y8841842D02*
X6498414Y8841841D01*
X6498415Y8841841D01*
X6871673Y8687233D01*
X6871674Y8687232D01*
X7207599Y8462774D01*
X7493274Y8177099D01*
X7493276Y8177096D01*
X7717733Y7841173D01*
X7872341Y7467915D01*
X7951160Y7071666D01*
X7951160Y6667654D01*
X7872341Y6271405D01*
X7717733Y5898147D01*
X7717732Y5898146D01*
X7493274Y5562221D01*
X7207599Y5276546D01*
X7207596Y5276544D01*
X6871673Y5052087D01*
X6498415Y4897479D01*
X6498414Y4897479D01*
X6498412Y4897478D01*
X6102167Y4818660D01*
X5698153Y4818660D01*
X5301908Y4897478D01*
X5301906Y4897479D01*
X5301905Y4897479D01*
X4928647Y5052087D01*
X4592724Y5276544D01*
X4592721Y5276546D01*
X4307046Y5562221D01*
X4082588Y5898146D01*
X4082587Y5898147D01*
X3927979Y6271405D01*
X3849160Y6667654D01*
X3849160Y7071666D01*
X3927979Y7467915D01*
X4082587Y7841173D01*
X4307044Y8177096D01*
X4307046Y8177099D01*
X4592721Y8462774D01*
X4928646Y8687232D01*
X4928647Y8687233D01*
X5301905Y8841841D01*
X5301906Y8841841D01*
X5301908Y8841842D01*
X5698153Y8920660D01*
X6102167Y8920660D01*
X6498412Y8841842D01*
X6498412Y8841842D01*
G37*
G36*
X26279645Y12820664D02*
X26279647Y12820663D01*
X26279648Y12820663D01*
X26516415Y12722591D01*
X26729502Y12580211D01*
X26910711Y12399002D01*
X27053091Y12185915D01*
X27151164Y11949145D01*
X27201160Y11697799D01*
X27201160Y11441521D01*
X27151164Y11190175D01*
X27053091Y10953405D01*
X26910711Y10740318D01*
X26729502Y10559109D01*
X26729499Y10559107D01*
X26516415Y10416729D01*
X26279648Y10318657D01*
X26279647Y10318657D01*
X26279645Y10318656D01*
X26028299Y10268660D01*
X25772021Y10268660D01*
X25520675Y10318656D01*
X25520673Y10318657D01*
X25520672Y10318657D01*
X25283905Y10416729D01*
X25070821Y10559107D01*
X25070818Y10559109D01*
X24889609Y10740318D01*
X24747229Y10953405D01*
X24649156Y11190175D01*
X24599160Y11441521D01*
X24599160Y11697799D01*
X24649156Y11949145D01*
X24747229Y12185915D01*
X24889609Y12399002D01*
X25070818Y12580211D01*
X25283905Y12722591D01*
X25520672Y12820663D01*
X25520673Y12820663D01*
X25520675Y12820664D01*
X25772021Y12870660D01*
X26028299Y12870660D01*
X26279645Y12820664D01*
X26279645Y12820664D01*
G37*
G36*
X10479645Y12820664D02*
X10479647Y12820663D01*
X10479648Y12820663D01*
X10716415Y12722591D01*
X10929502Y12580211D01*
X11110711Y12399002D01*
X11253091Y12185915D01*
X11351164Y11949145D01*
X11401160Y11697799D01*
X11401160Y11441521D01*
X11351164Y11190175D01*
X11253091Y10953405D01*
X11110711Y10740318D01*
X10929502Y10559109D01*
X10929499Y10559107D01*
X10716415Y10416729D01*
X10479648Y10318657D01*
X10479647Y10318657D01*
X10479645Y10318656D01*
X10228299Y10268660D01*
X9972021Y10268660D01*
X9720675Y10318656D01*
X9720673Y10318657D01*
X9720672Y10318657D01*
X9483905Y10416729D01*
X9270821Y10559107D01*
X9270818Y10559109D01*
X9089609Y10740318D01*
X8947229Y10953405D01*
X8849156Y11190175D01*
X8799160Y11441521D01*
X8799160Y11697799D01*
X8849156Y11949145D01*
X8947229Y12185915D01*
X9089609Y12399002D01*
X9270818Y12580211D01*
X9483905Y12722591D01*
X9720672Y12820663D01*
X9720673Y12820663D01*
X9720675Y12820664D01*
X9972021Y12870660D01*
X10228299Y12870660D01*
X10479645Y12820664D01*
X10479645Y12820664D01*
G37*
G36*
X6279645Y12820664D02*
X6279647Y12820663D01*
X6279648Y12820663D01*
X6516415Y12722591D01*
X6729502Y12580211D01*
X6910711Y12399002D01*
X7053091Y12185915D01*
X7151164Y11949145D01*
X7201160Y11697799D01*
X7201160Y11441521D01*
X7151164Y11190175D01*
X7053091Y10953405D01*
X6910711Y10740318D01*
X6729502Y10559109D01*
X6729499Y10559107D01*
X6516415Y10416729D01*
X6279648Y10318657D01*
X6279647Y10318657D01*
X6279645Y10318656D01*
X6028299Y10268660D01*
X5772021Y10268660D01*
X5520675Y10318656D01*
X5520673Y10318657D01*
X5520672Y10318657D01*
X5283905Y10416729D01*
X5070821Y10559107D01*
X5070818Y10559109D01*
X4889609Y10740318D01*
X4747229Y10953405D01*
X4649156Y11190175D01*
X4599160Y11441521D01*
X4599160Y11697799D01*
X4649156Y11949145D01*
X4747229Y12185915D01*
X4889609Y12399002D01*
X5070818Y12580211D01*
X5283905Y12722591D01*
X5520672Y12820663D01*
X5520673Y12820663D01*
X5520675Y12820664D01*
X5772021Y12870660D01*
X6028299Y12870660D01*
X6279645Y12820664D01*
X6279645Y12820664D01*
G37*
G36*
X30479645Y12820664D02*
X30479647Y12820663D01*
X30479648Y12820663D01*
X30716415Y12722591D01*
X30929502Y12580211D01*
X31110711Y12399002D01*
X31253091Y12185915D01*
X31351164Y11949145D01*
X31401160Y11697799D01*
X31401160Y11441521D01*
X31351164Y11190175D01*
X31253091Y10953405D01*
X31110711Y10740318D01*
X30929502Y10559109D01*
X30929499Y10559107D01*
X30716415Y10416729D01*
X30479648Y10318657D01*
X30479647Y10318657D01*
X30479645Y10318656D01*
X30228299Y10268660D01*
X29972021Y10268660D01*
X29720675Y10318656D01*
X29720673Y10318657D01*
X29720672Y10318657D01*
X29483905Y10416729D01*
X29270821Y10559107D01*
X29270818Y10559109D01*
X29089609Y10740318D01*
X28947229Y10953405D01*
X28849156Y11190175D01*
X28799160Y11441521D01*
X28799160Y11697799D01*
X28849156Y11949145D01*
X28947229Y12185915D01*
X29089609Y12399002D01*
X29270818Y12580211D01*
X29483905Y12722591D01*
X29720672Y12820663D01*
X29720673Y12820663D01*
X29720675Y12820664D01*
X29972021Y12870660D01*
X30228299Y12870660D01*
X30479645Y12820664D01*
X30479645Y12820664D01*
G37*
G36*
X112202705Y28593080D02*
X113576898Y28023870D01*
X113576900Y28023869D01*
X114797194Y27208495D01*
X114813645Y27197503D01*
X115865403Y26145745D01*
X116691770Y24908998D01*
X117260980Y23534805D01*
X117551160Y22075970D01*
X117551160Y20588550D01*
X117260980Y19129715D01*
X116691770Y17755522D01*
X116691769Y17755520D01*
X116135224Y16922591D01*
X115865403Y16518775D01*
X114813645Y15467017D01*
X114813642Y15467015D01*
X113576900Y14640651D01*
X113576899Y14640650D01*
X113576898Y14640650D01*
X112202705Y14071440D01*
X110743870Y13781260D01*
X109256450Y13781260D01*
X107797615Y14071440D01*
X106423422Y14640650D01*
X106423421Y14640650D01*
X106423420Y14640651D01*
X105186678Y15467015D01*
X105186675Y15467017D01*
X104134917Y16518775D01*
X103865096Y16922591D01*
X103308551Y17755520D01*
X103308550Y17755522D01*
X102739340Y19129715D01*
X102449160Y20588550D01*
X102449160Y22075970D01*
X102739340Y23534805D01*
X103308550Y24908998D01*
X104134917Y26145745D01*
X105186675Y27197503D01*
X105203126Y27208495D01*
X106423420Y28023869D01*
X106423422Y28023870D01*
X107797615Y28593080D01*
X109256450Y28883260D01*
X110743870Y28883260D01*
X112202705Y28593080D01*
X112202705Y28593080D01*
G37*
G36*
X72202705Y28593080D02*
X73576898Y28023870D01*
X73576900Y28023869D01*
X74797194Y27208495D01*
X74813645Y27197503D01*
X75865403Y26145745D01*
X76691770Y24908998D01*
X77260980Y23534805D01*
X77551160Y22075970D01*
X77551160Y20588550D01*
X77260980Y19129715D01*
X76691770Y17755522D01*
X76691769Y17755520D01*
X76135224Y16922591D01*
X75865403Y16518775D01*
X74813645Y15467017D01*
X74813642Y15467015D01*
X73576900Y14640651D01*
X73576899Y14640650D01*
X73576898Y14640650D01*
X72202705Y14071440D01*
X70743870Y13781260D01*
X69256450Y13781260D01*
X67797615Y14071440D01*
X66423422Y14640650D01*
X66423421Y14640650D01*
X66423420Y14640651D01*
X65186678Y15467015D01*
X65186675Y15467017D01*
X64134917Y16518775D01*
X63865096Y16922591D01*
X63308551Y17755520D01*
X63308550Y17755522D01*
X62739340Y19129715D01*
X62449160Y20588550D01*
X62449160Y22075970D01*
X62739340Y23534805D01*
X63308550Y24908998D01*
X64134917Y26145745D01*
X65186675Y27197503D01*
X65203126Y27208495D01*
X66423420Y28023869D01*
X66423422Y28023870D01*
X67797615Y28593080D01*
X69256450Y28883260D01*
X70743870Y28883260D01*
X72202705Y28593080D01*
X72202705Y28593080D01*
G37*
G36*
X30479645Y17020664D02*
X30479647Y17020663D01*
X30479648Y17020663D01*
X30716415Y16922591D01*
X30929502Y16780211D01*
X31110711Y16599002D01*
X31253091Y16385915D01*
X31351164Y16149145D01*
X31401160Y15897799D01*
X31401160Y15641521D01*
X31351164Y15390175D01*
X31253091Y15153405D01*
X31110711Y14940318D01*
X30929502Y14759109D01*
X30929499Y14759107D01*
X30716415Y14616729D01*
X30479648Y14518657D01*
X30479647Y14518657D01*
X30479645Y14518656D01*
X30228299Y14468660D01*
X29972021Y14468660D01*
X29720675Y14518656D01*
X29720673Y14518657D01*
X29720672Y14518657D01*
X29483905Y14616729D01*
X29270821Y14759107D01*
X29270818Y14759109D01*
X29089609Y14940318D01*
X28947229Y15153405D01*
X28849156Y15390175D01*
X28799160Y15641521D01*
X28799160Y15897799D01*
X28849156Y16149145D01*
X28947229Y16385915D01*
X29089609Y16599002D01*
X29270818Y16780211D01*
X29483905Y16922591D01*
X29720672Y17020663D01*
X29720673Y17020663D01*
X29720675Y17020664D01*
X29972021Y17070660D01*
X30228299Y17070660D01*
X30479645Y17020664D01*
X30479645Y17020664D01*
G37*
G36*
X10479645Y17020664D02*
X10479647Y17020663D01*
X10479648Y17020663D01*
X10716415Y16922591D01*
X10929502Y16780211D01*
X11110711Y16599002D01*
X11253091Y16385915D01*
X11351164Y16149145D01*
X11401160Y15897799D01*
X11401160Y15641521D01*
X11351164Y15390175D01*
X11253091Y15153405D01*
X11110711Y14940318D01*
X10929502Y14759109D01*
X10929499Y14759107D01*
X10716415Y14616729D01*
X10479648Y14518657D01*
X10479647Y14518657D01*
X10479645Y14518656D01*
X10228299Y14468660D01*
X9972021Y14468660D01*
X9720675Y14518656D01*
X9720673Y14518657D01*
X9720672Y14518657D01*
X9483905Y14616729D01*
X9270821Y14759107D01*
X9270818Y14759109D01*
X9089609Y14940318D01*
X8947229Y15153405D01*
X8849156Y15390175D01*
X8799160Y15641521D01*
X8799160Y15897799D01*
X8849156Y16149145D01*
X8947229Y16385915D01*
X9089609Y16599002D01*
X9270818Y16780211D01*
X9483905Y16922591D01*
X9720672Y17020663D01*
X9720673Y17020663D01*
X9720675Y17020664D01*
X9972021Y17070660D01*
X10228299Y17070660D01*
X10479645Y17020664D01*
X10479645Y17020664D01*
G37*
G36*
X6279645Y17020664D02*
X6279647Y17020663D01*
X6279648Y17020663D01*
X6516415Y16922591D01*
X6729502Y16780211D01*
X6910711Y16599002D01*
X7053091Y16385915D01*
X7151164Y16149145D01*
X7201160Y15897799D01*
X7201160Y15641521D01*
X7151164Y15390175D01*
X7053091Y15153405D01*
X6910711Y14940318D01*
X6729502Y14759109D01*
X6729499Y14759107D01*
X6516415Y14616729D01*
X6279648Y14518657D01*
X6279647Y14518657D01*
X6279645Y14518656D01*
X6028299Y14468660D01*
X5772021Y14468660D01*
X5520675Y14518656D01*
X5520673Y14518657D01*
X5520672Y14518657D01*
X5283905Y14616729D01*
X5070821Y14759107D01*
X5070818Y14759109D01*
X4889609Y14940318D01*
X4747229Y15153405D01*
X4649156Y15390175D01*
X4599160Y15641521D01*
X4599160Y15897799D01*
X4649156Y16149145D01*
X4747229Y16385915D01*
X4889609Y16599002D01*
X5070818Y16780211D01*
X5283905Y16922591D01*
X5520672Y17020663D01*
X5520673Y17020663D01*
X5520675Y17020664D01*
X5772021Y17070660D01*
X6028299Y17070660D01*
X6279645Y17020664D01*
X6279645Y17020664D01*
G37*
G36*
X26279645Y17020664D02*
X26279647Y17020663D01*
X26279648Y17020663D01*
X26516415Y16922591D01*
X26729502Y16780211D01*
X26910711Y16599002D01*
X27053091Y16385915D01*
X27151164Y16149145D01*
X27201160Y15897799D01*
X27201160Y15641521D01*
X27151164Y15390175D01*
X27053091Y15153405D01*
X26910711Y14940318D01*
X26729502Y14759109D01*
X26729499Y14759107D01*
X26516415Y14616729D01*
X26279648Y14518657D01*
X26279647Y14518657D01*
X26279645Y14518656D01*
X26028299Y14468660D01*
X25772021Y14468660D01*
X25520675Y14518656D01*
X25520673Y14518657D01*
X25520672Y14518657D01*
X25283905Y14616729D01*
X25070821Y14759107D01*
X25070818Y14759109D01*
X24889609Y14940318D01*
X24747229Y15153405D01*
X24649156Y15390175D01*
X24599160Y15641521D01*
X24599160Y15897799D01*
X24649156Y16149145D01*
X24747229Y16385915D01*
X24889609Y16599002D01*
X25070818Y16780211D01*
X25283905Y16922591D01*
X25520672Y17020663D01*
X25520673Y17020663D01*
X25520675Y17020664D01*
X25772021Y17070660D01*
X26028299Y17070660D01*
X26279645Y17020664D01*
X26279645Y17020664D01*
G37*
G36*
X6279645Y21220664D02*
X6279647Y21220663D01*
X6279648Y21220663D01*
X6516415Y21122591D01*
X6729502Y20980211D01*
X6910711Y20799002D01*
X7053091Y20585915D01*
X7151164Y20349145D01*
X7201160Y20097799D01*
X7201160Y19841521D01*
X7151164Y19590175D01*
X7053091Y19353405D01*
X6910711Y19140318D01*
X6729502Y18959109D01*
X6729499Y18959107D01*
X6516415Y18816729D01*
X6279648Y18718657D01*
X6279647Y18718657D01*
X6279645Y18718656D01*
X6028299Y18668660D01*
X5772021Y18668660D01*
X5520675Y18718656D01*
X5520673Y18718657D01*
X5520672Y18718657D01*
X5283905Y18816729D01*
X5070821Y18959107D01*
X5070818Y18959109D01*
X4889609Y19140318D01*
X4747229Y19353405D01*
X4649156Y19590175D01*
X4599160Y19841521D01*
X4599160Y20097799D01*
X4649156Y20349145D01*
X4747229Y20585915D01*
X4889609Y20799002D01*
X5070818Y20980211D01*
X5283905Y21122591D01*
X5520672Y21220663D01*
X5520673Y21220663D01*
X5520675Y21220664D01*
X5772021Y21270660D01*
X6028299Y21270660D01*
X6279645Y21220664D01*
X6279645Y21220664D01*
G37*
G36*
X26279645Y21220664D02*
X26279647Y21220663D01*
X26279648Y21220663D01*
X26516415Y21122591D01*
X26729502Y20980211D01*
X26910711Y20799002D01*
X27053091Y20585915D01*
X27151164Y20349145D01*
X27201160Y20097799D01*
X27201160Y19841521D01*
X27151164Y19590175D01*
X27053091Y19353405D01*
X26910711Y19140318D01*
X26729502Y18959109D01*
X26729499Y18959107D01*
X26516415Y18816729D01*
X26279648Y18718657D01*
X26279647Y18718657D01*
X26279645Y18718656D01*
X26028299Y18668660D01*
X25772021Y18668660D01*
X25520675Y18718656D01*
X25520673Y18718657D01*
X25520672Y18718657D01*
X25283905Y18816729D01*
X25070821Y18959107D01*
X25070818Y18959109D01*
X24889609Y19140318D01*
X24747229Y19353405D01*
X24649156Y19590175D01*
X24599160Y19841521D01*
X24599160Y20097799D01*
X24649156Y20349145D01*
X24747229Y20585915D01*
X24889609Y20799002D01*
X25070818Y20980211D01*
X25283905Y21122591D01*
X25520672Y21220663D01*
X25520673Y21220663D01*
X25520675Y21220664D01*
X25772021Y21270660D01*
X26028299Y21270660D01*
X26279645Y21220664D01*
X26279645Y21220664D01*
G37*
G36*
X10479645Y21220664D02*
X10479647Y21220663D01*
X10479648Y21220663D01*
X10716415Y21122591D01*
X10929502Y20980211D01*
X11110711Y20799002D01*
X11253091Y20585915D01*
X11351164Y20349145D01*
X11401160Y20097799D01*
X11401160Y19841521D01*
X11351164Y19590175D01*
X11253091Y19353405D01*
X11110711Y19140318D01*
X10929502Y18959109D01*
X10929499Y18959107D01*
X10716415Y18816729D01*
X10479648Y18718657D01*
X10479647Y18718657D01*
X10479645Y18718656D01*
X10228299Y18668660D01*
X9972021Y18668660D01*
X9720675Y18718656D01*
X9720673Y18718657D01*
X9720672Y18718657D01*
X9483905Y18816729D01*
X9270821Y18959107D01*
X9270818Y18959109D01*
X9089609Y19140318D01*
X8947229Y19353405D01*
X8849156Y19590175D01*
X8799160Y19841521D01*
X8799160Y20097799D01*
X8849156Y20349145D01*
X8947229Y20585915D01*
X9089609Y20799002D01*
X9270818Y20980211D01*
X9483905Y21122591D01*
X9720672Y21220663D01*
X9720673Y21220663D01*
X9720675Y21220664D01*
X9972021Y21270660D01*
X10228299Y21270660D01*
X10479645Y21220664D01*
X10479645Y21220664D01*
G37*
G36*
X30479645Y21220664D02*
X30479647Y21220663D01*
X30479648Y21220663D01*
X30716415Y21122591D01*
X30929502Y20980211D01*
X31110711Y20799002D01*
X31253091Y20585915D01*
X31351164Y20349145D01*
X31401160Y20097799D01*
X31401160Y19841521D01*
X31351164Y19590175D01*
X31253091Y19353405D01*
X31110711Y19140318D01*
X30929502Y18959109D01*
X30929499Y18959107D01*
X30716415Y18816729D01*
X30479648Y18718657D01*
X30479647Y18718657D01*
X30479645Y18718656D01*
X30228299Y18668660D01*
X29972021Y18668660D01*
X29720675Y18718656D01*
X29720673Y18718657D01*
X29720672Y18718657D01*
X29483905Y18816729D01*
X29270821Y18959107D01*
X29270818Y18959109D01*
X29089609Y19140318D01*
X28947229Y19353405D01*
X28849156Y19590175D01*
X28799160Y19841521D01*
X28799160Y20097799D01*
X28849156Y20349145D01*
X28947229Y20585915D01*
X29089609Y20799002D01*
X29270818Y20980211D01*
X29483905Y21122591D01*
X29720672Y21220663D01*
X29720673Y21220663D01*
X29720675Y21220664D01*
X29972021Y21270660D01*
X30228299Y21270660D01*
X30479645Y21220664D01*
X30479645Y21220664D01*
G37*
G36*
X6498412Y26641842D02*
X6498414Y26641841D01*
X6498415Y26641841D01*
X6871673Y26487233D01*
X6871674Y26487232D01*
X7207599Y26262774D01*
X7493274Y25977099D01*
X7493276Y25977096D01*
X7717733Y25641173D01*
X7872341Y25267915D01*
X7951160Y24871666D01*
X7951160Y24467654D01*
X7872341Y24071405D01*
X7717733Y23698147D01*
X7717732Y23698146D01*
X7493274Y23362221D01*
X7207599Y23076546D01*
X7207596Y23076544D01*
X6871673Y22852087D01*
X6498415Y22697479D01*
X6498414Y22697479D01*
X6498412Y22697478D01*
X6102167Y22618660D01*
X5698153Y22618660D01*
X5301908Y22697478D01*
X5301906Y22697479D01*
X5301905Y22697479D01*
X4928647Y22852087D01*
X4592724Y23076544D01*
X4592721Y23076546D01*
X4307046Y23362221D01*
X4082588Y23698146D01*
X4082587Y23698147D01*
X3927979Y24071405D01*
X3849160Y24467654D01*
X3849160Y24871666D01*
X3927979Y25267915D01*
X4082587Y25641173D01*
X4307044Y25977096D01*
X4307046Y25977099D01*
X4592721Y26262774D01*
X4928646Y26487232D01*
X4928647Y26487233D01*
X5301905Y26641841D01*
X5301906Y26641841D01*
X5301908Y26641842D01*
X5698153Y26720660D01*
X6102167Y26720660D01*
X6498412Y26641842D01*
X6498412Y26641842D01*
G37*
G36*
X30698412Y26641842D02*
X30698414Y26641841D01*
X30698415Y26641841D01*
X31071673Y26487233D01*
X31071674Y26487232D01*
X31407599Y26262774D01*
X31693274Y25977099D01*
X31693276Y25977096D01*
X31917733Y25641173D01*
X32072341Y25267915D01*
X32151160Y24871666D01*
X32151160Y24467654D01*
X32072341Y24071405D01*
X31917733Y23698147D01*
X31917732Y23698146D01*
X31693274Y23362221D01*
X31407599Y23076546D01*
X31407596Y23076544D01*
X31071673Y22852087D01*
X30698415Y22697479D01*
X30698414Y22697479D01*
X30698412Y22697478D01*
X30302167Y22618660D01*
X29898153Y22618660D01*
X29501908Y22697478D01*
X29501906Y22697479D01*
X29501905Y22697479D01*
X29128647Y22852087D01*
X28792724Y23076544D01*
X28792721Y23076546D01*
X28507046Y23362221D01*
X28282588Y23698146D01*
X28282587Y23698147D01*
X28127979Y24071405D01*
X28049160Y24467654D01*
X28049160Y24871666D01*
X28127979Y25267915D01*
X28282587Y25641173D01*
X28507044Y25977096D01*
X28507046Y25977099D01*
X28792721Y26262774D01*
X29128646Y26487232D01*
X29128647Y26487233D01*
X29501905Y26641841D01*
X29501906Y26641841D01*
X29501908Y26641842D01*
X29898153Y26720660D01*
X30302167Y26720660D01*
X30698412Y26641842D01*
X30698412Y26641842D01*
G37*
G36*
X6498412Y37674442D02*
X6498414Y37674441D01*
X6498415Y37674441D01*
X6871673Y37519833D01*
X6871674Y37519832D01*
X7207599Y37295374D01*
X7493274Y37009699D01*
X7493276Y37009696D01*
X7717733Y36673773D01*
X7872341Y36300515D01*
X7951160Y35904266D01*
X7951160Y35500254D01*
X7872341Y35104005D01*
X7717733Y34730747D01*
X7717732Y34730746D01*
X7493274Y34394821D01*
X7207599Y34109146D01*
X7207596Y34109144D01*
X6871673Y33884687D01*
X6498415Y33730079D01*
X6498414Y33730079D01*
X6498412Y33730078D01*
X6102167Y33651260D01*
X5698153Y33651260D01*
X5301908Y33730078D01*
X5301906Y33730079D01*
X5301905Y33730079D01*
X4928647Y33884687D01*
X4592724Y34109144D01*
X4592721Y34109146D01*
X4307046Y34394821D01*
X4082588Y34730746D01*
X4082587Y34730747D01*
X3927979Y35104005D01*
X3849160Y35500254D01*
X3849160Y35904266D01*
X3927979Y36300515D01*
X4082587Y36673773D01*
X4307044Y37009696D01*
X4307046Y37009699D01*
X4592721Y37295374D01*
X4928646Y37519832D01*
X4928647Y37519833D01*
X5301905Y37674441D01*
X5301906Y37674441D01*
X5301908Y37674442D01*
X5698153Y37753260D01*
X6102167Y37753260D01*
X6498412Y37674442D01*
X6498412Y37674442D01*
G37*
G36*
X30698412Y37674442D02*
X30698414Y37674441D01*
X30698415Y37674441D01*
X31071673Y37519833D01*
X31071674Y37519832D01*
X31407599Y37295374D01*
X31693274Y37009699D01*
X31693276Y37009696D01*
X31917733Y36673773D01*
X32072341Y36300515D01*
X32151160Y35904266D01*
X32151160Y35500254D01*
X32072341Y35104005D01*
X31917733Y34730747D01*
X31917732Y34730746D01*
X31693274Y34394821D01*
X31407599Y34109146D01*
X31407596Y34109144D01*
X31071673Y33884687D01*
X30698415Y33730079D01*
X30698414Y33730079D01*
X30698412Y33730078D01*
X30302167Y33651260D01*
X29898153Y33651260D01*
X29501908Y33730078D01*
X29501906Y33730079D01*
X29501905Y33730079D01*
X29128647Y33884687D01*
X28792724Y34109144D01*
X28792721Y34109146D01*
X28507046Y34394821D01*
X28282588Y34730746D01*
X28282587Y34730747D01*
X28127979Y35104005D01*
X28049160Y35500254D01*
X28049160Y35904266D01*
X28127979Y36300515D01*
X28282587Y36673773D01*
X28507044Y37009696D01*
X28507046Y37009699D01*
X28792721Y37295374D01*
X29128646Y37519832D01*
X29128647Y37519833D01*
X29501905Y37674441D01*
X29501906Y37674441D01*
X29501908Y37674442D01*
X29898153Y37753260D01*
X30302167Y37753260D01*
X30698412Y37674442D01*
X30698412Y37674442D01*
G37*
G36*
X30479645Y41653264D02*
X30479647Y41653263D01*
X30479648Y41653263D01*
X30716415Y41555191D01*
X30929502Y41412811D01*
X31110711Y41231602D01*
X31253091Y41018515D01*
X31351164Y40781745D01*
X31401160Y40530399D01*
X31401160Y40274121D01*
X31351164Y40022775D01*
X31253091Y39786005D01*
X31110711Y39572918D01*
X30929502Y39391709D01*
X30929499Y39391707D01*
X30716415Y39249329D01*
X30479648Y39151257D01*
X30479647Y39151257D01*
X30479645Y39151256D01*
X30228299Y39101260D01*
X29972021Y39101260D01*
X29720675Y39151256D01*
X29720673Y39151257D01*
X29720672Y39151257D01*
X29483905Y39249329D01*
X29270821Y39391707D01*
X29270818Y39391709D01*
X29089609Y39572918D01*
X28947229Y39786005D01*
X28849156Y40022775D01*
X28799160Y40274121D01*
X28799160Y40530399D01*
X28849156Y40781745D01*
X28947229Y41018515D01*
X29089609Y41231602D01*
X29270818Y41412811D01*
X29483905Y41555191D01*
X29720672Y41653263D01*
X29720673Y41653263D01*
X29720675Y41653264D01*
X29972021Y41703260D01*
X30228299Y41703260D01*
X30479645Y41653264D01*
X30479645Y41653264D01*
G37*
G36*
X26279645Y41653264D02*
X26279647Y41653263D01*
X26279648Y41653263D01*
X26516415Y41555191D01*
X26729502Y41412811D01*
X26910711Y41231602D01*
X27053091Y41018515D01*
X27151164Y40781745D01*
X27201160Y40530399D01*
X27201160Y40274121D01*
X27151164Y40022775D01*
X27053091Y39786005D01*
X26910711Y39572918D01*
X26729502Y39391709D01*
X26729499Y39391707D01*
X26516415Y39249329D01*
X26279648Y39151257D01*
X26279647Y39151257D01*
X26279645Y39151256D01*
X26028299Y39101260D01*
X25772021Y39101260D01*
X25520675Y39151256D01*
X25520673Y39151257D01*
X25520672Y39151257D01*
X25283905Y39249329D01*
X25070821Y39391707D01*
X25070818Y39391709D01*
X24889609Y39572918D01*
X24747229Y39786005D01*
X24649156Y40022775D01*
X24599160Y40274121D01*
X24599160Y40530399D01*
X24649156Y40781745D01*
X24747229Y41018515D01*
X24889609Y41231602D01*
X25070818Y41412811D01*
X25283905Y41555191D01*
X25520672Y41653263D01*
X25520673Y41653263D01*
X25520675Y41653264D01*
X25772021Y41703260D01*
X26028299Y41703260D01*
X26279645Y41653264D01*
X26279645Y41653264D01*
G37*
G36*
X10479645Y41653264D02*
X10479647Y41653263D01*
X10479648Y41653263D01*
X10716415Y41555191D01*
X10929502Y41412811D01*
X11110711Y41231602D01*
X11253091Y41018515D01*
X11351164Y40781745D01*
X11401160Y40530399D01*
X11401160Y40274121D01*
X11351164Y40022775D01*
X11253091Y39786005D01*
X11110711Y39572918D01*
X10929502Y39391709D01*
X10929499Y39391707D01*
X10716415Y39249329D01*
X10479648Y39151257D01*
X10479647Y39151257D01*
X10479645Y39151256D01*
X10228299Y39101260D01*
X9972021Y39101260D01*
X9720675Y39151256D01*
X9720673Y39151257D01*
X9720672Y39151257D01*
X9483905Y39249329D01*
X9270821Y39391707D01*
X9270818Y39391709D01*
X9089609Y39572918D01*
X8947229Y39786005D01*
X8849156Y40022775D01*
X8799160Y40274121D01*
X8799160Y40530399D01*
X8849156Y40781745D01*
X8947229Y41018515D01*
X9089609Y41231602D01*
X9270818Y41412811D01*
X9483905Y41555191D01*
X9720672Y41653263D01*
X9720673Y41653263D01*
X9720675Y41653264D01*
X9972021Y41703260D01*
X10228299Y41703260D01*
X10479645Y41653264D01*
X10479645Y41653264D01*
G37*
G36*
X6279645Y41653264D02*
X6279647Y41653263D01*
X6279648Y41653263D01*
X6516415Y41555191D01*
X6729502Y41412811D01*
X6910711Y41231602D01*
X7053091Y41018515D01*
X7151164Y40781745D01*
X7201160Y40530399D01*
X7201160Y40274121D01*
X7151164Y40022775D01*
X7053091Y39786005D01*
X6910711Y39572918D01*
X6729502Y39391709D01*
X6729499Y39391707D01*
X6516415Y39249329D01*
X6279648Y39151257D01*
X6279647Y39151257D01*
X6279645Y39151256D01*
X6028299Y39101260D01*
X5772021Y39101260D01*
X5520675Y39151256D01*
X5520673Y39151257D01*
X5520672Y39151257D01*
X5283905Y39249329D01*
X5070821Y39391707D01*
X5070818Y39391709D01*
X4889609Y39572918D01*
X4747229Y39786005D01*
X4649156Y40022775D01*
X4599160Y40274121D01*
X4599160Y40530399D01*
X4649156Y40781745D01*
X4747229Y41018515D01*
X4889609Y41231602D01*
X5070818Y41412811D01*
X5283905Y41555191D01*
X5520672Y41653263D01*
X5520673Y41653263D01*
X5520675Y41653264D01*
X5772021Y41703260D01*
X6028299Y41703260D01*
X6279645Y41653264D01*
X6279645Y41653264D01*
G37*
G36*
X10479645Y45853264D02*
X10479647Y45853263D01*
X10479648Y45853263D01*
X10716415Y45755191D01*
X10929502Y45612811D01*
X11110711Y45431602D01*
X11253091Y45218515D01*
X11351164Y44981745D01*
X11401160Y44730399D01*
X11401160Y44474121D01*
X11351164Y44222775D01*
X11253091Y43986005D01*
X11110711Y43772918D01*
X10929502Y43591709D01*
X10929499Y43591707D01*
X10716415Y43449329D01*
X10479648Y43351257D01*
X10479647Y43351257D01*
X10479645Y43351256D01*
X10228299Y43301260D01*
X9972021Y43301260D01*
X9720675Y43351256D01*
X9720673Y43351257D01*
X9720672Y43351257D01*
X9483905Y43449329D01*
X9270821Y43591707D01*
X9270818Y43591709D01*
X9089609Y43772918D01*
X8947229Y43986005D01*
X8849156Y44222775D01*
X8799160Y44474121D01*
X8799160Y44730399D01*
X8849156Y44981745D01*
X8947229Y45218515D01*
X9089609Y45431602D01*
X9270818Y45612811D01*
X9483905Y45755191D01*
X9720672Y45853263D01*
X9720673Y45853263D01*
X9720675Y45853264D01*
X9972021Y45903260D01*
X10228299Y45903260D01*
X10479645Y45853264D01*
X10479645Y45853264D01*
G37*
G36*
X6279645Y45853264D02*
X6279647Y45853263D01*
X6279648Y45853263D01*
X6516415Y45755191D01*
X6729502Y45612811D01*
X6910711Y45431602D01*
X7053091Y45218515D01*
X7151164Y44981745D01*
X7201160Y44730399D01*
X7201160Y44474121D01*
X7151164Y44222775D01*
X7053091Y43986005D01*
X6910711Y43772918D01*
X6729502Y43591709D01*
X6729499Y43591707D01*
X6516415Y43449329D01*
X6279648Y43351257D01*
X6279647Y43351257D01*
X6279645Y43351256D01*
X6028299Y43301260D01*
X5772021Y43301260D01*
X5520675Y43351256D01*
X5520673Y43351257D01*
X5520672Y43351257D01*
X5283905Y43449329D01*
X5070821Y43591707D01*
X5070818Y43591709D01*
X4889609Y43772918D01*
X4747229Y43986005D01*
X4649156Y44222775D01*
X4599160Y44474121D01*
X4599160Y44730399D01*
X4649156Y44981745D01*
X4747229Y45218515D01*
X4889609Y45431602D01*
X5070818Y45612811D01*
X5283905Y45755191D01*
X5520672Y45853263D01*
X5520673Y45853263D01*
X5520675Y45853264D01*
X5772021Y45903260D01*
X6028299Y45903260D01*
X6279645Y45853264D01*
X6279645Y45853264D01*
G37*
G36*
X26279645Y45853264D02*
X26279647Y45853263D01*
X26279648Y45853263D01*
X26516415Y45755191D01*
X26729502Y45612811D01*
X26910711Y45431602D01*
X27053091Y45218515D01*
X27151164Y44981745D01*
X27201160Y44730399D01*
X27201160Y44474121D01*
X27151164Y44222775D01*
X27053091Y43986005D01*
X26910711Y43772918D01*
X26729502Y43591709D01*
X26729499Y43591707D01*
X26516415Y43449329D01*
X26279648Y43351257D01*
X26279647Y43351257D01*
X26279645Y43351256D01*
X26028299Y43301260D01*
X25772021Y43301260D01*
X25520675Y43351256D01*
X25520673Y43351257D01*
X25520672Y43351257D01*
X25283905Y43449329D01*
X25070821Y43591707D01*
X25070818Y43591709D01*
X24889609Y43772918D01*
X24747229Y43986005D01*
X24649156Y44222775D01*
X24599160Y44474121D01*
X24599160Y44730399D01*
X24649156Y44981745D01*
X24747229Y45218515D01*
X24889609Y45431602D01*
X25070818Y45612811D01*
X25283905Y45755191D01*
X25520672Y45853263D01*
X25520673Y45853263D01*
X25520675Y45853264D01*
X25772021Y45903260D01*
X26028299Y45903260D01*
X26279645Y45853264D01*
X26279645Y45853264D01*
G37*
G36*
X30479645Y45853264D02*
X30479647Y45853263D01*
X30479648Y45853263D01*
X30716415Y45755191D01*
X30929502Y45612811D01*
X31110711Y45431602D01*
X31253091Y45218515D01*
X31351164Y44981745D01*
X31401160Y44730399D01*
X31401160Y44474121D01*
X31351164Y44222775D01*
X31253091Y43986005D01*
X31110711Y43772918D01*
X30929502Y43591709D01*
X30929499Y43591707D01*
X30716415Y43449329D01*
X30479648Y43351257D01*
X30479647Y43351257D01*
X30479645Y43351256D01*
X30228299Y43301260D01*
X29972021Y43301260D01*
X29720675Y43351256D01*
X29720673Y43351257D01*
X29720672Y43351257D01*
X29483905Y43449329D01*
X29270821Y43591707D01*
X29270818Y43591709D01*
X29089609Y43772918D01*
X28947229Y43986005D01*
X28849156Y44222775D01*
X28799160Y44474121D01*
X28799160Y44730399D01*
X28849156Y44981745D01*
X28947229Y45218515D01*
X29089609Y45431602D01*
X29270818Y45612811D01*
X29483905Y45755191D01*
X29720672Y45853263D01*
X29720673Y45853263D01*
X29720675Y45853264D01*
X29972021Y45903260D01*
X30228299Y45903260D01*
X30479645Y45853264D01*
X30479645Y45853264D01*
G37*
G36*
X6279645Y50053264D02*
X6279647Y50053263D01*
X6279648Y50053263D01*
X6516415Y49955191D01*
X6729502Y49812811D01*
X6910711Y49631602D01*
X7053091Y49418515D01*
X7151164Y49181745D01*
X7201160Y48930399D01*
X7201160Y48674121D01*
X7151164Y48422775D01*
X7053091Y48186005D01*
X6910711Y47972918D01*
X6729502Y47791709D01*
X6729499Y47791707D01*
X6516415Y47649329D01*
X6279648Y47551257D01*
X6279647Y47551257D01*
X6279645Y47551256D01*
X6028299Y47501260D01*
X5772021Y47501260D01*
X5520675Y47551256D01*
X5520673Y47551257D01*
X5520672Y47551257D01*
X5283905Y47649329D01*
X5070821Y47791707D01*
X5070818Y47791709D01*
X4889609Y47972918D01*
X4747229Y48186005D01*
X4649156Y48422775D01*
X4599160Y48674121D01*
X4599160Y48930399D01*
X4649156Y49181745D01*
X4747229Y49418515D01*
X4889609Y49631602D01*
X5070818Y49812811D01*
X5283905Y49955191D01*
X5520672Y50053263D01*
X5520673Y50053263D01*
X5520675Y50053264D01*
X5772021Y50103260D01*
X6028299Y50103260D01*
X6279645Y50053264D01*
X6279645Y50053264D01*
G37*
G36*
X10479645Y50053264D02*
X10479647Y50053263D01*
X10479648Y50053263D01*
X10716415Y49955191D01*
X10929502Y49812811D01*
X11110711Y49631602D01*
X11253091Y49418515D01*
X11351164Y49181745D01*
X11401160Y48930399D01*
X11401160Y48674121D01*
X11351164Y48422775D01*
X11253091Y48186005D01*
X11110711Y47972918D01*
X10929502Y47791709D01*
X10929499Y47791707D01*
X10716415Y47649329D01*
X10479648Y47551257D01*
X10479647Y47551257D01*
X10479645Y47551256D01*
X10228299Y47501260D01*
X9972021Y47501260D01*
X9720675Y47551256D01*
X9720673Y47551257D01*
X9720672Y47551257D01*
X9483905Y47649329D01*
X9270821Y47791707D01*
X9270818Y47791709D01*
X9089609Y47972918D01*
X8947229Y48186005D01*
X8849156Y48422775D01*
X8799160Y48674121D01*
X8799160Y48930399D01*
X8849156Y49181745D01*
X8947229Y49418515D01*
X9089609Y49631602D01*
X9270818Y49812811D01*
X9483905Y49955191D01*
X9720672Y50053263D01*
X9720673Y50053263D01*
X9720675Y50053264D01*
X9972021Y50103260D01*
X10228299Y50103260D01*
X10479645Y50053264D01*
X10479645Y50053264D01*
G37*
G36*
X26279645Y50053264D02*
X26279647Y50053263D01*
X26279648Y50053263D01*
X26516415Y49955191D01*
X26729502Y49812811D01*
X26910711Y49631602D01*
X27053091Y49418515D01*
X27151164Y49181745D01*
X27201160Y48930399D01*
X27201160Y48674121D01*
X27151164Y48422775D01*
X27053091Y48186005D01*
X26910711Y47972918D01*
X26729502Y47791709D01*
X26729499Y47791707D01*
X26516415Y47649329D01*
X26279648Y47551257D01*
X26279647Y47551257D01*
X26279645Y47551256D01*
X26028299Y47501260D01*
X25772021Y47501260D01*
X25520675Y47551256D01*
X25520673Y47551257D01*
X25520672Y47551257D01*
X25283905Y47649329D01*
X25070821Y47791707D01*
X25070818Y47791709D01*
X24889609Y47972918D01*
X24747229Y48186005D01*
X24649156Y48422775D01*
X24599160Y48674121D01*
X24599160Y48930399D01*
X24649156Y49181745D01*
X24747229Y49418515D01*
X24889609Y49631602D01*
X25070818Y49812811D01*
X25283905Y49955191D01*
X25520672Y50053263D01*
X25520673Y50053263D01*
X25520675Y50053264D01*
X25772021Y50103260D01*
X26028299Y50103260D01*
X26279645Y50053264D01*
X26279645Y50053264D01*
G37*
G36*
X30479645Y50053264D02*
X30479647Y50053263D01*
X30479648Y50053263D01*
X30716415Y49955191D01*
X30929502Y49812811D01*
X31110711Y49631602D01*
X31253091Y49418515D01*
X31351164Y49181745D01*
X31401160Y48930399D01*
X31401160Y48674121D01*
X31351164Y48422775D01*
X31253091Y48186005D01*
X31110711Y47972918D01*
X30929502Y47791709D01*
X30929499Y47791707D01*
X30716415Y47649329D01*
X30479648Y47551257D01*
X30479647Y47551257D01*
X30479645Y47551256D01*
X30228299Y47501260D01*
X29972021Y47501260D01*
X29720675Y47551256D01*
X29720673Y47551257D01*
X29720672Y47551257D01*
X29483905Y47649329D01*
X29270821Y47791707D01*
X29270818Y47791709D01*
X29089609Y47972918D01*
X28947229Y48186005D01*
X28849156Y48422775D01*
X28799160Y48674121D01*
X28799160Y48930399D01*
X28849156Y49181745D01*
X28947229Y49418515D01*
X29089609Y49631602D01*
X29270818Y49812811D01*
X29483905Y49955191D01*
X29720672Y50053263D01*
X29720673Y50053263D01*
X29720675Y50053264D01*
X29972021Y50103260D01*
X30228299Y50103260D01*
X30479645Y50053264D01*
X30479645Y50053264D01*
G37*
G36*
X6498412Y55474442D02*
X6498414Y55474441D01*
X6498415Y55474441D01*
X6871673Y55319833D01*
X7203065Y55098403D01*
X7207599Y55095374D01*
X7493274Y54809699D01*
X7493276Y54809696D01*
X7717733Y54473773D01*
X7848852Y54157222D01*
X7872342Y54100512D01*
X7921834Y53851698D01*
X7951160Y53704266D01*
X7951160Y53300254D01*
X7872341Y52904005D01*
X7717733Y52530747D01*
X7666091Y52453460D01*
X7493274Y52194821D01*
X7207599Y51909146D01*
X7207596Y51909144D01*
X6871673Y51684687D01*
X6498415Y51530079D01*
X6498414Y51530079D01*
X6498412Y51530078D01*
X6102167Y51451260D01*
X5698153Y51451260D01*
X5301908Y51530078D01*
X5301906Y51530079D01*
X5301905Y51530079D01*
X4928647Y51684687D01*
X4592724Y51909144D01*
X4592721Y51909146D01*
X4307046Y52194821D01*
X4134229Y52453460D01*
X4082587Y52530747D01*
X3927979Y52904005D01*
X3849160Y53300254D01*
X3849160Y53704266D01*
X3878486Y53851698D01*
X3927978Y54100512D01*
X3951468Y54157222D01*
X4082587Y54473773D01*
X4307044Y54809696D01*
X4307046Y54809699D01*
X4592721Y55095374D01*
X4597255Y55098403D01*
X4928647Y55319833D01*
X5301905Y55474441D01*
X5301906Y55474441D01*
X5301908Y55474442D01*
X5698153Y55553260D01*
X6102167Y55553260D01*
X6498412Y55474442D01*
X6498412Y55474442D01*
G37*
G36*
X30698412Y55474442D02*
X30698414Y55474441D01*
X30698415Y55474441D01*
X31071673Y55319833D01*
X31403065Y55098403D01*
X31407599Y55095374D01*
X31693274Y54809699D01*
X31693276Y54809696D01*
X31917733Y54473773D01*
X32048852Y54157222D01*
X32072342Y54100512D01*
X32121834Y53851698D01*
X32151160Y53704266D01*
X32151160Y53300254D01*
X32072341Y52904005D01*
X31917733Y52530747D01*
X31866091Y52453460D01*
X31693274Y52194821D01*
X31407599Y51909146D01*
X31407596Y51909144D01*
X31071673Y51684687D01*
X30698415Y51530079D01*
X30698414Y51530079D01*
X30698412Y51530078D01*
X30302167Y51451260D01*
X29898153Y51451260D01*
X29501908Y51530078D01*
X29501906Y51530079D01*
X29501905Y51530079D01*
X29128647Y51684687D01*
X28792724Y51909144D01*
X28792721Y51909146D01*
X28507046Y52194821D01*
X28334229Y52453460D01*
X28282587Y52530747D01*
X28127979Y52904005D01*
X28049160Y53300254D01*
X28049160Y53704266D01*
X28078486Y53851698D01*
X28127978Y54100512D01*
X28151468Y54157222D01*
X28282587Y54473773D01*
X28507044Y54809696D01*
X28507046Y54809699D01*
X28792721Y55095374D01*
X28797255Y55098403D01*
X29128647Y55319833D01*
X29501905Y55474441D01*
X29501906Y55474441D01*
X29501908Y55474442D01*
X29898153Y55553260D01*
X30302167Y55553260D01*
X30698412Y55474442D01*
X30698412Y55474442D01*
G37*
G36*
X39693467Y55515724D02*
X39793350Y55495856D01*
X40075614Y55378939D01*
X40329645Y55209201D01*
X40545681Y54993165D01*
X40715419Y54739134D01*
X40832336Y54456870D01*
X40891940Y54157220D01*
X40891940Y53851700D01*
X40832336Y53552050D01*
X40715419Y53269786D01*
X40545681Y53015755D01*
X40329645Y52799719D01*
X40075614Y52629981D01*
X39793350Y52513064D01*
X39693467Y52493196D01*
X39493702Y52453460D01*
X39188178Y52453460D01*
X38988413Y52493196D01*
X38888530Y52513064D01*
X38606266Y52629981D01*
X38352235Y52799719D01*
X38136199Y53015755D01*
X37966461Y53269786D01*
X37849544Y53552050D01*
X37789940Y53851700D01*
X37789940Y54157220D01*
X37849544Y54456870D01*
X37966461Y54739134D01*
X38136199Y54993165D01*
X38352235Y55209201D01*
X38606266Y55378939D01*
X38888530Y55495856D01*
X38988413Y55515724D01*
X39188178Y55555460D01*
X39493702Y55555460D01*
X39693467Y55515724D01*
X39693467Y55515724D01*
G37*
G36*
X37231940Y55468460D02*
X34589940Y55468460D01*
X34589940Y56840460D01*
X37231940Y56840460D01*
X37231940Y55468460D01*
X37231940Y55468460D01*
G37*
G36*
X37231940Y58468460D02*
X34589940Y58468460D01*
X34589940Y59840460D01*
X37231940Y59840460D01*
X37231940Y58468460D01*
X37231940Y58468460D01*
G37*
G36*
X30698412Y63674442D02*
X30698414Y63674441D01*
X30698415Y63674441D01*
X31071673Y63519833D01*
X31071674Y63519832D01*
X31407599Y63295374D01*
X31693274Y63009699D01*
X31693276Y63009696D01*
X31917733Y62673773D01*
X31985902Y62509198D01*
X32072342Y62300512D01*
X32151160Y61904267D01*
X32151160Y61500253D01*
X32081829Y61151700D01*
X32072341Y61104005D01*
X31917733Y60730747D01*
X31917732Y60730746D01*
X31693274Y60394821D01*
X31407599Y60109146D01*
X31407596Y60109144D01*
X31071673Y59884687D01*
X30698415Y59730079D01*
X30698414Y59730079D01*
X30698412Y59730078D01*
X30302167Y59651260D01*
X29898153Y59651260D01*
X29501908Y59730078D01*
X29501906Y59730079D01*
X29501905Y59730079D01*
X29128647Y59884687D01*
X28792724Y60109144D01*
X28792721Y60109146D01*
X28507046Y60394821D01*
X28282588Y60730746D01*
X28282587Y60730747D01*
X28127979Y61104005D01*
X28118492Y61151700D01*
X28049160Y61500253D01*
X28049160Y61904267D01*
X28127978Y62300512D01*
X28214418Y62509198D01*
X28282587Y62673773D01*
X28507044Y63009696D01*
X28507046Y63009699D01*
X28792721Y63295374D01*
X29128646Y63519832D01*
X29128647Y63519833D01*
X29501905Y63674441D01*
X29501906Y63674441D01*
X29501908Y63674442D01*
X29898153Y63753260D01*
X30302167Y63753260D01*
X30698412Y63674442D01*
X30698412Y63674442D01*
G37*
G36*
X6498412Y63674442D02*
X6498414Y63674441D01*
X6498415Y63674441D01*
X6871673Y63519833D01*
X6871674Y63519832D01*
X7207599Y63295374D01*
X7493274Y63009699D01*
X7493276Y63009696D01*
X7717733Y62673773D01*
X7785902Y62509198D01*
X7872342Y62300512D01*
X7951160Y61904267D01*
X7951160Y61500253D01*
X7881829Y61151700D01*
X7872341Y61104005D01*
X7717733Y60730747D01*
X7717732Y60730746D01*
X7493274Y60394821D01*
X7207599Y60109146D01*
X7207596Y60109144D01*
X6871673Y59884687D01*
X6498415Y59730079D01*
X6498414Y59730079D01*
X6498412Y59730078D01*
X6102167Y59651260D01*
X5698153Y59651260D01*
X5301908Y59730078D01*
X5301906Y59730079D01*
X5301905Y59730079D01*
X4928647Y59884687D01*
X4592724Y60109144D01*
X4592721Y60109146D01*
X4307046Y60394821D01*
X4082588Y60730746D01*
X4082587Y60730747D01*
X3927979Y61104005D01*
X3918492Y61151700D01*
X3849160Y61500253D01*
X3849160Y61904267D01*
X3927978Y62300512D01*
X4014418Y62509198D01*
X4082587Y62673773D01*
X4307044Y63009696D01*
X4307046Y63009699D01*
X4592721Y63295374D01*
X4928646Y63519832D01*
X4928647Y63519833D01*
X5301905Y63674441D01*
X5301906Y63674441D01*
X5301908Y63674442D01*
X5698153Y63753260D01*
X6102167Y63753260D01*
X6498412Y63674442D01*
X6498412Y63674442D01*
G37*
G36*
X39693467Y62815724D02*
X39793350Y62795856D01*
X40075614Y62678939D01*
X40329645Y62509201D01*
X40545681Y62293165D01*
X40715419Y62039134D01*
X40832336Y61756870D01*
X40832336Y61756869D01*
X40891940Y61457222D01*
X40891940Y61151698D01*
X40882453Y61104005D01*
X40832336Y60852050D01*
X40715419Y60569786D01*
X40545681Y60315755D01*
X40329645Y60099719D01*
X40075614Y59929981D01*
X39793350Y59813064D01*
X39693467Y59793196D01*
X39493702Y59753460D01*
X39188178Y59753460D01*
X38988413Y59793196D01*
X38888530Y59813064D01*
X38606266Y59929981D01*
X38352235Y60099719D01*
X38136199Y60315755D01*
X37966461Y60569786D01*
X37849544Y60852050D01*
X37799427Y61104005D01*
X37789940Y61151698D01*
X37789940Y61457222D01*
X37849544Y61756869D01*
X37849544Y61756870D01*
X37966461Y62039134D01*
X38136199Y62293165D01*
X38352235Y62509201D01*
X38606266Y62678939D01*
X38888530Y62795856D01*
X38988413Y62815724D01*
X39188178Y62855460D01*
X39493702Y62855460D01*
X39693467Y62815724D01*
X39693467Y62815724D01*
G37*
G36*
X74702705Y76093080D02*
X75816817Y75631599D01*
X76076900Y75523869D01*
X76588925Y75181745D01*
X77313645Y74697503D01*
X78365403Y73645745D01*
X79191770Y72408998D01*
X79760980Y71034805D01*
X80051160Y69575970D01*
X80051160Y68088550D01*
X79760980Y66629715D01*
X79191770Y65255522D01*
X79191769Y65255520D01*
X79122102Y65151256D01*
X78365403Y64018775D01*
X77313645Y62967017D01*
X77313642Y62967015D01*
X76076900Y62140651D01*
X76076899Y62140650D01*
X76076898Y62140650D01*
X74702705Y61571440D01*
X73243870Y61281260D01*
X71756450Y61281260D01*
X70297615Y61571440D01*
X68923422Y62140650D01*
X68923421Y62140650D01*
X68923420Y62140651D01*
X67686678Y62967015D01*
X67686675Y62967017D01*
X66634917Y64018775D01*
X65878218Y65151256D01*
X65808551Y65255520D01*
X65808550Y65255522D01*
X65239340Y66629715D01*
X64949160Y68088550D01*
X64949160Y69575970D01*
X65239340Y71034805D01*
X65808550Y72408998D01*
X66634917Y73645745D01*
X67686675Y74697503D01*
X68411395Y75181745D01*
X68923420Y75523869D01*
X69183503Y75631599D01*
X70297615Y76093080D01*
X71756450Y76383260D01*
X73243870Y76383260D01*
X74702705Y76093080D01*
X74702705Y76093080D01*
G37*
G36*
X114702705Y76093080D02*
X115816817Y75631599D01*
X116076900Y75523869D01*
X116588925Y75181745D01*
X117313645Y74697503D01*
X118365403Y73645745D01*
X119191770Y72408998D01*
X119760980Y71034805D01*
X120051160Y69575970D01*
X120051160Y68088550D01*
X119760980Y66629715D01*
X119191770Y65255522D01*
X119191769Y65255520D01*
X119122102Y65151256D01*
X118365403Y64018775D01*
X117313645Y62967017D01*
X117313642Y62967015D01*
X116076900Y62140651D01*
X116076899Y62140650D01*
X116076898Y62140650D01*
X114702705Y61571440D01*
X113243870Y61281260D01*
X111756450Y61281260D01*
X110297615Y61571440D01*
X108923422Y62140650D01*
X108923421Y62140650D01*
X108923420Y62140651D01*
X107686678Y62967015D01*
X107686675Y62967017D01*
X106634917Y64018775D01*
X105878218Y65151256D01*
X105808551Y65255520D01*
X105808550Y65255522D01*
X105239340Y66629715D01*
X104949160Y68088550D01*
X104949160Y69575970D01*
X105239340Y71034805D01*
X105808550Y72408998D01*
X106634917Y73645745D01*
X107686675Y74697503D01*
X108411395Y75181745D01*
X108923420Y75523869D01*
X109183503Y75631599D01*
X110297615Y76093080D01*
X111756450Y76383260D01*
X113243870Y76383260D01*
X114702705Y76093080D01*
X114702705Y76093080D01*
G37*
G36*
X10679645Y67653264D02*
X10679647Y67653263D01*
X10679648Y67653263D01*
X10916415Y67555191D01*
X11129502Y67412811D01*
X11310711Y67231602D01*
X11453091Y67018515D01*
X11551164Y66781745D01*
X11601160Y66530399D01*
X11601160Y66274121D01*
X11551164Y66022775D01*
X11453091Y65786005D01*
X11310711Y65572918D01*
X11129502Y65391709D01*
X11129499Y65391707D01*
X10916415Y65249329D01*
X10679648Y65151257D01*
X10679647Y65151257D01*
X10679645Y65151256D01*
X10428299Y65101260D01*
X10172021Y65101260D01*
X9920675Y65151256D01*
X9920673Y65151257D01*
X9920672Y65151257D01*
X9683905Y65249329D01*
X9470821Y65391707D01*
X9470818Y65391709D01*
X9289609Y65572918D01*
X9147229Y65786005D01*
X9049156Y66022775D01*
X8999160Y66274121D01*
X8999160Y66530399D01*
X9049156Y66781745D01*
X9147229Y67018515D01*
X9289609Y67231602D01*
X9470818Y67412811D01*
X9683905Y67555191D01*
X9920672Y67653263D01*
X9920673Y67653263D01*
X9920675Y67653264D01*
X10172021Y67703260D01*
X10428299Y67703260D01*
X10679645Y67653264D01*
X10679645Y67653264D01*
G37*
G36*
X26079645Y67653264D02*
X26079647Y67653263D01*
X26079648Y67653263D01*
X26316415Y67555191D01*
X26529502Y67412811D01*
X26710711Y67231602D01*
X26853091Y67018515D01*
X26951164Y66781745D01*
X27001160Y66530399D01*
X27001160Y66274121D01*
X26951164Y66022775D01*
X26853091Y65786005D01*
X26710711Y65572918D01*
X26529502Y65391709D01*
X26529499Y65391707D01*
X26316415Y65249329D01*
X26079648Y65151257D01*
X26079647Y65151257D01*
X26079645Y65151256D01*
X25828299Y65101260D01*
X25572021Y65101260D01*
X25320675Y65151256D01*
X25320673Y65151257D01*
X25320672Y65151257D01*
X25083905Y65249329D01*
X24870821Y65391707D01*
X24870818Y65391709D01*
X24689609Y65572918D01*
X24547229Y65786005D01*
X24449156Y66022775D01*
X24399160Y66274121D01*
X24399160Y66530399D01*
X24449156Y66781745D01*
X24547229Y67018515D01*
X24689609Y67231602D01*
X24870818Y67412811D01*
X25083905Y67555191D01*
X25320672Y67653263D01*
X25320673Y67653263D01*
X25320675Y67653264D01*
X25572021Y67703260D01*
X25828299Y67703260D01*
X26079645Y67653264D01*
X26079645Y67653264D01*
G37*
G36*
X6479645Y67653264D02*
X6479647Y67653263D01*
X6479648Y67653263D01*
X6716415Y67555191D01*
X6929502Y67412811D01*
X7110711Y67231602D01*
X7253091Y67018515D01*
X7351164Y66781745D01*
X7401160Y66530399D01*
X7401160Y66274121D01*
X7351164Y66022775D01*
X7253091Y65786005D01*
X7110711Y65572918D01*
X6929502Y65391709D01*
X6929499Y65391707D01*
X6716415Y65249329D01*
X6479648Y65151257D01*
X6479647Y65151257D01*
X6479645Y65151256D01*
X6228299Y65101260D01*
X5972021Y65101260D01*
X5720675Y65151256D01*
X5720673Y65151257D01*
X5720672Y65151257D01*
X5483905Y65249329D01*
X5270821Y65391707D01*
X5270818Y65391709D01*
X5089609Y65572918D01*
X4947229Y65786005D01*
X4849156Y66022775D01*
X4799160Y66274121D01*
X4799160Y66530399D01*
X4849156Y66781745D01*
X4947229Y67018515D01*
X5089609Y67231602D01*
X5270818Y67412811D01*
X5483905Y67555191D01*
X5720672Y67653263D01*
X5720673Y67653263D01*
X5720675Y67653264D01*
X5972021Y67703260D01*
X6228299Y67703260D01*
X6479645Y67653264D01*
X6479645Y67653264D01*
G37*
G36*
X30279645Y67653264D02*
X30279647Y67653263D01*
X30279648Y67653263D01*
X30516415Y67555191D01*
X30729502Y67412811D01*
X30910711Y67231602D01*
X31053091Y67018515D01*
X31151164Y66781745D01*
X31201160Y66530399D01*
X31201160Y66274121D01*
X31151164Y66022775D01*
X31053091Y65786005D01*
X30910711Y65572918D01*
X30729502Y65391709D01*
X30729499Y65391707D01*
X30516415Y65249329D01*
X30279648Y65151257D01*
X30279647Y65151257D01*
X30279645Y65151256D01*
X30028299Y65101260D01*
X29772021Y65101260D01*
X29520675Y65151256D01*
X29520673Y65151257D01*
X29520672Y65151257D01*
X29283905Y65249329D01*
X29070821Y65391707D01*
X29070818Y65391709D01*
X28889609Y65572918D01*
X28747229Y65786005D01*
X28649156Y66022775D01*
X28599160Y66274121D01*
X28599160Y66530399D01*
X28649156Y66781745D01*
X28747229Y67018515D01*
X28889609Y67231602D01*
X29070818Y67412811D01*
X29283905Y67555191D01*
X29520672Y67653263D01*
X29520673Y67653263D01*
X29520675Y67653264D01*
X29772021Y67703260D01*
X30028299Y67703260D01*
X30279645Y67653264D01*
X30279645Y67653264D01*
G37*
G36*
X6479645Y71853264D02*
X6479647Y71853263D01*
X6479648Y71853263D01*
X6716415Y71755191D01*
X6929502Y71612811D01*
X7110711Y71431602D01*
X7253091Y71218515D01*
X7351164Y70981745D01*
X7401160Y70730399D01*
X7401160Y70474121D01*
X7351164Y70222775D01*
X7253091Y69986005D01*
X7110711Y69772918D01*
X6929502Y69591709D01*
X6929499Y69591707D01*
X6716415Y69449329D01*
X6479648Y69351257D01*
X6479647Y69351257D01*
X6479645Y69351256D01*
X6228299Y69301260D01*
X5972021Y69301260D01*
X5720675Y69351256D01*
X5720673Y69351257D01*
X5720672Y69351257D01*
X5483905Y69449329D01*
X5270821Y69591707D01*
X5270818Y69591709D01*
X5089609Y69772918D01*
X4947229Y69986005D01*
X4849156Y70222775D01*
X4799160Y70474121D01*
X4799160Y70730399D01*
X4849156Y70981745D01*
X4947229Y71218515D01*
X5089609Y71431602D01*
X5270818Y71612811D01*
X5483905Y71755191D01*
X5720672Y71853263D01*
X5720673Y71853263D01*
X5720675Y71853264D01*
X5972021Y71903260D01*
X6228299Y71903260D01*
X6479645Y71853264D01*
X6479645Y71853264D01*
G37*
G36*
X10679645Y71853264D02*
X10679647Y71853263D01*
X10679648Y71853263D01*
X10916415Y71755191D01*
X11129502Y71612811D01*
X11310711Y71431602D01*
X11453091Y71218515D01*
X11551164Y70981745D01*
X11601160Y70730399D01*
X11601160Y70474121D01*
X11551164Y70222775D01*
X11453091Y69986005D01*
X11310711Y69772918D01*
X11129502Y69591709D01*
X11129499Y69591707D01*
X10916415Y69449329D01*
X10679648Y69351257D01*
X10679647Y69351257D01*
X10679645Y69351256D01*
X10428299Y69301260D01*
X10172021Y69301260D01*
X9920675Y69351256D01*
X9920673Y69351257D01*
X9920672Y69351257D01*
X9683905Y69449329D01*
X9470821Y69591707D01*
X9470818Y69591709D01*
X9289609Y69772918D01*
X9147229Y69986005D01*
X9049156Y70222775D01*
X8999160Y70474121D01*
X8999160Y70730399D01*
X9049156Y70981745D01*
X9147229Y71218515D01*
X9289609Y71431602D01*
X9470818Y71612811D01*
X9683905Y71755191D01*
X9920672Y71853263D01*
X9920673Y71853263D01*
X9920675Y71853264D01*
X10172021Y71903260D01*
X10428299Y71903260D01*
X10679645Y71853264D01*
X10679645Y71853264D01*
G37*
G36*
X26079645Y71853264D02*
X26079647Y71853263D01*
X26079648Y71853263D01*
X26316415Y71755191D01*
X26529502Y71612811D01*
X26710711Y71431602D01*
X26853091Y71218515D01*
X26951164Y70981745D01*
X27001160Y70730399D01*
X27001160Y70474121D01*
X26951164Y70222775D01*
X26853091Y69986005D01*
X26710711Y69772918D01*
X26529502Y69591709D01*
X26529499Y69591707D01*
X26316415Y69449329D01*
X26079648Y69351257D01*
X26079647Y69351257D01*
X26079645Y69351256D01*
X25828299Y69301260D01*
X25572021Y69301260D01*
X25320675Y69351256D01*
X25320673Y69351257D01*
X25320672Y69351257D01*
X25083905Y69449329D01*
X24870821Y69591707D01*
X24870818Y69591709D01*
X24689609Y69772918D01*
X24547229Y69986005D01*
X24449156Y70222775D01*
X24399160Y70474121D01*
X24399160Y70730399D01*
X24449156Y70981745D01*
X24547229Y71218515D01*
X24689609Y71431602D01*
X24870818Y71612811D01*
X25083905Y71755191D01*
X25320672Y71853263D01*
X25320673Y71853263D01*
X25320675Y71853264D01*
X25572021Y71903260D01*
X25828299Y71903260D01*
X26079645Y71853264D01*
X26079645Y71853264D01*
G37*
G36*
X30279645Y71853264D02*
X30279647Y71853263D01*
X30279648Y71853263D01*
X30516415Y71755191D01*
X30729502Y71612811D01*
X30910711Y71431602D01*
X31053091Y71218515D01*
X31151164Y70981745D01*
X31201160Y70730399D01*
X31201160Y70474121D01*
X31151164Y70222775D01*
X31053091Y69986005D01*
X30910711Y69772918D01*
X30729502Y69591709D01*
X30729499Y69591707D01*
X30516415Y69449329D01*
X30279648Y69351257D01*
X30279647Y69351257D01*
X30279645Y69351256D01*
X30028299Y69301260D01*
X29772021Y69301260D01*
X29520675Y69351256D01*
X29520673Y69351257D01*
X29520672Y69351257D01*
X29283905Y69449329D01*
X29070821Y69591707D01*
X29070818Y69591709D01*
X28889609Y69772918D01*
X28747229Y69986005D01*
X28649156Y70222775D01*
X28599160Y70474121D01*
X28599160Y70730399D01*
X28649156Y70981745D01*
X28747229Y71218515D01*
X28889609Y71431602D01*
X29070818Y71612811D01*
X29283905Y71755191D01*
X29520672Y71853263D01*
X29520673Y71853263D01*
X29520675Y71853264D01*
X29772021Y71903260D01*
X30028299Y71903260D01*
X30279645Y71853264D01*
X30279645Y71853264D01*
G37*
G36*
X6479645Y76053264D02*
X6479647Y76053263D01*
X6479648Y76053263D01*
X6716415Y75955191D01*
X6929502Y75812811D01*
X7110711Y75631602D01*
X7253091Y75418515D01*
X7351164Y75181745D01*
X7401160Y74930399D01*
X7401160Y74674121D01*
X7351164Y74422775D01*
X7253091Y74186005D01*
X7110711Y73972918D01*
X6929502Y73791709D01*
X6929499Y73791707D01*
X6716415Y73649329D01*
X6479648Y73551257D01*
X6479647Y73551257D01*
X6479645Y73551256D01*
X6228299Y73501260D01*
X5972021Y73501260D01*
X5720675Y73551256D01*
X5720673Y73551257D01*
X5720672Y73551257D01*
X5483905Y73649329D01*
X5270821Y73791707D01*
X5270818Y73791709D01*
X5089609Y73972918D01*
X4947229Y74186005D01*
X4849156Y74422775D01*
X4799160Y74674121D01*
X4799160Y74930399D01*
X4849156Y75181745D01*
X4947229Y75418515D01*
X5089609Y75631602D01*
X5270818Y75812811D01*
X5483905Y75955191D01*
X5720672Y76053263D01*
X5720673Y76053263D01*
X5720675Y76053264D01*
X5972021Y76103260D01*
X6228299Y76103260D01*
X6479645Y76053264D01*
X6479645Y76053264D01*
G37*
G36*
X10679645Y76053264D02*
X10679647Y76053263D01*
X10679648Y76053263D01*
X10916415Y75955191D01*
X11129502Y75812811D01*
X11310711Y75631602D01*
X11453091Y75418515D01*
X11551164Y75181745D01*
X11601160Y74930399D01*
X11601160Y74674121D01*
X11551164Y74422775D01*
X11453091Y74186005D01*
X11310711Y73972918D01*
X11129502Y73791709D01*
X11129499Y73791707D01*
X10916415Y73649329D01*
X10679648Y73551257D01*
X10679647Y73551257D01*
X10679645Y73551256D01*
X10428299Y73501260D01*
X10172021Y73501260D01*
X9920675Y73551256D01*
X9920673Y73551257D01*
X9920672Y73551257D01*
X9683905Y73649329D01*
X9470821Y73791707D01*
X9470818Y73791709D01*
X9289609Y73972918D01*
X9147229Y74186005D01*
X9049156Y74422775D01*
X8999160Y74674121D01*
X8999160Y74930399D01*
X9049156Y75181745D01*
X9147229Y75418515D01*
X9289609Y75631602D01*
X9470818Y75812811D01*
X9683905Y75955191D01*
X9920672Y76053263D01*
X9920673Y76053263D01*
X9920675Y76053264D01*
X10172021Y76103260D01*
X10428299Y76103260D01*
X10679645Y76053264D01*
X10679645Y76053264D01*
G37*
G36*
X26079645Y76053264D02*
X26079647Y76053263D01*
X26079648Y76053263D01*
X26316415Y75955191D01*
X26529502Y75812811D01*
X26710711Y75631602D01*
X26853091Y75418515D01*
X26951164Y75181745D01*
X27001160Y74930399D01*
X27001160Y74674121D01*
X26951164Y74422775D01*
X26853091Y74186005D01*
X26710711Y73972918D01*
X26529502Y73791709D01*
X26529499Y73791707D01*
X26316415Y73649329D01*
X26079648Y73551257D01*
X26079647Y73551257D01*
X26079645Y73551256D01*
X25828299Y73501260D01*
X25572021Y73501260D01*
X25320675Y73551256D01*
X25320673Y73551257D01*
X25320672Y73551257D01*
X25083905Y73649329D01*
X24870821Y73791707D01*
X24870818Y73791709D01*
X24689609Y73972918D01*
X24547229Y74186005D01*
X24449156Y74422775D01*
X24399160Y74674121D01*
X24399160Y74930399D01*
X24449156Y75181745D01*
X24547229Y75418515D01*
X24689609Y75631602D01*
X24870818Y75812811D01*
X25083905Y75955191D01*
X25320672Y76053263D01*
X25320673Y76053263D01*
X25320675Y76053264D01*
X25572021Y76103260D01*
X25828299Y76103260D01*
X26079645Y76053264D01*
X26079645Y76053264D01*
G37*
G36*
X30279645Y76053264D02*
X30279647Y76053263D01*
X30279648Y76053263D01*
X30516415Y75955191D01*
X30729502Y75812811D01*
X30910711Y75631602D01*
X31053091Y75418515D01*
X31151164Y75181745D01*
X31201160Y74930399D01*
X31201160Y74674121D01*
X31151164Y74422775D01*
X31053091Y74186005D01*
X30910711Y73972918D01*
X30729502Y73791709D01*
X30729499Y73791707D01*
X30516415Y73649329D01*
X30279648Y73551257D01*
X30279647Y73551257D01*
X30279645Y73551256D01*
X30028299Y73501260D01*
X29772021Y73501260D01*
X29520675Y73551256D01*
X29520673Y73551257D01*
X29520672Y73551257D01*
X29283905Y73649329D01*
X29070821Y73791707D01*
X29070818Y73791709D01*
X28889609Y73972918D01*
X28747229Y74186005D01*
X28649156Y74422775D01*
X28599160Y74674121D01*
X28599160Y74930399D01*
X28649156Y75181745D01*
X28747229Y75418515D01*
X28889609Y75631602D01*
X29070818Y75812811D01*
X29283905Y75955191D01*
X29520672Y76053263D01*
X29520673Y76053263D01*
X29520675Y76053264D01*
X29772021Y76103260D01*
X30028299Y76103260D01*
X30279645Y76053264D01*
X30279645Y76053264D01*
G37*
G36*
X10679645Y80253264D02*
X10679647Y80253263D01*
X10679648Y80253263D01*
X10916415Y80155191D01*
X11129502Y80012811D01*
X11310711Y79831602D01*
X11453091Y79618515D01*
X11551164Y79381745D01*
X11601160Y79130399D01*
X11601160Y78874121D01*
X11551164Y78622775D01*
X11453091Y78386005D01*
X11310711Y78172918D01*
X11129502Y77991709D01*
X11129499Y77991707D01*
X10916415Y77849329D01*
X10679648Y77751257D01*
X10679647Y77751257D01*
X10679645Y77751256D01*
X10428299Y77701260D01*
X10172021Y77701260D01*
X9920675Y77751256D01*
X9920673Y77751257D01*
X9920672Y77751257D01*
X9683905Y77849329D01*
X9470821Y77991707D01*
X9470818Y77991709D01*
X9289609Y78172918D01*
X9147229Y78386005D01*
X9049156Y78622775D01*
X8999160Y78874121D01*
X8999160Y79130399D01*
X9049156Y79381745D01*
X9147229Y79618515D01*
X9289609Y79831602D01*
X9470818Y80012811D01*
X9683905Y80155191D01*
X9920672Y80253263D01*
X9920673Y80253263D01*
X9920675Y80253264D01*
X10172021Y80303260D01*
X10428299Y80303260D01*
X10679645Y80253264D01*
X10679645Y80253264D01*
G37*
G36*
X6479645Y80253264D02*
X6479647Y80253263D01*
X6479648Y80253263D01*
X6716415Y80155191D01*
X6929502Y80012811D01*
X7110711Y79831602D01*
X7253091Y79618515D01*
X7351164Y79381745D01*
X7401160Y79130399D01*
X7401160Y78874121D01*
X7351164Y78622775D01*
X7253091Y78386005D01*
X7110711Y78172918D01*
X6929502Y77991709D01*
X6929499Y77991707D01*
X6716415Y77849329D01*
X6479648Y77751257D01*
X6479647Y77751257D01*
X6479645Y77751256D01*
X6228299Y77701260D01*
X5972021Y77701260D01*
X5720675Y77751256D01*
X5720673Y77751257D01*
X5720672Y77751257D01*
X5483905Y77849329D01*
X5270821Y77991707D01*
X5270818Y77991709D01*
X5089609Y78172918D01*
X4947229Y78386005D01*
X4849156Y78622775D01*
X4799160Y78874121D01*
X4799160Y79130399D01*
X4849156Y79381745D01*
X4947229Y79618515D01*
X5089609Y79831602D01*
X5270818Y80012811D01*
X5483905Y80155191D01*
X5720672Y80253263D01*
X5720673Y80253263D01*
X5720675Y80253264D01*
X5972021Y80303260D01*
X6228299Y80303260D01*
X6479645Y80253264D01*
X6479645Y80253264D01*
G37*
G36*
X30279645Y80253264D02*
X30279647Y80253263D01*
X30279648Y80253263D01*
X30516415Y80155191D01*
X30729502Y80012811D01*
X30910711Y79831602D01*
X31053091Y79618515D01*
X31151164Y79381745D01*
X31201160Y79130399D01*
X31201160Y78874121D01*
X31151164Y78622775D01*
X31053091Y78386005D01*
X30910711Y78172918D01*
X30729502Y77991709D01*
X30729499Y77991707D01*
X30516415Y77849329D01*
X30279648Y77751257D01*
X30279647Y77751257D01*
X30279645Y77751256D01*
X30028299Y77701260D01*
X29772021Y77701260D01*
X29520675Y77751256D01*
X29520673Y77751257D01*
X29520672Y77751257D01*
X29283905Y77849329D01*
X29070821Y77991707D01*
X29070818Y77991709D01*
X28889609Y78172918D01*
X28747229Y78386005D01*
X28649156Y78622775D01*
X28599160Y78874121D01*
X28599160Y79130399D01*
X28649156Y79381745D01*
X28747229Y79618515D01*
X28889609Y79831602D01*
X29070818Y80012811D01*
X29283905Y80155191D01*
X29520672Y80253263D01*
X29520673Y80253263D01*
X29520675Y80253264D01*
X29772021Y80303260D01*
X30028299Y80303260D01*
X30279645Y80253264D01*
X30279645Y80253264D01*
G37*
G36*
X26079645Y80253264D02*
X26079647Y80253263D01*
X26079648Y80253263D01*
X26316415Y80155191D01*
X26529502Y80012811D01*
X26710711Y79831602D01*
X26853091Y79618515D01*
X26951164Y79381745D01*
X27001160Y79130399D01*
X27001160Y78874121D01*
X26951164Y78622775D01*
X26853091Y78386005D01*
X26710711Y78172918D01*
X26529502Y77991709D01*
X26529499Y77991707D01*
X26316415Y77849329D01*
X26079648Y77751257D01*
X26079647Y77751257D01*
X26079645Y77751256D01*
X25828299Y77701260D01*
X25572021Y77701260D01*
X25320675Y77751256D01*
X25320673Y77751257D01*
X25320672Y77751257D01*
X25083905Y77849329D01*
X24870821Y77991707D01*
X24870818Y77991709D01*
X24689609Y78172918D01*
X24547229Y78386005D01*
X24449156Y78622775D01*
X24399160Y78874121D01*
X24399160Y79130399D01*
X24449156Y79381745D01*
X24547229Y79618515D01*
X24689609Y79831602D01*
X24870818Y80012811D01*
X25083905Y80155191D01*
X25320672Y80253263D01*
X25320673Y80253263D01*
X25320675Y80253264D01*
X25572021Y80303260D01*
X25828299Y80303260D01*
X26079645Y80253264D01*
X26079645Y80253264D01*
G37*
G36*
X30698412Y85674442D02*
X30698414Y85674441D01*
X30698415Y85674441D01*
X31071673Y85519833D01*
X31071674Y85519832D01*
X31407599Y85295374D01*
X31693274Y85009699D01*
X31693276Y85009696D01*
X31917733Y84673773D01*
X32072341Y84300515D01*
X32151160Y83904266D01*
X32151160Y83500254D01*
X32072341Y83104005D01*
X31917733Y82730747D01*
X31917732Y82730746D01*
X31693274Y82394821D01*
X31407599Y82109146D01*
X31407596Y82109144D01*
X31071673Y81884687D01*
X30698415Y81730079D01*
X30698414Y81730079D01*
X30698412Y81730078D01*
X30302167Y81651260D01*
X29898153Y81651260D01*
X29501908Y81730078D01*
X29501906Y81730079D01*
X29501905Y81730079D01*
X29128647Y81884687D01*
X28792724Y82109144D01*
X28792721Y82109146D01*
X28507046Y82394821D01*
X28282588Y82730746D01*
X28282587Y82730747D01*
X28127979Y83104005D01*
X28049160Y83500254D01*
X28049160Y83904266D01*
X28127979Y84300515D01*
X28282587Y84673773D01*
X28507044Y85009696D01*
X28507046Y85009699D01*
X28792721Y85295374D01*
X29128646Y85519832D01*
X29128647Y85519833D01*
X29501905Y85674441D01*
X29501906Y85674441D01*
X29501908Y85674442D01*
X29898153Y85753260D01*
X30302167Y85753260D01*
X30698412Y85674442D01*
X30698412Y85674442D01*
G37*
G36*
X6498412Y85674442D02*
X6498414Y85674441D01*
X6498415Y85674441D01*
X6871673Y85519833D01*
X6871674Y85519832D01*
X7207599Y85295374D01*
X7493274Y85009699D01*
X7493276Y85009696D01*
X7717733Y84673773D01*
X7872341Y84300515D01*
X7951160Y83904266D01*
X7951160Y83500254D01*
X7872341Y83104005D01*
X7717733Y82730747D01*
X7717732Y82730746D01*
X7493274Y82394821D01*
X7207599Y82109146D01*
X7207596Y82109144D01*
X6871673Y81884687D01*
X6498415Y81730079D01*
X6498414Y81730079D01*
X6498412Y81730078D01*
X6102167Y81651260D01*
X5698153Y81651260D01*
X5301908Y81730078D01*
X5301906Y81730079D01*
X5301905Y81730079D01*
X4928647Y81884687D01*
X4592724Y82109144D01*
X4592721Y82109146D01*
X4307046Y82394821D01*
X4082588Y82730746D01*
X4082587Y82730747D01*
X3927979Y83104005D01*
X3849160Y83500254D01*
X3849160Y83904266D01*
X3927979Y84300515D01*
X4082587Y84673773D01*
X4307044Y85009696D01*
X4307046Y85009699D01*
X4592721Y85295374D01*
X4928646Y85519832D01*
X4928647Y85519833D01*
X5301905Y85674441D01*
X5301906Y85674441D01*
X5301908Y85674442D01*
X5698153Y85753260D01*
X6102167Y85753260D01*
X6498412Y85674442D01*
X6498412Y85674442D01*
G37*
G36*
X744256Y92455227D02*
X744258Y92455226D01*
X744259Y92455226D01*
X1208512Y92262927D01*
X1624444Y91985010D01*
X1626331Y91983749D01*
X1981649Y91628431D01*
X1981651Y91628428D01*
X2260827Y91210612D01*
X2453126Y90746359D01*
X2551160Y90253512D01*
X2551160Y89751008D01*
X2453126Y89258161D01*
X2260827Y88793908D01*
X1982910Y88377976D01*
X1981649Y88376089D01*
X1626331Y88020771D01*
X1626328Y88020769D01*
X1208512Y87741593D01*
X744259Y87549294D01*
X744258Y87549294D01*
X744256Y87549293D01*
X251413Y87451260D01*
X-251093Y87451260D01*
X-743936Y87549293D01*
X-743938Y87549294D01*
X-743939Y87549294D01*
X-1208192Y87741593D01*
X-1626008Y88020769D01*
X-1626011Y88020771D01*
X-1981329Y88376089D01*
X-1982590Y88377976D01*
X-2260507Y88793908D01*
X-2452806Y89258161D01*
X-2550840Y89751008D01*
X-2550840Y90253512D01*
X-2452806Y90746359D01*
X-2260507Y91210612D01*
X-1981331Y91628428D01*
X-1981329Y91628431D01*
X-1626011Y91983749D01*
X-1624124Y91985010D01*
X-1208192Y92262927D01*
X-743939Y92455226D01*
X-743938Y92455226D01*
X-743936Y92455227D01*
X-251093Y92553260D01*
X251413Y92553260D01*
X744256Y92455227D01*
X744256Y92455227D01*
G37*
G36*
X140744256Y92455227D02*
X140744258Y92455226D01*
X140744259Y92455226D01*
X141208512Y92262927D01*
X141624444Y91985010D01*
X141626331Y91983749D01*
X141981649Y91628431D01*
X141981651Y91628428D01*
X142260827Y91210612D01*
X142453126Y90746359D01*
X142551160Y90253512D01*
X142551160Y89751008D01*
X142453126Y89258161D01*
X142260827Y88793908D01*
X141982910Y88377976D01*
X141981649Y88376089D01*
X141626331Y88020771D01*
X141626328Y88020769D01*
X141208512Y87741593D01*
X140744259Y87549294D01*
X140744258Y87549294D01*
X140744256Y87549293D01*
X140251413Y87451260D01*
X139748907Y87451260D01*
X139256064Y87549293D01*
X139256062Y87549294D01*
X139256061Y87549294D01*
X138791808Y87741593D01*
X138373992Y88020769D01*
X138373989Y88020771D01*
X138018671Y88376089D01*
X138017410Y88377976D01*
X137739493Y88793908D01*
X137547194Y89258161D01*
X137449160Y89751008D01*
X137449160Y90253512D01*
X137547194Y90746359D01*
X137739493Y91210612D01*
X138018669Y91628428D01*
X138018671Y91628431D01*
X138373989Y91983749D01*
X138375876Y91985010D01*
X138791808Y92262927D01*
X139256061Y92455226D01*
X139256062Y92455226D01*
X139256064Y92455227D01*
X139748907Y92553260D01*
X140251413Y92553260D01*
X140744256Y92455227D01*
X140744256Y92455227D01*
G37*
M02*
