G04 #@! TF.GenerationSoftware,KiCad,Pcbnew,(5.0.1)-3*
G04 #@! TF.CreationDate,2019-09-13T18:10:52+02:00*
G04 #@! TF.ProjectId,discovery,646973636F766572792E6B696361645F,rev?*
G04 #@! TF.SameCoordinates,PX4c4b360PY85843d4*
G04 #@! TF.FileFunction,Copper,L1,Top,Signal*
G04 #@! TF.FilePolarity,Positive*
%FSLAX46Y46*%
G04 Gerber Fmt 4.6, Leading zero omitted, Abs format (unit mm)*
G04 Created by KiCad (PCBNEW (5.0.1)-3) date 13/09/2019 18:10:52*
%MOMM*%
%LPD*%
G01*
G04 APERTURE LIST*
G04 #@! TA.AperFunction,ViaPad*
%ADD10C,0.600000*%
G04 #@! TD*
G04 #@! TA.AperFunction,SMDPad,CuDef*
%ADD11R,90.000000X30.000000*%
G04 #@! TD*
G04 #@! TA.AperFunction,WasherPad*
%ADD12C,4.000000*%
G04 #@! TD*
G04 #@! TA.AperFunction,ComponentPad*
%ADD13C,2.500000*%
G04 #@! TD*
G04 #@! TA.AperFunction,ComponentPad*
%ADD14C,5.000000*%
G04 #@! TD*
G04 #@! TA.AperFunction,ComponentPad*
%ADD15C,15.000000*%
G04 #@! TD*
G04 #@! TA.AperFunction,SMDPad,CuDef*
%ADD16R,2.540000X1.270000*%
G04 #@! TD*
G04 #@! TA.AperFunction,WasherPad*
%ADD17C,3.000000*%
G04 #@! TD*
G04 #@! TA.AperFunction,ViaPad*
%ADD18C,0.800000*%
G04 #@! TD*
G04 #@! TA.AperFunction,Conductor*
%ADD19C,1.000000*%
G04 #@! TD*
G04 #@! TA.AperFunction,Conductor*
%ADD20C,0.254000*%
G04 #@! TD*
G04 APERTURE END LIST*
D10*
G04 #@! TO.N,+12V*
G04 #@! TO.C,REF\002A\002A*
X132000160Y87702260D03*
G04 #@! TD*
G04 #@! TO.N,+12V*
G04 #@! TO.C,REF\002A\002A*
X129000160Y87702260D03*
G04 #@! TD*
G04 #@! TO.N,+12V*
G04 #@! TO.C,REF\002A\002A*
X126000160Y87702260D03*
G04 #@! TD*
G04 #@! TO.N,+12V*
G04 #@! TO.C,REF\002A\002A*
X123000160Y87702260D03*
G04 #@! TD*
G04 #@! TO.N,+12V*
G04 #@! TO.C,REF\002A\002A*
X120000160Y87702260D03*
G04 #@! TD*
G04 #@! TO.N,+12V*
G04 #@! TO.C,REF\002A\002A*
X117000160Y87702260D03*
G04 #@! TD*
G04 #@! TO.N,+12V*
G04 #@! TO.C,REF\002A\002A*
X114000160Y87702260D03*
G04 #@! TD*
G04 #@! TO.N,+12V*
G04 #@! TO.C,REF\002A\002A*
X111000160Y87702260D03*
G04 #@! TD*
G04 #@! TO.N,+12V*
G04 #@! TO.C,REF\002A\002A*
X108000160Y87702260D03*
G04 #@! TD*
G04 #@! TO.N,+12V*
G04 #@! TO.C,REF\002A\002A*
X105000160Y87702260D03*
G04 #@! TD*
G04 #@! TO.N,+12V*
G04 #@! TO.C,REF\002A\002A*
X102000160Y87702260D03*
G04 #@! TD*
G04 #@! TO.N,+12V*
G04 #@! TO.C,REF\002A\002A*
X99000160Y87702260D03*
G04 #@! TD*
G04 #@! TO.N,+12V*
G04 #@! TO.C,REF\002A\002A*
X96000160Y87702260D03*
G04 #@! TD*
G04 #@! TO.N,+12V*
G04 #@! TO.C,REF\002A\002A*
X93000160Y87702260D03*
G04 #@! TD*
G04 #@! TO.N,+12V*
G04 #@! TO.C,REF\002A\002A*
X90000160Y87702260D03*
G04 #@! TD*
G04 #@! TO.N,+12V*
G04 #@! TO.C,REF\002A\002A*
X87000160Y87702260D03*
G04 #@! TD*
G04 #@! TO.N,+12V*
G04 #@! TO.C,REF\002A\002A*
X84000160Y87702260D03*
G04 #@! TD*
G04 #@! TO.N,+12V*
G04 #@! TO.C,REF\002A\002A*
X81000160Y87702260D03*
G04 #@! TD*
G04 #@! TO.N,+12V*
G04 #@! TO.C,REF\002A\002A*
X78000160Y87702260D03*
G04 #@! TD*
G04 #@! TO.N,+12V*
G04 #@! TO.C,REF\002A\002A*
X75000160Y87702260D03*
G04 #@! TD*
G04 #@! TO.N,+12V*
G04 #@! TO.C,REF\002A\002A*
X72000160Y87702260D03*
G04 #@! TD*
G04 #@! TO.N,+12V*
G04 #@! TO.C,REF\002A\002A*
X69000160Y87702260D03*
G04 #@! TD*
G04 #@! TO.N,+12V*
G04 #@! TO.C,REF\002A\002A*
X66000160Y87702260D03*
G04 #@! TD*
G04 #@! TO.N,+12V*
G04 #@! TO.C,REF\002A\002A*
X63000160Y87702260D03*
G04 #@! TD*
G04 #@! TO.N,+12V*
G04 #@! TO.C,REF\002A\002A*
X60000160Y87702260D03*
G04 #@! TD*
G04 #@! TO.N,+12V*
G04 #@! TO.C,REF\002A\002A*
X57000160Y87702260D03*
G04 #@! TD*
G04 #@! TO.N,+12V*
G04 #@! TO.C,REF\002A\002A*
X54000160Y87702260D03*
G04 #@! TD*
G04 #@! TO.N,+12V*
G04 #@! TO.C,REF\002A\002A*
X51000160Y87702260D03*
G04 #@! TD*
G04 #@! TO.N,+12V*
G04 #@! TO.C,REF\002A\002A*
X48000160Y87702260D03*
G04 #@! TD*
G04 #@! TO.N,+12V*
G04 #@! TO.C,REF\002A\002A*
X45000160Y87702260D03*
G04 #@! TD*
G04 #@! TO.N,+12V*
G04 #@! TO.C,REF\002A\002A*
X132000160Y86002260D03*
G04 #@! TD*
G04 #@! TO.N,+12V*
G04 #@! TO.C,REF\002A\002A*
X129000160Y86002260D03*
G04 #@! TD*
G04 #@! TO.N,+12V*
G04 #@! TO.C,REF\002A\002A*
X126000160Y86002260D03*
G04 #@! TD*
G04 #@! TO.N,+12V*
G04 #@! TO.C,REF\002A\002A*
X123000160Y86002260D03*
G04 #@! TD*
G04 #@! TO.N,+12V*
G04 #@! TO.C,REF\002A\002A*
X120000160Y86002260D03*
G04 #@! TD*
G04 #@! TO.N,+12V*
G04 #@! TO.C,REF\002A\002A*
X117000160Y86002260D03*
G04 #@! TD*
G04 #@! TO.N,+12V*
G04 #@! TO.C,REF\002A\002A*
X114000160Y86002260D03*
G04 #@! TD*
G04 #@! TO.N,+12V*
G04 #@! TO.C,REF\002A\002A*
X111000160Y86002260D03*
G04 #@! TD*
G04 #@! TO.N,+12V*
G04 #@! TO.C,REF\002A\002A*
X108000160Y86002260D03*
G04 #@! TD*
G04 #@! TO.N,+12V*
G04 #@! TO.C,REF\002A\002A*
X105000160Y86002260D03*
G04 #@! TD*
G04 #@! TO.N,+12V*
G04 #@! TO.C,REF\002A\002A*
X102000160Y86002260D03*
G04 #@! TD*
G04 #@! TO.N,+12V*
G04 #@! TO.C,REF\002A\002A*
X99000160Y86002260D03*
G04 #@! TD*
G04 #@! TO.N,+12V*
G04 #@! TO.C,REF\002A\002A*
X96000160Y86002260D03*
G04 #@! TD*
G04 #@! TO.N,+12V*
G04 #@! TO.C,REF\002A\002A*
X93000160Y86002260D03*
G04 #@! TD*
G04 #@! TO.N,+12V*
G04 #@! TO.C,REF\002A\002A*
X90000160Y86002260D03*
G04 #@! TD*
G04 #@! TO.N,+12V*
G04 #@! TO.C,REF\002A\002A*
X87000160Y86002260D03*
G04 #@! TD*
G04 #@! TO.N,+12V*
G04 #@! TO.C,REF\002A\002A*
X84000160Y86002260D03*
G04 #@! TD*
G04 #@! TO.N,+12V*
G04 #@! TO.C,REF\002A\002A*
X81000160Y86002260D03*
G04 #@! TD*
G04 #@! TO.N,+12V*
G04 #@! TO.C,REF\002A\002A*
X78000160Y86002260D03*
G04 #@! TD*
G04 #@! TO.N,+12V*
G04 #@! TO.C,REF\002A\002A*
X75000160Y86002260D03*
G04 #@! TD*
G04 #@! TO.N,+12V*
G04 #@! TO.C,REF\002A\002A*
X72000160Y86002260D03*
G04 #@! TD*
G04 #@! TO.N,+12V*
G04 #@! TO.C,REF\002A\002A*
X69000160Y86002260D03*
G04 #@! TD*
G04 #@! TO.N,+12V*
G04 #@! TO.C,REF\002A\002A*
X66000160Y86002260D03*
G04 #@! TD*
G04 #@! TO.N,+12V*
G04 #@! TO.C,REF\002A\002A*
X63000160Y86002260D03*
G04 #@! TD*
G04 #@! TO.N,+12V*
G04 #@! TO.C,REF\002A\002A*
X60000160Y86002260D03*
G04 #@! TD*
G04 #@! TO.N,+12V*
G04 #@! TO.C,REF\002A\002A*
X57000160Y86002260D03*
G04 #@! TD*
G04 #@! TO.N,+12V*
G04 #@! TO.C,REF\002A\002A*
X54000160Y86002260D03*
G04 #@! TD*
G04 #@! TO.N,+12V*
G04 #@! TO.C,REF\002A\002A*
X51000160Y86002260D03*
G04 #@! TD*
G04 #@! TO.N,+12V*
G04 #@! TO.C,REF\002A\002A*
X48000160Y86002260D03*
G04 #@! TD*
G04 #@! TO.N,+12V*
G04 #@! TO.C,REF\002A\002A*
X132000160Y50302260D03*
G04 #@! TD*
G04 #@! TO.N,+12V*
G04 #@! TO.C,REF\002A\002A*
X129000160Y50302260D03*
G04 #@! TD*
G04 #@! TO.N,+12V*
G04 #@! TO.C,REF\002A\002A*
X126000160Y50302260D03*
G04 #@! TD*
G04 #@! TO.N,+12V*
G04 #@! TO.C,REF\002A\002A*
X123000160Y50302260D03*
G04 #@! TD*
G04 #@! TO.N,+12V*
G04 #@! TO.C,REF\002A\002A*
X120000160Y50302260D03*
G04 #@! TD*
G04 #@! TO.N,+12V*
G04 #@! TO.C,REF\002A\002A*
X117000160Y50302260D03*
G04 #@! TD*
G04 #@! TO.N,+12V*
G04 #@! TO.C,REF\002A\002A*
X114000160Y50302260D03*
G04 #@! TD*
G04 #@! TO.N,+12V*
G04 #@! TO.C,REF\002A\002A*
X111000160Y50302260D03*
G04 #@! TD*
G04 #@! TO.N,+12V*
G04 #@! TO.C,REF\002A\002A*
X108000160Y50302260D03*
G04 #@! TD*
G04 #@! TO.N,+12V*
G04 #@! TO.C,REF\002A\002A*
X105000160Y50302260D03*
G04 #@! TD*
G04 #@! TO.N,+12V*
G04 #@! TO.C,REF\002A\002A*
X102000160Y50302260D03*
G04 #@! TD*
G04 #@! TO.N,+12V*
G04 #@! TO.C,REF\002A\002A*
X99000160Y50302260D03*
G04 #@! TD*
G04 #@! TO.N,+12V*
G04 #@! TO.C,REF\002A\002A*
X96000160Y50302260D03*
G04 #@! TD*
G04 #@! TO.N,+12V*
G04 #@! TO.C,REF\002A\002A*
X93000160Y50302260D03*
G04 #@! TD*
G04 #@! TO.N,+12V*
G04 #@! TO.C,REF\002A\002A*
X90000160Y50302260D03*
G04 #@! TD*
G04 #@! TO.N,+12V*
G04 #@! TO.C,REF\002A\002A*
X87000160Y50302260D03*
G04 #@! TD*
G04 #@! TO.N,+12V*
G04 #@! TO.C,REF\002A\002A*
X84000160Y50302260D03*
G04 #@! TD*
G04 #@! TO.N,+12V*
G04 #@! TO.C,REF\002A\002A*
X81000160Y50302260D03*
G04 #@! TD*
G04 #@! TO.N,+12V*
G04 #@! TO.C,REF\002A\002A*
X78000160Y50302260D03*
G04 #@! TD*
G04 #@! TO.N,+12V*
G04 #@! TO.C,REF\002A\002A*
X75000160Y50302260D03*
G04 #@! TD*
G04 #@! TO.N,+12V*
G04 #@! TO.C,REF\002A\002A*
X72000160Y50302260D03*
G04 #@! TD*
G04 #@! TO.N,+12V*
G04 #@! TO.C,REF\002A\002A*
X69000160Y50302260D03*
G04 #@! TD*
G04 #@! TO.N,+12V*
G04 #@! TO.C,REF\002A\002A*
X66000160Y50302260D03*
G04 #@! TD*
G04 #@! TO.N,+12V*
G04 #@! TO.C,REF\002A\002A*
X63000160Y50302260D03*
G04 #@! TD*
G04 #@! TO.N,+12V*
G04 #@! TO.C,REF\002A\002A*
X60000160Y50302260D03*
G04 #@! TD*
G04 #@! TO.N,+12V*
G04 #@! TO.C,REF\002A\002A*
X57000160Y50302260D03*
G04 #@! TD*
G04 #@! TO.N,+12V*
G04 #@! TO.C,REF\002A\002A*
X54000160Y50302260D03*
G04 #@! TD*
G04 #@! TO.N,+12V*
G04 #@! TO.C,REF\002A\002A*
X51000160Y50302260D03*
G04 #@! TD*
G04 #@! TO.N,+12V*
G04 #@! TO.C,REF\002A\002A*
X48000160Y50302260D03*
G04 #@! TD*
G04 #@! TO.N,+12V*
G04 #@! TO.C,REF\002A\002A*
X45000160Y50302260D03*
G04 #@! TD*
G04 #@! TO.N,+12V*
G04 #@! TO.C,REF\002A\002A*
X132000160Y52002260D03*
G04 #@! TD*
G04 #@! TO.N,+12V*
G04 #@! TO.C,REF\002A\002A*
X129000160Y52002260D03*
G04 #@! TD*
G04 #@! TO.N,+12V*
G04 #@! TO.C,REF\002A\002A*
X126000160Y52002260D03*
G04 #@! TD*
G04 #@! TO.N,+12V*
G04 #@! TO.C,REF\002A\002A*
X123000160Y52002260D03*
G04 #@! TD*
G04 #@! TO.N,+12V*
G04 #@! TO.C,REF\002A\002A*
X120000160Y52002260D03*
G04 #@! TD*
G04 #@! TO.N,+12V*
G04 #@! TO.C,REF\002A\002A*
X117000160Y52002260D03*
G04 #@! TD*
G04 #@! TO.N,+12V*
G04 #@! TO.C,REF\002A\002A*
X114000160Y52002260D03*
G04 #@! TD*
G04 #@! TO.N,+12V*
G04 #@! TO.C,REF\002A\002A*
X111000160Y52002260D03*
G04 #@! TD*
G04 #@! TO.N,+12V*
G04 #@! TO.C,REF\002A\002A*
X108000160Y52002260D03*
G04 #@! TD*
G04 #@! TO.N,+12V*
G04 #@! TO.C,REF\002A\002A*
X105000160Y52002260D03*
G04 #@! TD*
G04 #@! TO.N,+12V*
G04 #@! TO.C,REF\002A\002A*
X102000160Y52002260D03*
G04 #@! TD*
G04 #@! TO.N,+12V*
G04 #@! TO.C,REF\002A\002A*
X99000160Y52002260D03*
G04 #@! TD*
G04 #@! TO.N,+12V*
G04 #@! TO.C,REF\002A\002A*
X96000160Y52002260D03*
G04 #@! TD*
G04 #@! TO.N,+12V*
G04 #@! TO.C,REF\002A\002A*
X93000160Y52002260D03*
G04 #@! TD*
G04 #@! TO.N,+12V*
G04 #@! TO.C,REF\002A\002A*
X90000160Y52002260D03*
G04 #@! TD*
G04 #@! TO.N,+12V*
G04 #@! TO.C,REF\002A\002A*
X87000160Y52002260D03*
G04 #@! TD*
G04 #@! TO.N,+12V*
G04 #@! TO.C,REF\002A\002A*
X84000160Y52002260D03*
G04 #@! TD*
G04 #@! TO.N,+12V*
G04 #@! TO.C,REF\002A\002A*
X81000160Y52002260D03*
G04 #@! TD*
G04 #@! TO.N,+12V*
G04 #@! TO.C,REF\002A\002A*
X78000160Y52002260D03*
G04 #@! TD*
G04 #@! TO.N,+12V*
G04 #@! TO.C,REF\002A\002A*
X75000160Y52002260D03*
G04 #@! TD*
G04 #@! TO.N,+12V*
G04 #@! TO.C,REF\002A\002A*
X72000160Y52002260D03*
G04 #@! TD*
G04 #@! TO.N,+12V*
G04 #@! TO.C,REF\002A\002A*
X69000160Y52002260D03*
G04 #@! TD*
G04 #@! TO.N,+12V*
G04 #@! TO.C,REF\002A\002A*
X66000160Y52002260D03*
G04 #@! TD*
G04 #@! TO.N,+12V*
G04 #@! TO.C,REF\002A\002A*
X63000160Y52002260D03*
G04 #@! TD*
G04 #@! TO.N,+12V*
G04 #@! TO.C,REF\002A\002A*
X60000160Y52002260D03*
G04 #@! TD*
G04 #@! TO.N,+12V*
G04 #@! TO.C,REF\002A\002A*
X57000160Y52002260D03*
G04 #@! TD*
G04 #@! TO.N,+12V*
G04 #@! TO.C,REF\002A\002A*
X54000160Y52002260D03*
G04 #@! TD*
G04 #@! TO.N,+12V*
G04 #@! TO.C,REF\002A\002A*
X51000160Y52002260D03*
G04 #@! TD*
G04 #@! TO.N,+12V*
G04 #@! TO.C,REF\002A\002A*
X48000160Y52002260D03*
G04 #@! TD*
G04 #@! TO.N,GND*
G04 #@! TO.C,REF\002A\002A*
X132000160Y-747740D03*
G04 #@! TD*
G04 #@! TO.N,GND*
G04 #@! TO.C,REF\002A\002A*
X129000160Y-747740D03*
G04 #@! TD*
G04 #@! TO.N,GND*
G04 #@! TO.C,REF\002A\002A*
X126000160Y-747740D03*
G04 #@! TD*
G04 #@! TO.N,GND*
G04 #@! TO.C,REF\002A\002A*
X123000160Y-747740D03*
G04 #@! TD*
G04 #@! TO.N,GND*
G04 #@! TO.C,REF\002A\002A*
X120000160Y-747740D03*
G04 #@! TD*
G04 #@! TO.N,GND*
G04 #@! TO.C,REF\002A\002A*
X117000160Y-747740D03*
G04 #@! TD*
G04 #@! TO.N,GND*
G04 #@! TO.C,REF\002A\002A*
X114000160Y-747740D03*
G04 #@! TD*
G04 #@! TO.N,GND*
G04 #@! TO.C,REF\002A\002A*
X111000160Y-747740D03*
G04 #@! TD*
G04 #@! TO.N,GND*
G04 #@! TO.C,REF\002A\002A*
X108000160Y-747740D03*
G04 #@! TD*
G04 #@! TO.N,GND*
G04 #@! TO.C,REF\002A\002A*
X105000160Y-747740D03*
G04 #@! TD*
G04 #@! TO.N,GND*
G04 #@! TO.C,REF\002A\002A*
X102000160Y-747740D03*
G04 #@! TD*
G04 #@! TO.N,GND*
G04 #@! TO.C,REF\002A\002A*
X99000160Y-747740D03*
G04 #@! TD*
G04 #@! TO.N,GND*
G04 #@! TO.C,REF\002A\002A*
X96000160Y-747740D03*
G04 #@! TD*
G04 #@! TO.N,GND*
G04 #@! TO.C,REF\002A\002A*
X93000160Y-747740D03*
G04 #@! TD*
G04 #@! TO.N,GND*
G04 #@! TO.C,REF\002A\002A*
X90000160Y-747740D03*
G04 #@! TD*
G04 #@! TO.N,GND*
G04 #@! TO.C,REF\002A\002A*
X87000160Y-747740D03*
G04 #@! TD*
G04 #@! TO.N,GND*
G04 #@! TO.C,REF\002A\002A*
X84000160Y-747740D03*
G04 #@! TD*
G04 #@! TO.N,GND*
G04 #@! TO.C,REF\002A\002A*
X81000160Y-747740D03*
G04 #@! TD*
G04 #@! TO.N,GND*
G04 #@! TO.C,REF\002A\002A*
X78000160Y-747740D03*
G04 #@! TD*
G04 #@! TO.N,GND*
G04 #@! TO.C,REF\002A\002A*
X75000160Y-747740D03*
G04 #@! TD*
G04 #@! TO.N,GND*
G04 #@! TO.C,REF\002A\002A*
X72000160Y-747740D03*
G04 #@! TD*
G04 #@! TO.N,GND*
G04 #@! TO.C,REF\002A\002A*
X69000160Y-747740D03*
G04 #@! TD*
G04 #@! TO.N,GND*
G04 #@! TO.C,REF\002A\002A*
X66000160Y-747740D03*
G04 #@! TD*
G04 #@! TO.N,GND*
G04 #@! TO.C,REF\002A\002A*
X63000160Y-747740D03*
G04 #@! TD*
G04 #@! TO.N,GND*
G04 #@! TO.C,REF\002A\002A*
X60000160Y-747740D03*
G04 #@! TD*
G04 #@! TO.N,GND*
G04 #@! TO.C,REF\002A\002A*
X57000160Y-747740D03*
G04 #@! TD*
G04 #@! TO.N,GND*
G04 #@! TO.C,REF\002A\002A*
X54000160Y-747740D03*
G04 #@! TD*
G04 #@! TO.N,GND*
G04 #@! TO.C,REF\002A\002A*
X51000160Y-747740D03*
G04 #@! TD*
G04 #@! TO.N,GND*
G04 #@! TO.C,REF\002A\002A*
X48000160Y-747740D03*
G04 #@! TD*
G04 #@! TO.N,GND*
G04 #@! TO.C,REF\002A\002A*
X45000160Y-747740D03*
G04 #@! TD*
G04 #@! TO.N,GND*
G04 #@! TO.C,REF\002A\002A*
X132000160Y1002260D03*
G04 #@! TD*
G04 #@! TO.N,GND*
G04 #@! TO.C,REF\002A\002A*
X129000160Y1002260D03*
G04 #@! TD*
G04 #@! TO.N,GND*
G04 #@! TO.C,REF\002A\002A*
X126000160Y1002260D03*
G04 #@! TD*
G04 #@! TO.N,GND*
G04 #@! TO.C,REF\002A\002A*
X123000160Y1002260D03*
G04 #@! TD*
G04 #@! TO.N,GND*
G04 #@! TO.C,REF\002A\002A*
X120000160Y1002260D03*
G04 #@! TD*
G04 #@! TO.N,GND*
G04 #@! TO.C,REF\002A\002A*
X117000160Y1002260D03*
G04 #@! TD*
G04 #@! TO.N,GND*
G04 #@! TO.C,REF\002A\002A*
X114000160Y1002260D03*
G04 #@! TD*
G04 #@! TO.N,GND*
G04 #@! TO.C,REF\002A\002A*
X111000160Y1002260D03*
G04 #@! TD*
G04 #@! TO.N,GND*
G04 #@! TO.C,REF\002A\002A*
X108000160Y1002260D03*
G04 #@! TD*
G04 #@! TO.N,GND*
G04 #@! TO.C,REF\002A\002A*
X105000160Y1002260D03*
G04 #@! TD*
G04 #@! TO.N,GND*
G04 #@! TO.C,REF\002A\002A*
X102000160Y1002260D03*
G04 #@! TD*
G04 #@! TO.N,GND*
G04 #@! TO.C,REF\002A\002A*
X99000160Y1002260D03*
G04 #@! TD*
G04 #@! TO.N,GND*
G04 #@! TO.C,REF\002A\002A*
X96000160Y1002260D03*
G04 #@! TD*
G04 #@! TO.N,GND*
G04 #@! TO.C,REF\002A\002A*
X93000160Y1002260D03*
G04 #@! TD*
G04 #@! TO.N,GND*
G04 #@! TO.C,REF\002A\002A*
X90000160Y1002260D03*
G04 #@! TD*
G04 #@! TO.N,GND*
G04 #@! TO.C,REF\002A\002A*
X87000160Y1002260D03*
G04 #@! TD*
G04 #@! TO.N,GND*
G04 #@! TO.C,REF\002A\002A*
X84000160Y1002260D03*
G04 #@! TD*
G04 #@! TO.N,GND*
G04 #@! TO.C,REF\002A\002A*
X81000160Y1002260D03*
G04 #@! TD*
G04 #@! TO.N,GND*
G04 #@! TO.C,REF\002A\002A*
X78000160Y1002260D03*
G04 #@! TD*
G04 #@! TO.N,GND*
G04 #@! TO.C,REF\002A\002A*
X75000160Y1002260D03*
G04 #@! TD*
G04 #@! TO.N,GND*
G04 #@! TO.C,REF\002A\002A*
X72000160Y1002260D03*
G04 #@! TD*
G04 #@! TO.N,GND*
G04 #@! TO.C,REF\002A\002A*
X69000160Y1002260D03*
G04 #@! TD*
G04 #@! TO.N,GND*
G04 #@! TO.C,REF\002A\002A*
X66000160Y1002260D03*
G04 #@! TD*
G04 #@! TO.N,GND*
G04 #@! TO.C,REF\002A\002A*
X63000160Y1002260D03*
G04 #@! TD*
G04 #@! TO.N,GND*
G04 #@! TO.C,REF\002A\002A*
X60000160Y1002260D03*
G04 #@! TD*
G04 #@! TO.N,GND*
G04 #@! TO.C,REF\002A\002A*
X57000160Y1002260D03*
G04 #@! TD*
G04 #@! TO.N,GND*
G04 #@! TO.C,REF\002A\002A*
X54000160Y1002260D03*
G04 #@! TD*
G04 #@! TO.N,GND*
G04 #@! TO.C,REF\002A\002A*
X51000160Y1002260D03*
G04 #@! TD*
G04 #@! TO.N,GND*
G04 #@! TO.C,REF\002A\002A*
X48000160Y1002260D03*
G04 #@! TD*
G04 #@! TO.N,GND*
G04 #@! TO.C,REF\002A\002A*
X45000160Y1002260D03*
G04 #@! TD*
G04 #@! TO.N,GND*
G04 #@! TO.C,REF\002A\002A*
X132000160Y2752260D03*
G04 #@! TD*
G04 #@! TO.N,GND*
G04 #@! TO.C,REF\002A\002A*
X129000160Y2752260D03*
G04 #@! TD*
G04 #@! TO.N,GND*
G04 #@! TO.C,REF\002A\002A*
X126000160Y2752260D03*
G04 #@! TD*
G04 #@! TO.N,GND*
G04 #@! TO.C,REF\002A\002A*
X123000160Y2752260D03*
G04 #@! TD*
G04 #@! TO.N,GND*
G04 #@! TO.C,REF\002A\002A*
X120000160Y2752260D03*
G04 #@! TD*
G04 #@! TO.N,GND*
G04 #@! TO.C,REF\002A\002A*
X117000160Y2752260D03*
G04 #@! TD*
G04 #@! TO.N,GND*
G04 #@! TO.C,REF\002A\002A*
X114000160Y2752260D03*
G04 #@! TD*
G04 #@! TO.N,GND*
G04 #@! TO.C,REF\002A\002A*
X111000160Y2752260D03*
G04 #@! TD*
G04 #@! TO.N,GND*
G04 #@! TO.C,REF\002A\002A*
X108000160Y2752260D03*
G04 #@! TD*
G04 #@! TO.N,GND*
G04 #@! TO.C,REF\002A\002A*
X105000160Y2752260D03*
G04 #@! TD*
G04 #@! TO.N,GND*
G04 #@! TO.C,REF\002A\002A*
X102000160Y2752260D03*
G04 #@! TD*
G04 #@! TO.N,GND*
G04 #@! TO.C,REF\002A\002A*
X99000160Y2752260D03*
G04 #@! TD*
G04 #@! TO.N,GND*
G04 #@! TO.C,REF\002A\002A*
X96000160Y2752260D03*
G04 #@! TD*
G04 #@! TO.N,GND*
G04 #@! TO.C,REF\002A\002A*
X93000160Y2752260D03*
G04 #@! TD*
G04 #@! TO.N,GND*
G04 #@! TO.C,REF\002A\002A*
X90000160Y2752260D03*
G04 #@! TD*
G04 #@! TO.N,GND*
G04 #@! TO.C,REF\002A\002A*
X87000160Y2752260D03*
G04 #@! TD*
G04 #@! TO.N,GND*
G04 #@! TO.C,REF\002A\002A*
X84000160Y2752260D03*
G04 #@! TD*
G04 #@! TO.N,GND*
G04 #@! TO.C,REF\002A\002A*
X81000160Y2752260D03*
G04 #@! TD*
G04 #@! TO.N,GND*
G04 #@! TO.C,REF\002A\002A*
X78000160Y2752260D03*
G04 #@! TD*
G04 #@! TO.N,GND*
G04 #@! TO.C,REF\002A\002A*
X75000160Y2752260D03*
G04 #@! TD*
G04 #@! TO.N,GND*
G04 #@! TO.C,REF\002A\002A*
X72000160Y2752260D03*
G04 #@! TD*
G04 #@! TO.N,GND*
G04 #@! TO.C,REF\002A\002A*
X69000160Y2752260D03*
G04 #@! TD*
G04 #@! TO.N,GND*
G04 #@! TO.C,REF\002A\002A*
X66000160Y2752260D03*
G04 #@! TD*
G04 #@! TO.N,GND*
G04 #@! TO.C,REF\002A\002A*
X63000160Y2752260D03*
G04 #@! TD*
G04 #@! TO.N,GND*
G04 #@! TO.C,REF\002A\002A*
X60000160Y2752260D03*
G04 #@! TD*
G04 #@! TO.N,GND*
G04 #@! TO.C,REF\002A\002A*
X57000160Y2752260D03*
G04 #@! TD*
G04 #@! TO.N,GND*
G04 #@! TO.C,REF\002A\002A*
X54000160Y2752260D03*
G04 #@! TD*
G04 #@! TO.N,GND*
G04 #@! TO.C,REF\002A\002A*
X51000160Y2752260D03*
G04 #@! TD*
G04 #@! TO.N,GND*
G04 #@! TO.C,REF\002A\002A*
X48000160Y2752260D03*
G04 #@! TD*
G04 #@! TO.N,GND*
G04 #@! TO.C,REF\002A\002A*
X45000160Y2752260D03*
G04 #@! TD*
G04 #@! TO.N,GND*
G04 #@! TO.C,REF\002A\002A*
X132000160Y4502260D03*
G04 #@! TD*
G04 #@! TO.N,GND*
G04 #@! TO.C,REF\002A\002A*
X129000160Y4502260D03*
G04 #@! TD*
G04 #@! TO.N,GND*
G04 #@! TO.C,REF\002A\002A*
X126000160Y4502260D03*
G04 #@! TD*
G04 #@! TO.N,GND*
G04 #@! TO.C,REF\002A\002A*
X123000160Y4502260D03*
G04 #@! TD*
G04 #@! TO.N,GND*
G04 #@! TO.C,REF\002A\002A*
X120000160Y4502260D03*
G04 #@! TD*
G04 #@! TO.N,GND*
G04 #@! TO.C,REF\002A\002A*
X117000160Y4502260D03*
G04 #@! TD*
G04 #@! TO.N,GND*
G04 #@! TO.C,REF\002A\002A*
X114000160Y4502260D03*
G04 #@! TD*
G04 #@! TO.N,GND*
G04 #@! TO.C,REF\002A\002A*
X111000160Y4502260D03*
G04 #@! TD*
G04 #@! TO.N,GND*
G04 #@! TO.C,REF\002A\002A*
X108000160Y4502260D03*
G04 #@! TD*
G04 #@! TO.N,GND*
G04 #@! TO.C,REF\002A\002A*
X105000160Y4502260D03*
G04 #@! TD*
G04 #@! TO.N,GND*
G04 #@! TO.C,REF\002A\002A*
X102000160Y4502260D03*
G04 #@! TD*
G04 #@! TO.N,GND*
G04 #@! TO.C,REF\002A\002A*
X99000160Y4502260D03*
G04 #@! TD*
G04 #@! TO.N,GND*
G04 #@! TO.C,REF\002A\002A*
X96000160Y4502260D03*
G04 #@! TD*
G04 #@! TO.N,GND*
G04 #@! TO.C,REF\002A\002A*
X93000160Y4502260D03*
G04 #@! TD*
G04 #@! TO.N,GND*
G04 #@! TO.C,REF\002A\002A*
X90000160Y4502260D03*
G04 #@! TD*
G04 #@! TO.N,GND*
G04 #@! TO.C,REF\002A\002A*
X87000160Y4502260D03*
G04 #@! TD*
G04 #@! TO.N,GND*
G04 #@! TO.C,REF\002A\002A*
X84000160Y4502260D03*
G04 #@! TD*
G04 #@! TO.N,GND*
G04 #@! TO.C,REF\002A\002A*
X81000160Y4502260D03*
G04 #@! TD*
G04 #@! TO.N,GND*
G04 #@! TO.C,REF\002A\002A*
X78000160Y4502260D03*
G04 #@! TD*
G04 #@! TO.N,GND*
G04 #@! TO.C,REF\002A\002A*
X75000160Y4502260D03*
G04 #@! TD*
G04 #@! TO.N,GND*
G04 #@! TO.C,REF\002A\002A*
X72000160Y4502260D03*
G04 #@! TD*
G04 #@! TO.N,GND*
G04 #@! TO.C,REF\002A\002A*
X69000160Y4502260D03*
G04 #@! TD*
G04 #@! TO.N,GND*
G04 #@! TO.C,REF\002A\002A*
X66000160Y4502260D03*
G04 #@! TD*
G04 #@! TO.N,GND*
G04 #@! TO.C,REF\002A\002A*
X63000160Y4502260D03*
G04 #@! TD*
G04 #@! TO.N,GND*
G04 #@! TO.C,REF\002A\002A*
X60000160Y4502260D03*
G04 #@! TD*
G04 #@! TO.N,GND*
G04 #@! TO.C,REF\002A\002A*
X57000160Y4502260D03*
G04 #@! TD*
G04 #@! TO.N,GND*
G04 #@! TO.C,REF\002A\002A*
X54000160Y4502260D03*
G04 #@! TD*
G04 #@! TO.N,GND*
G04 #@! TO.C,REF\002A\002A*
X51000160Y4502260D03*
G04 #@! TD*
G04 #@! TO.N,GND*
G04 #@! TO.C,REF\002A\002A*
X48000160Y4502260D03*
G04 #@! TD*
D11*
G04 #@! TO.P,W13,1*
G04 #@! TO.N,+12V*
X89160760Y68828060D03*
G04 #@! TD*
G04 #@! TO.P,W20,1*
G04 #@! TO.N,GND*
X89160760Y21328060D03*
G04 #@! TD*
D10*
G04 #@! TO.N,GND*
G04 #@! TO.C,REF\002A\002A*
X45000160Y4502260D03*
G04 #@! TD*
D12*
G04 #@! TO.P,J1,*
G04 #@! TO.N,*
X5900160Y61702260D03*
X5900160Y83702260D03*
D13*
G04 #@! TO.P,J1,1*
G04 #@! TO.N,GND*
X10300160Y79002260D03*
G04 #@! TO.P,J1,2*
X10300160Y74802260D03*
G04 #@! TO.P,J1,3*
X10300160Y70602260D03*
G04 #@! TO.P,J1,4*
X10300160Y66402260D03*
G04 #@! TO.P,J1,5*
G04 #@! TO.N,+12V*
X6100160Y79002260D03*
G04 #@! TO.P,J1,6*
X6100160Y74802260D03*
G04 #@! TO.P,J1,7*
X6100160Y70602260D03*
G04 #@! TO.P,J1,8*
X6100160Y66402260D03*
G04 #@! TD*
D12*
G04 #@! TO.P,J2,*
G04 #@! TO.N,*
X5900160Y6869660D03*
X5900160Y24669660D03*
D13*
G04 #@! TO.P,J2,1*
G04 #@! TO.N,+12V*
X10100160Y19969660D03*
G04 #@! TO.P,J2,2*
X10100160Y15769660D03*
G04 #@! TO.P,J2,3*
X10100160Y11569660D03*
G04 #@! TO.P,J2,4*
G04 #@! TO.N,GND*
X5900160Y19969660D03*
G04 #@! TO.P,J2,5*
X5900160Y15769660D03*
G04 #@! TO.P,J2,6*
X5900160Y11569660D03*
G04 #@! TD*
G04 #@! TO.P,J3,8*
G04 #@! TO.N,+12V*
X29900160Y79002260D03*
G04 #@! TO.P,J3,7*
X29900160Y74802260D03*
G04 #@! TO.P,J3,6*
X29900160Y70602260D03*
G04 #@! TO.P,J3,5*
X29900160Y66402260D03*
G04 #@! TO.P,J3,4*
G04 #@! TO.N,GND*
X25700160Y79002260D03*
G04 #@! TO.P,J3,3*
X25700160Y74802260D03*
G04 #@! TO.P,J3,2*
X25700160Y70602260D03*
G04 #@! TO.P,J3,1*
X25700160Y66402260D03*
D12*
G04 #@! TO.P,J3,*
G04 #@! TO.N,*
X30100160Y61702260D03*
X30100160Y83702260D03*
G04 #@! TD*
D13*
G04 #@! TO.P,J4,6*
G04 #@! TO.N,GND*
X5900160Y40402260D03*
G04 #@! TO.P,J4,5*
X5900160Y44602260D03*
G04 #@! TO.P,J4,4*
X5900160Y48802260D03*
G04 #@! TO.P,J4,3*
G04 #@! TO.N,+12V*
X10100160Y40402260D03*
G04 #@! TO.P,J4,2*
X10100160Y44602260D03*
G04 #@! TO.P,J4,1*
X10100160Y48802260D03*
D12*
G04 #@! TO.P,J4,*
G04 #@! TO.N,*
X5900160Y53502260D03*
X5900160Y35702260D03*
G04 #@! TD*
G04 #@! TO.P,J5,*
G04 #@! TO.N,*
X30100160Y53502260D03*
X30100160Y35702260D03*
D13*
G04 #@! TO.P,J5,1*
G04 #@! TO.N,+12V*
X25900160Y40402260D03*
G04 #@! TO.P,J5,2*
X25900160Y44602260D03*
G04 #@! TO.P,J5,3*
X25900160Y48802260D03*
G04 #@! TO.P,J5,4*
G04 #@! TO.N,GND*
X30100160Y40402260D03*
G04 #@! TO.P,J5,5*
X30100160Y44602260D03*
G04 #@! TO.P,J5,6*
X30100160Y48802260D03*
G04 #@! TD*
G04 #@! TO.P,J6,6*
G04 #@! TO.N,GND*
X30100160Y19969660D03*
G04 #@! TO.P,J6,5*
X30100160Y15769660D03*
G04 #@! TO.P,J6,4*
X30100160Y11569660D03*
G04 #@! TO.P,J6,3*
G04 #@! TO.N,+12V*
X25900160Y19969660D03*
G04 #@! TO.P,J6,2*
X25900160Y15769660D03*
G04 #@! TO.P,J6,1*
X25900160Y11569660D03*
D12*
G04 #@! TO.P,J6,*
G04 #@! TO.N,*
X30100160Y6869660D03*
X30100160Y24669660D03*
G04 #@! TD*
D14*
G04 #@! TO.P,W1,1*
G04 #@! TO.N,GND*
X140000160Y2260D03*
G04 #@! TD*
G04 #@! TO.P,W2,1*
G04 #@! TO.N,GND*
X160Y90002260D03*
G04 #@! TD*
G04 #@! TO.P,W3,1*
G04 #@! TO.N,GND*
X140000160Y90002260D03*
G04 #@! TD*
G04 #@! TO.P,W4,1*
G04 #@! TO.N,GND*
X160Y2260D03*
G04 #@! TD*
D15*
G04 #@! TO.P,W5,1*
G04 #@! TO.N,+12V*
X72500160Y68832260D03*
G04 #@! TD*
G04 #@! TO.P,W6,1*
G04 #@! TO.N,+12V*
X112500160Y68832260D03*
G04 #@! TD*
G04 #@! TO.P,W11,1*
G04 #@! TO.N,GND*
X70000160Y21332260D03*
G04 #@! TD*
G04 #@! TO.P,W12,1*
G04 #@! TO.N,GND*
X110000160Y21332260D03*
G04 #@! TD*
D10*
G04 #@! TO.N,+12V*
G04 #@! TO.C,REF\002A\002A*
X45000160Y52002260D03*
G04 #@! TD*
G04 #@! TO.N,+12V*
G04 #@! TO.C,REF\002A\002A*
X45000160Y86002260D03*
G04 #@! TD*
D16*
G04 #@! TO.P,J7,1*
G04 #@! TO.N,+12V*
X35910940Y59154460D03*
D17*
G04 #@! TO.P,J7,*
G04 #@! TO.N,*
X39340940Y61304460D03*
X39340940Y54004460D03*
D16*
G04 #@! TO.P,J7,2*
G04 #@! TO.N,GND*
X35910940Y56154460D03*
G04 #@! TD*
D18*
G04 #@! TO.N,GND*
X37419280Y49758600D03*
G04 #@! TD*
D19*
G04 #@! TO.N,GND*
X35910940Y56154460D02*
X35910940Y51266940D01*
X35910940Y51266940D02*
X37419280Y49758600D01*
G04 #@! TD*
D20*
G04 #@! TO.N,+12V*
G36*
X143898160Y92545797D02*
X143898161Y42819149D01*
X135185215Y42755580D01*
X41007388Y42755580D01*
X40969080Y42763200D01*
X40155112Y42601292D01*
X39465064Y42140216D01*
X36221484Y38896636D01*
X35760408Y38206588D01*
X35598500Y37392620D01*
X35598500Y2266960D01*
X35760408Y1452992D01*
X36221484Y762944D01*
X40880168Y-3895740D01*
X-2543377Y-3895740D01*
X-3897840Y-2541278D01*
X-3897840Y703824D01*
X-3526840Y703824D01*
X-3526840Y-699304D01*
X-2989886Y-1995625D01*
X-1997725Y-2987786D01*
X-701404Y-3524740D01*
X701724Y-3524740D01*
X1998045Y-2987786D01*
X2990206Y-1995625D01*
X3527160Y-699304D01*
X3527160Y703824D01*
X2990206Y2000145D01*
X1998045Y2992306D01*
X701724Y3529260D01*
X-701404Y3529260D01*
X-1997725Y2992306D01*
X-2989886Y2000145D01*
X-3526840Y703824D01*
X-3897840Y703824D01*
X-3897840Y25271768D01*
X2873160Y25271768D01*
X2873160Y24067552D01*
X3333994Y22955002D01*
X4185502Y22103494D01*
X4643553Y21913763D01*
X4610343Y21900007D01*
X3969813Y21259477D01*
X3623160Y20422583D01*
X3623160Y19516737D01*
X3969813Y18679843D01*
X4610343Y18039313D01*
X5019921Y17869660D01*
X4610343Y17700007D01*
X3969813Y17059477D01*
X3623160Y16222583D01*
X3623160Y15316737D01*
X3969813Y14479843D01*
X4610343Y13839313D01*
X5019921Y13669660D01*
X4610343Y13500007D01*
X3969813Y12859477D01*
X3623160Y12022583D01*
X3623160Y11116737D01*
X3969813Y10279843D01*
X4610343Y9639313D01*
X4643553Y9625557D01*
X4185502Y9435826D01*
X3333994Y8584318D01*
X2873160Y7471768D01*
X2873160Y6267552D01*
X3333994Y5155002D01*
X4185502Y4303494D01*
X5298052Y3842660D01*
X6502268Y3842660D01*
X7614818Y4303494D01*
X8466326Y5155002D01*
X8927160Y6267552D01*
X8927160Y7471768D01*
X8466326Y8584318D01*
X7614818Y9435826D01*
X7156767Y9625557D01*
X7189977Y9639313D01*
X7661160Y10110496D01*
X9524879Y10110496D01*
X9699351Y9954681D01*
X10347886Y9924231D01*
X10500969Y9954681D01*
X10675441Y10110496D01*
X25324879Y10110496D01*
X25499351Y9954681D01*
X26147886Y9924231D01*
X26300969Y9954681D01*
X26475441Y10110496D01*
X25900160Y10685777D01*
X25324879Y10110496D01*
X10675441Y10110496D01*
X10100160Y10685777D01*
X9524879Y10110496D01*
X7661160Y10110496D01*
X7830507Y10279843D01*
X8177160Y11116737D01*
X8177160Y11321934D01*
X8454731Y11321934D01*
X8485181Y11168851D01*
X8640996Y10994379D01*
X9216277Y11569660D01*
X10984043Y11569660D01*
X11559324Y10994379D01*
X11715139Y11168851D01*
X11722326Y11321934D01*
X24254731Y11321934D01*
X24285181Y11168851D01*
X24440996Y10994379D01*
X25016277Y11569660D01*
X26784043Y11569660D01*
X27359324Y10994379D01*
X27515139Y11168851D01*
X27545589Y11817386D01*
X27515139Y11970469D01*
X27359324Y12144941D01*
X26784043Y11569660D01*
X25016277Y11569660D01*
X24440996Y12144941D01*
X24285181Y11970469D01*
X24254731Y11321934D01*
X11722326Y11321934D01*
X11745589Y11817386D01*
X11715139Y11970469D01*
X11559324Y12144941D01*
X10984043Y11569660D01*
X9216277Y11569660D01*
X8640996Y12144941D01*
X8485181Y11970469D01*
X8454731Y11321934D01*
X8177160Y11321934D01*
X8177160Y12022583D01*
X7830507Y12859477D01*
X7661160Y13028824D01*
X9524879Y13028824D01*
X10100160Y12453543D01*
X10675441Y13028824D01*
X25324879Y13028824D01*
X25900160Y12453543D01*
X26475441Y13028824D01*
X26300969Y13184639D01*
X25652434Y13215089D01*
X25499351Y13184639D01*
X25324879Y13028824D01*
X10675441Y13028824D01*
X10500969Y13184639D01*
X9852434Y13215089D01*
X9699351Y13184639D01*
X9524879Y13028824D01*
X7661160Y13028824D01*
X7189977Y13500007D01*
X6780399Y13669660D01*
X7189977Y13839313D01*
X7661160Y14310496D01*
X9524879Y14310496D01*
X9699351Y14154681D01*
X10347886Y14124231D01*
X10500969Y14154681D01*
X10675441Y14310496D01*
X25324879Y14310496D01*
X25499351Y14154681D01*
X26147886Y14124231D01*
X26300969Y14154681D01*
X26475441Y14310496D01*
X25900160Y14885777D01*
X25324879Y14310496D01*
X10675441Y14310496D01*
X10100160Y14885777D01*
X9524879Y14310496D01*
X7661160Y14310496D01*
X7830507Y14479843D01*
X8177160Y15316737D01*
X8177160Y15521934D01*
X8454731Y15521934D01*
X8485181Y15368851D01*
X8640996Y15194379D01*
X9216277Y15769660D01*
X10984043Y15769660D01*
X11559324Y15194379D01*
X11715139Y15368851D01*
X11722326Y15521934D01*
X24254731Y15521934D01*
X24285181Y15368851D01*
X24440996Y15194379D01*
X25016277Y15769660D01*
X26784043Y15769660D01*
X27359324Y15194379D01*
X27515139Y15368851D01*
X27545589Y16017386D01*
X27515139Y16170469D01*
X27359324Y16344941D01*
X26784043Y15769660D01*
X25016277Y15769660D01*
X24440996Y16344941D01*
X24285181Y16170469D01*
X24254731Y15521934D01*
X11722326Y15521934D01*
X11745589Y16017386D01*
X11715139Y16170469D01*
X11559324Y16344941D01*
X10984043Y15769660D01*
X9216277Y15769660D01*
X8640996Y16344941D01*
X8485181Y16170469D01*
X8454731Y15521934D01*
X8177160Y15521934D01*
X8177160Y16222583D01*
X7830507Y17059477D01*
X7661160Y17228824D01*
X9524879Y17228824D01*
X10100160Y16653543D01*
X10675441Y17228824D01*
X25324879Y17228824D01*
X25900160Y16653543D01*
X26475441Y17228824D01*
X26300969Y17384639D01*
X25652434Y17415089D01*
X25499351Y17384639D01*
X25324879Y17228824D01*
X10675441Y17228824D01*
X10500969Y17384639D01*
X9852434Y17415089D01*
X9699351Y17384639D01*
X9524879Y17228824D01*
X7661160Y17228824D01*
X7189977Y17700007D01*
X6780399Y17869660D01*
X7189977Y18039313D01*
X7661160Y18510496D01*
X9524879Y18510496D01*
X9699351Y18354681D01*
X10347886Y18324231D01*
X10500969Y18354681D01*
X10675441Y18510496D01*
X25324879Y18510496D01*
X25499351Y18354681D01*
X26147886Y18324231D01*
X26300969Y18354681D01*
X26475441Y18510496D01*
X25900160Y19085777D01*
X25324879Y18510496D01*
X10675441Y18510496D01*
X10100160Y19085777D01*
X9524879Y18510496D01*
X7661160Y18510496D01*
X7830507Y18679843D01*
X8177160Y19516737D01*
X8177160Y19721934D01*
X8454731Y19721934D01*
X8485181Y19568851D01*
X8640996Y19394379D01*
X9216277Y19969660D01*
X10984043Y19969660D01*
X11559324Y19394379D01*
X11715139Y19568851D01*
X11722326Y19721934D01*
X24254731Y19721934D01*
X24285181Y19568851D01*
X24440996Y19394379D01*
X25016277Y19969660D01*
X26784043Y19969660D01*
X27359324Y19394379D01*
X27515139Y19568851D01*
X27545589Y20217386D01*
X27515139Y20370469D01*
X27359324Y20544941D01*
X26784043Y19969660D01*
X25016277Y19969660D01*
X24440996Y20544941D01*
X24285181Y20370469D01*
X24254731Y19721934D01*
X11722326Y19721934D01*
X11745589Y20217386D01*
X11715139Y20370469D01*
X11559324Y20544941D01*
X10984043Y19969660D01*
X9216277Y19969660D01*
X8640996Y20544941D01*
X8485181Y20370469D01*
X8454731Y19721934D01*
X8177160Y19721934D01*
X8177160Y20422583D01*
X7830507Y21259477D01*
X7661160Y21428824D01*
X9524879Y21428824D01*
X10100160Y20853543D01*
X10675441Y21428824D01*
X25324879Y21428824D01*
X25900160Y20853543D01*
X26475441Y21428824D01*
X26300969Y21584639D01*
X25652434Y21615089D01*
X25499351Y21584639D01*
X25324879Y21428824D01*
X10675441Y21428824D01*
X10500969Y21584639D01*
X9852434Y21615089D01*
X9699351Y21584639D01*
X9524879Y21428824D01*
X7661160Y21428824D01*
X7189977Y21900007D01*
X7156767Y21913763D01*
X7614818Y22103494D01*
X8466326Y22955002D01*
X8927160Y24067552D01*
X8927160Y25271768D01*
X27073160Y25271768D01*
X27073160Y24067552D01*
X27533994Y22955002D01*
X28385502Y22103494D01*
X28843553Y21913763D01*
X28810343Y21900007D01*
X28169813Y21259477D01*
X27823160Y20422583D01*
X27823160Y19516737D01*
X28169813Y18679843D01*
X28810343Y18039313D01*
X29219921Y17869660D01*
X28810343Y17700007D01*
X28169813Y17059477D01*
X27823160Y16222583D01*
X27823160Y15316737D01*
X28169813Y14479843D01*
X28810343Y13839313D01*
X29219921Y13669660D01*
X28810343Y13500007D01*
X28169813Y12859477D01*
X27823160Y12022583D01*
X27823160Y11116737D01*
X28169813Y10279843D01*
X28810343Y9639313D01*
X28843553Y9625557D01*
X28385502Y9435826D01*
X27533994Y8584318D01*
X27073160Y7471768D01*
X27073160Y6267552D01*
X27533994Y5155002D01*
X28385502Y4303494D01*
X29498052Y3842660D01*
X30702268Y3842660D01*
X31814818Y4303494D01*
X32666326Y5155002D01*
X33127160Y6267552D01*
X33127160Y7471768D01*
X32666326Y8584318D01*
X31814818Y9435826D01*
X31356767Y9625557D01*
X31389977Y9639313D01*
X32030507Y10279843D01*
X32377160Y11116737D01*
X32377160Y12022583D01*
X32030507Y12859477D01*
X31389977Y13500007D01*
X30980399Y13669660D01*
X31389977Y13839313D01*
X32030507Y14479843D01*
X32377160Y15316737D01*
X32377160Y16222583D01*
X32030507Y17059477D01*
X31389977Y17700007D01*
X30980399Y17869660D01*
X31389977Y18039313D01*
X32030507Y18679843D01*
X32377160Y19516737D01*
X32377160Y20422583D01*
X32030507Y21259477D01*
X31389977Y21900007D01*
X31356767Y21913763D01*
X31814818Y22103494D01*
X32666326Y22955002D01*
X33127160Y24067552D01*
X33127160Y25271768D01*
X32666326Y26384318D01*
X31814818Y27235826D01*
X30702268Y27696660D01*
X29498052Y27696660D01*
X28385502Y27235826D01*
X27533994Y26384318D01*
X27073160Y25271768D01*
X8927160Y25271768D01*
X8466326Y26384318D01*
X7614818Y27235826D01*
X6502268Y27696660D01*
X5298052Y27696660D01*
X4185502Y27235826D01*
X3333994Y26384318D01*
X2873160Y25271768D01*
X-3897840Y25271768D01*
X-3897840Y54104368D01*
X2873160Y54104368D01*
X2873160Y52900152D01*
X3333994Y51787602D01*
X4185502Y50936094D01*
X4643553Y50746363D01*
X4610343Y50732607D01*
X3969813Y50092077D01*
X3623160Y49255183D01*
X3623160Y48349337D01*
X3969813Y47512443D01*
X4610343Y46871913D01*
X5019921Y46702260D01*
X4610343Y46532607D01*
X3969813Y45892077D01*
X3623160Y45055183D01*
X3623160Y44149337D01*
X3969813Y43312443D01*
X4610343Y42671913D01*
X5019921Y42502260D01*
X4610343Y42332607D01*
X3969813Y41692077D01*
X3623160Y40855183D01*
X3623160Y39949337D01*
X3969813Y39112443D01*
X4610343Y38471913D01*
X4643553Y38458157D01*
X4185502Y38268426D01*
X3333994Y37416918D01*
X2873160Y36304368D01*
X2873160Y35100152D01*
X3333994Y33987602D01*
X4185502Y33136094D01*
X5298052Y32675260D01*
X6502268Y32675260D01*
X7614818Y33136094D01*
X8466326Y33987602D01*
X8927160Y35100152D01*
X8927160Y36304368D01*
X8466326Y37416918D01*
X7614818Y38268426D01*
X7156767Y38458157D01*
X7189977Y38471913D01*
X7661160Y38943096D01*
X9524879Y38943096D01*
X9699351Y38787281D01*
X10347886Y38756831D01*
X10500969Y38787281D01*
X10675441Y38943096D01*
X25324879Y38943096D01*
X25499351Y38787281D01*
X26147886Y38756831D01*
X26300969Y38787281D01*
X26475441Y38943096D01*
X25900160Y39518377D01*
X25324879Y38943096D01*
X10675441Y38943096D01*
X10100160Y39518377D01*
X9524879Y38943096D01*
X7661160Y38943096D01*
X7830507Y39112443D01*
X8177160Y39949337D01*
X8177160Y40154534D01*
X8454731Y40154534D01*
X8485181Y40001451D01*
X8640996Y39826979D01*
X9216277Y40402260D01*
X10984043Y40402260D01*
X11559324Y39826979D01*
X11715139Y40001451D01*
X11722326Y40154534D01*
X24254731Y40154534D01*
X24285181Y40001451D01*
X24440996Y39826979D01*
X25016277Y40402260D01*
X26784043Y40402260D01*
X27359324Y39826979D01*
X27515139Y40001451D01*
X27545589Y40649986D01*
X27515139Y40803069D01*
X27359324Y40977541D01*
X26784043Y40402260D01*
X25016277Y40402260D01*
X24440996Y40977541D01*
X24285181Y40803069D01*
X24254731Y40154534D01*
X11722326Y40154534D01*
X11745589Y40649986D01*
X11715139Y40803069D01*
X11559324Y40977541D01*
X10984043Y40402260D01*
X9216277Y40402260D01*
X8640996Y40977541D01*
X8485181Y40803069D01*
X8454731Y40154534D01*
X8177160Y40154534D01*
X8177160Y40855183D01*
X7830507Y41692077D01*
X7661160Y41861424D01*
X9524879Y41861424D01*
X10100160Y41286143D01*
X10675441Y41861424D01*
X25324879Y41861424D01*
X25900160Y41286143D01*
X26475441Y41861424D01*
X26300969Y42017239D01*
X25652434Y42047689D01*
X25499351Y42017239D01*
X25324879Y41861424D01*
X10675441Y41861424D01*
X10500969Y42017239D01*
X9852434Y42047689D01*
X9699351Y42017239D01*
X9524879Y41861424D01*
X7661160Y41861424D01*
X7189977Y42332607D01*
X6780399Y42502260D01*
X7189977Y42671913D01*
X7661160Y43143096D01*
X9524879Y43143096D01*
X9699351Y42987281D01*
X10347886Y42956831D01*
X10500969Y42987281D01*
X10675441Y43143096D01*
X25324879Y43143096D01*
X25499351Y42987281D01*
X26147886Y42956831D01*
X26300969Y42987281D01*
X26475441Y43143096D01*
X25900160Y43718377D01*
X25324879Y43143096D01*
X10675441Y43143096D01*
X10100160Y43718377D01*
X9524879Y43143096D01*
X7661160Y43143096D01*
X7830507Y43312443D01*
X8177160Y44149337D01*
X8177160Y44354534D01*
X8454731Y44354534D01*
X8485181Y44201451D01*
X8640996Y44026979D01*
X9216277Y44602260D01*
X10984043Y44602260D01*
X11559324Y44026979D01*
X11715139Y44201451D01*
X11722326Y44354534D01*
X24254731Y44354534D01*
X24285181Y44201451D01*
X24440996Y44026979D01*
X25016277Y44602260D01*
X26784043Y44602260D01*
X27359324Y44026979D01*
X27515139Y44201451D01*
X27545589Y44849986D01*
X27515139Y45003069D01*
X27359324Y45177541D01*
X26784043Y44602260D01*
X25016277Y44602260D01*
X24440996Y45177541D01*
X24285181Y45003069D01*
X24254731Y44354534D01*
X11722326Y44354534D01*
X11745589Y44849986D01*
X11715139Y45003069D01*
X11559324Y45177541D01*
X10984043Y44602260D01*
X9216277Y44602260D01*
X8640996Y45177541D01*
X8485181Y45003069D01*
X8454731Y44354534D01*
X8177160Y44354534D01*
X8177160Y45055183D01*
X7830507Y45892077D01*
X7661160Y46061424D01*
X9524879Y46061424D01*
X10100160Y45486143D01*
X10675441Y46061424D01*
X25324879Y46061424D01*
X25900160Y45486143D01*
X26475441Y46061424D01*
X26300969Y46217239D01*
X25652434Y46247689D01*
X25499351Y46217239D01*
X25324879Y46061424D01*
X10675441Y46061424D01*
X10500969Y46217239D01*
X9852434Y46247689D01*
X9699351Y46217239D01*
X9524879Y46061424D01*
X7661160Y46061424D01*
X7189977Y46532607D01*
X6780399Y46702260D01*
X7189977Y46871913D01*
X7661160Y47343096D01*
X9524879Y47343096D01*
X9699351Y47187281D01*
X10347886Y47156831D01*
X10500969Y47187281D01*
X10675441Y47343096D01*
X25324879Y47343096D01*
X25499351Y47187281D01*
X26147886Y47156831D01*
X26300969Y47187281D01*
X26475441Y47343096D01*
X25900160Y47918377D01*
X25324879Y47343096D01*
X10675441Y47343096D01*
X10100160Y47918377D01*
X9524879Y47343096D01*
X7661160Y47343096D01*
X7830507Y47512443D01*
X8177160Y48349337D01*
X8177160Y48554534D01*
X8454731Y48554534D01*
X8485181Y48401451D01*
X8640996Y48226979D01*
X9216277Y48802260D01*
X10984043Y48802260D01*
X11559324Y48226979D01*
X11715139Y48401451D01*
X11722326Y48554534D01*
X24254731Y48554534D01*
X24285181Y48401451D01*
X24440996Y48226979D01*
X25016277Y48802260D01*
X26784043Y48802260D01*
X27359324Y48226979D01*
X27515139Y48401451D01*
X27545589Y49049986D01*
X27515139Y49203069D01*
X27359324Y49377541D01*
X26784043Y48802260D01*
X25016277Y48802260D01*
X24440996Y49377541D01*
X24285181Y49203069D01*
X24254731Y48554534D01*
X11722326Y48554534D01*
X11745589Y49049986D01*
X11715139Y49203069D01*
X11559324Y49377541D01*
X10984043Y48802260D01*
X9216277Y48802260D01*
X8640996Y49377541D01*
X8485181Y49203069D01*
X8454731Y48554534D01*
X8177160Y48554534D01*
X8177160Y49255183D01*
X7830507Y50092077D01*
X7661160Y50261424D01*
X9524879Y50261424D01*
X10100160Y49686143D01*
X10675441Y50261424D01*
X25324879Y50261424D01*
X25900160Y49686143D01*
X26475441Y50261424D01*
X26300969Y50417239D01*
X25652434Y50447689D01*
X25499351Y50417239D01*
X25324879Y50261424D01*
X10675441Y50261424D01*
X10500969Y50417239D01*
X9852434Y50447689D01*
X9699351Y50417239D01*
X9524879Y50261424D01*
X7661160Y50261424D01*
X7189977Y50732607D01*
X7156767Y50746363D01*
X7614818Y50936094D01*
X8466326Y51787602D01*
X8927160Y52900152D01*
X8927160Y54104368D01*
X27073160Y54104368D01*
X27073160Y52900152D01*
X27533994Y51787602D01*
X28385502Y50936094D01*
X28843553Y50746363D01*
X28810343Y50732607D01*
X28169813Y50092077D01*
X27823160Y49255183D01*
X27823160Y48349337D01*
X28169813Y47512443D01*
X28810343Y46871913D01*
X29219921Y46702260D01*
X28810343Y46532607D01*
X28169813Y45892077D01*
X27823160Y45055183D01*
X27823160Y44149337D01*
X28169813Y43312443D01*
X28810343Y42671913D01*
X29219921Y42502260D01*
X28810343Y42332607D01*
X28169813Y41692077D01*
X27823160Y40855183D01*
X27823160Y39949337D01*
X28169813Y39112443D01*
X28810343Y38471913D01*
X28843553Y38458157D01*
X28385502Y38268426D01*
X27533994Y37416918D01*
X27073160Y36304368D01*
X27073160Y35100152D01*
X27533994Y33987602D01*
X28385502Y33136094D01*
X29498052Y32675260D01*
X30702268Y32675260D01*
X31814818Y33136094D01*
X32666326Y33987602D01*
X33127160Y35100152D01*
X33127160Y36304368D01*
X32666326Y37416918D01*
X31814818Y38268426D01*
X31356767Y38458157D01*
X31389977Y38471913D01*
X32030507Y39112443D01*
X32377160Y39949337D01*
X32377160Y40855183D01*
X32030507Y41692077D01*
X31389977Y42332607D01*
X30980399Y42502260D01*
X31389977Y42671913D01*
X32030507Y43312443D01*
X32377160Y44149337D01*
X32377160Y45055183D01*
X32030507Y45892077D01*
X31389977Y46532607D01*
X30980399Y46702260D01*
X31389977Y46871913D01*
X32030507Y47512443D01*
X32377160Y48349337D01*
X32377160Y49255183D01*
X32030507Y50092077D01*
X31389977Y50732607D01*
X31356767Y50746363D01*
X31814818Y50936094D01*
X32666326Y51787602D01*
X33127160Y52900152D01*
X33127160Y54104368D01*
X32666326Y55216918D01*
X31814818Y56068426D01*
X30702268Y56529260D01*
X29498052Y56529260D01*
X28385502Y56068426D01*
X27533994Y55216918D01*
X27073160Y54104368D01*
X8927160Y54104368D01*
X8466326Y55216918D01*
X7614818Y56068426D01*
X6502268Y56529260D01*
X5298052Y56529260D01*
X4185502Y56068426D01*
X3333994Y55216918D01*
X2873160Y54104368D01*
X-3897840Y54104368D01*
X-3897840Y56789460D01*
X33593820Y56789460D01*
X33593820Y55519460D01*
X33673527Y55118745D01*
X33900514Y54779034D01*
X34240225Y54552047D01*
X34383940Y54523460D01*
X34383941Y51417334D01*
X34354026Y51266940D01*
X34472538Y50671135D01*
X34684170Y50354406D01*
X34810036Y50166035D01*
X34937532Y50080845D01*
X36445871Y48572504D01*
X36823474Y48320198D01*
X37419280Y48201686D01*
X38015085Y48320198D01*
X38520185Y48657695D01*
X38857682Y49162795D01*
X38976194Y49758600D01*
X38857682Y50354406D01*
X38605376Y50732009D01*
X37437940Y51899444D01*
X37437940Y52333742D01*
X37909509Y51862173D01*
X38838288Y51477460D01*
X39843592Y51477460D01*
X40772371Y51862173D01*
X41483227Y52573029D01*
X41867940Y53501808D01*
X41867940Y54507112D01*
X41483227Y55435891D01*
X40772371Y56146747D01*
X39843592Y56531460D01*
X38838288Y56531460D01*
X38228060Y56278695D01*
X38228060Y56789460D01*
X38148353Y57190175D01*
X37921366Y57529886D01*
X37581655Y57756873D01*
X37180940Y57836580D01*
X34640940Y57836580D01*
X34240225Y57756873D01*
X33900514Y57529886D01*
X33673527Y57190175D01*
X33593820Y56789460D01*
X-3897840Y56789460D01*
X-3897840Y62304368D01*
X2873160Y62304368D01*
X2873160Y61100152D01*
X3333994Y59987602D01*
X4185502Y59136094D01*
X5298052Y58675260D01*
X6502268Y58675260D01*
X7614818Y59136094D01*
X8466326Y59987602D01*
X8927160Y61100152D01*
X8927160Y62304368D01*
X27073160Y62304368D01*
X27073160Y61100152D01*
X27533994Y59987602D01*
X28385502Y59136094D01*
X29498052Y58675260D01*
X30702268Y58675260D01*
X30862088Y58741460D01*
X34258940Y58741460D01*
X34258940Y58443475D01*
X34317096Y58303074D01*
X34424555Y58195616D01*
X34564956Y58137460D01*
X35180440Y58137460D01*
X35275940Y58232960D01*
X35275940Y58836960D01*
X36545940Y58836960D01*
X36545940Y58232960D01*
X36641440Y58137460D01*
X37256924Y58137460D01*
X37397325Y58195616D01*
X37504784Y58303074D01*
X37562940Y58443475D01*
X37562940Y58741460D01*
X37467440Y58836960D01*
X36545940Y58836960D01*
X35275940Y58836960D01*
X34354440Y58836960D01*
X34258940Y58741460D01*
X30862088Y58741460D01*
X31814818Y59136094D01*
X32544169Y59865445D01*
X34258940Y59865445D01*
X34258940Y59567460D01*
X34354440Y59471960D01*
X35275940Y59471960D01*
X35275940Y60075960D01*
X36545940Y60075960D01*
X36545940Y59471960D01*
X37467440Y59471960D01*
X37533581Y59538101D01*
X37909509Y59162173D01*
X38838288Y58777460D01*
X39843592Y58777460D01*
X40772371Y59162173D01*
X41483227Y59873029D01*
X41867940Y60801808D01*
X41867940Y61232560D01*
X43778760Y61232560D01*
X43778760Y53752075D01*
X43836916Y53611674D01*
X43944375Y53504216D01*
X44084776Y53446060D01*
X66565260Y53446060D01*
X66660760Y53541560D01*
X66660760Y61231081D01*
X70202281Y61231081D01*
X71356085Y60877695D01*
X73644235Y60877695D01*
X74798039Y61231081D01*
X110202281Y61231081D01*
X111356085Y60877695D01*
X111660760Y60877695D01*
X111660760Y53541560D01*
X111756260Y53446060D01*
X134236744Y53446060D01*
X134377145Y53504216D01*
X134484604Y53611674D01*
X134542760Y53752075D01*
X134542760Y61232560D01*
X134447260Y61328060D01*
X114701060Y61328060D01*
X112500160Y63528959D01*
X110202281Y61231081D01*
X74798039Y61231081D01*
X72500160Y63528959D01*
X70202281Y61231081D01*
X66660760Y61231081D01*
X66660760Y61328060D01*
X43874260Y61328060D01*
X43778760Y61232560D01*
X41867940Y61232560D01*
X41867940Y61807112D01*
X41483227Y62735891D01*
X40772371Y63446747D01*
X39843592Y63831460D01*
X38838288Y63831460D01*
X37909509Y63446747D01*
X37198653Y62735891D01*
X36813940Y61807112D01*
X36813940Y60801808D01*
X37075039Y60171460D01*
X36641440Y60171460D01*
X36545940Y60075960D01*
X35275940Y60075960D01*
X35180440Y60171460D01*
X34564956Y60171460D01*
X34424555Y60113304D01*
X34317096Y60005846D01*
X34258940Y59865445D01*
X32544169Y59865445D01*
X32666326Y59987602D01*
X33127160Y61100152D01*
X33127160Y62304368D01*
X32666326Y63416918D01*
X31814818Y64268426D01*
X30702268Y64729260D01*
X29498052Y64729260D01*
X28385502Y64268426D01*
X27533994Y63416918D01*
X27073160Y62304368D01*
X8927160Y62304368D01*
X8466326Y63416918D01*
X7614818Y64268426D01*
X6502268Y64729260D01*
X5298052Y64729260D01*
X4185502Y64268426D01*
X3333994Y63416918D01*
X2873160Y62304368D01*
X-3897840Y62304368D01*
X-3897840Y64943096D01*
X5524879Y64943096D01*
X5699351Y64787281D01*
X6347886Y64756831D01*
X6500969Y64787281D01*
X6675441Y64943096D01*
X6100160Y65518377D01*
X5524879Y64943096D01*
X-3897840Y64943096D01*
X-3897840Y66154534D01*
X4454731Y66154534D01*
X4485181Y66001451D01*
X4640996Y65826979D01*
X5216277Y66402260D01*
X6984043Y66402260D01*
X7559324Y65826979D01*
X7715139Y66001451D01*
X7745589Y66649986D01*
X7715139Y66803069D01*
X7559324Y66977541D01*
X6984043Y66402260D01*
X5216277Y66402260D01*
X4640996Y66977541D01*
X4485181Y66803069D01*
X4454731Y66154534D01*
X-3897840Y66154534D01*
X-3897840Y67861424D01*
X5524879Y67861424D01*
X6100160Y67286143D01*
X6675441Y67861424D01*
X6500969Y68017239D01*
X5852434Y68047689D01*
X5699351Y68017239D01*
X5524879Y67861424D01*
X-3897840Y67861424D01*
X-3897840Y69143096D01*
X5524879Y69143096D01*
X5699351Y68987281D01*
X6347886Y68956831D01*
X6500969Y68987281D01*
X6675441Y69143096D01*
X6100160Y69718377D01*
X5524879Y69143096D01*
X-3897840Y69143096D01*
X-3897840Y70354534D01*
X4454731Y70354534D01*
X4485181Y70201451D01*
X4640996Y70026979D01*
X5216277Y70602260D01*
X6984043Y70602260D01*
X7559324Y70026979D01*
X7715139Y70201451D01*
X7745589Y70849986D01*
X7715139Y71003069D01*
X7559324Y71177541D01*
X6984043Y70602260D01*
X5216277Y70602260D01*
X4640996Y71177541D01*
X4485181Y71003069D01*
X4454731Y70354534D01*
X-3897840Y70354534D01*
X-3897840Y72061424D01*
X5524879Y72061424D01*
X6100160Y71486143D01*
X6675441Y72061424D01*
X6500969Y72217239D01*
X5852434Y72247689D01*
X5699351Y72217239D01*
X5524879Y72061424D01*
X-3897840Y72061424D01*
X-3897840Y73343096D01*
X5524879Y73343096D01*
X5699351Y73187281D01*
X6347886Y73156831D01*
X6500969Y73187281D01*
X6675441Y73343096D01*
X6100160Y73918377D01*
X5524879Y73343096D01*
X-3897840Y73343096D01*
X-3897840Y74554534D01*
X4454731Y74554534D01*
X4485181Y74401451D01*
X4640996Y74226979D01*
X5216277Y74802260D01*
X6984043Y74802260D01*
X7559324Y74226979D01*
X7715139Y74401451D01*
X7745589Y75049986D01*
X7715139Y75203069D01*
X7559324Y75377541D01*
X6984043Y74802260D01*
X5216277Y74802260D01*
X4640996Y75377541D01*
X4485181Y75203069D01*
X4454731Y74554534D01*
X-3897840Y74554534D01*
X-3897840Y76261424D01*
X5524879Y76261424D01*
X6100160Y75686143D01*
X6675441Y76261424D01*
X6500969Y76417239D01*
X5852434Y76447689D01*
X5699351Y76417239D01*
X5524879Y76261424D01*
X-3897840Y76261424D01*
X-3897840Y77543096D01*
X5524879Y77543096D01*
X5699351Y77387281D01*
X6347886Y77356831D01*
X6500969Y77387281D01*
X6675441Y77543096D01*
X6100160Y78118377D01*
X5524879Y77543096D01*
X-3897840Y77543096D01*
X-3897840Y78754534D01*
X4454731Y78754534D01*
X4485181Y78601451D01*
X4640996Y78426979D01*
X5216277Y79002260D01*
X6984043Y79002260D01*
X7559324Y78426979D01*
X7715139Y78601451D01*
X7745589Y79249986D01*
X7715139Y79403069D01*
X7668598Y79455183D01*
X8023160Y79455183D01*
X8023160Y78549337D01*
X8369813Y77712443D01*
X9010343Y77071913D01*
X9419921Y76902260D01*
X9010343Y76732607D01*
X8369813Y76092077D01*
X8023160Y75255183D01*
X8023160Y74349337D01*
X8369813Y73512443D01*
X9010343Y72871913D01*
X9419921Y72702260D01*
X9010343Y72532607D01*
X8369813Y71892077D01*
X8023160Y71055183D01*
X8023160Y70149337D01*
X8369813Y69312443D01*
X9010343Y68671913D01*
X9419921Y68502260D01*
X9010343Y68332607D01*
X8369813Y67692077D01*
X8023160Y66855183D01*
X8023160Y65949337D01*
X8369813Y65112443D01*
X9010343Y64471913D01*
X9847237Y64125260D01*
X10753083Y64125260D01*
X11589977Y64471913D01*
X12230507Y65112443D01*
X12577160Y65949337D01*
X12577160Y66855183D01*
X12230507Y67692077D01*
X11589977Y68332607D01*
X11180399Y68502260D01*
X11589977Y68671913D01*
X12230507Y69312443D01*
X12577160Y70149337D01*
X12577160Y71055183D01*
X12230507Y71892077D01*
X11589977Y72532607D01*
X11180399Y72702260D01*
X11589977Y72871913D01*
X12230507Y73512443D01*
X12577160Y74349337D01*
X12577160Y75255183D01*
X12230507Y76092077D01*
X11589977Y76732607D01*
X11180399Y76902260D01*
X11589977Y77071913D01*
X12230507Y77712443D01*
X12577160Y78549337D01*
X12577160Y79455183D01*
X23423160Y79455183D01*
X23423160Y78549337D01*
X23769813Y77712443D01*
X24410343Y77071913D01*
X24819921Y76902260D01*
X24410343Y76732607D01*
X23769813Y76092077D01*
X23423160Y75255183D01*
X23423160Y74349337D01*
X23769813Y73512443D01*
X24410343Y72871913D01*
X24819921Y72702260D01*
X24410343Y72532607D01*
X23769813Y71892077D01*
X23423160Y71055183D01*
X23423160Y70149337D01*
X23769813Y69312443D01*
X24410343Y68671913D01*
X24819921Y68502260D01*
X24410343Y68332607D01*
X23769813Y67692077D01*
X23423160Y66855183D01*
X23423160Y65949337D01*
X23769813Y65112443D01*
X24410343Y64471913D01*
X25247237Y64125260D01*
X26153083Y64125260D01*
X26989977Y64471913D01*
X27461160Y64943096D01*
X29324879Y64943096D01*
X29499351Y64787281D01*
X30147886Y64756831D01*
X30300969Y64787281D01*
X30475441Y64943096D01*
X29900160Y65518377D01*
X29324879Y64943096D01*
X27461160Y64943096D01*
X27630507Y65112443D01*
X27977160Y65949337D01*
X27977160Y66154534D01*
X28254731Y66154534D01*
X28285181Y66001451D01*
X28440996Y65826979D01*
X29016277Y66402260D01*
X30784043Y66402260D01*
X31359324Y65826979D01*
X31515139Y66001451D01*
X31545589Y66649986D01*
X31515139Y66803069D01*
X31359324Y66977541D01*
X30784043Y66402260D01*
X29016277Y66402260D01*
X28440996Y66977541D01*
X28285181Y66803069D01*
X28254731Y66154534D01*
X27977160Y66154534D01*
X27977160Y66855183D01*
X27630507Y67692077D01*
X27461160Y67861424D01*
X29324879Y67861424D01*
X29900160Y67286143D01*
X30475441Y67861424D01*
X30300969Y68017239D01*
X29652434Y68047689D01*
X29499351Y68017239D01*
X29324879Y67861424D01*
X27461160Y67861424D01*
X26989977Y68332607D01*
X26580399Y68502260D01*
X26989977Y68671913D01*
X27461160Y69143096D01*
X29324879Y69143096D01*
X29499351Y68987281D01*
X30147886Y68956831D01*
X30300969Y68987281D01*
X30475441Y69143096D01*
X29900160Y69718377D01*
X29324879Y69143096D01*
X27461160Y69143096D01*
X27630507Y69312443D01*
X27905500Y69976335D01*
X64545595Y69976335D01*
X64545595Y67688185D01*
X64898981Y66534381D01*
X67196859Y68832260D01*
X77803461Y68832260D01*
X80101339Y66534381D01*
X80454725Y67688185D01*
X80454725Y69976335D01*
X104545595Y69976335D01*
X104545595Y67688185D01*
X104898981Y66534381D01*
X107196859Y68832260D01*
X117803461Y68832260D01*
X120101339Y66534381D01*
X120454725Y67688185D01*
X120454725Y69976335D01*
X120101339Y71130139D01*
X117803461Y68832260D01*
X107196859Y68832260D01*
X104898981Y71130139D01*
X104545595Y69976335D01*
X80454725Y69976335D01*
X80101339Y71130139D01*
X77803461Y68832260D01*
X67196859Y68832260D01*
X64898981Y71130139D01*
X64545595Y69976335D01*
X27905500Y69976335D01*
X27977160Y70149337D01*
X27977160Y70354534D01*
X28254731Y70354534D01*
X28285181Y70201451D01*
X28440996Y70026979D01*
X29016277Y70602260D01*
X30784043Y70602260D01*
X31359324Y70026979D01*
X31515139Y70201451D01*
X31545589Y70849986D01*
X31515139Y71003069D01*
X31359324Y71177541D01*
X30784043Y70602260D01*
X29016277Y70602260D01*
X28440996Y71177541D01*
X28285181Y71003069D01*
X28254731Y70354534D01*
X27977160Y70354534D01*
X27977160Y71055183D01*
X27630507Y71892077D01*
X27461160Y72061424D01*
X29324879Y72061424D01*
X29900160Y71486143D01*
X30475441Y72061424D01*
X30300969Y72217239D01*
X29652434Y72247689D01*
X29499351Y72217239D01*
X29324879Y72061424D01*
X27461160Y72061424D01*
X26989977Y72532607D01*
X26580399Y72702260D01*
X26989977Y72871913D01*
X27461160Y73343096D01*
X29324879Y73343096D01*
X29499351Y73187281D01*
X30147886Y73156831D01*
X30300969Y73187281D01*
X30475441Y73343096D01*
X29900160Y73918377D01*
X29324879Y73343096D01*
X27461160Y73343096D01*
X27630507Y73512443D01*
X27977160Y74349337D01*
X27977160Y74554534D01*
X28254731Y74554534D01*
X28285181Y74401451D01*
X28440996Y74226979D01*
X29016277Y74802260D01*
X30784043Y74802260D01*
X31359324Y74226979D01*
X31515139Y74401451D01*
X31545589Y75049986D01*
X31515139Y75203069D01*
X31359324Y75377541D01*
X30784043Y74802260D01*
X29016277Y74802260D01*
X28440996Y75377541D01*
X28285181Y75203069D01*
X28254731Y74554534D01*
X27977160Y74554534D01*
X27977160Y75255183D01*
X27630507Y76092077D01*
X27461160Y76261424D01*
X29324879Y76261424D01*
X29900160Y75686143D01*
X30475441Y76261424D01*
X30300969Y76417239D01*
X29652434Y76447689D01*
X29499351Y76417239D01*
X29324879Y76261424D01*
X27461160Y76261424D01*
X26989977Y76732607D01*
X26580399Y76902260D01*
X26989977Y77071913D01*
X27461160Y77543096D01*
X29324879Y77543096D01*
X29499351Y77387281D01*
X30147886Y77356831D01*
X30300969Y77387281D01*
X30475441Y77543096D01*
X29900160Y78118377D01*
X29324879Y77543096D01*
X27461160Y77543096D01*
X27630507Y77712443D01*
X27977160Y78549337D01*
X27977160Y78754534D01*
X28254731Y78754534D01*
X28285181Y78601451D01*
X28440996Y78426979D01*
X29016277Y79002260D01*
X30784043Y79002260D01*
X31359324Y78426979D01*
X31515139Y78601451D01*
X31545589Y79249986D01*
X31515139Y79403069D01*
X31359324Y79577541D01*
X30784043Y79002260D01*
X29016277Y79002260D01*
X28440996Y79577541D01*
X28285181Y79403069D01*
X28254731Y78754534D01*
X27977160Y78754534D01*
X27977160Y79455183D01*
X27630507Y80292077D01*
X27461160Y80461424D01*
X29324879Y80461424D01*
X29900160Y79886143D01*
X30475441Y80461424D01*
X30300969Y80617239D01*
X29652434Y80647689D01*
X29499351Y80617239D01*
X29324879Y80461424D01*
X27461160Y80461424D01*
X26989977Y80932607D01*
X26153083Y81279260D01*
X25247237Y81279260D01*
X24410343Y80932607D01*
X23769813Y80292077D01*
X23423160Y79455183D01*
X12577160Y79455183D01*
X12230507Y80292077D01*
X11589977Y80932607D01*
X10753083Y81279260D01*
X9847237Y81279260D01*
X9010343Y80932607D01*
X8369813Y80292077D01*
X8023160Y79455183D01*
X7668598Y79455183D01*
X7559324Y79577541D01*
X6984043Y79002260D01*
X5216277Y79002260D01*
X4640996Y79577541D01*
X4485181Y79403069D01*
X4454731Y78754534D01*
X-3897840Y78754534D01*
X-3897840Y80461424D01*
X5524879Y80461424D01*
X6100160Y79886143D01*
X6675441Y80461424D01*
X6500969Y80617239D01*
X5852434Y80647689D01*
X5699351Y80617239D01*
X5524879Y80461424D01*
X-3897840Y80461424D01*
X-3897840Y84304368D01*
X2873160Y84304368D01*
X2873160Y83100152D01*
X3333994Y81987602D01*
X4185502Y81136094D01*
X5298052Y80675260D01*
X6502268Y80675260D01*
X7614818Y81136094D01*
X8466326Y81987602D01*
X8927160Y83100152D01*
X8927160Y84304368D01*
X27073160Y84304368D01*
X27073160Y83100152D01*
X27533994Y81987602D01*
X28385502Y81136094D01*
X29498052Y80675260D01*
X30702268Y80675260D01*
X31814818Y81136094D01*
X32666326Y81987602D01*
X33127160Y83100152D01*
X33127160Y83904045D01*
X43778760Y83904045D01*
X43778760Y76423560D01*
X43874260Y76328060D01*
X66660760Y76328060D01*
X66660760Y76433439D01*
X70202281Y76433439D01*
X72500160Y74135561D01*
X74798039Y76433439D01*
X110202281Y76433439D01*
X112500160Y74135561D01*
X114692660Y76328060D01*
X134447260Y76328060D01*
X134542760Y76423560D01*
X134542760Y83904045D01*
X134484604Y84044446D01*
X134377145Y84151904D01*
X134236744Y84210060D01*
X111756260Y84210060D01*
X111660760Y84114560D01*
X111660760Y76786825D01*
X111356085Y76786825D01*
X110202281Y76433439D01*
X74798039Y76433439D01*
X73644235Y76786825D01*
X71356085Y76786825D01*
X70202281Y76433439D01*
X66660760Y76433439D01*
X66660760Y84114560D01*
X66565260Y84210060D01*
X44084776Y84210060D01*
X43944375Y84151904D01*
X43836916Y84044446D01*
X43778760Y83904045D01*
X33127160Y83904045D01*
X33127160Y84304368D01*
X32666326Y85416918D01*
X31814818Y86268426D01*
X30702268Y86729260D01*
X29498052Y86729260D01*
X28385502Y86268426D01*
X27533994Y85416918D01*
X27073160Y84304368D01*
X8927160Y84304368D01*
X8466326Y85416918D01*
X7614818Y86268426D01*
X6502268Y86729260D01*
X5298052Y86729260D01*
X4185502Y86268426D01*
X3333994Y85416918D01*
X2873160Y84304368D01*
X-3897840Y84304368D01*
X-3897840Y90703824D01*
X-3526840Y90703824D01*
X-3526840Y89300696D01*
X-2989886Y88004375D01*
X-1997725Y87012214D01*
X-701404Y86475260D01*
X701724Y86475260D01*
X1998045Y87012214D01*
X2990206Y88004375D01*
X3527160Y89300696D01*
X3527160Y90703824D01*
X136473160Y90703824D01*
X136473160Y89300696D01*
X137010114Y88004375D01*
X138002275Y87012214D01*
X139298596Y86475260D01*
X140701724Y86475260D01*
X141998045Y87012214D01*
X142990206Y88004375D01*
X143527160Y89300696D01*
X143527160Y90703824D01*
X142990206Y92000145D01*
X141998045Y92992306D01*
X140701724Y93529260D01*
X139298596Y93529260D01*
X138002275Y92992306D01*
X137010114Y92000145D01*
X136473160Y90703824D01*
X3527160Y90703824D01*
X2990206Y92000145D01*
X1998045Y92992306D01*
X701724Y93529260D01*
X-701404Y93529260D01*
X-1997725Y92992306D01*
X-2989886Y92000145D01*
X-3526840Y90703824D01*
X-3897840Y90703824D01*
X-3897840Y92545798D01*
X-2543377Y93900260D01*
X142543698Y93900260D01*
X143898160Y92545797D01*
X143898160Y92545797D01*
G37*
X143898160Y92545797D02*
X143898161Y42819149D01*
X135185215Y42755580D01*
X41007388Y42755580D01*
X40969080Y42763200D01*
X40155112Y42601292D01*
X39465064Y42140216D01*
X36221484Y38896636D01*
X35760408Y38206588D01*
X35598500Y37392620D01*
X35598500Y2266960D01*
X35760408Y1452992D01*
X36221484Y762944D01*
X40880168Y-3895740D01*
X-2543377Y-3895740D01*
X-3897840Y-2541278D01*
X-3897840Y703824D01*
X-3526840Y703824D01*
X-3526840Y-699304D01*
X-2989886Y-1995625D01*
X-1997725Y-2987786D01*
X-701404Y-3524740D01*
X701724Y-3524740D01*
X1998045Y-2987786D01*
X2990206Y-1995625D01*
X3527160Y-699304D01*
X3527160Y703824D01*
X2990206Y2000145D01*
X1998045Y2992306D01*
X701724Y3529260D01*
X-701404Y3529260D01*
X-1997725Y2992306D01*
X-2989886Y2000145D01*
X-3526840Y703824D01*
X-3897840Y703824D01*
X-3897840Y25271768D01*
X2873160Y25271768D01*
X2873160Y24067552D01*
X3333994Y22955002D01*
X4185502Y22103494D01*
X4643553Y21913763D01*
X4610343Y21900007D01*
X3969813Y21259477D01*
X3623160Y20422583D01*
X3623160Y19516737D01*
X3969813Y18679843D01*
X4610343Y18039313D01*
X5019921Y17869660D01*
X4610343Y17700007D01*
X3969813Y17059477D01*
X3623160Y16222583D01*
X3623160Y15316737D01*
X3969813Y14479843D01*
X4610343Y13839313D01*
X5019921Y13669660D01*
X4610343Y13500007D01*
X3969813Y12859477D01*
X3623160Y12022583D01*
X3623160Y11116737D01*
X3969813Y10279843D01*
X4610343Y9639313D01*
X4643553Y9625557D01*
X4185502Y9435826D01*
X3333994Y8584318D01*
X2873160Y7471768D01*
X2873160Y6267552D01*
X3333994Y5155002D01*
X4185502Y4303494D01*
X5298052Y3842660D01*
X6502268Y3842660D01*
X7614818Y4303494D01*
X8466326Y5155002D01*
X8927160Y6267552D01*
X8927160Y7471768D01*
X8466326Y8584318D01*
X7614818Y9435826D01*
X7156767Y9625557D01*
X7189977Y9639313D01*
X7661160Y10110496D01*
X9524879Y10110496D01*
X9699351Y9954681D01*
X10347886Y9924231D01*
X10500969Y9954681D01*
X10675441Y10110496D01*
X25324879Y10110496D01*
X25499351Y9954681D01*
X26147886Y9924231D01*
X26300969Y9954681D01*
X26475441Y10110496D01*
X25900160Y10685777D01*
X25324879Y10110496D01*
X10675441Y10110496D01*
X10100160Y10685777D01*
X9524879Y10110496D01*
X7661160Y10110496D01*
X7830507Y10279843D01*
X8177160Y11116737D01*
X8177160Y11321934D01*
X8454731Y11321934D01*
X8485181Y11168851D01*
X8640996Y10994379D01*
X9216277Y11569660D01*
X10984043Y11569660D01*
X11559324Y10994379D01*
X11715139Y11168851D01*
X11722326Y11321934D01*
X24254731Y11321934D01*
X24285181Y11168851D01*
X24440996Y10994379D01*
X25016277Y11569660D01*
X26784043Y11569660D01*
X27359324Y10994379D01*
X27515139Y11168851D01*
X27545589Y11817386D01*
X27515139Y11970469D01*
X27359324Y12144941D01*
X26784043Y11569660D01*
X25016277Y11569660D01*
X24440996Y12144941D01*
X24285181Y11970469D01*
X24254731Y11321934D01*
X11722326Y11321934D01*
X11745589Y11817386D01*
X11715139Y11970469D01*
X11559324Y12144941D01*
X10984043Y11569660D01*
X9216277Y11569660D01*
X8640996Y12144941D01*
X8485181Y11970469D01*
X8454731Y11321934D01*
X8177160Y11321934D01*
X8177160Y12022583D01*
X7830507Y12859477D01*
X7661160Y13028824D01*
X9524879Y13028824D01*
X10100160Y12453543D01*
X10675441Y13028824D01*
X25324879Y13028824D01*
X25900160Y12453543D01*
X26475441Y13028824D01*
X26300969Y13184639D01*
X25652434Y13215089D01*
X25499351Y13184639D01*
X25324879Y13028824D01*
X10675441Y13028824D01*
X10500969Y13184639D01*
X9852434Y13215089D01*
X9699351Y13184639D01*
X9524879Y13028824D01*
X7661160Y13028824D01*
X7189977Y13500007D01*
X6780399Y13669660D01*
X7189977Y13839313D01*
X7661160Y14310496D01*
X9524879Y14310496D01*
X9699351Y14154681D01*
X10347886Y14124231D01*
X10500969Y14154681D01*
X10675441Y14310496D01*
X25324879Y14310496D01*
X25499351Y14154681D01*
X26147886Y14124231D01*
X26300969Y14154681D01*
X26475441Y14310496D01*
X25900160Y14885777D01*
X25324879Y14310496D01*
X10675441Y14310496D01*
X10100160Y14885777D01*
X9524879Y14310496D01*
X7661160Y14310496D01*
X7830507Y14479843D01*
X8177160Y15316737D01*
X8177160Y15521934D01*
X8454731Y15521934D01*
X8485181Y15368851D01*
X8640996Y15194379D01*
X9216277Y15769660D01*
X10984043Y15769660D01*
X11559324Y15194379D01*
X11715139Y15368851D01*
X11722326Y15521934D01*
X24254731Y15521934D01*
X24285181Y15368851D01*
X24440996Y15194379D01*
X25016277Y15769660D01*
X26784043Y15769660D01*
X27359324Y15194379D01*
X27515139Y15368851D01*
X27545589Y16017386D01*
X27515139Y16170469D01*
X27359324Y16344941D01*
X26784043Y15769660D01*
X25016277Y15769660D01*
X24440996Y16344941D01*
X24285181Y16170469D01*
X24254731Y15521934D01*
X11722326Y15521934D01*
X11745589Y16017386D01*
X11715139Y16170469D01*
X11559324Y16344941D01*
X10984043Y15769660D01*
X9216277Y15769660D01*
X8640996Y16344941D01*
X8485181Y16170469D01*
X8454731Y15521934D01*
X8177160Y15521934D01*
X8177160Y16222583D01*
X7830507Y17059477D01*
X7661160Y17228824D01*
X9524879Y17228824D01*
X10100160Y16653543D01*
X10675441Y17228824D01*
X25324879Y17228824D01*
X25900160Y16653543D01*
X26475441Y17228824D01*
X26300969Y17384639D01*
X25652434Y17415089D01*
X25499351Y17384639D01*
X25324879Y17228824D01*
X10675441Y17228824D01*
X10500969Y17384639D01*
X9852434Y17415089D01*
X9699351Y17384639D01*
X9524879Y17228824D01*
X7661160Y17228824D01*
X7189977Y17700007D01*
X6780399Y17869660D01*
X7189977Y18039313D01*
X7661160Y18510496D01*
X9524879Y18510496D01*
X9699351Y18354681D01*
X10347886Y18324231D01*
X10500969Y18354681D01*
X10675441Y18510496D01*
X25324879Y18510496D01*
X25499351Y18354681D01*
X26147886Y18324231D01*
X26300969Y18354681D01*
X26475441Y18510496D01*
X25900160Y19085777D01*
X25324879Y18510496D01*
X10675441Y18510496D01*
X10100160Y19085777D01*
X9524879Y18510496D01*
X7661160Y18510496D01*
X7830507Y18679843D01*
X8177160Y19516737D01*
X8177160Y19721934D01*
X8454731Y19721934D01*
X8485181Y19568851D01*
X8640996Y19394379D01*
X9216277Y19969660D01*
X10984043Y19969660D01*
X11559324Y19394379D01*
X11715139Y19568851D01*
X11722326Y19721934D01*
X24254731Y19721934D01*
X24285181Y19568851D01*
X24440996Y19394379D01*
X25016277Y19969660D01*
X26784043Y19969660D01*
X27359324Y19394379D01*
X27515139Y19568851D01*
X27545589Y20217386D01*
X27515139Y20370469D01*
X27359324Y20544941D01*
X26784043Y19969660D01*
X25016277Y19969660D01*
X24440996Y20544941D01*
X24285181Y20370469D01*
X24254731Y19721934D01*
X11722326Y19721934D01*
X11745589Y20217386D01*
X11715139Y20370469D01*
X11559324Y20544941D01*
X10984043Y19969660D01*
X9216277Y19969660D01*
X8640996Y20544941D01*
X8485181Y20370469D01*
X8454731Y19721934D01*
X8177160Y19721934D01*
X8177160Y20422583D01*
X7830507Y21259477D01*
X7661160Y21428824D01*
X9524879Y21428824D01*
X10100160Y20853543D01*
X10675441Y21428824D01*
X25324879Y21428824D01*
X25900160Y20853543D01*
X26475441Y21428824D01*
X26300969Y21584639D01*
X25652434Y21615089D01*
X25499351Y21584639D01*
X25324879Y21428824D01*
X10675441Y21428824D01*
X10500969Y21584639D01*
X9852434Y21615089D01*
X9699351Y21584639D01*
X9524879Y21428824D01*
X7661160Y21428824D01*
X7189977Y21900007D01*
X7156767Y21913763D01*
X7614818Y22103494D01*
X8466326Y22955002D01*
X8927160Y24067552D01*
X8927160Y25271768D01*
X27073160Y25271768D01*
X27073160Y24067552D01*
X27533994Y22955002D01*
X28385502Y22103494D01*
X28843553Y21913763D01*
X28810343Y21900007D01*
X28169813Y21259477D01*
X27823160Y20422583D01*
X27823160Y19516737D01*
X28169813Y18679843D01*
X28810343Y18039313D01*
X29219921Y17869660D01*
X28810343Y17700007D01*
X28169813Y17059477D01*
X27823160Y16222583D01*
X27823160Y15316737D01*
X28169813Y14479843D01*
X28810343Y13839313D01*
X29219921Y13669660D01*
X28810343Y13500007D01*
X28169813Y12859477D01*
X27823160Y12022583D01*
X27823160Y11116737D01*
X28169813Y10279843D01*
X28810343Y9639313D01*
X28843553Y9625557D01*
X28385502Y9435826D01*
X27533994Y8584318D01*
X27073160Y7471768D01*
X27073160Y6267552D01*
X27533994Y5155002D01*
X28385502Y4303494D01*
X29498052Y3842660D01*
X30702268Y3842660D01*
X31814818Y4303494D01*
X32666326Y5155002D01*
X33127160Y6267552D01*
X33127160Y7471768D01*
X32666326Y8584318D01*
X31814818Y9435826D01*
X31356767Y9625557D01*
X31389977Y9639313D01*
X32030507Y10279843D01*
X32377160Y11116737D01*
X32377160Y12022583D01*
X32030507Y12859477D01*
X31389977Y13500007D01*
X30980399Y13669660D01*
X31389977Y13839313D01*
X32030507Y14479843D01*
X32377160Y15316737D01*
X32377160Y16222583D01*
X32030507Y17059477D01*
X31389977Y17700007D01*
X30980399Y17869660D01*
X31389977Y18039313D01*
X32030507Y18679843D01*
X32377160Y19516737D01*
X32377160Y20422583D01*
X32030507Y21259477D01*
X31389977Y21900007D01*
X31356767Y21913763D01*
X31814818Y22103494D01*
X32666326Y22955002D01*
X33127160Y24067552D01*
X33127160Y25271768D01*
X32666326Y26384318D01*
X31814818Y27235826D01*
X30702268Y27696660D01*
X29498052Y27696660D01*
X28385502Y27235826D01*
X27533994Y26384318D01*
X27073160Y25271768D01*
X8927160Y25271768D01*
X8466326Y26384318D01*
X7614818Y27235826D01*
X6502268Y27696660D01*
X5298052Y27696660D01*
X4185502Y27235826D01*
X3333994Y26384318D01*
X2873160Y25271768D01*
X-3897840Y25271768D01*
X-3897840Y54104368D01*
X2873160Y54104368D01*
X2873160Y52900152D01*
X3333994Y51787602D01*
X4185502Y50936094D01*
X4643553Y50746363D01*
X4610343Y50732607D01*
X3969813Y50092077D01*
X3623160Y49255183D01*
X3623160Y48349337D01*
X3969813Y47512443D01*
X4610343Y46871913D01*
X5019921Y46702260D01*
X4610343Y46532607D01*
X3969813Y45892077D01*
X3623160Y45055183D01*
X3623160Y44149337D01*
X3969813Y43312443D01*
X4610343Y42671913D01*
X5019921Y42502260D01*
X4610343Y42332607D01*
X3969813Y41692077D01*
X3623160Y40855183D01*
X3623160Y39949337D01*
X3969813Y39112443D01*
X4610343Y38471913D01*
X4643553Y38458157D01*
X4185502Y38268426D01*
X3333994Y37416918D01*
X2873160Y36304368D01*
X2873160Y35100152D01*
X3333994Y33987602D01*
X4185502Y33136094D01*
X5298052Y32675260D01*
X6502268Y32675260D01*
X7614818Y33136094D01*
X8466326Y33987602D01*
X8927160Y35100152D01*
X8927160Y36304368D01*
X8466326Y37416918D01*
X7614818Y38268426D01*
X7156767Y38458157D01*
X7189977Y38471913D01*
X7661160Y38943096D01*
X9524879Y38943096D01*
X9699351Y38787281D01*
X10347886Y38756831D01*
X10500969Y38787281D01*
X10675441Y38943096D01*
X25324879Y38943096D01*
X25499351Y38787281D01*
X26147886Y38756831D01*
X26300969Y38787281D01*
X26475441Y38943096D01*
X25900160Y39518377D01*
X25324879Y38943096D01*
X10675441Y38943096D01*
X10100160Y39518377D01*
X9524879Y38943096D01*
X7661160Y38943096D01*
X7830507Y39112443D01*
X8177160Y39949337D01*
X8177160Y40154534D01*
X8454731Y40154534D01*
X8485181Y40001451D01*
X8640996Y39826979D01*
X9216277Y40402260D01*
X10984043Y40402260D01*
X11559324Y39826979D01*
X11715139Y40001451D01*
X11722326Y40154534D01*
X24254731Y40154534D01*
X24285181Y40001451D01*
X24440996Y39826979D01*
X25016277Y40402260D01*
X26784043Y40402260D01*
X27359324Y39826979D01*
X27515139Y40001451D01*
X27545589Y40649986D01*
X27515139Y40803069D01*
X27359324Y40977541D01*
X26784043Y40402260D01*
X25016277Y40402260D01*
X24440996Y40977541D01*
X24285181Y40803069D01*
X24254731Y40154534D01*
X11722326Y40154534D01*
X11745589Y40649986D01*
X11715139Y40803069D01*
X11559324Y40977541D01*
X10984043Y40402260D01*
X9216277Y40402260D01*
X8640996Y40977541D01*
X8485181Y40803069D01*
X8454731Y40154534D01*
X8177160Y40154534D01*
X8177160Y40855183D01*
X7830507Y41692077D01*
X7661160Y41861424D01*
X9524879Y41861424D01*
X10100160Y41286143D01*
X10675441Y41861424D01*
X25324879Y41861424D01*
X25900160Y41286143D01*
X26475441Y41861424D01*
X26300969Y42017239D01*
X25652434Y42047689D01*
X25499351Y42017239D01*
X25324879Y41861424D01*
X10675441Y41861424D01*
X10500969Y42017239D01*
X9852434Y42047689D01*
X9699351Y42017239D01*
X9524879Y41861424D01*
X7661160Y41861424D01*
X7189977Y42332607D01*
X6780399Y42502260D01*
X7189977Y42671913D01*
X7661160Y43143096D01*
X9524879Y43143096D01*
X9699351Y42987281D01*
X10347886Y42956831D01*
X10500969Y42987281D01*
X10675441Y43143096D01*
X25324879Y43143096D01*
X25499351Y42987281D01*
X26147886Y42956831D01*
X26300969Y42987281D01*
X26475441Y43143096D01*
X25900160Y43718377D01*
X25324879Y43143096D01*
X10675441Y43143096D01*
X10100160Y43718377D01*
X9524879Y43143096D01*
X7661160Y43143096D01*
X7830507Y43312443D01*
X8177160Y44149337D01*
X8177160Y44354534D01*
X8454731Y44354534D01*
X8485181Y44201451D01*
X8640996Y44026979D01*
X9216277Y44602260D01*
X10984043Y44602260D01*
X11559324Y44026979D01*
X11715139Y44201451D01*
X11722326Y44354534D01*
X24254731Y44354534D01*
X24285181Y44201451D01*
X24440996Y44026979D01*
X25016277Y44602260D01*
X26784043Y44602260D01*
X27359324Y44026979D01*
X27515139Y44201451D01*
X27545589Y44849986D01*
X27515139Y45003069D01*
X27359324Y45177541D01*
X26784043Y44602260D01*
X25016277Y44602260D01*
X24440996Y45177541D01*
X24285181Y45003069D01*
X24254731Y44354534D01*
X11722326Y44354534D01*
X11745589Y44849986D01*
X11715139Y45003069D01*
X11559324Y45177541D01*
X10984043Y44602260D01*
X9216277Y44602260D01*
X8640996Y45177541D01*
X8485181Y45003069D01*
X8454731Y44354534D01*
X8177160Y44354534D01*
X8177160Y45055183D01*
X7830507Y45892077D01*
X7661160Y46061424D01*
X9524879Y46061424D01*
X10100160Y45486143D01*
X10675441Y46061424D01*
X25324879Y46061424D01*
X25900160Y45486143D01*
X26475441Y46061424D01*
X26300969Y46217239D01*
X25652434Y46247689D01*
X25499351Y46217239D01*
X25324879Y46061424D01*
X10675441Y46061424D01*
X10500969Y46217239D01*
X9852434Y46247689D01*
X9699351Y46217239D01*
X9524879Y46061424D01*
X7661160Y46061424D01*
X7189977Y46532607D01*
X6780399Y46702260D01*
X7189977Y46871913D01*
X7661160Y47343096D01*
X9524879Y47343096D01*
X9699351Y47187281D01*
X10347886Y47156831D01*
X10500969Y47187281D01*
X10675441Y47343096D01*
X25324879Y47343096D01*
X25499351Y47187281D01*
X26147886Y47156831D01*
X26300969Y47187281D01*
X26475441Y47343096D01*
X25900160Y47918377D01*
X25324879Y47343096D01*
X10675441Y47343096D01*
X10100160Y47918377D01*
X9524879Y47343096D01*
X7661160Y47343096D01*
X7830507Y47512443D01*
X8177160Y48349337D01*
X8177160Y48554534D01*
X8454731Y48554534D01*
X8485181Y48401451D01*
X8640996Y48226979D01*
X9216277Y48802260D01*
X10984043Y48802260D01*
X11559324Y48226979D01*
X11715139Y48401451D01*
X11722326Y48554534D01*
X24254731Y48554534D01*
X24285181Y48401451D01*
X24440996Y48226979D01*
X25016277Y48802260D01*
X26784043Y48802260D01*
X27359324Y48226979D01*
X27515139Y48401451D01*
X27545589Y49049986D01*
X27515139Y49203069D01*
X27359324Y49377541D01*
X26784043Y48802260D01*
X25016277Y48802260D01*
X24440996Y49377541D01*
X24285181Y49203069D01*
X24254731Y48554534D01*
X11722326Y48554534D01*
X11745589Y49049986D01*
X11715139Y49203069D01*
X11559324Y49377541D01*
X10984043Y48802260D01*
X9216277Y48802260D01*
X8640996Y49377541D01*
X8485181Y49203069D01*
X8454731Y48554534D01*
X8177160Y48554534D01*
X8177160Y49255183D01*
X7830507Y50092077D01*
X7661160Y50261424D01*
X9524879Y50261424D01*
X10100160Y49686143D01*
X10675441Y50261424D01*
X25324879Y50261424D01*
X25900160Y49686143D01*
X26475441Y50261424D01*
X26300969Y50417239D01*
X25652434Y50447689D01*
X25499351Y50417239D01*
X25324879Y50261424D01*
X10675441Y50261424D01*
X10500969Y50417239D01*
X9852434Y50447689D01*
X9699351Y50417239D01*
X9524879Y50261424D01*
X7661160Y50261424D01*
X7189977Y50732607D01*
X7156767Y50746363D01*
X7614818Y50936094D01*
X8466326Y51787602D01*
X8927160Y52900152D01*
X8927160Y54104368D01*
X27073160Y54104368D01*
X27073160Y52900152D01*
X27533994Y51787602D01*
X28385502Y50936094D01*
X28843553Y50746363D01*
X28810343Y50732607D01*
X28169813Y50092077D01*
X27823160Y49255183D01*
X27823160Y48349337D01*
X28169813Y47512443D01*
X28810343Y46871913D01*
X29219921Y46702260D01*
X28810343Y46532607D01*
X28169813Y45892077D01*
X27823160Y45055183D01*
X27823160Y44149337D01*
X28169813Y43312443D01*
X28810343Y42671913D01*
X29219921Y42502260D01*
X28810343Y42332607D01*
X28169813Y41692077D01*
X27823160Y40855183D01*
X27823160Y39949337D01*
X28169813Y39112443D01*
X28810343Y38471913D01*
X28843553Y38458157D01*
X28385502Y38268426D01*
X27533994Y37416918D01*
X27073160Y36304368D01*
X27073160Y35100152D01*
X27533994Y33987602D01*
X28385502Y33136094D01*
X29498052Y32675260D01*
X30702268Y32675260D01*
X31814818Y33136094D01*
X32666326Y33987602D01*
X33127160Y35100152D01*
X33127160Y36304368D01*
X32666326Y37416918D01*
X31814818Y38268426D01*
X31356767Y38458157D01*
X31389977Y38471913D01*
X32030507Y39112443D01*
X32377160Y39949337D01*
X32377160Y40855183D01*
X32030507Y41692077D01*
X31389977Y42332607D01*
X30980399Y42502260D01*
X31389977Y42671913D01*
X32030507Y43312443D01*
X32377160Y44149337D01*
X32377160Y45055183D01*
X32030507Y45892077D01*
X31389977Y46532607D01*
X30980399Y46702260D01*
X31389977Y46871913D01*
X32030507Y47512443D01*
X32377160Y48349337D01*
X32377160Y49255183D01*
X32030507Y50092077D01*
X31389977Y50732607D01*
X31356767Y50746363D01*
X31814818Y50936094D01*
X32666326Y51787602D01*
X33127160Y52900152D01*
X33127160Y54104368D01*
X32666326Y55216918D01*
X31814818Y56068426D01*
X30702268Y56529260D01*
X29498052Y56529260D01*
X28385502Y56068426D01*
X27533994Y55216918D01*
X27073160Y54104368D01*
X8927160Y54104368D01*
X8466326Y55216918D01*
X7614818Y56068426D01*
X6502268Y56529260D01*
X5298052Y56529260D01*
X4185502Y56068426D01*
X3333994Y55216918D01*
X2873160Y54104368D01*
X-3897840Y54104368D01*
X-3897840Y56789460D01*
X33593820Y56789460D01*
X33593820Y55519460D01*
X33673527Y55118745D01*
X33900514Y54779034D01*
X34240225Y54552047D01*
X34383940Y54523460D01*
X34383941Y51417334D01*
X34354026Y51266940D01*
X34472538Y50671135D01*
X34684170Y50354406D01*
X34810036Y50166035D01*
X34937532Y50080845D01*
X36445871Y48572504D01*
X36823474Y48320198D01*
X37419280Y48201686D01*
X38015085Y48320198D01*
X38520185Y48657695D01*
X38857682Y49162795D01*
X38976194Y49758600D01*
X38857682Y50354406D01*
X38605376Y50732009D01*
X37437940Y51899444D01*
X37437940Y52333742D01*
X37909509Y51862173D01*
X38838288Y51477460D01*
X39843592Y51477460D01*
X40772371Y51862173D01*
X41483227Y52573029D01*
X41867940Y53501808D01*
X41867940Y54507112D01*
X41483227Y55435891D01*
X40772371Y56146747D01*
X39843592Y56531460D01*
X38838288Y56531460D01*
X38228060Y56278695D01*
X38228060Y56789460D01*
X38148353Y57190175D01*
X37921366Y57529886D01*
X37581655Y57756873D01*
X37180940Y57836580D01*
X34640940Y57836580D01*
X34240225Y57756873D01*
X33900514Y57529886D01*
X33673527Y57190175D01*
X33593820Y56789460D01*
X-3897840Y56789460D01*
X-3897840Y62304368D01*
X2873160Y62304368D01*
X2873160Y61100152D01*
X3333994Y59987602D01*
X4185502Y59136094D01*
X5298052Y58675260D01*
X6502268Y58675260D01*
X7614818Y59136094D01*
X8466326Y59987602D01*
X8927160Y61100152D01*
X8927160Y62304368D01*
X27073160Y62304368D01*
X27073160Y61100152D01*
X27533994Y59987602D01*
X28385502Y59136094D01*
X29498052Y58675260D01*
X30702268Y58675260D01*
X30862088Y58741460D01*
X34258940Y58741460D01*
X34258940Y58443475D01*
X34317096Y58303074D01*
X34424555Y58195616D01*
X34564956Y58137460D01*
X35180440Y58137460D01*
X35275940Y58232960D01*
X35275940Y58836960D01*
X36545940Y58836960D01*
X36545940Y58232960D01*
X36641440Y58137460D01*
X37256924Y58137460D01*
X37397325Y58195616D01*
X37504784Y58303074D01*
X37562940Y58443475D01*
X37562940Y58741460D01*
X37467440Y58836960D01*
X36545940Y58836960D01*
X35275940Y58836960D01*
X34354440Y58836960D01*
X34258940Y58741460D01*
X30862088Y58741460D01*
X31814818Y59136094D01*
X32544169Y59865445D01*
X34258940Y59865445D01*
X34258940Y59567460D01*
X34354440Y59471960D01*
X35275940Y59471960D01*
X35275940Y60075960D01*
X36545940Y60075960D01*
X36545940Y59471960D01*
X37467440Y59471960D01*
X37533581Y59538101D01*
X37909509Y59162173D01*
X38838288Y58777460D01*
X39843592Y58777460D01*
X40772371Y59162173D01*
X41483227Y59873029D01*
X41867940Y60801808D01*
X41867940Y61232560D01*
X43778760Y61232560D01*
X43778760Y53752075D01*
X43836916Y53611674D01*
X43944375Y53504216D01*
X44084776Y53446060D01*
X66565260Y53446060D01*
X66660760Y53541560D01*
X66660760Y61231081D01*
X70202281Y61231081D01*
X71356085Y60877695D01*
X73644235Y60877695D01*
X74798039Y61231081D01*
X110202281Y61231081D01*
X111356085Y60877695D01*
X111660760Y60877695D01*
X111660760Y53541560D01*
X111756260Y53446060D01*
X134236744Y53446060D01*
X134377145Y53504216D01*
X134484604Y53611674D01*
X134542760Y53752075D01*
X134542760Y61232560D01*
X134447260Y61328060D01*
X114701060Y61328060D01*
X112500160Y63528959D01*
X110202281Y61231081D01*
X74798039Y61231081D01*
X72500160Y63528959D01*
X70202281Y61231081D01*
X66660760Y61231081D01*
X66660760Y61328060D01*
X43874260Y61328060D01*
X43778760Y61232560D01*
X41867940Y61232560D01*
X41867940Y61807112D01*
X41483227Y62735891D01*
X40772371Y63446747D01*
X39843592Y63831460D01*
X38838288Y63831460D01*
X37909509Y63446747D01*
X37198653Y62735891D01*
X36813940Y61807112D01*
X36813940Y60801808D01*
X37075039Y60171460D01*
X36641440Y60171460D01*
X36545940Y60075960D01*
X35275940Y60075960D01*
X35180440Y60171460D01*
X34564956Y60171460D01*
X34424555Y60113304D01*
X34317096Y60005846D01*
X34258940Y59865445D01*
X32544169Y59865445D01*
X32666326Y59987602D01*
X33127160Y61100152D01*
X33127160Y62304368D01*
X32666326Y63416918D01*
X31814818Y64268426D01*
X30702268Y64729260D01*
X29498052Y64729260D01*
X28385502Y64268426D01*
X27533994Y63416918D01*
X27073160Y62304368D01*
X8927160Y62304368D01*
X8466326Y63416918D01*
X7614818Y64268426D01*
X6502268Y64729260D01*
X5298052Y64729260D01*
X4185502Y64268426D01*
X3333994Y63416918D01*
X2873160Y62304368D01*
X-3897840Y62304368D01*
X-3897840Y64943096D01*
X5524879Y64943096D01*
X5699351Y64787281D01*
X6347886Y64756831D01*
X6500969Y64787281D01*
X6675441Y64943096D01*
X6100160Y65518377D01*
X5524879Y64943096D01*
X-3897840Y64943096D01*
X-3897840Y66154534D01*
X4454731Y66154534D01*
X4485181Y66001451D01*
X4640996Y65826979D01*
X5216277Y66402260D01*
X6984043Y66402260D01*
X7559324Y65826979D01*
X7715139Y66001451D01*
X7745589Y66649986D01*
X7715139Y66803069D01*
X7559324Y66977541D01*
X6984043Y66402260D01*
X5216277Y66402260D01*
X4640996Y66977541D01*
X4485181Y66803069D01*
X4454731Y66154534D01*
X-3897840Y66154534D01*
X-3897840Y67861424D01*
X5524879Y67861424D01*
X6100160Y67286143D01*
X6675441Y67861424D01*
X6500969Y68017239D01*
X5852434Y68047689D01*
X5699351Y68017239D01*
X5524879Y67861424D01*
X-3897840Y67861424D01*
X-3897840Y69143096D01*
X5524879Y69143096D01*
X5699351Y68987281D01*
X6347886Y68956831D01*
X6500969Y68987281D01*
X6675441Y69143096D01*
X6100160Y69718377D01*
X5524879Y69143096D01*
X-3897840Y69143096D01*
X-3897840Y70354534D01*
X4454731Y70354534D01*
X4485181Y70201451D01*
X4640996Y70026979D01*
X5216277Y70602260D01*
X6984043Y70602260D01*
X7559324Y70026979D01*
X7715139Y70201451D01*
X7745589Y70849986D01*
X7715139Y71003069D01*
X7559324Y71177541D01*
X6984043Y70602260D01*
X5216277Y70602260D01*
X4640996Y71177541D01*
X4485181Y71003069D01*
X4454731Y70354534D01*
X-3897840Y70354534D01*
X-3897840Y72061424D01*
X5524879Y72061424D01*
X6100160Y71486143D01*
X6675441Y72061424D01*
X6500969Y72217239D01*
X5852434Y72247689D01*
X5699351Y72217239D01*
X5524879Y72061424D01*
X-3897840Y72061424D01*
X-3897840Y73343096D01*
X5524879Y73343096D01*
X5699351Y73187281D01*
X6347886Y73156831D01*
X6500969Y73187281D01*
X6675441Y73343096D01*
X6100160Y73918377D01*
X5524879Y73343096D01*
X-3897840Y73343096D01*
X-3897840Y74554534D01*
X4454731Y74554534D01*
X4485181Y74401451D01*
X4640996Y74226979D01*
X5216277Y74802260D01*
X6984043Y74802260D01*
X7559324Y74226979D01*
X7715139Y74401451D01*
X7745589Y75049986D01*
X7715139Y75203069D01*
X7559324Y75377541D01*
X6984043Y74802260D01*
X5216277Y74802260D01*
X4640996Y75377541D01*
X4485181Y75203069D01*
X4454731Y74554534D01*
X-3897840Y74554534D01*
X-3897840Y76261424D01*
X5524879Y76261424D01*
X6100160Y75686143D01*
X6675441Y76261424D01*
X6500969Y76417239D01*
X5852434Y76447689D01*
X5699351Y76417239D01*
X5524879Y76261424D01*
X-3897840Y76261424D01*
X-3897840Y77543096D01*
X5524879Y77543096D01*
X5699351Y77387281D01*
X6347886Y77356831D01*
X6500969Y77387281D01*
X6675441Y77543096D01*
X6100160Y78118377D01*
X5524879Y77543096D01*
X-3897840Y77543096D01*
X-3897840Y78754534D01*
X4454731Y78754534D01*
X4485181Y78601451D01*
X4640996Y78426979D01*
X5216277Y79002260D01*
X6984043Y79002260D01*
X7559324Y78426979D01*
X7715139Y78601451D01*
X7745589Y79249986D01*
X7715139Y79403069D01*
X7668598Y79455183D01*
X8023160Y79455183D01*
X8023160Y78549337D01*
X8369813Y77712443D01*
X9010343Y77071913D01*
X9419921Y76902260D01*
X9010343Y76732607D01*
X8369813Y76092077D01*
X8023160Y75255183D01*
X8023160Y74349337D01*
X8369813Y73512443D01*
X9010343Y72871913D01*
X9419921Y72702260D01*
X9010343Y72532607D01*
X8369813Y71892077D01*
X8023160Y71055183D01*
X8023160Y70149337D01*
X8369813Y69312443D01*
X9010343Y68671913D01*
X9419921Y68502260D01*
X9010343Y68332607D01*
X8369813Y67692077D01*
X8023160Y66855183D01*
X8023160Y65949337D01*
X8369813Y65112443D01*
X9010343Y64471913D01*
X9847237Y64125260D01*
X10753083Y64125260D01*
X11589977Y64471913D01*
X12230507Y65112443D01*
X12577160Y65949337D01*
X12577160Y66855183D01*
X12230507Y67692077D01*
X11589977Y68332607D01*
X11180399Y68502260D01*
X11589977Y68671913D01*
X12230507Y69312443D01*
X12577160Y70149337D01*
X12577160Y71055183D01*
X12230507Y71892077D01*
X11589977Y72532607D01*
X11180399Y72702260D01*
X11589977Y72871913D01*
X12230507Y73512443D01*
X12577160Y74349337D01*
X12577160Y75255183D01*
X12230507Y76092077D01*
X11589977Y76732607D01*
X11180399Y76902260D01*
X11589977Y77071913D01*
X12230507Y77712443D01*
X12577160Y78549337D01*
X12577160Y79455183D01*
X23423160Y79455183D01*
X23423160Y78549337D01*
X23769813Y77712443D01*
X24410343Y77071913D01*
X24819921Y76902260D01*
X24410343Y76732607D01*
X23769813Y76092077D01*
X23423160Y75255183D01*
X23423160Y74349337D01*
X23769813Y73512443D01*
X24410343Y72871913D01*
X24819921Y72702260D01*
X24410343Y72532607D01*
X23769813Y71892077D01*
X23423160Y71055183D01*
X23423160Y70149337D01*
X23769813Y69312443D01*
X24410343Y68671913D01*
X24819921Y68502260D01*
X24410343Y68332607D01*
X23769813Y67692077D01*
X23423160Y66855183D01*
X23423160Y65949337D01*
X23769813Y65112443D01*
X24410343Y64471913D01*
X25247237Y64125260D01*
X26153083Y64125260D01*
X26989977Y64471913D01*
X27461160Y64943096D01*
X29324879Y64943096D01*
X29499351Y64787281D01*
X30147886Y64756831D01*
X30300969Y64787281D01*
X30475441Y64943096D01*
X29900160Y65518377D01*
X29324879Y64943096D01*
X27461160Y64943096D01*
X27630507Y65112443D01*
X27977160Y65949337D01*
X27977160Y66154534D01*
X28254731Y66154534D01*
X28285181Y66001451D01*
X28440996Y65826979D01*
X29016277Y66402260D01*
X30784043Y66402260D01*
X31359324Y65826979D01*
X31515139Y66001451D01*
X31545589Y66649986D01*
X31515139Y66803069D01*
X31359324Y66977541D01*
X30784043Y66402260D01*
X29016277Y66402260D01*
X28440996Y66977541D01*
X28285181Y66803069D01*
X28254731Y66154534D01*
X27977160Y66154534D01*
X27977160Y66855183D01*
X27630507Y67692077D01*
X27461160Y67861424D01*
X29324879Y67861424D01*
X29900160Y67286143D01*
X30475441Y67861424D01*
X30300969Y68017239D01*
X29652434Y68047689D01*
X29499351Y68017239D01*
X29324879Y67861424D01*
X27461160Y67861424D01*
X26989977Y68332607D01*
X26580399Y68502260D01*
X26989977Y68671913D01*
X27461160Y69143096D01*
X29324879Y69143096D01*
X29499351Y68987281D01*
X30147886Y68956831D01*
X30300969Y68987281D01*
X30475441Y69143096D01*
X29900160Y69718377D01*
X29324879Y69143096D01*
X27461160Y69143096D01*
X27630507Y69312443D01*
X27905500Y69976335D01*
X64545595Y69976335D01*
X64545595Y67688185D01*
X64898981Y66534381D01*
X67196859Y68832260D01*
X77803461Y68832260D01*
X80101339Y66534381D01*
X80454725Y67688185D01*
X80454725Y69976335D01*
X104545595Y69976335D01*
X104545595Y67688185D01*
X104898981Y66534381D01*
X107196859Y68832260D01*
X117803461Y68832260D01*
X120101339Y66534381D01*
X120454725Y67688185D01*
X120454725Y69976335D01*
X120101339Y71130139D01*
X117803461Y68832260D01*
X107196859Y68832260D01*
X104898981Y71130139D01*
X104545595Y69976335D01*
X80454725Y69976335D01*
X80101339Y71130139D01*
X77803461Y68832260D01*
X67196859Y68832260D01*
X64898981Y71130139D01*
X64545595Y69976335D01*
X27905500Y69976335D01*
X27977160Y70149337D01*
X27977160Y70354534D01*
X28254731Y70354534D01*
X28285181Y70201451D01*
X28440996Y70026979D01*
X29016277Y70602260D01*
X30784043Y70602260D01*
X31359324Y70026979D01*
X31515139Y70201451D01*
X31545589Y70849986D01*
X31515139Y71003069D01*
X31359324Y71177541D01*
X30784043Y70602260D01*
X29016277Y70602260D01*
X28440996Y71177541D01*
X28285181Y71003069D01*
X28254731Y70354534D01*
X27977160Y70354534D01*
X27977160Y71055183D01*
X27630507Y71892077D01*
X27461160Y72061424D01*
X29324879Y72061424D01*
X29900160Y71486143D01*
X30475441Y72061424D01*
X30300969Y72217239D01*
X29652434Y72247689D01*
X29499351Y72217239D01*
X29324879Y72061424D01*
X27461160Y72061424D01*
X26989977Y72532607D01*
X26580399Y72702260D01*
X26989977Y72871913D01*
X27461160Y73343096D01*
X29324879Y73343096D01*
X29499351Y73187281D01*
X30147886Y73156831D01*
X30300969Y73187281D01*
X30475441Y73343096D01*
X29900160Y73918377D01*
X29324879Y73343096D01*
X27461160Y73343096D01*
X27630507Y73512443D01*
X27977160Y74349337D01*
X27977160Y74554534D01*
X28254731Y74554534D01*
X28285181Y74401451D01*
X28440996Y74226979D01*
X29016277Y74802260D01*
X30784043Y74802260D01*
X31359324Y74226979D01*
X31515139Y74401451D01*
X31545589Y75049986D01*
X31515139Y75203069D01*
X31359324Y75377541D01*
X30784043Y74802260D01*
X29016277Y74802260D01*
X28440996Y75377541D01*
X28285181Y75203069D01*
X28254731Y74554534D01*
X27977160Y74554534D01*
X27977160Y75255183D01*
X27630507Y76092077D01*
X27461160Y76261424D01*
X29324879Y76261424D01*
X29900160Y75686143D01*
X30475441Y76261424D01*
X30300969Y76417239D01*
X29652434Y76447689D01*
X29499351Y76417239D01*
X29324879Y76261424D01*
X27461160Y76261424D01*
X26989977Y76732607D01*
X26580399Y76902260D01*
X26989977Y77071913D01*
X27461160Y77543096D01*
X29324879Y77543096D01*
X29499351Y77387281D01*
X30147886Y77356831D01*
X30300969Y77387281D01*
X30475441Y77543096D01*
X29900160Y78118377D01*
X29324879Y77543096D01*
X27461160Y77543096D01*
X27630507Y77712443D01*
X27977160Y78549337D01*
X27977160Y78754534D01*
X28254731Y78754534D01*
X28285181Y78601451D01*
X28440996Y78426979D01*
X29016277Y79002260D01*
X30784043Y79002260D01*
X31359324Y78426979D01*
X31515139Y78601451D01*
X31545589Y79249986D01*
X31515139Y79403069D01*
X31359324Y79577541D01*
X30784043Y79002260D01*
X29016277Y79002260D01*
X28440996Y79577541D01*
X28285181Y79403069D01*
X28254731Y78754534D01*
X27977160Y78754534D01*
X27977160Y79455183D01*
X27630507Y80292077D01*
X27461160Y80461424D01*
X29324879Y80461424D01*
X29900160Y79886143D01*
X30475441Y80461424D01*
X30300969Y80617239D01*
X29652434Y80647689D01*
X29499351Y80617239D01*
X29324879Y80461424D01*
X27461160Y80461424D01*
X26989977Y80932607D01*
X26153083Y81279260D01*
X25247237Y81279260D01*
X24410343Y80932607D01*
X23769813Y80292077D01*
X23423160Y79455183D01*
X12577160Y79455183D01*
X12230507Y80292077D01*
X11589977Y80932607D01*
X10753083Y81279260D01*
X9847237Y81279260D01*
X9010343Y80932607D01*
X8369813Y80292077D01*
X8023160Y79455183D01*
X7668598Y79455183D01*
X7559324Y79577541D01*
X6984043Y79002260D01*
X5216277Y79002260D01*
X4640996Y79577541D01*
X4485181Y79403069D01*
X4454731Y78754534D01*
X-3897840Y78754534D01*
X-3897840Y80461424D01*
X5524879Y80461424D01*
X6100160Y79886143D01*
X6675441Y80461424D01*
X6500969Y80617239D01*
X5852434Y80647689D01*
X5699351Y80617239D01*
X5524879Y80461424D01*
X-3897840Y80461424D01*
X-3897840Y84304368D01*
X2873160Y84304368D01*
X2873160Y83100152D01*
X3333994Y81987602D01*
X4185502Y81136094D01*
X5298052Y80675260D01*
X6502268Y80675260D01*
X7614818Y81136094D01*
X8466326Y81987602D01*
X8927160Y83100152D01*
X8927160Y84304368D01*
X27073160Y84304368D01*
X27073160Y83100152D01*
X27533994Y81987602D01*
X28385502Y81136094D01*
X29498052Y80675260D01*
X30702268Y80675260D01*
X31814818Y81136094D01*
X32666326Y81987602D01*
X33127160Y83100152D01*
X33127160Y83904045D01*
X43778760Y83904045D01*
X43778760Y76423560D01*
X43874260Y76328060D01*
X66660760Y76328060D01*
X66660760Y76433439D01*
X70202281Y76433439D01*
X72500160Y74135561D01*
X74798039Y76433439D01*
X110202281Y76433439D01*
X112500160Y74135561D01*
X114692660Y76328060D01*
X134447260Y76328060D01*
X134542760Y76423560D01*
X134542760Y83904045D01*
X134484604Y84044446D01*
X134377145Y84151904D01*
X134236744Y84210060D01*
X111756260Y84210060D01*
X111660760Y84114560D01*
X111660760Y76786825D01*
X111356085Y76786825D01*
X110202281Y76433439D01*
X74798039Y76433439D01*
X73644235Y76786825D01*
X71356085Y76786825D01*
X70202281Y76433439D01*
X66660760Y76433439D01*
X66660760Y84114560D01*
X66565260Y84210060D01*
X44084776Y84210060D01*
X43944375Y84151904D01*
X43836916Y84044446D01*
X43778760Y83904045D01*
X33127160Y83904045D01*
X33127160Y84304368D01*
X32666326Y85416918D01*
X31814818Y86268426D01*
X30702268Y86729260D01*
X29498052Y86729260D01*
X28385502Y86268426D01*
X27533994Y85416918D01*
X27073160Y84304368D01*
X8927160Y84304368D01*
X8466326Y85416918D01*
X7614818Y86268426D01*
X6502268Y86729260D01*
X5298052Y86729260D01*
X4185502Y86268426D01*
X3333994Y85416918D01*
X2873160Y84304368D01*
X-3897840Y84304368D01*
X-3897840Y90703824D01*
X-3526840Y90703824D01*
X-3526840Y89300696D01*
X-2989886Y88004375D01*
X-1997725Y87012214D01*
X-701404Y86475260D01*
X701724Y86475260D01*
X1998045Y87012214D01*
X2990206Y88004375D01*
X3527160Y89300696D01*
X3527160Y90703824D01*
X136473160Y90703824D01*
X136473160Y89300696D01*
X137010114Y88004375D01*
X138002275Y87012214D01*
X139298596Y86475260D01*
X140701724Y86475260D01*
X141998045Y87012214D01*
X142990206Y88004375D01*
X143527160Y89300696D01*
X143527160Y90703824D01*
X142990206Y92000145D01*
X141998045Y92992306D01*
X140701724Y93529260D01*
X139298596Y93529260D01*
X138002275Y92992306D01*
X137010114Y92000145D01*
X136473160Y90703824D01*
X3527160Y90703824D01*
X2990206Y92000145D01*
X1998045Y92992306D01*
X701724Y93529260D01*
X-701404Y93529260D01*
X-1997725Y92992306D01*
X-2989886Y92000145D01*
X-3526840Y90703824D01*
X-3897840Y90703824D01*
X-3897840Y92545798D01*
X-2543377Y93900260D01*
X142543698Y93900260D01*
X143898160Y92545797D01*
G04 #@! TO.N,GND*
G36*
X142798161Y719836D02*
X142689581Y923914D01*
X141767927Y2260D01*
X142689581Y-919394D01*
X142798161Y-715316D01*
X142798161Y-2085640D01*
X142088062Y-2795740D01*
X140717738Y-2795740D01*
X140921814Y-2687161D01*
X140000160Y-1765507D01*
X139078506Y-2687161D01*
X139282582Y-2795740D01*
X42967806Y-2795740D01*
X39617960Y554106D01*
X137113982Y554106D01*
X137113982Y-549586D01*
X137310739Y-919394D01*
X138232393Y2260D01*
X137310739Y923914D01*
X137113982Y554106D01*
X39617960Y554106D01*
X37852500Y2319566D01*
X37852500Y2691681D01*
X139078506Y2691681D01*
X140000160Y1770027D01*
X140921814Y2691681D01*
X140552006Y2888438D01*
X139448314Y2888438D01*
X139078506Y2691681D01*
X37852500Y2691681D01*
X37852500Y13732560D01*
X43778760Y13732560D01*
X43778760Y6252075D01*
X43836916Y6111674D01*
X43944375Y6004216D01*
X44084776Y5946060D01*
X66565260Y5946060D01*
X66660760Y6041560D01*
X66660760Y13731081D01*
X67702281Y13731081D01*
X68856085Y13377695D01*
X71144235Y13377695D01*
X72298039Y13731081D01*
X107702281Y13731081D01*
X108856085Y13377695D01*
X111144235Y13377695D01*
X111660760Y13535896D01*
X111660760Y6041560D01*
X111756260Y5946060D01*
X134236744Y5946060D01*
X134377145Y6004216D01*
X134484604Y6111674D01*
X134542760Y6252075D01*
X134542760Y13732560D01*
X134447260Y13828060D01*
X112201060Y13828060D01*
X110000160Y16028959D01*
X107702281Y13731081D01*
X72298039Y13731081D01*
X70000160Y16028959D01*
X67702281Y13731081D01*
X66660760Y13731081D01*
X66660760Y13828060D01*
X43874260Y13828060D01*
X43778760Y13732560D01*
X37852500Y13732560D01*
X37852500Y22476335D01*
X62045595Y22476335D01*
X62045595Y20188185D01*
X62398981Y19034381D01*
X64696859Y21332260D01*
X75303461Y21332260D01*
X77601339Y19034381D01*
X77954725Y20188185D01*
X77954725Y22476335D01*
X102045595Y22476335D01*
X102045595Y20188185D01*
X102398981Y19034381D01*
X104696859Y21332260D01*
X115303461Y21332260D01*
X117601339Y19034381D01*
X117954725Y20188185D01*
X117954725Y22476335D01*
X117601339Y23630139D01*
X115303461Y21332260D01*
X104696859Y21332260D01*
X102398981Y23630139D01*
X102045595Y22476335D01*
X77954725Y22476335D01*
X77601339Y23630139D01*
X75303461Y21332260D01*
X64696859Y21332260D01*
X62398981Y23630139D01*
X62045595Y22476335D01*
X37852500Y22476335D01*
X37852500Y36404045D01*
X43778760Y36404045D01*
X43778760Y28923560D01*
X43874260Y28828060D01*
X66660760Y28828060D01*
X66660760Y28933439D01*
X67702281Y28933439D01*
X70000160Y26635561D01*
X72298039Y28933439D01*
X107702281Y28933439D01*
X110000160Y26635561D01*
X112192660Y28828060D01*
X134447260Y28828060D01*
X134542760Y28923560D01*
X134542760Y36404045D01*
X134484604Y36544446D01*
X134377145Y36651904D01*
X134236744Y36710060D01*
X111756260Y36710060D01*
X111660760Y36614560D01*
X111660760Y29128624D01*
X111144235Y29286825D01*
X108856085Y29286825D01*
X107702281Y28933439D01*
X72298039Y28933439D01*
X71144235Y29286825D01*
X68856085Y29286825D01*
X67702281Y28933439D01*
X66660760Y28933439D01*
X66660760Y36614560D01*
X66565260Y36710060D01*
X44084776Y36710060D01*
X43944375Y36651904D01*
X43836916Y36544446D01*
X43778760Y36404045D01*
X37852500Y36404045D01*
X37852500Y37340014D01*
X41014066Y40501580D01*
X135192920Y40501580D01*
X135193847Y40501583D01*
X142798161Y40557063D01*
X142798161Y719836D01*
X142798161Y719836D01*
G37*
X142798161Y719836D02*
X142689581Y923914D01*
X141767927Y2260D01*
X142689581Y-919394D01*
X142798161Y-715316D01*
X142798161Y-2085640D01*
X142088062Y-2795740D01*
X140717738Y-2795740D01*
X140921814Y-2687161D01*
X140000160Y-1765507D01*
X139078506Y-2687161D01*
X139282582Y-2795740D01*
X42967806Y-2795740D01*
X39617960Y554106D01*
X137113982Y554106D01*
X137113982Y-549586D01*
X137310739Y-919394D01*
X138232393Y2260D01*
X137310739Y923914D01*
X137113982Y554106D01*
X39617960Y554106D01*
X37852500Y2319566D01*
X37852500Y2691681D01*
X139078506Y2691681D01*
X140000160Y1770027D01*
X140921814Y2691681D01*
X140552006Y2888438D01*
X139448314Y2888438D01*
X139078506Y2691681D01*
X37852500Y2691681D01*
X37852500Y13732560D01*
X43778760Y13732560D01*
X43778760Y6252075D01*
X43836916Y6111674D01*
X43944375Y6004216D01*
X44084776Y5946060D01*
X66565260Y5946060D01*
X66660760Y6041560D01*
X66660760Y13731081D01*
X67702281Y13731081D01*
X68856085Y13377695D01*
X71144235Y13377695D01*
X72298039Y13731081D01*
X107702281Y13731081D01*
X108856085Y13377695D01*
X111144235Y13377695D01*
X111660760Y13535896D01*
X111660760Y6041560D01*
X111756260Y5946060D01*
X134236744Y5946060D01*
X134377145Y6004216D01*
X134484604Y6111674D01*
X134542760Y6252075D01*
X134542760Y13732560D01*
X134447260Y13828060D01*
X112201060Y13828060D01*
X110000160Y16028959D01*
X107702281Y13731081D01*
X72298039Y13731081D01*
X70000160Y16028959D01*
X67702281Y13731081D01*
X66660760Y13731081D01*
X66660760Y13828060D01*
X43874260Y13828060D01*
X43778760Y13732560D01*
X37852500Y13732560D01*
X37852500Y22476335D01*
X62045595Y22476335D01*
X62045595Y20188185D01*
X62398981Y19034381D01*
X64696859Y21332260D01*
X75303461Y21332260D01*
X77601339Y19034381D01*
X77954725Y20188185D01*
X77954725Y22476335D01*
X102045595Y22476335D01*
X102045595Y20188185D01*
X102398981Y19034381D01*
X104696859Y21332260D01*
X115303461Y21332260D01*
X117601339Y19034381D01*
X117954725Y20188185D01*
X117954725Y22476335D01*
X117601339Y23630139D01*
X115303461Y21332260D01*
X104696859Y21332260D01*
X102398981Y23630139D01*
X102045595Y22476335D01*
X77954725Y22476335D01*
X77601339Y23630139D01*
X75303461Y21332260D01*
X64696859Y21332260D01*
X62398981Y23630139D01*
X62045595Y22476335D01*
X37852500Y22476335D01*
X37852500Y36404045D01*
X43778760Y36404045D01*
X43778760Y28923560D01*
X43874260Y28828060D01*
X66660760Y28828060D01*
X66660760Y28933439D01*
X67702281Y28933439D01*
X70000160Y26635561D01*
X72298039Y28933439D01*
X107702281Y28933439D01*
X110000160Y26635561D01*
X112192660Y28828060D01*
X134447260Y28828060D01*
X134542760Y28923560D01*
X134542760Y36404045D01*
X134484604Y36544446D01*
X134377145Y36651904D01*
X134236744Y36710060D01*
X111756260Y36710060D01*
X111660760Y36614560D01*
X111660760Y29128624D01*
X111144235Y29286825D01*
X108856085Y29286825D01*
X107702281Y28933439D01*
X72298039Y28933439D01*
X71144235Y29286825D01*
X68856085Y29286825D01*
X67702281Y28933439D01*
X66660760Y28933439D01*
X66660760Y36614560D01*
X66565260Y36710060D01*
X44084776Y36710060D01*
X43944375Y36651904D01*
X43836916Y36544446D01*
X43778760Y36404045D01*
X37852500Y36404045D01*
X37852500Y37340014D01*
X41014066Y40501580D01*
X135192920Y40501580D01*
X135193847Y40501583D01*
X142798161Y40557063D01*
X142798161Y719836D01*
G04 #@! TD*
M02*
