G04 #@! TF.GenerationSoftware,KiCad,Pcbnew,(5.0.1)-3*
G04 #@! TF.CreationDate,2019-09-13T18:10:52+02:00*
G04 #@! TF.ProjectId,discovery,646973636F766572792E6B696361645F,rev?*
G04 #@! TF.SameCoordinates,PX4c4b360PY85843d4*
G04 #@! TF.FileFunction,Other,Fab,Top*
%FSLAX46Y46*%
G04 Gerber Fmt 4.6, Leading zero omitted, Abs format (unit mm)*
G04 Created by KiCad (PCBNEW (5.0.1)-3) date 13/09/2019 18:10:52*
%MOMM*%
%LPD*%
G01*
G04 APERTURE LIST*
%ADD10C,0.150000*%
%ADD11C,0.125000*%
G04 APERTURE END LIST*
G04 #@! TO.C,W13*
D10*
X91087694Y67801308D02*
X92087694Y67801308D01*
X91135313Y67801308D02*
X91087694Y67896546D01*
X91087694Y68087022D01*
X91135313Y68182260D01*
X91182932Y68229880D01*
X91278170Y68277499D01*
X91563884Y68277499D01*
X91659122Y68229880D01*
X91706741Y68182260D01*
X91754360Y68087022D01*
X91754360Y67896546D01*
X91706741Y67801308D01*
X91754360Y69134641D02*
X91230551Y69134641D01*
X91135313Y69087022D01*
X91087694Y68991784D01*
X91087694Y68801308D01*
X91135313Y68706070D01*
X91706741Y69134641D02*
X91754360Y69039403D01*
X91754360Y68801308D01*
X91706741Y68706070D01*
X91611503Y68658451D01*
X91516265Y68658451D01*
X91421027Y68706070D01*
X91373408Y68801308D01*
X91373408Y69039403D01*
X91325789Y69134641D01*
X91754360Y70039403D02*
X90754360Y70039403D01*
X91706741Y70039403D02*
X91754360Y69944165D01*
X91754360Y69753689D01*
X91706741Y69658451D01*
X91659122Y69610832D01*
X91563884Y69563213D01*
X91278170Y69563213D01*
X91182932Y69610832D01*
X91135313Y69658451D01*
X91087694Y69753689D01*
X91087694Y69944165D01*
X91135313Y70039403D01*
X91754360Y71801308D02*
X91754360Y71229880D01*
X91754360Y71515594D02*
X90754360Y71515594D01*
X90897218Y71420356D01*
X90992456Y71325118D01*
X91040075Y71229880D01*
X90849599Y72182260D02*
X90801980Y72229880D01*
X90754360Y72325118D01*
X90754360Y72563213D01*
X90801980Y72658451D01*
X90849599Y72706070D01*
X90944837Y72753689D01*
X91040075Y72753689D01*
X91182932Y72706070D01*
X91754360Y72134641D01*
X91754360Y72753689D01*
X90754360Y73039403D02*
X91754360Y73372737D01*
X90754360Y73706070D01*
G04 #@! TO.C,W20*
X91087694Y20158451D02*
X92087694Y20158451D01*
X91135313Y20158451D02*
X91087694Y20253689D01*
X91087694Y20444165D01*
X91135313Y20539403D01*
X91182932Y20587022D01*
X91278170Y20634641D01*
X91563884Y20634641D01*
X91659122Y20587022D01*
X91706741Y20539403D01*
X91754360Y20444165D01*
X91754360Y20253689D01*
X91706741Y20158451D01*
X91754360Y21491784D02*
X91230551Y21491784D01*
X91135313Y21444165D01*
X91087694Y21348927D01*
X91087694Y21158451D01*
X91135313Y21063213D01*
X91706741Y21491784D02*
X91754360Y21396546D01*
X91754360Y21158451D01*
X91706741Y21063213D01*
X91611503Y21015594D01*
X91516265Y21015594D01*
X91421027Y21063213D01*
X91373408Y21158451D01*
X91373408Y21396546D01*
X91325789Y21491784D01*
X91754360Y22396546D02*
X90754360Y22396546D01*
X91706741Y22396546D02*
X91754360Y22301308D01*
X91754360Y22110832D01*
X91706741Y22015594D01*
X91659122Y21967975D01*
X91563884Y21920356D01*
X91278170Y21920356D01*
X91182932Y21967975D01*
X91135313Y22015594D01*
X91087694Y22110832D01*
X91087694Y22301308D01*
X91135313Y22396546D01*
X90801980Y24158451D02*
X90754360Y24063213D01*
X90754360Y23920356D01*
X90801980Y23777499D01*
X90897218Y23682260D01*
X90992456Y23634641D01*
X91182932Y23587022D01*
X91325789Y23587022D01*
X91516265Y23634641D01*
X91611503Y23682260D01*
X91706741Y23777499D01*
X91754360Y23920356D01*
X91754360Y24015594D01*
X91706741Y24158451D01*
X91659122Y24206070D01*
X91325789Y24206070D01*
X91325789Y24015594D01*
X91754360Y24634641D02*
X90754360Y24634641D01*
X91754360Y25206070D01*
X90754360Y25206070D01*
X91754360Y25682260D02*
X90754360Y25682260D01*
X90754360Y25920356D01*
X90801980Y26063213D01*
X90897218Y26158451D01*
X90992456Y26206070D01*
X91182932Y26253689D01*
X91325789Y26253689D01*
X91516265Y26206070D01*
X91611503Y26158451D01*
X91706741Y26063213D01*
X91754360Y25920356D01*
X91754360Y25682260D01*
G04 #@! TO.C,J1*
X14208202Y68757883D02*
X14255821Y68710264D01*
X14303440Y68567407D01*
X14303440Y68472169D01*
X14255821Y68329312D01*
X14160583Y68234074D01*
X14065345Y68186455D01*
X13874869Y68138836D01*
X13732012Y68138836D01*
X13541536Y68186455D01*
X13446298Y68234074D01*
X13351060Y68329312D01*
X13303440Y68472169D01*
X13303440Y68567407D01*
X13351060Y68710264D01*
X13398679Y68757883D01*
X14303440Y69329312D02*
X14255821Y69234074D01*
X14208202Y69186455D01*
X14112964Y69138836D01*
X13827250Y69138836D01*
X13732012Y69186455D01*
X13684393Y69234074D01*
X13636774Y69329312D01*
X13636774Y69472169D01*
X13684393Y69567407D01*
X13732012Y69615026D01*
X13827250Y69662645D01*
X14112964Y69662645D01*
X14208202Y69615026D01*
X14255821Y69567407D01*
X14303440Y69472169D01*
X14303440Y69329312D01*
X13636774Y70091217D02*
X14303440Y70091217D01*
X13732012Y70091217D02*
X13684393Y70138836D01*
X13636774Y70234074D01*
X13636774Y70376931D01*
X13684393Y70472169D01*
X13779631Y70519788D01*
X14303440Y70519788D01*
X13636774Y70995979D02*
X14303440Y70995979D01*
X13732012Y70995979D02*
X13684393Y71043598D01*
X13636774Y71138836D01*
X13636774Y71281693D01*
X13684393Y71376931D01*
X13779631Y71424550D01*
X14303440Y71424550D01*
X14398679Y71662645D02*
X14398679Y72424550D01*
X13303440Y72853121D02*
X13303440Y72948360D01*
X13351060Y73043598D01*
X13398679Y73091217D01*
X13493917Y73138836D01*
X13684393Y73186455D01*
X13922488Y73186455D01*
X14112964Y73138836D01*
X14208202Y73091217D01*
X14255821Y73043598D01*
X14303440Y72948360D01*
X14303440Y72853121D01*
X14255821Y72757883D01*
X14208202Y72710264D01*
X14112964Y72662645D01*
X13922488Y72615026D01*
X13684393Y72615026D01*
X13493917Y72662645D01*
X13398679Y72710264D01*
X13351060Y72757883D01*
X13303440Y72853121D01*
X13398679Y73567407D02*
X13351060Y73615026D01*
X13303440Y73710264D01*
X13303440Y73948360D01*
X13351060Y74043598D01*
X13398679Y74091217D01*
X13493917Y74138836D01*
X13589155Y74138836D01*
X13732012Y74091217D01*
X14303440Y73519788D01*
X14303440Y74138836D01*
X14303440Y74472169D02*
X13636774Y74995979D01*
X13636774Y74472169D02*
X14303440Y74995979D01*
X13303440Y75567407D02*
X13303440Y75662645D01*
X13351060Y75757883D01*
X13398679Y75805502D01*
X13493917Y75853121D01*
X13684393Y75900740D01*
X13922488Y75900740D01*
X14112964Y75853121D01*
X14208202Y75805502D01*
X14255821Y75757883D01*
X14303440Y75662645D01*
X14303440Y75567407D01*
X14255821Y75472169D01*
X14208202Y75424550D01*
X14112964Y75376931D01*
X13922488Y75329312D01*
X13684393Y75329312D01*
X13493917Y75376931D01*
X13398679Y75424550D01*
X13351060Y75472169D01*
X13303440Y75567407D01*
X13636774Y76757883D02*
X14303440Y76757883D01*
X13255821Y76519788D02*
X13970107Y76281693D01*
X13970107Y76900740D01*
X14398679Y77043598D02*
X14398679Y77805502D01*
X14208202Y78615026D02*
X14255821Y78567407D01*
X14303440Y78424550D01*
X14303440Y78329312D01*
X14255821Y78186455D01*
X14160583Y78091217D01*
X14065345Y78043598D01*
X13874869Y77995979D01*
X13732012Y77995979D01*
X13541536Y78043598D01*
X13446298Y78091217D01*
X13351060Y78186455D01*
X13303440Y78329312D01*
X13303440Y78424550D01*
X13351060Y78567407D01*
X13398679Y78615026D01*
X14303440Y79043598D02*
X13303440Y79043598D01*
X13303440Y79424550D01*
X13351060Y79519788D01*
X13398679Y79567407D01*
X13493917Y79615026D01*
X13636774Y79615026D01*
X13732012Y79567407D01*
X13779631Y79519788D01*
X13827250Y79424550D01*
X13827250Y79043598D01*
X13303440Y80043598D02*
X14112964Y80043598D01*
X14208202Y80091217D01*
X14255821Y80138836D01*
X14303440Y80234074D01*
X14303440Y80424550D01*
X14255821Y80519788D01*
X14208202Y80567407D01*
X14112964Y80615026D01*
X13303440Y80615026D01*
G04 #@! TO.C,J2*
D11*
X2092017Y11426475D02*
X2127731Y11390760D01*
X2163445Y11283618D01*
X2163445Y11212189D01*
X2127731Y11105046D01*
X2056302Y11033618D01*
X1984874Y10997903D01*
X1842017Y10962189D01*
X1734874Y10962189D01*
X1592017Y10997903D01*
X1520588Y11033618D01*
X1449160Y11105046D01*
X1413445Y11212189D01*
X1413445Y11283618D01*
X1449160Y11390760D01*
X1484874Y11426475D01*
X2163445Y11855046D02*
X2127731Y11783618D01*
X2092017Y11747903D01*
X2020588Y11712189D01*
X1806302Y11712189D01*
X1734874Y11747903D01*
X1699160Y11783618D01*
X1663445Y11855046D01*
X1663445Y11962189D01*
X1699160Y12033618D01*
X1734874Y12069332D01*
X1806302Y12105046D01*
X2020588Y12105046D01*
X2092017Y12069332D01*
X2127731Y12033618D01*
X2163445Y11962189D01*
X2163445Y11855046D01*
X1663445Y12426475D02*
X2163445Y12426475D01*
X1734874Y12426475D02*
X1699160Y12462189D01*
X1663445Y12533618D01*
X1663445Y12640760D01*
X1699160Y12712189D01*
X1770588Y12747903D01*
X2163445Y12747903D01*
X1663445Y13105046D02*
X2163445Y13105046D01*
X1734874Y13105046D02*
X1699160Y13140760D01*
X1663445Y13212189D01*
X1663445Y13319332D01*
X1699160Y13390760D01*
X1770588Y13426475D01*
X2163445Y13426475D01*
X2234874Y13605046D02*
X2234874Y14176475D01*
X1413445Y14497903D02*
X1413445Y14569332D01*
X1449160Y14640760D01*
X1484874Y14676475D01*
X1556302Y14712189D01*
X1699160Y14747903D01*
X1877731Y14747903D01*
X2020588Y14712189D01*
X2092017Y14676475D01*
X2127731Y14640760D01*
X2163445Y14569332D01*
X2163445Y14497903D01*
X2127731Y14426475D01*
X2092017Y14390760D01*
X2020588Y14355046D01*
X1877731Y14319332D01*
X1699160Y14319332D01*
X1556302Y14355046D01*
X1484874Y14390760D01*
X1449160Y14426475D01*
X1413445Y14497903D01*
X1484874Y15033618D02*
X1449160Y15069332D01*
X1413445Y15140760D01*
X1413445Y15319332D01*
X1449160Y15390760D01*
X1484874Y15426475D01*
X1556302Y15462189D01*
X1627731Y15462189D01*
X1734874Y15426475D01*
X2163445Y14997903D01*
X2163445Y15462189D01*
X2163445Y15712189D02*
X1663445Y16105046D01*
X1663445Y15712189D02*
X2163445Y16105046D01*
X1413445Y16533618D02*
X1413445Y16605046D01*
X1449160Y16676475D01*
X1484874Y16712189D01*
X1556302Y16747903D01*
X1699160Y16783618D01*
X1877731Y16783618D01*
X2020588Y16747903D01*
X2092017Y16712189D01*
X2127731Y16676475D01*
X2163445Y16605046D01*
X2163445Y16533618D01*
X2127731Y16462189D01*
X2092017Y16426475D01*
X2020588Y16390760D01*
X1877731Y16355046D01*
X1699160Y16355046D01*
X1556302Y16390760D01*
X1484874Y16426475D01*
X1449160Y16462189D01*
X1413445Y16533618D01*
X1413445Y17033618D02*
X1413445Y17497903D01*
X1699160Y17247903D01*
X1699160Y17355046D01*
X1734874Y17426475D01*
X1770588Y17462189D01*
X1842017Y17497903D01*
X2020588Y17497903D01*
X2092017Y17462189D01*
X2127731Y17426475D01*
X2163445Y17355046D01*
X2163445Y17140760D01*
X2127731Y17069332D01*
X2092017Y17033618D01*
X2234874Y17640760D02*
X2234874Y18212189D01*
X2163445Y18390760D02*
X1413445Y18390760D01*
X1413445Y18676475D01*
X1449160Y18747903D01*
X1484874Y18783618D01*
X1556302Y18819332D01*
X1663445Y18819332D01*
X1734874Y18783618D01*
X1770588Y18747903D01*
X1806302Y18676475D01*
X1806302Y18390760D01*
X2092017Y19569332D02*
X2127731Y19533618D01*
X2163445Y19426475D01*
X2163445Y19355046D01*
X2127731Y19247903D01*
X2056302Y19176475D01*
X1984874Y19140760D01*
X1842017Y19105046D01*
X1734874Y19105046D01*
X1592017Y19140760D01*
X1520588Y19176475D01*
X1449160Y19247903D01*
X1413445Y19355046D01*
X1413445Y19426475D01*
X1449160Y19533618D01*
X1484874Y19569332D01*
X2163445Y19890760D02*
X1413445Y19890760D01*
X2127731Y20533618D02*
X2163445Y20462189D01*
X2163445Y20319332D01*
X2127731Y20247903D01*
X2056302Y20212189D01*
X1770588Y20212189D01*
X1699160Y20247903D01*
X1663445Y20319332D01*
X1663445Y20462189D01*
X1699160Y20533618D01*
X1770588Y20569332D01*
X1842017Y20569332D01*
X1913445Y20212189D01*
G04 #@! TO.C,J3*
D10*
X22506402Y65360923D02*
X22554021Y65313304D01*
X22601640Y65170447D01*
X22601640Y65075209D01*
X22554021Y64932352D01*
X22458783Y64837114D01*
X22363545Y64789495D01*
X22173069Y64741876D01*
X22030212Y64741876D01*
X21839736Y64789495D01*
X21744498Y64837114D01*
X21649260Y64932352D01*
X21601640Y65075209D01*
X21601640Y65170447D01*
X21649260Y65313304D01*
X21696879Y65360923D01*
X22601640Y65932352D02*
X22554021Y65837114D01*
X22506402Y65789495D01*
X22411164Y65741876D01*
X22125450Y65741876D01*
X22030212Y65789495D01*
X21982593Y65837114D01*
X21934974Y65932352D01*
X21934974Y66075209D01*
X21982593Y66170447D01*
X22030212Y66218066D01*
X22125450Y66265685D01*
X22411164Y66265685D01*
X22506402Y66218066D01*
X22554021Y66170447D01*
X22601640Y66075209D01*
X22601640Y65932352D01*
X21934974Y66694257D02*
X22601640Y66694257D01*
X22030212Y66694257D02*
X21982593Y66741876D01*
X21934974Y66837114D01*
X21934974Y66979971D01*
X21982593Y67075209D01*
X22077831Y67122828D01*
X22601640Y67122828D01*
X21934974Y67599019D02*
X22601640Y67599019D01*
X22030212Y67599019D02*
X21982593Y67646638D01*
X21934974Y67741876D01*
X21934974Y67884733D01*
X21982593Y67979971D01*
X22077831Y68027590D01*
X22601640Y68027590D01*
X22696879Y68265685D02*
X22696879Y69027590D01*
X21601640Y69456161D02*
X21601640Y69551400D01*
X21649260Y69646638D01*
X21696879Y69694257D01*
X21792117Y69741876D01*
X21982593Y69789495D01*
X22220688Y69789495D01*
X22411164Y69741876D01*
X22506402Y69694257D01*
X22554021Y69646638D01*
X22601640Y69551400D01*
X22601640Y69456161D01*
X22554021Y69360923D01*
X22506402Y69313304D01*
X22411164Y69265685D01*
X22220688Y69218066D01*
X21982593Y69218066D01*
X21792117Y69265685D01*
X21696879Y69313304D01*
X21649260Y69360923D01*
X21601640Y69456161D01*
X21696879Y70170447D02*
X21649260Y70218066D01*
X21601640Y70313304D01*
X21601640Y70551400D01*
X21649260Y70646638D01*
X21696879Y70694257D01*
X21792117Y70741876D01*
X21887355Y70741876D01*
X22030212Y70694257D01*
X22601640Y70122828D01*
X22601640Y70741876D01*
X22601640Y71075209D02*
X21934974Y71599019D01*
X21934974Y71075209D02*
X22601640Y71599019D01*
X21601640Y72170447D02*
X21601640Y72265685D01*
X21649260Y72360923D01*
X21696879Y72408542D01*
X21792117Y72456161D01*
X21982593Y72503780D01*
X22220688Y72503780D01*
X22411164Y72456161D01*
X22506402Y72408542D01*
X22554021Y72360923D01*
X22601640Y72265685D01*
X22601640Y72170447D01*
X22554021Y72075209D01*
X22506402Y72027590D01*
X22411164Y71979971D01*
X22220688Y71932352D01*
X21982593Y71932352D01*
X21792117Y71979971D01*
X21696879Y72027590D01*
X21649260Y72075209D01*
X21601640Y72170447D01*
X21934974Y73360923D02*
X22601640Y73360923D01*
X21554021Y73122828D02*
X22268307Y72884733D01*
X22268307Y73503780D01*
X22696879Y73646638D02*
X22696879Y74408542D01*
X22506402Y75218066D02*
X22554021Y75170447D01*
X22601640Y75027590D01*
X22601640Y74932352D01*
X22554021Y74789495D01*
X22458783Y74694257D01*
X22363545Y74646638D01*
X22173069Y74599019D01*
X22030212Y74599019D01*
X21839736Y74646638D01*
X21744498Y74694257D01*
X21649260Y74789495D01*
X21601640Y74932352D01*
X21601640Y75027590D01*
X21649260Y75170447D01*
X21696879Y75218066D01*
X22601640Y75646638D02*
X21601640Y75646638D01*
X21601640Y76027590D01*
X21649260Y76122828D01*
X21696879Y76170447D01*
X21792117Y76218066D01*
X21934974Y76218066D01*
X22030212Y76170447D01*
X22077831Y76122828D01*
X22125450Y76027590D01*
X22125450Y75646638D01*
X21601640Y76646638D02*
X22411164Y76646638D01*
X22506402Y76694257D01*
X22554021Y76741876D01*
X22601640Y76837114D01*
X22601640Y77027590D01*
X22554021Y77122828D01*
X22506402Y77170447D01*
X22411164Y77218066D01*
X21601640Y77218066D01*
G04 #@! TO.C,J4*
D11*
X2092017Y40259075D02*
X2127731Y40223360D01*
X2163445Y40116218D01*
X2163445Y40044789D01*
X2127731Y39937646D01*
X2056302Y39866218D01*
X1984874Y39830503D01*
X1842017Y39794789D01*
X1734874Y39794789D01*
X1592017Y39830503D01*
X1520588Y39866218D01*
X1449160Y39937646D01*
X1413445Y40044789D01*
X1413445Y40116218D01*
X1449160Y40223360D01*
X1484874Y40259075D01*
X2163445Y40687646D02*
X2127731Y40616218D01*
X2092017Y40580503D01*
X2020588Y40544789D01*
X1806302Y40544789D01*
X1734874Y40580503D01*
X1699160Y40616218D01*
X1663445Y40687646D01*
X1663445Y40794789D01*
X1699160Y40866218D01*
X1734874Y40901932D01*
X1806302Y40937646D01*
X2020588Y40937646D01*
X2092017Y40901932D01*
X2127731Y40866218D01*
X2163445Y40794789D01*
X2163445Y40687646D01*
X1663445Y41259075D02*
X2163445Y41259075D01*
X1734874Y41259075D02*
X1699160Y41294789D01*
X1663445Y41366218D01*
X1663445Y41473360D01*
X1699160Y41544789D01*
X1770588Y41580503D01*
X2163445Y41580503D01*
X1663445Y41937646D02*
X2163445Y41937646D01*
X1734874Y41937646D02*
X1699160Y41973360D01*
X1663445Y42044789D01*
X1663445Y42151932D01*
X1699160Y42223360D01*
X1770588Y42259075D01*
X2163445Y42259075D01*
X2234874Y42437646D02*
X2234874Y43009075D01*
X1413445Y43330503D02*
X1413445Y43401932D01*
X1449160Y43473360D01*
X1484874Y43509075D01*
X1556302Y43544789D01*
X1699160Y43580503D01*
X1877731Y43580503D01*
X2020588Y43544789D01*
X2092017Y43509075D01*
X2127731Y43473360D01*
X2163445Y43401932D01*
X2163445Y43330503D01*
X2127731Y43259075D01*
X2092017Y43223360D01*
X2020588Y43187646D01*
X1877731Y43151932D01*
X1699160Y43151932D01*
X1556302Y43187646D01*
X1484874Y43223360D01*
X1449160Y43259075D01*
X1413445Y43330503D01*
X1484874Y43866218D02*
X1449160Y43901932D01*
X1413445Y43973360D01*
X1413445Y44151932D01*
X1449160Y44223360D01*
X1484874Y44259075D01*
X1556302Y44294789D01*
X1627731Y44294789D01*
X1734874Y44259075D01*
X2163445Y43830503D01*
X2163445Y44294789D01*
X2163445Y44544789D02*
X1663445Y44937646D01*
X1663445Y44544789D02*
X2163445Y44937646D01*
X1413445Y45366218D02*
X1413445Y45437646D01*
X1449160Y45509075D01*
X1484874Y45544789D01*
X1556302Y45580503D01*
X1699160Y45616218D01*
X1877731Y45616218D01*
X2020588Y45580503D01*
X2092017Y45544789D01*
X2127731Y45509075D01*
X2163445Y45437646D01*
X2163445Y45366218D01*
X2127731Y45294789D01*
X2092017Y45259075D01*
X2020588Y45223360D01*
X1877731Y45187646D01*
X1699160Y45187646D01*
X1556302Y45223360D01*
X1484874Y45259075D01*
X1449160Y45294789D01*
X1413445Y45366218D01*
X1413445Y45866218D02*
X1413445Y46330503D01*
X1699160Y46080503D01*
X1699160Y46187646D01*
X1734874Y46259075D01*
X1770588Y46294789D01*
X1842017Y46330503D01*
X2020588Y46330503D01*
X2092017Y46294789D01*
X2127731Y46259075D01*
X2163445Y46187646D01*
X2163445Y45973360D01*
X2127731Y45901932D01*
X2092017Y45866218D01*
X2234874Y46473360D02*
X2234874Y47044789D01*
X2163445Y47223360D02*
X1413445Y47223360D01*
X1413445Y47509075D01*
X1449160Y47580503D01*
X1484874Y47616218D01*
X1556302Y47651932D01*
X1663445Y47651932D01*
X1734874Y47616218D01*
X1770588Y47580503D01*
X1806302Y47509075D01*
X1806302Y47223360D01*
X2092017Y48401932D02*
X2127731Y48366218D01*
X2163445Y48259075D01*
X2163445Y48187646D01*
X2127731Y48080503D01*
X2056302Y48009075D01*
X1984874Y47973360D01*
X1842017Y47937646D01*
X1734874Y47937646D01*
X1592017Y47973360D01*
X1520588Y48009075D01*
X1449160Y48080503D01*
X1413445Y48187646D01*
X1413445Y48259075D01*
X1449160Y48366218D01*
X1484874Y48401932D01*
X2163445Y48723360D02*
X1413445Y48723360D01*
X2127731Y49366218D02*
X2163445Y49294789D01*
X2163445Y49151932D01*
X2127731Y49080503D01*
X2056302Y49044789D01*
X1770588Y49044789D01*
X1699160Y49080503D01*
X1663445Y49151932D01*
X1663445Y49294789D01*
X1699160Y49366218D01*
X1770588Y49401932D01*
X1842017Y49401932D01*
X1913445Y49044789D01*
G04 #@! TO.C,J5*
X34444017Y40266875D02*
X34479731Y40231160D01*
X34515445Y40124018D01*
X34515445Y40052589D01*
X34479731Y39945446D01*
X34408302Y39874018D01*
X34336874Y39838303D01*
X34194017Y39802589D01*
X34086874Y39802589D01*
X33944017Y39838303D01*
X33872588Y39874018D01*
X33801160Y39945446D01*
X33765445Y40052589D01*
X33765445Y40124018D01*
X33801160Y40231160D01*
X33836874Y40266875D01*
X34515445Y40695446D02*
X34479731Y40624018D01*
X34444017Y40588303D01*
X34372588Y40552589D01*
X34158302Y40552589D01*
X34086874Y40588303D01*
X34051160Y40624018D01*
X34015445Y40695446D01*
X34015445Y40802589D01*
X34051160Y40874018D01*
X34086874Y40909732D01*
X34158302Y40945446D01*
X34372588Y40945446D01*
X34444017Y40909732D01*
X34479731Y40874018D01*
X34515445Y40802589D01*
X34515445Y40695446D01*
X34015445Y41266875D02*
X34515445Y41266875D01*
X34086874Y41266875D02*
X34051160Y41302589D01*
X34015445Y41374018D01*
X34015445Y41481160D01*
X34051160Y41552589D01*
X34122588Y41588303D01*
X34515445Y41588303D01*
X34015445Y41945446D02*
X34515445Y41945446D01*
X34086874Y41945446D02*
X34051160Y41981160D01*
X34015445Y42052589D01*
X34015445Y42159732D01*
X34051160Y42231160D01*
X34122588Y42266875D01*
X34515445Y42266875D01*
X34586874Y42445446D02*
X34586874Y43016875D01*
X33765445Y43338303D02*
X33765445Y43409732D01*
X33801160Y43481160D01*
X33836874Y43516875D01*
X33908302Y43552589D01*
X34051160Y43588303D01*
X34229731Y43588303D01*
X34372588Y43552589D01*
X34444017Y43516875D01*
X34479731Y43481160D01*
X34515445Y43409732D01*
X34515445Y43338303D01*
X34479731Y43266875D01*
X34444017Y43231160D01*
X34372588Y43195446D01*
X34229731Y43159732D01*
X34051160Y43159732D01*
X33908302Y43195446D01*
X33836874Y43231160D01*
X33801160Y43266875D01*
X33765445Y43338303D01*
X33836874Y43874018D02*
X33801160Y43909732D01*
X33765445Y43981160D01*
X33765445Y44159732D01*
X33801160Y44231160D01*
X33836874Y44266875D01*
X33908302Y44302589D01*
X33979731Y44302589D01*
X34086874Y44266875D01*
X34515445Y43838303D01*
X34515445Y44302589D01*
X34515445Y44552589D02*
X34015445Y44945446D01*
X34015445Y44552589D02*
X34515445Y44945446D01*
X33765445Y45374018D02*
X33765445Y45445446D01*
X33801160Y45516875D01*
X33836874Y45552589D01*
X33908302Y45588303D01*
X34051160Y45624018D01*
X34229731Y45624018D01*
X34372588Y45588303D01*
X34444017Y45552589D01*
X34479731Y45516875D01*
X34515445Y45445446D01*
X34515445Y45374018D01*
X34479731Y45302589D01*
X34444017Y45266875D01*
X34372588Y45231160D01*
X34229731Y45195446D01*
X34051160Y45195446D01*
X33908302Y45231160D01*
X33836874Y45266875D01*
X33801160Y45302589D01*
X33765445Y45374018D01*
X33765445Y45874018D02*
X33765445Y46338303D01*
X34051160Y46088303D01*
X34051160Y46195446D01*
X34086874Y46266875D01*
X34122588Y46302589D01*
X34194017Y46338303D01*
X34372588Y46338303D01*
X34444017Y46302589D01*
X34479731Y46266875D01*
X34515445Y46195446D01*
X34515445Y45981160D01*
X34479731Y45909732D01*
X34444017Y45874018D01*
X34586874Y46481160D02*
X34586874Y47052589D01*
X34515445Y47231160D02*
X33765445Y47231160D01*
X33765445Y47516875D01*
X33801160Y47588303D01*
X33836874Y47624018D01*
X33908302Y47659732D01*
X34015445Y47659732D01*
X34086874Y47624018D01*
X34122588Y47588303D01*
X34158302Y47516875D01*
X34158302Y47231160D01*
X34444017Y48409732D02*
X34479731Y48374018D01*
X34515445Y48266875D01*
X34515445Y48195446D01*
X34479731Y48088303D01*
X34408302Y48016875D01*
X34336874Y47981160D01*
X34194017Y47945446D01*
X34086874Y47945446D01*
X33944017Y47981160D01*
X33872588Y48016875D01*
X33801160Y48088303D01*
X33765445Y48195446D01*
X33765445Y48266875D01*
X33801160Y48374018D01*
X33836874Y48409732D01*
X34515445Y48731160D02*
X33765445Y48731160D01*
X34479731Y49374018D02*
X34515445Y49302589D01*
X34515445Y49159732D01*
X34479731Y49088303D01*
X34408302Y49052589D01*
X34122588Y49052589D01*
X34051160Y49088303D01*
X34015445Y49159732D01*
X34015445Y49302589D01*
X34051160Y49374018D01*
X34122588Y49409732D01*
X34194017Y49409732D01*
X34265445Y49052589D01*
G04 #@! TO.C,J6*
X34444017Y11434275D02*
X34479731Y11398560D01*
X34515445Y11291418D01*
X34515445Y11219989D01*
X34479731Y11112846D01*
X34408302Y11041418D01*
X34336874Y11005703D01*
X34194017Y10969989D01*
X34086874Y10969989D01*
X33944017Y11005703D01*
X33872588Y11041418D01*
X33801160Y11112846D01*
X33765445Y11219989D01*
X33765445Y11291418D01*
X33801160Y11398560D01*
X33836874Y11434275D01*
X34515445Y11862846D02*
X34479731Y11791418D01*
X34444017Y11755703D01*
X34372588Y11719989D01*
X34158302Y11719989D01*
X34086874Y11755703D01*
X34051160Y11791418D01*
X34015445Y11862846D01*
X34015445Y11969989D01*
X34051160Y12041418D01*
X34086874Y12077132D01*
X34158302Y12112846D01*
X34372588Y12112846D01*
X34444017Y12077132D01*
X34479731Y12041418D01*
X34515445Y11969989D01*
X34515445Y11862846D01*
X34015445Y12434275D02*
X34515445Y12434275D01*
X34086874Y12434275D02*
X34051160Y12469989D01*
X34015445Y12541418D01*
X34015445Y12648560D01*
X34051160Y12719989D01*
X34122588Y12755703D01*
X34515445Y12755703D01*
X34015445Y13112846D02*
X34515445Y13112846D01*
X34086874Y13112846D02*
X34051160Y13148560D01*
X34015445Y13219989D01*
X34015445Y13327132D01*
X34051160Y13398560D01*
X34122588Y13434275D01*
X34515445Y13434275D01*
X34586874Y13612846D02*
X34586874Y14184275D01*
X33765445Y14505703D02*
X33765445Y14577132D01*
X33801160Y14648560D01*
X33836874Y14684275D01*
X33908302Y14719989D01*
X34051160Y14755703D01*
X34229731Y14755703D01*
X34372588Y14719989D01*
X34444017Y14684275D01*
X34479731Y14648560D01*
X34515445Y14577132D01*
X34515445Y14505703D01*
X34479731Y14434275D01*
X34444017Y14398560D01*
X34372588Y14362846D01*
X34229731Y14327132D01*
X34051160Y14327132D01*
X33908302Y14362846D01*
X33836874Y14398560D01*
X33801160Y14434275D01*
X33765445Y14505703D01*
X33836874Y15041418D02*
X33801160Y15077132D01*
X33765445Y15148560D01*
X33765445Y15327132D01*
X33801160Y15398560D01*
X33836874Y15434275D01*
X33908302Y15469989D01*
X33979731Y15469989D01*
X34086874Y15434275D01*
X34515445Y15005703D01*
X34515445Y15469989D01*
X34515445Y15719989D02*
X34015445Y16112846D01*
X34015445Y15719989D02*
X34515445Y16112846D01*
X33765445Y16541418D02*
X33765445Y16612846D01*
X33801160Y16684275D01*
X33836874Y16719989D01*
X33908302Y16755703D01*
X34051160Y16791418D01*
X34229731Y16791418D01*
X34372588Y16755703D01*
X34444017Y16719989D01*
X34479731Y16684275D01*
X34515445Y16612846D01*
X34515445Y16541418D01*
X34479731Y16469989D01*
X34444017Y16434275D01*
X34372588Y16398560D01*
X34229731Y16362846D01*
X34051160Y16362846D01*
X33908302Y16398560D01*
X33836874Y16434275D01*
X33801160Y16469989D01*
X33765445Y16541418D01*
X33765445Y17041418D02*
X33765445Y17505703D01*
X34051160Y17255703D01*
X34051160Y17362846D01*
X34086874Y17434275D01*
X34122588Y17469989D01*
X34194017Y17505703D01*
X34372588Y17505703D01*
X34444017Y17469989D01*
X34479731Y17434275D01*
X34515445Y17362846D01*
X34515445Y17148560D01*
X34479731Y17077132D01*
X34444017Y17041418D01*
X34586874Y17648560D02*
X34586874Y18219989D01*
X34515445Y18398560D02*
X33765445Y18398560D01*
X33765445Y18684275D01*
X33801160Y18755703D01*
X33836874Y18791418D01*
X33908302Y18827132D01*
X34015445Y18827132D01*
X34086874Y18791418D01*
X34122588Y18755703D01*
X34158302Y18684275D01*
X34158302Y18398560D01*
X34444017Y19577132D02*
X34479731Y19541418D01*
X34515445Y19434275D01*
X34515445Y19362846D01*
X34479731Y19255703D01*
X34408302Y19184275D01*
X34336874Y19148560D01*
X34194017Y19112846D01*
X34086874Y19112846D01*
X33944017Y19148560D01*
X33872588Y19184275D01*
X33801160Y19255703D01*
X33765445Y19362846D01*
X33765445Y19434275D01*
X33801160Y19541418D01*
X33836874Y19577132D01*
X34515445Y19898560D02*
X33765445Y19898560D01*
X34479731Y20541418D02*
X34515445Y20469989D01*
X34515445Y20327132D01*
X34479731Y20255703D01*
X34408302Y20219989D01*
X34122588Y20219989D01*
X34051160Y20255703D01*
X34015445Y20327132D01*
X34015445Y20469989D01*
X34051160Y20541418D01*
X34122588Y20577132D01*
X34194017Y20577132D01*
X34265445Y20219989D01*
G04 #@! TO.C,W1*
D10*
X136381112Y-3476311D02*
X136047779Y-3476311D01*
X136047779Y-4000120D02*
X136047779Y-3000120D01*
X136523969Y-3000120D01*
X136904921Y-4000120D02*
X136904921Y-3333454D01*
X136904921Y-3000120D02*
X136857302Y-3047740D01*
X136904921Y-3095359D01*
X136952540Y-3047740D01*
X136904921Y-3000120D01*
X136904921Y-3095359D01*
X137285874Y-4000120D02*
X137809683Y-3333454D01*
X137285874Y-3333454D02*
X137809683Y-4000120D01*
X138190636Y-4000120D02*
X138190636Y-3333454D01*
X138190636Y-3000120D02*
X138143017Y-3047740D01*
X138190636Y-3095359D01*
X138238255Y-3047740D01*
X138190636Y-3000120D01*
X138190636Y-3095359D01*
X138666826Y-3333454D02*
X138666826Y-4000120D01*
X138666826Y-3428692D02*
X138714445Y-3381073D01*
X138809683Y-3333454D01*
X138952540Y-3333454D01*
X139047779Y-3381073D01*
X139095398Y-3476311D01*
X139095398Y-4000120D01*
X140000160Y-3333454D02*
X140000160Y-4142978D01*
X139952540Y-4238216D01*
X139904921Y-4285835D01*
X139809683Y-4333454D01*
X139666826Y-4333454D01*
X139571588Y-4285835D01*
X140000160Y-3952501D02*
X139904921Y-4000120D01*
X139714445Y-4000120D01*
X139619207Y-3952501D01*
X139571588Y-3904882D01*
X139523969Y-3809644D01*
X139523969Y-3523930D01*
X139571588Y-3428692D01*
X139619207Y-3381073D01*
X139714445Y-3333454D01*
X139904921Y-3333454D01*
X140000160Y-3381073D01*
X141238255Y-4000120D02*
X141238255Y-3000120D01*
X141666826Y-4000120D02*
X141666826Y-3476311D01*
X141619207Y-3381073D01*
X141523969Y-3333454D01*
X141381112Y-3333454D01*
X141285874Y-3381073D01*
X141238255Y-3428692D01*
X142285874Y-4000120D02*
X142190636Y-3952501D01*
X142143017Y-3904882D01*
X142095398Y-3809644D01*
X142095398Y-3523930D01*
X142143017Y-3428692D01*
X142190636Y-3381073D01*
X142285874Y-3333454D01*
X142428731Y-3333454D01*
X142523969Y-3381073D01*
X142571588Y-3428692D01*
X142619207Y-3523930D01*
X142619207Y-3809644D01*
X142571588Y-3904882D01*
X142523969Y-3952501D01*
X142428731Y-4000120D01*
X142285874Y-4000120D01*
X143190636Y-4000120D02*
X143095398Y-3952501D01*
X143047779Y-3857263D01*
X143047779Y-3000120D01*
X143952540Y-3952501D02*
X143857302Y-4000120D01*
X143666826Y-4000120D01*
X143571588Y-3952501D01*
X143523969Y-3857263D01*
X143523969Y-3476311D01*
X143571588Y-3381073D01*
X143666826Y-3333454D01*
X143857302Y-3333454D01*
X143952540Y-3381073D01*
X144000160Y-3476311D01*
X144000160Y-3571549D01*
X143523969Y-3666787D01*
X139095398Y4099880D02*
X139333493Y3099880D01*
X139523969Y3814165D01*
X139714445Y3099880D01*
X139952540Y4099880D01*
X140857302Y3099880D02*
X140285874Y3099880D01*
X140571588Y3099880D02*
X140571588Y4099880D01*
X140476350Y3957022D01*
X140381112Y3861784D01*
X140285874Y3814165D01*
G04 #@! TO.C,W2*
X-3618888Y86523689D02*
X-3952221Y86523689D01*
X-3952221Y85999880D02*
X-3952221Y86999880D01*
X-3476031Y86999880D01*
X-3095079Y85999880D02*
X-3095079Y86666546D01*
X-3095079Y86999880D02*
X-3142698Y86952260D01*
X-3095079Y86904641D01*
X-3047460Y86952260D01*
X-3095079Y86999880D01*
X-3095079Y86904641D01*
X-2714126Y85999880D02*
X-2190317Y86666546D01*
X-2714126Y86666546D02*
X-2190317Y85999880D01*
X-1809364Y85999880D02*
X-1809364Y86666546D01*
X-1809364Y86999880D02*
X-1856983Y86952260D01*
X-1809364Y86904641D01*
X-1761745Y86952260D01*
X-1809364Y86999880D01*
X-1809364Y86904641D01*
X-1333174Y86666546D02*
X-1333174Y85999880D01*
X-1333174Y86571308D02*
X-1285555Y86618927D01*
X-1190317Y86666546D01*
X-1047460Y86666546D01*
X-952221Y86618927D01*
X-904602Y86523689D01*
X-904602Y85999880D01*
X160Y86666546D02*
X160Y85857022D01*
X-47460Y85761784D01*
X-95079Y85714165D01*
X-190317Y85666546D01*
X-333174Y85666546D01*
X-428412Y85714165D01*
X160Y86047499D02*
X-95079Y85999880D01*
X-285555Y85999880D01*
X-380793Y86047499D01*
X-428412Y86095118D01*
X-476031Y86190356D01*
X-476031Y86476070D01*
X-428412Y86571308D01*
X-380793Y86618927D01*
X-285555Y86666546D01*
X-95079Y86666546D01*
X160Y86618927D01*
X1238255Y85999880D02*
X1238255Y86999880D01*
X1666826Y85999880D02*
X1666826Y86523689D01*
X1619207Y86618927D01*
X1523969Y86666546D01*
X1381112Y86666546D01*
X1285874Y86618927D01*
X1238255Y86571308D01*
X2285874Y85999880D02*
X2190636Y86047499D01*
X2143017Y86095118D01*
X2095398Y86190356D01*
X2095398Y86476070D01*
X2143017Y86571308D01*
X2190636Y86618927D01*
X2285874Y86666546D01*
X2428731Y86666546D01*
X2523969Y86618927D01*
X2571588Y86571308D01*
X2619207Y86476070D01*
X2619207Y86190356D01*
X2571588Y86095118D01*
X2523969Y86047499D01*
X2428731Y85999880D01*
X2285874Y85999880D01*
X3190636Y85999880D02*
X3095398Y86047499D01*
X3047779Y86142737D01*
X3047779Y86999880D01*
X3952540Y86047499D02*
X3857302Y85999880D01*
X3666826Y85999880D01*
X3571588Y86047499D01*
X3523969Y86142737D01*
X3523969Y86523689D01*
X3571588Y86618927D01*
X3666826Y86666546D01*
X3857302Y86666546D01*
X3952540Y86618927D01*
X4000160Y86523689D01*
X4000160Y86428451D01*
X3523969Y86333213D01*
X-904602Y94099880D02*
X-666507Y93099880D01*
X-476031Y93814165D01*
X-285555Y93099880D01*
X-47460Y94099880D01*
X285874Y94004641D02*
X333493Y94052260D01*
X428731Y94099880D01*
X666826Y94099880D01*
X762064Y94052260D01*
X809683Y94004641D01*
X857302Y93909403D01*
X857302Y93814165D01*
X809683Y93671308D01*
X238255Y93099880D01*
X857302Y93099880D01*
G04 #@! TO.C,W3*
X136381112Y86523689D02*
X136047779Y86523689D01*
X136047779Y85999880D02*
X136047779Y86999880D01*
X136523969Y86999880D01*
X136904921Y85999880D02*
X136904921Y86666546D01*
X136904921Y86999880D02*
X136857302Y86952260D01*
X136904921Y86904641D01*
X136952540Y86952260D01*
X136904921Y86999880D01*
X136904921Y86904641D01*
X137285874Y85999880D02*
X137809683Y86666546D01*
X137285874Y86666546D02*
X137809683Y85999880D01*
X138190636Y85999880D02*
X138190636Y86666546D01*
X138190636Y86999880D02*
X138143017Y86952260D01*
X138190636Y86904641D01*
X138238255Y86952260D01*
X138190636Y86999880D01*
X138190636Y86904641D01*
X138666826Y86666546D02*
X138666826Y85999880D01*
X138666826Y86571308D02*
X138714445Y86618927D01*
X138809683Y86666546D01*
X138952540Y86666546D01*
X139047779Y86618927D01*
X139095398Y86523689D01*
X139095398Y85999880D01*
X140000160Y86666546D02*
X140000160Y85857022D01*
X139952540Y85761784D01*
X139904921Y85714165D01*
X139809683Y85666546D01*
X139666826Y85666546D01*
X139571588Y85714165D01*
X140000160Y86047499D02*
X139904921Y85999880D01*
X139714445Y85999880D01*
X139619207Y86047499D01*
X139571588Y86095118D01*
X139523969Y86190356D01*
X139523969Y86476070D01*
X139571588Y86571308D01*
X139619207Y86618927D01*
X139714445Y86666546D01*
X139904921Y86666546D01*
X140000160Y86618927D01*
X141238255Y85999880D02*
X141238255Y86999880D01*
X141666826Y85999880D02*
X141666826Y86523689D01*
X141619207Y86618927D01*
X141523969Y86666546D01*
X141381112Y86666546D01*
X141285874Y86618927D01*
X141238255Y86571308D01*
X142285874Y85999880D02*
X142190636Y86047499D01*
X142143017Y86095118D01*
X142095398Y86190356D01*
X142095398Y86476070D01*
X142143017Y86571308D01*
X142190636Y86618927D01*
X142285874Y86666546D01*
X142428731Y86666546D01*
X142523969Y86618927D01*
X142571588Y86571308D01*
X142619207Y86476070D01*
X142619207Y86190356D01*
X142571588Y86095118D01*
X142523969Y86047499D01*
X142428731Y85999880D01*
X142285874Y85999880D01*
X143190636Y85999880D02*
X143095398Y86047499D01*
X143047779Y86142737D01*
X143047779Y86999880D01*
X143952540Y86047499D02*
X143857302Y85999880D01*
X143666826Y85999880D01*
X143571588Y86047499D01*
X143523969Y86142737D01*
X143523969Y86523689D01*
X143571588Y86618927D01*
X143666826Y86666546D01*
X143857302Y86666546D01*
X143952540Y86618927D01*
X144000160Y86523689D01*
X144000160Y86428451D01*
X143523969Y86333213D01*
X139095398Y94099880D02*
X139333493Y93099880D01*
X139523969Y93814165D01*
X139714445Y93099880D01*
X139952540Y94099880D01*
X140238255Y94099880D02*
X140857302Y94099880D01*
X140523969Y93718927D01*
X140666826Y93718927D01*
X140762064Y93671308D01*
X140809683Y93623689D01*
X140857302Y93528451D01*
X140857302Y93290356D01*
X140809683Y93195118D01*
X140762064Y93147499D01*
X140666826Y93099880D01*
X140381112Y93099880D01*
X140285874Y93147499D01*
X140238255Y93195118D01*
G04 #@! TO.C,W4*
X-3618888Y-3476311D02*
X-3952221Y-3476311D01*
X-3952221Y-4000120D02*
X-3952221Y-3000120D01*
X-3476031Y-3000120D01*
X-3095079Y-4000120D02*
X-3095079Y-3333454D01*
X-3095079Y-3000120D02*
X-3142698Y-3047740D01*
X-3095079Y-3095359D01*
X-3047460Y-3047740D01*
X-3095079Y-3000120D01*
X-3095079Y-3095359D01*
X-2714126Y-4000120D02*
X-2190317Y-3333454D01*
X-2714126Y-3333454D02*
X-2190317Y-4000120D01*
X-1809364Y-4000120D02*
X-1809364Y-3333454D01*
X-1809364Y-3000120D02*
X-1856983Y-3047740D01*
X-1809364Y-3095359D01*
X-1761745Y-3047740D01*
X-1809364Y-3000120D01*
X-1809364Y-3095359D01*
X-1333174Y-3333454D02*
X-1333174Y-4000120D01*
X-1333174Y-3428692D02*
X-1285555Y-3381073D01*
X-1190317Y-3333454D01*
X-1047460Y-3333454D01*
X-952221Y-3381073D01*
X-904602Y-3476311D01*
X-904602Y-4000120D01*
X160Y-3333454D02*
X160Y-4142978D01*
X-47460Y-4238216D01*
X-95079Y-4285835D01*
X-190317Y-4333454D01*
X-333174Y-4333454D01*
X-428412Y-4285835D01*
X160Y-3952501D02*
X-95079Y-4000120D01*
X-285555Y-4000120D01*
X-380793Y-3952501D01*
X-428412Y-3904882D01*
X-476031Y-3809644D01*
X-476031Y-3523930D01*
X-428412Y-3428692D01*
X-380793Y-3381073D01*
X-285555Y-3333454D01*
X-95079Y-3333454D01*
X160Y-3381073D01*
X1238255Y-4000120D02*
X1238255Y-3000120D01*
X1666826Y-4000120D02*
X1666826Y-3476311D01*
X1619207Y-3381073D01*
X1523969Y-3333454D01*
X1381112Y-3333454D01*
X1285874Y-3381073D01*
X1238255Y-3428692D01*
X2285874Y-4000120D02*
X2190636Y-3952501D01*
X2143017Y-3904882D01*
X2095398Y-3809644D01*
X2095398Y-3523930D01*
X2143017Y-3428692D01*
X2190636Y-3381073D01*
X2285874Y-3333454D01*
X2428731Y-3333454D01*
X2523969Y-3381073D01*
X2571588Y-3428692D01*
X2619207Y-3523930D01*
X2619207Y-3809644D01*
X2571588Y-3904882D01*
X2523969Y-3952501D01*
X2428731Y-4000120D01*
X2285874Y-4000120D01*
X3190636Y-4000120D02*
X3095398Y-3952501D01*
X3047779Y-3857263D01*
X3047779Y-3000120D01*
X3952540Y-3952501D02*
X3857302Y-4000120D01*
X3666826Y-4000120D01*
X3571588Y-3952501D01*
X3523969Y-3857263D01*
X3523969Y-3476311D01*
X3571588Y-3381073D01*
X3666826Y-3333454D01*
X3857302Y-3333454D01*
X3952540Y-3381073D01*
X4000160Y-3476311D01*
X4000160Y-3571549D01*
X3523969Y-3666787D01*
X-904602Y4099880D02*
X-666507Y3099880D01*
X-476031Y3814165D01*
X-285555Y3099880D01*
X-47460Y4099880D01*
X762064Y3766546D02*
X762064Y3099880D01*
X523969Y4147499D02*
X285874Y3433213D01*
X904921Y3433213D01*
G04 #@! TO.C,W5*
X76103422Y68585336D02*
X76151041Y68537717D01*
X76198660Y68394860D01*
X76198660Y68299621D01*
X76151041Y68156764D01*
X76055803Y68061526D01*
X75960565Y68013907D01*
X75770089Y67966288D01*
X75627232Y67966288D01*
X75436756Y68013907D01*
X75341518Y68061526D01*
X75246280Y68156764D01*
X75198660Y68299621D01*
X75198660Y68394860D01*
X75246280Y68537717D01*
X75293899Y68585336D01*
X76198660Y69442479D02*
X75674851Y69442479D01*
X75579613Y69394860D01*
X75531994Y69299621D01*
X75531994Y69109145D01*
X75579613Y69013907D01*
X76151041Y69442479D02*
X76198660Y69347240D01*
X76198660Y69109145D01*
X76151041Y69013907D01*
X76055803Y68966288D01*
X75960565Y68966288D01*
X75865327Y69013907D01*
X75817708Y69109145D01*
X75817708Y69347240D01*
X75770089Y69442479D01*
X76198660Y69918669D02*
X75198660Y69918669D01*
X75579613Y69918669D02*
X75531994Y70013907D01*
X75531994Y70204383D01*
X75579613Y70299621D01*
X75627232Y70347240D01*
X75722470Y70394860D01*
X76008184Y70394860D01*
X76103422Y70347240D01*
X76151041Y70299621D01*
X76198660Y70204383D01*
X76198660Y70013907D01*
X76151041Y69918669D01*
X76198660Y70966288D02*
X76151041Y70871050D01*
X76055803Y70823431D01*
X75198660Y70823431D01*
X76151041Y71728193D02*
X76198660Y71632955D01*
X76198660Y71442479D01*
X76151041Y71347240D01*
X76055803Y71299621D01*
X75674851Y71299621D01*
X75579613Y71347240D01*
X75531994Y71442479D01*
X75531994Y71632955D01*
X75579613Y71728193D01*
X75674851Y71775812D01*
X75770089Y71775812D01*
X75865327Y71299621D01*
X76198660Y72966288D02*
X75198660Y72966288D01*
X76198660Y73394860D02*
X75674851Y73394860D01*
X75579613Y73347240D01*
X75531994Y73252002D01*
X75531994Y73109145D01*
X75579613Y73013907D01*
X75627232Y72966288D01*
X76198660Y74013907D02*
X76151041Y73918669D01*
X76103422Y73871050D01*
X76008184Y73823431D01*
X75722470Y73823431D01*
X75627232Y73871050D01*
X75579613Y73918669D01*
X75531994Y74013907D01*
X75531994Y74156764D01*
X75579613Y74252002D01*
X75627232Y74299621D01*
X75722470Y74347240D01*
X76008184Y74347240D01*
X76103422Y74299621D01*
X76151041Y74252002D01*
X76198660Y74156764D01*
X76198660Y74013907D01*
X76198660Y74918669D02*
X76151041Y74823431D01*
X76055803Y74775812D01*
X75198660Y74775812D01*
X76151041Y75680574D02*
X76198660Y75585336D01*
X76198660Y75394860D01*
X76151041Y75299621D01*
X76055803Y75252002D01*
X75674851Y75252002D01*
X75579613Y75299621D01*
X75531994Y75394860D01*
X75531994Y75585336D01*
X75579613Y75680574D01*
X75674851Y75728193D01*
X75770089Y75728193D01*
X75865327Y75252002D01*
G04 #@! TO.C,W6*
X116103422Y68585336D02*
X116151041Y68537717D01*
X116198660Y68394860D01*
X116198660Y68299621D01*
X116151041Y68156764D01*
X116055803Y68061526D01*
X115960565Y68013907D01*
X115770089Y67966288D01*
X115627232Y67966288D01*
X115436756Y68013907D01*
X115341518Y68061526D01*
X115246280Y68156764D01*
X115198660Y68299621D01*
X115198660Y68394860D01*
X115246280Y68537717D01*
X115293899Y68585336D01*
X116198660Y69442479D02*
X115674851Y69442479D01*
X115579613Y69394860D01*
X115531994Y69299621D01*
X115531994Y69109145D01*
X115579613Y69013907D01*
X116151041Y69442479D02*
X116198660Y69347240D01*
X116198660Y69109145D01*
X116151041Y69013907D01*
X116055803Y68966288D01*
X115960565Y68966288D01*
X115865327Y69013907D01*
X115817708Y69109145D01*
X115817708Y69347240D01*
X115770089Y69442479D01*
X116198660Y69918669D02*
X115198660Y69918669D01*
X115579613Y69918669D02*
X115531994Y70013907D01*
X115531994Y70204383D01*
X115579613Y70299621D01*
X115627232Y70347240D01*
X115722470Y70394860D01*
X116008184Y70394860D01*
X116103422Y70347240D01*
X116151041Y70299621D01*
X116198660Y70204383D01*
X116198660Y70013907D01*
X116151041Y69918669D01*
X116198660Y70966288D02*
X116151041Y70871050D01*
X116055803Y70823431D01*
X115198660Y70823431D01*
X116151041Y71728193D02*
X116198660Y71632955D01*
X116198660Y71442479D01*
X116151041Y71347240D01*
X116055803Y71299621D01*
X115674851Y71299621D01*
X115579613Y71347240D01*
X115531994Y71442479D01*
X115531994Y71632955D01*
X115579613Y71728193D01*
X115674851Y71775812D01*
X115770089Y71775812D01*
X115865327Y71299621D01*
X116198660Y72966288D02*
X115198660Y72966288D01*
X116198660Y73394860D02*
X115674851Y73394860D01*
X115579613Y73347240D01*
X115531994Y73252002D01*
X115531994Y73109145D01*
X115579613Y73013907D01*
X115627232Y72966288D01*
X116198660Y74013907D02*
X116151041Y73918669D01*
X116103422Y73871050D01*
X116008184Y73823431D01*
X115722470Y73823431D01*
X115627232Y73871050D01*
X115579613Y73918669D01*
X115531994Y74013907D01*
X115531994Y74156764D01*
X115579613Y74252002D01*
X115627232Y74299621D01*
X115722470Y74347240D01*
X116008184Y74347240D01*
X116103422Y74299621D01*
X116151041Y74252002D01*
X116198660Y74156764D01*
X116198660Y74013907D01*
X116198660Y74918669D02*
X116151041Y74823431D01*
X116055803Y74775812D01*
X115198660Y74775812D01*
X116151041Y75680574D02*
X116198660Y75585336D01*
X116198660Y75394860D01*
X116151041Y75299621D01*
X116055803Y75252002D01*
X115674851Y75252002D01*
X115579613Y75299621D01*
X115531994Y75394860D01*
X115531994Y75585336D01*
X115579613Y75680574D01*
X115674851Y75728193D01*
X115770089Y75728193D01*
X115865327Y75252002D01*
G04 #@! TO.C,W11*
X73603422Y21085336D02*
X73651041Y21037717D01*
X73698660Y20894860D01*
X73698660Y20799621D01*
X73651041Y20656764D01*
X73555803Y20561526D01*
X73460565Y20513907D01*
X73270089Y20466288D01*
X73127232Y20466288D01*
X72936756Y20513907D01*
X72841518Y20561526D01*
X72746280Y20656764D01*
X72698660Y20799621D01*
X72698660Y20894860D01*
X72746280Y21037717D01*
X72793899Y21085336D01*
X73698660Y21942479D02*
X73174851Y21942479D01*
X73079613Y21894860D01*
X73031994Y21799621D01*
X73031994Y21609145D01*
X73079613Y21513907D01*
X73651041Y21942479D02*
X73698660Y21847240D01*
X73698660Y21609145D01*
X73651041Y21513907D01*
X73555803Y21466288D01*
X73460565Y21466288D01*
X73365327Y21513907D01*
X73317708Y21609145D01*
X73317708Y21847240D01*
X73270089Y21942479D01*
X73698660Y22418669D02*
X72698660Y22418669D01*
X73079613Y22418669D02*
X73031994Y22513907D01*
X73031994Y22704383D01*
X73079613Y22799621D01*
X73127232Y22847240D01*
X73222470Y22894860D01*
X73508184Y22894860D01*
X73603422Y22847240D01*
X73651041Y22799621D01*
X73698660Y22704383D01*
X73698660Y22513907D01*
X73651041Y22418669D01*
X73698660Y23466288D02*
X73651041Y23371050D01*
X73555803Y23323431D01*
X72698660Y23323431D01*
X73651041Y24228193D02*
X73698660Y24132955D01*
X73698660Y23942479D01*
X73651041Y23847240D01*
X73555803Y23799621D01*
X73174851Y23799621D01*
X73079613Y23847240D01*
X73031994Y23942479D01*
X73031994Y24132955D01*
X73079613Y24228193D01*
X73174851Y24275812D01*
X73270089Y24275812D01*
X73365327Y23799621D01*
X73698660Y25466288D02*
X72698660Y25466288D01*
X73698660Y25894860D02*
X73174851Y25894860D01*
X73079613Y25847240D01*
X73031994Y25752002D01*
X73031994Y25609145D01*
X73079613Y25513907D01*
X73127232Y25466288D01*
X73698660Y26513907D02*
X73651041Y26418669D01*
X73603422Y26371050D01*
X73508184Y26323431D01*
X73222470Y26323431D01*
X73127232Y26371050D01*
X73079613Y26418669D01*
X73031994Y26513907D01*
X73031994Y26656764D01*
X73079613Y26752002D01*
X73127232Y26799621D01*
X73222470Y26847240D01*
X73508184Y26847240D01*
X73603422Y26799621D01*
X73651041Y26752002D01*
X73698660Y26656764D01*
X73698660Y26513907D01*
X73698660Y27418669D02*
X73651041Y27323431D01*
X73555803Y27275812D01*
X72698660Y27275812D01*
X73651041Y28180574D02*
X73698660Y28085336D01*
X73698660Y27894860D01*
X73651041Y27799621D01*
X73555803Y27752002D01*
X73174851Y27752002D01*
X73079613Y27799621D01*
X73031994Y27894860D01*
X73031994Y28085336D01*
X73079613Y28180574D01*
X73174851Y28228193D01*
X73270089Y28228193D01*
X73365327Y27752002D01*
G04 #@! TO.C,W12*
X113603422Y21085336D02*
X113651041Y21037717D01*
X113698660Y20894860D01*
X113698660Y20799621D01*
X113651041Y20656764D01*
X113555803Y20561526D01*
X113460565Y20513907D01*
X113270089Y20466288D01*
X113127232Y20466288D01*
X112936756Y20513907D01*
X112841518Y20561526D01*
X112746280Y20656764D01*
X112698660Y20799621D01*
X112698660Y20894860D01*
X112746280Y21037717D01*
X112793899Y21085336D01*
X113698660Y21942479D02*
X113174851Y21942479D01*
X113079613Y21894860D01*
X113031994Y21799621D01*
X113031994Y21609145D01*
X113079613Y21513907D01*
X113651041Y21942479D02*
X113698660Y21847240D01*
X113698660Y21609145D01*
X113651041Y21513907D01*
X113555803Y21466288D01*
X113460565Y21466288D01*
X113365327Y21513907D01*
X113317708Y21609145D01*
X113317708Y21847240D01*
X113270089Y21942479D01*
X113698660Y22418669D02*
X112698660Y22418669D01*
X113079613Y22418669D02*
X113031994Y22513907D01*
X113031994Y22704383D01*
X113079613Y22799621D01*
X113127232Y22847240D01*
X113222470Y22894860D01*
X113508184Y22894860D01*
X113603422Y22847240D01*
X113651041Y22799621D01*
X113698660Y22704383D01*
X113698660Y22513907D01*
X113651041Y22418669D01*
X113698660Y23466288D02*
X113651041Y23371050D01*
X113555803Y23323431D01*
X112698660Y23323431D01*
X113651041Y24228193D02*
X113698660Y24132955D01*
X113698660Y23942479D01*
X113651041Y23847240D01*
X113555803Y23799621D01*
X113174851Y23799621D01*
X113079613Y23847240D01*
X113031994Y23942479D01*
X113031994Y24132955D01*
X113079613Y24228193D01*
X113174851Y24275812D01*
X113270089Y24275812D01*
X113365327Y23799621D01*
X113698660Y25466288D02*
X112698660Y25466288D01*
X113698660Y25894860D02*
X113174851Y25894860D01*
X113079613Y25847240D01*
X113031994Y25752002D01*
X113031994Y25609145D01*
X113079613Y25513907D01*
X113127232Y25466288D01*
X113698660Y26513907D02*
X113651041Y26418669D01*
X113603422Y26371050D01*
X113508184Y26323431D01*
X113222470Y26323431D01*
X113127232Y26371050D01*
X113079613Y26418669D01*
X113031994Y26513907D01*
X113031994Y26656764D01*
X113079613Y26752002D01*
X113127232Y26799621D01*
X113222470Y26847240D01*
X113508184Y26847240D01*
X113603422Y26799621D01*
X113651041Y26752002D01*
X113698660Y26656764D01*
X113698660Y26513907D01*
X113698660Y27418669D02*
X113651041Y27323431D01*
X113555803Y27275812D01*
X112698660Y27275812D01*
X113651041Y28180574D02*
X113698660Y28085336D01*
X113698660Y27894860D01*
X113651041Y27799621D01*
X113555803Y27752002D01*
X113174851Y27752002D01*
X113079613Y27799621D01*
X113031994Y27894860D01*
X113031994Y28085336D01*
X113079613Y28180574D01*
X113174851Y28228193D01*
X113270089Y28228193D01*
X113365327Y27752002D01*
G04 #@! TO.C,J7*
X43031682Y53132505D02*
X43079301Y53084886D01*
X43126920Y52942029D01*
X43126920Y52846791D01*
X43079301Y52703934D01*
X42984063Y52608696D01*
X42888825Y52561077D01*
X42698349Y52513458D01*
X42555492Y52513458D01*
X42365016Y52561077D01*
X42269778Y52608696D01*
X42174540Y52703934D01*
X42126920Y52846791D01*
X42126920Y52942029D01*
X42174540Y53084886D01*
X42222159Y53132505D01*
X43126920Y53703934D02*
X43079301Y53608696D01*
X43031682Y53561077D01*
X42936444Y53513458D01*
X42650730Y53513458D01*
X42555492Y53561077D01*
X42507873Y53608696D01*
X42460254Y53703934D01*
X42460254Y53846791D01*
X42507873Y53942029D01*
X42555492Y53989648D01*
X42650730Y54037267D01*
X42936444Y54037267D01*
X43031682Y53989648D01*
X43079301Y53942029D01*
X43126920Y53846791D01*
X43126920Y53703934D01*
X42460254Y54465839D02*
X43126920Y54465839D01*
X42555492Y54465839D02*
X42507873Y54513458D01*
X42460254Y54608696D01*
X42460254Y54751553D01*
X42507873Y54846791D01*
X42603111Y54894410D01*
X43126920Y54894410D01*
X42460254Y55370600D02*
X43126920Y55370600D01*
X42555492Y55370600D02*
X42507873Y55418220D01*
X42460254Y55513458D01*
X42460254Y55656315D01*
X42507873Y55751553D01*
X42603111Y55799172D01*
X43126920Y55799172D01*
X43222159Y56037267D02*
X43222159Y56799172D01*
X42126920Y57227743D02*
X42126920Y57322981D01*
X42174540Y57418220D01*
X42222159Y57465839D01*
X42317397Y57513458D01*
X42507873Y57561077D01*
X42745968Y57561077D01*
X42936444Y57513458D01*
X43031682Y57465839D01*
X43079301Y57418220D01*
X43126920Y57322981D01*
X43126920Y57227743D01*
X43079301Y57132505D01*
X43031682Y57084886D01*
X42936444Y57037267D01*
X42745968Y56989648D01*
X42507873Y56989648D01*
X42317397Y57037267D01*
X42222159Y57084886D01*
X42174540Y57132505D01*
X42126920Y57227743D01*
X43126920Y58513458D02*
X43126920Y57942029D01*
X43126920Y58227743D02*
X42126920Y58227743D01*
X42269778Y58132505D01*
X42365016Y58037267D01*
X42412635Y57942029D01*
X43126920Y58846791D02*
X42460254Y59370600D01*
X42460254Y58846791D02*
X43126920Y59370600D01*
X42126920Y59942029D02*
X42126920Y60037267D01*
X42174540Y60132505D01*
X42222159Y60180124D01*
X42317397Y60227743D01*
X42507873Y60275362D01*
X42745968Y60275362D01*
X42936444Y60227743D01*
X43031682Y60180124D01*
X43079301Y60132505D01*
X43126920Y60037267D01*
X43126920Y59942029D01*
X43079301Y59846791D01*
X43031682Y59799172D01*
X42936444Y59751553D01*
X42745968Y59703934D01*
X42507873Y59703934D01*
X42317397Y59751553D01*
X42222159Y59799172D01*
X42174540Y59846791D01*
X42126920Y59942029D01*
X42222159Y60656315D02*
X42174540Y60703934D01*
X42126920Y60799172D01*
X42126920Y61037267D01*
X42174540Y61132505D01*
X42222159Y61180124D01*
X42317397Y61227743D01*
X42412635Y61227743D01*
X42555492Y61180124D01*
X43126920Y60608696D01*
X43126920Y61227743D01*
G04 #@! TD*
M02*
