G04 #@! TF.GenerationSoftware,KiCad,Pcbnew,(5.0.1)-3*
G04 #@! TF.CreationDate,2019-09-13T18:10:52+02:00*
G04 #@! TF.ProjectId,discovery,646973636F766572792E6B696361645F,rev?*
G04 #@! TF.SameCoordinates,PX4c4b360PY85843d4*
G04 #@! TF.FileFunction,Copper,L2,Bot,Signal*
G04 #@! TF.FilePolarity,Positive*
%FSLAX46Y46*%
G04 Gerber Fmt 4.6, Leading zero omitted, Abs format (unit mm)*
G04 Created by KiCad (PCBNEW (5.0.1)-3) date 13/09/2019 18:10:52*
%MOMM*%
%LPD*%
G01*
G04 APERTURE LIST*
G04 #@! TA.AperFunction,ViaPad*
%ADD10C,0.600000*%
G04 #@! TD*
G04 #@! TA.AperFunction,WasherPad*
%ADD11C,4.000000*%
G04 #@! TD*
G04 #@! TA.AperFunction,ComponentPad*
%ADD12C,2.500000*%
G04 #@! TD*
G04 #@! TA.AperFunction,ComponentPad*
%ADD13C,5.000000*%
G04 #@! TD*
G04 #@! TA.AperFunction,ComponentPad*
%ADD14C,15.000000*%
G04 #@! TD*
G04 #@! TA.AperFunction,WasherPad*
%ADD15C,3.000000*%
G04 #@! TD*
G04 #@! TA.AperFunction,ViaPad*
%ADD16C,0.800000*%
G04 #@! TD*
G04 #@! TA.AperFunction,Conductor*
%ADD17C,0.254000*%
G04 #@! TD*
G04 APERTURE END LIST*
D10*
G04 #@! TO.N,+12V*
G04 #@! TO.C,REF\002A\002A*
X132000160Y87702260D03*
G04 #@! TD*
G04 #@! TO.N,+12V*
G04 #@! TO.C,REF\002A\002A*
X129000160Y87702260D03*
G04 #@! TD*
G04 #@! TO.N,+12V*
G04 #@! TO.C,REF\002A\002A*
X126000160Y87702260D03*
G04 #@! TD*
G04 #@! TO.N,+12V*
G04 #@! TO.C,REF\002A\002A*
X123000160Y87702260D03*
G04 #@! TD*
G04 #@! TO.N,+12V*
G04 #@! TO.C,REF\002A\002A*
X120000160Y87702260D03*
G04 #@! TD*
G04 #@! TO.N,+12V*
G04 #@! TO.C,REF\002A\002A*
X117000160Y87702260D03*
G04 #@! TD*
G04 #@! TO.N,+12V*
G04 #@! TO.C,REF\002A\002A*
X114000160Y87702260D03*
G04 #@! TD*
G04 #@! TO.N,+12V*
G04 #@! TO.C,REF\002A\002A*
X111000160Y87702260D03*
G04 #@! TD*
G04 #@! TO.N,+12V*
G04 #@! TO.C,REF\002A\002A*
X108000160Y87702260D03*
G04 #@! TD*
G04 #@! TO.N,+12V*
G04 #@! TO.C,REF\002A\002A*
X105000160Y87702260D03*
G04 #@! TD*
G04 #@! TO.N,+12V*
G04 #@! TO.C,REF\002A\002A*
X102000160Y87702260D03*
G04 #@! TD*
G04 #@! TO.N,+12V*
G04 #@! TO.C,REF\002A\002A*
X99000160Y87702260D03*
G04 #@! TD*
G04 #@! TO.N,+12V*
G04 #@! TO.C,REF\002A\002A*
X96000160Y87702260D03*
G04 #@! TD*
G04 #@! TO.N,+12V*
G04 #@! TO.C,REF\002A\002A*
X93000160Y87702260D03*
G04 #@! TD*
G04 #@! TO.N,+12V*
G04 #@! TO.C,REF\002A\002A*
X90000160Y87702260D03*
G04 #@! TD*
G04 #@! TO.N,+12V*
G04 #@! TO.C,REF\002A\002A*
X87000160Y87702260D03*
G04 #@! TD*
G04 #@! TO.N,+12V*
G04 #@! TO.C,REF\002A\002A*
X84000160Y87702260D03*
G04 #@! TD*
G04 #@! TO.N,+12V*
G04 #@! TO.C,REF\002A\002A*
X81000160Y87702260D03*
G04 #@! TD*
G04 #@! TO.N,+12V*
G04 #@! TO.C,REF\002A\002A*
X78000160Y87702260D03*
G04 #@! TD*
G04 #@! TO.N,+12V*
G04 #@! TO.C,REF\002A\002A*
X75000160Y87702260D03*
G04 #@! TD*
G04 #@! TO.N,+12V*
G04 #@! TO.C,REF\002A\002A*
X72000160Y87702260D03*
G04 #@! TD*
G04 #@! TO.N,+12V*
G04 #@! TO.C,REF\002A\002A*
X69000160Y87702260D03*
G04 #@! TD*
G04 #@! TO.N,+12V*
G04 #@! TO.C,REF\002A\002A*
X66000160Y87702260D03*
G04 #@! TD*
G04 #@! TO.N,+12V*
G04 #@! TO.C,REF\002A\002A*
X63000160Y87702260D03*
G04 #@! TD*
G04 #@! TO.N,+12V*
G04 #@! TO.C,REF\002A\002A*
X60000160Y87702260D03*
G04 #@! TD*
G04 #@! TO.N,+12V*
G04 #@! TO.C,REF\002A\002A*
X57000160Y87702260D03*
G04 #@! TD*
G04 #@! TO.N,+12V*
G04 #@! TO.C,REF\002A\002A*
X54000160Y87702260D03*
G04 #@! TD*
G04 #@! TO.N,+12V*
G04 #@! TO.C,REF\002A\002A*
X51000160Y87702260D03*
G04 #@! TD*
G04 #@! TO.N,+12V*
G04 #@! TO.C,REF\002A\002A*
X48000160Y87702260D03*
G04 #@! TD*
G04 #@! TO.N,+12V*
G04 #@! TO.C,REF\002A\002A*
X45000160Y87702260D03*
G04 #@! TD*
G04 #@! TO.N,+12V*
G04 #@! TO.C,REF\002A\002A*
X132000160Y86002260D03*
G04 #@! TD*
G04 #@! TO.N,+12V*
G04 #@! TO.C,REF\002A\002A*
X129000160Y86002260D03*
G04 #@! TD*
G04 #@! TO.N,+12V*
G04 #@! TO.C,REF\002A\002A*
X126000160Y86002260D03*
G04 #@! TD*
G04 #@! TO.N,+12V*
G04 #@! TO.C,REF\002A\002A*
X123000160Y86002260D03*
G04 #@! TD*
G04 #@! TO.N,+12V*
G04 #@! TO.C,REF\002A\002A*
X120000160Y86002260D03*
G04 #@! TD*
G04 #@! TO.N,+12V*
G04 #@! TO.C,REF\002A\002A*
X117000160Y86002260D03*
G04 #@! TD*
G04 #@! TO.N,+12V*
G04 #@! TO.C,REF\002A\002A*
X114000160Y86002260D03*
G04 #@! TD*
G04 #@! TO.N,+12V*
G04 #@! TO.C,REF\002A\002A*
X111000160Y86002260D03*
G04 #@! TD*
G04 #@! TO.N,+12V*
G04 #@! TO.C,REF\002A\002A*
X108000160Y86002260D03*
G04 #@! TD*
G04 #@! TO.N,+12V*
G04 #@! TO.C,REF\002A\002A*
X105000160Y86002260D03*
G04 #@! TD*
G04 #@! TO.N,+12V*
G04 #@! TO.C,REF\002A\002A*
X102000160Y86002260D03*
G04 #@! TD*
G04 #@! TO.N,+12V*
G04 #@! TO.C,REF\002A\002A*
X99000160Y86002260D03*
G04 #@! TD*
G04 #@! TO.N,+12V*
G04 #@! TO.C,REF\002A\002A*
X96000160Y86002260D03*
G04 #@! TD*
G04 #@! TO.N,+12V*
G04 #@! TO.C,REF\002A\002A*
X93000160Y86002260D03*
G04 #@! TD*
G04 #@! TO.N,+12V*
G04 #@! TO.C,REF\002A\002A*
X90000160Y86002260D03*
G04 #@! TD*
G04 #@! TO.N,+12V*
G04 #@! TO.C,REF\002A\002A*
X87000160Y86002260D03*
G04 #@! TD*
G04 #@! TO.N,+12V*
G04 #@! TO.C,REF\002A\002A*
X84000160Y86002260D03*
G04 #@! TD*
G04 #@! TO.N,+12V*
G04 #@! TO.C,REF\002A\002A*
X81000160Y86002260D03*
G04 #@! TD*
G04 #@! TO.N,+12V*
G04 #@! TO.C,REF\002A\002A*
X78000160Y86002260D03*
G04 #@! TD*
G04 #@! TO.N,+12V*
G04 #@! TO.C,REF\002A\002A*
X75000160Y86002260D03*
G04 #@! TD*
G04 #@! TO.N,+12V*
G04 #@! TO.C,REF\002A\002A*
X72000160Y86002260D03*
G04 #@! TD*
G04 #@! TO.N,+12V*
G04 #@! TO.C,REF\002A\002A*
X69000160Y86002260D03*
G04 #@! TD*
G04 #@! TO.N,+12V*
G04 #@! TO.C,REF\002A\002A*
X66000160Y86002260D03*
G04 #@! TD*
G04 #@! TO.N,+12V*
G04 #@! TO.C,REF\002A\002A*
X63000160Y86002260D03*
G04 #@! TD*
G04 #@! TO.N,+12V*
G04 #@! TO.C,REF\002A\002A*
X60000160Y86002260D03*
G04 #@! TD*
G04 #@! TO.N,+12V*
G04 #@! TO.C,REF\002A\002A*
X57000160Y86002260D03*
G04 #@! TD*
G04 #@! TO.N,+12V*
G04 #@! TO.C,REF\002A\002A*
X54000160Y86002260D03*
G04 #@! TD*
G04 #@! TO.N,+12V*
G04 #@! TO.C,REF\002A\002A*
X51000160Y86002260D03*
G04 #@! TD*
G04 #@! TO.N,+12V*
G04 #@! TO.C,REF\002A\002A*
X48000160Y86002260D03*
G04 #@! TD*
G04 #@! TO.N,+12V*
G04 #@! TO.C,REF\002A\002A*
X132000160Y50302260D03*
G04 #@! TD*
G04 #@! TO.N,+12V*
G04 #@! TO.C,REF\002A\002A*
X129000160Y50302260D03*
G04 #@! TD*
G04 #@! TO.N,+12V*
G04 #@! TO.C,REF\002A\002A*
X126000160Y50302260D03*
G04 #@! TD*
G04 #@! TO.N,+12V*
G04 #@! TO.C,REF\002A\002A*
X123000160Y50302260D03*
G04 #@! TD*
G04 #@! TO.N,+12V*
G04 #@! TO.C,REF\002A\002A*
X120000160Y50302260D03*
G04 #@! TD*
G04 #@! TO.N,+12V*
G04 #@! TO.C,REF\002A\002A*
X117000160Y50302260D03*
G04 #@! TD*
G04 #@! TO.N,+12V*
G04 #@! TO.C,REF\002A\002A*
X114000160Y50302260D03*
G04 #@! TD*
G04 #@! TO.N,+12V*
G04 #@! TO.C,REF\002A\002A*
X111000160Y50302260D03*
G04 #@! TD*
G04 #@! TO.N,+12V*
G04 #@! TO.C,REF\002A\002A*
X108000160Y50302260D03*
G04 #@! TD*
G04 #@! TO.N,+12V*
G04 #@! TO.C,REF\002A\002A*
X105000160Y50302260D03*
G04 #@! TD*
G04 #@! TO.N,+12V*
G04 #@! TO.C,REF\002A\002A*
X102000160Y50302260D03*
G04 #@! TD*
G04 #@! TO.N,+12V*
G04 #@! TO.C,REF\002A\002A*
X99000160Y50302260D03*
G04 #@! TD*
G04 #@! TO.N,+12V*
G04 #@! TO.C,REF\002A\002A*
X96000160Y50302260D03*
G04 #@! TD*
G04 #@! TO.N,+12V*
G04 #@! TO.C,REF\002A\002A*
X93000160Y50302260D03*
G04 #@! TD*
G04 #@! TO.N,+12V*
G04 #@! TO.C,REF\002A\002A*
X90000160Y50302260D03*
G04 #@! TD*
G04 #@! TO.N,+12V*
G04 #@! TO.C,REF\002A\002A*
X87000160Y50302260D03*
G04 #@! TD*
G04 #@! TO.N,+12V*
G04 #@! TO.C,REF\002A\002A*
X84000160Y50302260D03*
G04 #@! TD*
G04 #@! TO.N,+12V*
G04 #@! TO.C,REF\002A\002A*
X81000160Y50302260D03*
G04 #@! TD*
G04 #@! TO.N,+12V*
G04 #@! TO.C,REF\002A\002A*
X78000160Y50302260D03*
G04 #@! TD*
G04 #@! TO.N,+12V*
G04 #@! TO.C,REF\002A\002A*
X75000160Y50302260D03*
G04 #@! TD*
G04 #@! TO.N,+12V*
G04 #@! TO.C,REF\002A\002A*
X72000160Y50302260D03*
G04 #@! TD*
G04 #@! TO.N,+12V*
G04 #@! TO.C,REF\002A\002A*
X69000160Y50302260D03*
G04 #@! TD*
G04 #@! TO.N,+12V*
G04 #@! TO.C,REF\002A\002A*
X66000160Y50302260D03*
G04 #@! TD*
G04 #@! TO.N,+12V*
G04 #@! TO.C,REF\002A\002A*
X63000160Y50302260D03*
G04 #@! TD*
G04 #@! TO.N,+12V*
G04 #@! TO.C,REF\002A\002A*
X60000160Y50302260D03*
G04 #@! TD*
G04 #@! TO.N,+12V*
G04 #@! TO.C,REF\002A\002A*
X57000160Y50302260D03*
G04 #@! TD*
G04 #@! TO.N,+12V*
G04 #@! TO.C,REF\002A\002A*
X54000160Y50302260D03*
G04 #@! TD*
G04 #@! TO.N,+12V*
G04 #@! TO.C,REF\002A\002A*
X51000160Y50302260D03*
G04 #@! TD*
G04 #@! TO.N,+12V*
G04 #@! TO.C,REF\002A\002A*
X48000160Y50302260D03*
G04 #@! TD*
G04 #@! TO.N,+12V*
G04 #@! TO.C,REF\002A\002A*
X45000160Y50302260D03*
G04 #@! TD*
G04 #@! TO.N,+12V*
G04 #@! TO.C,REF\002A\002A*
X132000160Y52002260D03*
G04 #@! TD*
G04 #@! TO.N,+12V*
G04 #@! TO.C,REF\002A\002A*
X129000160Y52002260D03*
G04 #@! TD*
G04 #@! TO.N,+12V*
G04 #@! TO.C,REF\002A\002A*
X126000160Y52002260D03*
G04 #@! TD*
G04 #@! TO.N,+12V*
G04 #@! TO.C,REF\002A\002A*
X123000160Y52002260D03*
G04 #@! TD*
G04 #@! TO.N,+12V*
G04 #@! TO.C,REF\002A\002A*
X120000160Y52002260D03*
G04 #@! TD*
G04 #@! TO.N,+12V*
G04 #@! TO.C,REF\002A\002A*
X117000160Y52002260D03*
G04 #@! TD*
G04 #@! TO.N,+12V*
G04 #@! TO.C,REF\002A\002A*
X114000160Y52002260D03*
G04 #@! TD*
G04 #@! TO.N,+12V*
G04 #@! TO.C,REF\002A\002A*
X111000160Y52002260D03*
G04 #@! TD*
G04 #@! TO.N,+12V*
G04 #@! TO.C,REF\002A\002A*
X108000160Y52002260D03*
G04 #@! TD*
G04 #@! TO.N,+12V*
G04 #@! TO.C,REF\002A\002A*
X105000160Y52002260D03*
G04 #@! TD*
G04 #@! TO.N,+12V*
G04 #@! TO.C,REF\002A\002A*
X102000160Y52002260D03*
G04 #@! TD*
G04 #@! TO.N,+12V*
G04 #@! TO.C,REF\002A\002A*
X99000160Y52002260D03*
G04 #@! TD*
G04 #@! TO.N,+12V*
G04 #@! TO.C,REF\002A\002A*
X96000160Y52002260D03*
G04 #@! TD*
G04 #@! TO.N,+12V*
G04 #@! TO.C,REF\002A\002A*
X93000160Y52002260D03*
G04 #@! TD*
G04 #@! TO.N,+12V*
G04 #@! TO.C,REF\002A\002A*
X90000160Y52002260D03*
G04 #@! TD*
G04 #@! TO.N,+12V*
G04 #@! TO.C,REF\002A\002A*
X87000160Y52002260D03*
G04 #@! TD*
G04 #@! TO.N,+12V*
G04 #@! TO.C,REF\002A\002A*
X84000160Y52002260D03*
G04 #@! TD*
G04 #@! TO.N,+12V*
G04 #@! TO.C,REF\002A\002A*
X81000160Y52002260D03*
G04 #@! TD*
G04 #@! TO.N,+12V*
G04 #@! TO.C,REF\002A\002A*
X78000160Y52002260D03*
G04 #@! TD*
G04 #@! TO.N,+12V*
G04 #@! TO.C,REF\002A\002A*
X75000160Y52002260D03*
G04 #@! TD*
G04 #@! TO.N,+12V*
G04 #@! TO.C,REF\002A\002A*
X72000160Y52002260D03*
G04 #@! TD*
G04 #@! TO.N,+12V*
G04 #@! TO.C,REF\002A\002A*
X69000160Y52002260D03*
G04 #@! TD*
G04 #@! TO.N,+12V*
G04 #@! TO.C,REF\002A\002A*
X66000160Y52002260D03*
G04 #@! TD*
G04 #@! TO.N,+12V*
G04 #@! TO.C,REF\002A\002A*
X63000160Y52002260D03*
G04 #@! TD*
G04 #@! TO.N,+12V*
G04 #@! TO.C,REF\002A\002A*
X60000160Y52002260D03*
G04 #@! TD*
G04 #@! TO.N,+12V*
G04 #@! TO.C,REF\002A\002A*
X57000160Y52002260D03*
G04 #@! TD*
G04 #@! TO.N,+12V*
G04 #@! TO.C,REF\002A\002A*
X54000160Y52002260D03*
G04 #@! TD*
G04 #@! TO.N,+12V*
G04 #@! TO.C,REF\002A\002A*
X51000160Y52002260D03*
G04 #@! TD*
G04 #@! TO.N,+12V*
G04 #@! TO.C,REF\002A\002A*
X48000160Y52002260D03*
G04 #@! TD*
G04 #@! TO.N,GND*
G04 #@! TO.C,REF\002A\002A*
X132000160Y-747740D03*
G04 #@! TD*
G04 #@! TO.N,GND*
G04 #@! TO.C,REF\002A\002A*
X129000160Y-747740D03*
G04 #@! TD*
G04 #@! TO.N,GND*
G04 #@! TO.C,REF\002A\002A*
X126000160Y-747740D03*
G04 #@! TD*
G04 #@! TO.N,GND*
G04 #@! TO.C,REF\002A\002A*
X123000160Y-747740D03*
G04 #@! TD*
G04 #@! TO.N,GND*
G04 #@! TO.C,REF\002A\002A*
X120000160Y-747740D03*
G04 #@! TD*
G04 #@! TO.N,GND*
G04 #@! TO.C,REF\002A\002A*
X117000160Y-747740D03*
G04 #@! TD*
G04 #@! TO.N,GND*
G04 #@! TO.C,REF\002A\002A*
X114000160Y-747740D03*
G04 #@! TD*
G04 #@! TO.N,GND*
G04 #@! TO.C,REF\002A\002A*
X111000160Y-747740D03*
G04 #@! TD*
G04 #@! TO.N,GND*
G04 #@! TO.C,REF\002A\002A*
X108000160Y-747740D03*
G04 #@! TD*
G04 #@! TO.N,GND*
G04 #@! TO.C,REF\002A\002A*
X105000160Y-747740D03*
G04 #@! TD*
G04 #@! TO.N,GND*
G04 #@! TO.C,REF\002A\002A*
X102000160Y-747740D03*
G04 #@! TD*
G04 #@! TO.N,GND*
G04 #@! TO.C,REF\002A\002A*
X99000160Y-747740D03*
G04 #@! TD*
G04 #@! TO.N,GND*
G04 #@! TO.C,REF\002A\002A*
X96000160Y-747740D03*
G04 #@! TD*
G04 #@! TO.N,GND*
G04 #@! TO.C,REF\002A\002A*
X93000160Y-747740D03*
G04 #@! TD*
G04 #@! TO.N,GND*
G04 #@! TO.C,REF\002A\002A*
X90000160Y-747740D03*
G04 #@! TD*
G04 #@! TO.N,GND*
G04 #@! TO.C,REF\002A\002A*
X87000160Y-747740D03*
G04 #@! TD*
G04 #@! TO.N,GND*
G04 #@! TO.C,REF\002A\002A*
X84000160Y-747740D03*
G04 #@! TD*
G04 #@! TO.N,GND*
G04 #@! TO.C,REF\002A\002A*
X81000160Y-747740D03*
G04 #@! TD*
G04 #@! TO.N,GND*
G04 #@! TO.C,REF\002A\002A*
X78000160Y-747740D03*
G04 #@! TD*
G04 #@! TO.N,GND*
G04 #@! TO.C,REF\002A\002A*
X75000160Y-747740D03*
G04 #@! TD*
G04 #@! TO.N,GND*
G04 #@! TO.C,REF\002A\002A*
X72000160Y-747740D03*
G04 #@! TD*
G04 #@! TO.N,GND*
G04 #@! TO.C,REF\002A\002A*
X69000160Y-747740D03*
G04 #@! TD*
G04 #@! TO.N,GND*
G04 #@! TO.C,REF\002A\002A*
X66000160Y-747740D03*
G04 #@! TD*
G04 #@! TO.N,GND*
G04 #@! TO.C,REF\002A\002A*
X63000160Y-747740D03*
G04 #@! TD*
G04 #@! TO.N,GND*
G04 #@! TO.C,REF\002A\002A*
X60000160Y-747740D03*
G04 #@! TD*
G04 #@! TO.N,GND*
G04 #@! TO.C,REF\002A\002A*
X57000160Y-747740D03*
G04 #@! TD*
G04 #@! TO.N,GND*
G04 #@! TO.C,REF\002A\002A*
X54000160Y-747740D03*
G04 #@! TD*
G04 #@! TO.N,GND*
G04 #@! TO.C,REF\002A\002A*
X51000160Y-747740D03*
G04 #@! TD*
G04 #@! TO.N,GND*
G04 #@! TO.C,REF\002A\002A*
X48000160Y-747740D03*
G04 #@! TD*
G04 #@! TO.N,GND*
G04 #@! TO.C,REF\002A\002A*
X45000160Y-747740D03*
G04 #@! TD*
G04 #@! TO.N,GND*
G04 #@! TO.C,REF\002A\002A*
X132000160Y1002260D03*
G04 #@! TD*
G04 #@! TO.N,GND*
G04 #@! TO.C,REF\002A\002A*
X129000160Y1002260D03*
G04 #@! TD*
G04 #@! TO.N,GND*
G04 #@! TO.C,REF\002A\002A*
X126000160Y1002260D03*
G04 #@! TD*
G04 #@! TO.N,GND*
G04 #@! TO.C,REF\002A\002A*
X123000160Y1002260D03*
G04 #@! TD*
G04 #@! TO.N,GND*
G04 #@! TO.C,REF\002A\002A*
X120000160Y1002260D03*
G04 #@! TD*
G04 #@! TO.N,GND*
G04 #@! TO.C,REF\002A\002A*
X117000160Y1002260D03*
G04 #@! TD*
G04 #@! TO.N,GND*
G04 #@! TO.C,REF\002A\002A*
X114000160Y1002260D03*
G04 #@! TD*
G04 #@! TO.N,GND*
G04 #@! TO.C,REF\002A\002A*
X111000160Y1002260D03*
G04 #@! TD*
G04 #@! TO.N,GND*
G04 #@! TO.C,REF\002A\002A*
X108000160Y1002260D03*
G04 #@! TD*
G04 #@! TO.N,GND*
G04 #@! TO.C,REF\002A\002A*
X105000160Y1002260D03*
G04 #@! TD*
G04 #@! TO.N,GND*
G04 #@! TO.C,REF\002A\002A*
X102000160Y1002260D03*
G04 #@! TD*
G04 #@! TO.N,GND*
G04 #@! TO.C,REF\002A\002A*
X99000160Y1002260D03*
G04 #@! TD*
G04 #@! TO.N,GND*
G04 #@! TO.C,REF\002A\002A*
X96000160Y1002260D03*
G04 #@! TD*
G04 #@! TO.N,GND*
G04 #@! TO.C,REF\002A\002A*
X93000160Y1002260D03*
G04 #@! TD*
G04 #@! TO.N,GND*
G04 #@! TO.C,REF\002A\002A*
X90000160Y1002260D03*
G04 #@! TD*
G04 #@! TO.N,GND*
G04 #@! TO.C,REF\002A\002A*
X87000160Y1002260D03*
G04 #@! TD*
G04 #@! TO.N,GND*
G04 #@! TO.C,REF\002A\002A*
X84000160Y1002260D03*
G04 #@! TD*
G04 #@! TO.N,GND*
G04 #@! TO.C,REF\002A\002A*
X81000160Y1002260D03*
G04 #@! TD*
G04 #@! TO.N,GND*
G04 #@! TO.C,REF\002A\002A*
X78000160Y1002260D03*
G04 #@! TD*
G04 #@! TO.N,GND*
G04 #@! TO.C,REF\002A\002A*
X75000160Y1002260D03*
G04 #@! TD*
G04 #@! TO.N,GND*
G04 #@! TO.C,REF\002A\002A*
X72000160Y1002260D03*
G04 #@! TD*
G04 #@! TO.N,GND*
G04 #@! TO.C,REF\002A\002A*
X69000160Y1002260D03*
G04 #@! TD*
G04 #@! TO.N,GND*
G04 #@! TO.C,REF\002A\002A*
X66000160Y1002260D03*
G04 #@! TD*
G04 #@! TO.N,GND*
G04 #@! TO.C,REF\002A\002A*
X63000160Y1002260D03*
G04 #@! TD*
G04 #@! TO.N,GND*
G04 #@! TO.C,REF\002A\002A*
X60000160Y1002260D03*
G04 #@! TD*
G04 #@! TO.N,GND*
G04 #@! TO.C,REF\002A\002A*
X57000160Y1002260D03*
G04 #@! TD*
G04 #@! TO.N,GND*
G04 #@! TO.C,REF\002A\002A*
X54000160Y1002260D03*
G04 #@! TD*
G04 #@! TO.N,GND*
G04 #@! TO.C,REF\002A\002A*
X51000160Y1002260D03*
G04 #@! TD*
G04 #@! TO.N,GND*
G04 #@! TO.C,REF\002A\002A*
X48000160Y1002260D03*
G04 #@! TD*
G04 #@! TO.N,GND*
G04 #@! TO.C,REF\002A\002A*
X45000160Y1002260D03*
G04 #@! TD*
G04 #@! TO.N,GND*
G04 #@! TO.C,REF\002A\002A*
X132000160Y2752260D03*
G04 #@! TD*
G04 #@! TO.N,GND*
G04 #@! TO.C,REF\002A\002A*
X129000160Y2752260D03*
G04 #@! TD*
G04 #@! TO.N,GND*
G04 #@! TO.C,REF\002A\002A*
X126000160Y2752260D03*
G04 #@! TD*
G04 #@! TO.N,GND*
G04 #@! TO.C,REF\002A\002A*
X123000160Y2752260D03*
G04 #@! TD*
G04 #@! TO.N,GND*
G04 #@! TO.C,REF\002A\002A*
X120000160Y2752260D03*
G04 #@! TD*
G04 #@! TO.N,GND*
G04 #@! TO.C,REF\002A\002A*
X117000160Y2752260D03*
G04 #@! TD*
G04 #@! TO.N,GND*
G04 #@! TO.C,REF\002A\002A*
X114000160Y2752260D03*
G04 #@! TD*
G04 #@! TO.N,GND*
G04 #@! TO.C,REF\002A\002A*
X111000160Y2752260D03*
G04 #@! TD*
G04 #@! TO.N,GND*
G04 #@! TO.C,REF\002A\002A*
X108000160Y2752260D03*
G04 #@! TD*
G04 #@! TO.N,GND*
G04 #@! TO.C,REF\002A\002A*
X105000160Y2752260D03*
G04 #@! TD*
G04 #@! TO.N,GND*
G04 #@! TO.C,REF\002A\002A*
X102000160Y2752260D03*
G04 #@! TD*
G04 #@! TO.N,GND*
G04 #@! TO.C,REF\002A\002A*
X99000160Y2752260D03*
G04 #@! TD*
G04 #@! TO.N,GND*
G04 #@! TO.C,REF\002A\002A*
X96000160Y2752260D03*
G04 #@! TD*
G04 #@! TO.N,GND*
G04 #@! TO.C,REF\002A\002A*
X93000160Y2752260D03*
G04 #@! TD*
G04 #@! TO.N,GND*
G04 #@! TO.C,REF\002A\002A*
X90000160Y2752260D03*
G04 #@! TD*
G04 #@! TO.N,GND*
G04 #@! TO.C,REF\002A\002A*
X87000160Y2752260D03*
G04 #@! TD*
G04 #@! TO.N,GND*
G04 #@! TO.C,REF\002A\002A*
X84000160Y2752260D03*
G04 #@! TD*
G04 #@! TO.N,GND*
G04 #@! TO.C,REF\002A\002A*
X81000160Y2752260D03*
G04 #@! TD*
G04 #@! TO.N,GND*
G04 #@! TO.C,REF\002A\002A*
X78000160Y2752260D03*
G04 #@! TD*
G04 #@! TO.N,GND*
G04 #@! TO.C,REF\002A\002A*
X75000160Y2752260D03*
G04 #@! TD*
G04 #@! TO.N,GND*
G04 #@! TO.C,REF\002A\002A*
X72000160Y2752260D03*
G04 #@! TD*
G04 #@! TO.N,GND*
G04 #@! TO.C,REF\002A\002A*
X69000160Y2752260D03*
G04 #@! TD*
G04 #@! TO.N,GND*
G04 #@! TO.C,REF\002A\002A*
X66000160Y2752260D03*
G04 #@! TD*
G04 #@! TO.N,GND*
G04 #@! TO.C,REF\002A\002A*
X63000160Y2752260D03*
G04 #@! TD*
G04 #@! TO.N,GND*
G04 #@! TO.C,REF\002A\002A*
X60000160Y2752260D03*
G04 #@! TD*
G04 #@! TO.N,GND*
G04 #@! TO.C,REF\002A\002A*
X57000160Y2752260D03*
G04 #@! TD*
G04 #@! TO.N,GND*
G04 #@! TO.C,REF\002A\002A*
X54000160Y2752260D03*
G04 #@! TD*
G04 #@! TO.N,GND*
G04 #@! TO.C,REF\002A\002A*
X51000160Y2752260D03*
G04 #@! TD*
G04 #@! TO.N,GND*
G04 #@! TO.C,REF\002A\002A*
X48000160Y2752260D03*
G04 #@! TD*
G04 #@! TO.N,GND*
G04 #@! TO.C,REF\002A\002A*
X45000160Y2752260D03*
G04 #@! TD*
G04 #@! TO.N,GND*
G04 #@! TO.C,REF\002A\002A*
X132000160Y4502260D03*
G04 #@! TD*
G04 #@! TO.N,GND*
G04 #@! TO.C,REF\002A\002A*
X129000160Y4502260D03*
G04 #@! TD*
G04 #@! TO.N,GND*
G04 #@! TO.C,REF\002A\002A*
X126000160Y4502260D03*
G04 #@! TD*
G04 #@! TO.N,GND*
G04 #@! TO.C,REF\002A\002A*
X123000160Y4502260D03*
G04 #@! TD*
G04 #@! TO.N,GND*
G04 #@! TO.C,REF\002A\002A*
X120000160Y4502260D03*
G04 #@! TD*
G04 #@! TO.N,GND*
G04 #@! TO.C,REF\002A\002A*
X117000160Y4502260D03*
G04 #@! TD*
G04 #@! TO.N,GND*
G04 #@! TO.C,REF\002A\002A*
X114000160Y4502260D03*
G04 #@! TD*
G04 #@! TO.N,GND*
G04 #@! TO.C,REF\002A\002A*
X111000160Y4502260D03*
G04 #@! TD*
G04 #@! TO.N,GND*
G04 #@! TO.C,REF\002A\002A*
X108000160Y4502260D03*
G04 #@! TD*
G04 #@! TO.N,GND*
G04 #@! TO.C,REF\002A\002A*
X105000160Y4502260D03*
G04 #@! TD*
G04 #@! TO.N,GND*
G04 #@! TO.C,REF\002A\002A*
X102000160Y4502260D03*
G04 #@! TD*
G04 #@! TO.N,GND*
G04 #@! TO.C,REF\002A\002A*
X99000160Y4502260D03*
G04 #@! TD*
G04 #@! TO.N,GND*
G04 #@! TO.C,REF\002A\002A*
X96000160Y4502260D03*
G04 #@! TD*
G04 #@! TO.N,GND*
G04 #@! TO.C,REF\002A\002A*
X93000160Y4502260D03*
G04 #@! TD*
G04 #@! TO.N,GND*
G04 #@! TO.C,REF\002A\002A*
X90000160Y4502260D03*
G04 #@! TD*
G04 #@! TO.N,GND*
G04 #@! TO.C,REF\002A\002A*
X87000160Y4502260D03*
G04 #@! TD*
G04 #@! TO.N,GND*
G04 #@! TO.C,REF\002A\002A*
X84000160Y4502260D03*
G04 #@! TD*
G04 #@! TO.N,GND*
G04 #@! TO.C,REF\002A\002A*
X81000160Y4502260D03*
G04 #@! TD*
G04 #@! TO.N,GND*
G04 #@! TO.C,REF\002A\002A*
X78000160Y4502260D03*
G04 #@! TD*
G04 #@! TO.N,GND*
G04 #@! TO.C,REF\002A\002A*
X75000160Y4502260D03*
G04 #@! TD*
G04 #@! TO.N,GND*
G04 #@! TO.C,REF\002A\002A*
X72000160Y4502260D03*
G04 #@! TD*
G04 #@! TO.N,GND*
G04 #@! TO.C,REF\002A\002A*
X69000160Y4502260D03*
G04 #@! TD*
G04 #@! TO.N,GND*
G04 #@! TO.C,REF\002A\002A*
X66000160Y4502260D03*
G04 #@! TD*
G04 #@! TO.N,GND*
G04 #@! TO.C,REF\002A\002A*
X63000160Y4502260D03*
G04 #@! TD*
G04 #@! TO.N,GND*
G04 #@! TO.C,REF\002A\002A*
X60000160Y4502260D03*
G04 #@! TD*
G04 #@! TO.N,GND*
G04 #@! TO.C,REF\002A\002A*
X57000160Y4502260D03*
G04 #@! TD*
G04 #@! TO.N,GND*
G04 #@! TO.C,REF\002A\002A*
X54000160Y4502260D03*
G04 #@! TD*
G04 #@! TO.N,GND*
G04 #@! TO.C,REF\002A\002A*
X51000160Y4502260D03*
G04 #@! TD*
G04 #@! TO.N,GND*
G04 #@! TO.C,REF\002A\002A*
X48000160Y4502260D03*
G04 #@! TD*
G04 #@! TO.N,GND*
G04 #@! TO.C,REF\002A\002A*
X45000160Y4502260D03*
G04 #@! TD*
D11*
G04 #@! TO.P,J1,*
G04 #@! TO.N,*
X5900160Y61702260D03*
X5900160Y83702260D03*
D12*
G04 #@! TO.P,J1,1*
G04 #@! TO.N,GND*
X10300160Y79002260D03*
G04 #@! TO.P,J1,2*
X10300160Y74802260D03*
G04 #@! TO.P,J1,3*
X10300160Y70602260D03*
G04 #@! TO.P,J1,4*
X10300160Y66402260D03*
G04 #@! TO.P,J1,5*
G04 #@! TO.N,+12V*
X6100160Y79002260D03*
G04 #@! TO.P,J1,6*
X6100160Y74802260D03*
G04 #@! TO.P,J1,7*
X6100160Y70602260D03*
G04 #@! TO.P,J1,8*
X6100160Y66402260D03*
G04 #@! TD*
D11*
G04 #@! TO.P,J2,*
G04 #@! TO.N,*
X5900160Y6869660D03*
X5900160Y24669660D03*
D12*
G04 #@! TO.P,J2,1*
G04 #@! TO.N,+12V*
X10100160Y19969660D03*
G04 #@! TO.P,J2,2*
X10100160Y15769660D03*
G04 #@! TO.P,J2,3*
X10100160Y11569660D03*
G04 #@! TO.P,J2,4*
G04 #@! TO.N,GND*
X5900160Y19969660D03*
G04 #@! TO.P,J2,5*
X5900160Y15769660D03*
G04 #@! TO.P,J2,6*
X5900160Y11569660D03*
G04 #@! TD*
G04 #@! TO.P,J3,8*
G04 #@! TO.N,+12V*
X29900160Y79002260D03*
G04 #@! TO.P,J3,7*
X29900160Y74802260D03*
G04 #@! TO.P,J3,6*
X29900160Y70602260D03*
G04 #@! TO.P,J3,5*
X29900160Y66402260D03*
G04 #@! TO.P,J3,4*
G04 #@! TO.N,GND*
X25700160Y79002260D03*
G04 #@! TO.P,J3,3*
X25700160Y74802260D03*
G04 #@! TO.P,J3,2*
X25700160Y70602260D03*
G04 #@! TO.P,J3,1*
X25700160Y66402260D03*
D11*
G04 #@! TO.P,J3,*
G04 #@! TO.N,*
X30100160Y61702260D03*
X30100160Y83702260D03*
G04 #@! TD*
D12*
G04 #@! TO.P,J4,6*
G04 #@! TO.N,GND*
X5900160Y40402260D03*
G04 #@! TO.P,J4,5*
X5900160Y44602260D03*
G04 #@! TO.P,J4,4*
X5900160Y48802260D03*
G04 #@! TO.P,J4,3*
G04 #@! TO.N,+12V*
X10100160Y40402260D03*
G04 #@! TO.P,J4,2*
X10100160Y44602260D03*
G04 #@! TO.P,J4,1*
X10100160Y48802260D03*
D11*
G04 #@! TO.P,J4,*
G04 #@! TO.N,*
X5900160Y53502260D03*
X5900160Y35702260D03*
G04 #@! TD*
G04 #@! TO.P,J5,*
G04 #@! TO.N,*
X30100160Y53502260D03*
X30100160Y35702260D03*
D12*
G04 #@! TO.P,J5,1*
G04 #@! TO.N,+12V*
X25900160Y40402260D03*
G04 #@! TO.P,J5,2*
X25900160Y44602260D03*
G04 #@! TO.P,J5,3*
X25900160Y48802260D03*
G04 #@! TO.P,J5,4*
G04 #@! TO.N,GND*
X30100160Y40402260D03*
G04 #@! TO.P,J5,5*
X30100160Y44602260D03*
G04 #@! TO.P,J5,6*
X30100160Y48802260D03*
G04 #@! TD*
G04 #@! TO.P,J6,6*
G04 #@! TO.N,GND*
X30100160Y19969660D03*
G04 #@! TO.P,J6,5*
X30100160Y15769660D03*
G04 #@! TO.P,J6,4*
X30100160Y11569660D03*
G04 #@! TO.P,J6,3*
G04 #@! TO.N,+12V*
X25900160Y19969660D03*
G04 #@! TO.P,J6,2*
X25900160Y15769660D03*
G04 #@! TO.P,J6,1*
X25900160Y11569660D03*
D11*
G04 #@! TO.P,J6,*
G04 #@! TO.N,*
X30100160Y6869660D03*
X30100160Y24669660D03*
G04 #@! TD*
D13*
G04 #@! TO.P,W1,1*
G04 #@! TO.N,GND*
X140000160Y2260D03*
G04 #@! TD*
G04 #@! TO.P,W2,1*
G04 #@! TO.N,GND*
X160Y90002260D03*
G04 #@! TD*
G04 #@! TO.P,W3,1*
G04 #@! TO.N,GND*
X140000160Y90002260D03*
G04 #@! TD*
G04 #@! TO.P,W4,1*
G04 #@! TO.N,GND*
X160Y2260D03*
G04 #@! TD*
D14*
G04 #@! TO.P,W5,1*
G04 #@! TO.N,+12V*
X72500160Y68832260D03*
G04 #@! TD*
G04 #@! TO.P,W6,1*
G04 #@! TO.N,+12V*
X112500160Y68832260D03*
G04 #@! TD*
G04 #@! TO.P,W11,1*
G04 #@! TO.N,GND*
X70000160Y21332260D03*
G04 #@! TD*
G04 #@! TO.P,W12,1*
G04 #@! TO.N,GND*
X110000160Y21332260D03*
G04 #@! TD*
D10*
G04 #@! TO.N,+12V*
G04 #@! TO.C,REF\002A\002A*
X45000160Y52002260D03*
G04 #@! TD*
G04 #@! TO.N,+12V*
G04 #@! TO.C,REF\002A\002A*
X45000160Y86002260D03*
G04 #@! TD*
D15*
G04 #@! TO.P,J7,*
G04 #@! TO.N,*
X39340940Y61304460D03*
X39340940Y54004460D03*
G04 #@! TD*
D16*
G04 #@! TO.N,GND*
X37419280Y49758600D03*
G04 #@! TD*
D17*
G04 #@! TO.N,GND*
G36*
X143898160Y92545797D02*
X143898161Y-2541276D01*
X142543698Y-3895740D01*
X-2543377Y-3895740D01*
X-3751956Y-2687161D01*
X-921494Y-2687161D01*
X-551686Y-2883918D01*
X552006Y-2883918D01*
X921814Y-2687161D01*
X139078506Y-2687161D01*
X139448314Y-2883918D01*
X140552006Y-2883918D01*
X140921814Y-2687161D01*
X140000160Y-1765507D01*
X139078506Y-2687161D01*
X921814Y-2687161D01*
X160Y-1765507D01*
X-921494Y-2687161D01*
X-3751956Y-2687161D01*
X-3897840Y-2541278D01*
X-3897840Y554106D01*
X-2886018Y554106D01*
X-2886018Y-549586D01*
X-2689261Y-919394D01*
X-1767607Y2260D01*
X1767927Y2260D01*
X2689581Y-919394D01*
X2886338Y-549586D01*
X2886338Y554106D01*
X137113982Y554106D01*
X137113982Y-549586D01*
X137310739Y-919394D01*
X138232393Y2260D01*
X141767927Y2260D01*
X142689581Y-919394D01*
X142886338Y-549586D01*
X142886338Y554106D01*
X142689581Y923914D01*
X141767927Y2260D01*
X138232393Y2260D01*
X137310739Y923914D01*
X137113982Y554106D01*
X2886338Y554106D01*
X2689581Y923914D01*
X1767927Y2260D01*
X-1767607Y2260D01*
X-2689261Y923914D01*
X-2886018Y554106D01*
X-3897840Y554106D01*
X-3897840Y2691681D01*
X-921494Y2691681D01*
X160Y1770027D01*
X921814Y2691681D01*
X139078506Y2691681D01*
X140000160Y1770027D01*
X140921814Y2691681D01*
X140552006Y2888438D01*
X139448314Y2888438D01*
X139078506Y2691681D01*
X921814Y2691681D01*
X552006Y2888438D01*
X-551686Y2888438D01*
X-921494Y2691681D01*
X-3897840Y2691681D01*
X-3897840Y7471768D01*
X2873160Y7471768D01*
X2873160Y6267552D01*
X3333994Y5155002D01*
X4185502Y4303494D01*
X5298052Y3842660D01*
X6502268Y3842660D01*
X7614818Y4303494D01*
X8466326Y5155002D01*
X8927160Y6267552D01*
X8927160Y7471768D01*
X27073160Y7471768D01*
X27073160Y6267552D01*
X27533994Y5155002D01*
X28385502Y4303494D01*
X29498052Y3842660D01*
X30702268Y3842660D01*
X31814818Y4303494D01*
X32666326Y5155002D01*
X33127160Y6267552D01*
X33127160Y7471768D01*
X32666326Y8584318D01*
X31814818Y9435826D01*
X30702268Y9896660D01*
X29498052Y9896660D01*
X28385502Y9435826D01*
X27533994Y8584318D01*
X27073160Y7471768D01*
X8927160Y7471768D01*
X8466326Y8584318D01*
X7614818Y9435826D01*
X6502268Y9896660D01*
X5298052Y9896660D01*
X4185502Y9435826D01*
X3333994Y8584318D01*
X2873160Y7471768D01*
X-3897840Y7471768D01*
X-3897840Y10110496D01*
X5324879Y10110496D01*
X5499351Y9954681D01*
X6147886Y9924231D01*
X6300969Y9954681D01*
X6475441Y10110496D01*
X5900160Y10685777D01*
X5324879Y10110496D01*
X-3897840Y10110496D01*
X-3897840Y11321934D01*
X4254731Y11321934D01*
X4285181Y11168851D01*
X4440996Y10994379D01*
X5016277Y11569660D01*
X6784043Y11569660D01*
X7359324Y10994379D01*
X7515139Y11168851D01*
X7545589Y11817386D01*
X7515139Y11970469D01*
X7359324Y12144941D01*
X6784043Y11569660D01*
X5016277Y11569660D01*
X4440996Y12144941D01*
X4285181Y11970469D01*
X4254731Y11321934D01*
X-3897840Y11321934D01*
X-3897840Y13028824D01*
X5324879Y13028824D01*
X5900160Y12453543D01*
X6475441Y13028824D01*
X6300969Y13184639D01*
X5652434Y13215089D01*
X5499351Y13184639D01*
X5324879Y13028824D01*
X-3897840Y13028824D01*
X-3897840Y14310496D01*
X5324879Y14310496D01*
X5499351Y14154681D01*
X6147886Y14124231D01*
X6300969Y14154681D01*
X6475441Y14310496D01*
X5900160Y14885777D01*
X5324879Y14310496D01*
X-3897840Y14310496D01*
X-3897840Y15521934D01*
X4254731Y15521934D01*
X4285181Y15368851D01*
X4440996Y15194379D01*
X5016277Y15769660D01*
X6784043Y15769660D01*
X7359324Y15194379D01*
X7515139Y15368851D01*
X7545589Y16017386D01*
X7515139Y16170469D01*
X7359324Y16344941D01*
X6784043Y15769660D01*
X5016277Y15769660D01*
X4440996Y16344941D01*
X4285181Y16170469D01*
X4254731Y15521934D01*
X-3897840Y15521934D01*
X-3897840Y17228824D01*
X5324879Y17228824D01*
X5900160Y16653543D01*
X6475441Y17228824D01*
X6300969Y17384639D01*
X5652434Y17415089D01*
X5499351Y17384639D01*
X5324879Y17228824D01*
X-3897840Y17228824D01*
X-3897840Y18510496D01*
X5324879Y18510496D01*
X5499351Y18354681D01*
X6147886Y18324231D01*
X6300969Y18354681D01*
X6475441Y18510496D01*
X5900160Y19085777D01*
X5324879Y18510496D01*
X-3897840Y18510496D01*
X-3897840Y19721934D01*
X4254731Y19721934D01*
X4285181Y19568851D01*
X4440996Y19394379D01*
X5016277Y19969660D01*
X6784043Y19969660D01*
X7359324Y19394379D01*
X7515139Y19568851D01*
X7545589Y20217386D01*
X7515139Y20370469D01*
X7468598Y20422583D01*
X7823160Y20422583D01*
X7823160Y19516737D01*
X8169813Y18679843D01*
X8810343Y18039313D01*
X9219921Y17869660D01*
X8810343Y17700007D01*
X8169813Y17059477D01*
X7823160Y16222583D01*
X7823160Y15316737D01*
X8169813Y14479843D01*
X8810343Y13839313D01*
X9219921Y13669660D01*
X8810343Y13500007D01*
X8169813Y12859477D01*
X7823160Y12022583D01*
X7823160Y11116737D01*
X8169813Y10279843D01*
X8810343Y9639313D01*
X9647237Y9292660D01*
X10553083Y9292660D01*
X11389977Y9639313D01*
X12030507Y10279843D01*
X12377160Y11116737D01*
X12377160Y12022583D01*
X12030507Y12859477D01*
X11389977Y13500007D01*
X10980399Y13669660D01*
X11389977Y13839313D01*
X12030507Y14479843D01*
X12377160Y15316737D01*
X12377160Y16222583D01*
X12030507Y17059477D01*
X11389977Y17700007D01*
X10980399Y17869660D01*
X11389977Y18039313D01*
X12030507Y18679843D01*
X12377160Y19516737D01*
X12377160Y20422583D01*
X23623160Y20422583D01*
X23623160Y19516737D01*
X23969813Y18679843D01*
X24610343Y18039313D01*
X25019921Y17869660D01*
X24610343Y17700007D01*
X23969813Y17059477D01*
X23623160Y16222583D01*
X23623160Y15316737D01*
X23969813Y14479843D01*
X24610343Y13839313D01*
X25019921Y13669660D01*
X24610343Y13500007D01*
X23969813Y12859477D01*
X23623160Y12022583D01*
X23623160Y11116737D01*
X23969813Y10279843D01*
X24610343Y9639313D01*
X25447237Y9292660D01*
X26353083Y9292660D01*
X27189977Y9639313D01*
X27661160Y10110496D01*
X29524879Y10110496D01*
X29699351Y9954681D01*
X30347886Y9924231D01*
X30500969Y9954681D01*
X30675441Y10110496D01*
X30100160Y10685777D01*
X29524879Y10110496D01*
X27661160Y10110496D01*
X27830507Y10279843D01*
X28177160Y11116737D01*
X28177160Y11321934D01*
X28454731Y11321934D01*
X28485181Y11168851D01*
X28640996Y10994379D01*
X29216277Y11569660D01*
X30984043Y11569660D01*
X31559324Y10994379D01*
X31715139Y11168851D01*
X31745589Y11817386D01*
X31715139Y11970469D01*
X31559324Y12144941D01*
X30984043Y11569660D01*
X29216277Y11569660D01*
X28640996Y12144941D01*
X28485181Y11970469D01*
X28454731Y11321934D01*
X28177160Y11321934D01*
X28177160Y12022583D01*
X27830507Y12859477D01*
X27661160Y13028824D01*
X29524879Y13028824D01*
X30100160Y12453543D01*
X30675441Y13028824D01*
X30500969Y13184639D01*
X29852434Y13215089D01*
X29699351Y13184639D01*
X29524879Y13028824D01*
X27661160Y13028824D01*
X27189977Y13500007D01*
X26780399Y13669660D01*
X26928682Y13731081D01*
X67702281Y13731081D01*
X68856085Y13377695D01*
X71144235Y13377695D01*
X72298039Y13731081D01*
X107702281Y13731081D01*
X108856085Y13377695D01*
X111144235Y13377695D01*
X112298039Y13731081D01*
X110000160Y16028959D01*
X107702281Y13731081D01*
X72298039Y13731081D01*
X70000160Y16028959D01*
X67702281Y13731081D01*
X26928682Y13731081D01*
X27189977Y13839313D01*
X27661160Y14310496D01*
X29524879Y14310496D01*
X29699351Y14154681D01*
X30347886Y14124231D01*
X30500969Y14154681D01*
X30675441Y14310496D01*
X30100160Y14885777D01*
X29524879Y14310496D01*
X27661160Y14310496D01*
X27830507Y14479843D01*
X28177160Y15316737D01*
X28177160Y15521934D01*
X28454731Y15521934D01*
X28485181Y15368851D01*
X28640996Y15194379D01*
X29216277Y15769660D01*
X30984043Y15769660D01*
X31559324Y15194379D01*
X31715139Y15368851D01*
X31745589Y16017386D01*
X31715139Y16170469D01*
X31559324Y16344941D01*
X30984043Y15769660D01*
X29216277Y15769660D01*
X28640996Y16344941D01*
X28485181Y16170469D01*
X28454731Y15521934D01*
X28177160Y15521934D01*
X28177160Y16222583D01*
X27830507Y17059477D01*
X27661160Y17228824D01*
X29524879Y17228824D01*
X30100160Y16653543D01*
X30675441Y17228824D01*
X30500969Y17384639D01*
X29852434Y17415089D01*
X29699351Y17384639D01*
X29524879Y17228824D01*
X27661160Y17228824D01*
X27189977Y17700007D01*
X26780399Y17869660D01*
X27189977Y18039313D01*
X27661160Y18510496D01*
X29524879Y18510496D01*
X29699351Y18354681D01*
X30347886Y18324231D01*
X30500969Y18354681D01*
X30675441Y18510496D01*
X30100160Y19085777D01*
X29524879Y18510496D01*
X27661160Y18510496D01*
X27830507Y18679843D01*
X28177160Y19516737D01*
X28177160Y19721934D01*
X28454731Y19721934D01*
X28485181Y19568851D01*
X28640996Y19394379D01*
X29216277Y19969660D01*
X30984043Y19969660D01*
X31559324Y19394379D01*
X31715139Y19568851D01*
X31745589Y20217386D01*
X31715139Y20370469D01*
X31559324Y20544941D01*
X30984043Y19969660D01*
X29216277Y19969660D01*
X28640996Y20544941D01*
X28485181Y20370469D01*
X28454731Y19721934D01*
X28177160Y19721934D01*
X28177160Y20422583D01*
X27830507Y21259477D01*
X27661160Y21428824D01*
X29524879Y21428824D01*
X30100160Y20853543D01*
X30675441Y21428824D01*
X30500969Y21584639D01*
X29852434Y21615089D01*
X29699351Y21584639D01*
X29524879Y21428824D01*
X27661160Y21428824D01*
X27189977Y21900007D01*
X26353083Y22246660D01*
X25447237Y22246660D01*
X24610343Y21900007D01*
X23969813Y21259477D01*
X23623160Y20422583D01*
X12377160Y20422583D01*
X12030507Y21259477D01*
X11389977Y21900007D01*
X10553083Y22246660D01*
X9647237Y22246660D01*
X8810343Y21900007D01*
X8169813Y21259477D01*
X7823160Y20422583D01*
X7468598Y20422583D01*
X7359324Y20544941D01*
X6784043Y19969660D01*
X5016277Y19969660D01*
X4440996Y20544941D01*
X4285181Y20370469D01*
X4254731Y19721934D01*
X-3897840Y19721934D01*
X-3897840Y21428824D01*
X5324879Y21428824D01*
X5900160Y20853543D01*
X6475441Y21428824D01*
X6300969Y21584639D01*
X5652434Y21615089D01*
X5499351Y21584639D01*
X5324879Y21428824D01*
X-3897840Y21428824D01*
X-3897840Y25271768D01*
X2873160Y25271768D01*
X2873160Y24067552D01*
X3333994Y22955002D01*
X4185502Y22103494D01*
X5298052Y21642660D01*
X6502268Y21642660D01*
X7614818Y22103494D01*
X8466326Y22955002D01*
X8927160Y24067552D01*
X8927160Y25271768D01*
X27073160Y25271768D01*
X27073160Y24067552D01*
X27533994Y22955002D01*
X28385502Y22103494D01*
X29498052Y21642660D01*
X30702268Y21642660D01*
X31814818Y22103494D01*
X32187659Y22476335D01*
X62045595Y22476335D01*
X62045595Y20188185D01*
X62398981Y19034381D01*
X64696859Y21332260D01*
X75303461Y21332260D01*
X77601339Y19034381D01*
X77954725Y20188185D01*
X77954725Y22476335D01*
X102045595Y22476335D01*
X102045595Y20188185D01*
X102398981Y19034381D01*
X104696859Y21332260D01*
X115303461Y21332260D01*
X117601339Y19034381D01*
X117954725Y20188185D01*
X117954725Y22476335D01*
X117601339Y23630139D01*
X115303461Y21332260D01*
X104696859Y21332260D01*
X102398981Y23630139D01*
X102045595Y22476335D01*
X77954725Y22476335D01*
X77601339Y23630139D01*
X75303461Y21332260D01*
X64696859Y21332260D01*
X62398981Y23630139D01*
X62045595Y22476335D01*
X32187659Y22476335D01*
X32666326Y22955002D01*
X33127160Y24067552D01*
X33127160Y25271768D01*
X32666326Y26384318D01*
X31814818Y27235826D01*
X30702268Y27696660D01*
X29498052Y27696660D01*
X28385502Y27235826D01*
X27533994Y26384318D01*
X27073160Y25271768D01*
X8927160Y25271768D01*
X8466326Y26384318D01*
X7614818Y27235826D01*
X6502268Y27696660D01*
X5298052Y27696660D01*
X4185502Y27235826D01*
X3333994Y26384318D01*
X2873160Y25271768D01*
X-3897840Y25271768D01*
X-3897840Y28933439D01*
X67702281Y28933439D01*
X70000160Y26635561D01*
X72298039Y28933439D01*
X107702281Y28933439D01*
X110000160Y26635561D01*
X112298039Y28933439D01*
X111144235Y29286825D01*
X108856085Y29286825D01*
X107702281Y28933439D01*
X72298039Y28933439D01*
X71144235Y29286825D01*
X68856085Y29286825D01*
X67702281Y28933439D01*
X-3897840Y28933439D01*
X-3897840Y36304368D01*
X2873160Y36304368D01*
X2873160Y35100152D01*
X3333994Y33987602D01*
X4185502Y33136094D01*
X5298052Y32675260D01*
X6502268Y32675260D01*
X7614818Y33136094D01*
X8466326Y33987602D01*
X8927160Y35100152D01*
X8927160Y36304368D01*
X27073160Y36304368D01*
X27073160Y35100152D01*
X27533994Y33987602D01*
X28385502Y33136094D01*
X29498052Y32675260D01*
X30702268Y32675260D01*
X31814818Y33136094D01*
X32666326Y33987602D01*
X33127160Y35100152D01*
X33127160Y36304368D01*
X32666326Y37416918D01*
X31814818Y38268426D01*
X30702268Y38729260D01*
X29498052Y38729260D01*
X28385502Y38268426D01*
X27533994Y37416918D01*
X27073160Y36304368D01*
X8927160Y36304368D01*
X8466326Y37416918D01*
X7614818Y38268426D01*
X6502268Y38729260D01*
X5298052Y38729260D01*
X4185502Y38268426D01*
X3333994Y37416918D01*
X2873160Y36304368D01*
X-3897840Y36304368D01*
X-3897840Y38943096D01*
X5324879Y38943096D01*
X5499351Y38787281D01*
X6147886Y38756831D01*
X6300969Y38787281D01*
X6475441Y38943096D01*
X5900160Y39518377D01*
X5324879Y38943096D01*
X-3897840Y38943096D01*
X-3897840Y40154534D01*
X4254731Y40154534D01*
X4285181Y40001451D01*
X4440996Y39826979D01*
X5016277Y40402260D01*
X6784043Y40402260D01*
X7359324Y39826979D01*
X7515139Y40001451D01*
X7545589Y40649986D01*
X7515139Y40803069D01*
X7359324Y40977541D01*
X6784043Y40402260D01*
X5016277Y40402260D01*
X4440996Y40977541D01*
X4285181Y40803069D01*
X4254731Y40154534D01*
X-3897840Y40154534D01*
X-3897840Y41861424D01*
X5324879Y41861424D01*
X5900160Y41286143D01*
X6475441Y41861424D01*
X6300969Y42017239D01*
X5652434Y42047689D01*
X5499351Y42017239D01*
X5324879Y41861424D01*
X-3897840Y41861424D01*
X-3897840Y43143096D01*
X5324879Y43143096D01*
X5499351Y42987281D01*
X6147886Y42956831D01*
X6300969Y42987281D01*
X6475441Y43143096D01*
X5900160Y43718377D01*
X5324879Y43143096D01*
X-3897840Y43143096D01*
X-3897840Y44354534D01*
X4254731Y44354534D01*
X4285181Y44201451D01*
X4440996Y44026979D01*
X5016277Y44602260D01*
X6784043Y44602260D01*
X7359324Y44026979D01*
X7515139Y44201451D01*
X7545589Y44849986D01*
X7515139Y45003069D01*
X7359324Y45177541D01*
X6784043Y44602260D01*
X5016277Y44602260D01*
X4440996Y45177541D01*
X4285181Y45003069D01*
X4254731Y44354534D01*
X-3897840Y44354534D01*
X-3897840Y46061424D01*
X5324879Y46061424D01*
X5900160Y45486143D01*
X6475441Y46061424D01*
X6300969Y46217239D01*
X5652434Y46247689D01*
X5499351Y46217239D01*
X5324879Y46061424D01*
X-3897840Y46061424D01*
X-3897840Y47343096D01*
X5324879Y47343096D01*
X5499351Y47187281D01*
X6147886Y47156831D01*
X6300969Y47187281D01*
X6475441Y47343096D01*
X5900160Y47918377D01*
X5324879Y47343096D01*
X-3897840Y47343096D01*
X-3897840Y48554534D01*
X4254731Y48554534D01*
X4285181Y48401451D01*
X4440996Y48226979D01*
X5016277Y48802260D01*
X6784043Y48802260D01*
X7359324Y48226979D01*
X7515139Y48401451D01*
X7545589Y49049986D01*
X7515139Y49203069D01*
X7468598Y49255183D01*
X7823160Y49255183D01*
X7823160Y48349337D01*
X8169813Y47512443D01*
X8810343Y46871913D01*
X9219921Y46702260D01*
X8810343Y46532607D01*
X8169813Y45892077D01*
X7823160Y45055183D01*
X7823160Y44149337D01*
X8169813Y43312443D01*
X8810343Y42671913D01*
X9219921Y42502260D01*
X8810343Y42332607D01*
X8169813Y41692077D01*
X7823160Y40855183D01*
X7823160Y39949337D01*
X8169813Y39112443D01*
X8810343Y38471913D01*
X9647237Y38125260D01*
X10553083Y38125260D01*
X11389977Y38471913D01*
X12030507Y39112443D01*
X12377160Y39949337D01*
X12377160Y40855183D01*
X12030507Y41692077D01*
X11389977Y42332607D01*
X10980399Y42502260D01*
X11389977Y42671913D01*
X12030507Y43312443D01*
X12377160Y44149337D01*
X12377160Y45055183D01*
X12030507Y45892077D01*
X11389977Y46532607D01*
X10980399Y46702260D01*
X11389977Y46871913D01*
X12030507Y47512443D01*
X12377160Y48349337D01*
X12377160Y49255183D01*
X23623160Y49255183D01*
X23623160Y48349337D01*
X23969813Y47512443D01*
X24610343Y46871913D01*
X25019921Y46702260D01*
X24610343Y46532607D01*
X23969813Y45892077D01*
X23623160Y45055183D01*
X23623160Y44149337D01*
X23969813Y43312443D01*
X24610343Y42671913D01*
X25019921Y42502260D01*
X24610343Y42332607D01*
X23969813Y41692077D01*
X23623160Y40855183D01*
X23623160Y39949337D01*
X23969813Y39112443D01*
X24610343Y38471913D01*
X25447237Y38125260D01*
X26353083Y38125260D01*
X27189977Y38471913D01*
X27661160Y38943096D01*
X29524879Y38943096D01*
X29699351Y38787281D01*
X30347886Y38756831D01*
X30500969Y38787281D01*
X30675441Y38943096D01*
X30100160Y39518377D01*
X29524879Y38943096D01*
X27661160Y38943096D01*
X27830507Y39112443D01*
X28177160Y39949337D01*
X28177160Y40154534D01*
X28454731Y40154534D01*
X28485181Y40001451D01*
X28640996Y39826979D01*
X29216277Y40402260D01*
X30984043Y40402260D01*
X31559324Y39826979D01*
X31715139Y40001451D01*
X31745589Y40649986D01*
X31715139Y40803069D01*
X31559324Y40977541D01*
X30984043Y40402260D01*
X29216277Y40402260D01*
X28640996Y40977541D01*
X28485181Y40803069D01*
X28454731Y40154534D01*
X28177160Y40154534D01*
X28177160Y40855183D01*
X27830507Y41692077D01*
X27661160Y41861424D01*
X29524879Y41861424D01*
X30100160Y41286143D01*
X30675441Y41861424D01*
X30500969Y42017239D01*
X29852434Y42047689D01*
X29699351Y42017239D01*
X29524879Y41861424D01*
X27661160Y41861424D01*
X27189977Y42332607D01*
X26780399Y42502260D01*
X27189977Y42671913D01*
X27661160Y43143096D01*
X29524879Y43143096D01*
X29699351Y42987281D01*
X30347886Y42956831D01*
X30500969Y42987281D01*
X30675441Y43143096D01*
X30100160Y43718377D01*
X29524879Y43143096D01*
X27661160Y43143096D01*
X27830507Y43312443D01*
X28177160Y44149337D01*
X28177160Y44354534D01*
X28454731Y44354534D01*
X28485181Y44201451D01*
X28640996Y44026979D01*
X29216277Y44602260D01*
X30984043Y44602260D01*
X31559324Y44026979D01*
X31715139Y44201451D01*
X31745589Y44849986D01*
X31715139Y45003069D01*
X31559324Y45177541D01*
X30984043Y44602260D01*
X29216277Y44602260D01*
X28640996Y45177541D01*
X28485181Y45003069D01*
X28454731Y44354534D01*
X28177160Y44354534D01*
X28177160Y45055183D01*
X27830507Y45892077D01*
X27661160Y46061424D01*
X29524879Y46061424D01*
X30100160Y45486143D01*
X30675441Y46061424D01*
X30500969Y46217239D01*
X29852434Y46247689D01*
X29699351Y46217239D01*
X29524879Y46061424D01*
X27661160Y46061424D01*
X27189977Y46532607D01*
X26780399Y46702260D01*
X27189977Y46871913D01*
X27661160Y47343096D01*
X29524879Y47343096D01*
X29699351Y47187281D01*
X30347886Y47156831D01*
X30500969Y47187281D01*
X30675441Y47343096D01*
X30100160Y47918377D01*
X29524879Y47343096D01*
X27661160Y47343096D01*
X27830507Y47512443D01*
X28177160Y48349337D01*
X28177160Y48554534D01*
X28454731Y48554534D01*
X28485181Y48401451D01*
X28640996Y48226979D01*
X29216277Y48802260D01*
X30984043Y48802260D01*
X31559324Y48226979D01*
X31715139Y48401451D01*
X31745589Y49049986D01*
X31715139Y49203069D01*
X31559324Y49377541D01*
X30984043Y48802260D01*
X29216277Y48802260D01*
X28640996Y49377541D01*
X28485181Y49203069D01*
X28454731Y48554534D01*
X28177160Y48554534D01*
X28177160Y49255183D01*
X27830507Y50092077D01*
X27661160Y50261424D01*
X29524879Y50261424D01*
X30100160Y49686143D01*
X30675441Y50261424D01*
X30500969Y50417239D01*
X29852434Y50447689D01*
X29699351Y50417239D01*
X29524879Y50261424D01*
X27661160Y50261424D01*
X27189977Y50732607D01*
X26353083Y51079260D01*
X25447237Y51079260D01*
X24610343Y50732607D01*
X23969813Y50092077D01*
X23623160Y49255183D01*
X12377160Y49255183D01*
X12030507Y50092077D01*
X11389977Y50732607D01*
X10553083Y51079260D01*
X9647237Y51079260D01*
X8810343Y50732607D01*
X8169813Y50092077D01*
X7823160Y49255183D01*
X7468598Y49255183D01*
X7359324Y49377541D01*
X6784043Y48802260D01*
X5016277Y48802260D01*
X4440996Y49377541D01*
X4285181Y49203069D01*
X4254731Y48554534D01*
X-3897840Y48554534D01*
X-3897840Y50261424D01*
X5324879Y50261424D01*
X5900160Y49686143D01*
X6475441Y50261424D01*
X6300969Y50417239D01*
X5652434Y50447689D01*
X5499351Y50417239D01*
X5324879Y50261424D01*
X-3897840Y50261424D01*
X-3897840Y54104368D01*
X2873160Y54104368D01*
X2873160Y52900152D01*
X3333994Y51787602D01*
X4185502Y50936094D01*
X5298052Y50475260D01*
X6502268Y50475260D01*
X7614818Y50936094D01*
X8466326Y51787602D01*
X8927160Y52900152D01*
X8927160Y54104368D01*
X27073160Y54104368D01*
X27073160Y52900152D01*
X27533994Y51787602D01*
X28385502Y50936094D01*
X29498052Y50475260D01*
X30702268Y50475260D01*
X31814818Y50936094D01*
X32666326Y51787602D01*
X33127160Y52900152D01*
X33127160Y54104368D01*
X32960338Y54507112D01*
X36813940Y54507112D01*
X36813940Y53501808D01*
X37198653Y52573029D01*
X37909509Y51862173D01*
X38838288Y51477460D01*
X39843592Y51477460D01*
X40772371Y51862173D01*
X41176415Y52266217D01*
X43673160Y52266217D01*
X43673160Y51738303D01*
X43875184Y51250575D01*
X43973499Y51152260D01*
X43875184Y51053945D01*
X43673160Y50566217D01*
X43673160Y50038303D01*
X43875184Y49550575D01*
X44248475Y49177284D01*
X44736203Y48975260D01*
X45264117Y48975260D01*
X45751845Y49177284D01*
X46125136Y49550575D01*
X46327160Y50038303D01*
X46327160Y50566217D01*
X46125136Y51053945D01*
X46026821Y51152260D01*
X46125136Y51250575D01*
X46327160Y51738303D01*
X46327160Y52266217D01*
X46673160Y52266217D01*
X46673160Y51738303D01*
X46875184Y51250575D01*
X46973499Y51152260D01*
X46875184Y51053945D01*
X46673160Y50566217D01*
X46673160Y50038303D01*
X46875184Y49550575D01*
X47248475Y49177284D01*
X47736203Y48975260D01*
X48264117Y48975260D01*
X48751845Y49177284D01*
X49125136Y49550575D01*
X49327160Y50038303D01*
X49327160Y50566217D01*
X49125136Y51053945D01*
X49026821Y51152260D01*
X49125136Y51250575D01*
X49327160Y51738303D01*
X49327160Y52266217D01*
X49673160Y52266217D01*
X49673160Y51738303D01*
X49875184Y51250575D01*
X49973499Y51152260D01*
X49875184Y51053945D01*
X49673160Y50566217D01*
X49673160Y50038303D01*
X49875184Y49550575D01*
X50248475Y49177284D01*
X50736203Y48975260D01*
X51264117Y48975260D01*
X51751845Y49177284D01*
X52125136Y49550575D01*
X52327160Y50038303D01*
X52327160Y50566217D01*
X52125136Y51053945D01*
X52026821Y51152260D01*
X52125136Y51250575D01*
X52327160Y51738303D01*
X52327160Y52266217D01*
X52673160Y52266217D01*
X52673160Y51738303D01*
X52875184Y51250575D01*
X52973499Y51152260D01*
X52875184Y51053945D01*
X52673160Y50566217D01*
X52673160Y50038303D01*
X52875184Y49550575D01*
X53248475Y49177284D01*
X53736203Y48975260D01*
X54264117Y48975260D01*
X54751845Y49177284D01*
X55125136Y49550575D01*
X55327160Y50038303D01*
X55327160Y50566217D01*
X55125136Y51053945D01*
X55026821Y51152260D01*
X55125136Y51250575D01*
X55327160Y51738303D01*
X55327160Y52266217D01*
X55673160Y52266217D01*
X55673160Y51738303D01*
X55875184Y51250575D01*
X55973499Y51152260D01*
X55875184Y51053945D01*
X55673160Y50566217D01*
X55673160Y50038303D01*
X55875184Y49550575D01*
X56248475Y49177284D01*
X56736203Y48975260D01*
X57264117Y48975260D01*
X57751845Y49177284D01*
X58125136Y49550575D01*
X58327160Y50038303D01*
X58327160Y50566217D01*
X58125136Y51053945D01*
X58026821Y51152260D01*
X58125136Y51250575D01*
X58327160Y51738303D01*
X58327160Y52266217D01*
X58673160Y52266217D01*
X58673160Y51738303D01*
X58875184Y51250575D01*
X58973499Y51152260D01*
X58875184Y51053945D01*
X58673160Y50566217D01*
X58673160Y50038303D01*
X58875184Y49550575D01*
X59248475Y49177284D01*
X59736203Y48975260D01*
X60264117Y48975260D01*
X60751845Y49177284D01*
X61125136Y49550575D01*
X61327160Y50038303D01*
X61327160Y50566217D01*
X61125136Y51053945D01*
X61026821Y51152260D01*
X61125136Y51250575D01*
X61327160Y51738303D01*
X61327160Y52266217D01*
X61673160Y52266217D01*
X61673160Y51738303D01*
X61875184Y51250575D01*
X61973499Y51152260D01*
X61875184Y51053945D01*
X61673160Y50566217D01*
X61673160Y50038303D01*
X61875184Y49550575D01*
X62248475Y49177284D01*
X62736203Y48975260D01*
X63264117Y48975260D01*
X63751845Y49177284D01*
X64125136Y49550575D01*
X64327160Y50038303D01*
X64327160Y50566217D01*
X64125136Y51053945D01*
X64026821Y51152260D01*
X64125136Y51250575D01*
X64327160Y51738303D01*
X64327160Y52266217D01*
X64673160Y52266217D01*
X64673160Y51738303D01*
X64875184Y51250575D01*
X64973499Y51152260D01*
X64875184Y51053945D01*
X64673160Y50566217D01*
X64673160Y50038303D01*
X64875184Y49550575D01*
X65248475Y49177284D01*
X65736203Y48975260D01*
X66264117Y48975260D01*
X66751845Y49177284D01*
X67125136Y49550575D01*
X67327160Y50038303D01*
X67327160Y50566217D01*
X67125136Y51053945D01*
X67026821Y51152260D01*
X67125136Y51250575D01*
X67327160Y51738303D01*
X67327160Y52266217D01*
X67673160Y52266217D01*
X67673160Y51738303D01*
X67875184Y51250575D01*
X67973499Y51152260D01*
X67875184Y51053945D01*
X67673160Y50566217D01*
X67673160Y50038303D01*
X67875184Y49550575D01*
X68248475Y49177284D01*
X68736203Y48975260D01*
X69264117Y48975260D01*
X69751845Y49177284D01*
X70125136Y49550575D01*
X70327160Y50038303D01*
X70327160Y50566217D01*
X70125136Y51053945D01*
X70026821Y51152260D01*
X70125136Y51250575D01*
X70327160Y51738303D01*
X70327160Y52266217D01*
X70673160Y52266217D01*
X70673160Y51738303D01*
X70875184Y51250575D01*
X70973499Y51152260D01*
X70875184Y51053945D01*
X70673160Y50566217D01*
X70673160Y50038303D01*
X70875184Y49550575D01*
X71248475Y49177284D01*
X71736203Y48975260D01*
X72264117Y48975260D01*
X72751845Y49177284D01*
X73125136Y49550575D01*
X73327160Y50038303D01*
X73327160Y50566217D01*
X73125136Y51053945D01*
X73026821Y51152260D01*
X73125136Y51250575D01*
X73327160Y51738303D01*
X73327160Y52266217D01*
X73673160Y52266217D01*
X73673160Y51738303D01*
X73875184Y51250575D01*
X73973499Y51152260D01*
X73875184Y51053945D01*
X73673160Y50566217D01*
X73673160Y50038303D01*
X73875184Y49550575D01*
X74248475Y49177284D01*
X74736203Y48975260D01*
X75264117Y48975260D01*
X75751845Y49177284D01*
X76125136Y49550575D01*
X76327160Y50038303D01*
X76327160Y50566217D01*
X76125136Y51053945D01*
X76026821Y51152260D01*
X76125136Y51250575D01*
X76327160Y51738303D01*
X76327160Y52266217D01*
X76673160Y52266217D01*
X76673160Y51738303D01*
X76875184Y51250575D01*
X76973499Y51152260D01*
X76875184Y51053945D01*
X76673160Y50566217D01*
X76673160Y50038303D01*
X76875184Y49550575D01*
X77248475Y49177284D01*
X77736203Y48975260D01*
X78264117Y48975260D01*
X78751845Y49177284D01*
X79125136Y49550575D01*
X79327160Y50038303D01*
X79327160Y50566217D01*
X79125136Y51053945D01*
X79026821Y51152260D01*
X79125136Y51250575D01*
X79327160Y51738303D01*
X79327160Y52266217D01*
X79673160Y52266217D01*
X79673160Y51738303D01*
X79875184Y51250575D01*
X79973499Y51152260D01*
X79875184Y51053945D01*
X79673160Y50566217D01*
X79673160Y50038303D01*
X79875184Y49550575D01*
X80248475Y49177284D01*
X80736203Y48975260D01*
X81264117Y48975260D01*
X81751845Y49177284D01*
X82125136Y49550575D01*
X82327160Y50038303D01*
X82327160Y50566217D01*
X82125136Y51053945D01*
X82026821Y51152260D01*
X82125136Y51250575D01*
X82327160Y51738303D01*
X82327160Y52266217D01*
X82673160Y52266217D01*
X82673160Y51738303D01*
X82875184Y51250575D01*
X82973499Y51152260D01*
X82875184Y51053945D01*
X82673160Y50566217D01*
X82673160Y50038303D01*
X82875184Y49550575D01*
X83248475Y49177284D01*
X83736203Y48975260D01*
X84264117Y48975260D01*
X84751845Y49177284D01*
X85125136Y49550575D01*
X85327160Y50038303D01*
X85327160Y50566217D01*
X85125136Y51053945D01*
X85026821Y51152260D01*
X85125136Y51250575D01*
X85327160Y51738303D01*
X85327160Y52266217D01*
X85673160Y52266217D01*
X85673160Y51738303D01*
X85875184Y51250575D01*
X85973499Y51152260D01*
X85875184Y51053945D01*
X85673160Y50566217D01*
X85673160Y50038303D01*
X85875184Y49550575D01*
X86248475Y49177284D01*
X86736203Y48975260D01*
X87264117Y48975260D01*
X87751845Y49177284D01*
X88125136Y49550575D01*
X88327160Y50038303D01*
X88327160Y50566217D01*
X88125136Y51053945D01*
X88026821Y51152260D01*
X88125136Y51250575D01*
X88327160Y51738303D01*
X88327160Y52266217D01*
X88673160Y52266217D01*
X88673160Y51738303D01*
X88875184Y51250575D01*
X88973499Y51152260D01*
X88875184Y51053945D01*
X88673160Y50566217D01*
X88673160Y50038303D01*
X88875184Y49550575D01*
X89248475Y49177284D01*
X89736203Y48975260D01*
X90264117Y48975260D01*
X90751845Y49177284D01*
X91125136Y49550575D01*
X91327160Y50038303D01*
X91327160Y50566217D01*
X91125136Y51053945D01*
X91026821Y51152260D01*
X91125136Y51250575D01*
X91327160Y51738303D01*
X91327160Y52266217D01*
X91673160Y52266217D01*
X91673160Y51738303D01*
X91875184Y51250575D01*
X91973499Y51152260D01*
X91875184Y51053945D01*
X91673160Y50566217D01*
X91673160Y50038303D01*
X91875184Y49550575D01*
X92248475Y49177284D01*
X92736203Y48975260D01*
X93264117Y48975260D01*
X93751845Y49177284D01*
X94125136Y49550575D01*
X94327160Y50038303D01*
X94327160Y50566217D01*
X94125136Y51053945D01*
X94026821Y51152260D01*
X94125136Y51250575D01*
X94327160Y51738303D01*
X94327160Y52266217D01*
X94673160Y52266217D01*
X94673160Y51738303D01*
X94875184Y51250575D01*
X94973499Y51152260D01*
X94875184Y51053945D01*
X94673160Y50566217D01*
X94673160Y50038303D01*
X94875184Y49550575D01*
X95248475Y49177284D01*
X95736203Y48975260D01*
X96264117Y48975260D01*
X96751845Y49177284D01*
X97125136Y49550575D01*
X97327160Y50038303D01*
X97327160Y50566217D01*
X97125136Y51053945D01*
X97026821Y51152260D01*
X97125136Y51250575D01*
X97327160Y51738303D01*
X97327160Y52266217D01*
X97673160Y52266217D01*
X97673160Y51738303D01*
X97875184Y51250575D01*
X97973499Y51152260D01*
X97875184Y51053945D01*
X97673160Y50566217D01*
X97673160Y50038303D01*
X97875184Y49550575D01*
X98248475Y49177284D01*
X98736203Y48975260D01*
X99264117Y48975260D01*
X99751845Y49177284D01*
X100125136Y49550575D01*
X100327160Y50038303D01*
X100327160Y50566217D01*
X100125136Y51053945D01*
X100026821Y51152260D01*
X100125136Y51250575D01*
X100327160Y51738303D01*
X100327160Y52266217D01*
X100673160Y52266217D01*
X100673160Y51738303D01*
X100875184Y51250575D01*
X100973499Y51152260D01*
X100875184Y51053945D01*
X100673160Y50566217D01*
X100673160Y50038303D01*
X100875184Y49550575D01*
X101248475Y49177284D01*
X101736203Y48975260D01*
X102264117Y48975260D01*
X102751845Y49177284D01*
X103125136Y49550575D01*
X103327160Y50038303D01*
X103327160Y50566217D01*
X103125136Y51053945D01*
X103026821Y51152260D01*
X103125136Y51250575D01*
X103327160Y51738303D01*
X103327160Y52266217D01*
X103673160Y52266217D01*
X103673160Y51738303D01*
X103875184Y51250575D01*
X103973499Y51152260D01*
X103875184Y51053945D01*
X103673160Y50566217D01*
X103673160Y50038303D01*
X103875184Y49550575D01*
X104248475Y49177284D01*
X104736203Y48975260D01*
X105264117Y48975260D01*
X105751845Y49177284D01*
X106125136Y49550575D01*
X106327160Y50038303D01*
X106327160Y50566217D01*
X106125136Y51053945D01*
X106026821Y51152260D01*
X106125136Y51250575D01*
X106327160Y51738303D01*
X106327160Y52266217D01*
X106673160Y52266217D01*
X106673160Y51738303D01*
X106875184Y51250575D01*
X106973499Y51152260D01*
X106875184Y51053945D01*
X106673160Y50566217D01*
X106673160Y50038303D01*
X106875184Y49550575D01*
X107248475Y49177284D01*
X107736203Y48975260D01*
X108264117Y48975260D01*
X108751845Y49177284D01*
X109125136Y49550575D01*
X109327160Y50038303D01*
X109327160Y50566217D01*
X109125136Y51053945D01*
X109026821Y51152260D01*
X109125136Y51250575D01*
X109327160Y51738303D01*
X109327160Y52266217D01*
X109673160Y52266217D01*
X109673160Y51738303D01*
X109875184Y51250575D01*
X109973499Y51152260D01*
X109875184Y51053945D01*
X109673160Y50566217D01*
X109673160Y50038303D01*
X109875184Y49550575D01*
X110248475Y49177284D01*
X110736203Y48975260D01*
X111264117Y48975260D01*
X111751845Y49177284D01*
X112125136Y49550575D01*
X112327160Y50038303D01*
X112327160Y50566217D01*
X112125136Y51053945D01*
X112026821Y51152260D01*
X112125136Y51250575D01*
X112327160Y51738303D01*
X112327160Y52266217D01*
X112673160Y52266217D01*
X112673160Y51738303D01*
X112875184Y51250575D01*
X112973499Y51152260D01*
X112875184Y51053945D01*
X112673160Y50566217D01*
X112673160Y50038303D01*
X112875184Y49550575D01*
X113248475Y49177284D01*
X113736203Y48975260D01*
X114264117Y48975260D01*
X114751845Y49177284D01*
X115125136Y49550575D01*
X115327160Y50038303D01*
X115327160Y50566217D01*
X115125136Y51053945D01*
X115026821Y51152260D01*
X115125136Y51250575D01*
X115327160Y51738303D01*
X115327160Y52266217D01*
X115673160Y52266217D01*
X115673160Y51738303D01*
X115875184Y51250575D01*
X115973499Y51152260D01*
X115875184Y51053945D01*
X115673160Y50566217D01*
X115673160Y50038303D01*
X115875184Y49550575D01*
X116248475Y49177284D01*
X116736203Y48975260D01*
X117264117Y48975260D01*
X117751845Y49177284D01*
X118125136Y49550575D01*
X118327160Y50038303D01*
X118327160Y50566217D01*
X118125136Y51053945D01*
X118026821Y51152260D01*
X118125136Y51250575D01*
X118327160Y51738303D01*
X118327160Y52266217D01*
X118673160Y52266217D01*
X118673160Y51738303D01*
X118875184Y51250575D01*
X118973499Y51152260D01*
X118875184Y51053945D01*
X118673160Y50566217D01*
X118673160Y50038303D01*
X118875184Y49550575D01*
X119248475Y49177284D01*
X119736203Y48975260D01*
X120264117Y48975260D01*
X120751845Y49177284D01*
X121125136Y49550575D01*
X121327160Y50038303D01*
X121327160Y50566217D01*
X121125136Y51053945D01*
X121026821Y51152260D01*
X121125136Y51250575D01*
X121327160Y51738303D01*
X121327160Y52266217D01*
X121673160Y52266217D01*
X121673160Y51738303D01*
X121875184Y51250575D01*
X121973499Y51152260D01*
X121875184Y51053945D01*
X121673160Y50566217D01*
X121673160Y50038303D01*
X121875184Y49550575D01*
X122248475Y49177284D01*
X122736203Y48975260D01*
X123264117Y48975260D01*
X123751845Y49177284D01*
X124125136Y49550575D01*
X124327160Y50038303D01*
X124327160Y50566217D01*
X124125136Y51053945D01*
X124026821Y51152260D01*
X124125136Y51250575D01*
X124327160Y51738303D01*
X124327160Y52266217D01*
X124673160Y52266217D01*
X124673160Y51738303D01*
X124875184Y51250575D01*
X124973499Y51152260D01*
X124875184Y51053945D01*
X124673160Y50566217D01*
X124673160Y50038303D01*
X124875184Y49550575D01*
X125248475Y49177284D01*
X125736203Y48975260D01*
X126264117Y48975260D01*
X126751845Y49177284D01*
X127125136Y49550575D01*
X127327160Y50038303D01*
X127327160Y50566217D01*
X127125136Y51053945D01*
X127026821Y51152260D01*
X127125136Y51250575D01*
X127327160Y51738303D01*
X127327160Y52266217D01*
X127673160Y52266217D01*
X127673160Y51738303D01*
X127875184Y51250575D01*
X127973499Y51152260D01*
X127875184Y51053945D01*
X127673160Y50566217D01*
X127673160Y50038303D01*
X127875184Y49550575D01*
X128248475Y49177284D01*
X128736203Y48975260D01*
X129264117Y48975260D01*
X129751845Y49177284D01*
X130125136Y49550575D01*
X130327160Y50038303D01*
X130327160Y50566217D01*
X130125136Y51053945D01*
X130026821Y51152260D01*
X130125136Y51250575D01*
X130327160Y51738303D01*
X130327160Y52266217D01*
X130673160Y52266217D01*
X130673160Y51738303D01*
X130875184Y51250575D01*
X130973499Y51152260D01*
X130875184Y51053945D01*
X130673160Y50566217D01*
X130673160Y50038303D01*
X130875184Y49550575D01*
X131248475Y49177284D01*
X131736203Y48975260D01*
X132264117Y48975260D01*
X132751845Y49177284D01*
X133125136Y49550575D01*
X133327160Y50038303D01*
X133327160Y50566217D01*
X133125136Y51053945D01*
X133026821Y51152260D01*
X133125136Y51250575D01*
X133327160Y51738303D01*
X133327160Y52266217D01*
X133125136Y52753945D01*
X132751845Y53127236D01*
X132264117Y53329260D01*
X131736203Y53329260D01*
X131248475Y53127236D01*
X130875184Y52753945D01*
X130673160Y52266217D01*
X130327160Y52266217D01*
X130125136Y52753945D01*
X129751845Y53127236D01*
X129264117Y53329260D01*
X128736203Y53329260D01*
X128248475Y53127236D01*
X127875184Y52753945D01*
X127673160Y52266217D01*
X127327160Y52266217D01*
X127125136Y52753945D01*
X126751845Y53127236D01*
X126264117Y53329260D01*
X125736203Y53329260D01*
X125248475Y53127236D01*
X124875184Y52753945D01*
X124673160Y52266217D01*
X124327160Y52266217D01*
X124125136Y52753945D01*
X123751845Y53127236D01*
X123264117Y53329260D01*
X122736203Y53329260D01*
X122248475Y53127236D01*
X121875184Y52753945D01*
X121673160Y52266217D01*
X121327160Y52266217D01*
X121125136Y52753945D01*
X120751845Y53127236D01*
X120264117Y53329260D01*
X119736203Y53329260D01*
X119248475Y53127236D01*
X118875184Y52753945D01*
X118673160Y52266217D01*
X118327160Y52266217D01*
X118125136Y52753945D01*
X117751845Y53127236D01*
X117264117Y53329260D01*
X116736203Y53329260D01*
X116248475Y53127236D01*
X115875184Y52753945D01*
X115673160Y52266217D01*
X115327160Y52266217D01*
X115125136Y52753945D01*
X114751845Y53127236D01*
X114264117Y53329260D01*
X113736203Y53329260D01*
X113248475Y53127236D01*
X112875184Y52753945D01*
X112673160Y52266217D01*
X112327160Y52266217D01*
X112125136Y52753945D01*
X111751845Y53127236D01*
X111264117Y53329260D01*
X110736203Y53329260D01*
X110248475Y53127236D01*
X109875184Y52753945D01*
X109673160Y52266217D01*
X109327160Y52266217D01*
X109125136Y52753945D01*
X108751845Y53127236D01*
X108264117Y53329260D01*
X107736203Y53329260D01*
X107248475Y53127236D01*
X106875184Y52753945D01*
X106673160Y52266217D01*
X106327160Y52266217D01*
X106125136Y52753945D01*
X105751845Y53127236D01*
X105264117Y53329260D01*
X104736203Y53329260D01*
X104248475Y53127236D01*
X103875184Y52753945D01*
X103673160Y52266217D01*
X103327160Y52266217D01*
X103125136Y52753945D01*
X102751845Y53127236D01*
X102264117Y53329260D01*
X101736203Y53329260D01*
X101248475Y53127236D01*
X100875184Y52753945D01*
X100673160Y52266217D01*
X100327160Y52266217D01*
X100125136Y52753945D01*
X99751845Y53127236D01*
X99264117Y53329260D01*
X98736203Y53329260D01*
X98248475Y53127236D01*
X97875184Y52753945D01*
X97673160Y52266217D01*
X97327160Y52266217D01*
X97125136Y52753945D01*
X96751845Y53127236D01*
X96264117Y53329260D01*
X95736203Y53329260D01*
X95248475Y53127236D01*
X94875184Y52753945D01*
X94673160Y52266217D01*
X94327160Y52266217D01*
X94125136Y52753945D01*
X93751845Y53127236D01*
X93264117Y53329260D01*
X92736203Y53329260D01*
X92248475Y53127236D01*
X91875184Y52753945D01*
X91673160Y52266217D01*
X91327160Y52266217D01*
X91125136Y52753945D01*
X90751845Y53127236D01*
X90264117Y53329260D01*
X89736203Y53329260D01*
X89248475Y53127236D01*
X88875184Y52753945D01*
X88673160Y52266217D01*
X88327160Y52266217D01*
X88125136Y52753945D01*
X87751845Y53127236D01*
X87264117Y53329260D01*
X86736203Y53329260D01*
X86248475Y53127236D01*
X85875184Y52753945D01*
X85673160Y52266217D01*
X85327160Y52266217D01*
X85125136Y52753945D01*
X84751845Y53127236D01*
X84264117Y53329260D01*
X83736203Y53329260D01*
X83248475Y53127236D01*
X82875184Y52753945D01*
X82673160Y52266217D01*
X82327160Y52266217D01*
X82125136Y52753945D01*
X81751845Y53127236D01*
X81264117Y53329260D01*
X80736203Y53329260D01*
X80248475Y53127236D01*
X79875184Y52753945D01*
X79673160Y52266217D01*
X79327160Y52266217D01*
X79125136Y52753945D01*
X78751845Y53127236D01*
X78264117Y53329260D01*
X77736203Y53329260D01*
X77248475Y53127236D01*
X76875184Y52753945D01*
X76673160Y52266217D01*
X76327160Y52266217D01*
X76125136Y52753945D01*
X75751845Y53127236D01*
X75264117Y53329260D01*
X74736203Y53329260D01*
X74248475Y53127236D01*
X73875184Y52753945D01*
X73673160Y52266217D01*
X73327160Y52266217D01*
X73125136Y52753945D01*
X72751845Y53127236D01*
X72264117Y53329260D01*
X71736203Y53329260D01*
X71248475Y53127236D01*
X70875184Y52753945D01*
X70673160Y52266217D01*
X70327160Y52266217D01*
X70125136Y52753945D01*
X69751845Y53127236D01*
X69264117Y53329260D01*
X68736203Y53329260D01*
X68248475Y53127236D01*
X67875184Y52753945D01*
X67673160Y52266217D01*
X67327160Y52266217D01*
X67125136Y52753945D01*
X66751845Y53127236D01*
X66264117Y53329260D01*
X65736203Y53329260D01*
X65248475Y53127236D01*
X64875184Y52753945D01*
X64673160Y52266217D01*
X64327160Y52266217D01*
X64125136Y52753945D01*
X63751845Y53127236D01*
X63264117Y53329260D01*
X62736203Y53329260D01*
X62248475Y53127236D01*
X61875184Y52753945D01*
X61673160Y52266217D01*
X61327160Y52266217D01*
X61125136Y52753945D01*
X60751845Y53127236D01*
X60264117Y53329260D01*
X59736203Y53329260D01*
X59248475Y53127236D01*
X58875184Y52753945D01*
X58673160Y52266217D01*
X58327160Y52266217D01*
X58125136Y52753945D01*
X57751845Y53127236D01*
X57264117Y53329260D01*
X56736203Y53329260D01*
X56248475Y53127236D01*
X55875184Y52753945D01*
X55673160Y52266217D01*
X55327160Y52266217D01*
X55125136Y52753945D01*
X54751845Y53127236D01*
X54264117Y53329260D01*
X53736203Y53329260D01*
X53248475Y53127236D01*
X52875184Y52753945D01*
X52673160Y52266217D01*
X52327160Y52266217D01*
X52125136Y52753945D01*
X51751845Y53127236D01*
X51264117Y53329260D01*
X50736203Y53329260D01*
X50248475Y53127236D01*
X49875184Y52753945D01*
X49673160Y52266217D01*
X49327160Y52266217D01*
X49125136Y52753945D01*
X48751845Y53127236D01*
X48264117Y53329260D01*
X47736203Y53329260D01*
X47248475Y53127236D01*
X46875184Y52753945D01*
X46673160Y52266217D01*
X46327160Y52266217D01*
X46125136Y52753945D01*
X45751845Y53127236D01*
X45264117Y53329260D01*
X44736203Y53329260D01*
X44248475Y53127236D01*
X43875184Y52753945D01*
X43673160Y52266217D01*
X41176415Y52266217D01*
X41483227Y52573029D01*
X41867940Y53501808D01*
X41867940Y54507112D01*
X41483227Y55435891D01*
X40772371Y56146747D01*
X39843592Y56531460D01*
X38838288Y56531460D01*
X37909509Y56146747D01*
X37198653Y55435891D01*
X36813940Y54507112D01*
X32960338Y54507112D01*
X32666326Y55216918D01*
X31814818Y56068426D01*
X30702268Y56529260D01*
X29498052Y56529260D01*
X28385502Y56068426D01*
X27533994Y55216918D01*
X27073160Y54104368D01*
X8927160Y54104368D01*
X8466326Y55216918D01*
X7614818Y56068426D01*
X6502268Y56529260D01*
X5298052Y56529260D01*
X4185502Y56068426D01*
X3333994Y55216918D01*
X2873160Y54104368D01*
X-3897840Y54104368D01*
X-3897840Y84304368D01*
X2873160Y84304368D01*
X2873160Y83100152D01*
X3333994Y81987602D01*
X4185502Y81136094D01*
X4771218Y80893482D01*
X4169813Y80292077D01*
X3823160Y79455183D01*
X3823160Y78549337D01*
X4169813Y77712443D01*
X4810343Y77071913D01*
X5219921Y76902260D01*
X4810343Y76732607D01*
X4169813Y76092077D01*
X3823160Y75255183D01*
X3823160Y74349337D01*
X4169813Y73512443D01*
X4810343Y72871913D01*
X5219921Y72702260D01*
X4810343Y72532607D01*
X4169813Y71892077D01*
X3823160Y71055183D01*
X3823160Y70149337D01*
X4169813Y69312443D01*
X4810343Y68671913D01*
X5219921Y68502260D01*
X4810343Y68332607D01*
X4169813Y67692077D01*
X3823160Y66855183D01*
X3823160Y65949337D01*
X4169813Y65112443D01*
X4771218Y64511038D01*
X4185502Y64268426D01*
X3333994Y63416918D01*
X2873160Y62304368D01*
X2873160Y61100152D01*
X3333994Y59987602D01*
X4185502Y59136094D01*
X5298052Y58675260D01*
X6502268Y58675260D01*
X7614818Y59136094D01*
X8466326Y59987602D01*
X8927160Y61100152D01*
X8927160Y62304368D01*
X8466326Y63416918D01*
X7614818Y64268426D01*
X7256767Y64416736D01*
X7389977Y64471913D01*
X7861160Y64943096D01*
X9724879Y64943096D01*
X9899351Y64787281D01*
X10547886Y64756831D01*
X10700969Y64787281D01*
X10875441Y64943096D01*
X25124879Y64943096D01*
X25299351Y64787281D01*
X25947886Y64756831D01*
X26100969Y64787281D01*
X26275441Y64943096D01*
X25700160Y65518377D01*
X25124879Y64943096D01*
X10875441Y64943096D01*
X10300160Y65518377D01*
X9724879Y64943096D01*
X7861160Y64943096D01*
X8030507Y65112443D01*
X8377160Y65949337D01*
X8377160Y66154534D01*
X8654731Y66154534D01*
X8685181Y66001451D01*
X8840996Y65826979D01*
X9416277Y66402260D01*
X11184043Y66402260D01*
X11759324Y65826979D01*
X11915139Y66001451D01*
X11922326Y66154534D01*
X24054731Y66154534D01*
X24085181Y66001451D01*
X24240996Y65826979D01*
X24816277Y66402260D01*
X26584043Y66402260D01*
X27159324Y65826979D01*
X27315139Y66001451D01*
X27345589Y66649986D01*
X27315139Y66803069D01*
X27159324Y66977541D01*
X26584043Y66402260D01*
X24816277Y66402260D01*
X24240996Y66977541D01*
X24085181Y66803069D01*
X24054731Y66154534D01*
X11922326Y66154534D01*
X11945589Y66649986D01*
X11915139Y66803069D01*
X11759324Y66977541D01*
X11184043Y66402260D01*
X9416277Y66402260D01*
X8840996Y66977541D01*
X8685181Y66803069D01*
X8654731Y66154534D01*
X8377160Y66154534D01*
X8377160Y66855183D01*
X8030507Y67692077D01*
X7861160Y67861424D01*
X9724879Y67861424D01*
X10300160Y67286143D01*
X10875441Y67861424D01*
X25124879Y67861424D01*
X25700160Y67286143D01*
X26275441Y67861424D01*
X26100969Y68017239D01*
X25452434Y68047689D01*
X25299351Y68017239D01*
X25124879Y67861424D01*
X10875441Y67861424D01*
X10700969Y68017239D01*
X10052434Y68047689D01*
X9899351Y68017239D01*
X9724879Y67861424D01*
X7861160Y67861424D01*
X7389977Y68332607D01*
X6980399Y68502260D01*
X7389977Y68671913D01*
X7861160Y69143096D01*
X9724879Y69143096D01*
X9899351Y68987281D01*
X10547886Y68956831D01*
X10700969Y68987281D01*
X10875441Y69143096D01*
X25124879Y69143096D01*
X25299351Y68987281D01*
X25947886Y68956831D01*
X26100969Y68987281D01*
X26275441Y69143096D01*
X25700160Y69718377D01*
X25124879Y69143096D01*
X10875441Y69143096D01*
X10300160Y69718377D01*
X9724879Y69143096D01*
X7861160Y69143096D01*
X8030507Y69312443D01*
X8377160Y70149337D01*
X8377160Y70354534D01*
X8654731Y70354534D01*
X8685181Y70201451D01*
X8840996Y70026979D01*
X9416277Y70602260D01*
X11184043Y70602260D01*
X11759324Y70026979D01*
X11915139Y70201451D01*
X11922326Y70354534D01*
X24054731Y70354534D01*
X24085181Y70201451D01*
X24240996Y70026979D01*
X24816277Y70602260D01*
X26584043Y70602260D01*
X27159324Y70026979D01*
X27315139Y70201451D01*
X27345589Y70849986D01*
X27315139Y71003069D01*
X27159324Y71177541D01*
X26584043Y70602260D01*
X24816277Y70602260D01*
X24240996Y71177541D01*
X24085181Y71003069D01*
X24054731Y70354534D01*
X11922326Y70354534D01*
X11945589Y70849986D01*
X11915139Y71003069D01*
X11759324Y71177541D01*
X11184043Y70602260D01*
X9416277Y70602260D01*
X8840996Y71177541D01*
X8685181Y71003069D01*
X8654731Y70354534D01*
X8377160Y70354534D01*
X8377160Y71055183D01*
X8030507Y71892077D01*
X7861160Y72061424D01*
X9724879Y72061424D01*
X10300160Y71486143D01*
X10875441Y72061424D01*
X25124879Y72061424D01*
X25700160Y71486143D01*
X26275441Y72061424D01*
X26100969Y72217239D01*
X25452434Y72247689D01*
X25299351Y72217239D01*
X25124879Y72061424D01*
X10875441Y72061424D01*
X10700969Y72217239D01*
X10052434Y72247689D01*
X9899351Y72217239D01*
X9724879Y72061424D01*
X7861160Y72061424D01*
X7389977Y72532607D01*
X6980399Y72702260D01*
X7389977Y72871913D01*
X7861160Y73343096D01*
X9724879Y73343096D01*
X9899351Y73187281D01*
X10547886Y73156831D01*
X10700969Y73187281D01*
X10875441Y73343096D01*
X25124879Y73343096D01*
X25299351Y73187281D01*
X25947886Y73156831D01*
X26100969Y73187281D01*
X26275441Y73343096D01*
X25700160Y73918377D01*
X25124879Y73343096D01*
X10875441Y73343096D01*
X10300160Y73918377D01*
X9724879Y73343096D01*
X7861160Y73343096D01*
X8030507Y73512443D01*
X8377160Y74349337D01*
X8377160Y74554534D01*
X8654731Y74554534D01*
X8685181Y74401451D01*
X8840996Y74226979D01*
X9416277Y74802260D01*
X11184043Y74802260D01*
X11759324Y74226979D01*
X11915139Y74401451D01*
X11922326Y74554534D01*
X24054731Y74554534D01*
X24085181Y74401451D01*
X24240996Y74226979D01*
X24816277Y74802260D01*
X26584043Y74802260D01*
X27159324Y74226979D01*
X27315139Y74401451D01*
X27345589Y75049986D01*
X27315139Y75203069D01*
X27159324Y75377541D01*
X26584043Y74802260D01*
X24816277Y74802260D01*
X24240996Y75377541D01*
X24085181Y75203069D01*
X24054731Y74554534D01*
X11922326Y74554534D01*
X11945589Y75049986D01*
X11915139Y75203069D01*
X11759324Y75377541D01*
X11184043Y74802260D01*
X9416277Y74802260D01*
X8840996Y75377541D01*
X8685181Y75203069D01*
X8654731Y74554534D01*
X8377160Y74554534D01*
X8377160Y75255183D01*
X8030507Y76092077D01*
X7861160Y76261424D01*
X9724879Y76261424D01*
X10300160Y75686143D01*
X10875441Y76261424D01*
X25124879Y76261424D01*
X25700160Y75686143D01*
X26275441Y76261424D01*
X26100969Y76417239D01*
X25452434Y76447689D01*
X25299351Y76417239D01*
X25124879Y76261424D01*
X10875441Y76261424D01*
X10700969Y76417239D01*
X10052434Y76447689D01*
X9899351Y76417239D01*
X9724879Y76261424D01*
X7861160Y76261424D01*
X7389977Y76732607D01*
X6980399Y76902260D01*
X7389977Y77071913D01*
X7861160Y77543096D01*
X9724879Y77543096D01*
X9899351Y77387281D01*
X10547886Y77356831D01*
X10700969Y77387281D01*
X10875441Y77543096D01*
X25124879Y77543096D01*
X25299351Y77387281D01*
X25947886Y77356831D01*
X26100969Y77387281D01*
X26275441Y77543096D01*
X25700160Y78118377D01*
X25124879Y77543096D01*
X10875441Y77543096D01*
X10300160Y78118377D01*
X9724879Y77543096D01*
X7861160Y77543096D01*
X8030507Y77712443D01*
X8377160Y78549337D01*
X8377160Y78754534D01*
X8654731Y78754534D01*
X8685181Y78601451D01*
X8840996Y78426979D01*
X9416277Y79002260D01*
X11184043Y79002260D01*
X11759324Y78426979D01*
X11915139Y78601451D01*
X11922326Y78754534D01*
X24054731Y78754534D01*
X24085181Y78601451D01*
X24240996Y78426979D01*
X24816277Y79002260D01*
X26584043Y79002260D01*
X27159324Y78426979D01*
X27315139Y78601451D01*
X27345589Y79249986D01*
X27315139Y79403069D01*
X27159324Y79577541D01*
X26584043Y79002260D01*
X24816277Y79002260D01*
X24240996Y79577541D01*
X24085181Y79403069D01*
X24054731Y78754534D01*
X11922326Y78754534D01*
X11945589Y79249986D01*
X11915139Y79403069D01*
X11759324Y79577541D01*
X11184043Y79002260D01*
X9416277Y79002260D01*
X8840996Y79577541D01*
X8685181Y79403069D01*
X8654731Y78754534D01*
X8377160Y78754534D01*
X8377160Y79455183D01*
X8030507Y80292077D01*
X7861160Y80461424D01*
X9724879Y80461424D01*
X10300160Y79886143D01*
X10875441Y80461424D01*
X25124879Y80461424D01*
X25700160Y79886143D01*
X26275441Y80461424D01*
X26100969Y80617239D01*
X25452434Y80647689D01*
X25299351Y80617239D01*
X25124879Y80461424D01*
X10875441Y80461424D01*
X10700969Y80617239D01*
X10052434Y80647689D01*
X9899351Y80617239D01*
X9724879Y80461424D01*
X7861160Y80461424D01*
X7389977Y80932607D01*
X7256767Y80987784D01*
X7614818Y81136094D01*
X8466326Y81987602D01*
X8927160Y83100152D01*
X8927160Y84304368D01*
X27073160Y84304368D01*
X27073160Y83100152D01*
X27533994Y81987602D01*
X28385502Y81136094D01*
X28743553Y80987784D01*
X28610343Y80932607D01*
X27969813Y80292077D01*
X27623160Y79455183D01*
X27623160Y78549337D01*
X27969813Y77712443D01*
X28610343Y77071913D01*
X29019921Y76902260D01*
X28610343Y76732607D01*
X27969813Y76092077D01*
X27623160Y75255183D01*
X27623160Y74349337D01*
X27969813Y73512443D01*
X28610343Y72871913D01*
X29019921Y72702260D01*
X28610343Y72532607D01*
X27969813Y71892077D01*
X27623160Y71055183D01*
X27623160Y70149337D01*
X27969813Y69312443D01*
X28610343Y68671913D01*
X29019921Y68502260D01*
X28610343Y68332607D01*
X27969813Y67692077D01*
X27623160Y66855183D01*
X27623160Y65949337D01*
X27969813Y65112443D01*
X28610343Y64471913D01*
X28743553Y64416736D01*
X28385502Y64268426D01*
X27533994Y63416918D01*
X27073160Y62304368D01*
X27073160Y61100152D01*
X27533994Y59987602D01*
X28385502Y59136094D01*
X29498052Y58675260D01*
X30702268Y58675260D01*
X31814818Y59136094D01*
X32666326Y59987602D01*
X33127160Y61100152D01*
X33127160Y61807112D01*
X36813940Y61807112D01*
X36813940Y60801808D01*
X37198653Y59873029D01*
X37909509Y59162173D01*
X38838288Y58777460D01*
X39843592Y58777460D01*
X40772371Y59162173D01*
X41483227Y59873029D01*
X41867940Y60801808D01*
X41867940Y61807112D01*
X41483227Y62735891D01*
X40772371Y63446747D01*
X39843592Y63831460D01*
X38838288Y63831460D01*
X37909509Y63446747D01*
X37198653Y62735891D01*
X36813940Y61807112D01*
X33127160Y61807112D01*
X33127160Y62304368D01*
X32666326Y63416918D01*
X31814818Y64268426D01*
X31229102Y64511038D01*
X31830507Y65112443D01*
X32177160Y65949337D01*
X32177160Y66855183D01*
X31830507Y67692077D01*
X31189977Y68332607D01*
X30780399Y68502260D01*
X31189977Y68671913D01*
X31830507Y69312443D01*
X32177160Y70149337D01*
X32177160Y70528386D01*
X63973160Y70528386D01*
X63973160Y67136134D01*
X65271318Y64002102D01*
X67670002Y61603418D01*
X70804034Y60305260D01*
X74196286Y60305260D01*
X77330318Y61603418D01*
X79729002Y64002102D01*
X81027160Y67136134D01*
X81027160Y70528386D01*
X103973160Y70528386D01*
X103973160Y67136134D01*
X105271318Y64002102D01*
X107670002Y61603418D01*
X110804034Y60305260D01*
X114196286Y60305260D01*
X117330318Y61603418D01*
X119729002Y64002102D01*
X121027160Y67136134D01*
X121027160Y70528386D01*
X119729002Y73662418D01*
X117330318Y76061102D01*
X114196286Y77359260D01*
X110804034Y77359260D01*
X107670002Y76061102D01*
X105271318Y73662418D01*
X103973160Y70528386D01*
X81027160Y70528386D01*
X79729002Y73662418D01*
X77330318Y76061102D01*
X74196286Y77359260D01*
X70804034Y77359260D01*
X67670002Y76061102D01*
X65271318Y73662418D01*
X63973160Y70528386D01*
X32177160Y70528386D01*
X32177160Y71055183D01*
X31830507Y71892077D01*
X31189977Y72532607D01*
X30780399Y72702260D01*
X31189977Y72871913D01*
X31830507Y73512443D01*
X32177160Y74349337D01*
X32177160Y75255183D01*
X31830507Y76092077D01*
X31189977Y76732607D01*
X30780399Y76902260D01*
X31189977Y77071913D01*
X31830507Y77712443D01*
X32177160Y78549337D01*
X32177160Y79455183D01*
X31830507Y80292077D01*
X31229102Y80893482D01*
X31814818Y81136094D01*
X32666326Y81987602D01*
X33127160Y83100152D01*
X33127160Y84304368D01*
X32666326Y85416918D01*
X31814818Y86268426D01*
X30702268Y86729260D01*
X29498052Y86729260D01*
X28385502Y86268426D01*
X27533994Y85416918D01*
X27073160Y84304368D01*
X8927160Y84304368D01*
X8466326Y85416918D01*
X7614818Y86268426D01*
X6502268Y86729260D01*
X5298052Y86729260D01*
X4185502Y86268426D01*
X3333994Y85416918D01*
X2873160Y84304368D01*
X-3897840Y84304368D01*
X-3897840Y87312839D01*
X-921494Y87312839D01*
X-551686Y87116082D01*
X552006Y87116082D01*
X921814Y87312839D01*
X268436Y87966217D01*
X43673160Y87966217D01*
X43673160Y87438303D01*
X43875184Y86950575D01*
X43973499Y86852260D01*
X43875184Y86753945D01*
X43673160Y86266217D01*
X43673160Y85738303D01*
X43875184Y85250575D01*
X44248475Y84877284D01*
X44736203Y84675260D01*
X45264117Y84675260D01*
X45751845Y84877284D01*
X46125136Y85250575D01*
X46327160Y85738303D01*
X46327160Y86266217D01*
X46125136Y86753945D01*
X46026821Y86852260D01*
X46125136Y86950575D01*
X46327160Y87438303D01*
X46327160Y87966217D01*
X46673160Y87966217D01*
X46673160Y87438303D01*
X46875184Y86950575D01*
X46973499Y86852260D01*
X46875184Y86753945D01*
X46673160Y86266217D01*
X46673160Y85738303D01*
X46875184Y85250575D01*
X47248475Y84877284D01*
X47736203Y84675260D01*
X48264117Y84675260D01*
X48751845Y84877284D01*
X49125136Y85250575D01*
X49327160Y85738303D01*
X49327160Y86266217D01*
X49125136Y86753945D01*
X49026821Y86852260D01*
X49125136Y86950575D01*
X49327160Y87438303D01*
X49327160Y87966217D01*
X49673160Y87966217D01*
X49673160Y87438303D01*
X49875184Y86950575D01*
X49973499Y86852260D01*
X49875184Y86753945D01*
X49673160Y86266217D01*
X49673160Y85738303D01*
X49875184Y85250575D01*
X50248475Y84877284D01*
X50736203Y84675260D01*
X51264117Y84675260D01*
X51751845Y84877284D01*
X52125136Y85250575D01*
X52327160Y85738303D01*
X52327160Y86266217D01*
X52125136Y86753945D01*
X52026821Y86852260D01*
X52125136Y86950575D01*
X52327160Y87438303D01*
X52327160Y87966217D01*
X52673160Y87966217D01*
X52673160Y87438303D01*
X52875184Y86950575D01*
X52973499Y86852260D01*
X52875184Y86753945D01*
X52673160Y86266217D01*
X52673160Y85738303D01*
X52875184Y85250575D01*
X53248475Y84877284D01*
X53736203Y84675260D01*
X54264117Y84675260D01*
X54751845Y84877284D01*
X55125136Y85250575D01*
X55327160Y85738303D01*
X55327160Y86266217D01*
X55125136Y86753945D01*
X55026821Y86852260D01*
X55125136Y86950575D01*
X55327160Y87438303D01*
X55327160Y87966217D01*
X55673160Y87966217D01*
X55673160Y87438303D01*
X55875184Y86950575D01*
X55973499Y86852260D01*
X55875184Y86753945D01*
X55673160Y86266217D01*
X55673160Y85738303D01*
X55875184Y85250575D01*
X56248475Y84877284D01*
X56736203Y84675260D01*
X57264117Y84675260D01*
X57751845Y84877284D01*
X58125136Y85250575D01*
X58327160Y85738303D01*
X58327160Y86266217D01*
X58125136Y86753945D01*
X58026821Y86852260D01*
X58125136Y86950575D01*
X58327160Y87438303D01*
X58327160Y87966217D01*
X58673160Y87966217D01*
X58673160Y87438303D01*
X58875184Y86950575D01*
X58973499Y86852260D01*
X58875184Y86753945D01*
X58673160Y86266217D01*
X58673160Y85738303D01*
X58875184Y85250575D01*
X59248475Y84877284D01*
X59736203Y84675260D01*
X60264117Y84675260D01*
X60751845Y84877284D01*
X61125136Y85250575D01*
X61327160Y85738303D01*
X61327160Y86266217D01*
X61125136Y86753945D01*
X61026821Y86852260D01*
X61125136Y86950575D01*
X61327160Y87438303D01*
X61327160Y87966217D01*
X61673160Y87966217D01*
X61673160Y87438303D01*
X61875184Y86950575D01*
X61973499Y86852260D01*
X61875184Y86753945D01*
X61673160Y86266217D01*
X61673160Y85738303D01*
X61875184Y85250575D01*
X62248475Y84877284D01*
X62736203Y84675260D01*
X63264117Y84675260D01*
X63751845Y84877284D01*
X64125136Y85250575D01*
X64327160Y85738303D01*
X64327160Y86266217D01*
X64125136Y86753945D01*
X64026821Y86852260D01*
X64125136Y86950575D01*
X64327160Y87438303D01*
X64327160Y87966217D01*
X64673160Y87966217D01*
X64673160Y87438303D01*
X64875184Y86950575D01*
X64973499Y86852260D01*
X64875184Y86753945D01*
X64673160Y86266217D01*
X64673160Y85738303D01*
X64875184Y85250575D01*
X65248475Y84877284D01*
X65736203Y84675260D01*
X66264117Y84675260D01*
X66751845Y84877284D01*
X67125136Y85250575D01*
X67327160Y85738303D01*
X67327160Y86266217D01*
X67125136Y86753945D01*
X67026821Y86852260D01*
X67125136Y86950575D01*
X67327160Y87438303D01*
X67327160Y87966217D01*
X67673160Y87966217D01*
X67673160Y87438303D01*
X67875184Y86950575D01*
X67973499Y86852260D01*
X67875184Y86753945D01*
X67673160Y86266217D01*
X67673160Y85738303D01*
X67875184Y85250575D01*
X68248475Y84877284D01*
X68736203Y84675260D01*
X69264117Y84675260D01*
X69751845Y84877284D01*
X70125136Y85250575D01*
X70327160Y85738303D01*
X70327160Y86266217D01*
X70125136Y86753945D01*
X70026821Y86852260D01*
X70125136Y86950575D01*
X70327160Y87438303D01*
X70327160Y87966217D01*
X70673160Y87966217D01*
X70673160Y87438303D01*
X70875184Y86950575D01*
X70973499Y86852260D01*
X70875184Y86753945D01*
X70673160Y86266217D01*
X70673160Y85738303D01*
X70875184Y85250575D01*
X71248475Y84877284D01*
X71736203Y84675260D01*
X72264117Y84675260D01*
X72751845Y84877284D01*
X73125136Y85250575D01*
X73327160Y85738303D01*
X73327160Y86266217D01*
X73125136Y86753945D01*
X73026821Y86852260D01*
X73125136Y86950575D01*
X73327160Y87438303D01*
X73327160Y87966217D01*
X73673160Y87966217D01*
X73673160Y87438303D01*
X73875184Y86950575D01*
X73973499Y86852260D01*
X73875184Y86753945D01*
X73673160Y86266217D01*
X73673160Y85738303D01*
X73875184Y85250575D01*
X74248475Y84877284D01*
X74736203Y84675260D01*
X75264117Y84675260D01*
X75751845Y84877284D01*
X76125136Y85250575D01*
X76327160Y85738303D01*
X76327160Y86266217D01*
X76125136Y86753945D01*
X76026821Y86852260D01*
X76125136Y86950575D01*
X76327160Y87438303D01*
X76327160Y87966217D01*
X76673160Y87966217D01*
X76673160Y87438303D01*
X76875184Y86950575D01*
X76973499Y86852260D01*
X76875184Y86753945D01*
X76673160Y86266217D01*
X76673160Y85738303D01*
X76875184Y85250575D01*
X77248475Y84877284D01*
X77736203Y84675260D01*
X78264117Y84675260D01*
X78751845Y84877284D01*
X79125136Y85250575D01*
X79327160Y85738303D01*
X79327160Y86266217D01*
X79125136Y86753945D01*
X79026821Y86852260D01*
X79125136Y86950575D01*
X79327160Y87438303D01*
X79327160Y87966217D01*
X79673160Y87966217D01*
X79673160Y87438303D01*
X79875184Y86950575D01*
X79973499Y86852260D01*
X79875184Y86753945D01*
X79673160Y86266217D01*
X79673160Y85738303D01*
X79875184Y85250575D01*
X80248475Y84877284D01*
X80736203Y84675260D01*
X81264117Y84675260D01*
X81751845Y84877284D01*
X82125136Y85250575D01*
X82327160Y85738303D01*
X82327160Y86266217D01*
X82125136Y86753945D01*
X82026821Y86852260D01*
X82125136Y86950575D01*
X82327160Y87438303D01*
X82327160Y87966217D01*
X82673160Y87966217D01*
X82673160Y87438303D01*
X82875184Y86950575D01*
X82973499Y86852260D01*
X82875184Y86753945D01*
X82673160Y86266217D01*
X82673160Y85738303D01*
X82875184Y85250575D01*
X83248475Y84877284D01*
X83736203Y84675260D01*
X84264117Y84675260D01*
X84751845Y84877284D01*
X85125136Y85250575D01*
X85327160Y85738303D01*
X85327160Y86266217D01*
X85125136Y86753945D01*
X85026821Y86852260D01*
X85125136Y86950575D01*
X85327160Y87438303D01*
X85327160Y87966217D01*
X85673160Y87966217D01*
X85673160Y87438303D01*
X85875184Y86950575D01*
X85973499Y86852260D01*
X85875184Y86753945D01*
X85673160Y86266217D01*
X85673160Y85738303D01*
X85875184Y85250575D01*
X86248475Y84877284D01*
X86736203Y84675260D01*
X87264117Y84675260D01*
X87751845Y84877284D01*
X88125136Y85250575D01*
X88327160Y85738303D01*
X88327160Y86266217D01*
X88125136Y86753945D01*
X88026821Y86852260D01*
X88125136Y86950575D01*
X88327160Y87438303D01*
X88327160Y87966217D01*
X88673160Y87966217D01*
X88673160Y87438303D01*
X88875184Y86950575D01*
X88973499Y86852260D01*
X88875184Y86753945D01*
X88673160Y86266217D01*
X88673160Y85738303D01*
X88875184Y85250575D01*
X89248475Y84877284D01*
X89736203Y84675260D01*
X90264117Y84675260D01*
X90751845Y84877284D01*
X91125136Y85250575D01*
X91327160Y85738303D01*
X91327160Y86266217D01*
X91125136Y86753945D01*
X91026821Y86852260D01*
X91125136Y86950575D01*
X91327160Y87438303D01*
X91327160Y87966217D01*
X91673160Y87966217D01*
X91673160Y87438303D01*
X91875184Y86950575D01*
X91973499Y86852260D01*
X91875184Y86753945D01*
X91673160Y86266217D01*
X91673160Y85738303D01*
X91875184Y85250575D01*
X92248475Y84877284D01*
X92736203Y84675260D01*
X93264117Y84675260D01*
X93751845Y84877284D01*
X94125136Y85250575D01*
X94327160Y85738303D01*
X94327160Y86266217D01*
X94125136Y86753945D01*
X94026821Y86852260D01*
X94125136Y86950575D01*
X94327160Y87438303D01*
X94327160Y87966217D01*
X94673160Y87966217D01*
X94673160Y87438303D01*
X94875184Y86950575D01*
X94973499Y86852260D01*
X94875184Y86753945D01*
X94673160Y86266217D01*
X94673160Y85738303D01*
X94875184Y85250575D01*
X95248475Y84877284D01*
X95736203Y84675260D01*
X96264117Y84675260D01*
X96751845Y84877284D01*
X97125136Y85250575D01*
X97327160Y85738303D01*
X97327160Y86266217D01*
X97125136Y86753945D01*
X97026821Y86852260D01*
X97125136Y86950575D01*
X97327160Y87438303D01*
X97327160Y87966217D01*
X97673160Y87966217D01*
X97673160Y87438303D01*
X97875184Y86950575D01*
X97973499Y86852260D01*
X97875184Y86753945D01*
X97673160Y86266217D01*
X97673160Y85738303D01*
X97875184Y85250575D01*
X98248475Y84877284D01*
X98736203Y84675260D01*
X99264117Y84675260D01*
X99751845Y84877284D01*
X100125136Y85250575D01*
X100327160Y85738303D01*
X100327160Y86266217D01*
X100125136Y86753945D01*
X100026821Y86852260D01*
X100125136Y86950575D01*
X100327160Y87438303D01*
X100327160Y87966217D01*
X100673160Y87966217D01*
X100673160Y87438303D01*
X100875184Y86950575D01*
X100973499Y86852260D01*
X100875184Y86753945D01*
X100673160Y86266217D01*
X100673160Y85738303D01*
X100875184Y85250575D01*
X101248475Y84877284D01*
X101736203Y84675260D01*
X102264117Y84675260D01*
X102751845Y84877284D01*
X103125136Y85250575D01*
X103327160Y85738303D01*
X103327160Y86266217D01*
X103125136Y86753945D01*
X103026821Y86852260D01*
X103125136Y86950575D01*
X103327160Y87438303D01*
X103327160Y87966217D01*
X103673160Y87966217D01*
X103673160Y87438303D01*
X103875184Y86950575D01*
X103973499Y86852260D01*
X103875184Y86753945D01*
X103673160Y86266217D01*
X103673160Y85738303D01*
X103875184Y85250575D01*
X104248475Y84877284D01*
X104736203Y84675260D01*
X105264117Y84675260D01*
X105751845Y84877284D01*
X106125136Y85250575D01*
X106327160Y85738303D01*
X106327160Y86266217D01*
X106125136Y86753945D01*
X106026821Y86852260D01*
X106125136Y86950575D01*
X106327160Y87438303D01*
X106327160Y87966217D01*
X106673160Y87966217D01*
X106673160Y87438303D01*
X106875184Y86950575D01*
X106973499Y86852260D01*
X106875184Y86753945D01*
X106673160Y86266217D01*
X106673160Y85738303D01*
X106875184Y85250575D01*
X107248475Y84877284D01*
X107736203Y84675260D01*
X108264117Y84675260D01*
X108751845Y84877284D01*
X109125136Y85250575D01*
X109327160Y85738303D01*
X109327160Y86266217D01*
X109125136Y86753945D01*
X109026821Y86852260D01*
X109125136Y86950575D01*
X109327160Y87438303D01*
X109327160Y87966217D01*
X109673160Y87966217D01*
X109673160Y87438303D01*
X109875184Y86950575D01*
X109973499Y86852260D01*
X109875184Y86753945D01*
X109673160Y86266217D01*
X109673160Y85738303D01*
X109875184Y85250575D01*
X110248475Y84877284D01*
X110736203Y84675260D01*
X111264117Y84675260D01*
X111751845Y84877284D01*
X112125136Y85250575D01*
X112327160Y85738303D01*
X112327160Y86266217D01*
X112125136Y86753945D01*
X112026821Y86852260D01*
X112125136Y86950575D01*
X112327160Y87438303D01*
X112327160Y87966217D01*
X112673160Y87966217D01*
X112673160Y87438303D01*
X112875184Y86950575D01*
X112973499Y86852260D01*
X112875184Y86753945D01*
X112673160Y86266217D01*
X112673160Y85738303D01*
X112875184Y85250575D01*
X113248475Y84877284D01*
X113736203Y84675260D01*
X114264117Y84675260D01*
X114751845Y84877284D01*
X115125136Y85250575D01*
X115327160Y85738303D01*
X115327160Y86266217D01*
X115125136Y86753945D01*
X115026821Y86852260D01*
X115125136Y86950575D01*
X115327160Y87438303D01*
X115327160Y87966217D01*
X115673160Y87966217D01*
X115673160Y87438303D01*
X115875184Y86950575D01*
X115973499Y86852260D01*
X115875184Y86753945D01*
X115673160Y86266217D01*
X115673160Y85738303D01*
X115875184Y85250575D01*
X116248475Y84877284D01*
X116736203Y84675260D01*
X117264117Y84675260D01*
X117751845Y84877284D01*
X118125136Y85250575D01*
X118327160Y85738303D01*
X118327160Y86266217D01*
X118125136Y86753945D01*
X118026821Y86852260D01*
X118125136Y86950575D01*
X118327160Y87438303D01*
X118327160Y87966217D01*
X118673160Y87966217D01*
X118673160Y87438303D01*
X118875184Y86950575D01*
X118973499Y86852260D01*
X118875184Y86753945D01*
X118673160Y86266217D01*
X118673160Y85738303D01*
X118875184Y85250575D01*
X119248475Y84877284D01*
X119736203Y84675260D01*
X120264117Y84675260D01*
X120751845Y84877284D01*
X121125136Y85250575D01*
X121327160Y85738303D01*
X121327160Y86266217D01*
X121125136Y86753945D01*
X121026821Y86852260D01*
X121125136Y86950575D01*
X121327160Y87438303D01*
X121327160Y87966217D01*
X121673160Y87966217D01*
X121673160Y87438303D01*
X121875184Y86950575D01*
X121973499Y86852260D01*
X121875184Y86753945D01*
X121673160Y86266217D01*
X121673160Y85738303D01*
X121875184Y85250575D01*
X122248475Y84877284D01*
X122736203Y84675260D01*
X123264117Y84675260D01*
X123751845Y84877284D01*
X124125136Y85250575D01*
X124327160Y85738303D01*
X124327160Y86266217D01*
X124125136Y86753945D01*
X124026821Y86852260D01*
X124125136Y86950575D01*
X124327160Y87438303D01*
X124327160Y87966217D01*
X124673160Y87966217D01*
X124673160Y87438303D01*
X124875184Y86950575D01*
X124973499Y86852260D01*
X124875184Y86753945D01*
X124673160Y86266217D01*
X124673160Y85738303D01*
X124875184Y85250575D01*
X125248475Y84877284D01*
X125736203Y84675260D01*
X126264117Y84675260D01*
X126751845Y84877284D01*
X127125136Y85250575D01*
X127327160Y85738303D01*
X127327160Y86266217D01*
X127125136Y86753945D01*
X127026821Y86852260D01*
X127125136Y86950575D01*
X127327160Y87438303D01*
X127327160Y87966217D01*
X127673160Y87966217D01*
X127673160Y87438303D01*
X127875184Y86950575D01*
X127973499Y86852260D01*
X127875184Y86753945D01*
X127673160Y86266217D01*
X127673160Y85738303D01*
X127875184Y85250575D01*
X128248475Y84877284D01*
X128736203Y84675260D01*
X129264117Y84675260D01*
X129751845Y84877284D01*
X130125136Y85250575D01*
X130327160Y85738303D01*
X130327160Y86266217D01*
X130125136Y86753945D01*
X130026821Y86852260D01*
X130125136Y86950575D01*
X130327160Y87438303D01*
X130327160Y87966217D01*
X130673160Y87966217D01*
X130673160Y87438303D01*
X130875184Y86950575D01*
X130973499Y86852260D01*
X130875184Y86753945D01*
X130673160Y86266217D01*
X130673160Y85738303D01*
X130875184Y85250575D01*
X131248475Y84877284D01*
X131736203Y84675260D01*
X132264117Y84675260D01*
X132751845Y84877284D01*
X133125136Y85250575D01*
X133327160Y85738303D01*
X133327160Y86266217D01*
X133125136Y86753945D01*
X133026821Y86852260D01*
X133125136Y86950575D01*
X133275190Y87312839D01*
X139078506Y87312839D01*
X139448314Y87116082D01*
X140552006Y87116082D01*
X140921814Y87312839D01*
X140000160Y88234493D01*
X139078506Y87312839D01*
X133275190Y87312839D01*
X133327160Y87438303D01*
X133327160Y87966217D01*
X133125136Y88453945D01*
X132751845Y88827236D01*
X132264117Y89029260D01*
X131736203Y89029260D01*
X131248475Y88827236D01*
X130875184Y88453945D01*
X130673160Y87966217D01*
X130327160Y87966217D01*
X130125136Y88453945D01*
X129751845Y88827236D01*
X129264117Y89029260D01*
X128736203Y89029260D01*
X128248475Y88827236D01*
X127875184Y88453945D01*
X127673160Y87966217D01*
X127327160Y87966217D01*
X127125136Y88453945D01*
X126751845Y88827236D01*
X126264117Y89029260D01*
X125736203Y89029260D01*
X125248475Y88827236D01*
X124875184Y88453945D01*
X124673160Y87966217D01*
X124327160Y87966217D01*
X124125136Y88453945D01*
X123751845Y88827236D01*
X123264117Y89029260D01*
X122736203Y89029260D01*
X122248475Y88827236D01*
X121875184Y88453945D01*
X121673160Y87966217D01*
X121327160Y87966217D01*
X121125136Y88453945D01*
X120751845Y88827236D01*
X120264117Y89029260D01*
X119736203Y89029260D01*
X119248475Y88827236D01*
X118875184Y88453945D01*
X118673160Y87966217D01*
X118327160Y87966217D01*
X118125136Y88453945D01*
X117751845Y88827236D01*
X117264117Y89029260D01*
X116736203Y89029260D01*
X116248475Y88827236D01*
X115875184Y88453945D01*
X115673160Y87966217D01*
X115327160Y87966217D01*
X115125136Y88453945D01*
X114751845Y88827236D01*
X114264117Y89029260D01*
X113736203Y89029260D01*
X113248475Y88827236D01*
X112875184Y88453945D01*
X112673160Y87966217D01*
X112327160Y87966217D01*
X112125136Y88453945D01*
X111751845Y88827236D01*
X111264117Y89029260D01*
X110736203Y89029260D01*
X110248475Y88827236D01*
X109875184Y88453945D01*
X109673160Y87966217D01*
X109327160Y87966217D01*
X109125136Y88453945D01*
X108751845Y88827236D01*
X108264117Y89029260D01*
X107736203Y89029260D01*
X107248475Y88827236D01*
X106875184Y88453945D01*
X106673160Y87966217D01*
X106327160Y87966217D01*
X106125136Y88453945D01*
X105751845Y88827236D01*
X105264117Y89029260D01*
X104736203Y89029260D01*
X104248475Y88827236D01*
X103875184Y88453945D01*
X103673160Y87966217D01*
X103327160Y87966217D01*
X103125136Y88453945D01*
X102751845Y88827236D01*
X102264117Y89029260D01*
X101736203Y89029260D01*
X101248475Y88827236D01*
X100875184Y88453945D01*
X100673160Y87966217D01*
X100327160Y87966217D01*
X100125136Y88453945D01*
X99751845Y88827236D01*
X99264117Y89029260D01*
X98736203Y89029260D01*
X98248475Y88827236D01*
X97875184Y88453945D01*
X97673160Y87966217D01*
X97327160Y87966217D01*
X97125136Y88453945D01*
X96751845Y88827236D01*
X96264117Y89029260D01*
X95736203Y89029260D01*
X95248475Y88827236D01*
X94875184Y88453945D01*
X94673160Y87966217D01*
X94327160Y87966217D01*
X94125136Y88453945D01*
X93751845Y88827236D01*
X93264117Y89029260D01*
X92736203Y89029260D01*
X92248475Y88827236D01*
X91875184Y88453945D01*
X91673160Y87966217D01*
X91327160Y87966217D01*
X91125136Y88453945D01*
X90751845Y88827236D01*
X90264117Y89029260D01*
X89736203Y89029260D01*
X89248475Y88827236D01*
X88875184Y88453945D01*
X88673160Y87966217D01*
X88327160Y87966217D01*
X88125136Y88453945D01*
X87751845Y88827236D01*
X87264117Y89029260D01*
X86736203Y89029260D01*
X86248475Y88827236D01*
X85875184Y88453945D01*
X85673160Y87966217D01*
X85327160Y87966217D01*
X85125136Y88453945D01*
X84751845Y88827236D01*
X84264117Y89029260D01*
X83736203Y89029260D01*
X83248475Y88827236D01*
X82875184Y88453945D01*
X82673160Y87966217D01*
X82327160Y87966217D01*
X82125136Y88453945D01*
X81751845Y88827236D01*
X81264117Y89029260D01*
X80736203Y89029260D01*
X80248475Y88827236D01*
X79875184Y88453945D01*
X79673160Y87966217D01*
X79327160Y87966217D01*
X79125136Y88453945D01*
X78751845Y88827236D01*
X78264117Y89029260D01*
X77736203Y89029260D01*
X77248475Y88827236D01*
X76875184Y88453945D01*
X76673160Y87966217D01*
X76327160Y87966217D01*
X76125136Y88453945D01*
X75751845Y88827236D01*
X75264117Y89029260D01*
X74736203Y89029260D01*
X74248475Y88827236D01*
X73875184Y88453945D01*
X73673160Y87966217D01*
X73327160Y87966217D01*
X73125136Y88453945D01*
X72751845Y88827236D01*
X72264117Y89029260D01*
X71736203Y89029260D01*
X71248475Y88827236D01*
X70875184Y88453945D01*
X70673160Y87966217D01*
X70327160Y87966217D01*
X70125136Y88453945D01*
X69751845Y88827236D01*
X69264117Y89029260D01*
X68736203Y89029260D01*
X68248475Y88827236D01*
X67875184Y88453945D01*
X67673160Y87966217D01*
X67327160Y87966217D01*
X67125136Y88453945D01*
X66751845Y88827236D01*
X66264117Y89029260D01*
X65736203Y89029260D01*
X65248475Y88827236D01*
X64875184Y88453945D01*
X64673160Y87966217D01*
X64327160Y87966217D01*
X64125136Y88453945D01*
X63751845Y88827236D01*
X63264117Y89029260D01*
X62736203Y89029260D01*
X62248475Y88827236D01*
X61875184Y88453945D01*
X61673160Y87966217D01*
X61327160Y87966217D01*
X61125136Y88453945D01*
X60751845Y88827236D01*
X60264117Y89029260D01*
X59736203Y89029260D01*
X59248475Y88827236D01*
X58875184Y88453945D01*
X58673160Y87966217D01*
X58327160Y87966217D01*
X58125136Y88453945D01*
X57751845Y88827236D01*
X57264117Y89029260D01*
X56736203Y89029260D01*
X56248475Y88827236D01*
X55875184Y88453945D01*
X55673160Y87966217D01*
X55327160Y87966217D01*
X55125136Y88453945D01*
X54751845Y88827236D01*
X54264117Y89029260D01*
X53736203Y89029260D01*
X53248475Y88827236D01*
X52875184Y88453945D01*
X52673160Y87966217D01*
X52327160Y87966217D01*
X52125136Y88453945D01*
X51751845Y88827236D01*
X51264117Y89029260D01*
X50736203Y89029260D01*
X50248475Y88827236D01*
X49875184Y88453945D01*
X49673160Y87966217D01*
X49327160Y87966217D01*
X49125136Y88453945D01*
X48751845Y88827236D01*
X48264117Y89029260D01*
X47736203Y89029260D01*
X47248475Y88827236D01*
X46875184Y88453945D01*
X46673160Y87966217D01*
X46327160Y87966217D01*
X46125136Y88453945D01*
X45751845Y88827236D01*
X45264117Y89029260D01*
X44736203Y89029260D01*
X44248475Y88827236D01*
X43875184Y88453945D01*
X43673160Y87966217D01*
X268436Y87966217D01*
X160Y88234493D01*
X-921494Y87312839D01*
X-3897840Y87312839D01*
X-3897840Y90554106D01*
X-2886018Y90554106D01*
X-2886018Y89450414D01*
X-2689261Y89080606D01*
X-1767607Y90002260D01*
X1767927Y90002260D01*
X2689581Y89080606D01*
X2886338Y89450414D01*
X2886338Y90554106D01*
X137113982Y90554106D01*
X137113982Y89450414D01*
X137310739Y89080606D01*
X138232393Y90002260D01*
X141767927Y90002260D01*
X142689581Y89080606D01*
X142886338Y89450414D01*
X142886338Y90554106D01*
X142689581Y90923914D01*
X141767927Y90002260D01*
X138232393Y90002260D01*
X137310739Y90923914D01*
X137113982Y90554106D01*
X2886338Y90554106D01*
X2689581Y90923914D01*
X1767927Y90002260D01*
X-1767607Y90002260D01*
X-2689261Y90923914D01*
X-2886018Y90554106D01*
X-3897840Y90554106D01*
X-3897840Y92545798D01*
X-3751957Y92691681D01*
X-921494Y92691681D01*
X160Y91770027D01*
X921814Y92691681D01*
X139078506Y92691681D01*
X140000160Y91770027D01*
X140921814Y92691681D01*
X140552006Y92888438D01*
X139448314Y92888438D01*
X139078506Y92691681D01*
X921814Y92691681D01*
X552006Y92888438D01*
X-551686Y92888438D01*
X-921494Y92691681D01*
X-3751957Y92691681D01*
X-2543377Y93900260D01*
X142543698Y93900260D01*
X143898160Y92545797D01*
X143898160Y92545797D01*
G37*
X143898160Y92545797D02*
X143898161Y-2541276D01*
X142543698Y-3895740D01*
X-2543377Y-3895740D01*
X-3751956Y-2687161D01*
X-921494Y-2687161D01*
X-551686Y-2883918D01*
X552006Y-2883918D01*
X921814Y-2687161D01*
X139078506Y-2687161D01*
X139448314Y-2883918D01*
X140552006Y-2883918D01*
X140921814Y-2687161D01*
X140000160Y-1765507D01*
X139078506Y-2687161D01*
X921814Y-2687161D01*
X160Y-1765507D01*
X-921494Y-2687161D01*
X-3751956Y-2687161D01*
X-3897840Y-2541278D01*
X-3897840Y554106D01*
X-2886018Y554106D01*
X-2886018Y-549586D01*
X-2689261Y-919394D01*
X-1767607Y2260D01*
X1767927Y2260D01*
X2689581Y-919394D01*
X2886338Y-549586D01*
X2886338Y554106D01*
X137113982Y554106D01*
X137113982Y-549586D01*
X137310739Y-919394D01*
X138232393Y2260D01*
X141767927Y2260D01*
X142689581Y-919394D01*
X142886338Y-549586D01*
X142886338Y554106D01*
X142689581Y923914D01*
X141767927Y2260D01*
X138232393Y2260D01*
X137310739Y923914D01*
X137113982Y554106D01*
X2886338Y554106D01*
X2689581Y923914D01*
X1767927Y2260D01*
X-1767607Y2260D01*
X-2689261Y923914D01*
X-2886018Y554106D01*
X-3897840Y554106D01*
X-3897840Y2691681D01*
X-921494Y2691681D01*
X160Y1770027D01*
X921814Y2691681D01*
X139078506Y2691681D01*
X140000160Y1770027D01*
X140921814Y2691681D01*
X140552006Y2888438D01*
X139448314Y2888438D01*
X139078506Y2691681D01*
X921814Y2691681D01*
X552006Y2888438D01*
X-551686Y2888438D01*
X-921494Y2691681D01*
X-3897840Y2691681D01*
X-3897840Y7471768D01*
X2873160Y7471768D01*
X2873160Y6267552D01*
X3333994Y5155002D01*
X4185502Y4303494D01*
X5298052Y3842660D01*
X6502268Y3842660D01*
X7614818Y4303494D01*
X8466326Y5155002D01*
X8927160Y6267552D01*
X8927160Y7471768D01*
X27073160Y7471768D01*
X27073160Y6267552D01*
X27533994Y5155002D01*
X28385502Y4303494D01*
X29498052Y3842660D01*
X30702268Y3842660D01*
X31814818Y4303494D01*
X32666326Y5155002D01*
X33127160Y6267552D01*
X33127160Y7471768D01*
X32666326Y8584318D01*
X31814818Y9435826D01*
X30702268Y9896660D01*
X29498052Y9896660D01*
X28385502Y9435826D01*
X27533994Y8584318D01*
X27073160Y7471768D01*
X8927160Y7471768D01*
X8466326Y8584318D01*
X7614818Y9435826D01*
X6502268Y9896660D01*
X5298052Y9896660D01*
X4185502Y9435826D01*
X3333994Y8584318D01*
X2873160Y7471768D01*
X-3897840Y7471768D01*
X-3897840Y10110496D01*
X5324879Y10110496D01*
X5499351Y9954681D01*
X6147886Y9924231D01*
X6300969Y9954681D01*
X6475441Y10110496D01*
X5900160Y10685777D01*
X5324879Y10110496D01*
X-3897840Y10110496D01*
X-3897840Y11321934D01*
X4254731Y11321934D01*
X4285181Y11168851D01*
X4440996Y10994379D01*
X5016277Y11569660D01*
X6784043Y11569660D01*
X7359324Y10994379D01*
X7515139Y11168851D01*
X7545589Y11817386D01*
X7515139Y11970469D01*
X7359324Y12144941D01*
X6784043Y11569660D01*
X5016277Y11569660D01*
X4440996Y12144941D01*
X4285181Y11970469D01*
X4254731Y11321934D01*
X-3897840Y11321934D01*
X-3897840Y13028824D01*
X5324879Y13028824D01*
X5900160Y12453543D01*
X6475441Y13028824D01*
X6300969Y13184639D01*
X5652434Y13215089D01*
X5499351Y13184639D01*
X5324879Y13028824D01*
X-3897840Y13028824D01*
X-3897840Y14310496D01*
X5324879Y14310496D01*
X5499351Y14154681D01*
X6147886Y14124231D01*
X6300969Y14154681D01*
X6475441Y14310496D01*
X5900160Y14885777D01*
X5324879Y14310496D01*
X-3897840Y14310496D01*
X-3897840Y15521934D01*
X4254731Y15521934D01*
X4285181Y15368851D01*
X4440996Y15194379D01*
X5016277Y15769660D01*
X6784043Y15769660D01*
X7359324Y15194379D01*
X7515139Y15368851D01*
X7545589Y16017386D01*
X7515139Y16170469D01*
X7359324Y16344941D01*
X6784043Y15769660D01*
X5016277Y15769660D01*
X4440996Y16344941D01*
X4285181Y16170469D01*
X4254731Y15521934D01*
X-3897840Y15521934D01*
X-3897840Y17228824D01*
X5324879Y17228824D01*
X5900160Y16653543D01*
X6475441Y17228824D01*
X6300969Y17384639D01*
X5652434Y17415089D01*
X5499351Y17384639D01*
X5324879Y17228824D01*
X-3897840Y17228824D01*
X-3897840Y18510496D01*
X5324879Y18510496D01*
X5499351Y18354681D01*
X6147886Y18324231D01*
X6300969Y18354681D01*
X6475441Y18510496D01*
X5900160Y19085777D01*
X5324879Y18510496D01*
X-3897840Y18510496D01*
X-3897840Y19721934D01*
X4254731Y19721934D01*
X4285181Y19568851D01*
X4440996Y19394379D01*
X5016277Y19969660D01*
X6784043Y19969660D01*
X7359324Y19394379D01*
X7515139Y19568851D01*
X7545589Y20217386D01*
X7515139Y20370469D01*
X7468598Y20422583D01*
X7823160Y20422583D01*
X7823160Y19516737D01*
X8169813Y18679843D01*
X8810343Y18039313D01*
X9219921Y17869660D01*
X8810343Y17700007D01*
X8169813Y17059477D01*
X7823160Y16222583D01*
X7823160Y15316737D01*
X8169813Y14479843D01*
X8810343Y13839313D01*
X9219921Y13669660D01*
X8810343Y13500007D01*
X8169813Y12859477D01*
X7823160Y12022583D01*
X7823160Y11116737D01*
X8169813Y10279843D01*
X8810343Y9639313D01*
X9647237Y9292660D01*
X10553083Y9292660D01*
X11389977Y9639313D01*
X12030507Y10279843D01*
X12377160Y11116737D01*
X12377160Y12022583D01*
X12030507Y12859477D01*
X11389977Y13500007D01*
X10980399Y13669660D01*
X11389977Y13839313D01*
X12030507Y14479843D01*
X12377160Y15316737D01*
X12377160Y16222583D01*
X12030507Y17059477D01*
X11389977Y17700007D01*
X10980399Y17869660D01*
X11389977Y18039313D01*
X12030507Y18679843D01*
X12377160Y19516737D01*
X12377160Y20422583D01*
X23623160Y20422583D01*
X23623160Y19516737D01*
X23969813Y18679843D01*
X24610343Y18039313D01*
X25019921Y17869660D01*
X24610343Y17700007D01*
X23969813Y17059477D01*
X23623160Y16222583D01*
X23623160Y15316737D01*
X23969813Y14479843D01*
X24610343Y13839313D01*
X25019921Y13669660D01*
X24610343Y13500007D01*
X23969813Y12859477D01*
X23623160Y12022583D01*
X23623160Y11116737D01*
X23969813Y10279843D01*
X24610343Y9639313D01*
X25447237Y9292660D01*
X26353083Y9292660D01*
X27189977Y9639313D01*
X27661160Y10110496D01*
X29524879Y10110496D01*
X29699351Y9954681D01*
X30347886Y9924231D01*
X30500969Y9954681D01*
X30675441Y10110496D01*
X30100160Y10685777D01*
X29524879Y10110496D01*
X27661160Y10110496D01*
X27830507Y10279843D01*
X28177160Y11116737D01*
X28177160Y11321934D01*
X28454731Y11321934D01*
X28485181Y11168851D01*
X28640996Y10994379D01*
X29216277Y11569660D01*
X30984043Y11569660D01*
X31559324Y10994379D01*
X31715139Y11168851D01*
X31745589Y11817386D01*
X31715139Y11970469D01*
X31559324Y12144941D01*
X30984043Y11569660D01*
X29216277Y11569660D01*
X28640996Y12144941D01*
X28485181Y11970469D01*
X28454731Y11321934D01*
X28177160Y11321934D01*
X28177160Y12022583D01*
X27830507Y12859477D01*
X27661160Y13028824D01*
X29524879Y13028824D01*
X30100160Y12453543D01*
X30675441Y13028824D01*
X30500969Y13184639D01*
X29852434Y13215089D01*
X29699351Y13184639D01*
X29524879Y13028824D01*
X27661160Y13028824D01*
X27189977Y13500007D01*
X26780399Y13669660D01*
X26928682Y13731081D01*
X67702281Y13731081D01*
X68856085Y13377695D01*
X71144235Y13377695D01*
X72298039Y13731081D01*
X107702281Y13731081D01*
X108856085Y13377695D01*
X111144235Y13377695D01*
X112298039Y13731081D01*
X110000160Y16028959D01*
X107702281Y13731081D01*
X72298039Y13731081D01*
X70000160Y16028959D01*
X67702281Y13731081D01*
X26928682Y13731081D01*
X27189977Y13839313D01*
X27661160Y14310496D01*
X29524879Y14310496D01*
X29699351Y14154681D01*
X30347886Y14124231D01*
X30500969Y14154681D01*
X30675441Y14310496D01*
X30100160Y14885777D01*
X29524879Y14310496D01*
X27661160Y14310496D01*
X27830507Y14479843D01*
X28177160Y15316737D01*
X28177160Y15521934D01*
X28454731Y15521934D01*
X28485181Y15368851D01*
X28640996Y15194379D01*
X29216277Y15769660D01*
X30984043Y15769660D01*
X31559324Y15194379D01*
X31715139Y15368851D01*
X31745589Y16017386D01*
X31715139Y16170469D01*
X31559324Y16344941D01*
X30984043Y15769660D01*
X29216277Y15769660D01*
X28640996Y16344941D01*
X28485181Y16170469D01*
X28454731Y15521934D01*
X28177160Y15521934D01*
X28177160Y16222583D01*
X27830507Y17059477D01*
X27661160Y17228824D01*
X29524879Y17228824D01*
X30100160Y16653543D01*
X30675441Y17228824D01*
X30500969Y17384639D01*
X29852434Y17415089D01*
X29699351Y17384639D01*
X29524879Y17228824D01*
X27661160Y17228824D01*
X27189977Y17700007D01*
X26780399Y17869660D01*
X27189977Y18039313D01*
X27661160Y18510496D01*
X29524879Y18510496D01*
X29699351Y18354681D01*
X30347886Y18324231D01*
X30500969Y18354681D01*
X30675441Y18510496D01*
X30100160Y19085777D01*
X29524879Y18510496D01*
X27661160Y18510496D01*
X27830507Y18679843D01*
X28177160Y19516737D01*
X28177160Y19721934D01*
X28454731Y19721934D01*
X28485181Y19568851D01*
X28640996Y19394379D01*
X29216277Y19969660D01*
X30984043Y19969660D01*
X31559324Y19394379D01*
X31715139Y19568851D01*
X31745589Y20217386D01*
X31715139Y20370469D01*
X31559324Y20544941D01*
X30984043Y19969660D01*
X29216277Y19969660D01*
X28640996Y20544941D01*
X28485181Y20370469D01*
X28454731Y19721934D01*
X28177160Y19721934D01*
X28177160Y20422583D01*
X27830507Y21259477D01*
X27661160Y21428824D01*
X29524879Y21428824D01*
X30100160Y20853543D01*
X30675441Y21428824D01*
X30500969Y21584639D01*
X29852434Y21615089D01*
X29699351Y21584639D01*
X29524879Y21428824D01*
X27661160Y21428824D01*
X27189977Y21900007D01*
X26353083Y22246660D01*
X25447237Y22246660D01*
X24610343Y21900007D01*
X23969813Y21259477D01*
X23623160Y20422583D01*
X12377160Y20422583D01*
X12030507Y21259477D01*
X11389977Y21900007D01*
X10553083Y22246660D01*
X9647237Y22246660D01*
X8810343Y21900007D01*
X8169813Y21259477D01*
X7823160Y20422583D01*
X7468598Y20422583D01*
X7359324Y20544941D01*
X6784043Y19969660D01*
X5016277Y19969660D01*
X4440996Y20544941D01*
X4285181Y20370469D01*
X4254731Y19721934D01*
X-3897840Y19721934D01*
X-3897840Y21428824D01*
X5324879Y21428824D01*
X5900160Y20853543D01*
X6475441Y21428824D01*
X6300969Y21584639D01*
X5652434Y21615089D01*
X5499351Y21584639D01*
X5324879Y21428824D01*
X-3897840Y21428824D01*
X-3897840Y25271768D01*
X2873160Y25271768D01*
X2873160Y24067552D01*
X3333994Y22955002D01*
X4185502Y22103494D01*
X5298052Y21642660D01*
X6502268Y21642660D01*
X7614818Y22103494D01*
X8466326Y22955002D01*
X8927160Y24067552D01*
X8927160Y25271768D01*
X27073160Y25271768D01*
X27073160Y24067552D01*
X27533994Y22955002D01*
X28385502Y22103494D01*
X29498052Y21642660D01*
X30702268Y21642660D01*
X31814818Y22103494D01*
X32187659Y22476335D01*
X62045595Y22476335D01*
X62045595Y20188185D01*
X62398981Y19034381D01*
X64696859Y21332260D01*
X75303461Y21332260D01*
X77601339Y19034381D01*
X77954725Y20188185D01*
X77954725Y22476335D01*
X102045595Y22476335D01*
X102045595Y20188185D01*
X102398981Y19034381D01*
X104696859Y21332260D01*
X115303461Y21332260D01*
X117601339Y19034381D01*
X117954725Y20188185D01*
X117954725Y22476335D01*
X117601339Y23630139D01*
X115303461Y21332260D01*
X104696859Y21332260D01*
X102398981Y23630139D01*
X102045595Y22476335D01*
X77954725Y22476335D01*
X77601339Y23630139D01*
X75303461Y21332260D01*
X64696859Y21332260D01*
X62398981Y23630139D01*
X62045595Y22476335D01*
X32187659Y22476335D01*
X32666326Y22955002D01*
X33127160Y24067552D01*
X33127160Y25271768D01*
X32666326Y26384318D01*
X31814818Y27235826D01*
X30702268Y27696660D01*
X29498052Y27696660D01*
X28385502Y27235826D01*
X27533994Y26384318D01*
X27073160Y25271768D01*
X8927160Y25271768D01*
X8466326Y26384318D01*
X7614818Y27235826D01*
X6502268Y27696660D01*
X5298052Y27696660D01*
X4185502Y27235826D01*
X3333994Y26384318D01*
X2873160Y25271768D01*
X-3897840Y25271768D01*
X-3897840Y28933439D01*
X67702281Y28933439D01*
X70000160Y26635561D01*
X72298039Y28933439D01*
X107702281Y28933439D01*
X110000160Y26635561D01*
X112298039Y28933439D01*
X111144235Y29286825D01*
X108856085Y29286825D01*
X107702281Y28933439D01*
X72298039Y28933439D01*
X71144235Y29286825D01*
X68856085Y29286825D01*
X67702281Y28933439D01*
X-3897840Y28933439D01*
X-3897840Y36304368D01*
X2873160Y36304368D01*
X2873160Y35100152D01*
X3333994Y33987602D01*
X4185502Y33136094D01*
X5298052Y32675260D01*
X6502268Y32675260D01*
X7614818Y33136094D01*
X8466326Y33987602D01*
X8927160Y35100152D01*
X8927160Y36304368D01*
X27073160Y36304368D01*
X27073160Y35100152D01*
X27533994Y33987602D01*
X28385502Y33136094D01*
X29498052Y32675260D01*
X30702268Y32675260D01*
X31814818Y33136094D01*
X32666326Y33987602D01*
X33127160Y35100152D01*
X33127160Y36304368D01*
X32666326Y37416918D01*
X31814818Y38268426D01*
X30702268Y38729260D01*
X29498052Y38729260D01*
X28385502Y38268426D01*
X27533994Y37416918D01*
X27073160Y36304368D01*
X8927160Y36304368D01*
X8466326Y37416918D01*
X7614818Y38268426D01*
X6502268Y38729260D01*
X5298052Y38729260D01*
X4185502Y38268426D01*
X3333994Y37416918D01*
X2873160Y36304368D01*
X-3897840Y36304368D01*
X-3897840Y38943096D01*
X5324879Y38943096D01*
X5499351Y38787281D01*
X6147886Y38756831D01*
X6300969Y38787281D01*
X6475441Y38943096D01*
X5900160Y39518377D01*
X5324879Y38943096D01*
X-3897840Y38943096D01*
X-3897840Y40154534D01*
X4254731Y40154534D01*
X4285181Y40001451D01*
X4440996Y39826979D01*
X5016277Y40402260D01*
X6784043Y40402260D01*
X7359324Y39826979D01*
X7515139Y40001451D01*
X7545589Y40649986D01*
X7515139Y40803069D01*
X7359324Y40977541D01*
X6784043Y40402260D01*
X5016277Y40402260D01*
X4440996Y40977541D01*
X4285181Y40803069D01*
X4254731Y40154534D01*
X-3897840Y40154534D01*
X-3897840Y41861424D01*
X5324879Y41861424D01*
X5900160Y41286143D01*
X6475441Y41861424D01*
X6300969Y42017239D01*
X5652434Y42047689D01*
X5499351Y42017239D01*
X5324879Y41861424D01*
X-3897840Y41861424D01*
X-3897840Y43143096D01*
X5324879Y43143096D01*
X5499351Y42987281D01*
X6147886Y42956831D01*
X6300969Y42987281D01*
X6475441Y43143096D01*
X5900160Y43718377D01*
X5324879Y43143096D01*
X-3897840Y43143096D01*
X-3897840Y44354534D01*
X4254731Y44354534D01*
X4285181Y44201451D01*
X4440996Y44026979D01*
X5016277Y44602260D01*
X6784043Y44602260D01*
X7359324Y44026979D01*
X7515139Y44201451D01*
X7545589Y44849986D01*
X7515139Y45003069D01*
X7359324Y45177541D01*
X6784043Y44602260D01*
X5016277Y44602260D01*
X4440996Y45177541D01*
X4285181Y45003069D01*
X4254731Y44354534D01*
X-3897840Y44354534D01*
X-3897840Y46061424D01*
X5324879Y46061424D01*
X5900160Y45486143D01*
X6475441Y46061424D01*
X6300969Y46217239D01*
X5652434Y46247689D01*
X5499351Y46217239D01*
X5324879Y46061424D01*
X-3897840Y46061424D01*
X-3897840Y47343096D01*
X5324879Y47343096D01*
X5499351Y47187281D01*
X6147886Y47156831D01*
X6300969Y47187281D01*
X6475441Y47343096D01*
X5900160Y47918377D01*
X5324879Y47343096D01*
X-3897840Y47343096D01*
X-3897840Y48554534D01*
X4254731Y48554534D01*
X4285181Y48401451D01*
X4440996Y48226979D01*
X5016277Y48802260D01*
X6784043Y48802260D01*
X7359324Y48226979D01*
X7515139Y48401451D01*
X7545589Y49049986D01*
X7515139Y49203069D01*
X7468598Y49255183D01*
X7823160Y49255183D01*
X7823160Y48349337D01*
X8169813Y47512443D01*
X8810343Y46871913D01*
X9219921Y46702260D01*
X8810343Y46532607D01*
X8169813Y45892077D01*
X7823160Y45055183D01*
X7823160Y44149337D01*
X8169813Y43312443D01*
X8810343Y42671913D01*
X9219921Y42502260D01*
X8810343Y42332607D01*
X8169813Y41692077D01*
X7823160Y40855183D01*
X7823160Y39949337D01*
X8169813Y39112443D01*
X8810343Y38471913D01*
X9647237Y38125260D01*
X10553083Y38125260D01*
X11389977Y38471913D01*
X12030507Y39112443D01*
X12377160Y39949337D01*
X12377160Y40855183D01*
X12030507Y41692077D01*
X11389977Y42332607D01*
X10980399Y42502260D01*
X11389977Y42671913D01*
X12030507Y43312443D01*
X12377160Y44149337D01*
X12377160Y45055183D01*
X12030507Y45892077D01*
X11389977Y46532607D01*
X10980399Y46702260D01*
X11389977Y46871913D01*
X12030507Y47512443D01*
X12377160Y48349337D01*
X12377160Y49255183D01*
X23623160Y49255183D01*
X23623160Y48349337D01*
X23969813Y47512443D01*
X24610343Y46871913D01*
X25019921Y46702260D01*
X24610343Y46532607D01*
X23969813Y45892077D01*
X23623160Y45055183D01*
X23623160Y44149337D01*
X23969813Y43312443D01*
X24610343Y42671913D01*
X25019921Y42502260D01*
X24610343Y42332607D01*
X23969813Y41692077D01*
X23623160Y40855183D01*
X23623160Y39949337D01*
X23969813Y39112443D01*
X24610343Y38471913D01*
X25447237Y38125260D01*
X26353083Y38125260D01*
X27189977Y38471913D01*
X27661160Y38943096D01*
X29524879Y38943096D01*
X29699351Y38787281D01*
X30347886Y38756831D01*
X30500969Y38787281D01*
X30675441Y38943096D01*
X30100160Y39518377D01*
X29524879Y38943096D01*
X27661160Y38943096D01*
X27830507Y39112443D01*
X28177160Y39949337D01*
X28177160Y40154534D01*
X28454731Y40154534D01*
X28485181Y40001451D01*
X28640996Y39826979D01*
X29216277Y40402260D01*
X30984043Y40402260D01*
X31559324Y39826979D01*
X31715139Y40001451D01*
X31745589Y40649986D01*
X31715139Y40803069D01*
X31559324Y40977541D01*
X30984043Y40402260D01*
X29216277Y40402260D01*
X28640996Y40977541D01*
X28485181Y40803069D01*
X28454731Y40154534D01*
X28177160Y40154534D01*
X28177160Y40855183D01*
X27830507Y41692077D01*
X27661160Y41861424D01*
X29524879Y41861424D01*
X30100160Y41286143D01*
X30675441Y41861424D01*
X30500969Y42017239D01*
X29852434Y42047689D01*
X29699351Y42017239D01*
X29524879Y41861424D01*
X27661160Y41861424D01*
X27189977Y42332607D01*
X26780399Y42502260D01*
X27189977Y42671913D01*
X27661160Y43143096D01*
X29524879Y43143096D01*
X29699351Y42987281D01*
X30347886Y42956831D01*
X30500969Y42987281D01*
X30675441Y43143096D01*
X30100160Y43718377D01*
X29524879Y43143096D01*
X27661160Y43143096D01*
X27830507Y43312443D01*
X28177160Y44149337D01*
X28177160Y44354534D01*
X28454731Y44354534D01*
X28485181Y44201451D01*
X28640996Y44026979D01*
X29216277Y44602260D01*
X30984043Y44602260D01*
X31559324Y44026979D01*
X31715139Y44201451D01*
X31745589Y44849986D01*
X31715139Y45003069D01*
X31559324Y45177541D01*
X30984043Y44602260D01*
X29216277Y44602260D01*
X28640996Y45177541D01*
X28485181Y45003069D01*
X28454731Y44354534D01*
X28177160Y44354534D01*
X28177160Y45055183D01*
X27830507Y45892077D01*
X27661160Y46061424D01*
X29524879Y46061424D01*
X30100160Y45486143D01*
X30675441Y46061424D01*
X30500969Y46217239D01*
X29852434Y46247689D01*
X29699351Y46217239D01*
X29524879Y46061424D01*
X27661160Y46061424D01*
X27189977Y46532607D01*
X26780399Y46702260D01*
X27189977Y46871913D01*
X27661160Y47343096D01*
X29524879Y47343096D01*
X29699351Y47187281D01*
X30347886Y47156831D01*
X30500969Y47187281D01*
X30675441Y47343096D01*
X30100160Y47918377D01*
X29524879Y47343096D01*
X27661160Y47343096D01*
X27830507Y47512443D01*
X28177160Y48349337D01*
X28177160Y48554534D01*
X28454731Y48554534D01*
X28485181Y48401451D01*
X28640996Y48226979D01*
X29216277Y48802260D01*
X30984043Y48802260D01*
X31559324Y48226979D01*
X31715139Y48401451D01*
X31745589Y49049986D01*
X31715139Y49203069D01*
X31559324Y49377541D01*
X30984043Y48802260D01*
X29216277Y48802260D01*
X28640996Y49377541D01*
X28485181Y49203069D01*
X28454731Y48554534D01*
X28177160Y48554534D01*
X28177160Y49255183D01*
X27830507Y50092077D01*
X27661160Y50261424D01*
X29524879Y50261424D01*
X30100160Y49686143D01*
X30675441Y50261424D01*
X30500969Y50417239D01*
X29852434Y50447689D01*
X29699351Y50417239D01*
X29524879Y50261424D01*
X27661160Y50261424D01*
X27189977Y50732607D01*
X26353083Y51079260D01*
X25447237Y51079260D01*
X24610343Y50732607D01*
X23969813Y50092077D01*
X23623160Y49255183D01*
X12377160Y49255183D01*
X12030507Y50092077D01*
X11389977Y50732607D01*
X10553083Y51079260D01*
X9647237Y51079260D01*
X8810343Y50732607D01*
X8169813Y50092077D01*
X7823160Y49255183D01*
X7468598Y49255183D01*
X7359324Y49377541D01*
X6784043Y48802260D01*
X5016277Y48802260D01*
X4440996Y49377541D01*
X4285181Y49203069D01*
X4254731Y48554534D01*
X-3897840Y48554534D01*
X-3897840Y50261424D01*
X5324879Y50261424D01*
X5900160Y49686143D01*
X6475441Y50261424D01*
X6300969Y50417239D01*
X5652434Y50447689D01*
X5499351Y50417239D01*
X5324879Y50261424D01*
X-3897840Y50261424D01*
X-3897840Y54104368D01*
X2873160Y54104368D01*
X2873160Y52900152D01*
X3333994Y51787602D01*
X4185502Y50936094D01*
X5298052Y50475260D01*
X6502268Y50475260D01*
X7614818Y50936094D01*
X8466326Y51787602D01*
X8927160Y52900152D01*
X8927160Y54104368D01*
X27073160Y54104368D01*
X27073160Y52900152D01*
X27533994Y51787602D01*
X28385502Y50936094D01*
X29498052Y50475260D01*
X30702268Y50475260D01*
X31814818Y50936094D01*
X32666326Y51787602D01*
X33127160Y52900152D01*
X33127160Y54104368D01*
X32960338Y54507112D01*
X36813940Y54507112D01*
X36813940Y53501808D01*
X37198653Y52573029D01*
X37909509Y51862173D01*
X38838288Y51477460D01*
X39843592Y51477460D01*
X40772371Y51862173D01*
X41176415Y52266217D01*
X43673160Y52266217D01*
X43673160Y51738303D01*
X43875184Y51250575D01*
X43973499Y51152260D01*
X43875184Y51053945D01*
X43673160Y50566217D01*
X43673160Y50038303D01*
X43875184Y49550575D01*
X44248475Y49177284D01*
X44736203Y48975260D01*
X45264117Y48975260D01*
X45751845Y49177284D01*
X46125136Y49550575D01*
X46327160Y50038303D01*
X46327160Y50566217D01*
X46125136Y51053945D01*
X46026821Y51152260D01*
X46125136Y51250575D01*
X46327160Y51738303D01*
X46327160Y52266217D01*
X46673160Y52266217D01*
X46673160Y51738303D01*
X46875184Y51250575D01*
X46973499Y51152260D01*
X46875184Y51053945D01*
X46673160Y50566217D01*
X46673160Y50038303D01*
X46875184Y49550575D01*
X47248475Y49177284D01*
X47736203Y48975260D01*
X48264117Y48975260D01*
X48751845Y49177284D01*
X49125136Y49550575D01*
X49327160Y50038303D01*
X49327160Y50566217D01*
X49125136Y51053945D01*
X49026821Y51152260D01*
X49125136Y51250575D01*
X49327160Y51738303D01*
X49327160Y52266217D01*
X49673160Y52266217D01*
X49673160Y51738303D01*
X49875184Y51250575D01*
X49973499Y51152260D01*
X49875184Y51053945D01*
X49673160Y50566217D01*
X49673160Y50038303D01*
X49875184Y49550575D01*
X50248475Y49177284D01*
X50736203Y48975260D01*
X51264117Y48975260D01*
X51751845Y49177284D01*
X52125136Y49550575D01*
X52327160Y50038303D01*
X52327160Y50566217D01*
X52125136Y51053945D01*
X52026821Y51152260D01*
X52125136Y51250575D01*
X52327160Y51738303D01*
X52327160Y52266217D01*
X52673160Y52266217D01*
X52673160Y51738303D01*
X52875184Y51250575D01*
X52973499Y51152260D01*
X52875184Y51053945D01*
X52673160Y50566217D01*
X52673160Y50038303D01*
X52875184Y49550575D01*
X53248475Y49177284D01*
X53736203Y48975260D01*
X54264117Y48975260D01*
X54751845Y49177284D01*
X55125136Y49550575D01*
X55327160Y50038303D01*
X55327160Y50566217D01*
X55125136Y51053945D01*
X55026821Y51152260D01*
X55125136Y51250575D01*
X55327160Y51738303D01*
X55327160Y52266217D01*
X55673160Y52266217D01*
X55673160Y51738303D01*
X55875184Y51250575D01*
X55973499Y51152260D01*
X55875184Y51053945D01*
X55673160Y50566217D01*
X55673160Y50038303D01*
X55875184Y49550575D01*
X56248475Y49177284D01*
X56736203Y48975260D01*
X57264117Y48975260D01*
X57751845Y49177284D01*
X58125136Y49550575D01*
X58327160Y50038303D01*
X58327160Y50566217D01*
X58125136Y51053945D01*
X58026821Y51152260D01*
X58125136Y51250575D01*
X58327160Y51738303D01*
X58327160Y52266217D01*
X58673160Y52266217D01*
X58673160Y51738303D01*
X58875184Y51250575D01*
X58973499Y51152260D01*
X58875184Y51053945D01*
X58673160Y50566217D01*
X58673160Y50038303D01*
X58875184Y49550575D01*
X59248475Y49177284D01*
X59736203Y48975260D01*
X60264117Y48975260D01*
X60751845Y49177284D01*
X61125136Y49550575D01*
X61327160Y50038303D01*
X61327160Y50566217D01*
X61125136Y51053945D01*
X61026821Y51152260D01*
X61125136Y51250575D01*
X61327160Y51738303D01*
X61327160Y52266217D01*
X61673160Y52266217D01*
X61673160Y51738303D01*
X61875184Y51250575D01*
X61973499Y51152260D01*
X61875184Y51053945D01*
X61673160Y50566217D01*
X61673160Y50038303D01*
X61875184Y49550575D01*
X62248475Y49177284D01*
X62736203Y48975260D01*
X63264117Y48975260D01*
X63751845Y49177284D01*
X64125136Y49550575D01*
X64327160Y50038303D01*
X64327160Y50566217D01*
X64125136Y51053945D01*
X64026821Y51152260D01*
X64125136Y51250575D01*
X64327160Y51738303D01*
X64327160Y52266217D01*
X64673160Y52266217D01*
X64673160Y51738303D01*
X64875184Y51250575D01*
X64973499Y51152260D01*
X64875184Y51053945D01*
X64673160Y50566217D01*
X64673160Y50038303D01*
X64875184Y49550575D01*
X65248475Y49177284D01*
X65736203Y48975260D01*
X66264117Y48975260D01*
X66751845Y49177284D01*
X67125136Y49550575D01*
X67327160Y50038303D01*
X67327160Y50566217D01*
X67125136Y51053945D01*
X67026821Y51152260D01*
X67125136Y51250575D01*
X67327160Y51738303D01*
X67327160Y52266217D01*
X67673160Y52266217D01*
X67673160Y51738303D01*
X67875184Y51250575D01*
X67973499Y51152260D01*
X67875184Y51053945D01*
X67673160Y50566217D01*
X67673160Y50038303D01*
X67875184Y49550575D01*
X68248475Y49177284D01*
X68736203Y48975260D01*
X69264117Y48975260D01*
X69751845Y49177284D01*
X70125136Y49550575D01*
X70327160Y50038303D01*
X70327160Y50566217D01*
X70125136Y51053945D01*
X70026821Y51152260D01*
X70125136Y51250575D01*
X70327160Y51738303D01*
X70327160Y52266217D01*
X70673160Y52266217D01*
X70673160Y51738303D01*
X70875184Y51250575D01*
X70973499Y51152260D01*
X70875184Y51053945D01*
X70673160Y50566217D01*
X70673160Y50038303D01*
X70875184Y49550575D01*
X71248475Y49177284D01*
X71736203Y48975260D01*
X72264117Y48975260D01*
X72751845Y49177284D01*
X73125136Y49550575D01*
X73327160Y50038303D01*
X73327160Y50566217D01*
X73125136Y51053945D01*
X73026821Y51152260D01*
X73125136Y51250575D01*
X73327160Y51738303D01*
X73327160Y52266217D01*
X73673160Y52266217D01*
X73673160Y51738303D01*
X73875184Y51250575D01*
X73973499Y51152260D01*
X73875184Y51053945D01*
X73673160Y50566217D01*
X73673160Y50038303D01*
X73875184Y49550575D01*
X74248475Y49177284D01*
X74736203Y48975260D01*
X75264117Y48975260D01*
X75751845Y49177284D01*
X76125136Y49550575D01*
X76327160Y50038303D01*
X76327160Y50566217D01*
X76125136Y51053945D01*
X76026821Y51152260D01*
X76125136Y51250575D01*
X76327160Y51738303D01*
X76327160Y52266217D01*
X76673160Y52266217D01*
X76673160Y51738303D01*
X76875184Y51250575D01*
X76973499Y51152260D01*
X76875184Y51053945D01*
X76673160Y50566217D01*
X76673160Y50038303D01*
X76875184Y49550575D01*
X77248475Y49177284D01*
X77736203Y48975260D01*
X78264117Y48975260D01*
X78751845Y49177284D01*
X79125136Y49550575D01*
X79327160Y50038303D01*
X79327160Y50566217D01*
X79125136Y51053945D01*
X79026821Y51152260D01*
X79125136Y51250575D01*
X79327160Y51738303D01*
X79327160Y52266217D01*
X79673160Y52266217D01*
X79673160Y51738303D01*
X79875184Y51250575D01*
X79973499Y51152260D01*
X79875184Y51053945D01*
X79673160Y50566217D01*
X79673160Y50038303D01*
X79875184Y49550575D01*
X80248475Y49177284D01*
X80736203Y48975260D01*
X81264117Y48975260D01*
X81751845Y49177284D01*
X82125136Y49550575D01*
X82327160Y50038303D01*
X82327160Y50566217D01*
X82125136Y51053945D01*
X82026821Y51152260D01*
X82125136Y51250575D01*
X82327160Y51738303D01*
X82327160Y52266217D01*
X82673160Y52266217D01*
X82673160Y51738303D01*
X82875184Y51250575D01*
X82973499Y51152260D01*
X82875184Y51053945D01*
X82673160Y50566217D01*
X82673160Y50038303D01*
X82875184Y49550575D01*
X83248475Y49177284D01*
X83736203Y48975260D01*
X84264117Y48975260D01*
X84751845Y49177284D01*
X85125136Y49550575D01*
X85327160Y50038303D01*
X85327160Y50566217D01*
X85125136Y51053945D01*
X85026821Y51152260D01*
X85125136Y51250575D01*
X85327160Y51738303D01*
X85327160Y52266217D01*
X85673160Y52266217D01*
X85673160Y51738303D01*
X85875184Y51250575D01*
X85973499Y51152260D01*
X85875184Y51053945D01*
X85673160Y50566217D01*
X85673160Y50038303D01*
X85875184Y49550575D01*
X86248475Y49177284D01*
X86736203Y48975260D01*
X87264117Y48975260D01*
X87751845Y49177284D01*
X88125136Y49550575D01*
X88327160Y50038303D01*
X88327160Y50566217D01*
X88125136Y51053945D01*
X88026821Y51152260D01*
X88125136Y51250575D01*
X88327160Y51738303D01*
X88327160Y52266217D01*
X88673160Y52266217D01*
X88673160Y51738303D01*
X88875184Y51250575D01*
X88973499Y51152260D01*
X88875184Y51053945D01*
X88673160Y50566217D01*
X88673160Y50038303D01*
X88875184Y49550575D01*
X89248475Y49177284D01*
X89736203Y48975260D01*
X90264117Y48975260D01*
X90751845Y49177284D01*
X91125136Y49550575D01*
X91327160Y50038303D01*
X91327160Y50566217D01*
X91125136Y51053945D01*
X91026821Y51152260D01*
X91125136Y51250575D01*
X91327160Y51738303D01*
X91327160Y52266217D01*
X91673160Y52266217D01*
X91673160Y51738303D01*
X91875184Y51250575D01*
X91973499Y51152260D01*
X91875184Y51053945D01*
X91673160Y50566217D01*
X91673160Y50038303D01*
X91875184Y49550575D01*
X92248475Y49177284D01*
X92736203Y48975260D01*
X93264117Y48975260D01*
X93751845Y49177284D01*
X94125136Y49550575D01*
X94327160Y50038303D01*
X94327160Y50566217D01*
X94125136Y51053945D01*
X94026821Y51152260D01*
X94125136Y51250575D01*
X94327160Y51738303D01*
X94327160Y52266217D01*
X94673160Y52266217D01*
X94673160Y51738303D01*
X94875184Y51250575D01*
X94973499Y51152260D01*
X94875184Y51053945D01*
X94673160Y50566217D01*
X94673160Y50038303D01*
X94875184Y49550575D01*
X95248475Y49177284D01*
X95736203Y48975260D01*
X96264117Y48975260D01*
X96751845Y49177284D01*
X97125136Y49550575D01*
X97327160Y50038303D01*
X97327160Y50566217D01*
X97125136Y51053945D01*
X97026821Y51152260D01*
X97125136Y51250575D01*
X97327160Y51738303D01*
X97327160Y52266217D01*
X97673160Y52266217D01*
X97673160Y51738303D01*
X97875184Y51250575D01*
X97973499Y51152260D01*
X97875184Y51053945D01*
X97673160Y50566217D01*
X97673160Y50038303D01*
X97875184Y49550575D01*
X98248475Y49177284D01*
X98736203Y48975260D01*
X99264117Y48975260D01*
X99751845Y49177284D01*
X100125136Y49550575D01*
X100327160Y50038303D01*
X100327160Y50566217D01*
X100125136Y51053945D01*
X100026821Y51152260D01*
X100125136Y51250575D01*
X100327160Y51738303D01*
X100327160Y52266217D01*
X100673160Y52266217D01*
X100673160Y51738303D01*
X100875184Y51250575D01*
X100973499Y51152260D01*
X100875184Y51053945D01*
X100673160Y50566217D01*
X100673160Y50038303D01*
X100875184Y49550575D01*
X101248475Y49177284D01*
X101736203Y48975260D01*
X102264117Y48975260D01*
X102751845Y49177284D01*
X103125136Y49550575D01*
X103327160Y50038303D01*
X103327160Y50566217D01*
X103125136Y51053945D01*
X103026821Y51152260D01*
X103125136Y51250575D01*
X103327160Y51738303D01*
X103327160Y52266217D01*
X103673160Y52266217D01*
X103673160Y51738303D01*
X103875184Y51250575D01*
X103973499Y51152260D01*
X103875184Y51053945D01*
X103673160Y50566217D01*
X103673160Y50038303D01*
X103875184Y49550575D01*
X104248475Y49177284D01*
X104736203Y48975260D01*
X105264117Y48975260D01*
X105751845Y49177284D01*
X106125136Y49550575D01*
X106327160Y50038303D01*
X106327160Y50566217D01*
X106125136Y51053945D01*
X106026821Y51152260D01*
X106125136Y51250575D01*
X106327160Y51738303D01*
X106327160Y52266217D01*
X106673160Y52266217D01*
X106673160Y51738303D01*
X106875184Y51250575D01*
X106973499Y51152260D01*
X106875184Y51053945D01*
X106673160Y50566217D01*
X106673160Y50038303D01*
X106875184Y49550575D01*
X107248475Y49177284D01*
X107736203Y48975260D01*
X108264117Y48975260D01*
X108751845Y49177284D01*
X109125136Y49550575D01*
X109327160Y50038303D01*
X109327160Y50566217D01*
X109125136Y51053945D01*
X109026821Y51152260D01*
X109125136Y51250575D01*
X109327160Y51738303D01*
X109327160Y52266217D01*
X109673160Y52266217D01*
X109673160Y51738303D01*
X109875184Y51250575D01*
X109973499Y51152260D01*
X109875184Y51053945D01*
X109673160Y50566217D01*
X109673160Y50038303D01*
X109875184Y49550575D01*
X110248475Y49177284D01*
X110736203Y48975260D01*
X111264117Y48975260D01*
X111751845Y49177284D01*
X112125136Y49550575D01*
X112327160Y50038303D01*
X112327160Y50566217D01*
X112125136Y51053945D01*
X112026821Y51152260D01*
X112125136Y51250575D01*
X112327160Y51738303D01*
X112327160Y52266217D01*
X112673160Y52266217D01*
X112673160Y51738303D01*
X112875184Y51250575D01*
X112973499Y51152260D01*
X112875184Y51053945D01*
X112673160Y50566217D01*
X112673160Y50038303D01*
X112875184Y49550575D01*
X113248475Y49177284D01*
X113736203Y48975260D01*
X114264117Y48975260D01*
X114751845Y49177284D01*
X115125136Y49550575D01*
X115327160Y50038303D01*
X115327160Y50566217D01*
X115125136Y51053945D01*
X115026821Y51152260D01*
X115125136Y51250575D01*
X115327160Y51738303D01*
X115327160Y52266217D01*
X115673160Y52266217D01*
X115673160Y51738303D01*
X115875184Y51250575D01*
X115973499Y51152260D01*
X115875184Y51053945D01*
X115673160Y50566217D01*
X115673160Y50038303D01*
X115875184Y49550575D01*
X116248475Y49177284D01*
X116736203Y48975260D01*
X117264117Y48975260D01*
X117751845Y49177284D01*
X118125136Y49550575D01*
X118327160Y50038303D01*
X118327160Y50566217D01*
X118125136Y51053945D01*
X118026821Y51152260D01*
X118125136Y51250575D01*
X118327160Y51738303D01*
X118327160Y52266217D01*
X118673160Y52266217D01*
X118673160Y51738303D01*
X118875184Y51250575D01*
X118973499Y51152260D01*
X118875184Y51053945D01*
X118673160Y50566217D01*
X118673160Y50038303D01*
X118875184Y49550575D01*
X119248475Y49177284D01*
X119736203Y48975260D01*
X120264117Y48975260D01*
X120751845Y49177284D01*
X121125136Y49550575D01*
X121327160Y50038303D01*
X121327160Y50566217D01*
X121125136Y51053945D01*
X121026821Y51152260D01*
X121125136Y51250575D01*
X121327160Y51738303D01*
X121327160Y52266217D01*
X121673160Y52266217D01*
X121673160Y51738303D01*
X121875184Y51250575D01*
X121973499Y51152260D01*
X121875184Y51053945D01*
X121673160Y50566217D01*
X121673160Y50038303D01*
X121875184Y49550575D01*
X122248475Y49177284D01*
X122736203Y48975260D01*
X123264117Y48975260D01*
X123751845Y49177284D01*
X124125136Y49550575D01*
X124327160Y50038303D01*
X124327160Y50566217D01*
X124125136Y51053945D01*
X124026821Y51152260D01*
X124125136Y51250575D01*
X124327160Y51738303D01*
X124327160Y52266217D01*
X124673160Y52266217D01*
X124673160Y51738303D01*
X124875184Y51250575D01*
X124973499Y51152260D01*
X124875184Y51053945D01*
X124673160Y50566217D01*
X124673160Y50038303D01*
X124875184Y49550575D01*
X125248475Y49177284D01*
X125736203Y48975260D01*
X126264117Y48975260D01*
X126751845Y49177284D01*
X127125136Y49550575D01*
X127327160Y50038303D01*
X127327160Y50566217D01*
X127125136Y51053945D01*
X127026821Y51152260D01*
X127125136Y51250575D01*
X127327160Y51738303D01*
X127327160Y52266217D01*
X127673160Y52266217D01*
X127673160Y51738303D01*
X127875184Y51250575D01*
X127973499Y51152260D01*
X127875184Y51053945D01*
X127673160Y50566217D01*
X127673160Y50038303D01*
X127875184Y49550575D01*
X128248475Y49177284D01*
X128736203Y48975260D01*
X129264117Y48975260D01*
X129751845Y49177284D01*
X130125136Y49550575D01*
X130327160Y50038303D01*
X130327160Y50566217D01*
X130125136Y51053945D01*
X130026821Y51152260D01*
X130125136Y51250575D01*
X130327160Y51738303D01*
X130327160Y52266217D01*
X130673160Y52266217D01*
X130673160Y51738303D01*
X130875184Y51250575D01*
X130973499Y51152260D01*
X130875184Y51053945D01*
X130673160Y50566217D01*
X130673160Y50038303D01*
X130875184Y49550575D01*
X131248475Y49177284D01*
X131736203Y48975260D01*
X132264117Y48975260D01*
X132751845Y49177284D01*
X133125136Y49550575D01*
X133327160Y50038303D01*
X133327160Y50566217D01*
X133125136Y51053945D01*
X133026821Y51152260D01*
X133125136Y51250575D01*
X133327160Y51738303D01*
X133327160Y52266217D01*
X133125136Y52753945D01*
X132751845Y53127236D01*
X132264117Y53329260D01*
X131736203Y53329260D01*
X131248475Y53127236D01*
X130875184Y52753945D01*
X130673160Y52266217D01*
X130327160Y52266217D01*
X130125136Y52753945D01*
X129751845Y53127236D01*
X129264117Y53329260D01*
X128736203Y53329260D01*
X128248475Y53127236D01*
X127875184Y52753945D01*
X127673160Y52266217D01*
X127327160Y52266217D01*
X127125136Y52753945D01*
X126751845Y53127236D01*
X126264117Y53329260D01*
X125736203Y53329260D01*
X125248475Y53127236D01*
X124875184Y52753945D01*
X124673160Y52266217D01*
X124327160Y52266217D01*
X124125136Y52753945D01*
X123751845Y53127236D01*
X123264117Y53329260D01*
X122736203Y53329260D01*
X122248475Y53127236D01*
X121875184Y52753945D01*
X121673160Y52266217D01*
X121327160Y52266217D01*
X121125136Y52753945D01*
X120751845Y53127236D01*
X120264117Y53329260D01*
X119736203Y53329260D01*
X119248475Y53127236D01*
X118875184Y52753945D01*
X118673160Y52266217D01*
X118327160Y52266217D01*
X118125136Y52753945D01*
X117751845Y53127236D01*
X117264117Y53329260D01*
X116736203Y53329260D01*
X116248475Y53127236D01*
X115875184Y52753945D01*
X115673160Y52266217D01*
X115327160Y52266217D01*
X115125136Y52753945D01*
X114751845Y53127236D01*
X114264117Y53329260D01*
X113736203Y53329260D01*
X113248475Y53127236D01*
X112875184Y52753945D01*
X112673160Y52266217D01*
X112327160Y52266217D01*
X112125136Y52753945D01*
X111751845Y53127236D01*
X111264117Y53329260D01*
X110736203Y53329260D01*
X110248475Y53127236D01*
X109875184Y52753945D01*
X109673160Y52266217D01*
X109327160Y52266217D01*
X109125136Y52753945D01*
X108751845Y53127236D01*
X108264117Y53329260D01*
X107736203Y53329260D01*
X107248475Y53127236D01*
X106875184Y52753945D01*
X106673160Y52266217D01*
X106327160Y52266217D01*
X106125136Y52753945D01*
X105751845Y53127236D01*
X105264117Y53329260D01*
X104736203Y53329260D01*
X104248475Y53127236D01*
X103875184Y52753945D01*
X103673160Y52266217D01*
X103327160Y52266217D01*
X103125136Y52753945D01*
X102751845Y53127236D01*
X102264117Y53329260D01*
X101736203Y53329260D01*
X101248475Y53127236D01*
X100875184Y52753945D01*
X100673160Y52266217D01*
X100327160Y52266217D01*
X100125136Y52753945D01*
X99751845Y53127236D01*
X99264117Y53329260D01*
X98736203Y53329260D01*
X98248475Y53127236D01*
X97875184Y52753945D01*
X97673160Y52266217D01*
X97327160Y52266217D01*
X97125136Y52753945D01*
X96751845Y53127236D01*
X96264117Y53329260D01*
X95736203Y53329260D01*
X95248475Y53127236D01*
X94875184Y52753945D01*
X94673160Y52266217D01*
X94327160Y52266217D01*
X94125136Y52753945D01*
X93751845Y53127236D01*
X93264117Y53329260D01*
X92736203Y53329260D01*
X92248475Y53127236D01*
X91875184Y52753945D01*
X91673160Y52266217D01*
X91327160Y52266217D01*
X91125136Y52753945D01*
X90751845Y53127236D01*
X90264117Y53329260D01*
X89736203Y53329260D01*
X89248475Y53127236D01*
X88875184Y52753945D01*
X88673160Y52266217D01*
X88327160Y52266217D01*
X88125136Y52753945D01*
X87751845Y53127236D01*
X87264117Y53329260D01*
X86736203Y53329260D01*
X86248475Y53127236D01*
X85875184Y52753945D01*
X85673160Y52266217D01*
X85327160Y52266217D01*
X85125136Y52753945D01*
X84751845Y53127236D01*
X84264117Y53329260D01*
X83736203Y53329260D01*
X83248475Y53127236D01*
X82875184Y52753945D01*
X82673160Y52266217D01*
X82327160Y52266217D01*
X82125136Y52753945D01*
X81751845Y53127236D01*
X81264117Y53329260D01*
X80736203Y53329260D01*
X80248475Y53127236D01*
X79875184Y52753945D01*
X79673160Y52266217D01*
X79327160Y52266217D01*
X79125136Y52753945D01*
X78751845Y53127236D01*
X78264117Y53329260D01*
X77736203Y53329260D01*
X77248475Y53127236D01*
X76875184Y52753945D01*
X76673160Y52266217D01*
X76327160Y52266217D01*
X76125136Y52753945D01*
X75751845Y53127236D01*
X75264117Y53329260D01*
X74736203Y53329260D01*
X74248475Y53127236D01*
X73875184Y52753945D01*
X73673160Y52266217D01*
X73327160Y52266217D01*
X73125136Y52753945D01*
X72751845Y53127236D01*
X72264117Y53329260D01*
X71736203Y53329260D01*
X71248475Y53127236D01*
X70875184Y52753945D01*
X70673160Y52266217D01*
X70327160Y52266217D01*
X70125136Y52753945D01*
X69751845Y53127236D01*
X69264117Y53329260D01*
X68736203Y53329260D01*
X68248475Y53127236D01*
X67875184Y52753945D01*
X67673160Y52266217D01*
X67327160Y52266217D01*
X67125136Y52753945D01*
X66751845Y53127236D01*
X66264117Y53329260D01*
X65736203Y53329260D01*
X65248475Y53127236D01*
X64875184Y52753945D01*
X64673160Y52266217D01*
X64327160Y52266217D01*
X64125136Y52753945D01*
X63751845Y53127236D01*
X63264117Y53329260D01*
X62736203Y53329260D01*
X62248475Y53127236D01*
X61875184Y52753945D01*
X61673160Y52266217D01*
X61327160Y52266217D01*
X61125136Y52753945D01*
X60751845Y53127236D01*
X60264117Y53329260D01*
X59736203Y53329260D01*
X59248475Y53127236D01*
X58875184Y52753945D01*
X58673160Y52266217D01*
X58327160Y52266217D01*
X58125136Y52753945D01*
X57751845Y53127236D01*
X57264117Y53329260D01*
X56736203Y53329260D01*
X56248475Y53127236D01*
X55875184Y52753945D01*
X55673160Y52266217D01*
X55327160Y52266217D01*
X55125136Y52753945D01*
X54751845Y53127236D01*
X54264117Y53329260D01*
X53736203Y53329260D01*
X53248475Y53127236D01*
X52875184Y52753945D01*
X52673160Y52266217D01*
X52327160Y52266217D01*
X52125136Y52753945D01*
X51751845Y53127236D01*
X51264117Y53329260D01*
X50736203Y53329260D01*
X50248475Y53127236D01*
X49875184Y52753945D01*
X49673160Y52266217D01*
X49327160Y52266217D01*
X49125136Y52753945D01*
X48751845Y53127236D01*
X48264117Y53329260D01*
X47736203Y53329260D01*
X47248475Y53127236D01*
X46875184Y52753945D01*
X46673160Y52266217D01*
X46327160Y52266217D01*
X46125136Y52753945D01*
X45751845Y53127236D01*
X45264117Y53329260D01*
X44736203Y53329260D01*
X44248475Y53127236D01*
X43875184Y52753945D01*
X43673160Y52266217D01*
X41176415Y52266217D01*
X41483227Y52573029D01*
X41867940Y53501808D01*
X41867940Y54507112D01*
X41483227Y55435891D01*
X40772371Y56146747D01*
X39843592Y56531460D01*
X38838288Y56531460D01*
X37909509Y56146747D01*
X37198653Y55435891D01*
X36813940Y54507112D01*
X32960338Y54507112D01*
X32666326Y55216918D01*
X31814818Y56068426D01*
X30702268Y56529260D01*
X29498052Y56529260D01*
X28385502Y56068426D01*
X27533994Y55216918D01*
X27073160Y54104368D01*
X8927160Y54104368D01*
X8466326Y55216918D01*
X7614818Y56068426D01*
X6502268Y56529260D01*
X5298052Y56529260D01*
X4185502Y56068426D01*
X3333994Y55216918D01*
X2873160Y54104368D01*
X-3897840Y54104368D01*
X-3897840Y84304368D01*
X2873160Y84304368D01*
X2873160Y83100152D01*
X3333994Y81987602D01*
X4185502Y81136094D01*
X4771218Y80893482D01*
X4169813Y80292077D01*
X3823160Y79455183D01*
X3823160Y78549337D01*
X4169813Y77712443D01*
X4810343Y77071913D01*
X5219921Y76902260D01*
X4810343Y76732607D01*
X4169813Y76092077D01*
X3823160Y75255183D01*
X3823160Y74349337D01*
X4169813Y73512443D01*
X4810343Y72871913D01*
X5219921Y72702260D01*
X4810343Y72532607D01*
X4169813Y71892077D01*
X3823160Y71055183D01*
X3823160Y70149337D01*
X4169813Y69312443D01*
X4810343Y68671913D01*
X5219921Y68502260D01*
X4810343Y68332607D01*
X4169813Y67692077D01*
X3823160Y66855183D01*
X3823160Y65949337D01*
X4169813Y65112443D01*
X4771218Y64511038D01*
X4185502Y64268426D01*
X3333994Y63416918D01*
X2873160Y62304368D01*
X2873160Y61100152D01*
X3333994Y59987602D01*
X4185502Y59136094D01*
X5298052Y58675260D01*
X6502268Y58675260D01*
X7614818Y59136094D01*
X8466326Y59987602D01*
X8927160Y61100152D01*
X8927160Y62304368D01*
X8466326Y63416918D01*
X7614818Y64268426D01*
X7256767Y64416736D01*
X7389977Y64471913D01*
X7861160Y64943096D01*
X9724879Y64943096D01*
X9899351Y64787281D01*
X10547886Y64756831D01*
X10700969Y64787281D01*
X10875441Y64943096D01*
X25124879Y64943096D01*
X25299351Y64787281D01*
X25947886Y64756831D01*
X26100969Y64787281D01*
X26275441Y64943096D01*
X25700160Y65518377D01*
X25124879Y64943096D01*
X10875441Y64943096D01*
X10300160Y65518377D01*
X9724879Y64943096D01*
X7861160Y64943096D01*
X8030507Y65112443D01*
X8377160Y65949337D01*
X8377160Y66154534D01*
X8654731Y66154534D01*
X8685181Y66001451D01*
X8840996Y65826979D01*
X9416277Y66402260D01*
X11184043Y66402260D01*
X11759324Y65826979D01*
X11915139Y66001451D01*
X11922326Y66154534D01*
X24054731Y66154534D01*
X24085181Y66001451D01*
X24240996Y65826979D01*
X24816277Y66402260D01*
X26584043Y66402260D01*
X27159324Y65826979D01*
X27315139Y66001451D01*
X27345589Y66649986D01*
X27315139Y66803069D01*
X27159324Y66977541D01*
X26584043Y66402260D01*
X24816277Y66402260D01*
X24240996Y66977541D01*
X24085181Y66803069D01*
X24054731Y66154534D01*
X11922326Y66154534D01*
X11945589Y66649986D01*
X11915139Y66803069D01*
X11759324Y66977541D01*
X11184043Y66402260D01*
X9416277Y66402260D01*
X8840996Y66977541D01*
X8685181Y66803069D01*
X8654731Y66154534D01*
X8377160Y66154534D01*
X8377160Y66855183D01*
X8030507Y67692077D01*
X7861160Y67861424D01*
X9724879Y67861424D01*
X10300160Y67286143D01*
X10875441Y67861424D01*
X25124879Y67861424D01*
X25700160Y67286143D01*
X26275441Y67861424D01*
X26100969Y68017239D01*
X25452434Y68047689D01*
X25299351Y68017239D01*
X25124879Y67861424D01*
X10875441Y67861424D01*
X10700969Y68017239D01*
X10052434Y68047689D01*
X9899351Y68017239D01*
X9724879Y67861424D01*
X7861160Y67861424D01*
X7389977Y68332607D01*
X6980399Y68502260D01*
X7389977Y68671913D01*
X7861160Y69143096D01*
X9724879Y69143096D01*
X9899351Y68987281D01*
X10547886Y68956831D01*
X10700969Y68987281D01*
X10875441Y69143096D01*
X25124879Y69143096D01*
X25299351Y68987281D01*
X25947886Y68956831D01*
X26100969Y68987281D01*
X26275441Y69143096D01*
X25700160Y69718377D01*
X25124879Y69143096D01*
X10875441Y69143096D01*
X10300160Y69718377D01*
X9724879Y69143096D01*
X7861160Y69143096D01*
X8030507Y69312443D01*
X8377160Y70149337D01*
X8377160Y70354534D01*
X8654731Y70354534D01*
X8685181Y70201451D01*
X8840996Y70026979D01*
X9416277Y70602260D01*
X11184043Y70602260D01*
X11759324Y70026979D01*
X11915139Y70201451D01*
X11922326Y70354534D01*
X24054731Y70354534D01*
X24085181Y70201451D01*
X24240996Y70026979D01*
X24816277Y70602260D01*
X26584043Y70602260D01*
X27159324Y70026979D01*
X27315139Y70201451D01*
X27345589Y70849986D01*
X27315139Y71003069D01*
X27159324Y71177541D01*
X26584043Y70602260D01*
X24816277Y70602260D01*
X24240996Y71177541D01*
X24085181Y71003069D01*
X24054731Y70354534D01*
X11922326Y70354534D01*
X11945589Y70849986D01*
X11915139Y71003069D01*
X11759324Y71177541D01*
X11184043Y70602260D01*
X9416277Y70602260D01*
X8840996Y71177541D01*
X8685181Y71003069D01*
X8654731Y70354534D01*
X8377160Y70354534D01*
X8377160Y71055183D01*
X8030507Y71892077D01*
X7861160Y72061424D01*
X9724879Y72061424D01*
X10300160Y71486143D01*
X10875441Y72061424D01*
X25124879Y72061424D01*
X25700160Y71486143D01*
X26275441Y72061424D01*
X26100969Y72217239D01*
X25452434Y72247689D01*
X25299351Y72217239D01*
X25124879Y72061424D01*
X10875441Y72061424D01*
X10700969Y72217239D01*
X10052434Y72247689D01*
X9899351Y72217239D01*
X9724879Y72061424D01*
X7861160Y72061424D01*
X7389977Y72532607D01*
X6980399Y72702260D01*
X7389977Y72871913D01*
X7861160Y73343096D01*
X9724879Y73343096D01*
X9899351Y73187281D01*
X10547886Y73156831D01*
X10700969Y73187281D01*
X10875441Y73343096D01*
X25124879Y73343096D01*
X25299351Y73187281D01*
X25947886Y73156831D01*
X26100969Y73187281D01*
X26275441Y73343096D01*
X25700160Y73918377D01*
X25124879Y73343096D01*
X10875441Y73343096D01*
X10300160Y73918377D01*
X9724879Y73343096D01*
X7861160Y73343096D01*
X8030507Y73512443D01*
X8377160Y74349337D01*
X8377160Y74554534D01*
X8654731Y74554534D01*
X8685181Y74401451D01*
X8840996Y74226979D01*
X9416277Y74802260D01*
X11184043Y74802260D01*
X11759324Y74226979D01*
X11915139Y74401451D01*
X11922326Y74554534D01*
X24054731Y74554534D01*
X24085181Y74401451D01*
X24240996Y74226979D01*
X24816277Y74802260D01*
X26584043Y74802260D01*
X27159324Y74226979D01*
X27315139Y74401451D01*
X27345589Y75049986D01*
X27315139Y75203069D01*
X27159324Y75377541D01*
X26584043Y74802260D01*
X24816277Y74802260D01*
X24240996Y75377541D01*
X24085181Y75203069D01*
X24054731Y74554534D01*
X11922326Y74554534D01*
X11945589Y75049986D01*
X11915139Y75203069D01*
X11759324Y75377541D01*
X11184043Y74802260D01*
X9416277Y74802260D01*
X8840996Y75377541D01*
X8685181Y75203069D01*
X8654731Y74554534D01*
X8377160Y74554534D01*
X8377160Y75255183D01*
X8030507Y76092077D01*
X7861160Y76261424D01*
X9724879Y76261424D01*
X10300160Y75686143D01*
X10875441Y76261424D01*
X25124879Y76261424D01*
X25700160Y75686143D01*
X26275441Y76261424D01*
X26100969Y76417239D01*
X25452434Y76447689D01*
X25299351Y76417239D01*
X25124879Y76261424D01*
X10875441Y76261424D01*
X10700969Y76417239D01*
X10052434Y76447689D01*
X9899351Y76417239D01*
X9724879Y76261424D01*
X7861160Y76261424D01*
X7389977Y76732607D01*
X6980399Y76902260D01*
X7389977Y77071913D01*
X7861160Y77543096D01*
X9724879Y77543096D01*
X9899351Y77387281D01*
X10547886Y77356831D01*
X10700969Y77387281D01*
X10875441Y77543096D01*
X25124879Y77543096D01*
X25299351Y77387281D01*
X25947886Y77356831D01*
X26100969Y77387281D01*
X26275441Y77543096D01*
X25700160Y78118377D01*
X25124879Y77543096D01*
X10875441Y77543096D01*
X10300160Y78118377D01*
X9724879Y77543096D01*
X7861160Y77543096D01*
X8030507Y77712443D01*
X8377160Y78549337D01*
X8377160Y78754534D01*
X8654731Y78754534D01*
X8685181Y78601451D01*
X8840996Y78426979D01*
X9416277Y79002260D01*
X11184043Y79002260D01*
X11759324Y78426979D01*
X11915139Y78601451D01*
X11922326Y78754534D01*
X24054731Y78754534D01*
X24085181Y78601451D01*
X24240996Y78426979D01*
X24816277Y79002260D01*
X26584043Y79002260D01*
X27159324Y78426979D01*
X27315139Y78601451D01*
X27345589Y79249986D01*
X27315139Y79403069D01*
X27159324Y79577541D01*
X26584043Y79002260D01*
X24816277Y79002260D01*
X24240996Y79577541D01*
X24085181Y79403069D01*
X24054731Y78754534D01*
X11922326Y78754534D01*
X11945589Y79249986D01*
X11915139Y79403069D01*
X11759324Y79577541D01*
X11184043Y79002260D01*
X9416277Y79002260D01*
X8840996Y79577541D01*
X8685181Y79403069D01*
X8654731Y78754534D01*
X8377160Y78754534D01*
X8377160Y79455183D01*
X8030507Y80292077D01*
X7861160Y80461424D01*
X9724879Y80461424D01*
X10300160Y79886143D01*
X10875441Y80461424D01*
X25124879Y80461424D01*
X25700160Y79886143D01*
X26275441Y80461424D01*
X26100969Y80617239D01*
X25452434Y80647689D01*
X25299351Y80617239D01*
X25124879Y80461424D01*
X10875441Y80461424D01*
X10700969Y80617239D01*
X10052434Y80647689D01*
X9899351Y80617239D01*
X9724879Y80461424D01*
X7861160Y80461424D01*
X7389977Y80932607D01*
X7256767Y80987784D01*
X7614818Y81136094D01*
X8466326Y81987602D01*
X8927160Y83100152D01*
X8927160Y84304368D01*
X27073160Y84304368D01*
X27073160Y83100152D01*
X27533994Y81987602D01*
X28385502Y81136094D01*
X28743553Y80987784D01*
X28610343Y80932607D01*
X27969813Y80292077D01*
X27623160Y79455183D01*
X27623160Y78549337D01*
X27969813Y77712443D01*
X28610343Y77071913D01*
X29019921Y76902260D01*
X28610343Y76732607D01*
X27969813Y76092077D01*
X27623160Y75255183D01*
X27623160Y74349337D01*
X27969813Y73512443D01*
X28610343Y72871913D01*
X29019921Y72702260D01*
X28610343Y72532607D01*
X27969813Y71892077D01*
X27623160Y71055183D01*
X27623160Y70149337D01*
X27969813Y69312443D01*
X28610343Y68671913D01*
X29019921Y68502260D01*
X28610343Y68332607D01*
X27969813Y67692077D01*
X27623160Y66855183D01*
X27623160Y65949337D01*
X27969813Y65112443D01*
X28610343Y64471913D01*
X28743553Y64416736D01*
X28385502Y64268426D01*
X27533994Y63416918D01*
X27073160Y62304368D01*
X27073160Y61100152D01*
X27533994Y59987602D01*
X28385502Y59136094D01*
X29498052Y58675260D01*
X30702268Y58675260D01*
X31814818Y59136094D01*
X32666326Y59987602D01*
X33127160Y61100152D01*
X33127160Y61807112D01*
X36813940Y61807112D01*
X36813940Y60801808D01*
X37198653Y59873029D01*
X37909509Y59162173D01*
X38838288Y58777460D01*
X39843592Y58777460D01*
X40772371Y59162173D01*
X41483227Y59873029D01*
X41867940Y60801808D01*
X41867940Y61807112D01*
X41483227Y62735891D01*
X40772371Y63446747D01*
X39843592Y63831460D01*
X38838288Y63831460D01*
X37909509Y63446747D01*
X37198653Y62735891D01*
X36813940Y61807112D01*
X33127160Y61807112D01*
X33127160Y62304368D01*
X32666326Y63416918D01*
X31814818Y64268426D01*
X31229102Y64511038D01*
X31830507Y65112443D01*
X32177160Y65949337D01*
X32177160Y66855183D01*
X31830507Y67692077D01*
X31189977Y68332607D01*
X30780399Y68502260D01*
X31189977Y68671913D01*
X31830507Y69312443D01*
X32177160Y70149337D01*
X32177160Y70528386D01*
X63973160Y70528386D01*
X63973160Y67136134D01*
X65271318Y64002102D01*
X67670002Y61603418D01*
X70804034Y60305260D01*
X74196286Y60305260D01*
X77330318Y61603418D01*
X79729002Y64002102D01*
X81027160Y67136134D01*
X81027160Y70528386D01*
X103973160Y70528386D01*
X103973160Y67136134D01*
X105271318Y64002102D01*
X107670002Y61603418D01*
X110804034Y60305260D01*
X114196286Y60305260D01*
X117330318Y61603418D01*
X119729002Y64002102D01*
X121027160Y67136134D01*
X121027160Y70528386D01*
X119729002Y73662418D01*
X117330318Y76061102D01*
X114196286Y77359260D01*
X110804034Y77359260D01*
X107670002Y76061102D01*
X105271318Y73662418D01*
X103973160Y70528386D01*
X81027160Y70528386D01*
X79729002Y73662418D01*
X77330318Y76061102D01*
X74196286Y77359260D01*
X70804034Y77359260D01*
X67670002Y76061102D01*
X65271318Y73662418D01*
X63973160Y70528386D01*
X32177160Y70528386D01*
X32177160Y71055183D01*
X31830507Y71892077D01*
X31189977Y72532607D01*
X30780399Y72702260D01*
X31189977Y72871913D01*
X31830507Y73512443D01*
X32177160Y74349337D01*
X32177160Y75255183D01*
X31830507Y76092077D01*
X31189977Y76732607D01*
X30780399Y76902260D01*
X31189977Y77071913D01*
X31830507Y77712443D01*
X32177160Y78549337D01*
X32177160Y79455183D01*
X31830507Y80292077D01*
X31229102Y80893482D01*
X31814818Y81136094D01*
X32666326Y81987602D01*
X33127160Y83100152D01*
X33127160Y84304368D01*
X32666326Y85416918D01*
X31814818Y86268426D01*
X30702268Y86729260D01*
X29498052Y86729260D01*
X28385502Y86268426D01*
X27533994Y85416918D01*
X27073160Y84304368D01*
X8927160Y84304368D01*
X8466326Y85416918D01*
X7614818Y86268426D01*
X6502268Y86729260D01*
X5298052Y86729260D01*
X4185502Y86268426D01*
X3333994Y85416918D01*
X2873160Y84304368D01*
X-3897840Y84304368D01*
X-3897840Y87312839D01*
X-921494Y87312839D01*
X-551686Y87116082D01*
X552006Y87116082D01*
X921814Y87312839D01*
X268436Y87966217D01*
X43673160Y87966217D01*
X43673160Y87438303D01*
X43875184Y86950575D01*
X43973499Y86852260D01*
X43875184Y86753945D01*
X43673160Y86266217D01*
X43673160Y85738303D01*
X43875184Y85250575D01*
X44248475Y84877284D01*
X44736203Y84675260D01*
X45264117Y84675260D01*
X45751845Y84877284D01*
X46125136Y85250575D01*
X46327160Y85738303D01*
X46327160Y86266217D01*
X46125136Y86753945D01*
X46026821Y86852260D01*
X46125136Y86950575D01*
X46327160Y87438303D01*
X46327160Y87966217D01*
X46673160Y87966217D01*
X46673160Y87438303D01*
X46875184Y86950575D01*
X46973499Y86852260D01*
X46875184Y86753945D01*
X46673160Y86266217D01*
X46673160Y85738303D01*
X46875184Y85250575D01*
X47248475Y84877284D01*
X47736203Y84675260D01*
X48264117Y84675260D01*
X48751845Y84877284D01*
X49125136Y85250575D01*
X49327160Y85738303D01*
X49327160Y86266217D01*
X49125136Y86753945D01*
X49026821Y86852260D01*
X49125136Y86950575D01*
X49327160Y87438303D01*
X49327160Y87966217D01*
X49673160Y87966217D01*
X49673160Y87438303D01*
X49875184Y86950575D01*
X49973499Y86852260D01*
X49875184Y86753945D01*
X49673160Y86266217D01*
X49673160Y85738303D01*
X49875184Y85250575D01*
X50248475Y84877284D01*
X50736203Y84675260D01*
X51264117Y84675260D01*
X51751845Y84877284D01*
X52125136Y85250575D01*
X52327160Y85738303D01*
X52327160Y86266217D01*
X52125136Y86753945D01*
X52026821Y86852260D01*
X52125136Y86950575D01*
X52327160Y87438303D01*
X52327160Y87966217D01*
X52673160Y87966217D01*
X52673160Y87438303D01*
X52875184Y86950575D01*
X52973499Y86852260D01*
X52875184Y86753945D01*
X52673160Y86266217D01*
X52673160Y85738303D01*
X52875184Y85250575D01*
X53248475Y84877284D01*
X53736203Y84675260D01*
X54264117Y84675260D01*
X54751845Y84877284D01*
X55125136Y85250575D01*
X55327160Y85738303D01*
X55327160Y86266217D01*
X55125136Y86753945D01*
X55026821Y86852260D01*
X55125136Y86950575D01*
X55327160Y87438303D01*
X55327160Y87966217D01*
X55673160Y87966217D01*
X55673160Y87438303D01*
X55875184Y86950575D01*
X55973499Y86852260D01*
X55875184Y86753945D01*
X55673160Y86266217D01*
X55673160Y85738303D01*
X55875184Y85250575D01*
X56248475Y84877284D01*
X56736203Y84675260D01*
X57264117Y84675260D01*
X57751845Y84877284D01*
X58125136Y85250575D01*
X58327160Y85738303D01*
X58327160Y86266217D01*
X58125136Y86753945D01*
X58026821Y86852260D01*
X58125136Y86950575D01*
X58327160Y87438303D01*
X58327160Y87966217D01*
X58673160Y87966217D01*
X58673160Y87438303D01*
X58875184Y86950575D01*
X58973499Y86852260D01*
X58875184Y86753945D01*
X58673160Y86266217D01*
X58673160Y85738303D01*
X58875184Y85250575D01*
X59248475Y84877284D01*
X59736203Y84675260D01*
X60264117Y84675260D01*
X60751845Y84877284D01*
X61125136Y85250575D01*
X61327160Y85738303D01*
X61327160Y86266217D01*
X61125136Y86753945D01*
X61026821Y86852260D01*
X61125136Y86950575D01*
X61327160Y87438303D01*
X61327160Y87966217D01*
X61673160Y87966217D01*
X61673160Y87438303D01*
X61875184Y86950575D01*
X61973499Y86852260D01*
X61875184Y86753945D01*
X61673160Y86266217D01*
X61673160Y85738303D01*
X61875184Y85250575D01*
X62248475Y84877284D01*
X62736203Y84675260D01*
X63264117Y84675260D01*
X63751845Y84877284D01*
X64125136Y85250575D01*
X64327160Y85738303D01*
X64327160Y86266217D01*
X64125136Y86753945D01*
X64026821Y86852260D01*
X64125136Y86950575D01*
X64327160Y87438303D01*
X64327160Y87966217D01*
X64673160Y87966217D01*
X64673160Y87438303D01*
X64875184Y86950575D01*
X64973499Y86852260D01*
X64875184Y86753945D01*
X64673160Y86266217D01*
X64673160Y85738303D01*
X64875184Y85250575D01*
X65248475Y84877284D01*
X65736203Y84675260D01*
X66264117Y84675260D01*
X66751845Y84877284D01*
X67125136Y85250575D01*
X67327160Y85738303D01*
X67327160Y86266217D01*
X67125136Y86753945D01*
X67026821Y86852260D01*
X67125136Y86950575D01*
X67327160Y87438303D01*
X67327160Y87966217D01*
X67673160Y87966217D01*
X67673160Y87438303D01*
X67875184Y86950575D01*
X67973499Y86852260D01*
X67875184Y86753945D01*
X67673160Y86266217D01*
X67673160Y85738303D01*
X67875184Y85250575D01*
X68248475Y84877284D01*
X68736203Y84675260D01*
X69264117Y84675260D01*
X69751845Y84877284D01*
X70125136Y85250575D01*
X70327160Y85738303D01*
X70327160Y86266217D01*
X70125136Y86753945D01*
X70026821Y86852260D01*
X70125136Y86950575D01*
X70327160Y87438303D01*
X70327160Y87966217D01*
X70673160Y87966217D01*
X70673160Y87438303D01*
X70875184Y86950575D01*
X70973499Y86852260D01*
X70875184Y86753945D01*
X70673160Y86266217D01*
X70673160Y85738303D01*
X70875184Y85250575D01*
X71248475Y84877284D01*
X71736203Y84675260D01*
X72264117Y84675260D01*
X72751845Y84877284D01*
X73125136Y85250575D01*
X73327160Y85738303D01*
X73327160Y86266217D01*
X73125136Y86753945D01*
X73026821Y86852260D01*
X73125136Y86950575D01*
X73327160Y87438303D01*
X73327160Y87966217D01*
X73673160Y87966217D01*
X73673160Y87438303D01*
X73875184Y86950575D01*
X73973499Y86852260D01*
X73875184Y86753945D01*
X73673160Y86266217D01*
X73673160Y85738303D01*
X73875184Y85250575D01*
X74248475Y84877284D01*
X74736203Y84675260D01*
X75264117Y84675260D01*
X75751845Y84877284D01*
X76125136Y85250575D01*
X76327160Y85738303D01*
X76327160Y86266217D01*
X76125136Y86753945D01*
X76026821Y86852260D01*
X76125136Y86950575D01*
X76327160Y87438303D01*
X76327160Y87966217D01*
X76673160Y87966217D01*
X76673160Y87438303D01*
X76875184Y86950575D01*
X76973499Y86852260D01*
X76875184Y86753945D01*
X76673160Y86266217D01*
X76673160Y85738303D01*
X76875184Y85250575D01*
X77248475Y84877284D01*
X77736203Y84675260D01*
X78264117Y84675260D01*
X78751845Y84877284D01*
X79125136Y85250575D01*
X79327160Y85738303D01*
X79327160Y86266217D01*
X79125136Y86753945D01*
X79026821Y86852260D01*
X79125136Y86950575D01*
X79327160Y87438303D01*
X79327160Y87966217D01*
X79673160Y87966217D01*
X79673160Y87438303D01*
X79875184Y86950575D01*
X79973499Y86852260D01*
X79875184Y86753945D01*
X79673160Y86266217D01*
X79673160Y85738303D01*
X79875184Y85250575D01*
X80248475Y84877284D01*
X80736203Y84675260D01*
X81264117Y84675260D01*
X81751845Y84877284D01*
X82125136Y85250575D01*
X82327160Y85738303D01*
X82327160Y86266217D01*
X82125136Y86753945D01*
X82026821Y86852260D01*
X82125136Y86950575D01*
X82327160Y87438303D01*
X82327160Y87966217D01*
X82673160Y87966217D01*
X82673160Y87438303D01*
X82875184Y86950575D01*
X82973499Y86852260D01*
X82875184Y86753945D01*
X82673160Y86266217D01*
X82673160Y85738303D01*
X82875184Y85250575D01*
X83248475Y84877284D01*
X83736203Y84675260D01*
X84264117Y84675260D01*
X84751845Y84877284D01*
X85125136Y85250575D01*
X85327160Y85738303D01*
X85327160Y86266217D01*
X85125136Y86753945D01*
X85026821Y86852260D01*
X85125136Y86950575D01*
X85327160Y87438303D01*
X85327160Y87966217D01*
X85673160Y87966217D01*
X85673160Y87438303D01*
X85875184Y86950575D01*
X85973499Y86852260D01*
X85875184Y86753945D01*
X85673160Y86266217D01*
X85673160Y85738303D01*
X85875184Y85250575D01*
X86248475Y84877284D01*
X86736203Y84675260D01*
X87264117Y84675260D01*
X87751845Y84877284D01*
X88125136Y85250575D01*
X88327160Y85738303D01*
X88327160Y86266217D01*
X88125136Y86753945D01*
X88026821Y86852260D01*
X88125136Y86950575D01*
X88327160Y87438303D01*
X88327160Y87966217D01*
X88673160Y87966217D01*
X88673160Y87438303D01*
X88875184Y86950575D01*
X88973499Y86852260D01*
X88875184Y86753945D01*
X88673160Y86266217D01*
X88673160Y85738303D01*
X88875184Y85250575D01*
X89248475Y84877284D01*
X89736203Y84675260D01*
X90264117Y84675260D01*
X90751845Y84877284D01*
X91125136Y85250575D01*
X91327160Y85738303D01*
X91327160Y86266217D01*
X91125136Y86753945D01*
X91026821Y86852260D01*
X91125136Y86950575D01*
X91327160Y87438303D01*
X91327160Y87966217D01*
X91673160Y87966217D01*
X91673160Y87438303D01*
X91875184Y86950575D01*
X91973499Y86852260D01*
X91875184Y86753945D01*
X91673160Y86266217D01*
X91673160Y85738303D01*
X91875184Y85250575D01*
X92248475Y84877284D01*
X92736203Y84675260D01*
X93264117Y84675260D01*
X93751845Y84877284D01*
X94125136Y85250575D01*
X94327160Y85738303D01*
X94327160Y86266217D01*
X94125136Y86753945D01*
X94026821Y86852260D01*
X94125136Y86950575D01*
X94327160Y87438303D01*
X94327160Y87966217D01*
X94673160Y87966217D01*
X94673160Y87438303D01*
X94875184Y86950575D01*
X94973499Y86852260D01*
X94875184Y86753945D01*
X94673160Y86266217D01*
X94673160Y85738303D01*
X94875184Y85250575D01*
X95248475Y84877284D01*
X95736203Y84675260D01*
X96264117Y84675260D01*
X96751845Y84877284D01*
X97125136Y85250575D01*
X97327160Y85738303D01*
X97327160Y86266217D01*
X97125136Y86753945D01*
X97026821Y86852260D01*
X97125136Y86950575D01*
X97327160Y87438303D01*
X97327160Y87966217D01*
X97673160Y87966217D01*
X97673160Y87438303D01*
X97875184Y86950575D01*
X97973499Y86852260D01*
X97875184Y86753945D01*
X97673160Y86266217D01*
X97673160Y85738303D01*
X97875184Y85250575D01*
X98248475Y84877284D01*
X98736203Y84675260D01*
X99264117Y84675260D01*
X99751845Y84877284D01*
X100125136Y85250575D01*
X100327160Y85738303D01*
X100327160Y86266217D01*
X100125136Y86753945D01*
X100026821Y86852260D01*
X100125136Y86950575D01*
X100327160Y87438303D01*
X100327160Y87966217D01*
X100673160Y87966217D01*
X100673160Y87438303D01*
X100875184Y86950575D01*
X100973499Y86852260D01*
X100875184Y86753945D01*
X100673160Y86266217D01*
X100673160Y85738303D01*
X100875184Y85250575D01*
X101248475Y84877284D01*
X101736203Y84675260D01*
X102264117Y84675260D01*
X102751845Y84877284D01*
X103125136Y85250575D01*
X103327160Y85738303D01*
X103327160Y86266217D01*
X103125136Y86753945D01*
X103026821Y86852260D01*
X103125136Y86950575D01*
X103327160Y87438303D01*
X103327160Y87966217D01*
X103673160Y87966217D01*
X103673160Y87438303D01*
X103875184Y86950575D01*
X103973499Y86852260D01*
X103875184Y86753945D01*
X103673160Y86266217D01*
X103673160Y85738303D01*
X103875184Y85250575D01*
X104248475Y84877284D01*
X104736203Y84675260D01*
X105264117Y84675260D01*
X105751845Y84877284D01*
X106125136Y85250575D01*
X106327160Y85738303D01*
X106327160Y86266217D01*
X106125136Y86753945D01*
X106026821Y86852260D01*
X106125136Y86950575D01*
X106327160Y87438303D01*
X106327160Y87966217D01*
X106673160Y87966217D01*
X106673160Y87438303D01*
X106875184Y86950575D01*
X106973499Y86852260D01*
X106875184Y86753945D01*
X106673160Y86266217D01*
X106673160Y85738303D01*
X106875184Y85250575D01*
X107248475Y84877284D01*
X107736203Y84675260D01*
X108264117Y84675260D01*
X108751845Y84877284D01*
X109125136Y85250575D01*
X109327160Y85738303D01*
X109327160Y86266217D01*
X109125136Y86753945D01*
X109026821Y86852260D01*
X109125136Y86950575D01*
X109327160Y87438303D01*
X109327160Y87966217D01*
X109673160Y87966217D01*
X109673160Y87438303D01*
X109875184Y86950575D01*
X109973499Y86852260D01*
X109875184Y86753945D01*
X109673160Y86266217D01*
X109673160Y85738303D01*
X109875184Y85250575D01*
X110248475Y84877284D01*
X110736203Y84675260D01*
X111264117Y84675260D01*
X111751845Y84877284D01*
X112125136Y85250575D01*
X112327160Y85738303D01*
X112327160Y86266217D01*
X112125136Y86753945D01*
X112026821Y86852260D01*
X112125136Y86950575D01*
X112327160Y87438303D01*
X112327160Y87966217D01*
X112673160Y87966217D01*
X112673160Y87438303D01*
X112875184Y86950575D01*
X112973499Y86852260D01*
X112875184Y86753945D01*
X112673160Y86266217D01*
X112673160Y85738303D01*
X112875184Y85250575D01*
X113248475Y84877284D01*
X113736203Y84675260D01*
X114264117Y84675260D01*
X114751845Y84877284D01*
X115125136Y85250575D01*
X115327160Y85738303D01*
X115327160Y86266217D01*
X115125136Y86753945D01*
X115026821Y86852260D01*
X115125136Y86950575D01*
X115327160Y87438303D01*
X115327160Y87966217D01*
X115673160Y87966217D01*
X115673160Y87438303D01*
X115875184Y86950575D01*
X115973499Y86852260D01*
X115875184Y86753945D01*
X115673160Y86266217D01*
X115673160Y85738303D01*
X115875184Y85250575D01*
X116248475Y84877284D01*
X116736203Y84675260D01*
X117264117Y84675260D01*
X117751845Y84877284D01*
X118125136Y85250575D01*
X118327160Y85738303D01*
X118327160Y86266217D01*
X118125136Y86753945D01*
X118026821Y86852260D01*
X118125136Y86950575D01*
X118327160Y87438303D01*
X118327160Y87966217D01*
X118673160Y87966217D01*
X118673160Y87438303D01*
X118875184Y86950575D01*
X118973499Y86852260D01*
X118875184Y86753945D01*
X118673160Y86266217D01*
X118673160Y85738303D01*
X118875184Y85250575D01*
X119248475Y84877284D01*
X119736203Y84675260D01*
X120264117Y84675260D01*
X120751845Y84877284D01*
X121125136Y85250575D01*
X121327160Y85738303D01*
X121327160Y86266217D01*
X121125136Y86753945D01*
X121026821Y86852260D01*
X121125136Y86950575D01*
X121327160Y87438303D01*
X121327160Y87966217D01*
X121673160Y87966217D01*
X121673160Y87438303D01*
X121875184Y86950575D01*
X121973499Y86852260D01*
X121875184Y86753945D01*
X121673160Y86266217D01*
X121673160Y85738303D01*
X121875184Y85250575D01*
X122248475Y84877284D01*
X122736203Y84675260D01*
X123264117Y84675260D01*
X123751845Y84877284D01*
X124125136Y85250575D01*
X124327160Y85738303D01*
X124327160Y86266217D01*
X124125136Y86753945D01*
X124026821Y86852260D01*
X124125136Y86950575D01*
X124327160Y87438303D01*
X124327160Y87966217D01*
X124673160Y87966217D01*
X124673160Y87438303D01*
X124875184Y86950575D01*
X124973499Y86852260D01*
X124875184Y86753945D01*
X124673160Y86266217D01*
X124673160Y85738303D01*
X124875184Y85250575D01*
X125248475Y84877284D01*
X125736203Y84675260D01*
X126264117Y84675260D01*
X126751845Y84877284D01*
X127125136Y85250575D01*
X127327160Y85738303D01*
X127327160Y86266217D01*
X127125136Y86753945D01*
X127026821Y86852260D01*
X127125136Y86950575D01*
X127327160Y87438303D01*
X127327160Y87966217D01*
X127673160Y87966217D01*
X127673160Y87438303D01*
X127875184Y86950575D01*
X127973499Y86852260D01*
X127875184Y86753945D01*
X127673160Y86266217D01*
X127673160Y85738303D01*
X127875184Y85250575D01*
X128248475Y84877284D01*
X128736203Y84675260D01*
X129264117Y84675260D01*
X129751845Y84877284D01*
X130125136Y85250575D01*
X130327160Y85738303D01*
X130327160Y86266217D01*
X130125136Y86753945D01*
X130026821Y86852260D01*
X130125136Y86950575D01*
X130327160Y87438303D01*
X130327160Y87966217D01*
X130673160Y87966217D01*
X130673160Y87438303D01*
X130875184Y86950575D01*
X130973499Y86852260D01*
X130875184Y86753945D01*
X130673160Y86266217D01*
X130673160Y85738303D01*
X130875184Y85250575D01*
X131248475Y84877284D01*
X131736203Y84675260D01*
X132264117Y84675260D01*
X132751845Y84877284D01*
X133125136Y85250575D01*
X133327160Y85738303D01*
X133327160Y86266217D01*
X133125136Y86753945D01*
X133026821Y86852260D01*
X133125136Y86950575D01*
X133275190Y87312839D01*
X139078506Y87312839D01*
X139448314Y87116082D01*
X140552006Y87116082D01*
X140921814Y87312839D01*
X140000160Y88234493D01*
X139078506Y87312839D01*
X133275190Y87312839D01*
X133327160Y87438303D01*
X133327160Y87966217D01*
X133125136Y88453945D01*
X132751845Y88827236D01*
X132264117Y89029260D01*
X131736203Y89029260D01*
X131248475Y88827236D01*
X130875184Y88453945D01*
X130673160Y87966217D01*
X130327160Y87966217D01*
X130125136Y88453945D01*
X129751845Y88827236D01*
X129264117Y89029260D01*
X128736203Y89029260D01*
X128248475Y88827236D01*
X127875184Y88453945D01*
X127673160Y87966217D01*
X127327160Y87966217D01*
X127125136Y88453945D01*
X126751845Y88827236D01*
X126264117Y89029260D01*
X125736203Y89029260D01*
X125248475Y88827236D01*
X124875184Y88453945D01*
X124673160Y87966217D01*
X124327160Y87966217D01*
X124125136Y88453945D01*
X123751845Y88827236D01*
X123264117Y89029260D01*
X122736203Y89029260D01*
X122248475Y88827236D01*
X121875184Y88453945D01*
X121673160Y87966217D01*
X121327160Y87966217D01*
X121125136Y88453945D01*
X120751845Y88827236D01*
X120264117Y89029260D01*
X119736203Y89029260D01*
X119248475Y88827236D01*
X118875184Y88453945D01*
X118673160Y87966217D01*
X118327160Y87966217D01*
X118125136Y88453945D01*
X117751845Y88827236D01*
X117264117Y89029260D01*
X116736203Y89029260D01*
X116248475Y88827236D01*
X115875184Y88453945D01*
X115673160Y87966217D01*
X115327160Y87966217D01*
X115125136Y88453945D01*
X114751845Y88827236D01*
X114264117Y89029260D01*
X113736203Y89029260D01*
X113248475Y88827236D01*
X112875184Y88453945D01*
X112673160Y87966217D01*
X112327160Y87966217D01*
X112125136Y88453945D01*
X111751845Y88827236D01*
X111264117Y89029260D01*
X110736203Y89029260D01*
X110248475Y88827236D01*
X109875184Y88453945D01*
X109673160Y87966217D01*
X109327160Y87966217D01*
X109125136Y88453945D01*
X108751845Y88827236D01*
X108264117Y89029260D01*
X107736203Y89029260D01*
X107248475Y88827236D01*
X106875184Y88453945D01*
X106673160Y87966217D01*
X106327160Y87966217D01*
X106125136Y88453945D01*
X105751845Y88827236D01*
X105264117Y89029260D01*
X104736203Y89029260D01*
X104248475Y88827236D01*
X103875184Y88453945D01*
X103673160Y87966217D01*
X103327160Y87966217D01*
X103125136Y88453945D01*
X102751845Y88827236D01*
X102264117Y89029260D01*
X101736203Y89029260D01*
X101248475Y88827236D01*
X100875184Y88453945D01*
X100673160Y87966217D01*
X100327160Y87966217D01*
X100125136Y88453945D01*
X99751845Y88827236D01*
X99264117Y89029260D01*
X98736203Y89029260D01*
X98248475Y88827236D01*
X97875184Y88453945D01*
X97673160Y87966217D01*
X97327160Y87966217D01*
X97125136Y88453945D01*
X96751845Y88827236D01*
X96264117Y89029260D01*
X95736203Y89029260D01*
X95248475Y88827236D01*
X94875184Y88453945D01*
X94673160Y87966217D01*
X94327160Y87966217D01*
X94125136Y88453945D01*
X93751845Y88827236D01*
X93264117Y89029260D01*
X92736203Y89029260D01*
X92248475Y88827236D01*
X91875184Y88453945D01*
X91673160Y87966217D01*
X91327160Y87966217D01*
X91125136Y88453945D01*
X90751845Y88827236D01*
X90264117Y89029260D01*
X89736203Y89029260D01*
X89248475Y88827236D01*
X88875184Y88453945D01*
X88673160Y87966217D01*
X88327160Y87966217D01*
X88125136Y88453945D01*
X87751845Y88827236D01*
X87264117Y89029260D01*
X86736203Y89029260D01*
X86248475Y88827236D01*
X85875184Y88453945D01*
X85673160Y87966217D01*
X85327160Y87966217D01*
X85125136Y88453945D01*
X84751845Y88827236D01*
X84264117Y89029260D01*
X83736203Y89029260D01*
X83248475Y88827236D01*
X82875184Y88453945D01*
X82673160Y87966217D01*
X82327160Y87966217D01*
X82125136Y88453945D01*
X81751845Y88827236D01*
X81264117Y89029260D01*
X80736203Y89029260D01*
X80248475Y88827236D01*
X79875184Y88453945D01*
X79673160Y87966217D01*
X79327160Y87966217D01*
X79125136Y88453945D01*
X78751845Y88827236D01*
X78264117Y89029260D01*
X77736203Y89029260D01*
X77248475Y88827236D01*
X76875184Y88453945D01*
X76673160Y87966217D01*
X76327160Y87966217D01*
X76125136Y88453945D01*
X75751845Y88827236D01*
X75264117Y89029260D01*
X74736203Y89029260D01*
X74248475Y88827236D01*
X73875184Y88453945D01*
X73673160Y87966217D01*
X73327160Y87966217D01*
X73125136Y88453945D01*
X72751845Y88827236D01*
X72264117Y89029260D01*
X71736203Y89029260D01*
X71248475Y88827236D01*
X70875184Y88453945D01*
X70673160Y87966217D01*
X70327160Y87966217D01*
X70125136Y88453945D01*
X69751845Y88827236D01*
X69264117Y89029260D01*
X68736203Y89029260D01*
X68248475Y88827236D01*
X67875184Y88453945D01*
X67673160Y87966217D01*
X67327160Y87966217D01*
X67125136Y88453945D01*
X66751845Y88827236D01*
X66264117Y89029260D01*
X65736203Y89029260D01*
X65248475Y88827236D01*
X64875184Y88453945D01*
X64673160Y87966217D01*
X64327160Y87966217D01*
X64125136Y88453945D01*
X63751845Y88827236D01*
X63264117Y89029260D01*
X62736203Y89029260D01*
X62248475Y88827236D01*
X61875184Y88453945D01*
X61673160Y87966217D01*
X61327160Y87966217D01*
X61125136Y88453945D01*
X60751845Y88827236D01*
X60264117Y89029260D01*
X59736203Y89029260D01*
X59248475Y88827236D01*
X58875184Y88453945D01*
X58673160Y87966217D01*
X58327160Y87966217D01*
X58125136Y88453945D01*
X57751845Y88827236D01*
X57264117Y89029260D01*
X56736203Y89029260D01*
X56248475Y88827236D01*
X55875184Y88453945D01*
X55673160Y87966217D01*
X55327160Y87966217D01*
X55125136Y88453945D01*
X54751845Y88827236D01*
X54264117Y89029260D01*
X53736203Y89029260D01*
X53248475Y88827236D01*
X52875184Y88453945D01*
X52673160Y87966217D01*
X52327160Y87966217D01*
X52125136Y88453945D01*
X51751845Y88827236D01*
X51264117Y89029260D01*
X50736203Y89029260D01*
X50248475Y88827236D01*
X49875184Y88453945D01*
X49673160Y87966217D01*
X49327160Y87966217D01*
X49125136Y88453945D01*
X48751845Y88827236D01*
X48264117Y89029260D01*
X47736203Y89029260D01*
X47248475Y88827236D01*
X46875184Y88453945D01*
X46673160Y87966217D01*
X46327160Y87966217D01*
X46125136Y88453945D01*
X45751845Y88827236D01*
X45264117Y89029260D01*
X44736203Y89029260D01*
X44248475Y88827236D01*
X43875184Y88453945D01*
X43673160Y87966217D01*
X268436Y87966217D01*
X160Y88234493D01*
X-921494Y87312839D01*
X-3897840Y87312839D01*
X-3897840Y90554106D01*
X-2886018Y90554106D01*
X-2886018Y89450414D01*
X-2689261Y89080606D01*
X-1767607Y90002260D01*
X1767927Y90002260D01*
X2689581Y89080606D01*
X2886338Y89450414D01*
X2886338Y90554106D01*
X137113982Y90554106D01*
X137113982Y89450414D01*
X137310739Y89080606D01*
X138232393Y90002260D01*
X141767927Y90002260D01*
X142689581Y89080606D01*
X142886338Y89450414D01*
X142886338Y90554106D01*
X142689581Y90923914D01*
X141767927Y90002260D01*
X138232393Y90002260D01*
X137310739Y90923914D01*
X137113982Y90554106D01*
X2886338Y90554106D01*
X2689581Y90923914D01*
X1767927Y90002260D01*
X-1767607Y90002260D01*
X-2689261Y90923914D01*
X-2886018Y90554106D01*
X-3897840Y90554106D01*
X-3897840Y92545798D01*
X-3751957Y92691681D01*
X-921494Y92691681D01*
X160Y91770027D01*
X921814Y92691681D01*
X139078506Y92691681D01*
X140000160Y91770027D01*
X140921814Y92691681D01*
X140552006Y92888438D01*
X139448314Y92888438D01*
X139078506Y92691681D01*
X921814Y92691681D01*
X552006Y92888438D01*
X-551686Y92888438D01*
X-921494Y92691681D01*
X-3751957Y92691681D01*
X-2543377Y93900260D01*
X142543698Y93900260D01*
X143898160Y92545797D01*
G04 #@! TD*
M02*
