M48
; DRILL file {KiCad (5.1.5)-3} date 01/02/2022 02:21:32
; FORMAT={-:-/ absolute / metric / decimal}
; #@! TF.CreationDate,2022-02-01T02:21:32+01:00
; #@! TF.GenerationSoftware,Kicad,Pcbnew,(5.1.5)-3
; #@! TF.FileFunction,Plated,1,6,PTH
FMAT,2
METRIC
T1C0.250
T2C0.300
T3C0.400
T4C0.500
T5C0.780
T6C1.300
T7C1.350
T8C3.200
%
G90
G05
T1
X2.05Y15.565
X2.699Y15.565
X3.201Y15.565
X3.85Y15.565
X3.9Y17.615
X3.9Y-13.085
X4.549Y17.615
X5.051Y17.615
X5.7Y17.615
X8.025Y12.615
X8.45Y18.89
X8.9Y15.765
X9.2Y-18.785
X10.575Y10.89
X10.85Y16.09
X11.5Y15.14
X11.75Y-13.285
X12.5Y7.515
X13.05Y18.34
X13.225Y13.915
X13.225Y12.915
X13.225Y11.915
X14.225Y13.915
X14.225Y12.915
X14.225Y11.915
X14.75Y-21.835
X15.05Y18.015
X15.225Y13.915
X15.225Y12.915
X15.225Y11.915
X16.775Y15.315
X17.45Y10.64
X17.775Y9.415
X19.4Y6.865
X20.125Y9.415
X20.2Y-18.985
X20.775Y12.64
X20.849Y-18.985
X21.351Y-18.985
X22.0Y-18.985
X24.85Y15.165
X24.85Y14.529
X24.85Y14.026
X24.85Y13.365
X24.85Y11.965
X24.85Y11.329
X24.85Y10.826
X24.85Y10.165
X48.225Y-35.435
X48.874Y-35.435
X49.376Y-35.435
X50.025Y-35.435
X58.7Y24.315
X59.85Y25.84
X63.4Y23.57
X64.074Y23.57
X64.576Y23.57
X64.649Y21.72
X65.151Y21.72
X65.275Y23.57
X67.3Y-35.21
X67.625Y12.195
X67.949Y-35.21
X68.149Y12.62
X68.451Y-35.21
X68.651Y12.62
X68.9Y23.495
X69.1Y-35.21
X69.149Y21.72
X69.175Y12.195
X69.275Y-36.485
X69.564Y23.495
X69.651Y21.72
X69.949Y-36.485
X70.066Y23.495
X70.451Y-36.485
X70.7Y23.495
X71.075Y-36.485
X71.3Y-35.21
X71.949Y-35.21
X72.451Y-35.21
X73.1Y25.115
X73.1Y-35.21
X73.275Y-36.485
X73.949Y-36.485
X73.95Y25.34
X74.451Y-36.485
X75.075Y-36.485
X75.3Y-35.21
X75.45Y25.34
X75.949Y-35.21
X76.451Y-35.21
X77.1Y-35.21
X77.275Y-36.485
X77.949Y-36.485
X78.451Y-36.485
X78.7Y25.34
X79.075Y-36.485
X79.3Y-35.21
X79.85Y25.34
X79.949Y-35.21
X80.451Y-35.21
X81.1Y-35.21
X81.275Y-36.485
X81.949Y-36.485
X82.451Y-36.485
X83.075Y-36.485
X83.3Y-35.21
X83.4Y23.57
X83.949Y-35.21
X84.074Y23.57
X84.451Y-35.21
X84.576Y23.57
X84.649Y21.72
X85.1Y-35.21
X85.151Y21.72
X85.275Y23.57
X85.275Y-36.485
X85.949Y-36.485
X86.451Y-36.485
X87.075Y-36.485
X87.3Y-35.21
X87.75Y15.07
X87.949Y-35.21
X88.149Y15.62
X88.451Y-35.21
X88.651Y15.62
X88.9Y23.495
X89.05Y15.07
X89.1Y-35.21
X89.149Y21.72
X89.275Y-36.485
X89.564Y23.495
X89.651Y21.72
X89.949Y-36.485
X90.066Y23.495
X90.451Y-36.485
X90.7Y23.495
X91.075Y-36.485
X91.3Y-35.21
X91.949Y-35.21
X92.4Y24.765
X92.451Y-35.21
X93.1Y-35.21
X93.275Y-36.485
X93.949Y-36.485
X93.95Y25.59
X94.451Y-36.485
X95.075Y-36.485
X95.3Y-35.21
X95.45Y25.59
X95.949Y-35.21
X96.451Y-35.21
X97.1Y-35.21
X97.275Y-36.485
X97.949Y-36.485
X98.451Y-36.485
X98.7Y25.59
X99.075Y-36.485
X99.85Y25.59
X100.3Y-35.21
X100.949Y-35.21
X101.451Y-35.21
X102.1Y-35.21
X102.275Y-36.485
X102.949Y-36.485
X103.4Y23.57
X103.451Y-36.485
X104.074Y23.57
X104.075Y-36.485
X104.3Y-35.21
X104.576Y23.57
X104.649Y21.72
X104.949Y-35.21
X105.151Y21.72
X105.275Y23.57
X105.451Y-35.21
X106.1Y-35.21
X106.275Y-36.485
X106.949Y-36.485
X107.451Y-36.485
X107.75Y15.07
X108.075Y-36.485
X108.149Y15.62
X108.3Y-35.21
X108.651Y15.62
X108.9Y23.495
X108.949Y-35.21
X109.05Y15.07
X109.149Y21.72
X109.451Y-35.21
X109.564Y23.495
X109.651Y21.72
X110.066Y23.495
X110.1Y-35.21
X110.275Y-36.485
X110.7Y23.495
X110.949Y-36.485
X111.451Y-36.485
X112.075Y-36.485
X112.3Y-35.21
X112.45Y24.615
X112.949Y-35.21
X113.451Y-35.21
X113.95Y25.59
X114.1Y-35.21
X114.275Y-36.485
X114.949Y-36.485
X115.45Y25.59
X115.451Y-36.485
X116.075Y-36.485
X116.3Y-35.21
X116.949Y-35.21
X117.451Y-35.21
X118.1Y-35.21
X118.275Y-36.485
X118.7Y25.59
X118.949Y-36.485
X119.451Y-36.485
X119.85Y25.59
X120.075Y-36.485
X120.3Y-35.21
X120.949Y-35.21
X121.451Y-35.21
X122.1Y-35.21
X122.275Y-36.485
X122.949Y-36.485
X123.4Y23.57
X123.451Y-36.485
X124.074Y23.57
X124.075Y-36.485
X124.3Y-35.21
X124.576Y23.57
X124.649Y21.72
X124.949Y-35.21
X125.151Y21.72
X125.275Y23.57
X125.451Y-35.21
X126.1Y-35.21
X126.275Y-36.485
X126.949Y-36.485
X127.451Y-36.485
X127.75Y15.07
X128.075Y-36.485
X128.149Y15.62
X128.3Y-35.21
X128.651Y15.62
X128.9Y23.495
X128.949Y-35.21
X129.05Y15.07
X129.149Y21.72
X129.451Y-35.21
X129.564Y23.495
X129.651Y21.72
X130.066Y23.495
X130.1Y-35.21
X130.275Y-29.485
X130.7Y23.495
X130.949Y-29.485
X131.451Y-29.485
X132.075Y-29.485
X133.95Y25.84
X135.45Y25.84
X140.2Y24.365
X144.6Y22.565
T2
X0.75Y-14.735
X0.75Y-15.735
X0.75Y-16.735
X0.75Y-17.735
X1.75Y-21.385
X2.0Y-18.985
X2.8Y-21.485
X3.55Y-20.985
X4.6Y-24.535
X4.85Y-10.685
X6.15Y-8.685
X7.1Y-22.135
X7.5Y-8.685
X7.9Y-23.385
X8.2Y-22.135
X8.6Y-10.035
X9.375Y6.415
X9.4Y-11.435
X9.7Y17.64
X9.7Y16.64
X9.75Y-12.435
X9.875Y12.64
X10.375Y6.415
X10.6Y14.74
X10.875Y12.64
X11.325Y9.465
X11.375Y6.415
X11.825Y15.84
X11.9Y-21.835
X12.325Y9.465
X12.5Y-19.935
X12.5Y-20.885
X13.2Y-13.635
X13.35Y16.39
X14.5Y-13.685
X14.95Y16.215
X15.575Y16.965
X15.95Y16.215
X16.75Y-15.935
X16.75Y-16.935
X16.75Y-17.935
X16.75Y-18.935
X17.675Y14.465
X17.825Y12.59
X18.05Y-31.485
X18.05Y-32.485
X18.05Y-33.485
X18.05Y-34.485
X18.05Y-35.485
X18.05Y-36.485
X18.05Y-37.485
X18.05Y-38.485
X18.05Y-39.485
X18.05Y-40.485
X18.3Y16.415
X18.45Y17.415
X18.675Y14.465
X18.8Y12.54
X19.3Y3.965
X19.45Y17.415
X19.75Y1.015
X19.75Y-0.485
X19.75Y-1.985
X19.75Y-3.485
X19.75Y-4.985
X19.8Y15.19
X21.25Y1.015
X21.25Y-0.485
X21.25Y-1.985
X21.25Y-3.485
X21.25Y-4.985
X21.9Y3.965
X22.75Y1.015
X22.75Y-0.485
X22.75Y-1.985
X22.75Y-3.485
X22.75Y-4.985
X23.6Y-41.735
X24.6Y-42.735
X24.85Y-0.635
X25.1Y-33.185
X25.1Y-34.185
X25.1Y-35.185
X25.1Y-36.185
X25.1Y-37.185
X25.1Y-38.185
X26.1Y-33.185
X26.1Y-34.185
X26.1Y-35.185
X26.1Y-36.185
X26.1Y-37.185
X26.1Y-38.185
X26.35Y-0.635
X26.6Y-4.635
X26.6Y-5.885
X26.6Y-7.135
X27.85Y-0.635
X27.85Y-4.635
X27.85Y-5.885
X27.85Y-7.135
X28.7Y-19.985
X29.1Y-4.635
X29.1Y-5.885
X29.1Y-7.135
X29.35Y-0.635
X29.75Y-20.785
X30.15Y26.965
X30.15Y25.965
X30.15Y24.965
X30.15Y23.965
X31.15Y26.965
X31.15Y25.965
X31.15Y24.965
X31.15Y23.965
X31.55Y-20.385
X32.15Y26.965
X32.15Y25.965
X32.15Y24.965
X32.15Y23.965
X33.15Y26.965
X33.15Y25.965
X33.15Y24.965
X33.15Y23.965
X33.95Y-5.585
X33.95Y-6.585
X34.15Y26.965
X34.15Y25.965
X34.15Y24.965
X34.15Y23.965
X34.2Y-9.935
X34.2Y-10.935
X34.2Y-11.935
X35.15Y26.965
X35.15Y25.965
X35.15Y24.965
X35.15Y23.965
X35.2Y-9.935
X35.2Y-10.935
X35.2Y-11.935
X35.75Y-37.535
X36.15Y26.965
X36.15Y25.965
X36.15Y24.965
X36.15Y23.965
X36.4Y-7.835
X36.4Y-8.835
X36.4Y-9.835
X36.4Y-10.835
X36.4Y-11.835
X37.15Y26.965
X37.15Y25.965
X37.15Y24.965
X37.15Y23.965
X38.15Y26.965
X38.15Y25.965
X38.15Y24.965
X38.15Y23.965
X38.7Y6.515
X39.15Y26.965
X39.15Y25.965
X39.15Y24.965
X39.15Y23.965
X42.75Y27.265
X42.75Y26.265
X42.75Y25.265
X43.75Y27.265
X43.75Y26.265
X43.75Y25.265
X44.75Y27.265
X44.75Y26.265
X44.75Y25.265
X45.75Y27.265
X45.75Y26.265
X45.75Y25.265
X46.75Y27.265
X46.75Y26.265
X46.75Y25.265
X47.75Y27.265
X47.75Y26.265
X47.75Y25.265
X48.75Y27.265
X48.75Y26.265
X48.75Y25.265
X48.75Y-40.135
X49.75Y27.265
X49.75Y26.265
X49.75Y25.265
X55.5Y20.265
X57.55Y14.315
X59.5Y15.015
X60.875Y23.495
X64.15Y21.27
X64.66Y16.67
X65.65Y21.27
X66.15Y22.57
X66.16Y16.67
X66.35Y15.615
X66.7Y14.565
X66.925Y22.095
X67.0Y-40.335
X67.15Y25.015
X67.15Y21.27
X67.66Y16.67
X68.65Y21.27
X69.16Y16.67
X70.15Y21.27
X70.66Y16.67
X77.6Y14.565
X79.45Y14.615
X80.875Y23.495
X84.15Y21.27
X84.66Y16.67
X85.65Y21.27
X86.15Y23.07
X86.16Y16.67
X86.35Y14.615
X86.7Y13.565
X86.95Y22.615
X87.15Y25.165
X87.15Y21.52
X87.66Y16.67
X88.65Y21.27
X89.16Y16.67
X90.15Y21.27
X90.66Y16.67
X97.8Y15.515
X99.7Y-39.785
X99.9Y15.615
X100.875Y23.495
X104.15Y21.27
X104.66Y16.67
X105.65Y21.27
X106.15Y23.07
X106.16Y16.67
X106.35Y15.615
X106.7Y14.565
X106.95Y22.615
X107.14Y21.52
X107.15Y25.165
X107.66Y16.67
X108.65Y21.27
X109.16Y16.67
X110.15Y21.27
X110.66Y16.67
X117.7Y15.565
X119.9Y15.615
X120.875Y23.495
X124.15Y21.27
X124.66Y16.67
X125.65Y21.27
X126.15Y23.07
X126.16Y16.67
X126.35Y15.615
X126.7Y14.565
X126.925Y22.595
X127.14Y21.52
X127.15Y25.165
X127.66Y16.67
X128.65Y21.27
X129.16Y16.67
X130.15Y21.27
X130.66Y16.67
X132.4Y-40.485
X133.425Y23.52
T3
X19.6Y-43.335
X22.6Y-43.335
X27.8Y-31.385
X30.45Y-43.085
X33.2Y-43.085
X35.7Y-43.085
X37.95Y-3.835
X38.1Y-1.035
X38.2Y-43.085
X40.2Y-43.085
X42.2Y-43.085
X44.2Y-43.085
X46.2Y-43.085
X49.2Y-43.085
X52.2Y-43.085
X54.2Y-43.085
X56.2Y-43.085
X58.2Y-43.085
X60.2Y-43.085
X61.0Y15.065
X62.2Y-43.085
X64.2Y-43.085
X66.7Y-43.085
X66.8Y-37.035
X69.2Y-43.085
X69.3Y26.315
X71.2Y-43.085
X73.2Y-43.085
X74.0Y14.365
X75.2Y-43.085
X77.2Y-43.085
X79.2Y-43.085
X81.2Y-43.085
X82.0Y12.82
X83.2Y-43.085
X85.2Y-43.085
X87.2Y-43.085
X89.2Y-43.085
X89.3Y26.315
X91.2Y-43.085
X93.2Y-43.085
X94.05Y13.365
X95.2Y-43.085
X97.2Y-43.085
X97.25Y-40.235
X99.7Y-43.085
X102.0Y13.32
X102.2Y-43.085
X104.2Y-43.085
X106.2Y-43.085
X108.2Y-43.085
X109.3Y26.315
X110.2Y-43.085
X112.2Y-43.085
X113.85Y13.415
X114.2Y-43.085
X116.2Y-43.085
X118.2Y-43.085
X120.2Y-43.085
X122.0Y13.32
X122.2Y-43.085
X124.2Y-43.085
X126.2Y-43.085
X128.2Y-43.085
X129.3Y26.415
X130.2Y-43.085
X132.075Y-41.66
X134.6Y13.315
T4
X-2.4Y0.0
X-1.697Y1.697
X-1.697Y-1.697
X0.0Y2.4
X0.0Y-2.4
X1.697Y1.697
X1.697Y-1.697
X2.4Y0.0
X131.5Y0.0
X132.203Y1.697
X132.203Y-1.697
X133.9Y2.4
X133.9Y-2.4
X135.597Y1.697
X135.597Y-1.697
X136.3Y0.0
T5
X27.09Y5.095
X27.09Y2.595
X28.09Y7.095
X28.09Y0.595
X29.09Y5.095
X29.09Y2.595
X30.09Y7.095
X30.09Y0.595
X31.09Y5.095
X31.09Y2.595
X32.09Y7.095
X32.09Y0.595
X33.09Y5.095
X33.09Y2.595
X34.09Y7.095
X34.09Y0.595
X35.09Y5.095
X35.09Y2.595
X36.09Y7.095
X36.09Y0.595
X37.09Y5.095
X37.09Y2.595
X40.09Y7.095
X40.09Y0.595
X41.09Y5.095
X41.09Y2.595
X42.09Y7.095
X42.09Y0.595
X43.09Y5.095
X43.09Y2.595
X44.09Y7.095
X44.09Y0.595
X45.09Y5.095
X45.09Y2.595
X46.09Y7.095
X46.09Y0.595
X47.09Y5.095
X47.09Y2.595
X48.09Y7.095
X48.09Y0.595
X49.09Y5.095
X49.09Y2.595
X50.09Y7.095
X50.09Y0.595
X51.09Y5.095
X51.09Y2.595
X52.09Y7.095
X52.09Y0.595
X53.09Y5.095
X53.09Y2.595
X54.09Y7.095
X54.09Y0.595
X55.09Y5.095
X55.09Y2.595
X56.09Y7.095
X56.09Y0.595
X57.09Y5.095
X57.09Y2.595
X58.09Y7.095
X58.09Y0.595
X59.09Y5.095
X59.09Y2.595
X60.09Y7.095
X60.09Y0.595
X61.09Y5.095
X61.09Y2.595
X62.09Y7.095
X62.09Y0.595
X63.09Y5.095
X63.09Y2.595
X64.09Y7.095
X64.09Y0.595
X65.09Y5.095
X65.09Y2.595
X66.09Y7.095
X66.09Y0.595
X67.09Y5.095
X67.09Y2.595
X68.09Y7.095
X68.09Y0.595
X69.09Y5.095
X69.09Y2.595
X70.09Y7.095
X70.09Y0.595
X71.09Y5.095
X71.09Y2.595
X72.09Y7.095
X72.09Y0.595
X73.09Y5.095
X73.09Y2.595
X74.09Y7.095
X74.09Y0.595
X75.09Y5.095
X75.09Y2.595
X76.09Y7.095
X76.09Y0.595
X77.09Y5.095
X77.09Y2.595
T6
X60.82Y19.385
T7
X120.82Y19.385
X133.98Y19.385
X73.98Y19.385
X100.82Y19.385
X113.98Y19.385
X80.82Y19.385
X93.98Y19.385
T8
X0.0Y0.0
X133.9Y0.0
T0
M30
