M48
; DRILL file {KiCad (5.1.6)-1} date 11/02/21 14:31:28
; FORMAT={-:-/ absolute / metric / decimal}
; #@! TF.CreationDate,2021-11-02T14:31:28+01:00
; #@! TF.GenerationSoftware,Kicad,Pcbnew,(5.1.6)-1
; #@! TF.FileFunction,Plated,1,6,PTH
FMAT,2
METRIC
T1C0.200
T2C0.300
T3C0.780
T4C1.850
T5C3.200
%
G90
G05
T1
X-0.55Y-9.8
X-0.55Y-10.8
X-0.55Y-11.8
X-0.55Y-12.8
X-0.55Y-14.025
X-0.55Y-15.025
X-0.55Y-16.025
X-0.55Y-17.025
X0.45Y-9.8
X0.45Y-10.8
X0.45Y-11.8
X0.45Y-12.8
X0.45Y-14.025
X0.45Y-15.025
X0.45Y-16.025
X0.45Y-17.025
X2.425Y-0.15
X2.425Y-1.15
X2.425Y-2.15
X2.425Y-3.15
X3.425Y-0.15
X3.425Y-1.15
X3.425Y-2.15
X3.425Y-3.15
X6.05Y-14.55
X6.4Y-8.9
X6.725Y-22.65
X6.725Y-23.65
X6.725Y-24.65
X6.725Y-25.65
X7.45Y-37.9
X7.725Y-22.65
X7.725Y-23.65
X7.725Y-24.65
X7.725Y-25.65
X7.75Y-8.9
X8.1Y-38.45
X8.65Y-10.85
X8.65Y-19.7
X8.7Y-39.15
X9.0Y-22.9
X9.025Y1.575
X9.025Y0.575
X10.025Y1.575
X10.25Y-22.95
X10.375Y-1.225
X11.025Y1.575
X11.15Y-41.3
X11.35Y-16.85
X11.375Y-1.225
X11.9Y-16.45
X12.025Y1.575
X12.15Y-15.75
X12.375Y-1.225
X13.175Y-2.45
X13.3Y-16.0
X13.35Y-37.25
X13.6Y-23.25
X13.625Y-25.575
X13.75Y-18.05
X14.15Y-46.75
X14.525Y-17.375
X14.65Y1.8
X14.675Y-2.45
X14.9Y-23.475
X15.15Y-40.05
X15.55Y-24.5
X15.8Y1.8
X16.15Y-25.1
X16.175Y-2.45
X16.6Y-35.1
X16.95Y1.8
X16.95Y-7.375
X16.95Y-8.375
X16.95Y-9.375
X16.95Y-10.375
X17.1Y-64.275
X17.1Y-65.275
X17.1Y-66.275
X17.1Y-67.275
X17.1Y-68.275
X17.1Y-69.275
X17.675Y-2.45
X17.7Y-29.0
X17.95Y-7.375
X17.95Y-8.375
X17.95Y-9.375
X17.95Y-10.375
X18.1Y1.8
X18.1Y-64.275
X18.1Y-65.275
X18.1Y-66.275
X18.1Y-67.275
X18.1Y-68.275
X18.1Y-69.275
X18.5Y-30.35
X18.65Y-27.0
X19.1Y-31.5
X19.1Y-64.275
X19.1Y-65.275
X19.1Y-66.275
X19.1Y-67.275
X19.1Y-68.275
X19.1Y-69.275
X19.175Y-2.45
X19.2Y-24.025
X19.25Y1.8
X19.65Y-27.0
X19.85Y-20.15
X20.1Y-64.275
X20.1Y-65.275
X20.1Y-66.275
X20.1Y-67.275
X20.1Y-68.275
X20.1Y-69.275
X20.4Y1.8
X20.65Y-27.0
X20.675Y-2.45
X20.7Y-58.4
X20.8Y-24.025
X20.85Y-20.15
X21.2Y-56.1
X21.2Y-62.6
X21.3Y-57.7
X21.55Y1.8
X21.85Y-20.15
X22.05Y-41.65
X22.175Y-2.45
X22.2Y-15.25
X22.3Y-60.85
X22.375Y-24.025
X22.55Y-47.95
X22.8Y-9.7
X23.15Y-50.9
X23.25Y-46.25
X23.35Y-69.1
X23.675Y-2.45
X23.95Y-49.5
X24.025Y-65.875
X24.025Y-66.875
X24.025Y-67.875
X24.225Y-12.025
X24.225Y-13.175
X24.225Y-14.325
X24.225Y-15.775
X24.5Y-58.65
X24.6Y-30.85
X24.65Y-33.175
X24.75Y-40.55
X25.025Y-65.875
X25.025Y-66.875
X25.025Y-67.875
X25.05Y-0.3
X25.125Y-26.75
X25.125Y-27.75
X25.125Y-28.75
X25.175Y-69.65
X25.175Y-70.65
X25.175Y-71.65
X25.35Y-33.75
X25.525Y-9.2
X25.525Y-10.35
X25.525Y-11.5
X25.525Y-12.65
X25.525Y-13.8
X25.55Y-38.0
X25.575Y-23.05
X25.575Y-24.05
X25.575Y-25.05
X25.575Y-30.85
X25.575Y-31.65
X25.65Y-2.475
X25.65Y-3.475
X25.65Y-4.475
X25.65Y-37.05
X25.8Y-20.15
X26.025Y-65.875
X26.025Y-66.875
X26.025Y-67.875
X26.1Y-40.3
X26.25Y-54.95
X26.45Y-34.6
X27.0Y-70.85
X27.0Y-71.5
X27.2Y-55.4
X27.45Y-40.0
X27.55Y-47.05
X27.65Y-70.5
X28.3Y-68.2
X29.15Y-49.2
X29.15Y-50.0
X29.15Y-50.8
X29.2Y-46.65
X29.4Y-12.675
X29.4Y-13.825
X29.5Y-32.15
X29.5Y-37.4
X29.65Y-67.05
X29.925Y-27.625
X29.925Y-28.375
X29.95Y-49.2
X29.95Y-50.0
X29.95Y-50.8
X29.975Y-26.575
X30.2Y-66.65
X30.475Y-27.025
X30.5Y-32.15
X30.55Y-9.05
X30.55Y-10.2
X30.55Y-11.35
X30.55Y-12.675
X30.55Y-13.825
X30.65Y-66.25
X30.7Y-36.95
X30.75Y-49.2
X30.75Y-50.0
X30.75Y-50.8
X30.85Y-61.1
X30.85Y-61.85
X30.85Y-62.6
X30.85Y-63.35
X30.85Y-64.1
X30.925Y-27.625
X30.925Y-28.375
X30.95Y-39.1
X30.95Y-39.9
X30.95Y-40.7
X30.95Y-47.3
X31.05Y-65.8
X31.3Y-36.4
X31.45Y-62.75
X31.5Y-32.15
X31.5Y-65.35
X31.7Y-9.05
X31.7Y-10.2
X31.7Y-11.35
X31.7Y-12.675
X31.7Y-13.825
X31.75Y-39.1
X31.75Y-39.9
X31.75Y-40.7
X31.9Y-47.75
X31.925Y-27.625
X31.925Y-28.375
X32.0Y-63.05
X32.5Y-32.15
X32.5Y-63.6
X32.55Y-39.1
X32.55Y-39.9
X32.55Y-40.7
X32.85Y-9.05
X32.85Y-10.2
X32.85Y-11.35
X32.85Y-12.675
X32.85Y-13.825
X33.0Y-37.05
X33.1Y-60.25
X33.2Y-18.05
X33.5Y-32.15
X33.7Y-58.75
X33.75Y-42.0
X33.95Y-53.9
X33.95Y-55.2
X34.0Y-17.3
X34.05Y-52.6
X34.225Y-48.7
X34.225Y-51.3
X34.275Y-50.0
X34.5Y-32.15
X34.55Y-41.2
X34.6Y-38.65
X35.2Y-40.8
X35.5Y-32.15
X36.5Y-32.15
X36.55Y-39.65
X36.675Y-6.5
X36.9Y-26.675
X36.9Y-27.675
X37.2Y-41.7
X37.675Y-6.5
X37.725Y-11.075
X37.725Y-12.075
X37.725Y-13.075
X37.9Y-26.675
X37.9Y-27.675
X38.675Y-6.5
X38.725Y-11.075
X38.725Y-12.075
X38.725Y-13.075
X39.3Y-28.25
X40.75Y-7.95
X40.825Y-12.975
X40.825Y-13.975
X40.825Y-14.975
X43.45Y-15.625
X44.6Y-15.425
X50.0Y-65.5
X50.05Y-68.8
X51.1Y-63.9
X51.65Y-64.3
X57.1Y-8.25
X76.1Y-65.85
X77.975Y-54.8
X78.275Y-54.0
X78.853Y-54.0
X79.153Y-54.8
X79.453Y-55.6
X80.031Y-55.6
X80.331Y-54.8
X80.631Y-54.0
X81.208Y-54.0
X81.508Y-54.8
X81.808Y-55.6
X82.386Y-55.6
X82.686Y-54.8
X82.986Y-54.0
X83.564Y-54.0
X83.864Y-54.8
X84.164Y-55.6
X84.742Y-55.6
X85.042Y-54.8
X85.342Y-54.0
X85.92Y-54.0
X86.22Y-54.8
X86.52Y-55.6
X87.097Y-55.6
X87.397Y-54.8
X87.697Y-54.0
X88.275Y-54.0
X88.575Y-54.8
X88.875Y-55.6
X89.453Y-55.6
X89.753Y-54.8
X90.053Y-54.0
X90.631Y-54.0
X90.931Y-54.8
X91.231Y-55.6
X91.809Y-55.6
X92.109Y-54.8
X92.409Y-54.0
X92.986Y-54.0
X93.286Y-54.8
X93.586Y-55.6
X94.164Y-55.6
X94.464Y-54.8
X94.764Y-54.0
X95.342Y-54.0
X95.642Y-54.8
X95.942Y-55.6
X96.52Y-55.6
X96.82Y-54.8
X97.625Y-47.25
X97.925Y-46.45
X98.503Y-46.45
X98.803Y-47.25
X99.103Y-48.05
X99.681Y-48.05
X99.981Y-47.25
X100.281Y-46.45
X100.858Y-46.45
X101.158Y-47.25
X101.458Y-48.05
X102.036Y-48.05
X102.336Y-47.25
X102.636Y-46.45
X103.214Y-46.45
X103.514Y-47.25
X103.814Y-48.05
X104.392Y-48.05
X104.692Y-47.25
X104.992Y-46.45
X105.57Y-46.45
X105.87Y-47.25
X106.17Y-48.05
X106.747Y-48.05
X107.047Y-47.25
X107.347Y-46.45
X107.925Y-46.45
X108.225Y-47.25
X108.525Y-48.05
X109.103Y-48.05
X109.403Y-47.25
X109.703Y-46.45
X110.281Y-46.45
X110.581Y-47.25
X110.881Y-48.05
X111.459Y-48.05
X111.759Y-47.25
X112.059Y-46.45
X112.636Y-46.45
X112.936Y-47.25
X113.236Y-48.05
X113.814Y-48.05
X114.114Y-47.25
X114.414Y-46.45
X114.992Y-46.45
X115.292Y-47.25
X115.592Y-48.05
X116.17Y-48.05
X116.47Y-47.25
X119.025Y-44.525
X119.025Y-45.525
X119.025Y-46.525
X119.5Y-36.725
X119.5Y-37.725
X119.825Y-50.45
X119.825Y-51.45
X120.5Y-36.725
X120.5Y-37.725
X120.825Y-50.45
X120.825Y-51.45
X121.5Y-36.725
X121.5Y-37.725
X125.75Y-59.2
X126.35Y-59.2
X126.6Y-5.5
X126.95Y-59.2
X127.05Y-47.4
X127.2Y-33.55
X127.55Y-59.2
X127.711Y-34.0
X127.95Y-7.2
X127.95Y-8.8
X128.1Y-60.5
X128.689Y-34.0
X128.75Y-61.7
X129.15Y-33.55
X133.275Y1.75
X133.275Y0.75
X134.275Y1.75
X134.275Y0.75
X135.275Y1.75
X135.275Y0.75
X135.75Y-5.45
X135.75Y-6.45
X136.275Y1.75
X136.275Y0.75
X137.0Y-5.45
X137.0Y-6.45
X137.275Y1.75
X137.275Y0.75
X138.25Y-5.45
X138.25Y-6.45
X138.275Y1.75
X138.275Y0.75
X139.275Y1.75
X139.275Y0.75
X139.5Y-5.45
X139.5Y-6.45
X140.75Y-5.45
X140.75Y-6.45
X142.0Y-5.45
X142.0Y-6.45
X143.25Y-5.45
X143.25Y-6.45
X144.5Y-5.45
X144.5Y-6.45
X145.75Y-5.45
X145.75Y-6.45
X147.0Y-5.45
X147.0Y-6.45
X148.25Y-5.45
X148.25Y-6.45
X149.5Y-5.45
X149.5Y-6.45
X150.75Y-5.45
X150.75Y-6.45
X152.0Y-5.45
X152.0Y-6.45
T2
X2.5Y-8.0
X3.15Y-10.0
X3.3Y-5.35
X4.55Y-5.35
X5.5Y-17.5
X5.55Y-13.9
X6.2Y-35.0
X6.25Y-6.95
X6.25Y-31.9
X7.15Y-5.05
X7.6Y-14.0
X7.85Y-20.85
X7.95Y-46.5
X8.0Y-42.7
X8.0Y-44.0
X8.0Y-45.25
X8.05Y-41.4
X9.3Y-36.5
X9.45Y-10.45
X10.2Y-20.05
X10.3Y-10.2
X10.3Y-35.7
X10.45Y-38.9
X10.6Y-12.65
X11.15Y-9.45
X11.2Y-37.65
X11.3Y-31.9
X11.7Y-11.05
X11.85Y-31.3
X11.9Y-46.4
X11.9Y-49.05
X11.95Y-35.8
X12.35Y-22.3
X12.75Y-31.5
X13.125Y-9.5
X13.6Y-22.35
X14.0Y-29.45
X14.05Y-30.55
X14.15Y-6.3
X14.425Y-9.5
X14.85Y-22.35
X14.95Y-8.15
X15.725Y-9.5
X16.1Y-22.3
X17.35Y-13.1
X17.5Y-35.15
X17.8Y-44.7
X18.4Y-33.75
X18.8Y-35.45
X18.8Y-38.05
X18.8Y-39.35
X18.8Y-40.65
X18.8Y-53.25
X19.0Y-36.75
X19.05Y-20.15
X19.571Y-18.215
X19.6Y-12.45
X20.5Y-19.3
X20.8Y-42.7
X20.8Y-44.0
X20.8Y-45.3
X20.85Y-12.45
X21.1Y-33.75
X21.5Y-48.2
X21.5Y-49.5
X21.5Y-50.8
X21.6Y-71.85
X23.15Y-35.45
X23.15Y-36.75
X23.15Y-38.05
X23.15Y-56.45
X23.8Y-16.55
X24.65Y-60.0
X24.85Y-47.1
X24.9Y-48.3
X25.55Y-34.75
X26.75Y-53.6
X26.8Y-37.75
X26.8Y-39.0
X27.3Y-61.35
X27.35Y-45.8
X27.5Y-69.4
X28.0Y-62.55
X28.15Y-57.1
X28.55Y-43.7
X28.95Y-55.5
X28.95Y-56.75
X29.4Y-53.15
X29.6Y-72.15
X30.2Y-47.25
X31.25Y-43.1
X31.3Y-59.25
X31.595Y-72.95
X31.6Y-56.95
X31.7Y-45.8
X31.8Y-37.0
X32.85Y-56.95
X33.995Y-72.95
X34.85Y-43.5
X34.85Y-44.75
X35.35Y-56.15
X35.8Y-9.85
X36.395Y-72.95
X36.55Y-46.1
X36.55Y-47.4
X36.55Y-48.7
X36.55Y-50.0
X36.55Y-51.3
X36.55Y-52.6
X36.55Y-53.9
X38.795Y-72.95
X41.195Y-72.95
X44.225Y-18.0
X45.995Y-72.95
X47.05Y-8.4
X48.35Y-12.4
X48.395Y-72.95
X50.75Y-12.4
X50.795Y-72.95
X50.85Y-13.45
X53.0Y-16.1
X53.0Y-16.95
X53.195Y-72.95
X55.1Y-9.9
X55.595Y-72.95
X57.1Y-9.2
X57.995Y-72.95
X60.395Y-72.95
X62.795Y-72.95
X65.195Y-72.95
X67.595Y-72.95
X69.995Y-72.95
X72.395Y-72.95
X74.795Y-72.95
X77.195Y-72.95
X79.595Y-72.95
X81.995Y-72.95
X84.395Y-72.95
X86.795Y-72.95
X89.195Y-72.95
X91.595Y-72.95
X93.995Y-72.95
X96.395Y-72.95
X98.795Y-72.95
X101.85Y-68.05
X110.595Y-72.95
X112.995Y-72.95
X115.395Y-72.95
X117.795Y-72.95
X120.195Y-72.95
X120.35Y-38.925
X120.35Y-40.025
X120.55Y-45.15
X120.55Y-45.95
X120.55Y-48.55
X121.65Y-43.9
X121.8Y-41.65
X122.25Y-48.05
X122.3Y-38.85
X122.35Y-37.65
X122.4Y-40.45
X122.595Y-72.95
X122.95Y-36.4
X123.1Y1.75
X123.1Y-2.65
X124.15Y-47.35
X124.3Y-33.65
X124.4Y-42.025
X124.4Y-43.175
X124.4Y-44.325
X124.5Y1.75
X124.5Y-2.65
X124.995Y-72.95
X125.15Y-39.15
X125.175Y-53.25
X125.2Y-37.65
X125.55Y-46.9
X125.55Y-42.025
X125.55Y-43.175
X125.55Y-44.325
X126.3Y-51.3
X126.65Y-53.675
X126.7Y-42.025
X126.7Y-43.175
X126.7Y-44.325
X127.395Y-72.95
X127.55Y-51.25
X128.8Y-40.1
X128.9Y-53.025
X129.2Y0.5
X129.25Y-37.75
X129.45Y-45.65
X129.45Y-49.375
X129.65Y-39.2
X129.795Y-72.95
X130.75Y-5.15
X131.75Y1.425
X131.8Y-36.75
X131.85Y-5.15
X132.195Y-72.95
X132.2Y-40.475
X132.3Y-41.725
X132.45Y-3.35
X132.45Y-39.2
X132.85Y-43.65
X136.175Y-42.675
X136.45Y-47.25
X142.35Y-0.4
X144.7Y-0.4
X147.1Y-0.4
X149.55Y-0.4
T3
X28.09Y-0.891
X28.09Y-3.391
X29.09Y1.109
X29.09Y-5.391
X30.09Y-0.891
X30.09Y-3.391
X31.09Y1.109
X31.09Y-5.391
X32.09Y-0.891
X32.09Y-3.391
X33.09Y1.109
X33.09Y-5.391
X34.09Y-0.891
X34.09Y-3.391
X35.09Y1.109
X35.09Y-5.391
X36.09Y-0.891
X36.09Y-3.391
X37.09Y1.109
X37.09Y-5.391
X38.09Y-0.891
X38.09Y-3.391
X41.09Y1.109
X41.09Y-5.391
X42.09Y-0.891
X42.09Y-3.391
X43.09Y1.109
X43.09Y-5.391
X44.09Y-0.891
X44.09Y-3.391
X45.09Y1.109
X45.09Y-5.391
X46.09Y-0.891
X46.09Y-3.391
X47.09Y1.109
X47.09Y-5.391
X48.09Y-0.891
X48.09Y-3.391
X49.09Y1.109
X49.09Y-5.391
X50.09Y-0.891
X50.09Y-3.391
X51.09Y1.109
X51.09Y-5.391
X52.09Y-0.891
X52.09Y-3.391
X53.09Y1.109
X53.09Y-5.391
X54.09Y-0.891
X54.09Y-3.391
X55.09Y1.109
X55.09Y-5.391
X56.09Y-0.891
X56.09Y-3.391
X57.09Y1.109
X57.09Y-5.391
X58.09Y-0.891
X58.09Y-3.391
X59.09Y1.109
X59.09Y-5.391
X60.09Y-0.891
X60.09Y-3.391
X61.09Y1.109
X61.09Y-5.391
X62.09Y-0.891
X62.09Y-3.391
X63.09Y1.109
X63.09Y-5.391
X64.09Y-0.891
X64.09Y-3.391
X65.09Y1.109
X65.09Y-5.391
X66.09Y-0.891
X66.09Y-3.391
X67.09Y1.109
X67.09Y-5.391
X68.09Y-0.891
X68.09Y-3.391
X69.09Y1.109
X69.09Y-5.391
X70.09Y-0.891
X70.09Y-3.391
X71.09Y1.109
X71.09Y-5.391
X72.09Y-0.891
X72.09Y-3.391
X73.09Y1.109
X73.09Y-5.391
X74.09Y-0.891
X74.09Y-3.391
X75.09Y1.109
X75.09Y-5.391
X76.09Y-0.891
X76.09Y-3.391
X77.09Y1.109
X77.09Y-5.391
X78.09Y-0.891
X78.09Y-3.391
X79.09Y1.109
X79.09Y-5.391
X80.09Y-0.891
X80.09Y-3.391
X81.09Y1.109
X81.09Y-5.391
X82.09Y-0.891
X82.09Y-3.391
X83.09Y1.109
X83.09Y-5.391
X84.09Y-0.891
X84.09Y-3.391
X85.09Y1.109
X85.09Y-5.391
X86.09Y-0.891
X86.09Y-3.391
X87.09Y1.109
X87.09Y-5.391
X88.09Y-0.891
X88.09Y-3.391
X89.09Y1.109
X89.09Y-5.391
X90.09Y-0.891
X90.09Y-3.391
X91.09Y1.109
X91.09Y-5.391
X92.09Y-0.891
X92.09Y-3.391
X93.09Y1.109
X93.09Y-5.391
X94.09Y-0.891
X94.09Y-3.391
X95.09Y1.109
X95.09Y-5.391
X96.09Y-0.891
X96.09Y-3.391
X97.09Y1.109
X97.09Y-5.391
X98.09Y-0.891
X98.09Y-3.391
X99.09Y1.109
X99.09Y-5.391
X100.09Y-0.891
X100.09Y-3.391
X101.09Y1.109
X101.09Y-5.391
X102.09Y-0.891
X102.09Y-3.391
X103.09Y1.109
X103.09Y-5.391
X104.09Y-0.891
X104.09Y-3.391
X105.09Y1.109
X105.09Y-5.391
X106.09Y-0.891
X106.09Y-3.391
X107.09Y1.109
X107.09Y-5.391
X108.09Y-0.891
X108.09Y-3.391
X109.09Y1.109
X109.09Y-5.391
X110.09Y-0.891
X110.09Y-3.391
X111.09Y1.109
X111.09Y-5.391
X28.09Y-21.211
X28.09Y-23.711
X29.09Y-19.211
X29.09Y-25.711
X30.09Y-21.211
X30.09Y-23.711
X31.09Y-19.211
X31.09Y-25.711
X32.09Y-21.211
X32.09Y-23.711
X33.09Y-19.211
X33.09Y-25.711
X34.09Y-21.211
X34.09Y-23.711
X35.09Y-19.211
X35.09Y-25.711
X36.09Y-21.211
X36.09Y-23.711
X37.09Y-19.211
X37.09Y-25.711
X38.09Y-21.211
X38.09Y-23.711
X41.09Y-19.211
X41.09Y-25.711
X42.09Y-21.211
X42.09Y-23.711
X43.09Y-19.211
X43.09Y-25.711
X44.09Y-21.211
X44.09Y-23.711
X45.09Y-19.211
X45.09Y-25.711
X46.09Y-21.211
X46.09Y-23.711
X47.09Y-19.211
X47.09Y-25.711
X48.09Y-21.211
X48.09Y-23.711
X49.09Y-19.211
X49.09Y-25.711
X50.09Y-21.211
X50.09Y-23.711
X51.09Y-19.211
X51.09Y-25.711
X52.09Y-21.211
X52.09Y-23.711
X53.09Y-19.211
X53.09Y-25.711
X54.09Y-21.211
X54.09Y-23.711
X55.09Y-19.211
X55.09Y-25.711
X56.09Y-21.211
X56.09Y-23.711
X57.09Y-19.211
X57.09Y-25.711
X58.09Y-21.211
X58.09Y-23.711
X59.09Y-19.211
X59.09Y-25.711
X60.09Y-21.211
X60.09Y-23.711
X61.09Y-19.211
X61.09Y-25.711
X62.09Y-21.211
X62.09Y-23.711
X63.09Y-19.211
X63.09Y-25.711
X64.09Y-21.211
X64.09Y-23.711
X65.09Y-19.211
X65.09Y-25.711
X66.09Y-21.211
X66.09Y-23.711
X67.09Y-19.211
X67.09Y-25.711
X68.09Y-21.211
X68.09Y-23.711
X69.09Y-19.211
X69.09Y-25.711
X70.09Y-21.211
X70.09Y-23.711
X71.09Y-19.211
X71.09Y-25.711
X72.09Y-21.211
X72.09Y-23.711
X73.09Y-19.211
X73.09Y-25.711
X74.09Y-21.211
X74.09Y-23.711
X75.09Y-19.211
X75.09Y-25.711
X76.09Y-21.211
X76.09Y-23.711
X77.09Y-19.211
X77.09Y-25.711
X78.09Y-21.211
X78.09Y-23.711
X79.09Y-19.211
X79.09Y-25.711
X80.09Y-21.211
X80.09Y-23.711
X81.09Y-19.211
X81.09Y-25.711
X82.09Y-21.211
X82.09Y-23.711
X83.09Y-19.211
X83.09Y-25.711
X84.09Y-21.211
X84.09Y-23.711
X85.09Y-19.211
X85.09Y-25.711
X86.09Y-21.211
X86.09Y-23.711
X87.09Y-19.211
X87.09Y-25.711
X88.09Y-21.211
X88.09Y-23.711
X89.09Y-19.211
X89.09Y-25.711
X90.09Y-21.211
X90.09Y-23.711
X91.09Y-19.211
X91.09Y-25.711
X92.09Y-21.211
X92.09Y-23.711
X93.09Y-19.211
X93.09Y-25.711
X94.09Y-21.211
X94.09Y-23.711
X95.09Y-19.211
X95.09Y-25.711
X96.09Y-21.211
X96.09Y-23.711
X97.09Y-19.211
X97.09Y-25.711
X98.09Y-21.211
X98.09Y-23.711
X99.09Y-19.211
X99.09Y-25.711
X100.09Y-21.211
X100.09Y-23.711
X101.09Y-19.211
X101.09Y-25.711
X102.09Y-21.211
X102.09Y-23.711
X103.09Y-19.211
X103.09Y-25.711
X104.09Y-21.211
X104.09Y-23.711
X105.09Y-19.211
X105.09Y-25.711
X106.09Y-21.211
X106.09Y-23.711
X107.09Y-19.211
X107.09Y-25.711
X108.09Y-21.211
X108.09Y-23.711
X109.09Y-19.211
X109.09Y-25.711
X110.09Y-21.211
X110.09Y-23.711
X111.09Y-19.211
X111.09Y-25.711
T4
X136.971Y-9.319
X136.971Y-13.519
X142.471Y-9.319
X142.471Y-13.519
T5
X134.9Y-26.41
X1.0Y-26.41
T0
M30
