M48
; DRILL file {KiCad (5.1.6)-1} date 03/03/21 14:18:21
; FORMAT={-:-/ absolute / metric / decimal}
; #@! TF.CreationDate,2021-03-03T14:18:21+01:00
; #@! TF.GenerationSoftware,Kicad,Pcbnew,(5.1.6)-1
; #@! TF.FileFunction,Plated,1,2,PTH
FMAT,2
METRIC
T1C0.300
T2C0.400
T3C0.750
T4C1.070
T5C1.450
T6C4.200
T7C5.000
%
G90
G05
T1
X114.0Y87.702
X87.0Y87.702
X63.0Y52.002
X132.0Y86.002
X87.0Y52.002
X132.0Y87.702
X57.0Y87.702
X84.0Y52.002
X48.0Y-0.748
X126.0Y1.002
X45.0Y1.002
X54.0Y86.002
X51.0Y1.002
X120.0Y2.752
X132.0Y50.302
X123.0Y1.002
X123.0Y4.502
X66.0Y1.002
X45.0Y2.752
X87.0Y86.002
X78.0Y2.752
X60.0Y4.502
X72.0Y-0.748
X99.0Y86.002
X102.0Y-0.748
X78.0Y4.502
X63.0Y50.302
X105.0Y86.002
X48.0Y50.302
X99.0Y4.502
X81.0Y50.302
X45.0Y4.502
X93.0Y52.002
X117.0Y4.502
X54.0Y50.302
X129.0Y52.002
X108.0Y87.702
X54.0Y87.702
X78.0Y52.002
X117.0Y87.702
X45.0Y87.702
X123.0Y-0.748
X69.0Y87.702
X132.0Y-0.748
X81.0Y1.002
X108.0Y1.002
X51.0Y-0.748
X108.0Y2.752
X126.0Y50.302
X54.0Y1.002
X81.0Y2.752
X108.0Y50.302
X63.0Y-0.748
X54.0Y2.752
X72.0Y1.002
X57.0Y2.752
X57.0Y4.502
X126.0Y86.002
X63.0Y2.752
X75.0Y-0.748
X102.0Y86.002
X114.0Y-0.748
X87.0Y4.502
X66.0Y50.302
X51.0Y50.302
X72.0Y4.502
X57.0Y50.302
X51.0Y4.502
X96.0Y52.002
X69.0Y4.502
X90.0Y50.302
X111.0Y52.002
X126.0Y87.702
X63.0Y87.702
X69.0Y52.002
X48.0Y87.702
X66.0Y52.002
X75.0Y87.702
X48.0Y52.002
X69.0Y1.002
X66.0Y-0.748
X129.0Y1.002
X111.0Y2.752
X48.0Y86.002
X120.0Y1.002
X90.0Y2.752
X69.0Y86.002
X102.0Y1.002
X126.0Y4.502
X48.0Y2.752
X54.0Y4.502
X90.0Y-0.748
X75.0Y86.002
X84.0Y2.752
X105.0Y-0.748
X108.0Y86.002
X48.0Y4.502
X120.0Y-0.748
X111.0Y4.502
X69.0Y50.302
X117.0Y52.002
X84.0Y4.502
X93.0Y50.302
X114.0Y52.002
X75.0Y4.502
X60.0Y50.302
X123.0Y52.002
X93.0Y87.702
X66.0Y87.702
X72.0Y52.002
X96.0Y87.702
X60.0Y87.702
X126.0Y-0.748
X78.0Y87.702
X117.0Y1.002
X60.0Y-0.748
X126.0Y2.752
X51.0Y86.002
X93.0Y1.002
X105.0Y2.752
X60.0Y86.002
X45.0Y-0.748
X123.0Y2.752
X111.0Y50.302
X57.0Y1.002
X96.0Y2.752
X51.0Y2.752
X99.0Y-0.748
X81.0Y86.002
X117.0Y2.752
X78.0Y-0.748
X114.0Y86.002
X66.0Y4.502
X69.0Y-0.748
X108.0Y4.502
X72.0Y50.302
X120.0Y52.002
X105.0Y4.502
X78.0Y50.302
X99.0Y52.002
X120.0Y4.502
X132.0Y52.002
X99.0Y87.702
X81.0Y87.702
X81.0Y52.002
X105.0Y87.702
X72.0Y87.702
X57.0Y52.002
X84.0Y1.002
X87.0Y1.002
X132.0Y2.752
X123.0Y50.302
X57.0Y-0.748
X93.0Y2.752
X129.0Y50.302
X54.0Y-0.748
X102.0Y2.752
X114.0Y50.302
X78.0Y1.002
X66.0Y2.752
X117.0Y86.002
X60.0Y2.752
X108.0Y-0.748
X84.0Y86.002
X63.0Y4.502
X81.0Y-0.748
X111.0Y86.002
X84.0Y-0.748
X81.0Y4.502
X75.0Y50.302
X126.0Y52.002
X114.0Y4.502
X84.0Y50.302
X102.0Y52.002
X120.0Y87.702
X129.0Y87.702
X84.0Y87.702
X54.0Y52.002
X51.0Y87.702
X129.0Y-0.748
X90.0Y1.002
X96.0Y1.002
X69.0Y2.752
X63.0Y86.002
X105.0Y1.002
X99.0Y2.752
X66.0Y86.002
X75.0Y1.002
X48.0Y1.002
X117.0Y50.302
X60.0Y1.002
X129.0Y4.502
X120.0Y86.002
X75.0Y2.752
X45.0Y52.002
X93.0Y-0.748
X90.0Y86.002
X96.0Y-0.748
X78.0Y86.002
X117.0Y-0.748
X93.0Y4.502
X96.0Y50.302
X45.0Y50.302
X102.0Y4.502
X102.0Y50.302
X105.0Y52.002
X123.0Y87.702
X60.0Y52.002
X102.0Y87.702
X129.0Y86.002
X75.0Y52.002
X111.0Y87.702
X90.0Y87.702
X51.0Y52.002
X114.0Y1.002
X99.0Y1.002
X87.0Y2.752
X72.0Y86.002
X132.0Y1.002
X72.0Y2.752
X57.0Y86.002
X111.0Y1.002
X114.0Y2.752
X120.0Y50.302
X63.0Y1.002
X132.0Y4.502
X123.0Y86.002
X129.0Y2.752
X111.0Y-0.748
X96.0Y86.002
X87.0Y-0.748
X105.0Y50.302
X93.0Y86.002
X90.0Y4.502
X99.0Y50.302
X45.0Y86.002
X90.0Y52.002
X96.0Y4.502
X87.0Y50.302
X108.0Y52.002
T2
X13.644Y73.421
T3
X-22.1Y25.777
X-22.1Y23.777
X-22.1Y21.777
X-22.1Y19.777
X-22.1Y17.777
X-22.1Y15.777
X-20.1Y25.777
X-20.1Y23.777
X-20.1Y21.777
X-20.1Y19.777
X-20.1Y17.777
X-20.1Y15.777
X-18.1Y25.777
X-18.1Y23.777
X-18.1Y21.777
X-18.1Y19.777
X-18.1Y17.777
X-18.1Y15.777
X-16.1Y25.777
X-16.1Y23.777
X-16.1Y21.777
X-16.1Y19.777
X-16.1Y17.777
X-16.1Y15.777
X-14.1Y25.777
X-14.1Y23.777
X-14.1Y21.777
X-14.1Y19.777
X-14.1Y17.777
X-14.1Y15.777
T4
X-22.1Y74.337
X-22.1Y71.337
X-22.1Y68.557
X-22.1Y65.557
X-22.1Y62.777
X-22.1Y59.777
X-22.1Y56.997
X-22.1Y53.997
X-22.1Y51.217
X-22.1Y48.217
X-22.1Y45.437
X-22.1Y42.437
X-22.1Y39.657
X-22.1Y36.657
X-22.1Y33.877
X-22.1Y30.877
X-19.6Y74.337
X-19.6Y71.337
X-19.6Y68.557
X-19.6Y65.557
X-19.6Y62.777
X-19.6Y59.777
X-19.6Y56.997
X-19.6Y53.997
X-19.6Y51.217
X-19.6Y48.217
X-19.6Y45.437
X-19.6Y42.437
X-19.6Y39.657
X-19.6Y36.657
X-19.6Y33.877
X-19.6Y30.877
X-17.1Y74.337
X-17.1Y71.337
X-17.1Y68.557
X-17.1Y65.557
X-17.1Y62.777
X-17.1Y59.777
X-17.1Y56.997
X-17.1Y53.997
X-17.1Y51.217
X-17.1Y48.217
X-17.1Y45.437
X-17.1Y42.437
X-17.1Y39.657
X-17.1Y36.657
X-17.1Y33.877
X-17.1Y30.877
X-14.6Y74.337
X-14.6Y71.337
X-14.6Y68.557
X-14.6Y65.557
X-14.6Y62.777
X-14.6Y59.777
X-14.6Y56.997
X-14.6Y53.997
X-14.6Y51.217
X-14.6Y48.217
X-14.6Y45.437
X-14.6Y42.437
X-14.6Y39.657
X-14.6Y36.657
X-14.6Y33.877
X-14.6Y30.877
X-12.1Y74.337
X-12.1Y71.337
X-12.1Y68.557
X-12.1Y65.557
X-12.1Y62.777
X-12.1Y59.777
X-12.1Y56.997
X-12.1Y53.997
X-12.1Y51.217
X-12.1Y48.217
X-12.1Y45.437
X-12.1Y42.437
X-12.1Y39.657
X-12.1Y36.657
X-12.1Y33.877
X-12.1Y30.877
X-9.6Y74.337
X-9.6Y71.337
X-9.6Y68.557
X-9.6Y65.557
X-9.6Y62.777
X-9.6Y59.777
X-9.6Y56.997
X-9.6Y53.997
X-9.6Y51.217
X-9.6Y48.217
X-9.6Y45.437
X-9.6Y42.437
X-9.6Y39.657
X-9.6Y36.657
X-9.6Y33.877
X-9.6Y30.877
T5
X5.55Y15.382
X5.55Y11.182
T6
X0.0Y0.002
X140.0Y90.002
X0.0Y90.002
X140.0Y0.002
T7
X110.0Y21.332
X70.0Y21.332
X112.5Y68.832
X72.5Y68.832
T0
M30
