M48
; DRILL file {KiCad (5.1.5)-3} date 27/01/2022 06:12:22
; FORMAT={-:-/ absolute / metric / decimal}
; #@! TF.CreationDate,2022-01-27T06:12:22+01:00
; #@! TF.GenerationSoftware,Kicad,Pcbnew,(5.1.5)-3
; #@! TF.FileFunction,Plated,1,6,PTH
FMAT,2
METRIC
T1C0.200
T2C0.250
T3C0.300
T4C0.500
T5C0.780
T6C3.200
%
G90
G05
T1
X-16.35Y-10.525
X-15.475Y2.175
X-14.55Y-0.2
X-14.175Y-3.65
X-14.175Y-6.4
X-13.95Y-12.475
X-13.8Y3.425
X-13.725Y-0.925
X-13.65Y-11.825
X-13.525Y-6.225
X-13.025Y-2.45
X-12.95Y-10.9
X-12.825Y2.55
X-12.225Y-0.35
X-12.175Y-13.575
X-11.8Y-7.025
X-11.8Y-9.725
X-11.0Y1.05
X-10.55Y-13.125
X-9.525Y2.55
X-9.25Y-0.375
X-8.475Y-0.45
X-7.725Y-0.5
X-7.075Y2.5
X-7.0Y-0.525
X-5.775Y-1.25
X-5.55Y-13.775
X-5.475Y-11.825
X-5.475Y-13.125
X-5.125Y-0.175
X-4.95Y4.0
X-4.575Y-6.325
X-4.16Y-9.175
X-3.225Y-2.775
X-2.85Y-3.625
X-2.225Y-6.25
X-2.2Y-12.0
X-2.15Y-11.175
X-2.05Y-8.175
X-1.175Y-6.2
X-1.175Y-8.175
X-0.325Y-4.65
X0.625Y-11.175
X0.85Y-9.875
X1.075Y-8.35
X1.15Y-9.125
X1.25Y-4.825
X1.25Y-5.95
X1.425Y-10.525
X2.3Y-4.825
X2.3Y-5.975
X3.3Y-4.825
X3.55Y-3.575
X4.125Y-7.275
X4.45Y3.15
X4.45Y1.25
X4.45Y0.375
X4.45Y-0.5
X4.7Y4.45
X4.875Y-9.6
X5.2Y-15.7
X5.25Y-10.35
X5.675Y-8.95
X6.1Y-15.4
X8.075Y-16.05
X8.3Y-5.6
X8.95Y-1.925
X9.3Y-5.6
X9.325Y4.475
X9.325Y3.475
X9.325Y2.475
X9.325Y1.55
X9.325Y0.55
X9.325Y-0.45
X9.325Y-4.15
X9.375Y-20.0
X9.675Y-20.95
X9.675Y-21.7
X9.675Y-22.45
X10.125Y-8.975
X10.175Y-12.4
X10.325Y4.475
X10.325Y3.475
X10.325Y2.475
X10.325Y1.55
X10.325Y0.55
X10.325Y-0.45
X10.325Y-4.15
X10.425Y-20.95
X10.425Y-21.7
X10.425Y-22.45
X10.75Y-1.625
X10.825Y-2.675
X11.125Y-8.975
X12.1Y-19.35
X12.6Y-16.375
X14.55Y-11.425
X15.25Y-13.45
X15.875Y-9.95
X16.55Y-11.225
X16.9Y-8.5
X17.1Y-18.325
X17.3Y-4.7
X17.3Y-5.9
X17.3Y-7.1
X17.3Y-11.0
X18.075Y-13.1
X18.125Y-14.2
X19.95Y-6.3
X19.975Y-5.1
X20.2Y-7.35
X20.95Y-5.575
X21.25Y-10.3
X21.275Y-4.025
X21.4Y-8.35
X21.4Y-9.1
X21.575Y-3.25
X22.3Y-6.975
X22.5Y-3.275
X22.825Y-2.2
X23.725Y-2.825
X25.05Y-14.3
X25.531Y-14.781
X25.939Y-15.189
X26.45Y-15.65
T2
X3.225Y-10.65
X7.875Y-8.825
X9.525Y-12.95
X11.075Y-13.225
X11.075Y-16.325
X11.575Y-16.875
X11.8Y-7.725
X11.875Y-10.55
X13.4Y-16.125
X13.625Y-13.45
X15.25Y-15.7
X17.675Y-15.625
X18.175Y-17.7
X19.85Y-17.0
X95.7Y-3.975
X95.7Y-4.48
X95.7Y-5.0
X95.7Y-5.5
T3
X-17.475Y-13.5
X-17.2Y-7.375
X-16.7Y1.05
X-16.6Y-9.375
X-16.575Y-11.85
X-16.175Y-6.55
X-16.15Y-7.4
X-16.125Y-0.725
X-15.6Y-2.925
X-15.175Y-14.375
X-15.075Y-7.4
X-14.175Y-2.075
X-14.0Y-7.4
X-13.2Y-13.55
X-12.225Y-2.3
X-11.85Y-3.6
X-11.575Y-0.675
X-10.875Y-3.775
X-10.725Y-7.4
X-10.65Y-5.85
X-10.475Y-4.225
X-10.3Y1.05
X-10.075Y-1.05
X-9.8Y-8.3
X-9.275Y-9.275
X-9.025Y-3.6
X-8.875Y-6.575
X-7.9Y-9.875
X-7.425Y-8.3
X-6.375Y-3.6
X-6.15Y-8.4
X-5.125Y-3.8
X-4.15Y-12.325
X-4.05Y-3.7
X-3.075Y-12.325
X-3.05Y-5.6
X-3.0Y-8.4
X-1.925Y-13.775
X-0.425Y-6.225
X-0.375Y-8.2
X0.825Y-14.625
X1.475Y-12.3
X1.525Y-17.4
X1.525Y-18.4
X1.525Y-19.4
X1.525Y-20.4
X2.525Y-17.4
X2.525Y-18.4
X2.525Y-19.4
X2.525Y-20.4
X3.525Y-17.4
X3.525Y-18.4
X3.525Y-19.4
X3.525Y-20.4
X3.575Y-7.825
X3.6Y-15.275
X3.9Y-11.025
X4.525Y-17.4
X4.525Y-18.4
X4.525Y-19.4
X4.525Y-20.4
X5.375Y3.125
X6.495Y-21.35
X6.575Y-12.325
X8.125Y-9.5
X8.2Y-10.25
X8.475Y-7.5
X8.8Y-14.75
X8.8Y-15.75
X9.8Y-14.75
X9.8Y-15.75
X9.825Y-17.475
X9.825Y-18.25
X9.825Y-19.0
X9.9Y-11.5
X10.05Y-10.15
X10.575Y-18.25
X10.575Y-19.0
X10.975Y-20.675
X11.55Y4.2
X11.55Y-20.775
X11.55Y-21.525
X11.55Y-22.275
X14.375Y-21.375
X15.9Y-7.45
X16.495Y-22.45
X17.125Y-17.7
X17.725Y-12.425
X18.325Y-12.075
X18.895Y-22.45
X19.825Y-13.1
X19.825Y-14.2
X20.725Y-12.075
X21.295Y-22.45
X23.695Y-22.45
X24.45Y-4.05
X25.0Y-5.625
X26.095Y-22.45
X30.895Y-22.45
X33.295Y-22.45
X35.695Y-22.45
X38.095Y-22.45
X40.495Y-22.45
X42.895Y-22.45
X45.295Y-22.45
X47.695Y-22.45
X50.095Y-22.45
X52.495Y-22.45
X54.895Y-22.45
X57.295Y-22.45
X59.695Y-22.45
X62.095Y-22.45
X64.495Y-22.45
X66.895Y-22.45
X69.295Y-22.45
X71.695Y-22.45
X74.095Y-22.45
X76.495Y-22.45
X78.895Y-22.45
X81.295Y-22.45
X81.35Y-20.05
X83.695Y-22.45
X95.495Y-22.45
X97.895Y-22.45
X100.295Y-22.45
X102.695Y-22.45
X105.095Y-22.45
X107.495Y-22.45
X109.895Y-22.45
X112.295Y-22.45
X114.695Y-22.45
X117.095Y-22.45
T4
X121.905Y-0.02
X122.608Y1.677
X122.608Y-1.717
X124.305Y2.38
X124.305Y-2.42
X126.002Y1.677
X126.002Y-1.717
X126.705Y-0.02
X-2.4Y0.0
X-1.697Y1.697
X-1.697Y-1.697
X0.0Y2.4
X0.0Y-2.4
X1.697Y1.697
X1.697Y-1.697
X2.4Y0.0
T5
X12.755Y2.27
X12.755Y-0.23
X13.755Y4.27
X13.755Y-2.23
X14.755Y2.27
X14.755Y-0.23
X15.755Y4.27
X15.755Y-2.23
X16.755Y2.27
X16.755Y-0.23
X17.755Y4.27
X17.755Y-2.23
X18.755Y2.27
X18.755Y-0.23
X19.755Y4.27
X19.755Y-2.23
X20.755Y2.27
X20.755Y-0.23
X21.755Y4.27
X21.755Y-2.23
X22.755Y2.27
X22.755Y-0.23
X25.755Y4.27
X25.755Y-2.23
X26.755Y2.27
X26.755Y-0.23
X27.755Y4.27
X27.755Y-2.23
X28.755Y2.27
X28.755Y-0.23
X29.755Y4.27
X29.755Y-2.23
X30.755Y2.27
X30.755Y-0.23
X31.755Y4.27
X31.755Y-2.23
X32.755Y2.27
X32.755Y-0.23
X33.755Y4.27
X33.755Y-2.23
X34.755Y2.27
X34.755Y-0.23
X35.755Y4.27
X35.755Y-2.23
X36.755Y2.27
X36.755Y-0.23
X37.755Y4.27
X37.755Y-2.23
X38.755Y2.27
X38.755Y-0.23
X39.755Y4.27
X39.755Y-2.23
X40.755Y2.27
X40.755Y-0.23
X41.755Y4.27
X41.755Y-2.23
X42.755Y2.27
X42.755Y-0.23
X43.755Y4.27
X43.755Y-2.23
X44.755Y2.27
X44.755Y-0.23
X45.755Y4.27
X45.755Y-2.23
X46.755Y2.27
X46.755Y-0.23
X47.755Y4.27
X47.755Y-2.23
X48.755Y2.27
X48.755Y-0.23
X49.755Y4.27
X49.755Y-2.23
X50.755Y2.27
X50.755Y-0.23
X51.755Y4.27
X51.755Y-2.23
X52.755Y2.27
X52.755Y-0.23
X53.755Y4.27
X53.755Y-2.23
X54.755Y2.27
X54.755Y-0.23
X55.755Y4.27
X55.755Y-2.23
X56.755Y2.27
X56.755Y-0.23
X57.755Y4.27
X57.755Y-2.23
X58.755Y2.27
X58.755Y-0.23
X59.755Y4.27
X59.755Y-2.23
X60.755Y2.27
X60.755Y-0.23
X61.755Y4.27
X61.755Y-2.23
X62.755Y2.27
X62.755Y-0.23
X63.755Y4.27
X63.755Y-2.23
X64.755Y2.27
X64.755Y-0.23
X65.755Y4.27
X65.755Y-2.23
X66.755Y2.27
X66.755Y-0.23
X67.755Y4.27
X67.755Y-2.23
X68.755Y2.27
X68.755Y-0.23
X69.755Y4.27
X69.755Y-2.23
X70.755Y2.27
X70.755Y-0.23
X71.755Y4.27
X71.755Y-2.23
X72.755Y2.27
X72.755Y-0.23
X73.755Y4.27
X73.755Y-2.23
X74.755Y2.27
X74.755Y-0.23
X75.755Y4.27
X75.755Y-2.23
X76.755Y2.27
X76.755Y-0.23
X77.755Y4.27
X77.755Y-2.23
X78.755Y2.27
X78.755Y-0.23
X79.755Y4.27
X79.755Y-2.23
X80.755Y2.27
X80.755Y-0.23
X81.755Y4.27
X81.755Y-2.23
X82.755Y2.27
X82.755Y-0.23
X83.755Y4.27
X83.755Y-2.23
X84.755Y2.27
X84.755Y-0.23
X85.755Y4.27
X85.755Y-2.23
X86.755Y2.27
X86.755Y-0.23
X87.755Y4.27
X87.755Y-2.23
X88.755Y2.27
X88.755Y-0.23
X89.755Y4.27
X89.755Y-2.23
X90.755Y2.27
X90.755Y-0.23
X91.755Y4.27
X91.755Y-2.23
X92.755Y2.27
X92.755Y-0.23
X93.755Y4.27
X93.755Y-2.23
X94.755Y2.27
X94.755Y-0.23
X95.755Y4.27
X95.755Y-2.23
T6
X124.305Y-0.02
X0.0Y0.0
T0
M30
