G04 #@! TF.GenerationSoftware,KiCad,Pcbnew,(5.1.6)-1*
G04 #@! TF.CreationDate,2021-11-02T14:31:17+01:00*
G04 #@! TF.ProjectId,Riser Tioga Pass 2OU 2xPCIe x16,52697365-7220-4546-996f-676120506173,rev?*
G04 #@! TF.SameCoordinates,PX328b740PY3211620*
G04 #@! TF.FileFunction,Paste,Bot*
G04 #@! TF.FilePolarity,Positive*
%FSLAX46Y46*%
G04 Gerber Fmt 4.6, Leading zero omitted, Abs format (unit mm)*
G04 Created by KiCad (PCBNEW (5.1.6)-1) date 2021-11-02 14:31:17*
%MOMM*%
%LPD*%
G01*
G04 APERTURE LIST*
%ADD10R,0.550000X3.000000*%
G04 APERTURE END LIST*
D10*
X16795000Y-75080000D03*
X17595000Y-75080000D03*
X18395000Y-75080000D03*
X19195000Y-75080000D03*
X19995000Y-75080000D03*
X20795000Y-75080000D03*
X21595000Y-75080000D03*
X22395000Y-75080000D03*
X23195000Y-75080000D03*
X23995000Y-75080000D03*
X24795000Y-75080000D03*
X25595000Y-75080000D03*
X26395000Y-75080000D03*
X27195000Y-75080000D03*
X27995000Y-75080000D03*
X28795000Y-75080000D03*
X29595000Y-75080000D03*
X30395000Y-75080000D03*
X31195000Y-75080000D03*
X31995000Y-75080000D03*
X32795000Y-75080000D03*
X33595000Y-75080000D03*
X34395000Y-75080000D03*
X35195000Y-75080000D03*
X35995000Y-75080000D03*
X36795000Y-75080000D03*
X37595000Y-75080000D03*
X38395000Y-75080000D03*
X39195000Y-75080000D03*
X39995000Y-75080000D03*
X40795000Y-75080000D03*
X41595000Y-75080000D03*
X45595000Y-75080000D03*
X46395000Y-75080000D03*
X47195000Y-75080000D03*
X47995000Y-75080000D03*
X48795000Y-75080000D03*
X49595000Y-75080000D03*
X50395000Y-75080000D03*
X51195000Y-75080000D03*
X51995000Y-75080000D03*
X52795000Y-75080000D03*
X53595000Y-75080000D03*
X54395000Y-75080000D03*
X55195000Y-75080000D03*
X55995000Y-75080000D03*
X56795000Y-75080000D03*
X57595000Y-75080000D03*
X58395000Y-75080000D03*
X59195000Y-75080000D03*
X59995000Y-75080000D03*
X60795000Y-75080000D03*
X61595000Y-75080000D03*
X62395000Y-75080000D03*
X63195000Y-75080000D03*
X63995000Y-75080000D03*
X64795000Y-75080000D03*
X65595000Y-75080000D03*
X66395000Y-75080000D03*
X67195000Y-75080000D03*
X67995000Y-75080000D03*
X68795000Y-75080000D03*
X69595000Y-75080000D03*
X70395000Y-75080000D03*
X71195000Y-75080000D03*
X71995000Y-75080000D03*
X72795000Y-75080000D03*
X73595000Y-75080000D03*
X74395000Y-75080000D03*
X75195000Y-75080000D03*
X75995000Y-75080000D03*
X76795000Y-75080000D03*
X77595000Y-75080000D03*
X78395000Y-75080000D03*
X79195000Y-75080000D03*
X79995000Y-75080000D03*
X80795000Y-75080000D03*
X81595000Y-75080000D03*
X82395000Y-75080000D03*
X83195000Y-75080000D03*
X83995000Y-75080000D03*
X84795000Y-75080000D03*
X85595000Y-75080000D03*
X86395000Y-75080000D03*
X87195000Y-75080000D03*
X87995000Y-75080000D03*
X88795000Y-75080000D03*
X89595000Y-75080000D03*
X90395000Y-75080000D03*
X91195000Y-75080000D03*
X91995000Y-75080000D03*
X92795000Y-75080000D03*
X93595000Y-75080000D03*
X94395000Y-75080000D03*
X95195000Y-75080000D03*
X95995000Y-75080000D03*
X96795000Y-75080000D03*
X97595000Y-75080000D03*
X98395000Y-75080000D03*
X99195000Y-75080000D03*
X133395000Y-75080000D03*
X132595000Y-75080000D03*
X111795000Y-75080000D03*
X110995000Y-75080000D03*
X112595000Y-75080000D03*
X110195000Y-75080000D03*
X126995000Y-75080000D03*
X126195000Y-75080000D03*
X127795000Y-75080000D03*
X128595000Y-75080000D03*
X130195000Y-75080000D03*
X130995000Y-75080000D03*
X129395000Y-75080000D03*
X131795000Y-75080000D03*
X114195000Y-75080000D03*
X114995000Y-75080000D03*
X113395000Y-75080000D03*
X115795000Y-75080000D03*
X118195000Y-75080000D03*
X116595000Y-75080000D03*
X117395000Y-75080000D03*
X118995000Y-75080000D03*
X122995000Y-75080000D03*
X124595000Y-75080000D03*
X125395000Y-75080000D03*
X123795000Y-75080000D03*
X120595000Y-75080000D03*
X121395000Y-75080000D03*
X119795000Y-75080000D03*
X122195000Y-75080000D03*
M02*
