G04 #@! TF.GenerationSoftware,KiCad,Pcbnew,(5.1.6)-1*
G04 #@! TF.CreationDate,2021-11-02T14:31:17+01:00*
G04 #@! TF.ProjectId,Riser Tioga Pass 2OU 2xPCIe x16,52697365-7220-4546-996f-676120506173,rev?*
G04 #@! TF.SameCoordinates,PX328b740PY3211620*
G04 #@! TF.FileFunction,Paste,Top*
G04 #@! TF.FilePolarity,Positive*
%FSLAX46Y46*%
G04 Gerber Fmt 4.6, Leading zero omitted, Abs format (unit mm)*
G04 Created by KiCad (PCBNEW (5.1.6)-1) date 2021-11-02 14:31:17*
%MOMM*%
%LPD*%
G01*
G04 APERTURE LIST*
%ADD10R,0.400000X0.600000*%
%ADD11R,0.600000X0.400000*%
%ADD12R,0.500000X0.600000*%
%ADD13R,0.600000X0.500000*%
%ADD14R,0.800000X0.750000*%
%ADD15R,1.250000X1.000000*%
%ADD16R,0.750000X0.800000*%
%ADD17R,1.000000X1.250000*%
%ADD18C,0.100000*%
%ADD19R,0.650000X0.400000*%
%ADD20R,0.900000X1.700000*%
%ADD21R,1.700000X0.900000*%
%ADD22R,0.800000X0.900000*%
%ADD23R,0.490000X1.524000*%
%ADD24R,0.827000X0.827000*%
%ADD25R,0.900000X0.280000*%
%ADD26R,0.280000X0.900000*%
%ADD27R,0.900000X0.800000*%
%ADD28R,0.550000X3.000000*%
%ADD29R,1.450000X0.450000*%
%ADD30R,0.450000X1.450000*%
%ADD31R,2.800000X1.600000*%
%ADD32R,1.600000X2.800000*%
%ADD33R,0.400000X1.100000*%
%ADD34C,0.230000*%
%ADD35R,0.700000X0.280000*%
%ADD36R,0.280000X0.700000*%
%ADD37R,2.450000X2.450000*%
G04 APERTURE END LIST*
D10*
X22400000Y-51700000D03*
X23300000Y-51700000D03*
X27150000Y-62200000D03*
X26250000Y-62200000D03*
D11*
X127950000Y-52125000D03*
X127950000Y-53025000D03*
D10*
X34900000Y-55200000D03*
X35800000Y-55200000D03*
D12*
X57100000Y-9900000D03*
X57100000Y-11000000D03*
D13*
X11700000Y-11850000D03*
X10600000Y-11850000D03*
D12*
X9750000Y-37800000D03*
X9750000Y-38900000D03*
X11900000Y-47200000D03*
X11900000Y-48300000D03*
D13*
X124300000Y-37650000D03*
X123200000Y-37650000D03*
D12*
X126300000Y-50600000D03*
X126300000Y-49500000D03*
D13*
X123200000Y-38850000D03*
X124300000Y-38850000D03*
D14*
X131800000Y-37750000D03*
X130300000Y-37750000D03*
D13*
X130500000Y-39200000D03*
X131600000Y-39200000D03*
D12*
X129450000Y-47425000D03*
X129450000Y-48525000D03*
D13*
X122250000Y-47350000D03*
X123350000Y-47350000D03*
D12*
X120550000Y-47775000D03*
X120550000Y-46675000D03*
X121100000Y-40025000D03*
X121100000Y-38925000D03*
X120550000Y-44500000D03*
X120550000Y-43400000D03*
D13*
X130500000Y-41725000D03*
X131600000Y-41725000D03*
X135400000Y-42675000D03*
X134300000Y-42675000D03*
X133800000Y-47250000D03*
X134900000Y-47250000D03*
D15*
X36500000Y-30800000D03*
X36500000Y-28800000D03*
D16*
X18400000Y-21450000D03*
X18400000Y-22950000D03*
D15*
X33850000Y-28800000D03*
X33850000Y-30800000D03*
D12*
X38100000Y-30100000D03*
X38100000Y-29000000D03*
D14*
X11750000Y-28600000D03*
X10250000Y-28600000D03*
D16*
X20000000Y-22950000D03*
X20000000Y-21450000D03*
D12*
X29850000Y-29250000D03*
X29850000Y-30350000D03*
D16*
X21600000Y-22950000D03*
X21600000Y-21450000D03*
D12*
X32250000Y-30350000D03*
X32250000Y-29250000D03*
X13300000Y-30550000D03*
X13300000Y-29450000D03*
D16*
X23200000Y-22950000D03*
X23200000Y-21450000D03*
D12*
X31050000Y-29250000D03*
X31050000Y-30350000D03*
D16*
X8350000Y-36500000D03*
X8350000Y-35000000D03*
D15*
X37250000Y-8000000D03*
X37250000Y-10000000D03*
D16*
X15600000Y-1000000D03*
X15600000Y500000D03*
D17*
X27350000Y-11250000D03*
X29350000Y-11250000D03*
D12*
X38900000Y-9300000D03*
X38900000Y-8200000D03*
D18*
G36*
X10712652Y-4867678D02*
G01*
X10182322Y-4337348D01*
X10748008Y-3771662D01*
X11278338Y-4301992D01*
X10712652Y-4867678D01*
G37*
G36*
X9651992Y-5928338D02*
G01*
X9121662Y-5398008D01*
X9687348Y-4832322D01*
X10217678Y-5362652D01*
X9651992Y-5928338D01*
G37*
D16*
X17800000Y500000D03*
X17800000Y-1000000D03*
D13*
X28850000Y-9550000D03*
X27750000Y-9550000D03*
D16*
X19600000Y-1000000D03*
X19600000Y500000D03*
D13*
X34900000Y-9000000D03*
X33800000Y-9000000D03*
D12*
X14150000Y-7050000D03*
X14150000Y-8150000D03*
D16*
X21400000Y500000D03*
X21400000Y-1000000D03*
D13*
X33800000Y-10200000D03*
X34900000Y-10200000D03*
D14*
X6250000Y-6050000D03*
X7750000Y-6050000D03*
D13*
X29400000Y-43700000D03*
X30500000Y-43700000D03*
X28650000Y-53600000D03*
X27550000Y-53600000D03*
D15*
X142350000Y-3450000D03*
X142350000Y-1450000D03*
X144700000Y-1450000D03*
X144700000Y-3450000D03*
X147100000Y-3450000D03*
X147100000Y-1450000D03*
X149550000Y-1450000D03*
X149550000Y-3450000D03*
D16*
X134350000Y-1450000D03*
X134350000Y-2950000D03*
D13*
X130750000Y-4350000D03*
X131850000Y-4350000D03*
D14*
X131750000Y500000D03*
X130250000Y500000D03*
D12*
X53000000Y-15350000D03*
X53000000Y-14250000D03*
D16*
X124300000Y-36065300D03*
X124300000Y-34565300D03*
D19*
X25750000Y-60750000D03*
X25750000Y-59450000D03*
X27650000Y-60100000D03*
X25750000Y-60100000D03*
X27650000Y-59450000D03*
X27650000Y-60750000D03*
D11*
X27200000Y-57100000D03*
X27200000Y-56200000D03*
D10*
X25600000Y-56250000D03*
X24700000Y-56250000D03*
X101050000Y-68050000D03*
X100150000Y-68050000D03*
D20*
X28875000Y-64200000D03*
X25975000Y-64200000D03*
D10*
X47950000Y-15450000D03*
X48850000Y-15450000D03*
X50600000Y-15550000D03*
X51500000Y-15550000D03*
X51500000Y-14250000D03*
X50600000Y-14250000D03*
D11*
X52050000Y-11750000D03*
X52050000Y-10850000D03*
X50750000Y-11750000D03*
X50750000Y-10850000D03*
X45150000Y-10650000D03*
X45150000Y-11550000D03*
X40550000Y-9100000D03*
X40550000Y-10000000D03*
D10*
X19600000Y-40650000D03*
X20500000Y-40650000D03*
X19600000Y-39350000D03*
X20500000Y-39350000D03*
D11*
X25150000Y-36250000D03*
X25150000Y-35350000D03*
D10*
X9600000Y-41400000D03*
X8700000Y-41400000D03*
X8700000Y-44000000D03*
X9600000Y-44000000D03*
X8700000Y-46500000D03*
X9600000Y-46500000D03*
X19900000Y-48200000D03*
X20800000Y-48200000D03*
X20800000Y-49500000D03*
X19900000Y-49500000D03*
X23100000Y-16550000D03*
X22200000Y-16550000D03*
D11*
X20500000Y-17700000D03*
X20500000Y-18600000D03*
X19600000Y-13950000D03*
X19600000Y-13050000D03*
X20850000Y-13050000D03*
X20850000Y-13950000D03*
X15725000Y-10150000D03*
X15725000Y-11050000D03*
X14425000Y-11050000D03*
X14425000Y-10150000D03*
D10*
X5500000Y-16750000D03*
X6400000Y-16750000D03*
X5550000Y-13150000D03*
X6450000Y-13150000D03*
D11*
X9000000Y-22150000D03*
X9000000Y-21250000D03*
X10250000Y-21250000D03*
X10250000Y-22150000D03*
D10*
X19150000Y-45300000D03*
X20050000Y-45300000D03*
X20050000Y-44000000D03*
X19150000Y-44000000D03*
X19150000Y-42700000D03*
X20050000Y-42700000D03*
D11*
X7850000Y-19250000D03*
X7850000Y-20150000D03*
D10*
X30550000Y-59250000D03*
X29650000Y-59250000D03*
D11*
X13125000Y-11050000D03*
X13125000Y-10150000D03*
D10*
X8700000Y-45250000D03*
X9600000Y-45250000D03*
X16600000Y-35850000D03*
X17500000Y-35850000D03*
X9600000Y-42700000D03*
X8700000Y-42700000D03*
X8500000Y-13150000D03*
X7600000Y-13150000D03*
X20800000Y-50800000D03*
X19900000Y-50800000D03*
X19050000Y-18150000D03*
X18150000Y-18150000D03*
X18150000Y-19400000D03*
X19050000Y-19400000D03*
X22400000Y-38050000D03*
X21500000Y-38050000D03*
X19600000Y-38050000D03*
X20500000Y-38050000D03*
D11*
X14850000Y-21700000D03*
X14850000Y-20800000D03*
X16100000Y-21700000D03*
X16100000Y-20800000D03*
D10*
X22400000Y-36750000D03*
X21500000Y-36750000D03*
X19600000Y-36750000D03*
X20500000Y-36750000D03*
D11*
X13600000Y-21700000D03*
X13600000Y-20800000D03*
X12350000Y-21700000D03*
X12350000Y-20800000D03*
D10*
X21500000Y-35450000D03*
X22400000Y-35450000D03*
X19600000Y-35450000D03*
X20500000Y-35450000D03*
D11*
X126650000Y-53025000D03*
X126650000Y-52125000D03*
X127550000Y-49500000D03*
X127550000Y-50400000D03*
X125175000Y-52600000D03*
X125175000Y-51700000D03*
D10*
X131500000Y-40475000D03*
X130600000Y-40475000D03*
D11*
X123750000Y-53150000D03*
X123750000Y-52250000D03*
X122450000Y-52250000D03*
X122450000Y-53150000D03*
X131700000Y-50325000D03*
X131700000Y-51225000D03*
X130500000Y-51225000D03*
X130500000Y-50325000D03*
X122450000Y-51300000D03*
X122450000Y-50400000D03*
X123750000Y-50400000D03*
X123750000Y-51300000D03*
X55100000Y-8250000D03*
X55100000Y-9150000D03*
D10*
X24000000Y-17650000D03*
X24900000Y-17650000D03*
D11*
X21750000Y-17700000D03*
X21750000Y-18600000D03*
X39300000Y-29100000D03*
X39300000Y-30000000D03*
D10*
X35800000Y-53900000D03*
X34900000Y-53900000D03*
X34900000Y-52600000D03*
X35800000Y-52600000D03*
X35800000Y-51300000D03*
X34900000Y-51300000D03*
D11*
X23850000Y-19225000D03*
X23850000Y-20125000D03*
D10*
X22400000Y-40650000D03*
X21500000Y-40650000D03*
X22400000Y-39350000D03*
X21500000Y-39350000D03*
D20*
X9550000Y-24750000D03*
X12450000Y-24750000D03*
D11*
X10350000Y-26450000D03*
X10350000Y-27350000D03*
X11650000Y-26450000D03*
X11650000Y-27350000D03*
D10*
X17700000Y-31150000D03*
X16800000Y-31150000D03*
X16800000Y-29850000D03*
X17700000Y-29850000D03*
X16800000Y-32450000D03*
X17700000Y-32450000D03*
D11*
X12800000Y-35800000D03*
X12800000Y-34900000D03*
D10*
X10300000Y-34900000D03*
X11200000Y-34900000D03*
X17700000Y-33750000D03*
X16800000Y-33750000D03*
X20400000Y-33750000D03*
X19500000Y-33750000D03*
D11*
X18350000Y-13050000D03*
X18350000Y-13950000D03*
X22100000Y-13950000D03*
X22100000Y-13050000D03*
D10*
X21350000Y-15550000D03*
X20450000Y-15550000D03*
X35800000Y-50000000D03*
X34900000Y-50000000D03*
X35800000Y-48700000D03*
X34900000Y-48700000D03*
X35800000Y-47400000D03*
X34900000Y-47400000D03*
X34900000Y-46100000D03*
X35800000Y-46100000D03*
D11*
X24000000Y-300000D03*
X24000000Y600000D03*
X26450000Y-36250000D03*
X26450000Y-35350000D03*
D10*
X8700000Y-40100000D03*
X9600000Y-40100000D03*
D18*
G36*
X6307538Y-3644544D02*
G01*
X5105456Y-2442462D01*
X5741852Y-1806066D01*
X6943934Y-3008148D01*
X6307538Y-3644544D01*
G37*
G36*
X8358148Y-1593934D02*
G01*
X7156066Y-391852D01*
X7792462Y244544D01*
X8994544Y-957538D01*
X8358148Y-1593934D01*
G37*
G36*
X8335355Y-3511091D02*
G01*
X7911091Y-3935355D01*
X7628249Y-3652513D01*
X8052513Y-3228249D01*
X8335355Y-3511091D01*
G37*
G36*
X8971751Y-4147487D02*
G01*
X8547487Y-4571751D01*
X8264645Y-4288909D01*
X8688909Y-3864645D01*
X8971751Y-4147487D01*
G37*
G36*
X9335355Y-2561091D02*
G01*
X8911091Y-2985355D01*
X8628249Y-2702513D01*
X9052513Y-2278249D01*
X9335355Y-2561091D01*
G37*
G36*
X9971751Y-3197487D02*
G01*
X9547487Y-3621751D01*
X9264645Y-3338909D01*
X9688909Y-2914645D01*
X9971751Y-3197487D01*
G37*
D10*
X5550000Y-11850000D03*
X6450000Y-11850000D03*
X5500000Y-15450000D03*
X6400000Y-15450000D03*
X8500000Y-11850000D03*
X7600000Y-11850000D03*
D11*
X3300000Y-6000000D03*
X3300000Y-6900000D03*
X4550000Y-6000000D03*
X4550000Y-6900000D03*
D10*
X3150000Y-9250000D03*
X4050000Y-9250000D03*
X3150000Y-8000000D03*
X4050000Y-8000000D03*
D11*
X28050000Y-42150000D03*
X28050000Y-41250000D03*
X26750000Y-42150000D03*
X26750000Y-41250000D03*
X25450000Y-41250000D03*
X25450000Y-42150000D03*
D10*
X22400000Y-48850000D03*
X23300000Y-48850000D03*
X23300000Y-50150000D03*
X22400000Y-50150000D03*
X28400000Y-39000000D03*
X27500000Y-39000000D03*
X28400000Y-37750000D03*
X27500000Y-37750000D03*
X25650000Y-47100000D03*
X26550000Y-47100000D03*
X26550000Y-48850000D03*
X25650000Y-48850000D03*
X30050000Y-45800000D03*
X30950000Y-45800000D03*
X28900000Y-45800000D03*
X28000000Y-45800000D03*
X30500000Y-55500000D03*
X29600000Y-55500000D03*
X30500000Y-56750000D03*
X29600000Y-56750000D03*
X34250000Y-44750000D03*
X33350000Y-44750000D03*
X34250000Y-43500000D03*
X33350000Y-43500000D03*
D11*
X32850000Y-55400000D03*
X32850000Y-56300000D03*
X31600000Y-55400000D03*
X31600000Y-56300000D03*
D21*
X138450000Y-3650000D03*
X138450000Y-750000D03*
D10*
X135650000Y-1400000D03*
X136550000Y-1400000D03*
X135650000Y-3050000D03*
X136550000Y-3050000D03*
D11*
X127950000Y-4550000D03*
X127950000Y-3650000D03*
X129300000Y-4650000D03*
X129300000Y-5550000D03*
X126600000Y-4550000D03*
X126600000Y-3650000D03*
X123100000Y950000D03*
X123100000Y50000D03*
X124500000Y50000D03*
X124500000Y950000D03*
X123100000Y-1950000D03*
X123100000Y-1050000D03*
X124500000Y-1950000D03*
X124500000Y-1050000D03*
D22*
X54650000Y-12700000D03*
X53700000Y-10700000D03*
X55600000Y-10700000D03*
D23*
X14150000Y-53085000D03*
X15420000Y-53085000D03*
X16690000Y-53085000D03*
X17960000Y-53085000D03*
X17960000Y-48005000D03*
X16690000Y-48005000D03*
X15420000Y-48005000D03*
X14150000Y-48005000D03*
D24*
X124162500Y-41787500D03*
X125087500Y-41787500D03*
X124162500Y-43637500D03*
X124162500Y-42712500D03*
X125087500Y-42712500D03*
X125087500Y-43637500D03*
X125087500Y-44562500D03*
X124162500Y-44562500D03*
X126937500Y-44562500D03*
X126012500Y-43637500D03*
X126012500Y-42712500D03*
X126012500Y-41787500D03*
X126937500Y-41787500D03*
X126937500Y-42712500D03*
X126937500Y-43637500D03*
X126012500Y-44562500D03*
D25*
X128325000Y-41175000D03*
X128325000Y-41675000D03*
X128325000Y-42175000D03*
X128325000Y-42675000D03*
X128325000Y-43175000D03*
X128325000Y-43675000D03*
X128325000Y-44175000D03*
X128325000Y-44675000D03*
X128325000Y-45175000D03*
D26*
X127550000Y-45950000D03*
X127050000Y-45950000D03*
X126550000Y-45950000D03*
X126050000Y-45950000D03*
X125550000Y-45950000D03*
X125050000Y-45950000D03*
X124550000Y-45950000D03*
X124050000Y-45950000D03*
X123550000Y-45950000D03*
D25*
X122775000Y-45175000D03*
X122775000Y-44675000D03*
X122775000Y-44175000D03*
X122775000Y-43675000D03*
X122775000Y-43175000D03*
X122775000Y-42675000D03*
X122775000Y-42175000D03*
X122775000Y-41675000D03*
X122775000Y-41175000D03*
D26*
X123550000Y-40400000D03*
X124050000Y-40400000D03*
X124550000Y-40400000D03*
X125050000Y-40400000D03*
X125550000Y-40400000D03*
X126050000Y-40400000D03*
X126550000Y-40400000D03*
X127050000Y-40400000D03*
X127550000Y-40400000D03*
D27*
X135025000Y-45625000D03*
X133625000Y-45625000D03*
X133625000Y-44525000D03*
X135025000Y-44525000D03*
D28*
X16795000Y-75080000D03*
X17595000Y-75080000D03*
X18395000Y-75080000D03*
X19195000Y-75080000D03*
X19995000Y-75080000D03*
X20795000Y-75080000D03*
X21595000Y-75080000D03*
X22395000Y-75080000D03*
X23195000Y-75080000D03*
X23995000Y-75080000D03*
X24795000Y-75080000D03*
X25595000Y-75080000D03*
X26395000Y-75080000D03*
X27195000Y-75080000D03*
X27995000Y-75080000D03*
X28795000Y-75080000D03*
X29595000Y-75080000D03*
X30395000Y-75080000D03*
X31195000Y-75080000D03*
X31995000Y-75080000D03*
X32795000Y-75080000D03*
X33595000Y-75080000D03*
X34395000Y-75080000D03*
X35195000Y-75080000D03*
X35995000Y-75080000D03*
X36795000Y-75080000D03*
X37595000Y-75080000D03*
X38395000Y-75080000D03*
X39195000Y-75080000D03*
X39995000Y-75080000D03*
X40795000Y-75080000D03*
X41595000Y-75080000D03*
X45595000Y-75080000D03*
X46395000Y-75080000D03*
X47195000Y-75080000D03*
X47995000Y-75080000D03*
X48795000Y-75080000D03*
X49595000Y-75080000D03*
X50395000Y-75080000D03*
X51195000Y-75080000D03*
X51995000Y-75080000D03*
X52795000Y-75080000D03*
X53595000Y-75080000D03*
X54395000Y-75080000D03*
X55195000Y-75080000D03*
X55995000Y-75080000D03*
X56795000Y-75080000D03*
X57595000Y-75080000D03*
X58395000Y-75080000D03*
X59195000Y-75080000D03*
X59995000Y-75080000D03*
X60795000Y-75080000D03*
X61595000Y-75080000D03*
X62395000Y-75080000D03*
X63195000Y-75080000D03*
X63995000Y-75080000D03*
X64795000Y-75080000D03*
X65595000Y-75080000D03*
X66395000Y-75080000D03*
X67195000Y-75080000D03*
X67995000Y-75080000D03*
X68795000Y-75080000D03*
X69595000Y-75080000D03*
X70395000Y-75080000D03*
X71195000Y-75080000D03*
X71995000Y-75080000D03*
X72795000Y-75080000D03*
X73595000Y-75080000D03*
X74395000Y-75080000D03*
X75195000Y-75080000D03*
X75995000Y-75080000D03*
X76795000Y-75080000D03*
X77595000Y-75080000D03*
X78395000Y-75080000D03*
X79195000Y-75080000D03*
X79995000Y-75080000D03*
X80795000Y-75080000D03*
X81595000Y-75080000D03*
X82395000Y-75080000D03*
X83195000Y-75080000D03*
X83995000Y-75080000D03*
X84795000Y-75080000D03*
X85595000Y-75080000D03*
X86395000Y-75080000D03*
X87195000Y-75080000D03*
X87995000Y-75080000D03*
X88795000Y-75080000D03*
X89595000Y-75080000D03*
X90395000Y-75080000D03*
X91195000Y-75080000D03*
X91995000Y-75080000D03*
X92795000Y-75080000D03*
X93595000Y-75080000D03*
X94395000Y-75080000D03*
X95195000Y-75080000D03*
X95995000Y-75080000D03*
X96795000Y-75080000D03*
X97595000Y-75080000D03*
X98395000Y-75080000D03*
X99195000Y-75080000D03*
X132595000Y-75080000D03*
X133395000Y-75080000D03*
X112595000Y-75080000D03*
X110195000Y-75080000D03*
X111795000Y-75080000D03*
X110995000Y-75080000D03*
X126195000Y-75080000D03*
X127795000Y-75080000D03*
X126995000Y-75080000D03*
X128595000Y-75080000D03*
X129395000Y-75080000D03*
X131795000Y-75080000D03*
X130995000Y-75080000D03*
X130195000Y-75080000D03*
X115795000Y-75080000D03*
X114195000Y-75080000D03*
X114995000Y-75080000D03*
X113395000Y-75080000D03*
X116595000Y-75080000D03*
X118995000Y-75080000D03*
X117395000Y-75080000D03*
X118195000Y-75080000D03*
X123795000Y-75080000D03*
X122995000Y-75080000D03*
X125395000Y-75080000D03*
X124595000Y-75080000D03*
X121395000Y-75080000D03*
X119795000Y-75080000D03*
X122195000Y-75080000D03*
X120595000Y-75080000D03*
D29*
X10200000Y-19325000D03*
X10200000Y-18675000D03*
X10200000Y-18025000D03*
X10200000Y-17375000D03*
X10200000Y-16725000D03*
X10200000Y-16075000D03*
X10200000Y-15425000D03*
X10200000Y-14775000D03*
X10200000Y-14125000D03*
X10200000Y-13475000D03*
X16100000Y-13475000D03*
X16100000Y-14125000D03*
X16100000Y-14775000D03*
X16100000Y-15425000D03*
X16100000Y-16075000D03*
X16100000Y-16725000D03*
X16100000Y-17375000D03*
X16100000Y-18025000D03*
X16100000Y-18675000D03*
X16100000Y-19325000D03*
D30*
X17075000Y-44700000D03*
X16425000Y-44700000D03*
X15775000Y-44700000D03*
X15125000Y-44700000D03*
X14475000Y-44700000D03*
X13825000Y-44700000D03*
X13175000Y-44700000D03*
X12525000Y-44700000D03*
X11875000Y-44700000D03*
X11225000Y-44700000D03*
X11225000Y-38800000D03*
X11875000Y-38800000D03*
X12525000Y-38800000D03*
X13175000Y-38800000D03*
X13825000Y-38800000D03*
X14475000Y-38800000D03*
X15125000Y-38800000D03*
X15775000Y-38800000D03*
X16425000Y-38800000D03*
X17075000Y-38800000D03*
D31*
X34950000Y-14400000D03*
X38750000Y-14400000D03*
X26550000Y-15250000D03*
X30350000Y-15250000D03*
D32*
X22850000Y-28000000D03*
X22850000Y-31800000D03*
X19750000Y-8400000D03*
X19750000Y-4600000D03*
D33*
X47075000Y-13700000D03*
X47725000Y-13700000D03*
X48375000Y-13700000D03*
X49025000Y-13700000D03*
X49025000Y-9400000D03*
X48375000Y-9400000D03*
X47725000Y-9400000D03*
X47075000Y-9400000D03*
D14*
X50300000Y-16950000D03*
X51800000Y-16950000D03*
D11*
X53100000Y-8250000D03*
X53100000Y-9150000D03*
D34*
X130700000Y-2800000D03*
X131100000Y-2800000D03*
X131500000Y-2800000D03*
X131900000Y-2800000D03*
X130700000Y-2400000D03*
X131100000Y-2400000D03*
X131500000Y-2400000D03*
X131900000Y-2400000D03*
X130700000Y-2000000D03*
X131100000Y-2000000D03*
X131500000Y-2000000D03*
X131900000Y-2000000D03*
X12650000Y-32550000D03*
X12250000Y-32550000D03*
X11850000Y-32550000D03*
X11450000Y-32550000D03*
X12650000Y-32950000D03*
X12250000Y-32950000D03*
X11850000Y-32950000D03*
X11450000Y-32950000D03*
X12650000Y-33350000D03*
X12250000Y-33350000D03*
X11850000Y-33350000D03*
X11450000Y-33350000D03*
X8650000Y-9000000D03*
X9050000Y-9000000D03*
X9450000Y-9000000D03*
X9850000Y-9000000D03*
X8650000Y-8600000D03*
X9050000Y-8600000D03*
X9450000Y-8600000D03*
X9850000Y-8600000D03*
X8650000Y-8200000D03*
X9050000Y-8200000D03*
X9450000Y-8200000D03*
X9850000Y-8200000D03*
D35*
X33680000Y-41150000D03*
X33680000Y-40650000D03*
X33680000Y-40150000D03*
X33680000Y-39650000D03*
X33680000Y-39150000D03*
X33680000Y-38650000D03*
D36*
X33000000Y-37970000D03*
X32500000Y-37970000D03*
X32000000Y-37970000D03*
X31500000Y-37970000D03*
X31000000Y-37970000D03*
X30500000Y-37970000D03*
D35*
X29820000Y-38650000D03*
X29820000Y-39150000D03*
X29820000Y-39650000D03*
X29820000Y-40150000D03*
X29820000Y-40650000D03*
X29820000Y-41150000D03*
D36*
X30500000Y-41830000D03*
X31000000Y-41830000D03*
X31500000Y-41830000D03*
X32000000Y-41830000D03*
X32500000Y-41830000D03*
X33000000Y-41830000D03*
D37*
X31750000Y-39900000D03*
X29950000Y-50000000D03*
D36*
X31200000Y-51930000D03*
X30700000Y-51930000D03*
X30200000Y-51930000D03*
X29700000Y-51930000D03*
X29200000Y-51930000D03*
X28700000Y-51930000D03*
D35*
X28020000Y-51250000D03*
X28020000Y-50750000D03*
X28020000Y-50250000D03*
X28020000Y-49750000D03*
X28020000Y-49250000D03*
X28020000Y-48750000D03*
D36*
X28700000Y-48070000D03*
X29200000Y-48070000D03*
X29700000Y-48070000D03*
X30200000Y-48070000D03*
X30700000Y-48070000D03*
X31200000Y-48070000D03*
D35*
X31880000Y-48750000D03*
X31880000Y-49250000D03*
X31880000Y-49750000D03*
X31880000Y-50250000D03*
X31880000Y-50750000D03*
X31880000Y-51250000D03*
M02*
