G04 #@! TF.GenerationSoftware,KiCad,Pcbnew,(5.1.6)-1*
G04 #@! TF.CreationDate,2021-11-02T14:31:17+01:00*
G04 #@! TF.ProjectId,Riser Tioga Pass 2OU 2xPCIe x16,52697365-7220-4546-996f-676120506173,rev?*
G04 #@! TF.SameCoordinates,PX328b740PY3211620*
G04 #@! TF.FileFunction,Profile,NP*
%FSLAX46Y46*%
G04 Gerber Fmt 4.6, Leading zero omitted, Abs format (unit mm)*
G04 Created by KiCad (PCBNEW (5.1.6)-1) date 2021-11-02 14:31:17*
%MOMM*%
%LPD*%
G01*
G04 APERTURE LIST*
G04 #@! TA.AperFunction,Profile*
%ADD10C,0.200000*%
G04 #@! TD*
G04 APERTURE END LIST*
D10*
X100220000Y-70480000D02*
G75*
G02*
X101220000Y-69480000I1000000J0D01*
G01*
X100220000Y-76980000D02*
X100220000Y-70480000D01*
X44790000Y-76700577D02*
X44790000Y-76980000D01*
X45290000Y-77480000D02*
X44790000Y-76980000D01*
X99715000Y-77480000D02*
X45290000Y-77480000D01*
X100220000Y-76980000D02*
X99715000Y-77480000D01*
X109165000Y-76700577D02*
X109165000Y-76980000D01*
X109665152Y-77480000D02*
X109165000Y-76980000D01*
X133915000Y-77480000D02*
X109665152Y-77480000D01*
X134405000Y-76980000D02*
X133915000Y-77480000D01*
X134405000Y-76980000D02*
X134405000Y-76700577D01*
X42390000Y-76700577D02*
X42390000Y-72480000D01*
X-1292893Y-58667136D02*
X-2707107Y-57252923D01*
X-585765Y-58960021D02*
G75*
G02*
X-1292893Y-58667136I-21J1000021D01*
G01*
X-585786Y-58960000D02*
X14765000Y-58960000D01*
X14765000Y-58960000D02*
G75*
G02*
X15765000Y-59960000I0J-1000000D01*
G01*
X15765000Y-59960030D02*
X15765000Y-76700577D01*
X42390000Y-72480000D02*
G75*
G02*
X44790000Y-72480000I1200000J0D01*
G01*
X44790000Y-72480000D02*
X44790000Y-76700577D01*
X101220000Y-69480000D02*
X108165000Y-69480000D01*
X108165000Y-69480000D02*
G75*
G02*
X109165000Y-70480000I0J-1000000D01*
G01*
X109165000Y-70480000D02*
X109165000Y-76700577D01*
X134405000Y-76700577D02*
X134405000Y-59960030D01*
X134405000Y-59960030D02*
G75*
G02*
X135405000Y-58960030I1000000J0D01*
G01*
X135405000Y-58960030D02*
X136485787Y-58960030D01*
X137192894Y-58667137D02*
G75*
G02*
X136485787Y-58960030I-707107J707107D01*
G01*
X138607107Y-57252923D02*
X137192893Y-58667136D01*
X138900000Y-56545816D02*
G75*
G02*
X138607107Y-57252923I-1000000J0D01*
G01*
X138900000Y-56545816D02*
X138900000Y-19495000D01*
X138900000Y-19495000D02*
G75*
G02*
X139900000Y-18495000I1000000J0D01*
G01*
X139900000Y-18495000D02*
X152400000Y-18495000D01*
X153400000Y-17495000D02*
G75*
G02*
X152400000Y-18495000I-1000000J0D01*
G01*
X153400000Y-914213D02*
X153400000Y-17495000D01*
X153107107Y-207106D02*
G75*
G02*
X153400000Y-914213I-707107J-707107D01*
G01*
X150692893Y2207107D02*
X153107107Y-207106D01*
X149985786Y2500000D02*
G75*
G02*
X150692893Y2207107I1J-1000000D01*
G01*
X-2000000Y2500000D02*
X149985787Y2500000D01*
X-3000000Y1500000D02*
G75*
G02*
X-2000000Y2500000I1000000J0D01*
G01*
X-3000000Y-56545816D02*
X-3000000Y1500000D01*
X-2707107Y-57252923D02*
G75*
G02*
X-3000000Y-56545816I707107J707107D01*
G01*
X15765000Y-76700577D02*
X15765000Y-76980000D01*
X16265000Y-77480000D02*
X15765000Y-76980000D01*
X41890000Y-77480000D02*
X16265000Y-77480000D01*
X42390000Y-76980000D02*
X41890000Y-77480000D01*
X42390000Y-76980000D02*
X42390000Y-76700577D01*
M02*
