G04 #@! TF.GenerationSoftware,KiCad,Pcbnew,(5.1.6)-1*
G04 #@! TF.CreationDate,2021-03-03T14:17:41+01:00*
G04 #@! TF.ProjectId,Busbar board,42757362-6172-4206-926f-6172642e6b69,rev?*
G04 #@! TF.SameCoordinates,PX4c4b360PY85843d4*
G04 #@! TF.FileFunction,Soldermask,Top*
G04 #@! TF.FilePolarity,Negative*
%FSLAX46Y46*%
G04 Gerber Fmt 4.6, Leading zero omitted, Abs format (unit mm)*
G04 Created by KiCad (PCBNEW (5.1.6)-1) date 2021-03-03 14:17:41*
%MOMM*%
%LPD*%
G01*
G04 APERTURE LIST*
%ADD10C,0.100000*%
G04 APERTURE END LIST*
D10*
G36*
X140744258Y2455227D02*
G01*
X141208510Y2262928D01*
X141208512Y2262927D01*
X141626328Y1983751D01*
X141981651Y1628428D01*
X142260827Y1210612D01*
X142260828Y1210610D01*
X142453127Y746358D01*
X142551160Y253513D01*
X142551160Y-248993D01*
X142453127Y-741838D01*
X142260828Y-1206090D01*
X142260827Y-1206092D01*
X141981651Y-1623908D01*
X141626328Y-1979231D01*
X141208512Y-2258407D01*
X141208511Y-2258408D01*
X141208510Y-2258408D01*
X140744258Y-2450707D01*
X140251413Y-2548740D01*
X139748907Y-2548740D01*
X139256062Y-2450707D01*
X138791810Y-2258408D01*
X138791809Y-2258408D01*
X138791808Y-2258407D01*
X138373992Y-1979231D01*
X138018669Y-1623908D01*
X137739493Y-1206092D01*
X137739492Y-1206090D01*
X137547193Y-741838D01*
X137449160Y-248993D01*
X137449160Y253513D01*
X137547193Y746358D01*
X137739492Y1210610D01*
X137739493Y1210612D01*
X138018669Y1628428D01*
X138373992Y1983751D01*
X138791808Y2262927D01*
X138791810Y2262928D01*
X139256062Y2455227D01*
X139748907Y2553260D01*
X140251413Y2553260D01*
X140744258Y2455227D01*
G37*
G36*
X744258Y2455227D02*
G01*
X1208510Y2262928D01*
X1208512Y2262927D01*
X1626328Y1983751D01*
X1981651Y1628428D01*
X2260827Y1210612D01*
X2260828Y1210610D01*
X2453127Y746358D01*
X2551160Y253513D01*
X2551160Y-248993D01*
X2453127Y-741838D01*
X2260828Y-1206090D01*
X2260827Y-1206092D01*
X1981651Y-1623908D01*
X1626328Y-1979231D01*
X1208512Y-2258407D01*
X1208511Y-2258408D01*
X1208510Y-2258408D01*
X744258Y-2450707D01*
X251413Y-2548740D01*
X-251093Y-2548740D01*
X-743938Y-2450707D01*
X-1208190Y-2258408D01*
X-1208191Y-2258408D01*
X-1208192Y-2258407D01*
X-1626008Y-1979231D01*
X-1981331Y-1623908D01*
X-2260507Y-1206092D01*
X-2260508Y-1206090D01*
X-2452807Y-741838D01*
X-2550840Y-248993D01*
X-2550840Y253513D01*
X-2452807Y746358D01*
X-2260508Y1210610D01*
X-2260507Y1210612D01*
X-1981331Y1628428D01*
X-1626008Y1983751D01*
X-1208192Y2262927D01*
X-1208190Y2262928D01*
X-743938Y2455227D01*
X-251093Y2553260D01*
X251413Y2553260D01*
X744258Y2455227D01*
G37*
G36*
X-16728974Y12701733D02*
G01*
X-16545339Y12665206D01*
X-16199379Y12521904D01*
X-15888023Y12313863D01*
X-15623237Y12049077D01*
X-15415196Y11737721D01*
X-15271894Y11391761D01*
X-15198840Y11024492D01*
X-15198840Y10650028D01*
X-15271894Y10282759D01*
X-15415196Y9936799D01*
X-15623237Y9625443D01*
X-15888023Y9360657D01*
X-16199379Y9152616D01*
X-16545339Y9009314D01*
X-16912607Y8936260D01*
X-17287073Y8936260D01*
X-17654341Y9009314D01*
X-18000301Y9152616D01*
X-18311657Y9360657D01*
X-18576443Y9625443D01*
X-18784484Y9936799D01*
X-18927786Y10282759D01*
X-19000840Y10650028D01*
X-19000840Y11024492D01*
X-18927786Y11391761D01*
X-18784484Y11737721D01*
X-18576443Y12049077D01*
X-18311657Y12313863D01*
X-18000301Y12521904D01*
X-17654341Y12665206D01*
X-17470706Y12701733D01*
X-17287073Y12738260D01*
X-16912607Y12738260D01*
X-16728974Y12701733D01*
G37*
G36*
X5827555Y12096714D02*
G01*
X6000626Y12025026D01*
X6000627Y12025025D01*
X6156387Y11920950D01*
X6288850Y11788487D01*
X6322772Y11737719D01*
X6392926Y11632726D01*
X6464614Y11459655D01*
X6501160Y11275927D01*
X6501160Y11088593D01*
X6464614Y10904865D01*
X6392926Y10731794D01*
X6392925Y10731793D01*
X6288850Y10576033D01*
X6156387Y10443570D01*
X6077978Y10391179D01*
X6000626Y10339494D01*
X5827555Y10267806D01*
X5643827Y10231260D01*
X5456493Y10231260D01*
X5272765Y10267806D01*
X5099694Y10339494D01*
X5022342Y10391179D01*
X4943933Y10443570D01*
X4811470Y10576033D01*
X4707395Y10731793D01*
X4707394Y10731794D01*
X4635706Y10904865D01*
X4599160Y11088593D01*
X4599160Y11275927D01*
X4635706Y11459655D01*
X4707394Y11632726D01*
X4777548Y11737719D01*
X4811470Y11788487D01*
X4943933Y11920950D01*
X5099693Y12025025D01*
X5099694Y12025026D01*
X5272765Y12096714D01*
X5456493Y12133260D01*
X5643827Y12133260D01*
X5827555Y12096714D01*
G37*
G36*
X525491Y15014049D02*
G01*
X853252Y14878286D01*
X1148230Y14681188D01*
X1399088Y14430330D01*
X1596186Y14135352D01*
X1731949Y13807591D01*
X1801160Y13459644D01*
X1801160Y13104876D01*
X1731949Y12756929D01*
X1596186Y12429168D01*
X1399088Y12134190D01*
X1148230Y11883332D01*
X853252Y11686234D01*
X525491Y11550471D01*
X177544Y11481260D01*
X-177224Y11481260D01*
X-525171Y11550471D01*
X-852932Y11686234D01*
X-1147910Y11883332D01*
X-1398768Y12134190D01*
X-1595866Y12429168D01*
X-1731629Y12756929D01*
X-1800840Y13104876D01*
X-1800840Y13459644D01*
X-1731629Y13807591D01*
X-1595866Y14135352D01*
X-1398768Y14430330D01*
X-1147910Y14681188D01*
X-852932Y14878286D01*
X-525171Y15014049D01*
X-177224Y15083260D01*
X177544Y15083260D01*
X525491Y15014049D01*
G37*
G36*
X72202704Y28593080D02*
G01*
X73576898Y28023870D01*
X73576900Y28023869D01*
X74813642Y27197505D01*
X75865405Y26145742D01*
X76691769Y24909000D01*
X76691770Y24908998D01*
X77260980Y23534804D01*
X77551160Y22075970D01*
X77551160Y20588550D01*
X77260980Y19129716D01*
X76723253Y17831529D01*
X76691769Y17755520D01*
X75865405Y16518778D01*
X74813642Y15467015D01*
X73576900Y14640651D01*
X73576899Y14640650D01*
X73576898Y14640650D01*
X72202704Y14071440D01*
X70743870Y13781260D01*
X69256450Y13781260D01*
X67797616Y14071440D01*
X66423422Y14640650D01*
X66423421Y14640650D01*
X66423420Y14640651D01*
X65186678Y15467015D01*
X64134915Y16518778D01*
X63308551Y17755520D01*
X63277067Y17831529D01*
X62739340Y19129716D01*
X62449160Y20588550D01*
X62449160Y22075970D01*
X62739340Y23534804D01*
X63308550Y24908998D01*
X63308551Y24909000D01*
X64134915Y26145742D01*
X65186678Y27197505D01*
X66423420Y28023869D01*
X66423422Y28023870D01*
X67797616Y28593080D01*
X69256450Y28883260D01*
X70743870Y28883260D01*
X72202704Y28593080D01*
G37*
G36*
X112202704Y28593080D02*
G01*
X113576898Y28023870D01*
X113576900Y28023869D01*
X114813642Y27197505D01*
X115865405Y26145742D01*
X116691769Y24909000D01*
X116691770Y24908998D01*
X117260980Y23534804D01*
X117551160Y22075970D01*
X117551160Y20588550D01*
X117260980Y19129716D01*
X116723253Y17831529D01*
X116691769Y17755520D01*
X115865405Y16518778D01*
X114813642Y15467015D01*
X113576900Y14640651D01*
X113576899Y14640650D01*
X113576898Y14640650D01*
X112202704Y14071440D01*
X110743870Y13781260D01*
X109256450Y13781260D01*
X107797616Y14071440D01*
X106423422Y14640650D01*
X106423421Y14640650D01*
X106423420Y14640651D01*
X105186678Y15467015D01*
X104134915Y16518778D01*
X103308551Y17755520D01*
X103277067Y17831529D01*
X102739340Y19129716D01*
X102449160Y20588550D01*
X102449160Y22075970D01*
X102739340Y23534804D01*
X103308550Y24908998D01*
X103308551Y24909000D01*
X104134915Y26145742D01*
X105186678Y27197505D01*
X106423420Y28023869D01*
X106423422Y28023870D01*
X107797616Y28593080D01*
X109256450Y28883260D01*
X110743870Y28883260D01*
X112202704Y28593080D01*
G37*
G36*
X5827555Y16296714D02*
G01*
X6000626Y16225026D01*
X6000627Y16225025D01*
X6156387Y16120950D01*
X6288850Y15988487D01*
X6288851Y15988485D01*
X6392926Y15832726D01*
X6464614Y15659655D01*
X6501160Y15475927D01*
X6501160Y15288593D01*
X6464614Y15104865D01*
X6392926Y14931794D01*
X6392925Y14931793D01*
X6288850Y14776033D01*
X6156387Y14643570D01*
X6077978Y14591179D01*
X6000626Y14539494D01*
X5827555Y14467806D01*
X5643827Y14431260D01*
X5456493Y14431260D01*
X5272765Y14467806D01*
X5099694Y14539494D01*
X5022342Y14591179D01*
X4943933Y14643570D01*
X4811470Y14776033D01*
X4707395Y14931793D01*
X4707394Y14931794D01*
X4635706Y15104865D01*
X4599160Y15288593D01*
X4599160Y15475927D01*
X4635706Y15659655D01*
X4707394Y15832726D01*
X4811469Y15988485D01*
X4811470Y15988487D01*
X4943933Y16120950D01*
X5099693Y16225025D01*
X5099694Y16225026D01*
X5272765Y16296714D01*
X5456493Y16333260D01*
X5643827Y16333260D01*
X5827555Y16296714D01*
G37*
G36*
X9925491Y18734049D02*
G01*
X10253252Y18598286D01*
X10548230Y18401188D01*
X10799088Y18150330D01*
X10996186Y17855352D01*
X11131949Y17527591D01*
X11201160Y17179644D01*
X11201160Y16824876D01*
X11131949Y16476929D01*
X10996186Y16149168D01*
X10799088Y15854190D01*
X10548230Y15603332D01*
X10253252Y15406234D01*
X9925491Y15270471D01*
X9577544Y15201260D01*
X9222776Y15201260D01*
X8874829Y15270471D01*
X8547068Y15406234D01*
X8252090Y15603332D01*
X8001232Y15854190D01*
X7804134Y16149168D01*
X7668371Y16476929D01*
X7599160Y16824876D01*
X7599160Y17179644D01*
X7668371Y17527591D01*
X7804134Y17855352D01*
X8001232Y18150330D01*
X8252090Y18401188D01*
X8547068Y18598286D01*
X8874829Y18734049D01*
X9222776Y18803260D01*
X9577544Y18803260D01*
X9925491Y18734049D01*
G37*
G36*
X-13939119Y16307086D02*
G01*
X-13838845Y16265551D01*
X-13838844Y16265550D01*
X-13748598Y16205250D01*
X-13671850Y16128502D01*
X-13671849Y16128500D01*
X-13611549Y16038255D01*
X-13570014Y15937981D01*
X-13548840Y15831530D01*
X-13548840Y15722990D01*
X-13570014Y15616539D01*
X-13611549Y15516265D01*
X-13611550Y15516264D01*
X-13671850Y15426018D01*
X-13748598Y15349270D01*
X-13794028Y15318915D01*
X-13838845Y15288969D01*
X-13939119Y15247434D01*
X-14045570Y15226260D01*
X-14154110Y15226260D01*
X-14260561Y15247434D01*
X-14360835Y15288969D01*
X-14405652Y15318915D01*
X-14451082Y15349270D01*
X-14527830Y15426018D01*
X-14588130Y15516264D01*
X-14588131Y15516265D01*
X-14629666Y15616539D01*
X-14650840Y15722990D01*
X-14650840Y15831530D01*
X-14629666Y15937981D01*
X-14588131Y16038255D01*
X-14527831Y16128500D01*
X-14527830Y16128502D01*
X-14451082Y16205250D01*
X-14360836Y16265550D01*
X-14360835Y16265551D01*
X-14260561Y16307086D01*
X-14154110Y16328260D01*
X-14045570Y16328260D01*
X-13939119Y16307086D01*
G37*
G36*
X-21939119Y16307086D02*
G01*
X-21838845Y16265551D01*
X-21838844Y16265550D01*
X-21748598Y16205250D01*
X-21671850Y16128502D01*
X-21671849Y16128500D01*
X-21611549Y16038255D01*
X-21570014Y15937981D01*
X-21548840Y15831530D01*
X-21548840Y15722990D01*
X-21570014Y15616539D01*
X-21611549Y15516265D01*
X-21611550Y15516264D01*
X-21671850Y15426018D01*
X-21748598Y15349270D01*
X-21794028Y15318915D01*
X-21838845Y15288969D01*
X-21939119Y15247434D01*
X-22045570Y15226260D01*
X-22154110Y15226260D01*
X-22260561Y15247434D01*
X-22360835Y15288969D01*
X-22405652Y15318915D01*
X-22451082Y15349270D01*
X-22527830Y15426018D01*
X-22588130Y15516264D01*
X-22588131Y15516265D01*
X-22629666Y15616539D01*
X-22650840Y15722990D01*
X-22650840Y15831530D01*
X-22629666Y15937981D01*
X-22588131Y16038255D01*
X-22527831Y16128500D01*
X-22527830Y16128502D01*
X-22451082Y16205250D01*
X-22360836Y16265550D01*
X-22360835Y16265551D01*
X-22260561Y16307086D01*
X-22154110Y16328260D01*
X-22045570Y16328260D01*
X-21939119Y16307086D01*
G37*
G36*
X-19939119Y16307086D02*
G01*
X-19838845Y16265551D01*
X-19838844Y16265550D01*
X-19748598Y16205250D01*
X-19671850Y16128502D01*
X-19671849Y16128500D01*
X-19611549Y16038255D01*
X-19570014Y15937981D01*
X-19548840Y15831530D01*
X-19548840Y15722990D01*
X-19570014Y15616539D01*
X-19611549Y15516265D01*
X-19611550Y15516264D01*
X-19671850Y15426018D01*
X-19748598Y15349270D01*
X-19794028Y15318915D01*
X-19838845Y15288969D01*
X-19939119Y15247434D01*
X-20045570Y15226260D01*
X-20154110Y15226260D01*
X-20260561Y15247434D01*
X-20360835Y15288969D01*
X-20405652Y15318915D01*
X-20451082Y15349270D01*
X-20527830Y15426018D01*
X-20588130Y15516264D01*
X-20588131Y15516265D01*
X-20629666Y15616539D01*
X-20650840Y15722990D01*
X-20650840Y15831530D01*
X-20629666Y15937981D01*
X-20588131Y16038255D01*
X-20527831Y16128500D01*
X-20527830Y16128502D01*
X-20451082Y16205250D01*
X-20360836Y16265550D01*
X-20360835Y16265551D01*
X-20260561Y16307086D01*
X-20154110Y16328260D01*
X-20045570Y16328260D01*
X-19939119Y16307086D01*
G37*
G36*
X-17939119Y16307086D02*
G01*
X-17838845Y16265551D01*
X-17838844Y16265550D01*
X-17748598Y16205250D01*
X-17671850Y16128502D01*
X-17671849Y16128500D01*
X-17611549Y16038255D01*
X-17570014Y15937981D01*
X-17548840Y15831530D01*
X-17548840Y15722990D01*
X-17570014Y15616539D01*
X-17611549Y15516265D01*
X-17611550Y15516264D01*
X-17671850Y15426018D01*
X-17748598Y15349270D01*
X-17794028Y15318915D01*
X-17838845Y15288969D01*
X-17939119Y15247434D01*
X-18045570Y15226260D01*
X-18154110Y15226260D01*
X-18260561Y15247434D01*
X-18360835Y15288969D01*
X-18405652Y15318915D01*
X-18451082Y15349270D01*
X-18527830Y15426018D01*
X-18588130Y15516264D01*
X-18588131Y15516265D01*
X-18629666Y15616539D01*
X-18650840Y15722990D01*
X-18650840Y15831530D01*
X-18629666Y15937981D01*
X-18588131Y16038255D01*
X-18527831Y16128500D01*
X-18527830Y16128502D01*
X-18451082Y16205250D01*
X-18360836Y16265550D01*
X-18360835Y16265551D01*
X-18260561Y16307086D01*
X-18154110Y16328260D01*
X-18045570Y16328260D01*
X-17939119Y16307086D01*
G37*
G36*
X-15939119Y16307086D02*
G01*
X-15838845Y16265551D01*
X-15838844Y16265550D01*
X-15748598Y16205250D01*
X-15671850Y16128502D01*
X-15671849Y16128500D01*
X-15611549Y16038255D01*
X-15570014Y15937981D01*
X-15548840Y15831530D01*
X-15548840Y15722990D01*
X-15570014Y15616539D01*
X-15611549Y15516265D01*
X-15611550Y15516264D01*
X-15671850Y15426018D01*
X-15748598Y15349270D01*
X-15794028Y15318915D01*
X-15838845Y15288969D01*
X-15939119Y15247434D01*
X-16045570Y15226260D01*
X-16154110Y15226260D01*
X-16260561Y15247434D01*
X-16360835Y15288969D01*
X-16405652Y15318915D01*
X-16451082Y15349270D01*
X-16527830Y15426018D01*
X-16588130Y15516264D01*
X-16588131Y15516265D01*
X-16629666Y15616539D01*
X-16650840Y15722990D01*
X-16650840Y15831530D01*
X-16629666Y15937981D01*
X-16588131Y16038255D01*
X-16527831Y16128500D01*
X-16527830Y16128502D01*
X-16451082Y16205250D01*
X-16360836Y16265550D01*
X-16360835Y16265551D01*
X-16260561Y16307086D01*
X-16154110Y16328260D01*
X-16045570Y16328260D01*
X-15939119Y16307086D01*
G37*
G36*
X-19939119Y18307086D02*
G01*
X-19838845Y18265551D01*
X-19838844Y18265550D01*
X-19748598Y18205250D01*
X-19671850Y18128502D01*
X-19671849Y18128500D01*
X-19611549Y18038255D01*
X-19570014Y17937981D01*
X-19548840Y17831530D01*
X-19548840Y17722990D01*
X-19570014Y17616539D01*
X-19611549Y17516265D01*
X-19611550Y17516264D01*
X-19671850Y17426018D01*
X-19748598Y17349270D01*
X-19794028Y17318915D01*
X-19838845Y17288969D01*
X-19939119Y17247434D01*
X-20045570Y17226260D01*
X-20154110Y17226260D01*
X-20260561Y17247434D01*
X-20360835Y17288969D01*
X-20405652Y17318915D01*
X-20451082Y17349270D01*
X-20527830Y17426018D01*
X-20588130Y17516264D01*
X-20588131Y17516265D01*
X-20629666Y17616539D01*
X-20650840Y17722990D01*
X-20650840Y17831530D01*
X-20629666Y17937981D01*
X-20588131Y18038255D01*
X-20527831Y18128500D01*
X-20527830Y18128502D01*
X-20451082Y18205250D01*
X-20360836Y18265550D01*
X-20360835Y18265551D01*
X-20260561Y18307086D01*
X-20154110Y18328260D01*
X-20045570Y18328260D01*
X-19939119Y18307086D01*
G37*
G36*
X-13939119Y18307086D02*
G01*
X-13838845Y18265551D01*
X-13838844Y18265550D01*
X-13748598Y18205250D01*
X-13671850Y18128502D01*
X-13671849Y18128500D01*
X-13611549Y18038255D01*
X-13570014Y17937981D01*
X-13548840Y17831530D01*
X-13548840Y17722990D01*
X-13570014Y17616539D01*
X-13611549Y17516265D01*
X-13611550Y17516264D01*
X-13671850Y17426018D01*
X-13748598Y17349270D01*
X-13794028Y17318915D01*
X-13838845Y17288969D01*
X-13939119Y17247434D01*
X-14045570Y17226260D01*
X-14154110Y17226260D01*
X-14260561Y17247434D01*
X-14360835Y17288969D01*
X-14405652Y17318915D01*
X-14451082Y17349270D01*
X-14527830Y17426018D01*
X-14588130Y17516264D01*
X-14588131Y17516265D01*
X-14629666Y17616539D01*
X-14650840Y17722990D01*
X-14650840Y17831530D01*
X-14629666Y17937981D01*
X-14588131Y18038255D01*
X-14527831Y18128500D01*
X-14527830Y18128502D01*
X-14451082Y18205250D01*
X-14360836Y18265550D01*
X-14360835Y18265551D01*
X-14260561Y18307086D01*
X-14154110Y18328260D01*
X-14045570Y18328260D01*
X-13939119Y18307086D01*
G37*
G36*
X-15939119Y18307086D02*
G01*
X-15838845Y18265551D01*
X-15838844Y18265550D01*
X-15748598Y18205250D01*
X-15671850Y18128502D01*
X-15671849Y18128500D01*
X-15611549Y18038255D01*
X-15570014Y17937981D01*
X-15548840Y17831530D01*
X-15548840Y17722990D01*
X-15570014Y17616539D01*
X-15611549Y17516265D01*
X-15611550Y17516264D01*
X-15671850Y17426018D01*
X-15748598Y17349270D01*
X-15794028Y17318915D01*
X-15838845Y17288969D01*
X-15939119Y17247434D01*
X-16045570Y17226260D01*
X-16154110Y17226260D01*
X-16260561Y17247434D01*
X-16360835Y17288969D01*
X-16405652Y17318915D01*
X-16451082Y17349270D01*
X-16527830Y17426018D01*
X-16588130Y17516264D01*
X-16588131Y17516265D01*
X-16629666Y17616539D01*
X-16650840Y17722990D01*
X-16650840Y17831530D01*
X-16629666Y17937981D01*
X-16588131Y18038255D01*
X-16527831Y18128500D01*
X-16527830Y18128502D01*
X-16451082Y18205250D01*
X-16360836Y18265550D01*
X-16360835Y18265551D01*
X-16260561Y18307086D01*
X-16154110Y18328260D01*
X-16045570Y18328260D01*
X-15939119Y18307086D01*
G37*
G36*
X-17939119Y18307086D02*
G01*
X-17838845Y18265551D01*
X-17838844Y18265550D01*
X-17748598Y18205250D01*
X-17671850Y18128502D01*
X-17671849Y18128500D01*
X-17611549Y18038255D01*
X-17570014Y17937981D01*
X-17548840Y17831530D01*
X-17548840Y17722990D01*
X-17570014Y17616539D01*
X-17611549Y17516265D01*
X-17611550Y17516264D01*
X-17671850Y17426018D01*
X-17748598Y17349270D01*
X-17794028Y17318915D01*
X-17838845Y17288969D01*
X-17939119Y17247434D01*
X-18045570Y17226260D01*
X-18154110Y17226260D01*
X-18260561Y17247434D01*
X-18360835Y17288969D01*
X-18405652Y17318915D01*
X-18451082Y17349270D01*
X-18527830Y17426018D01*
X-18588130Y17516264D01*
X-18588131Y17516265D01*
X-18629666Y17616539D01*
X-18650840Y17722990D01*
X-18650840Y17831530D01*
X-18629666Y17937981D01*
X-18588131Y18038255D01*
X-18527831Y18128500D01*
X-18527830Y18128502D01*
X-18451082Y18205250D01*
X-18360836Y18265550D01*
X-18360835Y18265551D01*
X-18260561Y18307086D01*
X-18154110Y18328260D01*
X-18045570Y18328260D01*
X-17939119Y18307086D01*
G37*
G36*
X-21939119Y18307086D02*
G01*
X-21838845Y18265551D01*
X-21838844Y18265550D01*
X-21748598Y18205250D01*
X-21671850Y18128502D01*
X-21671849Y18128500D01*
X-21611549Y18038255D01*
X-21570014Y17937981D01*
X-21548840Y17831530D01*
X-21548840Y17722990D01*
X-21570014Y17616539D01*
X-21611549Y17516265D01*
X-21611550Y17516264D01*
X-21671850Y17426018D01*
X-21748598Y17349270D01*
X-21794028Y17318915D01*
X-21838845Y17288969D01*
X-21939119Y17247434D01*
X-22045570Y17226260D01*
X-22154110Y17226260D01*
X-22260561Y17247434D01*
X-22360835Y17288969D01*
X-22405652Y17318915D01*
X-22451082Y17349270D01*
X-22527830Y17426018D01*
X-22588130Y17516264D01*
X-22588131Y17516265D01*
X-22629666Y17616539D01*
X-22650840Y17722990D01*
X-22650840Y17831530D01*
X-22629666Y17937981D01*
X-22588131Y18038255D01*
X-22527831Y18128500D01*
X-22527830Y18128502D01*
X-22451082Y18205250D01*
X-22360836Y18265550D01*
X-22360835Y18265551D01*
X-22260561Y18307086D01*
X-22154110Y18328260D01*
X-22045570Y18328260D01*
X-21939119Y18307086D01*
G37*
G36*
X-15939119Y20307086D02*
G01*
X-15838845Y20265551D01*
X-15838844Y20265550D01*
X-15748598Y20205250D01*
X-15671850Y20128502D01*
X-15671849Y20128500D01*
X-15611549Y20038255D01*
X-15570014Y19937981D01*
X-15548840Y19831530D01*
X-15548840Y19722990D01*
X-15570014Y19616539D01*
X-15611549Y19516265D01*
X-15611550Y19516264D01*
X-15671850Y19426018D01*
X-15748598Y19349270D01*
X-15794028Y19318915D01*
X-15838845Y19288969D01*
X-15939119Y19247434D01*
X-16045570Y19226260D01*
X-16154110Y19226260D01*
X-16260561Y19247434D01*
X-16360835Y19288969D01*
X-16405652Y19318915D01*
X-16451082Y19349270D01*
X-16527830Y19426018D01*
X-16588130Y19516264D01*
X-16588131Y19516265D01*
X-16629666Y19616539D01*
X-16650840Y19722990D01*
X-16650840Y19831530D01*
X-16629666Y19937981D01*
X-16588131Y20038255D01*
X-16527831Y20128500D01*
X-16527830Y20128502D01*
X-16451082Y20205250D01*
X-16360836Y20265550D01*
X-16360835Y20265551D01*
X-16260561Y20307086D01*
X-16154110Y20328260D01*
X-16045570Y20328260D01*
X-15939119Y20307086D01*
G37*
G36*
X-21939119Y20307086D02*
G01*
X-21838845Y20265551D01*
X-21838844Y20265550D01*
X-21748598Y20205250D01*
X-21671850Y20128502D01*
X-21671849Y20128500D01*
X-21611549Y20038255D01*
X-21570014Y19937981D01*
X-21548840Y19831530D01*
X-21548840Y19722990D01*
X-21570014Y19616539D01*
X-21611549Y19516265D01*
X-21611550Y19516264D01*
X-21671850Y19426018D01*
X-21748598Y19349270D01*
X-21794028Y19318915D01*
X-21838845Y19288969D01*
X-21939119Y19247434D01*
X-22045570Y19226260D01*
X-22154110Y19226260D01*
X-22260561Y19247434D01*
X-22360835Y19288969D01*
X-22405652Y19318915D01*
X-22451082Y19349270D01*
X-22527830Y19426018D01*
X-22588130Y19516264D01*
X-22588131Y19516265D01*
X-22629666Y19616539D01*
X-22650840Y19722990D01*
X-22650840Y19831530D01*
X-22629666Y19937981D01*
X-22588131Y20038255D01*
X-22527831Y20128500D01*
X-22527830Y20128502D01*
X-22451082Y20205250D01*
X-22360836Y20265550D01*
X-22360835Y20265551D01*
X-22260561Y20307086D01*
X-22154110Y20328260D01*
X-22045570Y20328260D01*
X-21939119Y20307086D01*
G37*
G36*
X-19939119Y20307086D02*
G01*
X-19838845Y20265551D01*
X-19838844Y20265550D01*
X-19748598Y20205250D01*
X-19671850Y20128502D01*
X-19671849Y20128500D01*
X-19611549Y20038255D01*
X-19570014Y19937981D01*
X-19548840Y19831530D01*
X-19548840Y19722990D01*
X-19570014Y19616539D01*
X-19611549Y19516265D01*
X-19611550Y19516264D01*
X-19671850Y19426018D01*
X-19748598Y19349270D01*
X-19794028Y19318915D01*
X-19838845Y19288969D01*
X-19939119Y19247434D01*
X-20045570Y19226260D01*
X-20154110Y19226260D01*
X-20260561Y19247434D01*
X-20360835Y19288969D01*
X-20405652Y19318915D01*
X-20451082Y19349270D01*
X-20527830Y19426018D01*
X-20588130Y19516264D01*
X-20588131Y19516265D01*
X-20629666Y19616539D01*
X-20650840Y19722990D01*
X-20650840Y19831530D01*
X-20629666Y19937981D01*
X-20588131Y20038255D01*
X-20527831Y20128500D01*
X-20527830Y20128502D01*
X-20451082Y20205250D01*
X-20360836Y20265550D01*
X-20360835Y20265551D01*
X-20260561Y20307086D01*
X-20154110Y20328260D01*
X-20045570Y20328260D01*
X-19939119Y20307086D01*
G37*
G36*
X-13939119Y20307086D02*
G01*
X-13838845Y20265551D01*
X-13838844Y20265550D01*
X-13748598Y20205250D01*
X-13671850Y20128502D01*
X-13671849Y20128500D01*
X-13611549Y20038255D01*
X-13570014Y19937981D01*
X-13548840Y19831530D01*
X-13548840Y19722990D01*
X-13570014Y19616539D01*
X-13611549Y19516265D01*
X-13611550Y19516264D01*
X-13671850Y19426018D01*
X-13748598Y19349270D01*
X-13794028Y19318915D01*
X-13838845Y19288969D01*
X-13939119Y19247434D01*
X-14045570Y19226260D01*
X-14154110Y19226260D01*
X-14260561Y19247434D01*
X-14360835Y19288969D01*
X-14405652Y19318915D01*
X-14451082Y19349270D01*
X-14527830Y19426018D01*
X-14588130Y19516264D01*
X-14588131Y19516265D01*
X-14629666Y19616539D01*
X-14650840Y19722990D01*
X-14650840Y19831530D01*
X-14629666Y19937981D01*
X-14588131Y20038255D01*
X-14527831Y20128500D01*
X-14527830Y20128502D01*
X-14451082Y20205250D01*
X-14360836Y20265550D01*
X-14360835Y20265551D01*
X-14260561Y20307086D01*
X-14154110Y20328260D01*
X-14045570Y20328260D01*
X-13939119Y20307086D01*
G37*
G36*
X-17939119Y20307086D02*
G01*
X-17838845Y20265551D01*
X-17838844Y20265550D01*
X-17748598Y20205250D01*
X-17671850Y20128502D01*
X-17671849Y20128500D01*
X-17611549Y20038255D01*
X-17570014Y19937981D01*
X-17548840Y19831530D01*
X-17548840Y19722990D01*
X-17570014Y19616539D01*
X-17611549Y19516265D01*
X-17611550Y19516264D01*
X-17671850Y19426018D01*
X-17748598Y19349270D01*
X-17794028Y19318915D01*
X-17838845Y19288969D01*
X-17939119Y19247434D01*
X-18045570Y19226260D01*
X-18154110Y19226260D01*
X-18260561Y19247434D01*
X-18360835Y19288969D01*
X-18405652Y19318915D01*
X-18451082Y19349270D01*
X-18527830Y19426018D01*
X-18588130Y19516264D01*
X-18588131Y19516265D01*
X-18629666Y19616539D01*
X-18650840Y19722990D01*
X-18650840Y19831530D01*
X-18629666Y19937981D01*
X-18588131Y20038255D01*
X-18527831Y20128500D01*
X-18527830Y20128502D01*
X-18451082Y20205250D01*
X-18360836Y20265550D01*
X-18360835Y20265551D01*
X-18260561Y20307086D01*
X-18154110Y20328260D01*
X-18045570Y20328260D01*
X-17939119Y20307086D01*
G37*
G36*
X-19939119Y22307086D02*
G01*
X-19838845Y22265551D01*
X-19838844Y22265550D01*
X-19748598Y22205250D01*
X-19671850Y22128502D01*
X-19671849Y22128500D01*
X-19611549Y22038255D01*
X-19570014Y21937981D01*
X-19548840Y21831530D01*
X-19548840Y21722990D01*
X-19570014Y21616539D01*
X-19611549Y21516265D01*
X-19611550Y21516264D01*
X-19671850Y21426018D01*
X-19748598Y21349270D01*
X-19794028Y21318915D01*
X-19838845Y21288969D01*
X-19939119Y21247434D01*
X-20045570Y21226260D01*
X-20154110Y21226260D01*
X-20260561Y21247434D01*
X-20360835Y21288969D01*
X-20405652Y21318915D01*
X-20451082Y21349270D01*
X-20527830Y21426018D01*
X-20588130Y21516264D01*
X-20588131Y21516265D01*
X-20629666Y21616539D01*
X-20650840Y21722990D01*
X-20650840Y21831530D01*
X-20629666Y21937981D01*
X-20588131Y22038255D01*
X-20527831Y22128500D01*
X-20527830Y22128502D01*
X-20451082Y22205250D01*
X-20360836Y22265550D01*
X-20360835Y22265551D01*
X-20260561Y22307086D01*
X-20154110Y22328260D01*
X-20045570Y22328260D01*
X-19939119Y22307086D01*
G37*
G36*
X-21939119Y22307086D02*
G01*
X-21838845Y22265551D01*
X-21838844Y22265550D01*
X-21748598Y22205250D01*
X-21671850Y22128502D01*
X-21671849Y22128500D01*
X-21611549Y22038255D01*
X-21570014Y21937981D01*
X-21548840Y21831530D01*
X-21548840Y21722990D01*
X-21570014Y21616539D01*
X-21611549Y21516265D01*
X-21611550Y21516264D01*
X-21671850Y21426018D01*
X-21748598Y21349270D01*
X-21794028Y21318915D01*
X-21838845Y21288969D01*
X-21939119Y21247434D01*
X-22045570Y21226260D01*
X-22154110Y21226260D01*
X-22260561Y21247434D01*
X-22360835Y21288969D01*
X-22405652Y21318915D01*
X-22451082Y21349270D01*
X-22527830Y21426018D01*
X-22588130Y21516264D01*
X-22588131Y21516265D01*
X-22629666Y21616539D01*
X-22650840Y21722990D01*
X-22650840Y21831530D01*
X-22629666Y21937981D01*
X-22588131Y22038255D01*
X-22527831Y22128500D01*
X-22527830Y22128502D01*
X-22451082Y22205250D01*
X-22360836Y22265550D01*
X-22360835Y22265551D01*
X-22260561Y22307086D01*
X-22154110Y22328260D01*
X-22045570Y22328260D01*
X-21939119Y22307086D01*
G37*
G36*
X-17939119Y22307086D02*
G01*
X-17838845Y22265551D01*
X-17838844Y22265550D01*
X-17748598Y22205250D01*
X-17671850Y22128502D01*
X-17671849Y22128500D01*
X-17611549Y22038255D01*
X-17570014Y21937981D01*
X-17548840Y21831530D01*
X-17548840Y21722990D01*
X-17570014Y21616539D01*
X-17611549Y21516265D01*
X-17611550Y21516264D01*
X-17671850Y21426018D01*
X-17748598Y21349270D01*
X-17794028Y21318915D01*
X-17838845Y21288969D01*
X-17939119Y21247434D01*
X-18045570Y21226260D01*
X-18154110Y21226260D01*
X-18260561Y21247434D01*
X-18360835Y21288969D01*
X-18405652Y21318915D01*
X-18451082Y21349270D01*
X-18527830Y21426018D01*
X-18588130Y21516264D01*
X-18588131Y21516265D01*
X-18629666Y21616539D01*
X-18650840Y21722990D01*
X-18650840Y21831530D01*
X-18629666Y21937981D01*
X-18588131Y22038255D01*
X-18527831Y22128500D01*
X-18527830Y22128502D01*
X-18451082Y22205250D01*
X-18360836Y22265550D01*
X-18360835Y22265551D01*
X-18260561Y22307086D01*
X-18154110Y22328260D01*
X-18045570Y22328260D01*
X-17939119Y22307086D01*
G37*
G36*
X-15939119Y22307086D02*
G01*
X-15838845Y22265551D01*
X-15838844Y22265550D01*
X-15748598Y22205250D01*
X-15671850Y22128502D01*
X-15671849Y22128500D01*
X-15611549Y22038255D01*
X-15570014Y21937981D01*
X-15548840Y21831530D01*
X-15548840Y21722990D01*
X-15570014Y21616539D01*
X-15611549Y21516265D01*
X-15611550Y21516264D01*
X-15671850Y21426018D01*
X-15748598Y21349270D01*
X-15794028Y21318915D01*
X-15838845Y21288969D01*
X-15939119Y21247434D01*
X-16045570Y21226260D01*
X-16154110Y21226260D01*
X-16260561Y21247434D01*
X-16360835Y21288969D01*
X-16405652Y21318915D01*
X-16451082Y21349270D01*
X-16527830Y21426018D01*
X-16588130Y21516264D01*
X-16588131Y21516265D01*
X-16629666Y21616539D01*
X-16650840Y21722990D01*
X-16650840Y21831530D01*
X-16629666Y21937981D01*
X-16588131Y22038255D01*
X-16527831Y22128500D01*
X-16527830Y22128502D01*
X-16451082Y22205250D01*
X-16360836Y22265550D01*
X-16360835Y22265551D01*
X-16260561Y22307086D01*
X-16154110Y22328260D01*
X-16045570Y22328260D01*
X-15939119Y22307086D01*
G37*
G36*
X-13939119Y22307086D02*
G01*
X-13838845Y22265551D01*
X-13838844Y22265550D01*
X-13748598Y22205250D01*
X-13671850Y22128502D01*
X-13671849Y22128500D01*
X-13611549Y22038255D01*
X-13570014Y21937981D01*
X-13548840Y21831530D01*
X-13548840Y21722990D01*
X-13570014Y21616539D01*
X-13611549Y21516265D01*
X-13611550Y21516264D01*
X-13671850Y21426018D01*
X-13748598Y21349270D01*
X-13794028Y21318915D01*
X-13838845Y21288969D01*
X-13939119Y21247434D01*
X-14045570Y21226260D01*
X-14154110Y21226260D01*
X-14260561Y21247434D01*
X-14360835Y21288969D01*
X-14405652Y21318915D01*
X-14451082Y21349270D01*
X-14527830Y21426018D01*
X-14588130Y21516264D01*
X-14588131Y21516265D01*
X-14629666Y21616539D01*
X-14650840Y21722990D01*
X-14650840Y21831530D01*
X-14629666Y21937981D01*
X-14588131Y22038255D01*
X-14527831Y22128500D01*
X-14527830Y22128502D01*
X-14451082Y22205250D01*
X-14360836Y22265550D01*
X-14360835Y22265551D01*
X-14260561Y22307086D01*
X-14154110Y22328260D01*
X-14045570Y22328260D01*
X-13939119Y22307086D01*
G37*
G36*
X-13939119Y24307086D02*
G01*
X-13838845Y24265551D01*
X-13838844Y24265550D01*
X-13748598Y24205250D01*
X-13671850Y24128502D01*
X-13671849Y24128500D01*
X-13611549Y24038255D01*
X-13570014Y23937981D01*
X-13548840Y23831530D01*
X-13548840Y23722990D01*
X-13570014Y23616539D01*
X-13611549Y23516265D01*
X-13611550Y23516264D01*
X-13671850Y23426018D01*
X-13748598Y23349270D01*
X-13794028Y23318915D01*
X-13838845Y23288969D01*
X-13939119Y23247434D01*
X-14045570Y23226260D01*
X-14154110Y23226260D01*
X-14260561Y23247434D01*
X-14360835Y23288969D01*
X-14405652Y23318915D01*
X-14451082Y23349270D01*
X-14527830Y23426018D01*
X-14588130Y23516264D01*
X-14588131Y23516265D01*
X-14629666Y23616539D01*
X-14650840Y23722990D01*
X-14650840Y23831530D01*
X-14629666Y23937981D01*
X-14588131Y24038255D01*
X-14527831Y24128500D01*
X-14527830Y24128502D01*
X-14451082Y24205250D01*
X-14360836Y24265550D01*
X-14360835Y24265551D01*
X-14260561Y24307086D01*
X-14154110Y24328260D01*
X-14045570Y24328260D01*
X-13939119Y24307086D01*
G37*
G36*
X-15939119Y24307086D02*
G01*
X-15838845Y24265551D01*
X-15838844Y24265550D01*
X-15748598Y24205250D01*
X-15671850Y24128502D01*
X-15671849Y24128500D01*
X-15611549Y24038255D01*
X-15570014Y23937981D01*
X-15548840Y23831530D01*
X-15548840Y23722990D01*
X-15570014Y23616539D01*
X-15611549Y23516265D01*
X-15611550Y23516264D01*
X-15671850Y23426018D01*
X-15748598Y23349270D01*
X-15794028Y23318915D01*
X-15838845Y23288969D01*
X-15939119Y23247434D01*
X-16045570Y23226260D01*
X-16154110Y23226260D01*
X-16260561Y23247434D01*
X-16360835Y23288969D01*
X-16405652Y23318915D01*
X-16451082Y23349270D01*
X-16527830Y23426018D01*
X-16588130Y23516264D01*
X-16588131Y23516265D01*
X-16629666Y23616539D01*
X-16650840Y23722990D01*
X-16650840Y23831530D01*
X-16629666Y23937981D01*
X-16588131Y24038255D01*
X-16527831Y24128500D01*
X-16527830Y24128502D01*
X-16451082Y24205250D01*
X-16360836Y24265550D01*
X-16360835Y24265551D01*
X-16260561Y24307086D01*
X-16154110Y24328260D01*
X-16045570Y24328260D01*
X-15939119Y24307086D01*
G37*
G36*
X-17939119Y24307086D02*
G01*
X-17838845Y24265551D01*
X-17838844Y24265550D01*
X-17748598Y24205250D01*
X-17671850Y24128502D01*
X-17671849Y24128500D01*
X-17611549Y24038255D01*
X-17570014Y23937981D01*
X-17548840Y23831530D01*
X-17548840Y23722990D01*
X-17570014Y23616539D01*
X-17611549Y23516265D01*
X-17611550Y23516264D01*
X-17671850Y23426018D01*
X-17748598Y23349270D01*
X-17794028Y23318915D01*
X-17838845Y23288969D01*
X-17939119Y23247434D01*
X-18045570Y23226260D01*
X-18154110Y23226260D01*
X-18260561Y23247434D01*
X-18360835Y23288969D01*
X-18405652Y23318915D01*
X-18451082Y23349270D01*
X-18527830Y23426018D01*
X-18588130Y23516264D01*
X-18588131Y23516265D01*
X-18629666Y23616539D01*
X-18650840Y23722990D01*
X-18650840Y23831530D01*
X-18629666Y23937981D01*
X-18588131Y24038255D01*
X-18527831Y24128500D01*
X-18527830Y24128502D01*
X-18451082Y24205250D01*
X-18360836Y24265550D01*
X-18360835Y24265551D01*
X-18260561Y24307086D01*
X-18154110Y24328260D01*
X-18045570Y24328260D01*
X-17939119Y24307086D01*
G37*
G36*
X-19939119Y24307086D02*
G01*
X-19838845Y24265551D01*
X-19838844Y24265550D01*
X-19748598Y24205250D01*
X-19671850Y24128502D01*
X-19671849Y24128500D01*
X-19611549Y24038255D01*
X-19570014Y23937981D01*
X-19548840Y23831530D01*
X-19548840Y23722990D01*
X-19570014Y23616539D01*
X-19611549Y23516265D01*
X-19611550Y23516264D01*
X-19671850Y23426018D01*
X-19748598Y23349270D01*
X-19794028Y23318915D01*
X-19838845Y23288969D01*
X-19939119Y23247434D01*
X-20045570Y23226260D01*
X-20154110Y23226260D01*
X-20260561Y23247434D01*
X-20360835Y23288969D01*
X-20405652Y23318915D01*
X-20451082Y23349270D01*
X-20527830Y23426018D01*
X-20588130Y23516264D01*
X-20588131Y23516265D01*
X-20629666Y23616539D01*
X-20650840Y23722990D01*
X-20650840Y23831530D01*
X-20629666Y23937981D01*
X-20588131Y24038255D01*
X-20527831Y24128500D01*
X-20527830Y24128502D01*
X-20451082Y24205250D01*
X-20360836Y24265550D01*
X-20360835Y24265551D01*
X-20260561Y24307086D01*
X-20154110Y24328260D01*
X-20045570Y24328260D01*
X-19939119Y24307086D01*
G37*
G36*
X-21939119Y24307086D02*
G01*
X-21838845Y24265551D01*
X-21838844Y24265550D01*
X-21748598Y24205250D01*
X-21671850Y24128502D01*
X-21671849Y24128500D01*
X-21611549Y24038255D01*
X-21570014Y23937981D01*
X-21548840Y23831530D01*
X-21548840Y23722990D01*
X-21570014Y23616539D01*
X-21611549Y23516265D01*
X-21611550Y23516264D01*
X-21671850Y23426018D01*
X-21748598Y23349270D01*
X-21794028Y23318915D01*
X-21838845Y23288969D01*
X-21939119Y23247434D01*
X-22045570Y23226260D01*
X-22154110Y23226260D01*
X-22260561Y23247434D01*
X-22360835Y23288969D01*
X-22405652Y23318915D01*
X-22451082Y23349270D01*
X-22527830Y23426018D01*
X-22588130Y23516264D01*
X-22588131Y23516265D01*
X-22629666Y23616539D01*
X-22650840Y23722990D01*
X-22650840Y23831530D01*
X-22629666Y23937981D01*
X-22588131Y24038255D01*
X-22527831Y24128500D01*
X-22527830Y24128502D01*
X-22451082Y24205250D01*
X-22360836Y24265550D01*
X-22360835Y24265551D01*
X-22260561Y24307086D01*
X-22154110Y24328260D01*
X-22045570Y24328260D01*
X-21939119Y24307086D01*
G37*
G36*
X-19939119Y26307086D02*
G01*
X-19838845Y26265551D01*
X-19838844Y26265550D01*
X-19748598Y26205250D01*
X-19671850Y26128502D01*
X-19671849Y26128500D01*
X-19611549Y26038255D01*
X-19570014Y25937981D01*
X-19548840Y25831530D01*
X-19548840Y25722990D01*
X-19570014Y25616539D01*
X-19611549Y25516265D01*
X-19611550Y25516264D01*
X-19671850Y25426018D01*
X-19748598Y25349270D01*
X-19794028Y25318915D01*
X-19838845Y25288969D01*
X-19939119Y25247434D01*
X-20045570Y25226260D01*
X-20154110Y25226260D01*
X-20260561Y25247434D01*
X-20360835Y25288969D01*
X-20405652Y25318915D01*
X-20451082Y25349270D01*
X-20527830Y25426018D01*
X-20588130Y25516264D01*
X-20588131Y25516265D01*
X-20629666Y25616539D01*
X-20650840Y25722990D01*
X-20650840Y25831530D01*
X-20629666Y25937981D01*
X-20588131Y26038255D01*
X-20527831Y26128500D01*
X-20527830Y26128502D01*
X-20451082Y26205250D01*
X-20360836Y26265550D01*
X-20360835Y26265551D01*
X-20260561Y26307086D01*
X-20154110Y26328260D01*
X-20045570Y26328260D01*
X-19939119Y26307086D01*
G37*
G36*
X-13939119Y26307086D02*
G01*
X-13838845Y26265551D01*
X-13838844Y26265550D01*
X-13748598Y26205250D01*
X-13671850Y26128502D01*
X-13671849Y26128500D01*
X-13611549Y26038255D01*
X-13570014Y25937981D01*
X-13548840Y25831530D01*
X-13548840Y25722990D01*
X-13570014Y25616539D01*
X-13611549Y25516265D01*
X-13611550Y25516264D01*
X-13671850Y25426018D01*
X-13748598Y25349270D01*
X-13794028Y25318915D01*
X-13838845Y25288969D01*
X-13939119Y25247434D01*
X-14045570Y25226260D01*
X-14154110Y25226260D01*
X-14260561Y25247434D01*
X-14360835Y25288969D01*
X-14405652Y25318915D01*
X-14451082Y25349270D01*
X-14527830Y25426018D01*
X-14588130Y25516264D01*
X-14588131Y25516265D01*
X-14629666Y25616539D01*
X-14650840Y25722990D01*
X-14650840Y25831530D01*
X-14629666Y25937981D01*
X-14588131Y26038255D01*
X-14527831Y26128500D01*
X-14527830Y26128502D01*
X-14451082Y26205250D01*
X-14360836Y26265550D01*
X-14360835Y26265551D01*
X-14260561Y26307086D01*
X-14154110Y26328260D01*
X-14045570Y26328260D01*
X-13939119Y26307086D01*
G37*
G36*
X-17939119Y26307086D02*
G01*
X-17838845Y26265551D01*
X-17838844Y26265550D01*
X-17748598Y26205250D01*
X-17671850Y26128502D01*
X-17671849Y26128500D01*
X-17611549Y26038255D01*
X-17570014Y25937981D01*
X-17548840Y25831530D01*
X-17548840Y25722990D01*
X-17570014Y25616539D01*
X-17611549Y25516265D01*
X-17611550Y25516264D01*
X-17671850Y25426018D01*
X-17748598Y25349270D01*
X-17794028Y25318915D01*
X-17838845Y25288969D01*
X-17939119Y25247434D01*
X-18045570Y25226260D01*
X-18154110Y25226260D01*
X-18260561Y25247434D01*
X-18360835Y25288969D01*
X-18405652Y25318915D01*
X-18451082Y25349270D01*
X-18527830Y25426018D01*
X-18588130Y25516264D01*
X-18588131Y25516265D01*
X-18629666Y25616539D01*
X-18650840Y25722990D01*
X-18650840Y25831530D01*
X-18629666Y25937981D01*
X-18588131Y26038255D01*
X-18527831Y26128500D01*
X-18527830Y26128502D01*
X-18451082Y26205250D01*
X-18360836Y26265550D01*
X-18360835Y26265551D01*
X-18260561Y26307086D01*
X-18154110Y26328260D01*
X-18045570Y26328260D01*
X-17939119Y26307086D01*
G37*
G36*
X-15939119Y26307086D02*
G01*
X-15838845Y26265551D01*
X-15838844Y26265550D01*
X-15748598Y26205250D01*
X-15671850Y26128502D01*
X-15671849Y26128500D01*
X-15611549Y26038255D01*
X-15570014Y25937981D01*
X-15548840Y25831530D01*
X-15548840Y25722990D01*
X-15570014Y25616539D01*
X-15611549Y25516265D01*
X-15611550Y25516264D01*
X-15671850Y25426018D01*
X-15748598Y25349270D01*
X-15794028Y25318915D01*
X-15838845Y25288969D01*
X-15939119Y25247434D01*
X-16045570Y25226260D01*
X-16154110Y25226260D01*
X-16260561Y25247434D01*
X-16360835Y25288969D01*
X-16405652Y25318915D01*
X-16451082Y25349270D01*
X-16527830Y25426018D01*
X-16588130Y25516264D01*
X-16588131Y25516265D01*
X-16629666Y25616539D01*
X-16650840Y25722990D01*
X-16650840Y25831530D01*
X-16629666Y25937981D01*
X-16588131Y26038255D01*
X-16527831Y26128500D01*
X-16527830Y26128502D01*
X-16451082Y26205250D01*
X-16360836Y26265550D01*
X-16360835Y26265551D01*
X-16260561Y26307086D01*
X-16154110Y26328260D01*
X-16045570Y26328260D01*
X-15939119Y26307086D01*
G37*
G36*
X-21939119Y26307086D02*
G01*
X-21838845Y26265551D01*
X-21838844Y26265550D01*
X-21748598Y26205250D01*
X-21671850Y26128502D01*
X-21671849Y26128500D01*
X-21611549Y26038255D01*
X-21570014Y25937981D01*
X-21548840Y25831530D01*
X-21548840Y25722990D01*
X-21570014Y25616539D01*
X-21611549Y25516265D01*
X-21611550Y25516264D01*
X-21671850Y25426018D01*
X-21748598Y25349270D01*
X-21794028Y25318915D01*
X-21838845Y25288969D01*
X-21939119Y25247434D01*
X-22045570Y25226260D01*
X-22154110Y25226260D01*
X-22260561Y25247434D01*
X-22360835Y25288969D01*
X-22405652Y25318915D01*
X-22451082Y25349270D01*
X-22527830Y25426018D01*
X-22588130Y25516264D01*
X-22588131Y25516265D01*
X-22629666Y25616539D01*
X-22650840Y25722990D01*
X-22650840Y25831530D01*
X-22629666Y25937981D01*
X-22588131Y26038255D01*
X-22527831Y26128500D01*
X-22527830Y26128502D01*
X-22451082Y26205250D01*
X-22360836Y26265550D01*
X-22360835Y26265551D01*
X-22260561Y26307086D01*
X-22154110Y26328260D01*
X-22045570Y26328260D01*
X-21939119Y26307086D01*
G37*
G36*
X-21880781Y31599400D02*
G01*
X-21744108Y31542788D01*
X-21621105Y31460600D01*
X-21516500Y31355995D01*
X-21434312Y31232992D01*
X-21377700Y31096319D01*
X-21348840Y30951227D01*
X-21348840Y30803293D01*
X-21377700Y30658201D01*
X-21434312Y30521528D01*
X-21516500Y30398525D01*
X-21621105Y30293920D01*
X-21744108Y30211732D01*
X-21744109Y30211731D01*
X-21744110Y30211731D01*
X-21880781Y30155120D01*
X-22025872Y30126260D01*
X-22173808Y30126260D01*
X-22318899Y30155120D01*
X-22455570Y30211731D01*
X-22455571Y30211731D01*
X-22455572Y30211732D01*
X-22578575Y30293920D01*
X-22683180Y30398525D01*
X-22765368Y30521528D01*
X-22821980Y30658201D01*
X-22850840Y30803293D01*
X-22850840Y30951227D01*
X-22821980Y31096319D01*
X-22765368Y31232992D01*
X-22683180Y31355995D01*
X-22578575Y31460600D01*
X-22455572Y31542788D01*
X-22318899Y31599400D01*
X-22173808Y31628260D01*
X-22025872Y31628260D01*
X-21880781Y31599400D01*
G37*
G36*
X-9380781Y31599400D02*
G01*
X-9244108Y31542788D01*
X-9121105Y31460600D01*
X-9016500Y31355995D01*
X-8934312Y31232992D01*
X-8877700Y31096319D01*
X-8848840Y30951227D01*
X-8848840Y30803293D01*
X-8877700Y30658201D01*
X-8934312Y30521528D01*
X-9016500Y30398525D01*
X-9121105Y30293920D01*
X-9244108Y30211732D01*
X-9244109Y30211731D01*
X-9244110Y30211731D01*
X-9380781Y30155120D01*
X-9525872Y30126260D01*
X-9673808Y30126260D01*
X-9818899Y30155120D01*
X-9955570Y30211731D01*
X-9955571Y30211731D01*
X-9955572Y30211732D01*
X-10078575Y30293920D01*
X-10183180Y30398525D01*
X-10265368Y30521528D01*
X-10321980Y30658201D01*
X-10350840Y30803293D01*
X-10350840Y30951227D01*
X-10321980Y31096319D01*
X-10265368Y31232992D01*
X-10183180Y31355995D01*
X-10078575Y31460600D01*
X-9955572Y31542788D01*
X-9818899Y31599400D01*
X-9673808Y31628260D01*
X-9525872Y31628260D01*
X-9380781Y31599400D01*
G37*
G36*
X-14380781Y31599400D02*
G01*
X-14244108Y31542788D01*
X-14121105Y31460600D01*
X-14016500Y31355995D01*
X-13934312Y31232992D01*
X-13877700Y31096319D01*
X-13848840Y30951227D01*
X-13848840Y30803293D01*
X-13877700Y30658201D01*
X-13934312Y30521528D01*
X-14016500Y30398525D01*
X-14121105Y30293920D01*
X-14244108Y30211732D01*
X-14244109Y30211731D01*
X-14244110Y30211731D01*
X-14380781Y30155120D01*
X-14525872Y30126260D01*
X-14673808Y30126260D01*
X-14818899Y30155120D01*
X-14955570Y30211731D01*
X-14955571Y30211731D01*
X-14955572Y30211732D01*
X-15078575Y30293920D01*
X-15183180Y30398525D01*
X-15265368Y30521528D01*
X-15321980Y30658201D01*
X-15350840Y30803293D01*
X-15350840Y30951227D01*
X-15321980Y31096319D01*
X-15265368Y31232992D01*
X-15183180Y31355995D01*
X-15078575Y31460600D01*
X-14955572Y31542788D01*
X-14818899Y31599400D01*
X-14673808Y31628260D01*
X-14525872Y31628260D01*
X-14380781Y31599400D01*
G37*
G36*
X-16880781Y31599400D02*
G01*
X-16744108Y31542788D01*
X-16621105Y31460600D01*
X-16516500Y31355995D01*
X-16434312Y31232992D01*
X-16377700Y31096319D01*
X-16348840Y30951227D01*
X-16348840Y30803293D01*
X-16377700Y30658201D01*
X-16434312Y30521528D01*
X-16516500Y30398525D01*
X-16621105Y30293920D01*
X-16744108Y30211732D01*
X-16744109Y30211731D01*
X-16744110Y30211731D01*
X-16880781Y30155120D01*
X-17025872Y30126260D01*
X-17173808Y30126260D01*
X-17318899Y30155120D01*
X-17455570Y30211731D01*
X-17455571Y30211731D01*
X-17455572Y30211732D01*
X-17578575Y30293920D01*
X-17683180Y30398525D01*
X-17765368Y30521528D01*
X-17821980Y30658201D01*
X-17850840Y30803293D01*
X-17850840Y30951227D01*
X-17821980Y31096319D01*
X-17765368Y31232992D01*
X-17683180Y31355995D01*
X-17578575Y31460600D01*
X-17455572Y31542788D01*
X-17318899Y31599400D01*
X-17173808Y31628260D01*
X-17025872Y31628260D01*
X-16880781Y31599400D01*
G37*
G36*
X-11880781Y31599400D02*
G01*
X-11744108Y31542788D01*
X-11621105Y31460600D01*
X-11516500Y31355995D01*
X-11434312Y31232992D01*
X-11377700Y31096319D01*
X-11348840Y30951227D01*
X-11348840Y30803293D01*
X-11377700Y30658201D01*
X-11434312Y30521528D01*
X-11516500Y30398525D01*
X-11621105Y30293920D01*
X-11744108Y30211732D01*
X-11744109Y30211731D01*
X-11744110Y30211731D01*
X-11880781Y30155120D01*
X-12025872Y30126260D01*
X-12173808Y30126260D01*
X-12318899Y30155120D01*
X-12455570Y30211731D01*
X-12455571Y30211731D01*
X-12455572Y30211732D01*
X-12578575Y30293920D01*
X-12683180Y30398525D01*
X-12765368Y30521528D01*
X-12821980Y30658201D01*
X-12850840Y30803293D01*
X-12850840Y30951227D01*
X-12821980Y31096319D01*
X-12765368Y31232992D01*
X-12683180Y31355995D01*
X-12578575Y31460600D01*
X-12455572Y31542788D01*
X-12318899Y31599400D01*
X-12173808Y31628260D01*
X-12025872Y31628260D01*
X-11880781Y31599400D01*
G37*
G36*
X-19380781Y31599400D02*
G01*
X-19244108Y31542788D01*
X-19121105Y31460600D01*
X-19016500Y31355995D01*
X-18934312Y31232992D01*
X-18877700Y31096319D01*
X-18848840Y30951227D01*
X-18848840Y30803293D01*
X-18877700Y30658201D01*
X-18934312Y30521528D01*
X-19016500Y30398525D01*
X-19121105Y30293920D01*
X-19244108Y30211732D01*
X-19244109Y30211731D01*
X-19244110Y30211731D01*
X-19380781Y30155120D01*
X-19525872Y30126260D01*
X-19673808Y30126260D01*
X-19818899Y30155120D01*
X-19955570Y30211731D01*
X-19955571Y30211731D01*
X-19955572Y30211732D01*
X-20078575Y30293920D01*
X-20183180Y30398525D01*
X-20265368Y30521528D01*
X-20321980Y30658201D01*
X-20350840Y30803293D01*
X-20350840Y30951227D01*
X-20321980Y31096319D01*
X-20265368Y31232992D01*
X-20183180Y31355995D01*
X-20078575Y31460600D01*
X-19955572Y31542788D01*
X-19818899Y31599400D01*
X-19673808Y31628260D01*
X-19525872Y31628260D01*
X-19380781Y31599400D01*
G37*
G36*
X-11880781Y34599400D02*
G01*
X-11744108Y34542788D01*
X-11621105Y34460600D01*
X-11516500Y34355995D01*
X-11434312Y34232992D01*
X-11377700Y34096319D01*
X-11348840Y33951227D01*
X-11348840Y33803293D01*
X-11377700Y33658201D01*
X-11434312Y33521528D01*
X-11516500Y33398525D01*
X-11621105Y33293920D01*
X-11744108Y33211732D01*
X-11744109Y33211731D01*
X-11744110Y33211731D01*
X-11880781Y33155120D01*
X-12025872Y33126260D01*
X-12173808Y33126260D01*
X-12318899Y33155120D01*
X-12455570Y33211731D01*
X-12455571Y33211731D01*
X-12455572Y33211732D01*
X-12578575Y33293920D01*
X-12683180Y33398525D01*
X-12765368Y33521528D01*
X-12821980Y33658201D01*
X-12850840Y33803293D01*
X-12850840Y33951227D01*
X-12821980Y34096319D01*
X-12765368Y34232992D01*
X-12683180Y34355995D01*
X-12578575Y34460600D01*
X-12455572Y34542788D01*
X-12318899Y34599400D01*
X-12173808Y34628260D01*
X-12025872Y34628260D01*
X-11880781Y34599400D01*
G37*
G36*
X-19380781Y34599400D02*
G01*
X-19244108Y34542788D01*
X-19121105Y34460600D01*
X-19016500Y34355995D01*
X-18934312Y34232992D01*
X-18877700Y34096319D01*
X-18848840Y33951227D01*
X-18848840Y33803293D01*
X-18877700Y33658201D01*
X-18934312Y33521528D01*
X-19016500Y33398525D01*
X-19121105Y33293920D01*
X-19244108Y33211732D01*
X-19244109Y33211731D01*
X-19244110Y33211731D01*
X-19380781Y33155120D01*
X-19525872Y33126260D01*
X-19673808Y33126260D01*
X-19818899Y33155120D01*
X-19955570Y33211731D01*
X-19955571Y33211731D01*
X-19955572Y33211732D01*
X-20078575Y33293920D01*
X-20183180Y33398525D01*
X-20265368Y33521528D01*
X-20321980Y33658201D01*
X-20350840Y33803293D01*
X-20350840Y33951227D01*
X-20321980Y34096319D01*
X-20265368Y34232992D01*
X-20183180Y34355995D01*
X-20078575Y34460600D01*
X-19955572Y34542788D01*
X-19818899Y34599400D01*
X-19673808Y34628260D01*
X-19525872Y34628260D01*
X-19380781Y34599400D01*
G37*
G36*
X-14380781Y34599400D02*
G01*
X-14244108Y34542788D01*
X-14121105Y34460600D01*
X-14016500Y34355995D01*
X-13934312Y34232992D01*
X-13877700Y34096319D01*
X-13848840Y33951227D01*
X-13848840Y33803293D01*
X-13877700Y33658201D01*
X-13934312Y33521528D01*
X-14016500Y33398525D01*
X-14121105Y33293920D01*
X-14244108Y33211732D01*
X-14244109Y33211731D01*
X-14244110Y33211731D01*
X-14380781Y33155120D01*
X-14525872Y33126260D01*
X-14673808Y33126260D01*
X-14818899Y33155120D01*
X-14955570Y33211731D01*
X-14955571Y33211731D01*
X-14955572Y33211732D01*
X-15078575Y33293920D01*
X-15183180Y33398525D01*
X-15265368Y33521528D01*
X-15321980Y33658201D01*
X-15350840Y33803293D01*
X-15350840Y33951227D01*
X-15321980Y34096319D01*
X-15265368Y34232992D01*
X-15183180Y34355995D01*
X-15078575Y34460600D01*
X-14955572Y34542788D01*
X-14818899Y34599400D01*
X-14673808Y34628260D01*
X-14525872Y34628260D01*
X-14380781Y34599400D01*
G37*
G36*
X-16880781Y34599400D02*
G01*
X-16744108Y34542788D01*
X-16621105Y34460600D01*
X-16516500Y34355995D01*
X-16434312Y34232992D01*
X-16377700Y34096319D01*
X-16348840Y33951227D01*
X-16348840Y33803293D01*
X-16377700Y33658201D01*
X-16434312Y33521528D01*
X-16516500Y33398525D01*
X-16621105Y33293920D01*
X-16744108Y33211732D01*
X-16744109Y33211731D01*
X-16744110Y33211731D01*
X-16880781Y33155120D01*
X-17025872Y33126260D01*
X-17173808Y33126260D01*
X-17318899Y33155120D01*
X-17455570Y33211731D01*
X-17455571Y33211731D01*
X-17455572Y33211732D01*
X-17578575Y33293920D01*
X-17683180Y33398525D01*
X-17765368Y33521528D01*
X-17821980Y33658201D01*
X-17850840Y33803293D01*
X-17850840Y33951227D01*
X-17821980Y34096319D01*
X-17765368Y34232992D01*
X-17683180Y34355995D01*
X-17578575Y34460600D01*
X-17455572Y34542788D01*
X-17318899Y34599400D01*
X-17173808Y34628260D01*
X-17025872Y34628260D01*
X-16880781Y34599400D01*
G37*
G36*
X-9380781Y34599400D02*
G01*
X-9244108Y34542788D01*
X-9121105Y34460600D01*
X-9016500Y34355995D01*
X-8934312Y34232992D01*
X-8877700Y34096319D01*
X-8848840Y33951227D01*
X-8848840Y33803293D01*
X-8877700Y33658201D01*
X-8934312Y33521528D01*
X-9016500Y33398525D01*
X-9121105Y33293920D01*
X-9244108Y33211732D01*
X-9244109Y33211731D01*
X-9244110Y33211731D01*
X-9380781Y33155120D01*
X-9525872Y33126260D01*
X-9673808Y33126260D01*
X-9818899Y33155120D01*
X-9955570Y33211731D01*
X-9955571Y33211731D01*
X-9955572Y33211732D01*
X-10078575Y33293920D01*
X-10183180Y33398525D01*
X-10265368Y33521528D01*
X-10321980Y33658201D01*
X-10350840Y33803293D01*
X-10350840Y33951227D01*
X-10321980Y34096319D01*
X-10265368Y34232992D01*
X-10183180Y34355995D01*
X-10078575Y34460600D01*
X-9955572Y34542788D01*
X-9818899Y34599400D01*
X-9673808Y34628260D01*
X-9525872Y34628260D01*
X-9380781Y34599400D01*
G37*
G36*
X-21880781Y34599400D02*
G01*
X-21744108Y34542788D01*
X-21621105Y34460600D01*
X-21516500Y34355995D01*
X-21434312Y34232992D01*
X-21377700Y34096319D01*
X-21348840Y33951227D01*
X-21348840Y33803293D01*
X-21377700Y33658201D01*
X-21434312Y33521528D01*
X-21516500Y33398525D01*
X-21621105Y33293920D01*
X-21744108Y33211732D01*
X-21744109Y33211731D01*
X-21744110Y33211731D01*
X-21880781Y33155120D01*
X-22025872Y33126260D01*
X-22173808Y33126260D01*
X-22318899Y33155120D01*
X-22455570Y33211731D01*
X-22455571Y33211731D01*
X-22455572Y33211732D01*
X-22578575Y33293920D01*
X-22683180Y33398525D01*
X-22765368Y33521528D01*
X-22821980Y33658201D01*
X-22850840Y33803293D01*
X-22850840Y33951227D01*
X-22821980Y34096319D01*
X-22765368Y34232992D01*
X-22683180Y34355995D01*
X-22578575Y34460600D01*
X-22455572Y34542788D01*
X-22318899Y34599400D01*
X-22173808Y34628260D01*
X-22025872Y34628260D01*
X-21880781Y34599400D01*
G37*
G36*
X-19380781Y37379400D02*
G01*
X-19244108Y37322788D01*
X-19121105Y37240600D01*
X-19016500Y37135995D01*
X-18934312Y37012992D01*
X-18877700Y36876319D01*
X-18848840Y36731227D01*
X-18848840Y36583293D01*
X-18877700Y36438201D01*
X-18934312Y36301528D01*
X-19016500Y36178525D01*
X-19121105Y36073920D01*
X-19244108Y35991732D01*
X-19244109Y35991731D01*
X-19244110Y35991731D01*
X-19380781Y35935120D01*
X-19525872Y35906260D01*
X-19673808Y35906260D01*
X-19818899Y35935120D01*
X-19955570Y35991731D01*
X-19955571Y35991731D01*
X-19955572Y35991732D01*
X-20078575Y36073920D01*
X-20183180Y36178525D01*
X-20265368Y36301528D01*
X-20321980Y36438201D01*
X-20350840Y36583293D01*
X-20350840Y36731227D01*
X-20321980Y36876319D01*
X-20265368Y37012992D01*
X-20183180Y37135995D01*
X-20078575Y37240600D01*
X-19955572Y37322788D01*
X-19818899Y37379400D01*
X-19673808Y37408260D01*
X-19525872Y37408260D01*
X-19380781Y37379400D01*
G37*
G36*
X-16880781Y37379400D02*
G01*
X-16744108Y37322788D01*
X-16621105Y37240600D01*
X-16516500Y37135995D01*
X-16434312Y37012992D01*
X-16377700Y36876319D01*
X-16348840Y36731227D01*
X-16348840Y36583293D01*
X-16377700Y36438201D01*
X-16434312Y36301528D01*
X-16516500Y36178525D01*
X-16621105Y36073920D01*
X-16744108Y35991732D01*
X-16744109Y35991731D01*
X-16744110Y35991731D01*
X-16880781Y35935120D01*
X-17025872Y35906260D01*
X-17173808Y35906260D01*
X-17318899Y35935120D01*
X-17455570Y35991731D01*
X-17455571Y35991731D01*
X-17455572Y35991732D01*
X-17578575Y36073920D01*
X-17683180Y36178525D01*
X-17765368Y36301528D01*
X-17821980Y36438201D01*
X-17850840Y36583293D01*
X-17850840Y36731227D01*
X-17821980Y36876319D01*
X-17765368Y37012992D01*
X-17683180Y37135995D01*
X-17578575Y37240600D01*
X-17455572Y37322788D01*
X-17318899Y37379400D01*
X-17173808Y37408260D01*
X-17025872Y37408260D01*
X-16880781Y37379400D01*
G37*
G36*
X-21880781Y37379400D02*
G01*
X-21744108Y37322788D01*
X-21621105Y37240600D01*
X-21516500Y37135995D01*
X-21434312Y37012992D01*
X-21377700Y36876319D01*
X-21348840Y36731227D01*
X-21348840Y36583293D01*
X-21377700Y36438201D01*
X-21434312Y36301528D01*
X-21516500Y36178525D01*
X-21621105Y36073920D01*
X-21744108Y35991732D01*
X-21744109Y35991731D01*
X-21744110Y35991731D01*
X-21880781Y35935120D01*
X-22025872Y35906260D01*
X-22173808Y35906260D01*
X-22318899Y35935120D01*
X-22455570Y35991731D01*
X-22455571Y35991731D01*
X-22455572Y35991732D01*
X-22578575Y36073920D01*
X-22683180Y36178525D01*
X-22765368Y36301528D01*
X-22821980Y36438201D01*
X-22850840Y36583293D01*
X-22850840Y36731227D01*
X-22821980Y36876319D01*
X-22765368Y37012992D01*
X-22683180Y37135995D01*
X-22578575Y37240600D01*
X-22455572Y37322788D01*
X-22318899Y37379400D01*
X-22173808Y37408260D01*
X-22025872Y37408260D01*
X-21880781Y37379400D01*
G37*
G36*
X-11880781Y37379400D02*
G01*
X-11744108Y37322788D01*
X-11621105Y37240600D01*
X-11516500Y37135995D01*
X-11434312Y37012992D01*
X-11377700Y36876319D01*
X-11348840Y36731227D01*
X-11348840Y36583293D01*
X-11377700Y36438201D01*
X-11434312Y36301528D01*
X-11516500Y36178525D01*
X-11621105Y36073920D01*
X-11744108Y35991732D01*
X-11744109Y35991731D01*
X-11744110Y35991731D01*
X-11880781Y35935120D01*
X-12025872Y35906260D01*
X-12173808Y35906260D01*
X-12318899Y35935120D01*
X-12455570Y35991731D01*
X-12455571Y35991731D01*
X-12455572Y35991732D01*
X-12578575Y36073920D01*
X-12683180Y36178525D01*
X-12765368Y36301528D01*
X-12821980Y36438201D01*
X-12850840Y36583293D01*
X-12850840Y36731227D01*
X-12821980Y36876319D01*
X-12765368Y37012992D01*
X-12683180Y37135995D01*
X-12578575Y37240600D01*
X-12455572Y37322788D01*
X-12318899Y37379400D01*
X-12173808Y37408260D01*
X-12025872Y37408260D01*
X-11880781Y37379400D01*
G37*
G36*
X-9380781Y37379400D02*
G01*
X-9244108Y37322788D01*
X-9121105Y37240600D01*
X-9016500Y37135995D01*
X-8934312Y37012992D01*
X-8877700Y36876319D01*
X-8848840Y36731227D01*
X-8848840Y36583293D01*
X-8877700Y36438201D01*
X-8934312Y36301528D01*
X-9016500Y36178525D01*
X-9121105Y36073920D01*
X-9244108Y35991732D01*
X-9244109Y35991731D01*
X-9244110Y35991731D01*
X-9380781Y35935120D01*
X-9525872Y35906260D01*
X-9673808Y35906260D01*
X-9818899Y35935120D01*
X-9955570Y35991731D01*
X-9955571Y35991731D01*
X-9955572Y35991732D01*
X-10078575Y36073920D01*
X-10183180Y36178525D01*
X-10265368Y36301528D01*
X-10321980Y36438201D01*
X-10350840Y36583293D01*
X-10350840Y36731227D01*
X-10321980Y36876319D01*
X-10265368Y37012992D01*
X-10183180Y37135995D01*
X-10078575Y37240600D01*
X-9955572Y37322788D01*
X-9818899Y37379400D01*
X-9673808Y37408260D01*
X-9525872Y37408260D01*
X-9380781Y37379400D01*
G37*
G36*
X-14380781Y37379400D02*
G01*
X-14244108Y37322788D01*
X-14121105Y37240600D01*
X-14016500Y37135995D01*
X-13934312Y37012992D01*
X-13877700Y36876319D01*
X-13848840Y36731227D01*
X-13848840Y36583293D01*
X-13877700Y36438201D01*
X-13934312Y36301528D01*
X-14016500Y36178525D01*
X-14121105Y36073920D01*
X-14244108Y35991732D01*
X-14244109Y35991731D01*
X-14244110Y35991731D01*
X-14380781Y35935120D01*
X-14525872Y35906260D01*
X-14673808Y35906260D01*
X-14818899Y35935120D01*
X-14955570Y35991731D01*
X-14955571Y35991731D01*
X-14955572Y35991732D01*
X-15078575Y36073920D01*
X-15183180Y36178525D01*
X-15265368Y36301528D01*
X-15321980Y36438201D01*
X-15350840Y36583293D01*
X-15350840Y36731227D01*
X-15321980Y36876319D01*
X-15265368Y37012992D01*
X-15183180Y37135995D01*
X-15078575Y37240600D01*
X-14955572Y37322788D01*
X-14818899Y37379400D01*
X-14673808Y37408260D01*
X-14525872Y37408260D01*
X-14380781Y37379400D01*
G37*
G36*
X-16880781Y40379400D02*
G01*
X-16744108Y40322788D01*
X-16621105Y40240600D01*
X-16516500Y40135995D01*
X-16434312Y40012992D01*
X-16377700Y39876319D01*
X-16348840Y39731227D01*
X-16348840Y39583293D01*
X-16377700Y39438201D01*
X-16434312Y39301528D01*
X-16516500Y39178525D01*
X-16621105Y39073920D01*
X-16744108Y38991732D01*
X-16744109Y38991731D01*
X-16744110Y38991731D01*
X-16880781Y38935120D01*
X-17025872Y38906260D01*
X-17173808Y38906260D01*
X-17318899Y38935120D01*
X-17455570Y38991731D01*
X-17455571Y38991731D01*
X-17455572Y38991732D01*
X-17578575Y39073920D01*
X-17683180Y39178525D01*
X-17765368Y39301528D01*
X-17821980Y39438201D01*
X-17850840Y39583293D01*
X-17850840Y39731227D01*
X-17821980Y39876319D01*
X-17765368Y40012992D01*
X-17683180Y40135995D01*
X-17578575Y40240600D01*
X-17455572Y40322788D01*
X-17318899Y40379400D01*
X-17173808Y40408260D01*
X-17025872Y40408260D01*
X-16880781Y40379400D01*
G37*
G36*
X-14380781Y40379400D02*
G01*
X-14244108Y40322788D01*
X-14121105Y40240600D01*
X-14016500Y40135995D01*
X-13934312Y40012992D01*
X-13877700Y39876319D01*
X-13848840Y39731227D01*
X-13848840Y39583293D01*
X-13877700Y39438201D01*
X-13934312Y39301528D01*
X-14016500Y39178525D01*
X-14121105Y39073920D01*
X-14244108Y38991732D01*
X-14244109Y38991731D01*
X-14244110Y38991731D01*
X-14380781Y38935120D01*
X-14525872Y38906260D01*
X-14673808Y38906260D01*
X-14818899Y38935120D01*
X-14955570Y38991731D01*
X-14955571Y38991731D01*
X-14955572Y38991732D01*
X-15078575Y39073920D01*
X-15183180Y39178525D01*
X-15265368Y39301528D01*
X-15321980Y39438201D01*
X-15350840Y39583293D01*
X-15350840Y39731227D01*
X-15321980Y39876319D01*
X-15265368Y40012992D01*
X-15183180Y40135995D01*
X-15078575Y40240600D01*
X-14955572Y40322788D01*
X-14818899Y40379400D01*
X-14673808Y40408260D01*
X-14525872Y40408260D01*
X-14380781Y40379400D01*
G37*
G36*
X-9380781Y40379400D02*
G01*
X-9244108Y40322788D01*
X-9121105Y40240600D01*
X-9016500Y40135995D01*
X-8934312Y40012992D01*
X-8877700Y39876319D01*
X-8848840Y39731227D01*
X-8848840Y39583293D01*
X-8877700Y39438201D01*
X-8934312Y39301528D01*
X-9016500Y39178525D01*
X-9121105Y39073920D01*
X-9244108Y38991732D01*
X-9244109Y38991731D01*
X-9244110Y38991731D01*
X-9380781Y38935120D01*
X-9525872Y38906260D01*
X-9673808Y38906260D01*
X-9818899Y38935120D01*
X-9955570Y38991731D01*
X-9955571Y38991731D01*
X-9955572Y38991732D01*
X-10078575Y39073920D01*
X-10183180Y39178525D01*
X-10265368Y39301528D01*
X-10321980Y39438201D01*
X-10350840Y39583293D01*
X-10350840Y39731227D01*
X-10321980Y39876319D01*
X-10265368Y40012992D01*
X-10183180Y40135995D01*
X-10078575Y40240600D01*
X-9955572Y40322788D01*
X-9818899Y40379400D01*
X-9673808Y40408260D01*
X-9525872Y40408260D01*
X-9380781Y40379400D01*
G37*
G36*
X-19380781Y40379400D02*
G01*
X-19244108Y40322788D01*
X-19121105Y40240600D01*
X-19016500Y40135995D01*
X-18934312Y40012992D01*
X-18877700Y39876319D01*
X-18848840Y39731227D01*
X-18848840Y39583293D01*
X-18877700Y39438201D01*
X-18934312Y39301528D01*
X-19016500Y39178525D01*
X-19121105Y39073920D01*
X-19244108Y38991732D01*
X-19244109Y38991731D01*
X-19244110Y38991731D01*
X-19380781Y38935120D01*
X-19525872Y38906260D01*
X-19673808Y38906260D01*
X-19818899Y38935120D01*
X-19955570Y38991731D01*
X-19955571Y38991731D01*
X-19955572Y38991732D01*
X-20078575Y39073920D01*
X-20183180Y39178525D01*
X-20265368Y39301528D01*
X-20321980Y39438201D01*
X-20350840Y39583293D01*
X-20350840Y39731227D01*
X-20321980Y39876319D01*
X-20265368Y40012992D01*
X-20183180Y40135995D01*
X-20078575Y40240600D01*
X-19955572Y40322788D01*
X-19818899Y40379400D01*
X-19673808Y40408260D01*
X-19525872Y40408260D01*
X-19380781Y40379400D01*
G37*
G36*
X-21880781Y40379400D02*
G01*
X-21744108Y40322788D01*
X-21621105Y40240600D01*
X-21516500Y40135995D01*
X-21434312Y40012992D01*
X-21377700Y39876319D01*
X-21348840Y39731227D01*
X-21348840Y39583293D01*
X-21377700Y39438201D01*
X-21434312Y39301528D01*
X-21516500Y39178525D01*
X-21621105Y39073920D01*
X-21744108Y38991732D01*
X-21744109Y38991731D01*
X-21744110Y38991731D01*
X-21880781Y38935120D01*
X-22025872Y38906260D01*
X-22173808Y38906260D01*
X-22318899Y38935120D01*
X-22455570Y38991731D01*
X-22455571Y38991731D01*
X-22455572Y38991732D01*
X-22578575Y39073920D01*
X-22683180Y39178525D01*
X-22765368Y39301528D01*
X-22821980Y39438201D01*
X-22850840Y39583293D01*
X-22850840Y39731227D01*
X-22821980Y39876319D01*
X-22765368Y40012992D01*
X-22683180Y40135995D01*
X-22578575Y40240600D01*
X-22455572Y40322788D01*
X-22318899Y40379400D01*
X-22173808Y40408260D01*
X-22025872Y40408260D01*
X-21880781Y40379400D01*
G37*
G36*
X-11880781Y40379400D02*
G01*
X-11744108Y40322788D01*
X-11621105Y40240600D01*
X-11516500Y40135995D01*
X-11434312Y40012992D01*
X-11377700Y39876319D01*
X-11348840Y39731227D01*
X-11348840Y39583293D01*
X-11377700Y39438201D01*
X-11434312Y39301528D01*
X-11516500Y39178525D01*
X-11621105Y39073920D01*
X-11744108Y38991732D01*
X-11744109Y38991731D01*
X-11744110Y38991731D01*
X-11880781Y38935120D01*
X-12025872Y38906260D01*
X-12173808Y38906260D01*
X-12318899Y38935120D01*
X-12455570Y38991731D01*
X-12455571Y38991731D01*
X-12455572Y38991732D01*
X-12578575Y39073920D01*
X-12683180Y39178525D01*
X-12765368Y39301528D01*
X-12821980Y39438201D01*
X-12850840Y39583293D01*
X-12850840Y39731227D01*
X-12821980Y39876319D01*
X-12765368Y40012992D01*
X-12683180Y40135995D01*
X-12578575Y40240600D01*
X-12455572Y40322788D01*
X-12318899Y40379400D01*
X-12173808Y40408260D01*
X-12025872Y40408260D01*
X-11880781Y40379400D01*
G37*
G36*
X-14380781Y43159400D02*
G01*
X-14244108Y43102788D01*
X-14121105Y43020600D01*
X-14016500Y42915995D01*
X-13934312Y42792992D01*
X-13877700Y42656319D01*
X-13848840Y42511227D01*
X-13848840Y42363293D01*
X-13877700Y42218201D01*
X-13934312Y42081528D01*
X-14016500Y41958525D01*
X-14121105Y41853920D01*
X-14244108Y41771732D01*
X-14244109Y41771731D01*
X-14244110Y41771731D01*
X-14380781Y41715120D01*
X-14525872Y41686260D01*
X-14673808Y41686260D01*
X-14818899Y41715120D01*
X-14955570Y41771731D01*
X-14955571Y41771731D01*
X-14955572Y41771732D01*
X-15078575Y41853920D01*
X-15183180Y41958525D01*
X-15265368Y42081528D01*
X-15321980Y42218201D01*
X-15350840Y42363293D01*
X-15350840Y42511227D01*
X-15321980Y42656319D01*
X-15265368Y42792992D01*
X-15183180Y42915995D01*
X-15078575Y43020600D01*
X-14955572Y43102788D01*
X-14818899Y43159400D01*
X-14673808Y43188260D01*
X-14525872Y43188260D01*
X-14380781Y43159400D01*
G37*
G36*
X-16880781Y43159400D02*
G01*
X-16744108Y43102788D01*
X-16621105Y43020600D01*
X-16516500Y42915995D01*
X-16434312Y42792992D01*
X-16377700Y42656319D01*
X-16348840Y42511227D01*
X-16348840Y42363293D01*
X-16377700Y42218201D01*
X-16434312Y42081528D01*
X-16516500Y41958525D01*
X-16621105Y41853920D01*
X-16744108Y41771732D01*
X-16744109Y41771731D01*
X-16744110Y41771731D01*
X-16880781Y41715120D01*
X-17025872Y41686260D01*
X-17173808Y41686260D01*
X-17318899Y41715120D01*
X-17455570Y41771731D01*
X-17455571Y41771731D01*
X-17455572Y41771732D01*
X-17578575Y41853920D01*
X-17683180Y41958525D01*
X-17765368Y42081528D01*
X-17821980Y42218201D01*
X-17850840Y42363293D01*
X-17850840Y42511227D01*
X-17821980Y42656319D01*
X-17765368Y42792992D01*
X-17683180Y42915995D01*
X-17578575Y43020600D01*
X-17455572Y43102788D01*
X-17318899Y43159400D01*
X-17173808Y43188260D01*
X-17025872Y43188260D01*
X-16880781Y43159400D01*
G37*
G36*
X-9380781Y43159400D02*
G01*
X-9244108Y43102788D01*
X-9121105Y43020600D01*
X-9016500Y42915995D01*
X-8934312Y42792992D01*
X-8877700Y42656319D01*
X-8848840Y42511227D01*
X-8848840Y42363293D01*
X-8877700Y42218201D01*
X-8934312Y42081528D01*
X-9016500Y41958525D01*
X-9121105Y41853920D01*
X-9244108Y41771732D01*
X-9244109Y41771731D01*
X-9244110Y41771731D01*
X-9380781Y41715120D01*
X-9525872Y41686260D01*
X-9673808Y41686260D01*
X-9818899Y41715120D01*
X-9955570Y41771731D01*
X-9955571Y41771731D01*
X-9955572Y41771732D01*
X-10078575Y41853920D01*
X-10183180Y41958525D01*
X-10265368Y42081528D01*
X-10321980Y42218201D01*
X-10350840Y42363293D01*
X-10350840Y42511227D01*
X-10321980Y42656319D01*
X-10265368Y42792992D01*
X-10183180Y42915995D01*
X-10078575Y43020600D01*
X-9955572Y43102788D01*
X-9818899Y43159400D01*
X-9673808Y43188260D01*
X-9525872Y43188260D01*
X-9380781Y43159400D01*
G37*
G36*
X-21880781Y43159400D02*
G01*
X-21744108Y43102788D01*
X-21621105Y43020600D01*
X-21516500Y42915995D01*
X-21434312Y42792992D01*
X-21377700Y42656319D01*
X-21348840Y42511227D01*
X-21348840Y42363293D01*
X-21377700Y42218201D01*
X-21434312Y42081528D01*
X-21516500Y41958525D01*
X-21621105Y41853920D01*
X-21744108Y41771732D01*
X-21744109Y41771731D01*
X-21744110Y41771731D01*
X-21880781Y41715120D01*
X-22025872Y41686260D01*
X-22173808Y41686260D01*
X-22318899Y41715120D01*
X-22455570Y41771731D01*
X-22455571Y41771731D01*
X-22455572Y41771732D01*
X-22578575Y41853920D01*
X-22683180Y41958525D01*
X-22765368Y42081528D01*
X-22821980Y42218201D01*
X-22850840Y42363293D01*
X-22850840Y42511227D01*
X-22821980Y42656319D01*
X-22765368Y42792992D01*
X-22683180Y42915995D01*
X-22578575Y43020600D01*
X-22455572Y43102788D01*
X-22318899Y43159400D01*
X-22173808Y43188260D01*
X-22025872Y43188260D01*
X-21880781Y43159400D01*
G37*
G36*
X-19380781Y43159400D02*
G01*
X-19244108Y43102788D01*
X-19121105Y43020600D01*
X-19016500Y42915995D01*
X-18934312Y42792992D01*
X-18877700Y42656319D01*
X-18848840Y42511227D01*
X-18848840Y42363293D01*
X-18877700Y42218201D01*
X-18934312Y42081528D01*
X-19016500Y41958525D01*
X-19121105Y41853920D01*
X-19244108Y41771732D01*
X-19244109Y41771731D01*
X-19244110Y41771731D01*
X-19380781Y41715120D01*
X-19525872Y41686260D01*
X-19673808Y41686260D01*
X-19818899Y41715120D01*
X-19955570Y41771731D01*
X-19955571Y41771731D01*
X-19955572Y41771732D01*
X-20078575Y41853920D01*
X-20183180Y41958525D01*
X-20265368Y42081528D01*
X-20321980Y42218201D01*
X-20350840Y42363293D01*
X-20350840Y42511227D01*
X-20321980Y42656319D01*
X-20265368Y42792992D01*
X-20183180Y42915995D01*
X-20078575Y43020600D01*
X-19955572Y43102788D01*
X-19818899Y43159400D01*
X-19673808Y43188260D01*
X-19525872Y43188260D01*
X-19380781Y43159400D01*
G37*
G36*
X-11880781Y43159400D02*
G01*
X-11744108Y43102788D01*
X-11621105Y43020600D01*
X-11516500Y42915995D01*
X-11434312Y42792992D01*
X-11377700Y42656319D01*
X-11348840Y42511227D01*
X-11348840Y42363293D01*
X-11377700Y42218201D01*
X-11434312Y42081528D01*
X-11516500Y41958525D01*
X-11621105Y41853920D01*
X-11744108Y41771732D01*
X-11744109Y41771731D01*
X-11744110Y41771731D01*
X-11880781Y41715120D01*
X-12025872Y41686260D01*
X-12173808Y41686260D01*
X-12318899Y41715120D01*
X-12455570Y41771731D01*
X-12455571Y41771731D01*
X-12455572Y41771732D01*
X-12578575Y41853920D01*
X-12683180Y41958525D01*
X-12765368Y42081528D01*
X-12821980Y42218201D01*
X-12850840Y42363293D01*
X-12850840Y42511227D01*
X-12821980Y42656319D01*
X-12765368Y42792992D01*
X-12683180Y42915995D01*
X-12578575Y43020600D01*
X-12455572Y43102788D01*
X-12318899Y43159400D01*
X-12173808Y43188260D01*
X-12025872Y43188260D01*
X-11880781Y43159400D01*
G37*
G36*
X-19380781Y46159400D02*
G01*
X-19244108Y46102788D01*
X-19121105Y46020600D01*
X-19016500Y45915995D01*
X-18934312Y45792992D01*
X-18877700Y45656319D01*
X-18848840Y45511227D01*
X-18848840Y45363293D01*
X-18877700Y45218201D01*
X-18934312Y45081528D01*
X-19016500Y44958525D01*
X-19121105Y44853920D01*
X-19244108Y44771732D01*
X-19244109Y44771731D01*
X-19244110Y44771731D01*
X-19380781Y44715120D01*
X-19525872Y44686260D01*
X-19673808Y44686260D01*
X-19818899Y44715120D01*
X-19955570Y44771731D01*
X-19955571Y44771731D01*
X-19955572Y44771732D01*
X-20078575Y44853920D01*
X-20183180Y44958525D01*
X-20265368Y45081528D01*
X-20321980Y45218201D01*
X-20350840Y45363293D01*
X-20350840Y45511227D01*
X-20321980Y45656319D01*
X-20265368Y45792992D01*
X-20183180Y45915995D01*
X-20078575Y46020600D01*
X-19955572Y46102788D01*
X-19818899Y46159400D01*
X-19673808Y46188260D01*
X-19525872Y46188260D01*
X-19380781Y46159400D01*
G37*
G36*
X-16880781Y46159400D02*
G01*
X-16744108Y46102788D01*
X-16621105Y46020600D01*
X-16516500Y45915995D01*
X-16434312Y45792992D01*
X-16377700Y45656319D01*
X-16348840Y45511227D01*
X-16348840Y45363293D01*
X-16377700Y45218201D01*
X-16434312Y45081528D01*
X-16516500Y44958525D01*
X-16621105Y44853920D01*
X-16744108Y44771732D01*
X-16744109Y44771731D01*
X-16744110Y44771731D01*
X-16880781Y44715120D01*
X-17025872Y44686260D01*
X-17173808Y44686260D01*
X-17318899Y44715120D01*
X-17455570Y44771731D01*
X-17455571Y44771731D01*
X-17455572Y44771732D01*
X-17578575Y44853920D01*
X-17683180Y44958525D01*
X-17765368Y45081528D01*
X-17821980Y45218201D01*
X-17850840Y45363293D01*
X-17850840Y45511227D01*
X-17821980Y45656319D01*
X-17765368Y45792992D01*
X-17683180Y45915995D01*
X-17578575Y46020600D01*
X-17455572Y46102788D01*
X-17318899Y46159400D01*
X-17173808Y46188260D01*
X-17025872Y46188260D01*
X-16880781Y46159400D01*
G37*
G36*
X-21880781Y46159400D02*
G01*
X-21744108Y46102788D01*
X-21621105Y46020600D01*
X-21516500Y45915995D01*
X-21434312Y45792992D01*
X-21377700Y45656319D01*
X-21348840Y45511227D01*
X-21348840Y45363293D01*
X-21377700Y45218201D01*
X-21434312Y45081528D01*
X-21516500Y44958525D01*
X-21621105Y44853920D01*
X-21744108Y44771732D01*
X-21744109Y44771731D01*
X-21744110Y44771731D01*
X-21880781Y44715120D01*
X-22025872Y44686260D01*
X-22173808Y44686260D01*
X-22318899Y44715120D01*
X-22455570Y44771731D01*
X-22455571Y44771731D01*
X-22455572Y44771732D01*
X-22578575Y44853920D01*
X-22683180Y44958525D01*
X-22765368Y45081528D01*
X-22821980Y45218201D01*
X-22850840Y45363293D01*
X-22850840Y45511227D01*
X-22821980Y45656319D01*
X-22765368Y45792992D01*
X-22683180Y45915995D01*
X-22578575Y46020600D01*
X-22455572Y46102788D01*
X-22318899Y46159400D01*
X-22173808Y46188260D01*
X-22025872Y46188260D01*
X-21880781Y46159400D01*
G37*
G36*
X-14380781Y46159400D02*
G01*
X-14244108Y46102788D01*
X-14121105Y46020600D01*
X-14016500Y45915995D01*
X-13934312Y45792992D01*
X-13877700Y45656319D01*
X-13848840Y45511227D01*
X-13848840Y45363293D01*
X-13877700Y45218201D01*
X-13934312Y45081528D01*
X-14016500Y44958525D01*
X-14121105Y44853920D01*
X-14244108Y44771732D01*
X-14244109Y44771731D01*
X-14244110Y44771731D01*
X-14380781Y44715120D01*
X-14525872Y44686260D01*
X-14673808Y44686260D01*
X-14818899Y44715120D01*
X-14955570Y44771731D01*
X-14955571Y44771731D01*
X-14955572Y44771732D01*
X-15078575Y44853920D01*
X-15183180Y44958525D01*
X-15265368Y45081528D01*
X-15321980Y45218201D01*
X-15350840Y45363293D01*
X-15350840Y45511227D01*
X-15321980Y45656319D01*
X-15265368Y45792992D01*
X-15183180Y45915995D01*
X-15078575Y46020600D01*
X-14955572Y46102788D01*
X-14818899Y46159400D01*
X-14673808Y46188260D01*
X-14525872Y46188260D01*
X-14380781Y46159400D01*
G37*
G36*
X-11880781Y46159400D02*
G01*
X-11744108Y46102788D01*
X-11621105Y46020600D01*
X-11516500Y45915995D01*
X-11434312Y45792992D01*
X-11377700Y45656319D01*
X-11348840Y45511227D01*
X-11348840Y45363293D01*
X-11377700Y45218201D01*
X-11434312Y45081528D01*
X-11516500Y44958525D01*
X-11621105Y44853920D01*
X-11744108Y44771732D01*
X-11744109Y44771731D01*
X-11744110Y44771731D01*
X-11880781Y44715120D01*
X-12025872Y44686260D01*
X-12173808Y44686260D01*
X-12318899Y44715120D01*
X-12455570Y44771731D01*
X-12455571Y44771731D01*
X-12455572Y44771732D01*
X-12578575Y44853920D01*
X-12683180Y44958525D01*
X-12765368Y45081528D01*
X-12821980Y45218201D01*
X-12850840Y45363293D01*
X-12850840Y45511227D01*
X-12821980Y45656319D01*
X-12765368Y45792992D01*
X-12683180Y45915995D01*
X-12578575Y46020600D01*
X-12455572Y46102788D01*
X-12318899Y46159400D01*
X-12173808Y46188260D01*
X-12025872Y46188260D01*
X-11880781Y46159400D01*
G37*
G36*
X-9380781Y46159400D02*
G01*
X-9244108Y46102788D01*
X-9121105Y46020600D01*
X-9016500Y45915995D01*
X-8934312Y45792992D01*
X-8877700Y45656319D01*
X-8848840Y45511227D01*
X-8848840Y45363293D01*
X-8877700Y45218201D01*
X-8934312Y45081528D01*
X-9016500Y44958525D01*
X-9121105Y44853920D01*
X-9244108Y44771732D01*
X-9244109Y44771731D01*
X-9244110Y44771731D01*
X-9380781Y44715120D01*
X-9525872Y44686260D01*
X-9673808Y44686260D01*
X-9818899Y44715120D01*
X-9955570Y44771731D01*
X-9955571Y44771731D01*
X-9955572Y44771732D01*
X-10078575Y44853920D01*
X-10183180Y44958525D01*
X-10265368Y45081528D01*
X-10321980Y45218201D01*
X-10350840Y45363293D01*
X-10350840Y45511227D01*
X-10321980Y45656319D01*
X-10265368Y45792992D01*
X-10183180Y45915995D01*
X-10078575Y46020600D01*
X-9955572Y46102788D01*
X-9818899Y46159400D01*
X-9673808Y46188260D01*
X-9525872Y46188260D01*
X-9380781Y46159400D01*
G37*
G36*
X-14380781Y48939400D02*
G01*
X-14244108Y48882788D01*
X-14121105Y48800600D01*
X-14016500Y48695995D01*
X-13934312Y48572992D01*
X-13877700Y48436319D01*
X-13848840Y48291227D01*
X-13848840Y48143293D01*
X-13877700Y47998201D01*
X-13934312Y47861528D01*
X-14016500Y47738525D01*
X-14121105Y47633920D01*
X-14244108Y47551732D01*
X-14244109Y47551731D01*
X-14244110Y47551731D01*
X-14380781Y47495120D01*
X-14525872Y47466260D01*
X-14673808Y47466260D01*
X-14818899Y47495120D01*
X-14955570Y47551731D01*
X-14955571Y47551731D01*
X-14955572Y47551732D01*
X-15078575Y47633920D01*
X-15183180Y47738525D01*
X-15265368Y47861528D01*
X-15321980Y47998201D01*
X-15350840Y48143293D01*
X-15350840Y48291227D01*
X-15321980Y48436319D01*
X-15265368Y48572992D01*
X-15183180Y48695995D01*
X-15078575Y48800600D01*
X-14955572Y48882788D01*
X-14818899Y48939400D01*
X-14673808Y48968260D01*
X-14525872Y48968260D01*
X-14380781Y48939400D01*
G37*
G36*
X-19380781Y48939400D02*
G01*
X-19244108Y48882788D01*
X-19121105Y48800600D01*
X-19016500Y48695995D01*
X-18934312Y48572992D01*
X-18877700Y48436319D01*
X-18848840Y48291227D01*
X-18848840Y48143293D01*
X-18877700Y47998201D01*
X-18934312Y47861528D01*
X-19016500Y47738525D01*
X-19121105Y47633920D01*
X-19244108Y47551732D01*
X-19244109Y47551731D01*
X-19244110Y47551731D01*
X-19380781Y47495120D01*
X-19525872Y47466260D01*
X-19673808Y47466260D01*
X-19818899Y47495120D01*
X-19955570Y47551731D01*
X-19955571Y47551731D01*
X-19955572Y47551732D01*
X-20078575Y47633920D01*
X-20183180Y47738525D01*
X-20265368Y47861528D01*
X-20321980Y47998201D01*
X-20350840Y48143293D01*
X-20350840Y48291227D01*
X-20321980Y48436319D01*
X-20265368Y48572992D01*
X-20183180Y48695995D01*
X-20078575Y48800600D01*
X-19955572Y48882788D01*
X-19818899Y48939400D01*
X-19673808Y48968260D01*
X-19525872Y48968260D01*
X-19380781Y48939400D01*
G37*
G36*
X-21880781Y48939400D02*
G01*
X-21744108Y48882788D01*
X-21621105Y48800600D01*
X-21516500Y48695995D01*
X-21434312Y48572992D01*
X-21377700Y48436319D01*
X-21348840Y48291227D01*
X-21348840Y48143293D01*
X-21377700Y47998201D01*
X-21434312Y47861528D01*
X-21516500Y47738525D01*
X-21621105Y47633920D01*
X-21744108Y47551732D01*
X-21744109Y47551731D01*
X-21744110Y47551731D01*
X-21880781Y47495120D01*
X-22025872Y47466260D01*
X-22173808Y47466260D01*
X-22318899Y47495120D01*
X-22455570Y47551731D01*
X-22455571Y47551731D01*
X-22455572Y47551732D01*
X-22578575Y47633920D01*
X-22683180Y47738525D01*
X-22765368Y47861528D01*
X-22821980Y47998201D01*
X-22850840Y48143293D01*
X-22850840Y48291227D01*
X-22821980Y48436319D01*
X-22765368Y48572992D01*
X-22683180Y48695995D01*
X-22578575Y48800600D01*
X-22455572Y48882788D01*
X-22318899Y48939400D01*
X-22173808Y48968260D01*
X-22025872Y48968260D01*
X-21880781Y48939400D01*
G37*
G36*
X-11880781Y48939400D02*
G01*
X-11744108Y48882788D01*
X-11621105Y48800600D01*
X-11516500Y48695995D01*
X-11434312Y48572992D01*
X-11377700Y48436319D01*
X-11348840Y48291227D01*
X-11348840Y48143293D01*
X-11377700Y47998201D01*
X-11434312Y47861528D01*
X-11516500Y47738525D01*
X-11621105Y47633920D01*
X-11744108Y47551732D01*
X-11744109Y47551731D01*
X-11744110Y47551731D01*
X-11880781Y47495120D01*
X-12025872Y47466260D01*
X-12173808Y47466260D01*
X-12318899Y47495120D01*
X-12455570Y47551731D01*
X-12455571Y47551731D01*
X-12455572Y47551732D01*
X-12578575Y47633920D01*
X-12683180Y47738525D01*
X-12765368Y47861528D01*
X-12821980Y47998201D01*
X-12850840Y48143293D01*
X-12850840Y48291227D01*
X-12821980Y48436319D01*
X-12765368Y48572992D01*
X-12683180Y48695995D01*
X-12578575Y48800600D01*
X-12455572Y48882788D01*
X-12318899Y48939400D01*
X-12173808Y48968260D01*
X-12025872Y48968260D01*
X-11880781Y48939400D01*
G37*
G36*
X-9380781Y48939400D02*
G01*
X-9244108Y48882788D01*
X-9121105Y48800600D01*
X-9016500Y48695995D01*
X-8934312Y48572992D01*
X-8877700Y48436319D01*
X-8848840Y48291227D01*
X-8848840Y48143293D01*
X-8877700Y47998201D01*
X-8934312Y47861528D01*
X-9016500Y47738525D01*
X-9121105Y47633920D01*
X-9244108Y47551732D01*
X-9244109Y47551731D01*
X-9244110Y47551731D01*
X-9380781Y47495120D01*
X-9525872Y47466260D01*
X-9673808Y47466260D01*
X-9818899Y47495120D01*
X-9955570Y47551731D01*
X-9955571Y47551731D01*
X-9955572Y47551732D01*
X-10078575Y47633920D01*
X-10183180Y47738525D01*
X-10265368Y47861528D01*
X-10321980Y47998201D01*
X-10350840Y48143293D01*
X-10350840Y48291227D01*
X-10321980Y48436319D01*
X-10265368Y48572992D01*
X-10183180Y48695995D01*
X-10078575Y48800600D01*
X-9955572Y48882788D01*
X-9818899Y48939400D01*
X-9673808Y48968260D01*
X-9525872Y48968260D01*
X-9380781Y48939400D01*
G37*
G36*
X-16880781Y48939400D02*
G01*
X-16744108Y48882788D01*
X-16621105Y48800600D01*
X-16516500Y48695995D01*
X-16434312Y48572992D01*
X-16377700Y48436319D01*
X-16348840Y48291227D01*
X-16348840Y48143293D01*
X-16377700Y47998201D01*
X-16434312Y47861528D01*
X-16516500Y47738525D01*
X-16621105Y47633920D01*
X-16744108Y47551732D01*
X-16744109Y47551731D01*
X-16744110Y47551731D01*
X-16880781Y47495120D01*
X-17025872Y47466260D01*
X-17173808Y47466260D01*
X-17318899Y47495120D01*
X-17455570Y47551731D01*
X-17455571Y47551731D01*
X-17455572Y47551732D01*
X-17578575Y47633920D01*
X-17683180Y47738525D01*
X-17765368Y47861528D01*
X-17821980Y47998201D01*
X-17850840Y48143293D01*
X-17850840Y48291227D01*
X-17821980Y48436319D01*
X-17765368Y48572992D01*
X-17683180Y48695995D01*
X-17578575Y48800600D01*
X-17455572Y48882788D01*
X-17318899Y48939400D01*
X-17173808Y48968260D01*
X-17025872Y48968260D01*
X-16880781Y48939400D01*
G37*
G36*
X-16880781Y51939400D02*
G01*
X-16744108Y51882788D01*
X-16621105Y51800600D01*
X-16516500Y51695995D01*
X-16434312Y51572992D01*
X-16377700Y51436319D01*
X-16348840Y51291227D01*
X-16348840Y51143293D01*
X-16377700Y50998201D01*
X-16434312Y50861528D01*
X-16516500Y50738525D01*
X-16621105Y50633920D01*
X-16744108Y50551732D01*
X-16744109Y50551731D01*
X-16744110Y50551731D01*
X-16880781Y50495120D01*
X-17025872Y50466260D01*
X-17173808Y50466260D01*
X-17318899Y50495120D01*
X-17455570Y50551731D01*
X-17455571Y50551731D01*
X-17455572Y50551732D01*
X-17578575Y50633920D01*
X-17683180Y50738525D01*
X-17765368Y50861528D01*
X-17821980Y50998201D01*
X-17850840Y51143293D01*
X-17850840Y51291227D01*
X-17821980Y51436319D01*
X-17765368Y51572992D01*
X-17683180Y51695995D01*
X-17578575Y51800600D01*
X-17455572Y51882788D01*
X-17318899Y51939400D01*
X-17173808Y51968260D01*
X-17025872Y51968260D01*
X-16880781Y51939400D01*
G37*
G36*
X-21880781Y51939400D02*
G01*
X-21744108Y51882788D01*
X-21621105Y51800600D01*
X-21516500Y51695995D01*
X-21434312Y51572992D01*
X-21377700Y51436319D01*
X-21348840Y51291227D01*
X-21348840Y51143293D01*
X-21377700Y50998201D01*
X-21434312Y50861528D01*
X-21516500Y50738525D01*
X-21621105Y50633920D01*
X-21744108Y50551732D01*
X-21744109Y50551731D01*
X-21744110Y50551731D01*
X-21880781Y50495120D01*
X-22025872Y50466260D01*
X-22173808Y50466260D01*
X-22318899Y50495120D01*
X-22455570Y50551731D01*
X-22455571Y50551731D01*
X-22455572Y50551732D01*
X-22578575Y50633920D01*
X-22683180Y50738525D01*
X-22765368Y50861528D01*
X-22821980Y50998201D01*
X-22850840Y51143293D01*
X-22850840Y51291227D01*
X-22821980Y51436319D01*
X-22765368Y51572992D01*
X-22683180Y51695995D01*
X-22578575Y51800600D01*
X-22455572Y51882788D01*
X-22318899Y51939400D01*
X-22173808Y51968260D01*
X-22025872Y51968260D01*
X-21880781Y51939400D01*
G37*
G36*
X-14380781Y51939400D02*
G01*
X-14244108Y51882788D01*
X-14121105Y51800600D01*
X-14016500Y51695995D01*
X-13934312Y51572992D01*
X-13877700Y51436319D01*
X-13848840Y51291227D01*
X-13848840Y51143293D01*
X-13877700Y50998201D01*
X-13934312Y50861528D01*
X-14016500Y50738525D01*
X-14121105Y50633920D01*
X-14244108Y50551732D01*
X-14244109Y50551731D01*
X-14244110Y50551731D01*
X-14380781Y50495120D01*
X-14525872Y50466260D01*
X-14673808Y50466260D01*
X-14818899Y50495120D01*
X-14955570Y50551731D01*
X-14955571Y50551731D01*
X-14955572Y50551732D01*
X-15078575Y50633920D01*
X-15183180Y50738525D01*
X-15265368Y50861528D01*
X-15321980Y50998201D01*
X-15350840Y51143293D01*
X-15350840Y51291227D01*
X-15321980Y51436319D01*
X-15265368Y51572992D01*
X-15183180Y51695995D01*
X-15078575Y51800600D01*
X-14955572Y51882788D01*
X-14818899Y51939400D01*
X-14673808Y51968260D01*
X-14525872Y51968260D01*
X-14380781Y51939400D01*
G37*
G36*
X-11880781Y51939400D02*
G01*
X-11744108Y51882788D01*
X-11621105Y51800600D01*
X-11516500Y51695995D01*
X-11434312Y51572992D01*
X-11377700Y51436319D01*
X-11348840Y51291227D01*
X-11348840Y51143293D01*
X-11377700Y50998201D01*
X-11434312Y50861528D01*
X-11516500Y50738525D01*
X-11621105Y50633920D01*
X-11744108Y50551732D01*
X-11744109Y50551731D01*
X-11744110Y50551731D01*
X-11880781Y50495120D01*
X-12025872Y50466260D01*
X-12173808Y50466260D01*
X-12318899Y50495120D01*
X-12455570Y50551731D01*
X-12455571Y50551731D01*
X-12455572Y50551732D01*
X-12578575Y50633920D01*
X-12683180Y50738525D01*
X-12765368Y50861528D01*
X-12821980Y50998201D01*
X-12850840Y51143293D01*
X-12850840Y51291227D01*
X-12821980Y51436319D01*
X-12765368Y51572992D01*
X-12683180Y51695995D01*
X-12578575Y51800600D01*
X-12455572Y51882788D01*
X-12318899Y51939400D01*
X-12173808Y51968260D01*
X-12025872Y51968260D01*
X-11880781Y51939400D01*
G37*
G36*
X-9380781Y51939400D02*
G01*
X-9244108Y51882788D01*
X-9121105Y51800600D01*
X-9016500Y51695995D01*
X-8934312Y51572992D01*
X-8877700Y51436319D01*
X-8848840Y51291227D01*
X-8848840Y51143293D01*
X-8877700Y50998201D01*
X-8934312Y50861528D01*
X-9016500Y50738525D01*
X-9121105Y50633920D01*
X-9244108Y50551732D01*
X-9244109Y50551731D01*
X-9244110Y50551731D01*
X-9380781Y50495120D01*
X-9525872Y50466260D01*
X-9673808Y50466260D01*
X-9818899Y50495120D01*
X-9955570Y50551731D01*
X-9955571Y50551731D01*
X-9955572Y50551732D01*
X-10078575Y50633920D01*
X-10183180Y50738525D01*
X-10265368Y50861528D01*
X-10321980Y50998201D01*
X-10350840Y51143293D01*
X-10350840Y51291227D01*
X-10321980Y51436319D01*
X-10265368Y51572992D01*
X-10183180Y51695995D01*
X-10078575Y51800600D01*
X-9955572Y51882788D01*
X-9818899Y51939400D01*
X-9673808Y51968260D01*
X-9525872Y51968260D01*
X-9380781Y51939400D01*
G37*
G36*
X-19380781Y51939400D02*
G01*
X-19244108Y51882788D01*
X-19121105Y51800600D01*
X-19016500Y51695995D01*
X-18934312Y51572992D01*
X-18877700Y51436319D01*
X-18848840Y51291227D01*
X-18848840Y51143293D01*
X-18877700Y50998201D01*
X-18934312Y50861528D01*
X-19016500Y50738525D01*
X-19121105Y50633920D01*
X-19244108Y50551732D01*
X-19244109Y50551731D01*
X-19244110Y50551731D01*
X-19380781Y50495120D01*
X-19525872Y50466260D01*
X-19673808Y50466260D01*
X-19818899Y50495120D01*
X-19955570Y50551731D01*
X-19955571Y50551731D01*
X-19955572Y50551732D01*
X-20078575Y50633920D01*
X-20183180Y50738525D01*
X-20265368Y50861528D01*
X-20321980Y50998201D01*
X-20350840Y51143293D01*
X-20350840Y51291227D01*
X-20321980Y51436319D01*
X-20265368Y51572992D01*
X-20183180Y51695995D01*
X-20078575Y51800600D01*
X-19955572Y51882788D01*
X-19818899Y51939400D01*
X-19673808Y51968260D01*
X-19525872Y51968260D01*
X-19380781Y51939400D01*
G37*
G36*
X-11880781Y54719400D02*
G01*
X-11744108Y54662788D01*
X-11621105Y54580600D01*
X-11516500Y54475995D01*
X-11434312Y54352992D01*
X-11377700Y54216319D01*
X-11348840Y54071227D01*
X-11348840Y53923293D01*
X-11377700Y53778201D01*
X-11434312Y53641528D01*
X-11516500Y53518525D01*
X-11621105Y53413920D01*
X-11744108Y53331732D01*
X-11744109Y53331731D01*
X-11744110Y53331731D01*
X-11880781Y53275120D01*
X-12025872Y53246260D01*
X-12173808Y53246260D01*
X-12318899Y53275120D01*
X-12455570Y53331731D01*
X-12455571Y53331731D01*
X-12455572Y53331732D01*
X-12578575Y53413920D01*
X-12683180Y53518525D01*
X-12765368Y53641528D01*
X-12821980Y53778201D01*
X-12850840Y53923293D01*
X-12850840Y54071227D01*
X-12821980Y54216319D01*
X-12765368Y54352992D01*
X-12683180Y54475995D01*
X-12578575Y54580600D01*
X-12455572Y54662788D01*
X-12318899Y54719400D01*
X-12173808Y54748260D01*
X-12025872Y54748260D01*
X-11880781Y54719400D01*
G37*
G36*
X-9380781Y54719400D02*
G01*
X-9244108Y54662788D01*
X-9121105Y54580600D01*
X-9016500Y54475995D01*
X-8934312Y54352992D01*
X-8877700Y54216319D01*
X-8848840Y54071227D01*
X-8848840Y53923293D01*
X-8877700Y53778201D01*
X-8934312Y53641528D01*
X-9016500Y53518525D01*
X-9121105Y53413920D01*
X-9244108Y53331732D01*
X-9244109Y53331731D01*
X-9244110Y53331731D01*
X-9380781Y53275120D01*
X-9525872Y53246260D01*
X-9673808Y53246260D01*
X-9818899Y53275120D01*
X-9955570Y53331731D01*
X-9955571Y53331731D01*
X-9955572Y53331732D01*
X-10078575Y53413920D01*
X-10183180Y53518525D01*
X-10265368Y53641528D01*
X-10321980Y53778201D01*
X-10350840Y53923293D01*
X-10350840Y54071227D01*
X-10321980Y54216319D01*
X-10265368Y54352992D01*
X-10183180Y54475995D01*
X-10078575Y54580600D01*
X-9955572Y54662788D01*
X-9818899Y54719400D01*
X-9673808Y54748260D01*
X-9525872Y54748260D01*
X-9380781Y54719400D01*
G37*
G36*
X-19380781Y54719400D02*
G01*
X-19244108Y54662788D01*
X-19121105Y54580600D01*
X-19016500Y54475995D01*
X-18934312Y54352992D01*
X-18877700Y54216319D01*
X-18848840Y54071227D01*
X-18848840Y53923293D01*
X-18877700Y53778201D01*
X-18934312Y53641528D01*
X-19016500Y53518525D01*
X-19121105Y53413920D01*
X-19244108Y53331732D01*
X-19244109Y53331731D01*
X-19244110Y53331731D01*
X-19380781Y53275120D01*
X-19525872Y53246260D01*
X-19673808Y53246260D01*
X-19818899Y53275120D01*
X-19955570Y53331731D01*
X-19955571Y53331731D01*
X-19955572Y53331732D01*
X-20078575Y53413920D01*
X-20183180Y53518525D01*
X-20265368Y53641528D01*
X-20321980Y53778201D01*
X-20350840Y53923293D01*
X-20350840Y54071227D01*
X-20321980Y54216319D01*
X-20265368Y54352992D01*
X-20183180Y54475995D01*
X-20078575Y54580600D01*
X-19955572Y54662788D01*
X-19818899Y54719400D01*
X-19673808Y54748260D01*
X-19525872Y54748260D01*
X-19380781Y54719400D01*
G37*
G36*
X-14380781Y54719400D02*
G01*
X-14244108Y54662788D01*
X-14121105Y54580600D01*
X-14016500Y54475995D01*
X-13934312Y54352992D01*
X-13877700Y54216319D01*
X-13848840Y54071227D01*
X-13848840Y53923293D01*
X-13877700Y53778201D01*
X-13934312Y53641528D01*
X-14016500Y53518525D01*
X-14121105Y53413920D01*
X-14244108Y53331732D01*
X-14244109Y53331731D01*
X-14244110Y53331731D01*
X-14380781Y53275120D01*
X-14525872Y53246260D01*
X-14673808Y53246260D01*
X-14818899Y53275120D01*
X-14955570Y53331731D01*
X-14955571Y53331731D01*
X-14955572Y53331732D01*
X-15078575Y53413920D01*
X-15183180Y53518525D01*
X-15265368Y53641528D01*
X-15321980Y53778201D01*
X-15350840Y53923293D01*
X-15350840Y54071227D01*
X-15321980Y54216319D01*
X-15265368Y54352992D01*
X-15183180Y54475995D01*
X-15078575Y54580600D01*
X-14955572Y54662788D01*
X-14818899Y54719400D01*
X-14673808Y54748260D01*
X-14525872Y54748260D01*
X-14380781Y54719400D01*
G37*
G36*
X-21880781Y54719400D02*
G01*
X-21744108Y54662788D01*
X-21621105Y54580600D01*
X-21516500Y54475995D01*
X-21434312Y54352992D01*
X-21377700Y54216319D01*
X-21348840Y54071227D01*
X-21348840Y53923293D01*
X-21377700Y53778201D01*
X-21434312Y53641528D01*
X-21516500Y53518525D01*
X-21621105Y53413920D01*
X-21744108Y53331732D01*
X-21744109Y53331731D01*
X-21744110Y53331731D01*
X-21880781Y53275120D01*
X-22025872Y53246260D01*
X-22173808Y53246260D01*
X-22318899Y53275120D01*
X-22455570Y53331731D01*
X-22455571Y53331731D01*
X-22455572Y53331732D01*
X-22578575Y53413920D01*
X-22683180Y53518525D01*
X-22765368Y53641528D01*
X-22821980Y53778201D01*
X-22850840Y53923293D01*
X-22850840Y54071227D01*
X-22821980Y54216319D01*
X-22765368Y54352992D01*
X-22683180Y54475995D01*
X-22578575Y54580600D01*
X-22455572Y54662788D01*
X-22318899Y54719400D01*
X-22173808Y54748260D01*
X-22025872Y54748260D01*
X-21880781Y54719400D01*
G37*
G36*
X-16880781Y54719400D02*
G01*
X-16744108Y54662788D01*
X-16621105Y54580600D01*
X-16516500Y54475995D01*
X-16434312Y54352992D01*
X-16377700Y54216319D01*
X-16348840Y54071227D01*
X-16348840Y53923293D01*
X-16377700Y53778201D01*
X-16434312Y53641528D01*
X-16516500Y53518525D01*
X-16621105Y53413920D01*
X-16744108Y53331732D01*
X-16744109Y53331731D01*
X-16744110Y53331731D01*
X-16880781Y53275120D01*
X-17025872Y53246260D01*
X-17173808Y53246260D01*
X-17318899Y53275120D01*
X-17455570Y53331731D01*
X-17455571Y53331731D01*
X-17455572Y53331732D01*
X-17578575Y53413920D01*
X-17683180Y53518525D01*
X-17765368Y53641528D01*
X-17821980Y53778201D01*
X-17850840Y53923293D01*
X-17850840Y54071227D01*
X-17821980Y54216319D01*
X-17765368Y54352992D01*
X-17683180Y54475995D01*
X-17578575Y54580600D01*
X-17455572Y54662788D01*
X-17318899Y54719400D01*
X-17173808Y54748260D01*
X-17025872Y54748260D01*
X-16880781Y54719400D01*
G37*
G36*
X-14380781Y57719400D02*
G01*
X-14244108Y57662788D01*
X-14121105Y57580600D01*
X-14016500Y57475995D01*
X-13934312Y57352992D01*
X-13877700Y57216319D01*
X-13848840Y57071227D01*
X-13848840Y56923293D01*
X-13877700Y56778201D01*
X-13934312Y56641528D01*
X-14016500Y56518525D01*
X-14121105Y56413920D01*
X-14244108Y56331732D01*
X-14244109Y56331731D01*
X-14244110Y56331731D01*
X-14380781Y56275120D01*
X-14525872Y56246260D01*
X-14673808Y56246260D01*
X-14818899Y56275120D01*
X-14955570Y56331731D01*
X-14955571Y56331731D01*
X-14955572Y56331732D01*
X-15078575Y56413920D01*
X-15183180Y56518525D01*
X-15265368Y56641528D01*
X-15321980Y56778201D01*
X-15350840Y56923293D01*
X-15350840Y57071227D01*
X-15321980Y57216319D01*
X-15265368Y57352992D01*
X-15183180Y57475995D01*
X-15078575Y57580600D01*
X-14955572Y57662788D01*
X-14818899Y57719400D01*
X-14673808Y57748260D01*
X-14525872Y57748260D01*
X-14380781Y57719400D01*
G37*
G36*
X-21880781Y57719400D02*
G01*
X-21744108Y57662788D01*
X-21621105Y57580600D01*
X-21516500Y57475995D01*
X-21434312Y57352992D01*
X-21377700Y57216319D01*
X-21348840Y57071227D01*
X-21348840Y56923293D01*
X-21377700Y56778201D01*
X-21434312Y56641528D01*
X-21516500Y56518525D01*
X-21621105Y56413920D01*
X-21744108Y56331732D01*
X-21744109Y56331731D01*
X-21744110Y56331731D01*
X-21880781Y56275120D01*
X-22025872Y56246260D01*
X-22173808Y56246260D01*
X-22318899Y56275120D01*
X-22455570Y56331731D01*
X-22455571Y56331731D01*
X-22455572Y56331732D01*
X-22578575Y56413920D01*
X-22683180Y56518525D01*
X-22765368Y56641528D01*
X-22821980Y56778201D01*
X-22850840Y56923293D01*
X-22850840Y57071227D01*
X-22821980Y57216319D01*
X-22765368Y57352992D01*
X-22683180Y57475995D01*
X-22578575Y57580600D01*
X-22455572Y57662788D01*
X-22318899Y57719400D01*
X-22173808Y57748260D01*
X-22025872Y57748260D01*
X-21880781Y57719400D01*
G37*
G36*
X-19380781Y57719400D02*
G01*
X-19244108Y57662788D01*
X-19121105Y57580600D01*
X-19016500Y57475995D01*
X-18934312Y57352992D01*
X-18877700Y57216319D01*
X-18848840Y57071227D01*
X-18848840Y56923293D01*
X-18877700Y56778201D01*
X-18934312Y56641528D01*
X-19016500Y56518525D01*
X-19121105Y56413920D01*
X-19244108Y56331732D01*
X-19244109Y56331731D01*
X-19244110Y56331731D01*
X-19380781Y56275120D01*
X-19525872Y56246260D01*
X-19673808Y56246260D01*
X-19818899Y56275120D01*
X-19955570Y56331731D01*
X-19955571Y56331731D01*
X-19955572Y56331732D01*
X-20078575Y56413920D01*
X-20183180Y56518525D01*
X-20265368Y56641528D01*
X-20321980Y56778201D01*
X-20350840Y56923293D01*
X-20350840Y57071227D01*
X-20321980Y57216319D01*
X-20265368Y57352992D01*
X-20183180Y57475995D01*
X-20078575Y57580600D01*
X-19955572Y57662788D01*
X-19818899Y57719400D01*
X-19673808Y57748260D01*
X-19525872Y57748260D01*
X-19380781Y57719400D01*
G37*
G36*
X-16880781Y57719400D02*
G01*
X-16744108Y57662788D01*
X-16621105Y57580600D01*
X-16516500Y57475995D01*
X-16434312Y57352992D01*
X-16377700Y57216319D01*
X-16348840Y57071227D01*
X-16348840Y56923293D01*
X-16377700Y56778201D01*
X-16434312Y56641528D01*
X-16516500Y56518525D01*
X-16621105Y56413920D01*
X-16744108Y56331732D01*
X-16744109Y56331731D01*
X-16744110Y56331731D01*
X-16880781Y56275120D01*
X-17025872Y56246260D01*
X-17173808Y56246260D01*
X-17318899Y56275120D01*
X-17455570Y56331731D01*
X-17455571Y56331731D01*
X-17455572Y56331732D01*
X-17578575Y56413920D01*
X-17683180Y56518525D01*
X-17765368Y56641528D01*
X-17821980Y56778201D01*
X-17850840Y56923293D01*
X-17850840Y57071227D01*
X-17821980Y57216319D01*
X-17765368Y57352992D01*
X-17683180Y57475995D01*
X-17578575Y57580600D01*
X-17455572Y57662788D01*
X-17318899Y57719400D01*
X-17173808Y57748260D01*
X-17025872Y57748260D01*
X-16880781Y57719400D01*
G37*
G36*
X-11880781Y57719400D02*
G01*
X-11744108Y57662788D01*
X-11621105Y57580600D01*
X-11516500Y57475995D01*
X-11434312Y57352992D01*
X-11377700Y57216319D01*
X-11348840Y57071227D01*
X-11348840Y56923293D01*
X-11377700Y56778201D01*
X-11434312Y56641528D01*
X-11516500Y56518525D01*
X-11621105Y56413920D01*
X-11744108Y56331732D01*
X-11744109Y56331731D01*
X-11744110Y56331731D01*
X-11880781Y56275120D01*
X-12025872Y56246260D01*
X-12173808Y56246260D01*
X-12318899Y56275120D01*
X-12455570Y56331731D01*
X-12455571Y56331731D01*
X-12455572Y56331732D01*
X-12578575Y56413920D01*
X-12683180Y56518525D01*
X-12765368Y56641528D01*
X-12821980Y56778201D01*
X-12850840Y56923293D01*
X-12850840Y57071227D01*
X-12821980Y57216319D01*
X-12765368Y57352992D01*
X-12683180Y57475995D01*
X-12578575Y57580600D01*
X-12455572Y57662788D01*
X-12318899Y57719400D01*
X-12173808Y57748260D01*
X-12025872Y57748260D01*
X-11880781Y57719400D01*
G37*
G36*
X-9380781Y57719400D02*
G01*
X-9244108Y57662788D01*
X-9121105Y57580600D01*
X-9016500Y57475995D01*
X-8934312Y57352992D01*
X-8877700Y57216319D01*
X-8848840Y57071227D01*
X-8848840Y56923293D01*
X-8877700Y56778201D01*
X-8934312Y56641528D01*
X-9016500Y56518525D01*
X-9121105Y56413920D01*
X-9244108Y56331732D01*
X-9244109Y56331731D01*
X-9244110Y56331731D01*
X-9380781Y56275120D01*
X-9525872Y56246260D01*
X-9673808Y56246260D01*
X-9818899Y56275120D01*
X-9955570Y56331731D01*
X-9955571Y56331731D01*
X-9955572Y56331732D01*
X-10078575Y56413920D01*
X-10183180Y56518525D01*
X-10265368Y56641528D01*
X-10321980Y56778201D01*
X-10350840Y56923293D01*
X-10350840Y57071227D01*
X-10321980Y57216319D01*
X-10265368Y57352992D01*
X-10183180Y57475995D01*
X-10078575Y57580600D01*
X-9955572Y57662788D01*
X-9818899Y57719400D01*
X-9673808Y57748260D01*
X-9525872Y57748260D01*
X-9380781Y57719400D01*
G37*
G36*
X-19380781Y60499400D02*
G01*
X-19244108Y60442788D01*
X-19121105Y60360600D01*
X-19016500Y60255995D01*
X-18934312Y60132992D01*
X-18877700Y59996319D01*
X-18848840Y59851227D01*
X-18848840Y59703293D01*
X-18877700Y59558201D01*
X-18934312Y59421528D01*
X-19016500Y59298525D01*
X-19121105Y59193920D01*
X-19244108Y59111732D01*
X-19244109Y59111731D01*
X-19244110Y59111731D01*
X-19380781Y59055120D01*
X-19525872Y59026260D01*
X-19673808Y59026260D01*
X-19818899Y59055120D01*
X-19955570Y59111731D01*
X-19955571Y59111731D01*
X-19955572Y59111732D01*
X-20078575Y59193920D01*
X-20183180Y59298525D01*
X-20265368Y59421528D01*
X-20321980Y59558201D01*
X-20350840Y59703293D01*
X-20350840Y59851227D01*
X-20321980Y59996319D01*
X-20265368Y60132992D01*
X-20183180Y60255995D01*
X-20078575Y60360600D01*
X-19955572Y60442788D01*
X-19818899Y60499400D01*
X-19673808Y60528260D01*
X-19525872Y60528260D01*
X-19380781Y60499400D01*
G37*
G36*
X-21880781Y60499400D02*
G01*
X-21744108Y60442788D01*
X-21621105Y60360600D01*
X-21516500Y60255995D01*
X-21434312Y60132992D01*
X-21377700Y59996319D01*
X-21348840Y59851227D01*
X-21348840Y59703293D01*
X-21377700Y59558201D01*
X-21434312Y59421528D01*
X-21516500Y59298525D01*
X-21621105Y59193920D01*
X-21744108Y59111732D01*
X-21744109Y59111731D01*
X-21744110Y59111731D01*
X-21880781Y59055120D01*
X-22025872Y59026260D01*
X-22173808Y59026260D01*
X-22318899Y59055120D01*
X-22455570Y59111731D01*
X-22455571Y59111731D01*
X-22455572Y59111732D01*
X-22578575Y59193920D01*
X-22683180Y59298525D01*
X-22765368Y59421528D01*
X-22821980Y59558201D01*
X-22850840Y59703293D01*
X-22850840Y59851227D01*
X-22821980Y59996319D01*
X-22765368Y60132992D01*
X-22683180Y60255995D01*
X-22578575Y60360600D01*
X-22455572Y60442788D01*
X-22318899Y60499400D01*
X-22173808Y60528260D01*
X-22025872Y60528260D01*
X-21880781Y60499400D01*
G37*
G36*
X-16880781Y60499400D02*
G01*
X-16744108Y60442788D01*
X-16621105Y60360600D01*
X-16516500Y60255995D01*
X-16434312Y60132992D01*
X-16377700Y59996319D01*
X-16348840Y59851227D01*
X-16348840Y59703293D01*
X-16377700Y59558201D01*
X-16434312Y59421528D01*
X-16516500Y59298525D01*
X-16621105Y59193920D01*
X-16744108Y59111732D01*
X-16744109Y59111731D01*
X-16744110Y59111731D01*
X-16880781Y59055120D01*
X-17025872Y59026260D01*
X-17173808Y59026260D01*
X-17318899Y59055120D01*
X-17455570Y59111731D01*
X-17455571Y59111731D01*
X-17455572Y59111732D01*
X-17578575Y59193920D01*
X-17683180Y59298525D01*
X-17765368Y59421528D01*
X-17821980Y59558201D01*
X-17850840Y59703293D01*
X-17850840Y59851227D01*
X-17821980Y59996319D01*
X-17765368Y60132992D01*
X-17683180Y60255995D01*
X-17578575Y60360600D01*
X-17455572Y60442788D01*
X-17318899Y60499400D01*
X-17173808Y60528260D01*
X-17025872Y60528260D01*
X-16880781Y60499400D01*
G37*
G36*
X-11880781Y60499400D02*
G01*
X-11744108Y60442788D01*
X-11621105Y60360600D01*
X-11516500Y60255995D01*
X-11434312Y60132992D01*
X-11377700Y59996319D01*
X-11348840Y59851227D01*
X-11348840Y59703293D01*
X-11377700Y59558201D01*
X-11434312Y59421528D01*
X-11516500Y59298525D01*
X-11621105Y59193920D01*
X-11744108Y59111732D01*
X-11744109Y59111731D01*
X-11744110Y59111731D01*
X-11880781Y59055120D01*
X-12025872Y59026260D01*
X-12173808Y59026260D01*
X-12318899Y59055120D01*
X-12455570Y59111731D01*
X-12455571Y59111731D01*
X-12455572Y59111732D01*
X-12578575Y59193920D01*
X-12683180Y59298525D01*
X-12765368Y59421528D01*
X-12821980Y59558201D01*
X-12850840Y59703293D01*
X-12850840Y59851227D01*
X-12821980Y59996319D01*
X-12765368Y60132992D01*
X-12683180Y60255995D01*
X-12578575Y60360600D01*
X-12455572Y60442788D01*
X-12318899Y60499400D01*
X-12173808Y60528260D01*
X-12025872Y60528260D01*
X-11880781Y60499400D01*
G37*
G36*
X-9380781Y60499400D02*
G01*
X-9244108Y60442788D01*
X-9121105Y60360600D01*
X-9016500Y60255995D01*
X-8934312Y60132992D01*
X-8877700Y59996319D01*
X-8848840Y59851227D01*
X-8848840Y59703293D01*
X-8877700Y59558201D01*
X-8934312Y59421528D01*
X-9016500Y59298525D01*
X-9121105Y59193920D01*
X-9244108Y59111732D01*
X-9244109Y59111731D01*
X-9244110Y59111731D01*
X-9380781Y59055120D01*
X-9525872Y59026260D01*
X-9673808Y59026260D01*
X-9818899Y59055120D01*
X-9955570Y59111731D01*
X-9955571Y59111731D01*
X-9955572Y59111732D01*
X-10078575Y59193920D01*
X-10183180Y59298525D01*
X-10265368Y59421528D01*
X-10321980Y59558201D01*
X-10350840Y59703293D01*
X-10350840Y59851227D01*
X-10321980Y59996319D01*
X-10265368Y60132992D01*
X-10183180Y60255995D01*
X-10078575Y60360600D01*
X-9955572Y60442788D01*
X-9818899Y60499400D01*
X-9673808Y60528260D01*
X-9525872Y60528260D01*
X-9380781Y60499400D01*
G37*
G36*
X-14380781Y60499400D02*
G01*
X-14244108Y60442788D01*
X-14121105Y60360600D01*
X-14016500Y60255995D01*
X-13934312Y60132992D01*
X-13877700Y59996319D01*
X-13848840Y59851227D01*
X-13848840Y59703293D01*
X-13877700Y59558201D01*
X-13934312Y59421528D01*
X-14016500Y59298525D01*
X-14121105Y59193920D01*
X-14244108Y59111732D01*
X-14244109Y59111731D01*
X-14244110Y59111731D01*
X-14380781Y59055120D01*
X-14525872Y59026260D01*
X-14673808Y59026260D01*
X-14818899Y59055120D01*
X-14955570Y59111731D01*
X-14955571Y59111731D01*
X-14955572Y59111732D01*
X-15078575Y59193920D01*
X-15183180Y59298525D01*
X-15265368Y59421528D01*
X-15321980Y59558201D01*
X-15350840Y59703293D01*
X-15350840Y59851227D01*
X-15321980Y59996319D01*
X-15265368Y60132992D01*
X-15183180Y60255995D01*
X-15078575Y60360600D01*
X-14955572Y60442788D01*
X-14818899Y60499400D01*
X-14673808Y60528260D01*
X-14525872Y60528260D01*
X-14380781Y60499400D01*
G37*
G36*
X114702704Y76093080D02*
G01*
X116076898Y75523870D01*
X116076900Y75523869D01*
X117313642Y74697505D01*
X118365405Y73645742D01*
X118640495Y73234040D01*
X119191770Y72408998D01*
X119760980Y71034804D01*
X120051160Y69575970D01*
X120051160Y68088550D01*
X119760980Y66629716D01*
X119347392Y65631227D01*
X119191769Y65255520D01*
X118365405Y64018778D01*
X117313642Y62967015D01*
X116076900Y62140651D01*
X116076899Y62140650D01*
X116076898Y62140650D01*
X114702704Y61571440D01*
X113243870Y61281260D01*
X111756450Y61281260D01*
X110297616Y61571440D01*
X108923422Y62140650D01*
X108923421Y62140650D01*
X108923420Y62140651D01*
X107686678Y62967015D01*
X106634915Y64018778D01*
X105808551Y65255520D01*
X105652928Y65631227D01*
X105239340Y66629716D01*
X104949160Y68088550D01*
X104949160Y69575970D01*
X105239340Y71034804D01*
X105808550Y72408998D01*
X106359825Y73234040D01*
X106634915Y73645742D01*
X107686678Y74697505D01*
X108923420Y75523869D01*
X108923422Y75523870D01*
X110297616Y76093080D01*
X111756450Y76383260D01*
X113243870Y76383260D01*
X114702704Y76093080D01*
G37*
G36*
X74702704Y76093080D02*
G01*
X76076898Y75523870D01*
X76076900Y75523869D01*
X77313642Y74697505D01*
X78365405Y73645742D01*
X78640495Y73234040D01*
X79191770Y72408998D01*
X79760980Y71034804D01*
X80051160Y69575970D01*
X80051160Y68088550D01*
X79760980Y66629716D01*
X79347392Y65631227D01*
X79191769Y65255520D01*
X78365405Y64018778D01*
X77313642Y62967015D01*
X76076900Y62140651D01*
X76076899Y62140650D01*
X76076898Y62140650D01*
X74702704Y61571440D01*
X73243870Y61281260D01*
X71756450Y61281260D01*
X70297616Y61571440D01*
X68923422Y62140650D01*
X68923421Y62140650D01*
X68923420Y62140651D01*
X67686678Y62967015D01*
X66634915Y64018778D01*
X65808551Y65255520D01*
X65652928Y65631227D01*
X65239340Y66629716D01*
X64949160Y68088550D01*
X64949160Y69575970D01*
X65239340Y71034804D01*
X65808550Y72408998D01*
X66359825Y73234040D01*
X66634915Y73645742D01*
X67686678Y74697505D01*
X68923420Y75523869D01*
X68923422Y75523870D01*
X70297616Y76093080D01*
X71756450Y76383260D01*
X73243870Y76383260D01*
X74702704Y76093080D01*
G37*
G36*
X-14380781Y63499400D02*
G01*
X-14244108Y63442788D01*
X-14121105Y63360600D01*
X-14016500Y63255995D01*
X-13934312Y63132992D01*
X-13877700Y62996319D01*
X-13848840Y62851227D01*
X-13848840Y62703293D01*
X-13877700Y62558201D01*
X-13934312Y62421528D01*
X-14016500Y62298525D01*
X-14121105Y62193920D01*
X-14244108Y62111732D01*
X-14244109Y62111731D01*
X-14244110Y62111731D01*
X-14380781Y62055120D01*
X-14525872Y62026260D01*
X-14673808Y62026260D01*
X-14818899Y62055120D01*
X-14955570Y62111731D01*
X-14955571Y62111731D01*
X-14955572Y62111732D01*
X-15078575Y62193920D01*
X-15183180Y62298525D01*
X-15265368Y62421528D01*
X-15321980Y62558201D01*
X-15350840Y62703293D01*
X-15350840Y62851227D01*
X-15321980Y62996319D01*
X-15265368Y63132992D01*
X-15183180Y63255995D01*
X-15078575Y63360600D01*
X-14955572Y63442788D01*
X-14818899Y63499400D01*
X-14673808Y63528260D01*
X-14525872Y63528260D01*
X-14380781Y63499400D01*
G37*
G36*
X-11880781Y63499400D02*
G01*
X-11744108Y63442788D01*
X-11621105Y63360600D01*
X-11516500Y63255995D01*
X-11434312Y63132992D01*
X-11377700Y62996319D01*
X-11348840Y62851227D01*
X-11348840Y62703293D01*
X-11377700Y62558201D01*
X-11434312Y62421528D01*
X-11516500Y62298525D01*
X-11621105Y62193920D01*
X-11744108Y62111732D01*
X-11744109Y62111731D01*
X-11744110Y62111731D01*
X-11880781Y62055120D01*
X-12025872Y62026260D01*
X-12173808Y62026260D01*
X-12318899Y62055120D01*
X-12455570Y62111731D01*
X-12455571Y62111731D01*
X-12455572Y62111732D01*
X-12578575Y62193920D01*
X-12683180Y62298525D01*
X-12765368Y62421528D01*
X-12821980Y62558201D01*
X-12850840Y62703293D01*
X-12850840Y62851227D01*
X-12821980Y62996319D01*
X-12765368Y63132992D01*
X-12683180Y63255995D01*
X-12578575Y63360600D01*
X-12455572Y63442788D01*
X-12318899Y63499400D01*
X-12173808Y63528260D01*
X-12025872Y63528260D01*
X-11880781Y63499400D01*
G37*
G36*
X-21880781Y63499400D02*
G01*
X-21744108Y63442788D01*
X-21621105Y63360600D01*
X-21516500Y63255995D01*
X-21434312Y63132992D01*
X-21377700Y62996319D01*
X-21348840Y62851227D01*
X-21348840Y62703293D01*
X-21377700Y62558201D01*
X-21434312Y62421528D01*
X-21516500Y62298525D01*
X-21621105Y62193920D01*
X-21744108Y62111732D01*
X-21744109Y62111731D01*
X-21744110Y62111731D01*
X-21880781Y62055120D01*
X-22025872Y62026260D01*
X-22173808Y62026260D01*
X-22318899Y62055120D01*
X-22455570Y62111731D01*
X-22455571Y62111731D01*
X-22455572Y62111732D01*
X-22578575Y62193920D01*
X-22683180Y62298525D01*
X-22765368Y62421528D01*
X-22821980Y62558201D01*
X-22850840Y62703293D01*
X-22850840Y62851227D01*
X-22821980Y62996319D01*
X-22765368Y63132992D01*
X-22683180Y63255995D01*
X-22578575Y63360600D01*
X-22455572Y63442788D01*
X-22318899Y63499400D01*
X-22173808Y63528260D01*
X-22025872Y63528260D01*
X-21880781Y63499400D01*
G37*
G36*
X-19380781Y63499400D02*
G01*
X-19244108Y63442788D01*
X-19121105Y63360600D01*
X-19016500Y63255995D01*
X-18934312Y63132992D01*
X-18877700Y62996319D01*
X-18848840Y62851227D01*
X-18848840Y62703293D01*
X-18877700Y62558201D01*
X-18934312Y62421528D01*
X-19016500Y62298525D01*
X-19121105Y62193920D01*
X-19244108Y62111732D01*
X-19244109Y62111731D01*
X-19244110Y62111731D01*
X-19380781Y62055120D01*
X-19525872Y62026260D01*
X-19673808Y62026260D01*
X-19818899Y62055120D01*
X-19955570Y62111731D01*
X-19955571Y62111731D01*
X-19955572Y62111732D01*
X-20078575Y62193920D01*
X-20183180Y62298525D01*
X-20265368Y62421528D01*
X-20321980Y62558201D01*
X-20350840Y62703293D01*
X-20350840Y62851227D01*
X-20321980Y62996319D01*
X-20265368Y63132992D01*
X-20183180Y63255995D01*
X-20078575Y63360600D01*
X-19955572Y63442788D01*
X-19818899Y63499400D01*
X-19673808Y63528260D01*
X-19525872Y63528260D01*
X-19380781Y63499400D01*
G37*
G36*
X-16880781Y63499400D02*
G01*
X-16744108Y63442788D01*
X-16621105Y63360600D01*
X-16516500Y63255995D01*
X-16434312Y63132992D01*
X-16377700Y62996319D01*
X-16348840Y62851227D01*
X-16348840Y62703293D01*
X-16377700Y62558201D01*
X-16434312Y62421528D01*
X-16516500Y62298525D01*
X-16621105Y62193920D01*
X-16744108Y62111732D01*
X-16744109Y62111731D01*
X-16744110Y62111731D01*
X-16880781Y62055120D01*
X-17025872Y62026260D01*
X-17173808Y62026260D01*
X-17318899Y62055120D01*
X-17455570Y62111731D01*
X-17455571Y62111731D01*
X-17455572Y62111732D01*
X-17578575Y62193920D01*
X-17683180Y62298525D01*
X-17765368Y62421528D01*
X-17821980Y62558201D01*
X-17850840Y62703293D01*
X-17850840Y62851227D01*
X-17821980Y62996319D01*
X-17765368Y63132992D01*
X-17683180Y63255995D01*
X-17578575Y63360600D01*
X-17455572Y63442788D01*
X-17318899Y63499400D01*
X-17173808Y63528260D01*
X-17025872Y63528260D01*
X-16880781Y63499400D01*
G37*
G36*
X-9380781Y63499400D02*
G01*
X-9244108Y63442788D01*
X-9121105Y63360600D01*
X-9016500Y63255995D01*
X-8934312Y63132992D01*
X-8877700Y62996319D01*
X-8848840Y62851227D01*
X-8848840Y62703293D01*
X-8877700Y62558201D01*
X-8934312Y62421528D01*
X-9016500Y62298525D01*
X-9121105Y62193920D01*
X-9244108Y62111732D01*
X-9244109Y62111731D01*
X-9244110Y62111731D01*
X-9380781Y62055120D01*
X-9525872Y62026260D01*
X-9673808Y62026260D01*
X-9818899Y62055120D01*
X-9955570Y62111731D01*
X-9955571Y62111731D01*
X-9955572Y62111732D01*
X-10078575Y62193920D01*
X-10183180Y62298525D01*
X-10265368Y62421528D01*
X-10321980Y62558201D01*
X-10350840Y62703293D01*
X-10350840Y62851227D01*
X-10321980Y62996319D01*
X-10265368Y63132992D01*
X-10183180Y63255995D01*
X-10078575Y63360600D01*
X-9955572Y63442788D01*
X-9818899Y63499400D01*
X-9673808Y63528260D01*
X-9525872Y63528260D01*
X-9380781Y63499400D01*
G37*
G36*
X-19380781Y66279400D02*
G01*
X-19244108Y66222788D01*
X-19121105Y66140600D01*
X-19016500Y66035995D01*
X-18934312Y65912992D01*
X-18877700Y65776319D01*
X-18848840Y65631227D01*
X-18848840Y65483293D01*
X-18877700Y65338201D01*
X-18934312Y65201528D01*
X-19016500Y65078525D01*
X-19121105Y64973920D01*
X-19244108Y64891732D01*
X-19244109Y64891731D01*
X-19244110Y64891731D01*
X-19380781Y64835120D01*
X-19525872Y64806260D01*
X-19673808Y64806260D01*
X-19818899Y64835120D01*
X-19955570Y64891731D01*
X-19955571Y64891731D01*
X-19955572Y64891732D01*
X-20078575Y64973920D01*
X-20183180Y65078525D01*
X-20265368Y65201528D01*
X-20321980Y65338201D01*
X-20350840Y65483293D01*
X-20350840Y65631227D01*
X-20321980Y65776319D01*
X-20265368Y65912992D01*
X-20183180Y66035995D01*
X-20078575Y66140600D01*
X-19955572Y66222788D01*
X-19818899Y66279400D01*
X-19673808Y66308260D01*
X-19525872Y66308260D01*
X-19380781Y66279400D01*
G37*
G36*
X-9380781Y66279400D02*
G01*
X-9244108Y66222788D01*
X-9121105Y66140600D01*
X-9016500Y66035995D01*
X-8934312Y65912992D01*
X-8877700Y65776319D01*
X-8848840Y65631227D01*
X-8848840Y65483293D01*
X-8877700Y65338201D01*
X-8934312Y65201528D01*
X-9016500Y65078525D01*
X-9121105Y64973920D01*
X-9244108Y64891732D01*
X-9244109Y64891731D01*
X-9244110Y64891731D01*
X-9380781Y64835120D01*
X-9525872Y64806260D01*
X-9673808Y64806260D01*
X-9818899Y64835120D01*
X-9955570Y64891731D01*
X-9955571Y64891731D01*
X-9955572Y64891732D01*
X-10078575Y64973920D01*
X-10183180Y65078525D01*
X-10265368Y65201528D01*
X-10321980Y65338201D01*
X-10350840Y65483293D01*
X-10350840Y65631227D01*
X-10321980Y65776319D01*
X-10265368Y65912992D01*
X-10183180Y66035995D01*
X-10078575Y66140600D01*
X-9955572Y66222788D01*
X-9818899Y66279400D01*
X-9673808Y66308260D01*
X-9525872Y66308260D01*
X-9380781Y66279400D01*
G37*
G36*
X-16880781Y66279400D02*
G01*
X-16744108Y66222788D01*
X-16621105Y66140600D01*
X-16516500Y66035995D01*
X-16434312Y65912992D01*
X-16377700Y65776319D01*
X-16348840Y65631227D01*
X-16348840Y65483293D01*
X-16377700Y65338201D01*
X-16434312Y65201528D01*
X-16516500Y65078525D01*
X-16621105Y64973920D01*
X-16744108Y64891732D01*
X-16744109Y64891731D01*
X-16744110Y64891731D01*
X-16880781Y64835120D01*
X-17025872Y64806260D01*
X-17173808Y64806260D01*
X-17318899Y64835120D01*
X-17455570Y64891731D01*
X-17455571Y64891731D01*
X-17455572Y64891732D01*
X-17578575Y64973920D01*
X-17683180Y65078525D01*
X-17765368Y65201528D01*
X-17821980Y65338201D01*
X-17850840Y65483293D01*
X-17850840Y65631227D01*
X-17821980Y65776319D01*
X-17765368Y65912992D01*
X-17683180Y66035995D01*
X-17578575Y66140600D01*
X-17455572Y66222788D01*
X-17318899Y66279400D01*
X-17173808Y66308260D01*
X-17025872Y66308260D01*
X-16880781Y66279400D01*
G37*
G36*
X-11880781Y66279400D02*
G01*
X-11744108Y66222788D01*
X-11621105Y66140600D01*
X-11516500Y66035995D01*
X-11434312Y65912992D01*
X-11377700Y65776319D01*
X-11348840Y65631227D01*
X-11348840Y65483293D01*
X-11377700Y65338201D01*
X-11434312Y65201528D01*
X-11516500Y65078525D01*
X-11621105Y64973920D01*
X-11744108Y64891732D01*
X-11744109Y64891731D01*
X-11744110Y64891731D01*
X-11880781Y64835120D01*
X-12025872Y64806260D01*
X-12173808Y64806260D01*
X-12318899Y64835120D01*
X-12455570Y64891731D01*
X-12455571Y64891731D01*
X-12455572Y64891732D01*
X-12578575Y64973920D01*
X-12683180Y65078525D01*
X-12765368Y65201528D01*
X-12821980Y65338201D01*
X-12850840Y65483293D01*
X-12850840Y65631227D01*
X-12821980Y65776319D01*
X-12765368Y65912992D01*
X-12683180Y66035995D01*
X-12578575Y66140600D01*
X-12455572Y66222788D01*
X-12318899Y66279400D01*
X-12173808Y66308260D01*
X-12025872Y66308260D01*
X-11880781Y66279400D01*
G37*
G36*
X-14380781Y66279400D02*
G01*
X-14244108Y66222788D01*
X-14121105Y66140600D01*
X-14016500Y66035995D01*
X-13934312Y65912992D01*
X-13877700Y65776319D01*
X-13848840Y65631227D01*
X-13848840Y65483293D01*
X-13877700Y65338201D01*
X-13934312Y65201528D01*
X-14016500Y65078525D01*
X-14121105Y64973920D01*
X-14244108Y64891732D01*
X-14244109Y64891731D01*
X-14244110Y64891731D01*
X-14380781Y64835120D01*
X-14525872Y64806260D01*
X-14673808Y64806260D01*
X-14818899Y64835120D01*
X-14955570Y64891731D01*
X-14955571Y64891731D01*
X-14955572Y64891732D01*
X-15078575Y64973920D01*
X-15183180Y65078525D01*
X-15265368Y65201528D01*
X-15321980Y65338201D01*
X-15350840Y65483293D01*
X-15350840Y65631227D01*
X-15321980Y65776319D01*
X-15265368Y65912992D01*
X-15183180Y66035995D01*
X-15078575Y66140600D01*
X-14955572Y66222788D01*
X-14818899Y66279400D01*
X-14673808Y66308260D01*
X-14525872Y66308260D01*
X-14380781Y66279400D01*
G37*
G36*
X-21880781Y66279400D02*
G01*
X-21744108Y66222788D01*
X-21621105Y66140600D01*
X-21516500Y66035995D01*
X-21434312Y65912992D01*
X-21377700Y65776319D01*
X-21348840Y65631227D01*
X-21348840Y65483293D01*
X-21377700Y65338201D01*
X-21434312Y65201528D01*
X-21516500Y65078525D01*
X-21621105Y64973920D01*
X-21744108Y64891732D01*
X-21744109Y64891731D01*
X-21744110Y64891731D01*
X-21880781Y64835120D01*
X-22025872Y64806260D01*
X-22173808Y64806260D01*
X-22318899Y64835120D01*
X-22455570Y64891731D01*
X-22455571Y64891731D01*
X-22455572Y64891732D01*
X-22578575Y64973920D01*
X-22683180Y65078525D01*
X-22765368Y65201528D01*
X-22821980Y65338201D01*
X-22850840Y65483293D01*
X-22850840Y65631227D01*
X-22821980Y65776319D01*
X-22765368Y65912992D01*
X-22683180Y66035995D01*
X-22578575Y66140600D01*
X-22455572Y66222788D01*
X-22318899Y66279400D01*
X-22173808Y66308260D01*
X-22025872Y66308260D01*
X-21880781Y66279400D01*
G37*
G36*
X-16880781Y69279400D02*
G01*
X-16744108Y69222788D01*
X-16621105Y69140600D01*
X-16516500Y69035995D01*
X-16434312Y68912992D01*
X-16377700Y68776319D01*
X-16348840Y68631227D01*
X-16348840Y68483293D01*
X-16377700Y68338201D01*
X-16434312Y68201528D01*
X-16516500Y68078525D01*
X-16621105Y67973920D01*
X-16744108Y67891732D01*
X-16744109Y67891731D01*
X-16744110Y67891731D01*
X-16880781Y67835120D01*
X-17025872Y67806260D01*
X-17173808Y67806260D01*
X-17318899Y67835120D01*
X-17455570Y67891731D01*
X-17455571Y67891731D01*
X-17455572Y67891732D01*
X-17578575Y67973920D01*
X-17683180Y68078525D01*
X-17765368Y68201528D01*
X-17821980Y68338201D01*
X-17850840Y68483293D01*
X-17850840Y68631227D01*
X-17821980Y68776319D01*
X-17765368Y68912992D01*
X-17683180Y69035995D01*
X-17578575Y69140600D01*
X-17455572Y69222788D01*
X-17318899Y69279400D01*
X-17173808Y69308260D01*
X-17025872Y69308260D01*
X-16880781Y69279400D01*
G37*
G36*
X-11880781Y69279400D02*
G01*
X-11744108Y69222788D01*
X-11621105Y69140600D01*
X-11516500Y69035995D01*
X-11434312Y68912992D01*
X-11377700Y68776319D01*
X-11348840Y68631227D01*
X-11348840Y68483293D01*
X-11377700Y68338201D01*
X-11434312Y68201528D01*
X-11516500Y68078525D01*
X-11621105Y67973920D01*
X-11744108Y67891732D01*
X-11744109Y67891731D01*
X-11744110Y67891731D01*
X-11880781Y67835120D01*
X-12025872Y67806260D01*
X-12173808Y67806260D01*
X-12318899Y67835120D01*
X-12455570Y67891731D01*
X-12455571Y67891731D01*
X-12455572Y67891732D01*
X-12578575Y67973920D01*
X-12683180Y68078525D01*
X-12765368Y68201528D01*
X-12821980Y68338201D01*
X-12850840Y68483293D01*
X-12850840Y68631227D01*
X-12821980Y68776319D01*
X-12765368Y68912992D01*
X-12683180Y69035995D01*
X-12578575Y69140600D01*
X-12455572Y69222788D01*
X-12318899Y69279400D01*
X-12173808Y69308260D01*
X-12025872Y69308260D01*
X-11880781Y69279400D01*
G37*
G36*
X-14380781Y69279400D02*
G01*
X-14244108Y69222788D01*
X-14121105Y69140600D01*
X-14016500Y69035995D01*
X-13934312Y68912992D01*
X-13877700Y68776319D01*
X-13848840Y68631227D01*
X-13848840Y68483293D01*
X-13877700Y68338201D01*
X-13934312Y68201528D01*
X-14016500Y68078525D01*
X-14121105Y67973920D01*
X-14244108Y67891732D01*
X-14244109Y67891731D01*
X-14244110Y67891731D01*
X-14380781Y67835120D01*
X-14525872Y67806260D01*
X-14673808Y67806260D01*
X-14818899Y67835120D01*
X-14955570Y67891731D01*
X-14955571Y67891731D01*
X-14955572Y67891732D01*
X-15078575Y67973920D01*
X-15183180Y68078525D01*
X-15265368Y68201528D01*
X-15321980Y68338201D01*
X-15350840Y68483293D01*
X-15350840Y68631227D01*
X-15321980Y68776319D01*
X-15265368Y68912992D01*
X-15183180Y69035995D01*
X-15078575Y69140600D01*
X-14955572Y69222788D01*
X-14818899Y69279400D01*
X-14673808Y69308260D01*
X-14525872Y69308260D01*
X-14380781Y69279400D01*
G37*
G36*
X-9380781Y69279400D02*
G01*
X-9244108Y69222788D01*
X-9121105Y69140600D01*
X-9016500Y69035995D01*
X-8934312Y68912992D01*
X-8877700Y68776319D01*
X-8848840Y68631227D01*
X-8848840Y68483293D01*
X-8877700Y68338201D01*
X-8934312Y68201528D01*
X-9016500Y68078525D01*
X-9121105Y67973920D01*
X-9244108Y67891732D01*
X-9244109Y67891731D01*
X-9244110Y67891731D01*
X-9380781Y67835120D01*
X-9525872Y67806260D01*
X-9673808Y67806260D01*
X-9818899Y67835120D01*
X-9955570Y67891731D01*
X-9955571Y67891731D01*
X-9955572Y67891732D01*
X-10078575Y67973920D01*
X-10183180Y68078525D01*
X-10265368Y68201528D01*
X-10321980Y68338201D01*
X-10350840Y68483293D01*
X-10350840Y68631227D01*
X-10321980Y68776319D01*
X-10265368Y68912992D01*
X-10183180Y69035995D01*
X-10078575Y69140600D01*
X-9955572Y69222788D01*
X-9818899Y69279400D01*
X-9673808Y69308260D01*
X-9525872Y69308260D01*
X-9380781Y69279400D01*
G37*
G36*
X-19380781Y69279400D02*
G01*
X-19244108Y69222788D01*
X-19121105Y69140600D01*
X-19016500Y69035995D01*
X-18934312Y68912992D01*
X-18877700Y68776319D01*
X-18848840Y68631227D01*
X-18848840Y68483293D01*
X-18877700Y68338201D01*
X-18934312Y68201528D01*
X-19016500Y68078525D01*
X-19121105Y67973920D01*
X-19244108Y67891732D01*
X-19244109Y67891731D01*
X-19244110Y67891731D01*
X-19380781Y67835120D01*
X-19525872Y67806260D01*
X-19673808Y67806260D01*
X-19818899Y67835120D01*
X-19955570Y67891731D01*
X-19955571Y67891731D01*
X-19955572Y67891732D01*
X-20078575Y67973920D01*
X-20183180Y68078525D01*
X-20265368Y68201528D01*
X-20321980Y68338201D01*
X-20350840Y68483293D01*
X-20350840Y68631227D01*
X-20321980Y68776319D01*
X-20265368Y68912992D01*
X-20183180Y69035995D01*
X-20078575Y69140600D01*
X-19955572Y69222788D01*
X-19818899Y69279400D01*
X-19673808Y69308260D01*
X-19525872Y69308260D01*
X-19380781Y69279400D01*
G37*
G36*
X-21880781Y69279400D02*
G01*
X-21744108Y69222788D01*
X-21621105Y69140600D01*
X-21516500Y69035995D01*
X-21434312Y68912992D01*
X-21377700Y68776319D01*
X-21348840Y68631227D01*
X-21348840Y68483293D01*
X-21377700Y68338201D01*
X-21434312Y68201528D01*
X-21516500Y68078525D01*
X-21621105Y67973920D01*
X-21744108Y67891732D01*
X-21744109Y67891731D01*
X-21744110Y67891731D01*
X-21880781Y67835120D01*
X-22025872Y67806260D01*
X-22173808Y67806260D01*
X-22318899Y67835120D01*
X-22455570Y67891731D01*
X-22455571Y67891731D01*
X-22455572Y67891732D01*
X-22578575Y67973920D01*
X-22683180Y68078525D01*
X-22765368Y68201528D01*
X-22821980Y68338201D01*
X-22850840Y68483293D01*
X-22850840Y68631227D01*
X-22821980Y68776319D01*
X-22765368Y68912992D01*
X-22683180Y69035995D01*
X-22578575Y69140600D01*
X-22455572Y69222788D01*
X-22318899Y69279400D01*
X-22173808Y69308260D01*
X-22025872Y69308260D01*
X-21880781Y69279400D01*
G37*
G36*
X-9380781Y72059400D02*
G01*
X-9244108Y72002788D01*
X-9121105Y71920600D01*
X-9016500Y71815995D01*
X-8934312Y71692992D01*
X-8877700Y71556319D01*
X-8848840Y71411227D01*
X-8848840Y71263293D01*
X-8877700Y71118201D01*
X-8934312Y70981528D01*
X-9016500Y70858525D01*
X-9121105Y70753920D01*
X-9244108Y70671732D01*
X-9244109Y70671731D01*
X-9244110Y70671731D01*
X-9380781Y70615120D01*
X-9525872Y70586260D01*
X-9673808Y70586260D01*
X-9818899Y70615120D01*
X-9955570Y70671731D01*
X-9955571Y70671731D01*
X-9955572Y70671732D01*
X-10078575Y70753920D01*
X-10183180Y70858525D01*
X-10265368Y70981528D01*
X-10321980Y71118201D01*
X-10350840Y71263293D01*
X-10350840Y71411227D01*
X-10321980Y71556319D01*
X-10265368Y71692992D01*
X-10183180Y71815995D01*
X-10078575Y71920600D01*
X-9955572Y72002788D01*
X-9818899Y72059400D01*
X-9673808Y72088260D01*
X-9525872Y72088260D01*
X-9380781Y72059400D01*
G37*
G36*
X-11880781Y72059400D02*
G01*
X-11744108Y72002788D01*
X-11621105Y71920600D01*
X-11516500Y71815995D01*
X-11434312Y71692992D01*
X-11377700Y71556319D01*
X-11348840Y71411227D01*
X-11348840Y71263293D01*
X-11377700Y71118201D01*
X-11434312Y70981528D01*
X-11516500Y70858525D01*
X-11621105Y70753920D01*
X-11744108Y70671732D01*
X-11744109Y70671731D01*
X-11744110Y70671731D01*
X-11880781Y70615120D01*
X-12025872Y70586260D01*
X-12173808Y70586260D01*
X-12318899Y70615120D01*
X-12455570Y70671731D01*
X-12455571Y70671731D01*
X-12455572Y70671732D01*
X-12578575Y70753920D01*
X-12683180Y70858525D01*
X-12765368Y70981528D01*
X-12821980Y71118201D01*
X-12850840Y71263293D01*
X-12850840Y71411227D01*
X-12821980Y71556319D01*
X-12765368Y71692992D01*
X-12683180Y71815995D01*
X-12578575Y71920600D01*
X-12455572Y72002788D01*
X-12318899Y72059400D01*
X-12173808Y72088260D01*
X-12025872Y72088260D01*
X-11880781Y72059400D01*
G37*
G36*
X-16880781Y72059400D02*
G01*
X-16744108Y72002788D01*
X-16621105Y71920600D01*
X-16516500Y71815995D01*
X-16434312Y71692992D01*
X-16377700Y71556319D01*
X-16348840Y71411227D01*
X-16348840Y71263293D01*
X-16377700Y71118201D01*
X-16434312Y70981528D01*
X-16516500Y70858525D01*
X-16621105Y70753920D01*
X-16744108Y70671732D01*
X-16744109Y70671731D01*
X-16744110Y70671731D01*
X-16880781Y70615120D01*
X-17025872Y70586260D01*
X-17173808Y70586260D01*
X-17318899Y70615120D01*
X-17455570Y70671731D01*
X-17455571Y70671731D01*
X-17455572Y70671732D01*
X-17578575Y70753920D01*
X-17683180Y70858525D01*
X-17765368Y70981528D01*
X-17821980Y71118201D01*
X-17850840Y71263293D01*
X-17850840Y71411227D01*
X-17821980Y71556319D01*
X-17765368Y71692992D01*
X-17683180Y71815995D01*
X-17578575Y71920600D01*
X-17455572Y72002788D01*
X-17318899Y72059400D01*
X-17173808Y72088260D01*
X-17025872Y72088260D01*
X-16880781Y72059400D01*
G37*
G36*
X-14380781Y72059400D02*
G01*
X-14244108Y72002788D01*
X-14121105Y71920600D01*
X-14016500Y71815995D01*
X-13934312Y71692992D01*
X-13877700Y71556319D01*
X-13848840Y71411227D01*
X-13848840Y71263293D01*
X-13877700Y71118201D01*
X-13934312Y70981528D01*
X-14016500Y70858525D01*
X-14121105Y70753920D01*
X-14244108Y70671732D01*
X-14244109Y70671731D01*
X-14244110Y70671731D01*
X-14380781Y70615120D01*
X-14525872Y70586260D01*
X-14673808Y70586260D01*
X-14818899Y70615120D01*
X-14955570Y70671731D01*
X-14955571Y70671731D01*
X-14955572Y70671732D01*
X-15078575Y70753920D01*
X-15183180Y70858525D01*
X-15265368Y70981528D01*
X-15321980Y71118201D01*
X-15350840Y71263293D01*
X-15350840Y71411227D01*
X-15321980Y71556319D01*
X-15265368Y71692992D01*
X-15183180Y71815995D01*
X-15078575Y71920600D01*
X-14955572Y72002788D01*
X-14818899Y72059400D01*
X-14673808Y72088260D01*
X-14525872Y72088260D01*
X-14380781Y72059400D01*
G37*
G36*
X-19380781Y72059400D02*
G01*
X-19244108Y72002788D01*
X-19121105Y71920600D01*
X-19016500Y71815995D01*
X-18934312Y71692992D01*
X-18877700Y71556319D01*
X-18848840Y71411227D01*
X-18848840Y71263293D01*
X-18877700Y71118201D01*
X-18934312Y70981528D01*
X-19016500Y70858525D01*
X-19121105Y70753920D01*
X-19244108Y70671732D01*
X-19244109Y70671731D01*
X-19244110Y70671731D01*
X-19380781Y70615120D01*
X-19525872Y70586260D01*
X-19673808Y70586260D01*
X-19818899Y70615120D01*
X-19955570Y70671731D01*
X-19955571Y70671731D01*
X-19955572Y70671732D01*
X-20078575Y70753920D01*
X-20183180Y70858525D01*
X-20265368Y70981528D01*
X-20321980Y71118201D01*
X-20350840Y71263293D01*
X-20350840Y71411227D01*
X-20321980Y71556319D01*
X-20265368Y71692992D01*
X-20183180Y71815995D01*
X-20078575Y71920600D01*
X-19955572Y72002788D01*
X-19818899Y72059400D01*
X-19673808Y72088260D01*
X-19525872Y72088260D01*
X-19380781Y72059400D01*
G37*
G36*
X-21880781Y72059400D02*
G01*
X-21744108Y72002788D01*
X-21621105Y71920600D01*
X-21516500Y71815995D01*
X-21434312Y71692992D01*
X-21377700Y71556319D01*
X-21348840Y71411227D01*
X-21348840Y71263293D01*
X-21377700Y71118201D01*
X-21434312Y70981528D01*
X-21516500Y70858525D01*
X-21621105Y70753920D01*
X-21744108Y70671732D01*
X-21744109Y70671731D01*
X-21744110Y70671731D01*
X-21880781Y70615120D01*
X-22025872Y70586260D01*
X-22173808Y70586260D01*
X-22318899Y70615120D01*
X-22455570Y70671731D01*
X-22455571Y70671731D01*
X-22455572Y70671732D01*
X-22578575Y70753920D01*
X-22683180Y70858525D01*
X-22765368Y70981528D01*
X-22821980Y71118201D01*
X-22850840Y71263293D01*
X-22850840Y71411227D01*
X-22821980Y71556319D01*
X-22765368Y71692992D01*
X-22683180Y71815995D01*
X-22578575Y71920600D01*
X-22455572Y72002788D01*
X-22318899Y72059400D01*
X-22173808Y72088260D01*
X-22025872Y72088260D01*
X-21880781Y72059400D01*
G37*
G36*
X4933960Y70592040D02*
G01*
X3561960Y70592040D01*
X3561960Y73234040D01*
X4933960Y73234040D01*
X4933960Y70592040D01*
G37*
G36*
X7933960Y70592040D02*
G01*
X6561960Y70592040D01*
X6561960Y73234040D01*
X7933960Y73234040D01*
X7933960Y70592040D01*
G37*
G36*
X-16880781Y75059400D02*
G01*
X-16744108Y75002788D01*
X-16621105Y74920600D01*
X-16516500Y74815995D01*
X-16434312Y74692992D01*
X-16377700Y74556319D01*
X-16348840Y74411227D01*
X-16348840Y74263293D01*
X-16377700Y74118201D01*
X-16434312Y73981528D01*
X-16516500Y73858525D01*
X-16621105Y73753920D01*
X-16744108Y73671732D01*
X-16744109Y73671731D01*
X-16744110Y73671731D01*
X-16880781Y73615120D01*
X-17025872Y73586260D01*
X-17173808Y73586260D01*
X-17318899Y73615120D01*
X-17455570Y73671731D01*
X-17455571Y73671731D01*
X-17455572Y73671732D01*
X-17578575Y73753920D01*
X-17683180Y73858525D01*
X-17765368Y73981528D01*
X-17821980Y74118201D01*
X-17850840Y74263293D01*
X-17850840Y74411227D01*
X-17821980Y74556319D01*
X-17765368Y74692992D01*
X-17683180Y74815995D01*
X-17578575Y74920600D01*
X-17455572Y75002788D01*
X-17318899Y75059400D01*
X-17173808Y75088260D01*
X-17025872Y75088260D01*
X-16880781Y75059400D01*
G37*
G36*
X-19380781Y75059400D02*
G01*
X-19244108Y75002788D01*
X-19121105Y74920600D01*
X-19016500Y74815995D01*
X-18934312Y74692992D01*
X-18877700Y74556319D01*
X-18848840Y74411227D01*
X-18848840Y74263293D01*
X-18877700Y74118201D01*
X-18934312Y73981528D01*
X-19016500Y73858525D01*
X-19121105Y73753920D01*
X-19244108Y73671732D01*
X-19244109Y73671731D01*
X-19244110Y73671731D01*
X-19380781Y73615120D01*
X-19525872Y73586260D01*
X-19673808Y73586260D01*
X-19818899Y73615120D01*
X-19955570Y73671731D01*
X-19955571Y73671731D01*
X-19955572Y73671732D01*
X-20078575Y73753920D01*
X-20183180Y73858525D01*
X-20265368Y73981528D01*
X-20321980Y74118201D01*
X-20350840Y74263293D01*
X-20350840Y74411227D01*
X-20321980Y74556319D01*
X-20265368Y74692992D01*
X-20183180Y74815995D01*
X-20078575Y74920600D01*
X-19955572Y75002788D01*
X-19818899Y75059400D01*
X-19673808Y75088260D01*
X-19525872Y75088260D01*
X-19380781Y75059400D01*
G37*
G36*
X-21880781Y75059400D02*
G01*
X-21744108Y75002788D01*
X-21621105Y74920600D01*
X-21516500Y74815995D01*
X-21434312Y74692992D01*
X-21377700Y74556319D01*
X-21348840Y74411227D01*
X-21348840Y74263293D01*
X-21377700Y74118201D01*
X-21434312Y73981528D01*
X-21516500Y73858525D01*
X-21621105Y73753920D01*
X-21744108Y73671732D01*
X-21744109Y73671731D01*
X-21744110Y73671731D01*
X-21880781Y73615120D01*
X-22025872Y73586260D01*
X-22173808Y73586260D01*
X-22318899Y73615120D01*
X-22455570Y73671731D01*
X-22455571Y73671731D01*
X-22455572Y73671732D01*
X-22578575Y73753920D01*
X-22683180Y73858525D01*
X-22765368Y73981528D01*
X-22821980Y74118201D01*
X-22850840Y74263293D01*
X-22850840Y74411227D01*
X-22821980Y74556319D01*
X-22765368Y74692992D01*
X-22683180Y74815995D01*
X-22578575Y74920600D01*
X-22455572Y75002788D01*
X-22318899Y75059400D01*
X-22173808Y75088260D01*
X-22025872Y75088260D01*
X-21880781Y75059400D01*
G37*
G36*
X-9380781Y75059400D02*
G01*
X-9244108Y75002788D01*
X-9121105Y74920600D01*
X-9016500Y74815995D01*
X-8934312Y74692992D01*
X-8877700Y74556319D01*
X-8848840Y74411227D01*
X-8848840Y74263293D01*
X-8877700Y74118201D01*
X-8934312Y73981528D01*
X-9016500Y73858525D01*
X-9121105Y73753920D01*
X-9244108Y73671732D01*
X-9244109Y73671731D01*
X-9244110Y73671731D01*
X-9380781Y73615120D01*
X-9525872Y73586260D01*
X-9673808Y73586260D01*
X-9818899Y73615120D01*
X-9955570Y73671731D01*
X-9955571Y73671731D01*
X-9955572Y73671732D01*
X-10078575Y73753920D01*
X-10183180Y73858525D01*
X-10265368Y73981528D01*
X-10321980Y74118201D01*
X-10350840Y74263293D01*
X-10350840Y74411227D01*
X-10321980Y74556319D01*
X-10265368Y74692992D01*
X-10183180Y74815995D01*
X-10078575Y74920600D01*
X-9955572Y75002788D01*
X-9818899Y75059400D01*
X-9673808Y75088260D01*
X-9525872Y75088260D01*
X-9380781Y75059400D01*
G37*
G36*
X-11880781Y75059400D02*
G01*
X-11744108Y75002788D01*
X-11621105Y74920600D01*
X-11516500Y74815995D01*
X-11434312Y74692992D01*
X-11377700Y74556319D01*
X-11348840Y74411227D01*
X-11348840Y74263293D01*
X-11377700Y74118201D01*
X-11434312Y73981528D01*
X-11516500Y73858525D01*
X-11621105Y73753920D01*
X-11744108Y73671732D01*
X-11744109Y73671731D01*
X-11744110Y73671731D01*
X-11880781Y73615120D01*
X-12025872Y73586260D01*
X-12173808Y73586260D01*
X-12318899Y73615120D01*
X-12455570Y73671731D01*
X-12455571Y73671731D01*
X-12455572Y73671732D01*
X-12578575Y73753920D01*
X-12683180Y73858525D01*
X-12765368Y73981528D01*
X-12821980Y74118201D01*
X-12850840Y74263293D01*
X-12850840Y74411227D01*
X-12821980Y74556319D01*
X-12765368Y74692992D01*
X-12683180Y74815995D01*
X-12578575Y74920600D01*
X-12455572Y75002788D01*
X-12318899Y75059400D01*
X-12173808Y75088260D01*
X-12025872Y75088260D01*
X-11880781Y75059400D01*
G37*
G36*
X-14380781Y75059400D02*
G01*
X-14244108Y75002788D01*
X-14121105Y74920600D01*
X-14016500Y74815995D01*
X-13934312Y74692992D01*
X-13877700Y74556319D01*
X-13848840Y74411227D01*
X-13848840Y74263293D01*
X-13877700Y74118201D01*
X-13934312Y73981528D01*
X-14016500Y73858525D01*
X-14121105Y73753920D01*
X-14244108Y73671732D01*
X-14244109Y73671731D01*
X-14244110Y73671731D01*
X-14380781Y73615120D01*
X-14525872Y73586260D01*
X-14673808Y73586260D01*
X-14818899Y73615120D01*
X-14955570Y73671731D01*
X-14955571Y73671731D01*
X-14955572Y73671732D01*
X-15078575Y73753920D01*
X-15183180Y73858525D01*
X-15265368Y73981528D01*
X-15321980Y74118201D01*
X-15350840Y74263293D01*
X-15350840Y74411227D01*
X-15321980Y74556319D01*
X-15265368Y74692992D01*
X-15183180Y74815995D01*
X-15078575Y74920600D01*
X-14955572Y75002788D01*
X-14818899Y75059400D01*
X-14673808Y75088260D01*
X-14525872Y75088260D01*
X-14380781Y75059400D01*
G37*
G36*
X9700545Y76864238D02*
G01*
X9850370Y76834436D01*
X10132634Y76717519D01*
X10386665Y76547781D01*
X10602701Y76331745D01*
X10772439Y76077714D01*
X10889356Y75795450D01*
X10948960Y75495800D01*
X10948960Y75190280D01*
X10889356Y74890630D01*
X10772439Y74608366D01*
X10602701Y74354335D01*
X10386665Y74138299D01*
X10132634Y73968561D01*
X9850370Y73851644D01*
X9700545Y73821842D01*
X9550721Y73792040D01*
X9245199Y73792040D01*
X9095375Y73821842D01*
X8945550Y73851644D01*
X8663286Y73968561D01*
X8409255Y74138299D01*
X8193219Y74354335D01*
X8023481Y74608366D01*
X7906564Y74890630D01*
X7846960Y75190280D01*
X7846960Y75495800D01*
X7906564Y75795450D01*
X8023481Y76077714D01*
X8193219Y76331745D01*
X8409255Y76547781D01*
X8663286Y76717519D01*
X8945550Y76834436D01*
X9095375Y76864238D01*
X9245199Y76894040D01*
X9550721Y76894040D01*
X9700545Y76864238D01*
G37*
G36*
X2400545Y76864238D02*
G01*
X2550370Y76834436D01*
X2832634Y76717519D01*
X3086665Y76547781D01*
X3302701Y76331745D01*
X3472439Y76077714D01*
X3589356Y75795450D01*
X3648960Y75495800D01*
X3648960Y75190280D01*
X3589356Y74890630D01*
X3472439Y74608366D01*
X3302701Y74354335D01*
X3086665Y74138299D01*
X2832634Y73968561D01*
X2550370Y73851644D01*
X2400545Y73821842D01*
X2250721Y73792040D01*
X1945199Y73792040D01*
X1795375Y73821842D01*
X1645550Y73851644D01*
X1363286Y73968561D01*
X1109255Y74138299D01*
X893219Y74354335D01*
X723481Y74608366D01*
X606564Y74890630D01*
X546960Y75190280D01*
X546960Y75495800D01*
X606564Y75795450D01*
X723481Y76077714D01*
X893219Y76331745D01*
X1109255Y76547781D01*
X1363286Y76717519D01*
X1645550Y76834436D01*
X1795375Y76864238D01*
X1945199Y76894040D01*
X2250721Y76894040D01*
X2400545Y76864238D01*
G37*
G36*
X-16545339Y80985206D02*
G01*
X-16199379Y80841904D01*
X-15888023Y80633863D01*
X-15623237Y80369077D01*
X-15415196Y80057721D01*
X-15271894Y79711761D01*
X-15198840Y79344492D01*
X-15198840Y78970028D01*
X-15271894Y78602759D01*
X-15415196Y78256799D01*
X-15623237Y77945443D01*
X-15888023Y77680657D01*
X-16199379Y77472616D01*
X-16545339Y77329314D01*
X-16912607Y77256260D01*
X-17287073Y77256260D01*
X-17654341Y77329314D01*
X-18000301Y77472616D01*
X-18311657Y77680657D01*
X-18576443Y77945443D01*
X-18784484Y78256799D01*
X-18927786Y78602759D01*
X-19000840Y78970028D01*
X-19000840Y79344492D01*
X-18927786Y79711761D01*
X-18784484Y80057721D01*
X-18576443Y80369077D01*
X-18311657Y80633863D01*
X-18000301Y80841904D01*
X-17654341Y80985206D01*
X-17287073Y81058260D01*
X-16912607Y81058260D01*
X-16545339Y80985206D01*
G37*
G36*
X140744258Y92455227D02*
G01*
X141208510Y92262928D01*
X141208512Y92262927D01*
X141626328Y91983751D01*
X141981651Y91628428D01*
X142260827Y91210612D01*
X142260828Y91210610D01*
X142453127Y90746358D01*
X142551160Y90253513D01*
X142551160Y89751007D01*
X142453127Y89258162D01*
X142260828Y88793910D01*
X142260827Y88793908D01*
X141981651Y88376092D01*
X141626328Y88020769D01*
X141208512Y87741593D01*
X141208511Y87741592D01*
X141208510Y87741592D01*
X140744258Y87549293D01*
X140251413Y87451260D01*
X139748907Y87451260D01*
X139256062Y87549293D01*
X138791810Y87741592D01*
X138791809Y87741592D01*
X138791808Y87741593D01*
X138373992Y88020769D01*
X138018669Y88376092D01*
X137739493Y88793908D01*
X137739492Y88793910D01*
X137547193Y89258162D01*
X137449160Y89751007D01*
X137449160Y90253513D01*
X137547193Y90746358D01*
X137739492Y91210610D01*
X137739493Y91210612D01*
X138018669Y91628428D01*
X138373992Y91983751D01*
X138791808Y92262927D01*
X138791810Y92262928D01*
X139256062Y92455227D01*
X139748907Y92553260D01*
X140251413Y92553260D01*
X140744258Y92455227D01*
G37*
G36*
X744258Y92455227D02*
G01*
X1208510Y92262928D01*
X1208512Y92262927D01*
X1626328Y91983751D01*
X1981651Y91628428D01*
X2260827Y91210612D01*
X2260828Y91210610D01*
X2453127Y90746358D01*
X2551160Y90253513D01*
X2551160Y89751007D01*
X2453127Y89258162D01*
X2260828Y88793910D01*
X2260827Y88793908D01*
X1981651Y88376092D01*
X1626328Y88020769D01*
X1208512Y87741593D01*
X1208511Y87741592D01*
X1208510Y87741592D01*
X744258Y87549293D01*
X251413Y87451260D01*
X-251093Y87451260D01*
X-743938Y87549293D01*
X-1208190Y87741592D01*
X-1208191Y87741592D01*
X-1208192Y87741593D01*
X-1626008Y88020769D01*
X-1981331Y88376092D01*
X-2260507Y88793908D01*
X-2260508Y88793910D01*
X-2452807Y89258162D01*
X-2550840Y89751007D01*
X-2550840Y90253513D01*
X-2452807Y90746358D01*
X-2260508Y91210610D01*
X-2260507Y91210612D01*
X-1981331Y91628428D01*
X-1626008Y91983751D01*
X-1208192Y92262927D01*
X-1208190Y92262928D01*
X-743938Y92455227D01*
X-251093Y92553260D01*
X251413Y92553260D01*
X744258Y92455227D01*
G37*
M02*
