G04 #@! TF.GenerationSoftware,KiCad,Pcbnew,(5.1.6)-1*
G04 #@! TF.CreationDate,2021-03-03T14:17:43+01:00*
G04 #@! TF.ProjectId,Busbar board,42757362-6172-4206-926f-6172642e6b69,rev?*
G04 #@! TF.SameCoordinates,PX4c4b360PY85843d4*
G04 #@! TF.FileFunction,Other,Fab,Top*
%FSLAX46Y46*%
G04 Gerber Fmt 4.6, Leading zero omitted, Abs format (unit mm)*
G04 Created by KiCad (PCBNEW (5.1.6)-1) date 2021-03-03 14:17:43*
%MOMM*%
%LPD*%
G01*
G04 APERTURE LIST*
%ADD10C,0.150000*%
G04 APERTURE END LIST*
D10*
X91087694Y67801308D02*
X92087694Y67801308D01*
X91135313Y67801308D02*
X91087694Y67896546D01*
X91087694Y68087022D01*
X91135313Y68182260D01*
X91182932Y68229880D01*
X91278170Y68277499D01*
X91563884Y68277499D01*
X91659122Y68229880D01*
X91706741Y68182260D01*
X91754360Y68087022D01*
X91754360Y67896546D01*
X91706741Y67801308D01*
X91754360Y69134641D02*
X91230551Y69134641D01*
X91135313Y69087022D01*
X91087694Y68991784D01*
X91087694Y68801308D01*
X91135313Y68706070D01*
X91706741Y69134641D02*
X91754360Y69039403D01*
X91754360Y68801308D01*
X91706741Y68706070D01*
X91611503Y68658451D01*
X91516265Y68658451D01*
X91421027Y68706070D01*
X91373408Y68801308D01*
X91373408Y69039403D01*
X91325789Y69134641D01*
X91754360Y70039403D02*
X90754360Y70039403D01*
X91706741Y70039403D02*
X91754360Y69944165D01*
X91754360Y69753689D01*
X91706741Y69658451D01*
X91659122Y69610832D01*
X91563884Y69563213D01*
X91278170Y69563213D01*
X91182932Y69610832D01*
X91135313Y69658451D01*
X91087694Y69753689D01*
X91087694Y69944165D01*
X91135313Y70039403D01*
X91754360Y71801308D02*
X91754360Y71229880D01*
X91754360Y71515594D02*
X90754360Y71515594D01*
X90897218Y71420356D01*
X90992456Y71325118D01*
X91040075Y71229880D01*
X90849599Y72182260D02*
X90801980Y72229880D01*
X90754360Y72325118D01*
X90754360Y72563213D01*
X90801980Y72658451D01*
X90849599Y72706070D01*
X90944837Y72753689D01*
X91040075Y72753689D01*
X91182932Y72706070D01*
X91754360Y72134641D01*
X91754360Y72753689D01*
X90754360Y73039403D02*
X91754360Y73372737D01*
X90754360Y73706070D01*
X91087694Y20158451D02*
X92087694Y20158451D01*
X91135313Y20158451D02*
X91087694Y20253689D01*
X91087694Y20444165D01*
X91135313Y20539403D01*
X91182932Y20587022D01*
X91278170Y20634641D01*
X91563884Y20634641D01*
X91659122Y20587022D01*
X91706741Y20539403D01*
X91754360Y20444165D01*
X91754360Y20253689D01*
X91706741Y20158451D01*
X91754360Y21491784D02*
X91230551Y21491784D01*
X91135313Y21444165D01*
X91087694Y21348927D01*
X91087694Y21158451D01*
X91135313Y21063213D01*
X91706741Y21491784D02*
X91754360Y21396546D01*
X91754360Y21158451D01*
X91706741Y21063213D01*
X91611503Y21015594D01*
X91516265Y21015594D01*
X91421027Y21063213D01*
X91373408Y21158451D01*
X91373408Y21396546D01*
X91325789Y21491784D01*
X91754360Y22396546D02*
X90754360Y22396546D01*
X91706741Y22396546D02*
X91754360Y22301308D01*
X91754360Y22110832D01*
X91706741Y22015594D01*
X91659122Y21967975D01*
X91563884Y21920356D01*
X91278170Y21920356D01*
X91182932Y21967975D01*
X91135313Y22015594D01*
X91087694Y22110832D01*
X91087694Y22301308D01*
X91135313Y22396546D01*
X90801980Y24158451D02*
X90754360Y24063213D01*
X90754360Y23920356D01*
X90801980Y23777499D01*
X90897218Y23682260D01*
X90992456Y23634641D01*
X91182932Y23587022D01*
X91325789Y23587022D01*
X91516265Y23634641D01*
X91611503Y23682260D01*
X91706741Y23777499D01*
X91754360Y23920356D01*
X91754360Y24015594D01*
X91706741Y24158451D01*
X91659122Y24206070D01*
X91325789Y24206070D01*
X91325789Y24015594D01*
X91754360Y24634641D02*
X90754360Y24634641D01*
X91754360Y25206070D01*
X90754360Y25206070D01*
X91754360Y25682260D02*
X90754360Y25682260D01*
X90754360Y25920356D01*
X90801980Y26063213D01*
X90897218Y26158451D01*
X90992456Y26206070D01*
X91182932Y26253689D01*
X91325789Y26253689D01*
X91516265Y26206070D01*
X91611503Y26158451D01*
X91706741Y26063213D01*
X91754360Y25920356D01*
X91754360Y25682260D01*
X136381112Y-3476311D02*
X136047779Y-3476311D01*
X136047779Y-4000120D02*
X136047779Y-3000120D01*
X136523969Y-3000120D01*
X136904921Y-4000120D02*
X136904921Y-3333454D01*
X136904921Y-3000120D02*
X136857302Y-3047740D01*
X136904921Y-3095359D01*
X136952540Y-3047740D01*
X136904921Y-3000120D01*
X136904921Y-3095359D01*
X137285874Y-4000120D02*
X137809683Y-3333454D01*
X137285874Y-3333454D02*
X137809683Y-4000120D01*
X138190636Y-4000120D02*
X138190636Y-3333454D01*
X138190636Y-3000120D02*
X138143017Y-3047740D01*
X138190636Y-3095359D01*
X138238255Y-3047740D01*
X138190636Y-3000120D01*
X138190636Y-3095359D01*
X138666826Y-3333454D02*
X138666826Y-4000120D01*
X138666826Y-3428692D02*
X138714445Y-3381073D01*
X138809683Y-3333454D01*
X138952540Y-3333454D01*
X139047779Y-3381073D01*
X139095398Y-3476311D01*
X139095398Y-4000120D01*
X140000160Y-3333454D02*
X140000160Y-4142978D01*
X139952540Y-4238216D01*
X139904921Y-4285835D01*
X139809683Y-4333454D01*
X139666826Y-4333454D01*
X139571588Y-4285835D01*
X140000160Y-3952501D02*
X139904921Y-4000120D01*
X139714445Y-4000120D01*
X139619207Y-3952501D01*
X139571588Y-3904882D01*
X139523969Y-3809644D01*
X139523969Y-3523930D01*
X139571588Y-3428692D01*
X139619207Y-3381073D01*
X139714445Y-3333454D01*
X139904921Y-3333454D01*
X140000160Y-3381073D01*
X141238255Y-4000120D02*
X141238255Y-3000120D01*
X141666826Y-4000120D02*
X141666826Y-3476311D01*
X141619207Y-3381073D01*
X141523969Y-3333454D01*
X141381112Y-3333454D01*
X141285874Y-3381073D01*
X141238255Y-3428692D01*
X142285874Y-4000120D02*
X142190636Y-3952501D01*
X142143017Y-3904882D01*
X142095398Y-3809644D01*
X142095398Y-3523930D01*
X142143017Y-3428692D01*
X142190636Y-3381073D01*
X142285874Y-3333454D01*
X142428731Y-3333454D01*
X142523969Y-3381073D01*
X142571588Y-3428692D01*
X142619207Y-3523930D01*
X142619207Y-3809644D01*
X142571588Y-3904882D01*
X142523969Y-3952501D01*
X142428731Y-4000120D01*
X142285874Y-4000120D01*
X143190636Y-4000120D02*
X143095398Y-3952501D01*
X143047779Y-3857263D01*
X143047779Y-3000120D01*
X143952540Y-3952501D02*
X143857302Y-4000120D01*
X143666826Y-4000120D01*
X143571588Y-3952501D01*
X143523969Y-3857263D01*
X143523969Y-3476311D01*
X143571588Y-3381073D01*
X143666826Y-3333454D01*
X143857302Y-3333454D01*
X143952540Y-3381073D01*
X144000160Y-3476311D01*
X144000160Y-3571549D01*
X143523969Y-3666787D01*
X139095398Y4099880D02*
X139333493Y3099880D01*
X139523969Y3814165D01*
X139714445Y3099880D01*
X139952540Y4099880D01*
X140857302Y3099880D02*
X140285874Y3099880D01*
X140571588Y3099880D02*
X140571588Y4099880D01*
X140476350Y3957022D01*
X140381112Y3861784D01*
X140285874Y3814165D01*
X-3618888Y86523689D02*
X-3952221Y86523689D01*
X-3952221Y85999880D02*
X-3952221Y86999880D01*
X-3476031Y86999880D01*
X-3095079Y85999880D02*
X-3095079Y86666546D01*
X-3095079Y86999880D02*
X-3142698Y86952260D01*
X-3095079Y86904641D01*
X-3047460Y86952260D01*
X-3095079Y86999880D01*
X-3095079Y86904641D01*
X-2714126Y85999880D02*
X-2190317Y86666546D01*
X-2714126Y86666546D02*
X-2190317Y85999880D01*
X-1809364Y85999880D02*
X-1809364Y86666546D01*
X-1809364Y86999880D02*
X-1856983Y86952260D01*
X-1809364Y86904641D01*
X-1761745Y86952260D01*
X-1809364Y86999880D01*
X-1809364Y86904641D01*
X-1333174Y86666546D02*
X-1333174Y85999880D01*
X-1333174Y86571308D02*
X-1285555Y86618927D01*
X-1190317Y86666546D01*
X-1047460Y86666546D01*
X-952221Y86618927D01*
X-904602Y86523689D01*
X-904602Y85999880D01*
X160Y86666546D02*
X160Y85857022D01*
X-47460Y85761784D01*
X-95079Y85714165D01*
X-190317Y85666546D01*
X-333174Y85666546D01*
X-428412Y85714165D01*
X160Y86047499D02*
X-95079Y85999880D01*
X-285555Y85999880D01*
X-380793Y86047499D01*
X-428412Y86095118D01*
X-476031Y86190356D01*
X-476031Y86476070D01*
X-428412Y86571308D01*
X-380793Y86618927D01*
X-285555Y86666546D01*
X-95079Y86666546D01*
X160Y86618927D01*
X1238255Y85999880D02*
X1238255Y86999880D01*
X1666826Y85999880D02*
X1666826Y86523689D01*
X1619207Y86618927D01*
X1523969Y86666546D01*
X1381112Y86666546D01*
X1285874Y86618927D01*
X1238255Y86571308D01*
X2285874Y85999880D02*
X2190636Y86047499D01*
X2143017Y86095118D01*
X2095398Y86190356D01*
X2095398Y86476070D01*
X2143017Y86571308D01*
X2190636Y86618927D01*
X2285874Y86666546D01*
X2428731Y86666546D01*
X2523969Y86618927D01*
X2571588Y86571308D01*
X2619207Y86476070D01*
X2619207Y86190356D01*
X2571588Y86095118D01*
X2523969Y86047499D01*
X2428731Y85999880D01*
X2285874Y85999880D01*
X3190636Y85999880D02*
X3095398Y86047499D01*
X3047779Y86142737D01*
X3047779Y86999880D01*
X3952540Y86047499D02*
X3857302Y85999880D01*
X3666826Y85999880D01*
X3571588Y86047499D01*
X3523969Y86142737D01*
X3523969Y86523689D01*
X3571588Y86618927D01*
X3666826Y86666546D01*
X3857302Y86666546D01*
X3952540Y86618927D01*
X4000160Y86523689D01*
X4000160Y86428451D01*
X3523969Y86333213D01*
X-904602Y94099880D02*
X-666507Y93099880D01*
X-476031Y93814165D01*
X-285555Y93099880D01*
X-47460Y94099880D01*
X285874Y94004641D02*
X333493Y94052260D01*
X428731Y94099880D01*
X666826Y94099880D01*
X762064Y94052260D01*
X809683Y94004641D01*
X857302Y93909403D01*
X857302Y93814165D01*
X809683Y93671308D01*
X238255Y93099880D01*
X857302Y93099880D01*
X136381112Y86523689D02*
X136047779Y86523689D01*
X136047779Y85999880D02*
X136047779Y86999880D01*
X136523969Y86999880D01*
X136904921Y85999880D02*
X136904921Y86666546D01*
X136904921Y86999880D02*
X136857302Y86952260D01*
X136904921Y86904641D01*
X136952540Y86952260D01*
X136904921Y86999880D01*
X136904921Y86904641D01*
X137285874Y85999880D02*
X137809683Y86666546D01*
X137285874Y86666546D02*
X137809683Y85999880D01*
X138190636Y85999880D02*
X138190636Y86666546D01*
X138190636Y86999880D02*
X138143017Y86952260D01*
X138190636Y86904641D01*
X138238255Y86952260D01*
X138190636Y86999880D01*
X138190636Y86904641D01*
X138666826Y86666546D02*
X138666826Y85999880D01*
X138666826Y86571308D02*
X138714445Y86618927D01*
X138809683Y86666546D01*
X138952540Y86666546D01*
X139047779Y86618927D01*
X139095398Y86523689D01*
X139095398Y85999880D01*
X140000160Y86666546D02*
X140000160Y85857022D01*
X139952540Y85761784D01*
X139904921Y85714165D01*
X139809683Y85666546D01*
X139666826Y85666546D01*
X139571588Y85714165D01*
X140000160Y86047499D02*
X139904921Y85999880D01*
X139714445Y85999880D01*
X139619207Y86047499D01*
X139571588Y86095118D01*
X139523969Y86190356D01*
X139523969Y86476070D01*
X139571588Y86571308D01*
X139619207Y86618927D01*
X139714445Y86666546D01*
X139904921Y86666546D01*
X140000160Y86618927D01*
X141238255Y85999880D02*
X141238255Y86999880D01*
X141666826Y85999880D02*
X141666826Y86523689D01*
X141619207Y86618927D01*
X141523969Y86666546D01*
X141381112Y86666546D01*
X141285874Y86618927D01*
X141238255Y86571308D01*
X142285874Y85999880D02*
X142190636Y86047499D01*
X142143017Y86095118D01*
X142095398Y86190356D01*
X142095398Y86476070D01*
X142143017Y86571308D01*
X142190636Y86618927D01*
X142285874Y86666546D01*
X142428731Y86666546D01*
X142523969Y86618927D01*
X142571588Y86571308D01*
X142619207Y86476070D01*
X142619207Y86190356D01*
X142571588Y86095118D01*
X142523969Y86047499D01*
X142428731Y85999880D01*
X142285874Y85999880D01*
X143190636Y85999880D02*
X143095398Y86047499D01*
X143047779Y86142737D01*
X143047779Y86999880D01*
X143952540Y86047499D02*
X143857302Y85999880D01*
X143666826Y85999880D01*
X143571588Y86047499D01*
X143523969Y86142737D01*
X143523969Y86523689D01*
X143571588Y86618927D01*
X143666826Y86666546D01*
X143857302Y86666546D01*
X143952540Y86618927D01*
X144000160Y86523689D01*
X144000160Y86428451D01*
X143523969Y86333213D01*
X139095398Y94099880D02*
X139333493Y93099880D01*
X139523969Y93814165D01*
X139714445Y93099880D01*
X139952540Y94099880D01*
X140238255Y94099880D02*
X140857302Y94099880D01*
X140523969Y93718927D01*
X140666826Y93718927D01*
X140762064Y93671308D01*
X140809683Y93623689D01*
X140857302Y93528451D01*
X140857302Y93290356D01*
X140809683Y93195118D01*
X140762064Y93147499D01*
X140666826Y93099880D01*
X140381112Y93099880D01*
X140285874Y93147499D01*
X140238255Y93195118D01*
X-3618888Y-3476311D02*
X-3952221Y-3476311D01*
X-3952221Y-4000120D02*
X-3952221Y-3000120D01*
X-3476031Y-3000120D01*
X-3095079Y-4000120D02*
X-3095079Y-3333454D01*
X-3095079Y-3000120D02*
X-3142698Y-3047740D01*
X-3095079Y-3095359D01*
X-3047460Y-3047740D01*
X-3095079Y-3000120D01*
X-3095079Y-3095359D01*
X-2714126Y-4000120D02*
X-2190317Y-3333454D01*
X-2714126Y-3333454D02*
X-2190317Y-4000120D01*
X-1809364Y-4000120D02*
X-1809364Y-3333454D01*
X-1809364Y-3000120D02*
X-1856983Y-3047740D01*
X-1809364Y-3095359D01*
X-1761745Y-3047740D01*
X-1809364Y-3000120D01*
X-1809364Y-3095359D01*
X-1333174Y-3333454D02*
X-1333174Y-4000120D01*
X-1333174Y-3428692D02*
X-1285555Y-3381073D01*
X-1190317Y-3333454D01*
X-1047460Y-3333454D01*
X-952221Y-3381073D01*
X-904602Y-3476311D01*
X-904602Y-4000120D01*
X160Y-3333454D02*
X160Y-4142978D01*
X-47460Y-4238216D01*
X-95079Y-4285835D01*
X-190317Y-4333454D01*
X-333174Y-4333454D01*
X-428412Y-4285835D01*
X160Y-3952501D02*
X-95079Y-4000120D01*
X-285555Y-4000120D01*
X-380793Y-3952501D01*
X-428412Y-3904882D01*
X-476031Y-3809644D01*
X-476031Y-3523930D01*
X-428412Y-3428692D01*
X-380793Y-3381073D01*
X-285555Y-3333454D01*
X-95079Y-3333454D01*
X160Y-3381073D01*
X1238255Y-4000120D02*
X1238255Y-3000120D01*
X1666826Y-4000120D02*
X1666826Y-3476311D01*
X1619207Y-3381073D01*
X1523969Y-3333454D01*
X1381112Y-3333454D01*
X1285874Y-3381073D01*
X1238255Y-3428692D01*
X2285874Y-4000120D02*
X2190636Y-3952501D01*
X2143017Y-3904882D01*
X2095398Y-3809644D01*
X2095398Y-3523930D01*
X2143017Y-3428692D01*
X2190636Y-3381073D01*
X2285874Y-3333454D01*
X2428731Y-3333454D01*
X2523969Y-3381073D01*
X2571588Y-3428692D01*
X2619207Y-3523930D01*
X2619207Y-3809644D01*
X2571588Y-3904882D01*
X2523969Y-3952501D01*
X2428731Y-4000120D01*
X2285874Y-4000120D01*
X3190636Y-4000120D02*
X3095398Y-3952501D01*
X3047779Y-3857263D01*
X3047779Y-3000120D01*
X3952540Y-3952501D02*
X3857302Y-4000120D01*
X3666826Y-4000120D01*
X3571588Y-3952501D01*
X3523969Y-3857263D01*
X3523969Y-3476311D01*
X3571588Y-3381073D01*
X3666826Y-3333454D01*
X3857302Y-3333454D01*
X3952540Y-3381073D01*
X4000160Y-3476311D01*
X4000160Y-3571549D01*
X3523969Y-3666787D01*
X-904602Y4099880D02*
X-666507Y3099880D01*
X-476031Y3814165D01*
X-285555Y3099880D01*
X-47460Y4099880D01*
X762064Y3766546D02*
X762064Y3099880D01*
X523969Y4147499D02*
X285874Y3433213D01*
X904921Y3433213D01*
X76103422Y68585336D02*
X76151041Y68537717D01*
X76198660Y68394860D01*
X76198660Y68299621D01*
X76151041Y68156764D01*
X76055803Y68061526D01*
X75960565Y68013907D01*
X75770089Y67966288D01*
X75627232Y67966288D01*
X75436756Y68013907D01*
X75341518Y68061526D01*
X75246280Y68156764D01*
X75198660Y68299621D01*
X75198660Y68394860D01*
X75246280Y68537717D01*
X75293899Y68585336D01*
X76198660Y69442479D02*
X75674851Y69442479D01*
X75579613Y69394860D01*
X75531994Y69299621D01*
X75531994Y69109145D01*
X75579613Y69013907D01*
X76151041Y69442479D02*
X76198660Y69347240D01*
X76198660Y69109145D01*
X76151041Y69013907D01*
X76055803Y68966288D01*
X75960565Y68966288D01*
X75865327Y69013907D01*
X75817708Y69109145D01*
X75817708Y69347240D01*
X75770089Y69442479D01*
X76198660Y69918669D02*
X75198660Y69918669D01*
X75579613Y69918669D02*
X75531994Y70013907D01*
X75531994Y70204383D01*
X75579613Y70299621D01*
X75627232Y70347240D01*
X75722470Y70394860D01*
X76008184Y70394860D01*
X76103422Y70347240D01*
X76151041Y70299621D01*
X76198660Y70204383D01*
X76198660Y70013907D01*
X76151041Y69918669D01*
X76198660Y70966288D02*
X76151041Y70871050D01*
X76055803Y70823431D01*
X75198660Y70823431D01*
X76151041Y71728193D02*
X76198660Y71632955D01*
X76198660Y71442479D01*
X76151041Y71347240D01*
X76055803Y71299621D01*
X75674851Y71299621D01*
X75579613Y71347240D01*
X75531994Y71442479D01*
X75531994Y71632955D01*
X75579613Y71728193D01*
X75674851Y71775812D01*
X75770089Y71775812D01*
X75865327Y71299621D01*
X76198660Y72966288D02*
X75198660Y72966288D01*
X76198660Y73394860D02*
X75674851Y73394860D01*
X75579613Y73347240D01*
X75531994Y73252002D01*
X75531994Y73109145D01*
X75579613Y73013907D01*
X75627232Y72966288D01*
X76198660Y74013907D02*
X76151041Y73918669D01*
X76103422Y73871050D01*
X76008184Y73823431D01*
X75722470Y73823431D01*
X75627232Y73871050D01*
X75579613Y73918669D01*
X75531994Y74013907D01*
X75531994Y74156764D01*
X75579613Y74252002D01*
X75627232Y74299621D01*
X75722470Y74347240D01*
X76008184Y74347240D01*
X76103422Y74299621D01*
X76151041Y74252002D01*
X76198660Y74156764D01*
X76198660Y74013907D01*
X76198660Y74918669D02*
X76151041Y74823431D01*
X76055803Y74775812D01*
X75198660Y74775812D01*
X76151041Y75680574D02*
X76198660Y75585336D01*
X76198660Y75394860D01*
X76151041Y75299621D01*
X76055803Y75252002D01*
X75674851Y75252002D01*
X75579613Y75299621D01*
X75531994Y75394860D01*
X75531994Y75585336D01*
X75579613Y75680574D01*
X75674851Y75728193D01*
X75770089Y75728193D01*
X75865327Y75252002D01*
X116103422Y68585336D02*
X116151041Y68537717D01*
X116198660Y68394860D01*
X116198660Y68299621D01*
X116151041Y68156764D01*
X116055803Y68061526D01*
X115960565Y68013907D01*
X115770089Y67966288D01*
X115627232Y67966288D01*
X115436756Y68013907D01*
X115341518Y68061526D01*
X115246280Y68156764D01*
X115198660Y68299621D01*
X115198660Y68394860D01*
X115246280Y68537717D01*
X115293899Y68585336D01*
X116198660Y69442479D02*
X115674851Y69442479D01*
X115579613Y69394860D01*
X115531994Y69299621D01*
X115531994Y69109145D01*
X115579613Y69013907D01*
X116151041Y69442479D02*
X116198660Y69347240D01*
X116198660Y69109145D01*
X116151041Y69013907D01*
X116055803Y68966288D01*
X115960565Y68966288D01*
X115865327Y69013907D01*
X115817708Y69109145D01*
X115817708Y69347240D01*
X115770089Y69442479D01*
X116198660Y69918669D02*
X115198660Y69918669D01*
X115579613Y69918669D02*
X115531994Y70013907D01*
X115531994Y70204383D01*
X115579613Y70299621D01*
X115627232Y70347240D01*
X115722470Y70394860D01*
X116008184Y70394860D01*
X116103422Y70347240D01*
X116151041Y70299621D01*
X116198660Y70204383D01*
X116198660Y70013907D01*
X116151041Y69918669D01*
X116198660Y70966288D02*
X116151041Y70871050D01*
X116055803Y70823431D01*
X115198660Y70823431D01*
X116151041Y71728193D02*
X116198660Y71632955D01*
X116198660Y71442479D01*
X116151041Y71347240D01*
X116055803Y71299621D01*
X115674851Y71299621D01*
X115579613Y71347240D01*
X115531994Y71442479D01*
X115531994Y71632955D01*
X115579613Y71728193D01*
X115674851Y71775812D01*
X115770089Y71775812D01*
X115865327Y71299621D01*
X116198660Y72966288D02*
X115198660Y72966288D01*
X116198660Y73394860D02*
X115674851Y73394860D01*
X115579613Y73347240D01*
X115531994Y73252002D01*
X115531994Y73109145D01*
X115579613Y73013907D01*
X115627232Y72966288D01*
X116198660Y74013907D02*
X116151041Y73918669D01*
X116103422Y73871050D01*
X116008184Y73823431D01*
X115722470Y73823431D01*
X115627232Y73871050D01*
X115579613Y73918669D01*
X115531994Y74013907D01*
X115531994Y74156764D01*
X115579613Y74252002D01*
X115627232Y74299621D01*
X115722470Y74347240D01*
X116008184Y74347240D01*
X116103422Y74299621D01*
X116151041Y74252002D01*
X116198660Y74156764D01*
X116198660Y74013907D01*
X116198660Y74918669D02*
X116151041Y74823431D01*
X116055803Y74775812D01*
X115198660Y74775812D01*
X116151041Y75680574D02*
X116198660Y75585336D01*
X116198660Y75394860D01*
X116151041Y75299621D01*
X116055803Y75252002D01*
X115674851Y75252002D01*
X115579613Y75299621D01*
X115531994Y75394860D01*
X115531994Y75585336D01*
X115579613Y75680574D01*
X115674851Y75728193D01*
X115770089Y75728193D01*
X115865327Y75252002D01*
X73603422Y21085336D02*
X73651041Y21037717D01*
X73698660Y20894860D01*
X73698660Y20799621D01*
X73651041Y20656764D01*
X73555803Y20561526D01*
X73460565Y20513907D01*
X73270089Y20466288D01*
X73127232Y20466288D01*
X72936756Y20513907D01*
X72841518Y20561526D01*
X72746280Y20656764D01*
X72698660Y20799621D01*
X72698660Y20894860D01*
X72746280Y21037717D01*
X72793899Y21085336D01*
X73698660Y21942479D02*
X73174851Y21942479D01*
X73079613Y21894860D01*
X73031994Y21799621D01*
X73031994Y21609145D01*
X73079613Y21513907D01*
X73651041Y21942479D02*
X73698660Y21847240D01*
X73698660Y21609145D01*
X73651041Y21513907D01*
X73555803Y21466288D01*
X73460565Y21466288D01*
X73365327Y21513907D01*
X73317708Y21609145D01*
X73317708Y21847240D01*
X73270089Y21942479D01*
X73698660Y22418669D02*
X72698660Y22418669D01*
X73079613Y22418669D02*
X73031994Y22513907D01*
X73031994Y22704383D01*
X73079613Y22799621D01*
X73127232Y22847240D01*
X73222470Y22894860D01*
X73508184Y22894860D01*
X73603422Y22847240D01*
X73651041Y22799621D01*
X73698660Y22704383D01*
X73698660Y22513907D01*
X73651041Y22418669D01*
X73698660Y23466288D02*
X73651041Y23371050D01*
X73555803Y23323431D01*
X72698660Y23323431D01*
X73651041Y24228193D02*
X73698660Y24132955D01*
X73698660Y23942479D01*
X73651041Y23847240D01*
X73555803Y23799621D01*
X73174851Y23799621D01*
X73079613Y23847240D01*
X73031994Y23942479D01*
X73031994Y24132955D01*
X73079613Y24228193D01*
X73174851Y24275812D01*
X73270089Y24275812D01*
X73365327Y23799621D01*
X73698660Y25466288D02*
X72698660Y25466288D01*
X73698660Y25894860D02*
X73174851Y25894860D01*
X73079613Y25847240D01*
X73031994Y25752002D01*
X73031994Y25609145D01*
X73079613Y25513907D01*
X73127232Y25466288D01*
X73698660Y26513907D02*
X73651041Y26418669D01*
X73603422Y26371050D01*
X73508184Y26323431D01*
X73222470Y26323431D01*
X73127232Y26371050D01*
X73079613Y26418669D01*
X73031994Y26513907D01*
X73031994Y26656764D01*
X73079613Y26752002D01*
X73127232Y26799621D01*
X73222470Y26847240D01*
X73508184Y26847240D01*
X73603422Y26799621D01*
X73651041Y26752002D01*
X73698660Y26656764D01*
X73698660Y26513907D01*
X73698660Y27418669D02*
X73651041Y27323431D01*
X73555803Y27275812D01*
X72698660Y27275812D01*
X73651041Y28180574D02*
X73698660Y28085336D01*
X73698660Y27894860D01*
X73651041Y27799621D01*
X73555803Y27752002D01*
X73174851Y27752002D01*
X73079613Y27799621D01*
X73031994Y27894860D01*
X73031994Y28085336D01*
X73079613Y28180574D01*
X73174851Y28228193D01*
X73270089Y28228193D01*
X73365327Y27752002D01*
X113603422Y21085336D02*
X113651041Y21037717D01*
X113698660Y20894860D01*
X113698660Y20799621D01*
X113651041Y20656764D01*
X113555803Y20561526D01*
X113460565Y20513907D01*
X113270089Y20466288D01*
X113127232Y20466288D01*
X112936756Y20513907D01*
X112841518Y20561526D01*
X112746280Y20656764D01*
X112698660Y20799621D01*
X112698660Y20894860D01*
X112746280Y21037717D01*
X112793899Y21085336D01*
X113698660Y21942479D02*
X113174851Y21942479D01*
X113079613Y21894860D01*
X113031994Y21799621D01*
X113031994Y21609145D01*
X113079613Y21513907D01*
X113651041Y21942479D02*
X113698660Y21847240D01*
X113698660Y21609145D01*
X113651041Y21513907D01*
X113555803Y21466288D01*
X113460565Y21466288D01*
X113365327Y21513907D01*
X113317708Y21609145D01*
X113317708Y21847240D01*
X113270089Y21942479D01*
X113698660Y22418669D02*
X112698660Y22418669D01*
X113079613Y22418669D02*
X113031994Y22513907D01*
X113031994Y22704383D01*
X113079613Y22799621D01*
X113127232Y22847240D01*
X113222470Y22894860D01*
X113508184Y22894860D01*
X113603422Y22847240D01*
X113651041Y22799621D01*
X113698660Y22704383D01*
X113698660Y22513907D01*
X113651041Y22418669D01*
X113698660Y23466288D02*
X113651041Y23371050D01*
X113555803Y23323431D01*
X112698660Y23323431D01*
X113651041Y24228193D02*
X113698660Y24132955D01*
X113698660Y23942479D01*
X113651041Y23847240D01*
X113555803Y23799621D01*
X113174851Y23799621D01*
X113079613Y23847240D01*
X113031994Y23942479D01*
X113031994Y24132955D01*
X113079613Y24228193D01*
X113174851Y24275812D01*
X113270089Y24275812D01*
X113365327Y23799621D01*
X113698660Y25466288D02*
X112698660Y25466288D01*
X113698660Y25894860D02*
X113174851Y25894860D01*
X113079613Y25847240D01*
X113031994Y25752002D01*
X113031994Y25609145D01*
X113079613Y25513907D01*
X113127232Y25466288D01*
X113698660Y26513907D02*
X113651041Y26418669D01*
X113603422Y26371050D01*
X113508184Y26323431D01*
X113222470Y26323431D01*
X113127232Y26371050D01*
X113079613Y26418669D01*
X113031994Y26513907D01*
X113031994Y26656764D01*
X113079613Y26752002D01*
X113127232Y26799621D01*
X113222470Y26847240D01*
X113508184Y26847240D01*
X113603422Y26799621D01*
X113651041Y26752002D01*
X113698660Y26656764D01*
X113698660Y26513907D01*
X113698660Y27418669D02*
X113651041Y27323431D01*
X113555803Y27275812D01*
X112698660Y27275812D01*
X113651041Y28180574D02*
X113698660Y28085336D01*
X113698660Y27894860D01*
X113651041Y27799621D01*
X113555803Y27752002D01*
X113174851Y27752002D01*
X113079613Y27799621D01*
X113031994Y27894860D01*
X113031994Y28085336D01*
X113079613Y28180574D01*
X113174851Y28228193D01*
X113270089Y28228193D01*
X113365327Y27752002D01*
X79439Y78319498D02*
X31820Y78271879D01*
X-111038Y78224260D01*
X-206276Y78224260D01*
X-349133Y78271879D01*
X-444371Y78367117D01*
X-491990Y78462355D01*
X-539609Y78652831D01*
X-539609Y78795688D01*
X-491990Y78986164D01*
X-444371Y79081402D01*
X-349133Y79176640D01*
X-206276Y79224260D01*
X-111038Y79224260D01*
X31820Y79176640D01*
X79439Y79129021D01*
X650867Y78224260D02*
X555629Y78271879D01*
X508010Y78319498D01*
X460391Y78414736D01*
X460391Y78700450D01*
X508010Y78795688D01*
X555629Y78843307D01*
X650867Y78890926D01*
X793724Y78890926D01*
X888962Y78843307D01*
X936581Y78795688D01*
X984200Y78700450D01*
X984200Y78414736D01*
X936581Y78319498D01*
X888962Y78271879D01*
X793724Y78224260D01*
X650867Y78224260D01*
X1412772Y78890926D02*
X1412772Y78224260D01*
X1412772Y78795688D02*
X1460391Y78843307D01*
X1555629Y78890926D01*
X1698486Y78890926D01*
X1793724Y78843307D01*
X1841343Y78748069D01*
X1841343Y78224260D01*
X2317534Y78890926D02*
X2317534Y78224260D01*
X2317534Y78795688D02*
X2365153Y78843307D01*
X2460391Y78890926D01*
X2603248Y78890926D01*
X2698486Y78843307D01*
X2746105Y78748069D01*
X2746105Y78224260D01*
X2984200Y78129021D02*
X3746105Y78129021D01*
X4174677Y79224260D02*
X4269915Y79224260D01*
X4365153Y79176640D01*
X4412772Y79129021D01*
X4460391Y79033783D01*
X4508010Y78843307D01*
X4508010Y78605212D01*
X4460391Y78414736D01*
X4412772Y78319498D01*
X4365153Y78271879D01*
X4269915Y78224260D01*
X4174677Y78224260D01*
X4079439Y78271879D01*
X4031820Y78319498D01*
X3984200Y78414736D01*
X3936581Y78605212D01*
X3936581Y78843307D01*
X3984200Y79033783D01*
X4031820Y79129021D01*
X4079439Y79176640D01*
X4174677Y79224260D01*
X5460391Y78224260D02*
X4888962Y78224260D01*
X5174677Y78224260D02*
X5174677Y79224260D01*
X5079439Y79081402D01*
X4984200Y78986164D01*
X4888962Y78938545D01*
X5793724Y78224260D02*
X6317534Y78890926D01*
X5793724Y78890926D02*
X6317534Y78224260D01*
X6888962Y79224260D02*
X6984200Y79224260D01*
X7079439Y79176640D01*
X7127058Y79129021D01*
X7174677Y79033783D01*
X7222296Y78843307D01*
X7222296Y78605212D01*
X7174677Y78414736D01*
X7127058Y78319498D01*
X7079439Y78271879D01*
X6984200Y78224260D01*
X6888962Y78224260D01*
X6793724Y78271879D01*
X6746105Y78319498D01*
X6698486Y78414736D01*
X6650867Y78605212D01*
X6650867Y78843307D01*
X6698486Y79033783D01*
X6746105Y79129021D01*
X6793724Y79176640D01*
X6888962Y79224260D01*
X7603248Y79129021D02*
X7650867Y79176640D01*
X7746105Y79224260D01*
X7984200Y79224260D01*
X8079439Y79176640D01*
X8127058Y79129021D01*
X8174677Y79033783D01*
X8174677Y78938545D01*
X8127058Y78795688D01*
X7555629Y78224260D01*
X8174677Y78224260D01*
X8365153Y78129021D02*
X9127058Y78129021D01*
X9317534Y78271879D02*
X9412772Y78224260D01*
X9603248Y78224260D01*
X9698486Y78271879D01*
X9746105Y78367117D01*
X9746105Y78414736D01*
X9698486Y78509974D01*
X9603248Y78557593D01*
X9460391Y78557593D01*
X9365153Y78605212D01*
X9317534Y78700450D01*
X9317534Y78748069D01*
X9365153Y78843307D01*
X9460391Y78890926D01*
X9603248Y78890926D01*
X9698486Y78843307D01*
X10079439Y78890926D02*
X10269915Y78224260D01*
X10460391Y78700450D01*
X10650867Y78224260D01*
X10841343Y78890926D01*
X11222296Y78224260D02*
X11222296Y78890926D01*
X11222296Y79224260D02*
X11174677Y79176640D01*
X11222296Y79129021D01*
X11269915Y79176640D01*
X11222296Y79224260D01*
X11222296Y79129021D01*
X11555629Y78890926D02*
X11936581Y78890926D01*
X11698486Y79224260D02*
X11698486Y78367117D01*
X11746105Y78271879D01*
X11841343Y78224260D01*
X11936581Y78224260D01*
X12698486Y78271879D02*
X12603248Y78224260D01*
X12412772Y78224260D01*
X12317534Y78271879D01*
X12269915Y78319498D01*
X12222296Y78414736D01*
X12222296Y78700450D01*
X12269915Y78795688D01*
X12317534Y78843307D01*
X12412772Y78890926D01*
X12603248Y78890926D01*
X12698486Y78843307D01*
X13127058Y78224260D02*
X13127058Y79224260D01*
X13555629Y78224260D02*
X13555629Y78748069D01*
X13508010Y78843307D01*
X13412772Y78890926D01*
X13269915Y78890926D01*
X13174677Y78843307D01*
X13127058Y78795688D01*
X12471542Y8490001D02*
X12519161Y8442382D01*
X12566780Y8299525D01*
X12566780Y8204287D01*
X12519161Y8061430D01*
X12423923Y7966192D01*
X12328685Y7918573D01*
X12138209Y7870954D01*
X11995352Y7870954D01*
X11804876Y7918573D01*
X11709638Y7966192D01*
X11614400Y8061430D01*
X11566780Y8204287D01*
X11566780Y8299525D01*
X11614400Y8442382D01*
X11662019Y8490001D01*
X12566780Y9061430D02*
X12519161Y8966192D01*
X12471542Y8918573D01*
X12376304Y8870954D01*
X12090590Y8870954D01*
X11995352Y8918573D01*
X11947733Y8966192D01*
X11900114Y9061430D01*
X11900114Y9204287D01*
X11947733Y9299525D01*
X11995352Y9347144D01*
X12090590Y9394763D01*
X12376304Y9394763D01*
X12471542Y9347144D01*
X12519161Y9299525D01*
X12566780Y9204287D01*
X12566780Y9061430D01*
X11900114Y9823335D02*
X12566780Y9823335D01*
X11995352Y9823335D02*
X11947733Y9870954D01*
X11900114Y9966192D01*
X11900114Y10109049D01*
X11947733Y10204287D01*
X12042971Y10251906D01*
X12566780Y10251906D01*
X11900114Y10728097D02*
X12566780Y10728097D01*
X11995352Y10728097D02*
X11947733Y10775716D01*
X11900114Y10870954D01*
X11900114Y11013811D01*
X11947733Y11109049D01*
X12042971Y11156668D01*
X12566780Y11156668D01*
X12662019Y11394763D02*
X12662019Y12156668D01*
X11566780Y12585240D02*
X11566780Y12680478D01*
X11614400Y12775716D01*
X11662019Y12823335D01*
X11757257Y12870954D01*
X11947733Y12918573D01*
X12185828Y12918573D01*
X12376304Y12870954D01*
X12471542Y12823335D01*
X12519161Y12775716D01*
X12566780Y12680478D01*
X12566780Y12585240D01*
X12519161Y12490001D01*
X12471542Y12442382D01*
X12376304Y12394763D01*
X12185828Y12347144D01*
X11947733Y12347144D01*
X11757257Y12394763D01*
X11662019Y12442382D01*
X11614400Y12490001D01*
X11566780Y12585240D01*
X12566780Y13870954D02*
X12566780Y13299525D01*
X12566780Y13585240D02*
X11566780Y13585240D01*
X11709638Y13490001D01*
X11804876Y13394763D01*
X11852495Y13299525D01*
X12566780Y14204287D02*
X11900114Y14728097D01*
X11900114Y14204287D02*
X12566780Y14728097D01*
X11566780Y15299525D02*
X11566780Y15394763D01*
X11614400Y15490001D01*
X11662019Y15537620D01*
X11757257Y15585240D01*
X11947733Y15632859D01*
X12185828Y15632859D01*
X12376304Y15585240D01*
X12471542Y15537620D01*
X12519161Y15490001D01*
X12566780Y15394763D01*
X12566780Y15299525D01*
X12519161Y15204287D01*
X12471542Y15156668D01*
X12376304Y15109049D01*
X12185828Y15061430D01*
X11947733Y15061430D01*
X11757257Y15109049D01*
X11662019Y15156668D01*
X11614400Y15204287D01*
X11566780Y15299525D01*
X11662019Y16013811D02*
X11614400Y16061430D01*
X11566780Y16156668D01*
X11566780Y16394763D01*
X11614400Y16490001D01*
X11662019Y16537620D01*
X11757257Y16585240D01*
X11852495Y16585240D01*
X11995352Y16537620D01*
X12566780Y15966192D01*
X12566780Y16585240D01*
X12662019Y16775716D02*
X12662019Y17537620D01*
X12566780Y17918573D02*
X12519161Y17823335D01*
X12471542Y17775716D01*
X12376304Y17728097D01*
X12090590Y17728097D01*
X11995352Y17775716D01*
X11947733Y17823335D01*
X11900114Y17918573D01*
X11900114Y18061430D01*
X11947733Y18156668D01*
X11995352Y18204287D01*
X12090590Y18251906D01*
X12376304Y18251906D01*
X12471542Y18204287D01*
X12519161Y18156668D01*
X12566780Y18061430D01*
X12566780Y17918573D01*
X11900114Y18537620D02*
X11900114Y18918573D01*
X11566780Y18680478D02*
X12423923Y18680478D01*
X12519161Y18728097D01*
X12566780Y18823335D01*
X12566780Y18918573D01*
X12566780Y19251906D02*
X11566780Y19251906D01*
X12566780Y19680478D02*
X12042971Y19680478D01*
X11947733Y19632859D01*
X11900114Y19537620D01*
X11900114Y19394763D01*
X11947733Y19299525D01*
X11995352Y19251906D01*
X12519161Y20537620D02*
X12566780Y20442382D01*
X12566780Y20251906D01*
X12519161Y20156668D01*
X12423923Y20109049D01*
X12042971Y20109049D01*
X11947733Y20156668D01*
X11900114Y20251906D01*
X11900114Y20442382D01*
X11947733Y20537620D01*
X12042971Y20585240D01*
X12138209Y20585240D01*
X12233447Y20109049D01*
X12566780Y21013811D02*
X11900114Y21013811D01*
X12090590Y21013811D02*
X11995352Y21061430D01*
X11947733Y21109049D01*
X11900114Y21204287D01*
X11900114Y21299525D01*
X-25142698Y61456308D02*
X-25095079Y61408689D01*
X-25047460Y61265832D01*
X-25047460Y61170594D01*
X-25095079Y61027737D01*
X-25190317Y60932499D01*
X-25285555Y60884880D01*
X-25476031Y60837260D01*
X-25618888Y60837260D01*
X-25809364Y60884880D01*
X-25904602Y60932499D01*
X-25999840Y61027737D01*
X-26047460Y61170594D01*
X-26047460Y61265832D01*
X-25999840Y61408689D01*
X-25952221Y61456308D01*
X-25047460Y62027737D02*
X-25095079Y61932499D01*
X-25142698Y61884880D01*
X-25237936Y61837260D01*
X-25523650Y61837260D01*
X-25618888Y61884880D01*
X-25666507Y61932499D01*
X-25714126Y62027737D01*
X-25714126Y62170594D01*
X-25666507Y62265832D01*
X-25618888Y62313451D01*
X-25523650Y62361070D01*
X-25237936Y62361070D01*
X-25142698Y62313451D01*
X-25095079Y62265832D01*
X-25047460Y62170594D01*
X-25047460Y62027737D01*
X-25714126Y62789641D02*
X-25047460Y62789641D01*
X-25618888Y62789641D02*
X-25666507Y62837260D01*
X-25714126Y62932499D01*
X-25714126Y63075356D01*
X-25666507Y63170594D01*
X-25571269Y63218213D01*
X-25047460Y63218213D01*
X-25714126Y63694403D02*
X-25047460Y63694403D01*
X-25618888Y63694403D02*
X-25666507Y63742022D01*
X-25714126Y63837260D01*
X-25714126Y63980118D01*
X-25666507Y64075356D01*
X-25571269Y64122975D01*
X-25047460Y64122975D01*
X-24952221Y64361070D02*
X-24952221Y65122975D01*
X-25618888Y65503927D02*
X-25666507Y65408689D01*
X-25714126Y65361070D01*
X-25809364Y65313451D01*
X-25856983Y65313451D01*
X-25952221Y65361070D01*
X-25999840Y65408689D01*
X-26047460Y65503927D01*
X-26047460Y65694403D01*
X-25999840Y65789641D01*
X-25952221Y65837260D01*
X-25856983Y65884880D01*
X-25809364Y65884880D01*
X-25714126Y65837260D01*
X-25666507Y65789641D01*
X-25618888Y65694403D01*
X-25618888Y65503927D01*
X-25571269Y65408689D01*
X-25523650Y65361070D01*
X-25428412Y65313451D01*
X-25237936Y65313451D01*
X-25142698Y65361070D01*
X-25095079Y65408689D01*
X-25047460Y65503927D01*
X-25047460Y65694403D01*
X-25095079Y65789641D01*
X-25142698Y65837260D01*
X-25237936Y65884880D01*
X-25428412Y65884880D01*
X-25523650Y65837260D01*
X-25571269Y65789641D01*
X-25618888Y65694403D01*
X-25047460Y66313451D02*
X-26047460Y66313451D01*
X-25571269Y66313451D02*
X-25571269Y66884880D01*
X-25047460Y66884880D02*
X-26047460Y66884880D01*
X-25047460Y67361070D02*
X-26047460Y67361070D01*
X-26047460Y67742022D01*
X-25999840Y67837260D01*
X-25952221Y67884880D01*
X-25856983Y67932499D01*
X-25714126Y67932499D01*
X-25618888Y67884880D01*
X-25571269Y67837260D01*
X-25523650Y67742022D01*
X-25523650Y67361070D01*
X-24952221Y68122975D02*
X-24952221Y68884880D01*
X-26047460Y69027737D02*
X-26047460Y69646784D01*
X-25666507Y69313451D01*
X-25666507Y69456308D01*
X-25618888Y69551546D01*
X-25571269Y69599165D01*
X-25476031Y69646784D01*
X-25237936Y69646784D01*
X-25142698Y69599165D01*
X-25095079Y69551546D01*
X-25047460Y69456308D01*
X-25047460Y69170594D01*
X-25095079Y69075356D01*
X-25142698Y69027737D01*
X-26047460Y70265832D02*
X-26047460Y70361070D01*
X-25999840Y70456308D01*
X-25952221Y70503927D01*
X-25856983Y70551546D01*
X-25666507Y70599165D01*
X-25428412Y70599165D01*
X-25237936Y70551546D01*
X-25142698Y70503927D01*
X-25095079Y70456308D01*
X-25047460Y70361070D01*
X-25047460Y70265832D01*
X-25095079Y70170594D01*
X-25142698Y70122975D01*
X-25237936Y70075356D01*
X-25428412Y70027737D01*
X-25666507Y70027737D01*
X-25856983Y70075356D01*
X-25952221Y70122975D01*
X-25999840Y70170594D01*
X-26047460Y70265832D01*
X-25095079Y70980118D02*
X-25047460Y71122975D01*
X-25047460Y71361070D01*
X-25095079Y71456308D01*
X-25142698Y71503927D01*
X-25237936Y71551546D01*
X-25333174Y71551546D01*
X-25428412Y71503927D01*
X-25476031Y71456308D01*
X-25523650Y71361070D01*
X-25571269Y71170594D01*
X-25618888Y71075356D01*
X-25666507Y71027737D01*
X-25761745Y70980118D01*
X-25856983Y70980118D01*
X-25952221Y71027737D01*
X-25999840Y71075356D01*
X-26047460Y71170594D01*
X-26047460Y71408689D01*
X-25999840Y71551546D01*
X-24952221Y71742022D02*
X-24952221Y72503927D01*
X-25952221Y72694403D02*
X-25999840Y72742022D01*
X-26047460Y72837260D01*
X-26047460Y73075356D01*
X-25999840Y73170594D01*
X-25952221Y73218213D01*
X-25856983Y73265832D01*
X-25761745Y73265832D01*
X-25618888Y73218213D01*
X-25047460Y72646784D01*
X-25047460Y73265832D01*
X-25047460Y74218213D02*
X-25047460Y73646784D01*
X-25047460Y73932499D02*
X-26047460Y73932499D01*
X-25904602Y73837260D01*
X-25809364Y73742022D01*
X-25761745Y73646784D01*
X-25714126Y75075356D02*
X-25047460Y75075356D01*
X-26095079Y74837260D02*
X-25380793Y74599165D01*
X-25380793Y75218213D01*
X-25047460Y76122975D02*
X-25047460Y75551546D01*
X-25047460Y75837260D02*
X-26047460Y75837260D01*
X-25904602Y75742022D01*
X-25809364Y75646784D01*
X-25761745Y75551546D01*
X-25047460Y77075356D02*
X-25047460Y76503927D01*
X-25047460Y76789641D02*
X-26047460Y76789641D01*
X-25904602Y76694403D01*
X-25809364Y76599165D01*
X-25761745Y76503927D01*
X-26047460Y77408689D02*
X-26047460Y78027737D01*
X-25666507Y77694403D01*
X-25666507Y77837260D01*
X-25618888Y77932499D01*
X-25571269Y77980118D01*
X-25476031Y78027737D01*
X-25237936Y78027737D01*
X-25142698Y77980118D01*
X-25095079Y77932499D01*
X-25047460Y77837260D01*
X-25047460Y77551546D01*
X-25095079Y77456308D01*
X-25142698Y77408689D01*
X-26047460Y78646784D02*
X-26047460Y78742022D01*
X-25999840Y78837260D01*
X-25952221Y78884880D01*
X-25856983Y78932499D01*
X-25666507Y78980118D01*
X-25428412Y78980118D01*
X-25237936Y78932499D01*
X-25142698Y78884880D01*
X-25095079Y78837260D01*
X-25047460Y78742022D01*
X-25047460Y78646784D01*
X-25095079Y78551546D01*
X-25142698Y78503927D01*
X-25237936Y78456308D01*
X-25428412Y78408689D01*
X-25666507Y78408689D01*
X-25856983Y78456308D01*
X-25952221Y78503927D01*
X-25999840Y78551546D01*
X-26047460Y78646784D01*
X-26047460Y79599165D02*
X-26047460Y79694403D01*
X-25999840Y79789641D01*
X-25952221Y79837260D01*
X-25856983Y79884880D01*
X-25666507Y79932499D01*
X-25428412Y79932499D01*
X-25237936Y79884880D01*
X-25142698Y79837260D01*
X-25095079Y79789641D01*
X-25047460Y79694403D01*
X-25047460Y79599165D01*
X-25095079Y79503927D01*
X-25142698Y79456308D01*
X-25237936Y79408689D01*
X-25428412Y79361070D01*
X-25666507Y79361070D01*
X-25856983Y79408689D01*
X-25952221Y79456308D01*
X-25999840Y79503927D01*
X-26047460Y79599165D01*
X-25047460Y80884880D02*
X-25047460Y80313451D01*
X-25047460Y80599165D02*
X-26047460Y80599165D01*
X-25904602Y80503927D01*
X-25809364Y80408689D01*
X-25761745Y80313451D01*
X-26047460Y81503927D02*
X-26047460Y81599165D01*
X-25999840Y81694403D01*
X-25952221Y81742022D01*
X-25856983Y81789641D01*
X-25666507Y81837260D01*
X-25428412Y81837260D01*
X-25237936Y81789641D01*
X-25142698Y81742022D01*
X-25095079Y81694403D01*
X-25047460Y81599165D01*
X-25047460Y81503927D01*
X-25095079Y81408689D01*
X-25142698Y81361070D01*
X-25237936Y81313451D01*
X-25428412Y81265832D01*
X-25666507Y81265832D01*
X-25856983Y81313451D01*
X-25952221Y81361070D01*
X-25999840Y81408689D01*
X-26047460Y81503927D01*
M02*
