G04 #@! TF.GenerationSoftware,KiCad,Pcbnew,(5.1.6)-1*
G04 #@! TF.CreationDate,2021-03-03T14:17:38+01:00*
G04 #@! TF.ProjectId,Busbar board,42757362-6172-4206-926f-6172642e6b69,rev?*
G04 #@! TF.SameCoordinates,PX4c4b360PY85843d4*
G04 #@! TF.FileFunction,Copper,L1,Top*
G04 #@! TF.FilePolarity,Positive*
%FSLAX46Y46*%
G04 Gerber Fmt 4.6, Leading zero omitted, Abs format (unit mm)*
G04 Created by KiCad (PCBNEW (5.1.6)-1) date 2021-03-03 14:17:39*
%MOMM*%
%LPD*%
G01*
G04 APERTURE LIST*
G04 #@! TA.AperFunction,ViaPad*
%ADD10C,0.600000*%
G04 #@! TD*
G04 #@! TA.AperFunction,SMDPad,CuDef*
%ADD11R,90.000000X30.000000*%
G04 #@! TD*
G04 #@! TA.AperFunction,ComponentPad*
%ADD12C,5.000000*%
G04 #@! TD*
G04 #@! TA.AperFunction,ComponentPad*
%ADD13C,15.000000*%
G04 #@! TD*
G04 #@! TA.AperFunction,SMDPad,CuDef*
%ADD14R,1.270000X2.540000*%
G04 #@! TD*
G04 #@! TA.AperFunction,WasherPad*
%ADD15C,3.000000*%
G04 #@! TD*
G04 #@! TA.AperFunction,ComponentPad*
%ADD16C,1.800000*%
G04 #@! TD*
G04 #@! TA.AperFunction,WasherPad*
%ADD17C,3.500000*%
G04 #@! TD*
G04 #@! TA.AperFunction,ComponentPad*
%ADD18C,1.400000*%
G04 #@! TD*
G04 #@! TA.AperFunction,WasherPad*
%ADD19C,3.700000*%
G04 #@! TD*
G04 #@! TA.AperFunction,ComponentPad*
%ADD20C,1.000000*%
G04 #@! TD*
G04 #@! TA.AperFunction,ViaPad*
%ADD21C,0.800000*%
G04 #@! TD*
G04 #@! TA.AperFunction,Conductor*
%ADD22C,1.000000*%
G04 #@! TD*
G04 #@! TA.AperFunction,Conductor*
%ADD23C,0.254000*%
G04 #@! TD*
G04 APERTURE END LIST*
D10*
X132000160Y87702260D03*
X129000160Y87702260D03*
X126000160Y87702260D03*
X123000160Y87702260D03*
X120000160Y87702260D03*
X117000160Y87702260D03*
X114000160Y87702260D03*
X111000160Y87702260D03*
X108000160Y87702260D03*
X105000160Y87702260D03*
X102000160Y87702260D03*
X99000160Y87702260D03*
X96000160Y87702260D03*
X93000160Y87702260D03*
X90000160Y87702260D03*
X87000160Y87702260D03*
X84000160Y87702260D03*
X81000160Y87702260D03*
X78000160Y87702260D03*
X75000160Y87702260D03*
X72000160Y87702260D03*
X69000160Y87702260D03*
X66000160Y87702260D03*
X63000160Y87702260D03*
X60000160Y87702260D03*
X57000160Y87702260D03*
X54000160Y87702260D03*
X51000160Y87702260D03*
X48000160Y87702260D03*
X45000160Y87702260D03*
X132000160Y86002260D03*
X129000160Y86002260D03*
X126000160Y86002260D03*
X123000160Y86002260D03*
X120000160Y86002260D03*
X117000160Y86002260D03*
X114000160Y86002260D03*
X111000160Y86002260D03*
X108000160Y86002260D03*
X105000160Y86002260D03*
X102000160Y86002260D03*
X99000160Y86002260D03*
X96000160Y86002260D03*
X93000160Y86002260D03*
X90000160Y86002260D03*
X87000160Y86002260D03*
X84000160Y86002260D03*
X81000160Y86002260D03*
X78000160Y86002260D03*
X75000160Y86002260D03*
X72000160Y86002260D03*
X69000160Y86002260D03*
X66000160Y86002260D03*
X63000160Y86002260D03*
X60000160Y86002260D03*
X57000160Y86002260D03*
X54000160Y86002260D03*
X51000160Y86002260D03*
X48000160Y86002260D03*
X132000160Y50302260D03*
X129000160Y50302260D03*
X126000160Y50302260D03*
X123000160Y50302260D03*
X120000160Y50302260D03*
X117000160Y50302260D03*
X114000160Y50302260D03*
X111000160Y50302260D03*
X108000160Y50302260D03*
X105000160Y50302260D03*
X102000160Y50302260D03*
X99000160Y50302260D03*
X96000160Y50302260D03*
X93000160Y50302260D03*
X90000160Y50302260D03*
X87000160Y50302260D03*
X84000160Y50302260D03*
X81000160Y50302260D03*
X78000160Y50302260D03*
X75000160Y50302260D03*
X72000160Y50302260D03*
X69000160Y50302260D03*
X66000160Y50302260D03*
X63000160Y50302260D03*
X60000160Y50302260D03*
X57000160Y50302260D03*
X54000160Y50302260D03*
X51000160Y50302260D03*
X48000160Y50302260D03*
X45000160Y50302260D03*
X132000160Y52002260D03*
X129000160Y52002260D03*
X126000160Y52002260D03*
X123000160Y52002260D03*
X120000160Y52002260D03*
X117000160Y52002260D03*
X114000160Y52002260D03*
X111000160Y52002260D03*
X108000160Y52002260D03*
X105000160Y52002260D03*
X102000160Y52002260D03*
X99000160Y52002260D03*
X96000160Y52002260D03*
X93000160Y52002260D03*
X90000160Y52002260D03*
X87000160Y52002260D03*
X84000160Y52002260D03*
X81000160Y52002260D03*
X78000160Y52002260D03*
X75000160Y52002260D03*
X72000160Y52002260D03*
X69000160Y52002260D03*
X66000160Y52002260D03*
X63000160Y52002260D03*
X60000160Y52002260D03*
X57000160Y52002260D03*
X54000160Y52002260D03*
X51000160Y52002260D03*
X48000160Y52002260D03*
X132000160Y-747740D03*
X129000160Y-747740D03*
X126000160Y-747740D03*
X123000160Y-747740D03*
X120000160Y-747740D03*
X117000160Y-747740D03*
X114000160Y-747740D03*
X111000160Y-747740D03*
X108000160Y-747740D03*
X105000160Y-747740D03*
X102000160Y-747740D03*
X99000160Y-747740D03*
X96000160Y-747740D03*
X93000160Y-747740D03*
X90000160Y-747740D03*
X87000160Y-747740D03*
X84000160Y-747740D03*
X81000160Y-747740D03*
X78000160Y-747740D03*
X75000160Y-747740D03*
X72000160Y-747740D03*
X69000160Y-747740D03*
X66000160Y-747740D03*
X63000160Y-747740D03*
X60000160Y-747740D03*
X57000160Y-747740D03*
X54000160Y-747740D03*
X51000160Y-747740D03*
X48000160Y-747740D03*
X45000160Y-747740D03*
X132000160Y1002260D03*
X129000160Y1002260D03*
X126000160Y1002260D03*
X123000160Y1002260D03*
X120000160Y1002260D03*
X117000160Y1002260D03*
X114000160Y1002260D03*
X111000160Y1002260D03*
X108000160Y1002260D03*
X105000160Y1002260D03*
X102000160Y1002260D03*
X99000160Y1002260D03*
X96000160Y1002260D03*
X93000160Y1002260D03*
X90000160Y1002260D03*
X87000160Y1002260D03*
X84000160Y1002260D03*
X81000160Y1002260D03*
X78000160Y1002260D03*
X75000160Y1002260D03*
X72000160Y1002260D03*
X69000160Y1002260D03*
X66000160Y1002260D03*
X63000160Y1002260D03*
X60000160Y1002260D03*
X57000160Y1002260D03*
X54000160Y1002260D03*
X51000160Y1002260D03*
X48000160Y1002260D03*
X45000160Y1002260D03*
X132000160Y2752260D03*
X129000160Y2752260D03*
X126000160Y2752260D03*
X123000160Y2752260D03*
X120000160Y2752260D03*
X117000160Y2752260D03*
X114000160Y2752260D03*
X111000160Y2752260D03*
X108000160Y2752260D03*
X105000160Y2752260D03*
X102000160Y2752260D03*
X99000160Y2752260D03*
X96000160Y2752260D03*
X93000160Y2752260D03*
X90000160Y2752260D03*
X87000160Y2752260D03*
X84000160Y2752260D03*
X81000160Y2752260D03*
X78000160Y2752260D03*
X75000160Y2752260D03*
X72000160Y2752260D03*
X69000160Y2752260D03*
X66000160Y2752260D03*
X63000160Y2752260D03*
X60000160Y2752260D03*
X57000160Y2752260D03*
X54000160Y2752260D03*
X51000160Y2752260D03*
X48000160Y2752260D03*
X45000160Y2752260D03*
X132000160Y4502260D03*
X129000160Y4502260D03*
X126000160Y4502260D03*
X123000160Y4502260D03*
X120000160Y4502260D03*
X117000160Y4502260D03*
X114000160Y4502260D03*
X111000160Y4502260D03*
X108000160Y4502260D03*
X105000160Y4502260D03*
X102000160Y4502260D03*
X99000160Y4502260D03*
X96000160Y4502260D03*
X93000160Y4502260D03*
X90000160Y4502260D03*
X87000160Y4502260D03*
X84000160Y4502260D03*
X81000160Y4502260D03*
X78000160Y4502260D03*
X75000160Y4502260D03*
X72000160Y4502260D03*
X69000160Y4502260D03*
X66000160Y4502260D03*
X63000160Y4502260D03*
X60000160Y4502260D03*
X57000160Y4502260D03*
X54000160Y4502260D03*
X51000160Y4502260D03*
X48000160Y4502260D03*
D11*
X89160760Y68828060D03*
X89160760Y21328060D03*
D10*
X45000160Y4502260D03*
D12*
X140000160Y2260D03*
X160Y90002260D03*
X140000160Y90002260D03*
X160Y2260D03*
D13*
X72500160Y68832260D03*
X112500160Y68832260D03*
X70000160Y21332260D03*
X110000160Y21332260D03*
D10*
X45000160Y52002260D03*
X45000160Y86002260D03*
D14*
X4247960Y71913040D03*
D15*
X2097960Y75343040D03*
X9397960Y75343040D03*
D14*
X7247960Y71913040D03*
D16*
X5550160Y11182260D03*
X5550160Y15382260D03*
D17*
X160Y13282260D03*
X9400160Y17002260D03*
D18*
X-9599840Y74337260D03*
X-12099840Y74337260D03*
X-14599840Y74337260D03*
X-17099840Y74337260D03*
X-19599840Y74337260D03*
X-22099840Y74337260D03*
X-9599840Y71337260D03*
X-12099840Y71337260D03*
X-14599840Y71337260D03*
X-17099840Y71337260D03*
X-19599840Y71337260D03*
X-22099840Y71337260D03*
X-19599840Y68557260D03*
X-19599840Y62777260D03*
X-19599840Y56997260D03*
X-19599840Y51217260D03*
X-19599840Y45437260D03*
X-19599840Y39657260D03*
X-19599840Y33877260D03*
X-9599840Y65557260D03*
X-9599840Y59777260D03*
X-9599840Y53997260D03*
X-9599840Y48217260D03*
X-9599840Y42437260D03*
X-9599840Y36657260D03*
X-9599840Y30877260D03*
X-22099840Y65557260D03*
X-22099840Y59777260D03*
X-22099840Y53997260D03*
X-22099840Y48217260D03*
X-22099840Y42437260D03*
X-22099840Y36657260D03*
X-22099840Y30877260D03*
X-14599840Y65557260D03*
X-14599840Y59777260D03*
X-14599840Y53997260D03*
X-14599840Y48217260D03*
X-14599840Y42437260D03*
X-14599840Y36657260D03*
X-14599840Y30877260D03*
X-14599840Y68557260D03*
X-14599840Y62777260D03*
X-14599840Y56997260D03*
X-14599840Y51217260D03*
X-14599840Y45437260D03*
X-14599840Y39657260D03*
X-14599840Y33877260D03*
X-12099840Y68557260D03*
X-12099840Y62777260D03*
X-12099840Y56997260D03*
X-12099840Y51217260D03*
X-12099840Y45437260D03*
X-12099840Y39657260D03*
X-12099840Y33877260D03*
X-17099840Y65557260D03*
X-17099840Y59777260D03*
X-17099840Y53997260D03*
X-17099840Y48217260D03*
X-17099840Y42437260D03*
X-17099840Y36657260D03*
X-17099840Y30877260D03*
X-12099840Y65557260D03*
X-12099840Y59777260D03*
X-12099840Y53997260D03*
X-12099840Y48217260D03*
X-12099840Y42437260D03*
X-12099840Y36657260D03*
X-12099840Y30877260D03*
X-19599840Y65557260D03*
X-19599840Y59777260D03*
X-19599840Y53997260D03*
X-19599840Y48217260D03*
X-19599840Y42437260D03*
X-19599840Y36657260D03*
X-19599840Y30877260D03*
X-17099840Y68557260D03*
X-17099840Y62777260D03*
X-17099840Y56997260D03*
X-17099840Y51217260D03*
X-17099840Y45437260D03*
X-17099840Y39657260D03*
X-17099840Y33877260D03*
X-22099840Y68557260D03*
X-22099840Y62777260D03*
X-22099840Y56997260D03*
X-22099840Y51217260D03*
X-22099840Y45437260D03*
X-22099840Y39657260D03*
X-22099840Y33877260D03*
X-9599840Y68557260D03*
X-9599840Y62777260D03*
X-9599840Y56997260D03*
X-9599840Y51217260D03*
X-9599840Y45437260D03*
X-9599840Y39657260D03*
X-9599840Y33877260D03*
D19*
X-17099840Y79157260D03*
X-17099840Y10837260D03*
D20*
X-22099840Y25777260D03*
X-20099840Y25777260D03*
X-18099840Y25777260D03*
X-16099840Y25777260D03*
X-14099840Y25777260D03*
X-22099840Y23777260D03*
X-20099840Y23777260D03*
X-18099840Y23777260D03*
X-16099840Y23777260D03*
X-14099840Y23777260D03*
X-22099840Y21777260D03*
X-20099840Y21777260D03*
X-18099840Y21777260D03*
X-16099840Y21777260D03*
X-14099840Y21777260D03*
X-22099840Y19777260D03*
X-20099840Y19777260D03*
X-18099840Y19777260D03*
X-16099840Y19777260D03*
X-14099840Y19777260D03*
X-22099840Y17777260D03*
X-20099840Y17777260D03*
X-18099840Y17777260D03*
X-16099840Y17777260D03*
X-14099840Y17777260D03*
X-22099840Y15777260D03*
X-20099840Y15777260D03*
X-18099840Y15777260D03*
X-16099840Y15777260D03*
X-14099840Y15777260D03*
D21*
X13643820Y73421380D03*
D22*
X7247960Y71913040D02*
X12135480Y71913040D01*
X12135480Y71913040D02*
X13643820Y73421380D01*
D23*
G36*
X143873161Y92535440D02*
G01*
X143873160Y42818967D01*
X135185215Y42755580D01*
X41046447Y42755580D01*
X40969080Y42763200D01*
X40554123Y42722330D01*
X40155112Y42601292D01*
X39787382Y42404736D01*
X39465064Y42140216D01*
X36221484Y38896636D01*
X35956964Y38574318D01*
X35760408Y38206588D01*
X35639370Y37807577D01*
X35598500Y37392620D01*
X35598500Y2266960D01*
X35639370Y1852003D01*
X35760408Y1452992D01*
X35956964Y1085262D01*
X36221484Y762944D01*
X40855168Y-3870740D01*
X-22533021Y-3870740D01*
X-23872840Y-2530922D01*
X-23872840Y349639D01*
X-3526840Y349639D01*
X-3526840Y-345119D01*
X-3391300Y-1026528D01*
X-3125427Y-1668401D01*
X-2739440Y-2246072D01*
X-2248172Y-2737340D01*
X-1670501Y-3123327D01*
X-1028628Y-3389200D01*
X-347219Y-3524740D01*
X347539Y-3524740D01*
X1028948Y-3389200D01*
X1670821Y-3123327D01*
X2248492Y-2737340D01*
X2739760Y-2246072D01*
X3125747Y-1668401D01*
X3391620Y-1026528D01*
X3527160Y-345119D01*
X3527160Y349639D01*
X3391620Y1031048D01*
X3125747Y1672921D01*
X2739760Y2250592D01*
X2248492Y2741860D01*
X1670821Y3127847D01*
X1028948Y3393720D01*
X347539Y3529260D01*
X-347219Y3529260D01*
X-1028628Y3393720D01*
X-1670501Y3127847D01*
X-2248172Y2741860D01*
X-2739440Y2250592D01*
X-3125427Y1672921D01*
X-3391300Y1031048D01*
X-3526840Y349639D01*
X-23872840Y349639D01*
X-23872840Y11120620D01*
X-19976840Y11120620D01*
X-19976840Y10553900D01*
X-19866279Y9998070D01*
X-19649405Y9474489D01*
X-19334552Y9003279D01*
X-18933821Y8602548D01*
X-18462611Y8287695D01*
X-17939030Y8070821D01*
X-17383200Y7960260D01*
X-16816480Y7960260D01*
X-16260650Y8070821D01*
X-15737069Y8287695D01*
X-15265859Y8602548D01*
X-14865128Y9003279D01*
X-14550275Y9474489D01*
X-14335335Y9993401D01*
X5454488Y9993401D01*
X5530505Y9894207D01*
X5645832Y9993401D01*
X5550160Y10089073D01*
X5454488Y9993401D01*
X-14335335Y9993401D01*
X-14333401Y9998070D01*
X-14222840Y10553900D01*
X-14222840Y11120620D01*
X-14333401Y11676450D01*
X-14550275Y12200031D01*
X-14865128Y12671241D01*
X-15265859Y13071972D01*
X-15737069Y13386825D01*
X-16144941Y13555771D01*
X-2776840Y13555771D01*
X-2776840Y13008749D01*
X-2670122Y12472239D01*
X-2460786Y11966857D01*
X-2156877Y11512026D01*
X-1770074Y11125223D01*
X-1315243Y10821314D01*
X-809861Y10611978D01*
X-273351Y10505260D01*
X273671Y10505260D01*
X810181Y10611978D01*
X1315563Y10821314D01*
X1770394Y11125223D01*
X1847086Y11201915D01*
X4262107Y11201915D01*
X4361301Y11086588D01*
X4456973Y11182260D01*
X6643347Y11182260D01*
X6739019Y11086588D01*
X6838213Y11162605D01*
X6739019Y11277932D01*
X6643347Y11182260D01*
X4456973Y11182260D01*
X4361301Y11277932D01*
X4262107Y11201915D01*
X1847086Y11201915D01*
X2157197Y11512026D01*
X2461106Y11966857D01*
X2628556Y12371119D01*
X5454488Y12371119D01*
X5550160Y12275447D01*
X5645832Y12371119D01*
X5569815Y12470313D01*
X5454488Y12371119D01*
X2628556Y12371119D01*
X2670442Y12472239D01*
X2777160Y13008749D01*
X2777160Y13555771D01*
X2670442Y14092281D01*
X2461106Y14597663D01*
X2157197Y15052494D01*
X1770394Y15439297D01*
X1571712Y15572053D01*
X3623160Y15572053D01*
X3623160Y15192467D01*
X3697213Y14820175D01*
X3842475Y14469483D01*
X4053361Y14153869D01*
X4321769Y13885461D01*
X4637383Y13674575D01*
X4988075Y13529313D01*
X5360367Y13455260D01*
X5739953Y13455260D01*
X6112245Y13529313D01*
X6462937Y13674575D01*
X6778551Y13885461D01*
X7046959Y14153869D01*
X7257845Y14469483D01*
X7403107Y14820175D01*
X7444894Y15030255D01*
X7629926Y14845223D01*
X8084757Y14541314D01*
X8590139Y14331978D01*
X9126649Y14225260D01*
X9673671Y14225260D01*
X10210181Y14331978D01*
X10715563Y14541314D01*
X11170394Y14845223D01*
X11557197Y15232026D01*
X11861106Y15686857D01*
X12070442Y16192239D01*
X12177160Y16728749D01*
X12177160Y17275771D01*
X12070442Y17812281D01*
X11861106Y18317663D01*
X11557197Y18772494D01*
X11170394Y19159297D01*
X10715563Y19463206D01*
X10210181Y19672542D01*
X9673671Y19779260D01*
X9126649Y19779260D01*
X8590139Y19672542D01*
X8084757Y19463206D01*
X7629926Y19159297D01*
X7243123Y18772494D01*
X6939214Y18317663D01*
X6729878Y17812281D01*
X6623160Y17275771D01*
X6623160Y16982888D01*
X6462937Y17089945D01*
X6112245Y17235207D01*
X5739953Y17309260D01*
X5360367Y17309260D01*
X4988075Y17235207D01*
X4637383Y17089945D01*
X4321769Y16879059D01*
X4053361Y16610651D01*
X3842475Y16295037D01*
X3697213Y15944345D01*
X3623160Y15572053D01*
X1571712Y15572053D01*
X1315563Y15743206D01*
X810181Y15952542D01*
X273671Y16059260D01*
X-273351Y16059260D01*
X-809861Y15952542D01*
X-1315243Y15743206D01*
X-1770074Y15439297D01*
X-2156877Y15052494D01*
X-2460786Y14597663D01*
X-2670122Y14092281D01*
X-2776840Y13555771D01*
X-16144941Y13555771D01*
X-16260650Y13603699D01*
X-16816480Y13714260D01*
X-17383200Y13714260D01*
X-17939030Y13603699D01*
X-18462611Y13386825D01*
X-18933821Y13071972D01*
X-19334552Y12671241D01*
X-19649405Y12200031D01*
X-19866279Y11676450D01*
X-19976840Y11120620D01*
X-23872840Y11120620D01*
X-23872840Y25927656D01*
X-23626840Y25927656D01*
X-23626840Y25626864D01*
X-23568159Y25331850D01*
X-23453050Y25053954D01*
X-23285939Y24803854D01*
X-23259345Y24777260D01*
X-23285939Y24750666D01*
X-23453050Y24500566D01*
X-23568159Y24222670D01*
X-23626840Y23927656D01*
X-23626840Y23626864D01*
X-23568159Y23331850D01*
X-23453050Y23053954D01*
X-23285939Y22803854D01*
X-23259345Y22777260D01*
X-23285939Y22750666D01*
X-23453050Y22500566D01*
X-23568159Y22222670D01*
X-23626840Y21927656D01*
X-23626840Y21626864D01*
X-23568159Y21331850D01*
X-23453050Y21053954D01*
X-23285939Y20803854D01*
X-23259345Y20777260D01*
X-23285939Y20750666D01*
X-23453050Y20500566D01*
X-23568159Y20222670D01*
X-23626840Y19927656D01*
X-23626840Y19626864D01*
X-23568159Y19331850D01*
X-23453050Y19053954D01*
X-23285939Y18803854D01*
X-23259345Y18777260D01*
X-23285939Y18750666D01*
X-23453050Y18500566D01*
X-23568159Y18222670D01*
X-23626840Y17927656D01*
X-23626840Y17626864D01*
X-23568159Y17331850D01*
X-23453050Y17053954D01*
X-23285939Y16803854D01*
X-23259345Y16777260D01*
X-23285939Y16750666D01*
X-23453050Y16500566D01*
X-23568159Y16222670D01*
X-23626840Y15927656D01*
X-23626840Y15626864D01*
X-23568159Y15331850D01*
X-23453050Y15053954D01*
X-23285939Y14803854D01*
X-23073246Y14591161D01*
X-22823146Y14424050D01*
X-22545250Y14308941D01*
X-22250236Y14250260D01*
X-21949444Y14250260D01*
X-21654430Y14308941D01*
X-21376534Y14424050D01*
X-21126434Y14591161D01*
X-21099840Y14617755D01*
X-21073246Y14591161D01*
X-20823146Y14424050D01*
X-20545250Y14308941D01*
X-20250236Y14250260D01*
X-19949444Y14250260D01*
X-19654430Y14308941D01*
X-19376534Y14424050D01*
X-19126434Y14591161D01*
X-19099840Y14617755D01*
X-19073246Y14591161D01*
X-18823146Y14424050D01*
X-18545250Y14308941D01*
X-18250236Y14250260D01*
X-17949444Y14250260D01*
X-17654430Y14308941D01*
X-17376534Y14424050D01*
X-17126434Y14591161D01*
X-17099840Y14617755D01*
X-17073246Y14591161D01*
X-16823146Y14424050D01*
X-16545250Y14308941D01*
X-16250236Y14250260D01*
X-15949444Y14250260D01*
X-15654430Y14308941D01*
X-15376534Y14424050D01*
X-15126434Y14591161D01*
X-15099840Y14617755D01*
X-15073246Y14591161D01*
X-14823146Y14424050D01*
X-14545250Y14308941D01*
X-14250236Y14250260D01*
X-13949444Y14250260D01*
X-13654430Y14308941D01*
X-13376534Y14424050D01*
X-13126434Y14591161D01*
X-12913741Y14803854D01*
X-12746630Y15053954D01*
X-12631521Y15331850D01*
X-12572840Y15626864D01*
X-12572840Y15927656D01*
X-12631521Y16222670D01*
X-12746630Y16500566D01*
X-12913741Y16750666D01*
X-12940335Y16777260D01*
X-12913741Y16803854D01*
X-12746630Y17053954D01*
X-12631521Y17331850D01*
X-12572840Y17626864D01*
X-12572840Y17927656D01*
X-12631521Y18222670D01*
X-12746630Y18500566D01*
X-12913741Y18750666D01*
X-12940335Y18777260D01*
X-12913741Y18803854D01*
X-12746630Y19053954D01*
X-12631521Y19331850D01*
X-12572840Y19626864D01*
X-12572840Y19927656D01*
X-12631521Y20222670D01*
X-12746630Y20500566D01*
X-12913741Y20750666D01*
X-12940335Y20777260D01*
X-12913741Y20803854D01*
X-12746630Y21053954D01*
X-12631521Y21331850D01*
X-12572840Y21626864D01*
X-12572840Y21927656D01*
X-12631521Y22222670D01*
X-12746630Y22500566D01*
X-12913741Y22750666D01*
X-12940335Y22777260D01*
X-12913741Y22803854D01*
X-12746630Y23053954D01*
X-12631521Y23331850D01*
X-12572840Y23626864D01*
X-12572840Y23927656D01*
X-12631521Y24222670D01*
X-12746630Y24500566D01*
X-12913741Y24750666D01*
X-12940335Y24777260D01*
X-12913741Y24803854D01*
X-12746630Y25053954D01*
X-12631521Y25331850D01*
X-12572840Y25626864D01*
X-12572840Y25927656D01*
X-12631521Y26222670D01*
X-12746630Y26500566D01*
X-12913741Y26750666D01*
X-13126434Y26963359D01*
X-13376534Y27130470D01*
X-13654430Y27245579D01*
X-13949444Y27304260D01*
X-14250236Y27304260D01*
X-14545250Y27245579D01*
X-14823146Y27130470D01*
X-15073246Y26963359D01*
X-15099840Y26936765D01*
X-15126434Y26963359D01*
X-15376534Y27130470D01*
X-15654430Y27245579D01*
X-15949444Y27304260D01*
X-16250236Y27304260D01*
X-16545250Y27245579D01*
X-16823146Y27130470D01*
X-17073246Y26963359D01*
X-17099840Y26936765D01*
X-17126434Y26963359D01*
X-17376534Y27130470D01*
X-17654430Y27245579D01*
X-17949444Y27304260D01*
X-18250236Y27304260D01*
X-18545250Y27245579D01*
X-18823146Y27130470D01*
X-19073246Y26963359D01*
X-19099840Y26936765D01*
X-19126434Y26963359D01*
X-19376534Y27130470D01*
X-19654430Y27245579D01*
X-19949444Y27304260D01*
X-20250236Y27304260D01*
X-20545250Y27245579D01*
X-20823146Y27130470D01*
X-21073246Y26963359D01*
X-21099840Y26936765D01*
X-21126434Y26963359D01*
X-21376534Y27130470D01*
X-21654430Y27245579D01*
X-21949444Y27304260D01*
X-22250236Y27304260D01*
X-22545250Y27245579D01*
X-22823146Y27130470D01*
X-23073246Y26963359D01*
X-23285939Y26750666D01*
X-23453050Y26500566D01*
X-23568159Y26222670D01*
X-23626840Y25927656D01*
X-23872840Y25927656D01*
X-23872840Y51387355D01*
X-23826840Y51387355D01*
X-23826840Y51047165D01*
X-23760472Y50713513D01*
X-23630287Y50399219D01*
X-23441288Y50116362D01*
X-23200738Y49875812D01*
X-22963448Y49717260D01*
X-23200738Y49558708D01*
X-23441288Y49318158D01*
X-23630287Y49035301D01*
X-23760472Y48721007D01*
X-23826840Y48387355D01*
X-23826840Y48047165D01*
X-23760472Y47713513D01*
X-23630287Y47399219D01*
X-23441288Y47116362D01*
X-23200738Y46875812D01*
X-23128075Y46827260D01*
X-23200738Y46778708D01*
X-23441288Y46538158D01*
X-23630287Y46255301D01*
X-23760472Y45941007D01*
X-23826840Y45607355D01*
X-23826840Y45267165D01*
X-23760472Y44933513D01*
X-23630287Y44619219D01*
X-23441288Y44336362D01*
X-23200738Y44095812D01*
X-22963448Y43937260D01*
X-23200738Y43778708D01*
X-23441288Y43538158D01*
X-23630287Y43255301D01*
X-23760472Y42941007D01*
X-23826840Y42607355D01*
X-23826840Y42267165D01*
X-23760472Y41933513D01*
X-23630287Y41619219D01*
X-23441288Y41336362D01*
X-23200738Y41095812D01*
X-23128075Y41047260D01*
X-23200738Y40998708D01*
X-23441288Y40758158D01*
X-23630287Y40475301D01*
X-23760472Y40161007D01*
X-23826840Y39827355D01*
X-23826840Y39487165D01*
X-23760472Y39153513D01*
X-23630287Y38839219D01*
X-23441288Y38556362D01*
X-23200738Y38315812D01*
X-22963448Y38157260D01*
X-23200738Y37998708D01*
X-23441288Y37758158D01*
X-23630287Y37475301D01*
X-23760472Y37161007D01*
X-23826840Y36827355D01*
X-23826840Y36487165D01*
X-23760472Y36153513D01*
X-23630287Y35839219D01*
X-23441288Y35556362D01*
X-23200738Y35315812D01*
X-23128075Y35267260D01*
X-23200738Y35218708D01*
X-23441288Y34978158D01*
X-23630287Y34695301D01*
X-23760472Y34381007D01*
X-23826840Y34047355D01*
X-23826840Y33707165D01*
X-23760472Y33373513D01*
X-23630287Y33059219D01*
X-23441288Y32776362D01*
X-23200738Y32535812D01*
X-22963448Y32377260D01*
X-23200738Y32218708D01*
X-23441288Y31978158D01*
X-23630287Y31695301D01*
X-23760472Y31381007D01*
X-23826840Y31047355D01*
X-23826840Y30707165D01*
X-23760472Y30373513D01*
X-23630287Y30059219D01*
X-23441288Y29776362D01*
X-23200738Y29535812D01*
X-22917881Y29346813D01*
X-22603587Y29216628D01*
X-22269935Y29150260D01*
X-21929745Y29150260D01*
X-21596093Y29216628D01*
X-21281799Y29346813D01*
X-20998942Y29535812D01*
X-20849840Y29684914D01*
X-20700738Y29535812D01*
X-20417881Y29346813D01*
X-20103587Y29216628D01*
X-19769935Y29150260D01*
X-19429745Y29150260D01*
X-19096093Y29216628D01*
X-18781799Y29346813D01*
X-18498942Y29535812D01*
X-18349840Y29684914D01*
X-18200738Y29535812D01*
X-17917881Y29346813D01*
X-17603587Y29216628D01*
X-17269935Y29150260D01*
X-16929745Y29150260D01*
X-16596093Y29216628D01*
X-16281799Y29346813D01*
X-15998942Y29535812D01*
X-15849840Y29684914D01*
X-15700738Y29535812D01*
X-15417881Y29346813D01*
X-15103587Y29216628D01*
X-14769935Y29150260D01*
X-14429745Y29150260D01*
X-14096093Y29216628D01*
X-13781799Y29346813D01*
X-13498942Y29535812D01*
X-13349840Y29684914D01*
X-13200738Y29535812D01*
X-12917881Y29346813D01*
X-12603587Y29216628D01*
X-12269935Y29150260D01*
X-11929745Y29150260D01*
X-11596093Y29216628D01*
X-11281799Y29346813D01*
X-10998942Y29535812D01*
X-10849840Y29684914D01*
X-10700738Y29535812D01*
X-10417881Y29346813D01*
X-10103587Y29216628D01*
X-9769935Y29150260D01*
X-9429745Y29150260D01*
X-9096093Y29216628D01*
X-8781799Y29346813D01*
X-8498942Y29535812D01*
X-8258392Y29776362D01*
X-8069393Y30059219D01*
X-7939208Y30373513D01*
X-7872840Y30707165D01*
X-7872840Y31047355D01*
X-7939208Y31381007D01*
X-8069393Y31695301D01*
X-8258392Y31978158D01*
X-8498942Y32218708D01*
X-8736232Y32377260D01*
X-8498942Y32535812D01*
X-8258392Y32776362D01*
X-8069393Y33059219D01*
X-7939208Y33373513D01*
X-7872840Y33707165D01*
X-7872840Y34047355D01*
X-7939208Y34381007D01*
X-8069393Y34695301D01*
X-8258392Y34978158D01*
X-8498942Y35218708D01*
X-8571605Y35267260D01*
X-8498942Y35315812D01*
X-8258392Y35556362D01*
X-8069393Y35839219D01*
X-7939208Y36153513D01*
X-7872840Y36487165D01*
X-7872840Y36827355D01*
X-7939208Y37161007D01*
X-8069393Y37475301D01*
X-8258392Y37758158D01*
X-8498942Y37998708D01*
X-8736232Y38157260D01*
X-8498942Y38315812D01*
X-8258392Y38556362D01*
X-8069393Y38839219D01*
X-7939208Y39153513D01*
X-7872840Y39487165D01*
X-7872840Y39827355D01*
X-7939208Y40161007D01*
X-8069393Y40475301D01*
X-8258392Y40758158D01*
X-8498942Y40998708D01*
X-8571605Y41047260D01*
X-8498942Y41095812D01*
X-8258392Y41336362D01*
X-8069393Y41619219D01*
X-7939208Y41933513D01*
X-7872840Y42267165D01*
X-7872840Y42607355D01*
X-7939208Y42941007D01*
X-8069393Y43255301D01*
X-8258392Y43538158D01*
X-8498942Y43778708D01*
X-8736232Y43937260D01*
X-8498942Y44095812D01*
X-8258392Y44336362D01*
X-8069393Y44619219D01*
X-7939208Y44933513D01*
X-7872840Y45267165D01*
X-7872840Y45607355D01*
X-7939208Y45941007D01*
X-8069393Y46255301D01*
X-8258392Y46538158D01*
X-8498942Y46778708D01*
X-8571605Y46827260D01*
X-8498942Y46875812D01*
X-8258392Y47116362D01*
X-8069393Y47399219D01*
X-7939208Y47713513D01*
X-7872840Y48047165D01*
X-7872840Y48387355D01*
X-7939208Y48721007D01*
X-8069393Y49035301D01*
X-8258392Y49318158D01*
X-8498942Y49558708D01*
X-8736232Y49717260D01*
X-8498942Y49875812D01*
X-8258392Y50116362D01*
X-8069393Y50399219D01*
X-7939208Y50713513D01*
X-7872840Y51047165D01*
X-7872840Y51387355D01*
X-7939208Y51721007D01*
X-8069393Y52035301D01*
X-8258392Y52318158D01*
X-8498942Y52558708D01*
X-8781799Y52747707D01*
X-9096093Y52877892D01*
X-9429745Y52944260D01*
X-9494590Y52944260D01*
X-9432645Y53019720D01*
X-9599840Y53186916D01*
X-9767035Y53019720D01*
X-9705090Y52944260D01*
X-9769935Y52944260D01*
X-10103587Y52877892D01*
X-10417881Y52747707D01*
X-10700738Y52558708D01*
X-10849840Y52409606D01*
X-10998942Y52558708D01*
X-11281799Y52747707D01*
X-11596093Y52877892D01*
X-11929745Y52944260D01*
X-11994590Y52944260D01*
X-11932645Y53019720D01*
X-12099840Y53186916D01*
X-12267035Y53019720D01*
X-12205090Y52944260D01*
X-12269935Y52944260D01*
X-12603587Y52877892D01*
X-12917881Y52747707D01*
X-13200738Y52558708D01*
X-13349840Y52409606D01*
X-13498942Y52558708D01*
X-13781799Y52747707D01*
X-14096093Y52877892D01*
X-14429745Y52944260D01*
X-14494590Y52944260D01*
X-14432645Y53019720D01*
X-14599840Y53186916D01*
X-14767035Y53019720D01*
X-14705090Y52944260D01*
X-14769935Y52944260D01*
X-15103587Y52877892D01*
X-15417881Y52747707D01*
X-15700738Y52558708D01*
X-15849840Y52409606D01*
X-15998942Y52558708D01*
X-16281799Y52747707D01*
X-16596093Y52877892D01*
X-16929745Y52944260D01*
X-16994590Y52944260D01*
X-16932645Y53019720D01*
X-17099840Y53186916D01*
X-17267035Y53019720D01*
X-17205090Y52944260D01*
X-17269935Y52944260D01*
X-17603587Y52877892D01*
X-17917881Y52747707D01*
X-18200738Y52558708D01*
X-18349840Y52409606D01*
X-18498942Y52558708D01*
X-18781799Y52747707D01*
X-19096093Y52877892D01*
X-19429745Y52944260D01*
X-19494590Y52944260D01*
X-19432645Y53019720D01*
X-19599840Y53186916D01*
X-19767035Y53019720D01*
X-19705090Y52944260D01*
X-19769935Y52944260D01*
X-20103587Y52877892D01*
X-20417881Y52747707D01*
X-20700738Y52558708D01*
X-20849840Y52409606D01*
X-20998942Y52558708D01*
X-21281799Y52747707D01*
X-21596093Y52877892D01*
X-21929745Y52944260D01*
X-21994590Y52944260D01*
X-21932645Y53019720D01*
X-22099840Y53186916D01*
X-22267035Y53019720D01*
X-22205090Y52944260D01*
X-22269935Y52944260D01*
X-22603587Y52877892D01*
X-22917881Y52747707D01*
X-23200738Y52558708D01*
X-23441288Y52318158D01*
X-23630287Y52035301D01*
X-23760472Y51721007D01*
X-23826840Y51387355D01*
X-23872840Y51387355D01*
X-23872840Y53828060D01*
X43776912Y53828060D01*
X43784288Y53753175D01*
X43806131Y53681168D01*
X43841602Y53614805D01*
X43889338Y53556638D01*
X43947505Y53508902D01*
X44013868Y53473431D01*
X44085875Y53451588D01*
X44160760Y53444212D01*
X44192260Y53446060D01*
X44287760Y53541560D01*
X44287760Y53955060D01*
X134033760Y53955060D01*
X134033760Y53541560D01*
X134129260Y53446060D01*
X134160760Y53444212D01*
X134235645Y53451588D01*
X134307652Y53473431D01*
X134374015Y53508902D01*
X134432182Y53556638D01*
X134479918Y53614805D01*
X134515389Y53681168D01*
X134537232Y53753175D01*
X134544608Y53828060D01*
X134542760Y53859560D01*
X134447260Y53955060D01*
X134033760Y53955060D01*
X44287760Y53955060D01*
X43874260Y53955060D01*
X43778760Y53859560D01*
X43776912Y53828060D01*
X-23872840Y53828060D01*
X-23872840Y54076798D01*
X-23184161Y54076798D01*
X-23184161Y53917722D01*
X-23077380Y53830065D01*
X-22910184Y53997260D01*
X-21289496Y53997260D01*
X-21122300Y53830065D01*
X-21015519Y53917722D01*
X-21015519Y54076798D01*
X-20684161Y54076798D01*
X-20684161Y53917722D01*
X-20577380Y53830065D01*
X-20410184Y53997260D01*
X-18789496Y53997260D01*
X-18622300Y53830065D01*
X-18515519Y53917722D01*
X-18515519Y54076798D01*
X-18184161Y54076798D01*
X-18184161Y53917722D01*
X-18077380Y53830065D01*
X-17910184Y53997260D01*
X-16289496Y53997260D01*
X-16122300Y53830065D01*
X-16015519Y53917722D01*
X-16015519Y54076798D01*
X-15684161Y54076798D01*
X-15684161Y53917722D01*
X-15577380Y53830065D01*
X-15410184Y53997260D01*
X-13789496Y53997260D01*
X-13622300Y53830065D01*
X-13515519Y53917722D01*
X-13515519Y54076798D01*
X-13184161Y54076798D01*
X-13184161Y53917722D01*
X-13077380Y53830065D01*
X-12910184Y53997260D01*
X-11289496Y53997260D01*
X-11122300Y53830065D01*
X-11015519Y53917722D01*
X-11015519Y54076798D01*
X-10684161Y54076798D01*
X-10684161Y53917722D01*
X-10577380Y53830065D01*
X-10410184Y53997260D01*
X-8789496Y53997260D01*
X-8622300Y53830065D01*
X-8515519Y53917722D01*
X-8515519Y54076798D01*
X-8622300Y54164455D01*
X-8789496Y53997260D01*
X-10410184Y53997260D01*
X-10577380Y54164455D01*
X-10684161Y54076798D01*
X-11015519Y54076798D01*
X-11122300Y54164455D01*
X-11289496Y53997260D01*
X-12910184Y53997260D01*
X-13077380Y54164455D01*
X-13184161Y54076798D01*
X-13515519Y54076798D01*
X-13622300Y54164455D01*
X-13789496Y53997260D01*
X-15410184Y53997260D01*
X-15577380Y54164455D01*
X-15684161Y54076798D01*
X-16015519Y54076798D01*
X-16122300Y54164455D01*
X-16289496Y53997260D01*
X-17910184Y53997260D01*
X-18077380Y54164455D01*
X-18184161Y54076798D01*
X-18515519Y54076798D01*
X-18622300Y54164455D01*
X-18789496Y53997260D01*
X-20410184Y53997260D01*
X-20577380Y54164455D01*
X-20684161Y54076798D01*
X-21015519Y54076798D01*
X-21122300Y54164455D01*
X-21289496Y53997260D01*
X-22910184Y53997260D01*
X-23077380Y54164455D01*
X-23184161Y54076798D01*
X-23872840Y54076798D01*
X-23872840Y54974800D01*
X-22267035Y54974800D01*
X-22099840Y54807604D01*
X-21932645Y54974800D01*
X-19767035Y54974800D01*
X-19599840Y54807604D01*
X-19432645Y54974800D01*
X-17267035Y54974800D01*
X-17099840Y54807604D01*
X-16932645Y54974800D01*
X-14767035Y54974800D01*
X-14599840Y54807604D01*
X-14432645Y54974800D01*
X-12267035Y54974800D01*
X-12099840Y54807604D01*
X-11932645Y54974800D01*
X-9767035Y54974800D01*
X-9599840Y54807604D01*
X-9432645Y54974800D01*
X-9520302Y55081581D01*
X-9679378Y55081581D01*
X-9767035Y54974800D01*
X-11932645Y54974800D01*
X-12020302Y55081581D01*
X-12179378Y55081581D01*
X-12267035Y54974800D01*
X-14432645Y54974800D01*
X-14520302Y55081581D01*
X-14679378Y55081581D01*
X-14767035Y54974800D01*
X-16932645Y54974800D01*
X-17020302Y55081581D01*
X-17179378Y55081581D01*
X-17267035Y54974800D01*
X-19432645Y54974800D01*
X-19520302Y55081581D01*
X-19679378Y55081581D01*
X-19767035Y54974800D01*
X-21932645Y54974800D01*
X-22020302Y55081581D01*
X-22179378Y55081581D01*
X-22267035Y54974800D01*
X-23872840Y54974800D01*
X-23872840Y56019720D01*
X-22267035Y56019720D01*
X-22179378Y55912939D01*
X-22020302Y55912939D01*
X-21932645Y56019720D01*
X-19767035Y56019720D01*
X-19679378Y55912939D01*
X-19520302Y55912939D01*
X-19432645Y56019720D01*
X-17267035Y56019720D01*
X-17179378Y55912939D01*
X-17020302Y55912939D01*
X-16932645Y56019720D01*
X-14767035Y56019720D01*
X-14679378Y55912939D01*
X-14520302Y55912939D01*
X-14432645Y56019720D01*
X-12267035Y56019720D01*
X-12179378Y55912939D01*
X-12020302Y55912939D01*
X-11932645Y56019720D01*
X-9767035Y56019720D01*
X-9679378Y55912939D01*
X-9520302Y55912939D01*
X-9432645Y56019720D01*
X-9599840Y56186916D01*
X-9767035Y56019720D01*
X-11932645Y56019720D01*
X-12099840Y56186916D01*
X-12267035Y56019720D01*
X-14432645Y56019720D01*
X-14599840Y56186916D01*
X-14767035Y56019720D01*
X-16932645Y56019720D01*
X-17099840Y56186916D01*
X-17267035Y56019720D01*
X-19432645Y56019720D01*
X-19599840Y56186916D01*
X-19767035Y56019720D01*
X-21932645Y56019720D01*
X-22099840Y56186916D01*
X-22267035Y56019720D01*
X-23872840Y56019720D01*
X-23872840Y57076798D01*
X-23184161Y57076798D01*
X-23184161Y56917722D01*
X-23077380Y56830065D01*
X-22910184Y56997260D01*
X-21289496Y56997260D01*
X-21122300Y56830065D01*
X-21015519Y56917722D01*
X-21015519Y57076798D01*
X-20684161Y57076798D01*
X-20684161Y56917722D01*
X-20577380Y56830065D01*
X-20410184Y56997260D01*
X-18789496Y56997260D01*
X-18622300Y56830065D01*
X-18515519Y56917722D01*
X-18515519Y57076798D01*
X-18184161Y57076798D01*
X-18184161Y56917722D01*
X-18077380Y56830065D01*
X-17910184Y56997260D01*
X-16289496Y56997260D01*
X-16122300Y56830065D01*
X-16015519Y56917722D01*
X-16015519Y57076798D01*
X-15684161Y57076798D01*
X-15684161Y56917722D01*
X-15577380Y56830065D01*
X-15410184Y56997260D01*
X-13789496Y56997260D01*
X-13622300Y56830065D01*
X-13515519Y56917722D01*
X-13515519Y57076798D01*
X-13184161Y57076798D01*
X-13184161Y56917722D01*
X-13077380Y56830065D01*
X-12910184Y56997260D01*
X-11289496Y56997260D01*
X-11122300Y56830065D01*
X-11015519Y56917722D01*
X-11015519Y57076798D01*
X-10684161Y57076798D01*
X-10684161Y56917722D01*
X-10577380Y56830065D01*
X-10410184Y56997260D01*
X-8789496Y56997260D01*
X-8622300Y56830065D01*
X-8515519Y56917722D01*
X-8515519Y57076798D01*
X-8622300Y57164455D01*
X-8789496Y56997260D01*
X-10410184Y56997260D01*
X-10577380Y57164455D01*
X-10684161Y57076798D01*
X-11015519Y57076798D01*
X-11122300Y57164455D01*
X-11289496Y56997260D01*
X-12910184Y56997260D01*
X-13077380Y57164455D01*
X-13184161Y57076798D01*
X-13515519Y57076798D01*
X-13622300Y57164455D01*
X-13789496Y56997260D01*
X-15410184Y56997260D01*
X-15577380Y57164455D01*
X-15684161Y57076798D01*
X-16015519Y57076798D01*
X-16122300Y57164455D01*
X-16289496Y56997260D01*
X-17910184Y56997260D01*
X-18077380Y57164455D01*
X-18184161Y57076798D01*
X-18515519Y57076798D01*
X-18622300Y57164455D01*
X-18789496Y56997260D01*
X-20410184Y56997260D01*
X-20577380Y57164455D01*
X-20684161Y57076798D01*
X-21015519Y57076798D01*
X-21122300Y57164455D01*
X-21289496Y56997260D01*
X-22910184Y56997260D01*
X-23077380Y57164455D01*
X-23184161Y57076798D01*
X-23872840Y57076798D01*
X-23872840Y57974800D01*
X-22267035Y57974800D01*
X-22099840Y57807604D01*
X-21932645Y57974800D01*
X-19767035Y57974800D01*
X-19599840Y57807604D01*
X-19432645Y57974800D01*
X-17267035Y57974800D01*
X-17099840Y57807604D01*
X-16932645Y57974800D01*
X-14767035Y57974800D01*
X-14599840Y57807604D01*
X-14432645Y57974800D01*
X-12267035Y57974800D01*
X-12099840Y57807604D01*
X-11932645Y57974800D01*
X-9767035Y57974800D01*
X-9599840Y57807604D01*
X-9432645Y57974800D01*
X-9520302Y58081581D01*
X-9679378Y58081581D01*
X-9767035Y57974800D01*
X-11932645Y57974800D01*
X-12020302Y58081581D01*
X-12179378Y58081581D01*
X-12267035Y57974800D01*
X-14432645Y57974800D01*
X-14520302Y58081581D01*
X-14679378Y58081581D01*
X-14767035Y57974800D01*
X-16932645Y57974800D01*
X-17020302Y58081581D01*
X-17179378Y58081581D01*
X-17267035Y57974800D01*
X-19432645Y57974800D01*
X-19520302Y58081581D01*
X-19679378Y58081581D01*
X-19767035Y57974800D01*
X-21932645Y57974800D01*
X-22020302Y58081581D01*
X-22179378Y58081581D01*
X-22267035Y57974800D01*
X-23872840Y57974800D01*
X-23872840Y58799720D01*
X-22267035Y58799720D01*
X-22179378Y58692939D01*
X-22020302Y58692939D01*
X-21932645Y58799720D01*
X-19767035Y58799720D01*
X-19679378Y58692939D01*
X-19520302Y58692939D01*
X-19432645Y58799720D01*
X-17267035Y58799720D01*
X-17179378Y58692939D01*
X-17020302Y58692939D01*
X-16932645Y58799720D01*
X-14767035Y58799720D01*
X-14679378Y58692939D01*
X-14520302Y58692939D01*
X-14432645Y58799720D01*
X-12267035Y58799720D01*
X-12179378Y58692939D01*
X-12020302Y58692939D01*
X-11932645Y58799720D01*
X-9767035Y58799720D01*
X-9679378Y58692939D01*
X-9520302Y58692939D01*
X-9432645Y58799720D01*
X-9599840Y58966916D01*
X-9767035Y58799720D01*
X-11932645Y58799720D01*
X-12099840Y58966916D01*
X-12267035Y58799720D01*
X-14432645Y58799720D01*
X-14599840Y58966916D01*
X-14767035Y58799720D01*
X-16932645Y58799720D01*
X-17099840Y58966916D01*
X-17267035Y58799720D01*
X-19432645Y58799720D01*
X-19599840Y58966916D01*
X-19767035Y58799720D01*
X-21932645Y58799720D01*
X-22099840Y58966916D01*
X-22267035Y58799720D01*
X-23872840Y58799720D01*
X-23872840Y59856798D01*
X-23184161Y59856798D01*
X-23184161Y59697722D01*
X-23077380Y59610065D01*
X-22910184Y59777260D01*
X-21289496Y59777260D01*
X-21122300Y59610065D01*
X-21015519Y59697722D01*
X-21015519Y59856798D01*
X-20684161Y59856798D01*
X-20684161Y59697722D01*
X-20577380Y59610065D01*
X-20410184Y59777260D01*
X-18789496Y59777260D01*
X-18622300Y59610065D01*
X-18515519Y59697722D01*
X-18515519Y59856798D01*
X-18184161Y59856798D01*
X-18184161Y59697722D01*
X-18077380Y59610065D01*
X-17910184Y59777260D01*
X-16289496Y59777260D01*
X-16122300Y59610065D01*
X-16015519Y59697722D01*
X-16015519Y59856798D01*
X-15684161Y59856798D01*
X-15684161Y59697722D01*
X-15577380Y59610065D01*
X-15410184Y59777260D01*
X-13789496Y59777260D01*
X-13622300Y59610065D01*
X-13515519Y59697722D01*
X-13515519Y59856798D01*
X-13184161Y59856798D01*
X-13184161Y59697722D01*
X-13077380Y59610065D01*
X-12910184Y59777260D01*
X-11289496Y59777260D01*
X-11122300Y59610065D01*
X-11015519Y59697722D01*
X-11015519Y59856798D01*
X-10684161Y59856798D01*
X-10684161Y59697722D01*
X-10577380Y59610065D01*
X-10410184Y59777260D01*
X-8789496Y59777260D01*
X-8622300Y59610065D01*
X-8515519Y59697722D01*
X-8515519Y59856798D01*
X-8622300Y59944455D01*
X-8789496Y59777260D01*
X-10410184Y59777260D01*
X-10577380Y59944455D01*
X-10684161Y59856798D01*
X-11015519Y59856798D01*
X-11122300Y59944455D01*
X-11289496Y59777260D01*
X-12910184Y59777260D01*
X-13077380Y59944455D01*
X-13184161Y59856798D01*
X-13515519Y59856798D01*
X-13622300Y59944455D01*
X-13789496Y59777260D01*
X-15410184Y59777260D01*
X-15577380Y59944455D01*
X-15684161Y59856798D01*
X-16015519Y59856798D01*
X-16122300Y59944455D01*
X-16289496Y59777260D01*
X-17910184Y59777260D01*
X-18077380Y59944455D01*
X-18184161Y59856798D01*
X-18515519Y59856798D01*
X-18622300Y59944455D01*
X-18789496Y59777260D01*
X-20410184Y59777260D01*
X-20577380Y59944455D01*
X-20684161Y59856798D01*
X-21015519Y59856798D01*
X-21122300Y59944455D01*
X-21289496Y59777260D01*
X-22910184Y59777260D01*
X-23077380Y59944455D01*
X-23184161Y59856798D01*
X-23872840Y59856798D01*
X-23872840Y60754800D01*
X-22267035Y60754800D01*
X-22099840Y60587604D01*
X-21932645Y60754800D01*
X-19767035Y60754800D01*
X-19599840Y60587604D01*
X-19432645Y60754800D01*
X-17267035Y60754800D01*
X-17099840Y60587604D01*
X-16932645Y60754800D01*
X-14767035Y60754800D01*
X-14599840Y60587604D01*
X-14432645Y60754800D01*
X-12267035Y60754800D01*
X-12099840Y60587604D01*
X-11932645Y60754800D01*
X-9767035Y60754800D01*
X-9599840Y60587604D01*
X-9432645Y60754800D01*
X-9520302Y60861581D01*
X-9679378Y60861581D01*
X-9767035Y60754800D01*
X-11932645Y60754800D01*
X-12020302Y60861581D01*
X-12179378Y60861581D01*
X-12267035Y60754800D01*
X-14432645Y60754800D01*
X-14520302Y60861581D01*
X-14679378Y60861581D01*
X-14767035Y60754800D01*
X-16932645Y60754800D01*
X-17020302Y60861581D01*
X-17179378Y60861581D01*
X-17267035Y60754800D01*
X-19432645Y60754800D01*
X-19520302Y60861581D01*
X-19679378Y60861581D01*
X-19767035Y60754800D01*
X-21932645Y60754800D01*
X-22020302Y60861581D01*
X-22179378Y60861581D01*
X-22267035Y60754800D01*
X-23872840Y60754800D01*
X-23872840Y61799720D01*
X-22267035Y61799720D01*
X-22179378Y61692939D01*
X-22020302Y61692939D01*
X-21932645Y61799720D01*
X-19767035Y61799720D01*
X-19679378Y61692939D01*
X-19520302Y61692939D01*
X-19432645Y61799720D01*
X-17267035Y61799720D01*
X-17179378Y61692939D01*
X-17020302Y61692939D01*
X-16932645Y61799720D01*
X-14767035Y61799720D01*
X-14679378Y61692939D01*
X-14520302Y61692939D01*
X-14432645Y61799720D01*
X-12267035Y61799720D01*
X-12179378Y61692939D01*
X-12020302Y61692939D01*
X-11932645Y61799720D01*
X-9767035Y61799720D01*
X-9679378Y61692939D01*
X-9520302Y61692939D01*
X-9432645Y61799720D01*
X-9599840Y61966916D01*
X-9767035Y61799720D01*
X-11932645Y61799720D01*
X-12099840Y61966916D01*
X-12267035Y61799720D01*
X-14432645Y61799720D01*
X-14599840Y61966916D01*
X-14767035Y61799720D01*
X-16932645Y61799720D01*
X-17099840Y61966916D01*
X-17267035Y61799720D01*
X-19432645Y61799720D01*
X-19599840Y61966916D01*
X-19767035Y61799720D01*
X-21932645Y61799720D01*
X-22099840Y61966916D01*
X-22267035Y61799720D01*
X-23872840Y61799720D01*
X-23872840Y62158312D01*
X68235538Y62158312D01*
X69139204Y61766219D01*
X72500160Y58405263D01*
X75861116Y61766219D01*
X68235538Y62158312D01*
X108235538Y62158312D01*
X109139204Y61766219D01*
X112500160Y58405263D01*
X115861116Y61766219D01*
X108235538Y62158312D01*
X68235538Y62158312D01*
X-23872840Y62158312D01*
X-23872840Y62856798D01*
X-23184161Y62856798D01*
X-23184161Y62697722D01*
X-23077380Y62610065D01*
X-22910184Y62777260D01*
X-21289496Y62777260D01*
X-21122300Y62610065D01*
X-21015519Y62697722D01*
X-21015519Y62856798D01*
X-20684161Y62856798D01*
X-20684161Y62697722D01*
X-20577380Y62610065D01*
X-20410184Y62777260D01*
X-18789496Y62777260D01*
X-18622300Y62610065D01*
X-18515519Y62697722D01*
X-18515519Y62856798D01*
X-18184161Y62856798D01*
X-18184161Y62697722D01*
X-18077380Y62610065D01*
X-17910184Y62777260D01*
X-16289496Y62777260D01*
X-16122300Y62610065D01*
X-16015519Y62697722D01*
X-16015519Y62856798D01*
X-15684161Y62856798D01*
X-15684161Y62697722D01*
X-15577380Y62610065D01*
X-15410184Y62777260D01*
X-13789496Y62777260D01*
X-13622300Y62610065D01*
X-13515519Y62697722D01*
X-13515519Y62856798D01*
X-13184161Y62856798D01*
X-13184161Y62697722D01*
X-13077380Y62610065D01*
X-12910184Y62777260D01*
X-11289496Y62777260D01*
X-11122300Y62610065D01*
X-11015519Y62697722D01*
X-11015519Y62856798D01*
X-10684161Y62856798D01*
X-10684161Y62697722D01*
X-10577380Y62610065D01*
X-10410184Y62777260D01*
X-8789496Y62777260D01*
X-8622300Y62610065D01*
X-8515519Y62697722D01*
X-8515519Y62856798D01*
X-8622300Y62944455D01*
X-8789496Y62777260D01*
X-10410184Y62777260D01*
X-10577380Y62944455D01*
X-10684161Y62856798D01*
X-11015519Y62856798D01*
X-11122300Y62944455D01*
X-11289496Y62777260D01*
X-12910184Y62777260D01*
X-13077380Y62944455D01*
X-13184161Y62856798D01*
X-13515519Y62856798D01*
X-13622300Y62944455D01*
X-13789496Y62777260D01*
X-15410184Y62777260D01*
X-15577380Y62944455D01*
X-15684161Y62856798D01*
X-16015519Y62856798D01*
X-16122300Y62944455D01*
X-16289496Y62777260D01*
X-17910184Y62777260D01*
X-18077380Y62944455D01*
X-18184161Y62856798D01*
X-18515519Y62856798D01*
X-18622300Y62944455D01*
X-18789496Y62777260D01*
X-20410184Y62777260D01*
X-20577380Y62944455D01*
X-20684161Y62856798D01*
X-21015519Y62856798D01*
X-21122300Y62944455D01*
X-21289496Y62777260D01*
X-22910184Y62777260D01*
X-23077380Y62944455D01*
X-23184161Y62856798D01*
X-23872840Y62856798D01*
X-23872840Y63754800D01*
X-22267035Y63754800D01*
X-22099840Y63587604D01*
X-21932645Y63754800D01*
X-19767035Y63754800D01*
X-19599840Y63587604D01*
X-19432645Y63754800D01*
X-17267035Y63754800D01*
X-17099840Y63587604D01*
X-16932645Y63754800D01*
X-14767035Y63754800D01*
X-14599840Y63587604D01*
X-14432645Y63754800D01*
X-12267035Y63754800D01*
X-12099840Y63587604D01*
X-11932645Y63754800D01*
X-9767035Y63754800D01*
X-9599840Y63587604D01*
X-9432645Y63754800D01*
X-9520302Y63861581D01*
X-9679378Y63861581D01*
X-9767035Y63754800D01*
X-11932645Y63754800D01*
X-12020302Y63861581D01*
X-12179378Y63861581D01*
X-12267035Y63754800D01*
X-14432645Y63754800D01*
X-14520302Y63861581D01*
X-14679378Y63861581D01*
X-14767035Y63754800D01*
X-16932645Y63754800D01*
X-17020302Y63861581D01*
X-17179378Y63861581D01*
X-17267035Y63754800D01*
X-19432645Y63754800D01*
X-19520302Y63861581D01*
X-19679378Y63861581D01*
X-19767035Y63754800D01*
X-21932645Y63754800D01*
X-22020302Y63861581D01*
X-22179378Y63861581D01*
X-22267035Y63754800D01*
X-23872840Y63754800D01*
X-23872840Y64579720D01*
X-22267035Y64579720D01*
X-22179378Y64472939D01*
X-22020302Y64472939D01*
X-21932645Y64579720D01*
X-19767035Y64579720D01*
X-19679378Y64472939D01*
X-19520302Y64472939D01*
X-19432645Y64579720D01*
X-17267035Y64579720D01*
X-17179378Y64472939D01*
X-17020302Y64472939D01*
X-16932645Y64579720D01*
X-14767035Y64579720D01*
X-14679378Y64472939D01*
X-14520302Y64472939D01*
X-14432645Y64579720D01*
X-12267035Y64579720D01*
X-12179378Y64472939D01*
X-12020302Y64472939D01*
X-11932645Y64579720D01*
X-9767035Y64579720D01*
X-9679378Y64472939D01*
X-9520302Y64472939D01*
X-9442564Y64567638D01*
X79174108Y64567638D01*
X119174108Y64567638D01*
X119566201Y65471304D01*
X122927157Y68832260D01*
X119566201Y72193216D01*
X119174108Y64567638D01*
X79174108Y64567638D01*
X79566201Y65471304D01*
X82927157Y68832260D01*
X102073163Y68832260D01*
X105434119Y65471304D01*
X105826212Y73096882D01*
X105434119Y72193216D01*
X102073163Y68832260D01*
X82927157Y68832260D01*
X79566201Y72193216D01*
X79174108Y64567638D01*
X-9442564Y64567638D01*
X-9432645Y64579720D01*
X-9599840Y64746916D01*
X-9767035Y64579720D01*
X-11932645Y64579720D01*
X-12099840Y64746916D01*
X-12267035Y64579720D01*
X-14432645Y64579720D01*
X-14599840Y64746916D01*
X-14767035Y64579720D01*
X-16932645Y64579720D01*
X-17099840Y64746916D01*
X-17267035Y64579720D01*
X-19432645Y64579720D01*
X-19599840Y64746916D01*
X-19767035Y64579720D01*
X-21932645Y64579720D01*
X-22099840Y64746916D01*
X-22267035Y64579720D01*
X-23872840Y64579720D01*
X-23872840Y65636798D01*
X-23184161Y65636798D01*
X-23184161Y65477722D01*
X-23077380Y65390065D01*
X-22910184Y65557260D01*
X-21289496Y65557260D01*
X-21122300Y65390065D01*
X-21015519Y65477722D01*
X-21015519Y65636798D01*
X-20684161Y65636798D01*
X-20684161Y65477722D01*
X-20577380Y65390065D01*
X-20410184Y65557260D01*
X-18789496Y65557260D01*
X-18622300Y65390065D01*
X-18515519Y65477722D01*
X-18515519Y65636798D01*
X-18184161Y65636798D01*
X-18184161Y65477722D01*
X-18077380Y65390065D01*
X-17910184Y65557260D01*
X-16289496Y65557260D01*
X-16122300Y65390065D01*
X-16015519Y65477722D01*
X-16015519Y65636798D01*
X-15684161Y65636798D01*
X-15684161Y65477722D01*
X-15577380Y65390065D01*
X-15410184Y65557260D01*
X-13789496Y65557260D01*
X-13622300Y65390065D01*
X-13515519Y65477722D01*
X-13515519Y65636798D01*
X-13184161Y65636798D01*
X-13184161Y65477722D01*
X-13077380Y65390065D01*
X-12910184Y65557260D01*
X-11289496Y65557260D01*
X-11122300Y65390065D01*
X-11015519Y65477722D01*
X-11015519Y65636798D01*
X-10684161Y65636798D01*
X-10684161Y65477722D01*
X-10577380Y65390065D01*
X-10410184Y65557260D01*
X-8789496Y65557260D01*
X-8622300Y65390065D01*
X-8515519Y65477722D01*
X-8515519Y65636798D01*
X-8622300Y65724455D01*
X-8789496Y65557260D01*
X-10410184Y65557260D01*
X-10577380Y65724455D01*
X-10684161Y65636798D01*
X-11015519Y65636798D01*
X-11122300Y65724455D01*
X-11289496Y65557260D01*
X-12910184Y65557260D01*
X-13077380Y65724455D01*
X-13184161Y65636798D01*
X-13515519Y65636798D01*
X-13622300Y65724455D01*
X-13789496Y65557260D01*
X-15410184Y65557260D01*
X-15577380Y65724455D01*
X-15684161Y65636798D01*
X-16015519Y65636798D01*
X-16122300Y65724455D01*
X-16289496Y65557260D01*
X-17910184Y65557260D01*
X-18077380Y65724455D01*
X-18184161Y65636798D01*
X-18515519Y65636798D01*
X-18622300Y65724455D01*
X-18789496Y65557260D01*
X-20410184Y65557260D01*
X-20577380Y65724455D01*
X-20684161Y65636798D01*
X-21015519Y65636798D01*
X-21122300Y65724455D01*
X-21289496Y65557260D01*
X-22910184Y65557260D01*
X-23077380Y65724455D01*
X-23184161Y65636798D01*
X-23872840Y65636798D01*
X-23872840Y66534800D01*
X-22267035Y66534800D01*
X-22099840Y66367604D01*
X-21932645Y66534800D01*
X-19767035Y66534800D01*
X-19599840Y66367604D01*
X-19432645Y66534800D01*
X-17267035Y66534800D01*
X-17099840Y66367604D01*
X-16932645Y66534800D01*
X-14767035Y66534800D01*
X-14599840Y66367604D01*
X-14432645Y66534800D01*
X-12267035Y66534800D01*
X-12099840Y66367604D01*
X-11932645Y66534800D01*
X-9767035Y66534800D01*
X-9599840Y66367604D01*
X-9432645Y66534800D01*
X-9520302Y66641581D01*
X-9679378Y66641581D01*
X-9767035Y66534800D01*
X-11932645Y66534800D01*
X-12020302Y66641581D01*
X-12179378Y66641581D01*
X-12267035Y66534800D01*
X-14432645Y66534800D01*
X-14520302Y66641581D01*
X-14679378Y66641581D01*
X-14767035Y66534800D01*
X-16932645Y66534800D01*
X-17020302Y66641581D01*
X-17179378Y66641581D01*
X-17267035Y66534800D01*
X-19432645Y66534800D01*
X-19520302Y66641581D01*
X-19679378Y66641581D01*
X-19767035Y66534800D01*
X-21932645Y66534800D01*
X-22020302Y66641581D01*
X-22179378Y66641581D01*
X-22267035Y66534800D01*
X-23872840Y66534800D01*
X-23872840Y67579720D01*
X-22267035Y67579720D01*
X-22179378Y67472939D01*
X-22020302Y67472939D01*
X-21932645Y67579720D01*
X-19767035Y67579720D01*
X-19679378Y67472939D01*
X-19520302Y67472939D01*
X-19432645Y67579720D01*
X-17267035Y67579720D01*
X-17179378Y67472939D01*
X-17020302Y67472939D01*
X-16932645Y67579720D01*
X-14767035Y67579720D01*
X-14679378Y67472939D01*
X-14520302Y67472939D01*
X-14432645Y67579720D01*
X-12267035Y67579720D01*
X-12179378Y67472939D01*
X-12020302Y67472939D01*
X-11932645Y67579720D01*
X-9767035Y67579720D01*
X-9679378Y67472939D01*
X-9520302Y67472939D01*
X-9432645Y67579720D01*
X-9599840Y67746916D01*
X-9767035Y67579720D01*
X-11932645Y67579720D01*
X-12099840Y67746916D01*
X-12267035Y67579720D01*
X-14432645Y67579720D01*
X-14599840Y67746916D01*
X-14767035Y67579720D01*
X-16932645Y67579720D01*
X-17099840Y67746916D01*
X-17267035Y67579720D01*
X-19432645Y67579720D01*
X-19599840Y67746916D01*
X-19767035Y67579720D01*
X-21932645Y67579720D01*
X-22099840Y67746916D01*
X-22267035Y67579720D01*
X-23872840Y67579720D01*
X-23872840Y68636798D01*
X-23184161Y68636798D01*
X-23184161Y68477722D01*
X-23077380Y68390065D01*
X-22910184Y68557260D01*
X-21289496Y68557260D01*
X-21122300Y68390065D01*
X-21015519Y68477722D01*
X-21015519Y68636798D01*
X-20684161Y68636798D01*
X-20684161Y68477722D01*
X-20577380Y68390065D01*
X-20410184Y68557260D01*
X-18789496Y68557260D01*
X-18622300Y68390065D01*
X-18515519Y68477722D01*
X-18515519Y68636798D01*
X-18184161Y68636798D01*
X-18184161Y68477722D01*
X-18077380Y68390065D01*
X-17910184Y68557260D01*
X-16289496Y68557260D01*
X-16122300Y68390065D01*
X-16015519Y68477722D01*
X-16015519Y68636798D01*
X-15684161Y68636798D01*
X-15684161Y68477722D01*
X-15577380Y68390065D01*
X-15410184Y68557260D01*
X-13789496Y68557260D01*
X-13622300Y68390065D01*
X-13515519Y68477722D01*
X-13515519Y68636798D01*
X-13184161Y68636798D01*
X-13184161Y68477722D01*
X-13077380Y68390065D01*
X-12910184Y68557260D01*
X-11289496Y68557260D01*
X-11122300Y68390065D01*
X-11015519Y68477722D01*
X-11015519Y68636798D01*
X-10684161Y68636798D01*
X-10684161Y68477722D01*
X-10577380Y68390065D01*
X-10410184Y68557260D01*
X-8789496Y68557260D01*
X-8622300Y68390065D01*
X-8515519Y68477722D01*
X-8515519Y68636798D01*
X-8622300Y68724455D01*
X-8789496Y68557260D01*
X-10410184Y68557260D01*
X-10577380Y68724455D01*
X-10684161Y68636798D01*
X-11015519Y68636798D01*
X-11122300Y68724455D01*
X-11289496Y68557260D01*
X-12910184Y68557260D01*
X-13077380Y68724455D01*
X-13184161Y68636798D01*
X-13515519Y68636798D01*
X-13622300Y68724455D01*
X-13789496Y68557260D01*
X-15410184Y68557260D01*
X-15577380Y68724455D01*
X-15684161Y68636798D01*
X-16015519Y68636798D01*
X-16122300Y68724455D01*
X-16289496Y68557260D01*
X-17910184Y68557260D01*
X-18077380Y68724455D01*
X-18184161Y68636798D01*
X-18515519Y68636798D01*
X-18622300Y68724455D01*
X-18789496Y68557260D01*
X-20410184Y68557260D01*
X-20577380Y68724455D01*
X-20684161Y68636798D01*
X-21015519Y68636798D01*
X-21122300Y68724455D01*
X-21289496Y68557260D01*
X-22910184Y68557260D01*
X-23077380Y68724455D01*
X-23184161Y68636798D01*
X-23872840Y68636798D01*
X-23872840Y68832260D01*
X62073163Y68832260D01*
X65434119Y65471304D01*
X65826212Y73096882D01*
X65434119Y72193216D01*
X62073163Y68832260D01*
X-23872840Y68832260D01*
X-23872840Y69534800D01*
X-22267035Y69534800D01*
X-22099840Y69367604D01*
X-21932645Y69534800D01*
X-19767035Y69534800D01*
X-19599840Y69367604D01*
X-19432645Y69534800D01*
X-17267035Y69534800D01*
X-17099840Y69367604D01*
X-16932645Y69534800D01*
X-14767035Y69534800D01*
X-14599840Y69367604D01*
X-14432645Y69534800D01*
X-12267035Y69534800D01*
X-12099840Y69367604D01*
X-11932645Y69534800D01*
X-9767035Y69534800D01*
X-9599840Y69367604D01*
X-9432645Y69534800D01*
X-9520302Y69641581D01*
X-9679378Y69641581D01*
X-9767035Y69534800D01*
X-11932645Y69534800D01*
X-12020302Y69641581D01*
X-12179378Y69641581D01*
X-12267035Y69534800D01*
X-14432645Y69534800D01*
X-14520302Y69641581D01*
X-14679378Y69641581D01*
X-14767035Y69534800D01*
X-16932645Y69534800D01*
X-17020302Y69641581D01*
X-17179378Y69641581D01*
X-17267035Y69534800D01*
X-19432645Y69534800D01*
X-19520302Y69641581D01*
X-19679378Y69641581D01*
X-19767035Y69534800D01*
X-21932645Y69534800D01*
X-22020302Y69641581D01*
X-22179378Y69641581D01*
X-22267035Y69534800D01*
X-23872840Y69534800D01*
X-23872840Y70359720D01*
X-22267035Y70359720D01*
X-22179378Y70252939D01*
X-22020302Y70252939D01*
X-21932645Y70359720D01*
X-19767035Y70359720D01*
X-19679378Y70252939D01*
X-19520302Y70252939D01*
X-19432645Y70359720D01*
X-17267035Y70359720D01*
X-17179378Y70252939D01*
X-17020302Y70252939D01*
X-16932645Y70359720D01*
X-14767035Y70359720D01*
X-14679378Y70252939D01*
X-14520302Y70252939D01*
X-14432645Y70359720D01*
X-12267035Y70359720D01*
X-12179378Y70252939D01*
X-12020302Y70252939D01*
X-11932645Y70359720D01*
X-9767035Y70359720D01*
X-9679378Y70252939D01*
X-9520302Y70252939D01*
X-9432645Y70359720D01*
X-9599840Y70526916D01*
X-9767035Y70359720D01*
X-11932645Y70359720D01*
X-12099840Y70526916D01*
X-12267035Y70359720D01*
X-14432645Y70359720D01*
X-14599840Y70526916D01*
X-14767035Y70359720D01*
X-16932645Y70359720D01*
X-17099840Y70526916D01*
X-17267035Y70359720D01*
X-19432645Y70359720D01*
X-19599840Y70526916D01*
X-19767035Y70359720D01*
X-21932645Y70359720D01*
X-22099840Y70526916D01*
X-22267035Y70359720D01*
X-23872840Y70359720D01*
X-23872840Y70643040D01*
X3229112Y70643040D01*
X3236488Y70568155D01*
X3258331Y70496148D01*
X3293802Y70429785D01*
X3341538Y70371618D01*
X3399705Y70323882D01*
X3466068Y70288411D01*
X3538075Y70266568D01*
X3612960Y70259192D01*
X3644460Y70261040D01*
X3739960Y70356540D01*
X3739960Y70770040D01*
X4755960Y70770040D01*
X4755960Y70356540D01*
X4851460Y70261040D01*
X4882960Y70259192D01*
X4957845Y70266568D01*
X5029852Y70288411D01*
X5096215Y70323882D01*
X5154382Y70371618D01*
X5202118Y70429785D01*
X5237589Y70496148D01*
X5259432Y70568155D01*
X5266808Y70643040D01*
X5264960Y70674540D01*
X5169460Y70770040D01*
X4755960Y70770040D01*
X3739960Y70770040D01*
X3326460Y70770040D01*
X3230960Y70674540D01*
X3229112Y70643040D01*
X-23872840Y70643040D01*
X-23872840Y71416798D01*
X-23184161Y71416798D01*
X-23184161Y71257722D01*
X-23077380Y71170065D01*
X-22910184Y71337260D01*
X-21289496Y71337260D01*
X-21122300Y71170065D01*
X-21015519Y71257722D01*
X-21015519Y71416798D01*
X-20684161Y71416798D01*
X-20684161Y71257722D01*
X-20577380Y71170065D01*
X-20410184Y71337260D01*
X-18789496Y71337260D01*
X-18622300Y71170065D01*
X-18515519Y71257722D01*
X-18515519Y71416798D01*
X-18184161Y71416798D01*
X-18184161Y71257722D01*
X-18077380Y71170065D01*
X-17910184Y71337260D01*
X-16289496Y71337260D01*
X-16122300Y71170065D01*
X-16015519Y71257722D01*
X-16015519Y71416798D01*
X-15684161Y71416798D01*
X-15684161Y71257722D01*
X-15577380Y71170065D01*
X-15410184Y71337260D01*
X-13789496Y71337260D01*
X-13622300Y71170065D01*
X-13515519Y71257722D01*
X-13515519Y71416798D01*
X-13184161Y71416798D01*
X-13184161Y71257722D01*
X-13077380Y71170065D01*
X-12910184Y71337260D01*
X-11289496Y71337260D01*
X-11122300Y71170065D01*
X-11015519Y71257722D01*
X-11015519Y71416798D01*
X-10684161Y71416798D01*
X-10684161Y71257722D01*
X-10577380Y71170065D01*
X-10410184Y71337260D01*
X-8789496Y71337260D01*
X-8622300Y71170065D01*
X-8515519Y71257722D01*
X-8515519Y71416798D01*
X-8622300Y71504455D01*
X-8789496Y71337260D01*
X-10410184Y71337260D01*
X-10577380Y71504455D01*
X-10684161Y71416798D01*
X-11015519Y71416798D01*
X-11122300Y71504455D01*
X-11289496Y71337260D01*
X-12910184Y71337260D01*
X-13077380Y71504455D01*
X-13184161Y71416798D01*
X-13515519Y71416798D01*
X-13622300Y71504455D01*
X-13789496Y71337260D01*
X-15410184Y71337260D01*
X-15577380Y71504455D01*
X-15684161Y71416798D01*
X-16015519Y71416798D01*
X-16122300Y71504455D01*
X-16289496Y71337260D01*
X-17910184Y71337260D01*
X-18077380Y71504455D01*
X-18184161Y71416798D01*
X-18515519Y71416798D01*
X-18622300Y71504455D01*
X-18789496Y71337260D01*
X-20410184Y71337260D01*
X-20577380Y71504455D01*
X-20684161Y71416798D01*
X-21015519Y71416798D01*
X-21122300Y71504455D01*
X-21289496Y71337260D01*
X-22910184Y71337260D01*
X-23077380Y71504455D01*
X-23184161Y71416798D01*
X-23872840Y71416798D01*
X-23872840Y72314800D01*
X-22267035Y72314800D01*
X-22099840Y72147604D01*
X-21932645Y72314800D01*
X-19767035Y72314800D01*
X-19599840Y72147604D01*
X-19432645Y72314800D01*
X-17267035Y72314800D01*
X-17099840Y72147604D01*
X-16932645Y72314800D01*
X-14767035Y72314800D01*
X-14599840Y72147604D01*
X-14432645Y72314800D01*
X-12267035Y72314800D01*
X-12099840Y72147604D01*
X-11932645Y72314800D01*
X-9767035Y72314800D01*
X-9599840Y72147604D01*
X-9432645Y72314800D01*
X-9520302Y72421581D01*
X-9679378Y72421581D01*
X-9767035Y72314800D01*
X-11932645Y72314800D01*
X-12020302Y72421581D01*
X-12179378Y72421581D01*
X-12267035Y72314800D01*
X-14432645Y72314800D01*
X-14520302Y72421581D01*
X-14679378Y72421581D01*
X-14767035Y72314800D01*
X-16932645Y72314800D01*
X-17020302Y72421581D01*
X-17179378Y72421581D01*
X-17267035Y72314800D01*
X-19432645Y72314800D01*
X-19520302Y72421581D01*
X-19679378Y72421581D01*
X-19767035Y72314800D01*
X-21932645Y72314800D01*
X-22020302Y72421581D01*
X-22179378Y72421581D01*
X-22267035Y72314800D01*
X-23872840Y72314800D01*
X-23872840Y73359720D01*
X-22267035Y73359720D01*
X-22179378Y73252939D01*
X-22020302Y73252939D01*
X-21932645Y73359720D01*
X-19767035Y73359720D01*
X-19679378Y73252939D01*
X-19520302Y73252939D01*
X-19432645Y73359720D01*
X-17267035Y73359720D01*
X-17179378Y73252939D01*
X-17020302Y73252939D01*
X-16932645Y73359720D01*
X-14767035Y73359720D01*
X-14679378Y73252939D01*
X-14520302Y73252939D01*
X-14432645Y73359720D01*
X-12267035Y73359720D01*
X-12179378Y73252939D01*
X-12020302Y73252939D01*
X-11932645Y73359720D01*
X-9767035Y73359720D01*
X-9679378Y73252939D01*
X-9520302Y73252939D01*
X-9432645Y73359720D01*
X-9599840Y73526916D01*
X-9767035Y73359720D01*
X-11932645Y73359720D01*
X-12099840Y73526916D01*
X-12267035Y73359720D01*
X-14432645Y73359720D01*
X-14599840Y73526916D01*
X-14767035Y73359720D01*
X-16932645Y73359720D01*
X-17099840Y73526916D01*
X-17267035Y73359720D01*
X-19432645Y73359720D01*
X-19599840Y73526916D01*
X-19767035Y73359720D01*
X-21932645Y73359720D01*
X-22099840Y73526916D01*
X-22267035Y73359720D01*
X-23872840Y73359720D01*
X-23872840Y74416798D01*
X-23184161Y74416798D01*
X-23184161Y74257722D01*
X-23077380Y74170065D01*
X-22910184Y74337260D01*
X-21289496Y74337260D01*
X-21122300Y74170065D01*
X-21015519Y74257722D01*
X-21015519Y74416798D01*
X-20684161Y74416798D01*
X-20684161Y74257722D01*
X-20577380Y74170065D01*
X-20410184Y74337260D01*
X-18789496Y74337260D01*
X-18622300Y74170065D01*
X-18515519Y74257722D01*
X-18515519Y74416798D01*
X-18184161Y74416798D01*
X-18184161Y74257722D01*
X-18077380Y74170065D01*
X-17910184Y74337260D01*
X-16289496Y74337260D01*
X-16122300Y74170065D01*
X-16015519Y74257722D01*
X-16015519Y74416798D01*
X-15684161Y74416798D01*
X-15684161Y74257722D01*
X-15577380Y74170065D01*
X-15410184Y74337260D01*
X-13789496Y74337260D01*
X-13622300Y74170065D01*
X-13515519Y74257722D01*
X-13515519Y74416798D01*
X-13184161Y74416798D01*
X-13184161Y74257722D01*
X-13077380Y74170065D01*
X-12910184Y74337260D01*
X-11289496Y74337260D01*
X-11122300Y74170065D01*
X-11015519Y74257722D01*
X-11015519Y74416798D01*
X-10684161Y74416798D01*
X-10684161Y74257722D01*
X-10577380Y74170065D01*
X-10410184Y74337260D01*
X-8789496Y74337260D01*
X-8622300Y74170065D01*
X-8515519Y74257722D01*
X-8515519Y74416798D01*
X-8622300Y74504455D01*
X-8789496Y74337260D01*
X-10410184Y74337260D01*
X-10577380Y74504455D01*
X-10684161Y74416798D01*
X-11015519Y74416798D01*
X-11122300Y74504455D01*
X-11289496Y74337260D01*
X-12910184Y74337260D01*
X-13077380Y74504455D01*
X-13184161Y74416798D01*
X-13515519Y74416798D01*
X-13622300Y74504455D01*
X-13789496Y74337260D01*
X-15410184Y74337260D01*
X-15577380Y74504455D01*
X-15684161Y74416798D01*
X-16015519Y74416798D01*
X-16122300Y74504455D01*
X-16289496Y74337260D01*
X-17910184Y74337260D01*
X-18077380Y74504455D01*
X-18184161Y74416798D01*
X-18515519Y74416798D01*
X-18622300Y74504455D01*
X-18789496Y74337260D01*
X-20410184Y74337260D01*
X-20577380Y74504455D01*
X-20684161Y74416798D01*
X-21015519Y74416798D01*
X-21122300Y74504455D01*
X-21289496Y74337260D01*
X-22910184Y74337260D01*
X-23077380Y74504455D01*
X-23184161Y74416798D01*
X-23872840Y74416798D01*
X-23872840Y75314800D01*
X-22267035Y75314800D01*
X-22099840Y75147604D01*
X-21932645Y75314800D01*
X-19767035Y75314800D01*
X-19599840Y75147604D01*
X-19432645Y75314800D01*
X-17267035Y75314800D01*
X-17099840Y75147604D01*
X-16932645Y75314800D01*
X-14767035Y75314800D01*
X-14599840Y75147604D01*
X-14432645Y75314800D01*
X-12267035Y75314800D01*
X-12099840Y75147604D01*
X-11932645Y75314800D01*
X-9767035Y75314800D01*
X-9599840Y75147604D01*
X-9432645Y75314800D01*
X-9520302Y75421581D01*
X-9679378Y75421581D01*
X-9767035Y75314800D01*
X-11932645Y75314800D01*
X-12020302Y75421581D01*
X-12179378Y75421581D01*
X-12267035Y75314800D01*
X-14432645Y75314800D01*
X-14520302Y75421581D01*
X-14679378Y75421581D01*
X-14767035Y75314800D01*
X-16932645Y75314800D01*
X-17020302Y75421581D01*
X-17179378Y75421581D01*
X-17267035Y75314800D01*
X-19432645Y75314800D01*
X-19520302Y75421581D01*
X-19679378Y75421581D01*
X-19767035Y75314800D01*
X-21932645Y75314800D01*
X-22020302Y75421581D01*
X-22179378Y75421581D01*
X-22267035Y75314800D01*
X-23872840Y75314800D01*
X-23872840Y75591928D01*
X-429040Y75591928D01*
X-429040Y75094152D01*
X-331929Y74605941D01*
X-141438Y74146057D01*
X135111Y73732171D01*
X487091Y73380191D01*
X900977Y73103642D01*
X1360861Y72913151D01*
X1849072Y72816040D01*
X2346848Y72816040D01*
X2835059Y72913151D01*
X3283569Y73098931D01*
X3326460Y73056040D01*
X3739960Y73056040D01*
X3739960Y73411322D01*
X3798178Y73469540D01*
X4755960Y73469540D01*
X4755960Y73056040D01*
X5169460Y73056040D01*
X5264960Y73151540D01*
X5266808Y73183040D01*
X5580991Y73183040D01*
X5580991Y70643040D01*
X5600820Y70441713D01*
X5659545Y70248123D01*
X5754909Y70069709D01*
X5883248Y69913328D01*
X6039629Y69784989D01*
X6218043Y69689625D01*
X6411633Y69630900D01*
X6612960Y69611071D01*
X7882960Y69611071D01*
X8084287Y69630900D01*
X8277877Y69689625D01*
X8456291Y69784989D01*
X8612672Y69913328D01*
X8741011Y70069709D01*
X8836375Y70248123D01*
X8878212Y70386040D01*
X12060479Y70386040D01*
X12135480Y70378653D01*
X12210481Y70386040D01*
X12210491Y70386040D01*
X12434824Y70408135D01*
X12722665Y70495450D01*
X12987940Y70637243D01*
X13220456Y70828064D01*
X13268277Y70886333D01*
X14776612Y72394668D01*
X14919616Y72568919D01*
X15061410Y72834195D01*
X15148725Y73122035D01*
X15178207Y73421380D01*
X15148725Y73720724D01*
X15061410Y74008565D01*
X14919616Y74273840D01*
X14728796Y74506356D01*
X14496280Y74697176D01*
X14231005Y74838970D01*
X13943164Y74926285D01*
X13643820Y74955767D01*
X13344475Y74926285D01*
X13056635Y74838970D01*
X12791359Y74697176D01*
X12617108Y74554172D01*
X11502977Y73440040D01*
X11068678Y73440040D01*
X11360809Y73732171D01*
X11637358Y74146057D01*
X11827849Y74605941D01*
X11924960Y75094152D01*
X11924960Y75591928D01*
X11864019Y75898301D01*
X69139204Y75898301D01*
X76764782Y75506208D01*
X75861116Y75898301D01*
X109139204Y75898301D01*
X116764782Y75506208D01*
X115861116Y75898301D01*
X112500160Y79259257D01*
X109139204Y75898301D01*
X75861116Y75898301D01*
X72500160Y79259257D01*
X69139204Y75898301D01*
X11864019Y75898301D01*
X11827849Y76080139D01*
X11637358Y76540023D01*
X11360809Y76953909D01*
X11008829Y77305889D01*
X10594943Y77582438D01*
X10135059Y77772929D01*
X9646848Y77870040D01*
X9149072Y77870040D01*
X8660861Y77772929D01*
X8200977Y77582438D01*
X7787091Y77305889D01*
X7435111Y76953909D01*
X7158562Y76540023D01*
X6968071Y76080139D01*
X6870960Y75591928D01*
X6870960Y75094152D01*
X6968071Y74605941D01*
X7130001Y74215009D01*
X6612960Y74215009D01*
X6411633Y74195180D01*
X6218043Y74136455D01*
X6039629Y74041091D01*
X5883248Y73912752D01*
X5754909Y73756371D01*
X5659545Y73577957D01*
X5600820Y73384367D01*
X5580991Y73183040D01*
X5266808Y73183040D01*
X5259432Y73257925D01*
X5237589Y73329932D01*
X5202118Y73396295D01*
X5154382Y73454462D01*
X5096215Y73502198D01*
X5029852Y73537669D01*
X4957845Y73559512D01*
X4882960Y73566888D01*
X4851460Y73565040D01*
X4755960Y73469540D01*
X3798178Y73469540D01*
X4060809Y73732171D01*
X4337358Y74146057D01*
X4527849Y74605941D01*
X4624960Y75094152D01*
X4624960Y75591928D01*
X4527849Y76080139D01*
X4337358Y76540023D01*
X4060809Y76953909D01*
X3708829Y77305889D01*
X3294943Y77582438D01*
X2835059Y77772929D01*
X2346848Y77870040D01*
X1849072Y77870040D01*
X1360861Y77772929D01*
X900977Y77582438D01*
X487091Y77305889D01*
X135111Y76953909D01*
X-141438Y76540023D01*
X-331929Y76080139D01*
X-429040Y75591928D01*
X-23872840Y75591928D01*
X-23872840Y79440620D01*
X-19976840Y79440620D01*
X-19976840Y78873900D01*
X-19866279Y78318070D01*
X-19649405Y77794489D01*
X-19334552Y77323279D01*
X-18933821Y76922548D01*
X-18462611Y76607695D01*
X-17939030Y76390821D01*
X-17383200Y76280260D01*
X-16816480Y76280260D01*
X-16260650Y76390821D01*
X-15737069Y76607695D01*
X-15265859Y76922548D01*
X-14865128Y77323279D01*
X-14550275Y77794489D01*
X-14333401Y78318070D01*
X-14222840Y78873900D01*
X-14222840Y79440620D01*
X-14333401Y79996450D01*
X-14550275Y80520031D01*
X-14865128Y80991241D01*
X-15265859Y81391972D01*
X-15737069Y81706825D01*
X-16260650Y81923699D01*
X-16816480Y82034260D01*
X-17383200Y82034260D01*
X-17939030Y81923699D01*
X-18462611Y81706825D01*
X-18933821Y81391972D01*
X-19334552Y80991241D01*
X-19649405Y80520031D01*
X-19866279Y79996450D01*
X-19976840Y79440620D01*
X-23872840Y79440620D01*
X-23872840Y83828060D01*
X43776912Y83828060D01*
X43778760Y83796560D01*
X43874260Y83701060D01*
X44287760Y83701060D01*
X44287760Y84114560D01*
X134033760Y84114560D01*
X134033760Y83701060D01*
X134447260Y83701060D01*
X134542760Y83796560D01*
X134544608Y83828060D01*
X134537232Y83902945D01*
X134515389Y83974952D01*
X134479918Y84041315D01*
X134432182Y84099482D01*
X134374015Y84147218D01*
X134307652Y84182689D01*
X134235645Y84204532D01*
X134160760Y84211908D01*
X134129260Y84210060D01*
X134033760Y84114560D01*
X44287760Y84114560D01*
X44192260Y84210060D01*
X44160760Y84211908D01*
X44085875Y84204532D01*
X44013868Y84182689D01*
X43947505Y84147218D01*
X43889338Y84099482D01*
X43841602Y84041315D01*
X43806131Y83974952D01*
X43784288Y83902945D01*
X43776912Y83828060D01*
X-23872840Y83828060D01*
X-23872840Y90349639D01*
X-3526840Y90349639D01*
X-3526840Y89654881D01*
X-3391300Y88973472D01*
X-3125427Y88331599D01*
X-2739440Y87753928D01*
X-2248172Y87262660D01*
X-1670501Y86876673D01*
X-1028628Y86610800D01*
X-347219Y86475260D01*
X347539Y86475260D01*
X1028948Y86610800D01*
X1670821Y86876673D01*
X2248492Y87262660D01*
X2739760Y87753928D01*
X3125747Y88331599D01*
X3391620Y88973472D01*
X3527160Y89654881D01*
X3527160Y90349639D01*
X136473160Y90349639D01*
X136473160Y89654881D01*
X136608700Y88973472D01*
X136874573Y88331599D01*
X137260560Y87753928D01*
X137751828Y87262660D01*
X138329499Y86876673D01*
X138971372Y86610800D01*
X139652781Y86475260D01*
X140347539Y86475260D01*
X141028948Y86610800D01*
X141670821Y86876673D01*
X142248492Y87262660D01*
X142739760Y87753928D01*
X143125747Y88331599D01*
X143391620Y88973472D01*
X143527160Y89654881D01*
X143527160Y90349639D01*
X143391620Y91031048D01*
X143125747Y91672921D01*
X142739760Y92250592D01*
X142248492Y92741860D01*
X141670821Y93127847D01*
X141028948Y93393720D01*
X140347539Y93529260D01*
X139652781Y93529260D01*
X138971372Y93393720D01*
X138329499Y93127847D01*
X137751828Y92741860D01*
X137260560Y92250592D01*
X136874573Y91672921D01*
X136608700Y91031048D01*
X136473160Y90349639D01*
X3527160Y90349639D01*
X3391620Y91031048D01*
X3125747Y91672921D01*
X2739760Y92250592D01*
X2248492Y92741860D01*
X1670821Y93127847D01*
X1028948Y93393720D01*
X347539Y93529260D01*
X-347219Y93529260D01*
X-1028628Y93393720D01*
X-1670501Y93127847D01*
X-2248172Y92741860D01*
X-2739440Y92250592D01*
X-3125427Y91672921D01*
X-3391300Y91031048D01*
X-3526840Y90349639D01*
X-23872840Y90349639D01*
X-23872840Y92535442D01*
X-22533021Y93875260D01*
X142533342Y93875260D01*
X143873161Y92535440D01*
G37*
X143873161Y92535440D02*
X143873160Y42818967D01*
X135185215Y42755580D01*
X41046447Y42755580D01*
X40969080Y42763200D01*
X40554123Y42722330D01*
X40155112Y42601292D01*
X39787382Y42404736D01*
X39465064Y42140216D01*
X36221484Y38896636D01*
X35956964Y38574318D01*
X35760408Y38206588D01*
X35639370Y37807577D01*
X35598500Y37392620D01*
X35598500Y2266960D01*
X35639370Y1852003D01*
X35760408Y1452992D01*
X35956964Y1085262D01*
X36221484Y762944D01*
X40855168Y-3870740D01*
X-22533021Y-3870740D01*
X-23872840Y-2530922D01*
X-23872840Y349639D01*
X-3526840Y349639D01*
X-3526840Y-345119D01*
X-3391300Y-1026528D01*
X-3125427Y-1668401D01*
X-2739440Y-2246072D01*
X-2248172Y-2737340D01*
X-1670501Y-3123327D01*
X-1028628Y-3389200D01*
X-347219Y-3524740D01*
X347539Y-3524740D01*
X1028948Y-3389200D01*
X1670821Y-3123327D01*
X2248492Y-2737340D01*
X2739760Y-2246072D01*
X3125747Y-1668401D01*
X3391620Y-1026528D01*
X3527160Y-345119D01*
X3527160Y349639D01*
X3391620Y1031048D01*
X3125747Y1672921D01*
X2739760Y2250592D01*
X2248492Y2741860D01*
X1670821Y3127847D01*
X1028948Y3393720D01*
X347539Y3529260D01*
X-347219Y3529260D01*
X-1028628Y3393720D01*
X-1670501Y3127847D01*
X-2248172Y2741860D01*
X-2739440Y2250592D01*
X-3125427Y1672921D01*
X-3391300Y1031048D01*
X-3526840Y349639D01*
X-23872840Y349639D01*
X-23872840Y11120620D01*
X-19976840Y11120620D01*
X-19976840Y10553900D01*
X-19866279Y9998070D01*
X-19649405Y9474489D01*
X-19334552Y9003279D01*
X-18933821Y8602548D01*
X-18462611Y8287695D01*
X-17939030Y8070821D01*
X-17383200Y7960260D01*
X-16816480Y7960260D01*
X-16260650Y8070821D01*
X-15737069Y8287695D01*
X-15265859Y8602548D01*
X-14865128Y9003279D01*
X-14550275Y9474489D01*
X-14335335Y9993401D01*
X5454488Y9993401D01*
X5530505Y9894207D01*
X5645832Y9993401D01*
X5550160Y10089073D01*
X5454488Y9993401D01*
X-14335335Y9993401D01*
X-14333401Y9998070D01*
X-14222840Y10553900D01*
X-14222840Y11120620D01*
X-14333401Y11676450D01*
X-14550275Y12200031D01*
X-14865128Y12671241D01*
X-15265859Y13071972D01*
X-15737069Y13386825D01*
X-16144941Y13555771D01*
X-2776840Y13555771D01*
X-2776840Y13008749D01*
X-2670122Y12472239D01*
X-2460786Y11966857D01*
X-2156877Y11512026D01*
X-1770074Y11125223D01*
X-1315243Y10821314D01*
X-809861Y10611978D01*
X-273351Y10505260D01*
X273671Y10505260D01*
X810181Y10611978D01*
X1315563Y10821314D01*
X1770394Y11125223D01*
X1847086Y11201915D01*
X4262107Y11201915D01*
X4361301Y11086588D01*
X4456973Y11182260D01*
X6643347Y11182260D01*
X6739019Y11086588D01*
X6838213Y11162605D01*
X6739019Y11277932D01*
X6643347Y11182260D01*
X4456973Y11182260D01*
X4361301Y11277932D01*
X4262107Y11201915D01*
X1847086Y11201915D01*
X2157197Y11512026D01*
X2461106Y11966857D01*
X2628556Y12371119D01*
X5454488Y12371119D01*
X5550160Y12275447D01*
X5645832Y12371119D01*
X5569815Y12470313D01*
X5454488Y12371119D01*
X2628556Y12371119D01*
X2670442Y12472239D01*
X2777160Y13008749D01*
X2777160Y13555771D01*
X2670442Y14092281D01*
X2461106Y14597663D01*
X2157197Y15052494D01*
X1770394Y15439297D01*
X1571712Y15572053D01*
X3623160Y15572053D01*
X3623160Y15192467D01*
X3697213Y14820175D01*
X3842475Y14469483D01*
X4053361Y14153869D01*
X4321769Y13885461D01*
X4637383Y13674575D01*
X4988075Y13529313D01*
X5360367Y13455260D01*
X5739953Y13455260D01*
X6112245Y13529313D01*
X6462937Y13674575D01*
X6778551Y13885461D01*
X7046959Y14153869D01*
X7257845Y14469483D01*
X7403107Y14820175D01*
X7444894Y15030255D01*
X7629926Y14845223D01*
X8084757Y14541314D01*
X8590139Y14331978D01*
X9126649Y14225260D01*
X9673671Y14225260D01*
X10210181Y14331978D01*
X10715563Y14541314D01*
X11170394Y14845223D01*
X11557197Y15232026D01*
X11861106Y15686857D01*
X12070442Y16192239D01*
X12177160Y16728749D01*
X12177160Y17275771D01*
X12070442Y17812281D01*
X11861106Y18317663D01*
X11557197Y18772494D01*
X11170394Y19159297D01*
X10715563Y19463206D01*
X10210181Y19672542D01*
X9673671Y19779260D01*
X9126649Y19779260D01*
X8590139Y19672542D01*
X8084757Y19463206D01*
X7629926Y19159297D01*
X7243123Y18772494D01*
X6939214Y18317663D01*
X6729878Y17812281D01*
X6623160Y17275771D01*
X6623160Y16982888D01*
X6462937Y17089945D01*
X6112245Y17235207D01*
X5739953Y17309260D01*
X5360367Y17309260D01*
X4988075Y17235207D01*
X4637383Y17089945D01*
X4321769Y16879059D01*
X4053361Y16610651D01*
X3842475Y16295037D01*
X3697213Y15944345D01*
X3623160Y15572053D01*
X1571712Y15572053D01*
X1315563Y15743206D01*
X810181Y15952542D01*
X273671Y16059260D01*
X-273351Y16059260D01*
X-809861Y15952542D01*
X-1315243Y15743206D01*
X-1770074Y15439297D01*
X-2156877Y15052494D01*
X-2460786Y14597663D01*
X-2670122Y14092281D01*
X-2776840Y13555771D01*
X-16144941Y13555771D01*
X-16260650Y13603699D01*
X-16816480Y13714260D01*
X-17383200Y13714260D01*
X-17939030Y13603699D01*
X-18462611Y13386825D01*
X-18933821Y13071972D01*
X-19334552Y12671241D01*
X-19649405Y12200031D01*
X-19866279Y11676450D01*
X-19976840Y11120620D01*
X-23872840Y11120620D01*
X-23872840Y25927656D01*
X-23626840Y25927656D01*
X-23626840Y25626864D01*
X-23568159Y25331850D01*
X-23453050Y25053954D01*
X-23285939Y24803854D01*
X-23259345Y24777260D01*
X-23285939Y24750666D01*
X-23453050Y24500566D01*
X-23568159Y24222670D01*
X-23626840Y23927656D01*
X-23626840Y23626864D01*
X-23568159Y23331850D01*
X-23453050Y23053954D01*
X-23285939Y22803854D01*
X-23259345Y22777260D01*
X-23285939Y22750666D01*
X-23453050Y22500566D01*
X-23568159Y22222670D01*
X-23626840Y21927656D01*
X-23626840Y21626864D01*
X-23568159Y21331850D01*
X-23453050Y21053954D01*
X-23285939Y20803854D01*
X-23259345Y20777260D01*
X-23285939Y20750666D01*
X-23453050Y20500566D01*
X-23568159Y20222670D01*
X-23626840Y19927656D01*
X-23626840Y19626864D01*
X-23568159Y19331850D01*
X-23453050Y19053954D01*
X-23285939Y18803854D01*
X-23259345Y18777260D01*
X-23285939Y18750666D01*
X-23453050Y18500566D01*
X-23568159Y18222670D01*
X-23626840Y17927656D01*
X-23626840Y17626864D01*
X-23568159Y17331850D01*
X-23453050Y17053954D01*
X-23285939Y16803854D01*
X-23259345Y16777260D01*
X-23285939Y16750666D01*
X-23453050Y16500566D01*
X-23568159Y16222670D01*
X-23626840Y15927656D01*
X-23626840Y15626864D01*
X-23568159Y15331850D01*
X-23453050Y15053954D01*
X-23285939Y14803854D01*
X-23073246Y14591161D01*
X-22823146Y14424050D01*
X-22545250Y14308941D01*
X-22250236Y14250260D01*
X-21949444Y14250260D01*
X-21654430Y14308941D01*
X-21376534Y14424050D01*
X-21126434Y14591161D01*
X-21099840Y14617755D01*
X-21073246Y14591161D01*
X-20823146Y14424050D01*
X-20545250Y14308941D01*
X-20250236Y14250260D01*
X-19949444Y14250260D01*
X-19654430Y14308941D01*
X-19376534Y14424050D01*
X-19126434Y14591161D01*
X-19099840Y14617755D01*
X-19073246Y14591161D01*
X-18823146Y14424050D01*
X-18545250Y14308941D01*
X-18250236Y14250260D01*
X-17949444Y14250260D01*
X-17654430Y14308941D01*
X-17376534Y14424050D01*
X-17126434Y14591161D01*
X-17099840Y14617755D01*
X-17073246Y14591161D01*
X-16823146Y14424050D01*
X-16545250Y14308941D01*
X-16250236Y14250260D01*
X-15949444Y14250260D01*
X-15654430Y14308941D01*
X-15376534Y14424050D01*
X-15126434Y14591161D01*
X-15099840Y14617755D01*
X-15073246Y14591161D01*
X-14823146Y14424050D01*
X-14545250Y14308941D01*
X-14250236Y14250260D01*
X-13949444Y14250260D01*
X-13654430Y14308941D01*
X-13376534Y14424050D01*
X-13126434Y14591161D01*
X-12913741Y14803854D01*
X-12746630Y15053954D01*
X-12631521Y15331850D01*
X-12572840Y15626864D01*
X-12572840Y15927656D01*
X-12631521Y16222670D01*
X-12746630Y16500566D01*
X-12913741Y16750666D01*
X-12940335Y16777260D01*
X-12913741Y16803854D01*
X-12746630Y17053954D01*
X-12631521Y17331850D01*
X-12572840Y17626864D01*
X-12572840Y17927656D01*
X-12631521Y18222670D01*
X-12746630Y18500566D01*
X-12913741Y18750666D01*
X-12940335Y18777260D01*
X-12913741Y18803854D01*
X-12746630Y19053954D01*
X-12631521Y19331850D01*
X-12572840Y19626864D01*
X-12572840Y19927656D01*
X-12631521Y20222670D01*
X-12746630Y20500566D01*
X-12913741Y20750666D01*
X-12940335Y20777260D01*
X-12913741Y20803854D01*
X-12746630Y21053954D01*
X-12631521Y21331850D01*
X-12572840Y21626864D01*
X-12572840Y21927656D01*
X-12631521Y22222670D01*
X-12746630Y22500566D01*
X-12913741Y22750666D01*
X-12940335Y22777260D01*
X-12913741Y22803854D01*
X-12746630Y23053954D01*
X-12631521Y23331850D01*
X-12572840Y23626864D01*
X-12572840Y23927656D01*
X-12631521Y24222670D01*
X-12746630Y24500566D01*
X-12913741Y24750666D01*
X-12940335Y24777260D01*
X-12913741Y24803854D01*
X-12746630Y25053954D01*
X-12631521Y25331850D01*
X-12572840Y25626864D01*
X-12572840Y25927656D01*
X-12631521Y26222670D01*
X-12746630Y26500566D01*
X-12913741Y26750666D01*
X-13126434Y26963359D01*
X-13376534Y27130470D01*
X-13654430Y27245579D01*
X-13949444Y27304260D01*
X-14250236Y27304260D01*
X-14545250Y27245579D01*
X-14823146Y27130470D01*
X-15073246Y26963359D01*
X-15099840Y26936765D01*
X-15126434Y26963359D01*
X-15376534Y27130470D01*
X-15654430Y27245579D01*
X-15949444Y27304260D01*
X-16250236Y27304260D01*
X-16545250Y27245579D01*
X-16823146Y27130470D01*
X-17073246Y26963359D01*
X-17099840Y26936765D01*
X-17126434Y26963359D01*
X-17376534Y27130470D01*
X-17654430Y27245579D01*
X-17949444Y27304260D01*
X-18250236Y27304260D01*
X-18545250Y27245579D01*
X-18823146Y27130470D01*
X-19073246Y26963359D01*
X-19099840Y26936765D01*
X-19126434Y26963359D01*
X-19376534Y27130470D01*
X-19654430Y27245579D01*
X-19949444Y27304260D01*
X-20250236Y27304260D01*
X-20545250Y27245579D01*
X-20823146Y27130470D01*
X-21073246Y26963359D01*
X-21099840Y26936765D01*
X-21126434Y26963359D01*
X-21376534Y27130470D01*
X-21654430Y27245579D01*
X-21949444Y27304260D01*
X-22250236Y27304260D01*
X-22545250Y27245579D01*
X-22823146Y27130470D01*
X-23073246Y26963359D01*
X-23285939Y26750666D01*
X-23453050Y26500566D01*
X-23568159Y26222670D01*
X-23626840Y25927656D01*
X-23872840Y25927656D01*
X-23872840Y51387355D01*
X-23826840Y51387355D01*
X-23826840Y51047165D01*
X-23760472Y50713513D01*
X-23630287Y50399219D01*
X-23441288Y50116362D01*
X-23200738Y49875812D01*
X-22963448Y49717260D01*
X-23200738Y49558708D01*
X-23441288Y49318158D01*
X-23630287Y49035301D01*
X-23760472Y48721007D01*
X-23826840Y48387355D01*
X-23826840Y48047165D01*
X-23760472Y47713513D01*
X-23630287Y47399219D01*
X-23441288Y47116362D01*
X-23200738Y46875812D01*
X-23128075Y46827260D01*
X-23200738Y46778708D01*
X-23441288Y46538158D01*
X-23630287Y46255301D01*
X-23760472Y45941007D01*
X-23826840Y45607355D01*
X-23826840Y45267165D01*
X-23760472Y44933513D01*
X-23630287Y44619219D01*
X-23441288Y44336362D01*
X-23200738Y44095812D01*
X-22963448Y43937260D01*
X-23200738Y43778708D01*
X-23441288Y43538158D01*
X-23630287Y43255301D01*
X-23760472Y42941007D01*
X-23826840Y42607355D01*
X-23826840Y42267165D01*
X-23760472Y41933513D01*
X-23630287Y41619219D01*
X-23441288Y41336362D01*
X-23200738Y41095812D01*
X-23128075Y41047260D01*
X-23200738Y40998708D01*
X-23441288Y40758158D01*
X-23630287Y40475301D01*
X-23760472Y40161007D01*
X-23826840Y39827355D01*
X-23826840Y39487165D01*
X-23760472Y39153513D01*
X-23630287Y38839219D01*
X-23441288Y38556362D01*
X-23200738Y38315812D01*
X-22963448Y38157260D01*
X-23200738Y37998708D01*
X-23441288Y37758158D01*
X-23630287Y37475301D01*
X-23760472Y37161007D01*
X-23826840Y36827355D01*
X-23826840Y36487165D01*
X-23760472Y36153513D01*
X-23630287Y35839219D01*
X-23441288Y35556362D01*
X-23200738Y35315812D01*
X-23128075Y35267260D01*
X-23200738Y35218708D01*
X-23441288Y34978158D01*
X-23630287Y34695301D01*
X-23760472Y34381007D01*
X-23826840Y34047355D01*
X-23826840Y33707165D01*
X-23760472Y33373513D01*
X-23630287Y33059219D01*
X-23441288Y32776362D01*
X-23200738Y32535812D01*
X-22963448Y32377260D01*
X-23200738Y32218708D01*
X-23441288Y31978158D01*
X-23630287Y31695301D01*
X-23760472Y31381007D01*
X-23826840Y31047355D01*
X-23826840Y30707165D01*
X-23760472Y30373513D01*
X-23630287Y30059219D01*
X-23441288Y29776362D01*
X-23200738Y29535812D01*
X-22917881Y29346813D01*
X-22603587Y29216628D01*
X-22269935Y29150260D01*
X-21929745Y29150260D01*
X-21596093Y29216628D01*
X-21281799Y29346813D01*
X-20998942Y29535812D01*
X-20849840Y29684914D01*
X-20700738Y29535812D01*
X-20417881Y29346813D01*
X-20103587Y29216628D01*
X-19769935Y29150260D01*
X-19429745Y29150260D01*
X-19096093Y29216628D01*
X-18781799Y29346813D01*
X-18498942Y29535812D01*
X-18349840Y29684914D01*
X-18200738Y29535812D01*
X-17917881Y29346813D01*
X-17603587Y29216628D01*
X-17269935Y29150260D01*
X-16929745Y29150260D01*
X-16596093Y29216628D01*
X-16281799Y29346813D01*
X-15998942Y29535812D01*
X-15849840Y29684914D01*
X-15700738Y29535812D01*
X-15417881Y29346813D01*
X-15103587Y29216628D01*
X-14769935Y29150260D01*
X-14429745Y29150260D01*
X-14096093Y29216628D01*
X-13781799Y29346813D01*
X-13498942Y29535812D01*
X-13349840Y29684914D01*
X-13200738Y29535812D01*
X-12917881Y29346813D01*
X-12603587Y29216628D01*
X-12269935Y29150260D01*
X-11929745Y29150260D01*
X-11596093Y29216628D01*
X-11281799Y29346813D01*
X-10998942Y29535812D01*
X-10849840Y29684914D01*
X-10700738Y29535812D01*
X-10417881Y29346813D01*
X-10103587Y29216628D01*
X-9769935Y29150260D01*
X-9429745Y29150260D01*
X-9096093Y29216628D01*
X-8781799Y29346813D01*
X-8498942Y29535812D01*
X-8258392Y29776362D01*
X-8069393Y30059219D01*
X-7939208Y30373513D01*
X-7872840Y30707165D01*
X-7872840Y31047355D01*
X-7939208Y31381007D01*
X-8069393Y31695301D01*
X-8258392Y31978158D01*
X-8498942Y32218708D01*
X-8736232Y32377260D01*
X-8498942Y32535812D01*
X-8258392Y32776362D01*
X-8069393Y33059219D01*
X-7939208Y33373513D01*
X-7872840Y33707165D01*
X-7872840Y34047355D01*
X-7939208Y34381007D01*
X-8069393Y34695301D01*
X-8258392Y34978158D01*
X-8498942Y35218708D01*
X-8571605Y35267260D01*
X-8498942Y35315812D01*
X-8258392Y35556362D01*
X-8069393Y35839219D01*
X-7939208Y36153513D01*
X-7872840Y36487165D01*
X-7872840Y36827355D01*
X-7939208Y37161007D01*
X-8069393Y37475301D01*
X-8258392Y37758158D01*
X-8498942Y37998708D01*
X-8736232Y38157260D01*
X-8498942Y38315812D01*
X-8258392Y38556362D01*
X-8069393Y38839219D01*
X-7939208Y39153513D01*
X-7872840Y39487165D01*
X-7872840Y39827355D01*
X-7939208Y40161007D01*
X-8069393Y40475301D01*
X-8258392Y40758158D01*
X-8498942Y40998708D01*
X-8571605Y41047260D01*
X-8498942Y41095812D01*
X-8258392Y41336362D01*
X-8069393Y41619219D01*
X-7939208Y41933513D01*
X-7872840Y42267165D01*
X-7872840Y42607355D01*
X-7939208Y42941007D01*
X-8069393Y43255301D01*
X-8258392Y43538158D01*
X-8498942Y43778708D01*
X-8736232Y43937260D01*
X-8498942Y44095812D01*
X-8258392Y44336362D01*
X-8069393Y44619219D01*
X-7939208Y44933513D01*
X-7872840Y45267165D01*
X-7872840Y45607355D01*
X-7939208Y45941007D01*
X-8069393Y46255301D01*
X-8258392Y46538158D01*
X-8498942Y46778708D01*
X-8571605Y46827260D01*
X-8498942Y46875812D01*
X-8258392Y47116362D01*
X-8069393Y47399219D01*
X-7939208Y47713513D01*
X-7872840Y48047165D01*
X-7872840Y48387355D01*
X-7939208Y48721007D01*
X-8069393Y49035301D01*
X-8258392Y49318158D01*
X-8498942Y49558708D01*
X-8736232Y49717260D01*
X-8498942Y49875812D01*
X-8258392Y50116362D01*
X-8069393Y50399219D01*
X-7939208Y50713513D01*
X-7872840Y51047165D01*
X-7872840Y51387355D01*
X-7939208Y51721007D01*
X-8069393Y52035301D01*
X-8258392Y52318158D01*
X-8498942Y52558708D01*
X-8781799Y52747707D01*
X-9096093Y52877892D01*
X-9429745Y52944260D01*
X-9494590Y52944260D01*
X-9432645Y53019720D01*
X-9599840Y53186916D01*
X-9767035Y53019720D01*
X-9705090Y52944260D01*
X-9769935Y52944260D01*
X-10103587Y52877892D01*
X-10417881Y52747707D01*
X-10700738Y52558708D01*
X-10849840Y52409606D01*
X-10998942Y52558708D01*
X-11281799Y52747707D01*
X-11596093Y52877892D01*
X-11929745Y52944260D01*
X-11994590Y52944260D01*
X-11932645Y53019720D01*
X-12099840Y53186916D01*
X-12267035Y53019720D01*
X-12205090Y52944260D01*
X-12269935Y52944260D01*
X-12603587Y52877892D01*
X-12917881Y52747707D01*
X-13200738Y52558708D01*
X-13349840Y52409606D01*
X-13498942Y52558708D01*
X-13781799Y52747707D01*
X-14096093Y52877892D01*
X-14429745Y52944260D01*
X-14494590Y52944260D01*
X-14432645Y53019720D01*
X-14599840Y53186916D01*
X-14767035Y53019720D01*
X-14705090Y52944260D01*
X-14769935Y52944260D01*
X-15103587Y52877892D01*
X-15417881Y52747707D01*
X-15700738Y52558708D01*
X-15849840Y52409606D01*
X-15998942Y52558708D01*
X-16281799Y52747707D01*
X-16596093Y52877892D01*
X-16929745Y52944260D01*
X-16994590Y52944260D01*
X-16932645Y53019720D01*
X-17099840Y53186916D01*
X-17267035Y53019720D01*
X-17205090Y52944260D01*
X-17269935Y52944260D01*
X-17603587Y52877892D01*
X-17917881Y52747707D01*
X-18200738Y52558708D01*
X-18349840Y52409606D01*
X-18498942Y52558708D01*
X-18781799Y52747707D01*
X-19096093Y52877892D01*
X-19429745Y52944260D01*
X-19494590Y52944260D01*
X-19432645Y53019720D01*
X-19599840Y53186916D01*
X-19767035Y53019720D01*
X-19705090Y52944260D01*
X-19769935Y52944260D01*
X-20103587Y52877892D01*
X-20417881Y52747707D01*
X-20700738Y52558708D01*
X-20849840Y52409606D01*
X-20998942Y52558708D01*
X-21281799Y52747707D01*
X-21596093Y52877892D01*
X-21929745Y52944260D01*
X-21994590Y52944260D01*
X-21932645Y53019720D01*
X-22099840Y53186916D01*
X-22267035Y53019720D01*
X-22205090Y52944260D01*
X-22269935Y52944260D01*
X-22603587Y52877892D01*
X-22917881Y52747707D01*
X-23200738Y52558708D01*
X-23441288Y52318158D01*
X-23630287Y52035301D01*
X-23760472Y51721007D01*
X-23826840Y51387355D01*
X-23872840Y51387355D01*
X-23872840Y53828060D01*
X43776912Y53828060D01*
X43784288Y53753175D01*
X43806131Y53681168D01*
X43841602Y53614805D01*
X43889338Y53556638D01*
X43947505Y53508902D01*
X44013868Y53473431D01*
X44085875Y53451588D01*
X44160760Y53444212D01*
X44192260Y53446060D01*
X44287760Y53541560D01*
X44287760Y53955060D01*
X134033760Y53955060D01*
X134033760Y53541560D01*
X134129260Y53446060D01*
X134160760Y53444212D01*
X134235645Y53451588D01*
X134307652Y53473431D01*
X134374015Y53508902D01*
X134432182Y53556638D01*
X134479918Y53614805D01*
X134515389Y53681168D01*
X134537232Y53753175D01*
X134544608Y53828060D01*
X134542760Y53859560D01*
X134447260Y53955060D01*
X134033760Y53955060D01*
X44287760Y53955060D01*
X43874260Y53955060D01*
X43778760Y53859560D01*
X43776912Y53828060D01*
X-23872840Y53828060D01*
X-23872840Y54076798D01*
X-23184161Y54076798D01*
X-23184161Y53917722D01*
X-23077380Y53830065D01*
X-22910184Y53997260D01*
X-21289496Y53997260D01*
X-21122300Y53830065D01*
X-21015519Y53917722D01*
X-21015519Y54076798D01*
X-20684161Y54076798D01*
X-20684161Y53917722D01*
X-20577380Y53830065D01*
X-20410184Y53997260D01*
X-18789496Y53997260D01*
X-18622300Y53830065D01*
X-18515519Y53917722D01*
X-18515519Y54076798D01*
X-18184161Y54076798D01*
X-18184161Y53917722D01*
X-18077380Y53830065D01*
X-17910184Y53997260D01*
X-16289496Y53997260D01*
X-16122300Y53830065D01*
X-16015519Y53917722D01*
X-16015519Y54076798D01*
X-15684161Y54076798D01*
X-15684161Y53917722D01*
X-15577380Y53830065D01*
X-15410184Y53997260D01*
X-13789496Y53997260D01*
X-13622300Y53830065D01*
X-13515519Y53917722D01*
X-13515519Y54076798D01*
X-13184161Y54076798D01*
X-13184161Y53917722D01*
X-13077380Y53830065D01*
X-12910184Y53997260D01*
X-11289496Y53997260D01*
X-11122300Y53830065D01*
X-11015519Y53917722D01*
X-11015519Y54076798D01*
X-10684161Y54076798D01*
X-10684161Y53917722D01*
X-10577380Y53830065D01*
X-10410184Y53997260D01*
X-8789496Y53997260D01*
X-8622300Y53830065D01*
X-8515519Y53917722D01*
X-8515519Y54076798D01*
X-8622300Y54164455D01*
X-8789496Y53997260D01*
X-10410184Y53997260D01*
X-10577380Y54164455D01*
X-10684161Y54076798D01*
X-11015519Y54076798D01*
X-11122300Y54164455D01*
X-11289496Y53997260D01*
X-12910184Y53997260D01*
X-13077380Y54164455D01*
X-13184161Y54076798D01*
X-13515519Y54076798D01*
X-13622300Y54164455D01*
X-13789496Y53997260D01*
X-15410184Y53997260D01*
X-15577380Y54164455D01*
X-15684161Y54076798D01*
X-16015519Y54076798D01*
X-16122300Y54164455D01*
X-16289496Y53997260D01*
X-17910184Y53997260D01*
X-18077380Y54164455D01*
X-18184161Y54076798D01*
X-18515519Y54076798D01*
X-18622300Y54164455D01*
X-18789496Y53997260D01*
X-20410184Y53997260D01*
X-20577380Y54164455D01*
X-20684161Y54076798D01*
X-21015519Y54076798D01*
X-21122300Y54164455D01*
X-21289496Y53997260D01*
X-22910184Y53997260D01*
X-23077380Y54164455D01*
X-23184161Y54076798D01*
X-23872840Y54076798D01*
X-23872840Y54974800D01*
X-22267035Y54974800D01*
X-22099840Y54807604D01*
X-21932645Y54974800D01*
X-19767035Y54974800D01*
X-19599840Y54807604D01*
X-19432645Y54974800D01*
X-17267035Y54974800D01*
X-17099840Y54807604D01*
X-16932645Y54974800D01*
X-14767035Y54974800D01*
X-14599840Y54807604D01*
X-14432645Y54974800D01*
X-12267035Y54974800D01*
X-12099840Y54807604D01*
X-11932645Y54974800D01*
X-9767035Y54974800D01*
X-9599840Y54807604D01*
X-9432645Y54974800D01*
X-9520302Y55081581D01*
X-9679378Y55081581D01*
X-9767035Y54974800D01*
X-11932645Y54974800D01*
X-12020302Y55081581D01*
X-12179378Y55081581D01*
X-12267035Y54974800D01*
X-14432645Y54974800D01*
X-14520302Y55081581D01*
X-14679378Y55081581D01*
X-14767035Y54974800D01*
X-16932645Y54974800D01*
X-17020302Y55081581D01*
X-17179378Y55081581D01*
X-17267035Y54974800D01*
X-19432645Y54974800D01*
X-19520302Y55081581D01*
X-19679378Y55081581D01*
X-19767035Y54974800D01*
X-21932645Y54974800D01*
X-22020302Y55081581D01*
X-22179378Y55081581D01*
X-22267035Y54974800D01*
X-23872840Y54974800D01*
X-23872840Y56019720D01*
X-22267035Y56019720D01*
X-22179378Y55912939D01*
X-22020302Y55912939D01*
X-21932645Y56019720D01*
X-19767035Y56019720D01*
X-19679378Y55912939D01*
X-19520302Y55912939D01*
X-19432645Y56019720D01*
X-17267035Y56019720D01*
X-17179378Y55912939D01*
X-17020302Y55912939D01*
X-16932645Y56019720D01*
X-14767035Y56019720D01*
X-14679378Y55912939D01*
X-14520302Y55912939D01*
X-14432645Y56019720D01*
X-12267035Y56019720D01*
X-12179378Y55912939D01*
X-12020302Y55912939D01*
X-11932645Y56019720D01*
X-9767035Y56019720D01*
X-9679378Y55912939D01*
X-9520302Y55912939D01*
X-9432645Y56019720D01*
X-9599840Y56186916D01*
X-9767035Y56019720D01*
X-11932645Y56019720D01*
X-12099840Y56186916D01*
X-12267035Y56019720D01*
X-14432645Y56019720D01*
X-14599840Y56186916D01*
X-14767035Y56019720D01*
X-16932645Y56019720D01*
X-17099840Y56186916D01*
X-17267035Y56019720D01*
X-19432645Y56019720D01*
X-19599840Y56186916D01*
X-19767035Y56019720D01*
X-21932645Y56019720D01*
X-22099840Y56186916D01*
X-22267035Y56019720D01*
X-23872840Y56019720D01*
X-23872840Y57076798D01*
X-23184161Y57076798D01*
X-23184161Y56917722D01*
X-23077380Y56830065D01*
X-22910184Y56997260D01*
X-21289496Y56997260D01*
X-21122300Y56830065D01*
X-21015519Y56917722D01*
X-21015519Y57076798D01*
X-20684161Y57076798D01*
X-20684161Y56917722D01*
X-20577380Y56830065D01*
X-20410184Y56997260D01*
X-18789496Y56997260D01*
X-18622300Y56830065D01*
X-18515519Y56917722D01*
X-18515519Y57076798D01*
X-18184161Y57076798D01*
X-18184161Y56917722D01*
X-18077380Y56830065D01*
X-17910184Y56997260D01*
X-16289496Y56997260D01*
X-16122300Y56830065D01*
X-16015519Y56917722D01*
X-16015519Y57076798D01*
X-15684161Y57076798D01*
X-15684161Y56917722D01*
X-15577380Y56830065D01*
X-15410184Y56997260D01*
X-13789496Y56997260D01*
X-13622300Y56830065D01*
X-13515519Y56917722D01*
X-13515519Y57076798D01*
X-13184161Y57076798D01*
X-13184161Y56917722D01*
X-13077380Y56830065D01*
X-12910184Y56997260D01*
X-11289496Y56997260D01*
X-11122300Y56830065D01*
X-11015519Y56917722D01*
X-11015519Y57076798D01*
X-10684161Y57076798D01*
X-10684161Y56917722D01*
X-10577380Y56830065D01*
X-10410184Y56997260D01*
X-8789496Y56997260D01*
X-8622300Y56830065D01*
X-8515519Y56917722D01*
X-8515519Y57076798D01*
X-8622300Y57164455D01*
X-8789496Y56997260D01*
X-10410184Y56997260D01*
X-10577380Y57164455D01*
X-10684161Y57076798D01*
X-11015519Y57076798D01*
X-11122300Y57164455D01*
X-11289496Y56997260D01*
X-12910184Y56997260D01*
X-13077380Y57164455D01*
X-13184161Y57076798D01*
X-13515519Y57076798D01*
X-13622300Y57164455D01*
X-13789496Y56997260D01*
X-15410184Y56997260D01*
X-15577380Y57164455D01*
X-15684161Y57076798D01*
X-16015519Y57076798D01*
X-16122300Y57164455D01*
X-16289496Y56997260D01*
X-17910184Y56997260D01*
X-18077380Y57164455D01*
X-18184161Y57076798D01*
X-18515519Y57076798D01*
X-18622300Y57164455D01*
X-18789496Y56997260D01*
X-20410184Y56997260D01*
X-20577380Y57164455D01*
X-20684161Y57076798D01*
X-21015519Y57076798D01*
X-21122300Y57164455D01*
X-21289496Y56997260D01*
X-22910184Y56997260D01*
X-23077380Y57164455D01*
X-23184161Y57076798D01*
X-23872840Y57076798D01*
X-23872840Y57974800D01*
X-22267035Y57974800D01*
X-22099840Y57807604D01*
X-21932645Y57974800D01*
X-19767035Y57974800D01*
X-19599840Y57807604D01*
X-19432645Y57974800D01*
X-17267035Y57974800D01*
X-17099840Y57807604D01*
X-16932645Y57974800D01*
X-14767035Y57974800D01*
X-14599840Y57807604D01*
X-14432645Y57974800D01*
X-12267035Y57974800D01*
X-12099840Y57807604D01*
X-11932645Y57974800D01*
X-9767035Y57974800D01*
X-9599840Y57807604D01*
X-9432645Y57974800D01*
X-9520302Y58081581D01*
X-9679378Y58081581D01*
X-9767035Y57974800D01*
X-11932645Y57974800D01*
X-12020302Y58081581D01*
X-12179378Y58081581D01*
X-12267035Y57974800D01*
X-14432645Y57974800D01*
X-14520302Y58081581D01*
X-14679378Y58081581D01*
X-14767035Y57974800D01*
X-16932645Y57974800D01*
X-17020302Y58081581D01*
X-17179378Y58081581D01*
X-17267035Y57974800D01*
X-19432645Y57974800D01*
X-19520302Y58081581D01*
X-19679378Y58081581D01*
X-19767035Y57974800D01*
X-21932645Y57974800D01*
X-22020302Y58081581D01*
X-22179378Y58081581D01*
X-22267035Y57974800D01*
X-23872840Y57974800D01*
X-23872840Y58799720D01*
X-22267035Y58799720D01*
X-22179378Y58692939D01*
X-22020302Y58692939D01*
X-21932645Y58799720D01*
X-19767035Y58799720D01*
X-19679378Y58692939D01*
X-19520302Y58692939D01*
X-19432645Y58799720D01*
X-17267035Y58799720D01*
X-17179378Y58692939D01*
X-17020302Y58692939D01*
X-16932645Y58799720D01*
X-14767035Y58799720D01*
X-14679378Y58692939D01*
X-14520302Y58692939D01*
X-14432645Y58799720D01*
X-12267035Y58799720D01*
X-12179378Y58692939D01*
X-12020302Y58692939D01*
X-11932645Y58799720D01*
X-9767035Y58799720D01*
X-9679378Y58692939D01*
X-9520302Y58692939D01*
X-9432645Y58799720D01*
X-9599840Y58966916D01*
X-9767035Y58799720D01*
X-11932645Y58799720D01*
X-12099840Y58966916D01*
X-12267035Y58799720D01*
X-14432645Y58799720D01*
X-14599840Y58966916D01*
X-14767035Y58799720D01*
X-16932645Y58799720D01*
X-17099840Y58966916D01*
X-17267035Y58799720D01*
X-19432645Y58799720D01*
X-19599840Y58966916D01*
X-19767035Y58799720D01*
X-21932645Y58799720D01*
X-22099840Y58966916D01*
X-22267035Y58799720D01*
X-23872840Y58799720D01*
X-23872840Y59856798D01*
X-23184161Y59856798D01*
X-23184161Y59697722D01*
X-23077380Y59610065D01*
X-22910184Y59777260D01*
X-21289496Y59777260D01*
X-21122300Y59610065D01*
X-21015519Y59697722D01*
X-21015519Y59856798D01*
X-20684161Y59856798D01*
X-20684161Y59697722D01*
X-20577380Y59610065D01*
X-20410184Y59777260D01*
X-18789496Y59777260D01*
X-18622300Y59610065D01*
X-18515519Y59697722D01*
X-18515519Y59856798D01*
X-18184161Y59856798D01*
X-18184161Y59697722D01*
X-18077380Y59610065D01*
X-17910184Y59777260D01*
X-16289496Y59777260D01*
X-16122300Y59610065D01*
X-16015519Y59697722D01*
X-16015519Y59856798D01*
X-15684161Y59856798D01*
X-15684161Y59697722D01*
X-15577380Y59610065D01*
X-15410184Y59777260D01*
X-13789496Y59777260D01*
X-13622300Y59610065D01*
X-13515519Y59697722D01*
X-13515519Y59856798D01*
X-13184161Y59856798D01*
X-13184161Y59697722D01*
X-13077380Y59610065D01*
X-12910184Y59777260D01*
X-11289496Y59777260D01*
X-11122300Y59610065D01*
X-11015519Y59697722D01*
X-11015519Y59856798D01*
X-10684161Y59856798D01*
X-10684161Y59697722D01*
X-10577380Y59610065D01*
X-10410184Y59777260D01*
X-8789496Y59777260D01*
X-8622300Y59610065D01*
X-8515519Y59697722D01*
X-8515519Y59856798D01*
X-8622300Y59944455D01*
X-8789496Y59777260D01*
X-10410184Y59777260D01*
X-10577380Y59944455D01*
X-10684161Y59856798D01*
X-11015519Y59856798D01*
X-11122300Y59944455D01*
X-11289496Y59777260D01*
X-12910184Y59777260D01*
X-13077380Y59944455D01*
X-13184161Y59856798D01*
X-13515519Y59856798D01*
X-13622300Y59944455D01*
X-13789496Y59777260D01*
X-15410184Y59777260D01*
X-15577380Y59944455D01*
X-15684161Y59856798D01*
X-16015519Y59856798D01*
X-16122300Y59944455D01*
X-16289496Y59777260D01*
X-17910184Y59777260D01*
X-18077380Y59944455D01*
X-18184161Y59856798D01*
X-18515519Y59856798D01*
X-18622300Y59944455D01*
X-18789496Y59777260D01*
X-20410184Y59777260D01*
X-20577380Y59944455D01*
X-20684161Y59856798D01*
X-21015519Y59856798D01*
X-21122300Y59944455D01*
X-21289496Y59777260D01*
X-22910184Y59777260D01*
X-23077380Y59944455D01*
X-23184161Y59856798D01*
X-23872840Y59856798D01*
X-23872840Y60754800D01*
X-22267035Y60754800D01*
X-22099840Y60587604D01*
X-21932645Y60754800D01*
X-19767035Y60754800D01*
X-19599840Y60587604D01*
X-19432645Y60754800D01*
X-17267035Y60754800D01*
X-17099840Y60587604D01*
X-16932645Y60754800D01*
X-14767035Y60754800D01*
X-14599840Y60587604D01*
X-14432645Y60754800D01*
X-12267035Y60754800D01*
X-12099840Y60587604D01*
X-11932645Y60754800D01*
X-9767035Y60754800D01*
X-9599840Y60587604D01*
X-9432645Y60754800D01*
X-9520302Y60861581D01*
X-9679378Y60861581D01*
X-9767035Y60754800D01*
X-11932645Y60754800D01*
X-12020302Y60861581D01*
X-12179378Y60861581D01*
X-12267035Y60754800D01*
X-14432645Y60754800D01*
X-14520302Y60861581D01*
X-14679378Y60861581D01*
X-14767035Y60754800D01*
X-16932645Y60754800D01*
X-17020302Y60861581D01*
X-17179378Y60861581D01*
X-17267035Y60754800D01*
X-19432645Y60754800D01*
X-19520302Y60861581D01*
X-19679378Y60861581D01*
X-19767035Y60754800D01*
X-21932645Y60754800D01*
X-22020302Y60861581D01*
X-22179378Y60861581D01*
X-22267035Y60754800D01*
X-23872840Y60754800D01*
X-23872840Y61799720D01*
X-22267035Y61799720D01*
X-22179378Y61692939D01*
X-22020302Y61692939D01*
X-21932645Y61799720D01*
X-19767035Y61799720D01*
X-19679378Y61692939D01*
X-19520302Y61692939D01*
X-19432645Y61799720D01*
X-17267035Y61799720D01*
X-17179378Y61692939D01*
X-17020302Y61692939D01*
X-16932645Y61799720D01*
X-14767035Y61799720D01*
X-14679378Y61692939D01*
X-14520302Y61692939D01*
X-14432645Y61799720D01*
X-12267035Y61799720D01*
X-12179378Y61692939D01*
X-12020302Y61692939D01*
X-11932645Y61799720D01*
X-9767035Y61799720D01*
X-9679378Y61692939D01*
X-9520302Y61692939D01*
X-9432645Y61799720D01*
X-9599840Y61966916D01*
X-9767035Y61799720D01*
X-11932645Y61799720D01*
X-12099840Y61966916D01*
X-12267035Y61799720D01*
X-14432645Y61799720D01*
X-14599840Y61966916D01*
X-14767035Y61799720D01*
X-16932645Y61799720D01*
X-17099840Y61966916D01*
X-17267035Y61799720D01*
X-19432645Y61799720D01*
X-19599840Y61966916D01*
X-19767035Y61799720D01*
X-21932645Y61799720D01*
X-22099840Y61966916D01*
X-22267035Y61799720D01*
X-23872840Y61799720D01*
X-23872840Y62158312D01*
X68235538Y62158312D01*
X69139204Y61766219D01*
X72500160Y58405263D01*
X75861116Y61766219D01*
X68235538Y62158312D01*
X108235538Y62158312D01*
X109139204Y61766219D01*
X112500160Y58405263D01*
X115861116Y61766219D01*
X108235538Y62158312D01*
X68235538Y62158312D01*
X-23872840Y62158312D01*
X-23872840Y62856798D01*
X-23184161Y62856798D01*
X-23184161Y62697722D01*
X-23077380Y62610065D01*
X-22910184Y62777260D01*
X-21289496Y62777260D01*
X-21122300Y62610065D01*
X-21015519Y62697722D01*
X-21015519Y62856798D01*
X-20684161Y62856798D01*
X-20684161Y62697722D01*
X-20577380Y62610065D01*
X-20410184Y62777260D01*
X-18789496Y62777260D01*
X-18622300Y62610065D01*
X-18515519Y62697722D01*
X-18515519Y62856798D01*
X-18184161Y62856798D01*
X-18184161Y62697722D01*
X-18077380Y62610065D01*
X-17910184Y62777260D01*
X-16289496Y62777260D01*
X-16122300Y62610065D01*
X-16015519Y62697722D01*
X-16015519Y62856798D01*
X-15684161Y62856798D01*
X-15684161Y62697722D01*
X-15577380Y62610065D01*
X-15410184Y62777260D01*
X-13789496Y62777260D01*
X-13622300Y62610065D01*
X-13515519Y62697722D01*
X-13515519Y62856798D01*
X-13184161Y62856798D01*
X-13184161Y62697722D01*
X-13077380Y62610065D01*
X-12910184Y62777260D01*
X-11289496Y62777260D01*
X-11122300Y62610065D01*
X-11015519Y62697722D01*
X-11015519Y62856798D01*
X-10684161Y62856798D01*
X-10684161Y62697722D01*
X-10577380Y62610065D01*
X-10410184Y62777260D01*
X-8789496Y62777260D01*
X-8622300Y62610065D01*
X-8515519Y62697722D01*
X-8515519Y62856798D01*
X-8622300Y62944455D01*
X-8789496Y62777260D01*
X-10410184Y62777260D01*
X-10577380Y62944455D01*
X-10684161Y62856798D01*
X-11015519Y62856798D01*
X-11122300Y62944455D01*
X-11289496Y62777260D01*
X-12910184Y62777260D01*
X-13077380Y62944455D01*
X-13184161Y62856798D01*
X-13515519Y62856798D01*
X-13622300Y62944455D01*
X-13789496Y62777260D01*
X-15410184Y62777260D01*
X-15577380Y62944455D01*
X-15684161Y62856798D01*
X-16015519Y62856798D01*
X-16122300Y62944455D01*
X-16289496Y62777260D01*
X-17910184Y62777260D01*
X-18077380Y62944455D01*
X-18184161Y62856798D01*
X-18515519Y62856798D01*
X-18622300Y62944455D01*
X-18789496Y62777260D01*
X-20410184Y62777260D01*
X-20577380Y62944455D01*
X-20684161Y62856798D01*
X-21015519Y62856798D01*
X-21122300Y62944455D01*
X-21289496Y62777260D01*
X-22910184Y62777260D01*
X-23077380Y62944455D01*
X-23184161Y62856798D01*
X-23872840Y62856798D01*
X-23872840Y63754800D01*
X-22267035Y63754800D01*
X-22099840Y63587604D01*
X-21932645Y63754800D01*
X-19767035Y63754800D01*
X-19599840Y63587604D01*
X-19432645Y63754800D01*
X-17267035Y63754800D01*
X-17099840Y63587604D01*
X-16932645Y63754800D01*
X-14767035Y63754800D01*
X-14599840Y63587604D01*
X-14432645Y63754800D01*
X-12267035Y63754800D01*
X-12099840Y63587604D01*
X-11932645Y63754800D01*
X-9767035Y63754800D01*
X-9599840Y63587604D01*
X-9432645Y63754800D01*
X-9520302Y63861581D01*
X-9679378Y63861581D01*
X-9767035Y63754800D01*
X-11932645Y63754800D01*
X-12020302Y63861581D01*
X-12179378Y63861581D01*
X-12267035Y63754800D01*
X-14432645Y63754800D01*
X-14520302Y63861581D01*
X-14679378Y63861581D01*
X-14767035Y63754800D01*
X-16932645Y63754800D01*
X-17020302Y63861581D01*
X-17179378Y63861581D01*
X-17267035Y63754800D01*
X-19432645Y63754800D01*
X-19520302Y63861581D01*
X-19679378Y63861581D01*
X-19767035Y63754800D01*
X-21932645Y63754800D01*
X-22020302Y63861581D01*
X-22179378Y63861581D01*
X-22267035Y63754800D01*
X-23872840Y63754800D01*
X-23872840Y64579720D01*
X-22267035Y64579720D01*
X-22179378Y64472939D01*
X-22020302Y64472939D01*
X-21932645Y64579720D01*
X-19767035Y64579720D01*
X-19679378Y64472939D01*
X-19520302Y64472939D01*
X-19432645Y64579720D01*
X-17267035Y64579720D01*
X-17179378Y64472939D01*
X-17020302Y64472939D01*
X-16932645Y64579720D01*
X-14767035Y64579720D01*
X-14679378Y64472939D01*
X-14520302Y64472939D01*
X-14432645Y64579720D01*
X-12267035Y64579720D01*
X-12179378Y64472939D01*
X-12020302Y64472939D01*
X-11932645Y64579720D01*
X-9767035Y64579720D01*
X-9679378Y64472939D01*
X-9520302Y64472939D01*
X-9442564Y64567638D01*
X79174108Y64567638D01*
X119174108Y64567638D01*
X119566201Y65471304D01*
X122927157Y68832260D01*
X119566201Y72193216D01*
X119174108Y64567638D01*
X79174108Y64567638D01*
X79566201Y65471304D01*
X82927157Y68832260D01*
X102073163Y68832260D01*
X105434119Y65471304D01*
X105826212Y73096882D01*
X105434119Y72193216D01*
X102073163Y68832260D01*
X82927157Y68832260D01*
X79566201Y72193216D01*
X79174108Y64567638D01*
X-9442564Y64567638D01*
X-9432645Y64579720D01*
X-9599840Y64746916D01*
X-9767035Y64579720D01*
X-11932645Y64579720D01*
X-12099840Y64746916D01*
X-12267035Y64579720D01*
X-14432645Y64579720D01*
X-14599840Y64746916D01*
X-14767035Y64579720D01*
X-16932645Y64579720D01*
X-17099840Y64746916D01*
X-17267035Y64579720D01*
X-19432645Y64579720D01*
X-19599840Y64746916D01*
X-19767035Y64579720D01*
X-21932645Y64579720D01*
X-22099840Y64746916D01*
X-22267035Y64579720D01*
X-23872840Y64579720D01*
X-23872840Y65636798D01*
X-23184161Y65636798D01*
X-23184161Y65477722D01*
X-23077380Y65390065D01*
X-22910184Y65557260D01*
X-21289496Y65557260D01*
X-21122300Y65390065D01*
X-21015519Y65477722D01*
X-21015519Y65636798D01*
X-20684161Y65636798D01*
X-20684161Y65477722D01*
X-20577380Y65390065D01*
X-20410184Y65557260D01*
X-18789496Y65557260D01*
X-18622300Y65390065D01*
X-18515519Y65477722D01*
X-18515519Y65636798D01*
X-18184161Y65636798D01*
X-18184161Y65477722D01*
X-18077380Y65390065D01*
X-17910184Y65557260D01*
X-16289496Y65557260D01*
X-16122300Y65390065D01*
X-16015519Y65477722D01*
X-16015519Y65636798D01*
X-15684161Y65636798D01*
X-15684161Y65477722D01*
X-15577380Y65390065D01*
X-15410184Y65557260D01*
X-13789496Y65557260D01*
X-13622300Y65390065D01*
X-13515519Y65477722D01*
X-13515519Y65636798D01*
X-13184161Y65636798D01*
X-13184161Y65477722D01*
X-13077380Y65390065D01*
X-12910184Y65557260D01*
X-11289496Y65557260D01*
X-11122300Y65390065D01*
X-11015519Y65477722D01*
X-11015519Y65636798D01*
X-10684161Y65636798D01*
X-10684161Y65477722D01*
X-10577380Y65390065D01*
X-10410184Y65557260D01*
X-8789496Y65557260D01*
X-8622300Y65390065D01*
X-8515519Y65477722D01*
X-8515519Y65636798D01*
X-8622300Y65724455D01*
X-8789496Y65557260D01*
X-10410184Y65557260D01*
X-10577380Y65724455D01*
X-10684161Y65636798D01*
X-11015519Y65636798D01*
X-11122300Y65724455D01*
X-11289496Y65557260D01*
X-12910184Y65557260D01*
X-13077380Y65724455D01*
X-13184161Y65636798D01*
X-13515519Y65636798D01*
X-13622300Y65724455D01*
X-13789496Y65557260D01*
X-15410184Y65557260D01*
X-15577380Y65724455D01*
X-15684161Y65636798D01*
X-16015519Y65636798D01*
X-16122300Y65724455D01*
X-16289496Y65557260D01*
X-17910184Y65557260D01*
X-18077380Y65724455D01*
X-18184161Y65636798D01*
X-18515519Y65636798D01*
X-18622300Y65724455D01*
X-18789496Y65557260D01*
X-20410184Y65557260D01*
X-20577380Y65724455D01*
X-20684161Y65636798D01*
X-21015519Y65636798D01*
X-21122300Y65724455D01*
X-21289496Y65557260D01*
X-22910184Y65557260D01*
X-23077380Y65724455D01*
X-23184161Y65636798D01*
X-23872840Y65636798D01*
X-23872840Y66534800D01*
X-22267035Y66534800D01*
X-22099840Y66367604D01*
X-21932645Y66534800D01*
X-19767035Y66534800D01*
X-19599840Y66367604D01*
X-19432645Y66534800D01*
X-17267035Y66534800D01*
X-17099840Y66367604D01*
X-16932645Y66534800D01*
X-14767035Y66534800D01*
X-14599840Y66367604D01*
X-14432645Y66534800D01*
X-12267035Y66534800D01*
X-12099840Y66367604D01*
X-11932645Y66534800D01*
X-9767035Y66534800D01*
X-9599840Y66367604D01*
X-9432645Y66534800D01*
X-9520302Y66641581D01*
X-9679378Y66641581D01*
X-9767035Y66534800D01*
X-11932645Y66534800D01*
X-12020302Y66641581D01*
X-12179378Y66641581D01*
X-12267035Y66534800D01*
X-14432645Y66534800D01*
X-14520302Y66641581D01*
X-14679378Y66641581D01*
X-14767035Y66534800D01*
X-16932645Y66534800D01*
X-17020302Y66641581D01*
X-17179378Y66641581D01*
X-17267035Y66534800D01*
X-19432645Y66534800D01*
X-19520302Y66641581D01*
X-19679378Y66641581D01*
X-19767035Y66534800D01*
X-21932645Y66534800D01*
X-22020302Y66641581D01*
X-22179378Y66641581D01*
X-22267035Y66534800D01*
X-23872840Y66534800D01*
X-23872840Y67579720D01*
X-22267035Y67579720D01*
X-22179378Y67472939D01*
X-22020302Y67472939D01*
X-21932645Y67579720D01*
X-19767035Y67579720D01*
X-19679378Y67472939D01*
X-19520302Y67472939D01*
X-19432645Y67579720D01*
X-17267035Y67579720D01*
X-17179378Y67472939D01*
X-17020302Y67472939D01*
X-16932645Y67579720D01*
X-14767035Y67579720D01*
X-14679378Y67472939D01*
X-14520302Y67472939D01*
X-14432645Y67579720D01*
X-12267035Y67579720D01*
X-12179378Y67472939D01*
X-12020302Y67472939D01*
X-11932645Y67579720D01*
X-9767035Y67579720D01*
X-9679378Y67472939D01*
X-9520302Y67472939D01*
X-9432645Y67579720D01*
X-9599840Y67746916D01*
X-9767035Y67579720D01*
X-11932645Y67579720D01*
X-12099840Y67746916D01*
X-12267035Y67579720D01*
X-14432645Y67579720D01*
X-14599840Y67746916D01*
X-14767035Y67579720D01*
X-16932645Y67579720D01*
X-17099840Y67746916D01*
X-17267035Y67579720D01*
X-19432645Y67579720D01*
X-19599840Y67746916D01*
X-19767035Y67579720D01*
X-21932645Y67579720D01*
X-22099840Y67746916D01*
X-22267035Y67579720D01*
X-23872840Y67579720D01*
X-23872840Y68636798D01*
X-23184161Y68636798D01*
X-23184161Y68477722D01*
X-23077380Y68390065D01*
X-22910184Y68557260D01*
X-21289496Y68557260D01*
X-21122300Y68390065D01*
X-21015519Y68477722D01*
X-21015519Y68636798D01*
X-20684161Y68636798D01*
X-20684161Y68477722D01*
X-20577380Y68390065D01*
X-20410184Y68557260D01*
X-18789496Y68557260D01*
X-18622300Y68390065D01*
X-18515519Y68477722D01*
X-18515519Y68636798D01*
X-18184161Y68636798D01*
X-18184161Y68477722D01*
X-18077380Y68390065D01*
X-17910184Y68557260D01*
X-16289496Y68557260D01*
X-16122300Y68390065D01*
X-16015519Y68477722D01*
X-16015519Y68636798D01*
X-15684161Y68636798D01*
X-15684161Y68477722D01*
X-15577380Y68390065D01*
X-15410184Y68557260D01*
X-13789496Y68557260D01*
X-13622300Y68390065D01*
X-13515519Y68477722D01*
X-13515519Y68636798D01*
X-13184161Y68636798D01*
X-13184161Y68477722D01*
X-13077380Y68390065D01*
X-12910184Y68557260D01*
X-11289496Y68557260D01*
X-11122300Y68390065D01*
X-11015519Y68477722D01*
X-11015519Y68636798D01*
X-10684161Y68636798D01*
X-10684161Y68477722D01*
X-10577380Y68390065D01*
X-10410184Y68557260D01*
X-8789496Y68557260D01*
X-8622300Y68390065D01*
X-8515519Y68477722D01*
X-8515519Y68636798D01*
X-8622300Y68724455D01*
X-8789496Y68557260D01*
X-10410184Y68557260D01*
X-10577380Y68724455D01*
X-10684161Y68636798D01*
X-11015519Y68636798D01*
X-11122300Y68724455D01*
X-11289496Y68557260D01*
X-12910184Y68557260D01*
X-13077380Y68724455D01*
X-13184161Y68636798D01*
X-13515519Y68636798D01*
X-13622300Y68724455D01*
X-13789496Y68557260D01*
X-15410184Y68557260D01*
X-15577380Y68724455D01*
X-15684161Y68636798D01*
X-16015519Y68636798D01*
X-16122300Y68724455D01*
X-16289496Y68557260D01*
X-17910184Y68557260D01*
X-18077380Y68724455D01*
X-18184161Y68636798D01*
X-18515519Y68636798D01*
X-18622300Y68724455D01*
X-18789496Y68557260D01*
X-20410184Y68557260D01*
X-20577380Y68724455D01*
X-20684161Y68636798D01*
X-21015519Y68636798D01*
X-21122300Y68724455D01*
X-21289496Y68557260D01*
X-22910184Y68557260D01*
X-23077380Y68724455D01*
X-23184161Y68636798D01*
X-23872840Y68636798D01*
X-23872840Y68832260D01*
X62073163Y68832260D01*
X65434119Y65471304D01*
X65826212Y73096882D01*
X65434119Y72193216D01*
X62073163Y68832260D01*
X-23872840Y68832260D01*
X-23872840Y69534800D01*
X-22267035Y69534800D01*
X-22099840Y69367604D01*
X-21932645Y69534800D01*
X-19767035Y69534800D01*
X-19599840Y69367604D01*
X-19432645Y69534800D01*
X-17267035Y69534800D01*
X-17099840Y69367604D01*
X-16932645Y69534800D01*
X-14767035Y69534800D01*
X-14599840Y69367604D01*
X-14432645Y69534800D01*
X-12267035Y69534800D01*
X-12099840Y69367604D01*
X-11932645Y69534800D01*
X-9767035Y69534800D01*
X-9599840Y69367604D01*
X-9432645Y69534800D01*
X-9520302Y69641581D01*
X-9679378Y69641581D01*
X-9767035Y69534800D01*
X-11932645Y69534800D01*
X-12020302Y69641581D01*
X-12179378Y69641581D01*
X-12267035Y69534800D01*
X-14432645Y69534800D01*
X-14520302Y69641581D01*
X-14679378Y69641581D01*
X-14767035Y69534800D01*
X-16932645Y69534800D01*
X-17020302Y69641581D01*
X-17179378Y69641581D01*
X-17267035Y69534800D01*
X-19432645Y69534800D01*
X-19520302Y69641581D01*
X-19679378Y69641581D01*
X-19767035Y69534800D01*
X-21932645Y69534800D01*
X-22020302Y69641581D01*
X-22179378Y69641581D01*
X-22267035Y69534800D01*
X-23872840Y69534800D01*
X-23872840Y70359720D01*
X-22267035Y70359720D01*
X-22179378Y70252939D01*
X-22020302Y70252939D01*
X-21932645Y70359720D01*
X-19767035Y70359720D01*
X-19679378Y70252939D01*
X-19520302Y70252939D01*
X-19432645Y70359720D01*
X-17267035Y70359720D01*
X-17179378Y70252939D01*
X-17020302Y70252939D01*
X-16932645Y70359720D01*
X-14767035Y70359720D01*
X-14679378Y70252939D01*
X-14520302Y70252939D01*
X-14432645Y70359720D01*
X-12267035Y70359720D01*
X-12179378Y70252939D01*
X-12020302Y70252939D01*
X-11932645Y70359720D01*
X-9767035Y70359720D01*
X-9679378Y70252939D01*
X-9520302Y70252939D01*
X-9432645Y70359720D01*
X-9599840Y70526916D01*
X-9767035Y70359720D01*
X-11932645Y70359720D01*
X-12099840Y70526916D01*
X-12267035Y70359720D01*
X-14432645Y70359720D01*
X-14599840Y70526916D01*
X-14767035Y70359720D01*
X-16932645Y70359720D01*
X-17099840Y70526916D01*
X-17267035Y70359720D01*
X-19432645Y70359720D01*
X-19599840Y70526916D01*
X-19767035Y70359720D01*
X-21932645Y70359720D01*
X-22099840Y70526916D01*
X-22267035Y70359720D01*
X-23872840Y70359720D01*
X-23872840Y70643040D01*
X3229112Y70643040D01*
X3236488Y70568155D01*
X3258331Y70496148D01*
X3293802Y70429785D01*
X3341538Y70371618D01*
X3399705Y70323882D01*
X3466068Y70288411D01*
X3538075Y70266568D01*
X3612960Y70259192D01*
X3644460Y70261040D01*
X3739960Y70356540D01*
X3739960Y70770040D01*
X4755960Y70770040D01*
X4755960Y70356540D01*
X4851460Y70261040D01*
X4882960Y70259192D01*
X4957845Y70266568D01*
X5029852Y70288411D01*
X5096215Y70323882D01*
X5154382Y70371618D01*
X5202118Y70429785D01*
X5237589Y70496148D01*
X5259432Y70568155D01*
X5266808Y70643040D01*
X5264960Y70674540D01*
X5169460Y70770040D01*
X4755960Y70770040D01*
X3739960Y70770040D01*
X3326460Y70770040D01*
X3230960Y70674540D01*
X3229112Y70643040D01*
X-23872840Y70643040D01*
X-23872840Y71416798D01*
X-23184161Y71416798D01*
X-23184161Y71257722D01*
X-23077380Y71170065D01*
X-22910184Y71337260D01*
X-21289496Y71337260D01*
X-21122300Y71170065D01*
X-21015519Y71257722D01*
X-21015519Y71416798D01*
X-20684161Y71416798D01*
X-20684161Y71257722D01*
X-20577380Y71170065D01*
X-20410184Y71337260D01*
X-18789496Y71337260D01*
X-18622300Y71170065D01*
X-18515519Y71257722D01*
X-18515519Y71416798D01*
X-18184161Y71416798D01*
X-18184161Y71257722D01*
X-18077380Y71170065D01*
X-17910184Y71337260D01*
X-16289496Y71337260D01*
X-16122300Y71170065D01*
X-16015519Y71257722D01*
X-16015519Y71416798D01*
X-15684161Y71416798D01*
X-15684161Y71257722D01*
X-15577380Y71170065D01*
X-15410184Y71337260D01*
X-13789496Y71337260D01*
X-13622300Y71170065D01*
X-13515519Y71257722D01*
X-13515519Y71416798D01*
X-13184161Y71416798D01*
X-13184161Y71257722D01*
X-13077380Y71170065D01*
X-12910184Y71337260D01*
X-11289496Y71337260D01*
X-11122300Y71170065D01*
X-11015519Y71257722D01*
X-11015519Y71416798D01*
X-10684161Y71416798D01*
X-10684161Y71257722D01*
X-10577380Y71170065D01*
X-10410184Y71337260D01*
X-8789496Y71337260D01*
X-8622300Y71170065D01*
X-8515519Y71257722D01*
X-8515519Y71416798D01*
X-8622300Y71504455D01*
X-8789496Y71337260D01*
X-10410184Y71337260D01*
X-10577380Y71504455D01*
X-10684161Y71416798D01*
X-11015519Y71416798D01*
X-11122300Y71504455D01*
X-11289496Y71337260D01*
X-12910184Y71337260D01*
X-13077380Y71504455D01*
X-13184161Y71416798D01*
X-13515519Y71416798D01*
X-13622300Y71504455D01*
X-13789496Y71337260D01*
X-15410184Y71337260D01*
X-15577380Y71504455D01*
X-15684161Y71416798D01*
X-16015519Y71416798D01*
X-16122300Y71504455D01*
X-16289496Y71337260D01*
X-17910184Y71337260D01*
X-18077380Y71504455D01*
X-18184161Y71416798D01*
X-18515519Y71416798D01*
X-18622300Y71504455D01*
X-18789496Y71337260D01*
X-20410184Y71337260D01*
X-20577380Y71504455D01*
X-20684161Y71416798D01*
X-21015519Y71416798D01*
X-21122300Y71504455D01*
X-21289496Y71337260D01*
X-22910184Y71337260D01*
X-23077380Y71504455D01*
X-23184161Y71416798D01*
X-23872840Y71416798D01*
X-23872840Y72314800D01*
X-22267035Y72314800D01*
X-22099840Y72147604D01*
X-21932645Y72314800D01*
X-19767035Y72314800D01*
X-19599840Y72147604D01*
X-19432645Y72314800D01*
X-17267035Y72314800D01*
X-17099840Y72147604D01*
X-16932645Y72314800D01*
X-14767035Y72314800D01*
X-14599840Y72147604D01*
X-14432645Y72314800D01*
X-12267035Y72314800D01*
X-12099840Y72147604D01*
X-11932645Y72314800D01*
X-9767035Y72314800D01*
X-9599840Y72147604D01*
X-9432645Y72314800D01*
X-9520302Y72421581D01*
X-9679378Y72421581D01*
X-9767035Y72314800D01*
X-11932645Y72314800D01*
X-12020302Y72421581D01*
X-12179378Y72421581D01*
X-12267035Y72314800D01*
X-14432645Y72314800D01*
X-14520302Y72421581D01*
X-14679378Y72421581D01*
X-14767035Y72314800D01*
X-16932645Y72314800D01*
X-17020302Y72421581D01*
X-17179378Y72421581D01*
X-17267035Y72314800D01*
X-19432645Y72314800D01*
X-19520302Y72421581D01*
X-19679378Y72421581D01*
X-19767035Y72314800D01*
X-21932645Y72314800D01*
X-22020302Y72421581D01*
X-22179378Y72421581D01*
X-22267035Y72314800D01*
X-23872840Y72314800D01*
X-23872840Y73359720D01*
X-22267035Y73359720D01*
X-22179378Y73252939D01*
X-22020302Y73252939D01*
X-21932645Y73359720D01*
X-19767035Y73359720D01*
X-19679378Y73252939D01*
X-19520302Y73252939D01*
X-19432645Y73359720D01*
X-17267035Y73359720D01*
X-17179378Y73252939D01*
X-17020302Y73252939D01*
X-16932645Y73359720D01*
X-14767035Y73359720D01*
X-14679378Y73252939D01*
X-14520302Y73252939D01*
X-14432645Y73359720D01*
X-12267035Y73359720D01*
X-12179378Y73252939D01*
X-12020302Y73252939D01*
X-11932645Y73359720D01*
X-9767035Y73359720D01*
X-9679378Y73252939D01*
X-9520302Y73252939D01*
X-9432645Y73359720D01*
X-9599840Y73526916D01*
X-9767035Y73359720D01*
X-11932645Y73359720D01*
X-12099840Y73526916D01*
X-12267035Y73359720D01*
X-14432645Y73359720D01*
X-14599840Y73526916D01*
X-14767035Y73359720D01*
X-16932645Y73359720D01*
X-17099840Y73526916D01*
X-17267035Y73359720D01*
X-19432645Y73359720D01*
X-19599840Y73526916D01*
X-19767035Y73359720D01*
X-21932645Y73359720D01*
X-22099840Y73526916D01*
X-22267035Y73359720D01*
X-23872840Y73359720D01*
X-23872840Y74416798D01*
X-23184161Y74416798D01*
X-23184161Y74257722D01*
X-23077380Y74170065D01*
X-22910184Y74337260D01*
X-21289496Y74337260D01*
X-21122300Y74170065D01*
X-21015519Y74257722D01*
X-21015519Y74416798D01*
X-20684161Y74416798D01*
X-20684161Y74257722D01*
X-20577380Y74170065D01*
X-20410184Y74337260D01*
X-18789496Y74337260D01*
X-18622300Y74170065D01*
X-18515519Y74257722D01*
X-18515519Y74416798D01*
X-18184161Y74416798D01*
X-18184161Y74257722D01*
X-18077380Y74170065D01*
X-17910184Y74337260D01*
X-16289496Y74337260D01*
X-16122300Y74170065D01*
X-16015519Y74257722D01*
X-16015519Y74416798D01*
X-15684161Y74416798D01*
X-15684161Y74257722D01*
X-15577380Y74170065D01*
X-15410184Y74337260D01*
X-13789496Y74337260D01*
X-13622300Y74170065D01*
X-13515519Y74257722D01*
X-13515519Y74416798D01*
X-13184161Y74416798D01*
X-13184161Y74257722D01*
X-13077380Y74170065D01*
X-12910184Y74337260D01*
X-11289496Y74337260D01*
X-11122300Y74170065D01*
X-11015519Y74257722D01*
X-11015519Y74416798D01*
X-10684161Y74416798D01*
X-10684161Y74257722D01*
X-10577380Y74170065D01*
X-10410184Y74337260D01*
X-8789496Y74337260D01*
X-8622300Y74170065D01*
X-8515519Y74257722D01*
X-8515519Y74416798D01*
X-8622300Y74504455D01*
X-8789496Y74337260D01*
X-10410184Y74337260D01*
X-10577380Y74504455D01*
X-10684161Y74416798D01*
X-11015519Y74416798D01*
X-11122300Y74504455D01*
X-11289496Y74337260D01*
X-12910184Y74337260D01*
X-13077380Y74504455D01*
X-13184161Y74416798D01*
X-13515519Y74416798D01*
X-13622300Y74504455D01*
X-13789496Y74337260D01*
X-15410184Y74337260D01*
X-15577380Y74504455D01*
X-15684161Y74416798D01*
X-16015519Y74416798D01*
X-16122300Y74504455D01*
X-16289496Y74337260D01*
X-17910184Y74337260D01*
X-18077380Y74504455D01*
X-18184161Y74416798D01*
X-18515519Y74416798D01*
X-18622300Y74504455D01*
X-18789496Y74337260D01*
X-20410184Y74337260D01*
X-20577380Y74504455D01*
X-20684161Y74416798D01*
X-21015519Y74416798D01*
X-21122300Y74504455D01*
X-21289496Y74337260D01*
X-22910184Y74337260D01*
X-23077380Y74504455D01*
X-23184161Y74416798D01*
X-23872840Y74416798D01*
X-23872840Y75314800D01*
X-22267035Y75314800D01*
X-22099840Y75147604D01*
X-21932645Y75314800D01*
X-19767035Y75314800D01*
X-19599840Y75147604D01*
X-19432645Y75314800D01*
X-17267035Y75314800D01*
X-17099840Y75147604D01*
X-16932645Y75314800D01*
X-14767035Y75314800D01*
X-14599840Y75147604D01*
X-14432645Y75314800D01*
X-12267035Y75314800D01*
X-12099840Y75147604D01*
X-11932645Y75314800D01*
X-9767035Y75314800D01*
X-9599840Y75147604D01*
X-9432645Y75314800D01*
X-9520302Y75421581D01*
X-9679378Y75421581D01*
X-9767035Y75314800D01*
X-11932645Y75314800D01*
X-12020302Y75421581D01*
X-12179378Y75421581D01*
X-12267035Y75314800D01*
X-14432645Y75314800D01*
X-14520302Y75421581D01*
X-14679378Y75421581D01*
X-14767035Y75314800D01*
X-16932645Y75314800D01*
X-17020302Y75421581D01*
X-17179378Y75421581D01*
X-17267035Y75314800D01*
X-19432645Y75314800D01*
X-19520302Y75421581D01*
X-19679378Y75421581D01*
X-19767035Y75314800D01*
X-21932645Y75314800D01*
X-22020302Y75421581D01*
X-22179378Y75421581D01*
X-22267035Y75314800D01*
X-23872840Y75314800D01*
X-23872840Y75591928D01*
X-429040Y75591928D01*
X-429040Y75094152D01*
X-331929Y74605941D01*
X-141438Y74146057D01*
X135111Y73732171D01*
X487091Y73380191D01*
X900977Y73103642D01*
X1360861Y72913151D01*
X1849072Y72816040D01*
X2346848Y72816040D01*
X2835059Y72913151D01*
X3283569Y73098931D01*
X3326460Y73056040D01*
X3739960Y73056040D01*
X3739960Y73411322D01*
X3798178Y73469540D01*
X4755960Y73469540D01*
X4755960Y73056040D01*
X5169460Y73056040D01*
X5264960Y73151540D01*
X5266808Y73183040D01*
X5580991Y73183040D01*
X5580991Y70643040D01*
X5600820Y70441713D01*
X5659545Y70248123D01*
X5754909Y70069709D01*
X5883248Y69913328D01*
X6039629Y69784989D01*
X6218043Y69689625D01*
X6411633Y69630900D01*
X6612960Y69611071D01*
X7882960Y69611071D01*
X8084287Y69630900D01*
X8277877Y69689625D01*
X8456291Y69784989D01*
X8612672Y69913328D01*
X8741011Y70069709D01*
X8836375Y70248123D01*
X8878212Y70386040D01*
X12060479Y70386040D01*
X12135480Y70378653D01*
X12210481Y70386040D01*
X12210491Y70386040D01*
X12434824Y70408135D01*
X12722665Y70495450D01*
X12987940Y70637243D01*
X13220456Y70828064D01*
X13268277Y70886333D01*
X14776612Y72394668D01*
X14919616Y72568919D01*
X15061410Y72834195D01*
X15148725Y73122035D01*
X15178207Y73421380D01*
X15148725Y73720724D01*
X15061410Y74008565D01*
X14919616Y74273840D01*
X14728796Y74506356D01*
X14496280Y74697176D01*
X14231005Y74838970D01*
X13943164Y74926285D01*
X13643820Y74955767D01*
X13344475Y74926285D01*
X13056635Y74838970D01*
X12791359Y74697176D01*
X12617108Y74554172D01*
X11502977Y73440040D01*
X11068678Y73440040D01*
X11360809Y73732171D01*
X11637358Y74146057D01*
X11827849Y74605941D01*
X11924960Y75094152D01*
X11924960Y75591928D01*
X11864019Y75898301D01*
X69139204Y75898301D01*
X76764782Y75506208D01*
X75861116Y75898301D01*
X109139204Y75898301D01*
X116764782Y75506208D01*
X115861116Y75898301D01*
X112500160Y79259257D01*
X109139204Y75898301D01*
X75861116Y75898301D01*
X72500160Y79259257D01*
X69139204Y75898301D01*
X11864019Y75898301D01*
X11827849Y76080139D01*
X11637358Y76540023D01*
X11360809Y76953909D01*
X11008829Y77305889D01*
X10594943Y77582438D01*
X10135059Y77772929D01*
X9646848Y77870040D01*
X9149072Y77870040D01*
X8660861Y77772929D01*
X8200977Y77582438D01*
X7787091Y77305889D01*
X7435111Y76953909D01*
X7158562Y76540023D01*
X6968071Y76080139D01*
X6870960Y75591928D01*
X6870960Y75094152D01*
X6968071Y74605941D01*
X7130001Y74215009D01*
X6612960Y74215009D01*
X6411633Y74195180D01*
X6218043Y74136455D01*
X6039629Y74041091D01*
X5883248Y73912752D01*
X5754909Y73756371D01*
X5659545Y73577957D01*
X5600820Y73384367D01*
X5580991Y73183040D01*
X5266808Y73183040D01*
X5259432Y73257925D01*
X5237589Y73329932D01*
X5202118Y73396295D01*
X5154382Y73454462D01*
X5096215Y73502198D01*
X5029852Y73537669D01*
X4957845Y73559512D01*
X4882960Y73566888D01*
X4851460Y73565040D01*
X4755960Y73469540D01*
X3798178Y73469540D01*
X4060809Y73732171D01*
X4337358Y74146057D01*
X4527849Y74605941D01*
X4624960Y75094152D01*
X4624960Y75591928D01*
X4527849Y76080139D01*
X4337358Y76540023D01*
X4060809Y76953909D01*
X3708829Y77305889D01*
X3294943Y77582438D01*
X2835059Y77772929D01*
X2346848Y77870040D01*
X1849072Y77870040D01*
X1360861Y77772929D01*
X900977Y77582438D01*
X487091Y77305889D01*
X135111Y76953909D01*
X-141438Y76540023D01*
X-331929Y76080139D01*
X-429040Y75591928D01*
X-23872840Y75591928D01*
X-23872840Y79440620D01*
X-19976840Y79440620D01*
X-19976840Y78873900D01*
X-19866279Y78318070D01*
X-19649405Y77794489D01*
X-19334552Y77323279D01*
X-18933821Y76922548D01*
X-18462611Y76607695D01*
X-17939030Y76390821D01*
X-17383200Y76280260D01*
X-16816480Y76280260D01*
X-16260650Y76390821D01*
X-15737069Y76607695D01*
X-15265859Y76922548D01*
X-14865128Y77323279D01*
X-14550275Y77794489D01*
X-14333401Y78318070D01*
X-14222840Y78873900D01*
X-14222840Y79440620D01*
X-14333401Y79996450D01*
X-14550275Y80520031D01*
X-14865128Y80991241D01*
X-15265859Y81391972D01*
X-15737069Y81706825D01*
X-16260650Y81923699D01*
X-16816480Y82034260D01*
X-17383200Y82034260D01*
X-17939030Y81923699D01*
X-18462611Y81706825D01*
X-18933821Y81391972D01*
X-19334552Y80991241D01*
X-19649405Y80520031D01*
X-19866279Y79996450D01*
X-19976840Y79440620D01*
X-23872840Y79440620D01*
X-23872840Y83828060D01*
X43776912Y83828060D01*
X43778760Y83796560D01*
X43874260Y83701060D01*
X44287760Y83701060D01*
X44287760Y84114560D01*
X134033760Y84114560D01*
X134033760Y83701060D01*
X134447260Y83701060D01*
X134542760Y83796560D01*
X134544608Y83828060D01*
X134537232Y83902945D01*
X134515389Y83974952D01*
X134479918Y84041315D01*
X134432182Y84099482D01*
X134374015Y84147218D01*
X134307652Y84182689D01*
X134235645Y84204532D01*
X134160760Y84211908D01*
X134129260Y84210060D01*
X134033760Y84114560D01*
X44287760Y84114560D01*
X44192260Y84210060D01*
X44160760Y84211908D01*
X44085875Y84204532D01*
X44013868Y84182689D01*
X43947505Y84147218D01*
X43889338Y84099482D01*
X43841602Y84041315D01*
X43806131Y83974952D01*
X43784288Y83902945D01*
X43776912Y83828060D01*
X-23872840Y83828060D01*
X-23872840Y90349639D01*
X-3526840Y90349639D01*
X-3526840Y89654881D01*
X-3391300Y88973472D01*
X-3125427Y88331599D01*
X-2739440Y87753928D01*
X-2248172Y87262660D01*
X-1670501Y86876673D01*
X-1028628Y86610800D01*
X-347219Y86475260D01*
X347539Y86475260D01*
X1028948Y86610800D01*
X1670821Y86876673D01*
X2248492Y87262660D01*
X2739760Y87753928D01*
X3125747Y88331599D01*
X3391620Y88973472D01*
X3527160Y89654881D01*
X3527160Y90349639D01*
X136473160Y90349639D01*
X136473160Y89654881D01*
X136608700Y88973472D01*
X136874573Y88331599D01*
X137260560Y87753928D01*
X137751828Y87262660D01*
X138329499Y86876673D01*
X138971372Y86610800D01*
X139652781Y86475260D01*
X140347539Y86475260D01*
X141028948Y86610800D01*
X141670821Y86876673D01*
X142248492Y87262660D01*
X142739760Y87753928D01*
X143125747Y88331599D01*
X143391620Y88973472D01*
X143527160Y89654881D01*
X143527160Y90349639D01*
X143391620Y91031048D01*
X143125747Y91672921D01*
X142739760Y92250592D01*
X142248492Y92741860D01*
X141670821Y93127847D01*
X141028948Y93393720D01*
X140347539Y93529260D01*
X139652781Y93529260D01*
X138971372Y93393720D01*
X138329499Y93127847D01*
X137751828Y92741860D01*
X137260560Y92250592D01*
X136874573Y91672921D01*
X136608700Y91031048D01*
X136473160Y90349639D01*
X3527160Y90349639D01*
X3391620Y91031048D01*
X3125747Y91672921D01*
X2739760Y92250592D01*
X2248492Y92741860D01*
X1670821Y93127847D01*
X1028948Y93393720D01*
X347539Y93529260D01*
X-347219Y93529260D01*
X-1028628Y93393720D01*
X-1670501Y93127847D01*
X-2248172Y92741860D01*
X-2739440Y92250592D01*
X-3125427Y91672921D01*
X-3391300Y91031048D01*
X-3526840Y90349639D01*
X-23872840Y90349639D01*
X-23872840Y92535442D01*
X-22533021Y93875260D01*
X142533342Y93875260D01*
X143873161Y92535440D01*
G36*
X142773160Y585189D02*
G01*
X142729638Y628711D01*
X142736184Y-617645D01*
X142773160Y-580669D01*
X142773160Y-2075287D01*
X142077708Y-2770740D01*
X140583089Y-2770740D01*
X140626611Y-2727218D01*
X139380255Y-2733764D01*
X139417231Y-2770740D01*
X42942806Y-2770740D01*
X42907533Y-2735467D01*
X139056045Y-2735467D01*
X139380255Y-2733764D01*
X139373709Y-2727218D01*
X139056045Y-2735467D01*
X42907533Y-2735467D01*
X40169806Y2260D01*
X136644231Y2260D01*
X137270682Y-624191D01*
X142729638Y-624191D01*
X142737887Y-941855D01*
X142736184Y-617645D01*
X142729638Y-624191D01*
X137270682Y-624191D01*
X137264136Y622165D01*
X136644231Y2260D01*
X40169806Y2260D01*
X39225691Y946375D01*
X137262433Y946375D01*
X137264136Y622165D01*
X137270682Y628711D01*
X137262433Y946375D01*
X39225691Y946375D01*
X37852500Y2319566D01*
X37852500Y2731738D01*
X139373709Y2731738D01*
X140620065Y2738284D01*
X140626611Y2731738D01*
X140944275Y2739987D01*
X140620065Y2738284D01*
X140000160Y3358189D01*
X139373709Y2731738D01*
X37852500Y2731738D01*
X37852500Y6328060D01*
X43776912Y6328060D01*
X43784288Y6253175D01*
X43806131Y6181168D01*
X43841602Y6114805D01*
X43889338Y6056638D01*
X43947505Y6008902D01*
X44013868Y5973431D01*
X44085875Y5951588D01*
X44160760Y5944212D01*
X44192260Y5946060D01*
X44287760Y6041560D01*
X44287760Y6455060D01*
X134033760Y6455060D01*
X134033760Y6041560D01*
X134129260Y5946060D01*
X134160760Y5944212D01*
X134235645Y5951588D01*
X134307652Y5973431D01*
X134374015Y6008902D01*
X134432182Y6056638D01*
X134479918Y6114805D01*
X134515389Y6181168D01*
X134537232Y6253175D01*
X134544608Y6328060D01*
X134542760Y6359560D01*
X134447260Y6455060D01*
X134033760Y6455060D01*
X44287760Y6455060D01*
X43874260Y6455060D01*
X43778760Y6359560D01*
X43776912Y6328060D01*
X37852500Y6328060D01*
X37852500Y14658312D01*
X65735538Y14658312D01*
X66639204Y14266219D01*
X70000160Y10905263D01*
X73361116Y14266219D01*
X65735538Y14658312D01*
X105735538Y14658312D01*
X106639204Y14266219D01*
X110000160Y10905263D01*
X113361116Y14266219D01*
X105735538Y14658312D01*
X65735538Y14658312D01*
X37852500Y14658312D01*
X37852500Y17067638D01*
X76674108Y17067638D01*
X116674108Y17067638D01*
X117066201Y17971304D01*
X120427157Y21332260D01*
X117066201Y24693216D01*
X116674108Y17067638D01*
X76674108Y17067638D01*
X77066201Y17971304D01*
X80427157Y21332260D01*
X99573163Y21332260D01*
X102934119Y17971304D01*
X103326212Y25596882D01*
X102934119Y24693216D01*
X99573163Y21332260D01*
X80427157Y21332260D01*
X77066201Y24693216D01*
X76674108Y17067638D01*
X37852500Y17067638D01*
X37852500Y21332260D01*
X59573163Y21332260D01*
X62934119Y17971304D01*
X63326212Y25596882D01*
X62934119Y24693216D01*
X59573163Y21332260D01*
X37852500Y21332260D01*
X37852500Y28398301D01*
X66639204Y28398301D01*
X74264782Y28006208D01*
X73361116Y28398301D01*
X106639204Y28398301D01*
X114264782Y28006208D01*
X113361116Y28398301D01*
X110000160Y31759257D01*
X106639204Y28398301D01*
X73361116Y28398301D01*
X70000160Y31759257D01*
X66639204Y28398301D01*
X37852500Y28398301D01*
X37852500Y36328060D01*
X43776912Y36328060D01*
X43778760Y36296560D01*
X43874260Y36201060D01*
X44287760Y36201060D01*
X44287760Y36614560D01*
X134033760Y36614560D01*
X134033760Y36201060D01*
X134447260Y36201060D01*
X134542760Y36296560D01*
X134544608Y36328060D01*
X134537232Y36402945D01*
X134515389Y36474952D01*
X134479918Y36541315D01*
X134432182Y36599482D01*
X134374015Y36647218D01*
X134307652Y36682689D01*
X134235645Y36704532D01*
X134160760Y36711908D01*
X134129260Y36710060D01*
X134033760Y36614560D01*
X44287760Y36614560D01*
X44192260Y36710060D01*
X44160760Y36711908D01*
X44085875Y36704532D01*
X44013868Y36682689D01*
X43947505Y36647218D01*
X43889338Y36599482D01*
X43841602Y36541315D01*
X43806131Y36474952D01*
X43784288Y36402945D01*
X43776912Y36328060D01*
X37852500Y36328060D01*
X37852500Y37340014D01*
X41014066Y40501580D01*
X135192920Y40501580D01*
X135193847Y40501583D01*
X142773160Y40556881D01*
X142773160Y585189D01*
G37*
X142773160Y585189D02*
X142729638Y628711D01*
X142736184Y-617645D01*
X142773160Y-580669D01*
X142773160Y-2075287D01*
X142077708Y-2770740D01*
X140583089Y-2770740D01*
X140626611Y-2727218D01*
X139380255Y-2733764D01*
X139417231Y-2770740D01*
X42942806Y-2770740D01*
X42907533Y-2735467D01*
X139056045Y-2735467D01*
X139380255Y-2733764D01*
X139373709Y-2727218D01*
X139056045Y-2735467D01*
X42907533Y-2735467D01*
X40169806Y2260D01*
X136644231Y2260D01*
X137270682Y-624191D01*
X142729638Y-624191D01*
X142737887Y-941855D01*
X142736184Y-617645D01*
X142729638Y-624191D01*
X137270682Y-624191D01*
X137264136Y622165D01*
X136644231Y2260D01*
X40169806Y2260D01*
X39225691Y946375D01*
X137262433Y946375D01*
X137264136Y622165D01*
X137270682Y628711D01*
X137262433Y946375D01*
X39225691Y946375D01*
X37852500Y2319566D01*
X37852500Y2731738D01*
X139373709Y2731738D01*
X140620065Y2738284D01*
X140626611Y2731738D01*
X140944275Y2739987D01*
X140620065Y2738284D01*
X140000160Y3358189D01*
X139373709Y2731738D01*
X37852500Y2731738D01*
X37852500Y6328060D01*
X43776912Y6328060D01*
X43784288Y6253175D01*
X43806131Y6181168D01*
X43841602Y6114805D01*
X43889338Y6056638D01*
X43947505Y6008902D01*
X44013868Y5973431D01*
X44085875Y5951588D01*
X44160760Y5944212D01*
X44192260Y5946060D01*
X44287760Y6041560D01*
X44287760Y6455060D01*
X134033760Y6455060D01*
X134033760Y6041560D01*
X134129260Y5946060D01*
X134160760Y5944212D01*
X134235645Y5951588D01*
X134307652Y5973431D01*
X134374015Y6008902D01*
X134432182Y6056638D01*
X134479918Y6114805D01*
X134515389Y6181168D01*
X134537232Y6253175D01*
X134544608Y6328060D01*
X134542760Y6359560D01*
X134447260Y6455060D01*
X134033760Y6455060D01*
X44287760Y6455060D01*
X43874260Y6455060D01*
X43778760Y6359560D01*
X43776912Y6328060D01*
X37852500Y6328060D01*
X37852500Y14658312D01*
X65735538Y14658312D01*
X66639204Y14266219D01*
X70000160Y10905263D01*
X73361116Y14266219D01*
X65735538Y14658312D01*
X105735538Y14658312D01*
X106639204Y14266219D01*
X110000160Y10905263D01*
X113361116Y14266219D01*
X105735538Y14658312D01*
X65735538Y14658312D01*
X37852500Y14658312D01*
X37852500Y17067638D01*
X76674108Y17067638D01*
X116674108Y17067638D01*
X117066201Y17971304D01*
X120427157Y21332260D01*
X117066201Y24693216D01*
X116674108Y17067638D01*
X76674108Y17067638D01*
X77066201Y17971304D01*
X80427157Y21332260D01*
X99573163Y21332260D01*
X102934119Y17971304D01*
X103326212Y25596882D01*
X102934119Y24693216D01*
X99573163Y21332260D01*
X80427157Y21332260D01*
X77066201Y24693216D01*
X76674108Y17067638D01*
X37852500Y17067638D01*
X37852500Y21332260D01*
X59573163Y21332260D01*
X62934119Y17971304D01*
X63326212Y25596882D01*
X62934119Y24693216D01*
X59573163Y21332260D01*
X37852500Y21332260D01*
X37852500Y28398301D01*
X66639204Y28398301D01*
X74264782Y28006208D01*
X73361116Y28398301D01*
X106639204Y28398301D01*
X114264782Y28006208D01*
X113361116Y28398301D01*
X110000160Y31759257D01*
X106639204Y28398301D01*
X73361116Y28398301D01*
X70000160Y31759257D01*
X66639204Y28398301D01*
X37852500Y28398301D01*
X37852500Y36328060D01*
X43776912Y36328060D01*
X43778760Y36296560D01*
X43874260Y36201060D01*
X44287760Y36201060D01*
X44287760Y36614560D01*
X134033760Y36614560D01*
X134033760Y36201060D01*
X134447260Y36201060D01*
X134542760Y36296560D01*
X134544608Y36328060D01*
X134537232Y36402945D01*
X134515389Y36474952D01*
X134479918Y36541315D01*
X134432182Y36599482D01*
X134374015Y36647218D01*
X134307652Y36682689D01*
X134235645Y36704532D01*
X134160760Y36711908D01*
X134129260Y36710060D01*
X134033760Y36614560D01*
X44287760Y36614560D01*
X44192260Y36710060D01*
X44160760Y36711908D01*
X44085875Y36704532D01*
X44013868Y36682689D01*
X43947505Y36647218D01*
X43889338Y36599482D01*
X43841602Y36541315D01*
X43806131Y36474952D01*
X43784288Y36402945D01*
X43776912Y36328060D01*
X37852500Y36328060D01*
X37852500Y37340014D01*
X41014066Y40501580D01*
X135192920Y40501580D01*
X135193847Y40501583D01*
X142773160Y40556881D01*
X142773160Y585189D01*
M02*
