G04 #@! TF.GenerationSoftware,KiCad,Pcbnew,(5.1.6)-1*
G04 #@! TF.CreationDate,2021-03-03T14:17:41+01:00*
G04 #@! TF.ProjectId,Busbar board,42757362-6172-4206-926f-6172642e6b69,rev?*
G04 #@! TF.SameCoordinates,PX4c4b360PY85843d4*
G04 #@! TF.FileFunction,Legend,Top*
G04 #@! TF.FilePolarity,Positive*
%FSLAX46Y46*%
G04 Gerber Fmt 4.6, Leading zero omitted, Abs format (unit mm)*
G04 Created by KiCad (PCBNEW (5.1.6)-1) date 2021-03-03 14:17:41*
%MOMM*%
%LPD*%
G01*
G04 APERTURE LIST*
%ADD10C,0.300000*%
%ADD11C,1.000000*%
%ADD12C,0.120000*%
%ADD13C,0.200000*%
%ADD14C,0.075000*%
%ADD15C,0.150000*%
G04 APERTURE END LIST*
D10*
X13006422Y76132260D02*
X12863565Y76203689D01*
X12649280Y76203689D01*
X12434994Y76132260D01*
X12292137Y75989403D01*
X12220708Y75846546D01*
X12149280Y75560832D01*
X12149280Y75346546D01*
X12220708Y75060832D01*
X12292137Y74917975D01*
X12434994Y74775118D01*
X12649280Y74703689D01*
X12792137Y74703689D01*
X13006422Y74775118D01*
X13077851Y74846546D01*
X13077851Y75346546D01*
X12792137Y75346546D01*
X13720708Y74703689D02*
X13720708Y76203689D01*
X14577851Y74703689D01*
X14577851Y76203689D01*
X15292137Y74703689D02*
X15292137Y76203689D01*
X15649280Y76203689D01*
X15863565Y76132260D01*
X16006422Y75989403D01*
X16077851Y75846546D01*
X16149280Y75560832D01*
X16149280Y75346546D01*
X16077851Y75060832D01*
X16006422Y74917975D01*
X15863565Y74775118D01*
X15649280Y74703689D01*
X15292137Y74703689D01*
X-6192298Y75224318D02*
X-5049440Y75224318D01*
X-5620869Y74652889D02*
X-5620869Y75795746D01*
X-3549440Y74652889D02*
X-4406583Y74652889D01*
X-3978012Y74652889D02*
X-3978012Y76152889D01*
X-4120869Y75938603D01*
X-4263726Y75795746D01*
X-4406583Y75724318D01*
X-2978012Y76010032D02*
X-2906583Y76081460D01*
X-2763726Y76152889D01*
X-2406583Y76152889D01*
X-2263726Y76081460D01*
X-2192298Y76010032D01*
X-2120869Y75867175D01*
X-2120869Y75724318D01*
X-2192298Y75510032D01*
X-3049440Y74652889D01*
X-2120869Y74652889D01*
X-1692298Y76152889D02*
X-1192298Y74652889D01*
X-692298Y76152889D01*
D11*
X90919680Y42022780D02*
X90538728Y42213257D01*
X89967300Y42213257D01*
X89395871Y42022780D01*
X89014919Y41641828D01*
X88824442Y41260876D01*
X88633966Y40498971D01*
X88633966Y39927542D01*
X88824442Y39165638D01*
X89014919Y38784685D01*
X89395871Y38403733D01*
X89967300Y38213257D01*
X90348252Y38213257D01*
X90919680Y38403733D01*
X91110157Y38594209D01*
X91110157Y39927542D01*
X90348252Y39927542D01*
X92824442Y38213257D02*
X92824442Y42213257D01*
X95110157Y38213257D01*
X95110157Y42213257D01*
X97014919Y38213257D02*
X97014919Y42213257D01*
X97967300Y42213257D01*
X98538728Y42022780D01*
X98919680Y41641828D01*
X99110157Y41260876D01*
X99300633Y40498971D01*
X99300633Y39927542D01*
X99110157Y39165638D01*
X98919680Y38784685D01*
X98538728Y38403733D01*
X97967300Y38213257D01*
X97014919Y38213257D01*
X90475680Y90824086D02*
X93523300Y90824086D01*
X91999490Y89300277D02*
X91999490Y92347896D01*
X97523300Y89300277D02*
X95237585Y89300277D01*
X96380442Y89300277D02*
X96380442Y93300277D01*
X95999490Y92728848D01*
X95618538Y92347896D01*
X95237585Y92157420D01*
X99047109Y92919324D02*
X99237585Y93109800D01*
X99618538Y93300277D01*
X100570919Y93300277D01*
X100951871Y93109800D01*
X101142347Y92919324D01*
X101332823Y92538372D01*
X101332823Y92157420D01*
X101142347Y91585991D01*
X98856633Y89300277D01*
X101332823Y89300277D01*
X102475680Y93300277D02*
X103809014Y89300277D01*
X105142347Y93300277D01*
D12*
X142750160Y2260D02*
G75*
G03*
X142750160Y2260I-2750000J0D01*
G01*
X2750160Y90002260D02*
G75*
G03*
X2750160Y90002260I-2750000J0D01*
G01*
X142750160Y90002260D02*
G75*
G03*
X142750160Y90002260I-2750000J0D01*
G01*
X2750160Y2260D02*
G75*
G03*
X2750160Y2260I-2750000J0D01*
G01*
D13*
X10572960Y73443040D02*
X922960Y73443040D01*
X922960Y73443040D02*
X922960Y77813040D01*
X10572960Y77813040D02*
X922960Y77813040D01*
X10572960Y73443040D02*
X10572960Y77813040D01*
X2000160Y8482260D02*
X7400160Y8482260D01*
X7400160Y8482260D02*
X7400160Y18082260D01*
X7400160Y18082260D02*
X2000160Y18082260D01*
X2000160Y18082260D02*
X2000160Y8482260D01*
X7400160Y12482260D02*
X7900160Y12482260D01*
X7900160Y12482260D02*
X7900160Y13982260D01*
X7900160Y13982260D02*
X7400160Y13982260D01*
D14*
X-8509840Y6667260D02*
X-8509840Y83337260D01*
X-24999840Y6667260D02*
X-8509840Y6667260D01*
X-24999840Y83337260D02*
X-24999840Y6667260D01*
X-8509840Y83337260D02*
X-24999840Y83337260D01*
D15*
X86931247Y85330440D02*
X87169342Y84330440D01*
X87359819Y85044725D01*
X87550295Y84330440D01*
X87788390Y85330440D01*
X88693152Y84330440D02*
X88121723Y84330440D01*
X88407438Y84330440D02*
X88407438Y85330440D01*
X88312200Y85187582D01*
X88216961Y85092344D01*
X88121723Y85044725D01*
X89026485Y85330440D02*
X89645533Y85330440D01*
X89312200Y84949487D01*
X89455057Y84949487D01*
X89550295Y84901868D01*
X89597914Y84854249D01*
X89645533Y84759011D01*
X89645533Y84520916D01*
X89597914Y84425678D01*
X89550295Y84378059D01*
X89455057Y84330440D01*
X89169342Y84330440D01*
X89074104Y84378059D01*
X89026485Y84425678D01*
X86715547Y5894000D02*
X86953642Y4894000D01*
X87144119Y5608285D01*
X87334595Y4894000D01*
X87572690Y5894000D01*
X87906023Y5798761D02*
X87953642Y5846380D01*
X88048880Y5894000D01*
X88286976Y5894000D01*
X88382214Y5846380D01*
X88429833Y5798761D01*
X88477452Y5703523D01*
X88477452Y5608285D01*
X88429833Y5465428D01*
X87858404Y4894000D01*
X88477452Y4894000D01*
X89096500Y5894000D02*
X89191738Y5894000D01*
X89286976Y5846380D01*
X89334595Y5798761D01*
X89382214Y5703523D01*
X89429833Y5513047D01*
X89429833Y5274952D01*
X89382214Y5084476D01*
X89334595Y4989238D01*
X89286976Y4941619D01*
X89191738Y4894000D01*
X89096500Y4894000D01*
X89001261Y4941619D01*
X88953642Y4989238D01*
X88906023Y5084476D01*
X88858404Y5274952D01*
X88858404Y5513047D01*
X88906023Y5703523D01*
X88953642Y5798761D01*
X89001261Y5846380D01*
X89096500Y5894000D01*
X142914178Y-1742360D02*
X143152273Y-2742360D01*
X143342749Y-2028075D01*
X143533225Y-2742360D01*
X143771320Y-1742360D01*
X144676082Y-2742360D02*
X144104654Y-2742360D01*
X144390368Y-2742360D02*
X144390368Y-1742360D01*
X144295130Y-1885218D01*
X144199892Y-1980456D01*
X144104654Y-2028075D01*
X2914178Y88257640D02*
X3152273Y87257640D01*
X3342749Y87971925D01*
X3533225Y87257640D01*
X3771320Y88257640D01*
X4104654Y88162401D02*
X4152273Y88210020D01*
X4247511Y88257640D01*
X4485606Y88257640D01*
X4580844Y88210020D01*
X4628463Y88162401D01*
X4676082Y88067163D01*
X4676082Y87971925D01*
X4628463Y87829068D01*
X4057035Y87257640D01*
X4676082Y87257640D01*
X142914178Y88257640D02*
X143152273Y87257640D01*
X143342749Y87971925D01*
X143533225Y87257640D01*
X143771320Y88257640D01*
X144057035Y88257640D02*
X144676082Y88257640D01*
X144342749Y87876687D01*
X144485606Y87876687D01*
X144580844Y87829068D01*
X144628463Y87781449D01*
X144676082Y87686211D01*
X144676082Y87448116D01*
X144628463Y87352878D01*
X144580844Y87305259D01*
X144485606Y87257640D01*
X144199892Y87257640D01*
X144104654Y87305259D01*
X144057035Y87352878D01*
X2914178Y-1742360D02*
X3152273Y-2742360D01*
X3342749Y-2028075D01*
X3533225Y-2742360D01*
X3771320Y-1742360D01*
X4580844Y-2075694D02*
X4580844Y-2742360D01*
X4342749Y-1694741D02*
X4104654Y-2409027D01*
X4723701Y-2409027D01*
X67837740Y65791359D02*
X68837740Y66029454D01*
X68123455Y66219930D01*
X68837740Y66410406D01*
X67837740Y66648501D01*
X67837740Y67505644D02*
X67837740Y67029454D01*
X68313931Y66981835D01*
X68266312Y67029454D01*
X68218693Y67124692D01*
X68218693Y67362787D01*
X68266312Y67458025D01*
X68313931Y67505644D01*
X68409169Y67553263D01*
X68647264Y67553263D01*
X68742502Y67505644D01*
X68790121Y67458025D01*
X68837740Y67362787D01*
X68837740Y67124692D01*
X68790121Y67029454D01*
X68742502Y66981835D01*
X107837740Y65791359D02*
X108837740Y66029454D01*
X108123455Y66219930D01*
X108837740Y66410406D01*
X107837740Y66648501D01*
X107837740Y67458025D02*
X107837740Y67267549D01*
X107885360Y67172311D01*
X107932979Y67124692D01*
X108075836Y67029454D01*
X108266312Y66981835D01*
X108647264Y66981835D01*
X108742502Y67029454D01*
X108790121Y67077073D01*
X108837740Y67172311D01*
X108837740Y67362787D01*
X108790121Y67458025D01*
X108742502Y67505644D01*
X108647264Y67553263D01*
X108409169Y67553263D01*
X108313931Y67505644D01*
X108266312Y67458025D01*
X108218693Y67362787D01*
X108218693Y67172311D01*
X108266312Y67077073D01*
X108313931Y67029454D01*
X108409169Y66981835D01*
X65337740Y17815168D02*
X66337740Y18053263D01*
X65623455Y18243740D01*
X66337740Y18434216D01*
X65337740Y18672311D01*
X66337740Y19577073D02*
X66337740Y19005644D01*
X66337740Y19291359D02*
X65337740Y19291359D01*
X65480598Y19196120D01*
X65575836Y19100882D01*
X65623455Y19005644D01*
X66337740Y20529454D02*
X66337740Y19958025D01*
X66337740Y20243740D02*
X65337740Y20243740D01*
X65480598Y20148501D01*
X65575836Y20053263D01*
X65623455Y19958025D01*
X105337740Y17815168D02*
X106337740Y18053263D01*
X105623455Y18243740D01*
X106337740Y18434216D01*
X105337740Y18672311D01*
X106337740Y19577073D02*
X106337740Y19005644D01*
X106337740Y19291359D02*
X105337740Y19291359D01*
X105480598Y19196120D01*
X105575836Y19100882D01*
X105623455Y19005644D01*
X105432979Y19958025D02*
X105385360Y20005644D01*
X105337740Y20100882D01*
X105337740Y20338978D01*
X105385360Y20434216D01*
X105432979Y20481835D01*
X105528217Y20529454D01*
X105623455Y20529454D01*
X105766312Y20481835D01*
X106337740Y19910406D01*
X106337740Y20529454D01*
X9447146Y73077460D02*
X9447146Y72363174D01*
X9399527Y72220317D01*
X9304289Y72125079D01*
X9161432Y72077460D01*
X9066194Y72077460D01*
X9828099Y73077460D02*
X10494765Y73077460D01*
X10066194Y72077460D01*
X-3114420Y9942167D02*
X-2400134Y9942167D01*
X-2257277Y9894548D01*
X-2162039Y9799310D01*
X-2114420Y9656453D01*
X-2114420Y9561215D01*
X-2685848Y10561215D02*
X-2733467Y10465977D01*
X-2781086Y10418358D01*
X-2876324Y10370739D01*
X-2923943Y10370739D01*
X-3019181Y10418358D01*
X-3066800Y10465977D01*
X-3114420Y10561215D01*
X-3114420Y10751691D01*
X-3066800Y10846929D01*
X-3019181Y10894548D01*
X-2923943Y10942167D01*
X-2876324Y10942167D01*
X-2781086Y10894548D01*
X-2733467Y10846929D01*
X-2685848Y10751691D01*
X-2685848Y10561215D01*
X-2638229Y10465977D01*
X-2590610Y10418358D01*
X-2495372Y10370739D01*
X-2304896Y10370739D01*
X-2209658Y10418358D01*
X-2162039Y10465977D01*
X-2114420Y10561215D01*
X-2114420Y10751691D01*
X-2162039Y10846929D01*
X-2209658Y10894548D01*
X-2304896Y10942167D01*
X-2495372Y10942167D01*
X-2590610Y10894548D01*
X-2638229Y10846929D01*
X-2685848Y10751691D01*
X-8297460Y81003927D02*
X-7583174Y81003927D01*
X-7440317Y80956308D01*
X-7345079Y80861070D01*
X-7297460Y80718213D01*
X-7297460Y80622975D01*
X-7297460Y81527737D02*
X-7297460Y81718213D01*
X-7345079Y81813451D01*
X-7392698Y81861070D01*
X-7535555Y81956308D01*
X-7726031Y82003927D01*
X-8106983Y82003927D01*
X-8202221Y81956308D01*
X-8249840Y81908689D01*
X-8297460Y81813451D01*
X-8297460Y81622975D01*
X-8249840Y81527737D01*
X-8202221Y81480118D01*
X-8106983Y81432499D01*
X-7868888Y81432499D01*
X-7773650Y81480118D01*
X-7726031Y81527737D01*
X-7678412Y81622975D01*
X-7678412Y81813451D01*
X-7726031Y81908689D01*
X-7773650Y81956308D01*
X-7868888Y82003927D01*
M02*
