M48
; DRILL file {KiCad (5.1.5)-3} date 12/10/2021 18:03:30
; FORMAT={-:-/ absolute / metric / decimal}
; #@! TF.CreationDate,2021-10-12T18:03:30+02:00
; #@! TF.GenerationSoftware,Kicad,Pcbnew,(5.1.5)-3
; #@! TF.FileFunction,Plated,1,6,PTH
FMAT,2
METRIC
T1C0.250
T2C0.300
T3C0.350
T4C0.400
T5C0.500
T6C1.350
T7C3.200
%
G90
G05
T1
X10.199Y-4.6
X10.701Y-4.6
X13.4Y12.625
X13.864Y12.194
X14.219Y11.839
X14.7Y11.4
X17.05Y11.425
X17.497Y11.003
X17.853Y10.647
X18.35Y10.2
X20.725Y3.425
X21.85Y-18.9
X22.449Y-18.9
X22.65Y11.7
X22.65Y11.051
X22.65Y10.549
X22.65Y9.925
X22.95Y4.95
X22.95Y4.301
X22.95Y3.799
X22.95Y3.175
X22.951Y-18.9
X23.55Y-18.9
X23.6Y-19.85
X24.199Y-19.85
X24.701Y-19.85
X25.3Y-19.85
X25.35Y-18.9
X25.4Y9.901
X25.4Y9.399
X25.45Y5.401
X25.45Y4.899
X25.954Y-18.9
X26.457Y-18.9
X27.05Y-18.9
X27.1Y-19.85
X27.699Y-19.85
X28.201Y-19.85
X28.8Y-19.85
X28.85Y-18.9
X29.449Y-18.9
X29.951Y-18.9
X30.55Y-18.9
X30.6Y-19.85
X31.199Y-19.85
X31.65Y8.901
X31.65Y8.399
X31.701Y-19.85
X32.3Y-19.85
X32.35Y-18.9
X32.949Y-18.9
X33.451Y-18.9
X34.05Y-18.9
X34.1Y-19.85
X34.699Y-19.85
X35.201Y-19.85
X35.8Y-19.85
X40.65Y11.7
X40.65Y11.051
X40.65Y10.549
X40.65Y9.925
X40.95Y4.95
X40.95Y4.301
X40.95Y3.799
X40.95Y3.175
X43.4Y9.901
X43.4Y9.399
X43.45Y5.401
X43.45Y4.899
X46.725Y-1.975
X46.725Y-2.599
X46.725Y-3.101
X46.725Y-3.75
X48.375Y-6.325
X48.375Y-6.949
X48.375Y-7.451
X48.375Y-8.1
X49.65Y8.901
X49.65Y8.399
X49.899Y-23.8
X50.401Y-23.8
X58.65Y11.7
X58.65Y11.051
X58.65Y10.549
X58.65Y9.925
X58.95Y4.95
X58.95Y4.301
X58.95Y3.799
X58.95Y3.175
X59.9Y-17.975
X59.9Y-18.599
X59.9Y-19.101
X59.9Y-19.75
X60.05Y-12.65
X60.05Y-13.299
X60.05Y-13.801
X60.05Y-14.425
X61.4Y9.901
X61.4Y9.399
X61.45Y5.401
X61.45Y4.899
X61.85Y-21.4
X62.449Y-21.4
X62.951Y-21.4
X63.55Y-21.4
X63.6Y-22.35
X64.199Y-22.35
X64.701Y-22.35
X65.3Y-22.35
X65.35Y-21.4
X65.949Y-21.4
X66.451Y-21.4
X67.05Y-21.4
X67.1Y-22.35
X67.65Y8.901
X67.65Y8.399
X67.699Y-22.35
X68.201Y-22.35
X68.8Y-22.35
X68.85Y-21.4
X69.449Y-21.4
X69.951Y-21.4
X70.55Y-21.4
X70.6Y-22.35
X71.199Y-22.35
X71.701Y-22.35
X72.3Y-22.35
X72.35Y-21.4
X72.949Y-21.4
X73.451Y-21.4
X74.05Y-21.4
X74.1Y-22.35
X74.699Y-22.35
X75.201Y-22.35
X75.6Y-21.4
X75.8Y-22.35
X76.199Y-21.4
X76.65Y11.7
X76.65Y11.051
X76.65Y10.549
X76.65Y9.925
X76.701Y-21.4
X76.95Y4.95
X76.95Y4.301
X76.95Y3.799
X76.95Y3.175
X77.3Y-21.4
X77.35Y-22.35
X77.949Y-22.35
X78.451Y-22.35
X79.05Y-22.35
X79.1Y-21.4
X79.4Y9.901
X79.4Y9.399
X79.45Y5.401
X79.45Y4.899
X79.699Y-21.4
X80.201Y-21.4
X80.8Y-21.4
X80.85Y-22.35
X81.449Y-22.35
X81.951Y-22.35
X82.55Y-22.35
X82.6Y-21.4
X83.199Y-21.4
X83.701Y-21.4
X84.3Y-21.4
X84.35Y-22.35
X84.949Y-22.35
X85.451Y-22.35
X85.65Y8.901
X85.65Y8.399
X86.05Y-22.35
X86.1Y-21.4
X86.699Y-21.4
X87.201Y-21.4
X87.8Y-21.4
X87.85Y-22.35
X88.449Y-22.35
X88.951Y-22.35
X89.55Y-22.35
X89.6Y-21.4
X90.199Y-21.4
X90.701Y-21.4
X91.3Y-21.4
X91.35Y-22.35
X91.949Y-22.35
X92.451Y-22.35
X93.05Y-22.35
X93.1Y-21.4
X93.699Y-21.4
X94.201Y-21.4
X94.65Y11.7
X94.65Y11.051
X94.65Y10.549
X94.65Y9.925
X94.8Y-21.4
X94.85Y-22.35
X94.95Y4.95
X94.95Y4.301
X94.95Y3.799
X94.95Y3.175
X95.449Y-22.35
X95.951Y-22.35
X96.55Y-22.35
X96.6Y-21.4
X97.199Y-21.4
X97.4Y9.901
X97.4Y9.399
X97.45Y5.401
X97.45Y4.899
X97.701Y-21.4
X98.3Y-21.4
X98.6Y-22.35
X99.199Y-22.35
X99.701Y-22.35
X100.3Y-22.35
X100.35Y-21.4
X100.949Y-21.4
X101.451Y-21.4
X102.05Y-21.4
X102.1Y-22.35
X102.699Y-22.35
X103.201Y-22.35
X103.65Y8.901
X103.65Y8.399
X103.8Y-22.35
X103.85Y-21.4
X104.449Y-21.4
X104.951Y-21.4
X105.55Y-21.4
X105.6Y-22.35
X106.199Y-22.35
X106.701Y-22.35
X107.3Y-22.35
X107.35Y-21.4
X107.949Y-21.4
X108.451Y-21.4
X109.05Y-21.4
X109.1Y-22.35
X109.699Y-22.35
X110.201Y-22.35
X110.8Y-22.35
X110.85Y-21.4
X111.449Y-21.4
X111.951Y-21.4
X112.55Y-21.4
X112.6Y-22.35
X112.65Y11.7
X112.65Y11.051
X112.65Y10.549
X112.65Y9.925
X112.95Y4.95
X112.95Y4.301
X112.95Y3.799
X112.95Y3.175
X113.199Y-22.35
X113.701Y-22.35
X114.3Y-22.35
X114.35Y-21.4
X114.949Y-21.4
X115.4Y9.901
X115.4Y9.399
X115.45Y5.401
X115.45Y4.899
X115.451Y-21.4
X116.05Y-21.4
X116.1Y-22.35
X116.699Y-22.35
X117.201Y-22.35
X117.8Y-22.35
X117.85Y-21.4
X118.449Y-21.4
X118.951Y-21.4
X119.55Y-21.4
X119.6Y-22.35
X120.199Y-22.35
X120.701Y-22.35
X121.3Y-22.35
X121.35Y-21.4
X121.65Y8.901
X121.65Y8.399
X121.949Y-21.4
X122.451Y-21.4
X123.05Y-21.4
X123.1Y-22.35
X123.699Y-22.35
X124.201Y-22.35
X124.8Y-22.35
X124.85Y-21.4
X125.449Y-21.4
X125.951Y-21.4
X126.55Y-21.4
X126.85Y-22.35
X127.449Y-22.35
X127.951Y-22.35
X128.55Y-22.35
X128.6Y-21.4
X129.199Y-21.4
X129.701Y-21.4
X130.3Y-21.4
X130.35Y-22.35
X130.949Y-22.35
X131.451Y-22.35
X132.05Y-22.35
T2
X2.8Y-10.625
X3.375Y20.775
X3.375Y19.525
X3.375Y18.275
X4.1Y-10.625
X4.625Y20.775
X4.625Y19.525
X4.625Y18.275
X5.4Y-10.375
X5.875Y20.775
X5.875Y19.525
X5.875Y18.275
X6.4Y-23.5
X6.7Y-10.375
X7.1Y-24.3
X7.125Y20.775
X7.125Y19.525
X7.125Y18.275
X8.0Y-10.375
X8.375Y20.775
X8.375Y19.525
X8.9Y1.1
X9.0Y4.375
X9.3Y-10.375
X9.975Y1.1
X10.0Y4.375
X10.6Y-10.375
X10.975Y3.875
X11.125Y1.1
X11.9Y-10.375
X12.3Y-7.05
X13.2Y-10.375
X13.55Y-7.05
X13.75Y-6.05
X13.8Y-3.9
X14.275Y1.25
X14.275Y0.25
X14.275Y-0.75
X14.8Y-7.05
X14.9Y-6.075
X14.975Y-3.925
X15.0Y4.425
X15.0Y3.725
X15.275Y1.25
X15.275Y0.25
X15.275Y-0.75
X15.65Y-3.25
X16.05Y-7.05
X16.275Y1.25
X16.275Y0.25
X16.275Y-0.75
X16.35Y-11.7
X16.9Y-3.25
X17.3Y-7.05
X17.475Y3.6
X17.6Y-34.55
X17.6Y-35.55
X17.6Y-36.55
X17.6Y-37.55
X17.6Y-38.55
X17.6Y-39.55
X17.6Y-40.55
X18.05Y4.4
X18.15Y-3.25
X18.35Y-11.025
X18.4Y3.6
X18.6Y-0.275
X18.6Y-34.55
X18.6Y-35.55
X18.6Y-36.55
X18.6Y-37.55
X18.6Y-38.55
X18.6Y-39.55
X18.6Y-40.55
X18.625Y2.2
X20.25Y0.8
X20.25Y0.05
X21.1Y-0.325
X23.525Y-35.325
X23.525Y-36.325
X24.225Y6.4
X24.525Y-35.325
X24.525Y-36.325
X25.1Y7.65
X25.2Y6.9
X26.1Y10.4
X26.1Y8.9
X26.1Y7.4
X26.1Y5.9
X26.1Y4.4
X27.65Y-37.9
X29.15Y-1.45
X30.325Y-42.872
X31.0Y10.9
X31.05Y6.4
X31.05Y4.9
X31.1Y9.4
X31.1Y7.9
X33.2Y-42.872
X34.125Y13.9
X34.5Y8.225
X35.5Y13.7
X36.2Y-42.872
X37.15Y12.05
X38.2Y-42.872
X39.225Y19.0
X39.4Y-24.75
X39.95Y-23.75
X40.2Y-42.872
X40.4Y-24.75
X40.425Y1.5
X40.95Y-23.75
X41.4Y-24.75
X41.95Y-23.75
X42.2Y-42.872
X42.3Y15.375
X42.75Y6.0
X42.775Y6.9
X42.95Y-23.75
X43.1Y7.65
X43.85Y16.25
X43.95Y-23.75
X44.1Y10.4
X44.1Y8.9
X44.1Y7.4
X44.1Y5.9
X44.1Y4.4
X44.1Y-17.325
X44.2Y-42.872
X44.95Y-23.75
X45.35Y-17.325
X45.4Y-10.075
X45.775Y-14.275
X45.775Y-15.525
X45.975Y-11.6
X46.2Y-42.872
X46.4Y-10.075
X46.875Y-11.15
X47.05Y-13.475
X47.5Y-20.45
X48.15Y-16.075
X48.15Y-17.075
X48.15Y-18.075
X48.5Y-13.025
X48.875Y-11.15
X49.05Y6.4
X49.05Y4.9
X49.075Y-10.1
X49.1Y10.9
X49.1Y9.4
X49.1Y7.9
X49.15Y-16.075
X49.15Y-17.075
X49.15Y-18.075
X49.2Y-42.872
X50.025Y-13.725
X50.15Y-16.075
X50.15Y-17.075
X50.15Y-18.075
X51.3Y8.4
X51.325Y16.25
X52.2Y-42.872
X52.6Y-14.325
X52.6Y-15.325
X52.75Y-17.3
X52.95Y14.325
X53.1Y-20.825
X53.75Y-17.3
X53.95Y20.125
X54.2Y-42.872
X54.35Y-20.825
X55.325Y18.35
X55.6Y-20.825
X56.2Y-42.872
X56.375Y-21.85
X56.525Y16.25
X56.775Y20.125
X56.85Y-20.825
X57.625Y-21.85
X58.2Y-42.872
X60.2Y-42.872
X60.525Y6.9
X60.925Y6.05
X61.1Y7.65
X62.1Y10.4
X62.1Y8.9
X62.1Y7.4
X62.1Y5.9
X62.1Y4.4
X62.2Y-42.872
X64.2Y-42.872
X66.45Y-39.7
X66.7Y-42.872
X67.05Y6.4
X67.05Y4.9
X67.1Y10.9
X67.1Y9.4
X67.1Y7.9
X69.2Y-42.872
X69.3Y8.4
X69.675Y16.25
X70.95Y14.375
X71.2Y-42.872
X72.225Y16.25
X73.2Y-42.872
X75.2Y-42.872
X77.2Y-42.872
X78.875Y6.0
X78.9Y6.9
X79.1Y7.65
X79.2Y-42.872
X80.1Y10.4
X80.1Y8.9
X80.1Y7.4
X80.1Y5.9
X80.1Y4.4
X81.2Y-42.872
X83.2Y-42.872
X85.05Y6.4
X85.05Y4.9
X85.1Y10.9
X85.1Y9.4
X85.1Y7.9
X85.2Y-42.872
X86.8Y7.9
X87.2Y-42.872
X87.65Y16.25
X88.95Y14.3
X89.2Y-42.872
X90.225Y16.25
X91.2Y-42.872
X93.2Y-42.872
X95.2Y-42.872
X96.75Y6.0
X96.775Y6.9
X97.1Y7.65
X97.2Y-42.872
X98.1Y10.4
X98.1Y8.9
X98.1Y7.4
X98.1Y5.9
X98.1Y4.4
X99.45Y-40.0
X99.7Y-42.872
X102.2Y-42.872
X103.05Y6.4
X103.05Y4.9
X103.1Y10.9
X103.1Y9.4
X103.1Y7.9
X104.2Y-42.872
X105.375Y16.25
X105.95Y7.825
X106.2Y-42.872
X106.95Y14.425
X108.2Y-42.872
X108.225Y16.25
X110.2Y-42.872
X112.2Y-42.872
X114.2Y-42.872
X114.75Y6.0
X114.775Y6.9
X115.1Y7.65
X116.1Y10.4
X116.1Y8.9
X116.1Y7.4
X116.1Y5.9
X116.1Y4.4
X116.2Y-42.872
X118.2Y-42.872
X120.2Y-42.872
X121.05Y6.4
X121.05Y4.9
X121.1Y10.9
X121.1Y9.4
X121.1Y7.9
X122.2Y-42.872
X123.6Y16.25
X124.0Y7.9
X124.2Y-42.872
X124.95Y14.325
X126.2Y-42.872
X126.425Y20.125
X127.7Y16.0
X128.2Y-42.872
X130.2Y-42.872
X135.6Y-8.8
T3
X2.15Y-11.375
X2.625Y14.95
X2.625Y13.95
X2.625Y12.95
X2.625Y-17.975
X3.45Y-11.375
X3.625Y14.95
X3.625Y13.95
X3.625Y12.95
X4.625Y13.95
X4.75Y-11.375
X5.15Y-29.575
X5.625Y13.95
X6.05Y-11.375
X6.45Y-29.575
X6.625Y13.95
X7.35Y-11.375
X8.45Y-0.875
X8.65Y-11.375
X8.7Y-28.55
X8.7Y-29.8
X9.05Y7.75
X9.95Y-11.375
X9.95Y-28.55
X9.95Y-29.8
X10.4Y9.0
X11.2Y-28.55
X11.2Y-29.8
X11.25Y-11.375
X12.55Y-11.375
X12.8Y-22.65
X13.175Y3.4
X13.5Y-3.0
X13.85Y-11.375
X14.95Y9.0
X15.0Y6.325
X15.35Y-14.65
X17.5Y-25.85
X17.55Y-16.45
X17.65Y2.6
X17.65Y-2.2
X17.8Y-20.1
X17.8Y-21.1
X18.65Y-22.8
X18.65Y-26.025
X18.75Y-15.15
X18.925Y-2.15
X19.375Y9.0
X19.6Y-43.307
X20.1Y4.625
X20.625Y2.275
X20.85Y14.55
X21.175Y-1.5
X22.6Y-43.325
X23.425Y-32.375
X23.875Y-38.85
X23.875Y-39.85
X23.875Y-40.85
X23.875Y-41.85
X23.875Y-42.85
X24.4Y0.275
X24.575Y1.275
X24.575Y-32.35
X24.6Y13.35
X24.875Y-38.85
X24.875Y-39.85
X24.875Y-40.85
X24.875Y-41.85
X24.875Y-42.85
X25.65Y14.65
X30.825Y2.475
X31.2Y14.675
X32.85Y13.9
X33.15Y1.5
X34.025Y15.1
X35.55Y-38.55
X37.2Y14.6
X37.9Y-17.2
X40.75Y8.4
X41.225Y-22.575
X41.25Y-21.375
X41.5Y6.925
X41.75Y-11.6
X41.9Y-17.2
X42.55Y1.3
X42.6Y13.35
X43.85Y14.55
X45.175Y-20.325
X45.6Y-19.375
X46.6Y-26.875
X46.725Y-37.5
X46.75Y-14.75
X47.5Y-22.65
X48.0Y-26.875
X48.875Y2.3
X49.75Y14.975
X49.9Y-11.175
X50.85Y13.9
X51.15Y1.5
X51.55Y-14.7
X52.25Y-26.875
X52.425Y-18.85
X52.475Y-11.6
X54.0Y-23.725
X55.2Y-23.725
X56.475Y-17.375
X57.275Y-12.2
X57.35Y-14.9
X57.7Y15.2
X57.7Y1.475
X58.75Y8.4
X58.875Y-17.5
X58.9Y-20.2
X60.6Y13.35
X60.9Y1.45
X61.85Y14.55
X66.45Y-36.75
X66.875Y2.425
X67.75Y14.775
X68.15Y1.15
X68.85Y13.9
X75.7Y15.2
X76.75Y8.4
X77.5Y6.925
X78.6Y13.35
X78.6Y1.275
X79.85Y14.55
X84.85Y2.325
X85.75Y14.8
X86.85Y13.9
X87.05Y9.125
X87.15Y1.5
X87.85Y14.7
X93.7Y15.2
X93.7Y1.475
X94.75Y8.4
X95.5Y7.025
X96.2Y1.35
X96.6Y13.35
X97.85Y14.55
X99.45Y-36.85
X102.9Y2.45
X103.75Y14.725
X104.85Y13.9
X105.15Y1.5
X111.7Y15.2
X111.7Y1.475
X112.75Y8.4
X114.2Y1.35
X115.85Y14.55
X116.775Y14.975
X121.025Y2.275
X122.85Y13.9
X123.4Y1.4
T4
X114.6Y13.35
X132.7Y-41.0
T5
X131.5Y-0.01
X132.203Y1.687
X132.203Y-1.707
X133.9Y2.39
X133.9Y-2.41
X135.597Y1.687
X135.597Y-1.707
X136.3Y-0.01
X-2.4Y0.0
X-1.697Y1.697
X-1.697Y-1.697
X0.0Y2.4
X0.0Y-2.4
X1.697Y1.697
X1.697Y-1.697
X2.4Y0.0
T6
X28.28Y14.23
X28.28Y1.07
X118.28Y14.23
X118.28Y1.07
X46.28Y14.23
X46.28Y1.07
X82.28Y14.23
X82.28Y1.07
X64.28Y14.23
X64.28Y1.07
X100.28Y14.23
X100.28Y1.07
T7
X133.9Y-0.01
X0.0Y0.0
T0
M30
