%TF.GenerationSoftware,KiCad,Pcbnew,(5.1.6)-1*%
%TF.CreationDate,2022-02-23T11:46:10+01:00*%
%TF.ProjectId,Riser Leopard 2OU PCIe x8 4xOculink,52697365-7220-44c6-956f-706172642032,rev?*%
%TF.SameCoordinates,PX459e440PY54cbc38*%
%TF.FileFunction,Copper,L4,Inr*%
%TF.FilePolarity,Positive*%
%FSLAX46Y46*%
G04 Gerber Fmt 4.6, Leading zero omitted, Abs format (unit mm)*
G04 Created by KiCad (PCBNEW (5.1.6)-1) date 2022-02-23 11:46:10*
%MOMM*%
%LPD*%
G01*
G04 APERTURE LIST*
%TA.AperFunction,ViaPad*%
%ADD10C,1.500000*%
%TD*%
%TA.AperFunction,WasherPad*%
%ADD11C,1.100000*%
%TD*%
%TA.AperFunction,WasherPad*%
%ADD12C,1.250000*%
%TD*%
%TA.AperFunction,ViaPad*%
%ADD13C,1.450000*%
%TD*%
%TA.AperFunction,ViaPad*%
%ADD14C,1.100000*%
%TD*%
%TA.AperFunction,ViaPad*%
%ADD15R,1.100000X1.100000*%
%TD*%
%TA.AperFunction,WasherPad*%
%ADD16C,2.600000*%
%TD*%
%TA.AperFunction,ViaPad*%
%ADD17C,6.400000*%
%TD*%
%TA.AperFunction,ViaPad*%
%ADD18C,0.800000*%
%TD*%
%TA.AperFunction,ViaPad*%
%ADD19C,0.350000*%
%TD*%
%TA.AperFunction,ViaPad*%
%ADD20C,0.500000*%
%TD*%
%TA.AperFunction,ViaPad*%
%ADD21C,0.600000*%
%TD*%
%TA.AperFunction,ViaPad*%
%ADD22C,0.400000*%
%TD*%
%TA.AperFunction,Conductor*%
%ADD23C,0.200000*%
%TD*%
%TA.AperFunction,Conductor*%
%ADD24C,0.254000*%
%TD*%
G04 APERTURE END LIST*
D10*
%TO.N,GND*%
%TO.C,J2*%
X80820000Y19385000D03*
X93980000Y19385000D03*
D11*
%TO.N,*%
X81780000Y18125000D03*
D12*
X93680000Y17765000D03*
%TD*%
%TO.N,*%
%TO.C,J3*%
X73680000Y17765000D03*
D11*
X61780000Y18125000D03*
D10*
%TO.N,GND*%
X73980000Y19385000D03*
D13*
X60820000Y19385000D03*
%TD*%
D12*
%TO.N,*%
%TO.C,J4*%
X133680000Y17765000D03*
D11*
X121780000Y18125000D03*
D10*
%TO.N,GND*%
X133980000Y19385000D03*
X120820000Y19385000D03*
%TD*%
%TO.N,GND*%
%TO.C,J5*%
X100820000Y19385000D03*
X113980000Y19385000D03*
D11*
%TO.N,*%
X101780000Y18125000D03*
D12*
X113680000Y17765000D03*
%TD*%
D14*
%TO.N,GND*%
%TO.C,J6*%
X66090000Y7095000D03*
X69090000Y5095000D03*
X73090000Y5095000D03*
%TO.N,/CPU0_RX6-*%
X72090000Y7095000D03*
%TO.N,/CPU0_RX6+*%
X71090000Y5095000D03*
%TO.N,GND*%
X70090000Y7095000D03*
%TO.N,/CPU0_RX5-*%
X68090000Y7095000D03*
%TO.N,/CPU0_RX5+*%
X67090000Y5095000D03*
%TO.N,GND*%
X60090000Y595000D03*
%TO.N,/CPU0_TX5-*%
X66090000Y595000D03*
%TO.N,/LAN_SMB_ALERT_N*%
X40090000Y595000D03*
%TO.N,IRQ_LVC_WAKE_N*%
X37090000Y2595000D03*
%TO.N,GND*%
X54090000Y595000D03*
%TO.N,/CPU0_TX1-*%
X48090000Y595000D03*
%TO.N,/CPU0_TX0+*%
X42090000Y595000D03*
%TO.N,GND*%
X44090000Y595000D03*
%TO.N,+12V*%
X27090000Y2595000D03*
%TO.N,GND*%
X46090000Y595000D03*
%TO.N,/CPU0_TX2-*%
X52090000Y595000D03*
%TO.N,GND*%
X49090000Y2595000D03*
%TO.N,+12V*%
X29090000Y2595000D03*
%TO.N,Net-(J6-PadB9)*%
X35090000Y2595000D03*
%TO.N,GND*%
X30090000Y595000D03*
%TO.N,/CPU0_TX5+*%
X65090000Y2595000D03*
%TO.N,GND*%
X63090000Y2595000D03*
%TO.N,/CPU0_TX4+*%
X61090000Y2595000D03*
%TO.N,/CPU0_TX3+*%
X55090000Y2595000D03*
%TO.N,PCIe_SMB_CLK*%
X31090000Y2595000D03*
%TO.N,/CPU0_TX1+*%
X47090000Y2595000D03*
%TO.N,GND*%
X53090000Y2595000D03*
%TO.N,/CPU0_TX0-*%
X43090000Y2595000D03*
%TO.N,+3.3Vaux*%
X36090000Y595000D03*
%TO.N,GND*%
X64090000Y595000D03*
%TO.N,+3V3*%
X34090000Y595000D03*
%TO.N,/CPU0_TX2+*%
X51090000Y2595000D03*
%TO.N,GND*%
X50090000Y595000D03*
%TO.N,PCIe_SMB_DATA*%
X32090000Y595000D03*
%TO.N,/PCIE_SLOT0_PRSNT_x4*%
X45090000Y2595000D03*
%TO.N,+12V*%
X28090000Y595000D03*
%TO.N,GND*%
X41090000Y2595000D03*
%TO.N,/CPU0_TX4-*%
X62090000Y595000D03*
%TO.N,GND*%
X57090000Y2595000D03*
%TO.N,/PCIE_SLOT0_PRSNT_x4*%
X59090000Y2595000D03*
%TO.N,Net-(J6-PadB30)*%
X58090000Y595000D03*
%TO.N,/CPU0_TX3-*%
X56090000Y595000D03*
%TO.N,GND*%
X33090000Y2595000D03*
%TO.N,CLK100_SLOT1-*%
X42090000Y7095000D03*
%TO.N,CLK100_SLOT1+*%
X41090000Y5095000D03*
%TO.N,GND*%
X43090000Y5095000D03*
X52090000Y7095000D03*
%TO.N,/CPU0_RX3+*%
X57090000Y5095000D03*
%TO.N,GND*%
X55090000Y5095000D03*
X56090000Y7095000D03*
%TO.N,/CPU0_RX2-*%
X54090000Y7095000D03*
%TO.N,GND*%
X51090000Y5095000D03*
%TO.N,/CPU0_RX2+*%
X53090000Y5095000D03*
%TO.N,/CPU0_RX1-*%
X50090000Y7095000D03*
%TO.N,GND*%
X75090000Y2595000D03*
%TO.N,/CPU0_TX7-*%
X74090000Y595000D03*
%TO.N,/CPU0_TX7+*%
X73090000Y2595000D03*
%TO.N,GND*%
X77090000Y2595000D03*
%TO.N,/CPU0_TX6-*%
X70090000Y595000D03*
%TO.N,GND*%
X68090000Y595000D03*
X71090000Y2595000D03*
%TO.N,/CPU0_TX6+*%
X69090000Y2595000D03*
%TO.N,/PCIE_SLOT0_PRSNT_x8*%
X76090000Y595000D03*
%TO.N,GND*%
X72090000Y595000D03*
X67090000Y2595000D03*
X59090000Y5095000D03*
%TO.N,/CPU0_RX4+*%
X63090000Y5095000D03*
%TO.N,GND*%
X62090000Y7095000D03*
%TO.N,/LAN_SMB_DAT*%
X61090000Y5095000D03*
%TO.N,GND*%
X65090000Y5095000D03*
%TO.N,/LAN_SMB_CLK*%
X60090000Y7095000D03*
%TO.N,/CPU0_RX3-*%
X58090000Y7095000D03*
%TO.N,/CPU0_RX4-*%
X64090000Y7095000D03*
%TO.N,/CPU0_RX1+*%
X49090000Y5095000D03*
%TO.N,GND*%
X48090000Y7095000D03*
%TO.N,Net-(J6-PadA19)*%
X47090000Y5095000D03*
%TO.N,Net-(J6-PadA7)*%
X33090000Y5095000D03*
%TO.N,Net-(J6-PadA8)*%
X34090000Y7095000D03*
%TO.N,Net-(J6-PadA5)*%
X31090000Y5095000D03*
%TO.N,Net-(J6-PadA6)*%
X32090000Y7095000D03*
%TO.N,+3V3*%
X35090000Y5095000D03*
%TO.N,GND*%
X40090000Y7095000D03*
%TO.N,RST_PERST0_N*%
X37090000Y5095000D03*
%TO.N,+3V3*%
X36090000Y7095000D03*
D15*
%TO.N,/PCIE_SLOT_PRSNT#1*%
X27090000Y5095000D03*
D14*
%TO.N,+12V*%
X28090000Y7095000D03*
%TO.N,GND*%
X30090000Y7095000D03*
%TO.N,+12V*%
X29090000Y5095000D03*
D16*
%TO.N,*%
X78890000Y3845000D03*
X38740000Y3845000D03*
D14*
%TO.N,GND*%
X77090000Y5095000D03*
%TO.N,/CPU0_RX7+*%
X75090000Y5095000D03*
%TO.N,GND*%
X74090000Y7095000D03*
%TO.N,/CPU0_RX7-*%
X76090000Y7095000D03*
%TO.N,/CPU0_RX0+*%
X44090000Y7095000D03*
%TO.N,GND*%
X46090000Y7095000D03*
%TO.N,/CPU0_RX0-*%
X45090000Y5095000D03*
%TD*%
D17*
%TO.N,GND*%
%TO.C,H1*%
X0Y0D03*
D18*
X2400000Y0D03*
X-1697056Y-1697056D03*
X1697056Y-1697056D03*
X0Y-2400000D03*
X-2400000Y0D03*
X1697056Y1697056D03*
X0Y2400000D03*
X-1697056Y1697056D03*
%TD*%
%TO.N,GND*%
%TO.C,H2*%
X132202944Y1697056D03*
X133900000Y2400000D03*
X135597056Y1697056D03*
X131500000Y0D03*
X133900000Y-2400000D03*
X135597056Y-1697056D03*
X132202944Y-1697056D03*
X136300000Y0D03*
D17*
X133900000Y0D03*
%TD*%
D19*
%TO.N,+12V*%
X75450000Y25340000D03*
X59850000Y25840000D03*
X95450000Y25590000D03*
X115450000Y25590000D03*
X135450000Y25840000D03*
X79850000Y25340000D03*
X99850000Y25590000D03*
X119850000Y25590000D03*
X144600000Y22565000D03*
D20*
X18050000Y-31485000D03*
X18050000Y-32485000D03*
X18050000Y-33485000D03*
X18050000Y-34485000D03*
X18050000Y-35485000D03*
X18050000Y-36485000D03*
X18050000Y-37485000D03*
X18050000Y-38485000D03*
X18050000Y-39485000D03*
X18050000Y-40485000D03*
X30150000Y26965000D03*
X31150000Y26965000D03*
X32150000Y26965000D03*
X33150000Y26965000D03*
X34150000Y26965000D03*
X35150000Y26965000D03*
X36150000Y26965000D03*
X37150000Y26965000D03*
X38150000Y26965000D03*
X39150000Y26965000D03*
X30150000Y25965000D03*
X31150000Y25965000D03*
X32150000Y25965000D03*
X33150000Y25965000D03*
X34150000Y25965000D03*
X35150000Y25965000D03*
X36150000Y25965000D03*
X37150000Y25965000D03*
X38150000Y25965000D03*
X39150000Y25965000D03*
X30150000Y24965000D03*
X31150000Y24965000D03*
X32150000Y24965000D03*
X33150000Y24965000D03*
X34150000Y24965000D03*
X35150000Y24965000D03*
X36150000Y24965000D03*
X37150000Y24965000D03*
X38150000Y24965000D03*
X39150000Y24965000D03*
X30150000Y23965000D03*
X31150000Y23965000D03*
X32150000Y23965000D03*
X33150000Y23965000D03*
X34150000Y23965000D03*
X35150000Y23965000D03*
X36150000Y23965000D03*
X37150000Y23965000D03*
X38150000Y23965000D03*
X39150000Y23965000D03*
X19750000Y1015000D03*
X21250000Y1015000D03*
X22750000Y1015000D03*
X19750000Y-485000D03*
X21250000Y-485000D03*
X22750000Y-485000D03*
X19750000Y-1985000D03*
X21250000Y-1985000D03*
X22750000Y-1985000D03*
X19750000Y-3485000D03*
X21250000Y-3485000D03*
X22750000Y-3485000D03*
X19750000Y-4985000D03*
X21250000Y-4985000D03*
X22750000Y-4985000D03*
X24850000Y-635000D03*
X26350000Y-635000D03*
X27850000Y-635000D03*
X29350000Y-635000D03*
D19*
%TO.N,GND*%
X13225000Y13915000D03*
D21*
X130200000Y-43085000D03*
X128200000Y-43085000D03*
X126200000Y-43085000D03*
X124200000Y-43085000D03*
X122200000Y-43085000D03*
X120200000Y-43085000D03*
X118200000Y-43085000D03*
X116200000Y-43085000D03*
X114200000Y-43085000D03*
X112200000Y-43085000D03*
X110200000Y-43085000D03*
X108200000Y-43085000D03*
X106200000Y-43085000D03*
X104200000Y-43085000D03*
X102200000Y-43085000D03*
X99700000Y-43085000D03*
X97200000Y-43085000D03*
X95200000Y-43085000D03*
X93200000Y-43085000D03*
X91200000Y-43085000D03*
X89200000Y-43085000D03*
X87200000Y-43085000D03*
X85200000Y-43085000D03*
X83200000Y-43085000D03*
X81200000Y-43085000D03*
X79200000Y-43085000D03*
X77200000Y-43085000D03*
X75200000Y-43085000D03*
X73200000Y-43085000D03*
X71200000Y-43085000D03*
X69200000Y-43085000D03*
X64200000Y-43085000D03*
X62200000Y-43085000D03*
X60200000Y-43085000D03*
X58200000Y-43085000D03*
X56200000Y-43085000D03*
X54200000Y-43085000D03*
X52200000Y-43085000D03*
X35700000Y-43085000D03*
X33200000Y-43085000D03*
X30450000Y-43085000D03*
X49200000Y-43085000D03*
X46200000Y-43085000D03*
X44200000Y-43085000D03*
X42200000Y-43085000D03*
X40200000Y-43085000D03*
X38200000Y-43085000D03*
D19*
X63400000Y23570000D03*
X69175000Y12195000D03*
X65275000Y23570000D03*
X70700000Y23495000D03*
X68900000Y23495000D03*
D22*
X70150000Y21270000D03*
X68650000Y21270000D03*
X60875000Y23495000D03*
X69160000Y16670000D03*
X70660000Y16670000D03*
X64150000Y21270000D03*
X65650000Y21270000D03*
X67150000Y21270000D03*
X67660000Y16670000D03*
X64660000Y16670000D03*
X66160000Y16670000D03*
X80875000Y23495000D03*
X100875000Y23495000D03*
X120875000Y23495000D03*
X89160000Y16670000D03*
X109160000Y16670000D03*
X129160000Y16670000D03*
X87660000Y16670000D03*
X107660000Y16670000D03*
X127660000Y16670000D03*
X84660000Y16670000D03*
X104660000Y16670000D03*
X124660000Y16670000D03*
X87150000Y21520000D03*
X107140000Y21520000D03*
X127140000Y21520000D03*
D21*
X82000000Y12820000D03*
X102000000Y13320000D03*
X122000000Y13320000D03*
D19*
X89050000Y15070000D03*
X109050000Y15070000D03*
X129050000Y15070000D03*
D22*
X90660000Y16670000D03*
X110660000Y16670000D03*
X130660000Y16670000D03*
X133425000Y23520000D03*
X86160000Y16670000D03*
X106160000Y16670000D03*
X126160000Y16670000D03*
D19*
X107750000Y15070000D03*
X127750000Y15070000D03*
X87750000Y15070000D03*
X67625000Y12195000D03*
D21*
X66700000Y-43085000D03*
X66800000Y-37035000D03*
X97250000Y-40235000D03*
X132075000Y-41660000D03*
X22600000Y-43335000D03*
X19600000Y-43335000D03*
X37950000Y-3835000D03*
X38100000Y-1035000D03*
D19*
X12500000Y7515000D03*
D21*
X61000000Y15065000D03*
D19*
X8025000Y12615000D03*
X8900000Y15765000D03*
X10850000Y16090000D03*
X8450000Y18890000D03*
X13050000Y18340000D03*
X15050000Y18015000D03*
X20775000Y12640000D03*
X16775000Y15315000D03*
X11500000Y15140000D03*
X10575000Y10890000D03*
X19400000Y6865000D03*
X17450000Y10640000D03*
X14225000Y13915000D03*
X15225000Y13915000D03*
X13225000Y12915000D03*
X14225000Y12915000D03*
X15225000Y12915000D03*
X13225000Y11915000D03*
X14225000Y11915000D03*
X15225000Y11915000D03*
D20*
X18300000Y16415000D03*
X18450000Y17415000D03*
X19450000Y17415000D03*
X9375000Y6415000D03*
X10375000Y6415000D03*
X11375000Y6415000D03*
D19*
X73100000Y25115000D03*
D21*
X113850000Y13415000D03*
X94050000Y13365000D03*
X74000000Y14365000D03*
X134600000Y13315000D03*
D19*
X83400000Y23570000D03*
X103400000Y23570000D03*
X123400000Y23570000D03*
X85275000Y23570000D03*
X105275000Y23570000D03*
X125275000Y23570000D03*
X90700000Y23495000D03*
X110700000Y23495000D03*
X130700000Y23495000D03*
X88900000Y23495000D03*
X108900000Y23495000D03*
X128900000Y23495000D03*
D22*
X90150000Y21270000D03*
X110150000Y21270000D03*
X130150000Y21270000D03*
X88650000Y21270000D03*
X108650000Y21270000D03*
X128650000Y21270000D03*
X84150000Y21270000D03*
X104150000Y21270000D03*
X124150000Y21270000D03*
X85650000Y21270000D03*
X105650000Y21270000D03*
X125650000Y21270000D03*
D19*
X112450000Y24615000D03*
X92400000Y24765000D03*
D20*
X26600000Y-4635000D03*
X27850000Y-4635000D03*
X29100000Y-4635000D03*
X26600000Y-5885000D03*
X27850000Y-5885000D03*
X29100000Y-5885000D03*
X26600000Y-7135000D03*
X27850000Y-7135000D03*
X29100000Y-7135000D03*
D19*
X3850000Y15565000D03*
X2050000Y15565000D03*
X3900000Y17615000D03*
X5700000Y17615000D03*
X24850000Y15165000D03*
X24850000Y13365000D03*
X24850000Y10165000D03*
X24850000Y11965000D03*
X22000000Y-18985000D03*
X20200000Y-18985000D03*
X67300000Y-35210000D03*
X69100000Y-35210000D03*
X48225000Y-35435000D03*
X50025000Y-35435000D03*
X69275000Y-36485000D03*
X71075000Y-36485000D03*
X71300000Y-35210000D03*
X75300000Y-35210000D03*
X79300000Y-35210000D03*
X83300000Y-35210000D03*
X87300000Y-35210000D03*
X91300000Y-35210000D03*
X95300000Y-35210000D03*
X73100000Y-35210000D03*
X77100000Y-35210000D03*
X81100000Y-35210000D03*
X85100000Y-35210000D03*
X89100000Y-35210000D03*
X93100000Y-35210000D03*
X97100000Y-35210000D03*
X73275000Y-36485000D03*
X77275000Y-36485000D03*
X81275000Y-36485000D03*
X85275000Y-36485000D03*
X89275000Y-36485000D03*
X93275000Y-36485000D03*
X97275000Y-36485000D03*
X75075000Y-36485000D03*
X79075000Y-36485000D03*
X83075000Y-36485000D03*
X87075000Y-36485000D03*
X91075000Y-36485000D03*
X95075000Y-36485000D03*
X99075000Y-36485000D03*
X100300000Y-35210000D03*
X102275000Y-36485000D03*
X102100000Y-35210000D03*
X104075000Y-36485000D03*
X108075000Y-36485000D03*
X112075000Y-36485000D03*
X116075000Y-36485000D03*
X120075000Y-36485000D03*
X124075000Y-36485000D03*
X128075000Y-36485000D03*
X106100000Y-35210000D03*
X110100000Y-35210000D03*
X114100000Y-35210000D03*
X118100000Y-35210000D03*
X122100000Y-35210000D03*
X126100000Y-35210000D03*
X104300000Y-35210000D03*
X108300000Y-35210000D03*
X112300000Y-35210000D03*
X116300000Y-35210000D03*
X120300000Y-35210000D03*
X124300000Y-35210000D03*
X106275000Y-36485000D03*
X110275000Y-36485000D03*
X114275000Y-36485000D03*
X118275000Y-36485000D03*
X122275000Y-36485000D03*
X126275000Y-36485000D03*
X130100000Y-35210000D03*
X128300000Y-35210000D03*
X132075000Y-29485000D03*
X130275000Y-29485000D03*
X14750000Y-21835000D03*
X9200000Y-18785000D03*
X3900000Y-13085000D03*
X11750000Y-13285000D03*
D20*
%TO.N,+3V3*%
X25100000Y-33185000D03*
X26100000Y-33185000D03*
X25100000Y-34185000D03*
X26100000Y-34185000D03*
X25100000Y-35185000D03*
X26100000Y-35185000D03*
X25100000Y-36185000D03*
X26100000Y-36185000D03*
X25100000Y-37185000D03*
X26100000Y-37185000D03*
X25100000Y-38185000D03*
X26100000Y-38185000D03*
X33950000Y-5585000D03*
X33950000Y-6585000D03*
X36400000Y-7835000D03*
X36400000Y-8835000D03*
X36400000Y-9835000D03*
X36400000Y-10835000D03*
X36400000Y-11835000D03*
X34200000Y-9935000D03*
X35200000Y-9935000D03*
X34200000Y-10935000D03*
X35200000Y-10935000D03*
X34200000Y-11935000D03*
X35200000Y-11935000D03*
X15575000Y16965000D03*
X14950000Y16215000D03*
X15950000Y16215000D03*
X11825000Y15840000D03*
X11325000Y9465000D03*
X12325000Y9465000D03*
D19*
X20125000Y9415000D03*
X73950000Y25340000D03*
X118700000Y25590000D03*
X93950000Y25590000D03*
X113950000Y25590000D03*
X133950000Y25840000D03*
D20*
X42750000Y27265000D03*
X43750000Y27265000D03*
X44750000Y27265000D03*
X45750000Y27265000D03*
X46750000Y27265000D03*
X47750000Y27265000D03*
X48750000Y27265000D03*
X49750000Y27265000D03*
X42750000Y26265000D03*
X43750000Y26265000D03*
X44750000Y26265000D03*
X45750000Y26265000D03*
X46750000Y26265000D03*
X47750000Y26265000D03*
X48750000Y26265000D03*
X49750000Y26265000D03*
X42750000Y25265000D03*
X43750000Y25265000D03*
X44750000Y25265000D03*
X45750000Y25265000D03*
X46750000Y25265000D03*
X47750000Y25265000D03*
X48750000Y25265000D03*
X49750000Y25265000D03*
D19*
X140200000Y24365000D03*
X58700000Y24315000D03*
X98700000Y25590000D03*
X78700000Y25340000D03*
D21*
X109300000Y26315000D03*
X129300000Y26415000D03*
X89300000Y26315000D03*
X69300000Y26315000D03*
%TO.N,+3.3Vaux*%
X27800000Y-31385000D03*
D20*
X750000Y-14735000D03*
X750000Y-15735000D03*
X750000Y-16735000D03*
X750000Y-17735000D03*
X2800000Y-21485000D03*
X3550000Y-20985000D03*
X7100000Y-22135000D03*
X8200000Y-22135000D03*
X16750000Y-15935000D03*
X16750000Y-16935000D03*
X16750000Y-17935000D03*
X16750000Y-18935000D03*
X12500000Y-19935000D03*
X12500000Y-20885000D03*
X11900000Y-21835000D03*
X13200000Y-13635000D03*
X14500000Y-13685000D03*
%TO.N,/SLOT0_CONFIG*%
X67000000Y-40335000D03*
%TO.N,/SLOT1_CONFIG*%
X99700000Y-39785000D03*
%TO.N,/LAN_SMB_CLK*%
X24600000Y-42735000D03*
X29750000Y-20785000D03*
%TO.N,/LAN_SMB_DAT*%
X23600000Y-41735000D03*
X28700000Y-19985000D03*
%TO.N,/PCIE_SLOT_PRSNT#1*%
X19300000Y3965000D03*
X21900000Y3965000D03*
%TO.N,/PCIE_SLOT0_PRSNT_x4*%
X35750000Y-37535000D03*
%TO.N,Net-(J3-PadA9)*%
X66350000Y15615000D03*
X59500000Y15015000D03*
%TO.N,Net-(J4-PadA9)*%
X126350000Y15615000D03*
X119900000Y15615000D03*
%TO.N,+3.3VP*%
X18800000Y12540000D03*
X17825000Y12590000D03*
X17675000Y14465000D03*
X18675000Y14465000D03*
X19800000Y15190000D03*
X13350000Y16390000D03*
X10600000Y14740000D03*
X9700000Y17640000D03*
X9700000Y16640000D03*
X10875000Y12640000D03*
X9875000Y12640000D03*
D19*
X17775000Y9415000D03*
D20*
%TO.N,Net-(J3-PadA10)*%
X66700000Y14565000D03*
X57550000Y14315000D03*
%TO.N,Net-(J4-PadA10)*%
X126700000Y14565000D03*
X117700000Y15565000D03*
D19*
%TO.N,/Oculink connector/Oculink_1_C_x4_TX0+*%
X83948800Y-35210000D03*
X84073800Y23570000D03*
%TO.N,/Oculink connector/Oculink_1_C_x4_TX1+*%
X87948800Y-35210000D03*
X84648800Y21720000D03*
%TO.N,/Oculink connector/Oculink_1_C_x4_TX2+*%
X91948800Y-35210000D03*
X89148800Y21720000D03*
%TO.N,/Oculink connector/Oculink_1_C_x4_TX3+*%
X95948800Y-35210000D03*
X89563800Y23495000D03*
%TO.N,/Oculink connector/Oculink_1_C_x4_TX0-*%
X84451200Y-35210000D03*
X84576200Y23570000D03*
%TO.N,/Oculink connector/Oculink_1_C_x4_TX1-*%
X88451200Y-35210000D03*
X85151200Y21720000D03*
%TO.N,/Oculink connector/Oculink_1_C_x4_TX2-*%
X92451200Y-35210000D03*
X89651200Y21720000D03*
%TO.N,/Oculink connector/Oculink_1_C_x4_TX3-*%
X96451200Y-35210000D03*
X90066200Y23495000D03*
%TO.N,/Oculink connector/Oculink_0_C_x4_TX0+*%
X64073800Y23570000D03*
X67948800Y-35210000D03*
%TO.N,/Oculink connector/Oculink_0_C_x4_TX1+*%
X71948800Y-35210000D03*
X64648800Y21720000D03*
%TO.N,/Oculink connector/Oculink_0_C_x4_TX2+*%
X75948800Y-35210000D03*
X69148800Y21720000D03*
%TO.N,/Oculink connector/Oculink_0_C_x4_TX3+*%
X79948800Y-35210000D03*
X69563800Y23495000D03*
%TO.N,/Oculink connector/Oculink_0_C_x4_TX0-*%
X64576200Y23570000D03*
X68451200Y-35210000D03*
%TO.N,/Oculink connector/Oculink_0_C_x4_TX1-*%
X72451200Y-35210000D03*
X65151200Y21720000D03*
%TO.N,/Oculink connector/Oculink_0_C_x4_TX2-*%
X76451200Y-35210000D03*
X69651200Y21720000D03*
%TO.N,/Oculink connector/Oculink_0_C_x4_TX3-*%
X80451200Y-35210000D03*
X70066200Y23495000D03*
%TO.N,/Oculink connector/Oculink_3_C_x4_TX0+*%
X124073800Y23570000D03*
X116948800Y-35210000D03*
%TO.N,/Oculink connector/Oculink_3_C_x4_TX1+*%
X124648800Y21720000D03*
X120948800Y-35210000D03*
%TO.N,/Oculink connector/Oculink_3_C_x4_TX2+*%
X129148800Y21720000D03*
X124948800Y-35210000D03*
%TO.N,/Oculink connector/Oculink_3_C_x4_TX3+*%
X129563800Y23495000D03*
X128948800Y-35210000D03*
%TO.N,/Oculink connector/Oculink_3_C_x4_TX0-*%
X124576200Y23570000D03*
X117451200Y-35210000D03*
%TO.N,/Oculink connector/Oculink_3_C_x4_TX1-*%
X125151200Y21720000D03*
X121451200Y-35210000D03*
%TO.N,/Oculink connector/Oculink_3_C_x4_TX2-*%
X129651200Y21720000D03*
X125451200Y-35210000D03*
%TO.N,/Oculink connector/Oculink_3_C_x4_TX3-*%
X130066200Y23495000D03*
X129451200Y-35210000D03*
%TO.N,/Oculink connector/Oculink_2_C_x4_TX0+*%
X104073800Y23570000D03*
X100948800Y-35210000D03*
%TO.N,/Oculink connector/Oculink_2_C_x4_TX1+*%
X104648800Y21720000D03*
X104948800Y-35210000D03*
%TO.N,/Oculink connector/Oculink_2_C_x4_TX2+*%
X109148800Y21720000D03*
X108948800Y-35210000D03*
%TO.N,/Oculink connector/Oculink_2_C_x4_TX3+*%
X109563800Y23495000D03*
X112948800Y-35210000D03*
%TO.N,/Oculink connector/Oculink_2_C_x4_TX0-*%
X104576200Y23570000D03*
X101451200Y-35210000D03*
%TO.N,/Oculink connector/Oculink_2_C_x4_TX1-*%
X105151200Y21720000D03*
X105451200Y-35210000D03*
%TO.N,/Oculink connector/Oculink_2_C_x4_TX2-*%
X109651200Y21720000D03*
X109451200Y-35210000D03*
%TO.N,/Oculink connector/Oculink_2_C_x4_TX3-*%
X110066200Y23495000D03*
X113451200Y-35210000D03*
D20*
%TO.N,/PCIE_SLOT0_PRSNT_x8*%
X48750000Y-40135000D03*
%TO.N,IRQ_LVC_WAKE_N*%
X38700000Y6515000D03*
%TO.N,Net-(J1-PadB115)*%
X132400000Y-40485000D03*
X31550000Y-20385000D03*
%TO.N,RST_PERST0_N*%
X67150000Y25015000D03*
X55500000Y20265000D03*
X87150000Y25165000D03*
X107150000Y25165000D03*
X127150000Y25165000D03*
D19*
%TO.N,CLK100_SLOT1+*%
X48873800Y-35435000D03*
%TO.N,CLK100_SLOT1-*%
X49376200Y-35435000D03*
%TO.N,Oculink_0_x4_RX0+*%
X69948800Y-36485000D03*
%TO.N,Oculink_0_x4_RX0-*%
X70451200Y-36485000D03*
%TO.N,Oculink_0_x4_RX1+*%
X73948800Y-36485000D03*
%TO.N,Oculink_0_x4_RX1-*%
X74451200Y-36485000D03*
%TO.N,Oculink_0_x4_RX2+*%
X77948800Y-36485000D03*
%TO.N,Oculink_0_x4_RX2-*%
X78451200Y-36485000D03*
%TO.N,Oculink_0_x4_RX3+*%
X81948800Y-36485000D03*
%TO.N,Oculink_0_x4_RX3-*%
X82451200Y-36485000D03*
%TO.N,Oculink_1_x4_RX0+*%
X85948800Y-36485000D03*
%TO.N,Oculink_1_x4_RX0-*%
X86451200Y-36485000D03*
%TO.N,Oculink_1_x4_RX1+*%
X89948800Y-36485000D03*
%TO.N,Oculink_1_x4_RX1-*%
X90451200Y-36485000D03*
%TO.N,Oculink_1_x4_RX2+*%
X93948800Y-36485000D03*
%TO.N,Oculink_1_x4_RX2-*%
X94451200Y-36485000D03*
%TO.N,Oculink_1_x4_RX3+*%
X97948800Y-36485000D03*
%TO.N,Oculink_1_x4_RX3-*%
X98451200Y-36485000D03*
%TO.N,Oculink_2_x4_RX0+*%
X102948800Y-36485000D03*
%TO.N,Oculink_2_x4_RX0-*%
X103451200Y-36485000D03*
%TO.N,Oculink_2_x4_RX1+*%
X106948800Y-36485000D03*
%TO.N,Oculink_2_x4_RX1-*%
X107451200Y-36485000D03*
%TO.N,Oculink_2_x4_RX2+*%
X110948800Y-36485000D03*
%TO.N,Oculink_2_x4_RX2-*%
X111451200Y-36485000D03*
%TO.N,Oculink_2_x4_RX3+*%
X114948800Y-36485000D03*
%TO.N,Oculink_2_x4_RX3-*%
X115451200Y-36485000D03*
%TO.N,Oculink_3_x4_RX0+*%
X118948800Y-36485000D03*
%TO.N,Oculink_3_x4_RX0-*%
X119451200Y-36485000D03*
%TO.N,Oculink_3_x4_RX1+*%
X122948800Y-36485000D03*
%TO.N,Oculink_3_x4_RX1-*%
X123451200Y-36485000D03*
%TO.N,Oculink_3_x4_RX2+*%
X126948800Y-36485000D03*
%TO.N,Oculink_3_x4_RX2-*%
X127451200Y-36485000D03*
%TO.N,Oculink_3_x4_RX3+*%
X130948800Y-29485000D03*
%TO.N,Oculink_3_x4_RX3-*%
X131451200Y-29485000D03*
D20*
%TO.N,Net-(J2-PadA9)*%
X86350000Y14615000D03*
X79450000Y14615000D03*
%TO.N,Net-(J2-PadA10)*%
X86700000Y13565000D03*
X77600000Y14565000D03*
D19*
%TO.N,Oculink_1_CLK100+*%
X88148800Y15620000D03*
X3201200Y15565000D03*
%TO.N,Oculink_1_CLK100-*%
X88651200Y15620000D03*
X2698800Y15565000D03*
D20*
%TO.N,Oculink_1_SMB_CLK*%
X86150000Y23070000D03*
X7500000Y-8685000D03*
%TO.N,Oculink_1_SMB_DATA*%
X86950000Y22615000D03*
X8600000Y-10035000D03*
%TO.N,Oculink_0_SMB_DATA*%
X66925000Y22095000D03*
X6150000Y-8685000D03*
%TO.N,Oculink_0_SMB_CLK*%
X66150000Y22570000D03*
X4850000Y-10685000D03*
D19*
%TO.N,Oculink_0_CLK100-*%
X68651200Y12620000D03*
X4548800Y17615000D03*
%TO.N,Oculink_0_CLK100+*%
X68148800Y12620000D03*
X5051200Y17615000D03*
D20*
%TO.N,Oculink_3_SMB_DATA*%
X126925000Y22595000D03*
X1750000Y-21385000D03*
%TO.N,Oculink_3_SMB_CLK*%
X126150000Y23070000D03*
X2000000Y-18985000D03*
D19*
%TO.N,Oculink_3_CLK100-*%
X128651200Y15620000D03*
X24850000Y10826300D03*
%TO.N,Oculink_3_CLK100+*%
X128148800Y15620000D03*
X24850000Y11328700D03*
D20*
%TO.N,Net-(J5-PadA9)*%
X106350000Y15615000D03*
X99900000Y15615000D03*
%TO.N,Net-(J5-PadA10)*%
X106700000Y14565000D03*
X97800000Y15515000D03*
D19*
%TO.N,Oculink_2_CLK100+*%
X108148800Y15620000D03*
X24850000Y14528700D03*
%TO.N,Oculink_2_CLK100-*%
X108651200Y15620000D03*
X24850000Y14026300D03*
D20*
%TO.N,Oculink_2_SMB_CLK*%
X106150000Y23070000D03*
X7900000Y-23385000D03*
%TO.N,Oculink_2_SMB_DATA*%
X106950000Y22615000D03*
X4600000Y-24535000D03*
%TO.N,PCIe_SMB_CLK*%
X9400000Y-11435000D03*
%TO.N,PCIe_SMB_DATA*%
X9750000Y-12435000D03*
D19*
%TO.N,CLK100_SLOT0+*%
X20848800Y-18985000D03*
%TO.N,CLK100_SLOT0-*%
X21351200Y-18985000D03*
%TD*%
D23*
%TO.N,/LAN_SMB_CLK*%
X37200000Y-7035000D02*
X37200000Y-13335000D01*
X34100000Y5715000D02*
X34100000Y2215000D01*
X58920000Y8265000D02*
X35650000Y8265000D01*
X37200000Y-13335000D02*
X29750000Y-20785000D01*
X35100000Y1215000D02*
X35100000Y-4935000D01*
X60090000Y7095000D02*
X58920000Y8265000D01*
X35650000Y8265000D02*
X35100000Y7715000D01*
X35100000Y-4935000D02*
X37200000Y-7035000D01*
X35100000Y6715000D02*
X34100000Y5715000D01*
X34100000Y2215000D02*
X35100000Y1215000D01*
X35100000Y7715000D02*
X35100000Y6715000D01*
%TO.N,/LAN_SMB_DAT*%
X61090000Y8025000D02*
X61090000Y5095000D01*
X33100000Y1065000D02*
X32100000Y2065000D01*
X33100000Y-935000D02*
X33100000Y1065000D01*
X32500000Y-1535000D02*
X33100000Y-935000D01*
X32100000Y5615000D02*
X33100000Y6615000D01*
X32500000Y-10885000D02*
X32500000Y-1535000D01*
X34150000Y9415000D02*
X59700000Y9415000D01*
X32100000Y2065000D02*
X32100000Y5615000D01*
X33100000Y6615000D02*
X33100000Y8365000D01*
X33100000Y8365000D02*
X34150000Y9415000D01*
X59700000Y9415000D02*
X61090000Y8025000D01*
X32500000Y-10885000D02*
X32500000Y-11535000D01*
X28700000Y-15335000D02*
X28700000Y-19985000D01*
X32500000Y-11535000D02*
X28700000Y-15335000D01*
%TO.N,Net-(J3-PadA9)*%
X60250000Y15765000D02*
X59500000Y15015000D01*
X61900000Y15765000D02*
X60250000Y15765000D01*
X62050000Y15615000D02*
X61900000Y15765000D01*
X64050000Y15615000D02*
X63300000Y16365000D01*
X64050000Y15615000D02*
X62050000Y15615000D01*
X66350000Y15615000D02*
X64050000Y15615000D01*
%TO.N,Net-(J3-PadA10)*%
X66450001Y14315001D02*
X59250001Y14315001D01*
X66700000Y14565000D02*
X66450001Y14315001D01*
X59250001Y14315001D02*
X59250000Y14315000D01*
X59250000Y14315000D02*
X57550000Y14315000D01*
%TO.N,IRQ_LVC_WAKE_N*%
X37090000Y2595000D02*
X36100000Y3585000D01*
X36100000Y3585000D02*
X36100000Y5615000D01*
X36625000Y6140000D02*
X38325000Y6140000D01*
X38325000Y6140000D02*
X38700000Y6515000D01*
X36100000Y5615000D02*
X36625000Y6140000D01*
%TO.N,RST_PERST0_N*%
X55500000Y20265000D02*
X55500000Y22765000D01*
X55500000Y22765000D02*
X57750000Y25015000D01*
X57750000Y25015000D02*
X66650000Y25015000D01*
X66650000Y25015000D02*
X67150000Y25015000D01*
X82400000Y25165000D02*
X87150000Y25165000D01*
X72550000Y24365000D02*
X81600000Y24365000D01*
X81600000Y24365000D02*
X82400000Y25165000D01*
X71900000Y25015000D02*
X72550000Y24365000D01*
X67150000Y25015000D02*
X71900000Y25015000D01*
X87150000Y25165000D02*
X91050000Y25165000D01*
X91050000Y25165000D02*
X92200000Y24015000D01*
X92200000Y24015000D02*
X99500000Y24015000D01*
X99500000Y24015000D02*
X99900000Y24415000D01*
X99900000Y24415000D02*
X101750000Y24415000D01*
X102500000Y25165000D02*
X107150000Y25165000D01*
X101750000Y24415000D02*
X102500000Y25165000D01*
X122400000Y25165000D02*
X127150000Y25165000D01*
X121500000Y24265000D02*
X122400000Y25165000D01*
X120200000Y24265000D02*
X121500000Y24265000D01*
X119850000Y23915000D02*
X120200000Y24265000D01*
X110800000Y25165000D02*
X112050000Y23915000D01*
X112050000Y23915000D02*
X119850000Y23915000D01*
X107150000Y25165000D02*
X110800000Y25165000D01*
%TO.N,Net-(J2-PadA9)*%
X86350000Y14615000D02*
X79900000Y14615000D01*
X79900000Y14615000D02*
X79450000Y14615000D01*
%TO.N,Net-(J2-PadA10)*%
X78600000Y13565000D02*
X77600000Y14565000D01*
X86700000Y13565000D02*
X78600000Y13565000D01*
%TO.N,Oculink_1_SMB_CLK*%
X86150000Y20865000D02*
X86150000Y23070000D01*
X85650000Y20365000D02*
X86150000Y20865000D01*
X81850000Y21815000D02*
X83300000Y20365000D01*
X72900000Y21815000D02*
X81850000Y21815000D01*
X71300000Y20215000D02*
X72900000Y21815000D01*
X63400000Y20215000D02*
X71300000Y20215000D01*
X200000Y21065000D02*
X3700000Y24565000D01*
X56650000Y19165000D02*
X59300000Y21815000D01*
X3700000Y24565000D02*
X25100000Y24565000D01*
X7500000Y-8685000D02*
X7500000Y5065000D01*
X61800000Y21815000D02*
X63400000Y20215000D01*
X200000Y12365000D02*
X200000Y21065000D01*
X7500000Y5065000D02*
X200000Y12365000D01*
X83300000Y20365000D02*
X85650000Y20365000D01*
X25100000Y24565000D02*
X30500000Y19165000D01*
X30500000Y19165000D02*
X56650000Y19165000D01*
X59300000Y21815000D02*
X61800000Y21815000D01*
%TO.N,Oculink_1_SMB_DATA*%
X4250000Y23565000D02*
X24600000Y23565000D01*
X1050000Y12715000D02*
X1050000Y20365000D01*
X1050000Y20365000D02*
X4250000Y23565000D01*
X24600000Y23565000D02*
X27300000Y20865000D01*
X8600000Y5165000D02*
X1050000Y12715000D01*
X8600000Y-10035000D02*
X8600000Y5165000D01*
X86650000Y22315000D02*
X86950000Y22615000D01*
X86650000Y20115000D02*
X86650000Y22315000D01*
X59950000Y20865000D02*
X61500000Y20865000D01*
X29950000Y18215000D02*
X57300000Y18215000D01*
X61500000Y20865000D02*
X63100000Y19265000D01*
X81550000Y20715000D02*
X82850000Y19415000D01*
X27300000Y20865000D02*
X29950000Y18215000D01*
X63100000Y19265000D02*
X71850000Y19265000D01*
X71850000Y19265000D02*
X73300000Y20715000D01*
X73300000Y20715000D02*
X81550000Y20715000D01*
X57300000Y18215000D02*
X59950000Y20865000D01*
X85950000Y19415000D02*
X86650000Y20115000D01*
X82850000Y19415000D02*
X85950000Y19415000D01*
%TO.N,Oculink_3_SMB_DATA*%
X126450000Y22120000D02*
X126925000Y22595000D01*
X132550000Y20115000D02*
X127050000Y20115000D01*
X127050000Y20115000D02*
X126450000Y20715000D01*
X29550000Y-25735000D02*
X42950000Y-39135000D01*
X1750000Y-21385000D02*
X1750000Y-23285000D01*
X133200000Y20765000D02*
X132550000Y20115000D01*
X4200000Y-25735000D02*
X29550000Y-25735000D01*
X135850000Y19715000D02*
X134800000Y20765000D01*
X42950000Y-39135000D02*
X53800000Y-39135000D01*
X1750000Y-23285000D02*
X4200000Y-25735000D01*
X126450000Y20715000D02*
X126450000Y22120000D01*
X53800000Y-39135000D02*
X96950000Y4015000D01*
X96950000Y4015000D02*
X126550000Y4015000D01*
X135850000Y13315000D02*
X135850000Y19715000D01*
X126550000Y4015000D02*
X135850000Y13315000D01*
X134800000Y20765000D02*
X133200000Y20765000D01*
%TO.N,Oculink_3_SMB_CLK*%
X126795000Y23715000D02*
X126150000Y23070000D01*
X126800000Y23715000D02*
X126795000Y23715000D01*
X131550000Y25265000D02*
X128350000Y25265000D01*
X132600000Y24215000D02*
X131550000Y25265000D01*
X132600000Y23015000D02*
X132600000Y24215000D01*
X133250000Y22365000D02*
X132600000Y23015000D01*
X134700000Y22365000D02*
X133250000Y22365000D01*
X850000Y-23935000D02*
X3900000Y-26985000D01*
X28900000Y-26985000D02*
X43300000Y-41385000D01*
X126950000Y2765000D02*
X136850000Y12665000D01*
X3900000Y-26985000D02*
X28900000Y-26985000D01*
X43300000Y-41385000D02*
X53200000Y-41385000D01*
X128350000Y25265000D02*
X126800000Y23715000D01*
X53200000Y-41385000D02*
X97350000Y2765000D01*
X850000Y-20135000D02*
X850000Y-23935000D01*
X97350000Y2765000D02*
X126950000Y2765000D01*
X2000000Y-18985000D02*
X850000Y-20135000D01*
X136850000Y12665000D02*
X136850000Y20215000D01*
X136850000Y20215000D02*
X134700000Y22365000D01*
%TO.N,Oculink_2_SMB_CLK*%
X106150000Y19315000D02*
X106150000Y23070000D01*
X107250000Y18215000D02*
X106150000Y19315000D01*
X110850000Y18215000D02*
X107250000Y18215000D01*
X95800000Y6615000D02*
X126100000Y6615000D01*
X114750000Y14315000D02*
X110850000Y18215000D01*
X52050000Y-37135000D02*
X95800000Y6615000D01*
X44100000Y-37135000D02*
X52050000Y-37135000D01*
X7900000Y-23385000D02*
X30350000Y-23385000D01*
X121150000Y14315000D02*
X114750000Y14315000D01*
X30350000Y-23385000D02*
X44100000Y-37135000D01*
X130900000Y17815000D02*
X124650000Y17815000D01*
X126100000Y6615000D02*
X131550000Y12065000D01*
X131550000Y12065000D02*
X131550000Y17165000D01*
X131550000Y17165000D02*
X130900000Y17815000D01*
X124650000Y17815000D02*
X121150000Y14315000D01*
%TO.N,Oculink_2_SMB_DATA*%
X106950000Y22615000D02*
X106650000Y22315000D01*
X106650000Y22315000D02*
X106650000Y20115000D01*
X106650000Y20115000D02*
X107700000Y19065000D01*
X107700000Y19065000D02*
X111700000Y19065000D01*
X111700000Y19065000D02*
X112500000Y18265000D01*
X112500000Y18265000D02*
X112500000Y17265000D01*
X112500000Y17265000D02*
X113100000Y16665000D01*
X113100000Y16665000D02*
X122200000Y16665000D01*
X122200000Y16665000D02*
X124250000Y18715000D01*
X124250000Y18715000D02*
X131450000Y18715000D01*
X131450000Y18715000D02*
X132450000Y17715000D01*
X132450000Y17715000D02*
X132450000Y11565000D01*
X132450000Y11565000D02*
X126150000Y5265000D01*
X126150000Y5265000D02*
X96550000Y5265000D01*
X96550000Y5265000D02*
X53200000Y-38085000D01*
X53200000Y-38085000D02*
X43400000Y-38085000D01*
X43400000Y-38085000D02*
X29850000Y-24535000D01*
X29850000Y-24535000D02*
X6300000Y-24535000D01*
X6300000Y-24535000D02*
X4600000Y-24535000D01*
%TO.N,PCIe_SMB_CLK*%
X31090000Y2595000D02*
X31090000Y-245000D01*
X31090000Y-245000D02*
X30500000Y-835000D01*
X30500000Y-835000D02*
X30500000Y-9635000D01*
X30500000Y-9635000D02*
X28700000Y-11435000D01*
X28700000Y-11435000D02*
X9400000Y-11435000D01*
%TO.N,PCIe_SMB_DATA*%
X31500000Y-10235000D02*
X31500000Y-1235000D01*
X32090000Y-645000D02*
X32090000Y595000D01*
X31500000Y-1235000D02*
X32090000Y-645000D01*
X9750000Y-12435000D02*
X29300000Y-12435000D01*
X29300000Y-12435000D02*
X31500000Y-10235000D01*
%TD*%
D24*
%TO.N,+3.3VP*%
G36*
X10967862Y18267532D02*
G01*
X11720394Y17515000D01*
X11739640Y17499206D01*
X11761596Y17487470D01*
X11978399Y17397667D01*
X12002223Y17390440D01*
X12027000Y17388000D01*
X15300887Y17388000D01*
X15253718Y17356483D01*
X15183517Y17286282D01*
X15128361Y17203734D01*
X15090368Y17112011D01*
X15071000Y17014640D01*
X15071000Y16915360D01*
X15090368Y16817989D01*
X15128361Y16726266D01*
X15164964Y16671485D01*
X15097011Y16699632D01*
X14999640Y16719000D01*
X14900360Y16719000D01*
X14802989Y16699632D01*
X14711266Y16661639D01*
X14628718Y16606483D01*
X14558517Y16536282D01*
X14503361Y16453734D01*
X14465368Y16362011D01*
X14446000Y16264640D01*
X14446000Y16165360D01*
X14465368Y16067989D01*
X14503361Y15976266D01*
X14558517Y15893718D01*
X14628718Y15823517D01*
X14711266Y15768361D01*
X14802989Y15730368D01*
X14900360Y15711000D01*
X14999640Y15711000D01*
X15097011Y15730368D01*
X15188734Y15768361D01*
X15271282Y15823517D01*
X15341483Y15893718D01*
X15396639Y15976266D01*
X15434632Y16067989D01*
X15450000Y16145250D01*
X15465368Y16067989D01*
X15503361Y15976266D01*
X15558517Y15893718D01*
X15628718Y15823517D01*
X15711266Y15768361D01*
X15802989Y15730368D01*
X15900360Y15711000D01*
X15999640Y15711000D01*
X16097011Y15730368D01*
X16188734Y15768361D01*
X16271282Y15823517D01*
X16341483Y15893718D01*
X16396639Y15976266D01*
X16434632Y16067989D01*
X16454000Y16165360D01*
X16454000Y16264640D01*
X16434632Y16362011D01*
X16396639Y16453734D01*
X16389352Y16464640D01*
X17796000Y16464640D01*
X17796000Y16365360D01*
X17815368Y16267989D01*
X17853361Y16176266D01*
X17908517Y16093718D01*
X17978718Y16023517D01*
X18061266Y15968361D01*
X18152989Y15930368D01*
X18250360Y15911000D01*
X18349640Y15911000D01*
X18447011Y15930368D01*
X18538734Y15968361D01*
X18621282Y16023517D01*
X18691483Y16093718D01*
X18746639Y16176266D01*
X18784632Y16267989D01*
X18804000Y16365360D01*
X18804000Y16464640D01*
X18784632Y16562011D01*
X18746639Y16653734D01*
X18691483Y16736282D01*
X18621282Y16806483D01*
X18538734Y16861639D01*
X18447011Y16899632D01*
X18349640Y16919000D01*
X18250360Y16919000D01*
X18152989Y16899632D01*
X18061266Y16861639D01*
X17978718Y16806483D01*
X17908517Y16736282D01*
X17853361Y16653734D01*
X17815368Y16562011D01*
X17796000Y16464640D01*
X16389352Y16464640D01*
X16341483Y16536282D01*
X16271282Y16606483D01*
X16188734Y16661639D01*
X16097011Y16699632D01*
X16014773Y16715990D01*
X16021639Y16726266D01*
X16059632Y16817989D01*
X16079000Y16915360D01*
X16079000Y17014640D01*
X16059632Y17112011D01*
X16021639Y17203734D01*
X15966483Y17286282D01*
X15896282Y17356483D01*
X15849113Y17388000D01*
X17946000Y17388000D01*
X17946000Y17365360D01*
X17965368Y17267989D01*
X18003361Y17176266D01*
X18058517Y17093718D01*
X18128718Y17023517D01*
X18211266Y16968361D01*
X18302989Y16930368D01*
X18400360Y16911000D01*
X18499640Y16911000D01*
X18597011Y16930368D01*
X18688734Y16968361D01*
X18771282Y17023517D01*
X18816580Y17068814D01*
X20602532Y15282862D01*
X20673000Y15112737D01*
X20673000Y13057116D01*
X20649865Y13052514D01*
X20571792Y13020175D01*
X20501528Y12973226D01*
X20441774Y12913472D01*
X20394825Y12843208D01*
X20362486Y12765135D01*
X20346000Y12682253D01*
X20346000Y12597747D01*
X20362486Y12514865D01*
X20394825Y12436792D01*
X20441774Y12366528D01*
X20501528Y12306774D01*
X20571792Y12259825D01*
X20649865Y12227486D01*
X20673000Y12222884D01*
X20673000Y9167263D01*
X20602532Y8997138D01*
X20417862Y8812468D01*
X20247737Y8742000D01*
X8302263Y8742000D01*
X8132138Y8812468D01*
X7429966Y9514640D01*
X10821000Y9514640D01*
X10821000Y9415360D01*
X10840368Y9317989D01*
X10878361Y9226266D01*
X10933517Y9143718D01*
X11003718Y9073517D01*
X11086266Y9018361D01*
X11177989Y8980368D01*
X11275360Y8961000D01*
X11374640Y8961000D01*
X11472011Y8980368D01*
X11563734Y9018361D01*
X11646282Y9073517D01*
X11716483Y9143718D01*
X11771639Y9226266D01*
X11809632Y9317989D01*
X11825000Y9395250D01*
X11840368Y9317989D01*
X11878361Y9226266D01*
X11933517Y9143718D01*
X12003718Y9073517D01*
X12086266Y9018361D01*
X12177989Y8980368D01*
X12275360Y8961000D01*
X12374640Y8961000D01*
X12472011Y8980368D01*
X12563734Y9018361D01*
X12646282Y9073517D01*
X12716483Y9143718D01*
X12771639Y9226266D01*
X12809632Y9317989D01*
X12829000Y9415360D01*
X12829000Y9457253D01*
X19696000Y9457253D01*
X19696000Y9372747D01*
X19712486Y9289865D01*
X19744825Y9211792D01*
X19791774Y9141528D01*
X19851528Y9081774D01*
X19921792Y9034825D01*
X19999865Y9002486D01*
X20082747Y8986000D01*
X20167253Y8986000D01*
X20250135Y9002486D01*
X20328208Y9034825D01*
X20398472Y9081774D01*
X20458226Y9141528D01*
X20505175Y9211792D01*
X20537514Y9289865D01*
X20554000Y9372747D01*
X20554000Y9457253D01*
X20537514Y9540135D01*
X20505175Y9618208D01*
X20458226Y9688472D01*
X20398472Y9748226D01*
X20328208Y9795175D01*
X20250135Y9827514D01*
X20167253Y9844000D01*
X20082747Y9844000D01*
X19999865Y9827514D01*
X19921792Y9795175D01*
X19851528Y9748226D01*
X19791774Y9688472D01*
X19744825Y9618208D01*
X19712486Y9540135D01*
X19696000Y9457253D01*
X12829000Y9457253D01*
X12829000Y9514640D01*
X12809632Y9612011D01*
X12771639Y9703734D01*
X12716483Y9786282D01*
X12646282Y9856483D01*
X12563734Y9911639D01*
X12472011Y9949632D01*
X12374640Y9969000D01*
X12275360Y9969000D01*
X12177989Y9949632D01*
X12086266Y9911639D01*
X12003718Y9856483D01*
X11933517Y9786282D01*
X11878361Y9703734D01*
X11840368Y9612011D01*
X11825000Y9534750D01*
X11809632Y9612011D01*
X11771639Y9703734D01*
X11716483Y9786282D01*
X11646282Y9856483D01*
X11563734Y9911639D01*
X11472011Y9949632D01*
X11374640Y9969000D01*
X11275360Y9969000D01*
X11177989Y9949632D01*
X11086266Y9911639D01*
X11003718Y9856483D01*
X10933517Y9786282D01*
X10878361Y9703734D01*
X10840368Y9612011D01*
X10821000Y9514640D01*
X7429966Y9514640D01*
X7197468Y9747138D01*
X7127000Y9917263D01*
X7127000Y10932253D01*
X10146000Y10932253D01*
X10146000Y10847747D01*
X10162486Y10764865D01*
X10194825Y10686792D01*
X10241774Y10616528D01*
X10301528Y10556774D01*
X10371792Y10509825D01*
X10449865Y10477486D01*
X10532747Y10461000D01*
X10617253Y10461000D01*
X10700135Y10477486D01*
X10778208Y10509825D01*
X10848472Y10556774D01*
X10908226Y10616528D01*
X10952142Y10682253D01*
X17021000Y10682253D01*
X17021000Y10597747D01*
X17037486Y10514865D01*
X17069825Y10436792D01*
X17116774Y10366528D01*
X17176528Y10306774D01*
X17246792Y10259825D01*
X17324865Y10227486D01*
X17407747Y10211000D01*
X17492253Y10211000D01*
X17575135Y10227486D01*
X17653208Y10259825D01*
X17723472Y10306774D01*
X17783226Y10366528D01*
X17830175Y10436792D01*
X17862514Y10514865D01*
X17879000Y10597747D01*
X17879000Y10682253D01*
X17862514Y10765135D01*
X17830175Y10843208D01*
X17783226Y10913472D01*
X17723472Y10973226D01*
X17653208Y11020175D01*
X17575135Y11052514D01*
X17492253Y11069000D01*
X17407747Y11069000D01*
X17324865Y11052514D01*
X17246792Y11020175D01*
X17176528Y10973226D01*
X17116774Y10913472D01*
X17069825Y10843208D01*
X17037486Y10765135D01*
X17021000Y10682253D01*
X10952142Y10682253D01*
X10955175Y10686792D01*
X10987514Y10764865D01*
X11004000Y10847747D01*
X11004000Y10932253D01*
X10987514Y11015135D01*
X10955175Y11093208D01*
X10908226Y11163472D01*
X10848472Y11223226D01*
X10778208Y11270175D01*
X10700135Y11302514D01*
X10617253Y11319000D01*
X10532747Y11319000D01*
X10449865Y11302514D01*
X10371792Y11270175D01*
X10301528Y11223226D01*
X10241774Y11163472D01*
X10194825Y11093208D01*
X10162486Y11015135D01*
X10146000Y10932253D01*
X7127000Y10932253D01*
X7127000Y11957253D01*
X12796000Y11957253D01*
X12796000Y11872747D01*
X12812486Y11789865D01*
X12844825Y11711792D01*
X12891774Y11641528D01*
X12951528Y11581774D01*
X13021792Y11534825D01*
X13099865Y11502486D01*
X13182747Y11486000D01*
X13267253Y11486000D01*
X13350135Y11502486D01*
X13428208Y11534825D01*
X13498472Y11581774D01*
X13558226Y11641528D01*
X13605175Y11711792D01*
X13637514Y11789865D01*
X13654000Y11872747D01*
X13654000Y11957253D01*
X13796000Y11957253D01*
X13796000Y11872747D01*
X13812486Y11789865D01*
X13844825Y11711792D01*
X13891774Y11641528D01*
X13951528Y11581774D01*
X14021792Y11534825D01*
X14099865Y11502486D01*
X14182747Y11486000D01*
X14267253Y11486000D01*
X14350135Y11502486D01*
X14428208Y11534825D01*
X14498472Y11581774D01*
X14558226Y11641528D01*
X14605175Y11711792D01*
X14637514Y11789865D01*
X14654000Y11872747D01*
X14654000Y11957253D01*
X14796000Y11957253D01*
X14796000Y11872747D01*
X14812486Y11789865D01*
X14844825Y11711792D01*
X14891774Y11641528D01*
X14951528Y11581774D01*
X15021792Y11534825D01*
X15099865Y11502486D01*
X15182747Y11486000D01*
X15267253Y11486000D01*
X15350135Y11502486D01*
X15428208Y11534825D01*
X15498472Y11581774D01*
X15558226Y11641528D01*
X15605175Y11711792D01*
X15637514Y11789865D01*
X15654000Y11872747D01*
X15654000Y11957253D01*
X15637514Y12040135D01*
X15605175Y12118208D01*
X15558226Y12188472D01*
X15498472Y12248226D01*
X15428208Y12295175D01*
X15350135Y12327514D01*
X15267253Y12344000D01*
X15182747Y12344000D01*
X15099865Y12327514D01*
X15021792Y12295175D01*
X14951528Y12248226D01*
X14891774Y12188472D01*
X14844825Y12118208D01*
X14812486Y12040135D01*
X14796000Y11957253D01*
X14654000Y11957253D01*
X14637514Y12040135D01*
X14605175Y12118208D01*
X14558226Y12188472D01*
X14498472Y12248226D01*
X14428208Y12295175D01*
X14350135Y12327514D01*
X14267253Y12344000D01*
X14182747Y12344000D01*
X14099865Y12327514D01*
X14021792Y12295175D01*
X13951528Y12248226D01*
X13891774Y12188472D01*
X13844825Y12118208D01*
X13812486Y12040135D01*
X13796000Y11957253D01*
X13654000Y11957253D01*
X13637514Y12040135D01*
X13605175Y12118208D01*
X13558226Y12188472D01*
X13498472Y12248226D01*
X13428208Y12295175D01*
X13350135Y12327514D01*
X13267253Y12344000D01*
X13182747Y12344000D01*
X13099865Y12327514D01*
X13021792Y12295175D01*
X12951528Y12248226D01*
X12891774Y12188472D01*
X12844825Y12118208D01*
X12812486Y12040135D01*
X12796000Y11957253D01*
X7127000Y11957253D01*
X7127000Y12657253D01*
X7596000Y12657253D01*
X7596000Y12572747D01*
X7612486Y12489865D01*
X7644825Y12411792D01*
X7691774Y12341528D01*
X7751528Y12281774D01*
X7821792Y12234825D01*
X7899865Y12202486D01*
X7982747Y12186000D01*
X8067253Y12186000D01*
X8150135Y12202486D01*
X8228208Y12234825D01*
X8298472Y12281774D01*
X8358226Y12341528D01*
X8405175Y12411792D01*
X8437514Y12489865D01*
X8454000Y12572747D01*
X8454000Y12657253D01*
X8437514Y12740135D01*
X8405175Y12818208D01*
X8358226Y12888472D01*
X8298472Y12948226D01*
X8284963Y12957253D01*
X12796000Y12957253D01*
X12796000Y12872747D01*
X12812486Y12789865D01*
X12844825Y12711792D01*
X12891774Y12641528D01*
X12951528Y12581774D01*
X13021792Y12534825D01*
X13099865Y12502486D01*
X13182747Y12486000D01*
X13267253Y12486000D01*
X13350135Y12502486D01*
X13428208Y12534825D01*
X13498472Y12581774D01*
X13558226Y12641528D01*
X13605175Y12711792D01*
X13637514Y12789865D01*
X13654000Y12872747D01*
X13654000Y12957253D01*
X13796000Y12957253D01*
X13796000Y12872747D01*
X13812486Y12789865D01*
X13844825Y12711792D01*
X13891774Y12641528D01*
X13951528Y12581774D01*
X14021792Y12534825D01*
X14099865Y12502486D01*
X14182747Y12486000D01*
X14267253Y12486000D01*
X14350135Y12502486D01*
X14428208Y12534825D01*
X14498472Y12581774D01*
X14558226Y12641528D01*
X14605175Y12711792D01*
X14637514Y12789865D01*
X14654000Y12872747D01*
X14654000Y12957253D01*
X14796000Y12957253D01*
X14796000Y12872747D01*
X14812486Y12789865D01*
X14844825Y12711792D01*
X14891774Y12641528D01*
X14951528Y12581774D01*
X15021792Y12534825D01*
X15099865Y12502486D01*
X15182747Y12486000D01*
X15267253Y12486000D01*
X15350135Y12502486D01*
X15428208Y12534825D01*
X15498472Y12581774D01*
X15558226Y12641528D01*
X15605175Y12711792D01*
X15637514Y12789865D01*
X15654000Y12872747D01*
X15654000Y12957253D01*
X15637514Y13040135D01*
X15605175Y13118208D01*
X15558226Y13188472D01*
X15498472Y13248226D01*
X15428208Y13295175D01*
X15350135Y13327514D01*
X15267253Y13344000D01*
X15182747Y13344000D01*
X15099865Y13327514D01*
X15021792Y13295175D01*
X14951528Y13248226D01*
X14891774Y13188472D01*
X14844825Y13118208D01*
X14812486Y13040135D01*
X14796000Y12957253D01*
X14654000Y12957253D01*
X14637514Y13040135D01*
X14605175Y13118208D01*
X14558226Y13188472D01*
X14498472Y13248226D01*
X14428208Y13295175D01*
X14350135Y13327514D01*
X14267253Y13344000D01*
X14182747Y13344000D01*
X14099865Y13327514D01*
X14021792Y13295175D01*
X13951528Y13248226D01*
X13891774Y13188472D01*
X13844825Y13118208D01*
X13812486Y13040135D01*
X13796000Y12957253D01*
X13654000Y12957253D01*
X13637514Y13040135D01*
X13605175Y13118208D01*
X13558226Y13188472D01*
X13498472Y13248226D01*
X13428208Y13295175D01*
X13350135Y13327514D01*
X13267253Y13344000D01*
X13182747Y13344000D01*
X13099865Y13327514D01*
X13021792Y13295175D01*
X12951528Y13248226D01*
X12891774Y13188472D01*
X12844825Y13118208D01*
X12812486Y13040135D01*
X12796000Y12957253D01*
X8284963Y12957253D01*
X8228208Y12995175D01*
X8150135Y13027514D01*
X8067253Y13044000D01*
X7982747Y13044000D01*
X7899865Y13027514D01*
X7821792Y12995175D01*
X7751528Y12948226D01*
X7691774Y12888472D01*
X7644825Y12818208D01*
X7612486Y12740135D01*
X7596000Y12657253D01*
X7127000Y12657253D01*
X7127000Y13957253D01*
X12796000Y13957253D01*
X12796000Y13872747D01*
X12812486Y13789865D01*
X12844825Y13711792D01*
X12891774Y13641528D01*
X12951528Y13581774D01*
X13021792Y13534825D01*
X13099865Y13502486D01*
X13182747Y13486000D01*
X13267253Y13486000D01*
X13350135Y13502486D01*
X13428208Y13534825D01*
X13498472Y13581774D01*
X13558226Y13641528D01*
X13605175Y13711792D01*
X13637514Y13789865D01*
X13654000Y13872747D01*
X13654000Y13957253D01*
X13796000Y13957253D01*
X13796000Y13872747D01*
X13812486Y13789865D01*
X13844825Y13711792D01*
X13891774Y13641528D01*
X13951528Y13581774D01*
X14021792Y13534825D01*
X14099865Y13502486D01*
X14182747Y13486000D01*
X14267253Y13486000D01*
X14350135Y13502486D01*
X14428208Y13534825D01*
X14498472Y13581774D01*
X14558226Y13641528D01*
X14605175Y13711792D01*
X14637514Y13789865D01*
X14654000Y13872747D01*
X14654000Y13957253D01*
X14796000Y13957253D01*
X14796000Y13872747D01*
X14812486Y13789865D01*
X14844825Y13711792D01*
X14891774Y13641528D01*
X14951528Y13581774D01*
X15021792Y13534825D01*
X15099865Y13502486D01*
X15182747Y13486000D01*
X15267253Y13486000D01*
X15350135Y13502486D01*
X15428208Y13534825D01*
X15498472Y13581774D01*
X15558226Y13641528D01*
X15605175Y13711792D01*
X15637514Y13789865D01*
X15654000Y13872747D01*
X15654000Y13957253D01*
X15637514Y14040135D01*
X15605175Y14118208D01*
X15558226Y14188472D01*
X15498472Y14248226D01*
X15428208Y14295175D01*
X15350135Y14327514D01*
X15267253Y14344000D01*
X15182747Y14344000D01*
X15099865Y14327514D01*
X15021792Y14295175D01*
X14951528Y14248226D01*
X14891774Y14188472D01*
X14844825Y14118208D01*
X14812486Y14040135D01*
X14796000Y13957253D01*
X14654000Y13957253D01*
X14637514Y14040135D01*
X14605175Y14118208D01*
X14558226Y14188472D01*
X14498472Y14248226D01*
X14428208Y14295175D01*
X14350135Y14327514D01*
X14267253Y14344000D01*
X14182747Y14344000D01*
X14099865Y14327514D01*
X14021792Y14295175D01*
X13951528Y14248226D01*
X13891774Y14188472D01*
X13844825Y14118208D01*
X13812486Y14040135D01*
X13796000Y13957253D01*
X13654000Y13957253D01*
X13637514Y14040135D01*
X13605175Y14118208D01*
X13558226Y14188472D01*
X13498472Y14248226D01*
X13428208Y14295175D01*
X13350135Y14327514D01*
X13267253Y14344000D01*
X13182747Y14344000D01*
X13099865Y14327514D01*
X13021792Y14295175D01*
X12951528Y14248226D01*
X12891774Y14188472D01*
X12844825Y14118208D01*
X12812486Y14040135D01*
X12796000Y13957253D01*
X7127000Y13957253D01*
X7127000Y15182253D01*
X11071000Y15182253D01*
X11071000Y15097747D01*
X11087486Y15014865D01*
X11119825Y14936792D01*
X11166774Y14866528D01*
X11226528Y14806774D01*
X11296792Y14759825D01*
X11374865Y14727486D01*
X11457747Y14711000D01*
X11542253Y14711000D01*
X11625135Y14727486D01*
X11703208Y14759825D01*
X11773472Y14806774D01*
X11833226Y14866528D01*
X11880175Y14936792D01*
X11912514Y15014865D01*
X11929000Y15097747D01*
X11929000Y15182253D01*
X11912514Y15265135D01*
X11882512Y15337566D01*
X11972011Y15355368D01*
X11976561Y15357253D01*
X16346000Y15357253D01*
X16346000Y15272747D01*
X16362486Y15189865D01*
X16394825Y15111792D01*
X16441774Y15041528D01*
X16501528Y14981774D01*
X16571792Y14934825D01*
X16649865Y14902486D01*
X16732747Y14886000D01*
X16817253Y14886000D01*
X16900135Y14902486D01*
X16978208Y14934825D01*
X17048472Y14981774D01*
X17108226Y15041528D01*
X17155175Y15111792D01*
X17187514Y15189865D01*
X17204000Y15272747D01*
X17204000Y15357253D01*
X17187514Y15440135D01*
X17155175Y15518208D01*
X17108226Y15588472D01*
X17048472Y15648226D01*
X16978208Y15695175D01*
X16900135Y15727514D01*
X16817253Y15744000D01*
X16732747Y15744000D01*
X16649865Y15727514D01*
X16571792Y15695175D01*
X16501528Y15648226D01*
X16441774Y15588472D01*
X16394825Y15518208D01*
X16362486Y15440135D01*
X16346000Y15357253D01*
X11976561Y15357253D01*
X12063734Y15393361D01*
X12146282Y15448517D01*
X12216483Y15518718D01*
X12271639Y15601266D01*
X12309632Y15692989D01*
X12329000Y15790360D01*
X12329000Y15889640D01*
X12309632Y15987011D01*
X12271639Y16078734D01*
X12216483Y16161282D01*
X12146282Y16231483D01*
X12063734Y16286639D01*
X11972011Y16324632D01*
X11874640Y16344000D01*
X11775360Y16344000D01*
X11677989Y16324632D01*
X11586266Y16286639D01*
X11503718Y16231483D01*
X11433517Y16161282D01*
X11378361Y16078734D01*
X11340368Y15987011D01*
X11321000Y15889640D01*
X11321000Y15790360D01*
X11340368Y15692989D01*
X11378361Y15601266D01*
X11406704Y15558847D01*
X11374865Y15552514D01*
X11296792Y15520175D01*
X11226528Y15473226D01*
X11166774Y15413472D01*
X11119825Y15343208D01*
X11087486Y15265135D01*
X11071000Y15182253D01*
X7127000Y15182253D01*
X7127000Y15807253D01*
X8471000Y15807253D01*
X8471000Y15722747D01*
X8487486Y15639865D01*
X8519825Y15561792D01*
X8566774Y15491528D01*
X8626528Y15431774D01*
X8696792Y15384825D01*
X8774865Y15352486D01*
X8857747Y15336000D01*
X8942253Y15336000D01*
X9025135Y15352486D01*
X9103208Y15384825D01*
X9173472Y15431774D01*
X9233226Y15491528D01*
X9280175Y15561792D01*
X9312514Y15639865D01*
X9329000Y15722747D01*
X9329000Y15807253D01*
X9312514Y15890135D01*
X9280175Y15968208D01*
X9233226Y16038472D01*
X9173472Y16098226D01*
X9122548Y16132253D01*
X10421000Y16132253D01*
X10421000Y16047747D01*
X10437486Y15964865D01*
X10469825Y15886792D01*
X10516774Y15816528D01*
X10576528Y15756774D01*
X10646792Y15709825D01*
X10724865Y15677486D01*
X10807747Y15661000D01*
X10892253Y15661000D01*
X10975135Y15677486D01*
X11053208Y15709825D01*
X11123472Y15756774D01*
X11183226Y15816528D01*
X11230175Y15886792D01*
X11262514Y15964865D01*
X11279000Y16047747D01*
X11279000Y16132253D01*
X11262514Y16215135D01*
X11230175Y16293208D01*
X11183226Y16363472D01*
X11123472Y16423226D01*
X11053208Y16470175D01*
X10975135Y16502514D01*
X10892253Y16519000D01*
X10807747Y16519000D01*
X10724865Y16502514D01*
X10646792Y16470175D01*
X10576528Y16423226D01*
X10516774Y16363472D01*
X10469825Y16293208D01*
X10437486Y16215135D01*
X10421000Y16132253D01*
X9122548Y16132253D01*
X9103208Y16145175D01*
X9025135Y16177514D01*
X8942253Y16194000D01*
X8857747Y16194000D01*
X8774865Y16177514D01*
X8696792Y16145175D01*
X8626528Y16098226D01*
X8566774Y16038472D01*
X8519825Y15968208D01*
X8487486Y15890135D01*
X8471000Y15807253D01*
X7127000Y15807253D01*
X7127000Y17412737D01*
X7197468Y17582862D01*
X7882138Y18267532D01*
X8052263Y18338000D01*
X10797737Y18338000D01*
X10967862Y18267532D01*
G37*
X10967862Y18267532D02*
X11720394Y17515000D01*
X11739640Y17499206D01*
X11761596Y17487470D01*
X11978399Y17397667D01*
X12002223Y17390440D01*
X12027000Y17388000D01*
X15300887Y17388000D01*
X15253718Y17356483D01*
X15183517Y17286282D01*
X15128361Y17203734D01*
X15090368Y17112011D01*
X15071000Y17014640D01*
X15071000Y16915360D01*
X15090368Y16817989D01*
X15128361Y16726266D01*
X15164964Y16671485D01*
X15097011Y16699632D01*
X14999640Y16719000D01*
X14900360Y16719000D01*
X14802989Y16699632D01*
X14711266Y16661639D01*
X14628718Y16606483D01*
X14558517Y16536282D01*
X14503361Y16453734D01*
X14465368Y16362011D01*
X14446000Y16264640D01*
X14446000Y16165360D01*
X14465368Y16067989D01*
X14503361Y15976266D01*
X14558517Y15893718D01*
X14628718Y15823517D01*
X14711266Y15768361D01*
X14802989Y15730368D01*
X14900360Y15711000D01*
X14999640Y15711000D01*
X15097011Y15730368D01*
X15188734Y15768361D01*
X15271282Y15823517D01*
X15341483Y15893718D01*
X15396639Y15976266D01*
X15434632Y16067989D01*
X15450000Y16145250D01*
X15465368Y16067989D01*
X15503361Y15976266D01*
X15558517Y15893718D01*
X15628718Y15823517D01*
X15711266Y15768361D01*
X15802989Y15730368D01*
X15900360Y15711000D01*
X15999640Y15711000D01*
X16097011Y15730368D01*
X16188734Y15768361D01*
X16271282Y15823517D01*
X16341483Y15893718D01*
X16396639Y15976266D01*
X16434632Y16067989D01*
X16454000Y16165360D01*
X16454000Y16264640D01*
X16434632Y16362011D01*
X16396639Y16453734D01*
X16389352Y16464640D01*
X17796000Y16464640D01*
X17796000Y16365360D01*
X17815368Y16267989D01*
X17853361Y16176266D01*
X17908517Y16093718D01*
X17978718Y16023517D01*
X18061266Y15968361D01*
X18152989Y15930368D01*
X18250360Y15911000D01*
X18349640Y15911000D01*
X18447011Y15930368D01*
X18538734Y15968361D01*
X18621282Y16023517D01*
X18691483Y16093718D01*
X18746639Y16176266D01*
X18784632Y16267989D01*
X18804000Y16365360D01*
X18804000Y16464640D01*
X18784632Y16562011D01*
X18746639Y16653734D01*
X18691483Y16736282D01*
X18621282Y16806483D01*
X18538734Y16861639D01*
X18447011Y16899632D01*
X18349640Y16919000D01*
X18250360Y16919000D01*
X18152989Y16899632D01*
X18061266Y16861639D01*
X17978718Y16806483D01*
X17908517Y16736282D01*
X17853361Y16653734D01*
X17815368Y16562011D01*
X17796000Y16464640D01*
X16389352Y16464640D01*
X16341483Y16536282D01*
X16271282Y16606483D01*
X16188734Y16661639D01*
X16097011Y16699632D01*
X16014773Y16715990D01*
X16021639Y16726266D01*
X16059632Y16817989D01*
X16079000Y16915360D01*
X16079000Y17014640D01*
X16059632Y17112011D01*
X16021639Y17203734D01*
X15966483Y17286282D01*
X15896282Y17356483D01*
X15849113Y17388000D01*
X17946000Y17388000D01*
X17946000Y17365360D01*
X17965368Y17267989D01*
X18003361Y17176266D01*
X18058517Y17093718D01*
X18128718Y17023517D01*
X18211266Y16968361D01*
X18302989Y16930368D01*
X18400360Y16911000D01*
X18499640Y16911000D01*
X18597011Y16930368D01*
X18688734Y16968361D01*
X18771282Y17023517D01*
X18816580Y17068814D01*
X20602532Y15282862D01*
X20673000Y15112737D01*
X20673000Y13057116D01*
X20649865Y13052514D01*
X20571792Y13020175D01*
X20501528Y12973226D01*
X20441774Y12913472D01*
X20394825Y12843208D01*
X20362486Y12765135D01*
X20346000Y12682253D01*
X20346000Y12597747D01*
X20362486Y12514865D01*
X20394825Y12436792D01*
X20441774Y12366528D01*
X20501528Y12306774D01*
X20571792Y12259825D01*
X20649865Y12227486D01*
X20673000Y12222884D01*
X20673000Y9167263D01*
X20602532Y8997138D01*
X20417862Y8812468D01*
X20247737Y8742000D01*
X8302263Y8742000D01*
X8132138Y8812468D01*
X7429966Y9514640D01*
X10821000Y9514640D01*
X10821000Y9415360D01*
X10840368Y9317989D01*
X10878361Y9226266D01*
X10933517Y9143718D01*
X11003718Y9073517D01*
X11086266Y9018361D01*
X11177989Y8980368D01*
X11275360Y8961000D01*
X11374640Y8961000D01*
X11472011Y8980368D01*
X11563734Y9018361D01*
X11646282Y9073517D01*
X11716483Y9143718D01*
X11771639Y9226266D01*
X11809632Y9317989D01*
X11825000Y9395250D01*
X11840368Y9317989D01*
X11878361Y9226266D01*
X11933517Y9143718D01*
X12003718Y9073517D01*
X12086266Y9018361D01*
X12177989Y8980368D01*
X12275360Y8961000D01*
X12374640Y8961000D01*
X12472011Y8980368D01*
X12563734Y9018361D01*
X12646282Y9073517D01*
X12716483Y9143718D01*
X12771639Y9226266D01*
X12809632Y9317989D01*
X12829000Y9415360D01*
X12829000Y9457253D01*
X19696000Y9457253D01*
X19696000Y9372747D01*
X19712486Y9289865D01*
X19744825Y9211792D01*
X19791774Y9141528D01*
X19851528Y9081774D01*
X19921792Y9034825D01*
X19999865Y9002486D01*
X20082747Y8986000D01*
X20167253Y8986000D01*
X20250135Y9002486D01*
X20328208Y9034825D01*
X20398472Y9081774D01*
X20458226Y9141528D01*
X20505175Y9211792D01*
X20537514Y9289865D01*
X20554000Y9372747D01*
X20554000Y9457253D01*
X20537514Y9540135D01*
X20505175Y9618208D01*
X20458226Y9688472D01*
X20398472Y9748226D01*
X20328208Y9795175D01*
X20250135Y9827514D01*
X20167253Y9844000D01*
X20082747Y9844000D01*
X19999865Y9827514D01*
X19921792Y9795175D01*
X19851528Y9748226D01*
X19791774Y9688472D01*
X19744825Y9618208D01*
X19712486Y9540135D01*
X19696000Y9457253D01*
X12829000Y9457253D01*
X12829000Y9514640D01*
X12809632Y9612011D01*
X12771639Y9703734D01*
X12716483Y9786282D01*
X12646282Y9856483D01*
X12563734Y9911639D01*
X12472011Y9949632D01*
X12374640Y9969000D01*
X12275360Y9969000D01*
X12177989Y9949632D01*
X12086266Y9911639D01*
X12003718Y9856483D01*
X11933517Y9786282D01*
X11878361Y9703734D01*
X11840368Y9612011D01*
X11825000Y9534750D01*
X11809632Y9612011D01*
X11771639Y9703734D01*
X11716483Y9786282D01*
X11646282Y9856483D01*
X11563734Y9911639D01*
X11472011Y9949632D01*
X11374640Y9969000D01*
X11275360Y9969000D01*
X11177989Y9949632D01*
X11086266Y9911639D01*
X11003718Y9856483D01*
X10933517Y9786282D01*
X10878361Y9703734D01*
X10840368Y9612011D01*
X10821000Y9514640D01*
X7429966Y9514640D01*
X7197468Y9747138D01*
X7127000Y9917263D01*
X7127000Y10932253D01*
X10146000Y10932253D01*
X10146000Y10847747D01*
X10162486Y10764865D01*
X10194825Y10686792D01*
X10241774Y10616528D01*
X10301528Y10556774D01*
X10371792Y10509825D01*
X10449865Y10477486D01*
X10532747Y10461000D01*
X10617253Y10461000D01*
X10700135Y10477486D01*
X10778208Y10509825D01*
X10848472Y10556774D01*
X10908226Y10616528D01*
X10952142Y10682253D01*
X17021000Y10682253D01*
X17021000Y10597747D01*
X17037486Y10514865D01*
X17069825Y10436792D01*
X17116774Y10366528D01*
X17176528Y10306774D01*
X17246792Y10259825D01*
X17324865Y10227486D01*
X17407747Y10211000D01*
X17492253Y10211000D01*
X17575135Y10227486D01*
X17653208Y10259825D01*
X17723472Y10306774D01*
X17783226Y10366528D01*
X17830175Y10436792D01*
X17862514Y10514865D01*
X17879000Y10597747D01*
X17879000Y10682253D01*
X17862514Y10765135D01*
X17830175Y10843208D01*
X17783226Y10913472D01*
X17723472Y10973226D01*
X17653208Y11020175D01*
X17575135Y11052514D01*
X17492253Y11069000D01*
X17407747Y11069000D01*
X17324865Y11052514D01*
X17246792Y11020175D01*
X17176528Y10973226D01*
X17116774Y10913472D01*
X17069825Y10843208D01*
X17037486Y10765135D01*
X17021000Y10682253D01*
X10952142Y10682253D01*
X10955175Y10686792D01*
X10987514Y10764865D01*
X11004000Y10847747D01*
X11004000Y10932253D01*
X10987514Y11015135D01*
X10955175Y11093208D01*
X10908226Y11163472D01*
X10848472Y11223226D01*
X10778208Y11270175D01*
X10700135Y11302514D01*
X10617253Y11319000D01*
X10532747Y11319000D01*
X10449865Y11302514D01*
X10371792Y11270175D01*
X10301528Y11223226D01*
X10241774Y11163472D01*
X10194825Y11093208D01*
X10162486Y11015135D01*
X10146000Y10932253D01*
X7127000Y10932253D01*
X7127000Y11957253D01*
X12796000Y11957253D01*
X12796000Y11872747D01*
X12812486Y11789865D01*
X12844825Y11711792D01*
X12891774Y11641528D01*
X12951528Y11581774D01*
X13021792Y11534825D01*
X13099865Y11502486D01*
X13182747Y11486000D01*
X13267253Y11486000D01*
X13350135Y11502486D01*
X13428208Y11534825D01*
X13498472Y11581774D01*
X13558226Y11641528D01*
X13605175Y11711792D01*
X13637514Y11789865D01*
X13654000Y11872747D01*
X13654000Y11957253D01*
X13796000Y11957253D01*
X13796000Y11872747D01*
X13812486Y11789865D01*
X13844825Y11711792D01*
X13891774Y11641528D01*
X13951528Y11581774D01*
X14021792Y11534825D01*
X14099865Y11502486D01*
X14182747Y11486000D01*
X14267253Y11486000D01*
X14350135Y11502486D01*
X14428208Y11534825D01*
X14498472Y11581774D01*
X14558226Y11641528D01*
X14605175Y11711792D01*
X14637514Y11789865D01*
X14654000Y11872747D01*
X14654000Y11957253D01*
X14796000Y11957253D01*
X14796000Y11872747D01*
X14812486Y11789865D01*
X14844825Y11711792D01*
X14891774Y11641528D01*
X14951528Y11581774D01*
X15021792Y11534825D01*
X15099865Y11502486D01*
X15182747Y11486000D01*
X15267253Y11486000D01*
X15350135Y11502486D01*
X15428208Y11534825D01*
X15498472Y11581774D01*
X15558226Y11641528D01*
X15605175Y11711792D01*
X15637514Y11789865D01*
X15654000Y11872747D01*
X15654000Y11957253D01*
X15637514Y12040135D01*
X15605175Y12118208D01*
X15558226Y12188472D01*
X15498472Y12248226D01*
X15428208Y12295175D01*
X15350135Y12327514D01*
X15267253Y12344000D01*
X15182747Y12344000D01*
X15099865Y12327514D01*
X15021792Y12295175D01*
X14951528Y12248226D01*
X14891774Y12188472D01*
X14844825Y12118208D01*
X14812486Y12040135D01*
X14796000Y11957253D01*
X14654000Y11957253D01*
X14637514Y12040135D01*
X14605175Y12118208D01*
X14558226Y12188472D01*
X14498472Y12248226D01*
X14428208Y12295175D01*
X14350135Y12327514D01*
X14267253Y12344000D01*
X14182747Y12344000D01*
X14099865Y12327514D01*
X14021792Y12295175D01*
X13951528Y12248226D01*
X13891774Y12188472D01*
X13844825Y12118208D01*
X13812486Y12040135D01*
X13796000Y11957253D01*
X13654000Y11957253D01*
X13637514Y12040135D01*
X13605175Y12118208D01*
X13558226Y12188472D01*
X13498472Y12248226D01*
X13428208Y12295175D01*
X13350135Y12327514D01*
X13267253Y12344000D01*
X13182747Y12344000D01*
X13099865Y12327514D01*
X13021792Y12295175D01*
X12951528Y12248226D01*
X12891774Y12188472D01*
X12844825Y12118208D01*
X12812486Y12040135D01*
X12796000Y11957253D01*
X7127000Y11957253D01*
X7127000Y12657253D01*
X7596000Y12657253D01*
X7596000Y12572747D01*
X7612486Y12489865D01*
X7644825Y12411792D01*
X7691774Y12341528D01*
X7751528Y12281774D01*
X7821792Y12234825D01*
X7899865Y12202486D01*
X7982747Y12186000D01*
X8067253Y12186000D01*
X8150135Y12202486D01*
X8228208Y12234825D01*
X8298472Y12281774D01*
X8358226Y12341528D01*
X8405175Y12411792D01*
X8437514Y12489865D01*
X8454000Y12572747D01*
X8454000Y12657253D01*
X8437514Y12740135D01*
X8405175Y12818208D01*
X8358226Y12888472D01*
X8298472Y12948226D01*
X8284963Y12957253D01*
X12796000Y12957253D01*
X12796000Y12872747D01*
X12812486Y12789865D01*
X12844825Y12711792D01*
X12891774Y12641528D01*
X12951528Y12581774D01*
X13021792Y12534825D01*
X13099865Y12502486D01*
X13182747Y12486000D01*
X13267253Y12486000D01*
X13350135Y12502486D01*
X13428208Y12534825D01*
X13498472Y12581774D01*
X13558226Y12641528D01*
X13605175Y12711792D01*
X13637514Y12789865D01*
X13654000Y12872747D01*
X13654000Y12957253D01*
X13796000Y12957253D01*
X13796000Y12872747D01*
X13812486Y12789865D01*
X13844825Y12711792D01*
X13891774Y12641528D01*
X13951528Y12581774D01*
X14021792Y12534825D01*
X14099865Y12502486D01*
X14182747Y12486000D01*
X14267253Y12486000D01*
X14350135Y12502486D01*
X14428208Y12534825D01*
X14498472Y12581774D01*
X14558226Y12641528D01*
X14605175Y12711792D01*
X14637514Y12789865D01*
X14654000Y12872747D01*
X14654000Y12957253D01*
X14796000Y12957253D01*
X14796000Y12872747D01*
X14812486Y12789865D01*
X14844825Y12711792D01*
X14891774Y12641528D01*
X14951528Y12581774D01*
X15021792Y12534825D01*
X15099865Y12502486D01*
X15182747Y12486000D01*
X15267253Y12486000D01*
X15350135Y12502486D01*
X15428208Y12534825D01*
X15498472Y12581774D01*
X15558226Y12641528D01*
X15605175Y12711792D01*
X15637514Y12789865D01*
X15654000Y12872747D01*
X15654000Y12957253D01*
X15637514Y13040135D01*
X15605175Y13118208D01*
X15558226Y13188472D01*
X15498472Y13248226D01*
X15428208Y13295175D01*
X15350135Y13327514D01*
X15267253Y13344000D01*
X15182747Y13344000D01*
X15099865Y13327514D01*
X15021792Y13295175D01*
X14951528Y13248226D01*
X14891774Y13188472D01*
X14844825Y13118208D01*
X14812486Y13040135D01*
X14796000Y12957253D01*
X14654000Y12957253D01*
X14637514Y13040135D01*
X14605175Y13118208D01*
X14558226Y13188472D01*
X14498472Y13248226D01*
X14428208Y13295175D01*
X14350135Y13327514D01*
X14267253Y13344000D01*
X14182747Y13344000D01*
X14099865Y13327514D01*
X14021792Y13295175D01*
X13951528Y13248226D01*
X13891774Y13188472D01*
X13844825Y13118208D01*
X13812486Y13040135D01*
X13796000Y12957253D01*
X13654000Y12957253D01*
X13637514Y13040135D01*
X13605175Y13118208D01*
X13558226Y13188472D01*
X13498472Y13248226D01*
X13428208Y13295175D01*
X13350135Y13327514D01*
X13267253Y13344000D01*
X13182747Y13344000D01*
X13099865Y13327514D01*
X13021792Y13295175D01*
X12951528Y13248226D01*
X12891774Y13188472D01*
X12844825Y13118208D01*
X12812486Y13040135D01*
X12796000Y12957253D01*
X8284963Y12957253D01*
X8228208Y12995175D01*
X8150135Y13027514D01*
X8067253Y13044000D01*
X7982747Y13044000D01*
X7899865Y13027514D01*
X7821792Y12995175D01*
X7751528Y12948226D01*
X7691774Y12888472D01*
X7644825Y12818208D01*
X7612486Y12740135D01*
X7596000Y12657253D01*
X7127000Y12657253D01*
X7127000Y13957253D01*
X12796000Y13957253D01*
X12796000Y13872747D01*
X12812486Y13789865D01*
X12844825Y13711792D01*
X12891774Y13641528D01*
X12951528Y13581774D01*
X13021792Y13534825D01*
X13099865Y13502486D01*
X13182747Y13486000D01*
X13267253Y13486000D01*
X13350135Y13502486D01*
X13428208Y13534825D01*
X13498472Y13581774D01*
X13558226Y13641528D01*
X13605175Y13711792D01*
X13637514Y13789865D01*
X13654000Y13872747D01*
X13654000Y13957253D01*
X13796000Y13957253D01*
X13796000Y13872747D01*
X13812486Y13789865D01*
X13844825Y13711792D01*
X13891774Y13641528D01*
X13951528Y13581774D01*
X14021792Y13534825D01*
X14099865Y13502486D01*
X14182747Y13486000D01*
X14267253Y13486000D01*
X14350135Y13502486D01*
X14428208Y13534825D01*
X14498472Y13581774D01*
X14558226Y13641528D01*
X14605175Y13711792D01*
X14637514Y13789865D01*
X14654000Y13872747D01*
X14654000Y13957253D01*
X14796000Y13957253D01*
X14796000Y13872747D01*
X14812486Y13789865D01*
X14844825Y13711792D01*
X14891774Y13641528D01*
X14951528Y13581774D01*
X15021792Y13534825D01*
X15099865Y13502486D01*
X15182747Y13486000D01*
X15267253Y13486000D01*
X15350135Y13502486D01*
X15428208Y13534825D01*
X15498472Y13581774D01*
X15558226Y13641528D01*
X15605175Y13711792D01*
X15637514Y13789865D01*
X15654000Y13872747D01*
X15654000Y13957253D01*
X15637514Y14040135D01*
X15605175Y14118208D01*
X15558226Y14188472D01*
X15498472Y14248226D01*
X15428208Y14295175D01*
X15350135Y14327514D01*
X15267253Y14344000D01*
X15182747Y14344000D01*
X15099865Y14327514D01*
X15021792Y14295175D01*
X14951528Y14248226D01*
X14891774Y14188472D01*
X14844825Y14118208D01*
X14812486Y14040135D01*
X14796000Y13957253D01*
X14654000Y13957253D01*
X14637514Y14040135D01*
X14605175Y14118208D01*
X14558226Y14188472D01*
X14498472Y14248226D01*
X14428208Y14295175D01*
X14350135Y14327514D01*
X14267253Y14344000D01*
X14182747Y14344000D01*
X14099865Y14327514D01*
X14021792Y14295175D01*
X13951528Y14248226D01*
X13891774Y14188472D01*
X13844825Y14118208D01*
X13812486Y14040135D01*
X13796000Y13957253D01*
X13654000Y13957253D01*
X13637514Y14040135D01*
X13605175Y14118208D01*
X13558226Y14188472D01*
X13498472Y14248226D01*
X13428208Y14295175D01*
X13350135Y14327514D01*
X13267253Y14344000D01*
X13182747Y14344000D01*
X13099865Y14327514D01*
X13021792Y14295175D01*
X12951528Y14248226D01*
X12891774Y14188472D01*
X12844825Y14118208D01*
X12812486Y14040135D01*
X12796000Y13957253D01*
X7127000Y13957253D01*
X7127000Y15182253D01*
X11071000Y15182253D01*
X11071000Y15097747D01*
X11087486Y15014865D01*
X11119825Y14936792D01*
X11166774Y14866528D01*
X11226528Y14806774D01*
X11296792Y14759825D01*
X11374865Y14727486D01*
X11457747Y14711000D01*
X11542253Y14711000D01*
X11625135Y14727486D01*
X11703208Y14759825D01*
X11773472Y14806774D01*
X11833226Y14866528D01*
X11880175Y14936792D01*
X11912514Y15014865D01*
X11929000Y15097747D01*
X11929000Y15182253D01*
X11912514Y15265135D01*
X11882512Y15337566D01*
X11972011Y15355368D01*
X11976561Y15357253D01*
X16346000Y15357253D01*
X16346000Y15272747D01*
X16362486Y15189865D01*
X16394825Y15111792D01*
X16441774Y15041528D01*
X16501528Y14981774D01*
X16571792Y14934825D01*
X16649865Y14902486D01*
X16732747Y14886000D01*
X16817253Y14886000D01*
X16900135Y14902486D01*
X16978208Y14934825D01*
X17048472Y14981774D01*
X17108226Y15041528D01*
X17155175Y15111792D01*
X17187514Y15189865D01*
X17204000Y15272747D01*
X17204000Y15357253D01*
X17187514Y15440135D01*
X17155175Y15518208D01*
X17108226Y15588472D01*
X17048472Y15648226D01*
X16978208Y15695175D01*
X16900135Y15727514D01*
X16817253Y15744000D01*
X16732747Y15744000D01*
X16649865Y15727514D01*
X16571792Y15695175D01*
X16501528Y15648226D01*
X16441774Y15588472D01*
X16394825Y15518208D01*
X16362486Y15440135D01*
X16346000Y15357253D01*
X11976561Y15357253D01*
X12063734Y15393361D01*
X12146282Y15448517D01*
X12216483Y15518718D01*
X12271639Y15601266D01*
X12309632Y15692989D01*
X12329000Y15790360D01*
X12329000Y15889640D01*
X12309632Y15987011D01*
X12271639Y16078734D01*
X12216483Y16161282D01*
X12146282Y16231483D01*
X12063734Y16286639D01*
X11972011Y16324632D01*
X11874640Y16344000D01*
X11775360Y16344000D01*
X11677989Y16324632D01*
X11586266Y16286639D01*
X11503718Y16231483D01*
X11433517Y16161282D01*
X11378361Y16078734D01*
X11340368Y15987011D01*
X11321000Y15889640D01*
X11321000Y15790360D01*
X11340368Y15692989D01*
X11378361Y15601266D01*
X11406704Y15558847D01*
X11374865Y15552514D01*
X11296792Y15520175D01*
X11226528Y15473226D01*
X11166774Y15413472D01*
X11119825Y15343208D01*
X11087486Y15265135D01*
X11071000Y15182253D01*
X7127000Y15182253D01*
X7127000Y15807253D01*
X8471000Y15807253D01*
X8471000Y15722747D01*
X8487486Y15639865D01*
X8519825Y15561792D01*
X8566774Y15491528D01*
X8626528Y15431774D01*
X8696792Y15384825D01*
X8774865Y15352486D01*
X8857747Y15336000D01*
X8942253Y15336000D01*
X9025135Y15352486D01*
X9103208Y15384825D01*
X9173472Y15431774D01*
X9233226Y15491528D01*
X9280175Y15561792D01*
X9312514Y15639865D01*
X9329000Y15722747D01*
X9329000Y15807253D01*
X9312514Y15890135D01*
X9280175Y15968208D01*
X9233226Y16038472D01*
X9173472Y16098226D01*
X9122548Y16132253D01*
X10421000Y16132253D01*
X10421000Y16047747D01*
X10437486Y15964865D01*
X10469825Y15886792D01*
X10516774Y15816528D01*
X10576528Y15756774D01*
X10646792Y15709825D01*
X10724865Y15677486D01*
X10807747Y15661000D01*
X10892253Y15661000D01*
X10975135Y15677486D01*
X11053208Y15709825D01*
X11123472Y15756774D01*
X11183226Y15816528D01*
X11230175Y15886792D01*
X11262514Y15964865D01*
X11279000Y16047747D01*
X11279000Y16132253D01*
X11262514Y16215135D01*
X11230175Y16293208D01*
X11183226Y16363472D01*
X11123472Y16423226D01*
X11053208Y16470175D01*
X10975135Y16502514D01*
X10892253Y16519000D01*
X10807747Y16519000D01*
X10724865Y16502514D01*
X10646792Y16470175D01*
X10576528Y16423226D01*
X10516774Y16363472D01*
X10469825Y16293208D01*
X10437486Y16215135D01*
X10421000Y16132253D01*
X9122548Y16132253D01*
X9103208Y16145175D01*
X9025135Y16177514D01*
X8942253Y16194000D01*
X8857747Y16194000D01*
X8774865Y16177514D01*
X8696792Y16145175D01*
X8626528Y16098226D01*
X8566774Y16038472D01*
X8519825Y15968208D01*
X8487486Y15890135D01*
X8471000Y15807253D01*
X7127000Y15807253D01*
X7127000Y17412737D01*
X7197468Y17582862D01*
X7882138Y18267532D01*
X8052263Y18338000D01*
X10797737Y18338000D01*
X10967862Y18267532D01*
%TO.N,+12V*%
G36*
X149110930Y28547032D02*
G01*
X149231308Y28510688D01*
X149342341Y28451651D01*
X149452839Y28361531D01*
X151844553Y25969816D01*
X151935404Y25859212D01*
X151994827Y25748389D01*
X152031590Y25628142D01*
X152046000Y25486283D01*
X152046000Y19392000D01*
X139252263Y19392000D01*
X139082138Y19462468D01*
X134137353Y24407253D01*
X139771000Y24407253D01*
X139771000Y24322747D01*
X139787486Y24239865D01*
X139819825Y24161792D01*
X139866774Y24091528D01*
X139926528Y24031774D01*
X139996792Y23984825D01*
X140074865Y23952486D01*
X140157747Y23936000D01*
X140242253Y23936000D01*
X140325135Y23952486D01*
X140403208Y23984825D01*
X140473472Y24031774D01*
X140533226Y24091528D01*
X140580175Y24161792D01*
X140612514Y24239865D01*
X140629000Y24322747D01*
X140629000Y24407253D01*
X140612514Y24490135D01*
X140580175Y24568208D01*
X140533226Y24638472D01*
X140473472Y24698226D01*
X140403208Y24745175D01*
X140325135Y24777514D01*
X140242253Y24794000D01*
X140157747Y24794000D01*
X140074865Y24777514D01*
X139996792Y24745175D01*
X139926528Y24698226D01*
X139866774Y24638472D01*
X139819825Y24568208D01*
X139787486Y24490135D01*
X139771000Y24407253D01*
X134137353Y24407253D01*
X132729606Y25815000D01*
X132710360Y25830794D01*
X132688404Y25842530D01*
X132592505Y25882253D01*
X133521000Y25882253D01*
X133521000Y25797747D01*
X133537486Y25714865D01*
X133569825Y25636792D01*
X133616774Y25566528D01*
X133676528Y25506774D01*
X133746792Y25459825D01*
X133824865Y25427486D01*
X133907747Y25411000D01*
X133992253Y25411000D01*
X134075135Y25427486D01*
X134153208Y25459825D01*
X134223472Y25506774D01*
X134283226Y25566528D01*
X134330175Y25636792D01*
X134362514Y25714865D01*
X134379000Y25797747D01*
X134379000Y25882253D01*
X134362514Y25965135D01*
X134330175Y26043208D01*
X134283226Y26113472D01*
X134223472Y26173226D01*
X134153208Y26220175D01*
X134075135Y26252514D01*
X133992253Y26269000D01*
X133907747Y26269000D01*
X133824865Y26252514D01*
X133746792Y26220175D01*
X133676528Y26173226D01*
X133616774Y26113472D01*
X133569825Y26043208D01*
X133537486Y25965135D01*
X133521000Y25882253D01*
X132592505Y25882253D01*
X132471601Y25932333D01*
X132447777Y25939560D01*
X132423000Y25942000D01*
X129589280Y25942000D01*
X129653155Y25984680D01*
X129730320Y26061845D01*
X129790949Y26152582D01*
X129832711Y26253404D01*
X129854000Y26360436D01*
X129854000Y26469564D01*
X129832711Y26576596D01*
X129790949Y26677418D01*
X129730320Y26768155D01*
X129653155Y26845320D01*
X129562418Y26905949D01*
X129461596Y26947711D01*
X129354564Y26969000D01*
X129245436Y26969000D01*
X129138404Y26947711D01*
X129037582Y26905949D01*
X128946845Y26845320D01*
X128869680Y26768155D01*
X128809051Y26677418D01*
X128767289Y26576596D01*
X128746000Y26469564D01*
X128746000Y26360436D01*
X128767289Y26253404D01*
X128809051Y26152582D01*
X128869680Y26061845D01*
X128946845Y25984680D01*
X129010720Y25942000D01*
X122327000Y25942000D01*
X122302224Y25939560D01*
X122278399Y25932333D01*
X122061596Y25842530D01*
X122039639Y25830794D01*
X122020394Y25815000D01*
X121167862Y24962468D01*
X120997737Y24892000D01*
X114052263Y24892000D01*
X113882138Y24962468D01*
X113212353Y25632253D01*
X113521000Y25632253D01*
X113521000Y25547747D01*
X113537486Y25464865D01*
X113569825Y25386792D01*
X113616774Y25316528D01*
X113676528Y25256774D01*
X113746792Y25209825D01*
X113824865Y25177486D01*
X113907747Y25161000D01*
X113992253Y25161000D01*
X114075135Y25177486D01*
X114153208Y25209825D01*
X114223472Y25256774D01*
X114283226Y25316528D01*
X114330175Y25386792D01*
X114362514Y25464865D01*
X114379000Y25547747D01*
X114379000Y25632253D01*
X118271000Y25632253D01*
X118271000Y25547747D01*
X118287486Y25464865D01*
X118319825Y25386792D01*
X118366774Y25316528D01*
X118426528Y25256774D01*
X118496792Y25209825D01*
X118574865Y25177486D01*
X118657747Y25161000D01*
X118742253Y25161000D01*
X118825135Y25177486D01*
X118903208Y25209825D01*
X118973472Y25256774D01*
X119033226Y25316528D01*
X119080175Y25386792D01*
X119112514Y25464865D01*
X119129000Y25547747D01*
X119129000Y25632253D01*
X119112514Y25715135D01*
X119080175Y25793208D01*
X119033226Y25863472D01*
X118973472Y25923226D01*
X118903208Y25970175D01*
X118825135Y26002514D01*
X118742253Y26019000D01*
X118657747Y26019000D01*
X118574865Y26002514D01*
X118496792Y25970175D01*
X118426528Y25923226D01*
X118366774Y25863472D01*
X118319825Y25793208D01*
X118287486Y25715135D01*
X118271000Y25632253D01*
X114379000Y25632253D01*
X114362514Y25715135D01*
X114330175Y25793208D01*
X114283226Y25863472D01*
X114223472Y25923226D01*
X114153208Y25970175D01*
X114075135Y26002514D01*
X113992253Y26019000D01*
X113907747Y26019000D01*
X113824865Y26002514D01*
X113746792Y25970175D01*
X113676528Y25923226D01*
X113616774Y25863472D01*
X113569825Y25793208D01*
X113537486Y25715135D01*
X113521000Y25632253D01*
X113212353Y25632253D01*
X112979606Y25865000D01*
X112960360Y25880794D01*
X112938404Y25892530D01*
X112721601Y25982333D01*
X112697777Y25989560D01*
X112673000Y25992000D01*
X109750469Y25992000D01*
X109790949Y26052582D01*
X109832711Y26153404D01*
X109854000Y26260436D01*
X109854000Y26369564D01*
X109832711Y26476596D01*
X109790949Y26577418D01*
X109730320Y26668155D01*
X109653155Y26745320D01*
X109562418Y26805949D01*
X109461596Y26847711D01*
X109354564Y26869000D01*
X109245436Y26869000D01*
X109138404Y26847711D01*
X109037582Y26805949D01*
X108946845Y26745320D01*
X108869680Y26668155D01*
X108809051Y26577418D01*
X108767289Y26476596D01*
X108746000Y26369564D01*
X108746000Y26260436D01*
X108767289Y26153404D01*
X108809051Y26052582D01*
X108849531Y25992000D01*
X102177000Y25992000D01*
X102152224Y25989560D01*
X102128399Y25982333D01*
X101911596Y25892530D01*
X101889639Y25880794D01*
X101870394Y25865000D01*
X101067862Y25062468D01*
X100897737Y24992000D01*
X93502263Y24992000D01*
X93332138Y25062468D01*
X92762353Y25632253D01*
X93521000Y25632253D01*
X93521000Y25547747D01*
X93537486Y25464865D01*
X93569825Y25386792D01*
X93616774Y25316528D01*
X93676528Y25256774D01*
X93746792Y25209825D01*
X93824865Y25177486D01*
X93907747Y25161000D01*
X93992253Y25161000D01*
X94075135Y25177486D01*
X94153208Y25209825D01*
X94223472Y25256774D01*
X94283226Y25316528D01*
X94330175Y25386792D01*
X94362514Y25464865D01*
X94379000Y25547747D01*
X94379000Y25632253D01*
X98271000Y25632253D01*
X98271000Y25547747D01*
X98287486Y25464865D01*
X98319825Y25386792D01*
X98366774Y25316528D01*
X98426528Y25256774D01*
X98496792Y25209825D01*
X98574865Y25177486D01*
X98657747Y25161000D01*
X98742253Y25161000D01*
X98825135Y25177486D01*
X98903208Y25209825D01*
X98973472Y25256774D01*
X99033226Y25316528D01*
X99080175Y25386792D01*
X99112514Y25464865D01*
X99129000Y25547747D01*
X99129000Y25632253D01*
X99112514Y25715135D01*
X99080175Y25793208D01*
X99033226Y25863472D01*
X98973472Y25923226D01*
X98903208Y25970175D01*
X98825135Y26002514D01*
X98742253Y26019000D01*
X98657747Y26019000D01*
X98574865Y26002514D01*
X98496792Y25970175D01*
X98426528Y25923226D01*
X98366774Y25863472D01*
X98319825Y25793208D01*
X98287486Y25715135D01*
X98271000Y25632253D01*
X94379000Y25632253D01*
X94362514Y25715135D01*
X94330175Y25793208D01*
X94283226Y25863472D01*
X94223472Y25923226D01*
X94153208Y25970175D01*
X94075135Y26002514D01*
X93992253Y26019000D01*
X93907747Y26019000D01*
X93824865Y26002514D01*
X93746792Y25970175D01*
X93676528Y25923226D01*
X93616774Y25863472D01*
X93569825Y25793208D01*
X93537486Y25715135D01*
X93521000Y25632253D01*
X92762353Y25632253D01*
X92629606Y25765000D01*
X92610360Y25780794D01*
X92588404Y25792530D01*
X92371601Y25882333D01*
X92347777Y25889560D01*
X92323000Y25892000D01*
X89660475Y25892000D01*
X89730320Y25961845D01*
X89790949Y26052582D01*
X89832711Y26153404D01*
X89854000Y26260436D01*
X89854000Y26369564D01*
X89832711Y26476596D01*
X89790949Y26577418D01*
X89730320Y26668155D01*
X89653155Y26745320D01*
X89562418Y26805949D01*
X89461596Y26847711D01*
X89354564Y26869000D01*
X89245436Y26869000D01*
X89138404Y26847711D01*
X89037582Y26805949D01*
X88946845Y26745320D01*
X88869680Y26668155D01*
X88809051Y26577418D01*
X88767289Y26476596D01*
X88746000Y26369564D01*
X88746000Y26260436D01*
X88767289Y26153404D01*
X88809051Y26052582D01*
X88869680Y25961845D01*
X88939525Y25892000D01*
X82127000Y25892000D01*
X82102224Y25889560D01*
X82078399Y25882333D01*
X81861596Y25792530D01*
X81839639Y25780794D01*
X81820394Y25765000D01*
X81167862Y25112468D01*
X80997737Y25042000D01*
X79008698Y25042000D01*
X79033226Y25066528D01*
X79080175Y25136792D01*
X79112514Y25214865D01*
X79129000Y25297747D01*
X79129000Y25382253D01*
X79112514Y25465135D01*
X79080175Y25543208D01*
X79033226Y25613472D01*
X78973472Y25673226D01*
X78903208Y25720175D01*
X78825135Y25752514D01*
X78742253Y25769000D01*
X78657747Y25769000D01*
X78574865Y25752514D01*
X78496792Y25720175D01*
X78426528Y25673226D01*
X78366774Y25613472D01*
X78319825Y25543208D01*
X78287486Y25465135D01*
X78271000Y25382253D01*
X78271000Y25297747D01*
X78287486Y25214865D01*
X78319825Y25136792D01*
X78366774Y25066528D01*
X78391302Y25042000D01*
X74258698Y25042000D01*
X74283226Y25066528D01*
X74330175Y25136792D01*
X74362514Y25214865D01*
X74379000Y25297747D01*
X74379000Y25382253D01*
X74362514Y25465135D01*
X74330175Y25543208D01*
X74283226Y25613472D01*
X74223472Y25673226D01*
X74153208Y25720175D01*
X74075135Y25752514D01*
X73992253Y25769000D01*
X73907747Y25769000D01*
X73824865Y25752514D01*
X73746792Y25720175D01*
X73676528Y25673226D01*
X73616774Y25613472D01*
X73569825Y25543208D01*
X73537486Y25465135D01*
X73521000Y25382253D01*
X73521000Y25372062D01*
X73510360Y25380794D01*
X73488404Y25392530D01*
X73387282Y25434416D01*
X73373472Y25448226D01*
X73303208Y25495175D01*
X73225135Y25527514D01*
X73142253Y25544000D01*
X73057747Y25544000D01*
X72974865Y25527514D01*
X72896792Y25495175D01*
X72892040Y25492000D01*
X67315436Y25492000D01*
X67297011Y25499632D01*
X67199640Y25519000D01*
X67100360Y25519000D01*
X67002989Y25499632D01*
X66984564Y25492000D01*
X60977000Y25492000D01*
X60952224Y25489560D01*
X60928399Y25482333D01*
X60711596Y25392530D01*
X60689639Y25380794D01*
X60675268Y25369000D01*
X57767374Y25369000D01*
X57750000Y25370711D01*
X57732626Y25369000D01*
X57732618Y25369000D01*
X57680604Y25363877D01*
X57613875Y25343635D01*
X57552377Y25310764D01*
X57511975Y25277607D01*
X57511971Y25277603D01*
X57498474Y25266526D01*
X57487397Y25253029D01*
X55261977Y23027607D01*
X55248475Y23016526D01*
X55204237Y22962623D01*
X55176518Y22910763D01*
X55171366Y22901125D01*
X55151123Y22834396D01*
X55144289Y22765000D01*
X55146001Y22747616D01*
X55146000Y21192000D01*
X30952263Y21192000D01*
X30782138Y21262468D01*
X27547468Y24497138D01*
X27477000Y24667263D01*
X27477000Y27314640D01*
X42246000Y27314640D01*
X42246000Y27215360D01*
X42265368Y27117989D01*
X42303361Y27026266D01*
X42358517Y26943718D01*
X42428718Y26873517D01*
X42511266Y26818361D01*
X42602989Y26780368D01*
X42680250Y26765000D01*
X42602989Y26749632D01*
X42511266Y26711639D01*
X42428718Y26656483D01*
X42358517Y26586282D01*
X42303361Y26503734D01*
X42265368Y26412011D01*
X42246000Y26314640D01*
X42246000Y26215360D01*
X42265368Y26117989D01*
X42303361Y26026266D01*
X42358517Y25943718D01*
X42428718Y25873517D01*
X42511266Y25818361D01*
X42602989Y25780368D01*
X42680250Y25765000D01*
X42602989Y25749632D01*
X42511266Y25711639D01*
X42428718Y25656483D01*
X42358517Y25586282D01*
X42303361Y25503734D01*
X42265368Y25412011D01*
X42246000Y25314640D01*
X42246000Y25215360D01*
X42265368Y25117989D01*
X42303361Y25026266D01*
X42358517Y24943718D01*
X42428718Y24873517D01*
X42511266Y24818361D01*
X42602989Y24780368D01*
X42700360Y24761000D01*
X42799640Y24761000D01*
X42897011Y24780368D01*
X42988734Y24818361D01*
X43071282Y24873517D01*
X43141483Y24943718D01*
X43196639Y25026266D01*
X43234632Y25117989D01*
X43250000Y25195250D01*
X43265368Y25117989D01*
X43303361Y25026266D01*
X43358517Y24943718D01*
X43428718Y24873517D01*
X43511266Y24818361D01*
X43602989Y24780368D01*
X43700360Y24761000D01*
X43799640Y24761000D01*
X43897011Y24780368D01*
X43988734Y24818361D01*
X44071282Y24873517D01*
X44141483Y24943718D01*
X44196639Y25026266D01*
X44234632Y25117989D01*
X44250000Y25195250D01*
X44265368Y25117989D01*
X44303361Y25026266D01*
X44358517Y24943718D01*
X44428718Y24873517D01*
X44511266Y24818361D01*
X44602989Y24780368D01*
X44700360Y24761000D01*
X44799640Y24761000D01*
X44897011Y24780368D01*
X44988734Y24818361D01*
X45071282Y24873517D01*
X45141483Y24943718D01*
X45196639Y25026266D01*
X45234632Y25117989D01*
X45250000Y25195250D01*
X45265368Y25117989D01*
X45303361Y25026266D01*
X45358517Y24943718D01*
X45428718Y24873517D01*
X45511266Y24818361D01*
X45602989Y24780368D01*
X45700360Y24761000D01*
X45799640Y24761000D01*
X45897011Y24780368D01*
X45988734Y24818361D01*
X46071282Y24873517D01*
X46141483Y24943718D01*
X46196639Y25026266D01*
X46234632Y25117989D01*
X46250000Y25195250D01*
X46265368Y25117989D01*
X46303361Y25026266D01*
X46358517Y24943718D01*
X46428718Y24873517D01*
X46511266Y24818361D01*
X46602989Y24780368D01*
X46700360Y24761000D01*
X46799640Y24761000D01*
X46897011Y24780368D01*
X46988734Y24818361D01*
X47071282Y24873517D01*
X47141483Y24943718D01*
X47196639Y25026266D01*
X47234632Y25117989D01*
X47250000Y25195250D01*
X47265368Y25117989D01*
X47303361Y25026266D01*
X47358517Y24943718D01*
X47428718Y24873517D01*
X47511266Y24818361D01*
X47602989Y24780368D01*
X47700360Y24761000D01*
X47799640Y24761000D01*
X47897011Y24780368D01*
X47988734Y24818361D01*
X48071282Y24873517D01*
X48141483Y24943718D01*
X48196639Y25026266D01*
X48234632Y25117989D01*
X48250000Y25195250D01*
X48265368Y25117989D01*
X48303361Y25026266D01*
X48358517Y24943718D01*
X48428718Y24873517D01*
X48511266Y24818361D01*
X48602989Y24780368D01*
X48700360Y24761000D01*
X48799640Y24761000D01*
X48897011Y24780368D01*
X48988734Y24818361D01*
X49071282Y24873517D01*
X49141483Y24943718D01*
X49196639Y25026266D01*
X49234632Y25117989D01*
X49250000Y25195250D01*
X49265368Y25117989D01*
X49303361Y25026266D01*
X49358517Y24943718D01*
X49428718Y24873517D01*
X49511266Y24818361D01*
X49602989Y24780368D01*
X49700360Y24761000D01*
X49799640Y24761000D01*
X49897011Y24780368D01*
X49988734Y24818361D01*
X50071282Y24873517D01*
X50141483Y24943718D01*
X50196639Y25026266D01*
X50234632Y25117989D01*
X50254000Y25215360D01*
X50254000Y25314640D01*
X50234632Y25412011D01*
X50196639Y25503734D01*
X50141483Y25586282D01*
X50071282Y25656483D01*
X49988734Y25711639D01*
X49897011Y25749632D01*
X49819750Y25765000D01*
X49897011Y25780368D01*
X49988734Y25818361D01*
X50071282Y25873517D01*
X50141483Y25943718D01*
X50196639Y26026266D01*
X50234632Y26117989D01*
X50254000Y26215360D01*
X50254000Y26314640D01*
X50243076Y26369564D01*
X68746000Y26369564D01*
X68746000Y26260436D01*
X68767289Y26153404D01*
X68809051Y26052582D01*
X68869680Y25961845D01*
X68946845Y25884680D01*
X69037582Y25824051D01*
X69138404Y25782289D01*
X69245436Y25761000D01*
X69354564Y25761000D01*
X69461596Y25782289D01*
X69562418Y25824051D01*
X69653155Y25884680D01*
X69730320Y25961845D01*
X69790949Y26052582D01*
X69832711Y26153404D01*
X69854000Y26260436D01*
X69854000Y26369564D01*
X69832711Y26476596D01*
X69790949Y26577418D01*
X69730320Y26668155D01*
X69653155Y26745320D01*
X69562418Y26805949D01*
X69461596Y26847711D01*
X69354564Y26869000D01*
X69245436Y26869000D01*
X69138404Y26847711D01*
X69037582Y26805949D01*
X68946845Y26745320D01*
X68869680Y26668155D01*
X68809051Y26577418D01*
X68767289Y26476596D01*
X68746000Y26369564D01*
X50243076Y26369564D01*
X50234632Y26412011D01*
X50196639Y26503734D01*
X50141483Y26586282D01*
X50071282Y26656483D01*
X49988734Y26711639D01*
X49897011Y26749632D01*
X49819750Y26765000D01*
X49897011Y26780368D01*
X49988734Y26818361D01*
X50071282Y26873517D01*
X50141483Y26943718D01*
X50196639Y27026266D01*
X50234632Y27117989D01*
X50254000Y27215360D01*
X50254000Y27314640D01*
X50234632Y27412011D01*
X50196639Y27503734D01*
X50141483Y27586282D01*
X50071282Y27656483D01*
X49988734Y27711639D01*
X49897011Y27749632D01*
X49799640Y27769000D01*
X49700360Y27769000D01*
X49602989Y27749632D01*
X49511266Y27711639D01*
X49428718Y27656483D01*
X49358517Y27586282D01*
X49303361Y27503734D01*
X49265368Y27412011D01*
X49250000Y27334750D01*
X49234632Y27412011D01*
X49196639Y27503734D01*
X49141483Y27586282D01*
X49071282Y27656483D01*
X48988734Y27711639D01*
X48897011Y27749632D01*
X48799640Y27769000D01*
X48700360Y27769000D01*
X48602989Y27749632D01*
X48511266Y27711639D01*
X48428718Y27656483D01*
X48358517Y27586282D01*
X48303361Y27503734D01*
X48265368Y27412011D01*
X48250000Y27334750D01*
X48234632Y27412011D01*
X48196639Y27503734D01*
X48141483Y27586282D01*
X48071282Y27656483D01*
X47988734Y27711639D01*
X47897011Y27749632D01*
X47799640Y27769000D01*
X47700360Y27769000D01*
X47602989Y27749632D01*
X47511266Y27711639D01*
X47428718Y27656483D01*
X47358517Y27586282D01*
X47303361Y27503734D01*
X47265368Y27412011D01*
X47250000Y27334750D01*
X47234632Y27412011D01*
X47196639Y27503734D01*
X47141483Y27586282D01*
X47071282Y27656483D01*
X46988734Y27711639D01*
X46897011Y27749632D01*
X46799640Y27769000D01*
X46700360Y27769000D01*
X46602989Y27749632D01*
X46511266Y27711639D01*
X46428718Y27656483D01*
X46358517Y27586282D01*
X46303361Y27503734D01*
X46265368Y27412011D01*
X46250000Y27334750D01*
X46234632Y27412011D01*
X46196639Y27503734D01*
X46141483Y27586282D01*
X46071282Y27656483D01*
X45988734Y27711639D01*
X45897011Y27749632D01*
X45799640Y27769000D01*
X45700360Y27769000D01*
X45602989Y27749632D01*
X45511266Y27711639D01*
X45428718Y27656483D01*
X45358517Y27586282D01*
X45303361Y27503734D01*
X45265368Y27412011D01*
X45250000Y27334750D01*
X45234632Y27412011D01*
X45196639Y27503734D01*
X45141483Y27586282D01*
X45071282Y27656483D01*
X44988734Y27711639D01*
X44897011Y27749632D01*
X44799640Y27769000D01*
X44700360Y27769000D01*
X44602989Y27749632D01*
X44511266Y27711639D01*
X44428718Y27656483D01*
X44358517Y27586282D01*
X44303361Y27503734D01*
X44265368Y27412011D01*
X44250000Y27334750D01*
X44234632Y27412011D01*
X44196639Y27503734D01*
X44141483Y27586282D01*
X44071282Y27656483D01*
X43988734Y27711639D01*
X43897011Y27749632D01*
X43799640Y27769000D01*
X43700360Y27769000D01*
X43602989Y27749632D01*
X43511266Y27711639D01*
X43428718Y27656483D01*
X43358517Y27586282D01*
X43303361Y27503734D01*
X43265368Y27412011D01*
X43250000Y27334750D01*
X43234632Y27412011D01*
X43196639Y27503734D01*
X43141483Y27586282D01*
X43071282Y27656483D01*
X42988734Y27711639D01*
X42897011Y27749632D01*
X42799640Y27769000D01*
X42700360Y27769000D01*
X42602989Y27749632D01*
X42511266Y27711639D01*
X42428718Y27656483D01*
X42358517Y27586282D01*
X42303361Y27503734D01*
X42265368Y27412011D01*
X42246000Y27314640D01*
X27477000Y27314640D01*
X27477000Y28561000D01*
X148968477Y28561000D01*
X149110930Y28547032D01*
G37*
X149110930Y28547032D02*
X149231308Y28510688D01*
X149342341Y28451651D01*
X149452839Y28361531D01*
X151844553Y25969816D01*
X151935404Y25859212D01*
X151994827Y25748389D01*
X152031590Y25628142D01*
X152046000Y25486283D01*
X152046000Y19392000D01*
X139252263Y19392000D01*
X139082138Y19462468D01*
X134137353Y24407253D01*
X139771000Y24407253D01*
X139771000Y24322747D01*
X139787486Y24239865D01*
X139819825Y24161792D01*
X139866774Y24091528D01*
X139926528Y24031774D01*
X139996792Y23984825D01*
X140074865Y23952486D01*
X140157747Y23936000D01*
X140242253Y23936000D01*
X140325135Y23952486D01*
X140403208Y23984825D01*
X140473472Y24031774D01*
X140533226Y24091528D01*
X140580175Y24161792D01*
X140612514Y24239865D01*
X140629000Y24322747D01*
X140629000Y24407253D01*
X140612514Y24490135D01*
X140580175Y24568208D01*
X140533226Y24638472D01*
X140473472Y24698226D01*
X140403208Y24745175D01*
X140325135Y24777514D01*
X140242253Y24794000D01*
X140157747Y24794000D01*
X140074865Y24777514D01*
X139996792Y24745175D01*
X139926528Y24698226D01*
X139866774Y24638472D01*
X139819825Y24568208D01*
X139787486Y24490135D01*
X139771000Y24407253D01*
X134137353Y24407253D01*
X132729606Y25815000D01*
X132710360Y25830794D01*
X132688404Y25842530D01*
X132592505Y25882253D01*
X133521000Y25882253D01*
X133521000Y25797747D01*
X133537486Y25714865D01*
X133569825Y25636792D01*
X133616774Y25566528D01*
X133676528Y25506774D01*
X133746792Y25459825D01*
X133824865Y25427486D01*
X133907747Y25411000D01*
X133992253Y25411000D01*
X134075135Y25427486D01*
X134153208Y25459825D01*
X134223472Y25506774D01*
X134283226Y25566528D01*
X134330175Y25636792D01*
X134362514Y25714865D01*
X134379000Y25797747D01*
X134379000Y25882253D01*
X134362514Y25965135D01*
X134330175Y26043208D01*
X134283226Y26113472D01*
X134223472Y26173226D01*
X134153208Y26220175D01*
X134075135Y26252514D01*
X133992253Y26269000D01*
X133907747Y26269000D01*
X133824865Y26252514D01*
X133746792Y26220175D01*
X133676528Y26173226D01*
X133616774Y26113472D01*
X133569825Y26043208D01*
X133537486Y25965135D01*
X133521000Y25882253D01*
X132592505Y25882253D01*
X132471601Y25932333D01*
X132447777Y25939560D01*
X132423000Y25942000D01*
X129589280Y25942000D01*
X129653155Y25984680D01*
X129730320Y26061845D01*
X129790949Y26152582D01*
X129832711Y26253404D01*
X129854000Y26360436D01*
X129854000Y26469564D01*
X129832711Y26576596D01*
X129790949Y26677418D01*
X129730320Y26768155D01*
X129653155Y26845320D01*
X129562418Y26905949D01*
X129461596Y26947711D01*
X129354564Y26969000D01*
X129245436Y26969000D01*
X129138404Y26947711D01*
X129037582Y26905949D01*
X128946845Y26845320D01*
X128869680Y26768155D01*
X128809051Y26677418D01*
X128767289Y26576596D01*
X128746000Y26469564D01*
X128746000Y26360436D01*
X128767289Y26253404D01*
X128809051Y26152582D01*
X128869680Y26061845D01*
X128946845Y25984680D01*
X129010720Y25942000D01*
X122327000Y25942000D01*
X122302224Y25939560D01*
X122278399Y25932333D01*
X122061596Y25842530D01*
X122039639Y25830794D01*
X122020394Y25815000D01*
X121167862Y24962468D01*
X120997737Y24892000D01*
X114052263Y24892000D01*
X113882138Y24962468D01*
X113212353Y25632253D01*
X113521000Y25632253D01*
X113521000Y25547747D01*
X113537486Y25464865D01*
X113569825Y25386792D01*
X113616774Y25316528D01*
X113676528Y25256774D01*
X113746792Y25209825D01*
X113824865Y25177486D01*
X113907747Y25161000D01*
X113992253Y25161000D01*
X114075135Y25177486D01*
X114153208Y25209825D01*
X114223472Y25256774D01*
X114283226Y25316528D01*
X114330175Y25386792D01*
X114362514Y25464865D01*
X114379000Y25547747D01*
X114379000Y25632253D01*
X118271000Y25632253D01*
X118271000Y25547747D01*
X118287486Y25464865D01*
X118319825Y25386792D01*
X118366774Y25316528D01*
X118426528Y25256774D01*
X118496792Y25209825D01*
X118574865Y25177486D01*
X118657747Y25161000D01*
X118742253Y25161000D01*
X118825135Y25177486D01*
X118903208Y25209825D01*
X118973472Y25256774D01*
X119033226Y25316528D01*
X119080175Y25386792D01*
X119112514Y25464865D01*
X119129000Y25547747D01*
X119129000Y25632253D01*
X119112514Y25715135D01*
X119080175Y25793208D01*
X119033226Y25863472D01*
X118973472Y25923226D01*
X118903208Y25970175D01*
X118825135Y26002514D01*
X118742253Y26019000D01*
X118657747Y26019000D01*
X118574865Y26002514D01*
X118496792Y25970175D01*
X118426528Y25923226D01*
X118366774Y25863472D01*
X118319825Y25793208D01*
X118287486Y25715135D01*
X118271000Y25632253D01*
X114379000Y25632253D01*
X114362514Y25715135D01*
X114330175Y25793208D01*
X114283226Y25863472D01*
X114223472Y25923226D01*
X114153208Y25970175D01*
X114075135Y26002514D01*
X113992253Y26019000D01*
X113907747Y26019000D01*
X113824865Y26002514D01*
X113746792Y25970175D01*
X113676528Y25923226D01*
X113616774Y25863472D01*
X113569825Y25793208D01*
X113537486Y25715135D01*
X113521000Y25632253D01*
X113212353Y25632253D01*
X112979606Y25865000D01*
X112960360Y25880794D01*
X112938404Y25892530D01*
X112721601Y25982333D01*
X112697777Y25989560D01*
X112673000Y25992000D01*
X109750469Y25992000D01*
X109790949Y26052582D01*
X109832711Y26153404D01*
X109854000Y26260436D01*
X109854000Y26369564D01*
X109832711Y26476596D01*
X109790949Y26577418D01*
X109730320Y26668155D01*
X109653155Y26745320D01*
X109562418Y26805949D01*
X109461596Y26847711D01*
X109354564Y26869000D01*
X109245436Y26869000D01*
X109138404Y26847711D01*
X109037582Y26805949D01*
X108946845Y26745320D01*
X108869680Y26668155D01*
X108809051Y26577418D01*
X108767289Y26476596D01*
X108746000Y26369564D01*
X108746000Y26260436D01*
X108767289Y26153404D01*
X108809051Y26052582D01*
X108849531Y25992000D01*
X102177000Y25992000D01*
X102152224Y25989560D01*
X102128399Y25982333D01*
X101911596Y25892530D01*
X101889639Y25880794D01*
X101870394Y25865000D01*
X101067862Y25062468D01*
X100897737Y24992000D01*
X93502263Y24992000D01*
X93332138Y25062468D01*
X92762353Y25632253D01*
X93521000Y25632253D01*
X93521000Y25547747D01*
X93537486Y25464865D01*
X93569825Y25386792D01*
X93616774Y25316528D01*
X93676528Y25256774D01*
X93746792Y25209825D01*
X93824865Y25177486D01*
X93907747Y25161000D01*
X93992253Y25161000D01*
X94075135Y25177486D01*
X94153208Y25209825D01*
X94223472Y25256774D01*
X94283226Y25316528D01*
X94330175Y25386792D01*
X94362514Y25464865D01*
X94379000Y25547747D01*
X94379000Y25632253D01*
X98271000Y25632253D01*
X98271000Y25547747D01*
X98287486Y25464865D01*
X98319825Y25386792D01*
X98366774Y25316528D01*
X98426528Y25256774D01*
X98496792Y25209825D01*
X98574865Y25177486D01*
X98657747Y25161000D01*
X98742253Y25161000D01*
X98825135Y25177486D01*
X98903208Y25209825D01*
X98973472Y25256774D01*
X99033226Y25316528D01*
X99080175Y25386792D01*
X99112514Y25464865D01*
X99129000Y25547747D01*
X99129000Y25632253D01*
X99112514Y25715135D01*
X99080175Y25793208D01*
X99033226Y25863472D01*
X98973472Y25923226D01*
X98903208Y25970175D01*
X98825135Y26002514D01*
X98742253Y26019000D01*
X98657747Y26019000D01*
X98574865Y26002514D01*
X98496792Y25970175D01*
X98426528Y25923226D01*
X98366774Y25863472D01*
X98319825Y25793208D01*
X98287486Y25715135D01*
X98271000Y25632253D01*
X94379000Y25632253D01*
X94362514Y25715135D01*
X94330175Y25793208D01*
X94283226Y25863472D01*
X94223472Y25923226D01*
X94153208Y25970175D01*
X94075135Y26002514D01*
X93992253Y26019000D01*
X93907747Y26019000D01*
X93824865Y26002514D01*
X93746792Y25970175D01*
X93676528Y25923226D01*
X93616774Y25863472D01*
X93569825Y25793208D01*
X93537486Y25715135D01*
X93521000Y25632253D01*
X92762353Y25632253D01*
X92629606Y25765000D01*
X92610360Y25780794D01*
X92588404Y25792530D01*
X92371601Y25882333D01*
X92347777Y25889560D01*
X92323000Y25892000D01*
X89660475Y25892000D01*
X89730320Y25961845D01*
X89790949Y26052582D01*
X89832711Y26153404D01*
X89854000Y26260436D01*
X89854000Y26369564D01*
X89832711Y26476596D01*
X89790949Y26577418D01*
X89730320Y26668155D01*
X89653155Y26745320D01*
X89562418Y26805949D01*
X89461596Y26847711D01*
X89354564Y26869000D01*
X89245436Y26869000D01*
X89138404Y26847711D01*
X89037582Y26805949D01*
X88946845Y26745320D01*
X88869680Y26668155D01*
X88809051Y26577418D01*
X88767289Y26476596D01*
X88746000Y26369564D01*
X88746000Y26260436D01*
X88767289Y26153404D01*
X88809051Y26052582D01*
X88869680Y25961845D01*
X88939525Y25892000D01*
X82127000Y25892000D01*
X82102224Y25889560D01*
X82078399Y25882333D01*
X81861596Y25792530D01*
X81839639Y25780794D01*
X81820394Y25765000D01*
X81167862Y25112468D01*
X80997737Y25042000D01*
X79008698Y25042000D01*
X79033226Y25066528D01*
X79080175Y25136792D01*
X79112514Y25214865D01*
X79129000Y25297747D01*
X79129000Y25382253D01*
X79112514Y25465135D01*
X79080175Y25543208D01*
X79033226Y25613472D01*
X78973472Y25673226D01*
X78903208Y25720175D01*
X78825135Y25752514D01*
X78742253Y25769000D01*
X78657747Y25769000D01*
X78574865Y25752514D01*
X78496792Y25720175D01*
X78426528Y25673226D01*
X78366774Y25613472D01*
X78319825Y25543208D01*
X78287486Y25465135D01*
X78271000Y25382253D01*
X78271000Y25297747D01*
X78287486Y25214865D01*
X78319825Y25136792D01*
X78366774Y25066528D01*
X78391302Y25042000D01*
X74258698Y25042000D01*
X74283226Y25066528D01*
X74330175Y25136792D01*
X74362514Y25214865D01*
X74379000Y25297747D01*
X74379000Y25382253D01*
X74362514Y25465135D01*
X74330175Y25543208D01*
X74283226Y25613472D01*
X74223472Y25673226D01*
X74153208Y25720175D01*
X74075135Y25752514D01*
X73992253Y25769000D01*
X73907747Y25769000D01*
X73824865Y25752514D01*
X73746792Y25720175D01*
X73676528Y25673226D01*
X73616774Y25613472D01*
X73569825Y25543208D01*
X73537486Y25465135D01*
X73521000Y25382253D01*
X73521000Y25372062D01*
X73510360Y25380794D01*
X73488404Y25392530D01*
X73387282Y25434416D01*
X73373472Y25448226D01*
X73303208Y25495175D01*
X73225135Y25527514D01*
X73142253Y25544000D01*
X73057747Y25544000D01*
X72974865Y25527514D01*
X72896792Y25495175D01*
X72892040Y25492000D01*
X67315436Y25492000D01*
X67297011Y25499632D01*
X67199640Y25519000D01*
X67100360Y25519000D01*
X67002989Y25499632D01*
X66984564Y25492000D01*
X60977000Y25492000D01*
X60952224Y25489560D01*
X60928399Y25482333D01*
X60711596Y25392530D01*
X60689639Y25380794D01*
X60675268Y25369000D01*
X57767374Y25369000D01*
X57750000Y25370711D01*
X57732626Y25369000D01*
X57732618Y25369000D01*
X57680604Y25363877D01*
X57613875Y25343635D01*
X57552377Y25310764D01*
X57511975Y25277607D01*
X57511971Y25277603D01*
X57498474Y25266526D01*
X57487397Y25253029D01*
X55261977Y23027607D01*
X55248475Y23016526D01*
X55204237Y22962623D01*
X55176518Y22910763D01*
X55171366Y22901125D01*
X55151123Y22834396D01*
X55144289Y22765000D01*
X55146001Y22747616D01*
X55146000Y21192000D01*
X30952263Y21192000D01*
X30782138Y21262468D01*
X27547468Y24497138D01*
X27477000Y24667263D01*
X27477000Y27314640D01*
X42246000Y27314640D01*
X42246000Y27215360D01*
X42265368Y27117989D01*
X42303361Y27026266D01*
X42358517Y26943718D01*
X42428718Y26873517D01*
X42511266Y26818361D01*
X42602989Y26780368D01*
X42680250Y26765000D01*
X42602989Y26749632D01*
X42511266Y26711639D01*
X42428718Y26656483D01*
X42358517Y26586282D01*
X42303361Y26503734D01*
X42265368Y26412011D01*
X42246000Y26314640D01*
X42246000Y26215360D01*
X42265368Y26117989D01*
X42303361Y26026266D01*
X42358517Y25943718D01*
X42428718Y25873517D01*
X42511266Y25818361D01*
X42602989Y25780368D01*
X42680250Y25765000D01*
X42602989Y25749632D01*
X42511266Y25711639D01*
X42428718Y25656483D01*
X42358517Y25586282D01*
X42303361Y25503734D01*
X42265368Y25412011D01*
X42246000Y25314640D01*
X42246000Y25215360D01*
X42265368Y25117989D01*
X42303361Y25026266D01*
X42358517Y24943718D01*
X42428718Y24873517D01*
X42511266Y24818361D01*
X42602989Y24780368D01*
X42700360Y24761000D01*
X42799640Y24761000D01*
X42897011Y24780368D01*
X42988734Y24818361D01*
X43071282Y24873517D01*
X43141483Y24943718D01*
X43196639Y25026266D01*
X43234632Y25117989D01*
X43250000Y25195250D01*
X43265368Y25117989D01*
X43303361Y25026266D01*
X43358517Y24943718D01*
X43428718Y24873517D01*
X43511266Y24818361D01*
X43602989Y24780368D01*
X43700360Y24761000D01*
X43799640Y24761000D01*
X43897011Y24780368D01*
X43988734Y24818361D01*
X44071282Y24873517D01*
X44141483Y24943718D01*
X44196639Y25026266D01*
X44234632Y25117989D01*
X44250000Y25195250D01*
X44265368Y25117989D01*
X44303361Y25026266D01*
X44358517Y24943718D01*
X44428718Y24873517D01*
X44511266Y24818361D01*
X44602989Y24780368D01*
X44700360Y24761000D01*
X44799640Y24761000D01*
X44897011Y24780368D01*
X44988734Y24818361D01*
X45071282Y24873517D01*
X45141483Y24943718D01*
X45196639Y25026266D01*
X45234632Y25117989D01*
X45250000Y25195250D01*
X45265368Y25117989D01*
X45303361Y25026266D01*
X45358517Y24943718D01*
X45428718Y24873517D01*
X45511266Y24818361D01*
X45602989Y24780368D01*
X45700360Y24761000D01*
X45799640Y24761000D01*
X45897011Y24780368D01*
X45988734Y24818361D01*
X46071282Y24873517D01*
X46141483Y24943718D01*
X46196639Y25026266D01*
X46234632Y25117989D01*
X46250000Y25195250D01*
X46265368Y25117989D01*
X46303361Y25026266D01*
X46358517Y24943718D01*
X46428718Y24873517D01*
X46511266Y24818361D01*
X46602989Y24780368D01*
X46700360Y24761000D01*
X46799640Y24761000D01*
X46897011Y24780368D01*
X46988734Y24818361D01*
X47071282Y24873517D01*
X47141483Y24943718D01*
X47196639Y25026266D01*
X47234632Y25117989D01*
X47250000Y25195250D01*
X47265368Y25117989D01*
X47303361Y25026266D01*
X47358517Y24943718D01*
X47428718Y24873517D01*
X47511266Y24818361D01*
X47602989Y24780368D01*
X47700360Y24761000D01*
X47799640Y24761000D01*
X47897011Y24780368D01*
X47988734Y24818361D01*
X48071282Y24873517D01*
X48141483Y24943718D01*
X48196639Y25026266D01*
X48234632Y25117989D01*
X48250000Y25195250D01*
X48265368Y25117989D01*
X48303361Y25026266D01*
X48358517Y24943718D01*
X48428718Y24873517D01*
X48511266Y24818361D01*
X48602989Y24780368D01*
X48700360Y24761000D01*
X48799640Y24761000D01*
X48897011Y24780368D01*
X48988734Y24818361D01*
X49071282Y24873517D01*
X49141483Y24943718D01*
X49196639Y25026266D01*
X49234632Y25117989D01*
X49250000Y25195250D01*
X49265368Y25117989D01*
X49303361Y25026266D01*
X49358517Y24943718D01*
X49428718Y24873517D01*
X49511266Y24818361D01*
X49602989Y24780368D01*
X49700360Y24761000D01*
X49799640Y24761000D01*
X49897011Y24780368D01*
X49988734Y24818361D01*
X50071282Y24873517D01*
X50141483Y24943718D01*
X50196639Y25026266D01*
X50234632Y25117989D01*
X50254000Y25215360D01*
X50254000Y25314640D01*
X50234632Y25412011D01*
X50196639Y25503734D01*
X50141483Y25586282D01*
X50071282Y25656483D01*
X49988734Y25711639D01*
X49897011Y25749632D01*
X49819750Y25765000D01*
X49897011Y25780368D01*
X49988734Y25818361D01*
X50071282Y25873517D01*
X50141483Y25943718D01*
X50196639Y26026266D01*
X50234632Y26117989D01*
X50254000Y26215360D01*
X50254000Y26314640D01*
X50243076Y26369564D01*
X68746000Y26369564D01*
X68746000Y26260436D01*
X68767289Y26153404D01*
X68809051Y26052582D01*
X68869680Y25961845D01*
X68946845Y25884680D01*
X69037582Y25824051D01*
X69138404Y25782289D01*
X69245436Y25761000D01*
X69354564Y25761000D01*
X69461596Y25782289D01*
X69562418Y25824051D01*
X69653155Y25884680D01*
X69730320Y25961845D01*
X69790949Y26052582D01*
X69832711Y26153404D01*
X69854000Y26260436D01*
X69854000Y26369564D01*
X69832711Y26476596D01*
X69790949Y26577418D01*
X69730320Y26668155D01*
X69653155Y26745320D01*
X69562418Y26805949D01*
X69461596Y26847711D01*
X69354564Y26869000D01*
X69245436Y26869000D01*
X69138404Y26847711D01*
X69037582Y26805949D01*
X68946845Y26745320D01*
X68869680Y26668155D01*
X68809051Y26577418D01*
X68767289Y26476596D01*
X68746000Y26369564D01*
X50243076Y26369564D01*
X50234632Y26412011D01*
X50196639Y26503734D01*
X50141483Y26586282D01*
X50071282Y26656483D01*
X49988734Y26711639D01*
X49897011Y26749632D01*
X49819750Y26765000D01*
X49897011Y26780368D01*
X49988734Y26818361D01*
X50071282Y26873517D01*
X50141483Y26943718D01*
X50196639Y27026266D01*
X50234632Y27117989D01*
X50254000Y27215360D01*
X50254000Y27314640D01*
X50234632Y27412011D01*
X50196639Y27503734D01*
X50141483Y27586282D01*
X50071282Y27656483D01*
X49988734Y27711639D01*
X49897011Y27749632D01*
X49799640Y27769000D01*
X49700360Y27769000D01*
X49602989Y27749632D01*
X49511266Y27711639D01*
X49428718Y27656483D01*
X49358517Y27586282D01*
X49303361Y27503734D01*
X49265368Y27412011D01*
X49250000Y27334750D01*
X49234632Y27412011D01*
X49196639Y27503734D01*
X49141483Y27586282D01*
X49071282Y27656483D01*
X48988734Y27711639D01*
X48897011Y27749632D01*
X48799640Y27769000D01*
X48700360Y27769000D01*
X48602989Y27749632D01*
X48511266Y27711639D01*
X48428718Y27656483D01*
X48358517Y27586282D01*
X48303361Y27503734D01*
X48265368Y27412011D01*
X48250000Y27334750D01*
X48234632Y27412011D01*
X48196639Y27503734D01*
X48141483Y27586282D01*
X48071282Y27656483D01*
X47988734Y27711639D01*
X47897011Y27749632D01*
X47799640Y27769000D01*
X47700360Y27769000D01*
X47602989Y27749632D01*
X47511266Y27711639D01*
X47428718Y27656483D01*
X47358517Y27586282D01*
X47303361Y27503734D01*
X47265368Y27412011D01*
X47250000Y27334750D01*
X47234632Y27412011D01*
X47196639Y27503734D01*
X47141483Y27586282D01*
X47071282Y27656483D01*
X46988734Y27711639D01*
X46897011Y27749632D01*
X46799640Y27769000D01*
X46700360Y27769000D01*
X46602989Y27749632D01*
X46511266Y27711639D01*
X46428718Y27656483D01*
X46358517Y27586282D01*
X46303361Y27503734D01*
X46265368Y27412011D01*
X46250000Y27334750D01*
X46234632Y27412011D01*
X46196639Y27503734D01*
X46141483Y27586282D01*
X46071282Y27656483D01*
X45988734Y27711639D01*
X45897011Y27749632D01*
X45799640Y27769000D01*
X45700360Y27769000D01*
X45602989Y27749632D01*
X45511266Y27711639D01*
X45428718Y27656483D01*
X45358517Y27586282D01*
X45303361Y27503734D01*
X45265368Y27412011D01*
X45250000Y27334750D01*
X45234632Y27412011D01*
X45196639Y27503734D01*
X45141483Y27586282D01*
X45071282Y27656483D01*
X44988734Y27711639D01*
X44897011Y27749632D01*
X44799640Y27769000D01*
X44700360Y27769000D01*
X44602989Y27749632D01*
X44511266Y27711639D01*
X44428718Y27656483D01*
X44358517Y27586282D01*
X44303361Y27503734D01*
X44265368Y27412011D01*
X44250000Y27334750D01*
X44234632Y27412011D01*
X44196639Y27503734D01*
X44141483Y27586282D01*
X44071282Y27656483D01*
X43988734Y27711639D01*
X43897011Y27749632D01*
X43799640Y27769000D01*
X43700360Y27769000D01*
X43602989Y27749632D01*
X43511266Y27711639D01*
X43428718Y27656483D01*
X43358517Y27586282D01*
X43303361Y27503734D01*
X43265368Y27412011D01*
X43250000Y27334750D01*
X43234632Y27412011D01*
X43196639Y27503734D01*
X43141483Y27586282D01*
X43071282Y27656483D01*
X42988734Y27711639D01*
X42897011Y27749632D01*
X42799640Y27769000D01*
X42700360Y27769000D01*
X42602989Y27749632D01*
X42511266Y27711639D01*
X42428718Y27656483D01*
X42358517Y27586282D01*
X42303361Y27503734D01*
X42265368Y27412011D01*
X42246000Y27314640D01*
X27477000Y27314640D01*
X27477000Y28561000D01*
X148968477Y28561000D01*
X149110930Y28547032D01*
%TD*%
M02*
