%TF.GenerationSoftware,KiCad,Pcbnew,(5.1.6)-1*%
%TF.CreationDate,2022-02-23T11:46:10+01:00*%
%TF.ProjectId,Riser Leopard 2OU PCIe x8 4xOculink,52697365-7220-44c6-956f-706172642032,rev?*%
%TF.SameCoordinates,PX459e440PY54cbc38*%
%TF.FileFunction,Legend,Top*%
%TF.FilePolarity,Positive*%
%FSLAX46Y46*%
G04 Gerber Fmt 4.6, Leading zero omitted, Abs format (unit mm)*
G04 Created by KiCad (PCBNEW (5.1.6)-1) date 2022-02-23 11:46:10*
%MOMM*%
%LPD*%
G01*
G04 APERTURE LIST*
%ADD10C,0.150000*%
%ADD11C,0.120000*%
%ADD12C,0.200000*%
%ADD13C,0.100000*%
G04 APERTURE END LIST*
D10*
X-1938096Y-29062380D02*
X-2414286Y-29062380D01*
X-2414286Y-28062380D01*
X-1223810Y-29014761D02*
X-1319048Y-29062380D01*
X-1509524Y-29062380D01*
X-1604762Y-29014761D01*
X-1652381Y-28919523D01*
X-1652381Y-28538571D01*
X-1604762Y-28443333D01*
X-1509524Y-28395714D01*
X-1319048Y-28395714D01*
X-1223810Y-28443333D01*
X-1176191Y-28538571D01*
X-1176191Y-28633809D01*
X-1652381Y-28729047D01*
X-604762Y-29062380D02*
X-700000Y-29014761D01*
X-747620Y-28967142D01*
X-795239Y-28871904D01*
X-795239Y-28586190D01*
X-747620Y-28490952D01*
X-700000Y-28443333D01*
X-604762Y-28395714D01*
X-461905Y-28395714D01*
X-366667Y-28443333D01*
X-319048Y-28490952D01*
X-271429Y-28586190D01*
X-271429Y-28871904D01*
X-319048Y-28967142D01*
X-366667Y-29014761D01*
X-461905Y-29062380D01*
X-604762Y-29062380D01*
X871428Y-28157619D02*
X919047Y-28110000D01*
X1014285Y-28062380D01*
X1252380Y-28062380D01*
X1347619Y-28110000D01*
X1395238Y-28157619D01*
X1442857Y-28252857D01*
X1442857Y-28348095D01*
X1395238Y-28490952D01*
X823809Y-29062380D01*
X1442857Y-29062380D01*
X1776190Y-29062380D02*
X2300000Y-28395714D01*
X1776190Y-28395714D02*
X2300000Y-29062380D01*
X3633333Y-28062380D02*
X3823809Y-28062380D01*
X3919047Y-28110000D01*
X4014285Y-28205238D01*
X4061904Y-28395714D01*
X4061904Y-28729047D01*
X4014285Y-28919523D01*
X3919047Y-29014761D01*
X3823809Y-29062380D01*
X3633333Y-29062380D01*
X3538095Y-29014761D01*
X3442857Y-28919523D01*
X3395238Y-28729047D01*
X3395238Y-28395714D01*
X3442857Y-28205238D01*
X3538095Y-28110000D01*
X3633333Y-28062380D01*
X4919047Y-29014761D02*
X4823809Y-29062380D01*
X4633333Y-29062380D01*
X4538095Y-29014761D01*
X4490476Y-28967142D01*
X4442857Y-28871904D01*
X4442857Y-28586190D01*
X4490476Y-28490952D01*
X4538095Y-28443333D01*
X4633333Y-28395714D01*
X4823809Y-28395714D01*
X4919047Y-28443333D01*
X5776190Y-28395714D02*
X5776190Y-29062380D01*
X5347619Y-28395714D02*
X5347619Y-28919523D01*
X5395238Y-29014761D01*
X5490476Y-29062380D01*
X5633333Y-29062380D01*
X5728571Y-29014761D01*
X5776190Y-28967142D01*
X7014285Y-29062380D02*
X7014285Y-28062380D01*
X7395238Y-28062380D01*
X7490476Y-28110000D01*
X7538095Y-28157619D01*
X7585714Y-28252857D01*
X7585714Y-28395714D01*
X7538095Y-28490952D01*
X7490476Y-28538571D01*
X7395238Y-28586190D01*
X7014285Y-28586190D01*
X8585714Y-28967142D02*
X8538095Y-29014761D01*
X8395238Y-29062380D01*
X8300000Y-29062380D01*
X8157142Y-29014761D01*
X8061904Y-28919523D01*
X8014285Y-28824285D01*
X7966666Y-28633809D01*
X7966666Y-28490952D01*
X8014285Y-28300476D01*
X8061904Y-28205238D01*
X8157142Y-28110000D01*
X8300000Y-28062380D01*
X8395238Y-28062380D01*
X8538095Y-28110000D01*
X8585714Y-28157619D01*
X9014285Y-29062380D02*
X9014285Y-28062380D01*
X9871428Y-29014761D02*
X9776190Y-29062380D01*
X9585714Y-29062380D01*
X9490476Y-29014761D01*
X9442857Y-28919523D01*
X9442857Y-28538571D01*
X9490476Y-28443333D01*
X9585714Y-28395714D01*
X9776190Y-28395714D01*
X9871428Y-28443333D01*
X9919047Y-28538571D01*
X9919047Y-28633809D01*
X9442857Y-28729047D01*
X11014285Y-29062380D02*
X11538095Y-28395714D01*
X11014285Y-28395714D02*
X11538095Y-29062380D01*
X12061904Y-28490952D02*
X11966666Y-28443333D01*
X11919047Y-28395714D01*
X11871428Y-28300476D01*
X11871428Y-28252857D01*
X11919047Y-28157619D01*
X11966666Y-28110000D01*
X12061904Y-28062380D01*
X12252380Y-28062380D01*
X12347619Y-28110000D01*
X12395238Y-28157619D01*
X12442857Y-28252857D01*
X12442857Y-28300476D01*
X12395238Y-28395714D01*
X12347619Y-28443333D01*
X12252380Y-28490952D01*
X12061904Y-28490952D01*
X11966666Y-28538571D01*
X11919047Y-28586190D01*
X11871428Y-28681428D01*
X11871428Y-28871904D01*
X11919047Y-28967142D01*
X11966666Y-29014761D01*
X12061904Y-29062380D01*
X12252380Y-29062380D01*
X12347619Y-29014761D01*
X12395238Y-28967142D01*
X12442857Y-28871904D01*
X12442857Y-28681428D01*
X12395238Y-28586190D01*
X12347619Y-28538571D01*
X12252380Y-28490952D01*
X13633333Y-29062380D02*
X13633333Y-28395714D01*
X13633333Y-28586190D02*
X13680952Y-28490952D01*
X13728571Y-28443333D01*
X13823809Y-28395714D01*
X13919047Y-28395714D01*
X14633333Y-29014761D02*
X14538095Y-29062380D01*
X14347619Y-29062380D01*
X14252380Y-29014761D01*
X14204761Y-28919523D01*
X14204761Y-28538571D01*
X14252380Y-28443333D01*
X14347619Y-28395714D01*
X14538095Y-28395714D01*
X14633333Y-28443333D01*
X14680952Y-28538571D01*
X14680952Y-28633809D01*
X14204761Y-28729047D01*
X15014285Y-28395714D02*
X15252380Y-29062380D01*
X15490476Y-28395714D01*
X16585714Y-28776666D02*
X17061904Y-28776666D01*
X16490476Y-29062380D02*
X16823809Y-28062380D01*
X17157142Y-29062380D01*
D11*
%TO.C,R34*%
X15000000Y-17565000D02*
X15500000Y-17565000D01*
X15500000Y-16505000D02*
X15000000Y-16505000D01*
D10*
%TO.C,C1*%
X29800000Y-5835000D02*
X34100000Y-5835000D01*
X35100000Y-6835000D02*
X35100000Y-10135000D01*
X29800000Y-11135000D02*
X34100000Y-11135000D01*
X29800000Y-11135000D02*
X29800000Y-5835000D01*
X35100000Y-10135000D02*
X34100000Y-11135000D01*
X34100000Y-5835000D02*
X35100000Y-6835000D01*
D11*
%TO.C,C2*%
X32400000Y-1855000D02*
X32900000Y-1855000D01*
X32900000Y-915000D02*
X32400000Y-915000D01*
%TO.C,C3*%
X32900000Y-2090000D02*
X32400000Y-2090000D01*
X32400000Y-3030000D02*
X32900000Y-3030000D01*
%TO.C,C4*%
X32900000Y-3265000D02*
X32400000Y-3265000D01*
X32400000Y-4205000D02*
X32900000Y-4205000D01*
%TO.C,C5*%
X37300000Y-1215000D02*
X36800000Y-1215000D01*
X36800000Y-2155000D02*
X37300000Y-2155000D01*
%TO.C,C6*%
X36795001Y-3360001D02*
X37295001Y-3360001D01*
X37295001Y-2420001D02*
X36795001Y-2420001D01*
D10*
%TO.C,C7*%
X23125000Y-11135000D02*
X22125000Y-10135000D01*
X22125000Y-6835000D02*
X23125000Y-5835000D01*
X27425000Y-5835000D02*
X27425000Y-11135000D01*
X27425000Y-5835000D02*
X23125000Y-5835000D01*
X22125000Y-10135000D02*
X22125000Y-6835000D01*
X27425000Y-11135000D02*
X23125000Y-11135000D01*
D11*
%TO.C,C8*%
X28800000Y-3135000D02*
X28800000Y-2435000D01*
X30000000Y-2435000D02*
X30000000Y-3135000D01*
%TO.C,C9*%
X28450000Y-2435000D02*
X28450000Y-3135000D01*
X27250000Y-3135000D02*
X27250000Y-2435000D01*
%TO.C,C10*%
X25700000Y-3135000D02*
X25700000Y-2435000D01*
X26900000Y-2435000D02*
X26900000Y-3135000D01*
%TO.C,C11*%
X25345000Y-3035000D02*
X25345000Y-2535000D01*
X24405000Y-2535000D02*
X24405000Y-3035000D01*
%TO.C,C12*%
X84100000Y-38585000D02*
X84100000Y-39085000D01*
X83300000Y-39085000D02*
X83300000Y-38585000D01*
%TO.C,C13*%
X88100000Y-38585000D02*
X88100000Y-39085000D01*
X87300000Y-39085000D02*
X87300000Y-38585000D01*
%TO.C,C14*%
X92100000Y-38585000D02*
X92100000Y-39085000D01*
X91300000Y-39085000D02*
X91300000Y-38585000D01*
%TO.C,C15*%
X95300000Y-39085000D02*
X95300000Y-38585000D01*
X96100000Y-38585000D02*
X96100000Y-39085000D01*
%TO.C,C16*%
X84300000Y-39085000D02*
X84300000Y-38585000D01*
X85100000Y-38585000D02*
X85100000Y-39085000D01*
%TO.C,C17*%
X88300000Y-39085000D02*
X88300000Y-38585000D01*
X89100000Y-38585000D02*
X89100000Y-39085000D01*
%TO.C,C18*%
X92300000Y-39085000D02*
X92300000Y-38585000D01*
X93100000Y-38585000D02*
X93100000Y-39085000D01*
%TO.C,C19*%
X96300000Y-39085000D02*
X96300000Y-38585000D01*
X97100000Y-38585000D02*
X97100000Y-39085000D01*
%TO.C,C20*%
X68100000Y-38585000D02*
X68100000Y-39085000D01*
X67300000Y-39085000D02*
X67300000Y-38585000D01*
%TO.C,C21*%
X72100000Y-38585000D02*
X72100000Y-39085000D01*
X71300000Y-39085000D02*
X71300000Y-38585000D01*
%TO.C,C22*%
X76100000Y-38585000D02*
X76100000Y-39085000D01*
X75300000Y-39085000D02*
X75300000Y-38585000D01*
%TO.C,C23*%
X80100000Y-38585000D02*
X80100000Y-39085000D01*
X79300000Y-39085000D02*
X79300000Y-38585000D01*
%TO.C,C24*%
X68300000Y-39085000D02*
X68300000Y-38585000D01*
X69100000Y-38585000D02*
X69100000Y-39085000D01*
%TO.C,C25*%
X72300000Y-39085000D02*
X72300000Y-38585000D01*
X73100000Y-38585000D02*
X73100000Y-39085000D01*
%TO.C,C26*%
X76300000Y-39085000D02*
X76300000Y-38585000D01*
X77100000Y-38585000D02*
X77100000Y-39085000D01*
%TO.C,C27*%
X80300000Y-39085000D02*
X80300000Y-38585000D01*
X81100000Y-38585000D02*
X81100000Y-39085000D01*
%TO.C,C28*%
X117100000Y-38585000D02*
X117100000Y-39085000D01*
X116300000Y-39085000D02*
X116300000Y-38585000D01*
%TO.C,C29*%
X120300000Y-39085000D02*
X120300000Y-38585000D01*
X121100000Y-38585000D02*
X121100000Y-39085000D01*
%TO.C,C30*%
X124300000Y-39085000D02*
X124300000Y-38585000D01*
X125100000Y-38585000D02*
X125100000Y-39085000D01*
%TO.C,C31*%
X128300000Y-39085000D02*
X128300000Y-38585000D01*
X129100000Y-38585000D02*
X129100000Y-39085000D01*
%TO.C,C32*%
X118100000Y-38585000D02*
X118100000Y-39085000D01*
X117300000Y-39085000D02*
X117300000Y-38585000D01*
%TO.C,C33*%
X122100000Y-38585000D02*
X122100000Y-39085000D01*
X121300000Y-39085000D02*
X121300000Y-38585000D01*
%TO.C,C34*%
X126100000Y-38585000D02*
X126100000Y-39085000D01*
X125300000Y-39085000D02*
X125300000Y-38585000D01*
%TO.C,C35*%
X130100000Y-38585000D02*
X130100000Y-39085000D01*
X129300000Y-39085000D02*
X129300000Y-38585000D01*
%TO.C,C36*%
X100300000Y-39085000D02*
X100300000Y-38585000D01*
X101100000Y-38585000D02*
X101100000Y-39085000D01*
%TO.C,C37*%
X104300000Y-39085000D02*
X104300000Y-38585000D01*
X105100000Y-38585000D02*
X105100000Y-39085000D01*
%TO.C,C38*%
X108300000Y-39085000D02*
X108300000Y-38585000D01*
X109100000Y-38585000D02*
X109100000Y-39085000D01*
%TO.C,C39*%
X113100000Y-38585000D02*
X113100000Y-39085000D01*
X112300000Y-39085000D02*
X112300000Y-38585000D01*
%TO.C,C40*%
X102100000Y-38585000D02*
X102100000Y-39085000D01*
X101300000Y-39085000D02*
X101300000Y-38585000D01*
%TO.C,C41*%
X106100000Y-38585000D02*
X106100000Y-39085000D01*
X105300000Y-39085000D02*
X105300000Y-38585000D01*
%TO.C,C42*%
X110100000Y-38585000D02*
X110100000Y-39085000D01*
X109300000Y-39085000D02*
X109300000Y-38585000D01*
%TO.C,C43*%
X113300000Y-39085000D02*
X113300000Y-38585000D01*
X114100000Y-38585000D02*
X114100000Y-39085000D01*
%TO.C,C44*%
X12900000Y8615000D02*
X12900000Y8115000D01*
X12100000Y8115000D02*
X12100000Y8615000D01*
%TO.C,C45*%
X11500000Y16215000D02*
X11000000Y16215000D01*
X11000000Y17015000D02*
X11500000Y17015000D01*
%TO.C,C46*%
X15100000Y17515000D02*
X15100000Y17015000D01*
X14300000Y17015000D02*
X14300000Y17515000D01*
%TO.C,C47*%
X10830000Y8240000D02*
X10830000Y7740000D01*
X11770000Y7740000D02*
X11770000Y8240000D01*
%TO.C,C48*%
X17300000Y17485000D02*
X16800000Y17485000D01*
X16800000Y16545000D02*
X17300000Y16545000D01*
%TO.C,C49*%
X19545000Y15640000D02*
X19545000Y16140000D01*
X18605000Y16140000D02*
X18605000Y15640000D01*
%TO.C,C50*%
X7980000Y17865000D02*
X7980000Y17365000D01*
X8920000Y17365000D02*
X8920000Y17865000D01*
%TO.C,C51*%
X10000000Y15365000D02*
X9500000Y15365000D01*
X9500000Y16165000D02*
X10000000Y16165000D01*
%TO.C,C52*%
X19625000Y12765000D02*
X20125000Y12765000D01*
X20125000Y11965000D02*
X19625000Y11965000D01*
%TO.C,C53*%
X12900000Y17015000D02*
X12900000Y17515000D01*
X13700000Y17515000D02*
X13700000Y17015000D01*
%TO.C,C54*%
X8650000Y13015000D02*
X9150000Y13015000D01*
X9150000Y12215000D02*
X8650000Y12215000D01*
%TO.C,C55*%
X18325000Y15740000D02*
X18325000Y15240000D01*
X17525000Y15240000D02*
X17525000Y15740000D01*
%TO.C,C56*%
X13750000Y-21365000D02*
X13250000Y-21365000D01*
X13250000Y-22305000D02*
X13750000Y-22305000D01*
D12*
%TO.C,J2*%
X80000000Y21235000D02*
X94800000Y21235000D01*
X94800000Y21235000D02*
X94800000Y16915000D01*
X80000000Y16915000D02*
X94800000Y16915000D01*
X80000000Y21235000D02*
X80000000Y16915000D01*
%TO.C,J3*%
X60000000Y21235000D02*
X60000000Y16915000D01*
X60000000Y16915000D02*
X74800000Y16915000D01*
X74800000Y21235000D02*
X74800000Y16915000D01*
X60000000Y21235000D02*
X74800000Y21235000D01*
%TO.C,J4*%
X120000000Y21235000D02*
X120000000Y16915000D01*
X120000000Y16915000D02*
X134800000Y16915000D01*
X134800000Y21235000D02*
X134800000Y16915000D01*
X120000000Y21235000D02*
X134800000Y21235000D01*
%TO.C,J5*%
X100000000Y21235000D02*
X114800000Y21235000D01*
X114800000Y21235000D02*
X114800000Y16915000D01*
X100000000Y16915000D02*
X114800000Y16915000D01*
X100000000Y21235000D02*
X100000000Y16915000D01*
D11*
%TO.C,R1*%
X67230000Y-42085000D02*
X67230000Y-41585000D01*
X66170000Y-41585000D02*
X66170000Y-42085000D01*
%TO.C,R2*%
X98800000Y-39255000D02*
X98300000Y-39255000D01*
X98300000Y-40315000D02*
X98800000Y-40315000D01*
%TO.C,R3*%
X20930000Y3265000D02*
X20930000Y3765000D01*
X19870000Y3765000D02*
X19870000Y3265000D01*
%TO.C,R4*%
X100230000Y-41835000D02*
X100230000Y-41335000D01*
X99170000Y-41335000D02*
X99170000Y-41835000D01*
%TO.C,R5*%
X65170000Y-39085000D02*
X65170000Y-39585000D01*
X66230000Y-39585000D02*
X66230000Y-39085000D01*
%TO.C,R6*%
X76570000Y25615000D02*
X76570000Y25115000D01*
X77630000Y25115000D02*
X77630000Y25615000D01*
%TO.C,R7*%
X57380000Y15565000D02*
X57380000Y16065000D01*
X56320000Y16065000D02*
X56320000Y15565000D01*
%TO.C,R8*%
X88600000Y25035000D02*
X89100000Y25035000D01*
X89100000Y26095000D02*
X88600000Y26095000D01*
%TO.C,R9*%
X68600000Y25035000D02*
X69100000Y25035000D01*
X69100000Y26095000D02*
X68600000Y26095000D01*
%TO.C,R10*%
X117630000Y25115000D02*
X117630000Y25615000D01*
X116570000Y25615000D02*
X116570000Y25115000D01*
%TO.C,R11*%
X97630000Y25115000D02*
X97630000Y25615000D01*
X96570000Y25615000D02*
X96570000Y25115000D01*
%TO.C,R12*%
X129100000Y26095000D02*
X128600000Y26095000D01*
X128600000Y25035000D02*
X129100000Y25035000D01*
%TO.C,R13*%
X108600000Y25035000D02*
X109100000Y25035000D01*
X109100000Y26095000D02*
X108600000Y26095000D01*
%TO.C,R14*%
X19175000Y9945000D02*
X18675000Y9945000D01*
X18675000Y8885000D02*
X19175000Y8885000D01*
%TO.C,R15*%
X15430000Y6140000D02*
X15430000Y6640000D01*
X14370000Y6640000D02*
X14370000Y6140000D01*
%TO.C,R16*%
X15595000Y6640000D02*
X15595000Y6140000D01*
X16655000Y6140000D02*
X16655000Y6640000D01*
%TO.C,R17*%
X11000000Y17385000D02*
X11500000Y17385000D01*
X11500000Y18445000D02*
X11000000Y18445000D01*
%TO.C,R18*%
X12575000Y6235000D02*
X13075000Y6235000D01*
X13075000Y7295000D02*
X12575000Y7295000D01*
%TO.C,R19*%
X18025000Y6335000D02*
X18525000Y6335000D01*
X18525000Y7395000D02*
X18025000Y7395000D01*
%TO.C,R20*%
X14700000Y19345000D02*
X14200000Y19345000D01*
X14200000Y18285000D02*
X14700000Y18285000D01*
%TO.C,R21*%
X9445000Y8240000D02*
X9445000Y7740000D01*
X10505000Y7740000D02*
X10505000Y8240000D01*
%TO.C,R22*%
X7650000Y15745000D02*
X7150000Y15745000D01*
X7150000Y14685000D02*
X7650000Y14685000D01*
%TO.C,R23*%
X7150000Y13460000D02*
X7650000Y13460000D01*
X7650000Y14520000D02*
X7150000Y14520000D01*
%TO.C,R24*%
X7650000Y11495000D02*
X7150000Y11495000D01*
X7150000Y10435000D02*
X7650000Y10435000D01*
%TO.C,R25*%
X7150000Y9210000D02*
X7650000Y9210000D01*
X7650000Y10270000D02*
X7150000Y10270000D01*
%TO.C,R26*%
X22400000Y12220000D02*
X21900000Y12220000D01*
X21900000Y11160000D02*
X22400000Y11160000D01*
%TO.C,R27*%
X21900000Y9935000D02*
X22400000Y9935000D01*
X22400000Y10995000D02*
X21900000Y10995000D01*
%TO.C,R28*%
X22400000Y15420000D02*
X21900000Y15420000D01*
X21900000Y14360000D02*
X22400000Y14360000D01*
%TO.C,R29*%
X21900000Y13135000D02*
X22400000Y13135000D01*
X22400000Y14195000D02*
X21900000Y14195000D01*
%TO.C,R30*%
X15320000Y-14735000D02*
X15320000Y-15235000D01*
X16380000Y-15235000D02*
X16380000Y-14735000D01*
%TO.C,R31*%
X13970000Y-14735000D02*
X13970000Y-15235000D01*
X15030000Y-15235000D02*
X15030000Y-14735000D01*
%TO.C,R32*%
X12670000Y-14735000D02*
X12670000Y-15235000D01*
X13730000Y-15235000D02*
X13730000Y-14735000D01*
%TO.C,R33*%
X15000000Y-18965000D02*
X15500000Y-18965000D01*
X15500000Y-17905000D02*
X15000000Y-17905000D01*
%TO.C,R35*%
X1900000Y-18415000D02*
X2400000Y-18415000D01*
X2400000Y-17355000D02*
X1900000Y-17355000D01*
%TO.C,R36*%
X3330000Y-20585000D02*
X3330000Y-20085000D01*
X2270000Y-20085000D02*
X2270000Y-20585000D01*
%TO.C,R37*%
X2400000Y-14155000D02*
X1900000Y-14155000D01*
X1900000Y-15215000D02*
X2400000Y-15215000D01*
%TO.C,R38*%
X2400000Y-15905000D02*
X1900000Y-15905000D01*
X1900000Y-16965000D02*
X2400000Y-16965000D01*
%TO.C,R39*%
X6100000Y-21905000D02*
X5600000Y-21905000D01*
X5600000Y-22965000D02*
X6100000Y-22965000D01*
%TO.C,R40*%
X2800000Y-22965000D02*
X3300000Y-22965000D01*
X3300000Y-21905000D02*
X2800000Y-21905000D01*
D13*
%TO.C,TP1*%
X134450000Y-30385000D02*
G75*
G03*
X134450000Y-30385000I-350000J0D01*
G01*
%TO.C,TP2*%
X39050000Y9465000D02*
G75*
G03*
X39050000Y9465000I-350000J0D01*
G01*
%TO.C,TP3*%
X78950000Y15265000D02*
G75*
G03*
X78950000Y15265000I-350000J0D01*
G01*
%TO.C,TP4*%
X58950000Y15015000D02*
G75*
G03*
X58950000Y15015000I-350000J0D01*
G01*
%TO.C,TP5*%
X118950000Y16515000D02*
G75*
G03*
X118950000Y16515000I-350000J0D01*
G01*
%TO.C,TP6*%
X140550000Y22615000D02*
G75*
G03*
X140550000Y22615000I-350000J0D01*
G01*
%TO.C,TP8*%
X98950000Y16515000D02*
G75*
G03*
X98950000Y16515000I-350000J0D01*
G01*
%TO.C,TP9*%
X143100000Y22565000D02*
G75*
G03*
X143100000Y22565000I-350000J0D01*
G01*
%TO.C,TP11*%
X16700000Y18815000D02*
G75*
G03*
X16700000Y18815000I-350000J0D01*
G01*
D11*
%TO.C,U2*%
X12091000Y15532000D02*
X11583000Y15532000D01*
X12091000Y10198000D02*
X11583000Y10198000D01*
X11583000Y10198000D02*
X11583000Y10706000D01*
X16917000Y10706000D02*
X16917000Y10198000D01*
X16917000Y10198000D02*
X16409000Y10198000D01*
X16409000Y15532000D02*
X16917000Y15532000D01*
X16917000Y15532000D02*
X16917000Y15024000D01*
D10*
%TO.C,J6*%
X24240000Y95000D02*
X80240000Y95000D01*
X24240000Y7595000D02*
X24240000Y95000D01*
X24240000Y7595000D02*
X80240000Y7595000D01*
X80240000Y95000D02*
X80240000Y7595000D01*
%TO.C,U3*%
X11925000Y-19460000D02*
X11900000Y-19460000D01*
X3875000Y-19460000D02*
X3900000Y-19460000D01*
X3875000Y-14810000D02*
X3900000Y-14810000D01*
X11975000Y-13735000D02*
X11975000Y-19460000D01*
X3875000Y-14810000D02*
X3875000Y-19460000D01*
%TO.C,R34*%
X18057142Y-17637380D02*
X17723809Y-17161190D01*
X17485714Y-17637380D02*
X17485714Y-16637380D01*
X17866666Y-16637380D01*
X17961904Y-16685000D01*
X18009523Y-16732619D01*
X18057142Y-16827857D01*
X18057142Y-16970714D01*
X18009523Y-17065952D01*
X17961904Y-17113571D01*
X17866666Y-17161190D01*
X17485714Y-17161190D01*
X18390476Y-16637380D02*
X19009523Y-16637380D01*
X18676190Y-17018333D01*
X18819047Y-17018333D01*
X18914285Y-17065952D01*
X18961904Y-17113571D01*
X19009523Y-17208809D01*
X19009523Y-17446904D01*
X18961904Y-17542142D01*
X18914285Y-17589761D01*
X18819047Y-17637380D01*
X18533333Y-17637380D01*
X18438095Y-17589761D01*
X18390476Y-17542142D01*
X19866666Y-16970714D02*
X19866666Y-17637380D01*
X19628571Y-16589761D02*
X19390476Y-17304047D01*
X20009523Y-17304047D01*
%TO.C,J1*%
X17828766Y-42019480D02*
X17828766Y-42733766D01*
X17781147Y-42876623D01*
X17685909Y-42971861D01*
X17543052Y-43019480D01*
X17447814Y-43019480D01*
X18828766Y-43019480D02*
X18257338Y-43019480D01*
X18543052Y-43019480D02*
X18543052Y-42019480D01*
X18447814Y-42162338D01*
X18352576Y-42257576D01*
X18257338Y-42305195D01*
%TO.C,C1*%
X30383333Y-12342142D02*
X30335714Y-12389761D01*
X30192857Y-12437380D01*
X30097619Y-12437380D01*
X29954761Y-12389761D01*
X29859523Y-12294523D01*
X29811904Y-12199285D01*
X29764285Y-12008809D01*
X29764285Y-11865952D01*
X29811904Y-11675476D01*
X29859523Y-11580238D01*
X29954761Y-11485000D01*
X30097619Y-11437380D01*
X30192857Y-11437380D01*
X30335714Y-11485000D01*
X30383333Y-11532619D01*
X31335714Y-12437380D02*
X30764285Y-12437380D01*
X31050000Y-12437380D02*
X31050000Y-11437380D01*
X30954761Y-11580238D01*
X30859523Y-11675476D01*
X30764285Y-11723095D01*
%TO.C,C2*%
X34533333Y-1742142D02*
X34485714Y-1789761D01*
X34342857Y-1837380D01*
X34247619Y-1837380D01*
X34104761Y-1789761D01*
X34009523Y-1694523D01*
X33961904Y-1599285D01*
X33914285Y-1408809D01*
X33914285Y-1265952D01*
X33961904Y-1075476D01*
X34009523Y-980238D01*
X34104761Y-885000D01*
X34247619Y-837380D01*
X34342857Y-837380D01*
X34485714Y-885000D01*
X34533333Y-932619D01*
X34914285Y-932619D02*
X34961904Y-885000D01*
X35057142Y-837380D01*
X35295238Y-837380D01*
X35390476Y-885000D01*
X35438095Y-932619D01*
X35485714Y-1027857D01*
X35485714Y-1123095D01*
X35438095Y-1265952D01*
X34866666Y-1837380D01*
X35485714Y-1837380D01*
%TO.C,C3*%
X34533333Y-2942142D02*
X34485714Y-2989761D01*
X34342857Y-3037380D01*
X34247619Y-3037380D01*
X34104761Y-2989761D01*
X34009523Y-2894523D01*
X33961904Y-2799285D01*
X33914285Y-2608809D01*
X33914285Y-2465952D01*
X33961904Y-2275476D01*
X34009523Y-2180238D01*
X34104761Y-2085000D01*
X34247619Y-2037380D01*
X34342857Y-2037380D01*
X34485714Y-2085000D01*
X34533333Y-2132619D01*
X34866666Y-2037380D02*
X35485714Y-2037380D01*
X35152380Y-2418333D01*
X35295238Y-2418333D01*
X35390476Y-2465952D01*
X35438095Y-2513571D01*
X35485714Y-2608809D01*
X35485714Y-2846904D01*
X35438095Y-2942142D01*
X35390476Y-2989761D01*
X35295238Y-3037380D01*
X35009523Y-3037380D01*
X34914285Y-2989761D01*
X34866666Y-2942142D01*
%TO.C,C4*%
X34533333Y-4192142D02*
X34485714Y-4239761D01*
X34342857Y-4287380D01*
X34247619Y-4287380D01*
X34104761Y-4239761D01*
X34009523Y-4144523D01*
X33961904Y-4049285D01*
X33914285Y-3858809D01*
X33914285Y-3715952D01*
X33961904Y-3525476D01*
X34009523Y-3430238D01*
X34104761Y-3335000D01*
X34247619Y-3287380D01*
X34342857Y-3287380D01*
X34485714Y-3335000D01*
X34533333Y-3382619D01*
X35390476Y-3620714D02*
X35390476Y-4287380D01*
X35152380Y-3239761D02*
X34914285Y-3954047D01*
X35533333Y-3954047D01*
%TO.C,C5*%
X38983333Y-1992142D02*
X38935714Y-2039761D01*
X38792857Y-2087380D01*
X38697619Y-2087380D01*
X38554761Y-2039761D01*
X38459523Y-1944523D01*
X38411904Y-1849285D01*
X38364285Y-1658809D01*
X38364285Y-1515952D01*
X38411904Y-1325476D01*
X38459523Y-1230238D01*
X38554761Y-1135000D01*
X38697619Y-1087380D01*
X38792857Y-1087380D01*
X38935714Y-1135000D01*
X38983333Y-1182619D01*
X39888095Y-1087380D02*
X39411904Y-1087380D01*
X39364285Y-1563571D01*
X39411904Y-1515952D01*
X39507142Y-1468333D01*
X39745238Y-1468333D01*
X39840476Y-1515952D01*
X39888095Y-1563571D01*
X39935714Y-1658809D01*
X39935714Y-1896904D01*
X39888095Y-1992142D01*
X39840476Y-2039761D01*
X39745238Y-2087380D01*
X39507142Y-2087380D01*
X39411904Y-2039761D01*
X39364285Y-1992142D01*
%TO.C,C6*%
X38983333Y-3342142D02*
X38935714Y-3389761D01*
X38792857Y-3437380D01*
X38697619Y-3437380D01*
X38554761Y-3389761D01*
X38459523Y-3294523D01*
X38411904Y-3199285D01*
X38364285Y-3008809D01*
X38364285Y-2865952D01*
X38411904Y-2675476D01*
X38459523Y-2580238D01*
X38554761Y-2485000D01*
X38697619Y-2437380D01*
X38792857Y-2437380D01*
X38935714Y-2485000D01*
X38983333Y-2532619D01*
X39840476Y-2437380D02*
X39650000Y-2437380D01*
X39554761Y-2485000D01*
X39507142Y-2532619D01*
X39411904Y-2675476D01*
X39364285Y-2865952D01*
X39364285Y-3246904D01*
X39411904Y-3342142D01*
X39459523Y-3389761D01*
X39554761Y-3437380D01*
X39745238Y-3437380D01*
X39840476Y-3389761D01*
X39888095Y-3342142D01*
X39935714Y-3246904D01*
X39935714Y-3008809D01*
X39888095Y-2913571D01*
X39840476Y-2865952D01*
X39745238Y-2818333D01*
X39554761Y-2818333D01*
X39459523Y-2865952D01*
X39411904Y-2913571D01*
X39364285Y-3008809D01*
%TO.C,C7*%
X22783333Y-12467142D02*
X22735714Y-12514761D01*
X22592857Y-12562380D01*
X22497619Y-12562380D01*
X22354761Y-12514761D01*
X22259523Y-12419523D01*
X22211904Y-12324285D01*
X22164285Y-12133809D01*
X22164285Y-11990952D01*
X22211904Y-11800476D01*
X22259523Y-11705238D01*
X22354761Y-11610000D01*
X22497619Y-11562380D01*
X22592857Y-11562380D01*
X22735714Y-11610000D01*
X22783333Y-11657619D01*
X23116666Y-11562380D02*
X23783333Y-11562380D01*
X23354761Y-12562380D01*
%TO.C,C8*%
X24007142Y-2976666D02*
X24054761Y-3024285D01*
X24102380Y-3167142D01*
X24102380Y-3262380D01*
X24054761Y-3405238D01*
X23959523Y-3500476D01*
X23864285Y-3548095D01*
X23673809Y-3595714D01*
X23530952Y-3595714D01*
X23340476Y-3548095D01*
X23245238Y-3500476D01*
X23150000Y-3405238D01*
X23102380Y-3262380D01*
X23102380Y-3167142D01*
X23150000Y-3024285D01*
X23197619Y-2976666D01*
X23530952Y-2405238D02*
X23483333Y-2500476D01*
X23435714Y-2548095D01*
X23340476Y-2595714D01*
X23292857Y-2595714D01*
X23197619Y-2548095D01*
X23150000Y-2500476D01*
X23102380Y-2405238D01*
X23102380Y-2214761D01*
X23150000Y-2119523D01*
X23197619Y-2071904D01*
X23292857Y-2024285D01*
X23340476Y-2024285D01*
X23435714Y-2071904D01*
X23483333Y-2119523D01*
X23530952Y-2214761D01*
X23530952Y-2405238D01*
X23578571Y-2500476D01*
X23626190Y-2548095D01*
X23721428Y-2595714D01*
X23911904Y-2595714D01*
X24007142Y-2548095D01*
X24054761Y-2500476D01*
X24102380Y-2405238D01*
X24102380Y-2214761D01*
X24054761Y-2119523D01*
X24007142Y-2071904D01*
X23911904Y-2024285D01*
X23721428Y-2024285D01*
X23626190Y-2071904D01*
X23578571Y-2119523D01*
X23530952Y-2214761D01*
%TO.C,C9*%
X22732142Y-2951666D02*
X22779761Y-2999285D01*
X22827380Y-3142142D01*
X22827380Y-3237380D01*
X22779761Y-3380238D01*
X22684523Y-3475476D01*
X22589285Y-3523095D01*
X22398809Y-3570714D01*
X22255952Y-3570714D01*
X22065476Y-3523095D01*
X21970238Y-3475476D01*
X21875000Y-3380238D01*
X21827380Y-3237380D01*
X21827380Y-3142142D01*
X21875000Y-2999285D01*
X21922619Y-2951666D01*
X22827380Y-2475476D02*
X22827380Y-2285000D01*
X22779761Y-2189761D01*
X22732142Y-2142142D01*
X22589285Y-2046904D01*
X22398809Y-1999285D01*
X22017857Y-1999285D01*
X21922619Y-2046904D01*
X21875000Y-2094523D01*
X21827380Y-2189761D01*
X21827380Y-2380238D01*
X21875000Y-2475476D01*
X21922619Y-2523095D01*
X22017857Y-2570714D01*
X22255952Y-2570714D01*
X22351190Y-2523095D01*
X22398809Y-2475476D01*
X22446428Y-2380238D01*
X22446428Y-2189761D01*
X22398809Y-2094523D01*
X22351190Y-2046904D01*
X22255952Y-1999285D01*
%TO.C,C10*%
X21457142Y-2977857D02*
X21504761Y-3025476D01*
X21552380Y-3168333D01*
X21552380Y-3263571D01*
X21504761Y-3406428D01*
X21409523Y-3501666D01*
X21314285Y-3549285D01*
X21123809Y-3596904D01*
X20980952Y-3596904D01*
X20790476Y-3549285D01*
X20695238Y-3501666D01*
X20600000Y-3406428D01*
X20552380Y-3263571D01*
X20552380Y-3168333D01*
X20600000Y-3025476D01*
X20647619Y-2977857D01*
X21552380Y-2025476D02*
X21552380Y-2596904D01*
X21552380Y-2311190D02*
X20552380Y-2311190D01*
X20695238Y-2406428D01*
X20790476Y-2501666D01*
X20838095Y-2596904D01*
X20552380Y-1406428D02*
X20552380Y-1311190D01*
X20600000Y-1215952D01*
X20647619Y-1168333D01*
X20742857Y-1120714D01*
X20933333Y-1073095D01*
X21171428Y-1073095D01*
X21361904Y-1120714D01*
X21457142Y-1168333D01*
X21504761Y-1215952D01*
X21552380Y-1311190D01*
X21552380Y-1406428D01*
X21504761Y-1501666D01*
X21457142Y-1549285D01*
X21361904Y-1596904D01*
X21171428Y-1644523D01*
X20933333Y-1644523D01*
X20742857Y-1596904D01*
X20647619Y-1549285D01*
X20600000Y-1501666D01*
X20552380Y-1406428D01*
%TO.C,C11*%
X20207142Y-2977857D02*
X20254761Y-3025476D01*
X20302380Y-3168333D01*
X20302380Y-3263571D01*
X20254761Y-3406428D01*
X20159523Y-3501666D01*
X20064285Y-3549285D01*
X19873809Y-3596904D01*
X19730952Y-3596904D01*
X19540476Y-3549285D01*
X19445238Y-3501666D01*
X19350000Y-3406428D01*
X19302380Y-3263571D01*
X19302380Y-3168333D01*
X19350000Y-3025476D01*
X19397619Y-2977857D01*
X20302380Y-2025476D02*
X20302380Y-2596904D01*
X20302380Y-2311190D02*
X19302380Y-2311190D01*
X19445238Y-2406428D01*
X19540476Y-2501666D01*
X19588095Y-2596904D01*
X20302380Y-1073095D02*
X20302380Y-1644523D01*
X20302380Y-1358809D02*
X19302380Y-1358809D01*
X19445238Y-1454047D01*
X19540476Y-1549285D01*
X19588095Y-1644523D01*
%TO.C,C12*%
X83757142Y-41777857D02*
X83804761Y-41825476D01*
X83852380Y-41968333D01*
X83852380Y-42063571D01*
X83804761Y-42206428D01*
X83709523Y-42301666D01*
X83614285Y-42349285D01*
X83423809Y-42396904D01*
X83280952Y-42396904D01*
X83090476Y-42349285D01*
X82995238Y-42301666D01*
X82900000Y-42206428D01*
X82852380Y-42063571D01*
X82852380Y-41968333D01*
X82900000Y-41825476D01*
X82947619Y-41777857D01*
X83852380Y-40825476D02*
X83852380Y-41396904D01*
X83852380Y-41111190D02*
X82852380Y-41111190D01*
X82995238Y-41206428D01*
X83090476Y-41301666D01*
X83138095Y-41396904D01*
X82947619Y-40444523D02*
X82900000Y-40396904D01*
X82852380Y-40301666D01*
X82852380Y-40063571D01*
X82900000Y-39968333D01*
X82947619Y-39920714D01*
X83042857Y-39873095D01*
X83138095Y-39873095D01*
X83280952Y-39920714D01*
X83852380Y-40492142D01*
X83852380Y-39873095D01*
%TO.C,C13*%
X87782142Y-41727857D02*
X87829761Y-41775476D01*
X87877380Y-41918333D01*
X87877380Y-42013571D01*
X87829761Y-42156428D01*
X87734523Y-42251666D01*
X87639285Y-42299285D01*
X87448809Y-42346904D01*
X87305952Y-42346904D01*
X87115476Y-42299285D01*
X87020238Y-42251666D01*
X86925000Y-42156428D01*
X86877380Y-42013571D01*
X86877380Y-41918333D01*
X86925000Y-41775476D01*
X86972619Y-41727857D01*
X87877380Y-40775476D02*
X87877380Y-41346904D01*
X87877380Y-41061190D02*
X86877380Y-41061190D01*
X87020238Y-41156428D01*
X87115476Y-41251666D01*
X87163095Y-41346904D01*
X86877380Y-40442142D02*
X86877380Y-39823095D01*
X87258333Y-40156428D01*
X87258333Y-40013571D01*
X87305952Y-39918333D01*
X87353571Y-39870714D01*
X87448809Y-39823095D01*
X87686904Y-39823095D01*
X87782142Y-39870714D01*
X87829761Y-39918333D01*
X87877380Y-40013571D01*
X87877380Y-40299285D01*
X87829761Y-40394523D01*
X87782142Y-40442142D01*
%TO.C,C14*%
X91732142Y-41727857D02*
X91779761Y-41775476D01*
X91827380Y-41918333D01*
X91827380Y-42013571D01*
X91779761Y-42156428D01*
X91684523Y-42251666D01*
X91589285Y-42299285D01*
X91398809Y-42346904D01*
X91255952Y-42346904D01*
X91065476Y-42299285D01*
X90970238Y-42251666D01*
X90875000Y-42156428D01*
X90827380Y-42013571D01*
X90827380Y-41918333D01*
X90875000Y-41775476D01*
X90922619Y-41727857D01*
X91827380Y-40775476D02*
X91827380Y-41346904D01*
X91827380Y-41061190D02*
X90827380Y-41061190D01*
X90970238Y-41156428D01*
X91065476Y-41251666D01*
X91113095Y-41346904D01*
X91160714Y-39918333D02*
X91827380Y-39918333D01*
X90779761Y-40156428D02*
X91494047Y-40394523D01*
X91494047Y-39775476D01*
%TO.C,C15*%
X95782142Y-34027857D02*
X95829761Y-34075476D01*
X95877380Y-34218333D01*
X95877380Y-34313571D01*
X95829761Y-34456428D01*
X95734523Y-34551666D01*
X95639285Y-34599285D01*
X95448809Y-34646904D01*
X95305952Y-34646904D01*
X95115476Y-34599285D01*
X95020238Y-34551666D01*
X94925000Y-34456428D01*
X94877380Y-34313571D01*
X94877380Y-34218333D01*
X94925000Y-34075476D01*
X94972619Y-34027857D01*
X95877380Y-33075476D02*
X95877380Y-33646904D01*
X95877380Y-33361190D02*
X94877380Y-33361190D01*
X95020238Y-33456428D01*
X95115476Y-33551666D01*
X95163095Y-33646904D01*
X94877380Y-32170714D02*
X94877380Y-32646904D01*
X95353571Y-32694523D01*
X95305952Y-32646904D01*
X95258333Y-32551666D01*
X95258333Y-32313571D01*
X95305952Y-32218333D01*
X95353571Y-32170714D01*
X95448809Y-32123095D01*
X95686904Y-32123095D01*
X95782142Y-32170714D01*
X95829761Y-32218333D01*
X95877380Y-32313571D01*
X95877380Y-32551666D01*
X95829761Y-32646904D01*
X95782142Y-32694523D01*
%TO.C,C16*%
X85432142Y-41752857D02*
X85479761Y-41800476D01*
X85527380Y-41943333D01*
X85527380Y-42038571D01*
X85479761Y-42181428D01*
X85384523Y-42276666D01*
X85289285Y-42324285D01*
X85098809Y-42371904D01*
X84955952Y-42371904D01*
X84765476Y-42324285D01*
X84670238Y-42276666D01*
X84575000Y-42181428D01*
X84527380Y-42038571D01*
X84527380Y-41943333D01*
X84575000Y-41800476D01*
X84622619Y-41752857D01*
X85527380Y-40800476D02*
X85527380Y-41371904D01*
X85527380Y-41086190D02*
X84527380Y-41086190D01*
X84670238Y-41181428D01*
X84765476Y-41276666D01*
X84813095Y-41371904D01*
X84527380Y-39943333D02*
X84527380Y-40133809D01*
X84575000Y-40229047D01*
X84622619Y-40276666D01*
X84765476Y-40371904D01*
X84955952Y-40419523D01*
X85336904Y-40419523D01*
X85432142Y-40371904D01*
X85479761Y-40324285D01*
X85527380Y-40229047D01*
X85527380Y-40038571D01*
X85479761Y-39943333D01*
X85432142Y-39895714D01*
X85336904Y-39848095D01*
X85098809Y-39848095D01*
X85003571Y-39895714D01*
X84955952Y-39943333D01*
X84908333Y-40038571D01*
X84908333Y-40229047D01*
X84955952Y-40324285D01*
X85003571Y-40371904D01*
X85098809Y-40419523D01*
%TO.C,C17*%
X89457142Y-41752857D02*
X89504761Y-41800476D01*
X89552380Y-41943333D01*
X89552380Y-42038571D01*
X89504761Y-42181428D01*
X89409523Y-42276666D01*
X89314285Y-42324285D01*
X89123809Y-42371904D01*
X88980952Y-42371904D01*
X88790476Y-42324285D01*
X88695238Y-42276666D01*
X88600000Y-42181428D01*
X88552380Y-42038571D01*
X88552380Y-41943333D01*
X88600000Y-41800476D01*
X88647619Y-41752857D01*
X89552380Y-40800476D02*
X89552380Y-41371904D01*
X89552380Y-41086190D02*
X88552380Y-41086190D01*
X88695238Y-41181428D01*
X88790476Y-41276666D01*
X88838095Y-41371904D01*
X88552380Y-40467142D02*
X88552380Y-39800476D01*
X89552380Y-40229047D01*
%TO.C,C18*%
X93457142Y-41702857D02*
X93504761Y-41750476D01*
X93552380Y-41893333D01*
X93552380Y-41988571D01*
X93504761Y-42131428D01*
X93409523Y-42226666D01*
X93314285Y-42274285D01*
X93123809Y-42321904D01*
X92980952Y-42321904D01*
X92790476Y-42274285D01*
X92695238Y-42226666D01*
X92600000Y-42131428D01*
X92552380Y-41988571D01*
X92552380Y-41893333D01*
X92600000Y-41750476D01*
X92647619Y-41702857D01*
X93552380Y-40750476D02*
X93552380Y-41321904D01*
X93552380Y-41036190D02*
X92552380Y-41036190D01*
X92695238Y-41131428D01*
X92790476Y-41226666D01*
X92838095Y-41321904D01*
X92980952Y-40179047D02*
X92933333Y-40274285D01*
X92885714Y-40321904D01*
X92790476Y-40369523D01*
X92742857Y-40369523D01*
X92647619Y-40321904D01*
X92600000Y-40274285D01*
X92552380Y-40179047D01*
X92552380Y-39988571D01*
X92600000Y-39893333D01*
X92647619Y-39845714D01*
X92742857Y-39798095D01*
X92790476Y-39798095D01*
X92885714Y-39845714D01*
X92933333Y-39893333D01*
X92980952Y-39988571D01*
X92980952Y-40179047D01*
X93028571Y-40274285D01*
X93076190Y-40321904D01*
X93171428Y-40369523D01*
X93361904Y-40369523D01*
X93457142Y-40321904D01*
X93504761Y-40274285D01*
X93552380Y-40179047D01*
X93552380Y-39988571D01*
X93504761Y-39893333D01*
X93457142Y-39845714D01*
X93361904Y-39798095D01*
X93171428Y-39798095D01*
X93076190Y-39845714D01*
X93028571Y-39893333D01*
X92980952Y-39988571D01*
%TO.C,C19*%
X97457142Y-34052857D02*
X97504761Y-34100476D01*
X97552380Y-34243333D01*
X97552380Y-34338571D01*
X97504761Y-34481428D01*
X97409523Y-34576666D01*
X97314285Y-34624285D01*
X97123809Y-34671904D01*
X96980952Y-34671904D01*
X96790476Y-34624285D01*
X96695238Y-34576666D01*
X96600000Y-34481428D01*
X96552380Y-34338571D01*
X96552380Y-34243333D01*
X96600000Y-34100476D01*
X96647619Y-34052857D01*
X97552380Y-33100476D02*
X97552380Y-33671904D01*
X97552380Y-33386190D02*
X96552380Y-33386190D01*
X96695238Y-33481428D01*
X96790476Y-33576666D01*
X96838095Y-33671904D01*
X97552380Y-32624285D02*
X97552380Y-32433809D01*
X97504761Y-32338571D01*
X97457142Y-32290952D01*
X97314285Y-32195714D01*
X97123809Y-32148095D01*
X96742857Y-32148095D01*
X96647619Y-32195714D01*
X96600000Y-32243333D01*
X96552380Y-32338571D01*
X96552380Y-32529047D01*
X96600000Y-32624285D01*
X96647619Y-32671904D01*
X96742857Y-32719523D01*
X96980952Y-32719523D01*
X97076190Y-32671904D01*
X97123809Y-32624285D01*
X97171428Y-32529047D01*
X97171428Y-32338571D01*
X97123809Y-32243333D01*
X97076190Y-32195714D01*
X96980952Y-32148095D01*
%TO.C,C20*%
X67757142Y-33627857D02*
X67804761Y-33675476D01*
X67852380Y-33818333D01*
X67852380Y-33913571D01*
X67804761Y-34056428D01*
X67709523Y-34151666D01*
X67614285Y-34199285D01*
X67423809Y-34246904D01*
X67280952Y-34246904D01*
X67090476Y-34199285D01*
X66995238Y-34151666D01*
X66900000Y-34056428D01*
X66852380Y-33913571D01*
X66852380Y-33818333D01*
X66900000Y-33675476D01*
X66947619Y-33627857D01*
X66947619Y-33246904D02*
X66900000Y-33199285D01*
X66852380Y-33104047D01*
X66852380Y-32865952D01*
X66900000Y-32770714D01*
X66947619Y-32723095D01*
X67042857Y-32675476D01*
X67138095Y-32675476D01*
X67280952Y-32723095D01*
X67852380Y-33294523D01*
X67852380Y-32675476D01*
X66852380Y-32056428D02*
X66852380Y-31961190D01*
X66900000Y-31865952D01*
X66947619Y-31818333D01*
X67042857Y-31770714D01*
X67233333Y-31723095D01*
X67471428Y-31723095D01*
X67661904Y-31770714D01*
X67757142Y-31818333D01*
X67804761Y-31865952D01*
X67852380Y-31961190D01*
X67852380Y-32056428D01*
X67804761Y-32151666D01*
X67757142Y-32199285D01*
X67661904Y-32246904D01*
X67471428Y-32294523D01*
X67233333Y-32294523D01*
X67042857Y-32246904D01*
X66947619Y-32199285D01*
X66900000Y-32151666D01*
X66852380Y-32056428D01*
%TO.C,C21*%
X71707142Y-41827857D02*
X71754761Y-41875476D01*
X71802380Y-42018333D01*
X71802380Y-42113571D01*
X71754761Y-42256428D01*
X71659523Y-42351666D01*
X71564285Y-42399285D01*
X71373809Y-42446904D01*
X71230952Y-42446904D01*
X71040476Y-42399285D01*
X70945238Y-42351666D01*
X70850000Y-42256428D01*
X70802380Y-42113571D01*
X70802380Y-42018333D01*
X70850000Y-41875476D01*
X70897619Y-41827857D01*
X70897619Y-41446904D02*
X70850000Y-41399285D01*
X70802380Y-41304047D01*
X70802380Y-41065952D01*
X70850000Y-40970714D01*
X70897619Y-40923095D01*
X70992857Y-40875476D01*
X71088095Y-40875476D01*
X71230952Y-40923095D01*
X71802380Y-41494523D01*
X71802380Y-40875476D01*
X71802380Y-39923095D02*
X71802380Y-40494523D01*
X71802380Y-40208809D02*
X70802380Y-40208809D01*
X70945238Y-40304047D01*
X71040476Y-40399285D01*
X71088095Y-40494523D01*
%TO.C,C22*%
X75707142Y-41802857D02*
X75754761Y-41850476D01*
X75802380Y-41993333D01*
X75802380Y-42088571D01*
X75754761Y-42231428D01*
X75659523Y-42326666D01*
X75564285Y-42374285D01*
X75373809Y-42421904D01*
X75230952Y-42421904D01*
X75040476Y-42374285D01*
X74945238Y-42326666D01*
X74850000Y-42231428D01*
X74802380Y-42088571D01*
X74802380Y-41993333D01*
X74850000Y-41850476D01*
X74897619Y-41802857D01*
X74897619Y-41421904D02*
X74850000Y-41374285D01*
X74802380Y-41279047D01*
X74802380Y-41040952D01*
X74850000Y-40945714D01*
X74897619Y-40898095D01*
X74992857Y-40850476D01*
X75088095Y-40850476D01*
X75230952Y-40898095D01*
X75802380Y-41469523D01*
X75802380Y-40850476D01*
X74897619Y-40469523D02*
X74850000Y-40421904D01*
X74802380Y-40326666D01*
X74802380Y-40088571D01*
X74850000Y-39993333D01*
X74897619Y-39945714D01*
X74992857Y-39898095D01*
X75088095Y-39898095D01*
X75230952Y-39945714D01*
X75802380Y-40517142D01*
X75802380Y-39898095D01*
%TO.C,C23*%
X79732142Y-41677857D02*
X79779761Y-41725476D01*
X79827380Y-41868333D01*
X79827380Y-41963571D01*
X79779761Y-42106428D01*
X79684523Y-42201666D01*
X79589285Y-42249285D01*
X79398809Y-42296904D01*
X79255952Y-42296904D01*
X79065476Y-42249285D01*
X78970238Y-42201666D01*
X78875000Y-42106428D01*
X78827380Y-41963571D01*
X78827380Y-41868333D01*
X78875000Y-41725476D01*
X78922619Y-41677857D01*
X78922619Y-41296904D02*
X78875000Y-41249285D01*
X78827380Y-41154047D01*
X78827380Y-40915952D01*
X78875000Y-40820714D01*
X78922619Y-40773095D01*
X79017857Y-40725476D01*
X79113095Y-40725476D01*
X79255952Y-40773095D01*
X79827380Y-41344523D01*
X79827380Y-40725476D01*
X78827380Y-40392142D02*
X78827380Y-39773095D01*
X79208333Y-40106428D01*
X79208333Y-39963571D01*
X79255952Y-39868333D01*
X79303571Y-39820714D01*
X79398809Y-39773095D01*
X79636904Y-39773095D01*
X79732142Y-39820714D01*
X79779761Y-39868333D01*
X79827380Y-39963571D01*
X79827380Y-40249285D01*
X79779761Y-40344523D01*
X79732142Y-40392142D01*
%TO.C,C24*%
X69457142Y-33702857D02*
X69504761Y-33750476D01*
X69552380Y-33893333D01*
X69552380Y-33988571D01*
X69504761Y-34131428D01*
X69409523Y-34226666D01*
X69314285Y-34274285D01*
X69123809Y-34321904D01*
X68980952Y-34321904D01*
X68790476Y-34274285D01*
X68695238Y-34226666D01*
X68600000Y-34131428D01*
X68552380Y-33988571D01*
X68552380Y-33893333D01*
X68600000Y-33750476D01*
X68647619Y-33702857D01*
X68647619Y-33321904D02*
X68600000Y-33274285D01*
X68552380Y-33179047D01*
X68552380Y-32940952D01*
X68600000Y-32845714D01*
X68647619Y-32798095D01*
X68742857Y-32750476D01*
X68838095Y-32750476D01*
X68980952Y-32798095D01*
X69552380Y-33369523D01*
X69552380Y-32750476D01*
X68885714Y-31893333D02*
X69552380Y-31893333D01*
X68504761Y-32131428D02*
X69219047Y-32369523D01*
X69219047Y-31750476D01*
%TO.C,C25*%
X73482142Y-41852857D02*
X73529761Y-41900476D01*
X73577380Y-42043333D01*
X73577380Y-42138571D01*
X73529761Y-42281428D01*
X73434523Y-42376666D01*
X73339285Y-42424285D01*
X73148809Y-42471904D01*
X73005952Y-42471904D01*
X72815476Y-42424285D01*
X72720238Y-42376666D01*
X72625000Y-42281428D01*
X72577380Y-42138571D01*
X72577380Y-42043333D01*
X72625000Y-41900476D01*
X72672619Y-41852857D01*
X72672619Y-41471904D02*
X72625000Y-41424285D01*
X72577380Y-41329047D01*
X72577380Y-41090952D01*
X72625000Y-40995714D01*
X72672619Y-40948095D01*
X72767857Y-40900476D01*
X72863095Y-40900476D01*
X73005952Y-40948095D01*
X73577380Y-41519523D01*
X73577380Y-40900476D01*
X72577380Y-39995714D02*
X72577380Y-40471904D01*
X73053571Y-40519523D01*
X73005952Y-40471904D01*
X72958333Y-40376666D01*
X72958333Y-40138571D01*
X73005952Y-40043333D01*
X73053571Y-39995714D01*
X73148809Y-39948095D01*
X73386904Y-39948095D01*
X73482142Y-39995714D01*
X73529761Y-40043333D01*
X73577380Y-40138571D01*
X73577380Y-40376666D01*
X73529761Y-40471904D01*
X73482142Y-40519523D01*
%TO.C,C26*%
X77457142Y-41877857D02*
X77504761Y-41925476D01*
X77552380Y-42068333D01*
X77552380Y-42163571D01*
X77504761Y-42306428D01*
X77409523Y-42401666D01*
X77314285Y-42449285D01*
X77123809Y-42496904D01*
X76980952Y-42496904D01*
X76790476Y-42449285D01*
X76695238Y-42401666D01*
X76600000Y-42306428D01*
X76552380Y-42163571D01*
X76552380Y-42068333D01*
X76600000Y-41925476D01*
X76647619Y-41877857D01*
X76647619Y-41496904D02*
X76600000Y-41449285D01*
X76552380Y-41354047D01*
X76552380Y-41115952D01*
X76600000Y-41020714D01*
X76647619Y-40973095D01*
X76742857Y-40925476D01*
X76838095Y-40925476D01*
X76980952Y-40973095D01*
X77552380Y-41544523D01*
X77552380Y-40925476D01*
X76552380Y-40068333D02*
X76552380Y-40258809D01*
X76600000Y-40354047D01*
X76647619Y-40401666D01*
X76790476Y-40496904D01*
X76980952Y-40544523D01*
X77361904Y-40544523D01*
X77457142Y-40496904D01*
X77504761Y-40449285D01*
X77552380Y-40354047D01*
X77552380Y-40163571D01*
X77504761Y-40068333D01*
X77457142Y-40020714D01*
X77361904Y-39973095D01*
X77123809Y-39973095D01*
X77028571Y-40020714D01*
X76980952Y-40068333D01*
X76933333Y-40163571D01*
X76933333Y-40354047D01*
X76980952Y-40449285D01*
X77028571Y-40496904D01*
X77123809Y-40544523D01*
%TO.C,C27*%
X81457142Y-41727857D02*
X81504761Y-41775476D01*
X81552380Y-41918333D01*
X81552380Y-42013571D01*
X81504761Y-42156428D01*
X81409523Y-42251666D01*
X81314285Y-42299285D01*
X81123809Y-42346904D01*
X80980952Y-42346904D01*
X80790476Y-42299285D01*
X80695238Y-42251666D01*
X80600000Y-42156428D01*
X80552380Y-42013571D01*
X80552380Y-41918333D01*
X80600000Y-41775476D01*
X80647619Y-41727857D01*
X80647619Y-41346904D02*
X80600000Y-41299285D01*
X80552380Y-41204047D01*
X80552380Y-40965952D01*
X80600000Y-40870714D01*
X80647619Y-40823095D01*
X80742857Y-40775476D01*
X80838095Y-40775476D01*
X80980952Y-40823095D01*
X81552380Y-41394523D01*
X81552380Y-40775476D01*
X80552380Y-40442142D02*
X80552380Y-39775476D01*
X81552380Y-40204047D01*
%TO.C,C28*%
X116707142Y-41752857D02*
X116754761Y-41800476D01*
X116802380Y-41943333D01*
X116802380Y-42038571D01*
X116754761Y-42181428D01*
X116659523Y-42276666D01*
X116564285Y-42324285D01*
X116373809Y-42371904D01*
X116230952Y-42371904D01*
X116040476Y-42324285D01*
X115945238Y-42276666D01*
X115850000Y-42181428D01*
X115802380Y-42038571D01*
X115802380Y-41943333D01*
X115850000Y-41800476D01*
X115897619Y-41752857D01*
X115897619Y-41371904D02*
X115850000Y-41324285D01*
X115802380Y-41229047D01*
X115802380Y-40990952D01*
X115850000Y-40895714D01*
X115897619Y-40848095D01*
X115992857Y-40800476D01*
X116088095Y-40800476D01*
X116230952Y-40848095D01*
X116802380Y-41419523D01*
X116802380Y-40800476D01*
X116230952Y-40229047D02*
X116183333Y-40324285D01*
X116135714Y-40371904D01*
X116040476Y-40419523D01*
X115992857Y-40419523D01*
X115897619Y-40371904D01*
X115850000Y-40324285D01*
X115802380Y-40229047D01*
X115802380Y-40038571D01*
X115850000Y-39943333D01*
X115897619Y-39895714D01*
X115992857Y-39848095D01*
X116040476Y-39848095D01*
X116135714Y-39895714D01*
X116183333Y-39943333D01*
X116230952Y-40038571D01*
X116230952Y-40229047D01*
X116278571Y-40324285D01*
X116326190Y-40371904D01*
X116421428Y-40419523D01*
X116611904Y-40419523D01*
X116707142Y-40371904D01*
X116754761Y-40324285D01*
X116802380Y-40229047D01*
X116802380Y-40038571D01*
X116754761Y-39943333D01*
X116707142Y-39895714D01*
X116611904Y-39848095D01*
X116421428Y-39848095D01*
X116326190Y-39895714D01*
X116278571Y-39943333D01*
X116230952Y-40038571D01*
%TO.C,C29*%
X120707142Y-41777857D02*
X120754761Y-41825476D01*
X120802380Y-41968333D01*
X120802380Y-42063571D01*
X120754761Y-42206428D01*
X120659523Y-42301666D01*
X120564285Y-42349285D01*
X120373809Y-42396904D01*
X120230952Y-42396904D01*
X120040476Y-42349285D01*
X119945238Y-42301666D01*
X119850000Y-42206428D01*
X119802380Y-42063571D01*
X119802380Y-41968333D01*
X119850000Y-41825476D01*
X119897619Y-41777857D01*
X119897619Y-41396904D02*
X119850000Y-41349285D01*
X119802380Y-41254047D01*
X119802380Y-41015952D01*
X119850000Y-40920714D01*
X119897619Y-40873095D01*
X119992857Y-40825476D01*
X120088095Y-40825476D01*
X120230952Y-40873095D01*
X120802380Y-41444523D01*
X120802380Y-40825476D01*
X120802380Y-40349285D02*
X120802380Y-40158809D01*
X120754761Y-40063571D01*
X120707142Y-40015952D01*
X120564285Y-39920714D01*
X120373809Y-39873095D01*
X119992857Y-39873095D01*
X119897619Y-39920714D01*
X119850000Y-39968333D01*
X119802380Y-40063571D01*
X119802380Y-40254047D01*
X119850000Y-40349285D01*
X119897619Y-40396904D01*
X119992857Y-40444523D01*
X120230952Y-40444523D01*
X120326190Y-40396904D01*
X120373809Y-40349285D01*
X120421428Y-40254047D01*
X120421428Y-40063571D01*
X120373809Y-39968333D01*
X120326190Y-39920714D01*
X120230952Y-39873095D01*
%TO.C,C30*%
X124757142Y-41777857D02*
X124804761Y-41825476D01*
X124852380Y-41968333D01*
X124852380Y-42063571D01*
X124804761Y-42206428D01*
X124709523Y-42301666D01*
X124614285Y-42349285D01*
X124423809Y-42396904D01*
X124280952Y-42396904D01*
X124090476Y-42349285D01*
X123995238Y-42301666D01*
X123900000Y-42206428D01*
X123852380Y-42063571D01*
X123852380Y-41968333D01*
X123900000Y-41825476D01*
X123947619Y-41777857D01*
X123852380Y-41444523D02*
X123852380Y-40825476D01*
X124233333Y-41158809D01*
X124233333Y-41015952D01*
X124280952Y-40920714D01*
X124328571Y-40873095D01*
X124423809Y-40825476D01*
X124661904Y-40825476D01*
X124757142Y-40873095D01*
X124804761Y-40920714D01*
X124852380Y-41015952D01*
X124852380Y-41301666D01*
X124804761Y-41396904D01*
X124757142Y-41444523D01*
X123852380Y-40206428D02*
X123852380Y-40111190D01*
X123900000Y-40015952D01*
X123947619Y-39968333D01*
X124042857Y-39920714D01*
X124233333Y-39873095D01*
X124471428Y-39873095D01*
X124661904Y-39920714D01*
X124757142Y-39968333D01*
X124804761Y-40015952D01*
X124852380Y-40111190D01*
X124852380Y-40206428D01*
X124804761Y-40301666D01*
X124757142Y-40349285D01*
X124661904Y-40396904D01*
X124471428Y-40444523D01*
X124233333Y-40444523D01*
X124042857Y-40396904D01*
X123947619Y-40349285D01*
X123900000Y-40301666D01*
X123852380Y-40206428D01*
%TO.C,C31*%
X128707142Y-41752857D02*
X128754761Y-41800476D01*
X128802380Y-41943333D01*
X128802380Y-42038571D01*
X128754761Y-42181428D01*
X128659523Y-42276666D01*
X128564285Y-42324285D01*
X128373809Y-42371904D01*
X128230952Y-42371904D01*
X128040476Y-42324285D01*
X127945238Y-42276666D01*
X127850000Y-42181428D01*
X127802380Y-42038571D01*
X127802380Y-41943333D01*
X127850000Y-41800476D01*
X127897619Y-41752857D01*
X127802380Y-41419523D02*
X127802380Y-40800476D01*
X128183333Y-41133809D01*
X128183333Y-40990952D01*
X128230952Y-40895714D01*
X128278571Y-40848095D01*
X128373809Y-40800476D01*
X128611904Y-40800476D01*
X128707142Y-40848095D01*
X128754761Y-40895714D01*
X128802380Y-40990952D01*
X128802380Y-41276666D01*
X128754761Y-41371904D01*
X128707142Y-41419523D01*
X128802380Y-39848095D02*
X128802380Y-40419523D01*
X128802380Y-40133809D02*
X127802380Y-40133809D01*
X127945238Y-40229047D01*
X128040476Y-40324285D01*
X128088095Y-40419523D01*
%TO.C,C32*%
X118457142Y-41727857D02*
X118504761Y-41775476D01*
X118552380Y-41918333D01*
X118552380Y-42013571D01*
X118504761Y-42156428D01*
X118409523Y-42251666D01*
X118314285Y-42299285D01*
X118123809Y-42346904D01*
X117980952Y-42346904D01*
X117790476Y-42299285D01*
X117695238Y-42251666D01*
X117600000Y-42156428D01*
X117552380Y-42013571D01*
X117552380Y-41918333D01*
X117600000Y-41775476D01*
X117647619Y-41727857D01*
X117552380Y-41394523D02*
X117552380Y-40775476D01*
X117933333Y-41108809D01*
X117933333Y-40965952D01*
X117980952Y-40870714D01*
X118028571Y-40823095D01*
X118123809Y-40775476D01*
X118361904Y-40775476D01*
X118457142Y-40823095D01*
X118504761Y-40870714D01*
X118552380Y-40965952D01*
X118552380Y-41251666D01*
X118504761Y-41346904D01*
X118457142Y-41394523D01*
X117647619Y-40394523D02*
X117600000Y-40346904D01*
X117552380Y-40251666D01*
X117552380Y-40013571D01*
X117600000Y-39918333D01*
X117647619Y-39870714D01*
X117742857Y-39823095D01*
X117838095Y-39823095D01*
X117980952Y-39870714D01*
X118552380Y-40442142D01*
X118552380Y-39823095D01*
%TO.C,C33*%
X122457142Y-41827857D02*
X122504761Y-41875476D01*
X122552380Y-42018333D01*
X122552380Y-42113571D01*
X122504761Y-42256428D01*
X122409523Y-42351666D01*
X122314285Y-42399285D01*
X122123809Y-42446904D01*
X121980952Y-42446904D01*
X121790476Y-42399285D01*
X121695238Y-42351666D01*
X121600000Y-42256428D01*
X121552380Y-42113571D01*
X121552380Y-42018333D01*
X121600000Y-41875476D01*
X121647619Y-41827857D01*
X121552380Y-41494523D02*
X121552380Y-40875476D01*
X121933333Y-41208809D01*
X121933333Y-41065952D01*
X121980952Y-40970714D01*
X122028571Y-40923095D01*
X122123809Y-40875476D01*
X122361904Y-40875476D01*
X122457142Y-40923095D01*
X122504761Y-40970714D01*
X122552380Y-41065952D01*
X122552380Y-41351666D01*
X122504761Y-41446904D01*
X122457142Y-41494523D01*
X121552380Y-40542142D02*
X121552380Y-39923095D01*
X121933333Y-40256428D01*
X121933333Y-40113571D01*
X121980952Y-40018333D01*
X122028571Y-39970714D01*
X122123809Y-39923095D01*
X122361904Y-39923095D01*
X122457142Y-39970714D01*
X122504761Y-40018333D01*
X122552380Y-40113571D01*
X122552380Y-40399285D01*
X122504761Y-40494523D01*
X122457142Y-40542142D01*
%TO.C,C34*%
X126482142Y-41777857D02*
X126529761Y-41825476D01*
X126577380Y-41968333D01*
X126577380Y-42063571D01*
X126529761Y-42206428D01*
X126434523Y-42301666D01*
X126339285Y-42349285D01*
X126148809Y-42396904D01*
X126005952Y-42396904D01*
X125815476Y-42349285D01*
X125720238Y-42301666D01*
X125625000Y-42206428D01*
X125577380Y-42063571D01*
X125577380Y-41968333D01*
X125625000Y-41825476D01*
X125672619Y-41777857D01*
X125577380Y-41444523D02*
X125577380Y-40825476D01*
X125958333Y-41158809D01*
X125958333Y-41015952D01*
X126005952Y-40920714D01*
X126053571Y-40873095D01*
X126148809Y-40825476D01*
X126386904Y-40825476D01*
X126482142Y-40873095D01*
X126529761Y-40920714D01*
X126577380Y-41015952D01*
X126577380Y-41301666D01*
X126529761Y-41396904D01*
X126482142Y-41444523D01*
X125910714Y-39968333D02*
X126577380Y-39968333D01*
X125529761Y-40206428D02*
X126244047Y-40444523D01*
X126244047Y-39825476D01*
%TO.C,C35*%
X130457142Y-41752857D02*
X130504761Y-41800476D01*
X130552380Y-41943333D01*
X130552380Y-42038571D01*
X130504761Y-42181428D01*
X130409523Y-42276666D01*
X130314285Y-42324285D01*
X130123809Y-42371904D01*
X129980952Y-42371904D01*
X129790476Y-42324285D01*
X129695238Y-42276666D01*
X129600000Y-42181428D01*
X129552380Y-42038571D01*
X129552380Y-41943333D01*
X129600000Y-41800476D01*
X129647619Y-41752857D01*
X129552380Y-41419523D02*
X129552380Y-40800476D01*
X129933333Y-41133809D01*
X129933333Y-40990952D01*
X129980952Y-40895714D01*
X130028571Y-40848095D01*
X130123809Y-40800476D01*
X130361904Y-40800476D01*
X130457142Y-40848095D01*
X130504761Y-40895714D01*
X130552380Y-40990952D01*
X130552380Y-41276666D01*
X130504761Y-41371904D01*
X130457142Y-41419523D01*
X129552380Y-39895714D02*
X129552380Y-40371904D01*
X130028571Y-40419523D01*
X129980952Y-40371904D01*
X129933333Y-40276666D01*
X129933333Y-40038571D01*
X129980952Y-39943333D01*
X130028571Y-39895714D01*
X130123809Y-39848095D01*
X130361904Y-39848095D01*
X130457142Y-39895714D01*
X130504761Y-39943333D01*
X130552380Y-40038571D01*
X130552380Y-40276666D01*
X130504761Y-40371904D01*
X130457142Y-40419523D01*
%TO.C,C36*%
X100732142Y-33977857D02*
X100779761Y-34025476D01*
X100827380Y-34168333D01*
X100827380Y-34263571D01*
X100779761Y-34406428D01*
X100684523Y-34501666D01*
X100589285Y-34549285D01*
X100398809Y-34596904D01*
X100255952Y-34596904D01*
X100065476Y-34549285D01*
X99970238Y-34501666D01*
X99875000Y-34406428D01*
X99827380Y-34263571D01*
X99827380Y-34168333D01*
X99875000Y-34025476D01*
X99922619Y-33977857D01*
X99827380Y-33644523D02*
X99827380Y-33025476D01*
X100208333Y-33358809D01*
X100208333Y-33215952D01*
X100255952Y-33120714D01*
X100303571Y-33073095D01*
X100398809Y-33025476D01*
X100636904Y-33025476D01*
X100732142Y-33073095D01*
X100779761Y-33120714D01*
X100827380Y-33215952D01*
X100827380Y-33501666D01*
X100779761Y-33596904D01*
X100732142Y-33644523D01*
X99827380Y-32168333D02*
X99827380Y-32358809D01*
X99875000Y-32454047D01*
X99922619Y-32501666D01*
X100065476Y-32596904D01*
X100255952Y-32644523D01*
X100636904Y-32644523D01*
X100732142Y-32596904D01*
X100779761Y-32549285D01*
X100827380Y-32454047D01*
X100827380Y-32263571D01*
X100779761Y-32168333D01*
X100732142Y-32120714D01*
X100636904Y-32073095D01*
X100398809Y-32073095D01*
X100303571Y-32120714D01*
X100255952Y-32168333D01*
X100208333Y-32263571D01*
X100208333Y-32454047D01*
X100255952Y-32549285D01*
X100303571Y-32596904D01*
X100398809Y-32644523D01*
%TO.C,C37*%
X104782142Y-41552857D02*
X104829761Y-41600476D01*
X104877380Y-41743333D01*
X104877380Y-41838571D01*
X104829761Y-41981428D01*
X104734523Y-42076666D01*
X104639285Y-42124285D01*
X104448809Y-42171904D01*
X104305952Y-42171904D01*
X104115476Y-42124285D01*
X104020238Y-42076666D01*
X103925000Y-41981428D01*
X103877380Y-41838571D01*
X103877380Y-41743333D01*
X103925000Y-41600476D01*
X103972619Y-41552857D01*
X103877380Y-41219523D02*
X103877380Y-40600476D01*
X104258333Y-40933809D01*
X104258333Y-40790952D01*
X104305952Y-40695714D01*
X104353571Y-40648095D01*
X104448809Y-40600476D01*
X104686904Y-40600476D01*
X104782142Y-40648095D01*
X104829761Y-40695714D01*
X104877380Y-40790952D01*
X104877380Y-41076666D01*
X104829761Y-41171904D01*
X104782142Y-41219523D01*
X103877380Y-40267142D02*
X103877380Y-39600476D01*
X104877380Y-40029047D01*
%TO.C,C38*%
X108757142Y-41702857D02*
X108804761Y-41750476D01*
X108852380Y-41893333D01*
X108852380Y-41988571D01*
X108804761Y-42131428D01*
X108709523Y-42226666D01*
X108614285Y-42274285D01*
X108423809Y-42321904D01*
X108280952Y-42321904D01*
X108090476Y-42274285D01*
X107995238Y-42226666D01*
X107900000Y-42131428D01*
X107852380Y-41988571D01*
X107852380Y-41893333D01*
X107900000Y-41750476D01*
X107947619Y-41702857D01*
X107852380Y-41369523D02*
X107852380Y-40750476D01*
X108233333Y-41083809D01*
X108233333Y-40940952D01*
X108280952Y-40845714D01*
X108328571Y-40798095D01*
X108423809Y-40750476D01*
X108661904Y-40750476D01*
X108757142Y-40798095D01*
X108804761Y-40845714D01*
X108852380Y-40940952D01*
X108852380Y-41226666D01*
X108804761Y-41321904D01*
X108757142Y-41369523D01*
X108280952Y-40179047D02*
X108233333Y-40274285D01*
X108185714Y-40321904D01*
X108090476Y-40369523D01*
X108042857Y-40369523D01*
X107947619Y-40321904D01*
X107900000Y-40274285D01*
X107852380Y-40179047D01*
X107852380Y-39988571D01*
X107900000Y-39893333D01*
X107947619Y-39845714D01*
X108042857Y-39798095D01*
X108090476Y-39798095D01*
X108185714Y-39845714D01*
X108233333Y-39893333D01*
X108280952Y-39988571D01*
X108280952Y-40179047D01*
X108328571Y-40274285D01*
X108376190Y-40321904D01*
X108471428Y-40369523D01*
X108661904Y-40369523D01*
X108757142Y-40321904D01*
X108804761Y-40274285D01*
X108852380Y-40179047D01*
X108852380Y-39988571D01*
X108804761Y-39893333D01*
X108757142Y-39845714D01*
X108661904Y-39798095D01*
X108471428Y-39798095D01*
X108376190Y-39845714D01*
X108328571Y-39893333D01*
X108280952Y-39988571D01*
%TO.C,C39*%
X112732142Y-41677857D02*
X112779761Y-41725476D01*
X112827380Y-41868333D01*
X112827380Y-41963571D01*
X112779761Y-42106428D01*
X112684523Y-42201666D01*
X112589285Y-42249285D01*
X112398809Y-42296904D01*
X112255952Y-42296904D01*
X112065476Y-42249285D01*
X111970238Y-42201666D01*
X111875000Y-42106428D01*
X111827380Y-41963571D01*
X111827380Y-41868333D01*
X111875000Y-41725476D01*
X111922619Y-41677857D01*
X111827380Y-41344523D02*
X111827380Y-40725476D01*
X112208333Y-41058809D01*
X112208333Y-40915952D01*
X112255952Y-40820714D01*
X112303571Y-40773095D01*
X112398809Y-40725476D01*
X112636904Y-40725476D01*
X112732142Y-40773095D01*
X112779761Y-40820714D01*
X112827380Y-40915952D01*
X112827380Y-41201666D01*
X112779761Y-41296904D01*
X112732142Y-41344523D01*
X112827380Y-40249285D02*
X112827380Y-40058809D01*
X112779761Y-39963571D01*
X112732142Y-39915952D01*
X112589285Y-39820714D01*
X112398809Y-39773095D01*
X112017857Y-39773095D01*
X111922619Y-39820714D01*
X111875000Y-39868333D01*
X111827380Y-39963571D01*
X111827380Y-40154047D01*
X111875000Y-40249285D01*
X111922619Y-40296904D01*
X112017857Y-40344523D01*
X112255952Y-40344523D01*
X112351190Y-40296904D01*
X112398809Y-40249285D01*
X112446428Y-40154047D01*
X112446428Y-39963571D01*
X112398809Y-39868333D01*
X112351190Y-39820714D01*
X112255952Y-39773095D01*
%TO.C,C40*%
X102407142Y-34002857D02*
X102454761Y-34050476D01*
X102502380Y-34193333D01*
X102502380Y-34288571D01*
X102454761Y-34431428D01*
X102359523Y-34526666D01*
X102264285Y-34574285D01*
X102073809Y-34621904D01*
X101930952Y-34621904D01*
X101740476Y-34574285D01*
X101645238Y-34526666D01*
X101550000Y-34431428D01*
X101502380Y-34288571D01*
X101502380Y-34193333D01*
X101550000Y-34050476D01*
X101597619Y-34002857D01*
X101835714Y-33145714D02*
X102502380Y-33145714D01*
X101454761Y-33383809D02*
X102169047Y-33621904D01*
X102169047Y-33002857D01*
X101502380Y-32431428D02*
X101502380Y-32336190D01*
X101550000Y-32240952D01*
X101597619Y-32193333D01*
X101692857Y-32145714D01*
X101883333Y-32098095D01*
X102121428Y-32098095D01*
X102311904Y-32145714D01*
X102407142Y-32193333D01*
X102454761Y-32240952D01*
X102502380Y-32336190D01*
X102502380Y-32431428D01*
X102454761Y-32526666D01*
X102407142Y-32574285D01*
X102311904Y-32621904D01*
X102121428Y-32669523D01*
X101883333Y-32669523D01*
X101692857Y-32621904D01*
X101597619Y-32574285D01*
X101550000Y-32526666D01*
X101502380Y-32431428D01*
%TO.C,C41*%
X106432142Y-41527857D02*
X106479761Y-41575476D01*
X106527380Y-41718333D01*
X106527380Y-41813571D01*
X106479761Y-41956428D01*
X106384523Y-42051666D01*
X106289285Y-42099285D01*
X106098809Y-42146904D01*
X105955952Y-42146904D01*
X105765476Y-42099285D01*
X105670238Y-42051666D01*
X105575000Y-41956428D01*
X105527380Y-41813571D01*
X105527380Y-41718333D01*
X105575000Y-41575476D01*
X105622619Y-41527857D01*
X105860714Y-40670714D02*
X106527380Y-40670714D01*
X105479761Y-40908809D02*
X106194047Y-41146904D01*
X106194047Y-40527857D01*
X106527380Y-39623095D02*
X106527380Y-40194523D01*
X106527380Y-39908809D02*
X105527380Y-39908809D01*
X105670238Y-40004047D01*
X105765476Y-40099285D01*
X105813095Y-40194523D01*
%TO.C,C42*%
X110482142Y-41677857D02*
X110529761Y-41725476D01*
X110577380Y-41868333D01*
X110577380Y-41963571D01*
X110529761Y-42106428D01*
X110434523Y-42201666D01*
X110339285Y-42249285D01*
X110148809Y-42296904D01*
X110005952Y-42296904D01*
X109815476Y-42249285D01*
X109720238Y-42201666D01*
X109625000Y-42106428D01*
X109577380Y-41963571D01*
X109577380Y-41868333D01*
X109625000Y-41725476D01*
X109672619Y-41677857D01*
X109910714Y-40820714D02*
X110577380Y-40820714D01*
X109529761Y-41058809D02*
X110244047Y-41296904D01*
X110244047Y-40677857D01*
X109672619Y-40344523D02*
X109625000Y-40296904D01*
X109577380Y-40201666D01*
X109577380Y-39963571D01*
X109625000Y-39868333D01*
X109672619Y-39820714D01*
X109767857Y-39773095D01*
X109863095Y-39773095D01*
X110005952Y-39820714D01*
X110577380Y-40392142D01*
X110577380Y-39773095D01*
%TO.C,C43*%
X114482142Y-41727857D02*
X114529761Y-41775476D01*
X114577380Y-41918333D01*
X114577380Y-42013571D01*
X114529761Y-42156428D01*
X114434523Y-42251666D01*
X114339285Y-42299285D01*
X114148809Y-42346904D01*
X114005952Y-42346904D01*
X113815476Y-42299285D01*
X113720238Y-42251666D01*
X113625000Y-42156428D01*
X113577380Y-42013571D01*
X113577380Y-41918333D01*
X113625000Y-41775476D01*
X113672619Y-41727857D01*
X113910714Y-40870714D02*
X114577380Y-40870714D01*
X113529761Y-41108809D02*
X114244047Y-41346904D01*
X114244047Y-40727857D01*
X113577380Y-40442142D02*
X113577380Y-39823095D01*
X113958333Y-40156428D01*
X113958333Y-40013571D01*
X114005952Y-39918333D01*
X114053571Y-39870714D01*
X114148809Y-39823095D01*
X114386904Y-39823095D01*
X114482142Y-39870714D01*
X114529761Y-39918333D01*
X114577380Y-40013571D01*
X114577380Y-40299285D01*
X114529761Y-40394523D01*
X114482142Y-40442142D01*
%TO.C,C44*%
X11957142Y4122143D02*
X12004761Y4074524D01*
X12052380Y3931667D01*
X12052380Y3836429D01*
X12004761Y3693572D01*
X11909523Y3598334D01*
X11814285Y3550715D01*
X11623809Y3503096D01*
X11480952Y3503096D01*
X11290476Y3550715D01*
X11195238Y3598334D01*
X11100000Y3693572D01*
X11052380Y3836429D01*
X11052380Y3931667D01*
X11100000Y4074524D01*
X11147619Y4122143D01*
X11385714Y4979286D02*
X12052380Y4979286D01*
X11004761Y4741191D02*
X11719047Y4503096D01*
X11719047Y5122143D01*
X11385714Y5931667D02*
X12052380Y5931667D01*
X11004761Y5693572D02*
X11719047Y5455477D01*
X11719047Y6074524D01*
%TO.C,C45*%
X10907142Y18757858D02*
X10859523Y18710239D01*
X10716666Y18662620D01*
X10621428Y18662620D01*
X10478571Y18710239D01*
X10383333Y18805477D01*
X10335714Y18900715D01*
X10288095Y19091191D01*
X10288095Y19234048D01*
X10335714Y19424524D01*
X10383333Y19519762D01*
X10478571Y19615000D01*
X10621428Y19662620D01*
X10716666Y19662620D01*
X10859523Y19615000D01*
X10907142Y19567381D01*
X11764285Y19329286D02*
X11764285Y18662620D01*
X11526190Y19710239D02*
X11288095Y18995953D01*
X11907142Y18995953D01*
X12764285Y19662620D02*
X12288095Y19662620D01*
X12240476Y19186429D01*
X12288095Y19234048D01*
X12383333Y19281667D01*
X12621428Y19281667D01*
X12716666Y19234048D01*
X12764285Y19186429D01*
X12811904Y19091191D01*
X12811904Y18853096D01*
X12764285Y18757858D01*
X12716666Y18710239D01*
X12621428Y18662620D01*
X12383333Y18662620D01*
X12288095Y18710239D01*
X12240476Y18757858D01*
%TO.C,C46*%
X15407142Y20172143D02*
X15454761Y20124524D01*
X15502380Y19981667D01*
X15502380Y19886429D01*
X15454761Y19743572D01*
X15359523Y19648334D01*
X15264285Y19600715D01*
X15073809Y19553096D01*
X14930952Y19553096D01*
X14740476Y19600715D01*
X14645238Y19648334D01*
X14550000Y19743572D01*
X14502380Y19886429D01*
X14502380Y19981667D01*
X14550000Y20124524D01*
X14597619Y20172143D01*
X14835714Y21029286D02*
X15502380Y21029286D01*
X14454761Y20791191D02*
X15169047Y20553096D01*
X15169047Y21172143D01*
X14502380Y21981667D02*
X14502380Y21791191D01*
X14550000Y21695953D01*
X14597619Y21648334D01*
X14740476Y21553096D01*
X14930952Y21505477D01*
X15311904Y21505477D01*
X15407142Y21553096D01*
X15454761Y21600715D01*
X15502380Y21695953D01*
X15502380Y21886429D01*
X15454761Y21981667D01*
X15407142Y22029286D01*
X15311904Y22076905D01*
X15073809Y22076905D01*
X14978571Y22029286D01*
X14930952Y21981667D01*
X14883333Y21886429D01*
X14883333Y21695953D01*
X14930952Y21600715D01*
X14978571Y21553096D01*
X15073809Y21505477D01*
%TO.C,C47*%
X10757142Y4172143D02*
X10804761Y4124524D01*
X10852380Y3981667D01*
X10852380Y3886429D01*
X10804761Y3743572D01*
X10709523Y3648334D01*
X10614285Y3600715D01*
X10423809Y3553096D01*
X10280952Y3553096D01*
X10090476Y3600715D01*
X9995238Y3648334D01*
X9900000Y3743572D01*
X9852380Y3886429D01*
X9852380Y3981667D01*
X9900000Y4124524D01*
X9947619Y4172143D01*
X10185714Y5029286D02*
X10852380Y5029286D01*
X9804761Y4791191D02*
X10519047Y4553096D01*
X10519047Y5172143D01*
X9852380Y5457858D02*
X9852380Y6124524D01*
X10852380Y5695953D01*
%TO.C,C48*%
X17807142Y17807858D02*
X17759523Y17760239D01*
X17616666Y17712620D01*
X17521428Y17712620D01*
X17378571Y17760239D01*
X17283333Y17855477D01*
X17235714Y17950715D01*
X17188095Y18141191D01*
X17188095Y18284048D01*
X17235714Y18474524D01*
X17283333Y18569762D01*
X17378571Y18665000D01*
X17521428Y18712620D01*
X17616666Y18712620D01*
X17759523Y18665000D01*
X17807142Y18617381D01*
X18664285Y18379286D02*
X18664285Y17712620D01*
X18426190Y18760239D02*
X18188095Y18045953D01*
X18807142Y18045953D01*
X19330952Y18284048D02*
X19235714Y18331667D01*
X19188095Y18379286D01*
X19140476Y18474524D01*
X19140476Y18522143D01*
X19188095Y18617381D01*
X19235714Y18665000D01*
X19330952Y18712620D01*
X19521428Y18712620D01*
X19616666Y18665000D01*
X19664285Y18617381D01*
X19711904Y18522143D01*
X19711904Y18474524D01*
X19664285Y18379286D01*
X19616666Y18331667D01*
X19521428Y18284048D01*
X19330952Y18284048D01*
X19235714Y18236429D01*
X19188095Y18188810D01*
X19140476Y18093572D01*
X19140476Y17903096D01*
X19188095Y17807858D01*
X19235714Y17760239D01*
X19330952Y17712620D01*
X19521428Y17712620D01*
X19616666Y17760239D01*
X19664285Y17807858D01*
X19711904Y17903096D01*
X19711904Y18093572D01*
X19664285Y18188810D01*
X19616666Y18236429D01*
X19521428Y18284048D01*
%TO.C,C49*%
X22257142Y19622143D02*
X22304761Y19574524D01*
X22352380Y19431667D01*
X22352380Y19336429D01*
X22304761Y19193572D01*
X22209523Y19098334D01*
X22114285Y19050715D01*
X21923809Y19003096D01*
X21780952Y19003096D01*
X21590476Y19050715D01*
X21495238Y19098334D01*
X21400000Y19193572D01*
X21352380Y19336429D01*
X21352380Y19431667D01*
X21400000Y19574524D01*
X21447619Y19622143D01*
X21685714Y20479286D02*
X22352380Y20479286D01*
X21304761Y20241191D02*
X22019047Y20003096D01*
X22019047Y20622143D01*
X22352380Y21050715D02*
X22352380Y21241191D01*
X22304761Y21336429D01*
X22257142Y21384048D01*
X22114285Y21479286D01*
X21923809Y21526905D01*
X21542857Y21526905D01*
X21447619Y21479286D01*
X21400000Y21431667D01*
X21352380Y21336429D01*
X21352380Y21145953D01*
X21400000Y21050715D01*
X21447619Y21003096D01*
X21542857Y20955477D01*
X21780952Y20955477D01*
X21876190Y21003096D01*
X21923809Y21050715D01*
X21971428Y21145953D01*
X21971428Y21336429D01*
X21923809Y21431667D01*
X21876190Y21479286D01*
X21780952Y21526905D01*
%TO.C,C50*%
X8857142Y19972143D02*
X8904761Y19924524D01*
X8952380Y19781667D01*
X8952380Y19686429D01*
X8904761Y19543572D01*
X8809523Y19448334D01*
X8714285Y19400715D01*
X8523809Y19353096D01*
X8380952Y19353096D01*
X8190476Y19400715D01*
X8095238Y19448334D01*
X8000000Y19543572D01*
X7952380Y19686429D01*
X7952380Y19781667D01*
X8000000Y19924524D01*
X8047619Y19972143D01*
X7952380Y20876905D02*
X7952380Y20400715D01*
X8428571Y20353096D01*
X8380952Y20400715D01*
X8333333Y20495953D01*
X8333333Y20734048D01*
X8380952Y20829286D01*
X8428571Y20876905D01*
X8523809Y20924524D01*
X8761904Y20924524D01*
X8857142Y20876905D01*
X8904761Y20829286D01*
X8952380Y20734048D01*
X8952380Y20495953D01*
X8904761Y20400715D01*
X8857142Y20353096D01*
X7952380Y21543572D02*
X7952380Y21638810D01*
X8000000Y21734048D01*
X8047619Y21781667D01*
X8142857Y21829286D01*
X8333333Y21876905D01*
X8571428Y21876905D01*
X8761904Y21829286D01*
X8857142Y21781667D01*
X8904761Y21734048D01*
X8952380Y21638810D01*
X8952380Y21543572D01*
X8904761Y21448334D01*
X8857142Y21400715D01*
X8761904Y21353096D01*
X8571428Y21305477D01*
X8333333Y21305477D01*
X8142857Y21353096D01*
X8047619Y21400715D01*
X8000000Y21448334D01*
X7952380Y21543572D01*
%TO.C,C51*%
X9107142Y16677858D02*
X9059523Y16630239D01*
X8916666Y16582620D01*
X8821428Y16582620D01*
X8678571Y16630239D01*
X8583333Y16725477D01*
X8535714Y16820715D01*
X8488095Y17011191D01*
X8488095Y17154048D01*
X8535714Y17344524D01*
X8583333Y17439762D01*
X8678571Y17535000D01*
X8821428Y17582620D01*
X8916666Y17582620D01*
X9059523Y17535000D01*
X9107142Y17487381D01*
X10011904Y17582620D02*
X9535714Y17582620D01*
X9488095Y17106429D01*
X9535714Y17154048D01*
X9630952Y17201667D01*
X9869047Y17201667D01*
X9964285Y17154048D01*
X10011904Y17106429D01*
X10059523Y17011191D01*
X10059523Y16773096D01*
X10011904Y16677858D01*
X9964285Y16630239D01*
X9869047Y16582620D01*
X9630952Y16582620D01*
X9535714Y16630239D01*
X9488095Y16677858D01*
X11011904Y16582620D02*
X10440476Y16582620D01*
X10726190Y16582620D02*
X10726190Y17582620D01*
X10630952Y17439762D01*
X10535714Y17344524D01*
X10440476Y17296905D01*
%TO.C,C52*%
X18657142Y10757858D02*
X18609523Y10710239D01*
X18466666Y10662620D01*
X18371428Y10662620D01*
X18228571Y10710239D01*
X18133333Y10805477D01*
X18085714Y10900715D01*
X18038095Y11091191D01*
X18038095Y11234048D01*
X18085714Y11424524D01*
X18133333Y11519762D01*
X18228571Y11615000D01*
X18371428Y11662620D01*
X18466666Y11662620D01*
X18609523Y11615000D01*
X18657142Y11567381D01*
X19561904Y11662620D02*
X19085714Y11662620D01*
X19038095Y11186429D01*
X19085714Y11234048D01*
X19180952Y11281667D01*
X19419047Y11281667D01*
X19514285Y11234048D01*
X19561904Y11186429D01*
X19609523Y11091191D01*
X19609523Y10853096D01*
X19561904Y10757858D01*
X19514285Y10710239D01*
X19419047Y10662620D01*
X19180952Y10662620D01*
X19085714Y10710239D01*
X19038095Y10757858D01*
X19990476Y11567381D02*
X20038095Y11615000D01*
X20133333Y11662620D01*
X20371428Y11662620D01*
X20466666Y11615000D01*
X20514285Y11567381D01*
X20561904Y11472143D01*
X20561904Y11376905D01*
X20514285Y11234048D01*
X19942857Y10662620D01*
X20561904Y10662620D01*
%TO.C,C53*%
X14157142Y20222143D02*
X14204761Y20174524D01*
X14252380Y20031667D01*
X14252380Y19936429D01*
X14204761Y19793572D01*
X14109523Y19698334D01*
X14014285Y19650715D01*
X13823809Y19603096D01*
X13680952Y19603096D01*
X13490476Y19650715D01*
X13395238Y19698334D01*
X13300000Y19793572D01*
X13252380Y19936429D01*
X13252380Y20031667D01*
X13300000Y20174524D01*
X13347619Y20222143D01*
X13252380Y21126905D02*
X13252380Y20650715D01*
X13728571Y20603096D01*
X13680952Y20650715D01*
X13633333Y20745953D01*
X13633333Y20984048D01*
X13680952Y21079286D01*
X13728571Y21126905D01*
X13823809Y21174524D01*
X14061904Y21174524D01*
X14157142Y21126905D01*
X14204761Y21079286D01*
X14252380Y20984048D01*
X14252380Y20745953D01*
X14204761Y20650715D01*
X14157142Y20603096D01*
X13252380Y21507858D02*
X13252380Y22126905D01*
X13633333Y21793572D01*
X13633333Y21936429D01*
X13680952Y22031667D01*
X13728571Y22079286D01*
X13823809Y22126905D01*
X14061904Y22126905D01*
X14157142Y22079286D01*
X14204761Y22031667D01*
X14252380Y21936429D01*
X14252380Y21650715D01*
X14204761Y21555477D01*
X14157142Y21507858D01*
%TO.C,C54*%
X5657142Y12157858D02*
X5609523Y12110239D01*
X5466666Y12062620D01*
X5371428Y12062620D01*
X5228571Y12110239D01*
X5133333Y12205477D01*
X5085714Y12300715D01*
X5038095Y12491191D01*
X5038095Y12634048D01*
X5085714Y12824524D01*
X5133333Y12919762D01*
X5228571Y13015000D01*
X5371428Y13062620D01*
X5466666Y13062620D01*
X5609523Y13015000D01*
X5657142Y12967381D01*
X6561904Y13062620D02*
X6085714Y13062620D01*
X6038095Y12586429D01*
X6085714Y12634048D01*
X6180952Y12681667D01*
X6419047Y12681667D01*
X6514285Y12634048D01*
X6561904Y12586429D01*
X6609523Y12491191D01*
X6609523Y12253096D01*
X6561904Y12157858D01*
X6514285Y12110239D01*
X6419047Y12062620D01*
X6180952Y12062620D01*
X6085714Y12110239D01*
X6038095Y12157858D01*
X7466666Y12729286D02*
X7466666Y12062620D01*
X7228571Y13110239D02*
X6990476Y12395953D01*
X7609523Y12395953D01*
%TO.C,C55*%
X20907142Y18722143D02*
X20954761Y18674524D01*
X21002380Y18531667D01*
X21002380Y18436429D01*
X20954761Y18293572D01*
X20859523Y18198334D01*
X20764285Y18150715D01*
X20573809Y18103096D01*
X20430952Y18103096D01*
X20240476Y18150715D01*
X20145238Y18198334D01*
X20050000Y18293572D01*
X20002380Y18436429D01*
X20002380Y18531667D01*
X20050000Y18674524D01*
X20097619Y18722143D01*
X20002380Y19626905D02*
X20002380Y19150715D01*
X20478571Y19103096D01*
X20430952Y19150715D01*
X20383333Y19245953D01*
X20383333Y19484048D01*
X20430952Y19579286D01*
X20478571Y19626905D01*
X20573809Y19674524D01*
X20811904Y19674524D01*
X20907142Y19626905D01*
X20954761Y19579286D01*
X21002380Y19484048D01*
X21002380Y19245953D01*
X20954761Y19150715D01*
X20907142Y19103096D01*
X20002380Y20579286D02*
X20002380Y20103096D01*
X20478571Y20055477D01*
X20430952Y20103096D01*
X20383333Y20198334D01*
X20383333Y20436429D01*
X20430952Y20531667D01*
X20478571Y20579286D01*
X20573809Y20626905D01*
X20811904Y20626905D01*
X20907142Y20579286D01*
X20954761Y20531667D01*
X21002380Y20436429D01*
X21002380Y20198334D01*
X20954761Y20103096D01*
X20907142Y20055477D01*
%TO.C,C56*%
X12857142Y-20922142D02*
X12809523Y-20969761D01*
X12666666Y-21017380D01*
X12571428Y-21017380D01*
X12428571Y-20969761D01*
X12333333Y-20874523D01*
X12285714Y-20779285D01*
X12238095Y-20588809D01*
X12238095Y-20445952D01*
X12285714Y-20255476D01*
X12333333Y-20160238D01*
X12428571Y-20065000D01*
X12571428Y-20017380D01*
X12666666Y-20017380D01*
X12809523Y-20065000D01*
X12857142Y-20112619D01*
X13761904Y-20017380D02*
X13285714Y-20017380D01*
X13238095Y-20493571D01*
X13285714Y-20445952D01*
X13380952Y-20398333D01*
X13619047Y-20398333D01*
X13714285Y-20445952D01*
X13761904Y-20493571D01*
X13809523Y-20588809D01*
X13809523Y-20826904D01*
X13761904Y-20922142D01*
X13714285Y-20969761D01*
X13619047Y-21017380D01*
X13380952Y-21017380D01*
X13285714Y-20969761D01*
X13238095Y-20922142D01*
X14666666Y-20017380D02*
X14476190Y-20017380D01*
X14380952Y-20065000D01*
X14333333Y-20112619D01*
X14238095Y-20255476D01*
X14190476Y-20445952D01*
X14190476Y-20826904D01*
X14238095Y-20922142D01*
X14285714Y-20969761D01*
X14380952Y-21017380D01*
X14571428Y-21017380D01*
X14666666Y-20969761D01*
X14714285Y-20922142D01*
X14761904Y-20826904D01*
X14761904Y-20588809D01*
X14714285Y-20493571D01*
X14666666Y-20445952D01*
X14571428Y-20398333D01*
X14380952Y-20398333D01*
X14285714Y-20445952D01*
X14238095Y-20493571D01*
X14190476Y-20588809D01*
%TO.C,J2*%
X78516666Y20712620D02*
X78516666Y19998334D01*
X78469047Y19855477D01*
X78373809Y19760239D01*
X78230952Y19712620D01*
X78135714Y19712620D01*
X78945238Y20617381D02*
X78992857Y20665000D01*
X79088095Y20712620D01*
X79326190Y20712620D01*
X79421428Y20665000D01*
X79469047Y20617381D01*
X79516666Y20522143D01*
X79516666Y20426905D01*
X79469047Y20284048D01*
X78897619Y19712620D01*
X79516666Y19712620D01*
%TO.C,J3*%
X58466666Y20587620D02*
X58466666Y19873334D01*
X58419047Y19730477D01*
X58323809Y19635239D01*
X58180952Y19587620D01*
X58085714Y19587620D01*
X58847619Y20587620D02*
X59466666Y20587620D01*
X59133333Y20206667D01*
X59276190Y20206667D01*
X59371428Y20159048D01*
X59419047Y20111429D01*
X59466666Y20016191D01*
X59466666Y19778096D01*
X59419047Y19682858D01*
X59371428Y19635239D01*
X59276190Y19587620D01*
X58990476Y19587620D01*
X58895238Y19635239D01*
X58847619Y19682858D01*
%TO.C,J4*%
X118666666Y21087620D02*
X118666666Y20373334D01*
X118619047Y20230477D01*
X118523809Y20135239D01*
X118380952Y20087620D01*
X118285714Y20087620D01*
X119571428Y20754286D02*
X119571428Y20087620D01*
X119333333Y21135239D02*
X119095238Y20420953D01*
X119714285Y20420953D01*
%TO.C,J5*%
X98541666Y21162620D02*
X98541666Y20448334D01*
X98494047Y20305477D01*
X98398809Y20210239D01*
X98255952Y20162620D01*
X98160714Y20162620D01*
X99494047Y21162620D02*
X99017857Y21162620D01*
X98970238Y20686429D01*
X99017857Y20734048D01*
X99113095Y20781667D01*
X99351190Y20781667D01*
X99446428Y20734048D01*
X99494047Y20686429D01*
X99541666Y20591191D01*
X99541666Y20353096D01*
X99494047Y20257858D01*
X99446428Y20210239D01*
X99351190Y20162620D01*
X99113095Y20162620D01*
X99017857Y20210239D01*
X98970238Y20257858D01*
%TO.C,R1*%
X65802380Y-42001666D02*
X65326190Y-42335000D01*
X65802380Y-42573095D02*
X64802380Y-42573095D01*
X64802380Y-42192142D01*
X64850000Y-42096904D01*
X64897619Y-42049285D01*
X64992857Y-42001666D01*
X65135714Y-42001666D01*
X65230952Y-42049285D01*
X65278571Y-42096904D01*
X65326190Y-42192142D01*
X65326190Y-42573095D01*
X65802380Y-41049285D02*
X65802380Y-41620714D01*
X65802380Y-41335000D02*
X64802380Y-41335000D01*
X64945238Y-41430238D01*
X65040476Y-41525476D01*
X65088095Y-41620714D01*
%TO.C,R2*%
X98383333Y-38887380D02*
X98050000Y-38411190D01*
X97811904Y-38887380D02*
X97811904Y-37887380D01*
X98192857Y-37887380D01*
X98288095Y-37935000D01*
X98335714Y-37982619D01*
X98383333Y-38077857D01*
X98383333Y-38220714D01*
X98335714Y-38315952D01*
X98288095Y-38363571D01*
X98192857Y-38411190D01*
X97811904Y-38411190D01*
X98764285Y-37982619D02*
X98811904Y-37935000D01*
X98907142Y-37887380D01*
X99145238Y-37887380D01*
X99240476Y-37935000D01*
X99288095Y-37982619D01*
X99335714Y-38077857D01*
X99335714Y-38173095D01*
X99288095Y-38315952D01*
X98716666Y-38887380D01*
X99335714Y-38887380D01*
%TO.C,R3*%
X22202380Y3348334D02*
X21726190Y3015000D01*
X22202380Y2776905D02*
X21202380Y2776905D01*
X21202380Y3157858D01*
X21250000Y3253096D01*
X21297619Y3300715D01*
X21392857Y3348334D01*
X21535714Y3348334D01*
X21630952Y3300715D01*
X21678571Y3253096D01*
X21726190Y3157858D01*
X21726190Y2776905D01*
X21202380Y3681667D02*
X21202380Y4300715D01*
X21583333Y3967381D01*
X21583333Y4110239D01*
X21630952Y4205477D01*
X21678571Y4253096D01*
X21773809Y4300715D01*
X22011904Y4300715D01*
X22107142Y4253096D01*
X22154761Y4205477D01*
X22202380Y4110239D01*
X22202380Y3824524D01*
X22154761Y3729286D01*
X22107142Y3681667D01*
%TO.C,R4*%
X98802380Y-41751666D02*
X98326190Y-42085000D01*
X98802380Y-42323095D02*
X97802380Y-42323095D01*
X97802380Y-41942142D01*
X97850000Y-41846904D01*
X97897619Y-41799285D01*
X97992857Y-41751666D01*
X98135714Y-41751666D01*
X98230952Y-41799285D01*
X98278571Y-41846904D01*
X98326190Y-41942142D01*
X98326190Y-42323095D01*
X98135714Y-40894523D02*
X98802380Y-40894523D01*
X97754761Y-41132619D02*
X98469047Y-41370714D01*
X98469047Y-40751666D01*
%TO.C,R5*%
X64802380Y-39501666D02*
X64326190Y-39835000D01*
X64802380Y-40073095D02*
X63802380Y-40073095D01*
X63802380Y-39692142D01*
X63850000Y-39596904D01*
X63897619Y-39549285D01*
X63992857Y-39501666D01*
X64135714Y-39501666D01*
X64230952Y-39549285D01*
X64278571Y-39596904D01*
X64326190Y-39692142D01*
X64326190Y-40073095D01*
X63802380Y-38596904D02*
X63802380Y-39073095D01*
X64278571Y-39120714D01*
X64230952Y-39073095D01*
X64183333Y-38977857D01*
X64183333Y-38739761D01*
X64230952Y-38644523D01*
X64278571Y-38596904D01*
X64373809Y-38549285D01*
X64611904Y-38549285D01*
X64707142Y-38596904D01*
X64754761Y-38644523D01*
X64802380Y-38739761D01*
X64802380Y-38977857D01*
X64754761Y-39073095D01*
X64707142Y-39120714D01*
%TO.C,R6*%
X76202380Y25198334D02*
X75726190Y24865000D01*
X76202380Y24626905D02*
X75202380Y24626905D01*
X75202380Y25007858D01*
X75250000Y25103096D01*
X75297619Y25150715D01*
X75392857Y25198334D01*
X75535714Y25198334D01*
X75630952Y25150715D01*
X75678571Y25103096D01*
X75726190Y25007858D01*
X75726190Y24626905D01*
X75202380Y26055477D02*
X75202380Y25865000D01*
X75250000Y25769762D01*
X75297619Y25722143D01*
X75440476Y25626905D01*
X75630952Y25579286D01*
X76011904Y25579286D01*
X76107142Y25626905D01*
X76154761Y25674524D01*
X76202380Y25769762D01*
X76202380Y25960239D01*
X76154761Y26055477D01*
X76107142Y26103096D01*
X76011904Y26150715D01*
X75773809Y26150715D01*
X75678571Y26103096D01*
X75630952Y26055477D01*
X75583333Y25960239D01*
X75583333Y25769762D01*
X75630952Y25674524D01*
X75678571Y25626905D01*
X75773809Y25579286D01*
%TO.C,R7*%
X55952380Y15648334D02*
X55476190Y15315000D01*
X55952380Y15076905D02*
X54952380Y15076905D01*
X54952380Y15457858D01*
X55000000Y15553096D01*
X55047619Y15600715D01*
X55142857Y15648334D01*
X55285714Y15648334D01*
X55380952Y15600715D01*
X55428571Y15553096D01*
X55476190Y15457858D01*
X55476190Y15076905D01*
X54952380Y15981667D02*
X54952380Y16648334D01*
X55952380Y16219762D01*
%TO.C,R8*%
X88683333Y26462620D02*
X88350000Y26938810D01*
X88111904Y26462620D02*
X88111904Y27462620D01*
X88492857Y27462620D01*
X88588095Y27415000D01*
X88635714Y27367381D01*
X88683333Y27272143D01*
X88683333Y27129286D01*
X88635714Y27034048D01*
X88588095Y26986429D01*
X88492857Y26938810D01*
X88111904Y26938810D01*
X89254761Y27034048D02*
X89159523Y27081667D01*
X89111904Y27129286D01*
X89064285Y27224524D01*
X89064285Y27272143D01*
X89111904Y27367381D01*
X89159523Y27415000D01*
X89254761Y27462620D01*
X89445238Y27462620D01*
X89540476Y27415000D01*
X89588095Y27367381D01*
X89635714Y27272143D01*
X89635714Y27224524D01*
X89588095Y27129286D01*
X89540476Y27081667D01*
X89445238Y27034048D01*
X89254761Y27034048D01*
X89159523Y26986429D01*
X89111904Y26938810D01*
X89064285Y26843572D01*
X89064285Y26653096D01*
X89111904Y26557858D01*
X89159523Y26510239D01*
X89254761Y26462620D01*
X89445238Y26462620D01*
X89540476Y26510239D01*
X89588095Y26557858D01*
X89635714Y26653096D01*
X89635714Y26843572D01*
X89588095Y26938810D01*
X89540476Y26986429D01*
X89445238Y27034048D01*
%TO.C,R9*%
X68683333Y26462620D02*
X68350000Y26938810D01*
X68111904Y26462620D02*
X68111904Y27462620D01*
X68492857Y27462620D01*
X68588095Y27415000D01*
X68635714Y27367381D01*
X68683333Y27272143D01*
X68683333Y27129286D01*
X68635714Y27034048D01*
X68588095Y26986429D01*
X68492857Y26938810D01*
X68111904Y26938810D01*
X69159523Y26462620D02*
X69350000Y26462620D01*
X69445238Y26510239D01*
X69492857Y26557858D01*
X69588095Y26700715D01*
X69635714Y26891191D01*
X69635714Y27272143D01*
X69588095Y27367381D01*
X69540476Y27415000D01*
X69445238Y27462620D01*
X69254761Y27462620D01*
X69159523Y27415000D01*
X69111904Y27367381D01*
X69064285Y27272143D01*
X69064285Y27034048D01*
X69111904Y26938810D01*
X69159523Y26891191D01*
X69254761Y26843572D01*
X69445238Y26843572D01*
X69540476Y26891191D01*
X69588095Y26938810D01*
X69635714Y27034048D01*
%TO.C,R10*%
X116202380Y24722143D02*
X115726190Y24388810D01*
X116202380Y24150715D02*
X115202380Y24150715D01*
X115202380Y24531667D01*
X115250000Y24626905D01*
X115297619Y24674524D01*
X115392857Y24722143D01*
X115535714Y24722143D01*
X115630952Y24674524D01*
X115678571Y24626905D01*
X115726190Y24531667D01*
X115726190Y24150715D01*
X116202380Y25674524D02*
X116202380Y25103096D01*
X116202380Y25388810D02*
X115202380Y25388810D01*
X115345238Y25293572D01*
X115440476Y25198334D01*
X115488095Y25103096D01*
X115202380Y26293572D02*
X115202380Y26388810D01*
X115250000Y26484048D01*
X115297619Y26531667D01*
X115392857Y26579286D01*
X115583333Y26626905D01*
X115821428Y26626905D01*
X116011904Y26579286D01*
X116107142Y26531667D01*
X116154761Y26484048D01*
X116202380Y26388810D01*
X116202380Y26293572D01*
X116154761Y26198334D01*
X116107142Y26150715D01*
X116011904Y26103096D01*
X115821428Y26055477D01*
X115583333Y26055477D01*
X115392857Y26103096D01*
X115297619Y26150715D01*
X115250000Y26198334D01*
X115202380Y26293572D01*
%TO.C,R11*%
X96202380Y24722143D02*
X95726190Y24388810D01*
X96202380Y24150715D02*
X95202380Y24150715D01*
X95202380Y24531667D01*
X95250000Y24626905D01*
X95297619Y24674524D01*
X95392857Y24722143D01*
X95535714Y24722143D01*
X95630952Y24674524D01*
X95678571Y24626905D01*
X95726190Y24531667D01*
X95726190Y24150715D01*
X96202380Y25674524D02*
X96202380Y25103096D01*
X96202380Y25388810D02*
X95202380Y25388810D01*
X95345238Y25293572D01*
X95440476Y25198334D01*
X95488095Y25103096D01*
X96202380Y26626905D02*
X96202380Y26055477D01*
X96202380Y26341191D02*
X95202380Y26341191D01*
X95345238Y26245953D01*
X95440476Y26150715D01*
X95488095Y26055477D01*
%TO.C,R12*%
X128207142Y26462620D02*
X127873809Y26938810D01*
X127635714Y26462620D02*
X127635714Y27462620D01*
X128016666Y27462620D01*
X128111904Y27415000D01*
X128159523Y27367381D01*
X128207142Y27272143D01*
X128207142Y27129286D01*
X128159523Y27034048D01*
X128111904Y26986429D01*
X128016666Y26938810D01*
X127635714Y26938810D01*
X129159523Y26462620D02*
X128588095Y26462620D01*
X128873809Y26462620D02*
X128873809Y27462620D01*
X128778571Y27319762D01*
X128683333Y27224524D01*
X128588095Y27176905D01*
X129540476Y27367381D02*
X129588095Y27415000D01*
X129683333Y27462620D01*
X129921428Y27462620D01*
X130016666Y27415000D01*
X130064285Y27367381D01*
X130111904Y27272143D01*
X130111904Y27176905D01*
X130064285Y27034048D01*
X129492857Y26462620D01*
X130111904Y26462620D01*
%TO.C,R13*%
X108207142Y26462620D02*
X107873809Y26938810D01*
X107635714Y26462620D02*
X107635714Y27462620D01*
X108016666Y27462620D01*
X108111904Y27415000D01*
X108159523Y27367381D01*
X108207142Y27272143D01*
X108207142Y27129286D01*
X108159523Y27034048D01*
X108111904Y26986429D01*
X108016666Y26938810D01*
X107635714Y26938810D01*
X109159523Y26462620D02*
X108588095Y26462620D01*
X108873809Y26462620D02*
X108873809Y27462620D01*
X108778571Y27319762D01*
X108683333Y27224524D01*
X108588095Y27176905D01*
X109492857Y27462620D02*
X110111904Y27462620D01*
X109778571Y27081667D01*
X109921428Y27081667D01*
X110016666Y27034048D01*
X110064285Y26986429D01*
X110111904Y26891191D01*
X110111904Y26653096D01*
X110064285Y26557858D01*
X110016666Y26510239D01*
X109921428Y26462620D01*
X109635714Y26462620D01*
X109540476Y26510239D01*
X109492857Y26557858D01*
%TO.C,R14*%
X18457142Y7662620D02*
X18123809Y8138810D01*
X17885714Y7662620D02*
X17885714Y8662620D01*
X18266666Y8662620D01*
X18361904Y8615000D01*
X18409523Y8567381D01*
X18457142Y8472143D01*
X18457142Y8329286D01*
X18409523Y8234048D01*
X18361904Y8186429D01*
X18266666Y8138810D01*
X17885714Y8138810D01*
X19409523Y7662620D02*
X18838095Y7662620D01*
X19123809Y7662620D02*
X19123809Y8662620D01*
X19028571Y8519762D01*
X18933333Y8424524D01*
X18838095Y8376905D01*
X20266666Y8329286D02*
X20266666Y7662620D01*
X20028571Y8710239D02*
X19790476Y7995953D01*
X20409523Y7995953D01*
%TO.C,R15*%
X14202380Y4122143D02*
X13726190Y3788810D01*
X14202380Y3550715D02*
X13202380Y3550715D01*
X13202380Y3931667D01*
X13250000Y4026905D01*
X13297619Y4074524D01*
X13392857Y4122143D01*
X13535714Y4122143D01*
X13630952Y4074524D01*
X13678571Y4026905D01*
X13726190Y3931667D01*
X13726190Y3550715D01*
X14202380Y5074524D02*
X14202380Y4503096D01*
X14202380Y4788810D02*
X13202380Y4788810D01*
X13345238Y4693572D01*
X13440476Y4598334D01*
X13488095Y4503096D01*
X13202380Y5979286D02*
X13202380Y5503096D01*
X13678571Y5455477D01*
X13630952Y5503096D01*
X13583333Y5598334D01*
X13583333Y5836429D01*
X13630952Y5931667D01*
X13678571Y5979286D01*
X13773809Y6026905D01*
X14011904Y6026905D01*
X14107142Y5979286D01*
X14154761Y5931667D01*
X14202380Y5836429D01*
X14202380Y5598334D01*
X14154761Y5503096D01*
X14107142Y5455477D01*
%TO.C,R16*%
X17802380Y4122143D02*
X17326190Y3788810D01*
X17802380Y3550715D02*
X16802380Y3550715D01*
X16802380Y3931667D01*
X16850000Y4026905D01*
X16897619Y4074524D01*
X16992857Y4122143D01*
X17135714Y4122143D01*
X17230952Y4074524D01*
X17278571Y4026905D01*
X17326190Y3931667D01*
X17326190Y3550715D01*
X17802380Y5074524D02*
X17802380Y4503096D01*
X17802380Y4788810D02*
X16802380Y4788810D01*
X16945238Y4693572D01*
X17040476Y4598334D01*
X17088095Y4503096D01*
X16802380Y5931667D02*
X16802380Y5741191D01*
X16850000Y5645953D01*
X16897619Y5598334D01*
X17040476Y5503096D01*
X17230952Y5455477D01*
X17611904Y5455477D01*
X17707142Y5503096D01*
X17754761Y5550715D01*
X17802380Y5645953D01*
X17802380Y5836429D01*
X17754761Y5931667D01*
X17707142Y5979286D01*
X17611904Y6026905D01*
X17373809Y6026905D01*
X17278571Y5979286D01*
X17230952Y5931667D01*
X17183333Y5836429D01*
X17183333Y5645953D01*
X17230952Y5550715D01*
X17278571Y5503096D01*
X17373809Y5455477D01*
%TO.C,R17*%
X10907142Y19962620D02*
X10573809Y20438810D01*
X10335714Y19962620D02*
X10335714Y20962620D01*
X10716666Y20962620D01*
X10811904Y20915000D01*
X10859523Y20867381D01*
X10907142Y20772143D01*
X10907142Y20629286D01*
X10859523Y20534048D01*
X10811904Y20486429D01*
X10716666Y20438810D01*
X10335714Y20438810D01*
X11859523Y19962620D02*
X11288095Y19962620D01*
X11573809Y19962620D02*
X11573809Y20962620D01*
X11478571Y20819762D01*
X11383333Y20724524D01*
X11288095Y20676905D01*
X12192857Y20962620D02*
X12859523Y20962620D01*
X12430952Y19962620D01*
%TO.C,R18*%
X11507142Y2212620D02*
X11173809Y2688810D01*
X10935714Y2212620D02*
X10935714Y3212620D01*
X11316666Y3212620D01*
X11411904Y3165000D01*
X11459523Y3117381D01*
X11507142Y3022143D01*
X11507142Y2879286D01*
X11459523Y2784048D01*
X11411904Y2736429D01*
X11316666Y2688810D01*
X10935714Y2688810D01*
X12459523Y2212620D02*
X11888095Y2212620D01*
X12173809Y2212620D02*
X12173809Y3212620D01*
X12078571Y3069762D01*
X11983333Y2974524D01*
X11888095Y2926905D01*
X13030952Y2784048D02*
X12935714Y2831667D01*
X12888095Y2879286D01*
X12840476Y2974524D01*
X12840476Y3022143D01*
X12888095Y3117381D01*
X12935714Y3165000D01*
X13030952Y3212620D01*
X13221428Y3212620D01*
X13316666Y3165000D01*
X13364285Y3117381D01*
X13411904Y3022143D01*
X13411904Y2974524D01*
X13364285Y2879286D01*
X13316666Y2831667D01*
X13221428Y2784048D01*
X13030952Y2784048D01*
X12935714Y2736429D01*
X12888095Y2688810D01*
X12840476Y2593572D01*
X12840476Y2403096D01*
X12888095Y2307858D01*
X12935714Y2260239D01*
X13030952Y2212620D01*
X13221428Y2212620D01*
X13316666Y2260239D01*
X13364285Y2307858D01*
X13411904Y2403096D01*
X13411904Y2593572D01*
X13364285Y2688810D01*
X13316666Y2736429D01*
X13221428Y2784048D01*
%TO.C,R19*%
X20307142Y6212620D02*
X19973809Y6688810D01*
X19735714Y6212620D02*
X19735714Y7212620D01*
X20116666Y7212620D01*
X20211904Y7165000D01*
X20259523Y7117381D01*
X20307142Y7022143D01*
X20307142Y6879286D01*
X20259523Y6784048D01*
X20211904Y6736429D01*
X20116666Y6688810D01*
X19735714Y6688810D01*
X21259523Y6212620D02*
X20688095Y6212620D01*
X20973809Y6212620D02*
X20973809Y7212620D01*
X20878571Y7069762D01*
X20783333Y6974524D01*
X20688095Y6926905D01*
X21735714Y6212620D02*
X21926190Y6212620D01*
X22021428Y6260239D01*
X22069047Y6307858D01*
X22164285Y6450715D01*
X22211904Y6641191D01*
X22211904Y7022143D01*
X22164285Y7117381D01*
X22116666Y7165000D01*
X22021428Y7212620D01*
X21830952Y7212620D01*
X21735714Y7165000D01*
X21688095Y7117381D01*
X21640476Y7022143D01*
X21640476Y6784048D01*
X21688095Y6688810D01*
X21735714Y6641191D01*
X21830952Y6593572D01*
X22021428Y6593572D01*
X22116666Y6641191D01*
X22164285Y6688810D01*
X22211904Y6784048D01*
%TO.C,R20*%
X14257142Y22462620D02*
X13923809Y22938810D01*
X13685714Y22462620D02*
X13685714Y23462620D01*
X14066666Y23462620D01*
X14161904Y23415000D01*
X14209523Y23367381D01*
X14257142Y23272143D01*
X14257142Y23129286D01*
X14209523Y23034048D01*
X14161904Y22986429D01*
X14066666Y22938810D01*
X13685714Y22938810D01*
X14638095Y23367381D02*
X14685714Y23415000D01*
X14780952Y23462620D01*
X15019047Y23462620D01*
X15114285Y23415000D01*
X15161904Y23367381D01*
X15209523Y23272143D01*
X15209523Y23176905D01*
X15161904Y23034048D01*
X14590476Y22462620D01*
X15209523Y22462620D01*
X15828571Y23462620D02*
X15923809Y23462620D01*
X16019047Y23415000D01*
X16066666Y23367381D01*
X16114285Y23272143D01*
X16161904Y23081667D01*
X16161904Y22843572D01*
X16114285Y22653096D01*
X16066666Y22557858D01*
X16019047Y22510239D01*
X15923809Y22462620D01*
X15828571Y22462620D01*
X15733333Y22510239D01*
X15685714Y22557858D01*
X15638095Y22653096D01*
X15590476Y22843572D01*
X15590476Y23081667D01*
X15638095Y23272143D01*
X15685714Y23367381D01*
X15733333Y23415000D01*
X15828571Y23462620D01*
%TO.C,R21*%
X9602380Y4172143D02*
X9126190Y3838810D01*
X9602380Y3600715D02*
X8602380Y3600715D01*
X8602380Y3981667D01*
X8650000Y4076905D01*
X8697619Y4124524D01*
X8792857Y4172143D01*
X8935714Y4172143D01*
X9030952Y4124524D01*
X9078571Y4076905D01*
X9126190Y3981667D01*
X9126190Y3600715D01*
X8697619Y4553096D02*
X8650000Y4600715D01*
X8602380Y4695953D01*
X8602380Y4934048D01*
X8650000Y5029286D01*
X8697619Y5076905D01*
X8792857Y5124524D01*
X8888095Y5124524D01*
X9030952Y5076905D01*
X9602380Y4505477D01*
X9602380Y5124524D01*
X9602380Y6076905D02*
X9602380Y5505477D01*
X9602380Y5791191D02*
X8602380Y5791191D01*
X8745238Y5695953D01*
X8840476Y5600715D01*
X8888095Y5505477D01*
%TO.C,R22*%
X2307142Y13912620D02*
X1973809Y14388810D01*
X1735714Y13912620D02*
X1735714Y14912620D01*
X2116666Y14912620D01*
X2211904Y14865000D01*
X2259523Y14817381D01*
X2307142Y14722143D01*
X2307142Y14579286D01*
X2259523Y14484048D01*
X2211904Y14436429D01*
X2116666Y14388810D01*
X1735714Y14388810D01*
X2688095Y14817381D02*
X2735714Y14865000D01*
X2830952Y14912620D01*
X3069047Y14912620D01*
X3164285Y14865000D01*
X3211904Y14817381D01*
X3259523Y14722143D01*
X3259523Y14626905D01*
X3211904Y14484048D01*
X2640476Y13912620D01*
X3259523Y13912620D01*
X3640476Y14817381D02*
X3688095Y14865000D01*
X3783333Y14912620D01*
X4021428Y14912620D01*
X4116666Y14865000D01*
X4164285Y14817381D01*
X4211904Y14722143D01*
X4211904Y14626905D01*
X4164285Y14484048D01*
X3592857Y13912620D01*
X4211904Y13912620D01*
%TO.C,R23*%
X2307142Y12662620D02*
X1973809Y13138810D01*
X1735714Y12662620D02*
X1735714Y13662620D01*
X2116666Y13662620D01*
X2211904Y13615000D01*
X2259523Y13567381D01*
X2307142Y13472143D01*
X2307142Y13329286D01*
X2259523Y13234048D01*
X2211904Y13186429D01*
X2116666Y13138810D01*
X1735714Y13138810D01*
X2688095Y13567381D02*
X2735714Y13615000D01*
X2830952Y13662620D01*
X3069047Y13662620D01*
X3164285Y13615000D01*
X3211904Y13567381D01*
X3259523Y13472143D01*
X3259523Y13376905D01*
X3211904Y13234048D01*
X2640476Y12662620D01*
X3259523Y12662620D01*
X3592857Y13662620D02*
X4211904Y13662620D01*
X3878571Y13281667D01*
X4021428Y13281667D01*
X4116666Y13234048D01*
X4164285Y13186429D01*
X4211904Y13091191D01*
X4211904Y12853096D01*
X4164285Y12757858D01*
X4116666Y12710239D01*
X4021428Y12662620D01*
X3735714Y12662620D01*
X3640476Y12710239D01*
X3592857Y12757858D01*
%TO.C,R24*%
X5857142Y7962620D02*
X5523809Y8438810D01*
X5285714Y7962620D02*
X5285714Y8962620D01*
X5666666Y8962620D01*
X5761904Y8915000D01*
X5809523Y8867381D01*
X5857142Y8772143D01*
X5857142Y8629286D01*
X5809523Y8534048D01*
X5761904Y8486429D01*
X5666666Y8438810D01*
X5285714Y8438810D01*
X6238095Y8867381D02*
X6285714Y8915000D01*
X6380952Y8962620D01*
X6619047Y8962620D01*
X6714285Y8915000D01*
X6761904Y8867381D01*
X6809523Y8772143D01*
X6809523Y8676905D01*
X6761904Y8534048D01*
X6190476Y7962620D01*
X6809523Y7962620D01*
X7666666Y8629286D02*
X7666666Y7962620D01*
X7428571Y9010239D02*
X7190476Y8295953D01*
X7809523Y8295953D01*
%TO.C,R25*%
X5857142Y6762620D02*
X5523809Y7238810D01*
X5285714Y6762620D02*
X5285714Y7762620D01*
X5666666Y7762620D01*
X5761904Y7715000D01*
X5809523Y7667381D01*
X5857142Y7572143D01*
X5857142Y7429286D01*
X5809523Y7334048D01*
X5761904Y7286429D01*
X5666666Y7238810D01*
X5285714Y7238810D01*
X6238095Y7667381D02*
X6285714Y7715000D01*
X6380952Y7762620D01*
X6619047Y7762620D01*
X6714285Y7715000D01*
X6761904Y7667381D01*
X6809523Y7572143D01*
X6809523Y7476905D01*
X6761904Y7334048D01*
X6190476Y6762620D01*
X6809523Y6762620D01*
X7714285Y7762620D02*
X7238095Y7762620D01*
X7190476Y7286429D01*
X7238095Y7334048D01*
X7333333Y7381667D01*
X7571428Y7381667D01*
X7666666Y7334048D01*
X7714285Y7286429D01*
X7761904Y7191191D01*
X7761904Y6953096D01*
X7714285Y6857858D01*
X7666666Y6810239D01*
X7571428Y6762620D01*
X7333333Y6762620D01*
X7238095Y6810239D01*
X7190476Y6857858D01*
%TO.C,R26*%
X21507142Y8712620D02*
X21173809Y9188810D01*
X20935714Y8712620D02*
X20935714Y9712620D01*
X21316666Y9712620D01*
X21411904Y9665000D01*
X21459523Y9617381D01*
X21507142Y9522143D01*
X21507142Y9379286D01*
X21459523Y9284048D01*
X21411904Y9236429D01*
X21316666Y9188810D01*
X20935714Y9188810D01*
X21888095Y9617381D02*
X21935714Y9665000D01*
X22030952Y9712620D01*
X22269047Y9712620D01*
X22364285Y9665000D01*
X22411904Y9617381D01*
X22459523Y9522143D01*
X22459523Y9426905D01*
X22411904Y9284048D01*
X21840476Y8712620D01*
X22459523Y8712620D01*
X23316666Y9712620D02*
X23126190Y9712620D01*
X23030952Y9665000D01*
X22983333Y9617381D01*
X22888095Y9474524D01*
X22840476Y9284048D01*
X22840476Y8903096D01*
X22888095Y8807858D01*
X22935714Y8760239D01*
X23030952Y8712620D01*
X23221428Y8712620D01*
X23316666Y8760239D01*
X23364285Y8807858D01*
X23411904Y8903096D01*
X23411904Y9141191D01*
X23364285Y9236429D01*
X23316666Y9284048D01*
X23221428Y9331667D01*
X23030952Y9331667D01*
X22935714Y9284048D01*
X22888095Y9236429D01*
X22840476Y9141191D01*
%TO.C,R27*%
X21507142Y7462620D02*
X21173809Y7938810D01*
X20935714Y7462620D02*
X20935714Y8462620D01*
X21316666Y8462620D01*
X21411904Y8415000D01*
X21459523Y8367381D01*
X21507142Y8272143D01*
X21507142Y8129286D01*
X21459523Y8034048D01*
X21411904Y7986429D01*
X21316666Y7938810D01*
X20935714Y7938810D01*
X21888095Y8367381D02*
X21935714Y8415000D01*
X22030952Y8462620D01*
X22269047Y8462620D01*
X22364285Y8415000D01*
X22411904Y8367381D01*
X22459523Y8272143D01*
X22459523Y8176905D01*
X22411904Y8034048D01*
X21840476Y7462620D01*
X22459523Y7462620D01*
X22792857Y8462620D02*
X23459523Y8462620D01*
X23030952Y7462620D01*
%TO.C,R28*%
X21657142Y16912620D02*
X21323809Y17388810D01*
X21085714Y16912620D02*
X21085714Y17912620D01*
X21466666Y17912620D01*
X21561904Y17865000D01*
X21609523Y17817381D01*
X21657142Y17722143D01*
X21657142Y17579286D01*
X21609523Y17484048D01*
X21561904Y17436429D01*
X21466666Y17388810D01*
X21085714Y17388810D01*
X22038095Y17817381D02*
X22085714Y17865000D01*
X22180952Y17912620D01*
X22419047Y17912620D01*
X22514285Y17865000D01*
X22561904Y17817381D01*
X22609523Y17722143D01*
X22609523Y17626905D01*
X22561904Y17484048D01*
X21990476Y16912620D01*
X22609523Y16912620D01*
X23180952Y17484048D02*
X23085714Y17531667D01*
X23038095Y17579286D01*
X22990476Y17674524D01*
X22990476Y17722143D01*
X23038095Y17817381D01*
X23085714Y17865000D01*
X23180952Y17912620D01*
X23371428Y17912620D01*
X23466666Y17865000D01*
X23514285Y17817381D01*
X23561904Y17722143D01*
X23561904Y17674524D01*
X23514285Y17579286D01*
X23466666Y17531667D01*
X23371428Y17484048D01*
X23180952Y17484048D01*
X23085714Y17436429D01*
X23038095Y17388810D01*
X22990476Y17293572D01*
X22990476Y17103096D01*
X23038095Y17007858D01*
X23085714Y16960239D01*
X23180952Y16912620D01*
X23371428Y16912620D01*
X23466666Y16960239D01*
X23514285Y17007858D01*
X23561904Y17103096D01*
X23561904Y17293572D01*
X23514285Y17388810D01*
X23466666Y17436429D01*
X23371428Y17484048D01*
%TO.C,R29*%
X21657142Y15662620D02*
X21323809Y16138810D01*
X21085714Y15662620D02*
X21085714Y16662620D01*
X21466666Y16662620D01*
X21561904Y16615000D01*
X21609523Y16567381D01*
X21657142Y16472143D01*
X21657142Y16329286D01*
X21609523Y16234048D01*
X21561904Y16186429D01*
X21466666Y16138810D01*
X21085714Y16138810D01*
X22038095Y16567381D02*
X22085714Y16615000D01*
X22180952Y16662620D01*
X22419047Y16662620D01*
X22514285Y16615000D01*
X22561904Y16567381D01*
X22609523Y16472143D01*
X22609523Y16376905D01*
X22561904Y16234048D01*
X21990476Y15662620D01*
X22609523Y15662620D01*
X23085714Y15662620D02*
X23276190Y15662620D01*
X23371428Y15710239D01*
X23419047Y15757858D01*
X23514285Y15900715D01*
X23561904Y16091191D01*
X23561904Y16472143D01*
X23514285Y16567381D01*
X23466666Y16615000D01*
X23371428Y16662620D01*
X23180952Y16662620D01*
X23085714Y16615000D01*
X23038095Y16567381D01*
X22990476Y16472143D01*
X22990476Y16234048D01*
X23038095Y16138810D01*
X23085714Y16091191D01*
X23180952Y16043572D01*
X23371428Y16043572D01*
X23466666Y16091191D01*
X23514285Y16138810D01*
X23561904Y16234048D01*
%TO.C,R30*%
X17652380Y-14702857D02*
X17176190Y-15036190D01*
X17652380Y-15274285D02*
X16652380Y-15274285D01*
X16652380Y-14893333D01*
X16700000Y-14798095D01*
X16747619Y-14750476D01*
X16842857Y-14702857D01*
X16985714Y-14702857D01*
X17080952Y-14750476D01*
X17128571Y-14798095D01*
X17176190Y-14893333D01*
X17176190Y-15274285D01*
X16652380Y-14369523D02*
X16652380Y-13750476D01*
X17033333Y-14083809D01*
X17033333Y-13940952D01*
X17080952Y-13845714D01*
X17128571Y-13798095D01*
X17223809Y-13750476D01*
X17461904Y-13750476D01*
X17557142Y-13798095D01*
X17604761Y-13845714D01*
X17652380Y-13940952D01*
X17652380Y-14226666D01*
X17604761Y-14321904D01*
X17557142Y-14369523D01*
X16652380Y-13131428D02*
X16652380Y-13036190D01*
X16700000Y-12940952D01*
X16747619Y-12893333D01*
X16842857Y-12845714D01*
X17033333Y-12798095D01*
X17271428Y-12798095D01*
X17461904Y-12845714D01*
X17557142Y-12893333D01*
X17604761Y-12940952D01*
X17652380Y-13036190D01*
X17652380Y-13131428D01*
X17604761Y-13226666D01*
X17557142Y-13274285D01*
X17461904Y-13321904D01*
X17271428Y-13369523D01*
X17033333Y-13369523D01*
X16842857Y-13321904D01*
X16747619Y-13274285D01*
X16700000Y-13226666D01*
X16652380Y-13131428D01*
%TO.C,R31*%
X14977380Y-12477857D02*
X14501190Y-12811190D01*
X14977380Y-13049285D02*
X13977380Y-13049285D01*
X13977380Y-12668333D01*
X14025000Y-12573095D01*
X14072619Y-12525476D01*
X14167857Y-12477857D01*
X14310714Y-12477857D01*
X14405952Y-12525476D01*
X14453571Y-12573095D01*
X14501190Y-12668333D01*
X14501190Y-13049285D01*
X13977380Y-12144523D02*
X13977380Y-11525476D01*
X14358333Y-11858809D01*
X14358333Y-11715952D01*
X14405952Y-11620714D01*
X14453571Y-11573095D01*
X14548809Y-11525476D01*
X14786904Y-11525476D01*
X14882142Y-11573095D01*
X14929761Y-11620714D01*
X14977380Y-11715952D01*
X14977380Y-12001666D01*
X14929761Y-12096904D01*
X14882142Y-12144523D01*
X14977380Y-10573095D02*
X14977380Y-11144523D01*
X14977380Y-10858809D02*
X13977380Y-10858809D01*
X14120238Y-10954047D01*
X14215476Y-11049285D01*
X14263095Y-11144523D01*
%TO.C,R32*%
X13677380Y-12477857D02*
X13201190Y-12811190D01*
X13677380Y-13049285D02*
X12677380Y-13049285D01*
X12677380Y-12668333D01*
X12725000Y-12573095D01*
X12772619Y-12525476D01*
X12867857Y-12477857D01*
X13010714Y-12477857D01*
X13105952Y-12525476D01*
X13153571Y-12573095D01*
X13201190Y-12668333D01*
X13201190Y-13049285D01*
X12677380Y-12144523D02*
X12677380Y-11525476D01*
X13058333Y-11858809D01*
X13058333Y-11715952D01*
X13105952Y-11620714D01*
X13153571Y-11573095D01*
X13248809Y-11525476D01*
X13486904Y-11525476D01*
X13582142Y-11573095D01*
X13629761Y-11620714D01*
X13677380Y-11715952D01*
X13677380Y-12001666D01*
X13629761Y-12096904D01*
X13582142Y-12144523D01*
X12772619Y-11144523D02*
X12725000Y-11096904D01*
X12677380Y-11001666D01*
X12677380Y-10763571D01*
X12725000Y-10668333D01*
X12772619Y-10620714D01*
X12867857Y-10573095D01*
X12963095Y-10573095D01*
X13105952Y-10620714D01*
X13677380Y-11192142D01*
X13677380Y-10573095D01*
%TO.C,R33*%
X18107142Y-18887380D02*
X17773809Y-18411190D01*
X17535714Y-18887380D02*
X17535714Y-17887380D01*
X17916666Y-17887380D01*
X18011904Y-17935000D01*
X18059523Y-17982619D01*
X18107142Y-18077857D01*
X18107142Y-18220714D01*
X18059523Y-18315952D01*
X18011904Y-18363571D01*
X17916666Y-18411190D01*
X17535714Y-18411190D01*
X18440476Y-17887380D02*
X19059523Y-17887380D01*
X18726190Y-18268333D01*
X18869047Y-18268333D01*
X18964285Y-18315952D01*
X19011904Y-18363571D01*
X19059523Y-18458809D01*
X19059523Y-18696904D01*
X19011904Y-18792142D01*
X18964285Y-18839761D01*
X18869047Y-18887380D01*
X18583333Y-18887380D01*
X18488095Y-18839761D01*
X18440476Y-18792142D01*
X19392857Y-17887380D02*
X20011904Y-17887380D01*
X19678571Y-18268333D01*
X19821428Y-18268333D01*
X19916666Y-18315952D01*
X19964285Y-18363571D01*
X20011904Y-18458809D01*
X20011904Y-18696904D01*
X19964285Y-18792142D01*
X19916666Y-18839761D01*
X19821428Y-18887380D01*
X19535714Y-18887380D01*
X19440476Y-18839761D01*
X19392857Y-18792142D01*
%TO.C,R35*%
X-1492858Y-18387380D02*
X-1826191Y-17911190D01*
X-2064286Y-18387380D02*
X-2064286Y-17387380D01*
X-1683334Y-17387380D01*
X-1588096Y-17435000D01*
X-1540477Y-17482619D01*
X-1492858Y-17577857D01*
X-1492858Y-17720714D01*
X-1540477Y-17815952D01*
X-1588096Y-17863571D01*
X-1683334Y-17911190D01*
X-2064286Y-17911190D01*
X-1159524Y-17387380D02*
X-540477Y-17387380D01*
X-873810Y-17768333D01*
X-730953Y-17768333D01*
X-635715Y-17815952D01*
X-588096Y-17863571D01*
X-540477Y-17958809D01*
X-540477Y-18196904D01*
X-588096Y-18292142D01*
X-635715Y-18339761D01*
X-730953Y-18387380D01*
X-1016667Y-18387380D01*
X-1111905Y-18339761D01*
X-1159524Y-18292142D01*
X364285Y-17387380D02*
X-111905Y-17387380D01*
X-159524Y-17863571D01*
X-111905Y-17815952D01*
X-16667Y-17768333D01*
X221428Y-17768333D01*
X316666Y-17815952D01*
X364285Y-17863571D01*
X411904Y-17958809D01*
X411904Y-18196904D01*
X364285Y-18292142D01*
X316666Y-18339761D01*
X221428Y-18387380D01*
X-16667Y-18387380D01*
X-111905Y-18339761D01*
X-159524Y-18292142D01*
%TO.C,R36*%
X1427380Y-21427857D02*
X951190Y-21761190D01*
X1427380Y-21999285D02*
X427380Y-21999285D01*
X427380Y-21618333D01*
X475000Y-21523095D01*
X522619Y-21475476D01*
X617857Y-21427857D01*
X760714Y-21427857D01*
X855952Y-21475476D01*
X903571Y-21523095D01*
X951190Y-21618333D01*
X951190Y-21999285D01*
X427380Y-21094523D02*
X427380Y-20475476D01*
X808333Y-20808809D01*
X808333Y-20665952D01*
X855952Y-20570714D01*
X903571Y-20523095D01*
X998809Y-20475476D01*
X1236904Y-20475476D01*
X1332142Y-20523095D01*
X1379761Y-20570714D01*
X1427380Y-20665952D01*
X1427380Y-20951666D01*
X1379761Y-21046904D01*
X1332142Y-21094523D01*
X427380Y-19618333D02*
X427380Y-19808809D01*
X475000Y-19904047D01*
X522619Y-19951666D01*
X665476Y-20046904D01*
X855952Y-20094523D01*
X1236904Y-20094523D01*
X1332142Y-20046904D01*
X1379761Y-19999285D01*
X1427380Y-19904047D01*
X1427380Y-19713571D01*
X1379761Y-19618333D01*
X1332142Y-19570714D01*
X1236904Y-19523095D01*
X998809Y-19523095D01*
X903571Y-19570714D01*
X855952Y-19618333D01*
X808333Y-19713571D01*
X808333Y-19904047D01*
X855952Y-19999285D01*
X903571Y-20046904D01*
X998809Y-20094523D01*
%TO.C,R37*%
X-1617858Y-15137380D02*
X-1951191Y-14661190D01*
X-2189286Y-15137380D02*
X-2189286Y-14137380D01*
X-1808334Y-14137380D01*
X-1713096Y-14185000D01*
X-1665477Y-14232619D01*
X-1617858Y-14327857D01*
X-1617858Y-14470714D01*
X-1665477Y-14565952D01*
X-1713096Y-14613571D01*
X-1808334Y-14661190D01*
X-2189286Y-14661190D01*
X-1284524Y-14137380D02*
X-665477Y-14137380D01*
X-998810Y-14518333D01*
X-855953Y-14518333D01*
X-760715Y-14565952D01*
X-713096Y-14613571D01*
X-665477Y-14708809D01*
X-665477Y-14946904D01*
X-713096Y-15042142D01*
X-760715Y-15089761D01*
X-855953Y-15137380D01*
X-1141667Y-15137380D01*
X-1236905Y-15089761D01*
X-1284524Y-15042142D01*
X-332143Y-14137380D02*
X334523Y-14137380D01*
X-94048Y-15137380D01*
%TO.C,R38*%
X-1592858Y-16887380D02*
X-1926191Y-16411190D01*
X-2164286Y-16887380D02*
X-2164286Y-15887380D01*
X-1783334Y-15887380D01*
X-1688096Y-15935000D01*
X-1640477Y-15982619D01*
X-1592858Y-16077857D01*
X-1592858Y-16220714D01*
X-1640477Y-16315952D01*
X-1688096Y-16363571D01*
X-1783334Y-16411190D01*
X-2164286Y-16411190D01*
X-1259524Y-15887380D02*
X-640477Y-15887380D01*
X-973810Y-16268333D01*
X-830953Y-16268333D01*
X-735715Y-16315952D01*
X-688096Y-16363571D01*
X-640477Y-16458809D01*
X-640477Y-16696904D01*
X-688096Y-16792142D01*
X-735715Y-16839761D01*
X-830953Y-16887380D01*
X-1116667Y-16887380D01*
X-1211905Y-16839761D01*
X-1259524Y-16792142D01*
X-69048Y-16315952D02*
X-164286Y-16268333D01*
X-211905Y-16220714D01*
X-259524Y-16125476D01*
X-259524Y-16077857D01*
X-211905Y-15982619D01*
X-164286Y-15935000D01*
X-69048Y-15887380D01*
X121428Y-15887380D01*
X216666Y-15935000D01*
X264285Y-15982619D01*
X311904Y-16077857D01*
X311904Y-16125476D01*
X264285Y-16220714D01*
X216666Y-16268333D01*
X121428Y-16315952D01*
X-69048Y-16315952D01*
X-164286Y-16363571D01*
X-211905Y-16411190D01*
X-259524Y-16506428D01*
X-259524Y-16696904D01*
X-211905Y-16792142D01*
X-164286Y-16839761D01*
X-69048Y-16887380D01*
X121428Y-16887380D01*
X216666Y-16839761D01*
X264285Y-16792142D01*
X311904Y-16696904D01*
X311904Y-16506428D01*
X264285Y-16411190D01*
X216666Y-16363571D01*
X121428Y-16315952D01*
%TO.C,R39*%
X5207142Y-24887380D02*
X4873809Y-24411190D01*
X4635714Y-24887380D02*
X4635714Y-23887380D01*
X5016666Y-23887380D01*
X5111904Y-23935000D01*
X5159523Y-23982619D01*
X5207142Y-24077857D01*
X5207142Y-24220714D01*
X5159523Y-24315952D01*
X5111904Y-24363571D01*
X5016666Y-24411190D01*
X4635714Y-24411190D01*
X5540476Y-23887380D02*
X6159523Y-23887380D01*
X5826190Y-24268333D01*
X5969047Y-24268333D01*
X6064285Y-24315952D01*
X6111904Y-24363571D01*
X6159523Y-24458809D01*
X6159523Y-24696904D01*
X6111904Y-24792142D01*
X6064285Y-24839761D01*
X5969047Y-24887380D01*
X5683333Y-24887380D01*
X5588095Y-24839761D01*
X5540476Y-24792142D01*
X6635714Y-24887380D02*
X6826190Y-24887380D01*
X6921428Y-24839761D01*
X6969047Y-24792142D01*
X7064285Y-24649285D01*
X7111904Y-24458809D01*
X7111904Y-24077857D01*
X7064285Y-23982619D01*
X7016666Y-23935000D01*
X6921428Y-23887380D01*
X6730952Y-23887380D01*
X6635714Y-23935000D01*
X6588095Y-23982619D01*
X6540476Y-24077857D01*
X6540476Y-24315952D01*
X6588095Y-24411190D01*
X6635714Y-24458809D01*
X6730952Y-24506428D01*
X6921428Y-24506428D01*
X7016666Y-24458809D01*
X7064285Y-24411190D01*
X7111904Y-24315952D01*
%TO.C,R40*%
X1057142Y-24262380D02*
X723809Y-23786190D01*
X485714Y-24262380D02*
X485714Y-23262380D01*
X866666Y-23262380D01*
X961904Y-23310000D01*
X1009523Y-23357619D01*
X1057142Y-23452857D01*
X1057142Y-23595714D01*
X1009523Y-23690952D01*
X961904Y-23738571D01*
X866666Y-23786190D01*
X485714Y-23786190D01*
X1914285Y-23595714D02*
X1914285Y-24262380D01*
X1676190Y-23214761D02*
X1438095Y-23929047D01*
X2057142Y-23929047D01*
X2628571Y-23262380D02*
X2723809Y-23262380D01*
X2819047Y-23310000D01*
X2866666Y-23357619D01*
X2914285Y-23452857D01*
X2961904Y-23643333D01*
X2961904Y-23881428D01*
X2914285Y-24071904D01*
X2866666Y-24167142D01*
X2819047Y-24214761D01*
X2723809Y-24262380D01*
X2628571Y-24262380D01*
X2533333Y-24214761D01*
X2485714Y-24167142D01*
X2438095Y-24071904D01*
X2390476Y-23881428D01*
X2390476Y-23643333D01*
X2438095Y-23452857D01*
X2485714Y-23357619D01*
X2533333Y-23310000D01*
X2628571Y-23262380D01*
%TO.C,TP1*%
X133198775Y-28740100D02*
X133770203Y-28740100D01*
X133484489Y-29740100D02*
X133484489Y-28740100D01*
X134103537Y-29740100D02*
X134103537Y-28740100D01*
X134484489Y-28740100D01*
X134579727Y-28787720D01*
X134627346Y-28835339D01*
X134674965Y-28930577D01*
X134674965Y-29073434D01*
X134627346Y-29168672D01*
X134579727Y-29216291D01*
X134484489Y-29263910D01*
X134103537Y-29263910D01*
X135627346Y-29740100D02*
X135055918Y-29740100D01*
X135341632Y-29740100D02*
X135341632Y-28740100D01*
X135246394Y-28882958D01*
X135151156Y-28978196D01*
X135055918Y-29025815D01*
%TO.C,TP2*%
X37798775Y11109900D02*
X38370203Y11109900D01*
X38084489Y10109900D02*
X38084489Y11109900D01*
X38703537Y10109900D02*
X38703537Y11109900D01*
X39084489Y11109900D01*
X39179727Y11062280D01*
X39227346Y11014661D01*
X39274965Y10919423D01*
X39274965Y10776566D01*
X39227346Y10681328D01*
X39179727Y10633709D01*
X39084489Y10586090D01*
X38703537Y10586090D01*
X39655918Y11014661D02*
X39703537Y11062280D01*
X39798775Y11109900D01*
X40036870Y11109900D01*
X40132108Y11062280D01*
X40179727Y11014661D01*
X40227346Y10919423D01*
X40227346Y10824185D01*
X40179727Y10681328D01*
X39608299Y10109900D01*
X40227346Y10109900D01*
%TO.C,TP3*%
X76913095Y16987620D02*
X77484523Y16987620D01*
X77198809Y15987620D02*
X77198809Y16987620D01*
X77817857Y15987620D02*
X77817857Y16987620D01*
X78198809Y16987620D01*
X78294047Y16940000D01*
X78341666Y16892381D01*
X78389285Y16797143D01*
X78389285Y16654286D01*
X78341666Y16559048D01*
X78294047Y16511429D01*
X78198809Y16463810D01*
X77817857Y16463810D01*
X78722619Y16987620D02*
X79341666Y16987620D01*
X79008333Y16606667D01*
X79151190Y16606667D01*
X79246428Y16559048D01*
X79294047Y16511429D01*
X79341666Y16416191D01*
X79341666Y16178096D01*
X79294047Y16082858D01*
X79246428Y16035239D01*
X79151190Y15987620D01*
X78865476Y15987620D01*
X78770238Y16035239D01*
X78722619Y16082858D01*
%TO.C,TP4*%
X58063095Y14287620D02*
X58634523Y14287620D01*
X58348809Y13287620D02*
X58348809Y14287620D01*
X58967857Y13287620D02*
X58967857Y14287620D01*
X59348809Y14287620D01*
X59444047Y14240000D01*
X59491666Y14192381D01*
X59539285Y14097143D01*
X59539285Y13954286D01*
X59491666Y13859048D01*
X59444047Y13811429D01*
X59348809Y13763810D01*
X58967857Y13763810D01*
X60396428Y13954286D02*
X60396428Y13287620D01*
X60158333Y14335239D02*
X59920238Y13620953D01*
X60539285Y13620953D01*
%TO.C,TP5*%
X117113095Y18287620D02*
X117684523Y18287620D01*
X117398809Y17287620D02*
X117398809Y18287620D01*
X118017857Y17287620D02*
X118017857Y18287620D01*
X118398809Y18287620D01*
X118494047Y18240000D01*
X118541666Y18192381D01*
X118589285Y18097143D01*
X118589285Y17954286D01*
X118541666Y17859048D01*
X118494047Y17811429D01*
X118398809Y17763810D01*
X118017857Y17763810D01*
X119494047Y18287620D02*
X119017857Y18287620D01*
X118970238Y17811429D01*
X119017857Y17859048D01*
X119113095Y17906667D01*
X119351190Y17906667D01*
X119446428Y17859048D01*
X119494047Y17811429D01*
X119541666Y17716191D01*
X119541666Y17478096D01*
X119494047Y17382858D01*
X119446428Y17335239D01*
X119351190Y17287620D01*
X119113095Y17287620D01*
X119017857Y17335239D01*
X118970238Y17382858D01*
%TO.C,TP6*%
X138888095Y21812620D02*
X139459523Y21812620D01*
X139173809Y20812620D02*
X139173809Y21812620D01*
X139792857Y20812620D02*
X139792857Y21812620D01*
X140173809Y21812620D01*
X140269047Y21765000D01*
X140316666Y21717381D01*
X140364285Y21622143D01*
X140364285Y21479286D01*
X140316666Y21384048D01*
X140269047Y21336429D01*
X140173809Y21288810D01*
X139792857Y21288810D01*
X141221428Y21812620D02*
X141030952Y21812620D01*
X140935714Y21765000D01*
X140888095Y21717381D01*
X140792857Y21574524D01*
X140745238Y21384048D01*
X140745238Y21003096D01*
X140792857Y20907858D01*
X140840476Y20860239D01*
X140935714Y20812620D01*
X141126190Y20812620D01*
X141221428Y20860239D01*
X141269047Y20907858D01*
X141316666Y21003096D01*
X141316666Y21241191D01*
X141269047Y21336429D01*
X141221428Y21384048D01*
X141126190Y21431667D01*
X140935714Y21431667D01*
X140840476Y21384048D01*
X140792857Y21336429D01*
X140745238Y21241191D01*
%TO.C,TP8*%
X97088095Y18237620D02*
X97659523Y18237620D01*
X97373809Y17237620D02*
X97373809Y18237620D01*
X97992857Y17237620D02*
X97992857Y18237620D01*
X98373809Y18237620D01*
X98469047Y18190000D01*
X98516666Y18142381D01*
X98564285Y18047143D01*
X98564285Y17904286D01*
X98516666Y17809048D01*
X98469047Y17761429D01*
X98373809Y17713810D01*
X97992857Y17713810D01*
X99135714Y17809048D02*
X99040476Y17856667D01*
X98992857Y17904286D01*
X98945238Y17999524D01*
X98945238Y18047143D01*
X98992857Y18142381D01*
X99040476Y18190000D01*
X99135714Y18237620D01*
X99326190Y18237620D01*
X99421428Y18190000D01*
X99469047Y18142381D01*
X99516666Y18047143D01*
X99516666Y17999524D01*
X99469047Y17904286D01*
X99421428Y17856667D01*
X99326190Y17809048D01*
X99135714Y17809048D01*
X99040476Y17761429D01*
X98992857Y17713810D01*
X98945238Y17618572D01*
X98945238Y17428096D01*
X98992857Y17332858D01*
X99040476Y17285239D01*
X99135714Y17237620D01*
X99326190Y17237620D01*
X99421428Y17285239D01*
X99469047Y17332858D01*
X99516666Y17428096D01*
X99516666Y17618572D01*
X99469047Y17713810D01*
X99421428Y17761429D01*
X99326190Y17809048D01*
%TO.C,TP9*%
X142288095Y21812620D02*
X142859523Y21812620D01*
X142573809Y20812620D02*
X142573809Y21812620D01*
X143192857Y20812620D02*
X143192857Y21812620D01*
X143573809Y21812620D01*
X143669047Y21765000D01*
X143716666Y21717381D01*
X143764285Y21622143D01*
X143764285Y21479286D01*
X143716666Y21384048D01*
X143669047Y21336429D01*
X143573809Y21288810D01*
X143192857Y21288810D01*
X144240476Y20812620D02*
X144430952Y20812620D01*
X144526190Y20860239D01*
X144573809Y20907858D01*
X144669047Y21050715D01*
X144716666Y21241191D01*
X144716666Y21622143D01*
X144669047Y21717381D01*
X144621428Y21765000D01*
X144526190Y21812620D01*
X144335714Y21812620D01*
X144240476Y21765000D01*
X144192857Y21717381D01*
X144145238Y21622143D01*
X144145238Y21384048D01*
X144192857Y21288810D01*
X144240476Y21241191D01*
X144335714Y21193572D01*
X144526190Y21193572D01*
X144621428Y21241191D01*
X144669047Y21288810D01*
X144716666Y21384048D01*
%TO.C,TP11*%
X16261904Y20462620D02*
X16833333Y20462620D01*
X16547619Y19462620D02*
X16547619Y20462620D01*
X17166666Y19462620D02*
X17166666Y20462620D01*
X17547619Y20462620D01*
X17642857Y20415000D01*
X17690476Y20367381D01*
X17738095Y20272143D01*
X17738095Y20129286D01*
X17690476Y20034048D01*
X17642857Y19986429D01*
X17547619Y19938810D01*
X17166666Y19938810D01*
X18690476Y19462620D02*
X18119047Y19462620D01*
X18404761Y19462620D02*
X18404761Y20462620D01*
X18309523Y20319762D01*
X18214285Y20224524D01*
X18119047Y20176905D01*
X19642857Y19462620D02*
X19071428Y19462620D01*
X19357142Y19462620D02*
X19357142Y20462620D01*
X19261904Y20319762D01*
X19166666Y20224524D01*
X19071428Y20176905D01*
%TO.C,U2*%
X13488095Y17222620D02*
X13488095Y16413096D01*
X13535714Y16317858D01*
X13583333Y16270239D01*
X13678571Y16222620D01*
X13869047Y16222620D01*
X13964285Y16270239D01*
X14011904Y16317858D01*
X14059523Y16413096D01*
X14059523Y17222620D01*
X14488095Y17127381D02*
X14535714Y17175000D01*
X14630952Y17222620D01*
X14869047Y17222620D01*
X14964285Y17175000D01*
X15011904Y17127381D01*
X15059523Y17032143D01*
X15059523Y16936905D01*
X15011904Y16794048D01*
X14440476Y16222620D01*
X15059523Y16222620D01*
%TO.C,J6*%
X25826906Y8913820D02*
X25826906Y8199534D01*
X25779287Y8056677D01*
X25684049Y7961439D01*
X25541192Y7913820D01*
X25445954Y7913820D01*
X26731668Y8913820D02*
X26541192Y8913820D01*
X26445954Y8866200D01*
X26398335Y8818581D01*
X26303097Y8675724D01*
X26255478Y8485248D01*
X26255478Y8104296D01*
X26303097Y8009058D01*
X26350716Y7961439D01*
X26445954Y7913820D01*
X26636430Y7913820D01*
X26731668Y7961439D01*
X26779287Y8009058D01*
X26826906Y8104296D01*
X26826906Y8342391D01*
X26779287Y8437629D01*
X26731668Y8485248D01*
X26636430Y8532867D01*
X26445954Y8532867D01*
X26350716Y8485248D01*
X26303097Y8437629D01*
X26255478Y8342391D01*
%TO.C,H1*%
X-461905Y3697620D02*
X-461905Y4697620D01*
X-461905Y4221429D02*
X109523Y4221429D01*
X109523Y3697620D02*
X109523Y4697620D01*
X1109523Y3697620D02*
X538095Y3697620D01*
X823809Y3697620D02*
X823809Y4697620D01*
X728571Y4554762D01*
X633333Y4459524D01*
X538095Y4411905D01*
%TO.C,H2*%
X133438095Y3697620D02*
X133438095Y4697620D01*
X133438095Y4221429D02*
X134009523Y4221429D01*
X134009523Y3697620D02*
X134009523Y4697620D01*
X134438095Y4602381D02*
X134485714Y4650000D01*
X134580952Y4697620D01*
X134819047Y4697620D01*
X134914285Y4650000D01*
X134961904Y4602381D01*
X135009523Y4507143D01*
X135009523Y4411905D01*
X134961904Y4269048D01*
X134390476Y3697620D01*
X135009523Y3697620D01*
%TO.C,U3*%
X12302380Y-17896904D02*
X13111904Y-17896904D01*
X13207142Y-17849285D01*
X13254761Y-17801666D01*
X13302380Y-17706428D01*
X13302380Y-17515952D01*
X13254761Y-17420714D01*
X13207142Y-17373095D01*
X13111904Y-17325476D01*
X12302380Y-17325476D01*
X12302380Y-16944523D02*
X12302380Y-16325476D01*
X12683333Y-16658809D01*
X12683333Y-16515952D01*
X12730952Y-16420714D01*
X12778571Y-16373095D01*
X12873809Y-16325476D01*
X13111904Y-16325476D01*
X13207142Y-16373095D01*
X13254761Y-16420714D01*
X13302380Y-16515952D01*
X13302380Y-16801666D01*
X13254761Y-16896904D01*
X13207142Y-16944523D01*
%TD*%
M02*
