%TF.GenerationSoftware,KiCad,Pcbnew,(5.1.6)-1*%
%TF.CreationDate,2022-02-23T11:46:10+01:00*%
%TF.ProjectId,Riser Leopard 2OU PCIe x8 4xOculink,52697365-7220-44c6-956f-706172642032,rev?*%
%TF.SameCoordinates,PX459e440PY54cbc38*%
%TF.FileFunction,Copper,L3,Inr*%
%TF.FilePolarity,Positive*%
%FSLAX46Y46*%
G04 Gerber Fmt 4.6, Leading zero omitted, Abs format (unit mm)*
G04 Created by KiCad (PCBNEW (5.1.6)-1) date 2022-02-23 11:46:10*
%MOMM*%
%LPD*%
G01*
G04 APERTURE LIST*
%TA.AperFunction,ViaPad*%
%ADD10C,1.500000*%
%TD*%
%TA.AperFunction,WasherPad*%
%ADD11C,1.100000*%
%TD*%
%TA.AperFunction,WasherPad*%
%ADD12C,1.250000*%
%TD*%
%TA.AperFunction,ViaPad*%
%ADD13C,1.450000*%
%TD*%
%TA.AperFunction,ViaPad*%
%ADD14C,1.100000*%
%TD*%
%TA.AperFunction,ViaPad*%
%ADD15R,1.100000X1.100000*%
%TD*%
%TA.AperFunction,WasherPad*%
%ADD16C,2.600000*%
%TD*%
%TA.AperFunction,ViaPad*%
%ADD17C,6.400000*%
%TD*%
%TA.AperFunction,ViaPad*%
%ADD18C,0.800000*%
%TD*%
%TA.AperFunction,ViaPad*%
%ADD19C,0.350000*%
%TD*%
%TA.AperFunction,ViaPad*%
%ADD20C,0.500000*%
%TD*%
%TA.AperFunction,ViaPad*%
%ADD21C,0.600000*%
%TD*%
%TA.AperFunction,ViaPad*%
%ADD22C,0.400000*%
%TD*%
%TA.AperFunction,Conductor*%
%ADD23C,0.400000*%
%TD*%
%TA.AperFunction,Conductor*%
%ADD24C,0.200000*%
%TD*%
%TA.AperFunction,Conductor*%
%ADD25C,0.152400*%
%TD*%
%TA.AperFunction,Conductor*%
%ADD26C,0.254000*%
%TD*%
G04 APERTURE END LIST*
D10*
%TO.N,GND*%
%TO.C,J2*%
X80820000Y19385000D03*
X93980000Y19385000D03*
D11*
%TO.N,*%
X81780000Y18125000D03*
D12*
X93680000Y17765000D03*
%TD*%
%TO.N,*%
%TO.C,J3*%
X73680000Y17765000D03*
D11*
X61780000Y18125000D03*
D10*
%TO.N,GND*%
X73980000Y19385000D03*
D13*
X60820000Y19385000D03*
%TD*%
D12*
%TO.N,*%
%TO.C,J4*%
X133680000Y17765000D03*
D11*
X121780000Y18125000D03*
D10*
%TO.N,GND*%
X133980000Y19385000D03*
X120820000Y19385000D03*
%TD*%
%TO.N,GND*%
%TO.C,J5*%
X100820000Y19385000D03*
X113980000Y19385000D03*
D11*
%TO.N,*%
X101780000Y18125000D03*
D12*
X113680000Y17765000D03*
%TD*%
D14*
%TO.N,GND*%
%TO.C,J6*%
X66090000Y7095000D03*
X69090000Y5095000D03*
X73090000Y5095000D03*
%TO.N,/CPU0_RX6-*%
X72090000Y7095000D03*
%TO.N,/CPU0_RX6+*%
X71090000Y5095000D03*
%TO.N,GND*%
X70090000Y7095000D03*
%TO.N,/CPU0_RX5-*%
X68090000Y7095000D03*
%TO.N,/CPU0_RX5+*%
X67090000Y5095000D03*
%TO.N,GND*%
X60090000Y595000D03*
%TO.N,/CPU0_TX5-*%
X66090000Y595000D03*
%TO.N,/LAN_SMB_ALERT_N*%
X40090000Y595000D03*
%TO.N,IRQ_LVC_WAKE_N*%
X37090000Y2595000D03*
%TO.N,GND*%
X54090000Y595000D03*
%TO.N,/CPU0_TX1-*%
X48090000Y595000D03*
%TO.N,/CPU0_TX0+*%
X42090000Y595000D03*
%TO.N,GND*%
X44090000Y595000D03*
%TO.N,+12V*%
X27090000Y2595000D03*
%TO.N,GND*%
X46090000Y595000D03*
%TO.N,/CPU0_TX2-*%
X52090000Y595000D03*
%TO.N,GND*%
X49090000Y2595000D03*
%TO.N,+12V*%
X29090000Y2595000D03*
%TO.N,Net-(J6-PadB9)*%
X35090000Y2595000D03*
%TO.N,GND*%
X30090000Y595000D03*
%TO.N,/CPU0_TX5+*%
X65090000Y2595000D03*
%TO.N,GND*%
X63090000Y2595000D03*
%TO.N,/CPU0_TX4+*%
X61090000Y2595000D03*
%TO.N,/CPU0_TX3+*%
X55090000Y2595000D03*
%TO.N,PCIe_SMB_CLK*%
X31090000Y2595000D03*
%TO.N,/CPU0_TX1+*%
X47090000Y2595000D03*
%TO.N,GND*%
X53090000Y2595000D03*
%TO.N,/CPU0_TX0-*%
X43090000Y2595000D03*
%TO.N,+3.3Vaux*%
X36090000Y595000D03*
%TO.N,GND*%
X64090000Y595000D03*
%TO.N,+3V3*%
X34090000Y595000D03*
%TO.N,/CPU0_TX2+*%
X51090000Y2595000D03*
%TO.N,GND*%
X50090000Y595000D03*
%TO.N,PCIe_SMB_DATA*%
X32090000Y595000D03*
%TO.N,/PCIE_SLOT0_PRSNT_x4*%
X45090000Y2595000D03*
%TO.N,+12V*%
X28090000Y595000D03*
%TO.N,GND*%
X41090000Y2595000D03*
%TO.N,/CPU0_TX4-*%
X62090000Y595000D03*
%TO.N,GND*%
X57090000Y2595000D03*
%TO.N,/PCIE_SLOT0_PRSNT_x4*%
X59090000Y2595000D03*
%TO.N,Net-(J6-PadB30)*%
X58090000Y595000D03*
%TO.N,/CPU0_TX3-*%
X56090000Y595000D03*
%TO.N,GND*%
X33090000Y2595000D03*
%TO.N,CLK100_SLOT1-*%
X42090000Y7095000D03*
%TO.N,CLK100_SLOT1+*%
X41090000Y5095000D03*
%TO.N,GND*%
X43090000Y5095000D03*
X52090000Y7095000D03*
%TO.N,/CPU0_RX3+*%
X57090000Y5095000D03*
%TO.N,GND*%
X55090000Y5095000D03*
X56090000Y7095000D03*
%TO.N,/CPU0_RX2-*%
X54090000Y7095000D03*
%TO.N,GND*%
X51090000Y5095000D03*
%TO.N,/CPU0_RX2+*%
X53090000Y5095000D03*
%TO.N,/CPU0_RX1-*%
X50090000Y7095000D03*
%TO.N,GND*%
X75090000Y2595000D03*
%TO.N,/CPU0_TX7-*%
X74090000Y595000D03*
%TO.N,/CPU0_TX7+*%
X73090000Y2595000D03*
%TO.N,GND*%
X77090000Y2595000D03*
%TO.N,/CPU0_TX6-*%
X70090000Y595000D03*
%TO.N,GND*%
X68090000Y595000D03*
X71090000Y2595000D03*
%TO.N,/CPU0_TX6+*%
X69090000Y2595000D03*
%TO.N,/PCIE_SLOT0_PRSNT_x8*%
X76090000Y595000D03*
%TO.N,GND*%
X72090000Y595000D03*
X67090000Y2595000D03*
X59090000Y5095000D03*
%TO.N,/CPU0_RX4+*%
X63090000Y5095000D03*
%TO.N,GND*%
X62090000Y7095000D03*
%TO.N,/LAN_SMB_DAT*%
X61090000Y5095000D03*
%TO.N,GND*%
X65090000Y5095000D03*
%TO.N,/LAN_SMB_CLK*%
X60090000Y7095000D03*
%TO.N,/CPU0_RX3-*%
X58090000Y7095000D03*
%TO.N,/CPU0_RX4-*%
X64090000Y7095000D03*
%TO.N,/CPU0_RX1+*%
X49090000Y5095000D03*
%TO.N,GND*%
X48090000Y7095000D03*
%TO.N,Net-(J6-PadA19)*%
X47090000Y5095000D03*
%TO.N,Net-(J6-PadA7)*%
X33090000Y5095000D03*
%TO.N,Net-(J6-PadA8)*%
X34090000Y7095000D03*
%TO.N,Net-(J6-PadA5)*%
X31090000Y5095000D03*
%TO.N,Net-(J6-PadA6)*%
X32090000Y7095000D03*
%TO.N,+3V3*%
X35090000Y5095000D03*
%TO.N,GND*%
X40090000Y7095000D03*
%TO.N,RST_PERST0_N*%
X37090000Y5095000D03*
%TO.N,+3V3*%
X36090000Y7095000D03*
D15*
%TO.N,/PCIE_SLOT_PRSNT#1*%
X27090000Y5095000D03*
D14*
%TO.N,+12V*%
X28090000Y7095000D03*
%TO.N,GND*%
X30090000Y7095000D03*
%TO.N,+12V*%
X29090000Y5095000D03*
D16*
%TO.N,*%
X78890000Y3845000D03*
X38740000Y3845000D03*
D14*
%TO.N,GND*%
X77090000Y5095000D03*
%TO.N,/CPU0_RX7+*%
X75090000Y5095000D03*
%TO.N,GND*%
X74090000Y7095000D03*
%TO.N,/CPU0_RX7-*%
X76090000Y7095000D03*
%TO.N,/CPU0_RX0+*%
X44090000Y7095000D03*
%TO.N,GND*%
X46090000Y7095000D03*
%TO.N,/CPU0_RX0-*%
X45090000Y5095000D03*
%TD*%
D17*
%TO.N,GND*%
%TO.C,H1*%
X0Y0D03*
D18*
X2400000Y0D03*
X-1697056Y-1697056D03*
X1697056Y-1697056D03*
X0Y-2400000D03*
X-2400000Y0D03*
X1697056Y1697056D03*
X0Y2400000D03*
X-1697056Y1697056D03*
%TD*%
%TO.N,GND*%
%TO.C,H2*%
X132202944Y1697056D03*
X133900000Y2400000D03*
X135597056Y1697056D03*
X131500000Y0D03*
X133900000Y-2400000D03*
X135597056Y-1697056D03*
X132202944Y-1697056D03*
X136300000Y0D03*
D17*
X133900000Y0D03*
%TD*%
D19*
%TO.N,+12V*%
X75450000Y25340000D03*
X59850000Y25840000D03*
X95450000Y25590000D03*
X115450000Y25590000D03*
X135450000Y25840000D03*
X79850000Y25340000D03*
X99850000Y25590000D03*
X119850000Y25590000D03*
X144600000Y22565000D03*
D20*
X18050000Y-31485000D03*
X18050000Y-32485000D03*
X18050000Y-33485000D03*
X18050000Y-34485000D03*
X18050000Y-35485000D03*
X18050000Y-36485000D03*
X18050000Y-37485000D03*
X18050000Y-38485000D03*
X18050000Y-39485000D03*
X18050000Y-40485000D03*
X30150000Y26965000D03*
X31150000Y26965000D03*
X32150000Y26965000D03*
X33150000Y26965000D03*
X34150000Y26965000D03*
X35150000Y26965000D03*
X36150000Y26965000D03*
X37150000Y26965000D03*
X38150000Y26965000D03*
X39150000Y26965000D03*
X30150000Y25965000D03*
X31150000Y25965000D03*
X32150000Y25965000D03*
X33150000Y25965000D03*
X34150000Y25965000D03*
X35150000Y25965000D03*
X36150000Y25965000D03*
X37150000Y25965000D03*
X38150000Y25965000D03*
X39150000Y25965000D03*
X30150000Y24965000D03*
X31150000Y24965000D03*
X32150000Y24965000D03*
X33150000Y24965000D03*
X34150000Y24965000D03*
X35150000Y24965000D03*
X36150000Y24965000D03*
X37150000Y24965000D03*
X38150000Y24965000D03*
X39150000Y24965000D03*
X30150000Y23965000D03*
X31150000Y23965000D03*
X32150000Y23965000D03*
X33150000Y23965000D03*
X34150000Y23965000D03*
X35150000Y23965000D03*
X36150000Y23965000D03*
X37150000Y23965000D03*
X38150000Y23965000D03*
X39150000Y23965000D03*
X19750000Y1015000D03*
X21250000Y1015000D03*
X22750000Y1015000D03*
X19750000Y-485000D03*
X21250000Y-485000D03*
X22750000Y-485000D03*
X19750000Y-1985000D03*
X21250000Y-1985000D03*
X22750000Y-1985000D03*
X19750000Y-3485000D03*
X21250000Y-3485000D03*
X22750000Y-3485000D03*
X19750000Y-4985000D03*
X21250000Y-4985000D03*
X22750000Y-4985000D03*
X24850000Y-635000D03*
X26350000Y-635000D03*
X27850000Y-635000D03*
X29350000Y-635000D03*
D19*
%TO.N,GND*%
X13225000Y13915000D03*
D21*
X130200000Y-43085000D03*
X128200000Y-43085000D03*
X126200000Y-43085000D03*
X124200000Y-43085000D03*
X122200000Y-43085000D03*
X120200000Y-43085000D03*
X118200000Y-43085000D03*
X116200000Y-43085000D03*
X114200000Y-43085000D03*
X112200000Y-43085000D03*
X110200000Y-43085000D03*
X108200000Y-43085000D03*
X106200000Y-43085000D03*
X104200000Y-43085000D03*
X102200000Y-43085000D03*
X99700000Y-43085000D03*
X97200000Y-43085000D03*
X95200000Y-43085000D03*
X93200000Y-43085000D03*
X91200000Y-43085000D03*
X89200000Y-43085000D03*
X87200000Y-43085000D03*
X85200000Y-43085000D03*
X83200000Y-43085000D03*
X81200000Y-43085000D03*
X79200000Y-43085000D03*
X77200000Y-43085000D03*
X75200000Y-43085000D03*
X73200000Y-43085000D03*
X71200000Y-43085000D03*
X69200000Y-43085000D03*
X64200000Y-43085000D03*
X62200000Y-43085000D03*
X60200000Y-43085000D03*
X58200000Y-43085000D03*
X56200000Y-43085000D03*
X54200000Y-43085000D03*
X52200000Y-43085000D03*
X35700000Y-43085000D03*
X33200000Y-43085000D03*
X30450000Y-43085000D03*
X49200000Y-43085000D03*
X46200000Y-43085000D03*
X44200000Y-43085000D03*
X42200000Y-43085000D03*
X40200000Y-43085000D03*
X38200000Y-43085000D03*
D19*
X63400000Y23570000D03*
X69175000Y12195000D03*
X65275000Y23570000D03*
X70700000Y23495000D03*
X68900000Y23495000D03*
D22*
X70150000Y21270000D03*
X68650000Y21270000D03*
X60875000Y23495000D03*
X69160000Y16670000D03*
X70660000Y16670000D03*
X64150000Y21270000D03*
X65650000Y21270000D03*
X67150000Y21270000D03*
X67660000Y16670000D03*
X64660000Y16670000D03*
X66160000Y16670000D03*
X80875000Y23495000D03*
X100875000Y23495000D03*
X120875000Y23495000D03*
X89160000Y16670000D03*
X109160000Y16670000D03*
X129160000Y16670000D03*
X87660000Y16670000D03*
X107660000Y16670000D03*
X127660000Y16670000D03*
X84660000Y16670000D03*
X104660000Y16670000D03*
X124660000Y16670000D03*
X87150000Y21520000D03*
X107140000Y21520000D03*
X127140000Y21520000D03*
D21*
X82000000Y12820000D03*
X102000000Y13320000D03*
X122000000Y13320000D03*
D19*
X89050000Y15070000D03*
X109050000Y15070000D03*
X129050000Y15070000D03*
D22*
X90660000Y16670000D03*
X110660000Y16670000D03*
X130660000Y16670000D03*
X133425000Y23520000D03*
X86160000Y16670000D03*
X106160000Y16670000D03*
X126160000Y16670000D03*
D19*
X107750000Y15070000D03*
X127750000Y15070000D03*
X87750000Y15070000D03*
X67625000Y12195000D03*
D21*
X66700000Y-43085000D03*
X66800000Y-37035000D03*
X97250000Y-40235000D03*
X132075000Y-41660000D03*
X22600000Y-43335000D03*
X19600000Y-43335000D03*
X37950000Y-3835000D03*
X38100000Y-1035000D03*
D19*
X12500000Y7515000D03*
D21*
X61000000Y15065000D03*
D19*
X8025000Y12615000D03*
X8900000Y15765000D03*
X10850000Y16090000D03*
X8450000Y18890000D03*
X13050000Y18340000D03*
X15050000Y18015000D03*
X20775000Y12640000D03*
X16775000Y15315000D03*
X11500000Y15140000D03*
X10575000Y10890000D03*
X19400000Y6865000D03*
X17450000Y10640000D03*
X14225000Y13915000D03*
X15225000Y13915000D03*
X13225000Y12915000D03*
X14225000Y12915000D03*
X15225000Y12915000D03*
X13225000Y11915000D03*
X14225000Y11915000D03*
X15225000Y11915000D03*
D20*
X18300000Y16415000D03*
X18450000Y17415000D03*
X19450000Y17415000D03*
X9375000Y6415000D03*
X10375000Y6415000D03*
X11375000Y6415000D03*
D19*
X73100000Y25115000D03*
D21*
X113850000Y13415000D03*
X94050000Y13365000D03*
X74000000Y14365000D03*
X134600000Y13315000D03*
D19*
X83400000Y23570000D03*
X103400000Y23570000D03*
X123400000Y23570000D03*
X85275000Y23570000D03*
X105275000Y23570000D03*
X125275000Y23570000D03*
X90700000Y23495000D03*
X110700000Y23495000D03*
X130700000Y23495000D03*
X88900000Y23495000D03*
X108900000Y23495000D03*
X128900000Y23495000D03*
D22*
X90150000Y21270000D03*
X110150000Y21270000D03*
X130150000Y21270000D03*
X88650000Y21270000D03*
X108650000Y21270000D03*
X128650000Y21270000D03*
X84150000Y21270000D03*
X104150000Y21270000D03*
X124150000Y21270000D03*
X85650000Y21270000D03*
X105650000Y21270000D03*
X125650000Y21270000D03*
D19*
X112450000Y24615000D03*
X92400000Y24765000D03*
D20*
X26600000Y-4635000D03*
X27850000Y-4635000D03*
X29100000Y-4635000D03*
X26600000Y-5885000D03*
X27850000Y-5885000D03*
X29100000Y-5885000D03*
X26600000Y-7135000D03*
X27850000Y-7135000D03*
X29100000Y-7135000D03*
D19*
X3850000Y15565000D03*
X2050000Y15565000D03*
X3900000Y17615000D03*
X5700000Y17615000D03*
X24850000Y15165000D03*
X24850000Y13365000D03*
X24850000Y10165000D03*
X24850000Y11965000D03*
X22000000Y-18985000D03*
X20200000Y-18985000D03*
X67300000Y-35210000D03*
X69100000Y-35210000D03*
X48225000Y-35435000D03*
X50025000Y-35435000D03*
X69275000Y-36485000D03*
X71075000Y-36485000D03*
X71300000Y-35210000D03*
X75300000Y-35210000D03*
X79300000Y-35210000D03*
X83300000Y-35210000D03*
X87300000Y-35210000D03*
X91300000Y-35210000D03*
X95300000Y-35210000D03*
X73100000Y-35210000D03*
X77100000Y-35210000D03*
X81100000Y-35210000D03*
X85100000Y-35210000D03*
X89100000Y-35210000D03*
X93100000Y-35210000D03*
X97100000Y-35210000D03*
X73275000Y-36485000D03*
X77275000Y-36485000D03*
X81275000Y-36485000D03*
X85275000Y-36485000D03*
X89275000Y-36485000D03*
X93275000Y-36485000D03*
X97275000Y-36485000D03*
X75075000Y-36485000D03*
X79075000Y-36485000D03*
X83075000Y-36485000D03*
X87075000Y-36485000D03*
X91075000Y-36485000D03*
X95075000Y-36485000D03*
X99075000Y-36485000D03*
X100300000Y-35210000D03*
X102275000Y-36485000D03*
X102100000Y-35210000D03*
X104075000Y-36485000D03*
X108075000Y-36485000D03*
X112075000Y-36485000D03*
X116075000Y-36485000D03*
X120075000Y-36485000D03*
X124075000Y-36485000D03*
X128075000Y-36485000D03*
X106100000Y-35210000D03*
X110100000Y-35210000D03*
X114100000Y-35210000D03*
X118100000Y-35210000D03*
X122100000Y-35210000D03*
X126100000Y-35210000D03*
X104300000Y-35210000D03*
X108300000Y-35210000D03*
X112300000Y-35210000D03*
X116300000Y-35210000D03*
X120300000Y-35210000D03*
X124300000Y-35210000D03*
X106275000Y-36485000D03*
X110275000Y-36485000D03*
X114275000Y-36485000D03*
X118275000Y-36485000D03*
X122275000Y-36485000D03*
X126275000Y-36485000D03*
X130100000Y-35210000D03*
X128300000Y-35210000D03*
X132075000Y-29485000D03*
X130275000Y-29485000D03*
X14750000Y-21835000D03*
X9200000Y-18785000D03*
X3900000Y-13085000D03*
X11750000Y-13285000D03*
D20*
%TO.N,+3V3*%
X25100000Y-33185000D03*
X26100000Y-33185000D03*
X25100000Y-34185000D03*
X26100000Y-34185000D03*
X25100000Y-35185000D03*
X26100000Y-35185000D03*
X25100000Y-36185000D03*
X26100000Y-36185000D03*
X25100000Y-37185000D03*
X26100000Y-37185000D03*
X25100000Y-38185000D03*
X26100000Y-38185000D03*
X33950000Y-5585000D03*
X33950000Y-6585000D03*
X36400000Y-7835000D03*
X36400000Y-8835000D03*
X36400000Y-9835000D03*
X36400000Y-10835000D03*
X36400000Y-11835000D03*
X34200000Y-9935000D03*
X35200000Y-9935000D03*
X34200000Y-10935000D03*
X35200000Y-10935000D03*
X34200000Y-11935000D03*
X35200000Y-11935000D03*
X15575000Y16965000D03*
X14950000Y16215000D03*
X15950000Y16215000D03*
X11825000Y15840000D03*
X11325000Y9465000D03*
X12325000Y9465000D03*
D19*
X20125000Y9415000D03*
X73950000Y25340000D03*
X118700000Y25590000D03*
X93950000Y25590000D03*
X113950000Y25590000D03*
X133950000Y25840000D03*
D20*
X42750000Y27265000D03*
X43750000Y27265000D03*
X44750000Y27265000D03*
X45750000Y27265000D03*
X46750000Y27265000D03*
X47750000Y27265000D03*
X48750000Y27265000D03*
X49750000Y27265000D03*
X42750000Y26265000D03*
X43750000Y26265000D03*
X44750000Y26265000D03*
X45750000Y26265000D03*
X46750000Y26265000D03*
X47750000Y26265000D03*
X48750000Y26265000D03*
X49750000Y26265000D03*
X42750000Y25265000D03*
X43750000Y25265000D03*
X44750000Y25265000D03*
X45750000Y25265000D03*
X46750000Y25265000D03*
X47750000Y25265000D03*
X48750000Y25265000D03*
X49750000Y25265000D03*
D19*
X140200000Y24365000D03*
X58700000Y24315000D03*
X98700000Y25590000D03*
X78700000Y25340000D03*
D21*
X109300000Y26315000D03*
X129300000Y26415000D03*
X89300000Y26315000D03*
X69300000Y26315000D03*
%TO.N,+3.3Vaux*%
X27800000Y-31385000D03*
D20*
X750000Y-14735000D03*
X750000Y-15735000D03*
X750000Y-16735000D03*
X750000Y-17735000D03*
X2800000Y-21485000D03*
X3550000Y-20985000D03*
X7100000Y-22135000D03*
X8200000Y-22135000D03*
X16750000Y-15935000D03*
X16750000Y-16935000D03*
X16750000Y-17935000D03*
X16750000Y-18935000D03*
X12500000Y-19935000D03*
X12500000Y-20885000D03*
X11900000Y-21835000D03*
X13200000Y-13635000D03*
X14500000Y-13685000D03*
%TO.N,/SLOT0_CONFIG*%
X67000000Y-40335000D03*
%TO.N,/SLOT1_CONFIG*%
X99700000Y-39785000D03*
%TO.N,/LAN_SMB_CLK*%
X24600000Y-42735000D03*
X29750000Y-20785000D03*
%TO.N,/LAN_SMB_DAT*%
X23600000Y-41735000D03*
X28700000Y-19985000D03*
%TO.N,/PCIE_SLOT_PRSNT#1*%
X19300000Y3965000D03*
X21900000Y3965000D03*
%TO.N,/PCIE_SLOT0_PRSNT_x4*%
X35750000Y-37535000D03*
%TO.N,Net-(J3-PadA9)*%
X66350000Y15615000D03*
X59500000Y15015000D03*
%TO.N,Net-(J4-PadA9)*%
X126350000Y15615000D03*
X119900000Y15615000D03*
%TO.N,+3.3VP*%
X18800000Y12540000D03*
X17825000Y12590000D03*
X17675000Y14465000D03*
X18675000Y14465000D03*
X19800000Y15190000D03*
X13350000Y16390000D03*
X10600000Y14740000D03*
X9700000Y17640000D03*
X9700000Y16640000D03*
X10875000Y12640000D03*
X9875000Y12640000D03*
D19*
X17775000Y9415000D03*
D20*
%TO.N,Net-(J3-PadA10)*%
X66700000Y14565000D03*
X57550000Y14315000D03*
%TO.N,Net-(J4-PadA10)*%
X126700000Y14565000D03*
X117700000Y15565000D03*
D19*
%TO.N,/Oculink connector/Oculink_1_C_x4_TX0+*%
X83948800Y-35210000D03*
X84073800Y23570000D03*
%TO.N,/Oculink connector/Oculink_1_C_x4_TX1+*%
X87948800Y-35210000D03*
X84648800Y21720000D03*
%TO.N,/Oculink connector/Oculink_1_C_x4_TX2+*%
X91948800Y-35210000D03*
X89148800Y21720000D03*
%TO.N,/Oculink connector/Oculink_1_C_x4_TX3+*%
X95948800Y-35210000D03*
X89563800Y23495000D03*
%TO.N,/Oculink connector/Oculink_1_C_x4_TX0-*%
X84451200Y-35210000D03*
X84576200Y23570000D03*
%TO.N,/Oculink connector/Oculink_1_C_x4_TX1-*%
X88451200Y-35210000D03*
X85151200Y21720000D03*
%TO.N,/Oculink connector/Oculink_1_C_x4_TX2-*%
X92451200Y-35210000D03*
X89651200Y21720000D03*
%TO.N,/Oculink connector/Oculink_1_C_x4_TX3-*%
X96451200Y-35210000D03*
X90066200Y23495000D03*
%TO.N,/Oculink connector/Oculink_0_C_x4_TX0+*%
X64073800Y23570000D03*
X67948800Y-35210000D03*
%TO.N,/Oculink connector/Oculink_0_C_x4_TX1+*%
X71948800Y-35210000D03*
X64648800Y21720000D03*
%TO.N,/Oculink connector/Oculink_0_C_x4_TX2+*%
X75948800Y-35210000D03*
X69148800Y21720000D03*
%TO.N,/Oculink connector/Oculink_0_C_x4_TX3+*%
X79948800Y-35210000D03*
X69563800Y23495000D03*
%TO.N,/Oculink connector/Oculink_0_C_x4_TX0-*%
X64576200Y23570000D03*
X68451200Y-35210000D03*
%TO.N,/Oculink connector/Oculink_0_C_x4_TX1-*%
X72451200Y-35210000D03*
X65151200Y21720000D03*
%TO.N,/Oculink connector/Oculink_0_C_x4_TX2-*%
X76451200Y-35210000D03*
X69651200Y21720000D03*
%TO.N,/Oculink connector/Oculink_0_C_x4_TX3-*%
X80451200Y-35210000D03*
X70066200Y23495000D03*
%TO.N,/Oculink connector/Oculink_3_C_x4_TX0+*%
X124073800Y23570000D03*
X116948800Y-35210000D03*
%TO.N,/Oculink connector/Oculink_3_C_x4_TX1+*%
X124648800Y21720000D03*
X120948800Y-35210000D03*
%TO.N,/Oculink connector/Oculink_3_C_x4_TX2+*%
X129148800Y21720000D03*
X124948800Y-35210000D03*
%TO.N,/Oculink connector/Oculink_3_C_x4_TX3+*%
X129563800Y23495000D03*
X128948800Y-35210000D03*
%TO.N,/Oculink connector/Oculink_3_C_x4_TX0-*%
X124576200Y23570000D03*
X117451200Y-35210000D03*
%TO.N,/Oculink connector/Oculink_3_C_x4_TX1-*%
X125151200Y21720000D03*
X121451200Y-35210000D03*
%TO.N,/Oculink connector/Oculink_3_C_x4_TX2-*%
X129651200Y21720000D03*
X125451200Y-35210000D03*
%TO.N,/Oculink connector/Oculink_3_C_x4_TX3-*%
X130066200Y23495000D03*
X129451200Y-35210000D03*
%TO.N,/Oculink connector/Oculink_2_C_x4_TX0+*%
X104073800Y23570000D03*
X100948800Y-35210000D03*
%TO.N,/Oculink connector/Oculink_2_C_x4_TX1+*%
X104648800Y21720000D03*
X104948800Y-35210000D03*
%TO.N,/Oculink connector/Oculink_2_C_x4_TX2+*%
X109148800Y21720000D03*
X108948800Y-35210000D03*
%TO.N,/Oculink connector/Oculink_2_C_x4_TX3+*%
X109563800Y23495000D03*
X112948800Y-35210000D03*
%TO.N,/Oculink connector/Oculink_2_C_x4_TX0-*%
X104576200Y23570000D03*
X101451200Y-35210000D03*
%TO.N,/Oculink connector/Oculink_2_C_x4_TX1-*%
X105151200Y21720000D03*
X105451200Y-35210000D03*
%TO.N,/Oculink connector/Oculink_2_C_x4_TX2-*%
X109651200Y21720000D03*
X109451200Y-35210000D03*
%TO.N,/Oculink connector/Oculink_2_C_x4_TX3-*%
X110066200Y23495000D03*
X113451200Y-35210000D03*
D20*
%TO.N,/PCIE_SLOT0_PRSNT_x8*%
X48750000Y-40135000D03*
%TO.N,IRQ_LVC_WAKE_N*%
X38700000Y6515000D03*
%TO.N,Net-(J1-PadB115)*%
X132400000Y-40485000D03*
X31550000Y-20385000D03*
%TO.N,RST_PERST0_N*%
X67150000Y25015000D03*
X55500000Y20265000D03*
X87150000Y25165000D03*
X107150000Y25165000D03*
X127150000Y25165000D03*
D19*
%TO.N,CLK100_SLOT1+*%
X48873800Y-35435000D03*
%TO.N,CLK100_SLOT1-*%
X49376200Y-35435000D03*
%TO.N,Oculink_0_x4_RX0+*%
X69948800Y-36485000D03*
%TO.N,Oculink_0_x4_RX0-*%
X70451200Y-36485000D03*
%TO.N,Oculink_0_x4_RX1+*%
X73948800Y-36485000D03*
%TO.N,Oculink_0_x4_RX1-*%
X74451200Y-36485000D03*
%TO.N,Oculink_0_x4_RX2+*%
X77948800Y-36485000D03*
%TO.N,Oculink_0_x4_RX2-*%
X78451200Y-36485000D03*
%TO.N,Oculink_0_x4_RX3+*%
X81948800Y-36485000D03*
%TO.N,Oculink_0_x4_RX3-*%
X82451200Y-36485000D03*
%TO.N,Oculink_1_x4_RX0+*%
X85948800Y-36485000D03*
%TO.N,Oculink_1_x4_RX0-*%
X86451200Y-36485000D03*
%TO.N,Oculink_1_x4_RX1+*%
X89948800Y-36485000D03*
%TO.N,Oculink_1_x4_RX1-*%
X90451200Y-36485000D03*
%TO.N,Oculink_1_x4_RX2+*%
X93948800Y-36485000D03*
%TO.N,Oculink_1_x4_RX2-*%
X94451200Y-36485000D03*
%TO.N,Oculink_1_x4_RX3+*%
X97948800Y-36485000D03*
%TO.N,Oculink_1_x4_RX3-*%
X98451200Y-36485000D03*
%TO.N,Oculink_2_x4_RX0+*%
X102948800Y-36485000D03*
%TO.N,Oculink_2_x4_RX0-*%
X103451200Y-36485000D03*
%TO.N,Oculink_2_x4_RX1+*%
X106948800Y-36485000D03*
%TO.N,Oculink_2_x4_RX1-*%
X107451200Y-36485000D03*
%TO.N,Oculink_2_x4_RX2+*%
X110948800Y-36485000D03*
%TO.N,Oculink_2_x4_RX2-*%
X111451200Y-36485000D03*
%TO.N,Oculink_2_x4_RX3+*%
X114948800Y-36485000D03*
%TO.N,Oculink_2_x4_RX3-*%
X115451200Y-36485000D03*
%TO.N,Oculink_3_x4_RX0+*%
X118948800Y-36485000D03*
%TO.N,Oculink_3_x4_RX0-*%
X119451200Y-36485000D03*
%TO.N,Oculink_3_x4_RX1+*%
X122948800Y-36485000D03*
%TO.N,Oculink_3_x4_RX1-*%
X123451200Y-36485000D03*
%TO.N,Oculink_3_x4_RX2+*%
X126948800Y-36485000D03*
%TO.N,Oculink_3_x4_RX2-*%
X127451200Y-36485000D03*
%TO.N,Oculink_3_x4_RX3+*%
X130948800Y-29485000D03*
%TO.N,Oculink_3_x4_RX3-*%
X131451200Y-29485000D03*
D20*
%TO.N,Net-(J2-PadA9)*%
X86350000Y14615000D03*
X79450000Y14615000D03*
%TO.N,Net-(J2-PadA10)*%
X86700000Y13565000D03*
X77600000Y14565000D03*
D19*
%TO.N,Oculink_1_CLK100+*%
X88148800Y15620000D03*
X3201200Y15565000D03*
%TO.N,Oculink_1_CLK100-*%
X88651200Y15620000D03*
X2698800Y15565000D03*
D20*
%TO.N,Oculink_1_SMB_CLK*%
X86150000Y23070000D03*
X7500000Y-8685000D03*
%TO.N,Oculink_1_SMB_DATA*%
X86950000Y22615000D03*
X8600000Y-10035000D03*
%TO.N,Oculink_0_SMB_DATA*%
X66925000Y22095000D03*
X6150000Y-8685000D03*
%TO.N,Oculink_0_SMB_CLK*%
X66150000Y22570000D03*
X4850000Y-10685000D03*
D19*
%TO.N,Oculink_0_CLK100-*%
X68651200Y12620000D03*
X4548800Y17615000D03*
%TO.N,Oculink_0_CLK100+*%
X68148800Y12620000D03*
X5051200Y17615000D03*
D20*
%TO.N,Oculink_3_SMB_DATA*%
X126925000Y22595000D03*
X1750000Y-21385000D03*
%TO.N,Oculink_3_SMB_CLK*%
X126150000Y23070000D03*
X2000000Y-18985000D03*
D19*
%TO.N,Oculink_3_CLK100-*%
X128651200Y15620000D03*
X24850000Y10826300D03*
%TO.N,Oculink_3_CLK100+*%
X128148800Y15620000D03*
X24850000Y11328700D03*
D20*
%TO.N,Net-(J5-PadA9)*%
X106350000Y15615000D03*
X99900000Y15615000D03*
%TO.N,Net-(J5-PadA10)*%
X106700000Y14565000D03*
X97800000Y15515000D03*
D19*
%TO.N,Oculink_2_CLK100+*%
X108148800Y15620000D03*
X24850000Y14528700D03*
%TO.N,Oculink_2_CLK100-*%
X108651200Y15620000D03*
X24850000Y14026300D03*
D20*
%TO.N,Oculink_2_SMB_CLK*%
X106150000Y23070000D03*
X7900000Y-23385000D03*
%TO.N,Oculink_2_SMB_DATA*%
X106950000Y22615000D03*
X4600000Y-24535000D03*
%TO.N,PCIe_SMB_CLK*%
X9400000Y-11435000D03*
%TO.N,PCIe_SMB_DATA*%
X9750000Y-12435000D03*
D19*
%TO.N,CLK100_SLOT0+*%
X20848800Y-18985000D03*
%TO.N,CLK100_SLOT0-*%
X21351200Y-18985000D03*
%TD*%
D23*
%TO.N,+3.3Vaux*%
X27800000Y-31385000D02*
X27500001Y-31085001D01*
X27500001Y-31085001D02*
X17350000Y-20935000D01*
X17350000Y-20935000D02*
X16650000Y-20935000D01*
D24*
%TO.N,/LAN_SMB_CLK*%
X29750000Y-37231447D02*
X29750000Y-20785000D01*
X24600000Y-42735000D02*
X24600000Y-42381447D01*
X24600000Y-42381447D02*
X29750000Y-37231447D01*
%TO.N,/LAN_SMB_DAT*%
X23600000Y-41735000D02*
X28700000Y-36635000D01*
X28700000Y-36635000D02*
X28700000Y-19985000D01*
%TO.N,/PCIE_SLOT_PRSNT#1*%
X23030000Y5095000D02*
X21900000Y3965000D01*
X27090000Y5095000D02*
X23030000Y5095000D01*
%TO.N,/PCIE_SLOT0_PRSNT_x4*%
X46360000Y3865000D02*
X57850000Y3865000D01*
X45090000Y2595000D02*
X46360000Y3865000D01*
X57850000Y3865000D02*
X59090000Y2595000D01*
X45090000Y2595000D02*
X44720000Y2595000D01*
X44720000Y2595000D02*
X44100000Y3215000D01*
X44100000Y3215000D02*
X44100000Y5565000D01*
X44100000Y5565000D02*
X45100000Y6565000D01*
X45100000Y6565000D02*
X45100000Y7815000D01*
X45100000Y7815000D02*
X44650000Y8265000D01*
X44650000Y8265000D02*
X38750000Y8265000D01*
X38750000Y8265000D02*
X36100000Y5615000D01*
X36100000Y5615000D02*
X36100000Y2115000D01*
X36100000Y2115000D02*
X37200000Y1015000D01*
X37200000Y-36085000D02*
X35750000Y-37535000D01*
X37200000Y1015000D02*
X37200000Y-5185000D01*
X37200000Y-5185000D02*
X38400000Y-6385000D01*
X38400000Y-34885000D02*
X37200000Y-36085000D01*
X38400000Y-6385000D02*
X38400000Y-34885000D01*
%TO.N,Net-(J4-PadA9)*%
X126350000Y15615000D02*
X119900000Y15615000D01*
%TO.N,Net-(J4-PadA10)*%
X118700000Y14565000D02*
X117700000Y15565000D01*
X126700000Y14565000D02*
X118700000Y14565000D01*
%TO.N,/PCIE_SLOT0_PRSNT_x8*%
X48999999Y-39885001D02*
X50499999Y-39885001D01*
X48750000Y-40135000D02*
X48999999Y-39885001D01*
X76090000Y-14295000D02*
X76090000Y595000D01*
X50499999Y-39885001D02*
X76090000Y-14295000D01*
%TO.N,Net-(J1-PadB115)*%
X132400000Y-40485000D02*
X131400000Y-40485000D01*
X131400000Y-40485000D02*
X130500000Y-41385000D01*
X130500000Y-41385000D02*
X46100000Y-41385000D01*
X46100000Y-41385000D02*
X37200000Y-41385000D01*
X37200000Y-41385000D02*
X31550000Y-35735000D01*
X31550000Y-35735000D02*
X31550000Y-20385000D01*
D25*
%TO.N,CLK100_SLOT1+*%
X41275000Y5865000D02*
X41090000Y5680000D01*
X41922600Y5617400D02*
X41675000Y5865000D01*
X41922600Y2153128D02*
X41922600Y5617400D01*
X48972600Y-35336200D02*
X48972600Y-11448128D01*
X48873800Y-35435000D02*
X48972600Y-35336200D01*
X41090000Y5680000D02*
X41090000Y5095000D01*
X48972600Y-11448128D02*
X40947600Y-3423128D01*
X40947600Y-3423128D02*
X40947600Y1178128D01*
X41675000Y5865000D02*
X41275000Y5865000D01*
X40947600Y1178128D02*
X41922600Y2153128D01*
%TO.N,CLK100_SLOT1-*%
X42090000Y5929800D02*
X42090000Y7095000D01*
X42227400Y2026872D02*
X42227400Y5792400D01*
X42227400Y5792400D02*
X42090000Y5929800D01*
X49277400Y-35336200D02*
X49277400Y-11321872D01*
X49376200Y-35435000D02*
X49277400Y-35336200D01*
X49277400Y-11321872D02*
X41252400Y-3296872D01*
X41252400Y-3296872D02*
X41252400Y1051872D01*
X41252400Y1051872D02*
X42227400Y2026872D01*
%TO.N,Oculink_1_CLK100+*%
X88247600Y15718800D02*
X88148800Y15620000D01*
X88247600Y16747600D02*
X88247600Y15718800D01*
X88246032Y16761508D02*
X88247600Y16747600D01*
X88241410Y16774718D02*
X88246032Y16761508D01*
X88233964Y16786569D02*
X88241410Y16774718D01*
X88224068Y16796465D02*
X88233964Y16786569D01*
X88212217Y16803911D02*
X88224068Y16796465D01*
X88199007Y16808533D02*
X88212217Y16803911D01*
X88171192Y16811668D02*
X88199007Y16808533D01*
X88157982Y16816290D02*
X88171192Y16811668D01*
X88146131Y16823736D02*
X88157982Y16816290D01*
X88136235Y16833632D02*
X88146131Y16823736D01*
X88128789Y16845483D02*
X88136235Y16833632D01*
X88124167Y16858693D02*
X88128789Y16845483D01*
X88122600Y16872600D02*
X88124167Y16858693D01*
X3547017Y20081284D02*
X3559419Y20078453D01*
X3535555Y20086804D02*
X3547017Y20081284D01*
X3515661Y20102668D02*
X3535555Y20086804D01*
X3504199Y20108188D02*
X3515661Y20102668D01*
X3479075Y20111019D02*
X3491797Y20111019D01*
X3455210Y20102668D02*
X3466672Y20108188D01*
X3445264Y20094736D02*
X3455210Y20102668D01*
X3102400Y19751872D02*
X3445264Y20094736D01*
X3116035Y18578432D02*
X3108589Y18590283D01*
X3225832Y18506308D02*
X3221210Y18519518D01*
X3227400Y18177400D02*
X3227400Y18492400D01*
X3192017Y18121090D02*
X3203868Y18128536D01*
X3150992Y18113333D02*
X3178807Y18116468D01*
X3137782Y18108711D02*
X3150992Y18113333D01*
X3125931Y18101265D02*
X3137782Y18108711D01*
X3221210Y18150283D02*
X3225832Y18163493D01*
X3116035Y18091369D02*
X3125931Y18101265D01*
X88157982Y17243911D02*
X88146131Y17236465D01*
X3225832Y18163493D02*
X3227400Y18177400D01*
X3108589Y18079518D02*
X3116035Y18091369D01*
X3103967Y18066308D02*
X3108589Y18079518D01*
X3102400Y18052400D02*
X3103967Y18066308D01*
X3102400Y17737400D02*
X3102400Y18052400D01*
X3102400Y18617400D02*
X3102400Y19751872D01*
X3103967Y17723493D02*
X3102400Y17737400D01*
X3108589Y17710283D02*
X3103967Y17723493D01*
X3178807Y18553333D02*
X3150992Y18556468D01*
X3116035Y17698432D02*
X3108589Y17710283D01*
X3125931Y17688536D02*
X3116035Y17698432D01*
X3137782Y17681090D02*
X3125931Y17688536D01*
X88124167Y17201508D02*
X88122600Y17187600D01*
X3150992Y17676468D02*
X3137782Y17681090D01*
X3178807Y17673333D02*
X3150992Y17676468D01*
X3192017Y17668711D02*
X3178807Y17673333D01*
X3150992Y18556468D02*
X3137782Y18561090D01*
X3203868Y17661265D02*
X3192017Y17668711D01*
X88128789Y17214718D02*
X88124167Y17201508D01*
X3213764Y18138432D02*
X3221210Y18150283D01*
X3213764Y17651369D02*
X3203868Y17661265D01*
X3178807Y16793333D02*
X3150992Y16796468D01*
X3213764Y16771369D02*
X3203868Y16781265D01*
X3125931Y18568536D02*
X3116035Y18578432D01*
X3203868Y16781265D02*
X3192017Y16788711D01*
X3103967Y17186308D02*
X3108589Y17199518D01*
X3221210Y16759518D02*
X3213764Y16771369D01*
X3108589Y16319518D02*
X3116035Y16331369D01*
X3221210Y18519518D02*
X3213764Y18531369D01*
X3225832Y16746308D02*
X3221210Y16759518D01*
X3227400Y16732400D02*
X3225832Y16746308D01*
X3192017Y16788711D02*
X3178807Y16793333D01*
X3150992Y17233333D02*
X3178807Y17236468D01*
X3227400Y16417400D02*
X3227400Y16732400D01*
X3221210Y16390283D02*
X3225832Y16403493D01*
X3213764Y16378432D02*
X3221210Y16390283D01*
X3103967Y16306308D02*
X3108589Y16319518D01*
X3102400Y16292400D02*
X3103967Y16306308D01*
X3108589Y18590283D02*
X3103967Y18603493D01*
X3102400Y15663800D02*
X3102400Y16292400D01*
X4445535Y21087053D02*
X4451055Y21098515D01*
X3125931Y16341265D02*
X3137782Y16348711D01*
X3225832Y16403493D02*
X3227400Y16417400D01*
X3559419Y20078453D02*
X3572141Y20078453D01*
X3201200Y15565000D02*
X3102400Y15663800D01*
X86583735Y18411131D02*
X86593631Y18401235D01*
X3137782Y18561090D02*
X3125931Y18568536D01*
X3225832Y17626308D02*
X3221210Y17639518D01*
X3213764Y18531369D02*
X3203868Y18541265D01*
X3178807Y16356468D02*
X3192017Y16361090D01*
X3192017Y18548711D02*
X3178807Y18553333D01*
X3203868Y16368536D02*
X3213764Y16378432D01*
X3137782Y16348711D02*
X3150992Y16353333D01*
X3116035Y16331369D02*
X3125931Y16341265D01*
X88122600Y17187600D02*
X88122600Y16872600D01*
X3150992Y16353333D02*
X3178807Y16356468D01*
X3221210Y17270283D02*
X3225832Y17283493D01*
X3192017Y16361090D02*
X3203868Y16368536D01*
X3150992Y16796468D02*
X3137782Y16801090D01*
X3227400Y18492400D02*
X3225832Y18506308D01*
X3137782Y16801090D02*
X3125931Y16808536D01*
X3227400Y17297400D02*
X3227400Y17612400D01*
X3466672Y20108188D02*
X3479075Y20111019D01*
X3125931Y16808536D02*
X3116035Y16818432D01*
X3203868Y18128536D02*
X3213764Y18138432D01*
X3116035Y16818432D02*
X3108589Y16830283D01*
X3108589Y16830283D02*
X3103967Y16843493D01*
X3103967Y16843493D02*
X3102400Y16857400D01*
X3102400Y16857400D02*
X3102400Y17172400D01*
X3227400Y17612400D02*
X3225832Y17626308D01*
X3102400Y17172400D02*
X3103967Y17186308D01*
X3103967Y18603493D02*
X3102400Y18617400D01*
X3108589Y17199518D02*
X3116035Y17211369D01*
X3116035Y17211369D02*
X3125931Y17221265D01*
X3178807Y18116468D02*
X3192017Y18121090D01*
X3125931Y17221265D02*
X3137782Y17228711D01*
X3137782Y17228711D02*
X3150992Y17233333D01*
X88146131Y17236465D02*
X88136235Y17226569D01*
X3491797Y20111019D02*
X3504199Y20108188D01*
X3178807Y17236468D02*
X3192017Y17241090D01*
X3192017Y17241090D02*
X3203868Y17248536D01*
X3203868Y17248536D02*
X3213764Y17258432D01*
X3213764Y17258432D02*
X3221210Y17270283D01*
X3225832Y17283493D02*
X3227400Y17297400D01*
X3203868Y18541265D02*
X3192017Y18548711D01*
X3221210Y17639518D02*
X3213764Y17651369D01*
X3572141Y20078453D02*
X3584544Y20081284D01*
X3584544Y20081284D02*
X3596006Y20086804D01*
X3596006Y20086804D02*
X3605953Y20094736D01*
X3605953Y20094736D02*
X3836735Y20325519D01*
X3836735Y20325519D02*
X3844667Y20335466D01*
X3844667Y20335466D02*
X3850187Y20346928D01*
X3850187Y20346928D02*
X3853018Y20359330D01*
X3853018Y20359330D02*
X3853018Y20372052D01*
X3853018Y20372052D02*
X3850187Y20384455D01*
X3850187Y20384455D02*
X3844667Y20395917D01*
X3844667Y20395917D02*
X3828802Y20415811D01*
X3828802Y20415811D02*
X3823282Y20427273D01*
X3823282Y20427273D02*
X3820451Y20439675D01*
X3820451Y20439675D02*
X3820451Y20452397D01*
X3820451Y20452397D02*
X3823282Y20464800D01*
X3823282Y20464800D02*
X3828802Y20476262D01*
X3828802Y20476262D02*
X3836734Y20486209D01*
X3836734Y20486209D02*
X4067517Y20716989D01*
X4067517Y20716989D02*
X4077463Y20724921D01*
X4077463Y20724921D02*
X4088925Y20730441D01*
X4088925Y20730441D02*
X4101328Y20733272D01*
X4101328Y20733272D02*
X4114050Y20733272D01*
X4114050Y20733272D02*
X4126452Y20730441D01*
X4126452Y20730441D02*
X4137914Y20724921D01*
X4137914Y20724921D02*
X4157808Y20709057D01*
X4157808Y20709057D02*
X4169270Y20703537D01*
X4169270Y20703537D02*
X4181672Y20700706D01*
X4181672Y20700706D02*
X4194394Y20700706D01*
X4194394Y20700706D02*
X4206797Y20703537D01*
X4206797Y20703537D02*
X4218259Y20709057D01*
X4218259Y20709057D02*
X4228206Y20716989D01*
X4228206Y20716989D02*
X4458988Y20947772D01*
X4458988Y20947772D02*
X4466920Y20957719D01*
X4466920Y20957719D02*
X4472440Y20969181D01*
X4472440Y20969181D02*
X4475271Y20981583D01*
X4475271Y20981583D02*
X4475271Y20994305D01*
X4475271Y20994305D02*
X4472440Y21006708D01*
X4472440Y21006708D02*
X4466920Y21018170D01*
X4466920Y21018170D02*
X4451055Y21038064D01*
X4451055Y21038064D02*
X4445535Y21049526D01*
X4445535Y21049526D02*
X4442704Y21061928D01*
X4442704Y21061928D02*
X4442704Y21074650D01*
X4442704Y21074650D02*
X4445535Y21087053D01*
X4451055Y21098515D02*
X4458987Y21108462D01*
X4458987Y21108462D02*
X5114030Y21763502D01*
X5114030Y21763502D02*
X5613128Y22262600D01*
X5613128Y22262600D02*
X25361872Y22262600D01*
X25361872Y22262600D02*
X30861872Y16762600D01*
X30861872Y16762600D02*
X48586872Y16762600D01*
X48586872Y16762600D02*
X49236872Y16112600D01*
X49236872Y16112600D02*
X62463128Y16112600D01*
X62463128Y16112600D02*
X64463128Y18112600D01*
X64463128Y18112600D02*
X70686872Y18112600D01*
X70686872Y18112600D02*
X72636872Y16162600D01*
X72636872Y16162600D02*
X82613128Y16162600D01*
X82613128Y16162600D02*
X84963128Y18512600D01*
X84963128Y18512600D02*
X86507600Y18512600D01*
X86507600Y18512600D02*
X86521507Y18511032D01*
X86521507Y18511032D02*
X86534717Y18506410D01*
X86534717Y18506410D02*
X86546568Y18498964D01*
X86546568Y18498964D02*
X86556464Y18489068D01*
X86556464Y18489068D02*
X86563910Y18477217D01*
X86563910Y18477217D02*
X86568532Y18464007D01*
X86568532Y18464007D02*
X86571667Y18436192D01*
X86571667Y18436192D02*
X86576289Y18422982D01*
X86576289Y18422982D02*
X86583735Y18411131D01*
X86593631Y18401235D02*
X86605482Y18393789D01*
X86605482Y18393789D02*
X86618692Y18389167D01*
X86618692Y18389167D02*
X86632600Y18387600D01*
X86632600Y18387600D02*
X86947600Y18387600D01*
X86947600Y18387600D02*
X86961507Y18389167D01*
X86961507Y18389167D02*
X86974717Y18393789D01*
X86974717Y18393789D02*
X86986568Y18401235D01*
X86986568Y18401235D02*
X86996464Y18411131D01*
X86996464Y18411131D02*
X87003910Y18422982D01*
X87003910Y18422982D02*
X87008532Y18436192D01*
X87008532Y18436192D02*
X87011667Y18464007D01*
X87011667Y18464007D02*
X87016289Y18477217D01*
X87016289Y18477217D02*
X87023735Y18489068D01*
X87023735Y18489068D02*
X87033631Y18498964D01*
X87033631Y18498964D02*
X87045482Y18506410D01*
X87045482Y18506410D02*
X87058692Y18511032D01*
X87058692Y18511032D02*
X87072600Y18512600D01*
X87072600Y18512600D02*
X87336872Y18512600D01*
X87336872Y18512600D02*
X88247600Y17601872D01*
X88247600Y17601872D02*
X88247600Y17312600D01*
X88247600Y17312600D02*
X88246032Y17298693D01*
X88246032Y17298693D02*
X88241410Y17285483D01*
X88241410Y17285483D02*
X88233964Y17273632D01*
X88233964Y17273632D02*
X88224068Y17263736D01*
X88224068Y17263736D02*
X88212217Y17256290D01*
X88212217Y17256290D02*
X88199007Y17251668D01*
X88199007Y17251668D02*
X88171192Y17248533D01*
X88171192Y17248533D02*
X88157982Y17243911D01*
X88136235Y17226569D02*
X88128789Y17214718D01*
%TO.N,Oculink_1_CLK100-*%
X87463128Y18817400D02*
X88552400Y17728128D01*
X82486872Y16467400D02*
X84836872Y18817400D01*
X72763128Y16467400D02*
X82486872Y16467400D01*
X88552400Y15718800D02*
X88651200Y15620000D01*
X70813128Y18417400D02*
X72763128Y16467400D01*
X64336872Y18417400D02*
X70813128Y18417400D01*
X48713128Y17067400D02*
X49363128Y16417400D01*
X2698800Y15565000D02*
X2797600Y15663800D01*
X88552400Y17728128D02*
X88552400Y15718800D01*
X30988128Y17067400D02*
X48713128Y17067400D01*
X84836872Y18817400D02*
X87463128Y18817400D01*
X25488128Y22567400D02*
X30988128Y17067400D01*
X62336872Y16417400D02*
X64336872Y18417400D01*
X5486872Y22567400D02*
X25488128Y22567400D01*
X49363128Y16417400D02*
X62336872Y16417400D01*
X2797600Y15663800D02*
X2797600Y19878128D01*
X2797600Y19878128D02*
X5486872Y22567400D01*
D24*
%TO.N,Oculink_0_SMB_DATA*%
X66650000Y21820000D02*
X66925000Y22095000D01*
X3550000Y25265000D02*
X25100000Y25265000D01*
X-400000Y11965000D02*
X-400000Y21315000D01*
X6150000Y-8685000D02*
X6150000Y5415000D01*
X25100000Y25265000D02*
X28950000Y21415000D01*
X6150000Y5415000D02*
X-400000Y11965000D01*
X62900000Y19715000D02*
X66100000Y19715000D01*
X-400000Y21315000D02*
X3550000Y25265000D01*
X28950000Y21415000D02*
X61200000Y21415000D01*
X61200000Y21415000D02*
X62900000Y19715000D01*
X66650000Y20265000D02*
X66650000Y21820000D01*
X66100000Y19715000D02*
X66650000Y20265000D01*
%TO.N,Oculink_0_SMB_CLK*%
X4850000Y5165000D02*
X4850000Y-10685000D01*
X-1450000Y11465000D02*
X4850000Y5165000D01*
X25550000Y26265000D02*
X2900000Y26265000D01*
X-1450000Y21915000D02*
X-1450000Y11465000D01*
X66150000Y22570000D02*
X66150000Y24165000D01*
X66150000Y24165000D02*
X65400000Y24915000D01*
X65400000Y24915000D02*
X61300000Y24915000D01*
X2900000Y26265000D02*
X-1450000Y21915000D01*
X29250000Y22565000D02*
X25550000Y26265000D01*
X58950000Y22565000D02*
X29250000Y22565000D01*
X61300000Y24915000D02*
X58950000Y22565000D01*
D25*
%TO.N,Oculink_0_CLK100-*%
X68552400Y12718800D02*
X68651200Y12620000D01*
X48913128Y13717400D02*
X68063128Y13717400D01*
X47563128Y15067400D02*
X48913128Y13717400D01*
X24638128Y20817400D02*
X30388128Y15067400D01*
X4647600Y17713800D02*
X4647600Y19178128D01*
X4548800Y17615000D02*
X4647600Y17713800D01*
X6286872Y20817400D02*
X24638128Y20817400D01*
X68063128Y13717400D02*
X68552400Y13228128D01*
X30388128Y15067400D02*
X47563128Y15067400D01*
X68552400Y13228128D02*
X68552400Y12718800D01*
X4647600Y19178128D02*
X6286872Y20817400D01*
%TO.N,Oculink_0_CLK100+*%
X68247600Y12718800D02*
X68148800Y12620000D01*
X68247600Y13101872D02*
X68247600Y12718800D01*
X67936872Y13412600D02*
X68247600Y13101872D01*
X30261872Y14762600D02*
X47436872Y14762600D01*
X14500070Y20512600D02*
X24511872Y20512600D01*
X14473501Y20506536D02*
X14486443Y20511065D01*
X14461890Y20499241D02*
X14473501Y20506536D01*
X14452194Y20489545D02*
X14461890Y20499241D01*
X14444899Y20477934D02*
X14452194Y20489545D01*
X14440370Y20464992D02*
X14444899Y20477934D01*
X14437299Y20437738D02*
X14440370Y20464992D01*
X14432770Y20424796D02*
X14437299Y20437738D01*
X14415779Y20403489D02*
X14425475Y20413185D01*
X14404168Y20396194D02*
X14415779Y20403489D01*
X14377600Y20390129D02*
X14391226Y20391665D01*
X14046443Y20391665D02*
X14060070Y20390129D01*
X14021890Y20403489D02*
X14033501Y20396194D01*
X14012194Y20413185D02*
X14021890Y20403489D01*
X14000370Y20437738D02*
X14004899Y20424796D01*
X13992770Y20477934D02*
X13997299Y20464992D01*
X13985475Y20489545D02*
X13992770Y20477934D01*
X13975779Y20499241D02*
X13985475Y20489545D01*
X13964168Y20506536D02*
X13975779Y20499241D01*
X13951226Y20511065D02*
X13964168Y20506536D01*
X13937600Y20512600D02*
X13951226Y20511065D01*
X13606443Y20511065D02*
X13620070Y20512600D01*
X13593501Y20506536D02*
X13606443Y20511065D01*
X13581890Y20499241D02*
X13593501Y20506536D01*
X13572194Y20489545D02*
X13581890Y20499241D01*
X13564899Y20477934D02*
X13572194Y20489545D01*
X13560370Y20464992D02*
X13564899Y20477934D01*
X13557299Y20437738D02*
X13560370Y20464992D01*
X13545475Y20413185D02*
X13552770Y20424796D01*
X13497600Y20390129D02*
X13511226Y20391665D01*
X13180070Y20390129D02*
X13497600Y20390129D01*
X13166443Y20391665D02*
X13180070Y20390129D01*
X13153501Y20396194D02*
X13166443Y20391665D01*
X13141890Y20403489D02*
X13153501Y20396194D01*
X13132194Y20413185D02*
X13141890Y20403489D01*
X13124899Y20424796D02*
X13132194Y20413185D01*
X13120370Y20437738D02*
X13124899Y20424796D01*
X13117299Y20464992D02*
X13120370Y20437738D01*
X13112770Y20477934D02*
X13117299Y20464992D01*
X13105475Y20489545D02*
X13112770Y20477934D01*
X13095779Y20499241D02*
X13105475Y20489545D01*
X13084168Y20506536D02*
X13095779Y20499241D01*
X13071226Y20511065D02*
X13084168Y20506536D01*
X13057600Y20512600D02*
X13071226Y20511065D01*
X12740070Y20512600D02*
X13057600Y20512600D01*
X12726443Y20511065D02*
X12740070Y20512600D01*
X12713501Y20506536D02*
X12726443Y20511065D01*
X12701890Y20499241D02*
X12713501Y20506536D01*
X12692194Y20489545D02*
X12701890Y20499241D01*
X12684899Y20477934D02*
X12692194Y20489545D01*
X12680370Y20464992D02*
X12684899Y20477934D01*
X12677299Y20437738D02*
X12680370Y20464992D01*
X12672770Y20424796D02*
X12677299Y20437738D01*
X12665475Y20413185D02*
X12672770Y20424796D01*
X12655779Y20403489D02*
X12665475Y20413185D01*
X12644168Y20396194D02*
X12655779Y20403489D01*
X12631226Y20391665D02*
X12644168Y20396194D01*
X12617600Y20390129D02*
X12631226Y20391665D01*
X12300070Y20390129D02*
X12617600Y20390129D01*
X12286443Y20391665D02*
X12300070Y20390129D01*
X12273501Y20396194D02*
X12286443Y20391665D01*
X12261890Y20403489D02*
X12273501Y20396194D01*
X12252194Y20413185D02*
X12261890Y20403489D01*
X12244899Y20424796D02*
X12252194Y20413185D01*
X12240370Y20437738D02*
X12244899Y20424796D01*
X12237299Y20464992D02*
X12240370Y20437738D01*
X12215779Y20499241D02*
X12225475Y20489545D01*
X12177600Y20512600D02*
X12191226Y20511065D01*
X11860070Y20512600D02*
X12177600Y20512600D01*
X8724899Y20424796D02*
X8732194Y20413185D01*
X5051200Y17615000D02*
X4952400Y17713800D01*
X13511226Y20391665D02*
X13524168Y20396194D01*
X11324168Y20506536D02*
X11335779Y20499241D01*
X8684168Y20506536D02*
X8695779Y20499241D01*
X8657600Y20512600D02*
X8671226Y20511065D01*
X8301890Y20499241D02*
X8313501Y20506536D01*
X11846443Y20511065D02*
X11860070Y20512600D01*
X8292194Y20489545D02*
X8301890Y20499241D01*
X13997299Y20464992D02*
X14000370Y20437738D01*
X10917299Y20437738D02*
X10920370Y20464992D01*
X8284899Y20477934D02*
X8292194Y20489545D01*
X8280370Y20464992D02*
X8284899Y20477934D01*
X8272770Y20424796D02*
X8277299Y20437738D01*
X8265475Y20413185D02*
X8272770Y20424796D01*
X8255779Y20403489D02*
X8265475Y20413185D01*
X8244168Y20396194D02*
X8255779Y20403489D01*
X8231226Y20391665D02*
X8244168Y20396194D01*
X8217600Y20390129D02*
X8231226Y20391665D01*
X12232770Y20477934D02*
X12237299Y20464992D01*
X10980070Y20512600D02*
X11297600Y20512600D01*
X11785475Y20413185D02*
X11792770Y20424796D01*
X4952400Y17713800D02*
X4952400Y19051872D01*
X7886443Y20391665D02*
X7900070Y20390129D01*
X7873501Y20396194D02*
X7886443Y20391665D01*
X7840370Y20437738D02*
X7844899Y20424796D01*
X7837299Y20464992D02*
X7840370Y20437738D01*
X10061890Y20499241D02*
X10073501Y20506536D01*
X11821890Y20499241D02*
X11833501Y20506536D01*
X7825475Y20489545D02*
X7832770Y20477934D01*
X7815779Y20499241D02*
X7825475Y20489545D01*
X14004899Y20424796D02*
X14012194Y20413185D01*
X10920370Y20464992D02*
X10924899Y20477934D01*
X7791226Y20511065D02*
X7804168Y20506536D01*
X7777600Y20512600D02*
X7791226Y20511065D01*
X7446443Y20511065D02*
X7460070Y20512600D01*
X7412194Y20489545D02*
X7421890Y20499241D01*
X12225475Y20489545D02*
X12232770Y20477934D01*
X10924899Y20477934D02*
X10932194Y20489545D01*
X10444168Y20506536D02*
X10455779Y20499241D01*
X8712770Y20477934D02*
X8717299Y20464992D01*
X12191226Y20511065D02*
X12204168Y20506536D01*
X11311226Y20511065D02*
X11324168Y20506536D01*
X7397299Y20437738D02*
X7400370Y20464992D01*
X8671226Y20511065D02*
X8684168Y20506536D01*
X7392770Y20424796D02*
X7397299Y20437738D01*
X7385475Y20413185D02*
X7392770Y20424796D01*
X8705475Y20489545D02*
X8712770Y20477934D01*
X7364168Y20396194D02*
X7375779Y20403489D01*
X7804168Y20506536D02*
X7815779Y20499241D01*
X7351226Y20391665D02*
X7364168Y20396194D01*
X5722077Y19694812D02*
X5716004Y19707421D01*
X5725191Y19681167D02*
X5722077Y19694812D01*
X5484540Y19407236D02*
X5707278Y19629975D01*
X10086443Y20511065D02*
X10100070Y20512600D01*
X8717299Y20464992D02*
X8720370Y20437738D01*
X5473598Y19398510D02*
X5484540Y19407236D01*
X5419703Y19392438D02*
X5433348Y19389324D01*
X10480370Y20437738D02*
X10484899Y20424796D01*
X5447343Y19389324D02*
X5460988Y19392438D01*
X10484899Y20424796D02*
X10492194Y20413185D01*
X8340070Y20512600D02*
X8657600Y20512600D01*
X5318706Y19415963D02*
X5331315Y19422035D01*
X7861890Y20403489D02*
X7873501Y20396194D01*
X5725191Y19667172D02*
X5725191Y19681167D01*
X8326443Y20511065D02*
X8340070Y20512600D01*
X5433348Y19389324D02*
X5447343Y19389324D01*
X6952770Y20477934D02*
X6957299Y20464992D01*
X8313501Y20506536D02*
X8326443Y20511065D01*
X48786872Y13412600D02*
X67936872Y13412600D01*
X11345475Y20489545D02*
X11352770Y20477934D01*
X6413128Y20512600D02*
X6897600Y20512600D01*
X5331315Y19422035D02*
X5344960Y19425149D01*
X10932194Y20489545D02*
X10941890Y20499241D01*
X5722077Y19653527D02*
X5725191Y19667172D01*
X13620070Y20512600D02*
X13937600Y20512600D01*
X10912770Y20424796D02*
X10917299Y20437738D01*
X5716004Y19640917D02*
X5722077Y19653527D01*
X47436872Y14762600D02*
X48786872Y13412600D01*
X10905475Y20413185D02*
X10912770Y20424796D01*
X5372600Y19422035D02*
X5385210Y19415963D01*
X8695779Y20499241D02*
X8705475Y20489545D01*
X11406443Y20391665D02*
X11420070Y20390129D01*
X5460988Y19392438D02*
X5473598Y19398510D01*
X13552770Y20424796D02*
X13557299Y20437738D01*
X10895779Y20403489D02*
X10905475Y20413185D01*
X7852194Y20413185D02*
X7861890Y20403489D01*
X5707278Y19629975D02*
X5716004Y19640917D01*
X6960370Y20437738D02*
X6964899Y20424796D01*
X10477299Y20464992D02*
X10480370Y20437738D01*
X11352770Y20477934D02*
X11357299Y20464992D01*
X10431226Y20511065D02*
X10444168Y20506536D01*
X7844899Y20424796D02*
X7852194Y20413185D01*
X7900070Y20390129D02*
X8217600Y20390129D01*
X10465475Y20489545D02*
X10472770Y20477934D01*
X7375779Y20403489D02*
X7385475Y20413185D01*
X4952400Y19051872D02*
X5307764Y19407236D01*
X9111226Y20391665D02*
X9124168Y20396194D01*
X5716004Y19707421D02*
X5698551Y19729306D01*
X11360370Y20437738D02*
X11364899Y20424796D01*
X7460070Y20512600D02*
X7777600Y20512600D01*
X6924168Y20506536D02*
X6935779Y20499241D01*
X5385210Y19415963D02*
X5407094Y19398510D01*
X13535779Y20403489D02*
X13545475Y20413185D01*
X10871226Y20391665D02*
X10884168Y20396194D01*
X6993501Y20396194D02*
X7006443Y20391665D01*
X11800370Y20464992D02*
X11804899Y20477934D01*
X5407094Y19398510D02*
X5419703Y19392438D01*
X11792770Y20424796D02*
X11797299Y20437738D01*
X5344960Y19425149D02*
X5358955Y19425149D01*
X5698551Y19729306D02*
X5692479Y19741915D01*
X10492194Y20413185D02*
X10501890Y20403489D01*
X8277299Y20437738D02*
X8280370Y20464992D01*
X5692479Y19741915D02*
X5689365Y19755560D01*
X5689365Y19755560D02*
X5689365Y19769555D01*
X11364899Y20424796D02*
X11372194Y20413185D01*
X10073501Y20506536D02*
X10086443Y20511065D01*
X8720370Y20437738D02*
X8724899Y20424796D01*
X11775779Y20403489D02*
X11785475Y20413185D01*
X5689365Y19769555D02*
X5692479Y19783200D01*
X5692479Y19783200D02*
X5698551Y19795810D01*
X11381890Y20403489D02*
X11393501Y20396194D01*
X10044899Y20477934D02*
X10052194Y20489545D01*
X7832770Y20477934D02*
X7837299Y20464992D01*
X12204168Y20506536D02*
X12215779Y20499241D01*
X11297600Y20512600D02*
X11311226Y20511065D01*
X5707278Y19806752D02*
X6413128Y20512600D01*
X7421890Y20499241D02*
X7433501Y20506536D01*
X7404899Y20477934D02*
X7412194Y20489545D01*
X11812194Y20489545D02*
X11821890Y20499241D01*
X5698551Y19795810D02*
X5707278Y19806752D01*
X7433501Y20506536D02*
X7446443Y20511065D01*
X7400370Y20464992D02*
X7404899Y20477934D01*
X11797299Y20437738D02*
X11800370Y20464992D01*
X11751226Y20391665D02*
X11764168Y20396194D01*
X6897600Y20512600D02*
X6911226Y20511065D01*
X6957299Y20464992D02*
X6960370Y20437738D01*
X5307764Y19407236D02*
X5318706Y19415963D01*
X9621890Y20403489D02*
X9633501Y20396194D01*
X10052194Y20489545D02*
X10061890Y20499241D01*
X6911226Y20511065D02*
X6924168Y20506536D01*
X14060070Y20390129D02*
X14377600Y20390129D01*
X10884168Y20396194D02*
X10895779Y20403489D01*
X6935779Y20499241D02*
X6945475Y20489545D01*
X6945475Y20489545D02*
X6952770Y20477934D01*
X10501890Y20403489D02*
X10513501Y20396194D01*
X6964899Y20424796D02*
X6972194Y20413185D01*
X14425475Y20413185D02*
X14432770Y20424796D01*
X10526443Y20391665D02*
X10540070Y20390129D01*
X11393501Y20396194D02*
X11406443Y20391665D01*
X6972194Y20413185D02*
X6981890Y20403489D01*
X11372194Y20413185D02*
X11381890Y20403489D01*
X6981890Y20403489D02*
X6993501Y20396194D01*
X7006443Y20391665D02*
X7020070Y20390129D01*
X10540070Y20390129D02*
X10857600Y20390129D01*
X11833501Y20506536D02*
X11846443Y20511065D01*
X7337600Y20390129D02*
X7351226Y20391665D01*
X8732194Y20413185D02*
X8741890Y20403489D01*
X8741890Y20403489D02*
X8753501Y20396194D01*
X8753501Y20396194D02*
X8766443Y20391665D01*
X13524168Y20396194D02*
X13535779Y20403489D01*
X10513501Y20396194D02*
X10526443Y20391665D01*
X11335779Y20499241D02*
X11345475Y20489545D01*
X8766443Y20391665D02*
X8780070Y20390129D01*
X8780070Y20390129D02*
X9097600Y20390129D01*
X9097600Y20390129D02*
X9111226Y20391665D01*
X9124168Y20396194D02*
X9135779Y20403489D01*
X10040370Y20464992D02*
X10044899Y20477934D01*
X9135779Y20403489D02*
X9145475Y20413185D01*
X9145475Y20413185D02*
X9152770Y20424796D01*
X11764168Y20396194D02*
X11775779Y20403489D01*
X9152770Y20424796D02*
X9157299Y20437738D01*
X5358955Y19425149D02*
X5372600Y19422035D01*
X11737600Y20390129D02*
X11751226Y20391665D01*
X10455779Y20499241D02*
X10465475Y20489545D01*
X9157299Y20437738D02*
X9160370Y20464992D01*
X9160370Y20464992D02*
X9164899Y20477934D01*
X9164899Y20477934D02*
X9172194Y20489545D01*
X9172194Y20489545D02*
X9181890Y20499241D01*
X11804899Y20477934D02*
X11812194Y20489545D01*
X9181890Y20499241D02*
X9193501Y20506536D01*
X9193501Y20506536D02*
X9206443Y20511065D01*
X14033501Y20396194D02*
X14046443Y20391665D01*
X10472770Y20477934D02*
X10477299Y20464992D01*
X9206443Y20511065D02*
X9220070Y20512600D01*
X10966443Y20511065D02*
X10980070Y20512600D01*
X9220070Y20512600D02*
X9537600Y20512600D01*
X9537600Y20512600D02*
X9551226Y20511065D01*
X9551226Y20511065D02*
X9564168Y20506536D01*
X9564168Y20506536D02*
X9575779Y20499241D01*
X9575779Y20499241D02*
X9585475Y20489545D01*
X9585475Y20489545D02*
X9592770Y20477934D01*
X9592770Y20477934D02*
X9597299Y20464992D01*
X9597299Y20464992D02*
X9600370Y20437738D01*
X10100070Y20512600D02*
X10417600Y20512600D01*
X9600370Y20437738D02*
X9604899Y20424796D01*
X10417600Y20512600D02*
X10431226Y20511065D01*
X9604899Y20424796D02*
X9612194Y20413185D01*
X10037299Y20437738D02*
X10040370Y20464992D01*
X9612194Y20413185D02*
X9621890Y20403489D01*
X7020070Y20390129D02*
X7337600Y20390129D01*
X9633501Y20396194D02*
X9646443Y20391665D01*
X9646443Y20391665D02*
X9660070Y20390129D01*
X9660070Y20390129D02*
X9977600Y20390129D01*
X9977600Y20390129D02*
X9991226Y20391665D01*
X9991226Y20391665D02*
X10004168Y20396194D01*
X10004168Y20396194D02*
X10015779Y20403489D01*
X10015779Y20403489D02*
X10025475Y20413185D01*
X10025475Y20413185D02*
X10032770Y20424796D01*
X11420070Y20390129D02*
X11737600Y20390129D01*
X10032770Y20424796D02*
X10037299Y20437738D01*
X14391226Y20391665D02*
X14404168Y20396194D01*
X10857600Y20390129D02*
X10871226Y20391665D01*
X14486443Y20511065D02*
X14500070Y20512600D01*
X10941890Y20499241D02*
X10953501Y20506536D01*
X24511872Y20512600D02*
X30261872Y14762600D01*
X10953501Y20506536D02*
X10966443Y20511065D01*
X11357299Y20464992D02*
X11360370Y20437738D01*
%TO.N,Oculink_3_CLK100-*%
X44174372Y10925100D02*
X24948800Y10925100D01*
X64436872Y10012600D02*
X45086872Y10012600D01*
X128552400Y12001872D02*
X125163128Y8612600D01*
X65836872Y8612600D02*
X64436872Y10012600D01*
X45086872Y10012600D02*
X44174372Y10925100D01*
X24948800Y10925100D02*
X24850000Y10826300D01*
X128651200Y15620000D02*
X128552400Y15521200D01*
X125163128Y8612600D02*
X65836872Y8612600D01*
X128552400Y15521200D02*
X128552400Y12001872D01*
%TO.N,Oculink_3_CLK100+*%
X128247600Y15521200D02*
X128148800Y15620000D01*
X128247600Y14542400D02*
X128247600Y15521200D01*
X128246032Y14528493D02*
X128247600Y14542400D01*
X128233964Y14503432D02*
X128241410Y14515283D01*
X128224068Y14493536D02*
X128233964Y14503432D01*
X128199007Y14481468D02*
X128212217Y14486090D01*
X128171192Y14478333D02*
X128199007Y14481468D01*
X128157982Y14473711D02*
X128171192Y14478333D01*
X128146131Y14466265D02*
X128157982Y14473711D01*
X128136235Y14456369D02*
X128146131Y14466265D01*
X128124167Y14431308D02*
X128128789Y14444518D01*
X128122600Y14417400D02*
X128124167Y14431308D01*
X128122600Y14102400D02*
X128122600Y14417400D01*
X128124167Y14088493D02*
X128122600Y14102400D01*
X128128789Y14075283D02*
X128124167Y14088493D01*
X128146131Y14053536D02*
X128136235Y14063432D01*
X128157982Y14046090D02*
X128146131Y14053536D01*
X128199007Y14038333D02*
X128171192Y14041468D01*
X27030100Y11339283D02*
X27042269Y11337911D01*
X128246032Y13991308D02*
X128241410Y14004518D01*
X26699482Y11339283D02*
X27030100Y11339283D01*
X26687312Y11337911D02*
X26699482Y11339283D01*
X25795752Y11333866D02*
X25807312Y11337911D01*
X26675752Y11333866D02*
X26687312Y11337911D01*
X26643419Y11272421D02*
X26646162Y11296761D01*
X26639374Y11260861D02*
X26643419Y11272421D01*
X128233964Y13623432D02*
X128241410Y13635283D01*
X26624199Y11241831D02*
X26632859Y11250491D01*
X26613829Y11235316D02*
X26624199Y11241831D01*
X26590100Y11229900D02*
X26602269Y11231271D01*
X26259482Y11229900D02*
X26590100Y11229900D01*
X25819482Y11339283D02*
X26150100Y11339283D01*
X26650207Y11308321D02*
X26656722Y11318691D01*
X26210207Y11260861D02*
X26216722Y11250491D01*
X25766162Y11296761D02*
X25770207Y11308321D01*
X26206162Y11272421D02*
X26210207Y11260861D01*
X26602269Y11231271D02*
X26613829Y11235316D01*
X25770207Y11308321D02*
X25776722Y11318691D01*
X27105382Y11241831D02*
X27115752Y11235316D01*
X26173829Y11333866D02*
X26184199Y11327351D01*
X26216722Y11250491D02*
X26225382Y11241831D01*
X128247600Y13662400D02*
X128247600Y13977400D01*
X128136235Y14063432D02*
X128128789Y14075283D01*
X25752859Y11250491D02*
X25759374Y11260861D01*
X26247312Y11231271D02*
X26259482Y11229900D01*
X128212217Y13606090D02*
X128224068Y13613536D01*
X128171192Y14041468D02*
X128157982Y14046090D01*
X25744199Y11241831D02*
X25752859Y11250491D01*
X27083419Y11296761D02*
X27086162Y11272421D01*
X26162269Y11337911D02*
X26173829Y11333866D01*
X128128789Y14444518D02*
X128136235Y14456369D01*
X25733829Y11235316D02*
X25744199Y11241831D01*
X26225382Y11241831D02*
X26235752Y11235316D01*
X128241410Y13635283D02*
X128246032Y13648493D01*
X128241410Y14515283D02*
X128246032Y14528493D01*
X25763419Y11272421D02*
X25766162Y11296761D01*
X26192859Y11318691D02*
X26199374Y11308321D01*
X128212217Y14033711D02*
X128199007Y14038333D01*
X25722269Y11231271D02*
X25733829Y11235316D01*
X128124167Y13551308D02*
X128128789Y13564518D01*
X26656722Y11318691D02*
X26665382Y11327351D01*
X25710100Y11229900D02*
X25722269Y11231271D01*
X128122600Y13222400D02*
X128122600Y13537400D01*
X26184199Y11327351D02*
X26192859Y11318691D01*
X26665382Y11327351D02*
X26675752Y11333866D01*
X25807312Y11337911D02*
X25819482Y11339283D01*
X25776722Y11318691D02*
X25785382Y11327351D01*
X27053829Y11333866D02*
X27064199Y11327351D01*
X25785382Y11327351D02*
X25795752Y11333866D01*
X26235752Y11235316D02*
X26247312Y11231271D01*
X25759374Y11260861D02*
X25763419Y11272421D01*
X128171192Y13598333D02*
X128199007Y13601468D01*
X24850000Y11328700D02*
X24948800Y11229900D01*
X128199007Y13158333D02*
X128171192Y13161468D01*
X26199374Y11308321D02*
X26203419Y11296761D01*
X27042269Y11337911D02*
X27053829Y11333866D01*
X26150100Y11339283D02*
X26162269Y11337911D01*
X26632859Y11250491D02*
X26639374Y11260861D01*
X26646162Y11296761D02*
X26650207Y11308321D01*
X128212217Y14486090D02*
X128224068Y14493536D01*
X24948800Y11229900D02*
X25710100Y11229900D01*
X128124167Y13208493D02*
X128122600Y13222400D01*
X26203419Y11296761D02*
X26206162Y11272421D01*
X27064199Y11327351D02*
X27072859Y11318691D01*
X27072859Y11318691D02*
X27079374Y11308321D01*
X27079374Y11308321D02*
X27083419Y11296761D01*
X128241410Y14004518D02*
X128233964Y14016369D01*
X27086162Y11272421D02*
X27090207Y11260861D01*
X27090207Y11260861D02*
X27096722Y11250491D01*
X27096722Y11250491D02*
X27105382Y11241831D01*
X128233964Y14016369D02*
X128224068Y14026265D01*
X27115752Y11235316D02*
X27127312Y11231271D01*
X27127312Y11231271D02*
X27139482Y11229900D01*
X27139482Y11229900D02*
X44300628Y11229900D01*
X128224068Y14026265D02*
X128212217Y14033711D01*
X44300628Y11229900D02*
X45213128Y10317400D01*
X45213128Y10317400D02*
X64563128Y10317400D01*
X64563128Y10317400D02*
X65963128Y8917400D01*
X65963128Y8917400D02*
X125036872Y8917400D01*
X125036872Y8917400D02*
X128247600Y12128128D01*
X128247600Y12128128D02*
X128247600Y13097400D01*
X128247600Y13097400D02*
X128246032Y13111308D01*
X128246032Y13111308D02*
X128241410Y13124518D01*
X128241410Y13124518D02*
X128233964Y13136369D01*
X128233964Y13136369D02*
X128224068Y13146265D01*
X128224068Y13146265D02*
X128212217Y13153711D01*
X128212217Y13153711D02*
X128199007Y13158333D01*
X128171192Y13161468D02*
X128157982Y13166090D01*
X128157982Y13166090D02*
X128146131Y13173536D01*
X128146131Y13173536D02*
X128136235Y13183432D01*
X128136235Y13183432D02*
X128128789Y13195283D01*
X128128789Y13195283D02*
X128124167Y13208493D01*
X128122600Y13537400D02*
X128124167Y13551308D01*
X128128789Y13564518D02*
X128136235Y13576369D01*
X128136235Y13576369D02*
X128146131Y13586265D01*
X128146131Y13586265D02*
X128157982Y13593711D01*
X128157982Y13593711D02*
X128171192Y13598333D01*
X128199007Y13601468D02*
X128212217Y13606090D01*
X128224068Y13613536D02*
X128233964Y13623432D01*
X128246032Y13648493D02*
X128247600Y13662400D01*
X128247600Y13977400D02*
X128246032Y13991308D01*
D24*
%TO.N,Net-(J5-PadA9)*%
X106350000Y15615000D02*
X99900000Y15615000D01*
%TO.N,Net-(J5-PadA10)*%
X98750000Y14565000D02*
X97800000Y15515000D01*
X106700000Y14565000D02*
X98750000Y14565000D01*
D25*
%TO.N,Oculink_2_CLK100+*%
X24948800Y14429900D02*
X24850000Y14528700D01*
X107583993Y12939084D02*
X107577920Y12926474D01*
X107592719Y12773250D02*
X106945723Y12126251D01*
X107815458Y13172764D02*
X107592719Y12950026D01*
X107826400Y13181491D02*
X107815458Y13172764D01*
X27625628Y14429900D02*
X26304900Y14429900D01*
X107839010Y13187563D02*
X107826400Y13181491D01*
X107852655Y13190677D02*
X107839010Y13187563D01*
X107601445Y12784192D02*
X107592719Y12773250D01*
X107880295Y13187563D02*
X107866650Y13190677D01*
X71086872Y11467400D02*
X70386872Y10767400D01*
X107892904Y13181491D02*
X107880295Y13187563D01*
X26236210Y14519517D02*
X26228764Y14531368D01*
X107927399Y13157966D02*
X107914789Y13164038D01*
X107941044Y13154852D02*
X107927399Y13157966D01*
X107955039Y13154852D02*
X107941044Y13154852D01*
X26207017Y14548710D02*
X26193807Y14553332D01*
X107992236Y13172764D02*
X107981293Y13164038D01*
X108246033Y13831308D02*
X108247600Y13817400D01*
X108241411Y13844518D02*
X108246033Y13831308D01*
X107592719Y12950026D02*
X107583993Y12939084D01*
X108233965Y13856369D02*
X108241411Y13844518D01*
X108224069Y13866265D02*
X108233965Y13856369D01*
X108212218Y13873711D02*
X108224069Y13866265D01*
X26256035Y14453431D02*
X26248589Y14465282D01*
X108199008Y13878333D02*
X108212218Y13873711D01*
X107866650Y13190677D02*
X107852655Y13190677D01*
X108157983Y14313711D02*
X108146132Y14306265D01*
X26243967Y14478492D02*
X26240832Y14506307D01*
X108199008Y14321468D02*
X108171193Y14318333D01*
X108136236Y13903432D02*
X108146132Y13893536D01*
X107914789Y13164038D02*
X107892904Y13181491D01*
X108212218Y14326090D02*
X108199008Y14321468D01*
X108224069Y14333536D02*
X108212218Y14326090D01*
X108157983Y13886090D02*
X108171193Y13881468D01*
X26290992Y14431467D02*
X26277782Y14436089D01*
X108233965Y14343432D02*
X108224069Y14333536D01*
X108171193Y14318333D02*
X108157983Y14313711D01*
X108247600Y13428128D02*
X107992236Y13172764D01*
X25767017Y14436089D02*
X25753807Y14431467D01*
X108247600Y14382400D02*
X108246033Y14368493D01*
X107981293Y13164038D02*
X107968684Y13157966D01*
X108246033Y14368493D02*
X108241411Y14355283D01*
X25816035Y14531368D02*
X25808589Y14519517D01*
X108247600Y13817400D02*
X108247600Y13428128D01*
X26193807Y14553332D02*
X26179900Y14554900D01*
X108148800Y15620000D02*
X108247600Y15521200D01*
X108241411Y14355283D02*
X108233965Y14343432D01*
X25864900Y14554900D02*
X25850992Y14553332D01*
X108146132Y14306265D02*
X108136236Y14296369D01*
X108146132Y13893536D02*
X108157983Y13886090D01*
X108136236Y14296369D02*
X108128790Y14284518D01*
X108122600Y13942400D02*
X108124168Y13928493D01*
X108128790Y14284518D02*
X108124168Y14271308D01*
X107968684Y13157966D02*
X107955039Y13154852D01*
X25800832Y14478492D02*
X25796210Y14465282D01*
X108124168Y14271308D02*
X108122600Y14257400D01*
X108122600Y14257400D02*
X108122600Y13942400D01*
X108247600Y15521200D02*
X108247600Y14382400D01*
X25739900Y14429900D02*
X24948800Y14429900D01*
X108124168Y13928493D02*
X108128790Y13915283D01*
X108128790Y13915283D02*
X108136236Y13903432D01*
X108171193Y13881468D02*
X108199008Y13878333D01*
X25753807Y14431467D02*
X25739900Y14429900D01*
X107577920Y12926474D02*
X107574806Y12912829D01*
X107574806Y12912829D02*
X107574806Y12898834D01*
X107574806Y12898834D02*
X107577920Y12885189D01*
X107577920Y12885189D02*
X107583993Y12872580D01*
X107583993Y12872580D02*
X107601445Y12850696D01*
X26228764Y14531368D02*
X26218868Y14541264D01*
X107601445Y12850696D02*
X107607517Y12838087D01*
X107607517Y12838087D02*
X107610631Y12824442D01*
X107610631Y12824442D02*
X107610631Y12810447D01*
X25788764Y14453431D02*
X25778868Y14443535D01*
X107610631Y12810447D02*
X107607517Y12796802D01*
X107607517Y12796802D02*
X107601445Y12784192D01*
X106945723Y12126251D02*
X106286872Y11467400D01*
X106286872Y11467400D02*
X71086872Y11467400D01*
X70386872Y10767400D02*
X66713128Y10767400D01*
X66713128Y10767400D02*
X65313128Y12167400D01*
X65313128Y12167400D02*
X47813128Y12167400D01*
X47813128Y12167400D02*
X46713128Y13267400D01*
X46713128Y13267400D02*
X28788128Y13267400D01*
X28788128Y13267400D02*
X27625628Y14429900D01*
X26304900Y14429900D02*
X26290992Y14431467D01*
X26277782Y14436089D02*
X26265931Y14443535D01*
X26265931Y14443535D02*
X26256035Y14453431D01*
X26248589Y14465282D02*
X26243967Y14478492D01*
X26240832Y14506307D02*
X26236210Y14519517D01*
X26218868Y14541264D02*
X26207017Y14548710D01*
X26179900Y14554900D02*
X25864900Y14554900D01*
X25850992Y14553332D02*
X25837782Y14548710D01*
X25837782Y14548710D02*
X25825931Y14541264D01*
X25825931Y14541264D02*
X25816035Y14531368D01*
X25808589Y14519517D02*
X25803967Y14506307D01*
X25803967Y14506307D02*
X25800832Y14478492D01*
X25796210Y14465282D02*
X25788764Y14453431D01*
X25778868Y14443535D02*
X25767017Y14436089D01*
%TO.N,Oculink_2_CLK100-*%
X108552400Y13301872D02*
X108552400Y15521200D01*
X66586872Y10462600D02*
X70513128Y10462600D01*
X27499372Y14125100D02*
X28661872Y12962600D01*
X108552400Y15521200D02*
X108651200Y15620000D01*
X28661872Y12962600D02*
X46586872Y12962600D01*
X46586872Y12962600D02*
X47686872Y11862600D01*
X106413128Y11162600D02*
X108552400Y13301872D01*
X24850000Y14026300D02*
X24948800Y14125100D01*
X47686872Y11862600D02*
X65186872Y11862600D01*
X24948800Y14125100D02*
X27499372Y14125100D01*
X70513128Y10462600D02*
X71213128Y11162600D01*
X65186872Y11862600D02*
X66586872Y10462600D01*
X71213128Y11162600D02*
X106413128Y11162600D01*
%TD*%
D26*
%TO.N,+3V3*%
G36*
X143173000Y23217263D02*
G01*
X143102532Y23047138D01*
X141067862Y21012468D01*
X140897737Y20942000D01*
X137702263Y20942000D01*
X137532138Y21012468D01*
X132729606Y25815000D01*
X132710360Y25830794D01*
X132688404Y25842530D01*
X132592505Y25882253D01*
X135021000Y25882253D01*
X135021000Y25797747D01*
X135037486Y25714865D01*
X135069825Y25636792D01*
X135116774Y25566528D01*
X135176528Y25506774D01*
X135246792Y25459825D01*
X135324865Y25427486D01*
X135407747Y25411000D01*
X135492253Y25411000D01*
X135575135Y25427486D01*
X135653208Y25459825D01*
X135723472Y25506774D01*
X135783226Y25566528D01*
X135830175Y25636792D01*
X135862514Y25714865D01*
X135879000Y25797747D01*
X135879000Y25882253D01*
X135862514Y25965135D01*
X135830175Y26043208D01*
X135783226Y26113472D01*
X135723472Y26173226D01*
X135653208Y26220175D01*
X135575135Y26252514D01*
X135492253Y26269000D01*
X135407747Y26269000D01*
X135324865Y26252514D01*
X135246792Y26220175D01*
X135176528Y26173226D01*
X135116774Y26113472D01*
X135069825Y26043208D01*
X135037486Y25965135D01*
X135021000Y25882253D01*
X132592505Y25882253D01*
X132471601Y25932333D01*
X132447777Y25939560D01*
X132423000Y25942000D01*
X122327000Y25942000D01*
X122302224Y25939560D01*
X122278399Y25932333D01*
X122061596Y25842530D01*
X122039639Y25830794D01*
X122020394Y25815000D01*
X121167862Y24962468D01*
X120997737Y24892000D01*
X114052263Y24892000D01*
X113882138Y24962468D01*
X113212353Y25632253D01*
X115021000Y25632253D01*
X115021000Y25547747D01*
X115037486Y25464865D01*
X115069825Y25386792D01*
X115116774Y25316528D01*
X115176528Y25256774D01*
X115246792Y25209825D01*
X115324865Y25177486D01*
X115407747Y25161000D01*
X115492253Y25161000D01*
X115575135Y25177486D01*
X115653208Y25209825D01*
X115723472Y25256774D01*
X115783226Y25316528D01*
X115830175Y25386792D01*
X115862514Y25464865D01*
X115879000Y25547747D01*
X115879000Y25632253D01*
X119421000Y25632253D01*
X119421000Y25547747D01*
X119437486Y25464865D01*
X119469825Y25386792D01*
X119516774Y25316528D01*
X119576528Y25256774D01*
X119646792Y25209825D01*
X119724865Y25177486D01*
X119807747Y25161000D01*
X119892253Y25161000D01*
X119975135Y25177486D01*
X120053208Y25209825D01*
X120123472Y25256774D01*
X120183226Y25316528D01*
X120230175Y25386792D01*
X120262514Y25464865D01*
X120279000Y25547747D01*
X120279000Y25632253D01*
X120262514Y25715135D01*
X120230175Y25793208D01*
X120183226Y25863472D01*
X120123472Y25923226D01*
X120053208Y25970175D01*
X119975135Y26002514D01*
X119892253Y26019000D01*
X119807747Y26019000D01*
X119724865Y26002514D01*
X119646792Y25970175D01*
X119576528Y25923226D01*
X119516774Y25863472D01*
X119469825Y25793208D01*
X119437486Y25715135D01*
X119421000Y25632253D01*
X115879000Y25632253D01*
X115862514Y25715135D01*
X115830175Y25793208D01*
X115783226Y25863472D01*
X115723472Y25923226D01*
X115653208Y25970175D01*
X115575135Y26002514D01*
X115492253Y26019000D01*
X115407747Y26019000D01*
X115324865Y26002514D01*
X115246792Y25970175D01*
X115176528Y25923226D01*
X115116774Y25863472D01*
X115069825Y25793208D01*
X115037486Y25715135D01*
X115021000Y25632253D01*
X113212353Y25632253D01*
X112979606Y25865000D01*
X112960360Y25880794D01*
X112938404Y25892530D01*
X112721601Y25982333D01*
X112697777Y25989560D01*
X112673000Y25992000D01*
X102177000Y25992000D01*
X102152224Y25989560D01*
X102128399Y25982333D01*
X101911596Y25892530D01*
X101889639Y25880794D01*
X101870394Y25865000D01*
X101067862Y25062468D01*
X100897737Y24992000D01*
X93502263Y24992000D01*
X93332138Y25062468D01*
X92762353Y25632253D01*
X95021000Y25632253D01*
X95021000Y25547747D01*
X95037486Y25464865D01*
X95069825Y25386792D01*
X95116774Y25316528D01*
X95176528Y25256774D01*
X95246792Y25209825D01*
X95324865Y25177486D01*
X95407747Y25161000D01*
X95492253Y25161000D01*
X95575135Y25177486D01*
X95653208Y25209825D01*
X95723472Y25256774D01*
X95783226Y25316528D01*
X95830175Y25386792D01*
X95862514Y25464865D01*
X95879000Y25547747D01*
X95879000Y25632253D01*
X99421000Y25632253D01*
X99421000Y25547747D01*
X99437486Y25464865D01*
X99469825Y25386792D01*
X99516774Y25316528D01*
X99576528Y25256774D01*
X99646792Y25209825D01*
X99724865Y25177486D01*
X99807747Y25161000D01*
X99892253Y25161000D01*
X99975135Y25177486D01*
X100053208Y25209825D01*
X100123472Y25256774D01*
X100183226Y25316528D01*
X100230175Y25386792D01*
X100262514Y25464865D01*
X100279000Y25547747D01*
X100279000Y25632253D01*
X100262514Y25715135D01*
X100230175Y25793208D01*
X100183226Y25863472D01*
X100123472Y25923226D01*
X100053208Y25970175D01*
X99975135Y26002514D01*
X99892253Y26019000D01*
X99807747Y26019000D01*
X99724865Y26002514D01*
X99646792Y25970175D01*
X99576528Y25923226D01*
X99516774Y25863472D01*
X99469825Y25793208D01*
X99437486Y25715135D01*
X99421000Y25632253D01*
X95879000Y25632253D01*
X95862514Y25715135D01*
X95830175Y25793208D01*
X95783226Y25863472D01*
X95723472Y25923226D01*
X95653208Y25970175D01*
X95575135Y26002514D01*
X95492253Y26019000D01*
X95407747Y26019000D01*
X95324865Y26002514D01*
X95246792Y25970175D01*
X95176528Y25923226D01*
X95116774Y25863472D01*
X95069825Y25793208D01*
X95037486Y25715135D01*
X95021000Y25632253D01*
X92762353Y25632253D01*
X92629606Y25765000D01*
X92610360Y25780794D01*
X92588404Y25792530D01*
X92371601Y25882333D01*
X92347777Y25889560D01*
X92323000Y25892000D01*
X82127000Y25892000D01*
X82102224Y25889560D01*
X82078399Y25882333D01*
X81861596Y25792530D01*
X81839639Y25780794D01*
X81820394Y25765000D01*
X81167862Y25112468D01*
X80997737Y25042000D01*
X80158698Y25042000D01*
X80183226Y25066528D01*
X80230175Y25136792D01*
X80262514Y25214865D01*
X80279000Y25297747D01*
X80279000Y25382253D01*
X80262514Y25465135D01*
X80230175Y25543208D01*
X80183226Y25613472D01*
X80123472Y25673226D01*
X80053208Y25720175D01*
X79975135Y25752514D01*
X79892253Y25769000D01*
X79807747Y25769000D01*
X79724865Y25752514D01*
X79646792Y25720175D01*
X79576528Y25673226D01*
X79516774Y25613472D01*
X79469825Y25543208D01*
X79437486Y25465135D01*
X79421000Y25382253D01*
X79421000Y25297747D01*
X79437486Y25214865D01*
X79469825Y25136792D01*
X79516774Y25066528D01*
X79541302Y25042000D01*
X75758698Y25042000D01*
X75783226Y25066528D01*
X75830175Y25136792D01*
X75862514Y25214865D01*
X75879000Y25297747D01*
X75879000Y25382253D01*
X75862514Y25465135D01*
X75830175Y25543208D01*
X75783226Y25613472D01*
X75723472Y25673226D01*
X75653208Y25720175D01*
X75575135Y25752514D01*
X75492253Y25769000D01*
X75407747Y25769000D01*
X75324865Y25752514D01*
X75246792Y25720175D01*
X75176528Y25673226D01*
X75116774Y25613472D01*
X75069825Y25543208D01*
X75037486Y25465135D01*
X75021000Y25382253D01*
X75021000Y25297747D01*
X75037486Y25214865D01*
X75069825Y25136792D01*
X75116774Y25066528D01*
X75141302Y25042000D01*
X73952263Y25042000D01*
X73782138Y25112468D01*
X73529606Y25365000D01*
X73510360Y25380794D01*
X73488404Y25392530D01*
X73387282Y25434416D01*
X73373472Y25448226D01*
X73303208Y25495175D01*
X73225135Y25527514D01*
X73142253Y25544000D01*
X73057747Y25544000D01*
X72974865Y25527514D01*
X72896792Y25495175D01*
X72892040Y25492000D01*
X67315436Y25492000D01*
X67297011Y25499632D01*
X67199640Y25519000D01*
X67100360Y25519000D01*
X67002989Y25499632D01*
X66984564Y25492000D01*
X60977000Y25492000D01*
X60952224Y25489560D01*
X60928399Y25482333D01*
X60711596Y25392530D01*
X60689639Y25380794D01*
X60670394Y25365000D01*
X58817862Y23512468D01*
X58647737Y23442000D01*
X43052263Y23442000D01*
X42882138Y23512468D01*
X40947468Y25447138D01*
X40877000Y25617263D01*
X40877000Y25882253D01*
X59421000Y25882253D01*
X59421000Y25797747D01*
X59437486Y25714865D01*
X59469825Y25636792D01*
X59516774Y25566528D01*
X59576528Y25506774D01*
X59646792Y25459825D01*
X59724865Y25427486D01*
X59807747Y25411000D01*
X59892253Y25411000D01*
X59975135Y25427486D01*
X60053208Y25459825D01*
X60123472Y25506774D01*
X60183226Y25566528D01*
X60230175Y25636792D01*
X60262514Y25714865D01*
X60279000Y25797747D01*
X60279000Y25882253D01*
X60262514Y25965135D01*
X60230175Y26043208D01*
X60183226Y26113472D01*
X60123472Y26173226D01*
X60053208Y26220175D01*
X59975135Y26252514D01*
X59892253Y26269000D01*
X59807747Y26269000D01*
X59724865Y26252514D01*
X59646792Y26220175D01*
X59576528Y26173226D01*
X59516774Y26113472D01*
X59469825Y26043208D01*
X59437486Y25965135D01*
X59421000Y25882253D01*
X40877000Y25882253D01*
X40877000Y28561000D01*
X143173000Y28561000D01*
X143173000Y23217263D01*
G37*
X143173000Y23217263D02*
X143102532Y23047138D01*
X141067862Y21012468D01*
X140897737Y20942000D01*
X137702263Y20942000D01*
X137532138Y21012468D01*
X132729606Y25815000D01*
X132710360Y25830794D01*
X132688404Y25842530D01*
X132592505Y25882253D01*
X135021000Y25882253D01*
X135021000Y25797747D01*
X135037486Y25714865D01*
X135069825Y25636792D01*
X135116774Y25566528D01*
X135176528Y25506774D01*
X135246792Y25459825D01*
X135324865Y25427486D01*
X135407747Y25411000D01*
X135492253Y25411000D01*
X135575135Y25427486D01*
X135653208Y25459825D01*
X135723472Y25506774D01*
X135783226Y25566528D01*
X135830175Y25636792D01*
X135862514Y25714865D01*
X135879000Y25797747D01*
X135879000Y25882253D01*
X135862514Y25965135D01*
X135830175Y26043208D01*
X135783226Y26113472D01*
X135723472Y26173226D01*
X135653208Y26220175D01*
X135575135Y26252514D01*
X135492253Y26269000D01*
X135407747Y26269000D01*
X135324865Y26252514D01*
X135246792Y26220175D01*
X135176528Y26173226D01*
X135116774Y26113472D01*
X135069825Y26043208D01*
X135037486Y25965135D01*
X135021000Y25882253D01*
X132592505Y25882253D01*
X132471601Y25932333D01*
X132447777Y25939560D01*
X132423000Y25942000D01*
X122327000Y25942000D01*
X122302224Y25939560D01*
X122278399Y25932333D01*
X122061596Y25842530D01*
X122039639Y25830794D01*
X122020394Y25815000D01*
X121167862Y24962468D01*
X120997737Y24892000D01*
X114052263Y24892000D01*
X113882138Y24962468D01*
X113212353Y25632253D01*
X115021000Y25632253D01*
X115021000Y25547747D01*
X115037486Y25464865D01*
X115069825Y25386792D01*
X115116774Y25316528D01*
X115176528Y25256774D01*
X115246792Y25209825D01*
X115324865Y25177486D01*
X115407747Y25161000D01*
X115492253Y25161000D01*
X115575135Y25177486D01*
X115653208Y25209825D01*
X115723472Y25256774D01*
X115783226Y25316528D01*
X115830175Y25386792D01*
X115862514Y25464865D01*
X115879000Y25547747D01*
X115879000Y25632253D01*
X119421000Y25632253D01*
X119421000Y25547747D01*
X119437486Y25464865D01*
X119469825Y25386792D01*
X119516774Y25316528D01*
X119576528Y25256774D01*
X119646792Y25209825D01*
X119724865Y25177486D01*
X119807747Y25161000D01*
X119892253Y25161000D01*
X119975135Y25177486D01*
X120053208Y25209825D01*
X120123472Y25256774D01*
X120183226Y25316528D01*
X120230175Y25386792D01*
X120262514Y25464865D01*
X120279000Y25547747D01*
X120279000Y25632253D01*
X120262514Y25715135D01*
X120230175Y25793208D01*
X120183226Y25863472D01*
X120123472Y25923226D01*
X120053208Y25970175D01*
X119975135Y26002514D01*
X119892253Y26019000D01*
X119807747Y26019000D01*
X119724865Y26002514D01*
X119646792Y25970175D01*
X119576528Y25923226D01*
X119516774Y25863472D01*
X119469825Y25793208D01*
X119437486Y25715135D01*
X119421000Y25632253D01*
X115879000Y25632253D01*
X115862514Y25715135D01*
X115830175Y25793208D01*
X115783226Y25863472D01*
X115723472Y25923226D01*
X115653208Y25970175D01*
X115575135Y26002514D01*
X115492253Y26019000D01*
X115407747Y26019000D01*
X115324865Y26002514D01*
X115246792Y25970175D01*
X115176528Y25923226D01*
X115116774Y25863472D01*
X115069825Y25793208D01*
X115037486Y25715135D01*
X115021000Y25632253D01*
X113212353Y25632253D01*
X112979606Y25865000D01*
X112960360Y25880794D01*
X112938404Y25892530D01*
X112721601Y25982333D01*
X112697777Y25989560D01*
X112673000Y25992000D01*
X102177000Y25992000D01*
X102152224Y25989560D01*
X102128399Y25982333D01*
X101911596Y25892530D01*
X101889639Y25880794D01*
X101870394Y25865000D01*
X101067862Y25062468D01*
X100897737Y24992000D01*
X93502263Y24992000D01*
X93332138Y25062468D01*
X92762353Y25632253D01*
X95021000Y25632253D01*
X95021000Y25547747D01*
X95037486Y25464865D01*
X95069825Y25386792D01*
X95116774Y25316528D01*
X95176528Y25256774D01*
X95246792Y25209825D01*
X95324865Y25177486D01*
X95407747Y25161000D01*
X95492253Y25161000D01*
X95575135Y25177486D01*
X95653208Y25209825D01*
X95723472Y25256774D01*
X95783226Y25316528D01*
X95830175Y25386792D01*
X95862514Y25464865D01*
X95879000Y25547747D01*
X95879000Y25632253D01*
X99421000Y25632253D01*
X99421000Y25547747D01*
X99437486Y25464865D01*
X99469825Y25386792D01*
X99516774Y25316528D01*
X99576528Y25256774D01*
X99646792Y25209825D01*
X99724865Y25177486D01*
X99807747Y25161000D01*
X99892253Y25161000D01*
X99975135Y25177486D01*
X100053208Y25209825D01*
X100123472Y25256774D01*
X100183226Y25316528D01*
X100230175Y25386792D01*
X100262514Y25464865D01*
X100279000Y25547747D01*
X100279000Y25632253D01*
X100262514Y25715135D01*
X100230175Y25793208D01*
X100183226Y25863472D01*
X100123472Y25923226D01*
X100053208Y25970175D01*
X99975135Y26002514D01*
X99892253Y26019000D01*
X99807747Y26019000D01*
X99724865Y26002514D01*
X99646792Y25970175D01*
X99576528Y25923226D01*
X99516774Y25863472D01*
X99469825Y25793208D01*
X99437486Y25715135D01*
X99421000Y25632253D01*
X95879000Y25632253D01*
X95862514Y25715135D01*
X95830175Y25793208D01*
X95783226Y25863472D01*
X95723472Y25923226D01*
X95653208Y25970175D01*
X95575135Y26002514D01*
X95492253Y26019000D01*
X95407747Y26019000D01*
X95324865Y26002514D01*
X95246792Y25970175D01*
X95176528Y25923226D01*
X95116774Y25863472D01*
X95069825Y25793208D01*
X95037486Y25715135D01*
X95021000Y25632253D01*
X92762353Y25632253D01*
X92629606Y25765000D01*
X92610360Y25780794D01*
X92588404Y25792530D01*
X92371601Y25882333D01*
X92347777Y25889560D01*
X92323000Y25892000D01*
X82127000Y25892000D01*
X82102224Y25889560D01*
X82078399Y25882333D01*
X81861596Y25792530D01*
X81839639Y25780794D01*
X81820394Y25765000D01*
X81167862Y25112468D01*
X80997737Y25042000D01*
X80158698Y25042000D01*
X80183226Y25066528D01*
X80230175Y25136792D01*
X80262514Y25214865D01*
X80279000Y25297747D01*
X80279000Y25382253D01*
X80262514Y25465135D01*
X80230175Y25543208D01*
X80183226Y25613472D01*
X80123472Y25673226D01*
X80053208Y25720175D01*
X79975135Y25752514D01*
X79892253Y25769000D01*
X79807747Y25769000D01*
X79724865Y25752514D01*
X79646792Y25720175D01*
X79576528Y25673226D01*
X79516774Y25613472D01*
X79469825Y25543208D01*
X79437486Y25465135D01*
X79421000Y25382253D01*
X79421000Y25297747D01*
X79437486Y25214865D01*
X79469825Y25136792D01*
X79516774Y25066528D01*
X79541302Y25042000D01*
X75758698Y25042000D01*
X75783226Y25066528D01*
X75830175Y25136792D01*
X75862514Y25214865D01*
X75879000Y25297747D01*
X75879000Y25382253D01*
X75862514Y25465135D01*
X75830175Y25543208D01*
X75783226Y25613472D01*
X75723472Y25673226D01*
X75653208Y25720175D01*
X75575135Y25752514D01*
X75492253Y25769000D01*
X75407747Y25769000D01*
X75324865Y25752514D01*
X75246792Y25720175D01*
X75176528Y25673226D01*
X75116774Y25613472D01*
X75069825Y25543208D01*
X75037486Y25465135D01*
X75021000Y25382253D01*
X75021000Y25297747D01*
X75037486Y25214865D01*
X75069825Y25136792D01*
X75116774Y25066528D01*
X75141302Y25042000D01*
X73952263Y25042000D01*
X73782138Y25112468D01*
X73529606Y25365000D01*
X73510360Y25380794D01*
X73488404Y25392530D01*
X73387282Y25434416D01*
X73373472Y25448226D01*
X73303208Y25495175D01*
X73225135Y25527514D01*
X73142253Y25544000D01*
X73057747Y25544000D01*
X72974865Y25527514D01*
X72896792Y25495175D01*
X72892040Y25492000D01*
X67315436Y25492000D01*
X67297011Y25499632D01*
X67199640Y25519000D01*
X67100360Y25519000D01*
X67002989Y25499632D01*
X66984564Y25492000D01*
X60977000Y25492000D01*
X60952224Y25489560D01*
X60928399Y25482333D01*
X60711596Y25392530D01*
X60689639Y25380794D01*
X60670394Y25365000D01*
X58817862Y23512468D01*
X58647737Y23442000D01*
X43052263Y23442000D01*
X42882138Y23512468D01*
X40947468Y25447138D01*
X40877000Y25617263D01*
X40877000Y25882253D01*
X59421000Y25882253D01*
X59421000Y25797747D01*
X59437486Y25714865D01*
X59469825Y25636792D01*
X59516774Y25566528D01*
X59576528Y25506774D01*
X59646792Y25459825D01*
X59724865Y25427486D01*
X59807747Y25411000D01*
X59892253Y25411000D01*
X59975135Y25427486D01*
X60053208Y25459825D01*
X60123472Y25506774D01*
X60183226Y25566528D01*
X60230175Y25636792D01*
X60262514Y25714865D01*
X60279000Y25797747D01*
X60279000Y25882253D01*
X60262514Y25965135D01*
X60230175Y26043208D01*
X60183226Y26113472D01*
X60123472Y26173226D01*
X60053208Y26220175D01*
X59975135Y26252514D01*
X59892253Y26269000D01*
X59807747Y26269000D01*
X59724865Y26252514D01*
X59646792Y26220175D01*
X59576528Y26173226D01*
X59516774Y26113472D01*
X59469825Y26043208D01*
X59437486Y25965135D01*
X59421000Y25882253D01*
X40877000Y25882253D01*
X40877000Y28561000D01*
X143173000Y28561000D01*
X143173000Y23217263D01*
%TO.N,+3.3Vaux*%
G36*
X9246000Y-12484640D02*
G01*
X9265368Y-12582011D01*
X9303361Y-12673734D01*
X9358517Y-12756282D01*
X9428718Y-12826483D01*
X9511266Y-12881639D01*
X9602989Y-12919632D01*
X9700360Y-12939000D01*
X9799640Y-12939000D01*
X9897011Y-12919632D01*
X9988734Y-12881639D01*
X10071282Y-12826483D01*
X10141483Y-12756282D01*
X10196639Y-12673734D01*
X10234632Y-12582011D01*
X10254000Y-12484640D01*
X10254000Y-12412000D01*
X15647737Y-12412000D01*
X15817862Y-12482468D01*
X17602532Y-14267138D01*
X17673000Y-14437263D01*
X17673000Y-22982737D01*
X17602532Y-23152862D01*
X16917862Y-23837532D01*
X16747737Y-23908000D01*
X202263Y-23908000D01*
X32138Y-23837532D01*
X-470034Y-23335360D01*
X7396000Y-23335360D01*
X7396000Y-23434640D01*
X7415368Y-23532011D01*
X7453361Y-23623734D01*
X7508517Y-23706282D01*
X7578718Y-23776483D01*
X7661266Y-23831639D01*
X7752989Y-23869632D01*
X7850360Y-23889000D01*
X7949640Y-23889000D01*
X8047011Y-23869632D01*
X8138734Y-23831639D01*
X8221282Y-23776483D01*
X8291483Y-23706282D01*
X8346639Y-23623734D01*
X8384632Y-23532011D01*
X8404000Y-23434640D01*
X8404000Y-23335360D01*
X8384632Y-23237989D01*
X8346639Y-23146266D01*
X8291483Y-23063718D01*
X8221282Y-22993517D01*
X8138734Y-22938361D01*
X8047011Y-22900368D01*
X7949640Y-22881000D01*
X7850360Y-22881000D01*
X7752989Y-22900368D01*
X7661266Y-22938361D01*
X7578718Y-22993517D01*
X7508517Y-23063718D01*
X7453361Y-23146266D01*
X7415368Y-23237989D01*
X7396000Y-23335360D01*
X-470034Y-23335360D01*
X-652532Y-23152862D01*
X-723000Y-22982737D01*
X-723000Y-21335360D01*
X1246000Y-21335360D01*
X1246000Y-21434640D01*
X1265368Y-21532011D01*
X1303361Y-21623734D01*
X1358517Y-21706282D01*
X1428718Y-21776483D01*
X1511266Y-21831639D01*
X1602989Y-21869632D01*
X1700360Y-21889000D01*
X1799640Y-21889000D01*
X1897011Y-21869632D01*
X1988734Y-21831639D01*
X2046940Y-21792747D01*
X14321000Y-21792747D01*
X14321000Y-21877253D01*
X14337486Y-21960135D01*
X14369825Y-22038208D01*
X14416774Y-22108472D01*
X14476528Y-22168226D01*
X14546792Y-22215175D01*
X14624865Y-22247514D01*
X14707747Y-22264000D01*
X14792253Y-22264000D01*
X14875135Y-22247514D01*
X14953208Y-22215175D01*
X15023472Y-22168226D01*
X15083226Y-22108472D01*
X15130175Y-22038208D01*
X15162514Y-21960135D01*
X15179000Y-21877253D01*
X15179000Y-21792747D01*
X15162514Y-21709865D01*
X15130175Y-21631792D01*
X15083226Y-21561528D01*
X15023472Y-21501774D01*
X14953208Y-21454825D01*
X14875135Y-21422486D01*
X14792253Y-21406000D01*
X14707747Y-21406000D01*
X14624865Y-21422486D01*
X14546792Y-21454825D01*
X14476528Y-21501774D01*
X14416774Y-21561528D01*
X14369825Y-21631792D01*
X14337486Y-21709865D01*
X14321000Y-21792747D01*
X2046940Y-21792747D01*
X2071282Y-21776483D01*
X2141483Y-21706282D01*
X2196639Y-21623734D01*
X2234632Y-21532011D01*
X2254000Y-21434640D01*
X2254000Y-21335360D01*
X2234632Y-21237989D01*
X2196639Y-21146266D01*
X2141483Y-21063718D01*
X2071282Y-20993517D01*
X1988734Y-20938361D01*
X1897011Y-20900368D01*
X1799640Y-20881000D01*
X1700360Y-20881000D01*
X1602989Y-20900368D01*
X1511266Y-20938361D01*
X1428718Y-20993517D01*
X1358517Y-21063718D01*
X1303361Y-21146266D01*
X1265368Y-21237989D01*
X1246000Y-21335360D01*
X-723000Y-21335360D01*
X-723000Y-18935360D01*
X1496000Y-18935360D01*
X1496000Y-19034640D01*
X1515368Y-19132011D01*
X1553361Y-19223734D01*
X1608517Y-19306282D01*
X1678718Y-19376483D01*
X1761266Y-19431639D01*
X1852989Y-19469632D01*
X1950360Y-19489000D01*
X2049640Y-19489000D01*
X2147011Y-19469632D01*
X2238734Y-19431639D01*
X2321282Y-19376483D01*
X2391483Y-19306282D01*
X2446639Y-19223734D01*
X2484632Y-19132011D01*
X2504000Y-19034640D01*
X2504000Y-18935360D01*
X2484632Y-18837989D01*
X2446639Y-18746266D01*
X2444288Y-18742747D01*
X8771000Y-18742747D01*
X8771000Y-18827253D01*
X8787486Y-18910135D01*
X8819825Y-18988208D01*
X8866774Y-19058472D01*
X8926528Y-19118226D01*
X8996792Y-19165175D01*
X9074865Y-19197514D01*
X9157747Y-19214000D01*
X9242253Y-19214000D01*
X9325135Y-19197514D01*
X9403208Y-19165175D01*
X9473472Y-19118226D01*
X9533226Y-19058472D01*
X9580175Y-18988208D01*
X9612514Y-18910135D01*
X9629000Y-18827253D01*
X9629000Y-18742747D01*
X9612514Y-18659865D01*
X9580175Y-18581792D01*
X9533226Y-18511528D01*
X9473472Y-18451774D01*
X9403208Y-18404825D01*
X9325135Y-18372486D01*
X9242253Y-18356000D01*
X9157747Y-18356000D01*
X9074865Y-18372486D01*
X8996792Y-18404825D01*
X8926528Y-18451774D01*
X8866774Y-18511528D01*
X8819825Y-18581792D01*
X8787486Y-18659865D01*
X8771000Y-18742747D01*
X2444288Y-18742747D01*
X2391483Y-18663718D01*
X2321282Y-18593517D01*
X2238734Y-18538361D01*
X2147011Y-18500368D01*
X2049640Y-18481000D01*
X1950360Y-18481000D01*
X1852989Y-18500368D01*
X1761266Y-18538361D01*
X1678718Y-18593517D01*
X1608517Y-18663718D01*
X1553361Y-18746266D01*
X1515368Y-18837989D01*
X1496000Y-18935360D01*
X-723000Y-18935360D01*
X-723000Y-13042747D01*
X3471000Y-13042747D01*
X3471000Y-13127253D01*
X3487486Y-13210135D01*
X3519825Y-13288208D01*
X3566774Y-13358472D01*
X3626528Y-13418226D01*
X3696792Y-13465175D01*
X3774865Y-13497514D01*
X3857747Y-13514000D01*
X3942253Y-13514000D01*
X4025135Y-13497514D01*
X4103208Y-13465175D01*
X4173472Y-13418226D01*
X4233226Y-13358472D01*
X4280175Y-13288208D01*
X4299005Y-13242747D01*
X11321000Y-13242747D01*
X11321000Y-13327253D01*
X11337486Y-13410135D01*
X11369825Y-13488208D01*
X11416774Y-13558472D01*
X11476528Y-13618226D01*
X11546792Y-13665175D01*
X11624865Y-13697514D01*
X11707747Y-13714000D01*
X11792253Y-13714000D01*
X11875135Y-13697514D01*
X11953208Y-13665175D01*
X12023472Y-13618226D01*
X12083226Y-13558472D01*
X12130175Y-13488208D01*
X12162514Y-13410135D01*
X12179000Y-13327253D01*
X12179000Y-13242747D01*
X12162514Y-13159865D01*
X12130175Y-13081792D01*
X12083226Y-13011528D01*
X12023472Y-12951774D01*
X11953208Y-12904825D01*
X11875135Y-12872486D01*
X11792253Y-12856000D01*
X11707747Y-12856000D01*
X11624865Y-12872486D01*
X11546792Y-12904825D01*
X11476528Y-12951774D01*
X11416774Y-13011528D01*
X11369825Y-13081792D01*
X11337486Y-13159865D01*
X11321000Y-13242747D01*
X4299005Y-13242747D01*
X4312514Y-13210135D01*
X4329000Y-13127253D01*
X4329000Y-13042747D01*
X4312514Y-12959865D01*
X4280175Y-12881792D01*
X4233226Y-12811528D01*
X4173472Y-12751774D01*
X4103208Y-12704825D01*
X4025135Y-12672486D01*
X3942253Y-12656000D01*
X3857747Y-12656000D01*
X3774865Y-12672486D01*
X3696792Y-12704825D01*
X3626528Y-12751774D01*
X3566774Y-12811528D01*
X3519825Y-12881792D01*
X3487486Y-12959865D01*
X3471000Y-13042747D01*
X-723000Y-13042747D01*
X-723000Y-12637263D01*
X-657022Y-12477978D01*
X-497737Y-12412000D01*
X9246000Y-12412000D01*
X9246000Y-12484640D01*
G37*
X9246000Y-12484640D02*
X9265368Y-12582011D01*
X9303361Y-12673734D01*
X9358517Y-12756282D01*
X9428718Y-12826483D01*
X9511266Y-12881639D01*
X9602989Y-12919632D01*
X9700360Y-12939000D01*
X9799640Y-12939000D01*
X9897011Y-12919632D01*
X9988734Y-12881639D01*
X10071282Y-12826483D01*
X10141483Y-12756282D01*
X10196639Y-12673734D01*
X10234632Y-12582011D01*
X10254000Y-12484640D01*
X10254000Y-12412000D01*
X15647737Y-12412000D01*
X15817862Y-12482468D01*
X17602532Y-14267138D01*
X17673000Y-14437263D01*
X17673000Y-22982737D01*
X17602532Y-23152862D01*
X16917862Y-23837532D01*
X16747737Y-23908000D01*
X202263Y-23908000D01*
X32138Y-23837532D01*
X-470034Y-23335360D01*
X7396000Y-23335360D01*
X7396000Y-23434640D01*
X7415368Y-23532011D01*
X7453361Y-23623734D01*
X7508517Y-23706282D01*
X7578718Y-23776483D01*
X7661266Y-23831639D01*
X7752989Y-23869632D01*
X7850360Y-23889000D01*
X7949640Y-23889000D01*
X8047011Y-23869632D01*
X8138734Y-23831639D01*
X8221282Y-23776483D01*
X8291483Y-23706282D01*
X8346639Y-23623734D01*
X8384632Y-23532011D01*
X8404000Y-23434640D01*
X8404000Y-23335360D01*
X8384632Y-23237989D01*
X8346639Y-23146266D01*
X8291483Y-23063718D01*
X8221282Y-22993517D01*
X8138734Y-22938361D01*
X8047011Y-22900368D01*
X7949640Y-22881000D01*
X7850360Y-22881000D01*
X7752989Y-22900368D01*
X7661266Y-22938361D01*
X7578718Y-22993517D01*
X7508517Y-23063718D01*
X7453361Y-23146266D01*
X7415368Y-23237989D01*
X7396000Y-23335360D01*
X-470034Y-23335360D01*
X-652532Y-23152862D01*
X-723000Y-22982737D01*
X-723000Y-21335360D01*
X1246000Y-21335360D01*
X1246000Y-21434640D01*
X1265368Y-21532011D01*
X1303361Y-21623734D01*
X1358517Y-21706282D01*
X1428718Y-21776483D01*
X1511266Y-21831639D01*
X1602989Y-21869632D01*
X1700360Y-21889000D01*
X1799640Y-21889000D01*
X1897011Y-21869632D01*
X1988734Y-21831639D01*
X2046940Y-21792747D01*
X14321000Y-21792747D01*
X14321000Y-21877253D01*
X14337486Y-21960135D01*
X14369825Y-22038208D01*
X14416774Y-22108472D01*
X14476528Y-22168226D01*
X14546792Y-22215175D01*
X14624865Y-22247514D01*
X14707747Y-22264000D01*
X14792253Y-22264000D01*
X14875135Y-22247514D01*
X14953208Y-22215175D01*
X15023472Y-22168226D01*
X15083226Y-22108472D01*
X15130175Y-22038208D01*
X15162514Y-21960135D01*
X15179000Y-21877253D01*
X15179000Y-21792747D01*
X15162514Y-21709865D01*
X15130175Y-21631792D01*
X15083226Y-21561528D01*
X15023472Y-21501774D01*
X14953208Y-21454825D01*
X14875135Y-21422486D01*
X14792253Y-21406000D01*
X14707747Y-21406000D01*
X14624865Y-21422486D01*
X14546792Y-21454825D01*
X14476528Y-21501774D01*
X14416774Y-21561528D01*
X14369825Y-21631792D01*
X14337486Y-21709865D01*
X14321000Y-21792747D01*
X2046940Y-21792747D01*
X2071282Y-21776483D01*
X2141483Y-21706282D01*
X2196639Y-21623734D01*
X2234632Y-21532011D01*
X2254000Y-21434640D01*
X2254000Y-21335360D01*
X2234632Y-21237989D01*
X2196639Y-21146266D01*
X2141483Y-21063718D01*
X2071282Y-20993517D01*
X1988734Y-20938361D01*
X1897011Y-20900368D01*
X1799640Y-20881000D01*
X1700360Y-20881000D01*
X1602989Y-20900368D01*
X1511266Y-20938361D01*
X1428718Y-20993517D01*
X1358517Y-21063718D01*
X1303361Y-21146266D01*
X1265368Y-21237989D01*
X1246000Y-21335360D01*
X-723000Y-21335360D01*
X-723000Y-18935360D01*
X1496000Y-18935360D01*
X1496000Y-19034640D01*
X1515368Y-19132011D01*
X1553361Y-19223734D01*
X1608517Y-19306282D01*
X1678718Y-19376483D01*
X1761266Y-19431639D01*
X1852989Y-19469632D01*
X1950360Y-19489000D01*
X2049640Y-19489000D01*
X2147011Y-19469632D01*
X2238734Y-19431639D01*
X2321282Y-19376483D01*
X2391483Y-19306282D01*
X2446639Y-19223734D01*
X2484632Y-19132011D01*
X2504000Y-19034640D01*
X2504000Y-18935360D01*
X2484632Y-18837989D01*
X2446639Y-18746266D01*
X2444288Y-18742747D01*
X8771000Y-18742747D01*
X8771000Y-18827253D01*
X8787486Y-18910135D01*
X8819825Y-18988208D01*
X8866774Y-19058472D01*
X8926528Y-19118226D01*
X8996792Y-19165175D01*
X9074865Y-19197514D01*
X9157747Y-19214000D01*
X9242253Y-19214000D01*
X9325135Y-19197514D01*
X9403208Y-19165175D01*
X9473472Y-19118226D01*
X9533226Y-19058472D01*
X9580175Y-18988208D01*
X9612514Y-18910135D01*
X9629000Y-18827253D01*
X9629000Y-18742747D01*
X9612514Y-18659865D01*
X9580175Y-18581792D01*
X9533226Y-18511528D01*
X9473472Y-18451774D01*
X9403208Y-18404825D01*
X9325135Y-18372486D01*
X9242253Y-18356000D01*
X9157747Y-18356000D01*
X9074865Y-18372486D01*
X8996792Y-18404825D01*
X8926528Y-18451774D01*
X8866774Y-18511528D01*
X8819825Y-18581792D01*
X8787486Y-18659865D01*
X8771000Y-18742747D01*
X2444288Y-18742747D01*
X2391483Y-18663718D01*
X2321282Y-18593517D01*
X2238734Y-18538361D01*
X2147011Y-18500368D01*
X2049640Y-18481000D01*
X1950360Y-18481000D01*
X1852989Y-18500368D01*
X1761266Y-18538361D01*
X1678718Y-18593517D01*
X1608517Y-18663718D01*
X1553361Y-18746266D01*
X1515368Y-18837989D01*
X1496000Y-18935360D01*
X-723000Y-18935360D01*
X-723000Y-13042747D01*
X3471000Y-13042747D01*
X3471000Y-13127253D01*
X3487486Y-13210135D01*
X3519825Y-13288208D01*
X3566774Y-13358472D01*
X3626528Y-13418226D01*
X3696792Y-13465175D01*
X3774865Y-13497514D01*
X3857747Y-13514000D01*
X3942253Y-13514000D01*
X4025135Y-13497514D01*
X4103208Y-13465175D01*
X4173472Y-13418226D01*
X4233226Y-13358472D01*
X4280175Y-13288208D01*
X4299005Y-13242747D01*
X11321000Y-13242747D01*
X11321000Y-13327253D01*
X11337486Y-13410135D01*
X11369825Y-13488208D01*
X11416774Y-13558472D01*
X11476528Y-13618226D01*
X11546792Y-13665175D01*
X11624865Y-13697514D01*
X11707747Y-13714000D01*
X11792253Y-13714000D01*
X11875135Y-13697514D01*
X11953208Y-13665175D01*
X12023472Y-13618226D01*
X12083226Y-13558472D01*
X12130175Y-13488208D01*
X12162514Y-13410135D01*
X12179000Y-13327253D01*
X12179000Y-13242747D01*
X12162514Y-13159865D01*
X12130175Y-13081792D01*
X12083226Y-13011528D01*
X12023472Y-12951774D01*
X11953208Y-12904825D01*
X11875135Y-12872486D01*
X11792253Y-12856000D01*
X11707747Y-12856000D01*
X11624865Y-12872486D01*
X11546792Y-12904825D01*
X11476528Y-12951774D01*
X11416774Y-13011528D01*
X11369825Y-13081792D01*
X11337486Y-13159865D01*
X11321000Y-13242747D01*
X4299005Y-13242747D01*
X4312514Y-13210135D01*
X4329000Y-13127253D01*
X4329000Y-13042747D01*
X4312514Y-12959865D01*
X4280175Y-12881792D01*
X4233226Y-12811528D01*
X4173472Y-12751774D01*
X4103208Y-12704825D01*
X4025135Y-12672486D01*
X3942253Y-12656000D01*
X3857747Y-12656000D01*
X3774865Y-12672486D01*
X3696792Y-12704825D01*
X3626528Y-12751774D01*
X3566774Y-12811528D01*
X3519825Y-12881792D01*
X3487486Y-12959865D01*
X3471000Y-13042747D01*
X-723000Y-13042747D01*
X-723000Y-12637263D01*
X-657022Y-12477978D01*
X-497737Y-12412000D01*
X9246000Y-12412000D01*
X9246000Y-12484640D01*
%TO.N,+3V3*%
G36*
X12621000Y18382253D02*
G01*
X12621000Y18297747D01*
X12637486Y18214865D01*
X12669825Y18136792D01*
X12716774Y18066528D01*
X12776528Y18006774D01*
X12846792Y17959825D01*
X12924865Y17927486D01*
X13007747Y17911000D01*
X13092253Y17911000D01*
X13175135Y17927486D01*
X13253208Y17959825D01*
X13323472Y18006774D01*
X13383226Y18066528D01*
X13430175Y18136792D01*
X13462514Y18214865D01*
X13479000Y18297747D01*
X13479000Y18382253D01*
X13477857Y18388000D01*
X14836054Y18388000D01*
X14776528Y18348226D01*
X14716774Y18288472D01*
X14669825Y18218208D01*
X14637486Y18140135D01*
X14621000Y18057253D01*
X14621000Y17972747D01*
X14637486Y17889865D01*
X14669825Y17811792D01*
X14716774Y17741528D01*
X14776528Y17681774D01*
X14846792Y17634825D01*
X14924865Y17602486D01*
X15007747Y17586000D01*
X15092253Y17586000D01*
X15175135Y17602486D01*
X15253208Y17634825D01*
X15323472Y17681774D01*
X15383226Y17741528D01*
X15430175Y17811792D01*
X15462514Y17889865D01*
X15479000Y17972747D01*
X15479000Y18057253D01*
X15462514Y18140135D01*
X15430175Y18218208D01*
X15383226Y18288472D01*
X15323472Y18348226D01*
X15263946Y18388000D01*
X17797737Y18388000D01*
X17967862Y18317532D01*
X18372029Y17913365D01*
X18302989Y17899632D01*
X18211266Y17861639D01*
X18128718Y17806483D01*
X18058517Y17736282D01*
X18003361Y17653734D01*
X17965368Y17562011D01*
X17946000Y17464640D01*
X17946000Y17365360D01*
X17965368Y17267989D01*
X18003361Y17176266D01*
X18058517Y17093718D01*
X18128718Y17023517D01*
X18211266Y16968361D01*
X18302989Y16930368D01*
X18400360Y16911000D01*
X18499640Y16911000D01*
X18597011Y16930368D01*
X18688734Y16968361D01*
X18771282Y17023517D01*
X18841483Y17093718D01*
X18896639Y17176266D01*
X18934632Y17267989D01*
X18948365Y17337029D01*
X18952447Y17332947D01*
X18965368Y17267989D01*
X19003361Y17176266D01*
X19058517Y17093718D01*
X19128718Y17023517D01*
X19211266Y16968361D01*
X19302989Y16930368D01*
X19367947Y16917447D01*
X20467335Y15818059D01*
X20523000Y15683671D01*
X20523000Y12987573D01*
X20501528Y12973226D01*
X20441774Y12913472D01*
X20394825Y12843208D01*
X20362486Y12765135D01*
X20346000Y12682253D01*
X20346000Y12597747D01*
X20362486Y12514865D01*
X20394825Y12436792D01*
X20441774Y12366528D01*
X20501528Y12306774D01*
X20523000Y12292427D01*
X20523000Y8967263D01*
X20452532Y8797138D01*
X17300000Y5644606D01*
X17284206Y5625360D01*
X17272470Y5603404D01*
X17182667Y5386601D01*
X17175440Y5362777D01*
X17173000Y5338000D01*
X17173000Y-5808000D01*
X17175440Y-5832776D01*
X17182667Y-5856601D01*
X17272470Y-6073404D01*
X17284206Y-6095361D01*
X17300000Y-6114606D01*
X20470394Y-9285000D01*
X20489640Y-9300794D01*
X20511596Y-9312530D01*
X20728399Y-9402333D01*
X20752223Y-9409560D01*
X20777000Y-9412000D01*
X36397737Y-9412000D01*
X36557022Y-9477978D01*
X36623000Y-9637263D01*
X36623000Y-15882737D01*
X36552532Y-16052862D01*
X33817862Y-18787532D01*
X33647737Y-18858000D01*
X24952263Y-18858000D01*
X24782138Y-18787532D01*
X16629606Y-10635000D01*
X16610360Y-10619206D01*
X16588404Y-10607470D01*
X16371601Y-10517667D01*
X16347777Y-10510440D01*
X16323000Y-10508000D01*
X12552263Y-10508000D01*
X12382138Y-10437532D01*
X9147468Y-7202862D01*
X9077000Y-7032737D01*
X9077000Y5538000D01*
X9074560Y5562776D01*
X9067333Y5586601D01*
X8977530Y5803404D01*
X8965794Y5825361D01*
X8950000Y5844606D01*
X8329966Y6464640D01*
X8871000Y6464640D01*
X8871000Y6365360D01*
X8890368Y6267989D01*
X8928361Y6176266D01*
X8983517Y6093718D01*
X9053718Y6023517D01*
X9136266Y5968361D01*
X9227989Y5930368D01*
X9325360Y5911000D01*
X9424640Y5911000D01*
X9522011Y5930368D01*
X9613734Y5968361D01*
X9696282Y6023517D01*
X9766483Y6093718D01*
X9821639Y6176266D01*
X9859632Y6267989D01*
X9875000Y6345250D01*
X9890368Y6267989D01*
X9928361Y6176266D01*
X9983517Y6093718D01*
X10053718Y6023517D01*
X10136266Y5968361D01*
X10227989Y5930368D01*
X10325360Y5911000D01*
X10424640Y5911000D01*
X10522011Y5930368D01*
X10613734Y5968361D01*
X10696282Y6023517D01*
X10766483Y6093718D01*
X10821639Y6176266D01*
X10859632Y6267989D01*
X10875000Y6345250D01*
X10890368Y6267989D01*
X10928361Y6176266D01*
X10983517Y6093718D01*
X11053718Y6023517D01*
X11136266Y5968361D01*
X11227989Y5930368D01*
X11325360Y5911000D01*
X11424640Y5911000D01*
X11522011Y5930368D01*
X11613734Y5968361D01*
X11696282Y6023517D01*
X11766483Y6093718D01*
X11821639Y6176266D01*
X11859632Y6267989D01*
X11879000Y6365360D01*
X11879000Y6464640D01*
X11859632Y6562011D01*
X11821639Y6653734D01*
X11766483Y6736282D01*
X11696282Y6806483D01*
X11613734Y6861639D01*
X11522011Y6899632D01*
X11424640Y6919000D01*
X11325360Y6919000D01*
X11227989Y6899632D01*
X11136266Y6861639D01*
X11053718Y6806483D01*
X10983517Y6736282D01*
X10928361Y6653734D01*
X10890368Y6562011D01*
X10875000Y6484750D01*
X10859632Y6562011D01*
X10821639Y6653734D01*
X10766483Y6736282D01*
X10696282Y6806483D01*
X10613734Y6861639D01*
X10522011Y6899632D01*
X10424640Y6919000D01*
X10325360Y6919000D01*
X10227989Y6899632D01*
X10136266Y6861639D01*
X10053718Y6806483D01*
X9983517Y6736282D01*
X9928361Y6653734D01*
X9890368Y6562011D01*
X9875000Y6484750D01*
X9859632Y6562011D01*
X9821639Y6653734D01*
X9766483Y6736282D01*
X9696282Y6806483D01*
X9613734Y6861639D01*
X9522011Y6899632D01*
X9424640Y6919000D01*
X9325360Y6919000D01*
X9227989Y6899632D01*
X9136266Y6861639D01*
X9053718Y6806483D01*
X8983517Y6736282D01*
X8928361Y6653734D01*
X8890368Y6562011D01*
X8871000Y6464640D01*
X8329966Y6464640D01*
X7237353Y7557253D01*
X12071000Y7557253D01*
X12071000Y7472747D01*
X12087486Y7389865D01*
X12119825Y7311792D01*
X12166774Y7241528D01*
X12226528Y7181774D01*
X12296792Y7134825D01*
X12374865Y7102486D01*
X12457747Y7086000D01*
X12542253Y7086000D01*
X12625135Y7102486D01*
X12703208Y7134825D01*
X12773472Y7181774D01*
X12833226Y7241528D01*
X12880175Y7311792D01*
X12912514Y7389865D01*
X12929000Y7472747D01*
X12929000Y7557253D01*
X12912514Y7640135D01*
X12880175Y7718208D01*
X12833226Y7788472D01*
X12773472Y7848226D01*
X12703208Y7895175D01*
X12625135Y7927514D01*
X12542253Y7944000D01*
X12457747Y7944000D01*
X12374865Y7927514D01*
X12296792Y7895175D01*
X12226528Y7848226D01*
X12166774Y7788472D01*
X12119825Y7718208D01*
X12087486Y7640135D01*
X12071000Y7557253D01*
X7237353Y7557253D01*
X6997468Y7797138D01*
X6927000Y7967263D01*
X6927000Y9457253D01*
X17346000Y9457253D01*
X17346000Y9372747D01*
X17362486Y9289865D01*
X17394825Y9211792D01*
X17441774Y9141528D01*
X17501528Y9081774D01*
X17571792Y9034825D01*
X17649865Y9002486D01*
X17732747Y8986000D01*
X17817253Y8986000D01*
X17900135Y9002486D01*
X17978208Y9034825D01*
X18048472Y9081774D01*
X18108226Y9141528D01*
X18155175Y9211792D01*
X18187514Y9289865D01*
X18204000Y9372747D01*
X18204000Y9457253D01*
X18187514Y9540135D01*
X18155175Y9618208D01*
X18108226Y9688472D01*
X18048472Y9748226D01*
X17978208Y9795175D01*
X17900135Y9827514D01*
X17817253Y9844000D01*
X17732747Y9844000D01*
X17649865Y9827514D01*
X17571792Y9795175D01*
X17501528Y9748226D01*
X17441774Y9688472D01*
X17394825Y9618208D01*
X17362486Y9540135D01*
X17346000Y9457253D01*
X6927000Y9457253D01*
X6927000Y10932253D01*
X10146000Y10932253D01*
X10146000Y10847747D01*
X10162486Y10764865D01*
X10194825Y10686792D01*
X10241774Y10616528D01*
X10301528Y10556774D01*
X10371792Y10509825D01*
X10449865Y10477486D01*
X10532747Y10461000D01*
X10617253Y10461000D01*
X10700135Y10477486D01*
X10778208Y10509825D01*
X10848472Y10556774D01*
X10908226Y10616528D01*
X10952142Y10682253D01*
X17021000Y10682253D01*
X17021000Y10597747D01*
X17037486Y10514865D01*
X17069825Y10436792D01*
X17116774Y10366528D01*
X17176528Y10306774D01*
X17246792Y10259825D01*
X17324865Y10227486D01*
X17407747Y10211000D01*
X17492253Y10211000D01*
X17575135Y10227486D01*
X17653208Y10259825D01*
X17723472Y10306774D01*
X17783226Y10366528D01*
X17830175Y10436792D01*
X17862514Y10514865D01*
X17879000Y10597747D01*
X17879000Y10682253D01*
X17862514Y10765135D01*
X17830175Y10843208D01*
X17783226Y10913472D01*
X17723472Y10973226D01*
X17653208Y11020175D01*
X17575135Y11052514D01*
X17492253Y11069000D01*
X17407747Y11069000D01*
X17324865Y11052514D01*
X17246792Y11020175D01*
X17176528Y10973226D01*
X17116774Y10913472D01*
X17069825Y10843208D01*
X17037486Y10765135D01*
X17021000Y10682253D01*
X10952142Y10682253D01*
X10955175Y10686792D01*
X10987514Y10764865D01*
X11004000Y10847747D01*
X11004000Y10932253D01*
X10987514Y11015135D01*
X10955175Y11093208D01*
X10908226Y11163472D01*
X10848472Y11223226D01*
X10778208Y11270175D01*
X10700135Y11302514D01*
X10617253Y11319000D01*
X10532747Y11319000D01*
X10449865Y11302514D01*
X10371792Y11270175D01*
X10301528Y11223226D01*
X10241774Y11163472D01*
X10194825Y11093208D01*
X10162486Y11015135D01*
X10146000Y10932253D01*
X6927000Y10932253D01*
X6927000Y11957253D01*
X12796000Y11957253D01*
X12796000Y11872747D01*
X12812486Y11789865D01*
X12844825Y11711792D01*
X12891774Y11641528D01*
X12951528Y11581774D01*
X13021792Y11534825D01*
X13099865Y11502486D01*
X13182747Y11486000D01*
X13267253Y11486000D01*
X13350135Y11502486D01*
X13428208Y11534825D01*
X13498472Y11581774D01*
X13558226Y11641528D01*
X13605175Y11711792D01*
X13637514Y11789865D01*
X13654000Y11872747D01*
X13654000Y11957253D01*
X13796000Y11957253D01*
X13796000Y11872747D01*
X13812486Y11789865D01*
X13844825Y11711792D01*
X13891774Y11641528D01*
X13951528Y11581774D01*
X14021792Y11534825D01*
X14099865Y11502486D01*
X14182747Y11486000D01*
X14267253Y11486000D01*
X14350135Y11502486D01*
X14428208Y11534825D01*
X14498472Y11581774D01*
X14558226Y11641528D01*
X14605175Y11711792D01*
X14637514Y11789865D01*
X14654000Y11872747D01*
X14654000Y11957253D01*
X14796000Y11957253D01*
X14796000Y11872747D01*
X14812486Y11789865D01*
X14844825Y11711792D01*
X14891774Y11641528D01*
X14951528Y11581774D01*
X15021792Y11534825D01*
X15099865Y11502486D01*
X15182747Y11486000D01*
X15267253Y11486000D01*
X15350135Y11502486D01*
X15428208Y11534825D01*
X15498472Y11581774D01*
X15558226Y11641528D01*
X15605175Y11711792D01*
X15637514Y11789865D01*
X15654000Y11872747D01*
X15654000Y11957253D01*
X15637514Y12040135D01*
X15605175Y12118208D01*
X15558226Y12188472D01*
X15498472Y12248226D01*
X15428208Y12295175D01*
X15350135Y12327514D01*
X15267253Y12344000D01*
X15182747Y12344000D01*
X15099865Y12327514D01*
X15021792Y12295175D01*
X14951528Y12248226D01*
X14891774Y12188472D01*
X14844825Y12118208D01*
X14812486Y12040135D01*
X14796000Y11957253D01*
X14654000Y11957253D01*
X14637514Y12040135D01*
X14605175Y12118208D01*
X14558226Y12188472D01*
X14498472Y12248226D01*
X14428208Y12295175D01*
X14350135Y12327514D01*
X14267253Y12344000D01*
X14182747Y12344000D01*
X14099865Y12327514D01*
X14021792Y12295175D01*
X13951528Y12248226D01*
X13891774Y12188472D01*
X13844825Y12118208D01*
X13812486Y12040135D01*
X13796000Y11957253D01*
X13654000Y11957253D01*
X13637514Y12040135D01*
X13605175Y12118208D01*
X13558226Y12188472D01*
X13498472Y12248226D01*
X13428208Y12295175D01*
X13350135Y12327514D01*
X13267253Y12344000D01*
X13182747Y12344000D01*
X13099865Y12327514D01*
X13021792Y12295175D01*
X12951528Y12248226D01*
X12891774Y12188472D01*
X12844825Y12118208D01*
X12812486Y12040135D01*
X12796000Y11957253D01*
X6927000Y11957253D01*
X6927000Y12657253D01*
X7596000Y12657253D01*
X7596000Y12572747D01*
X7612486Y12489865D01*
X7644825Y12411792D01*
X7691774Y12341528D01*
X7751528Y12281774D01*
X7821792Y12234825D01*
X7899865Y12202486D01*
X7982747Y12186000D01*
X8067253Y12186000D01*
X8150135Y12202486D01*
X8228208Y12234825D01*
X8298472Y12281774D01*
X8358226Y12341528D01*
X8405175Y12411792D01*
X8437514Y12489865D01*
X8454000Y12572747D01*
X8454000Y12657253D01*
X8447558Y12689640D01*
X9371000Y12689640D01*
X9371000Y12590360D01*
X9390368Y12492989D01*
X9428361Y12401266D01*
X9483517Y12318718D01*
X9553718Y12248517D01*
X9636266Y12193361D01*
X9727989Y12155368D01*
X9825360Y12136000D01*
X9924640Y12136000D01*
X10022011Y12155368D01*
X10113734Y12193361D01*
X10196282Y12248517D01*
X10266483Y12318718D01*
X10321639Y12401266D01*
X10359632Y12492989D01*
X10375000Y12570250D01*
X10390368Y12492989D01*
X10428361Y12401266D01*
X10483517Y12318718D01*
X10553718Y12248517D01*
X10636266Y12193361D01*
X10727989Y12155368D01*
X10825360Y12136000D01*
X10924640Y12136000D01*
X11022011Y12155368D01*
X11113734Y12193361D01*
X11196282Y12248517D01*
X11266483Y12318718D01*
X11321639Y12401266D01*
X11359632Y12492989D01*
X11379000Y12590360D01*
X11379000Y12689640D01*
X11359632Y12787011D01*
X11321639Y12878734D01*
X11269176Y12957253D01*
X12796000Y12957253D01*
X12796000Y12872747D01*
X12812486Y12789865D01*
X12844825Y12711792D01*
X12891774Y12641528D01*
X12951528Y12581774D01*
X13021792Y12534825D01*
X13099865Y12502486D01*
X13182747Y12486000D01*
X13267253Y12486000D01*
X13350135Y12502486D01*
X13428208Y12534825D01*
X13498472Y12581774D01*
X13558226Y12641528D01*
X13605175Y12711792D01*
X13637514Y12789865D01*
X13654000Y12872747D01*
X13654000Y12957253D01*
X13796000Y12957253D01*
X13796000Y12872747D01*
X13812486Y12789865D01*
X13844825Y12711792D01*
X13891774Y12641528D01*
X13951528Y12581774D01*
X14021792Y12534825D01*
X14099865Y12502486D01*
X14182747Y12486000D01*
X14267253Y12486000D01*
X14350135Y12502486D01*
X14428208Y12534825D01*
X14498472Y12581774D01*
X14558226Y12641528D01*
X14605175Y12711792D01*
X14637514Y12789865D01*
X14654000Y12872747D01*
X14654000Y12957253D01*
X14796000Y12957253D01*
X14796000Y12872747D01*
X14812486Y12789865D01*
X14844825Y12711792D01*
X14891774Y12641528D01*
X14951528Y12581774D01*
X15021792Y12534825D01*
X15099865Y12502486D01*
X15182747Y12486000D01*
X15267253Y12486000D01*
X15350135Y12502486D01*
X15428208Y12534825D01*
X15498472Y12581774D01*
X15556338Y12639640D01*
X17321000Y12639640D01*
X17321000Y12540360D01*
X17340368Y12442989D01*
X17378361Y12351266D01*
X17433517Y12268718D01*
X17503718Y12198517D01*
X17586266Y12143361D01*
X17677989Y12105368D01*
X17775360Y12086000D01*
X17874640Y12086000D01*
X17972011Y12105368D01*
X18063734Y12143361D01*
X18146282Y12198517D01*
X18216483Y12268718D01*
X18271639Y12351266D01*
X18306788Y12436123D01*
X18315368Y12392989D01*
X18353361Y12301266D01*
X18408517Y12218718D01*
X18478718Y12148517D01*
X18561266Y12093361D01*
X18652989Y12055368D01*
X18750360Y12036000D01*
X18849640Y12036000D01*
X18947011Y12055368D01*
X19038734Y12093361D01*
X19121282Y12148517D01*
X19191483Y12218718D01*
X19246639Y12301266D01*
X19284632Y12392989D01*
X19304000Y12490360D01*
X19304000Y12589640D01*
X19284632Y12687011D01*
X19246639Y12778734D01*
X19191483Y12861282D01*
X19121282Y12931483D01*
X19038734Y12986639D01*
X18947011Y13024632D01*
X18849640Y13044000D01*
X18750360Y13044000D01*
X18652989Y13024632D01*
X18561266Y12986639D01*
X18478718Y12931483D01*
X18408517Y12861282D01*
X18353361Y12778734D01*
X18318212Y12693877D01*
X18309632Y12737011D01*
X18271639Y12828734D01*
X18216483Y12911282D01*
X18146282Y12981483D01*
X18063734Y13036639D01*
X17972011Y13074632D01*
X17874640Y13094000D01*
X17775360Y13094000D01*
X17677989Y13074632D01*
X17586266Y13036639D01*
X17503718Y12981483D01*
X17433517Y12911282D01*
X17378361Y12828734D01*
X17340368Y12737011D01*
X17321000Y12639640D01*
X15556338Y12639640D01*
X15558226Y12641528D01*
X15605175Y12711792D01*
X15637514Y12789865D01*
X15654000Y12872747D01*
X15654000Y12957253D01*
X15637514Y13040135D01*
X15605175Y13118208D01*
X15558226Y13188472D01*
X15498472Y13248226D01*
X15428208Y13295175D01*
X15350135Y13327514D01*
X15267253Y13344000D01*
X15182747Y13344000D01*
X15099865Y13327514D01*
X15021792Y13295175D01*
X14951528Y13248226D01*
X14891774Y13188472D01*
X14844825Y13118208D01*
X14812486Y13040135D01*
X14796000Y12957253D01*
X14654000Y12957253D01*
X14637514Y13040135D01*
X14605175Y13118208D01*
X14558226Y13188472D01*
X14498472Y13248226D01*
X14428208Y13295175D01*
X14350135Y13327514D01*
X14267253Y13344000D01*
X14182747Y13344000D01*
X14099865Y13327514D01*
X14021792Y13295175D01*
X13951528Y13248226D01*
X13891774Y13188472D01*
X13844825Y13118208D01*
X13812486Y13040135D01*
X13796000Y12957253D01*
X13654000Y12957253D01*
X13637514Y13040135D01*
X13605175Y13118208D01*
X13558226Y13188472D01*
X13498472Y13248226D01*
X13428208Y13295175D01*
X13350135Y13327514D01*
X13267253Y13344000D01*
X13182747Y13344000D01*
X13099865Y13327514D01*
X13021792Y13295175D01*
X12951528Y13248226D01*
X12891774Y13188472D01*
X12844825Y13118208D01*
X12812486Y13040135D01*
X12796000Y12957253D01*
X11269176Y12957253D01*
X11266483Y12961282D01*
X11196282Y13031483D01*
X11113734Y13086639D01*
X11022011Y13124632D01*
X10924640Y13144000D01*
X10825360Y13144000D01*
X10727989Y13124632D01*
X10636266Y13086639D01*
X10553718Y13031483D01*
X10483517Y12961282D01*
X10428361Y12878734D01*
X10390368Y12787011D01*
X10375000Y12709750D01*
X10359632Y12787011D01*
X10321639Y12878734D01*
X10266483Y12961282D01*
X10196282Y13031483D01*
X10113734Y13086639D01*
X10022011Y13124632D01*
X9924640Y13144000D01*
X9825360Y13144000D01*
X9727989Y13124632D01*
X9636266Y13086639D01*
X9553718Y13031483D01*
X9483517Y12961282D01*
X9428361Y12878734D01*
X9390368Y12787011D01*
X9371000Y12689640D01*
X8447558Y12689640D01*
X8437514Y12740135D01*
X8405175Y12818208D01*
X8358226Y12888472D01*
X8298472Y12948226D01*
X8228208Y12995175D01*
X8150135Y13027514D01*
X8067253Y13044000D01*
X7982747Y13044000D01*
X7899865Y13027514D01*
X7821792Y12995175D01*
X7751528Y12948226D01*
X7691774Y12888472D01*
X7644825Y12818208D01*
X7612486Y12740135D01*
X7596000Y12657253D01*
X6927000Y12657253D01*
X6927000Y13957253D01*
X12796000Y13957253D01*
X12796000Y13872747D01*
X12812486Y13789865D01*
X12844825Y13711792D01*
X12891774Y13641528D01*
X12951528Y13581774D01*
X13021792Y13534825D01*
X13099865Y13502486D01*
X13182747Y13486000D01*
X13267253Y13486000D01*
X13350135Y13502486D01*
X13428208Y13534825D01*
X13498472Y13581774D01*
X13558226Y13641528D01*
X13605175Y13711792D01*
X13637514Y13789865D01*
X13654000Y13872747D01*
X13654000Y13957253D01*
X13796000Y13957253D01*
X13796000Y13872747D01*
X13812486Y13789865D01*
X13844825Y13711792D01*
X13891774Y13641528D01*
X13951528Y13581774D01*
X14021792Y13534825D01*
X14099865Y13502486D01*
X14182747Y13486000D01*
X14267253Y13486000D01*
X14350135Y13502486D01*
X14428208Y13534825D01*
X14498472Y13581774D01*
X14558226Y13641528D01*
X14605175Y13711792D01*
X14637514Y13789865D01*
X14654000Y13872747D01*
X14654000Y13957253D01*
X14796000Y13957253D01*
X14796000Y13872747D01*
X14812486Y13789865D01*
X14844825Y13711792D01*
X14891774Y13641528D01*
X14951528Y13581774D01*
X15021792Y13534825D01*
X15099865Y13502486D01*
X15182747Y13486000D01*
X15267253Y13486000D01*
X15350135Y13502486D01*
X15428208Y13534825D01*
X15498472Y13581774D01*
X15558226Y13641528D01*
X15605175Y13711792D01*
X15637514Y13789865D01*
X15654000Y13872747D01*
X15654000Y13957253D01*
X15637514Y14040135D01*
X15605175Y14118208D01*
X15558226Y14188472D01*
X15498472Y14248226D01*
X15428208Y14295175D01*
X15350135Y14327514D01*
X15267253Y14344000D01*
X15182747Y14344000D01*
X15099865Y14327514D01*
X15021792Y14295175D01*
X14951528Y14248226D01*
X14891774Y14188472D01*
X14844825Y14118208D01*
X14812486Y14040135D01*
X14796000Y13957253D01*
X14654000Y13957253D01*
X14637514Y14040135D01*
X14605175Y14118208D01*
X14558226Y14188472D01*
X14498472Y14248226D01*
X14428208Y14295175D01*
X14350135Y14327514D01*
X14267253Y14344000D01*
X14182747Y14344000D01*
X14099865Y14327514D01*
X14021792Y14295175D01*
X13951528Y14248226D01*
X13891774Y14188472D01*
X13844825Y14118208D01*
X13812486Y14040135D01*
X13796000Y13957253D01*
X13654000Y13957253D01*
X13637514Y14040135D01*
X13605175Y14118208D01*
X13558226Y14188472D01*
X13498472Y14248226D01*
X13428208Y14295175D01*
X13350135Y14327514D01*
X13267253Y14344000D01*
X13182747Y14344000D01*
X13099865Y14327514D01*
X13021792Y14295175D01*
X12951528Y14248226D01*
X12891774Y14188472D01*
X12844825Y14118208D01*
X12812486Y14040135D01*
X12796000Y13957253D01*
X6927000Y13957253D01*
X6927000Y14789640D01*
X10096000Y14789640D01*
X10096000Y14690360D01*
X10115368Y14592989D01*
X10153361Y14501266D01*
X10208517Y14418718D01*
X10278718Y14348517D01*
X10361266Y14293361D01*
X10452989Y14255368D01*
X10550360Y14236000D01*
X10649640Y14236000D01*
X10747011Y14255368D01*
X10838734Y14293361D01*
X10921282Y14348517D01*
X10991483Y14418718D01*
X11046639Y14501266D01*
X11052178Y14514640D01*
X17171000Y14514640D01*
X17171000Y14415360D01*
X17190368Y14317989D01*
X17228361Y14226266D01*
X17283517Y14143718D01*
X17353718Y14073517D01*
X17436266Y14018361D01*
X17527989Y13980368D01*
X17625360Y13961000D01*
X17724640Y13961000D01*
X17822011Y13980368D01*
X17913734Y14018361D01*
X17996282Y14073517D01*
X18066483Y14143718D01*
X18121639Y14226266D01*
X18159632Y14317989D01*
X18175000Y14395250D01*
X18190368Y14317989D01*
X18228361Y14226266D01*
X18283517Y14143718D01*
X18353718Y14073517D01*
X18436266Y14018361D01*
X18527989Y13980368D01*
X18625360Y13961000D01*
X18724640Y13961000D01*
X18822011Y13980368D01*
X18913734Y14018361D01*
X18996282Y14073517D01*
X19066483Y14143718D01*
X19121639Y14226266D01*
X19159632Y14317989D01*
X19179000Y14415360D01*
X19179000Y14514640D01*
X19159632Y14612011D01*
X19121639Y14703734D01*
X19066483Y14786282D01*
X18996282Y14856483D01*
X18913734Y14911639D01*
X18822011Y14949632D01*
X18724640Y14969000D01*
X18625360Y14969000D01*
X18527989Y14949632D01*
X18436266Y14911639D01*
X18353718Y14856483D01*
X18283517Y14786282D01*
X18228361Y14703734D01*
X18190368Y14612011D01*
X18175000Y14534750D01*
X18159632Y14612011D01*
X18121639Y14703734D01*
X18066483Y14786282D01*
X17996282Y14856483D01*
X17913734Y14911639D01*
X17822011Y14949632D01*
X17724640Y14969000D01*
X17625360Y14969000D01*
X17527989Y14949632D01*
X17436266Y14911639D01*
X17353718Y14856483D01*
X17283517Y14786282D01*
X17228361Y14703734D01*
X17190368Y14612011D01*
X17171000Y14514640D01*
X11052178Y14514640D01*
X11084632Y14592989D01*
X11104000Y14690360D01*
X11104000Y14789640D01*
X11084632Y14887011D01*
X11046639Y14978734D01*
X10991483Y15061282D01*
X10921282Y15131483D01*
X10845299Y15182253D01*
X11071000Y15182253D01*
X11071000Y15097747D01*
X11087486Y15014865D01*
X11119825Y14936792D01*
X11166774Y14866528D01*
X11226528Y14806774D01*
X11296792Y14759825D01*
X11374865Y14727486D01*
X11457747Y14711000D01*
X11542253Y14711000D01*
X11625135Y14727486D01*
X11703208Y14759825D01*
X11773472Y14806774D01*
X11833226Y14866528D01*
X11880175Y14936792D01*
X11912514Y15014865D01*
X11929000Y15097747D01*
X11929000Y15182253D01*
X11912514Y15265135D01*
X11880175Y15343208D01*
X11870791Y15357253D01*
X16346000Y15357253D01*
X16346000Y15272747D01*
X16362486Y15189865D01*
X16394825Y15111792D01*
X16441774Y15041528D01*
X16501528Y14981774D01*
X16571792Y14934825D01*
X16649865Y14902486D01*
X16732747Y14886000D01*
X16817253Y14886000D01*
X16900135Y14902486D01*
X16978208Y14934825D01*
X17048472Y14981774D01*
X17108226Y15041528D01*
X17155175Y15111792D01*
X17187514Y15189865D01*
X17197414Y15239640D01*
X19296000Y15239640D01*
X19296000Y15140360D01*
X19315368Y15042989D01*
X19353361Y14951266D01*
X19408517Y14868718D01*
X19478718Y14798517D01*
X19561266Y14743361D01*
X19652989Y14705368D01*
X19750360Y14686000D01*
X19849640Y14686000D01*
X19947011Y14705368D01*
X20038734Y14743361D01*
X20121282Y14798517D01*
X20191483Y14868718D01*
X20246639Y14951266D01*
X20284632Y15042989D01*
X20304000Y15140360D01*
X20304000Y15239640D01*
X20284632Y15337011D01*
X20246639Y15428734D01*
X20191483Y15511282D01*
X20121282Y15581483D01*
X20038734Y15636639D01*
X19947011Y15674632D01*
X19849640Y15694000D01*
X19750360Y15694000D01*
X19652989Y15674632D01*
X19561266Y15636639D01*
X19478718Y15581483D01*
X19408517Y15511282D01*
X19353361Y15428734D01*
X19315368Y15337011D01*
X19296000Y15239640D01*
X17197414Y15239640D01*
X17204000Y15272747D01*
X17204000Y15357253D01*
X17187514Y15440135D01*
X17155175Y15518208D01*
X17108226Y15588472D01*
X17048472Y15648226D01*
X16978208Y15695175D01*
X16900135Y15727514D01*
X16817253Y15744000D01*
X16732747Y15744000D01*
X16649865Y15727514D01*
X16571792Y15695175D01*
X16501528Y15648226D01*
X16441774Y15588472D01*
X16394825Y15518208D01*
X16362486Y15440135D01*
X16346000Y15357253D01*
X11870791Y15357253D01*
X11833226Y15413472D01*
X11773472Y15473226D01*
X11703208Y15520175D01*
X11625135Y15552514D01*
X11542253Y15569000D01*
X11457747Y15569000D01*
X11374865Y15552514D01*
X11296792Y15520175D01*
X11226528Y15473226D01*
X11166774Y15413472D01*
X11119825Y15343208D01*
X11087486Y15265135D01*
X11071000Y15182253D01*
X10845299Y15182253D01*
X10838734Y15186639D01*
X10747011Y15224632D01*
X10649640Y15244000D01*
X10550360Y15244000D01*
X10452989Y15224632D01*
X10361266Y15186639D01*
X10278718Y15131483D01*
X10208517Y15061282D01*
X10153361Y14978734D01*
X10115368Y14887011D01*
X10096000Y14789640D01*
X6927000Y14789640D01*
X6927000Y15807253D01*
X8471000Y15807253D01*
X8471000Y15722747D01*
X8487486Y15639865D01*
X8519825Y15561792D01*
X8566774Y15491528D01*
X8626528Y15431774D01*
X8696792Y15384825D01*
X8774865Y15352486D01*
X8857747Y15336000D01*
X8942253Y15336000D01*
X9025135Y15352486D01*
X9103208Y15384825D01*
X9173472Y15431774D01*
X9233226Y15491528D01*
X9280175Y15561792D01*
X9312514Y15639865D01*
X9329000Y15722747D01*
X9329000Y15807253D01*
X9312514Y15890135D01*
X9280175Y15968208D01*
X9233226Y16038472D01*
X9173472Y16098226D01*
X9122548Y16132253D01*
X10421000Y16132253D01*
X10421000Y16047747D01*
X10437486Y15964865D01*
X10469825Y15886792D01*
X10516774Y15816528D01*
X10576528Y15756774D01*
X10646792Y15709825D01*
X10724865Y15677486D01*
X10807747Y15661000D01*
X10892253Y15661000D01*
X10975135Y15677486D01*
X11053208Y15709825D01*
X11123472Y15756774D01*
X11183226Y15816528D01*
X11230175Y15886792D01*
X11262514Y15964865D01*
X11279000Y16047747D01*
X11279000Y16132253D01*
X11262514Y16215135D01*
X11230175Y16293208D01*
X11183226Y16363472D01*
X11123472Y16423226D01*
X11098907Y16439640D01*
X12846000Y16439640D01*
X12846000Y16340360D01*
X12865368Y16242989D01*
X12903361Y16151266D01*
X12958517Y16068718D01*
X13028718Y15998517D01*
X13111266Y15943361D01*
X13202989Y15905368D01*
X13300360Y15886000D01*
X13399640Y15886000D01*
X13497011Y15905368D01*
X13588734Y15943361D01*
X13671282Y15998517D01*
X13741483Y16068718D01*
X13796639Y16151266D01*
X13834632Y16242989D01*
X13854000Y16340360D01*
X13854000Y16439640D01*
X13849028Y16464640D01*
X17796000Y16464640D01*
X17796000Y16365360D01*
X17815368Y16267989D01*
X17853361Y16176266D01*
X17908517Y16093718D01*
X17978718Y16023517D01*
X18061266Y15968361D01*
X18152989Y15930368D01*
X18250360Y15911000D01*
X18349640Y15911000D01*
X18447011Y15930368D01*
X18538734Y15968361D01*
X18621282Y16023517D01*
X18691483Y16093718D01*
X18746639Y16176266D01*
X18784632Y16267989D01*
X18804000Y16365360D01*
X18804000Y16464640D01*
X18784632Y16562011D01*
X18746639Y16653734D01*
X18691483Y16736282D01*
X18621282Y16806483D01*
X18538734Y16861639D01*
X18447011Y16899632D01*
X18349640Y16919000D01*
X18250360Y16919000D01*
X18152989Y16899632D01*
X18061266Y16861639D01*
X17978718Y16806483D01*
X17908517Y16736282D01*
X17853361Y16653734D01*
X17815368Y16562011D01*
X17796000Y16464640D01*
X13849028Y16464640D01*
X13834632Y16537011D01*
X13796639Y16628734D01*
X13741483Y16711282D01*
X13671282Y16781483D01*
X13588734Y16836639D01*
X13497011Y16874632D01*
X13399640Y16894000D01*
X13300360Y16894000D01*
X13202989Y16874632D01*
X13111266Y16836639D01*
X13028718Y16781483D01*
X12958517Y16711282D01*
X12903361Y16628734D01*
X12865368Y16537011D01*
X12846000Y16439640D01*
X11098907Y16439640D01*
X11053208Y16470175D01*
X10975135Y16502514D01*
X10892253Y16519000D01*
X10807747Y16519000D01*
X10724865Y16502514D01*
X10646792Y16470175D01*
X10576528Y16423226D01*
X10516774Y16363472D01*
X10469825Y16293208D01*
X10437486Y16215135D01*
X10421000Y16132253D01*
X9122548Y16132253D01*
X9103208Y16145175D01*
X9025135Y16177514D01*
X8942253Y16194000D01*
X8857747Y16194000D01*
X8774865Y16177514D01*
X8696792Y16145175D01*
X8626528Y16098226D01*
X8566774Y16038472D01*
X8519825Y15968208D01*
X8487486Y15890135D01*
X8471000Y15807253D01*
X6927000Y15807253D01*
X6927000Y16662737D01*
X6997468Y16832862D01*
X7854246Y17689640D01*
X9196000Y17689640D01*
X9196000Y17590360D01*
X9215368Y17492989D01*
X9253361Y17401266D01*
X9308517Y17318718D01*
X9378718Y17248517D01*
X9461266Y17193361D01*
X9552989Y17155368D01*
X9630250Y17140000D01*
X9552989Y17124632D01*
X9461266Y17086639D01*
X9378718Y17031483D01*
X9308517Y16961282D01*
X9253361Y16878734D01*
X9215368Y16787011D01*
X9196000Y16689640D01*
X9196000Y16590360D01*
X9215368Y16492989D01*
X9253361Y16401266D01*
X9308517Y16318718D01*
X9378718Y16248517D01*
X9461266Y16193361D01*
X9552989Y16155368D01*
X9650360Y16136000D01*
X9749640Y16136000D01*
X9847011Y16155368D01*
X9938734Y16193361D01*
X10021282Y16248517D01*
X10091483Y16318718D01*
X10146639Y16401266D01*
X10184632Y16492989D01*
X10204000Y16590360D01*
X10204000Y16689640D01*
X10184632Y16787011D01*
X10146639Y16878734D01*
X10091483Y16961282D01*
X10021282Y17031483D01*
X9938734Y17086639D01*
X9847011Y17124632D01*
X9769750Y17140000D01*
X9847011Y17155368D01*
X9938734Y17193361D01*
X10021282Y17248517D01*
X10091483Y17318718D01*
X10146639Y17401266D01*
X10184632Y17492989D01*
X10204000Y17590360D01*
X10204000Y17689640D01*
X10184632Y17787011D01*
X10146639Y17878734D01*
X10091483Y17961282D01*
X10021282Y18031483D01*
X9938734Y18086639D01*
X9847011Y18124632D01*
X9749640Y18144000D01*
X9650360Y18144000D01*
X9552989Y18124632D01*
X9461266Y18086639D01*
X9378718Y18031483D01*
X9308517Y17961282D01*
X9253361Y17878734D01*
X9215368Y17787011D01*
X9196000Y17689640D01*
X7854246Y17689640D01*
X8482138Y18317532D01*
X8652263Y18388000D01*
X12622143Y18388000D01*
X12621000Y18382253D01*
G37*
X12621000Y18382253D02*
X12621000Y18297747D01*
X12637486Y18214865D01*
X12669825Y18136792D01*
X12716774Y18066528D01*
X12776528Y18006774D01*
X12846792Y17959825D01*
X12924865Y17927486D01*
X13007747Y17911000D01*
X13092253Y17911000D01*
X13175135Y17927486D01*
X13253208Y17959825D01*
X13323472Y18006774D01*
X13383226Y18066528D01*
X13430175Y18136792D01*
X13462514Y18214865D01*
X13479000Y18297747D01*
X13479000Y18382253D01*
X13477857Y18388000D01*
X14836054Y18388000D01*
X14776528Y18348226D01*
X14716774Y18288472D01*
X14669825Y18218208D01*
X14637486Y18140135D01*
X14621000Y18057253D01*
X14621000Y17972747D01*
X14637486Y17889865D01*
X14669825Y17811792D01*
X14716774Y17741528D01*
X14776528Y17681774D01*
X14846792Y17634825D01*
X14924865Y17602486D01*
X15007747Y17586000D01*
X15092253Y17586000D01*
X15175135Y17602486D01*
X15253208Y17634825D01*
X15323472Y17681774D01*
X15383226Y17741528D01*
X15430175Y17811792D01*
X15462514Y17889865D01*
X15479000Y17972747D01*
X15479000Y18057253D01*
X15462514Y18140135D01*
X15430175Y18218208D01*
X15383226Y18288472D01*
X15323472Y18348226D01*
X15263946Y18388000D01*
X17797737Y18388000D01*
X17967862Y18317532D01*
X18372029Y17913365D01*
X18302989Y17899632D01*
X18211266Y17861639D01*
X18128718Y17806483D01*
X18058517Y17736282D01*
X18003361Y17653734D01*
X17965368Y17562011D01*
X17946000Y17464640D01*
X17946000Y17365360D01*
X17965368Y17267989D01*
X18003361Y17176266D01*
X18058517Y17093718D01*
X18128718Y17023517D01*
X18211266Y16968361D01*
X18302989Y16930368D01*
X18400360Y16911000D01*
X18499640Y16911000D01*
X18597011Y16930368D01*
X18688734Y16968361D01*
X18771282Y17023517D01*
X18841483Y17093718D01*
X18896639Y17176266D01*
X18934632Y17267989D01*
X18948365Y17337029D01*
X18952447Y17332947D01*
X18965368Y17267989D01*
X19003361Y17176266D01*
X19058517Y17093718D01*
X19128718Y17023517D01*
X19211266Y16968361D01*
X19302989Y16930368D01*
X19367947Y16917447D01*
X20467335Y15818059D01*
X20523000Y15683671D01*
X20523000Y12987573D01*
X20501528Y12973226D01*
X20441774Y12913472D01*
X20394825Y12843208D01*
X20362486Y12765135D01*
X20346000Y12682253D01*
X20346000Y12597747D01*
X20362486Y12514865D01*
X20394825Y12436792D01*
X20441774Y12366528D01*
X20501528Y12306774D01*
X20523000Y12292427D01*
X20523000Y8967263D01*
X20452532Y8797138D01*
X17300000Y5644606D01*
X17284206Y5625360D01*
X17272470Y5603404D01*
X17182667Y5386601D01*
X17175440Y5362777D01*
X17173000Y5338000D01*
X17173000Y-5808000D01*
X17175440Y-5832776D01*
X17182667Y-5856601D01*
X17272470Y-6073404D01*
X17284206Y-6095361D01*
X17300000Y-6114606D01*
X20470394Y-9285000D01*
X20489640Y-9300794D01*
X20511596Y-9312530D01*
X20728399Y-9402333D01*
X20752223Y-9409560D01*
X20777000Y-9412000D01*
X36397737Y-9412000D01*
X36557022Y-9477978D01*
X36623000Y-9637263D01*
X36623000Y-15882737D01*
X36552532Y-16052862D01*
X33817862Y-18787532D01*
X33647737Y-18858000D01*
X24952263Y-18858000D01*
X24782138Y-18787532D01*
X16629606Y-10635000D01*
X16610360Y-10619206D01*
X16588404Y-10607470D01*
X16371601Y-10517667D01*
X16347777Y-10510440D01*
X16323000Y-10508000D01*
X12552263Y-10508000D01*
X12382138Y-10437532D01*
X9147468Y-7202862D01*
X9077000Y-7032737D01*
X9077000Y5538000D01*
X9074560Y5562776D01*
X9067333Y5586601D01*
X8977530Y5803404D01*
X8965794Y5825361D01*
X8950000Y5844606D01*
X8329966Y6464640D01*
X8871000Y6464640D01*
X8871000Y6365360D01*
X8890368Y6267989D01*
X8928361Y6176266D01*
X8983517Y6093718D01*
X9053718Y6023517D01*
X9136266Y5968361D01*
X9227989Y5930368D01*
X9325360Y5911000D01*
X9424640Y5911000D01*
X9522011Y5930368D01*
X9613734Y5968361D01*
X9696282Y6023517D01*
X9766483Y6093718D01*
X9821639Y6176266D01*
X9859632Y6267989D01*
X9875000Y6345250D01*
X9890368Y6267989D01*
X9928361Y6176266D01*
X9983517Y6093718D01*
X10053718Y6023517D01*
X10136266Y5968361D01*
X10227989Y5930368D01*
X10325360Y5911000D01*
X10424640Y5911000D01*
X10522011Y5930368D01*
X10613734Y5968361D01*
X10696282Y6023517D01*
X10766483Y6093718D01*
X10821639Y6176266D01*
X10859632Y6267989D01*
X10875000Y6345250D01*
X10890368Y6267989D01*
X10928361Y6176266D01*
X10983517Y6093718D01*
X11053718Y6023517D01*
X11136266Y5968361D01*
X11227989Y5930368D01*
X11325360Y5911000D01*
X11424640Y5911000D01*
X11522011Y5930368D01*
X11613734Y5968361D01*
X11696282Y6023517D01*
X11766483Y6093718D01*
X11821639Y6176266D01*
X11859632Y6267989D01*
X11879000Y6365360D01*
X11879000Y6464640D01*
X11859632Y6562011D01*
X11821639Y6653734D01*
X11766483Y6736282D01*
X11696282Y6806483D01*
X11613734Y6861639D01*
X11522011Y6899632D01*
X11424640Y6919000D01*
X11325360Y6919000D01*
X11227989Y6899632D01*
X11136266Y6861639D01*
X11053718Y6806483D01*
X10983517Y6736282D01*
X10928361Y6653734D01*
X10890368Y6562011D01*
X10875000Y6484750D01*
X10859632Y6562011D01*
X10821639Y6653734D01*
X10766483Y6736282D01*
X10696282Y6806483D01*
X10613734Y6861639D01*
X10522011Y6899632D01*
X10424640Y6919000D01*
X10325360Y6919000D01*
X10227989Y6899632D01*
X10136266Y6861639D01*
X10053718Y6806483D01*
X9983517Y6736282D01*
X9928361Y6653734D01*
X9890368Y6562011D01*
X9875000Y6484750D01*
X9859632Y6562011D01*
X9821639Y6653734D01*
X9766483Y6736282D01*
X9696282Y6806483D01*
X9613734Y6861639D01*
X9522011Y6899632D01*
X9424640Y6919000D01*
X9325360Y6919000D01*
X9227989Y6899632D01*
X9136266Y6861639D01*
X9053718Y6806483D01*
X8983517Y6736282D01*
X8928361Y6653734D01*
X8890368Y6562011D01*
X8871000Y6464640D01*
X8329966Y6464640D01*
X7237353Y7557253D01*
X12071000Y7557253D01*
X12071000Y7472747D01*
X12087486Y7389865D01*
X12119825Y7311792D01*
X12166774Y7241528D01*
X12226528Y7181774D01*
X12296792Y7134825D01*
X12374865Y7102486D01*
X12457747Y7086000D01*
X12542253Y7086000D01*
X12625135Y7102486D01*
X12703208Y7134825D01*
X12773472Y7181774D01*
X12833226Y7241528D01*
X12880175Y7311792D01*
X12912514Y7389865D01*
X12929000Y7472747D01*
X12929000Y7557253D01*
X12912514Y7640135D01*
X12880175Y7718208D01*
X12833226Y7788472D01*
X12773472Y7848226D01*
X12703208Y7895175D01*
X12625135Y7927514D01*
X12542253Y7944000D01*
X12457747Y7944000D01*
X12374865Y7927514D01*
X12296792Y7895175D01*
X12226528Y7848226D01*
X12166774Y7788472D01*
X12119825Y7718208D01*
X12087486Y7640135D01*
X12071000Y7557253D01*
X7237353Y7557253D01*
X6997468Y7797138D01*
X6927000Y7967263D01*
X6927000Y9457253D01*
X17346000Y9457253D01*
X17346000Y9372747D01*
X17362486Y9289865D01*
X17394825Y9211792D01*
X17441774Y9141528D01*
X17501528Y9081774D01*
X17571792Y9034825D01*
X17649865Y9002486D01*
X17732747Y8986000D01*
X17817253Y8986000D01*
X17900135Y9002486D01*
X17978208Y9034825D01*
X18048472Y9081774D01*
X18108226Y9141528D01*
X18155175Y9211792D01*
X18187514Y9289865D01*
X18204000Y9372747D01*
X18204000Y9457253D01*
X18187514Y9540135D01*
X18155175Y9618208D01*
X18108226Y9688472D01*
X18048472Y9748226D01*
X17978208Y9795175D01*
X17900135Y9827514D01*
X17817253Y9844000D01*
X17732747Y9844000D01*
X17649865Y9827514D01*
X17571792Y9795175D01*
X17501528Y9748226D01*
X17441774Y9688472D01*
X17394825Y9618208D01*
X17362486Y9540135D01*
X17346000Y9457253D01*
X6927000Y9457253D01*
X6927000Y10932253D01*
X10146000Y10932253D01*
X10146000Y10847747D01*
X10162486Y10764865D01*
X10194825Y10686792D01*
X10241774Y10616528D01*
X10301528Y10556774D01*
X10371792Y10509825D01*
X10449865Y10477486D01*
X10532747Y10461000D01*
X10617253Y10461000D01*
X10700135Y10477486D01*
X10778208Y10509825D01*
X10848472Y10556774D01*
X10908226Y10616528D01*
X10952142Y10682253D01*
X17021000Y10682253D01*
X17021000Y10597747D01*
X17037486Y10514865D01*
X17069825Y10436792D01*
X17116774Y10366528D01*
X17176528Y10306774D01*
X17246792Y10259825D01*
X17324865Y10227486D01*
X17407747Y10211000D01*
X17492253Y10211000D01*
X17575135Y10227486D01*
X17653208Y10259825D01*
X17723472Y10306774D01*
X17783226Y10366528D01*
X17830175Y10436792D01*
X17862514Y10514865D01*
X17879000Y10597747D01*
X17879000Y10682253D01*
X17862514Y10765135D01*
X17830175Y10843208D01*
X17783226Y10913472D01*
X17723472Y10973226D01*
X17653208Y11020175D01*
X17575135Y11052514D01*
X17492253Y11069000D01*
X17407747Y11069000D01*
X17324865Y11052514D01*
X17246792Y11020175D01*
X17176528Y10973226D01*
X17116774Y10913472D01*
X17069825Y10843208D01*
X17037486Y10765135D01*
X17021000Y10682253D01*
X10952142Y10682253D01*
X10955175Y10686792D01*
X10987514Y10764865D01*
X11004000Y10847747D01*
X11004000Y10932253D01*
X10987514Y11015135D01*
X10955175Y11093208D01*
X10908226Y11163472D01*
X10848472Y11223226D01*
X10778208Y11270175D01*
X10700135Y11302514D01*
X10617253Y11319000D01*
X10532747Y11319000D01*
X10449865Y11302514D01*
X10371792Y11270175D01*
X10301528Y11223226D01*
X10241774Y11163472D01*
X10194825Y11093208D01*
X10162486Y11015135D01*
X10146000Y10932253D01*
X6927000Y10932253D01*
X6927000Y11957253D01*
X12796000Y11957253D01*
X12796000Y11872747D01*
X12812486Y11789865D01*
X12844825Y11711792D01*
X12891774Y11641528D01*
X12951528Y11581774D01*
X13021792Y11534825D01*
X13099865Y11502486D01*
X13182747Y11486000D01*
X13267253Y11486000D01*
X13350135Y11502486D01*
X13428208Y11534825D01*
X13498472Y11581774D01*
X13558226Y11641528D01*
X13605175Y11711792D01*
X13637514Y11789865D01*
X13654000Y11872747D01*
X13654000Y11957253D01*
X13796000Y11957253D01*
X13796000Y11872747D01*
X13812486Y11789865D01*
X13844825Y11711792D01*
X13891774Y11641528D01*
X13951528Y11581774D01*
X14021792Y11534825D01*
X14099865Y11502486D01*
X14182747Y11486000D01*
X14267253Y11486000D01*
X14350135Y11502486D01*
X14428208Y11534825D01*
X14498472Y11581774D01*
X14558226Y11641528D01*
X14605175Y11711792D01*
X14637514Y11789865D01*
X14654000Y11872747D01*
X14654000Y11957253D01*
X14796000Y11957253D01*
X14796000Y11872747D01*
X14812486Y11789865D01*
X14844825Y11711792D01*
X14891774Y11641528D01*
X14951528Y11581774D01*
X15021792Y11534825D01*
X15099865Y11502486D01*
X15182747Y11486000D01*
X15267253Y11486000D01*
X15350135Y11502486D01*
X15428208Y11534825D01*
X15498472Y11581774D01*
X15558226Y11641528D01*
X15605175Y11711792D01*
X15637514Y11789865D01*
X15654000Y11872747D01*
X15654000Y11957253D01*
X15637514Y12040135D01*
X15605175Y12118208D01*
X15558226Y12188472D01*
X15498472Y12248226D01*
X15428208Y12295175D01*
X15350135Y12327514D01*
X15267253Y12344000D01*
X15182747Y12344000D01*
X15099865Y12327514D01*
X15021792Y12295175D01*
X14951528Y12248226D01*
X14891774Y12188472D01*
X14844825Y12118208D01*
X14812486Y12040135D01*
X14796000Y11957253D01*
X14654000Y11957253D01*
X14637514Y12040135D01*
X14605175Y12118208D01*
X14558226Y12188472D01*
X14498472Y12248226D01*
X14428208Y12295175D01*
X14350135Y12327514D01*
X14267253Y12344000D01*
X14182747Y12344000D01*
X14099865Y12327514D01*
X14021792Y12295175D01*
X13951528Y12248226D01*
X13891774Y12188472D01*
X13844825Y12118208D01*
X13812486Y12040135D01*
X13796000Y11957253D01*
X13654000Y11957253D01*
X13637514Y12040135D01*
X13605175Y12118208D01*
X13558226Y12188472D01*
X13498472Y12248226D01*
X13428208Y12295175D01*
X13350135Y12327514D01*
X13267253Y12344000D01*
X13182747Y12344000D01*
X13099865Y12327514D01*
X13021792Y12295175D01*
X12951528Y12248226D01*
X12891774Y12188472D01*
X12844825Y12118208D01*
X12812486Y12040135D01*
X12796000Y11957253D01*
X6927000Y11957253D01*
X6927000Y12657253D01*
X7596000Y12657253D01*
X7596000Y12572747D01*
X7612486Y12489865D01*
X7644825Y12411792D01*
X7691774Y12341528D01*
X7751528Y12281774D01*
X7821792Y12234825D01*
X7899865Y12202486D01*
X7982747Y12186000D01*
X8067253Y12186000D01*
X8150135Y12202486D01*
X8228208Y12234825D01*
X8298472Y12281774D01*
X8358226Y12341528D01*
X8405175Y12411792D01*
X8437514Y12489865D01*
X8454000Y12572747D01*
X8454000Y12657253D01*
X8447558Y12689640D01*
X9371000Y12689640D01*
X9371000Y12590360D01*
X9390368Y12492989D01*
X9428361Y12401266D01*
X9483517Y12318718D01*
X9553718Y12248517D01*
X9636266Y12193361D01*
X9727989Y12155368D01*
X9825360Y12136000D01*
X9924640Y12136000D01*
X10022011Y12155368D01*
X10113734Y12193361D01*
X10196282Y12248517D01*
X10266483Y12318718D01*
X10321639Y12401266D01*
X10359632Y12492989D01*
X10375000Y12570250D01*
X10390368Y12492989D01*
X10428361Y12401266D01*
X10483517Y12318718D01*
X10553718Y12248517D01*
X10636266Y12193361D01*
X10727989Y12155368D01*
X10825360Y12136000D01*
X10924640Y12136000D01*
X11022011Y12155368D01*
X11113734Y12193361D01*
X11196282Y12248517D01*
X11266483Y12318718D01*
X11321639Y12401266D01*
X11359632Y12492989D01*
X11379000Y12590360D01*
X11379000Y12689640D01*
X11359632Y12787011D01*
X11321639Y12878734D01*
X11269176Y12957253D01*
X12796000Y12957253D01*
X12796000Y12872747D01*
X12812486Y12789865D01*
X12844825Y12711792D01*
X12891774Y12641528D01*
X12951528Y12581774D01*
X13021792Y12534825D01*
X13099865Y12502486D01*
X13182747Y12486000D01*
X13267253Y12486000D01*
X13350135Y12502486D01*
X13428208Y12534825D01*
X13498472Y12581774D01*
X13558226Y12641528D01*
X13605175Y12711792D01*
X13637514Y12789865D01*
X13654000Y12872747D01*
X13654000Y12957253D01*
X13796000Y12957253D01*
X13796000Y12872747D01*
X13812486Y12789865D01*
X13844825Y12711792D01*
X13891774Y12641528D01*
X13951528Y12581774D01*
X14021792Y12534825D01*
X14099865Y12502486D01*
X14182747Y12486000D01*
X14267253Y12486000D01*
X14350135Y12502486D01*
X14428208Y12534825D01*
X14498472Y12581774D01*
X14558226Y12641528D01*
X14605175Y12711792D01*
X14637514Y12789865D01*
X14654000Y12872747D01*
X14654000Y12957253D01*
X14796000Y12957253D01*
X14796000Y12872747D01*
X14812486Y12789865D01*
X14844825Y12711792D01*
X14891774Y12641528D01*
X14951528Y12581774D01*
X15021792Y12534825D01*
X15099865Y12502486D01*
X15182747Y12486000D01*
X15267253Y12486000D01*
X15350135Y12502486D01*
X15428208Y12534825D01*
X15498472Y12581774D01*
X15556338Y12639640D01*
X17321000Y12639640D01*
X17321000Y12540360D01*
X17340368Y12442989D01*
X17378361Y12351266D01*
X17433517Y12268718D01*
X17503718Y12198517D01*
X17586266Y12143361D01*
X17677989Y12105368D01*
X17775360Y12086000D01*
X17874640Y12086000D01*
X17972011Y12105368D01*
X18063734Y12143361D01*
X18146282Y12198517D01*
X18216483Y12268718D01*
X18271639Y12351266D01*
X18306788Y12436123D01*
X18315368Y12392989D01*
X18353361Y12301266D01*
X18408517Y12218718D01*
X18478718Y12148517D01*
X18561266Y12093361D01*
X18652989Y12055368D01*
X18750360Y12036000D01*
X18849640Y12036000D01*
X18947011Y12055368D01*
X19038734Y12093361D01*
X19121282Y12148517D01*
X19191483Y12218718D01*
X19246639Y12301266D01*
X19284632Y12392989D01*
X19304000Y12490360D01*
X19304000Y12589640D01*
X19284632Y12687011D01*
X19246639Y12778734D01*
X19191483Y12861282D01*
X19121282Y12931483D01*
X19038734Y12986639D01*
X18947011Y13024632D01*
X18849640Y13044000D01*
X18750360Y13044000D01*
X18652989Y13024632D01*
X18561266Y12986639D01*
X18478718Y12931483D01*
X18408517Y12861282D01*
X18353361Y12778734D01*
X18318212Y12693877D01*
X18309632Y12737011D01*
X18271639Y12828734D01*
X18216483Y12911282D01*
X18146282Y12981483D01*
X18063734Y13036639D01*
X17972011Y13074632D01*
X17874640Y13094000D01*
X17775360Y13094000D01*
X17677989Y13074632D01*
X17586266Y13036639D01*
X17503718Y12981483D01*
X17433517Y12911282D01*
X17378361Y12828734D01*
X17340368Y12737011D01*
X17321000Y12639640D01*
X15556338Y12639640D01*
X15558226Y12641528D01*
X15605175Y12711792D01*
X15637514Y12789865D01*
X15654000Y12872747D01*
X15654000Y12957253D01*
X15637514Y13040135D01*
X15605175Y13118208D01*
X15558226Y13188472D01*
X15498472Y13248226D01*
X15428208Y13295175D01*
X15350135Y13327514D01*
X15267253Y13344000D01*
X15182747Y13344000D01*
X15099865Y13327514D01*
X15021792Y13295175D01*
X14951528Y13248226D01*
X14891774Y13188472D01*
X14844825Y13118208D01*
X14812486Y13040135D01*
X14796000Y12957253D01*
X14654000Y12957253D01*
X14637514Y13040135D01*
X14605175Y13118208D01*
X14558226Y13188472D01*
X14498472Y13248226D01*
X14428208Y13295175D01*
X14350135Y13327514D01*
X14267253Y13344000D01*
X14182747Y13344000D01*
X14099865Y13327514D01*
X14021792Y13295175D01*
X13951528Y13248226D01*
X13891774Y13188472D01*
X13844825Y13118208D01*
X13812486Y13040135D01*
X13796000Y12957253D01*
X13654000Y12957253D01*
X13637514Y13040135D01*
X13605175Y13118208D01*
X13558226Y13188472D01*
X13498472Y13248226D01*
X13428208Y13295175D01*
X13350135Y13327514D01*
X13267253Y13344000D01*
X13182747Y13344000D01*
X13099865Y13327514D01*
X13021792Y13295175D01*
X12951528Y13248226D01*
X12891774Y13188472D01*
X12844825Y13118208D01*
X12812486Y13040135D01*
X12796000Y12957253D01*
X11269176Y12957253D01*
X11266483Y12961282D01*
X11196282Y13031483D01*
X11113734Y13086639D01*
X11022011Y13124632D01*
X10924640Y13144000D01*
X10825360Y13144000D01*
X10727989Y13124632D01*
X10636266Y13086639D01*
X10553718Y13031483D01*
X10483517Y12961282D01*
X10428361Y12878734D01*
X10390368Y12787011D01*
X10375000Y12709750D01*
X10359632Y12787011D01*
X10321639Y12878734D01*
X10266483Y12961282D01*
X10196282Y13031483D01*
X10113734Y13086639D01*
X10022011Y13124632D01*
X9924640Y13144000D01*
X9825360Y13144000D01*
X9727989Y13124632D01*
X9636266Y13086639D01*
X9553718Y13031483D01*
X9483517Y12961282D01*
X9428361Y12878734D01*
X9390368Y12787011D01*
X9371000Y12689640D01*
X8447558Y12689640D01*
X8437514Y12740135D01*
X8405175Y12818208D01*
X8358226Y12888472D01*
X8298472Y12948226D01*
X8228208Y12995175D01*
X8150135Y13027514D01*
X8067253Y13044000D01*
X7982747Y13044000D01*
X7899865Y13027514D01*
X7821792Y12995175D01*
X7751528Y12948226D01*
X7691774Y12888472D01*
X7644825Y12818208D01*
X7612486Y12740135D01*
X7596000Y12657253D01*
X6927000Y12657253D01*
X6927000Y13957253D01*
X12796000Y13957253D01*
X12796000Y13872747D01*
X12812486Y13789865D01*
X12844825Y13711792D01*
X12891774Y13641528D01*
X12951528Y13581774D01*
X13021792Y13534825D01*
X13099865Y13502486D01*
X13182747Y13486000D01*
X13267253Y13486000D01*
X13350135Y13502486D01*
X13428208Y13534825D01*
X13498472Y13581774D01*
X13558226Y13641528D01*
X13605175Y13711792D01*
X13637514Y13789865D01*
X13654000Y13872747D01*
X13654000Y13957253D01*
X13796000Y13957253D01*
X13796000Y13872747D01*
X13812486Y13789865D01*
X13844825Y13711792D01*
X13891774Y13641528D01*
X13951528Y13581774D01*
X14021792Y13534825D01*
X14099865Y13502486D01*
X14182747Y13486000D01*
X14267253Y13486000D01*
X14350135Y13502486D01*
X14428208Y13534825D01*
X14498472Y13581774D01*
X14558226Y13641528D01*
X14605175Y13711792D01*
X14637514Y13789865D01*
X14654000Y13872747D01*
X14654000Y13957253D01*
X14796000Y13957253D01*
X14796000Y13872747D01*
X14812486Y13789865D01*
X14844825Y13711792D01*
X14891774Y13641528D01*
X14951528Y13581774D01*
X15021792Y13534825D01*
X15099865Y13502486D01*
X15182747Y13486000D01*
X15267253Y13486000D01*
X15350135Y13502486D01*
X15428208Y13534825D01*
X15498472Y13581774D01*
X15558226Y13641528D01*
X15605175Y13711792D01*
X15637514Y13789865D01*
X15654000Y13872747D01*
X15654000Y13957253D01*
X15637514Y14040135D01*
X15605175Y14118208D01*
X15558226Y14188472D01*
X15498472Y14248226D01*
X15428208Y14295175D01*
X15350135Y14327514D01*
X15267253Y14344000D01*
X15182747Y14344000D01*
X15099865Y14327514D01*
X15021792Y14295175D01*
X14951528Y14248226D01*
X14891774Y14188472D01*
X14844825Y14118208D01*
X14812486Y14040135D01*
X14796000Y13957253D01*
X14654000Y13957253D01*
X14637514Y14040135D01*
X14605175Y14118208D01*
X14558226Y14188472D01*
X14498472Y14248226D01*
X14428208Y14295175D01*
X14350135Y14327514D01*
X14267253Y14344000D01*
X14182747Y14344000D01*
X14099865Y14327514D01*
X14021792Y14295175D01*
X13951528Y14248226D01*
X13891774Y14188472D01*
X13844825Y14118208D01*
X13812486Y14040135D01*
X13796000Y13957253D01*
X13654000Y13957253D01*
X13637514Y14040135D01*
X13605175Y14118208D01*
X13558226Y14188472D01*
X13498472Y14248226D01*
X13428208Y14295175D01*
X13350135Y14327514D01*
X13267253Y14344000D01*
X13182747Y14344000D01*
X13099865Y14327514D01*
X13021792Y14295175D01*
X12951528Y14248226D01*
X12891774Y14188472D01*
X12844825Y14118208D01*
X12812486Y14040135D01*
X12796000Y13957253D01*
X6927000Y13957253D01*
X6927000Y14789640D01*
X10096000Y14789640D01*
X10096000Y14690360D01*
X10115368Y14592989D01*
X10153361Y14501266D01*
X10208517Y14418718D01*
X10278718Y14348517D01*
X10361266Y14293361D01*
X10452989Y14255368D01*
X10550360Y14236000D01*
X10649640Y14236000D01*
X10747011Y14255368D01*
X10838734Y14293361D01*
X10921282Y14348517D01*
X10991483Y14418718D01*
X11046639Y14501266D01*
X11052178Y14514640D01*
X17171000Y14514640D01*
X17171000Y14415360D01*
X17190368Y14317989D01*
X17228361Y14226266D01*
X17283517Y14143718D01*
X17353718Y14073517D01*
X17436266Y14018361D01*
X17527989Y13980368D01*
X17625360Y13961000D01*
X17724640Y13961000D01*
X17822011Y13980368D01*
X17913734Y14018361D01*
X17996282Y14073517D01*
X18066483Y14143718D01*
X18121639Y14226266D01*
X18159632Y14317989D01*
X18175000Y14395250D01*
X18190368Y14317989D01*
X18228361Y14226266D01*
X18283517Y14143718D01*
X18353718Y14073517D01*
X18436266Y14018361D01*
X18527989Y13980368D01*
X18625360Y13961000D01*
X18724640Y13961000D01*
X18822011Y13980368D01*
X18913734Y14018361D01*
X18996282Y14073517D01*
X19066483Y14143718D01*
X19121639Y14226266D01*
X19159632Y14317989D01*
X19179000Y14415360D01*
X19179000Y14514640D01*
X19159632Y14612011D01*
X19121639Y14703734D01*
X19066483Y14786282D01*
X18996282Y14856483D01*
X18913734Y14911639D01*
X18822011Y14949632D01*
X18724640Y14969000D01*
X18625360Y14969000D01*
X18527989Y14949632D01*
X18436266Y14911639D01*
X18353718Y14856483D01*
X18283517Y14786282D01*
X18228361Y14703734D01*
X18190368Y14612011D01*
X18175000Y14534750D01*
X18159632Y14612011D01*
X18121639Y14703734D01*
X18066483Y14786282D01*
X17996282Y14856483D01*
X17913734Y14911639D01*
X17822011Y14949632D01*
X17724640Y14969000D01*
X17625360Y14969000D01*
X17527989Y14949632D01*
X17436266Y14911639D01*
X17353718Y14856483D01*
X17283517Y14786282D01*
X17228361Y14703734D01*
X17190368Y14612011D01*
X17171000Y14514640D01*
X11052178Y14514640D01*
X11084632Y14592989D01*
X11104000Y14690360D01*
X11104000Y14789640D01*
X11084632Y14887011D01*
X11046639Y14978734D01*
X10991483Y15061282D01*
X10921282Y15131483D01*
X10845299Y15182253D01*
X11071000Y15182253D01*
X11071000Y15097747D01*
X11087486Y15014865D01*
X11119825Y14936792D01*
X11166774Y14866528D01*
X11226528Y14806774D01*
X11296792Y14759825D01*
X11374865Y14727486D01*
X11457747Y14711000D01*
X11542253Y14711000D01*
X11625135Y14727486D01*
X11703208Y14759825D01*
X11773472Y14806774D01*
X11833226Y14866528D01*
X11880175Y14936792D01*
X11912514Y15014865D01*
X11929000Y15097747D01*
X11929000Y15182253D01*
X11912514Y15265135D01*
X11880175Y15343208D01*
X11870791Y15357253D01*
X16346000Y15357253D01*
X16346000Y15272747D01*
X16362486Y15189865D01*
X16394825Y15111792D01*
X16441774Y15041528D01*
X16501528Y14981774D01*
X16571792Y14934825D01*
X16649865Y14902486D01*
X16732747Y14886000D01*
X16817253Y14886000D01*
X16900135Y14902486D01*
X16978208Y14934825D01*
X17048472Y14981774D01*
X17108226Y15041528D01*
X17155175Y15111792D01*
X17187514Y15189865D01*
X17197414Y15239640D01*
X19296000Y15239640D01*
X19296000Y15140360D01*
X19315368Y15042989D01*
X19353361Y14951266D01*
X19408517Y14868718D01*
X19478718Y14798517D01*
X19561266Y14743361D01*
X19652989Y14705368D01*
X19750360Y14686000D01*
X19849640Y14686000D01*
X19947011Y14705368D01*
X20038734Y14743361D01*
X20121282Y14798517D01*
X20191483Y14868718D01*
X20246639Y14951266D01*
X20284632Y15042989D01*
X20304000Y15140360D01*
X20304000Y15239640D01*
X20284632Y15337011D01*
X20246639Y15428734D01*
X20191483Y15511282D01*
X20121282Y15581483D01*
X20038734Y15636639D01*
X19947011Y15674632D01*
X19849640Y15694000D01*
X19750360Y15694000D01*
X19652989Y15674632D01*
X19561266Y15636639D01*
X19478718Y15581483D01*
X19408517Y15511282D01*
X19353361Y15428734D01*
X19315368Y15337011D01*
X19296000Y15239640D01*
X17197414Y15239640D01*
X17204000Y15272747D01*
X17204000Y15357253D01*
X17187514Y15440135D01*
X17155175Y15518208D01*
X17108226Y15588472D01*
X17048472Y15648226D01*
X16978208Y15695175D01*
X16900135Y15727514D01*
X16817253Y15744000D01*
X16732747Y15744000D01*
X16649865Y15727514D01*
X16571792Y15695175D01*
X16501528Y15648226D01*
X16441774Y15588472D01*
X16394825Y15518208D01*
X16362486Y15440135D01*
X16346000Y15357253D01*
X11870791Y15357253D01*
X11833226Y15413472D01*
X11773472Y15473226D01*
X11703208Y15520175D01*
X11625135Y15552514D01*
X11542253Y15569000D01*
X11457747Y15569000D01*
X11374865Y15552514D01*
X11296792Y15520175D01*
X11226528Y15473226D01*
X11166774Y15413472D01*
X11119825Y15343208D01*
X11087486Y15265135D01*
X11071000Y15182253D01*
X10845299Y15182253D01*
X10838734Y15186639D01*
X10747011Y15224632D01*
X10649640Y15244000D01*
X10550360Y15244000D01*
X10452989Y15224632D01*
X10361266Y15186639D01*
X10278718Y15131483D01*
X10208517Y15061282D01*
X10153361Y14978734D01*
X10115368Y14887011D01*
X10096000Y14789640D01*
X6927000Y14789640D01*
X6927000Y15807253D01*
X8471000Y15807253D01*
X8471000Y15722747D01*
X8487486Y15639865D01*
X8519825Y15561792D01*
X8566774Y15491528D01*
X8626528Y15431774D01*
X8696792Y15384825D01*
X8774865Y15352486D01*
X8857747Y15336000D01*
X8942253Y15336000D01*
X9025135Y15352486D01*
X9103208Y15384825D01*
X9173472Y15431774D01*
X9233226Y15491528D01*
X9280175Y15561792D01*
X9312514Y15639865D01*
X9329000Y15722747D01*
X9329000Y15807253D01*
X9312514Y15890135D01*
X9280175Y15968208D01*
X9233226Y16038472D01*
X9173472Y16098226D01*
X9122548Y16132253D01*
X10421000Y16132253D01*
X10421000Y16047747D01*
X10437486Y15964865D01*
X10469825Y15886792D01*
X10516774Y15816528D01*
X10576528Y15756774D01*
X10646792Y15709825D01*
X10724865Y15677486D01*
X10807747Y15661000D01*
X10892253Y15661000D01*
X10975135Y15677486D01*
X11053208Y15709825D01*
X11123472Y15756774D01*
X11183226Y15816528D01*
X11230175Y15886792D01*
X11262514Y15964865D01*
X11279000Y16047747D01*
X11279000Y16132253D01*
X11262514Y16215135D01*
X11230175Y16293208D01*
X11183226Y16363472D01*
X11123472Y16423226D01*
X11098907Y16439640D01*
X12846000Y16439640D01*
X12846000Y16340360D01*
X12865368Y16242989D01*
X12903361Y16151266D01*
X12958517Y16068718D01*
X13028718Y15998517D01*
X13111266Y15943361D01*
X13202989Y15905368D01*
X13300360Y15886000D01*
X13399640Y15886000D01*
X13497011Y15905368D01*
X13588734Y15943361D01*
X13671282Y15998517D01*
X13741483Y16068718D01*
X13796639Y16151266D01*
X13834632Y16242989D01*
X13854000Y16340360D01*
X13854000Y16439640D01*
X13849028Y16464640D01*
X17796000Y16464640D01*
X17796000Y16365360D01*
X17815368Y16267989D01*
X17853361Y16176266D01*
X17908517Y16093718D01*
X17978718Y16023517D01*
X18061266Y15968361D01*
X18152989Y15930368D01*
X18250360Y15911000D01*
X18349640Y15911000D01*
X18447011Y15930368D01*
X18538734Y15968361D01*
X18621282Y16023517D01*
X18691483Y16093718D01*
X18746639Y16176266D01*
X18784632Y16267989D01*
X18804000Y16365360D01*
X18804000Y16464640D01*
X18784632Y16562011D01*
X18746639Y16653734D01*
X18691483Y16736282D01*
X18621282Y16806483D01*
X18538734Y16861639D01*
X18447011Y16899632D01*
X18349640Y16919000D01*
X18250360Y16919000D01*
X18152989Y16899632D01*
X18061266Y16861639D01*
X17978718Y16806483D01*
X17908517Y16736282D01*
X17853361Y16653734D01*
X17815368Y16562011D01*
X17796000Y16464640D01*
X13849028Y16464640D01*
X13834632Y16537011D01*
X13796639Y16628734D01*
X13741483Y16711282D01*
X13671282Y16781483D01*
X13588734Y16836639D01*
X13497011Y16874632D01*
X13399640Y16894000D01*
X13300360Y16894000D01*
X13202989Y16874632D01*
X13111266Y16836639D01*
X13028718Y16781483D01*
X12958517Y16711282D01*
X12903361Y16628734D01*
X12865368Y16537011D01*
X12846000Y16439640D01*
X11098907Y16439640D01*
X11053208Y16470175D01*
X10975135Y16502514D01*
X10892253Y16519000D01*
X10807747Y16519000D01*
X10724865Y16502514D01*
X10646792Y16470175D01*
X10576528Y16423226D01*
X10516774Y16363472D01*
X10469825Y16293208D01*
X10437486Y16215135D01*
X10421000Y16132253D01*
X9122548Y16132253D01*
X9103208Y16145175D01*
X9025135Y16177514D01*
X8942253Y16194000D01*
X8857747Y16194000D01*
X8774865Y16177514D01*
X8696792Y16145175D01*
X8626528Y16098226D01*
X8566774Y16038472D01*
X8519825Y15968208D01*
X8487486Y15890135D01*
X8471000Y15807253D01*
X6927000Y15807253D01*
X6927000Y16662737D01*
X6997468Y16832862D01*
X7854246Y17689640D01*
X9196000Y17689640D01*
X9196000Y17590360D01*
X9215368Y17492989D01*
X9253361Y17401266D01*
X9308517Y17318718D01*
X9378718Y17248517D01*
X9461266Y17193361D01*
X9552989Y17155368D01*
X9630250Y17140000D01*
X9552989Y17124632D01*
X9461266Y17086639D01*
X9378718Y17031483D01*
X9308517Y16961282D01*
X9253361Y16878734D01*
X9215368Y16787011D01*
X9196000Y16689640D01*
X9196000Y16590360D01*
X9215368Y16492989D01*
X9253361Y16401266D01*
X9308517Y16318718D01*
X9378718Y16248517D01*
X9461266Y16193361D01*
X9552989Y16155368D01*
X9650360Y16136000D01*
X9749640Y16136000D01*
X9847011Y16155368D01*
X9938734Y16193361D01*
X10021282Y16248517D01*
X10091483Y16318718D01*
X10146639Y16401266D01*
X10184632Y16492989D01*
X10204000Y16590360D01*
X10204000Y16689640D01*
X10184632Y16787011D01*
X10146639Y16878734D01*
X10091483Y16961282D01*
X10021282Y17031483D01*
X9938734Y17086639D01*
X9847011Y17124632D01*
X9769750Y17140000D01*
X9847011Y17155368D01*
X9938734Y17193361D01*
X10021282Y17248517D01*
X10091483Y17318718D01*
X10146639Y17401266D01*
X10184632Y17492989D01*
X10204000Y17590360D01*
X10204000Y17689640D01*
X10184632Y17787011D01*
X10146639Y17878734D01*
X10091483Y17961282D01*
X10021282Y18031483D01*
X9938734Y18086639D01*
X9847011Y18124632D01*
X9749640Y18144000D01*
X9650360Y18144000D01*
X9552989Y18124632D01*
X9461266Y18086639D01*
X9378718Y18031483D01*
X9308517Y17961282D01*
X9253361Y17878734D01*
X9215368Y17787011D01*
X9196000Y17689640D01*
X7854246Y17689640D01*
X8482138Y18317532D01*
X8652263Y18388000D01*
X12622143Y18388000D01*
X12621000Y18382253D01*
%TD*%
M02*
