%TF.GenerationSoftware,KiCad,Pcbnew,(5.1.5)-3*%
%TF.CreationDate,2022-02-01T02:21:16+01:00*%
%TF.ProjectId,Riser Leopard 2OU PCIe x8 4xOculink,52697365-7220-44c6-956f-706172642032,rev?*%
%TF.SameCoordinates,PX459e440PY54cbc38*%
%TF.FileFunction,Soldermask,Top*%
%TF.FilePolarity,Negative*%
%FSLAX46Y46*%
G04 Gerber Fmt 4.6, Leading zero omitted, Abs format (unit mm)*
G04 Created by KiCad (PCBNEW (5.1.5)-3) date 2022-02-01 02:21:16*
%MOMM*%
%LPD*%
G04 APERTURE LIST*
%ADD10R,0.500000X0.700000*%
%ADD11R,0.900000X4.300000*%
%ADD12R,2.900000X1.700000*%
%ADD13R,0.700000X0.600000*%
%ADD14R,0.850000X0.900000*%
%ADD15R,0.600000X0.700000*%
%ADD16R,0.450000X0.400000*%
%ADD17R,0.400000X0.450000*%
%ADD18R,0.410000X1.500000*%
%ADD19C,1.600000*%
%ADD20C,1.200000*%
%ADD21C,1.350000*%
%ADD22R,1.300000X1.900000*%
%ADD23C,1.550000*%
%ADD24R,0.700000X0.500000*%
%ADD25C,0.600000*%
%ADD26R,1.650000X1.650000*%
%ADD27R,0.350000X0.700000*%
%ADD28R,0.700000X0.350000*%
%ADD29R,1.200000X1.200000*%
%ADD30C,2.700000*%
%ADD31C,6.500000*%
%ADD32C,0.900000*%
%ADD33R,0.500000X1.200000*%
G04 APERTURE END LIST*
D10*
%TO.C,R34*%
X14800000Y-17035000D03*
X15700000Y-17035000D03*
%TD*%
D11*
%TO.C,J1*%
X74700000Y-46085000D03*
X77700000Y-46085000D03*
X85700000Y-46085000D03*
X97700000Y-46085000D03*
X86700000Y-46085000D03*
X89700000Y-46085000D03*
X73700000Y-46085000D03*
X80700000Y-46085000D03*
X91700000Y-46085000D03*
X93700000Y-46085000D03*
X81700000Y-46085000D03*
X75700000Y-46085000D03*
X87700000Y-46085000D03*
X94700000Y-46085000D03*
X95700000Y-46085000D03*
X84700000Y-46085000D03*
X90700000Y-46085000D03*
X83700000Y-46085000D03*
X79700000Y-46085000D03*
X76700000Y-46085000D03*
X82700000Y-46085000D03*
X99700000Y-46085000D03*
X98700000Y-46085000D03*
X88700000Y-46085000D03*
X78700000Y-46085000D03*
X92700000Y-46085000D03*
X96700000Y-46085000D03*
X72700000Y-46085000D03*
X64700000Y-46085000D03*
X58700000Y-46085000D03*
X60700000Y-46085000D03*
X56700000Y-46085000D03*
X50700000Y-46085000D03*
X48700000Y-46085000D03*
X40700000Y-46085000D03*
X55700000Y-46085000D03*
X46700000Y-46085000D03*
X42700000Y-46085000D03*
X54700000Y-46085000D03*
X44700000Y-46085000D03*
X41700000Y-46085000D03*
X52700000Y-46085000D03*
X71700000Y-46085000D03*
X70700000Y-46085000D03*
X69700000Y-46085000D03*
X68700000Y-46085000D03*
X59700000Y-46085000D03*
X57700000Y-46085000D03*
X51700000Y-46085000D03*
X49700000Y-46085000D03*
X66700000Y-46085000D03*
X67700000Y-46085000D03*
X45700000Y-46085000D03*
X61700000Y-46085000D03*
X53700000Y-46085000D03*
X43700000Y-46085000D03*
X65700000Y-46085000D03*
X47700000Y-46085000D03*
X63700000Y-46085000D03*
X62700000Y-46085000D03*
X29700000Y-46085000D03*
X16600000Y-46085000D03*
X36700000Y-46085000D03*
X35700000Y-46085000D03*
X34700000Y-46085000D03*
X33700000Y-46085000D03*
X31700000Y-46085000D03*
X30700000Y-46085000D03*
X39700000Y-46085000D03*
X38700000Y-46085000D03*
X32700000Y-46085000D03*
X37700000Y-46085000D03*
X21600000Y-46085000D03*
X24600000Y-46085000D03*
X23600000Y-46085000D03*
X19600000Y-46085000D03*
X22600000Y-46085000D03*
X20600000Y-46085000D03*
X25600000Y-46085000D03*
X26600000Y-46085000D03*
X17600000Y-46085000D03*
X18600000Y-46085000D03*
X100700000Y-46085000D03*
X101700000Y-46085000D03*
X102700000Y-46085000D03*
X103700000Y-46085000D03*
X104700000Y-46085000D03*
X105700000Y-46085000D03*
X106700000Y-46085000D03*
X107700000Y-46085000D03*
X108700000Y-46085000D03*
X109700000Y-46085000D03*
X110700000Y-46085000D03*
X111700000Y-46085000D03*
X112700000Y-46085000D03*
X113700000Y-46085000D03*
X114700000Y-46085000D03*
X115700000Y-46085000D03*
X116700000Y-46085000D03*
X117700000Y-46085000D03*
X118700000Y-46085000D03*
X119700000Y-46085000D03*
X120700000Y-46085000D03*
X121700000Y-46085000D03*
X122700000Y-46085000D03*
X123700000Y-46085000D03*
X124700000Y-46085000D03*
X125700000Y-46085000D03*
X126700000Y-46085000D03*
X127700000Y-46085000D03*
X128700000Y-46085000D03*
X129700000Y-46085000D03*
X130700000Y-46085000D03*
X131700000Y-46085000D03*
X132700000Y-46085000D03*
%TD*%
D12*
%TO.C,C1*%
X30550000Y-8485000D03*
X34350000Y-8485000D03*
%TD*%
D13*
%TO.C,C2*%
X32100000Y-1385000D03*
X33200000Y-1385000D03*
%TD*%
%TO.C,C3*%
X33200000Y-2560000D03*
X32100000Y-2560000D03*
%TD*%
%TO.C,C4*%
X33200000Y-3735000D03*
X32100000Y-3735000D03*
%TD*%
%TO.C,C5*%
X37600000Y-1685000D03*
X36500000Y-1685000D03*
%TD*%
%TO.C,C6*%
X36495001Y-2890001D03*
X37595001Y-2890001D03*
%TD*%
D12*
%TO.C,C7*%
X22875000Y-8485000D03*
X26675000Y-8485000D03*
%TD*%
D14*
%TO.C,C8*%
X29400000Y-2035000D03*
X29400000Y-3535000D03*
%TD*%
%TO.C,C9*%
X27850000Y-3535000D03*
X27850000Y-2035000D03*
%TD*%
%TO.C,C10*%
X26300000Y-2035000D03*
X26300000Y-3535000D03*
%TD*%
D15*
%TO.C,C11*%
X24875000Y-3335000D03*
X24875000Y-2235000D03*
%TD*%
D16*
%TO.C,C12*%
X83700000Y-38555000D03*
X83700000Y-39115000D03*
%TD*%
%TO.C,C13*%
X87700000Y-38555000D03*
X87700000Y-39115000D03*
%TD*%
%TO.C,C14*%
X91700000Y-38555000D03*
X91700000Y-39115000D03*
%TD*%
%TO.C,C15*%
X95700000Y-39115000D03*
X95700000Y-38555000D03*
%TD*%
%TO.C,C16*%
X84700000Y-39115000D03*
X84700000Y-38555000D03*
%TD*%
%TO.C,C17*%
X88700000Y-39115000D03*
X88700000Y-38555000D03*
%TD*%
%TO.C,C18*%
X92700000Y-39115000D03*
X92700000Y-38555000D03*
%TD*%
%TO.C,C19*%
X96700000Y-39115000D03*
X96700000Y-38555000D03*
%TD*%
%TO.C,C20*%
X67700000Y-38555000D03*
X67700000Y-39115000D03*
%TD*%
%TO.C,C21*%
X71700000Y-38555000D03*
X71700000Y-39115000D03*
%TD*%
%TO.C,C22*%
X75700000Y-38555000D03*
X75700000Y-39115000D03*
%TD*%
%TO.C,C23*%
X79700000Y-38555000D03*
X79700000Y-39115000D03*
%TD*%
%TO.C,C24*%
X68700000Y-39115000D03*
X68700000Y-38555000D03*
%TD*%
%TO.C,C25*%
X72700000Y-39115000D03*
X72700000Y-38555000D03*
%TD*%
%TO.C,C26*%
X76700000Y-39115000D03*
X76700000Y-38555000D03*
%TD*%
%TO.C,C27*%
X80700000Y-39115000D03*
X80700000Y-38555000D03*
%TD*%
%TO.C,C28*%
X116700000Y-38555000D03*
X116700000Y-39115000D03*
%TD*%
%TO.C,C29*%
X120700000Y-39115000D03*
X120700000Y-38555000D03*
%TD*%
%TO.C,C30*%
X124700000Y-39115000D03*
X124700000Y-38555000D03*
%TD*%
%TO.C,C31*%
X128700000Y-39115000D03*
X128700000Y-38555000D03*
%TD*%
%TO.C,C32*%
X117700000Y-38555000D03*
X117700000Y-39115000D03*
%TD*%
%TO.C,C33*%
X121700000Y-38555000D03*
X121700000Y-39115000D03*
%TD*%
%TO.C,C34*%
X125700000Y-38555000D03*
X125700000Y-39115000D03*
%TD*%
%TO.C,C35*%
X129700000Y-38555000D03*
X129700000Y-39115000D03*
%TD*%
%TO.C,C36*%
X100700000Y-39115000D03*
X100700000Y-38555000D03*
%TD*%
%TO.C,C37*%
X104700000Y-39115000D03*
X104700000Y-38555000D03*
%TD*%
%TO.C,C38*%
X108700000Y-39115000D03*
X108700000Y-38555000D03*
%TD*%
%TO.C,C39*%
X112700000Y-38555000D03*
X112700000Y-39115000D03*
%TD*%
%TO.C,C40*%
X101700000Y-38555000D03*
X101700000Y-39115000D03*
%TD*%
%TO.C,C41*%
X105700000Y-38555000D03*
X105700000Y-39115000D03*
%TD*%
%TO.C,C42*%
X109700000Y-38555000D03*
X109700000Y-39115000D03*
%TD*%
%TO.C,C43*%
X113700000Y-39115000D03*
X113700000Y-38555000D03*
%TD*%
%TO.C,C44*%
X12500000Y8645000D03*
X12500000Y8085000D03*
%TD*%
D17*
%TO.C,C45*%
X11530000Y16615000D03*
X10970000Y16615000D03*
%TD*%
D16*
%TO.C,C46*%
X14700000Y17545000D03*
X14700000Y16985000D03*
%TD*%
D15*
%TO.C,C47*%
X11300000Y8540000D03*
X11300000Y7440000D03*
%TD*%
D13*
%TO.C,C48*%
X17600000Y17015000D03*
X16500000Y17015000D03*
%TD*%
D15*
%TO.C,C49*%
X19075000Y15340000D03*
X19075000Y16440000D03*
%TD*%
%TO.C,C50*%
X8450000Y18165000D03*
X8450000Y17065000D03*
%TD*%
D17*
%TO.C,C51*%
X10030000Y15765000D03*
X9470000Y15765000D03*
%TD*%
%TO.C,C52*%
X19595000Y12365000D03*
X20155000Y12365000D03*
%TD*%
D16*
%TO.C,C53*%
X13300000Y16985000D03*
X13300000Y17545000D03*
%TD*%
D17*
%TO.C,C54*%
X8620000Y12615000D03*
X9180000Y12615000D03*
%TD*%
D16*
%TO.C,C55*%
X17925000Y15770000D03*
X17925000Y15210000D03*
%TD*%
D13*
%TO.C,C56*%
X14050000Y-21835000D03*
X12950000Y-21835000D03*
%TD*%
D18*
%TO.C,J2*%
X82650000Y18125000D03*
X83150000Y18125000D03*
X83650000Y18125000D03*
X84150000Y18125000D03*
X84650000Y18125000D03*
X85150000Y18125000D03*
X85650000Y18125000D03*
X86150000Y18125000D03*
X86650000Y18125000D03*
X87150000Y18125000D03*
X87650000Y18125000D03*
X88150000Y18125000D03*
X88650000Y18125000D03*
X89150000Y18125000D03*
X89650000Y18125000D03*
X90150000Y18125000D03*
X90650000Y18125000D03*
X91150000Y18125000D03*
X91650000Y18125000D03*
X92150000Y18125000D03*
X92650000Y18125000D03*
X82150000Y20025000D03*
X82650000Y20025000D03*
X83150000Y20025000D03*
X83650000Y20025000D03*
X84150000Y20025000D03*
X84650000Y20025000D03*
X85150000Y20025000D03*
X85650000Y20025000D03*
X86150000Y20025000D03*
X86650000Y20025000D03*
X87150000Y20025000D03*
X87650000Y20025000D03*
X88150000Y20025000D03*
X88650000Y20025000D03*
X89150000Y20025000D03*
X89650000Y20025000D03*
X90150000Y20025000D03*
X90650000Y20025000D03*
X91150000Y20025000D03*
X91650000Y20025000D03*
X92150000Y20025000D03*
D19*
X80820000Y19385000D03*
X93980000Y19385000D03*
D20*
X81780000Y18125000D03*
D21*
X93680000Y17765000D03*
D22*
X82650000Y15075000D03*
X82300000Y23075000D03*
X92000000Y23075000D03*
X92350000Y15075000D03*
%TD*%
%TO.C,J3*%
X72350000Y15075000D03*
X72000000Y23075000D03*
X62300000Y23075000D03*
X62650000Y15075000D03*
D21*
X73680000Y17765000D03*
D20*
X61780000Y18125000D03*
D19*
X73980000Y19385000D03*
D23*
X60820000Y19385000D03*
D18*
X72150000Y20025000D03*
X71650000Y20025000D03*
X71150000Y20025000D03*
X70650000Y20025000D03*
X70150000Y20025000D03*
X69650000Y20025000D03*
X69150000Y20025000D03*
X68650000Y20025000D03*
X68150000Y20025000D03*
X67650000Y20025000D03*
X67150000Y20025000D03*
X66650000Y20025000D03*
X66150000Y20025000D03*
X65650000Y20025000D03*
X65150000Y20025000D03*
X64650000Y20025000D03*
X64150000Y20025000D03*
X63650000Y20025000D03*
X63150000Y20025000D03*
X62650000Y20025000D03*
X62150000Y20025000D03*
X72650000Y18125000D03*
X72150000Y18125000D03*
X71650000Y18125000D03*
X71150000Y18125000D03*
X70650000Y18125000D03*
X70150000Y18125000D03*
X69650000Y18125000D03*
X69150000Y18125000D03*
X68650000Y18125000D03*
X68150000Y18125000D03*
X67650000Y18125000D03*
X67150000Y18125000D03*
X66650000Y18125000D03*
X66150000Y18125000D03*
X65650000Y18125000D03*
X65150000Y18125000D03*
X64650000Y18125000D03*
X64150000Y18125000D03*
X63650000Y18125000D03*
X63150000Y18125000D03*
X62650000Y18125000D03*
%TD*%
D22*
%TO.C,J4*%
X132350000Y15075000D03*
X132000000Y23075000D03*
X122300000Y23075000D03*
X122650000Y15075000D03*
D21*
X133680000Y17765000D03*
D20*
X121780000Y18125000D03*
D19*
X133980000Y19385000D03*
X120820000Y19385000D03*
D18*
X132150000Y20025000D03*
X131650000Y20025000D03*
X131150000Y20025000D03*
X130650000Y20025000D03*
X130150000Y20025000D03*
X129650000Y20025000D03*
X129150000Y20025000D03*
X128650000Y20025000D03*
X128150000Y20025000D03*
X127650000Y20025000D03*
X127150000Y20025000D03*
X126650000Y20025000D03*
X126150000Y20025000D03*
X125650000Y20025000D03*
X125150000Y20025000D03*
X124650000Y20025000D03*
X124150000Y20025000D03*
X123650000Y20025000D03*
X123150000Y20025000D03*
X122650000Y20025000D03*
X122150000Y20025000D03*
X132650000Y18125000D03*
X132150000Y18125000D03*
X131650000Y18125000D03*
X131150000Y18125000D03*
X130650000Y18125000D03*
X130150000Y18125000D03*
X129650000Y18125000D03*
X129150000Y18125000D03*
X128650000Y18125000D03*
X128150000Y18125000D03*
X127650000Y18125000D03*
X127150000Y18125000D03*
X126650000Y18125000D03*
X126150000Y18125000D03*
X125650000Y18125000D03*
X125150000Y18125000D03*
X124650000Y18125000D03*
X124150000Y18125000D03*
X123650000Y18125000D03*
X123150000Y18125000D03*
X122650000Y18125000D03*
%TD*%
%TO.C,J5*%
X102650000Y18125000D03*
X103150000Y18125000D03*
X103650000Y18125000D03*
X104150000Y18125000D03*
X104650000Y18125000D03*
X105150000Y18125000D03*
X105650000Y18125000D03*
X106150000Y18125000D03*
X106650000Y18125000D03*
X107150000Y18125000D03*
X107650000Y18125000D03*
X108150000Y18125000D03*
X108650000Y18125000D03*
X109150000Y18125000D03*
X109650000Y18125000D03*
X110150000Y18125000D03*
X110650000Y18125000D03*
X111150000Y18125000D03*
X111650000Y18125000D03*
X112150000Y18125000D03*
X112650000Y18125000D03*
X102150000Y20025000D03*
X102650000Y20025000D03*
X103150000Y20025000D03*
X103650000Y20025000D03*
X104150000Y20025000D03*
X104650000Y20025000D03*
X105150000Y20025000D03*
X105650000Y20025000D03*
X106150000Y20025000D03*
X106650000Y20025000D03*
X107150000Y20025000D03*
X107650000Y20025000D03*
X108150000Y20025000D03*
X108650000Y20025000D03*
X109150000Y20025000D03*
X109650000Y20025000D03*
X110150000Y20025000D03*
X110650000Y20025000D03*
X111150000Y20025000D03*
X111650000Y20025000D03*
X112150000Y20025000D03*
D19*
X100820000Y19385000D03*
X113980000Y19385000D03*
D20*
X101780000Y18125000D03*
D21*
X113680000Y17765000D03*
D22*
X102650000Y15075000D03*
X102300000Y23075000D03*
X112000000Y23075000D03*
X112350000Y15075000D03*
%TD*%
D24*
%TO.C,R1*%
X66700000Y-42285000D03*
X66700000Y-41385000D03*
%TD*%
D10*
%TO.C,R2*%
X99000000Y-39785000D03*
X98100000Y-39785000D03*
%TD*%
D24*
%TO.C,R3*%
X20400000Y3065000D03*
X20400000Y3965000D03*
%TD*%
%TO.C,R4*%
X99700000Y-42035000D03*
X99700000Y-41135000D03*
%TD*%
%TO.C,R5*%
X65700000Y-38885000D03*
X65700000Y-39785000D03*
%TD*%
%TO.C,R6*%
X77100000Y25815000D03*
X77100000Y24915000D03*
%TD*%
%TO.C,R7*%
X56850000Y15365000D03*
X56850000Y16265000D03*
%TD*%
D10*
%TO.C,R8*%
X88400000Y25565000D03*
X89300000Y25565000D03*
%TD*%
%TO.C,R9*%
X68400000Y25565000D03*
X69300000Y25565000D03*
%TD*%
D24*
%TO.C,R10*%
X117100000Y24915000D03*
X117100000Y25815000D03*
%TD*%
%TO.C,R11*%
X97100000Y24915000D03*
X97100000Y25815000D03*
%TD*%
D10*
%TO.C,R12*%
X129300000Y25565000D03*
X128400000Y25565000D03*
%TD*%
%TO.C,R13*%
X108400000Y25565000D03*
X109300000Y25565000D03*
%TD*%
%TO.C,R14*%
X19375000Y9415000D03*
X18475000Y9415000D03*
%TD*%
D24*
%TO.C,R15*%
X14900000Y5940000D03*
X14900000Y6840000D03*
%TD*%
%TO.C,R16*%
X16125000Y6840000D03*
X16125000Y5940000D03*
%TD*%
D10*
%TO.C,R17*%
X10800000Y17915000D03*
X11700000Y17915000D03*
%TD*%
%TO.C,R18*%
X12375000Y6765000D03*
X13275000Y6765000D03*
%TD*%
%TO.C,R19*%
X17825000Y6865000D03*
X18725000Y6865000D03*
%TD*%
%TO.C,R20*%
X14900000Y18815000D03*
X14000000Y18815000D03*
%TD*%
D24*
%TO.C,R21*%
X9975000Y8440000D03*
X9975000Y7540000D03*
%TD*%
D10*
%TO.C,R22*%
X7850000Y15215000D03*
X6950000Y15215000D03*
%TD*%
%TO.C,R23*%
X6950000Y13990000D03*
X7850000Y13990000D03*
%TD*%
%TO.C,R24*%
X7850000Y10965000D03*
X6950000Y10965000D03*
%TD*%
%TO.C,R25*%
X6950000Y9740000D03*
X7850000Y9740000D03*
%TD*%
%TO.C,R26*%
X22600000Y11690000D03*
X21700000Y11690000D03*
%TD*%
%TO.C,R27*%
X21700000Y10465000D03*
X22600000Y10465000D03*
%TD*%
%TO.C,R28*%
X22600000Y14890000D03*
X21700000Y14890000D03*
%TD*%
%TO.C,R29*%
X21700000Y13665000D03*
X22600000Y13665000D03*
%TD*%
D24*
%TO.C,R30*%
X15850000Y-14535000D03*
X15850000Y-15435000D03*
%TD*%
%TO.C,R31*%
X14500000Y-14535000D03*
X14500000Y-15435000D03*
%TD*%
%TO.C,R32*%
X13200000Y-14535000D03*
X13200000Y-15435000D03*
%TD*%
D10*
%TO.C,R33*%
X14800000Y-18435000D03*
X15700000Y-18435000D03*
%TD*%
%TO.C,R35*%
X1700000Y-17885000D03*
X2600000Y-17885000D03*
%TD*%
D24*
%TO.C,R36*%
X2800000Y-20785000D03*
X2800000Y-19885000D03*
%TD*%
D10*
%TO.C,R37*%
X2600000Y-14685000D03*
X1700000Y-14685000D03*
%TD*%
%TO.C,R38*%
X2600000Y-16435000D03*
X1700000Y-16435000D03*
%TD*%
%TO.C,R39*%
X6300000Y-22435000D03*
X5400000Y-22435000D03*
%TD*%
%TO.C,R40*%
X2600000Y-22435000D03*
X3500000Y-22435000D03*
%TD*%
D25*
%TO.C,TP1*%
X134100000Y-30385000D03*
%TD*%
%TO.C,TP2*%
X38700000Y9465000D03*
%TD*%
%TO.C,TP3*%
X78600000Y15265000D03*
%TD*%
%TO.C,TP4*%
X58600000Y15015000D03*
%TD*%
%TO.C,TP5*%
X118600000Y16515000D03*
%TD*%
%TO.C,TP6*%
X140200000Y22615000D03*
%TD*%
%TO.C,TP8*%
X98600000Y16515000D03*
%TD*%
%TO.C,TP9*%
X142750000Y22565000D03*
%TD*%
%TO.C,TP11*%
X16350000Y18815000D03*
%TD*%
D26*
%TO.C,U2*%
X15025000Y12090000D03*
D27*
X12500000Y15265000D03*
X13000000Y15265000D03*
X13500000Y15265000D03*
X14000000Y15265000D03*
X14500000Y15265000D03*
X15000000Y15265000D03*
X15500000Y15265000D03*
X16000000Y15265000D03*
D28*
X16650000Y14615000D03*
X16650000Y14115000D03*
X16650000Y13615000D03*
X16650000Y13115000D03*
X16650000Y12615000D03*
X16650000Y12115000D03*
X16650000Y11615000D03*
X16650000Y11115000D03*
D27*
X16000000Y10465000D03*
X15500000Y10465000D03*
X15000000Y10465000D03*
X14500000Y10465000D03*
X14000000Y10465000D03*
X13500000Y10465000D03*
X13000000Y10465000D03*
X12500000Y10465000D03*
D28*
X11850000Y11115000D03*
X11850000Y11615000D03*
X11850000Y12115000D03*
X11850000Y12615000D03*
X11850000Y13115000D03*
X11850000Y13615000D03*
X11850000Y14115000D03*
X11850000Y14615000D03*
D26*
X15025000Y13640000D03*
X13475000Y13640000D03*
X13475000Y12090000D03*
%TD*%
D20*
%TO.C,J6*%
X66090000Y7095000D03*
X69090000Y5095000D03*
X73090000Y5095000D03*
X72090000Y7095000D03*
X71090000Y5095000D03*
X70090000Y7095000D03*
X68090000Y7095000D03*
X67090000Y5095000D03*
X60090000Y595000D03*
X66090000Y595000D03*
X40090000Y595000D03*
X37090000Y2595000D03*
X54090000Y595000D03*
X48090000Y595000D03*
X42090000Y595000D03*
X44090000Y595000D03*
X27090000Y2595000D03*
X46090000Y595000D03*
X52090000Y595000D03*
X49090000Y2595000D03*
X29090000Y2595000D03*
X35090000Y2595000D03*
X30090000Y595000D03*
X65090000Y2595000D03*
X63090000Y2595000D03*
X61090000Y2595000D03*
X55090000Y2595000D03*
X31090000Y2595000D03*
X47090000Y2595000D03*
X53090000Y2595000D03*
X43090000Y2595000D03*
X36090000Y595000D03*
X64090000Y595000D03*
X34090000Y595000D03*
X51090000Y2595000D03*
X50090000Y595000D03*
X32090000Y595000D03*
X45090000Y2595000D03*
X28090000Y595000D03*
X41090000Y2595000D03*
X62090000Y595000D03*
X57090000Y2595000D03*
X59090000Y2595000D03*
X58090000Y595000D03*
X56090000Y595000D03*
X33090000Y2595000D03*
X42090000Y7095000D03*
X41090000Y5095000D03*
X43090000Y5095000D03*
X52090000Y7095000D03*
X57090000Y5095000D03*
X55090000Y5095000D03*
X56090000Y7095000D03*
X54090000Y7095000D03*
X51090000Y5095000D03*
X53090000Y5095000D03*
X50090000Y7095000D03*
X75090000Y2595000D03*
X74090000Y595000D03*
X73090000Y2595000D03*
X77090000Y2595000D03*
X70090000Y595000D03*
X68090000Y595000D03*
X71090000Y2595000D03*
X69090000Y2595000D03*
X76090000Y595000D03*
X72090000Y595000D03*
X67090000Y2595000D03*
X59090000Y5095000D03*
X63090000Y5095000D03*
X62090000Y7095000D03*
X61090000Y5095000D03*
X65090000Y5095000D03*
X60090000Y7095000D03*
X58090000Y7095000D03*
X64090000Y7095000D03*
X49090000Y5095000D03*
X48090000Y7095000D03*
X47090000Y5095000D03*
X33090000Y5095000D03*
X34090000Y7095000D03*
X31090000Y5095000D03*
X32090000Y7095000D03*
X35090000Y5095000D03*
X40090000Y7095000D03*
X37090000Y5095000D03*
X36090000Y7095000D03*
D29*
X27090000Y5095000D03*
D20*
X28090000Y7095000D03*
X30090000Y7095000D03*
X29090000Y5095000D03*
D30*
X78890000Y3845000D03*
X38740000Y3845000D03*
D20*
X77090000Y5095000D03*
X75090000Y5095000D03*
X74090000Y7095000D03*
X76090000Y7095000D03*
X44090000Y7095000D03*
X46090000Y7095000D03*
X45090000Y5095000D03*
%TD*%
D31*
%TO.C,H1*%
X0Y0D03*
D32*
X2400000Y0D03*
X-1697056Y-1697056D03*
X1697056Y-1697056D03*
X0Y-2400000D03*
X-2400000Y0D03*
X1697056Y1697056D03*
X0Y2400000D03*
X-1697056Y1697056D03*
%TD*%
%TO.C,H2*%
X132202944Y1697056D03*
X133900000Y2400000D03*
X135597056Y1697056D03*
X131500000Y0D03*
X133900000Y-2400000D03*
X135597056Y-1697056D03*
X132202944Y-1697056D03*
X136300000Y0D03*
D31*
X133900000Y0D03*
%TD*%
D33*
%TO.C,U3*%
X11475000Y-19985000D03*
X10825000Y-19985000D03*
X10175000Y-19985000D03*
X9525000Y-19985000D03*
X8875000Y-19985000D03*
X8225000Y-19985000D03*
X7575000Y-19985000D03*
X6925000Y-19985000D03*
X6275000Y-19985000D03*
X5625000Y-19985000D03*
X4975000Y-19985000D03*
X4325000Y-19985000D03*
X4325000Y-14285000D03*
X4975000Y-14285000D03*
X5625000Y-14285000D03*
X6275000Y-14285000D03*
X6925000Y-14285000D03*
X7575000Y-14285000D03*
X8225000Y-14285000D03*
X8875000Y-14285000D03*
X9525000Y-14285000D03*
X10175000Y-14285000D03*
X10825000Y-14285000D03*
X11475000Y-14285000D03*
%TD*%
M02*
