%TF.GenerationSoftware,KiCad,Pcbnew,(5.1.5)-3*%
%TF.CreationDate,2022-02-01T02:21:16+01:00*%
%TF.ProjectId,Riser Leopard 2OU PCIe x8 4xOculink,52697365-7220-44c6-956f-706172642032,rev?*%
%TF.SameCoordinates,PX459e440PY54cbc38*%
%TF.FileFunction,Copper,L6,Bot*%
%TF.FilePolarity,Positive*%
%FSLAX46Y46*%
G04 Gerber Fmt 4.6, Leading zero omitted, Abs format (unit mm)*
G04 Created by KiCad (PCBNEW (5.1.5)-3) date 2022-02-01 02:21:16*
%MOMM*%
%LPD*%
G04 APERTURE LIST*
%TA.AperFunction,SMDPad,CuDef*%
%ADD10R,0.800000X4.200000*%
%TD*%
%TA.AperFunction,ComponentPad*%
%ADD11C,1.500000*%
%TD*%
%TA.AperFunction,WasherPad*%
%ADD12C,1.100000*%
%TD*%
%TA.AperFunction,WasherPad*%
%ADD13C,1.250000*%
%TD*%
%TA.AperFunction,ComponentPad*%
%ADD14C,1.450000*%
%TD*%
%TA.AperFunction,ComponentPad*%
%ADD15C,1.100000*%
%TD*%
%TA.AperFunction,ComponentPad*%
%ADD16R,1.100000X1.100000*%
%TD*%
%TA.AperFunction,WasherPad*%
%ADD17C,2.600000*%
%TD*%
%TA.AperFunction,ComponentPad*%
%ADD18C,6.400000*%
%TD*%
%TA.AperFunction,ComponentPad*%
%ADD19C,0.800000*%
%TD*%
%TA.AperFunction,ViaPad*%
%ADD20C,0.350000*%
%TD*%
%TA.AperFunction,ViaPad*%
%ADD21C,0.500000*%
%TD*%
%TA.AperFunction,ViaPad*%
%ADD22C,0.600000*%
%TD*%
%TA.AperFunction,ViaPad*%
%ADD23C,0.400000*%
%TD*%
%TA.AperFunction,Conductor*%
%ADD24C,0.400000*%
%TD*%
%TA.AperFunction,Conductor*%
%ADD25C,0.200000*%
%TD*%
%TA.AperFunction,Conductor*%
%ADD26C,0.152400*%
%TD*%
%TA.AperFunction,Conductor*%
%ADD27C,0.254000*%
%TD*%
G04 APERTURE END LIST*
D10*
%TO.P,J1,A12*%
%TO.N,GND*%
X29700000Y-46085000D03*
%TO.P,J1,A1*%
%TO.N,/PCIE_SLOT_PRSNT#1*%
X16600000Y-46085000D03*
%TO.P,J1,A2*%
%TO.N,+12V*%
X17600000Y-46085000D03*
%TO.P,J1,A3*%
X18600000Y-46085000D03*
%TO.P,J1,A4*%
%TO.N,GND*%
X19600000Y-46085000D03*
%TO.P,J1,A5*%
%TO.N,CLK100_SLOT0+*%
X20600000Y-46085000D03*
%TO.P,J1,A6*%
%TO.N,CLK100_SLOT0-*%
X21600000Y-46085000D03*
%TO.P,J1,A7*%
%TO.N,GND*%
X22600000Y-46085000D03*
%TO.P,J1,A8*%
%TO.N,/LAN_SMB_DAT*%
X23600000Y-46085000D03*
%TO.P,J1,A9*%
%TO.N,+3V3*%
X24600000Y-46085000D03*
%TO.P,J1,A10*%
X25600000Y-46085000D03*
%TO.P,J1,A11*%
%TO.N,RST_PERST0_N*%
X26600000Y-46085000D03*
%TO.P,J1,A13*%
%TO.N,Net-(J1-PadA13)*%
X30700000Y-46085000D03*
%TO.P,J1,A14*%
%TO.N,Net-(J1-PadA14)*%
X31700000Y-46085000D03*
%TO.P,J1,A15*%
%TO.N,GND*%
X32700000Y-46085000D03*
%TO.P,J1,A16*%
%TO.N,/CPU0_RX0+*%
X33700000Y-46085000D03*
%TO.P,J1,A17*%
%TO.N,/CPU0_RX0-*%
X34700000Y-46085000D03*
%TO.P,J1,A18*%
%TO.N,GND*%
X35700000Y-46085000D03*
%TO.P,J1,A19*%
%TO.N,Net-(J1-PadA19)*%
X36700000Y-46085000D03*
%TO.P,J1,A20*%
%TO.N,GND*%
X37700000Y-46085000D03*
%TO.P,J1,A21*%
%TO.N,/CPU0_RX1+*%
X38700000Y-46085000D03*
%TO.P,J1,A22*%
%TO.N,/CPU0_RX1-*%
X39700000Y-46085000D03*
%TO.P,J1,A23*%
%TO.N,GND*%
X40700000Y-46085000D03*
%TO.P,J1,A24*%
X41700000Y-46085000D03*
%TO.P,J1,A25*%
%TO.N,/CPU0_RX2+*%
X42700000Y-46085000D03*
%TO.P,J1,A26*%
%TO.N,/CPU0_RX2-*%
X43700000Y-46085000D03*
%TO.P,J1,A27*%
%TO.N,GND*%
X44700000Y-46085000D03*
%TO.P,J1,A28*%
X45700000Y-46085000D03*
%TO.P,J1,A29*%
%TO.N,/CPU0_RX3+*%
X46700000Y-46085000D03*
%TO.P,J1,A30*%
%TO.N,/CPU0_RX3-*%
X47700000Y-46085000D03*
%TO.P,J1,A31*%
%TO.N,GND*%
X48700000Y-46085000D03*
%TO.P,J1,A32*%
%TO.N,CLK100_SLOT1+*%
X49700000Y-46085000D03*
%TO.P,J1,A33*%
%TO.N,CLK100_SLOT1-*%
X50700000Y-46085000D03*
%TO.P,J1,A34*%
%TO.N,GND*%
X51700000Y-46085000D03*
%TO.P,J1,A35*%
%TO.N,/CPU0_RX4+*%
X52700000Y-46085000D03*
%TO.P,J1,A36*%
%TO.N,/CPU0_RX4-*%
X53700000Y-46085000D03*
%TO.P,J1,A37*%
%TO.N,GND*%
X54700000Y-46085000D03*
%TO.P,J1,A38*%
X55700000Y-46085000D03*
%TO.P,J1,A39*%
%TO.N,/CPU0_RX5+*%
X56700000Y-46085000D03*
%TO.P,J1,A40*%
%TO.N,/CPU0_RX5-*%
X57700000Y-46085000D03*
%TO.P,J1,A41*%
%TO.N,GND*%
X58700000Y-46085000D03*
%TO.P,J1,A42*%
X59700000Y-46085000D03*
%TO.P,J1,A43*%
%TO.N,/CPU0_RX6+*%
X60700000Y-46085000D03*
%TO.P,J1,A44*%
%TO.N,/CPU0_RX6-*%
X61700000Y-46085000D03*
%TO.P,J1,A45*%
%TO.N,GND*%
X62700000Y-46085000D03*
%TO.P,J1,A46*%
X63700000Y-46085000D03*
%TO.P,J1,A47*%
%TO.N,/CPU0_RX7+*%
X64700000Y-46085000D03*
%TO.P,J1,A48*%
%TO.N,/CPU0_RX7-*%
X65700000Y-46085000D03*
%TO.P,J1,A49*%
%TO.N,GND*%
X66700000Y-46085000D03*
%TO.P,J1,A50*%
%TO.N,/SLOT0_CONFIG*%
X67700000Y-46085000D03*
%TO.P,J1,A51*%
%TO.N,GND*%
X68700000Y-46085000D03*
%TO.P,J1,A52*%
%TO.N,Oculink_0_x4_RX0+*%
X69700000Y-46085000D03*
%TO.P,J1,A53*%
%TO.N,Oculink_0_x4_RX0-*%
X70700000Y-46085000D03*
%TO.P,J1,A54*%
%TO.N,GND*%
X71700000Y-46085000D03*
%TO.P,J1,A55*%
X72700000Y-46085000D03*
%TO.P,J1,A56*%
%TO.N,Oculink_0_x4_RX1+*%
X73700000Y-46085000D03*
%TO.P,J1,A57*%
%TO.N,Oculink_0_x4_RX1-*%
X74700000Y-46085000D03*
%TO.P,J1,A58*%
%TO.N,GND*%
X75700000Y-46085000D03*
%TO.P,J1,A59*%
X76700000Y-46085000D03*
%TO.P,J1,A60*%
%TO.N,Oculink_0_x4_RX2+*%
X77700000Y-46085000D03*
%TO.P,J1,A61*%
%TO.N,Oculink_0_x4_RX2-*%
X78700000Y-46085000D03*
%TO.P,J1,A62*%
%TO.N,GND*%
X79700000Y-46085000D03*
%TO.P,J1,A63*%
X80700000Y-46085000D03*
%TO.P,J1,A64*%
%TO.N,Oculink_0_x4_RX3+*%
X81700000Y-46085000D03*
%TO.P,J1,A65*%
%TO.N,Oculink_0_x4_RX3-*%
X82700000Y-46085000D03*
%TO.P,J1,A66*%
%TO.N,GND*%
X83700000Y-46085000D03*
%TO.P,J1,A67*%
X84700000Y-46085000D03*
%TO.P,J1,A68*%
%TO.N,Oculink_1_x4_RX0+*%
X85700000Y-46085000D03*
%TO.P,J1,A69*%
%TO.N,Oculink_1_x4_RX0-*%
X86700000Y-46085000D03*
%TO.P,J1,A70*%
%TO.N,GND*%
X87700000Y-46085000D03*
%TO.P,J1,A71*%
X88700000Y-46085000D03*
%TO.P,J1,A72*%
%TO.N,Oculink_1_x4_RX1+*%
X89700000Y-46085000D03*
%TO.P,J1,A73*%
%TO.N,Oculink_1_x4_RX1-*%
X90700000Y-46085000D03*
%TO.P,J1,A74*%
%TO.N,GND*%
X91700000Y-46085000D03*
%TO.P,J1,A75*%
X92700000Y-46085000D03*
%TO.P,J1,A76*%
%TO.N,Oculink_1_x4_RX2+*%
X93700000Y-46085000D03*
%TO.P,J1,A77*%
%TO.N,Oculink_1_x4_RX2-*%
X94700000Y-46085000D03*
%TO.P,J1,A78*%
%TO.N,GND*%
X95700000Y-46085000D03*
%TO.P,J1,A79*%
X96700000Y-46085000D03*
%TO.P,J1,A80*%
%TO.N,Oculink_1_x4_RX3+*%
X97700000Y-46085000D03*
%TO.P,J1,A81*%
%TO.N,Oculink_1_x4_RX3-*%
X98700000Y-46085000D03*
%TO.P,J1,A82*%
%TO.N,GND*%
X99700000Y-46085000D03*
%TO.P,J1,A83*%
%TO.N,/SLOT1_CONFIG*%
X100700000Y-46085000D03*
%TO.P,J1,A84*%
%TO.N,GND*%
X101700000Y-46085000D03*
%TO.P,J1,A85*%
%TO.N,Oculink_2_x4_RX0+*%
X102700000Y-46085000D03*
%TO.P,J1,A86*%
%TO.N,Oculink_2_x4_RX0-*%
X103700000Y-46085000D03*
%TO.P,J1,A87*%
%TO.N,GND*%
X104700000Y-46085000D03*
%TO.P,J1,A88*%
X105700000Y-46085000D03*
%TO.P,J1,A89*%
%TO.N,Oculink_2_x4_RX1+*%
X106700000Y-46085000D03*
%TO.P,J1,A90*%
%TO.N,Oculink_2_x4_RX1-*%
X107700000Y-46085000D03*
%TO.P,J1,A91*%
%TO.N,GND*%
X108700000Y-46085000D03*
%TO.P,J1,A92*%
X109700000Y-46085000D03*
%TO.P,J1,A93*%
%TO.N,Oculink_2_x4_RX2+*%
X110700000Y-46085000D03*
%TO.P,J1,A94*%
%TO.N,Oculink_2_x4_RX2-*%
X111700000Y-46085000D03*
%TO.P,J1,A95*%
%TO.N,GND*%
X112700000Y-46085000D03*
%TO.P,J1,A96*%
X113700000Y-46085000D03*
%TO.P,J1,A97*%
%TO.N,Oculink_2_x4_RX3+*%
X114700000Y-46085000D03*
%TO.P,J1,A98*%
%TO.N,Oculink_2_x4_RX3-*%
X115700000Y-46085000D03*
%TO.P,J1,A99*%
%TO.N,GND*%
X116700000Y-46085000D03*
%TO.P,J1,A100*%
X117700000Y-46085000D03*
%TO.P,J1,A101*%
%TO.N,Oculink_3_x4_RX0+*%
X118700000Y-46085000D03*
%TO.P,J1,A102*%
%TO.N,Oculink_3_x4_RX0-*%
X119700000Y-46085000D03*
%TO.P,J1,A103*%
%TO.N,GND*%
X120700000Y-46085000D03*
%TO.P,J1,A104*%
X121700000Y-46085000D03*
%TO.P,J1,A105*%
%TO.N,Oculink_3_x4_RX1+*%
X122700000Y-46085000D03*
%TO.P,J1,A106*%
%TO.N,Oculink_3_x4_RX1-*%
X123700000Y-46085000D03*
%TO.P,J1,A107*%
%TO.N,GND*%
X124700000Y-46085000D03*
%TO.P,J1,A108*%
X125700000Y-46085000D03*
%TO.P,J1,A109*%
%TO.N,Oculink_3_x4_RX2+*%
X126700000Y-46085000D03*
%TO.P,J1,A110*%
%TO.N,Oculink_3_x4_RX2-*%
X127700000Y-46085000D03*
%TO.P,J1,A111*%
%TO.N,GND*%
X128700000Y-46085000D03*
%TO.P,J1,A112*%
X129700000Y-46085000D03*
%TO.P,J1,A113*%
%TO.N,Oculink_3_x4_RX3+*%
X130700000Y-46085000D03*
%TO.P,J1,A114*%
%TO.N,Oculink_3_x4_RX3-*%
X131700000Y-46085000D03*
%TO.P,J1,A115*%
%TO.N,GND*%
X132700000Y-46085000D03*
%TD*%
D11*
%TO.P,J2,C1*%
%TO.N,GND*%
X80820000Y19385000D03*
X93980000Y19385000D03*
D12*
%TO.P,J2,*%
%TO.N,*%
X81780000Y18125000D03*
D13*
X93680000Y17765000D03*
%TD*%
%TO.P,J3,*%
%TO.N,*%
X73680000Y17765000D03*
D12*
X61780000Y18125000D03*
D11*
%TO.P,J3,C1*%
%TO.N,GND*%
X73980000Y19385000D03*
D14*
X60820000Y19385000D03*
%TD*%
D13*
%TO.P,J4,*%
%TO.N,*%
X133680000Y17765000D03*
D12*
X121780000Y18125000D03*
D11*
%TO.P,J4,C1*%
%TO.N,GND*%
X133980000Y19385000D03*
X120820000Y19385000D03*
%TD*%
%TO.P,J5,C1*%
%TO.N,GND*%
X100820000Y19385000D03*
X113980000Y19385000D03*
D12*
%TO.P,J5,*%
%TO.N,*%
X101780000Y18125000D03*
D13*
X113680000Y17765000D03*
%TD*%
D15*
%TO.P,J6,A38*%
%TO.N,GND*%
X66090000Y7095000D03*
%TO.P,J6,A41*%
X69090000Y5095000D03*
%TO.P,J6,A45*%
X73090000Y5095000D03*
%TO.P,J6,A44*%
%TO.N,/CPU0_RX6-*%
X72090000Y7095000D03*
%TO.P,J6,A43*%
%TO.N,/CPU0_RX6+*%
X71090000Y5095000D03*
%TO.P,J6,A42*%
%TO.N,GND*%
X70090000Y7095000D03*
%TO.P,J6,A40*%
%TO.N,/CPU0_RX5-*%
X68090000Y7095000D03*
%TO.P,J6,A39*%
%TO.N,/CPU0_RX5+*%
X67090000Y5095000D03*
%TO.P,J6,B32*%
%TO.N,GND*%
X60090000Y595000D03*
%TO.P,J6,B38*%
%TO.N,/CPU0_TX5-*%
X66090000Y595000D03*
%TO.P,J6,B12*%
%TO.N,/LAN_SMB_ALERT_N*%
X40090000Y595000D03*
%TO.P,J6,B11*%
%TO.N,IRQ_LVC_WAKE_N*%
X37090000Y2595000D03*
%TO.P,J6,B26*%
%TO.N,GND*%
X54090000Y595000D03*
%TO.P,J6,B20*%
%TO.N,/CPU0_TX1-*%
X48090000Y595000D03*
%TO.P,J6,B14*%
%TO.N,/CPU0_TX0+*%
X42090000Y595000D03*
%TO.P,J6,B16*%
%TO.N,GND*%
X44090000Y595000D03*
%TO.P,J6,B1*%
%TO.N,+12V*%
X27090000Y2595000D03*
%TO.P,J6,B18*%
%TO.N,GND*%
X46090000Y595000D03*
%TO.P,J6,B24*%
%TO.N,/CPU0_TX2-*%
X52090000Y595000D03*
%TO.P,J6,B21*%
%TO.N,GND*%
X49090000Y2595000D03*
%TO.P,J6,B3*%
%TO.N,+12V*%
X29090000Y2595000D03*
%TO.P,J6,B9*%
%TO.N,Net-(J6-PadB9)*%
X35090000Y2595000D03*
%TO.P,J6,B4*%
%TO.N,GND*%
X30090000Y595000D03*
%TO.P,J6,B37*%
%TO.N,/CPU0_TX5+*%
X65090000Y2595000D03*
%TO.P,J6,B35*%
%TO.N,GND*%
X63090000Y2595000D03*
%TO.P,J6,B33*%
%TO.N,/CPU0_TX4+*%
X61090000Y2595000D03*
%TO.P,J6,B27*%
%TO.N,/CPU0_TX3+*%
X55090000Y2595000D03*
%TO.P,J6,B5*%
%TO.N,PCIe_SMB_CLK*%
X31090000Y2595000D03*
%TO.P,J6,B19*%
%TO.N,/CPU0_TX1+*%
X47090000Y2595000D03*
%TO.P,J6,B25*%
%TO.N,GND*%
X53090000Y2595000D03*
%TO.P,J6,B15*%
%TO.N,/CPU0_TX0-*%
X43090000Y2595000D03*
%TO.P,J6,B10*%
%TO.N,+3.3Vaux*%
X36090000Y595000D03*
%TO.P,J6,B36*%
%TO.N,GND*%
X64090000Y595000D03*
%TO.P,J6,B8*%
%TO.N,+3V3*%
X34090000Y595000D03*
%TO.P,J6,B23*%
%TO.N,/CPU0_TX2+*%
X51090000Y2595000D03*
%TO.P,J6,B22*%
%TO.N,GND*%
X50090000Y595000D03*
%TO.P,J6,B6*%
%TO.N,PCIe_SMB_DATA*%
X32090000Y595000D03*
%TO.P,J6,B17*%
%TO.N,/PCIE_SLOT0_PRSNT_x4*%
X45090000Y2595000D03*
%TO.P,J6,B2*%
%TO.N,+12V*%
X28090000Y595000D03*
%TO.P,J6,B13*%
%TO.N,GND*%
X41090000Y2595000D03*
%TO.P,J6,B34*%
%TO.N,/CPU0_TX4-*%
X62090000Y595000D03*
%TO.P,J6,B29*%
%TO.N,GND*%
X57090000Y2595000D03*
%TO.P,J6,B31*%
%TO.N,/PCIE_SLOT0_PRSNT_x4*%
X59090000Y2595000D03*
%TO.P,J6,B30*%
%TO.N,Net-(J6-PadB30)*%
X58090000Y595000D03*
%TO.P,J6,B28*%
%TO.N,/CPU0_TX3-*%
X56090000Y595000D03*
%TO.P,J6,B7*%
%TO.N,GND*%
X33090000Y2595000D03*
%TO.P,J6,A14*%
%TO.N,CLK100_SLOT1-*%
X42090000Y7095000D03*
%TO.P,J6,A13*%
%TO.N,CLK100_SLOT1+*%
X41090000Y5095000D03*
%TO.P,J6,A15*%
%TO.N,GND*%
X43090000Y5095000D03*
%TO.P,J6,A24*%
X52090000Y7095000D03*
%TO.P,J6,A29*%
%TO.N,/CPU0_RX3+*%
X57090000Y5095000D03*
%TO.P,J6,A27*%
%TO.N,GND*%
X55090000Y5095000D03*
%TO.P,J6,A28*%
X56090000Y7095000D03*
%TO.P,J6,A26*%
%TO.N,/CPU0_RX2-*%
X54090000Y7095000D03*
%TO.P,J6,A23*%
%TO.N,GND*%
X51090000Y5095000D03*
%TO.P,J6,A25*%
%TO.N,/CPU0_RX2+*%
X53090000Y5095000D03*
%TO.P,J6,A22*%
%TO.N,/CPU0_RX1-*%
X50090000Y7095000D03*
%TO.P,J6,B47*%
%TO.N,GND*%
X75090000Y2595000D03*
%TO.P,J6,B46*%
%TO.N,/CPU0_TX7-*%
X74090000Y595000D03*
%TO.P,J6,B45*%
%TO.N,/CPU0_TX7+*%
X73090000Y2595000D03*
%TO.P,J6,B49*%
%TO.N,GND*%
X77090000Y2595000D03*
%TO.P,J6,B42*%
%TO.N,/CPU0_TX6-*%
X70090000Y595000D03*
%TO.P,J6,B40*%
%TO.N,GND*%
X68090000Y595000D03*
%TO.P,J6,B43*%
X71090000Y2595000D03*
%TO.P,J6,B41*%
%TO.N,/CPU0_TX6+*%
X69090000Y2595000D03*
%TO.P,J6,B48*%
%TO.N,/PCIE_SLOT0_PRSNT_x8*%
X76090000Y595000D03*
%TO.P,J6,B44*%
%TO.N,GND*%
X72090000Y595000D03*
%TO.P,J6,B39*%
X67090000Y2595000D03*
%TO.P,J6,A31*%
X59090000Y5095000D03*
%TO.P,J6,A35*%
%TO.N,/CPU0_RX4+*%
X63090000Y5095000D03*
%TO.P,J6,A34*%
%TO.N,GND*%
X62090000Y7095000D03*
%TO.P,J6,A33*%
%TO.N,/LAN_SMB_DAT*%
X61090000Y5095000D03*
%TO.P,J6,A37*%
%TO.N,GND*%
X65090000Y5095000D03*
%TO.P,J6,A32*%
%TO.N,/LAN_SMB_CLK*%
X60090000Y7095000D03*
%TO.P,J6,A30*%
%TO.N,/CPU0_RX3-*%
X58090000Y7095000D03*
%TO.P,J6,A36*%
%TO.N,/CPU0_RX4-*%
X64090000Y7095000D03*
%TO.P,J6,A21*%
%TO.N,/CPU0_RX1+*%
X49090000Y5095000D03*
%TO.P,J6,A20*%
%TO.N,GND*%
X48090000Y7095000D03*
%TO.P,J6,A19*%
%TO.N,Net-(J6-PadA19)*%
X47090000Y5095000D03*
%TO.P,J6,A7*%
%TO.N,Net-(J6-PadA7)*%
X33090000Y5095000D03*
%TO.P,J6,A8*%
%TO.N,Net-(J6-PadA8)*%
X34090000Y7095000D03*
%TO.P,J6,A5*%
%TO.N,Net-(J6-PadA5)*%
X31090000Y5095000D03*
%TO.P,J6,A6*%
%TO.N,Net-(J6-PadA6)*%
X32090000Y7095000D03*
%TO.P,J6,A9*%
%TO.N,+3V3*%
X35090000Y5095000D03*
%TO.P,J6,A12*%
%TO.N,GND*%
X40090000Y7095000D03*
%TO.P,J6,A11*%
%TO.N,RST_PERST0_N*%
X37090000Y5095000D03*
%TO.P,J6,A10*%
%TO.N,+3V3*%
X36090000Y7095000D03*
D16*
%TO.P,J6,A1*%
%TO.N,/PCIE_SLOT_PRSNT#1*%
X27090000Y5095000D03*
D15*
%TO.P,J6,A2*%
%TO.N,+12V*%
X28090000Y7095000D03*
%TO.P,J6,A4*%
%TO.N,GND*%
X30090000Y7095000D03*
%TO.P,J6,A3*%
%TO.N,+12V*%
X29090000Y5095000D03*
D17*
%TO.P,J6,*%
%TO.N,*%
X78890000Y3845000D03*
X38740000Y3845000D03*
D15*
%TO.P,J6,A49*%
%TO.N,GND*%
X77090000Y5095000D03*
%TO.P,J6,A47*%
%TO.N,/CPU0_RX7+*%
X75090000Y5095000D03*
%TO.P,J6,A46*%
%TO.N,GND*%
X74090000Y7095000D03*
%TO.P,J6,A48*%
%TO.N,/CPU0_RX7-*%
X76090000Y7095000D03*
%TO.P,J6,A16*%
%TO.N,/CPU0_RX0+*%
X44090000Y7095000D03*
%TO.P,J6,A18*%
%TO.N,GND*%
X46090000Y7095000D03*
%TO.P,J6,A17*%
%TO.N,/CPU0_RX0-*%
X45090000Y5095000D03*
%TD*%
D18*
%TO.P,H1,1*%
%TO.N,GND*%
X0Y0D03*
D19*
X2400000Y0D03*
X-1697056Y-1697056D03*
X1697056Y-1697056D03*
X0Y-2400000D03*
X-2400000Y0D03*
X1697056Y1697056D03*
X0Y2400000D03*
X-1697056Y1697056D03*
%TD*%
%TO.P,H2,1*%
%TO.N,GND*%
X132202944Y1697056D03*
X133900000Y2400000D03*
X135597056Y1697056D03*
X131500000Y0D03*
X133900000Y-2400000D03*
X135597056Y-1697056D03*
X132202944Y-1697056D03*
X136300000Y0D03*
D18*
X133900000Y0D03*
%TD*%
D20*
%TO.N,+12V*%
X75450000Y25340000D03*
X59850000Y25840000D03*
X95450000Y25590000D03*
X115450000Y25590000D03*
X135450000Y25840000D03*
X79850000Y25340000D03*
X99850000Y25590000D03*
X119850000Y25590000D03*
X144600000Y22565000D03*
D21*
X18050000Y-31485000D03*
X18050000Y-32485000D03*
X18050000Y-33485000D03*
X18050000Y-34485000D03*
X18050000Y-35485000D03*
X18050000Y-36485000D03*
X18050000Y-37485000D03*
X18050000Y-38485000D03*
X18050000Y-39485000D03*
X18050000Y-40485000D03*
X30150000Y26965000D03*
X31150000Y26965000D03*
X32150000Y26965000D03*
X33150000Y26965000D03*
X34150000Y26965000D03*
X35150000Y26965000D03*
X36150000Y26965000D03*
X37150000Y26965000D03*
X38150000Y26965000D03*
X39150000Y26965000D03*
X30150000Y25965000D03*
X31150000Y25965000D03*
X32150000Y25965000D03*
X33150000Y25965000D03*
X34150000Y25965000D03*
X35150000Y25965000D03*
X36150000Y25965000D03*
X37150000Y25965000D03*
X38150000Y25965000D03*
X39150000Y25965000D03*
X30150000Y24965000D03*
X31150000Y24965000D03*
X32150000Y24965000D03*
X33150000Y24965000D03*
X34150000Y24965000D03*
X35150000Y24965000D03*
X36150000Y24965000D03*
X37150000Y24965000D03*
X38150000Y24965000D03*
X39150000Y24965000D03*
X30150000Y23965000D03*
X31150000Y23965000D03*
X32150000Y23965000D03*
X33150000Y23965000D03*
X34150000Y23965000D03*
X35150000Y23965000D03*
X36150000Y23965000D03*
X37150000Y23965000D03*
X38150000Y23965000D03*
X39150000Y23965000D03*
X19750000Y1015000D03*
X21250000Y1015000D03*
X22750000Y1015000D03*
X19750000Y-485000D03*
X21250000Y-485000D03*
X22750000Y-485000D03*
X19750000Y-1985000D03*
X21250000Y-1985000D03*
X22750000Y-1985000D03*
X19750000Y-3485000D03*
X21250000Y-3485000D03*
X22750000Y-3485000D03*
X19750000Y-4985000D03*
X21250000Y-4985000D03*
X22750000Y-4985000D03*
X24850000Y-635000D03*
X26350000Y-635000D03*
X27850000Y-635000D03*
X29350000Y-635000D03*
D20*
%TO.N,GND*%
X13225000Y13915000D03*
D22*
X130200000Y-43085000D03*
X128200000Y-43085000D03*
X126200000Y-43085000D03*
X124200000Y-43085000D03*
X122200000Y-43085000D03*
X120200000Y-43085000D03*
X118200000Y-43085000D03*
X116200000Y-43085000D03*
X114200000Y-43085000D03*
X112200000Y-43085000D03*
X110200000Y-43085000D03*
X108200000Y-43085000D03*
X106200000Y-43085000D03*
X104200000Y-43085000D03*
X102200000Y-43085000D03*
X99700000Y-43085000D03*
X97200000Y-43085000D03*
X95200000Y-43085000D03*
X93200000Y-43085000D03*
X91200000Y-43085000D03*
X89200000Y-43085000D03*
X87200000Y-43085000D03*
X85200000Y-43085000D03*
X83200000Y-43085000D03*
X81200000Y-43085000D03*
X79200000Y-43085000D03*
X77200000Y-43085000D03*
X75200000Y-43085000D03*
X73200000Y-43085000D03*
X71200000Y-43085000D03*
X69200000Y-43085000D03*
X64200000Y-43085000D03*
X62200000Y-43085000D03*
X60200000Y-43085000D03*
X58200000Y-43085000D03*
X56200000Y-43085000D03*
X54200000Y-43085000D03*
X52200000Y-43085000D03*
X35700000Y-43085000D03*
X33200000Y-43085000D03*
X30450000Y-43085000D03*
X49200000Y-43085000D03*
X46200000Y-43085000D03*
X44200000Y-43085000D03*
X42200000Y-43085000D03*
X40200000Y-43085000D03*
X38200000Y-43085000D03*
D20*
X63400000Y23570000D03*
X69175000Y12195000D03*
X65275000Y23570000D03*
X70700000Y23495000D03*
X68900000Y23495000D03*
D23*
X70150000Y21270000D03*
X68650000Y21270000D03*
X60875000Y23495000D03*
X69160000Y16670000D03*
X70660000Y16670000D03*
X64150000Y21270000D03*
X65650000Y21270000D03*
X67150000Y21270000D03*
X67660000Y16670000D03*
X64660000Y16670000D03*
X66160000Y16670000D03*
X80875000Y23495000D03*
X100875000Y23495000D03*
X120875000Y23495000D03*
X89160000Y16670000D03*
X109160000Y16670000D03*
X129160000Y16670000D03*
X87660000Y16670000D03*
X107660000Y16670000D03*
X127660000Y16670000D03*
X84660000Y16670000D03*
X104660000Y16670000D03*
X124660000Y16670000D03*
X87150000Y21520000D03*
X107140000Y21520000D03*
X127140000Y21520000D03*
D22*
X82000000Y12820000D03*
X102000000Y13320000D03*
X122000000Y13320000D03*
D20*
X89050000Y15070000D03*
X109050000Y15070000D03*
X129050000Y15070000D03*
D23*
X90660000Y16670000D03*
X110660000Y16670000D03*
X130660000Y16670000D03*
X133425000Y23520000D03*
X86160000Y16670000D03*
X106160000Y16670000D03*
X126160000Y16670000D03*
D20*
X107750000Y15070000D03*
X127750000Y15070000D03*
X87750000Y15070000D03*
X67625000Y12195000D03*
D22*
X66700000Y-43085000D03*
X66800000Y-37035000D03*
X97250000Y-40235000D03*
X132075000Y-41660000D03*
X22600000Y-43335000D03*
X19600000Y-43335000D03*
X37950000Y-3835000D03*
X38100000Y-1035000D03*
D20*
X12500000Y7515000D03*
D22*
X61000000Y15065000D03*
D20*
X8025000Y12615000D03*
X8900000Y15765000D03*
X10850000Y16090000D03*
X8450000Y18890000D03*
X13050000Y18340000D03*
X15050000Y18015000D03*
X20775000Y12640000D03*
X16775000Y15315000D03*
X11500000Y15140000D03*
X10575000Y10890000D03*
X19400000Y6865000D03*
X17450000Y10640000D03*
X14225000Y13915000D03*
X15225000Y13915000D03*
X13225000Y12915000D03*
X14225000Y12915000D03*
X15225000Y12915000D03*
X13225000Y11915000D03*
X14225000Y11915000D03*
X15225000Y11915000D03*
D21*
X18300000Y16415000D03*
X18450000Y17415000D03*
X19450000Y17415000D03*
X9375000Y6415000D03*
X10375000Y6415000D03*
X11375000Y6415000D03*
D20*
X73100000Y25115000D03*
D22*
X113850000Y13415000D03*
X94050000Y13365000D03*
X74000000Y14365000D03*
X134600000Y13315000D03*
D20*
X83400000Y23570000D03*
X103400000Y23570000D03*
X123400000Y23570000D03*
X85275000Y23570000D03*
X105275000Y23570000D03*
X125275000Y23570000D03*
X90700000Y23495000D03*
X110700000Y23495000D03*
X130700000Y23495000D03*
X88900000Y23495000D03*
X108900000Y23495000D03*
X128900000Y23495000D03*
D23*
X90150000Y21270000D03*
X110150000Y21270000D03*
X130150000Y21270000D03*
X88650000Y21270000D03*
X108650000Y21270000D03*
X128650000Y21270000D03*
X84150000Y21270000D03*
X104150000Y21270000D03*
X124150000Y21270000D03*
X85650000Y21270000D03*
X105650000Y21270000D03*
X125650000Y21270000D03*
D20*
X112450000Y24615000D03*
X92400000Y24765000D03*
D21*
X26600000Y-4635000D03*
X27850000Y-4635000D03*
X29100000Y-4635000D03*
X26600000Y-5885000D03*
X27850000Y-5885000D03*
X29100000Y-5885000D03*
X26600000Y-7135000D03*
X27850000Y-7135000D03*
X29100000Y-7135000D03*
D20*
X3850000Y15565000D03*
X2050000Y15565000D03*
X3900000Y17615000D03*
X5700000Y17615000D03*
X24850000Y15165000D03*
X24850000Y13365000D03*
X24850000Y10165000D03*
X24850000Y11965000D03*
X22000000Y-18985000D03*
X20200000Y-18985000D03*
X67300000Y-35210000D03*
X69100000Y-35210000D03*
X48225000Y-35435000D03*
X50025000Y-35435000D03*
X69275000Y-36485000D03*
X71075000Y-36485000D03*
X71300000Y-35210000D03*
X75300000Y-35210000D03*
X79300000Y-35210000D03*
X83300000Y-35210000D03*
X87300000Y-35210000D03*
X91300000Y-35210000D03*
X95300000Y-35210000D03*
X73100000Y-35210000D03*
X77100000Y-35210000D03*
X81100000Y-35210000D03*
X85100000Y-35210000D03*
X89100000Y-35210000D03*
X93100000Y-35210000D03*
X97100000Y-35210000D03*
X73275000Y-36485000D03*
X77275000Y-36485000D03*
X81275000Y-36485000D03*
X85275000Y-36485000D03*
X89275000Y-36485000D03*
X93275000Y-36485000D03*
X97275000Y-36485000D03*
X75075000Y-36485000D03*
X79075000Y-36485000D03*
X83075000Y-36485000D03*
X87075000Y-36485000D03*
X91075000Y-36485000D03*
X95075000Y-36485000D03*
X99075000Y-36485000D03*
X100300000Y-35210000D03*
X102275000Y-36485000D03*
X102100000Y-35210000D03*
X104075000Y-36485000D03*
X108075000Y-36485000D03*
X112075000Y-36485000D03*
X116075000Y-36485000D03*
X120075000Y-36485000D03*
X124075000Y-36485000D03*
X128075000Y-36485000D03*
X106100000Y-35210000D03*
X110100000Y-35210000D03*
X114100000Y-35210000D03*
X118100000Y-35210000D03*
X122100000Y-35210000D03*
X126100000Y-35210000D03*
X104300000Y-35210000D03*
X108300000Y-35210000D03*
X112300000Y-35210000D03*
X116300000Y-35210000D03*
X120300000Y-35210000D03*
X124300000Y-35210000D03*
X106275000Y-36485000D03*
X110275000Y-36485000D03*
X114275000Y-36485000D03*
X118275000Y-36485000D03*
X122275000Y-36485000D03*
X126275000Y-36485000D03*
X130100000Y-35210000D03*
X128300000Y-35210000D03*
X132075000Y-29485000D03*
X130275000Y-29485000D03*
X14750000Y-21835000D03*
X9200000Y-18785000D03*
X3900000Y-13085000D03*
X11750000Y-13285000D03*
D21*
%TO.N,+3V3*%
X25100000Y-33185000D03*
X26100000Y-33185000D03*
X25100000Y-34185000D03*
X26100000Y-34185000D03*
X25100000Y-35185000D03*
X26100000Y-35185000D03*
X25100000Y-36185000D03*
X26100000Y-36185000D03*
X25100000Y-37185000D03*
X26100000Y-37185000D03*
X25100000Y-38185000D03*
X26100000Y-38185000D03*
X33950000Y-5585000D03*
X33950000Y-6585000D03*
X36400000Y-7835000D03*
X36400000Y-8835000D03*
X36400000Y-9835000D03*
X36400000Y-10835000D03*
X36400000Y-11835000D03*
X34200000Y-9935000D03*
X35200000Y-9935000D03*
X34200000Y-10935000D03*
X35200000Y-10935000D03*
X34200000Y-11935000D03*
X35200000Y-11935000D03*
X15575000Y16965000D03*
X14950000Y16215000D03*
X15950000Y16215000D03*
X11825000Y15840000D03*
X11325000Y9465000D03*
X12325000Y9465000D03*
D20*
X20125000Y9415000D03*
X73950000Y25340000D03*
X118700000Y25590000D03*
X93950000Y25590000D03*
X113950000Y25590000D03*
X133950000Y25840000D03*
D21*
X42750000Y27265000D03*
X43750000Y27265000D03*
X44750000Y27265000D03*
X45750000Y27265000D03*
X46750000Y27265000D03*
X47750000Y27265000D03*
X48750000Y27265000D03*
X49750000Y27265000D03*
X42750000Y26265000D03*
X43750000Y26265000D03*
X44750000Y26265000D03*
X45750000Y26265000D03*
X46750000Y26265000D03*
X47750000Y26265000D03*
X48750000Y26265000D03*
X49750000Y26265000D03*
X42750000Y25265000D03*
X43750000Y25265000D03*
X44750000Y25265000D03*
X45750000Y25265000D03*
X46750000Y25265000D03*
X47750000Y25265000D03*
X48750000Y25265000D03*
X49750000Y25265000D03*
D20*
X140200000Y24365000D03*
X58700000Y24315000D03*
X98700000Y25590000D03*
X78700000Y25340000D03*
D22*
X109300000Y26315000D03*
X129300000Y26415000D03*
X89300000Y26315000D03*
X69300000Y26315000D03*
%TO.N,+3.3Vaux*%
X27800000Y-31385000D03*
D21*
X750000Y-14735000D03*
X750000Y-15735000D03*
X750000Y-16735000D03*
X750000Y-17735000D03*
X2800000Y-21485000D03*
X3550000Y-20985000D03*
X7100000Y-22135000D03*
X8200000Y-22135000D03*
X16750000Y-15935000D03*
X16750000Y-16935000D03*
X16750000Y-17935000D03*
X16750000Y-18935000D03*
X12500000Y-19935000D03*
X12500000Y-20885000D03*
X11900000Y-21835000D03*
X13200000Y-13635000D03*
X14500000Y-13685000D03*
%TO.N,/SLOT0_CONFIG*%
X67000000Y-40335000D03*
%TO.N,/SLOT1_CONFIG*%
X99700000Y-39785000D03*
%TO.N,/LAN_SMB_CLK*%
X24600000Y-42735000D03*
X29750000Y-20785000D03*
%TO.N,/LAN_SMB_DAT*%
X23600000Y-41735000D03*
X28700000Y-19985000D03*
%TO.N,/PCIE_SLOT_PRSNT#1*%
X19300000Y3965000D03*
X21900000Y3965000D03*
%TO.N,/PCIE_SLOT0_PRSNT_x4*%
X35750000Y-37535000D03*
%TO.N,Net-(J3-PadA9)*%
X66350000Y15615000D03*
X59500000Y15015000D03*
%TO.N,Net-(J4-PadA9)*%
X126350000Y15615000D03*
X119900000Y15615000D03*
%TO.N,+3.3VP*%
X18800000Y12540000D03*
X17825000Y12590000D03*
X17675000Y14465000D03*
X18675000Y14465000D03*
X19800000Y15190000D03*
X13350000Y16390000D03*
X10600000Y14740000D03*
X9700000Y17640000D03*
X9700000Y16640000D03*
X10875000Y12640000D03*
X9875000Y12640000D03*
D20*
X17775000Y9415000D03*
D21*
%TO.N,Net-(J3-PadA10)*%
X66700000Y14565000D03*
X57550000Y14315000D03*
%TO.N,Net-(J4-PadA10)*%
X126700000Y14565000D03*
X117700000Y15565000D03*
D20*
%TO.N,/Oculink connector/Oculink_1_C_x4_TX0+*%
X83948800Y-35210000D03*
X84073800Y23570000D03*
%TO.N,/Oculink connector/Oculink_1_C_x4_TX1+*%
X87948800Y-35210000D03*
X84648800Y21720000D03*
%TO.N,/Oculink connector/Oculink_1_C_x4_TX2+*%
X91948800Y-35210000D03*
X89148800Y21720000D03*
%TO.N,/Oculink connector/Oculink_1_C_x4_TX3+*%
X95948800Y-35210000D03*
X89563800Y23495000D03*
%TO.N,/Oculink connector/Oculink_1_C_x4_TX0-*%
X84451200Y-35210000D03*
X84576200Y23570000D03*
%TO.N,/Oculink connector/Oculink_1_C_x4_TX1-*%
X88451200Y-35210000D03*
X85151200Y21720000D03*
%TO.N,/Oculink connector/Oculink_1_C_x4_TX2-*%
X92451200Y-35210000D03*
X89651200Y21720000D03*
%TO.N,/Oculink connector/Oculink_1_C_x4_TX3-*%
X96451200Y-35210000D03*
X90066200Y23495000D03*
%TO.N,/Oculink connector/Oculink_0_C_x4_TX0+*%
X64073800Y23570000D03*
X67948800Y-35210000D03*
%TO.N,/Oculink connector/Oculink_0_C_x4_TX1+*%
X71948800Y-35210000D03*
X64648800Y21720000D03*
%TO.N,/Oculink connector/Oculink_0_C_x4_TX2+*%
X75948800Y-35210000D03*
X69148800Y21720000D03*
%TO.N,/Oculink connector/Oculink_0_C_x4_TX3+*%
X79948800Y-35210000D03*
X69563800Y23495000D03*
%TO.N,/Oculink connector/Oculink_0_C_x4_TX0-*%
X64576200Y23570000D03*
X68451200Y-35210000D03*
%TO.N,/Oculink connector/Oculink_0_C_x4_TX1-*%
X72451200Y-35210000D03*
X65151200Y21720000D03*
%TO.N,/Oculink connector/Oculink_0_C_x4_TX2-*%
X76451200Y-35210000D03*
X69651200Y21720000D03*
%TO.N,/Oculink connector/Oculink_0_C_x4_TX3-*%
X80451200Y-35210000D03*
X70066200Y23495000D03*
%TO.N,/Oculink connector/Oculink_3_C_x4_TX0+*%
X124073800Y23570000D03*
X116948800Y-35210000D03*
%TO.N,/Oculink connector/Oculink_3_C_x4_TX1+*%
X124648800Y21720000D03*
X120948800Y-35210000D03*
%TO.N,/Oculink connector/Oculink_3_C_x4_TX2+*%
X129148800Y21720000D03*
X124948800Y-35210000D03*
%TO.N,/Oculink connector/Oculink_3_C_x4_TX3+*%
X129563800Y23495000D03*
X128948800Y-35210000D03*
%TO.N,/Oculink connector/Oculink_3_C_x4_TX0-*%
X124576200Y23570000D03*
X117451200Y-35210000D03*
%TO.N,/Oculink connector/Oculink_3_C_x4_TX1-*%
X125151200Y21720000D03*
X121451200Y-35210000D03*
%TO.N,/Oculink connector/Oculink_3_C_x4_TX2-*%
X129651200Y21720000D03*
X125451200Y-35210000D03*
%TO.N,/Oculink connector/Oculink_3_C_x4_TX3-*%
X130066200Y23495000D03*
X129451200Y-35210000D03*
%TO.N,/Oculink connector/Oculink_2_C_x4_TX0+*%
X104073800Y23570000D03*
X100948800Y-35210000D03*
%TO.N,/Oculink connector/Oculink_2_C_x4_TX1+*%
X104648800Y21720000D03*
X104948800Y-35210000D03*
%TO.N,/Oculink connector/Oculink_2_C_x4_TX2+*%
X109148800Y21720000D03*
X108948800Y-35210000D03*
%TO.N,/Oculink connector/Oculink_2_C_x4_TX3+*%
X109563800Y23495000D03*
X112948800Y-35210000D03*
%TO.N,/Oculink connector/Oculink_2_C_x4_TX0-*%
X104576200Y23570000D03*
X101451200Y-35210000D03*
%TO.N,/Oculink connector/Oculink_2_C_x4_TX1-*%
X105151200Y21720000D03*
X105451200Y-35210000D03*
%TO.N,/Oculink connector/Oculink_2_C_x4_TX2-*%
X109651200Y21720000D03*
X109451200Y-35210000D03*
%TO.N,/Oculink connector/Oculink_2_C_x4_TX3-*%
X110066200Y23495000D03*
X113451200Y-35210000D03*
D21*
%TO.N,/PCIE_SLOT0_PRSNT_x8*%
X48750000Y-40135000D03*
%TO.N,IRQ_LVC_WAKE_N*%
X38700000Y6515000D03*
%TO.N,Net-(J1-PadB115)*%
X132400000Y-40485000D03*
X31550000Y-20385000D03*
%TO.N,RST_PERST0_N*%
X67150000Y25015000D03*
X55500000Y20265000D03*
X87150000Y25165000D03*
X107150000Y25165000D03*
X127150000Y25165000D03*
D20*
%TO.N,CLK100_SLOT1+*%
X48873800Y-35435000D03*
%TO.N,CLK100_SLOT1-*%
X49376200Y-35435000D03*
%TO.N,Oculink_0_x4_RX0+*%
X69948800Y-36485000D03*
%TO.N,Oculink_0_x4_RX0-*%
X70451200Y-36485000D03*
%TO.N,Oculink_0_x4_RX1+*%
X73948800Y-36485000D03*
%TO.N,Oculink_0_x4_RX1-*%
X74451200Y-36485000D03*
%TO.N,Oculink_0_x4_RX2+*%
X77948800Y-36485000D03*
%TO.N,Oculink_0_x4_RX2-*%
X78451200Y-36485000D03*
%TO.N,Oculink_0_x4_RX3+*%
X81948800Y-36485000D03*
%TO.N,Oculink_0_x4_RX3-*%
X82451200Y-36485000D03*
%TO.N,Oculink_1_x4_RX0+*%
X85948800Y-36485000D03*
%TO.N,Oculink_1_x4_RX0-*%
X86451200Y-36485000D03*
%TO.N,Oculink_1_x4_RX1+*%
X89948800Y-36485000D03*
%TO.N,Oculink_1_x4_RX1-*%
X90451200Y-36485000D03*
%TO.N,Oculink_1_x4_RX2+*%
X93948800Y-36485000D03*
%TO.N,Oculink_1_x4_RX2-*%
X94451200Y-36485000D03*
%TO.N,Oculink_1_x4_RX3+*%
X97948800Y-36485000D03*
%TO.N,Oculink_1_x4_RX3-*%
X98451200Y-36485000D03*
%TO.N,Oculink_2_x4_RX0+*%
X102948800Y-36485000D03*
%TO.N,Oculink_2_x4_RX0-*%
X103451200Y-36485000D03*
%TO.N,Oculink_2_x4_RX1+*%
X106948800Y-36485000D03*
%TO.N,Oculink_2_x4_RX1-*%
X107451200Y-36485000D03*
%TO.N,Oculink_2_x4_RX2+*%
X110948800Y-36485000D03*
%TO.N,Oculink_2_x4_RX2-*%
X111451200Y-36485000D03*
%TO.N,Oculink_2_x4_RX3+*%
X114948800Y-36485000D03*
%TO.N,Oculink_2_x4_RX3-*%
X115451200Y-36485000D03*
%TO.N,Oculink_3_x4_RX0+*%
X118948800Y-36485000D03*
%TO.N,Oculink_3_x4_RX0-*%
X119451200Y-36485000D03*
%TO.N,Oculink_3_x4_RX1+*%
X122948800Y-36485000D03*
%TO.N,Oculink_3_x4_RX1-*%
X123451200Y-36485000D03*
%TO.N,Oculink_3_x4_RX2+*%
X126948800Y-36485000D03*
%TO.N,Oculink_3_x4_RX2-*%
X127451200Y-36485000D03*
%TO.N,Oculink_3_x4_RX3+*%
X130948800Y-29485000D03*
%TO.N,Oculink_3_x4_RX3-*%
X131451200Y-29485000D03*
D21*
%TO.N,Net-(J2-PadA9)*%
X86350000Y14615000D03*
X79450000Y14615000D03*
%TO.N,Net-(J2-PadA10)*%
X86700000Y13565000D03*
X77600000Y14565000D03*
D20*
%TO.N,Oculink_1_CLK100+*%
X88148800Y15620000D03*
X3201200Y15565000D03*
%TO.N,Oculink_1_CLK100-*%
X88651200Y15620000D03*
X2698800Y15565000D03*
D21*
%TO.N,Oculink_1_SMB_CLK*%
X86150000Y23070000D03*
X7500000Y-8685000D03*
%TO.N,Oculink_1_SMB_DATA*%
X86950000Y22615000D03*
X8600000Y-10035000D03*
%TO.N,Oculink_0_SMB_DATA*%
X66925000Y22095000D03*
X6150000Y-8685000D03*
%TO.N,Oculink_0_SMB_CLK*%
X66150000Y22570000D03*
X4850000Y-10685000D03*
D20*
%TO.N,Oculink_0_CLK100-*%
X68651200Y12620000D03*
X4548800Y17615000D03*
%TO.N,Oculink_0_CLK100+*%
X68148800Y12620000D03*
X5051200Y17615000D03*
D21*
%TO.N,Oculink_3_SMB_DATA*%
X126925000Y22595000D03*
X1750000Y-21385000D03*
%TO.N,Oculink_3_SMB_CLK*%
X126150000Y23070000D03*
X2000000Y-18985000D03*
D20*
%TO.N,Oculink_3_CLK100-*%
X128651200Y15620000D03*
X24850000Y10826300D03*
%TO.N,Oculink_3_CLK100+*%
X128148800Y15620000D03*
X24850000Y11328700D03*
D21*
%TO.N,Net-(J5-PadA9)*%
X106350000Y15615000D03*
X99900000Y15615000D03*
%TO.N,Net-(J5-PadA10)*%
X106700000Y14565000D03*
X97800000Y15515000D03*
D20*
%TO.N,Oculink_2_CLK100+*%
X108148800Y15620000D03*
X24850000Y14528700D03*
%TO.N,Oculink_2_CLK100-*%
X108651200Y15620000D03*
X24850000Y14026300D03*
D21*
%TO.N,Oculink_2_SMB_CLK*%
X106150000Y23070000D03*
X7900000Y-23385000D03*
%TO.N,Oculink_2_SMB_DATA*%
X106950000Y22615000D03*
X4600000Y-24535000D03*
%TO.N,PCIe_SMB_CLK*%
X9400000Y-11435000D03*
%TO.N,PCIe_SMB_DATA*%
X9750000Y-12435000D03*
D20*
%TO.N,CLK100_SLOT0+*%
X20848800Y-18985000D03*
%TO.N,CLK100_SLOT0-*%
X21351200Y-18985000D03*
%TD*%
D24*
%TO.N,GND*%
X22600000Y-46085000D02*
X22600000Y-43335000D01*
X19600000Y-43335000D02*
X19600000Y-46085000D01*
X129700000Y-43585000D02*
X130200000Y-43085000D01*
X129700000Y-46085000D02*
X129700000Y-43585000D01*
X128700000Y-43585000D02*
X128200000Y-43085000D01*
X128700000Y-46085000D02*
X128700000Y-43585000D01*
X125700000Y-43585000D02*
X126200000Y-43085000D01*
X125700000Y-46085000D02*
X125700000Y-43585000D01*
X124700000Y-43585000D02*
X124200000Y-43085000D01*
X124700000Y-46085000D02*
X124700000Y-43585000D01*
X121700000Y-43585000D02*
X122200000Y-43085000D01*
X121700000Y-46085000D02*
X121700000Y-43585000D01*
X120700000Y-43585000D02*
X120200000Y-43085000D01*
X120700000Y-46085000D02*
X120700000Y-43585000D01*
X117700000Y-43585000D02*
X118200000Y-43085000D01*
X117700000Y-46085000D02*
X117700000Y-43585000D01*
X116700000Y-43585000D02*
X116200000Y-43085000D01*
X116700000Y-46085000D02*
X116700000Y-43585000D01*
X113700000Y-43585000D02*
X114200000Y-43085000D01*
X113700000Y-46085000D02*
X113700000Y-43585000D01*
X112700000Y-43585000D02*
X112200000Y-43085000D01*
X112700000Y-46085000D02*
X112700000Y-43585000D01*
X109700000Y-43585000D02*
X110200000Y-43085000D01*
X109700000Y-46085000D02*
X109700000Y-43585000D01*
X108700000Y-43585000D02*
X108200000Y-43085000D01*
X108700000Y-46085000D02*
X108700000Y-43585000D01*
X105700000Y-43585000D02*
X106200000Y-43085000D01*
X105700000Y-46085000D02*
X105700000Y-43585000D01*
X104700000Y-43585000D02*
X104200000Y-43085000D01*
X104700000Y-46085000D02*
X104700000Y-43585000D01*
X101700000Y-43585000D02*
X102200000Y-43085000D01*
X101700000Y-46085000D02*
X101700000Y-43585000D01*
X99700000Y-46085000D02*
X99700000Y-43085000D01*
X96700000Y-43585000D02*
X97200000Y-43085000D01*
X96700000Y-46085000D02*
X96700000Y-43585000D01*
X95700000Y-43585000D02*
X95200000Y-43085000D01*
X95700000Y-46085000D02*
X95700000Y-43585000D01*
X92700000Y-43585000D02*
X93200000Y-43085000D01*
X92700000Y-46085000D02*
X92700000Y-43585000D01*
X91700000Y-43585000D02*
X91200000Y-43085000D01*
X91700000Y-46085000D02*
X91700000Y-43585000D01*
X76700000Y-43585000D02*
X77200000Y-43085000D01*
X76700000Y-46085000D02*
X76700000Y-43585000D01*
X79700000Y-43585000D02*
X79200000Y-43085000D01*
X79700000Y-46085000D02*
X79700000Y-43585000D01*
X80700000Y-43585000D02*
X81200000Y-43085000D01*
X80700000Y-46085000D02*
X80700000Y-43585000D01*
X83700000Y-43585000D02*
X83200000Y-43085000D01*
X83700000Y-46085000D02*
X83700000Y-43585000D01*
X84700000Y-43585000D02*
X85200000Y-43085000D01*
X84700000Y-46085000D02*
X84700000Y-43585000D01*
X87700000Y-43585000D02*
X87200000Y-43085000D01*
X87700000Y-46085000D02*
X87700000Y-43585000D01*
X88700000Y-43585000D02*
X89200000Y-43085000D01*
X88700000Y-46085000D02*
X88700000Y-43585000D01*
X75700000Y-43585000D02*
X75200000Y-43085000D01*
X75700000Y-46085000D02*
X75700000Y-43585000D01*
X72700000Y-43585000D02*
X73200000Y-43085000D01*
X72700000Y-46085000D02*
X72700000Y-43585000D01*
X71700000Y-43585000D02*
X71200000Y-43085000D01*
X71700000Y-46085000D02*
X71700000Y-43585000D01*
X68700000Y-43585000D02*
X69200000Y-43085000D01*
X68700000Y-46085000D02*
X68700000Y-43585000D01*
X66700000Y-46085000D02*
X66700000Y-43085000D01*
X29700000Y-46085000D02*
X29700000Y-43585000D01*
X32700000Y-43585000D02*
X33200000Y-43085000D01*
X32700000Y-46085000D02*
X32700000Y-43585000D01*
X35700000Y-46085000D02*
X35700000Y-43085000D01*
X51700000Y-43585000D02*
X52200000Y-43085000D01*
X51700000Y-46085000D02*
X51700000Y-43585000D01*
X54700000Y-43585000D02*
X54200000Y-43085000D01*
X54700000Y-46085000D02*
X54700000Y-43585000D01*
X55700000Y-43585000D02*
X56200000Y-43085000D01*
X55700000Y-46085000D02*
X55700000Y-43585000D01*
X58700000Y-43585000D02*
X58200000Y-43085000D01*
X58700000Y-46085000D02*
X58700000Y-43585000D01*
X59700000Y-43585000D02*
X60200000Y-43085000D01*
X59700000Y-46085000D02*
X59700000Y-43585000D01*
X62700000Y-43585000D02*
X62200000Y-43085000D01*
X62700000Y-46085000D02*
X62700000Y-43585000D01*
X63700000Y-43585000D02*
X64200000Y-43085000D01*
X63700000Y-46085000D02*
X63700000Y-43585000D01*
X48700000Y-43585000D02*
X49200000Y-43085000D01*
X48700000Y-46085000D02*
X48700000Y-43585000D01*
X45700000Y-43585000D02*
X46200000Y-43085000D01*
X45700000Y-46085000D02*
X45700000Y-43585000D01*
X44700000Y-43585000D02*
X44200000Y-43085000D01*
X44700000Y-46085000D02*
X44700000Y-43585000D01*
X41700000Y-43585000D02*
X42200000Y-43085000D01*
X41700000Y-46085000D02*
X41700000Y-43585000D01*
X40700000Y-43585000D02*
X40200000Y-43085000D01*
X40700000Y-46085000D02*
X40700000Y-43585000D01*
X37700000Y-43585000D02*
X38200000Y-43085000D01*
X37700000Y-46085000D02*
X37700000Y-43585000D01*
X30025736Y-43085000D02*
X29700000Y-43410736D01*
X29700000Y-43410736D02*
X29700000Y-43585000D01*
X30450000Y-43085000D02*
X30025736Y-43085000D01*
X132700000Y-46085000D02*
X132700000Y-42285000D01*
X132700000Y-42285000D02*
X132200000Y-41785000D01*
X132075000Y-41660000D02*
X132200000Y-41785000D01*
D25*
%TO.N,/SLOT0_CONFIG*%
X67700000Y-43235000D02*
X67700000Y-46085000D01*
X67700000Y-43235000D02*
X67700000Y-40485000D01*
X67700000Y-40485000D02*
X67550000Y-40335000D01*
X67550000Y-40335000D02*
X67000000Y-40335000D01*
%TO.N,/SLOT1_CONFIG*%
X100700000Y-43785000D02*
X100700000Y-46085000D01*
X100700000Y-41231447D02*
X100700000Y-43785000D01*
X100700000Y-41231447D02*
X100700000Y-40535000D01*
X100700000Y-40535000D02*
X99950000Y-39785000D01*
X99950000Y-39785000D02*
X99700000Y-39785000D01*
%TO.N,/LAN_SMB_DAT*%
X23600000Y-46085000D02*
X23600000Y-42710000D01*
X23600000Y-42585000D02*
X23600000Y-46085000D01*
X23600000Y-42585000D02*
X23600000Y-41735000D01*
%TO.N,/PCIE_SLOT_PRSNT#1*%
X16600000Y-46085000D02*
X16600000Y-42335000D01*
X16600000Y-42335000D02*
X16600000Y-32235000D01*
X16600000Y-32235000D02*
X10000000Y-25635000D01*
X10000000Y-25635000D02*
X10000000Y-14435000D01*
X7500000Y-11935000D02*
X7500000Y-9835000D01*
X7500000Y-9835000D02*
X9650000Y-7685000D01*
X9650000Y-7685000D02*
X9650000Y1815000D01*
X9650000Y1815000D02*
X11800000Y3965000D01*
X19300000Y3965000D02*
X11800000Y3965000D01*
X7500000Y-11935000D02*
X10000000Y-14435000D01*
D26*
%TO.N,/CPU0_RX0+*%
X44090000Y6317183D02*
X44090000Y7095000D01*
X43947600Y2001872D02*
X43947600Y6174783D01*
X44922600Y1026872D02*
X43947600Y2001872D01*
X43947600Y6174783D02*
X44090000Y6317183D01*
X33700000Y-46085000D02*
X33700000Y-44385000D01*
X33700000Y-44385000D02*
X34047600Y-44037400D01*
X34047600Y-44037400D02*
X34047600Y-23971872D01*
X34047600Y-23971872D02*
X44922600Y-13096872D01*
X44922600Y-13096872D02*
X44922600Y1026872D01*
%TO.N,/CPU0_RX0-*%
X45090000Y5550000D02*
X45090000Y5095000D01*
X44500000Y5790000D02*
X44850000Y5790000D01*
X44252400Y2128128D02*
X44252400Y5542400D01*
X45227400Y1153128D02*
X44252400Y2128128D01*
X44850000Y5790000D02*
X45090000Y5550000D01*
X44252400Y5542400D02*
X44500000Y5790000D01*
X34700000Y-44385000D02*
X34352400Y-44037400D01*
X34700000Y-46085000D02*
X34700000Y-44385000D01*
X34352400Y-44037400D02*
X34352400Y-24098128D01*
X45227400Y-13223128D02*
X45227400Y1153128D01*
X34352400Y-24098128D02*
X45227400Y-13223128D01*
%TO.N,/CPU0_RX1+*%
X49250000Y5840000D02*
X49090000Y5680000D01*
X49922600Y2153128D02*
X49922600Y5542400D01*
X48947600Y1178128D02*
X49922600Y2153128D01*
X49090000Y5680000D02*
X49090000Y5095000D01*
X49922600Y5542400D02*
X49625000Y5840000D01*
X49625000Y5840000D02*
X49250000Y5840000D01*
X38700000Y-46085000D02*
X38700000Y-44385000D01*
X38700000Y-44385000D02*
X39047600Y-44037400D01*
X39047600Y-44037400D02*
X39047600Y-21871872D01*
X39047600Y-21871872D02*
X48947600Y-11971872D01*
X48947600Y-11971872D02*
X48947600Y1178128D01*
%TO.N,/CPU0_RX1-*%
X50090000Y6029800D02*
X50090000Y7095000D01*
X49252400Y1051872D02*
X50227400Y2026872D01*
X50227400Y5892400D02*
X50090000Y6029800D01*
X50227400Y2026872D02*
X50227400Y5892400D01*
X39700000Y-44385000D02*
X39352400Y-44037400D01*
X39700000Y-46085000D02*
X39700000Y-44385000D01*
X39352400Y-44037400D02*
X39352400Y-21998128D01*
X49252400Y-12098128D02*
X49252400Y1051872D01*
X39352400Y-21998128D02*
X49252400Y-12098128D01*
%TO.N,/CPU0_RX2+*%
X53625000Y5840000D02*
X53922600Y5542400D01*
X53090000Y5095000D02*
X53090000Y5680000D01*
X53090000Y5680000D02*
X53250000Y5840000D01*
X53922600Y5542400D02*
X53922600Y2153128D01*
X53250000Y5840000D02*
X53625000Y5840000D01*
X53922600Y2153128D02*
X52947600Y1178128D01*
X42700000Y-46085000D02*
X42700000Y-44385000D01*
X42700000Y-44385000D02*
X43047600Y-44037400D01*
X43047600Y-44037400D02*
X43047600Y-21071872D01*
X43047600Y-21071872D02*
X52947600Y-11171872D01*
X52947600Y-11171872D02*
X52947600Y1178128D01*
%TO.N,/CPU0_RX2-*%
X54090000Y6029800D02*
X54090000Y7095000D01*
X53252400Y1051872D02*
X54227400Y2026872D01*
X54227400Y5892400D02*
X54090000Y6029800D01*
X54227400Y2026872D02*
X54227400Y5892400D01*
X43700000Y-44385000D02*
X43352400Y-44037400D01*
X43700000Y-46085000D02*
X43700000Y-44385000D01*
X43352400Y-44037400D02*
X43352400Y-21198128D01*
X53252400Y-11298128D02*
X53252400Y1051872D01*
X43352400Y-21198128D02*
X53252400Y-11298128D01*
%TO.N,/CPU0_RX3+*%
X57625000Y5840000D02*
X57922600Y5542400D01*
X57090000Y5095000D02*
X57090000Y5680000D01*
X57090000Y5680000D02*
X57250000Y5840000D01*
X57922600Y5542400D02*
X57922600Y2153128D01*
X57250000Y5840000D02*
X57625000Y5840000D01*
X57922600Y2153128D02*
X56947600Y1178128D01*
X46700000Y-46085000D02*
X46700000Y-44385000D01*
X46700000Y-44385000D02*
X47047600Y-44037400D01*
X47047600Y-44037400D02*
X47047600Y-19871872D01*
X47047600Y-19871872D02*
X56947600Y-9971872D01*
X56947600Y-9971872D02*
X56947600Y1178128D01*
%TO.N,/CPU0_RX3-*%
X58090000Y6029800D02*
X58090000Y7095000D01*
X57252400Y1051872D02*
X58227400Y2026872D01*
X58227400Y5892400D02*
X58090000Y6029800D01*
X58227400Y2026872D02*
X58227400Y5892400D01*
X47700000Y-46085000D02*
X47700000Y-44385000D01*
X47700000Y-44385000D02*
X47352400Y-44037400D01*
X47352400Y-44037400D02*
X47352400Y-19998128D01*
X57252400Y-10098128D02*
X57252400Y1051872D01*
X47352400Y-19998128D02*
X57252400Y-10098128D01*
%TO.N,/CPU0_RX4+*%
X63625000Y5840000D02*
X63922600Y5542400D01*
X63090000Y5095000D02*
X63090000Y5680000D01*
X63090000Y5680000D02*
X63250000Y5840000D01*
X63922600Y5542400D02*
X63922600Y2153128D01*
X63250000Y5840000D02*
X63625000Y5840000D01*
X63922600Y2153128D02*
X62947600Y1178128D01*
X52700000Y-46085000D02*
X52700000Y-44385000D01*
X52700000Y-44385000D02*
X53047600Y-44037400D01*
X53047600Y-44037400D02*
X53047600Y-16346872D01*
X53047600Y-16346872D02*
X62947600Y-6446872D01*
X62947600Y-6446872D02*
X62947600Y1178128D01*
%TO.N,/CPU0_RX4-*%
X64090000Y6029800D02*
X64090000Y7095000D01*
X63252400Y1051872D02*
X64227400Y2026872D01*
X64227400Y5892400D02*
X64090000Y6029800D01*
X64227400Y2026872D02*
X64227400Y5892400D01*
X53700000Y-44385000D02*
X53352400Y-44037400D01*
X53700000Y-46085000D02*
X53700000Y-44385000D01*
X53352400Y-44037400D02*
X53352400Y-16473128D01*
X63252400Y-6573128D02*
X63252400Y1051872D01*
X53352400Y-16473128D02*
X63252400Y-6573128D01*
%TO.N,/CPU0_RX5+*%
X67625000Y5840000D02*
X67922600Y5542400D01*
X67090000Y5095000D02*
X67090000Y5680000D01*
X67090000Y5680000D02*
X67250000Y5840000D01*
X67922600Y5542400D02*
X67922600Y2153128D01*
X67250000Y5840000D02*
X67625000Y5840000D01*
X67922600Y2153128D02*
X66947600Y1178128D01*
X56700000Y-46085000D02*
X56700000Y-44385000D01*
X56700000Y-44385000D02*
X57047600Y-44037400D01*
X57047600Y-44037400D02*
X57047600Y-15446872D01*
X57047600Y-15446872D02*
X66947600Y-5546872D01*
X66947600Y-5546872D02*
X66947600Y1178128D01*
%TO.N,/CPU0_RX5-*%
X68090000Y6029800D02*
X68090000Y7095000D01*
X67252400Y1051872D02*
X68227400Y2026872D01*
X68227400Y5892400D02*
X68090000Y6029800D01*
X68227400Y2026872D02*
X68227400Y5892400D01*
X57700000Y-44385000D02*
X57352400Y-44037400D01*
X57700000Y-46085000D02*
X57700000Y-44385000D01*
X57352400Y-44037400D02*
X57352400Y-15573128D01*
X67252400Y-5673128D02*
X67252400Y1051872D01*
X57352400Y-15573128D02*
X67252400Y-5673128D01*
%TO.N,/CPU0_RX6+*%
X71625000Y5840000D02*
X71922600Y5542400D01*
X71090000Y5095000D02*
X71090000Y5680000D01*
X71090000Y5680000D02*
X71250000Y5840000D01*
X71922600Y5542400D02*
X71922600Y2153128D01*
X71250000Y5840000D02*
X71625000Y5840000D01*
X71922600Y2153128D02*
X70947600Y1178128D01*
X70947600Y1178128D02*
X70947600Y-4571872D01*
X60700000Y-46085000D02*
X60700000Y-44385000D01*
X60700000Y-44385000D02*
X61047600Y-44037400D01*
X61047600Y-44037400D02*
X61047600Y-14471872D01*
X61047600Y-14471872D02*
X70947600Y-4571872D01*
%TO.N,/CPU0_RX6-*%
X72090000Y6029800D02*
X72090000Y7095000D01*
X71252400Y1051872D02*
X72227400Y2026872D01*
X72227400Y5892400D02*
X72090000Y6029800D01*
X72227400Y2026872D02*
X72227400Y5892400D01*
X71252400Y1051872D02*
X71252400Y-4698128D01*
X61700000Y-46085000D02*
X61700000Y-44385000D01*
X61700000Y-44385000D02*
X61352400Y-44037400D01*
X61352400Y-14598128D02*
X71252400Y-4698128D01*
X61352400Y-44037400D02*
X61352400Y-14598128D01*
%TO.N,/CPU0_RX7+*%
X75625000Y5840000D02*
X75922600Y5542400D01*
X75090000Y5095000D02*
X75090000Y5680000D01*
X75090000Y5680000D02*
X75250000Y5840000D01*
X75922600Y5542400D02*
X75922600Y2153128D01*
X75250000Y5840000D02*
X75625000Y5840000D01*
X75922600Y2153128D02*
X74947600Y1178128D01*
X74947600Y1178128D02*
X74947600Y-2996872D01*
X64700000Y-46085000D02*
X64700000Y-44385000D01*
X64700000Y-44385000D02*
X65047600Y-44037400D01*
X65047600Y-44037400D02*
X65047600Y-12896872D01*
X65047600Y-12896872D02*
X74947600Y-2996872D01*
%TO.N,/CPU0_RX7-*%
X76090000Y6029800D02*
X76090000Y7095000D01*
X75252400Y1051872D02*
X76227400Y2026872D01*
X76227400Y5892400D02*
X76090000Y6029800D01*
X76227400Y2026872D02*
X76227400Y5892400D01*
X75252400Y1051872D02*
X75252400Y-3123128D01*
X65700000Y-44385000D02*
X65352400Y-44037400D01*
X65700000Y-46085000D02*
X65700000Y-44385000D01*
X65352400Y-44037400D02*
X65352400Y-13023128D01*
X65352400Y-13023128D02*
X75252400Y-3123128D01*
%TO.N,/Oculink connector/Oculink_1_C_x4_TX0+*%
X84073800Y23570000D02*
X84172600Y23471200D01*
X84172600Y22903128D02*
X83247600Y21978128D01*
X84172600Y23471200D02*
X84172600Y22903128D01*
X88197600Y6301872D02*
X88197600Y-3596872D01*
X83247600Y21978128D02*
X83247600Y11251872D01*
X84047600Y-35111200D02*
X83948800Y-35210000D01*
X83247600Y11251872D02*
X88197600Y6301872D01*
X88197600Y-3596872D02*
X84047600Y-7746872D01*
X84047600Y-7746872D02*
X84047600Y-35111200D01*
%TO.N,/Oculink connector/Oculink_1_C_x4_TX1+*%
X87948800Y-35210000D02*
X88047600Y-35111200D01*
X88047600Y-35111200D02*
X88047600Y-7396872D01*
X88047600Y-7396872D02*
X90047600Y-5396872D01*
X90047600Y-5396872D02*
X90047600Y7151872D01*
X90047600Y7151872D02*
X85247600Y11951872D01*
X85247600Y11951872D02*
X85247600Y18376872D01*
X85247600Y18376872D02*
X84747600Y18876872D01*
X84747600Y18876872D02*
X84747600Y21621200D01*
X84747600Y21621200D02*
X84648800Y21720000D01*
%TO.N,/Oculink connector/Oculink_1_C_x4_TX2+*%
X89247600Y19151872D02*
X89747600Y18651872D01*
X89747600Y18651872D02*
X89747600Y11276872D01*
X92047600Y-35111200D02*
X92047600Y8976872D01*
X91948800Y-35210000D02*
X92047600Y-35111200D01*
X92047600Y8976872D02*
X89747600Y11276872D01*
X89247600Y19151872D02*
X89247600Y21621200D01*
X89247600Y21621200D02*
X89148800Y21720000D01*
%TO.N,/Oculink connector/Oculink_1_C_x4_TX3+*%
X96047600Y7726872D02*
X96047600Y-35111200D01*
X91622600Y12151872D02*
X96047600Y7726872D01*
X96047600Y-35111200D02*
X95948800Y-35210000D01*
X91622600Y12151872D02*
X91622600Y20926872D01*
X89662600Y22886872D02*
X89662600Y23396200D01*
X91622600Y20926872D02*
X89662600Y22886872D01*
X89662600Y23396200D02*
X89563800Y23495000D01*
%TO.N,/Oculink connector/Oculink_1_C_x4_TX0-*%
X84352400Y-7873128D02*
X84352400Y-35111200D01*
X88502400Y-3723128D02*
X84352400Y-7873128D01*
X83552400Y11378128D02*
X88502400Y6428128D01*
X83552400Y21851872D02*
X83552400Y11378128D01*
X84477400Y22776872D02*
X83552400Y21851872D01*
X84477400Y23471200D02*
X84477400Y22776872D01*
X84352400Y-35111200D02*
X84451200Y-35210000D01*
X88502400Y6428128D02*
X88502400Y-3723128D01*
X84576200Y23570000D02*
X84477400Y23471200D01*
%TO.N,/Oculink connector/Oculink_1_C_x4_TX1-*%
X88451200Y-35210000D02*
X88352400Y-35111200D01*
X88352400Y-35111200D02*
X88352400Y-7523128D01*
X88352400Y-7523128D02*
X90352400Y-5523128D01*
X90352400Y-5523128D02*
X90352400Y7278128D01*
X90352400Y7278128D02*
X85552400Y12078128D01*
X85552400Y12078128D02*
X85552400Y18503128D01*
X85552400Y18503128D02*
X85052400Y19003128D01*
X85052400Y19003128D02*
X85052400Y21621200D01*
X85052400Y21621200D02*
X85151200Y21720000D01*
%TO.N,/Oculink connector/Oculink_1_C_x4_TX2-*%
X89552400Y19278128D02*
X90052400Y18778128D01*
X90052400Y18778128D02*
X90052400Y11403128D01*
X92352400Y9103128D02*
X90052400Y11403128D01*
X92451200Y-35210000D02*
X92352400Y-35111200D01*
X92352400Y-35111200D02*
X92352400Y9103128D01*
X89552400Y21621200D02*
X89651200Y21720000D01*
X89552400Y19278128D02*
X89552400Y21621200D01*
%TO.N,/Oculink connector/Oculink_1_C_x4_TX3-*%
X96352400Y-35111200D02*
X96451200Y-35210000D01*
X96352400Y7853128D02*
X96352400Y-35111200D01*
X91927400Y12278128D02*
X96352400Y7853128D01*
X91927400Y12278128D02*
X91927400Y21053128D01*
X89967400Y23396200D02*
X90066200Y23495000D01*
X91927400Y21053128D02*
X89967400Y23013128D01*
X89967400Y23013128D02*
X89967400Y23396200D01*
%TO.N,/Oculink connector/Oculink_0_C_x4_TX0+*%
X68047600Y-12671872D02*
X68047600Y-35111200D01*
X81222600Y503128D02*
X68047600Y-12671872D01*
X63247600Y11351872D02*
X65961872Y8637600D01*
X68047600Y-35111200D02*
X67948800Y-35210000D01*
X78486872Y8637600D02*
X81222600Y5901872D01*
X64073800Y23570000D02*
X64172600Y23471200D01*
X64172600Y23471200D02*
X64172600Y22903128D01*
X65961872Y8637600D02*
X78486872Y8637600D01*
X64172600Y22903128D02*
X63247600Y21978128D01*
X63247600Y21978128D02*
X63247600Y11351872D01*
X81222600Y5901872D02*
X81222600Y503128D01*
%TO.N,/Oculink connector/Oculink_0_C_x4_TX1+*%
X72047600Y-35111200D02*
X71948800Y-35210000D01*
X72047600Y-11221872D02*
X72047600Y-35111200D01*
X64648800Y21720000D02*
X64747600Y21621200D01*
X82972600Y-296872D02*
X72047600Y-11221872D01*
X64747600Y18526872D02*
X65247600Y18026872D01*
X64747600Y21621200D02*
X64747600Y18526872D01*
X65247600Y18026872D02*
X65247600Y11726872D01*
X65247600Y11726872D02*
X67061872Y9912600D01*
X67061872Y9912600D02*
X78911872Y9912600D01*
X78911872Y9912600D02*
X82972600Y5851872D01*
X82972600Y5851872D02*
X82972600Y-296872D01*
%TO.N,/Oculink connector/Oculink_0_C_x4_TX2+*%
X69247600Y21621200D02*
X69148800Y21720000D01*
X69247600Y18701872D02*
X69247600Y21621200D01*
X76047600Y-10071872D02*
X84697600Y-1421872D01*
X76047600Y-35111200D02*
X76047600Y-10071872D01*
X75948800Y-35210000D02*
X76047600Y-35111200D01*
X71936872Y11112600D02*
X69747600Y13301872D01*
X84697600Y-1421872D02*
X84697600Y5851872D01*
X79436872Y11112600D02*
X71936872Y11112600D01*
X69747600Y13301872D02*
X69747600Y18201872D01*
X84697600Y5851872D02*
X79436872Y11112600D01*
X69747600Y18201872D02*
X69247600Y18701872D01*
%TO.N,/Oculink connector/Oculink_0_C_x4_TX3+*%
X80047600Y-8571872D02*
X80047600Y-35111200D01*
X69662600Y22886872D02*
X71597600Y20951872D01*
X86422600Y-2196872D02*
X80047600Y-8571872D01*
X80047600Y-35111200D02*
X79948800Y-35210000D01*
X72961872Y12312600D02*
X79936872Y12312600D01*
X69563800Y23495000D02*
X69662600Y23396200D01*
X79936872Y12312600D02*
X86422600Y5826872D01*
X71597600Y20951872D02*
X71597600Y13676872D01*
X69662600Y23396200D02*
X69662600Y22886872D01*
X71597600Y13676872D02*
X72961872Y12312600D01*
X86422600Y5826872D02*
X86422600Y-2196872D01*
%TO.N,/Oculink connector/Oculink_0_C_x4_TX0-*%
X66088128Y8942400D02*
X78613128Y8942400D01*
X63552400Y21851872D02*
X63552400Y11478128D01*
X78613128Y8942400D02*
X81527400Y6028128D01*
X64477400Y22776872D02*
X63552400Y21851872D01*
X64576200Y23570000D02*
X64477400Y23471200D01*
X81527400Y376872D02*
X68352400Y-12798128D01*
X63552400Y11478128D02*
X66088128Y8942400D01*
X68352400Y-35111200D02*
X68451200Y-35210000D01*
X68352400Y-12798128D02*
X68352400Y-35111200D01*
X81527400Y6028128D02*
X81527400Y376872D01*
X64477400Y23471200D02*
X64477400Y22776872D01*
%TO.N,/Oculink connector/Oculink_0_C_x4_TX1-*%
X72352400Y-35111200D02*
X72451200Y-35210000D01*
X72352400Y-11348128D02*
X72352400Y-35111200D01*
X83277400Y-423128D02*
X72352400Y-11348128D01*
X79038128Y10217400D02*
X83277400Y5978128D01*
X67188128Y10217400D02*
X79038128Y10217400D01*
X65552400Y11853128D02*
X67188128Y10217400D01*
X65552400Y18153128D02*
X65552400Y11853128D01*
X65052400Y18653128D02*
X65552400Y18153128D01*
X65052400Y21621200D02*
X65052400Y18653128D01*
X83277400Y5978128D02*
X83277400Y-423128D01*
X65151200Y21720000D02*
X65052400Y21621200D01*
%TO.N,/Oculink connector/Oculink_0_C_x4_TX2-*%
X69552400Y18828128D02*
X69552400Y21621200D01*
X70052400Y13428128D02*
X70052400Y18328128D01*
X79563128Y11417400D02*
X72063128Y11417400D01*
X85002400Y-1548128D02*
X85002400Y5978128D01*
X85002400Y5978128D02*
X79563128Y11417400D01*
X76352400Y-10198128D02*
X85002400Y-1548128D01*
X76352400Y-35111200D02*
X76352400Y-10198128D01*
X69552400Y21621200D02*
X69651200Y21720000D01*
X76451200Y-35210000D02*
X76352400Y-35111200D01*
X72063128Y11417400D02*
X70052400Y13428128D01*
X70052400Y18328128D02*
X69552400Y18828128D01*
%TO.N,/Oculink connector/Oculink_0_C_x4_TX3-*%
X80352400Y-35111200D02*
X80451200Y-35210000D01*
X80352400Y-8698128D02*
X80352400Y-35111200D01*
X86727400Y-2323128D02*
X80352400Y-8698128D01*
X86727400Y5953128D02*
X86727400Y-2323128D01*
X73088128Y12617400D02*
X80063128Y12617400D01*
X71902400Y21078128D02*
X71902400Y13803128D01*
X69967400Y23013128D02*
X71902400Y21078128D01*
X69967400Y23396200D02*
X69967400Y23013128D01*
X71902400Y13803128D02*
X73088128Y12617400D01*
X80063128Y12617400D02*
X86727400Y5953128D01*
X70066200Y23495000D02*
X69967400Y23396200D01*
%TO.N,/Oculink connector/Oculink_3_C_x4_TX0+*%
X123297600Y12228128D02*
X123297600Y22028128D01*
X116948800Y-35210000D02*
X117047600Y-35111200D01*
X117047600Y-35111200D02*
X117047600Y5978128D01*
X123297600Y22028128D02*
X124172600Y22903128D01*
X124172600Y22903128D02*
X124172600Y23471200D01*
X124172600Y23471200D02*
X124073800Y23570000D01*
X117047600Y5978128D02*
X123297600Y12228128D01*
%TO.N,/Oculink connector/Oculink_3_C_x4_TX1+*%
X124747600Y19226872D02*
X125247600Y18726872D01*
X125247600Y18726872D02*
X125247600Y11153128D01*
X125247600Y11153128D02*
X121047600Y6953128D01*
X121047600Y6953128D02*
X121047600Y-35111200D01*
X121047600Y-35111200D02*
X120948800Y-35210000D01*
X124747600Y19226872D02*
X124747600Y21621200D01*
X124747600Y21621200D02*
X124648800Y21720000D01*
%TO.N,/Oculink connector/Oculink_3_C_x4_TX2+*%
X124948800Y-35210000D02*
X125047600Y-35111200D01*
X125047600Y-35111200D02*
X125047600Y6853128D01*
X125047600Y6853128D02*
X129747600Y11553128D01*
X129747600Y11553128D02*
X129747600Y18676872D01*
X129247600Y21621200D02*
X129247600Y19176872D01*
X129148800Y21720000D02*
X129247600Y21621200D01*
X129247600Y19176872D02*
X129747600Y18676872D01*
%TO.N,/Oculink connector/Oculink_3_C_x4_TX3+*%
X131572600Y9578128D02*
X127522600Y5528128D01*
X127522600Y5528128D02*
X127522600Y-6273128D01*
X129047600Y-7798128D02*
X129047600Y-35111200D01*
X127522600Y-6273128D02*
X129047600Y-7798128D01*
X129047600Y-35111200D02*
X128948800Y-35210000D01*
X129563800Y23495000D02*
X129662600Y23396200D01*
X129662600Y23396200D02*
X129662600Y22886872D01*
X129662600Y22886872D02*
X131572600Y20976872D01*
X131572600Y20976872D02*
X131572600Y9578128D01*
%TO.N,/Oculink connector/Oculink_3_C_x4_TX0-*%
X124477400Y22776872D02*
X124477400Y23471200D01*
X123602400Y21901872D02*
X124477400Y22776872D01*
X117352400Y-35111200D02*
X117352400Y5851872D01*
X124477400Y23471200D02*
X124576200Y23570000D01*
X117451200Y-35210000D02*
X117352400Y-35111200D01*
X117352400Y5851872D02*
X123602400Y12101872D01*
X123602400Y12101872D02*
X123602400Y21901872D01*
%TO.N,/Oculink connector/Oculink_3_C_x4_TX1-*%
X125052400Y19353128D02*
X125552400Y18853128D01*
X125552400Y18853128D02*
X125552400Y11026872D01*
X121352400Y-35111200D02*
X121451200Y-35210000D01*
X125552400Y11026872D02*
X121352400Y6826872D01*
X121352400Y6826872D02*
X121352400Y-35111200D01*
X125052400Y19353128D02*
X125052400Y21621200D01*
X125052400Y21621200D02*
X125151200Y21720000D01*
%TO.N,/Oculink connector/Oculink_3_C_x4_TX2-*%
X125352400Y-35111200D02*
X125352400Y6726872D01*
X125451200Y-35210000D02*
X125352400Y-35111200D01*
X125352400Y6726872D02*
X130052400Y11426872D01*
X130052400Y11426872D02*
X130052400Y18803128D01*
X129552400Y19303128D02*
X130052400Y18803128D01*
X129651200Y21720000D02*
X129552400Y21621200D01*
X129552400Y21621200D02*
X129552400Y19303128D01*
%TO.N,/Oculink connector/Oculink_3_C_x4_TX3-*%
X131877400Y9451872D02*
X127827400Y5401872D01*
X127827400Y5401872D02*
X127827400Y-6146872D01*
X129352400Y-35111200D02*
X129451200Y-35210000D01*
X127827400Y-6146872D02*
X129352400Y-7671872D01*
X129352400Y-7671872D02*
X129352400Y-35111200D01*
X129967400Y23396200D02*
X129967400Y23013128D01*
X130066200Y23495000D02*
X129967400Y23396200D01*
X131877400Y21103128D02*
X131877400Y9451872D01*
X129967400Y23013128D02*
X131877400Y21103128D01*
%TO.N,/Oculink connector/Oculink_2_C_x4_TX0+*%
X100948800Y-35210000D02*
X101047600Y-35111200D01*
X101047600Y-35111200D02*
X101047600Y9828128D01*
X101047600Y9828128D02*
X103172600Y11953128D01*
X103172600Y11953128D02*
X103172600Y21903128D01*
X104172600Y22903128D02*
X104172600Y23471200D01*
X103172600Y21903128D02*
X104172600Y22903128D01*
X104172600Y23471200D02*
X104073800Y23570000D01*
%TO.N,/Oculink connector/Oculink_2_C_x4_TX1+*%
X105247600Y18476872D02*
X105247600Y11028128D01*
X105047600Y10828128D02*
X105047600Y-35111200D01*
X105247600Y11028128D02*
X105047600Y10828128D01*
X105047600Y-35111200D02*
X104948800Y-35210000D01*
X104747600Y21621200D02*
X104747600Y18976872D01*
X104747600Y18976872D02*
X105247600Y18476872D01*
X104648800Y21720000D02*
X104747600Y21621200D01*
%TO.N,/Oculink connector/Oculink_2_C_x4_TX2+*%
X109747600Y18701872D02*
X109747600Y9903128D01*
X109047600Y9203128D02*
X109047600Y-35111200D01*
X109747600Y9903128D02*
X109047600Y9203128D01*
X109047600Y-35111200D02*
X108948800Y-35210000D01*
X109148800Y21720000D02*
X109247600Y21621200D01*
X109247600Y21621200D02*
X109247600Y19201872D01*
X109247600Y19201872D02*
X109747600Y18701872D01*
%TO.N,/Oculink connector/Oculink_2_C_x4_TX3+*%
X113047600Y8826872D02*
X113047600Y-35111200D01*
X113047600Y-35111200D02*
X112948800Y-35210000D01*
X111622600Y10251872D02*
X113047600Y8826872D01*
X109563800Y23495000D02*
X109662600Y23396200D01*
X109662600Y23396200D02*
X109662600Y22886872D01*
X109662600Y22886872D02*
X111622600Y20926872D01*
X111622600Y20926872D02*
X111622600Y10251872D01*
%TO.N,/Oculink connector/Oculink_2_C_x4_TX0-*%
X101451200Y-35210000D02*
X101352400Y-35111200D01*
X101352400Y-35111200D02*
X101352400Y9701872D01*
X101352400Y9701872D02*
X103477400Y11826872D01*
X103477400Y11826872D02*
X103477400Y21776872D01*
X104477400Y23471200D02*
X104576200Y23570000D01*
X104477400Y22776872D02*
X104477400Y23471200D01*
X103477400Y21776872D02*
X104477400Y22776872D01*
%TO.N,/Oculink connector/Oculink_2_C_x4_TX1-*%
X105552400Y18603128D02*
X105552400Y10901872D01*
X105352400Y-35111200D02*
X105451200Y-35210000D01*
X105352400Y10701872D02*
X105352400Y-35111200D01*
X105552400Y10901872D02*
X105352400Y10701872D01*
X105052400Y19103128D02*
X105552400Y18603128D01*
X105052400Y21621200D02*
X105052400Y19103128D01*
X105151200Y21720000D02*
X105052400Y21621200D01*
%TO.N,/Oculink connector/Oculink_2_C_x4_TX2-*%
X110052400Y18828128D02*
X110052400Y9776872D01*
X109352400Y-35111200D02*
X109451200Y-35210000D01*
X109352400Y9076872D02*
X109352400Y-35111200D01*
X110052400Y9776872D02*
X109352400Y9076872D01*
X109552400Y19328128D02*
X110052400Y18828128D01*
X109552400Y21621200D02*
X109552400Y19328128D01*
X109651200Y21720000D02*
X109552400Y21621200D01*
%TO.N,/Oculink connector/Oculink_2_C_x4_TX3-*%
X113352400Y-35111200D02*
X113451200Y-35210000D01*
X111927400Y10378128D02*
X113352400Y8953128D01*
X113352400Y8953128D02*
X113352400Y-35111200D01*
X109967400Y23396200D02*
X109967400Y23013128D01*
X110066200Y23495000D02*
X109967400Y23396200D01*
X109967400Y23013128D02*
X111927400Y21053128D01*
X111927400Y21053128D02*
X111927400Y10378128D01*
D25*
%TO.N,RST_PERST0_N*%
X26600000Y-41085000D02*
X26600000Y-46085000D01*
X30950000Y-22985000D02*
X30950000Y-36735000D01*
X36100000Y4105000D02*
X36100000Y2115000D01*
X36100000Y2115000D02*
X38900000Y-685000D01*
X37090000Y5095000D02*
X36100000Y4105000D01*
X38900000Y-685000D02*
X38900000Y-15035000D01*
X30950000Y-36735000D02*
X26600000Y-41085000D01*
X38900000Y-15035000D02*
X30950000Y-22985000D01*
D26*
%TO.N,CLK100_SLOT1+*%
X49700000Y-46085000D02*
X49700000Y-44385000D01*
X49700000Y-44385000D02*
X50047600Y-44037400D01*
X50047600Y-44037400D02*
X50047600Y-38298128D01*
X48972600Y-37223128D02*
X48972600Y-35533800D01*
X50047600Y-38298128D02*
X48972600Y-37223128D01*
X48972600Y-35533800D02*
X48873800Y-35435000D01*
%TO.N,CLK100_SLOT1-*%
X50700000Y-44385000D02*
X50352400Y-44037400D01*
X50700000Y-46085000D02*
X50700000Y-44385000D01*
X50352400Y-44037400D02*
X50352400Y-38171872D01*
X49277400Y-35533800D02*
X49376200Y-35435000D01*
X50352400Y-38171872D02*
X49277400Y-37096872D01*
X49277400Y-37096872D02*
X49277400Y-35533800D01*
%TO.N,Oculink_0_x4_RX0+*%
X69700000Y-44385000D02*
X69700000Y-46085000D01*
X70047600Y-44037400D02*
X69700000Y-44385000D01*
X70047600Y-44037400D02*
X70047600Y-36583800D01*
X70047600Y-36583800D02*
X69948800Y-36485000D01*
%TO.N,Oculink_0_x4_RX0-*%
X70700000Y-46085000D02*
X70700000Y-44385000D01*
X70700000Y-44385000D02*
X70352400Y-44037400D01*
X70352400Y-36583800D02*
X70451200Y-36485000D01*
X70352400Y-44037400D02*
X70352400Y-36583800D01*
%TO.N,Oculink_0_x4_RX1+*%
X73700000Y-46085000D02*
X73700000Y-44385000D01*
X73700000Y-44385000D02*
X74047600Y-44037400D01*
X74047600Y-44037400D02*
X74047600Y-36583800D01*
X74047600Y-36583800D02*
X73948800Y-36485000D01*
%TO.N,Oculink_0_x4_RX1-*%
X74700000Y-46085000D02*
X74700000Y-44385000D01*
X74700000Y-44385000D02*
X74352400Y-44037400D01*
X74352400Y-36583800D02*
X74451200Y-36485000D01*
X74352400Y-44037400D02*
X74352400Y-36583800D01*
%TO.N,Oculink_0_x4_RX2+*%
X77700000Y-46085000D02*
X77700000Y-44385000D01*
X77700000Y-44385000D02*
X78047600Y-44037400D01*
X78047600Y-44037400D02*
X78047600Y-36583800D01*
X78047600Y-36583800D02*
X77948800Y-36485000D01*
%TO.N,Oculink_0_x4_RX2-*%
X78700000Y-44385000D02*
X78352400Y-44037400D01*
X78700000Y-46085000D02*
X78700000Y-44385000D01*
X78352400Y-36583800D02*
X78451200Y-36485000D01*
X78352400Y-44037400D02*
X78352400Y-36583800D01*
%TO.N,Oculink_0_x4_RX3+*%
X81700000Y-46085000D02*
X81700000Y-44385000D01*
X81700000Y-44385000D02*
X82047600Y-44037400D01*
X82047600Y-44037400D02*
X82047600Y-36583800D01*
X82047600Y-36583800D02*
X81948800Y-36485000D01*
%TO.N,Oculink_0_x4_RX3-*%
X82700000Y-44385000D02*
X82352400Y-44037400D01*
X82700000Y-46085000D02*
X82700000Y-44385000D01*
X82352400Y-44037400D02*
X82352400Y-36583800D01*
X82352400Y-36583800D02*
X82451200Y-36485000D01*
%TO.N,Oculink_1_x4_RX0+*%
X85700000Y-46085000D02*
X85700000Y-44385000D01*
X85700000Y-44385000D02*
X86047600Y-44037400D01*
X86047600Y-44037400D02*
X86047600Y-36583800D01*
X86047600Y-36583800D02*
X85948800Y-36485000D01*
%TO.N,Oculink_1_x4_RX0-*%
X86700000Y-44385000D02*
X86352400Y-44037400D01*
X86700000Y-46085000D02*
X86700000Y-44385000D01*
X86352400Y-36583800D02*
X86451200Y-36485000D01*
X86352400Y-44037400D02*
X86352400Y-36583800D01*
%TO.N,Oculink_1_x4_RX1+*%
X89700000Y-46085000D02*
X89700000Y-44385000D01*
X89700000Y-44385000D02*
X90047600Y-44037400D01*
X90047600Y-44037400D02*
X90047600Y-36583800D01*
X90047600Y-36583800D02*
X89948800Y-36485000D01*
%TO.N,Oculink_1_x4_RX1-*%
X90700000Y-46085000D02*
X90700000Y-44385000D01*
X90700000Y-44385000D02*
X90352400Y-44037400D01*
X90352400Y-36583800D02*
X90451200Y-36485000D01*
X90352400Y-44037400D02*
X90352400Y-36583800D01*
%TO.N,Oculink_1_x4_RX2+*%
X93700000Y-46085000D02*
X93700000Y-44385000D01*
X93700000Y-44385000D02*
X94047600Y-44037400D01*
X94047600Y-44037400D02*
X94047600Y-36583800D01*
X94047600Y-36583800D02*
X93948800Y-36485000D01*
%TO.N,Oculink_1_x4_RX2-*%
X94700000Y-44385000D02*
X94352400Y-44037400D01*
X94700000Y-46085000D02*
X94700000Y-44385000D01*
X94352400Y-36583800D02*
X94451200Y-36485000D01*
X94352400Y-44037400D02*
X94352400Y-36583800D01*
%TO.N,Oculink_1_x4_RX3+*%
X97700000Y-44385000D02*
X97700000Y-46085000D01*
X98047600Y-44037400D02*
X97700000Y-44385000D01*
X98047600Y-44037400D02*
X98047600Y-36583800D01*
X98047600Y-36583800D02*
X97948800Y-36485000D01*
%TO.N,Oculink_1_x4_RX3-*%
X98700000Y-44385000D02*
X98352400Y-44037400D01*
X98700000Y-46085000D02*
X98700000Y-44385000D01*
X98352400Y-44037400D02*
X98352400Y-36583800D01*
X98352400Y-36583800D02*
X98451200Y-36485000D01*
%TO.N,Oculink_2_x4_RX0+*%
X102700000Y-44385000D02*
X103047600Y-44037400D01*
X102700000Y-46085000D02*
X102700000Y-44385000D01*
X103047600Y-44037400D02*
X103047600Y-36583800D01*
X103047600Y-36583800D02*
X102948800Y-36485000D01*
%TO.N,Oculink_2_x4_RX0-*%
X103700000Y-46085000D02*
X103700000Y-44385000D01*
X103700000Y-44385000D02*
X103352400Y-44037400D01*
X103352400Y-44037400D02*
X103352400Y-36583800D01*
X103352400Y-36583800D02*
X103451200Y-36485000D01*
%TO.N,Oculink_2_x4_RX1+*%
X106700000Y-46085000D02*
X106700000Y-44385000D01*
X106700000Y-44385000D02*
X107047600Y-44037400D01*
X107047600Y-44037400D02*
X107047600Y-36583800D01*
X107047600Y-36583800D02*
X106948800Y-36485000D01*
%TO.N,Oculink_2_x4_RX1-*%
X107700000Y-44385000D02*
X107352400Y-44037400D01*
X107700000Y-46085000D02*
X107700000Y-44385000D01*
X107352400Y-36583800D02*
X107451200Y-36485000D01*
X107352400Y-44037400D02*
X107352400Y-36583800D01*
%TO.N,Oculink_2_x4_RX2+*%
X110700000Y-46085000D02*
X110700000Y-44385000D01*
X110700000Y-44385000D02*
X111047600Y-44037400D01*
X111047600Y-44037400D02*
X111047600Y-36583800D01*
X111047600Y-36583800D02*
X110948800Y-36485000D01*
%TO.N,Oculink_2_x4_RX2-*%
X111700000Y-44385000D02*
X111352400Y-44037400D01*
X111700000Y-46085000D02*
X111700000Y-44385000D01*
X111352400Y-44037400D02*
X111352400Y-36583800D01*
X111352400Y-36583800D02*
X111451200Y-36485000D01*
%TO.N,Oculink_2_x4_RX3+*%
X114700000Y-46085000D02*
X114700000Y-44385000D01*
X114700000Y-44385000D02*
X115047600Y-44037400D01*
X115047600Y-44037400D02*
X115047600Y-36583800D01*
X115047600Y-36583800D02*
X114948800Y-36485000D01*
%TO.N,Oculink_2_x4_RX3-*%
X115700000Y-44385000D02*
X115352400Y-44037400D01*
X115700000Y-46085000D02*
X115700000Y-44385000D01*
X115352400Y-36583800D02*
X115451200Y-36485000D01*
X115352400Y-44037400D02*
X115352400Y-36583800D01*
%TO.N,Oculink_3_x4_RX0+*%
X118700000Y-46085000D02*
X118700000Y-44385000D01*
X118700000Y-44385000D02*
X119047600Y-44037400D01*
X119047600Y-44037400D02*
X119047600Y-36583800D01*
X119047600Y-36583800D02*
X118948800Y-36485000D01*
%TO.N,Oculink_3_x4_RX0-*%
X119700000Y-46085000D02*
X119700000Y-44385000D01*
X119700000Y-44385000D02*
X119352400Y-44037400D01*
X119352400Y-44037400D02*
X119352400Y-36583800D01*
X119352400Y-36583800D02*
X119451200Y-36485000D01*
%TO.N,Oculink_3_x4_RX1+*%
X122700000Y-46085000D02*
X122700000Y-44385000D01*
X122700000Y-44385000D02*
X123047600Y-44037400D01*
X123047600Y-44037400D02*
X123047600Y-36583800D01*
X123047600Y-36583800D02*
X122948800Y-36485000D01*
%TO.N,Oculink_3_x4_RX1-*%
X123700000Y-44385000D02*
X123352400Y-44037400D01*
X123700000Y-46085000D02*
X123700000Y-44385000D01*
X123352400Y-36583800D02*
X123451200Y-36485000D01*
X123352400Y-44037400D02*
X123352400Y-36583800D01*
%TO.N,Oculink_3_x4_RX2+*%
X126700000Y-46085000D02*
X126700000Y-44385000D01*
X126700000Y-44385000D02*
X127047600Y-44037400D01*
X127047600Y-44037400D02*
X127047600Y-36583800D01*
X127047600Y-36583800D02*
X126948800Y-36485000D01*
%TO.N,Oculink_3_x4_RX2-*%
X127700000Y-46085000D02*
X127700000Y-44385000D01*
X127700000Y-44385000D02*
X127352400Y-44037400D01*
X127352400Y-36583800D02*
X127451200Y-36485000D01*
X127352400Y-44037400D02*
X127352400Y-36583800D01*
%TO.N,Oculink_3_x4_RX3+*%
X130700000Y-46085000D02*
X130700000Y-44385000D01*
X131047600Y-44037400D02*
X131047600Y-29583800D01*
X130700000Y-44385000D02*
X131047600Y-44037400D01*
X131047600Y-29583800D02*
X130948800Y-29485000D01*
%TO.N,Oculink_3_x4_RX3-*%
X131352400Y-29583800D02*
X131451200Y-29485000D01*
X131700000Y-44385000D02*
X131352400Y-44037400D01*
X131352400Y-44037400D02*
X131352400Y-29583800D01*
X131700000Y-46085000D02*
X131700000Y-44385000D01*
%TO.N,CLK100_SLOT0+*%
X20600000Y-46085000D02*
X20600000Y-44385000D01*
X20600000Y-44385000D02*
X20947600Y-44037400D01*
X20947600Y-44037400D02*
X20947600Y-19083800D01*
X20947600Y-19083800D02*
X20848800Y-18985000D01*
%TO.N,CLK100_SLOT0-*%
X21600000Y-46085000D02*
X21600000Y-44385000D01*
X21600000Y-44385000D02*
X21252400Y-44037400D01*
X21252400Y-19083800D02*
X21351200Y-18985000D01*
X21252400Y-44037400D02*
X21252400Y-19083800D01*
%TD*%
D27*
%TO.N,+3V3*%
G36*
X34717862Y-5182468D02*
G01*
X37102532Y-7567138D01*
X37173000Y-7737263D01*
X37173000Y-14882737D01*
X37102532Y-15052862D01*
X32000297Y-20155097D01*
X31996639Y-20146266D01*
X31941483Y-20063718D01*
X31871282Y-19993517D01*
X31788734Y-19938361D01*
X31697011Y-19900368D01*
X31599640Y-19881000D01*
X31500360Y-19881000D01*
X31402989Y-19900368D01*
X31311266Y-19938361D01*
X31228718Y-19993517D01*
X31158517Y-20063718D01*
X31103361Y-20146266D01*
X31065368Y-20237989D01*
X31046000Y-20335360D01*
X31046000Y-20434640D01*
X31065368Y-20532011D01*
X31103361Y-20623734D01*
X31158517Y-20706282D01*
X31228718Y-20776483D01*
X31311266Y-20831639D01*
X31320097Y-20835297D01*
X30000000Y-22155394D01*
X29984206Y-22174640D01*
X29972470Y-22196596D01*
X29882667Y-22413399D01*
X29875440Y-22437223D01*
X29873000Y-22462000D01*
X29873000Y-36432737D01*
X29802532Y-36602862D01*
X26000000Y-40405394D01*
X25984206Y-40424640D01*
X25972470Y-40446596D01*
X25882667Y-40663399D01*
X25875440Y-40687223D01*
X25873000Y-40712000D01*
X25873000Y-48058000D01*
X24327000Y-48058000D01*
X24327000Y-43158744D01*
X24361266Y-43181639D01*
X24452989Y-43219632D01*
X24550360Y-43239000D01*
X24649640Y-43239000D01*
X24747011Y-43219632D01*
X24838734Y-43181639D01*
X24921282Y-43126483D01*
X24991483Y-43056282D01*
X25046639Y-42973734D01*
X25084632Y-42882011D01*
X25104000Y-42784640D01*
X25104000Y-42685360D01*
X25084632Y-42587989D01*
X25046639Y-42496266D01*
X24991483Y-42413718D01*
X24921282Y-42343517D01*
X24838734Y-42288361D01*
X24747011Y-42250368D01*
X24649640Y-42231000D01*
X24550360Y-42231000D01*
X24452989Y-42250368D01*
X24361266Y-42288361D01*
X24327000Y-42311256D01*
X24327000Y-31330436D01*
X27246000Y-31330436D01*
X27246000Y-31439564D01*
X27267289Y-31546596D01*
X27309051Y-31647418D01*
X27369680Y-31738155D01*
X27446845Y-31815320D01*
X27537582Y-31875949D01*
X27638404Y-31917711D01*
X27745436Y-31939000D01*
X27854564Y-31939000D01*
X27961596Y-31917711D01*
X28062418Y-31875949D01*
X28153155Y-31815320D01*
X28230320Y-31738155D01*
X28290949Y-31647418D01*
X28332711Y-31546596D01*
X28354000Y-31439564D01*
X28354000Y-31330436D01*
X28332711Y-31223404D01*
X28290949Y-31122582D01*
X28230320Y-31031845D01*
X28153155Y-30954680D01*
X28062418Y-30894051D01*
X27961596Y-30852289D01*
X27854564Y-30831000D01*
X27745436Y-30831000D01*
X27638404Y-30852289D01*
X27537582Y-30894051D01*
X27446845Y-30954680D01*
X27369680Y-31031845D01*
X27309051Y-31122582D01*
X27267289Y-31223404D01*
X27246000Y-31330436D01*
X24327000Y-31330436D01*
X24327000Y-24737263D01*
X24397468Y-24567138D01*
X27450000Y-21514606D01*
X27465794Y-21495360D01*
X27477530Y-21473404D01*
X27567333Y-21256601D01*
X27574560Y-21232777D01*
X27577000Y-21208000D01*
X27577000Y-20735360D01*
X29246000Y-20735360D01*
X29246000Y-20834640D01*
X29265368Y-20932011D01*
X29303361Y-21023734D01*
X29358517Y-21106282D01*
X29428718Y-21176483D01*
X29511266Y-21231639D01*
X29602989Y-21269632D01*
X29700360Y-21289000D01*
X29799640Y-21289000D01*
X29897011Y-21269632D01*
X29988734Y-21231639D01*
X30071282Y-21176483D01*
X30141483Y-21106282D01*
X30196639Y-21023734D01*
X30234632Y-20932011D01*
X30254000Y-20834640D01*
X30254000Y-20735360D01*
X30234632Y-20637989D01*
X30196639Y-20546266D01*
X30141483Y-20463718D01*
X30071282Y-20393517D01*
X29988734Y-20338361D01*
X29897011Y-20300368D01*
X29799640Y-20281000D01*
X29700360Y-20281000D01*
X29602989Y-20300368D01*
X29511266Y-20338361D01*
X29428718Y-20393517D01*
X29358517Y-20463718D01*
X29303361Y-20546266D01*
X29265368Y-20637989D01*
X29246000Y-20735360D01*
X27577000Y-20735360D01*
X27577000Y-19935360D01*
X28196000Y-19935360D01*
X28196000Y-20034640D01*
X28215368Y-20132011D01*
X28253361Y-20223734D01*
X28308517Y-20306282D01*
X28378718Y-20376483D01*
X28461266Y-20431639D01*
X28552989Y-20469632D01*
X28650360Y-20489000D01*
X28749640Y-20489000D01*
X28847011Y-20469632D01*
X28938734Y-20431639D01*
X29021282Y-20376483D01*
X29091483Y-20306282D01*
X29146639Y-20223734D01*
X29184632Y-20132011D01*
X29204000Y-20034640D01*
X29204000Y-19935360D01*
X29184632Y-19837989D01*
X29146639Y-19746266D01*
X29091483Y-19663718D01*
X29021282Y-19593517D01*
X28938734Y-19538361D01*
X28847011Y-19500368D01*
X28749640Y-19481000D01*
X28650360Y-19481000D01*
X28552989Y-19500368D01*
X28461266Y-19538361D01*
X28378718Y-19593517D01*
X28308517Y-19663718D01*
X28253361Y-19746266D01*
X28215368Y-19837989D01*
X28196000Y-19935360D01*
X27577000Y-19935360D01*
X27577000Y-18437263D01*
X27647468Y-18267138D01*
X33000000Y-12914606D01*
X33015794Y-12895360D01*
X33027530Y-12873404D01*
X33117333Y-12656601D01*
X33124560Y-12632777D01*
X33127000Y-12608000D01*
X33127000Y-5537263D01*
X33197468Y-5367138D01*
X33382138Y-5182468D01*
X33552263Y-5112000D01*
X34547737Y-5112000D01*
X34717862Y-5182468D01*
G37*
X34717862Y-5182468D02*
X37102532Y-7567138D01*
X37173000Y-7737263D01*
X37173000Y-14882737D01*
X37102532Y-15052862D01*
X32000297Y-20155097D01*
X31996639Y-20146266D01*
X31941483Y-20063718D01*
X31871282Y-19993517D01*
X31788734Y-19938361D01*
X31697011Y-19900368D01*
X31599640Y-19881000D01*
X31500360Y-19881000D01*
X31402989Y-19900368D01*
X31311266Y-19938361D01*
X31228718Y-19993517D01*
X31158517Y-20063718D01*
X31103361Y-20146266D01*
X31065368Y-20237989D01*
X31046000Y-20335360D01*
X31046000Y-20434640D01*
X31065368Y-20532011D01*
X31103361Y-20623734D01*
X31158517Y-20706282D01*
X31228718Y-20776483D01*
X31311266Y-20831639D01*
X31320097Y-20835297D01*
X30000000Y-22155394D01*
X29984206Y-22174640D01*
X29972470Y-22196596D01*
X29882667Y-22413399D01*
X29875440Y-22437223D01*
X29873000Y-22462000D01*
X29873000Y-36432737D01*
X29802532Y-36602862D01*
X26000000Y-40405394D01*
X25984206Y-40424640D01*
X25972470Y-40446596D01*
X25882667Y-40663399D01*
X25875440Y-40687223D01*
X25873000Y-40712000D01*
X25873000Y-48058000D01*
X24327000Y-48058000D01*
X24327000Y-43158744D01*
X24361266Y-43181639D01*
X24452989Y-43219632D01*
X24550360Y-43239000D01*
X24649640Y-43239000D01*
X24747011Y-43219632D01*
X24838734Y-43181639D01*
X24921282Y-43126483D01*
X24991483Y-43056282D01*
X25046639Y-42973734D01*
X25084632Y-42882011D01*
X25104000Y-42784640D01*
X25104000Y-42685360D01*
X25084632Y-42587989D01*
X25046639Y-42496266D01*
X24991483Y-42413718D01*
X24921282Y-42343517D01*
X24838734Y-42288361D01*
X24747011Y-42250368D01*
X24649640Y-42231000D01*
X24550360Y-42231000D01*
X24452989Y-42250368D01*
X24361266Y-42288361D01*
X24327000Y-42311256D01*
X24327000Y-31330436D01*
X27246000Y-31330436D01*
X27246000Y-31439564D01*
X27267289Y-31546596D01*
X27309051Y-31647418D01*
X27369680Y-31738155D01*
X27446845Y-31815320D01*
X27537582Y-31875949D01*
X27638404Y-31917711D01*
X27745436Y-31939000D01*
X27854564Y-31939000D01*
X27961596Y-31917711D01*
X28062418Y-31875949D01*
X28153155Y-31815320D01*
X28230320Y-31738155D01*
X28290949Y-31647418D01*
X28332711Y-31546596D01*
X28354000Y-31439564D01*
X28354000Y-31330436D01*
X28332711Y-31223404D01*
X28290949Y-31122582D01*
X28230320Y-31031845D01*
X28153155Y-30954680D01*
X28062418Y-30894051D01*
X27961596Y-30852289D01*
X27854564Y-30831000D01*
X27745436Y-30831000D01*
X27638404Y-30852289D01*
X27537582Y-30894051D01*
X27446845Y-30954680D01*
X27369680Y-31031845D01*
X27309051Y-31122582D01*
X27267289Y-31223404D01*
X27246000Y-31330436D01*
X24327000Y-31330436D01*
X24327000Y-24737263D01*
X24397468Y-24567138D01*
X27450000Y-21514606D01*
X27465794Y-21495360D01*
X27477530Y-21473404D01*
X27567333Y-21256601D01*
X27574560Y-21232777D01*
X27577000Y-21208000D01*
X27577000Y-20735360D01*
X29246000Y-20735360D01*
X29246000Y-20834640D01*
X29265368Y-20932011D01*
X29303361Y-21023734D01*
X29358517Y-21106282D01*
X29428718Y-21176483D01*
X29511266Y-21231639D01*
X29602989Y-21269632D01*
X29700360Y-21289000D01*
X29799640Y-21289000D01*
X29897011Y-21269632D01*
X29988734Y-21231639D01*
X30071282Y-21176483D01*
X30141483Y-21106282D01*
X30196639Y-21023734D01*
X30234632Y-20932011D01*
X30254000Y-20834640D01*
X30254000Y-20735360D01*
X30234632Y-20637989D01*
X30196639Y-20546266D01*
X30141483Y-20463718D01*
X30071282Y-20393517D01*
X29988734Y-20338361D01*
X29897011Y-20300368D01*
X29799640Y-20281000D01*
X29700360Y-20281000D01*
X29602989Y-20300368D01*
X29511266Y-20338361D01*
X29428718Y-20393517D01*
X29358517Y-20463718D01*
X29303361Y-20546266D01*
X29265368Y-20637989D01*
X29246000Y-20735360D01*
X27577000Y-20735360D01*
X27577000Y-19935360D01*
X28196000Y-19935360D01*
X28196000Y-20034640D01*
X28215368Y-20132011D01*
X28253361Y-20223734D01*
X28308517Y-20306282D01*
X28378718Y-20376483D01*
X28461266Y-20431639D01*
X28552989Y-20469632D01*
X28650360Y-20489000D01*
X28749640Y-20489000D01*
X28847011Y-20469632D01*
X28938734Y-20431639D01*
X29021282Y-20376483D01*
X29091483Y-20306282D01*
X29146639Y-20223734D01*
X29184632Y-20132011D01*
X29204000Y-20034640D01*
X29204000Y-19935360D01*
X29184632Y-19837989D01*
X29146639Y-19746266D01*
X29091483Y-19663718D01*
X29021282Y-19593517D01*
X28938734Y-19538361D01*
X28847011Y-19500368D01*
X28749640Y-19481000D01*
X28650360Y-19481000D01*
X28552989Y-19500368D01*
X28461266Y-19538361D01*
X28378718Y-19593517D01*
X28308517Y-19663718D01*
X28253361Y-19746266D01*
X28215368Y-19837989D01*
X28196000Y-19935360D01*
X27577000Y-19935360D01*
X27577000Y-18437263D01*
X27647468Y-18267138D01*
X33000000Y-12914606D01*
X33015794Y-12895360D01*
X33027530Y-12873404D01*
X33117333Y-12656601D01*
X33124560Y-12632777D01*
X33127000Y-12608000D01*
X33127000Y-5537263D01*
X33197468Y-5367138D01*
X33382138Y-5182468D01*
X33552263Y-5112000D01*
X34547737Y-5112000D01*
X34717862Y-5182468D01*
%TO.N,+12V*%
G36*
X41173000Y12017263D02*
G01*
X41102532Y11847138D01*
X37617862Y8362468D01*
X37447737Y8292000D01*
X31927000Y8292000D01*
X31902224Y8289560D01*
X31878399Y8282333D01*
X31661596Y8192530D01*
X31639639Y8180794D01*
X31620394Y8165000D01*
X30840201Y7384807D01*
X30802495Y7475837D01*
X30714507Y7607520D01*
X30602520Y7719507D01*
X30470837Y7807495D01*
X30324518Y7868103D01*
X30169187Y7899000D01*
X30010813Y7899000D01*
X29855482Y7868103D01*
X29709163Y7807495D01*
X29577480Y7719507D01*
X29465493Y7607520D01*
X29377505Y7475837D01*
X29316897Y7329518D01*
X29286000Y7174187D01*
X29286000Y7015813D01*
X29316897Y6860482D01*
X29377505Y6714163D01*
X29465493Y6582480D01*
X29577480Y6470493D01*
X29709163Y6382505D01*
X29855482Y6321897D01*
X30010813Y6291000D01*
X30169187Y6291000D01*
X30324518Y6321897D01*
X30470837Y6382505D01*
X30602520Y6470493D01*
X30623000Y6490973D01*
X30623000Y5749923D01*
X30577480Y5719507D01*
X30465493Y5607520D01*
X30377505Y5475837D01*
X30316897Y5329518D01*
X30286000Y5174187D01*
X30286000Y5015813D01*
X30316897Y4860482D01*
X30377505Y4714163D01*
X30465493Y4582480D01*
X30577480Y4470493D01*
X30623000Y4440077D01*
X30623000Y3249923D01*
X30577480Y3219507D01*
X30465493Y3107520D01*
X30377505Y2975837D01*
X30316897Y2829518D01*
X30286000Y2674187D01*
X30286000Y2515813D01*
X30316897Y2360482D01*
X30377505Y2214163D01*
X30465493Y2082480D01*
X30577480Y1970493D01*
X30623000Y1940077D01*
X30623000Y1199027D01*
X30602520Y1219507D01*
X30470837Y1307495D01*
X30324518Y1368103D01*
X30169187Y1399000D01*
X30010813Y1399000D01*
X29855482Y1368103D01*
X29709163Y1307495D01*
X29577480Y1219507D01*
X29465493Y1107520D01*
X29377505Y975837D01*
X29316897Y829518D01*
X29286000Y674187D01*
X29286000Y515813D01*
X29316897Y360482D01*
X29377505Y214163D01*
X29465493Y82480D01*
X29577480Y-29507D01*
X29709163Y-117495D01*
X29855482Y-178103D01*
X30010813Y-209000D01*
X30169187Y-209000D01*
X30324518Y-178103D01*
X30470837Y-117495D01*
X30602520Y-29507D01*
X30623000Y-9027D01*
X30623000Y-1682737D01*
X30552532Y-1852862D01*
X30067862Y-2337532D01*
X29897737Y-2408000D01*
X24520711Y-2408000D01*
X24495935Y-2410440D01*
X24472110Y-2417667D01*
X24351399Y-2467667D01*
X24329443Y-2479403D01*
X24310198Y-2495197D01*
X24294403Y-2514442D01*
X24282667Y-2536399D01*
X24232667Y-2657110D01*
X24225440Y-2680935D01*
X24223000Y-2705711D01*
X24223000Y-12382737D01*
X24152532Y-12552862D01*
X21767862Y-14937532D01*
X21597737Y-15008000D01*
X18627000Y-15008000D01*
X18602224Y-15010440D01*
X18578399Y-15017667D01*
X18361596Y-15107470D01*
X18339639Y-15119206D01*
X18320394Y-15135000D01*
X17350000Y-16105394D01*
X17334206Y-16124640D01*
X17322470Y-16146596D01*
X17232667Y-16363399D01*
X17225440Y-16387223D01*
X17223000Y-16412000D01*
X17223000Y-16759907D01*
X17196639Y-16696266D01*
X17141483Y-16613718D01*
X17071282Y-16543517D01*
X16988734Y-16488361D01*
X16897011Y-16450368D01*
X16819750Y-16435000D01*
X16897011Y-16419632D01*
X16988734Y-16381639D01*
X17071282Y-16326483D01*
X17141483Y-16256282D01*
X17196639Y-16173734D01*
X17234632Y-16082011D01*
X17254000Y-15984640D01*
X17254000Y-15885360D01*
X17234632Y-15787989D01*
X17196639Y-15696266D01*
X17141483Y-15613718D01*
X17071282Y-15543517D01*
X16988734Y-15488361D01*
X16897011Y-15450368D01*
X16799640Y-15431000D01*
X16700360Y-15431000D01*
X16602989Y-15450368D01*
X16511266Y-15488361D01*
X16428718Y-15543517D01*
X16358517Y-15613718D01*
X16303361Y-15696266D01*
X16265368Y-15787989D01*
X16246000Y-15885360D01*
X16246000Y-15984640D01*
X16265368Y-16082011D01*
X16303361Y-16173734D01*
X16358517Y-16256282D01*
X16428718Y-16326483D01*
X16511266Y-16381639D01*
X16602989Y-16419632D01*
X16680250Y-16435000D01*
X16602989Y-16450368D01*
X16511266Y-16488361D01*
X16428718Y-16543517D01*
X16358517Y-16613718D01*
X16303361Y-16696266D01*
X16265368Y-16787989D01*
X16246000Y-16885360D01*
X16246000Y-16984640D01*
X16265368Y-17082011D01*
X16303361Y-17173734D01*
X16358517Y-17256282D01*
X16428718Y-17326483D01*
X16511266Y-17381639D01*
X16602989Y-17419632D01*
X16680250Y-17435000D01*
X16602989Y-17450368D01*
X16511266Y-17488361D01*
X16428718Y-17543517D01*
X16358517Y-17613718D01*
X16303361Y-17696266D01*
X16265368Y-17787989D01*
X16246000Y-17885360D01*
X16246000Y-17984640D01*
X16265368Y-18082011D01*
X16303361Y-18173734D01*
X16358517Y-18256282D01*
X16428718Y-18326483D01*
X16511266Y-18381639D01*
X16602989Y-18419632D01*
X16680250Y-18435000D01*
X16602989Y-18450368D01*
X16511266Y-18488361D01*
X16428718Y-18543517D01*
X16358517Y-18613718D01*
X16303361Y-18696266D01*
X16265368Y-18787989D01*
X16246000Y-18885360D01*
X16246000Y-18984640D01*
X16265368Y-19082011D01*
X16303361Y-19173734D01*
X16358517Y-19256282D01*
X16428718Y-19326483D01*
X16511266Y-19381639D01*
X16602989Y-19419632D01*
X16700360Y-19439000D01*
X16799640Y-19439000D01*
X16897011Y-19419632D01*
X16988734Y-19381639D01*
X17071282Y-19326483D01*
X17141483Y-19256282D01*
X17196639Y-19173734D01*
X17223000Y-19110093D01*
X17223000Y-21508000D01*
X17225440Y-21532776D01*
X17232667Y-21556601D01*
X17322470Y-21773404D01*
X17334206Y-21795361D01*
X17350000Y-21814606D01*
X18802532Y-23267138D01*
X18873000Y-23437263D01*
X18873000Y-48058000D01*
X17327000Y-48058000D01*
X17327000Y-31312000D01*
X17324560Y-31287224D01*
X17317333Y-31263399D01*
X17227530Y-31046596D01*
X17215794Y-31024639D01*
X17200000Y-31005394D01*
X11147468Y-24952862D01*
X11077000Y-24782737D01*
X11077000Y-21785360D01*
X11396000Y-21785360D01*
X11396000Y-21884640D01*
X11415368Y-21982011D01*
X11453361Y-22073734D01*
X11508517Y-22156282D01*
X11578718Y-22226483D01*
X11661266Y-22281639D01*
X11752989Y-22319632D01*
X11850360Y-22339000D01*
X11949640Y-22339000D01*
X12047011Y-22319632D01*
X12138734Y-22281639D01*
X12221282Y-22226483D01*
X12291483Y-22156282D01*
X12346639Y-22073734D01*
X12384632Y-21982011D01*
X12404000Y-21884640D01*
X12404000Y-21792747D01*
X14321000Y-21792747D01*
X14321000Y-21877253D01*
X14337486Y-21960135D01*
X14369825Y-22038208D01*
X14416774Y-22108472D01*
X14476528Y-22168226D01*
X14546792Y-22215175D01*
X14624865Y-22247514D01*
X14707747Y-22264000D01*
X14792253Y-22264000D01*
X14875135Y-22247514D01*
X14953208Y-22215175D01*
X15023472Y-22168226D01*
X15083226Y-22108472D01*
X15130175Y-22038208D01*
X15162514Y-21960135D01*
X15179000Y-21877253D01*
X15179000Y-21792747D01*
X15162514Y-21709865D01*
X15130175Y-21631792D01*
X15083226Y-21561528D01*
X15023472Y-21501774D01*
X14953208Y-21454825D01*
X14875135Y-21422486D01*
X14792253Y-21406000D01*
X14707747Y-21406000D01*
X14624865Y-21422486D01*
X14546792Y-21454825D01*
X14476528Y-21501774D01*
X14416774Y-21561528D01*
X14369825Y-21631792D01*
X14337486Y-21709865D01*
X14321000Y-21792747D01*
X12404000Y-21792747D01*
X12404000Y-21785360D01*
X12384632Y-21687989D01*
X12346639Y-21596266D01*
X12291483Y-21513718D01*
X12221282Y-21443517D01*
X12138734Y-21388361D01*
X12047011Y-21350368D01*
X11949640Y-21331000D01*
X11850360Y-21331000D01*
X11752989Y-21350368D01*
X11661266Y-21388361D01*
X11578718Y-21443517D01*
X11508517Y-21513718D01*
X11453361Y-21596266D01*
X11415368Y-21687989D01*
X11396000Y-21785360D01*
X11077000Y-21785360D01*
X11077000Y-19885360D01*
X11996000Y-19885360D01*
X11996000Y-19984640D01*
X12015368Y-20082011D01*
X12053361Y-20173734D01*
X12108517Y-20256282D01*
X12178718Y-20326483D01*
X12261266Y-20381639D01*
X12329735Y-20410000D01*
X12261266Y-20438361D01*
X12178718Y-20493517D01*
X12108517Y-20563718D01*
X12053361Y-20646266D01*
X12015368Y-20737989D01*
X11996000Y-20835360D01*
X11996000Y-20934640D01*
X12015368Y-21032011D01*
X12053361Y-21123734D01*
X12108517Y-21206282D01*
X12178718Y-21276483D01*
X12261266Y-21331639D01*
X12352989Y-21369632D01*
X12450360Y-21389000D01*
X12549640Y-21389000D01*
X12647011Y-21369632D01*
X12738734Y-21331639D01*
X12821282Y-21276483D01*
X12891483Y-21206282D01*
X12946639Y-21123734D01*
X12984632Y-21032011D01*
X13004000Y-20934640D01*
X13004000Y-20835360D01*
X12984632Y-20737989D01*
X12946639Y-20646266D01*
X12891483Y-20563718D01*
X12821282Y-20493517D01*
X12738734Y-20438361D01*
X12670265Y-20410000D01*
X12738734Y-20381639D01*
X12821282Y-20326483D01*
X12891483Y-20256282D01*
X12946639Y-20173734D01*
X12984632Y-20082011D01*
X13004000Y-19984640D01*
X13004000Y-19885360D01*
X12984632Y-19787989D01*
X12946639Y-19696266D01*
X12891483Y-19613718D01*
X12821282Y-19543517D01*
X12738734Y-19488361D01*
X12647011Y-19450368D01*
X12549640Y-19431000D01*
X12450360Y-19431000D01*
X12352989Y-19450368D01*
X12261266Y-19488361D01*
X12178718Y-19543517D01*
X12108517Y-19613718D01*
X12053361Y-19696266D01*
X12015368Y-19787989D01*
X11996000Y-19885360D01*
X11077000Y-19885360D01*
X11077000Y-13242747D01*
X11321000Y-13242747D01*
X11321000Y-13327253D01*
X11337486Y-13410135D01*
X11369825Y-13488208D01*
X11416774Y-13558472D01*
X11476528Y-13618226D01*
X11546792Y-13665175D01*
X11624865Y-13697514D01*
X11707747Y-13714000D01*
X11792253Y-13714000D01*
X11875135Y-13697514D01*
X11953208Y-13665175D01*
X12023472Y-13618226D01*
X12056338Y-13585360D01*
X12696000Y-13585360D01*
X12696000Y-13684640D01*
X12715368Y-13782011D01*
X12753361Y-13873734D01*
X12808517Y-13956282D01*
X12878718Y-14026483D01*
X12961266Y-14081639D01*
X13052989Y-14119632D01*
X13150360Y-14139000D01*
X13249640Y-14139000D01*
X13347011Y-14119632D01*
X13438734Y-14081639D01*
X13521282Y-14026483D01*
X13591483Y-13956282D01*
X13646639Y-13873734D01*
X13684632Y-13782011D01*
X13704000Y-13684640D01*
X13704000Y-13635360D01*
X13996000Y-13635360D01*
X13996000Y-13734640D01*
X14015368Y-13832011D01*
X14053361Y-13923734D01*
X14108517Y-14006282D01*
X14178718Y-14076483D01*
X14261266Y-14131639D01*
X14352989Y-14169632D01*
X14450360Y-14189000D01*
X14549640Y-14189000D01*
X14647011Y-14169632D01*
X14738734Y-14131639D01*
X14821282Y-14076483D01*
X14891483Y-14006282D01*
X14946639Y-13923734D01*
X14984632Y-13832011D01*
X15004000Y-13734640D01*
X15004000Y-13635360D01*
X14984632Y-13537989D01*
X14946639Y-13446266D01*
X14891483Y-13363718D01*
X14821282Y-13293517D01*
X14738734Y-13238361D01*
X14647011Y-13200368D01*
X14549640Y-13181000D01*
X14450360Y-13181000D01*
X14352989Y-13200368D01*
X14261266Y-13238361D01*
X14178718Y-13293517D01*
X14108517Y-13363718D01*
X14053361Y-13446266D01*
X14015368Y-13537989D01*
X13996000Y-13635360D01*
X13704000Y-13635360D01*
X13704000Y-13585360D01*
X13684632Y-13487989D01*
X13646639Y-13396266D01*
X13591483Y-13313718D01*
X13521282Y-13243517D01*
X13438734Y-13188361D01*
X13347011Y-13150368D01*
X13249640Y-13131000D01*
X13150360Y-13131000D01*
X13052989Y-13150368D01*
X12961266Y-13188361D01*
X12878718Y-13243517D01*
X12808517Y-13313718D01*
X12753361Y-13396266D01*
X12715368Y-13487989D01*
X12696000Y-13585360D01*
X12056338Y-13585360D01*
X12083226Y-13558472D01*
X12130175Y-13488208D01*
X12162514Y-13410135D01*
X12179000Y-13327253D01*
X12179000Y-13242747D01*
X12162514Y-13159865D01*
X12130175Y-13081792D01*
X12083226Y-13011528D01*
X12023472Y-12951774D01*
X11953208Y-12904825D01*
X11875135Y-12872486D01*
X11792253Y-12856000D01*
X11707747Y-12856000D01*
X11624865Y-12872486D01*
X11546792Y-12904825D01*
X11476528Y-12951774D01*
X11416774Y-13011528D01*
X11369825Y-13081792D01*
X11337486Y-13159865D01*
X11321000Y-13242747D01*
X11077000Y-13242747D01*
X11077000Y-1687263D01*
X11147468Y-1517138D01*
X16275606Y3611000D01*
X18941235Y3611000D01*
X18978718Y3573517D01*
X19061266Y3518361D01*
X19152989Y3480368D01*
X19250360Y3461000D01*
X19349640Y3461000D01*
X19447011Y3480368D01*
X19538734Y3518361D01*
X19621282Y3573517D01*
X19691483Y3643718D01*
X19746639Y3726266D01*
X19784632Y3817989D01*
X19804000Y3915360D01*
X19804000Y4014640D01*
X21396000Y4014640D01*
X21396000Y3915360D01*
X21415368Y3817989D01*
X21453361Y3726266D01*
X21508517Y3643718D01*
X21578718Y3573517D01*
X21661266Y3518361D01*
X21752989Y3480368D01*
X21850360Y3461000D01*
X21949640Y3461000D01*
X22047011Y3480368D01*
X22138734Y3518361D01*
X22221282Y3573517D01*
X22291483Y3643718D01*
X22346639Y3726266D01*
X22384632Y3817989D01*
X22404000Y3915360D01*
X22404000Y4014640D01*
X22384632Y4112011D01*
X22346639Y4203734D01*
X22291483Y4286282D01*
X22221282Y4356483D01*
X22138734Y4411639D01*
X22047011Y4449632D01*
X21949640Y4469000D01*
X21850360Y4469000D01*
X21752989Y4449632D01*
X21661266Y4411639D01*
X21578718Y4356483D01*
X21508517Y4286282D01*
X21453361Y4203734D01*
X21415368Y4112011D01*
X21396000Y4014640D01*
X19804000Y4014640D01*
X19784632Y4112011D01*
X19746639Y4203734D01*
X19691483Y4286282D01*
X19621282Y4356483D01*
X19538734Y4411639D01*
X19447011Y4449632D01*
X19349640Y4469000D01*
X19250360Y4469000D01*
X19152989Y4449632D01*
X19061266Y4411639D01*
X18978718Y4356483D01*
X18941235Y4319000D01*
X16983606Y4319000D01*
X18309606Y5645000D01*
X26284772Y5645000D01*
X26284772Y4545000D01*
X26289676Y4495207D01*
X26304200Y4447328D01*
X26327786Y4403203D01*
X26359527Y4364527D01*
X26398203Y4332786D01*
X26442328Y4309200D01*
X26490207Y4294676D01*
X26540000Y4289772D01*
X27640000Y4289772D01*
X27689793Y4294676D01*
X27737672Y4309200D01*
X27781797Y4332786D01*
X27820473Y4364527D01*
X27852214Y4403203D01*
X27875800Y4447328D01*
X27890324Y4495207D01*
X27895228Y4545000D01*
X27895228Y5645000D01*
X27890324Y5694793D01*
X27875800Y5742672D01*
X27852214Y5786797D01*
X27820473Y5825473D01*
X27781797Y5857214D01*
X27737672Y5880800D01*
X27689793Y5895324D01*
X27640000Y5900228D01*
X26540000Y5900228D01*
X26490207Y5895324D01*
X26442328Y5880800D01*
X26398203Y5857214D01*
X26359527Y5825473D01*
X26327786Y5786797D01*
X26304200Y5742672D01*
X26289676Y5694793D01*
X26284772Y5645000D01*
X18309606Y5645000D01*
X19168401Y6503795D01*
X19196792Y6484825D01*
X19274865Y6452486D01*
X19357747Y6436000D01*
X19442253Y6436000D01*
X19525135Y6452486D01*
X19603208Y6484825D01*
X19673472Y6531774D01*
X19733226Y6591528D01*
X19780175Y6661792D01*
X19812514Y6739865D01*
X19829000Y6822747D01*
X19829000Y6907253D01*
X19812514Y6990135D01*
X19780175Y7068208D01*
X19761205Y7096599D01*
X20832138Y8167532D01*
X21002263Y8238000D01*
X26773000Y8238000D01*
X26797776Y8240440D01*
X26821601Y8247667D01*
X27038404Y8337470D01*
X27060361Y8349206D01*
X27079606Y8365000D01*
X27350000Y8635394D01*
X27365794Y8654640D01*
X27377530Y8676596D01*
X27467333Y8893399D01*
X27474560Y8917223D01*
X27477000Y8942000D01*
X27477000Y28561000D01*
X41173000Y28561000D01*
X41173000Y12017263D01*
G37*
X41173000Y12017263D02*
X41102532Y11847138D01*
X37617862Y8362468D01*
X37447737Y8292000D01*
X31927000Y8292000D01*
X31902224Y8289560D01*
X31878399Y8282333D01*
X31661596Y8192530D01*
X31639639Y8180794D01*
X31620394Y8165000D01*
X30840201Y7384807D01*
X30802495Y7475837D01*
X30714507Y7607520D01*
X30602520Y7719507D01*
X30470837Y7807495D01*
X30324518Y7868103D01*
X30169187Y7899000D01*
X30010813Y7899000D01*
X29855482Y7868103D01*
X29709163Y7807495D01*
X29577480Y7719507D01*
X29465493Y7607520D01*
X29377505Y7475837D01*
X29316897Y7329518D01*
X29286000Y7174187D01*
X29286000Y7015813D01*
X29316897Y6860482D01*
X29377505Y6714163D01*
X29465493Y6582480D01*
X29577480Y6470493D01*
X29709163Y6382505D01*
X29855482Y6321897D01*
X30010813Y6291000D01*
X30169187Y6291000D01*
X30324518Y6321897D01*
X30470837Y6382505D01*
X30602520Y6470493D01*
X30623000Y6490973D01*
X30623000Y5749923D01*
X30577480Y5719507D01*
X30465493Y5607520D01*
X30377505Y5475837D01*
X30316897Y5329518D01*
X30286000Y5174187D01*
X30286000Y5015813D01*
X30316897Y4860482D01*
X30377505Y4714163D01*
X30465493Y4582480D01*
X30577480Y4470493D01*
X30623000Y4440077D01*
X30623000Y3249923D01*
X30577480Y3219507D01*
X30465493Y3107520D01*
X30377505Y2975837D01*
X30316897Y2829518D01*
X30286000Y2674187D01*
X30286000Y2515813D01*
X30316897Y2360482D01*
X30377505Y2214163D01*
X30465493Y2082480D01*
X30577480Y1970493D01*
X30623000Y1940077D01*
X30623000Y1199027D01*
X30602520Y1219507D01*
X30470837Y1307495D01*
X30324518Y1368103D01*
X30169187Y1399000D01*
X30010813Y1399000D01*
X29855482Y1368103D01*
X29709163Y1307495D01*
X29577480Y1219507D01*
X29465493Y1107520D01*
X29377505Y975837D01*
X29316897Y829518D01*
X29286000Y674187D01*
X29286000Y515813D01*
X29316897Y360482D01*
X29377505Y214163D01*
X29465493Y82480D01*
X29577480Y-29507D01*
X29709163Y-117495D01*
X29855482Y-178103D01*
X30010813Y-209000D01*
X30169187Y-209000D01*
X30324518Y-178103D01*
X30470837Y-117495D01*
X30602520Y-29507D01*
X30623000Y-9027D01*
X30623000Y-1682737D01*
X30552532Y-1852862D01*
X30067862Y-2337532D01*
X29897737Y-2408000D01*
X24520711Y-2408000D01*
X24495935Y-2410440D01*
X24472110Y-2417667D01*
X24351399Y-2467667D01*
X24329443Y-2479403D01*
X24310198Y-2495197D01*
X24294403Y-2514442D01*
X24282667Y-2536399D01*
X24232667Y-2657110D01*
X24225440Y-2680935D01*
X24223000Y-2705711D01*
X24223000Y-12382737D01*
X24152532Y-12552862D01*
X21767862Y-14937532D01*
X21597737Y-15008000D01*
X18627000Y-15008000D01*
X18602224Y-15010440D01*
X18578399Y-15017667D01*
X18361596Y-15107470D01*
X18339639Y-15119206D01*
X18320394Y-15135000D01*
X17350000Y-16105394D01*
X17334206Y-16124640D01*
X17322470Y-16146596D01*
X17232667Y-16363399D01*
X17225440Y-16387223D01*
X17223000Y-16412000D01*
X17223000Y-16759907D01*
X17196639Y-16696266D01*
X17141483Y-16613718D01*
X17071282Y-16543517D01*
X16988734Y-16488361D01*
X16897011Y-16450368D01*
X16819750Y-16435000D01*
X16897011Y-16419632D01*
X16988734Y-16381639D01*
X17071282Y-16326483D01*
X17141483Y-16256282D01*
X17196639Y-16173734D01*
X17234632Y-16082011D01*
X17254000Y-15984640D01*
X17254000Y-15885360D01*
X17234632Y-15787989D01*
X17196639Y-15696266D01*
X17141483Y-15613718D01*
X17071282Y-15543517D01*
X16988734Y-15488361D01*
X16897011Y-15450368D01*
X16799640Y-15431000D01*
X16700360Y-15431000D01*
X16602989Y-15450368D01*
X16511266Y-15488361D01*
X16428718Y-15543517D01*
X16358517Y-15613718D01*
X16303361Y-15696266D01*
X16265368Y-15787989D01*
X16246000Y-15885360D01*
X16246000Y-15984640D01*
X16265368Y-16082011D01*
X16303361Y-16173734D01*
X16358517Y-16256282D01*
X16428718Y-16326483D01*
X16511266Y-16381639D01*
X16602989Y-16419632D01*
X16680250Y-16435000D01*
X16602989Y-16450368D01*
X16511266Y-16488361D01*
X16428718Y-16543517D01*
X16358517Y-16613718D01*
X16303361Y-16696266D01*
X16265368Y-16787989D01*
X16246000Y-16885360D01*
X16246000Y-16984640D01*
X16265368Y-17082011D01*
X16303361Y-17173734D01*
X16358517Y-17256282D01*
X16428718Y-17326483D01*
X16511266Y-17381639D01*
X16602989Y-17419632D01*
X16680250Y-17435000D01*
X16602989Y-17450368D01*
X16511266Y-17488361D01*
X16428718Y-17543517D01*
X16358517Y-17613718D01*
X16303361Y-17696266D01*
X16265368Y-17787989D01*
X16246000Y-17885360D01*
X16246000Y-17984640D01*
X16265368Y-18082011D01*
X16303361Y-18173734D01*
X16358517Y-18256282D01*
X16428718Y-18326483D01*
X16511266Y-18381639D01*
X16602989Y-18419632D01*
X16680250Y-18435000D01*
X16602989Y-18450368D01*
X16511266Y-18488361D01*
X16428718Y-18543517D01*
X16358517Y-18613718D01*
X16303361Y-18696266D01*
X16265368Y-18787989D01*
X16246000Y-18885360D01*
X16246000Y-18984640D01*
X16265368Y-19082011D01*
X16303361Y-19173734D01*
X16358517Y-19256282D01*
X16428718Y-19326483D01*
X16511266Y-19381639D01*
X16602989Y-19419632D01*
X16700360Y-19439000D01*
X16799640Y-19439000D01*
X16897011Y-19419632D01*
X16988734Y-19381639D01*
X17071282Y-19326483D01*
X17141483Y-19256282D01*
X17196639Y-19173734D01*
X17223000Y-19110093D01*
X17223000Y-21508000D01*
X17225440Y-21532776D01*
X17232667Y-21556601D01*
X17322470Y-21773404D01*
X17334206Y-21795361D01*
X17350000Y-21814606D01*
X18802532Y-23267138D01*
X18873000Y-23437263D01*
X18873000Y-48058000D01*
X17327000Y-48058000D01*
X17327000Y-31312000D01*
X17324560Y-31287224D01*
X17317333Y-31263399D01*
X17227530Y-31046596D01*
X17215794Y-31024639D01*
X17200000Y-31005394D01*
X11147468Y-24952862D01*
X11077000Y-24782737D01*
X11077000Y-21785360D01*
X11396000Y-21785360D01*
X11396000Y-21884640D01*
X11415368Y-21982011D01*
X11453361Y-22073734D01*
X11508517Y-22156282D01*
X11578718Y-22226483D01*
X11661266Y-22281639D01*
X11752989Y-22319632D01*
X11850360Y-22339000D01*
X11949640Y-22339000D01*
X12047011Y-22319632D01*
X12138734Y-22281639D01*
X12221282Y-22226483D01*
X12291483Y-22156282D01*
X12346639Y-22073734D01*
X12384632Y-21982011D01*
X12404000Y-21884640D01*
X12404000Y-21792747D01*
X14321000Y-21792747D01*
X14321000Y-21877253D01*
X14337486Y-21960135D01*
X14369825Y-22038208D01*
X14416774Y-22108472D01*
X14476528Y-22168226D01*
X14546792Y-22215175D01*
X14624865Y-22247514D01*
X14707747Y-22264000D01*
X14792253Y-22264000D01*
X14875135Y-22247514D01*
X14953208Y-22215175D01*
X15023472Y-22168226D01*
X15083226Y-22108472D01*
X15130175Y-22038208D01*
X15162514Y-21960135D01*
X15179000Y-21877253D01*
X15179000Y-21792747D01*
X15162514Y-21709865D01*
X15130175Y-21631792D01*
X15083226Y-21561528D01*
X15023472Y-21501774D01*
X14953208Y-21454825D01*
X14875135Y-21422486D01*
X14792253Y-21406000D01*
X14707747Y-21406000D01*
X14624865Y-21422486D01*
X14546792Y-21454825D01*
X14476528Y-21501774D01*
X14416774Y-21561528D01*
X14369825Y-21631792D01*
X14337486Y-21709865D01*
X14321000Y-21792747D01*
X12404000Y-21792747D01*
X12404000Y-21785360D01*
X12384632Y-21687989D01*
X12346639Y-21596266D01*
X12291483Y-21513718D01*
X12221282Y-21443517D01*
X12138734Y-21388361D01*
X12047011Y-21350368D01*
X11949640Y-21331000D01*
X11850360Y-21331000D01*
X11752989Y-21350368D01*
X11661266Y-21388361D01*
X11578718Y-21443517D01*
X11508517Y-21513718D01*
X11453361Y-21596266D01*
X11415368Y-21687989D01*
X11396000Y-21785360D01*
X11077000Y-21785360D01*
X11077000Y-19885360D01*
X11996000Y-19885360D01*
X11996000Y-19984640D01*
X12015368Y-20082011D01*
X12053361Y-20173734D01*
X12108517Y-20256282D01*
X12178718Y-20326483D01*
X12261266Y-20381639D01*
X12329735Y-20410000D01*
X12261266Y-20438361D01*
X12178718Y-20493517D01*
X12108517Y-20563718D01*
X12053361Y-20646266D01*
X12015368Y-20737989D01*
X11996000Y-20835360D01*
X11996000Y-20934640D01*
X12015368Y-21032011D01*
X12053361Y-21123734D01*
X12108517Y-21206282D01*
X12178718Y-21276483D01*
X12261266Y-21331639D01*
X12352989Y-21369632D01*
X12450360Y-21389000D01*
X12549640Y-21389000D01*
X12647011Y-21369632D01*
X12738734Y-21331639D01*
X12821282Y-21276483D01*
X12891483Y-21206282D01*
X12946639Y-21123734D01*
X12984632Y-21032011D01*
X13004000Y-20934640D01*
X13004000Y-20835360D01*
X12984632Y-20737989D01*
X12946639Y-20646266D01*
X12891483Y-20563718D01*
X12821282Y-20493517D01*
X12738734Y-20438361D01*
X12670265Y-20410000D01*
X12738734Y-20381639D01*
X12821282Y-20326483D01*
X12891483Y-20256282D01*
X12946639Y-20173734D01*
X12984632Y-20082011D01*
X13004000Y-19984640D01*
X13004000Y-19885360D01*
X12984632Y-19787989D01*
X12946639Y-19696266D01*
X12891483Y-19613718D01*
X12821282Y-19543517D01*
X12738734Y-19488361D01*
X12647011Y-19450368D01*
X12549640Y-19431000D01*
X12450360Y-19431000D01*
X12352989Y-19450368D01*
X12261266Y-19488361D01*
X12178718Y-19543517D01*
X12108517Y-19613718D01*
X12053361Y-19696266D01*
X12015368Y-19787989D01*
X11996000Y-19885360D01*
X11077000Y-19885360D01*
X11077000Y-13242747D01*
X11321000Y-13242747D01*
X11321000Y-13327253D01*
X11337486Y-13410135D01*
X11369825Y-13488208D01*
X11416774Y-13558472D01*
X11476528Y-13618226D01*
X11546792Y-13665175D01*
X11624865Y-13697514D01*
X11707747Y-13714000D01*
X11792253Y-13714000D01*
X11875135Y-13697514D01*
X11953208Y-13665175D01*
X12023472Y-13618226D01*
X12056338Y-13585360D01*
X12696000Y-13585360D01*
X12696000Y-13684640D01*
X12715368Y-13782011D01*
X12753361Y-13873734D01*
X12808517Y-13956282D01*
X12878718Y-14026483D01*
X12961266Y-14081639D01*
X13052989Y-14119632D01*
X13150360Y-14139000D01*
X13249640Y-14139000D01*
X13347011Y-14119632D01*
X13438734Y-14081639D01*
X13521282Y-14026483D01*
X13591483Y-13956282D01*
X13646639Y-13873734D01*
X13684632Y-13782011D01*
X13704000Y-13684640D01*
X13704000Y-13635360D01*
X13996000Y-13635360D01*
X13996000Y-13734640D01*
X14015368Y-13832011D01*
X14053361Y-13923734D01*
X14108517Y-14006282D01*
X14178718Y-14076483D01*
X14261266Y-14131639D01*
X14352989Y-14169632D01*
X14450360Y-14189000D01*
X14549640Y-14189000D01*
X14647011Y-14169632D01*
X14738734Y-14131639D01*
X14821282Y-14076483D01*
X14891483Y-14006282D01*
X14946639Y-13923734D01*
X14984632Y-13832011D01*
X15004000Y-13734640D01*
X15004000Y-13635360D01*
X14984632Y-13537989D01*
X14946639Y-13446266D01*
X14891483Y-13363718D01*
X14821282Y-13293517D01*
X14738734Y-13238361D01*
X14647011Y-13200368D01*
X14549640Y-13181000D01*
X14450360Y-13181000D01*
X14352989Y-13200368D01*
X14261266Y-13238361D01*
X14178718Y-13293517D01*
X14108517Y-13363718D01*
X14053361Y-13446266D01*
X14015368Y-13537989D01*
X13996000Y-13635360D01*
X13704000Y-13635360D01*
X13704000Y-13585360D01*
X13684632Y-13487989D01*
X13646639Y-13396266D01*
X13591483Y-13313718D01*
X13521282Y-13243517D01*
X13438734Y-13188361D01*
X13347011Y-13150368D01*
X13249640Y-13131000D01*
X13150360Y-13131000D01*
X13052989Y-13150368D01*
X12961266Y-13188361D01*
X12878718Y-13243517D01*
X12808517Y-13313718D01*
X12753361Y-13396266D01*
X12715368Y-13487989D01*
X12696000Y-13585360D01*
X12056338Y-13585360D01*
X12083226Y-13558472D01*
X12130175Y-13488208D01*
X12162514Y-13410135D01*
X12179000Y-13327253D01*
X12179000Y-13242747D01*
X12162514Y-13159865D01*
X12130175Y-13081792D01*
X12083226Y-13011528D01*
X12023472Y-12951774D01*
X11953208Y-12904825D01*
X11875135Y-12872486D01*
X11792253Y-12856000D01*
X11707747Y-12856000D01*
X11624865Y-12872486D01*
X11546792Y-12904825D01*
X11476528Y-12951774D01*
X11416774Y-13011528D01*
X11369825Y-13081792D01*
X11337486Y-13159865D01*
X11321000Y-13242747D01*
X11077000Y-13242747D01*
X11077000Y-1687263D01*
X11147468Y-1517138D01*
X16275606Y3611000D01*
X18941235Y3611000D01*
X18978718Y3573517D01*
X19061266Y3518361D01*
X19152989Y3480368D01*
X19250360Y3461000D01*
X19349640Y3461000D01*
X19447011Y3480368D01*
X19538734Y3518361D01*
X19621282Y3573517D01*
X19691483Y3643718D01*
X19746639Y3726266D01*
X19784632Y3817989D01*
X19804000Y3915360D01*
X19804000Y4014640D01*
X21396000Y4014640D01*
X21396000Y3915360D01*
X21415368Y3817989D01*
X21453361Y3726266D01*
X21508517Y3643718D01*
X21578718Y3573517D01*
X21661266Y3518361D01*
X21752989Y3480368D01*
X21850360Y3461000D01*
X21949640Y3461000D01*
X22047011Y3480368D01*
X22138734Y3518361D01*
X22221282Y3573517D01*
X22291483Y3643718D01*
X22346639Y3726266D01*
X22384632Y3817989D01*
X22404000Y3915360D01*
X22404000Y4014640D01*
X22384632Y4112011D01*
X22346639Y4203734D01*
X22291483Y4286282D01*
X22221282Y4356483D01*
X22138734Y4411639D01*
X22047011Y4449632D01*
X21949640Y4469000D01*
X21850360Y4469000D01*
X21752989Y4449632D01*
X21661266Y4411639D01*
X21578718Y4356483D01*
X21508517Y4286282D01*
X21453361Y4203734D01*
X21415368Y4112011D01*
X21396000Y4014640D01*
X19804000Y4014640D01*
X19784632Y4112011D01*
X19746639Y4203734D01*
X19691483Y4286282D01*
X19621282Y4356483D01*
X19538734Y4411639D01*
X19447011Y4449632D01*
X19349640Y4469000D01*
X19250360Y4469000D01*
X19152989Y4449632D01*
X19061266Y4411639D01*
X18978718Y4356483D01*
X18941235Y4319000D01*
X16983606Y4319000D01*
X18309606Y5645000D01*
X26284772Y5645000D01*
X26284772Y4545000D01*
X26289676Y4495207D01*
X26304200Y4447328D01*
X26327786Y4403203D01*
X26359527Y4364527D01*
X26398203Y4332786D01*
X26442328Y4309200D01*
X26490207Y4294676D01*
X26540000Y4289772D01*
X27640000Y4289772D01*
X27689793Y4294676D01*
X27737672Y4309200D01*
X27781797Y4332786D01*
X27820473Y4364527D01*
X27852214Y4403203D01*
X27875800Y4447328D01*
X27890324Y4495207D01*
X27895228Y4545000D01*
X27895228Y5645000D01*
X27890324Y5694793D01*
X27875800Y5742672D01*
X27852214Y5786797D01*
X27820473Y5825473D01*
X27781797Y5857214D01*
X27737672Y5880800D01*
X27689793Y5895324D01*
X27640000Y5900228D01*
X26540000Y5900228D01*
X26490207Y5895324D01*
X26442328Y5880800D01*
X26398203Y5857214D01*
X26359527Y5825473D01*
X26327786Y5786797D01*
X26304200Y5742672D01*
X26289676Y5694793D01*
X26284772Y5645000D01*
X18309606Y5645000D01*
X19168401Y6503795D01*
X19196792Y6484825D01*
X19274865Y6452486D01*
X19357747Y6436000D01*
X19442253Y6436000D01*
X19525135Y6452486D01*
X19603208Y6484825D01*
X19673472Y6531774D01*
X19733226Y6591528D01*
X19780175Y6661792D01*
X19812514Y6739865D01*
X19829000Y6822747D01*
X19829000Y6907253D01*
X19812514Y6990135D01*
X19780175Y7068208D01*
X19761205Y7096599D01*
X20832138Y8167532D01*
X21002263Y8238000D01*
X26773000Y8238000D01*
X26797776Y8240440D01*
X26821601Y8247667D01*
X27038404Y8337470D01*
X27060361Y8349206D01*
X27079606Y8365000D01*
X27350000Y8635394D01*
X27365794Y8654640D01*
X27377530Y8676596D01*
X27467333Y8893399D01*
X27474560Y8917223D01*
X27477000Y8942000D01*
X27477000Y28561000D01*
X41173000Y28561000D01*
X41173000Y12017263D01*
%TD*%
M02*
