M48
;DRILL file {KiCad (5.0.1)-3} date 13/09/2019 18:11:04
;FORMAT={-:-/ absolute / metric / decimal}
FMAT,2
METRIC,TZ
T1C0.300
T2C0.400
T3C1.800
T4C1.850
T5C4.200
T6C5.000
%
G90
G05
M71
T1
X72.Y1.002
X60.Y87.702
X57.Y-0.748
X51.Y1.002
X90.Y1.002
X96.Y52.002
X117.Y1.002
X120.Y52.002
X105.Y87.702
X105.Y50.302
X108.Y52.002
X126.Y87.702
X129.Y50.302
X63.Y2.752
X102.Y87.702
X120.Y4.502
X45.Y2.752
X66.Y2.752
X51.Y4.502
X81.Y-0.748
X114.Y2.752
X102.Y4.502
X111.Y-0.748
X90.Y4.502
X102.Y-0.748
X120.Y86.002
X57.Y52.002
X93.Y86.002
X90.Y50.302
X126.Y-0.748
X102.Y86.002
X93.Y50.302
X48.Y87.702
X99.Y50.302
X129.Y86.002
X78.Y1.002
X72.Y87.702
X108.Y1.002
X57.Y1.002
X69.Y1.002
X99.Y52.002
X45.Y-0.748
X132.Y52.002
X108.Y87.702
X114.Y50.302
X90.Y52.002
X120.Y2.752
X69.Y86.002
X75.Y2.752
X120.Y87.702
X108.Y2.752
X63.Y4.502
X72.Y2.752
X111.Y4.502
X126.Y2.752
X81.Y4.502
X108.Y-0.748
X111.Y2.752
X54.Y4.502
X96.Y-0.748
X66.Y4.502
X72.Y86.002
X75.Y52.002
X81.Y86.002
X96.Y50.302
X129.Y-0.748
X117.Y86.002
X72.Y50.302
X69.Y87.702
X54.Y50.302
X45.Y87.702
X81.Y1.002
X63.Y87.702
X120.Y1.002
X60.Y1.002
X87.Y1.002
X102.Y52.002
X51.Y-0.748
X48.Y50.302
X114.Y87.702
X117.Y50.302
X93.Y52.002
X51.Y2.752
X96.Y87.702
X57.Y86.002
X99.Y2.752
X111.Y87.702
X57.Y2.752
X72.Y4.502
X81.Y2.752
X78.Y2.752
X57.Y4.502
X90.Y-0.748
X78.Y4.502
X114.Y-0.748
X69.Y4.502
X111.Y86.002
X78.Y52.002
X84.Y86.002
X81.Y50.302
X132.Y-0.748
X45.Y52.002
X105.Y86.002
X63.Y50.302
X78.Y87.702
X60.Y50.302
X51.Y87.702
X93.Y1.002
X66.Y87.702
X111.Y1.002
X84.Y1.002
X75.Y1.002
X105.Y52.002
X60.Y-0.748
X60.Y86.002
X126.Y52.002
X117.Y87.702
X132.Y50.302
X111.Y52.002
X117.Y2.752
X99.Y87.702
X123.Y50.302
X45.Y1.002
X132.Y87.702
X123.Y4.502
X84.Y4.502
X96.Y2.752
X87.Y2.752
X69.Y-0.748
X87.Y4.502
X78.Y-0.748
X60.Y52.002
X114.Y86.002
X123.Y-0.748
X90.Y86.002
X66.Y50.302
X72.Y52.002
X51.Y50.302
X81.Y87.702
X66.Y1.002
X87.Y87.702
X102.Y1.002
X54.Y-0.748
X129.Y1.002
X99.Y1.002
X114.Y52.002
X63.Y-0.748
X63.Y86.002
X123.Y52.002
X54.Y86.002
X129.Y2.752
X129.Y87.702
X111.Y50.302
X123.Y2.752
X60.Y4.502
X126.Y4.502
X108.Y4.502
X132.Y2.752
X48.Y4.502
X87.Y-0.748
X93.Y2.752
X75.Y-0.748
X96.Y4.502
X66.Y-0.748
X48.Y52.002
X108.Y86.002
X63.Y52.002
X123.Y86.002
X78.Y50.302
X66.Y52.002
X45.Y86.002
X102.Y50.302
X126.Y86.002
X48.Y1.002
X57.Y87.702
X123.Y1.002
X96.Y1.002
X54.Y1.002
X114.Y1.002
X117.Y52.002
X48.Y86.002
X45.Y50.302
X108.Y50.302
X60.Y2.752
X90.Y87.702
X120.Y50.302
X90.Y2.752
X93.Y4.502
X129.Y4.502
X54.Y2.752
X93.Y-0.748
X102.Y2.752
X114.Y4.502
X84.Y-0.748
X117.Y4.502
X117.Y-0.748
X51.Y52.002
X75.Y86.002
X69.Y52.002
X96.Y86.002
X84.Y50.302
X81.Y52.002
X57.Y50.302
X132.Y86.002
X48.Y-0.748
X54.Y87.702
X105.Y1.002
X132.Y1.002
X63.Y1.002
X126.Y1.002
X129.Y52.002
X66.Y86.002
X87.Y52.002
X123.Y87.702
X126.Y50.302
X48.Y2.752
X93.Y87.702
X51.Y86.002
X105.Y2.752
X132.Y4.502
X99.Y4.502
X69.Y2.752
X45.Y4.502
X72.Y-0.748
X84.Y2.752
X75.Y4.502
X105.Y-0.748
X105.Y4.502
X99.Y-0.748
X87.Y86.002
X54.Y52.002
X78.Y86.002
X69.Y50.302
X120.Y-0.748
X99.Y86.002
X87.Y50.302
X75.Y87.702
X84.Y52.002
X75.Y50.302
X84.Y87.702
T2
X37.419Y49.759
T3
X6.1Y79.002
X6.1Y74.802
X6.1Y70.602
X6.1Y66.402
X10.3Y79.002
X10.3Y74.802
X10.3Y70.602
X10.3Y66.402
X25.7Y79.002
X25.7Y74.802
X25.7Y70.602
X25.7Y66.402
X29.9Y79.002
X29.9Y74.802
X29.9Y70.602
X29.9Y66.402
T4
X5.9Y48.802
X5.9Y44.602
X5.9Y40.402
X10.1Y48.802
X10.1Y44.602
X10.1Y40.402
X5.9Y19.97
X5.9Y15.77
X5.9Y11.57
X10.1Y19.97
X10.1Y15.77
X10.1Y11.57
X25.9Y48.802
X25.9Y44.602
X25.9Y40.402
X30.1Y48.802
X30.1Y44.602
X30.1Y40.402
X25.9Y19.97
X25.9Y15.77
X25.9Y11.57
X30.1Y19.97
X30.1Y15.77
X30.1Y11.57
T5
X140.Y90.002
X0.Y90.002
X140.Y0.002
X0.Y0.002
T6
X72.5Y68.832
X112.5Y68.832
X70.Y21.332
X110.Y21.332
T0
M30
