M48
;DRILL file {KiCad (5.0.1)-3} date 01/07/2020 10:05:24
;FORMAT={-:-/ absolute / metric / decimal}
FMAT,2
METRIC,TZ
T1C0.300
T2C0.800
T3C1.092
T4C1.850
T5C3.200
T6C4.000
%
G90
G05
M71
T1
X48.258Y35.97
X15.046Y13.495
X15.046Y5.495
X15.046Y9.495
X15.046Y7.495
X44.258Y31.97
X40.258Y33.97
X46.258Y27.97
X44.258Y33.97
X42.258Y31.97
X13.046Y13.495
X17.046Y13.495
X13.046Y11.495
X17.046Y11.495
X40.258Y27.97
X42.258Y33.97
X48.258Y27.97
X48.258Y31.97
X9.046Y11.495
X13.046Y9.495
X9.046Y9.495
X46.258Y31.97
X46.258Y33.97
X40.258Y29.97
X11.046Y11.495
X40.258Y35.97
X15.046Y11.495
X17.046Y9.495
X46.258Y29.97
X42.258Y35.97
X40.258Y31.97
X48.258Y29.97
X9.046Y13.495
X9.046Y5.495
X17.046Y7.495
X13.046Y5.495
X44.258Y35.97
X42.258Y29.97
X11.046Y5.495
X9.046Y7.495
X11.046Y7.495
X42.258Y27.97
X48.258Y33.97
X44.258Y29.97
X11.046Y13.495
X17.046Y5.495
X11.046Y9.495
X13.046Y7.495
X46.258Y35.97
X44.258Y27.97
T2
X33.198Y31.344
T3
X27.364Y72.189
X27.364Y69.649
X27.364Y67.109
X27.364Y64.569
X29.904Y72.189
X29.904Y69.649
X29.904Y67.109
X29.904Y64.569
X34.984Y72.189
X34.984Y69.649
X34.984Y67.109
X34.984Y64.569
X37.524Y72.189
X37.524Y69.649
X37.524Y67.109
X37.524Y64.569
X42.604Y72.189
X42.604Y69.649
X42.604Y67.109
X42.604Y64.569
X45.144Y72.189
X45.144Y69.649
X45.144Y67.109
X45.144Y64.569
T4
X68.4Y29.299
X68.4Y25.099
X72.6Y29.299
X72.6Y25.099
X-0.1Y33.799
X-0.1Y29.599
X-0.1Y25.399
X-0.1Y21.199
X4.1Y33.799
X4.1Y29.599
X4.1Y25.399
X4.1Y21.199
X68.4Y48.299
X68.4Y44.099
X72.6Y48.299
X72.6Y44.099
X3.2Y52.099
X3.2Y47.899
X7.4Y52.099
X7.4Y47.899
X11.6Y52.099
X11.6Y47.899
X15.8Y52.099
X15.8Y47.899
X20.Y52.099
X20.Y47.899
X24.2Y52.099
X24.2Y47.899
X28.4Y52.099
X28.4Y47.899
X32.6Y52.099
X32.6Y47.899
X36.8Y52.099
X36.8Y47.899
X41.Y52.099
X41.Y47.899
X45.2Y52.099
X45.2Y47.899
X49.4Y52.099
X49.4Y47.899
T5
X0.012Y71.999
X72.012Y71.999
X72.012Y-0.001
X0.012Y-0.001
T6
X44.5Y16.999G85X44.5Y2.999
G05
X27.5Y16.999G85X27.5Y2.999
G05
T0
M30
