G04 #@! TF.GenerationSoftware,KiCad,Pcbnew,(5.0.1)-3*
G04 #@! TF.CreationDate,2020-07-01T10:05:03+02:00*
G04 #@! TF.ProjectId,alim winterfell,616C696D2077696E74657266656C6C2E,rev?*
G04 #@! TF.SameCoordinates,PX632eb2cPY5b8d544*
G04 #@! TF.FileFunction,Copper,L2,Bot,Signal*
G04 #@! TF.FilePolarity,Positive*
%FSLAX46Y46*%
G04 Gerber Fmt 4.6, Leading zero omitted, Abs format (unit mm)*
G04 Created by KiCad (PCBNEW (5.0.1)-3) date 01/07/2020 10:05:03*
%MOMM*%
%LPD*%
G01*
G04 APERTURE LIST*
G04 #@! TA.AperFunction,ViaPad*
%ADD10C,0.600000*%
G04 #@! TD*
G04 #@! TA.AperFunction,ComponentPad*
%ADD11C,4.300000*%
G04 #@! TD*
G04 #@! TA.AperFunction,ComponentPad*
%ADD12R,8.000000X23.000000*%
G04 #@! TD*
G04 #@! TA.AperFunction,WasherPad*
%ADD13C,3.500000*%
G04 #@! TD*
G04 #@! TA.AperFunction,ComponentPad*
%ADD14C,2.400000*%
G04 #@! TD*
G04 #@! TA.AperFunction,WasherPad*
%ADD15C,3.810000*%
G04 #@! TD*
G04 #@! TA.AperFunction,WasherPad*
%ADD16C,3.302000*%
G04 #@! TD*
G04 #@! TA.AperFunction,ComponentPad*
%ADD17C,1.778000*%
G04 #@! TD*
G04 #@! TA.AperFunction,ViaPad*
%ADD18C,1.200000*%
G04 #@! TD*
G04 #@! TA.AperFunction,Conductor*
%ADD19C,0.254000*%
G04 #@! TD*
G04 APERTURE END LIST*
D10*
G04 #@! TO.N,GND*
G04 #@! TO.C,REF\002A\002A*
X48257700Y27970300D03*
G04 #@! TD*
G04 #@! TO.N,GND*
G04 #@! TO.C,REF\002A\002A*
X46257700Y27970300D03*
G04 #@! TD*
G04 #@! TO.N,GND*
G04 #@! TO.C,REF\002A\002A*
X44257700Y27970300D03*
G04 #@! TD*
G04 #@! TO.N,GND*
G04 #@! TO.C,REF\002A\002A*
X42257700Y27970300D03*
G04 #@! TD*
G04 #@! TO.N,GND*
G04 #@! TO.C,REF\002A\002A*
X40257700Y27970300D03*
G04 #@! TD*
G04 #@! TO.N,GND*
G04 #@! TO.C,REF\002A\002A*
X48257700Y29970300D03*
G04 #@! TD*
G04 #@! TO.N,GND*
G04 #@! TO.C,REF\002A\002A*
X46257700Y29970300D03*
G04 #@! TD*
G04 #@! TO.N,GND*
G04 #@! TO.C,REF\002A\002A*
X44257700Y29970300D03*
G04 #@! TD*
G04 #@! TO.N,GND*
G04 #@! TO.C,REF\002A\002A*
X42257700Y29970300D03*
G04 #@! TD*
G04 #@! TO.N,GND*
G04 #@! TO.C,REF\002A\002A*
X40257700Y29970300D03*
G04 #@! TD*
G04 #@! TO.N,GND*
G04 #@! TO.C,REF\002A\002A*
X48257700Y31970300D03*
G04 #@! TD*
G04 #@! TO.N,GND*
G04 #@! TO.C,REF\002A\002A*
X46257700Y31970300D03*
G04 #@! TD*
G04 #@! TO.N,GND*
G04 #@! TO.C,REF\002A\002A*
X44257700Y31970300D03*
G04 #@! TD*
G04 #@! TO.N,GND*
G04 #@! TO.C,REF\002A\002A*
X42257700Y31970300D03*
G04 #@! TD*
G04 #@! TO.N,GND*
G04 #@! TO.C,REF\002A\002A*
X40257700Y31970300D03*
G04 #@! TD*
G04 #@! TO.N,GND*
G04 #@! TO.C,REF\002A\002A*
X48257700Y33970300D03*
G04 #@! TD*
G04 #@! TO.N,GND*
G04 #@! TO.C,REF\002A\002A*
X46257700Y33970300D03*
G04 #@! TD*
G04 #@! TO.N,GND*
G04 #@! TO.C,REF\002A\002A*
X44257700Y33970300D03*
G04 #@! TD*
G04 #@! TO.N,GND*
G04 #@! TO.C,REF\002A\002A*
X42257700Y33970300D03*
G04 #@! TD*
G04 #@! TO.N,GND*
G04 #@! TO.C,REF\002A\002A*
X40257700Y33970300D03*
G04 #@! TD*
G04 #@! TO.N,GND*
G04 #@! TO.C,REF\002A\002A*
X48257700Y35970300D03*
G04 #@! TD*
G04 #@! TO.N,GND*
G04 #@! TO.C,REF\002A\002A*
X46257700Y35970300D03*
G04 #@! TD*
G04 #@! TO.N,GND*
G04 #@! TO.C,REF\002A\002A*
X44257700Y35970300D03*
G04 #@! TD*
G04 #@! TO.N,GND*
G04 #@! TO.C,REF\002A\002A*
X42257700Y35970300D03*
G04 #@! TD*
G04 #@! TO.N,+12V*
G04 #@! TO.C,REF\002A\002A*
X17046500Y5494900D03*
G04 #@! TD*
G04 #@! TO.N,+12V*
G04 #@! TO.C,REF\002A\002A*
X15046500Y5494900D03*
G04 #@! TD*
G04 #@! TO.N,+12V*
G04 #@! TO.C,REF\002A\002A*
X13046500Y5494900D03*
G04 #@! TD*
G04 #@! TO.N,+12V*
G04 #@! TO.C,REF\002A\002A*
X11046500Y5494900D03*
G04 #@! TD*
G04 #@! TO.N,+12V*
G04 #@! TO.C,REF\002A\002A*
X9046500Y5494900D03*
G04 #@! TD*
G04 #@! TO.N,+12V*
G04 #@! TO.C,REF\002A\002A*
X17046500Y7494900D03*
G04 #@! TD*
G04 #@! TO.N,+12V*
G04 #@! TO.C,REF\002A\002A*
X15046500Y7494900D03*
G04 #@! TD*
G04 #@! TO.N,+12V*
G04 #@! TO.C,REF\002A\002A*
X13046500Y7494900D03*
G04 #@! TD*
G04 #@! TO.N,+12V*
G04 #@! TO.C,REF\002A\002A*
X11046500Y7494900D03*
G04 #@! TD*
G04 #@! TO.N,+12V*
G04 #@! TO.C,REF\002A\002A*
X9046500Y7494900D03*
G04 #@! TD*
G04 #@! TO.N,+12V*
G04 #@! TO.C,REF\002A\002A*
X17046500Y9494900D03*
G04 #@! TD*
G04 #@! TO.N,+12V*
G04 #@! TO.C,REF\002A\002A*
X15046500Y9494900D03*
G04 #@! TD*
G04 #@! TO.N,+12V*
G04 #@! TO.C,REF\002A\002A*
X13046500Y9494900D03*
G04 #@! TD*
G04 #@! TO.N,+12V*
G04 #@! TO.C,REF\002A\002A*
X11046500Y9494900D03*
G04 #@! TD*
G04 #@! TO.N,+12V*
G04 #@! TO.C,REF\002A\002A*
X9046500Y9494900D03*
G04 #@! TD*
G04 #@! TO.N,+12V*
G04 #@! TO.C,REF\002A\002A*
X17046500Y11494900D03*
G04 #@! TD*
G04 #@! TO.N,+12V*
G04 #@! TO.C,REF\002A\002A*
X15046500Y11494900D03*
G04 #@! TD*
G04 #@! TO.N,+12V*
G04 #@! TO.C,REF\002A\002A*
X13046500Y11494900D03*
G04 #@! TD*
G04 #@! TO.N,+12V*
G04 #@! TO.C,REF\002A\002A*
X11046500Y11494900D03*
G04 #@! TD*
G04 #@! TO.N,+12V*
G04 #@! TO.C,REF\002A\002A*
X9046500Y11494900D03*
G04 #@! TD*
G04 #@! TO.N,+12V*
G04 #@! TO.C,REF\002A\002A*
X17046500Y13494900D03*
G04 #@! TD*
G04 #@! TO.N,+12V*
G04 #@! TO.C,REF\002A\002A*
X15046500Y13494900D03*
G04 #@! TD*
G04 #@! TO.N,+12V*
G04 #@! TO.C,REF\002A\002A*
X13046500Y13494900D03*
G04 #@! TD*
G04 #@! TO.N,+12V*
G04 #@! TO.C,REF\002A\002A*
X11046500Y13494900D03*
G04 #@! TD*
D11*
G04 #@! TO.P,TP1,1*
G04 #@! TO.N,GND*
X12400Y-700D03*
G04 #@! TD*
G04 #@! TO.P,TP2,1*
G04 #@! TO.N,GND*
X72012400Y-700D03*
G04 #@! TD*
G04 #@! TO.P,TP3,1*
G04 #@! TO.N,GND*
X72012400Y71999300D03*
G04 #@! TD*
G04 #@! TO.P,TP4,1*
G04 #@! TO.N,GND*
X12400Y71999300D03*
G04 #@! TD*
D10*
G04 #@! TO.N,+12V*
G04 #@! TO.C,REF\002A\002A*
X9046500Y13494900D03*
G04 #@! TD*
G04 #@! TO.N,GND*
G04 #@! TO.C,REF\002A\002A*
X40257700Y35970300D03*
G04 #@! TD*
D12*
G04 #@! TO.P,TP5,1*
G04 #@! TO.N,+12V*
X27499700Y9999300D03*
G04 #@! TD*
G04 #@! TO.P,TP6,1*
G04 #@! TO.N,GND*
X44499700Y9999300D03*
G04 #@! TD*
D13*
G04 #@! TO.P,J4,*
G04 #@! TO.N,*
X54099700Y52299300D03*
X-1500300Y52299300D03*
D14*
G04 #@! TO.P,J4,1*
G04 #@! TO.N,Net-(J4-Pad1)*
X49399700Y47899300D03*
G04 #@! TO.P,J4,2*
G04 #@! TO.N,Net-(J4-Pad2)*
X45199700Y47899300D03*
G04 #@! TO.P,J4,3*
G04 #@! TO.N,GND*
X40999700Y47899300D03*
G04 #@! TO.P,J4,4*
G04 #@! TO.N,Net-(J4-Pad4)*
X36799700Y47899300D03*
G04 #@! TO.P,J4,5*
G04 #@! TO.N,GND*
X32599700Y47899300D03*
G04 #@! TO.P,J4,6*
G04 #@! TO.N,Net-(J4-Pad6)*
X28399700Y47899300D03*
G04 #@! TO.P,J4,7*
G04 #@! TO.N,GND*
X24199700Y47899300D03*
G04 #@! TO.P,J4,8*
G04 #@! TO.N,Net-(J4-Pad8)*
X19999700Y47899300D03*
G04 #@! TO.P,J4,9*
G04 #@! TO.N,Net-(J4-Pad9)*
X15799700Y47899300D03*
G04 #@! TO.P,J4,10*
G04 #@! TO.N,+12V*
X11599700Y47899300D03*
G04 #@! TO.P,J4,11*
X7399700Y47899300D03*
G04 #@! TO.P,J4,12*
G04 #@! TO.N,Net-(J4-Pad12)*
X3199700Y47899300D03*
G04 #@! TO.P,J4,13*
G04 #@! TO.N,Net-(J4-Pad13)*
X49399700Y52099300D03*
G04 #@! TO.P,J4,14*
G04 #@! TO.N,Net-(J4-Pad14)*
X45199700Y52099300D03*
G04 #@! TO.P,J4,15*
G04 #@! TO.N,GND*
X40999700Y52099300D03*
G04 #@! TO.P,J4,16*
X36799700Y52099300D03*
G04 #@! TO.P,J4,17*
X32599700Y52099300D03*
G04 #@! TO.P,J4,18*
X28399700Y52099300D03*
G04 #@! TO.P,J4,19*
X24199700Y52099300D03*
G04 #@! TO.P,J4,20*
G04 #@! TO.N,Net-(J4-Pad20)*
X19999700Y52099300D03*
G04 #@! TO.P,J4,21*
G04 #@! TO.N,Net-(J4-Pad21)*
X15799700Y52099300D03*
G04 #@! TO.P,J4,22*
G04 #@! TO.N,Net-(J4-Pad22)*
X11599700Y52099300D03*
G04 #@! TO.P,J4,23*
G04 #@! TO.N,Net-(J4-Pad23)*
X7399700Y52099300D03*
G04 #@! TO.P,J4,24*
G04 #@! TO.N,GND*
X3199700Y52099300D03*
G04 #@! TD*
D15*
G04 #@! TO.P,J5,*
G04 #@! TO.N,*
X51494380Y69649300D03*
X21014380Y69649300D03*
D16*
X50224380Y65839300D03*
X22284380Y65839300D03*
D17*
G04 #@! TO.P,J5,1*
G04 #@! TO.N,GND*
X27364380Y72189300D03*
G04 #@! TO.P,J5,9*
G04 #@! TO.N,Net-(J5-Pad9)*
X34984380Y72189300D03*
G04 #@! TO.P,J5,17*
G04 #@! TO.N,+12V*
X42604380Y72189300D03*
G04 #@! TO.P,J5,2*
G04 #@! TO.N,GND*
X27364380Y69649300D03*
G04 #@! TO.P,J5,3*
X27364380Y67109300D03*
G04 #@! TO.P,J5,4*
X27364380Y64569300D03*
G04 #@! TO.P,J5,5*
X29904380Y72189300D03*
G04 #@! TO.P,J5,6*
X29904380Y69649300D03*
G04 #@! TO.P,J5,7*
X29904380Y67109300D03*
G04 #@! TO.P,J5,8*
X29904380Y64569300D03*
G04 #@! TO.P,J5,10*
G04 #@! TO.N,Net-(J5-Pad10)*
X34984380Y69649300D03*
G04 #@! TO.P,J5,11*
G04 #@! TO.N,Net-(J5-Pad11)*
X34984380Y67109300D03*
G04 #@! TO.P,J5,12*
G04 #@! TO.N,Net-(J5-Pad12)*
X34984380Y64569300D03*
G04 #@! TO.P,J5,13*
G04 #@! TO.N,Net-(J5-Pad13)*
X37524380Y72189300D03*
G04 #@! TO.P,J5,14*
G04 #@! TO.N,Net-(J5-Pad14)*
X37524380Y69649300D03*
G04 #@! TO.P,J5,15*
G04 #@! TO.N,Net-(J5-Pad15)*
X37524380Y67109300D03*
G04 #@! TO.P,J5,16*
G04 #@! TO.N,Net-(J5-Pad16)*
X37524380Y64569300D03*
G04 #@! TO.P,J5,18*
G04 #@! TO.N,+12V*
X42604380Y69649300D03*
G04 #@! TO.P,J5,19*
X42604380Y67109300D03*
G04 #@! TO.P,J5,20*
X42604380Y64569300D03*
G04 #@! TO.P,J5,21*
X45144380Y72189300D03*
G04 #@! TO.P,J5,22*
X45144380Y69649300D03*
G04 #@! TO.P,J5,23*
X45144380Y67109300D03*
G04 #@! TO.P,J5,24*
X45144380Y64569300D03*
G04 #@! TD*
D14*
G04 #@! TO.P,J1,4*
G04 #@! TO.N,+12V*
X72599700Y29299300D03*
G04 #@! TO.P,J1,3*
X72599700Y25099300D03*
G04 #@! TO.P,J1,2*
G04 #@! TO.N,GND*
X68399700Y29299300D03*
G04 #@! TO.P,J1,1*
X68399700Y25099300D03*
D13*
G04 #@! TO.P,J1,*
G04 #@! TO.N,*
X72790700Y33999300D03*
X72790700Y20399300D03*
G04 #@! TD*
G04 #@! TO.P,J2,*
G04 #@! TO.N,*
X72790700Y39399300D03*
X72790700Y52999300D03*
D14*
G04 #@! TO.P,J2,1*
G04 #@! TO.N,GND*
X68399700Y44099300D03*
G04 #@! TO.P,J2,2*
X68399700Y48299300D03*
G04 #@! TO.P,J2,3*
G04 #@! TO.N,+12V*
X72599700Y44099300D03*
G04 #@! TO.P,J2,4*
X72599700Y48299300D03*
G04 #@! TD*
G04 #@! TO.P,J3,1*
G04 #@! TO.N,GND*
X4099700Y33799300D03*
G04 #@! TO.P,J3,2*
X4099700Y29599300D03*
G04 #@! TO.P,J3,3*
X4099700Y25399300D03*
G04 #@! TO.P,J3,4*
X4099700Y21199300D03*
G04 #@! TO.P,J3,5*
G04 #@! TO.N,+12V*
X-100300Y33799300D03*
G04 #@! TO.P,J3,6*
X-100300Y29599300D03*
G04 #@! TO.P,J3,7*
X-100300Y25399300D03*
G04 #@! TO.P,J3,8*
X-100300Y21199300D03*
D13*
G04 #@! TO.P,J3,*
G04 #@! TO.N,*
X-291300Y38499300D03*
X-291300Y16499300D03*
G04 #@! TD*
D18*
G04 #@! TO.N,+12V*
X33197800Y31343600D03*
G04 #@! TD*
D19*
G04 #@! TO.N,+12V*
G36*
X68237118Y70546348D02*
X68247608Y70497918D01*
X68274297Y70458697D01*
X70204697Y68528297D01*
X70245899Y68500767D01*
X70293851Y68491102D01*
X74797701Y68468084D01*
X74797701Y55060992D01*
X74420390Y55438303D01*
X73362971Y55876300D01*
X72218429Y55876300D01*
X71161010Y55438303D01*
X70351697Y54628990D01*
X69913700Y53571571D01*
X69913700Y52427029D01*
X70351697Y51369610D01*
X71161010Y50560297D01*
X72218429Y50122300D01*
X72227694Y50122300D01*
X72043477Y50085657D01*
X71890026Y49857502D01*
X72599700Y49147828D01*
X73309374Y49857502D01*
X73155923Y50085657D01*
X72809912Y50122300D01*
X73362971Y50122300D01*
X74420390Y50560297D01*
X74797701Y50937608D01*
X74797701Y41460992D01*
X74420390Y41838303D01*
X73362971Y42276300D01*
X72971706Y42276300D01*
X73155923Y42312943D01*
X73309374Y42541098D01*
X72599700Y43250772D01*
X71890026Y42541098D01*
X72043477Y42312943D01*
X72389488Y42276300D01*
X72218429Y42276300D01*
X71161010Y41838303D01*
X70351697Y41028990D01*
X69913700Y39971571D01*
X69913700Y38827029D01*
X70351697Y37769610D01*
X71161010Y36960297D01*
X71791113Y36699300D01*
X71161010Y36438303D01*
X70351697Y35628990D01*
X69913700Y34571571D01*
X69913700Y33427029D01*
X70351697Y32369610D01*
X71161010Y31560297D01*
X72218429Y31122300D01*
X72227694Y31122300D01*
X72043477Y31085657D01*
X71890026Y30857502D01*
X72599700Y30147828D01*
X73309374Y30857502D01*
X73155923Y31085657D01*
X72809912Y31122300D01*
X73362971Y31122300D01*
X74420390Y31560297D01*
X74797700Y31937607D01*
X74797700Y22460993D01*
X74420390Y22838303D01*
X73362971Y23276300D01*
X72971706Y23276300D01*
X73155923Y23312943D01*
X73309374Y23541098D01*
X72599700Y24250772D01*
X71890026Y23541098D01*
X72043477Y23312943D01*
X72389488Y23276300D01*
X72218429Y23276300D01*
X71161010Y22838303D01*
X70351697Y22028990D01*
X69913700Y20971571D01*
X69913700Y19827029D01*
X70351697Y18769610D01*
X71161010Y17960297D01*
X72218429Y17522300D01*
X73362971Y17522300D01*
X74420390Y17960297D01*
X74797700Y18337607D01*
X74797700Y3954780D01*
X70744080Y3954780D01*
X70695479Y3945113D01*
X70654277Y3917583D01*
X67794237Y1057543D01*
X67766707Y1016341D01*
X67757040Y967740D01*
X67757040Y-2798700D01*
X4902200Y-2798700D01*
X4902200Y294640D01*
X4892533Y343241D01*
X4865003Y384443D01*
X816243Y4433203D01*
X775041Y4460733D01*
X726440Y4470400D01*
X-2798300Y4470400D01*
X-2798300Y7467550D01*
X22864700Y7467550D01*
X22864700Y-1627010D01*
X22961373Y-1860399D01*
X23140002Y-2039027D01*
X23373391Y-2135700D01*
X25340950Y-2135700D01*
X25499700Y-1976950D01*
X25499700Y7626300D01*
X29499700Y7626300D01*
X29499700Y-1976950D01*
X29658450Y-2135700D01*
X31626009Y-2135700D01*
X31859398Y-2039027D01*
X32038027Y-1860399D01*
X32134700Y-1627010D01*
X32134700Y7467550D01*
X31975950Y7626300D01*
X29499700Y7626300D01*
X25499700Y7626300D01*
X23023450Y7626300D01*
X22864700Y7467550D01*
X-2798300Y7467550D01*
X-2798300Y15033769D01*
X-2730303Y14869610D01*
X-1920990Y14060297D01*
X-863571Y13622300D01*
X280971Y13622300D01*
X1338390Y14060297D01*
X2147703Y14869610D01*
X2585700Y15927029D01*
X2585700Y17071571D01*
X2147703Y18128990D01*
X1338390Y18938303D01*
X280971Y19376300D01*
X271706Y19376300D01*
X455923Y19412943D01*
X609374Y19641098D01*
X-100300Y20350772D01*
X-809974Y19641098D01*
X-656523Y19412943D01*
X-310512Y19376300D01*
X-863571Y19376300D01*
X-1920990Y18938303D01*
X-2730303Y18128990D01*
X-2798300Y17964831D01*
X-2798300Y21029574D01*
X-1963536Y21029574D01*
X-1886657Y20643077D01*
X-1658502Y20489626D01*
X-948828Y21199300D01*
X748228Y21199300D01*
X1457902Y20489626D01*
X1686057Y20643077D01*
X1762936Y21369026D01*
X1686057Y21755523D01*
X1457902Y21908974D01*
X748228Y21199300D01*
X-948828Y21199300D01*
X-1658502Y21908974D01*
X-1886657Y21755523D01*
X-1963536Y21029574D01*
X-2798300Y21029574D01*
X-2798300Y22757502D01*
X-809974Y22757502D01*
X-100300Y22047828D01*
X609374Y22757502D01*
X455923Y22985657D01*
X-270026Y23062536D01*
X-656523Y22985657D01*
X-809974Y22757502D01*
X-2798300Y22757502D01*
X-2798300Y23841098D01*
X-809974Y23841098D01*
X-656523Y23612943D01*
X69426Y23536064D01*
X455923Y23612943D01*
X609374Y23841098D01*
X-100300Y24550772D01*
X-809974Y23841098D01*
X-2798300Y23841098D01*
X-2798300Y25229574D01*
X-1963536Y25229574D01*
X-1886657Y24843077D01*
X-1658502Y24689626D01*
X-948828Y25399300D01*
X748228Y25399300D01*
X1457902Y24689626D01*
X1686057Y24843077D01*
X1762936Y25569026D01*
X1686057Y25955523D01*
X1457902Y26108974D01*
X748228Y25399300D01*
X-948828Y25399300D01*
X-1658502Y26108974D01*
X-1886657Y25955523D01*
X-1963536Y25229574D01*
X-2798300Y25229574D01*
X-2798300Y26957502D01*
X-809974Y26957502D01*
X-100300Y26247828D01*
X609374Y26957502D01*
X455923Y27185657D01*
X-270026Y27262536D01*
X-656523Y27185657D01*
X-809974Y26957502D01*
X-2798300Y26957502D01*
X-2798300Y28041098D01*
X-809974Y28041098D01*
X-656523Y27812943D01*
X69426Y27736064D01*
X455923Y27812943D01*
X609374Y28041098D01*
X-100300Y28750772D01*
X-809974Y28041098D01*
X-2798300Y28041098D01*
X-2798300Y29429574D01*
X-1963536Y29429574D01*
X-1886657Y29043077D01*
X-1658502Y28889626D01*
X-948828Y29599300D01*
X748228Y29599300D01*
X1457902Y28889626D01*
X1686057Y29043077D01*
X1762936Y29769026D01*
X1686057Y30155523D01*
X1457902Y30308974D01*
X748228Y29599300D01*
X-948828Y29599300D01*
X-1658502Y30308974D01*
X-1886657Y30155523D01*
X-1963536Y29429574D01*
X-2798300Y29429574D01*
X-2798300Y31157502D01*
X-809974Y31157502D01*
X-100300Y30447828D01*
X609374Y31157502D01*
X455923Y31385657D01*
X-270026Y31462536D01*
X-656523Y31385657D01*
X-809974Y31157502D01*
X-2798300Y31157502D01*
X-2798300Y32241098D01*
X-809974Y32241098D01*
X-656523Y32012943D01*
X69426Y31936064D01*
X455923Y32012943D01*
X609374Y32241098D01*
X-100300Y32950772D01*
X-809974Y32241098D01*
X-2798300Y32241098D01*
X-2798300Y33629574D01*
X-1963536Y33629574D01*
X-1886657Y33243077D01*
X-1658502Y33089626D01*
X-948828Y33799300D01*
X748228Y33799300D01*
X1457902Y33089626D01*
X1686057Y33243077D01*
X1762936Y33969026D01*
X1704627Y34262169D01*
X1772700Y34262169D01*
X1772700Y33336431D01*
X2126964Y32481160D01*
X2781560Y31826564D01*
X3088803Y31699300D01*
X2781560Y31572036D01*
X2126964Y30917440D01*
X1772700Y30062169D01*
X1772700Y29136431D01*
X2126964Y28281160D01*
X2781560Y27626564D01*
X3088803Y27499300D01*
X2781560Y27372036D01*
X2126964Y26717440D01*
X1772700Y25862169D01*
X1772700Y24936431D01*
X2126964Y24081160D01*
X2781560Y23426564D01*
X3088803Y23299300D01*
X2781560Y23172036D01*
X2126964Y22517440D01*
X1772700Y21662169D01*
X1772700Y20736431D01*
X2126964Y19881160D01*
X2781560Y19226564D01*
X3636831Y18872300D01*
X4562569Y18872300D01*
X5417840Y19226564D01*
X6072436Y19881160D01*
X6426700Y20736431D01*
X6426700Y21625610D01*
X22864700Y21625610D01*
X22864700Y12531050D01*
X23023450Y12372300D01*
X25499700Y12372300D01*
X25499700Y21975550D01*
X29499700Y21975550D01*
X29499700Y12372300D01*
X31975950Y12372300D01*
X32134700Y12531050D01*
X32134700Y21499300D01*
X39350621Y21499300D01*
X39350621Y-1500700D01*
X39438089Y-1940433D01*
X39687178Y-2313222D01*
X40059967Y-2562311D01*
X40499700Y-2649779D01*
X48499700Y-2649779D01*
X48939433Y-2562311D01*
X49312222Y-2313222D01*
X49561311Y-1940433D01*
X49648779Y-1500700D01*
X49648779Y21499300D01*
X49561311Y21939033D01*
X49312222Y22311822D01*
X48939433Y22560911D01*
X48499700Y22648379D01*
X40499700Y22648379D01*
X40059967Y22560911D01*
X39687178Y22311822D01*
X39438089Y21939033D01*
X39350621Y21499300D01*
X32134700Y21499300D01*
X32134700Y21625610D01*
X32038027Y21858999D01*
X31859398Y22037627D01*
X31626009Y22134300D01*
X29658450Y22134300D01*
X29499700Y21975550D01*
X25499700Y21975550D01*
X25340950Y22134300D01*
X23373391Y22134300D01*
X23140002Y22037627D01*
X22961373Y21858999D01*
X22864700Y21625610D01*
X6426700Y21625610D01*
X6426700Y21662169D01*
X6072436Y22517440D01*
X5417840Y23172036D01*
X5110597Y23299300D01*
X5417840Y23426564D01*
X6072436Y24081160D01*
X6426700Y24936431D01*
X6426700Y25862169D01*
X6072436Y26717440D01*
X5417840Y27372036D01*
X5110597Y27499300D01*
X5417840Y27626564D01*
X6072436Y28281160D01*
X6426700Y29136431D01*
X6426700Y30062169D01*
X6072436Y30917440D01*
X5417840Y31572036D01*
X5110597Y31699300D01*
X5417840Y31826564D01*
X6072436Y32481160D01*
X6426700Y33336431D01*
X6426700Y34262169D01*
X6072436Y35117440D01*
X5417840Y35772036D01*
X4562569Y36126300D01*
X3636831Y36126300D01*
X2781560Y35772036D01*
X2126964Y35117440D01*
X1772700Y34262169D01*
X1704627Y34262169D01*
X1686057Y34355523D01*
X1457902Y34508974D01*
X748228Y33799300D01*
X-948828Y33799300D01*
X-1658502Y34508974D01*
X-1886657Y34355523D01*
X-1963536Y33629574D01*
X-2798300Y33629574D01*
X-2798300Y37033769D01*
X-2730303Y36869610D01*
X-1920990Y36060297D01*
X-863571Y35622300D01*
X-472306Y35622300D01*
X-656523Y35585657D01*
X-809974Y35357502D01*
X-100300Y34647828D01*
X609374Y35357502D01*
X455923Y35585657D01*
X109912Y35622300D01*
X280971Y35622300D01*
X1338390Y36060297D01*
X1532241Y36254148D01*
X38830700Y36254148D01*
X38830700Y35686452D01*
X39047947Y35161969D01*
X39239616Y34970300D01*
X39047947Y34778631D01*
X38830700Y34254148D01*
X38830700Y33686452D01*
X39047947Y33161969D01*
X39239616Y32970300D01*
X39047947Y32778631D01*
X38830700Y32254148D01*
X38830700Y31686452D01*
X39047947Y31161969D01*
X39239616Y30970300D01*
X39047947Y30778631D01*
X38830700Y30254148D01*
X38830700Y29686452D01*
X39047947Y29161969D01*
X39239616Y28970300D01*
X39047947Y28778631D01*
X38830700Y28254148D01*
X38830700Y27686452D01*
X39047947Y27161969D01*
X39449369Y26760547D01*
X39973852Y26543300D01*
X40541548Y26543300D01*
X41066031Y26760547D01*
X41257700Y26952216D01*
X41449369Y26760547D01*
X41973852Y26543300D01*
X42541548Y26543300D01*
X43066031Y26760547D01*
X43257700Y26952216D01*
X43449369Y26760547D01*
X43973852Y26543300D01*
X44541548Y26543300D01*
X45066031Y26760547D01*
X45257700Y26952216D01*
X45449369Y26760547D01*
X45973852Y26543300D01*
X46541548Y26543300D01*
X47066031Y26760547D01*
X47257700Y26952216D01*
X47449369Y26760547D01*
X47973852Y26543300D01*
X48541548Y26543300D01*
X49066031Y26760547D01*
X49467453Y27161969D01*
X49684700Y27686452D01*
X49684700Y28254148D01*
X49467453Y28778631D01*
X49275784Y28970300D01*
X49467453Y29161969D01*
X49684700Y29686452D01*
X49684700Y29762169D01*
X66072700Y29762169D01*
X66072700Y28836431D01*
X66426964Y27981160D01*
X67081560Y27326564D01*
X67388803Y27199300D01*
X67081560Y27072036D01*
X66426964Y26417440D01*
X66072700Y25562169D01*
X66072700Y24636431D01*
X66426964Y23781160D01*
X67081560Y23126564D01*
X67936831Y22772300D01*
X68862569Y22772300D01*
X69717840Y23126564D01*
X70372436Y23781160D01*
X70726700Y24636431D01*
X70726700Y24929574D01*
X70736464Y24929574D01*
X70813343Y24543077D01*
X71041498Y24389626D01*
X71751172Y25099300D01*
X73448228Y25099300D01*
X74157902Y24389626D01*
X74386057Y24543077D01*
X74462936Y25269026D01*
X74386057Y25655523D01*
X74157902Y25808974D01*
X73448228Y25099300D01*
X71751172Y25099300D01*
X71041498Y25808974D01*
X70813343Y25655523D01*
X70736464Y24929574D01*
X70726700Y24929574D01*
X70726700Y25562169D01*
X70372436Y26417440D01*
X70132374Y26657502D01*
X71890026Y26657502D01*
X72599700Y25947828D01*
X73309374Y26657502D01*
X73155923Y26885657D01*
X72429974Y26962536D01*
X72043477Y26885657D01*
X71890026Y26657502D01*
X70132374Y26657502D01*
X69717840Y27072036D01*
X69410597Y27199300D01*
X69717840Y27326564D01*
X70132374Y27741098D01*
X71890026Y27741098D01*
X72043477Y27512943D01*
X72769426Y27436064D01*
X73155923Y27512943D01*
X73309374Y27741098D01*
X72599700Y28450772D01*
X71890026Y27741098D01*
X70132374Y27741098D01*
X70372436Y27981160D01*
X70726700Y28836431D01*
X70726700Y29129574D01*
X70736464Y29129574D01*
X70813343Y28743077D01*
X71041498Y28589626D01*
X71751172Y29299300D01*
X73448228Y29299300D01*
X74157902Y28589626D01*
X74386057Y28743077D01*
X74462936Y29469026D01*
X74386057Y29855523D01*
X74157902Y30008974D01*
X73448228Y29299300D01*
X71751172Y29299300D01*
X71041498Y30008974D01*
X70813343Y29855523D01*
X70736464Y29129574D01*
X70726700Y29129574D01*
X70726700Y29762169D01*
X70372436Y30617440D01*
X69717840Y31272036D01*
X68862569Y31626300D01*
X67936831Y31626300D01*
X67081560Y31272036D01*
X66426964Y30617440D01*
X66072700Y29762169D01*
X49684700Y29762169D01*
X49684700Y30254148D01*
X49467453Y30778631D01*
X49275784Y30970300D01*
X49467453Y31161969D01*
X49684700Y31686452D01*
X49684700Y32254148D01*
X49467453Y32778631D01*
X49275784Y32970300D01*
X49467453Y33161969D01*
X49684700Y33686452D01*
X49684700Y34254148D01*
X49467453Y34778631D01*
X49275784Y34970300D01*
X49467453Y35161969D01*
X49684700Y35686452D01*
X49684700Y36254148D01*
X49467453Y36778631D01*
X49066031Y37180053D01*
X48541548Y37397300D01*
X47973852Y37397300D01*
X47449369Y37180053D01*
X47257700Y36988384D01*
X47066031Y37180053D01*
X46541548Y37397300D01*
X45973852Y37397300D01*
X45449369Y37180053D01*
X45257700Y36988384D01*
X45066031Y37180053D01*
X44541548Y37397300D01*
X43973852Y37397300D01*
X43449369Y37180053D01*
X43257700Y36988384D01*
X43066031Y37180053D01*
X42541548Y37397300D01*
X41973852Y37397300D01*
X41449369Y37180053D01*
X41257700Y36988384D01*
X41066031Y37180053D01*
X40541548Y37397300D01*
X39973852Y37397300D01*
X39449369Y37180053D01*
X39047947Y36778631D01*
X38830700Y36254148D01*
X1532241Y36254148D01*
X2147703Y36869610D01*
X2585700Y37927029D01*
X2585700Y39071571D01*
X2147703Y40128990D01*
X1338390Y40938303D01*
X280971Y41376300D01*
X-863571Y41376300D01*
X-1920990Y40938303D01*
X-2730303Y40128990D01*
X-2798300Y39964831D01*
X-2798300Y49722907D01*
X-2072571Y49422300D01*
X-928029Y49422300D01*
X129390Y49860297D01*
X938703Y50669610D01*
X1105936Y51073347D01*
X1226964Y50781160D01*
X1881560Y50126564D01*
X2188803Y49999300D01*
X1881560Y49872036D01*
X1226964Y49217440D01*
X872700Y48362169D01*
X872700Y47436431D01*
X1226964Y46581160D01*
X1881560Y45926564D01*
X2736831Y45572300D01*
X3662569Y45572300D01*
X4517840Y45926564D01*
X4932374Y46341098D01*
X6690026Y46341098D01*
X6843477Y46112943D01*
X7569426Y46036064D01*
X7955923Y46112943D01*
X8109374Y46341098D01*
X10890026Y46341098D01*
X11043477Y46112943D01*
X11769426Y46036064D01*
X12155923Y46112943D01*
X12309374Y46341098D01*
X11599700Y47050772D01*
X10890026Y46341098D01*
X8109374Y46341098D01*
X7399700Y47050772D01*
X6690026Y46341098D01*
X4932374Y46341098D01*
X5172436Y46581160D01*
X5526700Y47436431D01*
X5526700Y47729574D01*
X5536464Y47729574D01*
X5613343Y47343077D01*
X5841498Y47189626D01*
X6551172Y47899300D01*
X8248228Y47899300D01*
X8957902Y47189626D01*
X9186057Y47343077D01*
X9226987Y47729574D01*
X9736464Y47729574D01*
X9813343Y47343077D01*
X10041498Y47189626D01*
X10751172Y47899300D01*
X12448228Y47899300D01*
X13157902Y47189626D01*
X13386057Y47343077D01*
X13462936Y48069026D01*
X13386057Y48455523D01*
X13157902Y48608974D01*
X12448228Y47899300D01*
X10751172Y47899300D01*
X10041498Y48608974D01*
X9813343Y48455523D01*
X9736464Y47729574D01*
X9226987Y47729574D01*
X9262936Y48069026D01*
X9186057Y48455523D01*
X8957902Y48608974D01*
X8248228Y47899300D01*
X6551172Y47899300D01*
X5841498Y48608974D01*
X5613343Y48455523D01*
X5536464Y47729574D01*
X5526700Y47729574D01*
X5526700Y48362169D01*
X5172436Y49217440D01*
X4932374Y49457502D01*
X6690026Y49457502D01*
X7399700Y48747828D01*
X8109374Y49457502D01*
X10890026Y49457502D01*
X11599700Y48747828D01*
X12309374Y49457502D01*
X12155923Y49685657D01*
X11429974Y49762536D01*
X11043477Y49685657D01*
X10890026Y49457502D01*
X8109374Y49457502D01*
X7955923Y49685657D01*
X7229974Y49762536D01*
X6843477Y49685657D01*
X6690026Y49457502D01*
X4932374Y49457502D01*
X4517840Y49872036D01*
X4210597Y49999300D01*
X4517840Y50126564D01*
X5172436Y50781160D01*
X5299700Y51088403D01*
X5426964Y50781160D01*
X6081560Y50126564D01*
X6936831Y49772300D01*
X7862569Y49772300D01*
X8717840Y50126564D01*
X9372436Y50781160D01*
X9499700Y51088403D01*
X9626964Y50781160D01*
X10281560Y50126564D01*
X11136831Y49772300D01*
X12062569Y49772300D01*
X12917840Y50126564D01*
X13572436Y50781160D01*
X13699700Y51088403D01*
X13826964Y50781160D01*
X14481560Y50126564D01*
X14788803Y49999300D01*
X14481560Y49872036D01*
X13826964Y49217440D01*
X13472700Y48362169D01*
X13472700Y47436431D01*
X13826964Y46581160D01*
X14481560Y45926564D01*
X15336831Y45572300D01*
X16262569Y45572300D01*
X17117840Y45926564D01*
X17772436Y46581160D01*
X17899700Y46888403D01*
X18026964Y46581160D01*
X18681560Y45926564D01*
X19536831Y45572300D01*
X20462569Y45572300D01*
X21317840Y45926564D01*
X21972436Y46581160D01*
X22099700Y46888403D01*
X22226964Y46581160D01*
X22881560Y45926564D01*
X23736831Y45572300D01*
X24662569Y45572300D01*
X25517840Y45926564D01*
X26172436Y46581160D01*
X26299700Y46888403D01*
X26426964Y46581160D01*
X27081560Y45926564D01*
X27936831Y45572300D01*
X28862569Y45572300D01*
X29717840Y45926564D01*
X30372436Y46581160D01*
X30499700Y46888403D01*
X30626964Y46581160D01*
X31281560Y45926564D01*
X32136831Y45572300D01*
X33062569Y45572300D01*
X33917840Y45926564D01*
X34572436Y46581160D01*
X34699700Y46888403D01*
X34826964Y46581160D01*
X35481560Y45926564D01*
X36336831Y45572300D01*
X37262569Y45572300D01*
X38117840Y45926564D01*
X38772436Y46581160D01*
X38899700Y46888403D01*
X39026964Y46581160D01*
X39681560Y45926564D01*
X40536831Y45572300D01*
X41462569Y45572300D01*
X42317840Y45926564D01*
X42972436Y46581160D01*
X43099700Y46888403D01*
X43226964Y46581160D01*
X43881560Y45926564D01*
X44736831Y45572300D01*
X45662569Y45572300D01*
X46517840Y45926564D01*
X47172436Y46581160D01*
X47299700Y46888403D01*
X47426964Y46581160D01*
X48081560Y45926564D01*
X48936831Y45572300D01*
X49862569Y45572300D01*
X50717840Y45926564D01*
X51372436Y46581160D01*
X51726700Y47436431D01*
X51726700Y48362169D01*
X51561015Y48762169D01*
X66072700Y48762169D01*
X66072700Y47836431D01*
X66426964Y46981160D01*
X67081560Y46326564D01*
X67388803Y46199300D01*
X67081560Y46072036D01*
X66426964Y45417440D01*
X66072700Y44562169D01*
X66072700Y43636431D01*
X66426964Y42781160D01*
X67081560Y42126564D01*
X67936831Y41772300D01*
X68862569Y41772300D01*
X69717840Y42126564D01*
X70372436Y42781160D01*
X70726700Y43636431D01*
X70726700Y43929574D01*
X70736464Y43929574D01*
X70813343Y43543077D01*
X71041498Y43389626D01*
X71751172Y44099300D01*
X73448228Y44099300D01*
X74157902Y43389626D01*
X74386057Y43543077D01*
X74462936Y44269026D01*
X74386057Y44655523D01*
X74157902Y44808974D01*
X73448228Y44099300D01*
X71751172Y44099300D01*
X71041498Y44808974D01*
X70813343Y44655523D01*
X70736464Y43929574D01*
X70726700Y43929574D01*
X70726700Y44562169D01*
X70372436Y45417440D01*
X70132374Y45657502D01*
X71890026Y45657502D01*
X72599700Y44947828D01*
X73309374Y45657502D01*
X73155923Y45885657D01*
X72429974Y45962536D01*
X72043477Y45885657D01*
X71890026Y45657502D01*
X70132374Y45657502D01*
X69717840Y46072036D01*
X69410597Y46199300D01*
X69717840Y46326564D01*
X70132374Y46741098D01*
X71890026Y46741098D01*
X72043477Y46512943D01*
X72769426Y46436064D01*
X73155923Y46512943D01*
X73309374Y46741098D01*
X72599700Y47450772D01*
X71890026Y46741098D01*
X70132374Y46741098D01*
X70372436Y46981160D01*
X70726700Y47836431D01*
X70726700Y48129574D01*
X70736464Y48129574D01*
X70813343Y47743077D01*
X71041498Y47589626D01*
X71751172Y48299300D01*
X73448228Y48299300D01*
X74157902Y47589626D01*
X74386057Y47743077D01*
X74462936Y48469026D01*
X74386057Y48855523D01*
X74157902Y49008974D01*
X73448228Y48299300D01*
X71751172Y48299300D01*
X71041498Y49008974D01*
X70813343Y48855523D01*
X70736464Y48129574D01*
X70726700Y48129574D01*
X70726700Y48762169D01*
X70372436Y49617440D01*
X69717840Y50272036D01*
X68862569Y50626300D01*
X67936831Y50626300D01*
X67081560Y50272036D01*
X66426964Y49617440D01*
X66072700Y48762169D01*
X51561015Y48762169D01*
X51372436Y49217440D01*
X50717840Y49872036D01*
X50410597Y49999300D01*
X50717840Y50126564D01*
X51372436Y50781160D01*
X51493464Y51073347D01*
X51660697Y50669610D01*
X52470010Y49860297D01*
X53527429Y49422300D01*
X54671971Y49422300D01*
X55729390Y49860297D01*
X56538703Y50669610D01*
X56976700Y51727029D01*
X56976700Y52871571D01*
X56538703Y53928990D01*
X55729390Y54738303D01*
X54671971Y55176300D01*
X53527429Y55176300D01*
X52470010Y54738303D01*
X51660697Y53928990D01*
X51410621Y53325253D01*
X51372436Y53417440D01*
X50717840Y54072036D01*
X49862569Y54426300D01*
X48936831Y54426300D01*
X48081560Y54072036D01*
X47426964Y53417440D01*
X47299700Y53110197D01*
X47172436Y53417440D01*
X46517840Y54072036D01*
X45662569Y54426300D01*
X44736831Y54426300D01*
X43881560Y54072036D01*
X43226964Y53417440D01*
X43099700Y53110197D01*
X42972436Y53417440D01*
X42317840Y54072036D01*
X41462569Y54426300D01*
X40536831Y54426300D01*
X39681560Y54072036D01*
X39026964Y53417440D01*
X38899700Y53110197D01*
X38772436Y53417440D01*
X38117840Y54072036D01*
X37262569Y54426300D01*
X36336831Y54426300D01*
X35481560Y54072036D01*
X34826964Y53417440D01*
X34699700Y53110197D01*
X34572436Y53417440D01*
X33917840Y54072036D01*
X33062569Y54426300D01*
X32136831Y54426300D01*
X31281560Y54072036D01*
X30626964Y53417440D01*
X30499700Y53110197D01*
X30372436Y53417440D01*
X29717840Y54072036D01*
X28862569Y54426300D01*
X27936831Y54426300D01*
X27081560Y54072036D01*
X26426964Y53417440D01*
X26299700Y53110197D01*
X26172436Y53417440D01*
X25517840Y54072036D01*
X24662569Y54426300D01*
X23736831Y54426300D01*
X22881560Y54072036D01*
X22226964Y53417440D01*
X22099700Y53110197D01*
X21972436Y53417440D01*
X21317840Y54072036D01*
X20462569Y54426300D01*
X19536831Y54426300D01*
X18681560Y54072036D01*
X18026964Y53417440D01*
X17899700Y53110197D01*
X17772436Y53417440D01*
X17117840Y54072036D01*
X16262569Y54426300D01*
X15336831Y54426300D01*
X14481560Y54072036D01*
X13826964Y53417440D01*
X13699700Y53110197D01*
X13572436Y53417440D01*
X12917840Y54072036D01*
X12062569Y54426300D01*
X11136831Y54426300D01*
X10281560Y54072036D01*
X9626964Y53417440D01*
X9499700Y53110197D01*
X9372436Y53417440D01*
X8717840Y54072036D01*
X7862569Y54426300D01*
X6936831Y54426300D01*
X6081560Y54072036D01*
X5426964Y53417440D01*
X5299700Y53110197D01*
X5172436Y53417440D01*
X4517840Y54072036D01*
X3662569Y54426300D01*
X2736831Y54426300D01*
X1881560Y54072036D01*
X1226964Y53417440D01*
X1188779Y53325253D01*
X938703Y53928990D01*
X129390Y54738303D01*
X-928029Y55176300D01*
X-2072571Y55176300D01*
X-2798300Y54875693D01*
X-2798300Y67947095D01*
X408555Y67937381D01*
X457185Y67946901D01*
X496999Y67972867D01*
X1738056Y69167091D01*
X1868671Y69221194D01*
X2790506Y70143029D01*
X2815850Y70204214D01*
X2865927Y70252402D01*
X17982380Y70252402D01*
X17982380Y69046198D01*
X18443975Y67931810D01*
X19296890Y67078895D01*
X19718598Y66904218D01*
X19506380Y66391879D01*
X19506380Y65286721D01*
X19929306Y64265690D01*
X20710770Y63484226D01*
X21731801Y63061300D01*
X22836959Y63061300D01*
X23857990Y63484226D01*
X24639454Y64265690D01*
X25062380Y65286721D01*
X25062380Y66391879D01*
X24639454Y67412910D01*
X23857990Y68194374D01*
X23717625Y68252515D01*
X24046380Y69046198D01*
X24046380Y70252402D01*
X23584785Y71366790D01*
X22731870Y72219705D01*
X21837159Y72590307D01*
X25348380Y72590307D01*
X25348380Y71788293D01*
X25655298Y71047328D01*
X25783326Y70919300D01*
X25655298Y70791272D01*
X25348380Y70050307D01*
X25348380Y69248293D01*
X25655298Y68507328D01*
X25783326Y68379300D01*
X25655298Y68251272D01*
X25348380Y67510307D01*
X25348380Y66708293D01*
X25655298Y65967328D01*
X25783326Y65839300D01*
X25655298Y65711272D01*
X25348380Y64970307D01*
X25348380Y64168293D01*
X25655298Y63427328D01*
X26222408Y62860218D01*
X26963373Y62553300D01*
X27765387Y62553300D01*
X28506352Y62860218D01*
X28634380Y62988246D01*
X28762408Y62860218D01*
X29503373Y62553300D01*
X30305387Y62553300D01*
X31046352Y62860218D01*
X31613462Y63427328D01*
X31920380Y64168293D01*
X31920380Y64970307D01*
X31613462Y65711272D01*
X31485434Y65839300D01*
X31613462Y65967328D01*
X31920380Y66708293D01*
X31920380Y67510307D01*
X31613462Y68251272D01*
X31485434Y68379300D01*
X31613462Y68507328D01*
X31920380Y69248293D01*
X31920380Y70050307D01*
X31613462Y70791272D01*
X31485434Y70919300D01*
X31613462Y71047328D01*
X31920380Y71788293D01*
X31920380Y72590307D01*
X32968380Y72590307D01*
X32968380Y71788293D01*
X33275298Y71047328D01*
X33403326Y70919300D01*
X33275298Y70791272D01*
X32968380Y70050307D01*
X32968380Y69248293D01*
X33275298Y68507328D01*
X33403326Y68379300D01*
X33275298Y68251272D01*
X32968380Y67510307D01*
X32968380Y66708293D01*
X33275298Y65967328D01*
X33403326Y65839300D01*
X33275298Y65711272D01*
X32968380Y64970307D01*
X32968380Y64168293D01*
X33275298Y63427328D01*
X33842408Y62860218D01*
X34583373Y62553300D01*
X35385387Y62553300D01*
X36126352Y62860218D01*
X36254380Y62988246D01*
X36382408Y62860218D01*
X37123373Y62553300D01*
X37925387Y62553300D01*
X38666352Y62860218D01*
X39126046Y63319912D01*
X41983610Y63319912D01*
X42088821Y63103466D01*
X42689016Y63017750D01*
X43119939Y63103466D01*
X43225150Y63319912D01*
X44523610Y63319912D01*
X44628821Y63103466D01*
X45229016Y63017750D01*
X45659939Y63103466D01*
X45765150Y63319912D01*
X45144380Y63940682D01*
X44523610Y63319912D01*
X43225150Y63319912D01*
X42604380Y63940682D01*
X41983610Y63319912D01*
X39126046Y63319912D01*
X39233462Y63427328D01*
X39540380Y64168293D01*
X39540380Y64484664D01*
X41052830Y64484664D01*
X41138546Y64053741D01*
X41354992Y63948530D01*
X41975762Y64569300D01*
X43232998Y64569300D01*
X43661162Y64141136D01*
X43678546Y64053741D01*
X43814777Y63987521D01*
X43853768Y63948530D01*
X43874380Y63958549D01*
X43894992Y63948530D01*
X43933983Y63987521D01*
X44070214Y64053741D01*
X44081878Y64135416D01*
X44515762Y64569300D01*
X45772998Y64569300D01*
X46393768Y63948530D01*
X46610214Y64053741D01*
X46695930Y64653936D01*
X46610214Y65084859D01*
X46393768Y65190070D01*
X45772998Y64569300D01*
X44515762Y64569300D01*
X44087598Y64997464D01*
X44070214Y65084859D01*
X43933983Y65151079D01*
X43894992Y65190070D01*
X43874380Y65180051D01*
X43853768Y65190070D01*
X43814777Y65151079D01*
X43678546Y65084859D01*
X43666882Y65003184D01*
X43232998Y64569300D01*
X41975762Y64569300D01*
X41354992Y65190070D01*
X41138546Y65084859D01*
X41052830Y64484664D01*
X39540380Y64484664D01*
X39540380Y64970307D01*
X39233462Y65711272D01*
X39105434Y65839300D01*
X39126046Y65859912D01*
X41983610Y65859912D01*
X41993629Y65839300D01*
X41983610Y65818688D01*
X42022601Y65779697D01*
X42088821Y65643466D01*
X42170496Y65631802D01*
X42604380Y65197918D01*
X43032544Y65626082D01*
X43119939Y65643466D01*
X43186159Y65779697D01*
X43225150Y65818688D01*
X43215131Y65839300D01*
X43225150Y65859912D01*
X44523610Y65859912D01*
X44533629Y65839300D01*
X44523610Y65818688D01*
X44562601Y65779697D01*
X44628821Y65643466D01*
X44710496Y65631802D01*
X45144380Y65197918D01*
X45572544Y65626082D01*
X45659939Y65643466D01*
X45726159Y65779697D01*
X45765150Y65818688D01*
X45755131Y65839300D01*
X45765150Y65859912D01*
X45726159Y65898903D01*
X45659939Y66035134D01*
X45578264Y66046798D01*
X45233183Y66391879D01*
X47446380Y66391879D01*
X47446380Y65286721D01*
X47869306Y64265690D01*
X48650770Y63484226D01*
X49671801Y63061300D01*
X50776959Y63061300D01*
X51797990Y63484226D01*
X52579454Y64265690D01*
X53002380Y65286721D01*
X53002380Y66391879D01*
X52790162Y66904218D01*
X53211870Y67078895D01*
X54064785Y67931810D01*
X54526380Y69046198D01*
X54526380Y70252402D01*
X54064785Y71366790D01*
X53211870Y72219705D01*
X52097482Y72681300D01*
X50891278Y72681300D01*
X49776890Y72219705D01*
X48923975Y71366790D01*
X48462380Y70252402D01*
X48462380Y69046198D01*
X48791135Y68252515D01*
X48650770Y68194374D01*
X47869306Y67412910D01*
X47446380Y66391879D01*
X45233183Y66391879D01*
X45144380Y66480682D01*
X44716216Y66052518D01*
X44628821Y66035134D01*
X44562601Y65898903D01*
X44523610Y65859912D01*
X43225150Y65859912D01*
X43186159Y65898903D01*
X43119939Y66035134D01*
X43038264Y66046798D01*
X42604380Y66480682D01*
X42176216Y66052518D01*
X42088821Y66035134D01*
X42022601Y65898903D01*
X41983610Y65859912D01*
X39126046Y65859912D01*
X39233462Y65967328D01*
X39540380Y66708293D01*
X39540380Y67024664D01*
X41052830Y67024664D01*
X41138546Y66593741D01*
X41354992Y66488530D01*
X41975762Y67109300D01*
X43232998Y67109300D01*
X43661162Y66681136D01*
X43678546Y66593741D01*
X43814777Y66527521D01*
X43853768Y66488530D01*
X43874380Y66498549D01*
X43894992Y66488530D01*
X43933983Y66527521D01*
X44070214Y66593741D01*
X44081878Y66675416D01*
X44515762Y67109300D01*
X45772998Y67109300D01*
X46393768Y66488530D01*
X46610214Y66593741D01*
X46695930Y67193936D01*
X46610214Y67624859D01*
X46393768Y67730070D01*
X45772998Y67109300D01*
X44515762Y67109300D01*
X44087598Y67537464D01*
X44070214Y67624859D01*
X43933983Y67691079D01*
X43894992Y67730070D01*
X43874380Y67720051D01*
X43853768Y67730070D01*
X43814777Y67691079D01*
X43678546Y67624859D01*
X43666882Y67543184D01*
X43232998Y67109300D01*
X41975762Y67109300D01*
X41354992Y67730070D01*
X41138546Y67624859D01*
X41052830Y67024664D01*
X39540380Y67024664D01*
X39540380Y67510307D01*
X39233462Y68251272D01*
X39105434Y68379300D01*
X39126046Y68399912D01*
X41983610Y68399912D01*
X41993629Y68379300D01*
X41983610Y68358688D01*
X42022601Y68319697D01*
X42088821Y68183466D01*
X42170496Y68171802D01*
X42604380Y67737918D01*
X43032544Y68166082D01*
X43119939Y68183466D01*
X43186159Y68319697D01*
X43225150Y68358688D01*
X43215131Y68379300D01*
X43225150Y68399912D01*
X44523610Y68399912D01*
X44533629Y68379300D01*
X44523610Y68358688D01*
X44562601Y68319697D01*
X44628821Y68183466D01*
X44710496Y68171802D01*
X45144380Y67737918D01*
X45572544Y68166082D01*
X45659939Y68183466D01*
X45726159Y68319697D01*
X45765150Y68358688D01*
X45755131Y68379300D01*
X45765150Y68399912D01*
X45726159Y68438903D01*
X45659939Y68575134D01*
X45578264Y68586798D01*
X45144380Y69020682D01*
X44716216Y68592518D01*
X44628821Y68575134D01*
X44562601Y68438903D01*
X44523610Y68399912D01*
X43225150Y68399912D01*
X43186159Y68438903D01*
X43119939Y68575134D01*
X43038264Y68586798D01*
X42604380Y69020682D01*
X42176216Y68592518D01*
X42088821Y68575134D01*
X42022601Y68438903D01*
X41983610Y68399912D01*
X39126046Y68399912D01*
X39233462Y68507328D01*
X39540380Y69248293D01*
X39540380Y69564664D01*
X41052830Y69564664D01*
X41138546Y69133741D01*
X41354992Y69028530D01*
X41975762Y69649300D01*
X43232998Y69649300D01*
X43661162Y69221136D01*
X43678546Y69133741D01*
X43814777Y69067521D01*
X43853768Y69028530D01*
X43874380Y69038549D01*
X43894992Y69028530D01*
X43933983Y69067521D01*
X44070214Y69133741D01*
X44081878Y69215416D01*
X44515762Y69649300D01*
X45772998Y69649300D01*
X46393768Y69028530D01*
X46610214Y69133741D01*
X46695930Y69733936D01*
X46610214Y70164859D01*
X46393768Y70270070D01*
X45772998Y69649300D01*
X44515762Y69649300D01*
X44087598Y70077464D01*
X44070214Y70164859D01*
X43933983Y70231079D01*
X43894992Y70270070D01*
X43874380Y70260051D01*
X43853768Y70270070D01*
X43814777Y70231079D01*
X43678546Y70164859D01*
X43666882Y70083184D01*
X43232998Y69649300D01*
X41975762Y69649300D01*
X41354992Y70270070D01*
X41138546Y70164859D01*
X41052830Y69564664D01*
X39540380Y69564664D01*
X39540380Y70050307D01*
X39233462Y70791272D01*
X39105434Y70919300D01*
X39126046Y70939912D01*
X41983610Y70939912D01*
X41993629Y70919300D01*
X41983610Y70898688D01*
X42022601Y70859697D01*
X42088821Y70723466D01*
X42170496Y70711802D01*
X42604380Y70277918D01*
X43032544Y70706082D01*
X43119939Y70723466D01*
X43186159Y70859697D01*
X43225150Y70898688D01*
X43215131Y70919300D01*
X43225150Y70939912D01*
X44523610Y70939912D01*
X44533629Y70919300D01*
X44523610Y70898688D01*
X44562601Y70859697D01*
X44628821Y70723466D01*
X44710496Y70711802D01*
X45144380Y70277918D01*
X45572544Y70706082D01*
X45659939Y70723466D01*
X45726159Y70859697D01*
X45765150Y70898688D01*
X45755131Y70919300D01*
X45765150Y70939912D01*
X45726159Y70978903D01*
X45659939Y71115134D01*
X45578264Y71126798D01*
X45144380Y71560682D01*
X44716216Y71132518D01*
X44628821Y71115134D01*
X44562601Y70978903D01*
X44523610Y70939912D01*
X43225150Y70939912D01*
X43186159Y70978903D01*
X43119939Y71115134D01*
X43038264Y71126798D01*
X42604380Y71560682D01*
X42176216Y71132518D01*
X42088821Y71115134D01*
X42022601Y70978903D01*
X41983610Y70939912D01*
X39126046Y70939912D01*
X39233462Y71047328D01*
X39540380Y71788293D01*
X39540380Y72104664D01*
X41052830Y72104664D01*
X41138546Y71673741D01*
X41354992Y71568530D01*
X41975762Y72189300D01*
X43232998Y72189300D01*
X43661162Y71761136D01*
X43678546Y71673741D01*
X43814777Y71607521D01*
X43853768Y71568530D01*
X43874380Y71578549D01*
X43894992Y71568530D01*
X43933983Y71607521D01*
X44070214Y71673741D01*
X44081878Y71755416D01*
X44515762Y72189300D01*
X45772998Y72189300D01*
X46393768Y71568530D01*
X46610214Y71673741D01*
X46695930Y72273936D01*
X46610214Y72704859D01*
X46393768Y72810070D01*
X45772998Y72189300D01*
X44515762Y72189300D01*
X44087598Y72617464D01*
X44070214Y72704859D01*
X43933983Y72771079D01*
X43894992Y72810070D01*
X43874380Y72800051D01*
X43853768Y72810070D01*
X43814777Y72771079D01*
X43678546Y72704859D01*
X43666882Y72623184D01*
X43232998Y72189300D01*
X41975762Y72189300D01*
X41354992Y72810070D01*
X41138546Y72704859D01*
X41052830Y72104664D01*
X39540380Y72104664D01*
X39540380Y72590307D01*
X39233462Y73331272D01*
X39126046Y73438688D01*
X41983610Y73438688D01*
X42604380Y72817918D01*
X43225150Y73438688D01*
X44523610Y73438688D01*
X45144380Y72817918D01*
X45765150Y73438688D01*
X45659939Y73655134D01*
X45059744Y73740850D01*
X44628821Y73655134D01*
X44523610Y73438688D01*
X43225150Y73438688D01*
X43119939Y73655134D01*
X42519744Y73740850D01*
X42088821Y73655134D01*
X41983610Y73438688D01*
X39126046Y73438688D01*
X38666352Y73898382D01*
X37925387Y74205300D01*
X37123373Y74205300D01*
X36382408Y73898382D01*
X36254380Y73770354D01*
X36126352Y73898382D01*
X35385387Y74205300D01*
X34583373Y74205300D01*
X33842408Y73898382D01*
X33275298Y73331272D01*
X32968380Y72590307D01*
X31920380Y72590307D01*
X31613462Y73331272D01*
X31046352Y73898382D01*
X30305387Y74205300D01*
X29503373Y74205300D01*
X28762408Y73898382D01*
X28634380Y73770354D01*
X28506352Y73898382D01*
X27765387Y74205300D01*
X26963373Y74205300D01*
X26222408Y73898382D01*
X25655298Y73331272D01*
X25348380Y72590307D01*
X21837159Y72590307D01*
X21617482Y72681300D01*
X20411278Y72681300D01*
X19296890Y72219705D01*
X18443975Y71366790D01*
X17982380Y70252402D01*
X2865927Y70252402D01*
X3997119Y71340907D01*
X4025437Y71381572D01*
X4036053Y71433765D01*
X4000423Y74797300D01*
X68165068Y74797300D01*
X68237118Y70546348D01*
X68237118Y70546348D01*
G37*
X68237118Y70546348D02*
X68247608Y70497918D01*
X68274297Y70458697D01*
X70204697Y68528297D01*
X70245899Y68500767D01*
X70293851Y68491102D01*
X74797701Y68468084D01*
X74797701Y55060992D01*
X74420390Y55438303D01*
X73362971Y55876300D01*
X72218429Y55876300D01*
X71161010Y55438303D01*
X70351697Y54628990D01*
X69913700Y53571571D01*
X69913700Y52427029D01*
X70351697Y51369610D01*
X71161010Y50560297D01*
X72218429Y50122300D01*
X72227694Y50122300D01*
X72043477Y50085657D01*
X71890026Y49857502D01*
X72599700Y49147828D01*
X73309374Y49857502D01*
X73155923Y50085657D01*
X72809912Y50122300D01*
X73362971Y50122300D01*
X74420390Y50560297D01*
X74797701Y50937608D01*
X74797701Y41460992D01*
X74420390Y41838303D01*
X73362971Y42276300D01*
X72971706Y42276300D01*
X73155923Y42312943D01*
X73309374Y42541098D01*
X72599700Y43250772D01*
X71890026Y42541098D01*
X72043477Y42312943D01*
X72389488Y42276300D01*
X72218429Y42276300D01*
X71161010Y41838303D01*
X70351697Y41028990D01*
X69913700Y39971571D01*
X69913700Y38827029D01*
X70351697Y37769610D01*
X71161010Y36960297D01*
X71791113Y36699300D01*
X71161010Y36438303D01*
X70351697Y35628990D01*
X69913700Y34571571D01*
X69913700Y33427029D01*
X70351697Y32369610D01*
X71161010Y31560297D01*
X72218429Y31122300D01*
X72227694Y31122300D01*
X72043477Y31085657D01*
X71890026Y30857502D01*
X72599700Y30147828D01*
X73309374Y30857502D01*
X73155923Y31085657D01*
X72809912Y31122300D01*
X73362971Y31122300D01*
X74420390Y31560297D01*
X74797700Y31937607D01*
X74797700Y22460993D01*
X74420390Y22838303D01*
X73362971Y23276300D01*
X72971706Y23276300D01*
X73155923Y23312943D01*
X73309374Y23541098D01*
X72599700Y24250772D01*
X71890026Y23541098D01*
X72043477Y23312943D01*
X72389488Y23276300D01*
X72218429Y23276300D01*
X71161010Y22838303D01*
X70351697Y22028990D01*
X69913700Y20971571D01*
X69913700Y19827029D01*
X70351697Y18769610D01*
X71161010Y17960297D01*
X72218429Y17522300D01*
X73362971Y17522300D01*
X74420390Y17960297D01*
X74797700Y18337607D01*
X74797700Y3954780D01*
X70744080Y3954780D01*
X70695479Y3945113D01*
X70654277Y3917583D01*
X67794237Y1057543D01*
X67766707Y1016341D01*
X67757040Y967740D01*
X67757040Y-2798700D01*
X4902200Y-2798700D01*
X4902200Y294640D01*
X4892533Y343241D01*
X4865003Y384443D01*
X816243Y4433203D01*
X775041Y4460733D01*
X726440Y4470400D01*
X-2798300Y4470400D01*
X-2798300Y7467550D01*
X22864700Y7467550D01*
X22864700Y-1627010D01*
X22961373Y-1860399D01*
X23140002Y-2039027D01*
X23373391Y-2135700D01*
X25340950Y-2135700D01*
X25499700Y-1976950D01*
X25499700Y7626300D01*
X29499700Y7626300D01*
X29499700Y-1976950D01*
X29658450Y-2135700D01*
X31626009Y-2135700D01*
X31859398Y-2039027D01*
X32038027Y-1860399D01*
X32134700Y-1627010D01*
X32134700Y7467550D01*
X31975950Y7626300D01*
X29499700Y7626300D01*
X25499700Y7626300D01*
X23023450Y7626300D01*
X22864700Y7467550D01*
X-2798300Y7467550D01*
X-2798300Y15033769D01*
X-2730303Y14869610D01*
X-1920990Y14060297D01*
X-863571Y13622300D01*
X280971Y13622300D01*
X1338390Y14060297D01*
X2147703Y14869610D01*
X2585700Y15927029D01*
X2585700Y17071571D01*
X2147703Y18128990D01*
X1338390Y18938303D01*
X280971Y19376300D01*
X271706Y19376300D01*
X455923Y19412943D01*
X609374Y19641098D01*
X-100300Y20350772D01*
X-809974Y19641098D01*
X-656523Y19412943D01*
X-310512Y19376300D01*
X-863571Y19376300D01*
X-1920990Y18938303D01*
X-2730303Y18128990D01*
X-2798300Y17964831D01*
X-2798300Y21029574D01*
X-1963536Y21029574D01*
X-1886657Y20643077D01*
X-1658502Y20489626D01*
X-948828Y21199300D01*
X748228Y21199300D01*
X1457902Y20489626D01*
X1686057Y20643077D01*
X1762936Y21369026D01*
X1686057Y21755523D01*
X1457902Y21908974D01*
X748228Y21199300D01*
X-948828Y21199300D01*
X-1658502Y21908974D01*
X-1886657Y21755523D01*
X-1963536Y21029574D01*
X-2798300Y21029574D01*
X-2798300Y22757502D01*
X-809974Y22757502D01*
X-100300Y22047828D01*
X609374Y22757502D01*
X455923Y22985657D01*
X-270026Y23062536D01*
X-656523Y22985657D01*
X-809974Y22757502D01*
X-2798300Y22757502D01*
X-2798300Y23841098D01*
X-809974Y23841098D01*
X-656523Y23612943D01*
X69426Y23536064D01*
X455923Y23612943D01*
X609374Y23841098D01*
X-100300Y24550772D01*
X-809974Y23841098D01*
X-2798300Y23841098D01*
X-2798300Y25229574D01*
X-1963536Y25229574D01*
X-1886657Y24843077D01*
X-1658502Y24689626D01*
X-948828Y25399300D01*
X748228Y25399300D01*
X1457902Y24689626D01*
X1686057Y24843077D01*
X1762936Y25569026D01*
X1686057Y25955523D01*
X1457902Y26108974D01*
X748228Y25399300D01*
X-948828Y25399300D01*
X-1658502Y26108974D01*
X-1886657Y25955523D01*
X-1963536Y25229574D01*
X-2798300Y25229574D01*
X-2798300Y26957502D01*
X-809974Y26957502D01*
X-100300Y26247828D01*
X609374Y26957502D01*
X455923Y27185657D01*
X-270026Y27262536D01*
X-656523Y27185657D01*
X-809974Y26957502D01*
X-2798300Y26957502D01*
X-2798300Y28041098D01*
X-809974Y28041098D01*
X-656523Y27812943D01*
X69426Y27736064D01*
X455923Y27812943D01*
X609374Y28041098D01*
X-100300Y28750772D01*
X-809974Y28041098D01*
X-2798300Y28041098D01*
X-2798300Y29429574D01*
X-1963536Y29429574D01*
X-1886657Y29043077D01*
X-1658502Y28889626D01*
X-948828Y29599300D01*
X748228Y29599300D01*
X1457902Y28889626D01*
X1686057Y29043077D01*
X1762936Y29769026D01*
X1686057Y30155523D01*
X1457902Y30308974D01*
X748228Y29599300D01*
X-948828Y29599300D01*
X-1658502Y30308974D01*
X-1886657Y30155523D01*
X-1963536Y29429574D01*
X-2798300Y29429574D01*
X-2798300Y31157502D01*
X-809974Y31157502D01*
X-100300Y30447828D01*
X609374Y31157502D01*
X455923Y31385657D01*
X-270026Y31462536D01*
X-656523Y31385657D01*
X-809974Y31157502D01*
X-2798300Y31157502D01*
X-2798300Y32241098D01*
X-809974Y32241098D01*
X-656523Y32012943D01*
X69426Y31936064D01*
X455923Y32012943D01*
X609374Y32241098D01*
X-100300Y32950772D01*
X-809974Y32241098D01*
X-2798300Y32241098D01*
X-2798300Y33629574D01*
X-1963536Y33629574D01*
X-1886657Y33243077D01*
X-1658502Y33089626D01*
X-948828Y33799300D01*
X748228Y33799300D01*
X1457902Y33089626D01*
X1686057Y33243077D01*
X1762936Y33969026D01*
X1704627Y34262169D01*
X1772700Y34262169D01*
X1772700Y33336431D01*
X2126964Y32481160D01*
X2781560Y31826564D01*
X3088803Y31699300D01*
X2781560Y31572036D01*
X2126964Y30917440D01*
X1772700Y30062169D01*
X1772700Y29136431D01*
X2126964Y28281160D01*
X2781560Y27626564D01*
X3088803Y27499300D01*
X2781560Y27372036D01*
X2126964Y26717440D01*
X1772700Y25862169D01*
X1772700Y24936431D01*
X2126964Y24081160D01*
X2781560Y23426564D01*
X3088803Y23299300D01*
X2781560Y23172036D01*
X2126964Y22517440D01*
X1772700Y21662169D01*
X1772700Y20736431D01*
X2126964Y19881160D01*
X2781560Y19226564D01*
X3636831Y18872300D01*
X4562569Y18872300D01*
X5417840Y19226564D01*
X6072436Y19881160D01*
X6426700Y20736431D01*
X6426700Y21625610D01*
X22864700Y21625610D01*
X22864700Y12531050D01*
X23023450Y12372300D01*
X25499700Y12372300D01*
X25499700Y21975550D01*
X29499700Y21975550D01*
X29499700Y12372300D01*
X31975950Y12372300D01*
X32134700Y12531050D01*
X32134700Y21499300D01*
X39350621Y21499300D01*
X39350621Y-1500700D01*
X39438089Y-1940433D01*
X39687178Y-2313222D01*
X40059967Y-2562311D01*
X40499700Y-2649779D01*
X48499700Y-2649779D01*
X48939433Y-2562311D01*
X49312222Y-2313222D01*
X49561311Y-1940433D01*
X49648779Y-1500700D01*
X49648779Y21499300D01*
X49561311Y21939033D01*
X49312222Y22311822D01*
X48939433Y22560911D01*
X48499700Y22648379D01*
X40499700Y22648379D01*
X40059967Y22560911D01*
X39687178Y22311822D01*
X39438089Y21939033D01*
X39350621Y21499300D01*
X32134700Y21499300D01*
X32134700Y21625610D01*
X32038027Y21858999D01*
X31859398Y22037627D01*
X31626009Y22134300D01*
X29658450Y22134300D01*
X29499700Y21975550D01*
X25499700Y21975550D01*
X25340950Y22134300D01*
X23373391Y22134300D01*
X23140002Y22037627D01*
X22961373Y21858999D01*
X22864700Y21625610D01*
X6426700Y21625610D01*
X6426700Y21662169D01*
X6072436Y22517440D01*
X5417840Y23172036D01*
X5110597Y23299300D01*
X5417840Y23426564D01*
X6072436Y24081160D01*
X6426700Y24936431D01*
X6426700Y25862169D01*
X6072436Y26717440D01*
X5417840Y27372036D01*
X5110597Y27499300D01*
X5417840Y27626564D01*
X6072436Y28281160D01*
X6426700Y29136431D01*
X6426700Y30062169D01*
X6072436Y30917440D01*
X5417840Y31572036D01*
X5110597Y31699300D01*
X5417840Y31826564D01*
X6072436Y32481160D01*
X6426700Y33336431D01*
X6426700Y34262169D01*
X6072436Y35117440D01*
X5417840Y35772036D01*
X4562569Y36126300D01*
X3636831Y36126300D01*
X2781560Y35772036D01*
X2126964Y35117440D01*
X1772700Y34262169D01*
X1704627Y34262169D01*
X1686057Y34355523D01*
X1457902Y34508974D01*
X748228Y33799300D01*
X-948828Y33799300D01*
X-1658502Y34508974D01*
X-1886657Y34355523D01*
X-1963536Y33629574D01*
X-2798300Y33629574D01*
X-2798300Y37033769D01*
X-2730303Y36869610D01*
X-1920990Y36060297D01*
X-863571Y35622300D01*
X-472306Y35622300D01*
X-656523Y35585657D01*
X-809974Y35357502D01*
X-100300Y34647828D01*
X609374Y35357502D01*
X455923Y35585657D01*
X109912Y35622300D01*
X280971Y35622300D01*
X1338390Y36060297D01*
X1532241Y36254148D01*
X38830700Y36254148D01*
X38830700Y35686452D01*
X39047947Y35161969D01*
X39239616Y34970300D01*
X39047947Y34778631D01*
X38830700Y34254148D01*
X38830700Y33686452D01*
X39047947Y33161969D01*
X39239616Y32970300D01*
X39047947Y32778631D01*
X38830700Y32254148D01*
X38830700Y31686452D01*
X39047947Y31161969D01*
X39239616Y30970300D01*
X39047947Y30778631D01*
X38830700Y30254148D01*
X38830700Y29686452D01*
X39047947Y29161969D01*
X39239616Y28970300D01*
X39047947Y28778631D01*
X38830700Y28254148D01*
X38830700Y27686452D01*
X39047947Y27161969D01*
X39449369Y26760547D01*
X39973852Y26543300D01*
X40541548Y26543300D01*
X41066031Y26760547D01*
X41257700Y26952216D01*
X41449369Y26760547D01*
X41973852Y26543300D01*
X42541548Y26543300D01*
X43066031Y26760547D01*
X43257700Y26952216D01*
X43449369Y26760547D01*
X43973852Y26543300D01*
X44541548Y26543300D01*
X45066031Y26760547D01*
X45257700Y26952216D01*
X45449369Y26760547D01*
X45973852Y26543300D01*
X46541548Y26543300D01*
X47066031Y26760547D01*
X47257700Y26952216D01*
X47449369Y26760547D01*
X47973852Y26543300D01*
X48541548Y26543300D01*
X49066031Y26760547D01*
X49467453Y27161969D01*
X49684700Y27686452D01*
X49684700Y28254148D01*
X49467453Y28778631D01*
X49275784Y28970300D01*
X49467453Y29161969D01*
X49684700Y29686452D01*
X49684700Y29762169D01*
X66072700Y29762169D01*
X66072700Y28836431D01*
X66426964Y27981160D01*
X67081560Y27326564D01*
X67388803Y27199300D01*
X67081560Y27072036D01*
X66426964Y26417440D01*
X66072700Y25562169D01*
X66072700Y24636431D01*
X66426964Y23781160D01*
X67081560Y23126564D01*
X67936831Y22772300D01*
X68862569Y22772300D01*
X69717840Y23126564D01*
X70372436Y23781160D01*
X70726700Y24636431D01*
X70726700Y24929574D01*
X70736464Y24929574D01*
X70813343Y24543077D01*
X71041498Y24389626D01*
X71751172Y25099300D01*
X73448228Y25099300D01*
X74157902Y24389626D01*
X74386057Y24543077D01*
X74462936Y25269026D01*
X74386057Y25655523D01*
X74157902Y25808974D01*
X73448228Y25099300D01*
X71751172Y25099300D01*
X71041498Y25808974D01*
X70813343Y25655523D01*
X70736464Y24929574D01*
X70726700Y24929574D01*
X70726700Y25562169D01*
X70372436Y26417440D01*
X70132374Y26657502D01*
X71890026Y26657502D01*
X72599700Y25947828D01*
X73309374Y26657502D01*
X73155923Y26885657D01*
X72429974Y26962536D01*
X72043477Y26885657D01*
X71890026Y26657502D01*
X70132374Y26657502D01*
X69717840Y27072036D01*
X69410597Y27199300D01*
X69717840Y27326564D01*
X70132374Y27741098D01*
X71890026Y27741098D01*
X72043477Y27512943D01*
X72769426Y27436064D01*
X73155923Y27512943D01*
X73309374Y27741098D01*
X72599700Y28450772D01*
X71890026Y27741098D01*
X70132374Y27741098D01*
X70372436Y27981160D01*
X70726700Y28836431D01*
X70726700Y29129574D01*
X70736464Y29129574D01*
X70813343Y28743077D01*
X71041498Y28589626D01*
X71751172Y29299300D01*
X73448228Y29299300D01*
X74157902Y28589626D01*
X74386057Y28743077D01*
X74462936Y29469026D01*
X74386057Y29855523D01*
X74157902Y30008974D01*
X73448228Y29299300D01*
X71751172Y29299300D01*
X71041498Y30008974D01*
X70813343Y29855523D01*
X70736464Y29129574D01*
X70726700Y29129574D01*
X70726700Y29762169D01*
X70372436Y30617440D01*
X69717840Y31272036D01*
X68862569Y31626300D01*
X67936831Y31626300D01*
X67081560Y31272036D01*
X66426964Y30617440D01*
X66072700Y29762169D01*
X49684700Y29762169D01*
X49684700Y30254148D01*
X49467453Y30778631D01*
X49275784Y30970300D01*
X49467453Y31161969D01*
X49684700Y31686452D01*
X49684700Y32254148D01*
X49467453Y32778631D01*
X49275784Y32970300D01*
X49467453Y33161969D01*
X49684700Y33686452D01*
X49684700Y34254148D01*
X49467453Y34778631D01*
X49275784Y34970300D01*
X49467453Y35161969D01*
X49684700Y35686452D01*
X49684700Y36254148D01*
X49467453Y36778631D01*
X49066031Y37180053D01*
X48541548Y37397300D01*
X47973852Y37397300D01*
X47449369Y37180053D01*
X47257700Y36988384D01*
X47066031Y37180053D01*
X46541548Y37397300D01*
X45973852Y37397300D01*
X45449369Y37180053D01*
X45257700Y36988384D01*
X45066031Y37180053D01*
X44541548Y37397300D01*
X43973852Y37397300D01*
X43449369Y37180053D01*
X43257700Y36988384D01*
X43066031Y37180053D01*
X42541548Y37397300D01*
X41973852Y37397300D01*
X41449369Y37180053D01*
X41257700Y36988384D01*
X41066031Y37180053D01*
X40541548Y37397300D01*
X39973852Y37397300D01*
X39449369Y37180053D01*
X39047947Y36778631D01*
X38830700Y36254148D01*
X1532241Y36254148D01*
X2147703Y36869610D01*
X2585700Y37927029D01*
X2585700Y39071571D01*
X2147703Y40128990D01*
X1338390Y40938303D01*
X280971Y41376300D01*
X-863571Y41376300D01*
X-1920990Y40938303D01*
X-2730303Y40128990D01*
X-2798300Y39964831D01*
X-2798300Y49722907D01*
X-2072571Y49422300D01*
X-928029Y49422300D01*
X129390Y49860297D01*
X938703Y50669610D01*
X1105936Y51073347D01*
X1226964Y50781160D01*
X1881560Y50126564D01*
X2188803Y49999300D01*
X1881560Y49872036D01*
X1226964Y49217440D01*
X872700Y48362169D01*
X872700Y47436431D01*
X1226964Y46581160D01*
X1881560Y45926564D01*
X2736831Y45572300D01*
X3662569Y45572300D01*
X4517840Y45926564D01*
X4932374Y46341098D01*
X6690026Y46341098D01*
X6843477Y46112943D01*
X7569426Y46036064D01*
X7955923Y46112943D01*
X8109374Y46341098D01*
X10890026Y46341098D01*
X11043477Y46112943D01*
X11769426Y46036064D01*
X12155923Y46112943D01*
X12309374Y46341098D01*
X11599700Y47050772D01*
X10890026Y46341098D01*
X8109374Y46341098D01*
X7399700Y47050772D01*
X6690026Y46341098D01*
X4932374Y46341098D01*
X5172436Y46581160D01*
X5526700Y47436431D01*
X5526700Y47729574D01*
X5536464Y47729574D01*
X5613343Y47343077D01*
X5841498Y47189626D01*
X6551172Y47899300D01*
X8248228Y47899300D01*
X8957902Y47189626D01*
X9186057Y47343077D01*
X9226987Y47729574D01*
X9736464Y47729574D01*
X9813343Y47343077D01*
X10041498Y47189626D01*
X10751172Y47899300D01*
X12448228Y47899300D01*
X13157902Y47189626D01*
X13386057Y47343077D01*
X13462936Y48069026D01*
X13386057Y48455523D01*
X13157902Y48608974D01*
X12448228Y47899300D01*
X10751172Y47899300D01*
X10041498Y48608974D01*
X9813343Y48455523D01*
X9736464Y47729574D01*
X9226987Y47729574D01*
X9262936Y48069026D01*
X9186057Y48455523D01*
X8957902Y48608974D01*
X8248228Y47899300D01*
X6551172Y47899300D01*
X5841498Y48608974D01*
X5613343Y48455523D01*
X5536464Y47729574D01*
X5526700Y47729574D01*
X5526700Y48362169D01*
X5172436Y49217440D01*
X4932374Y49457502D01*
X6690026Y49457502D01*
X7399700Y48747828D01*
X8109374Y49457502D01*
X10890026Y49457502D01*
X11599700Y48747828D01*
X12309374Y49457502D01*
X12155923Y49685657D01*
X11429974Y49762536D01*
X11043477Y49685657D01*
X10890026Y49457502D01*
X8109374Y49457502D01*
X7955923Y49685657D01*
X7229974Y49762536D01*
X6843477Y49685657D01*
X6690026Y49457502D01*
X4932374Y49457502D01*
X4517840Y49872036D01*
X4210597Y49999300D01*
X4517840Y50126564D01*
X5172436Y50781160D01*
X5299700Y51088403D01*
X5426964Y50781160D01*
X6081560Y50126564D01*
X6936831Y49772300D01*
X7862569Y49772300D01*
X8717840Y50126564D01*
X9372436Y50781160D01*
X9499700Y51088403D01*
X9626964Y50781160D01*
X10281560Y50126564D01*
X11136831Y49772300D01*
X12062569Y49772300D01*
X12917840Y50126564D01*
X13572436Y50781160D01*
X13699700Y51088403D01*
X13826964Y50781160D01*
X14481560Y50126564D01*
X14788803Y49999300D01*
X14481560Y49872036D01*
X13826964Y49217440D01*
X13472700Y48362169D01*
X13472700Y47436431D01*
X13826964Y46581160D01*
X14481560Y45926564D01*
X15336831Y45572300D01*
X16262569Y45572300D01*
X17117840Y45926564D01*
X17772436Y46581160D01*
X17899700Y46888403D01*
X18026964Y46581160D01*
X18681560Y45926564D01*
X19536831Y45572300D01*
X20462569Y45572300D01*
X21317840Y45926564D01*
X21972436Y46581160D01*
X22099700Y46888403D01*
X22226964Y46581160D01*
X22881560Y45926564D01*
X23736831Y45572300D01*
X24662569Y45572300D01*
X25517840Y45926564D01*
X26172436Y46581160D01*
X26299700Y46888403D01*
X26426964Y46581160D01*
X27081560Y45926564D01*
X27936831Y45572300D01*
X28862569Y45572300D01*
X29717840Y45926564D01*
X30372436Y46581160D01*
X30499700Y46888403D01*
X30626964Y46581160D01*
X31281560Y45926564D01*
X32136831Y45572300D01*
X33062569Y45572300D01*
X33917840Y45926564D01*
X34572436Y46581160D01*
X34699700Y46888403D01*
X34826964Y46581160D01*
X35481560Y45926564D01*
X36336831Y45572300D01*
X37262569Y45572300D01*
X38117840Y45926564D01*
X38772436Y46581160D01*
X38899700Y46888403D01*
X39026964Y46581160D01*
X39681560Y45926564D01*
X40536831Y45572300D01*
X41462569Y45572300D01*
X42317840Y45926564D01*
X42972436Y46581160D01*
X43099700Y46888403D01*
X43226964Y46581160D01*
X43881560Y45926564D01*
X44736831Y45572300D01*
X45662569Y45572300D01*
X46517840Y45926564D01*
X47172436Y46581160D01*
X47299700Y46888403D01*
X47426964Y46581160D01*
X48081560Y45926564D01*
X48936831Y45572300D01*
X49862569Y45572300D01*
X50717840Y45926564D01*
X51372436Y46581160D01*
X51726700Y47436431D01*
X51726700Y48362169D01*
X51561015Y48762169D01*
X66072700Y48762169D01*
X66072700Y47836431D01*
X66426964Y46981160D01*
X67081560Y46326564D01*
X67388803Y46199300D01*
X67081560Y46072036D01*
X66426964Y45417440D01*
X66072700Y44562169D01*
X66072700Y43636431D01*
X66426964Y42781160D01*
X67081560Y42126564D01*
X67936831Y41772300D01*
X68862569Y41772300D01*
X69717840Y42126564D01*
X70372436Y42781160D01*
X70726700Y43636431D01*
X70726700Y43929574D01*
X70736464Y43929574D01*
X70813343Y43543077D01*
X71041498Y43389626D01*
X71751172Y44099300D01*
X73448228Y44099300D01*
X74157902Y43389626D01*
X74386057Y43543077D01*
X74462936Y44269026D01*
X74386057Y44655523D01*
X74157902Y44808974D01*
X73448228Y44099300D01*
X71751172Y44099300D01*
X71041498Y44808974D01*
X70813343Y44655523D01*
X70736464Y43929574D01*
X70726700Y43929574D01*
X70726700Y44562169D01*
X70372436Y45417440D01*
X70132374Y45657502D01*
X71890026Y45657502D01*
X72599700Y44947828D01*
X73309374Y45657502D01*
X73155923Y45885657D01*
X72429974Y45962536D01*
X72043477Y45885657D01*
X71890026Y45657502D01*
X70132374Y45657502D01*
X69717840Y46072036D01*
X69410597Y46199300D01*
X69717840Y46326564D01*
X70132374Y46741098D01*
X71890026Y46741098D01*
X72043477Y46512943D01*
X72769426Y46436064D01*
X73155923Y46512943D01*
X73309374Y46741098D01*
X72599700Y47450772D01*
X71890026Y46741098D01*
X70132374Y46741098D01*
X70372436Y46981160D01*
X70726700Y47836431D01*
X70726700Y48129574D01*
X70736464Y48129574D01*
X70813343Y47743077D01*
X71041498Y47589626D01*
X71751172Y48299300D01*
X73448228Y48299300D01*
X74157902Y47589626D01*
X74386057Y47743077D01*
X74462936Y48469026D01*
X74386057Y48855523D01*
X74157902Y49008974D01*
X73448228Y48299300D01*
X71751172Y48299300D01*
X71041498Y49008974D01*
X70813343Y48855523D01*
X70736464Y48129574D01*
X70726700Y48129574D01*
X70726700Y48762169D01*
X70372436Y49617440D01*
X69717840Y50272036D01*
X68862569Y50626300D01*
X67936831Y50626300D01*
X67081560Y50272036D01*
X66426964Y49617440D01*
X66072700Y48762169D01*
X51561015Y48762169D01*
X51372436Y49217440D01*
X50717840Y49872036D01*
X50410597Y49999300D01*
X50717840Y50126564D01*
X51372436Y50781160D01*
X51493464Y51073347D01*
X51660697Y50669610D01*
X52470010Y49860297D01*
X53527429Y49422300D01*
X54671971Y49422300D01*
X55729390Y49860297D01*
X56538703Y50669610D01*
X56976700Y51727029D01*
X56976700Y52871571D01*
X56538703Y53928990D01*
X55729390Y54738303D01*
X54671971Y55176300D01*
X53527429Y55176300D01*
X52470010Y54738303D01*
X51660697Y53928990D01*
X51410621Y53325253D01*
X51372436Y53417440D01*
X50717840Y54072036D01*
X49862569Y54426300D01*
X48936831Y54426300D01*
X48081560Y54072036D01*
X47426964Y53417440D01*
X47299700Y53110197D01*
X47172436Y53417440D01*
X46517840Y54072036D01*
X45662569Y54426300D01*
X44736831Y54426300D01*
X43881560Y54072036D01*
X43226964Y53417440D01*
X43099700Y53110197D01*
X42972436Y53417440D01*
X42317840Y54072036D01*
X41462569Y54426300D01*
X40536831Y54426300D01*
X39681560Y54072036D01*
X39026964Y53417440D01*
X38899700Y53110197D01*
X38772436Y53417440D01*
X38117840Y54072036D01*
X37262569Y54426300D01*
X36336831Y54426300D01*
X35481560Y54072036D01*
X34826964Y53417440D01*
X34699700Y53110197D01*
X34572436Y53417440D01*
X33917840Y54072036D01*
X33062569Y54426300D01*
X32136831Y54426300D01*
X31281560Y54072036D01*
X30626964Y53417440D01*
X30499700Y53110197D01*
X30372436Y53417440D01*
X29717840Y54072036D01*
X28862569Y54426300D01*
X27936831Y54426300D01*
X27081560Y54072036D01*
X26426964Y53417440D01*
X26299700Y53110197D01*
X26172436Y53417440D01*
X25517840Y54072036D01*
X24662569Y54426300D01*
X23736831Y54426300D01*
X22881560Y54072036D01*
X22226964Y53417440D01*
X22099700Y53110197D01*
X21972436Y53417440D01*
X21317840Y54072036D01*
X20462569Y54426300D01*
X19536831Y54426300D01*
X18681560Y54072036D01*
X18026964Y53417440D01*
X17899700Y53110197D01*
X17772436Y53417440D01*
X17117840Y54072036D01*
X16262569Y54426300D01*
X15336831Y54426300D01*
X14481560Y54072036D01*
X13826964Y53417440D01*
X13699700Y53110197D01*
X13572436Y53417440D01*
X12917840Y54072036D01*
X12062569Y54426300D01*
X11136831Y54426300D01*
X10281560Y54072036D01*
X9626964Y53417440D01*
X9499700Y53110197D01*
X9372436Y53417440D01*
X8717840Y54072036D01*
X7862569Y54426300D01*
X6936831Y54426300D01*
X6081560Y54072036D01*
X5426964Y53417440D01*
X5299700Y53110197D01*
X5172436Y53417440D01*
X4517840Y54072036D01*
X3662569Y54426300D01*
X2736831Y54426300D01*
X1881560Y54072036D01*
X1226964Y53417440D01*
X1188779Y53325253D01*
X938703Y53928990D01*
X129390Y54738303D01*
X-928029Y55176300D01*
X-2072571Y55176300D01*
X-2798300Y54875693D01*
X-2798300Y67947095D01*
X408555Y67937381D01*
X457185Y67946901D01*
X496999Y67972867D01*
X1738056Y69167091D01*
X1868671Y69221194D01*
X2790506Y70143029D01*
X2815850Y70204214D01*
X2865927Y70252402D01*
X17982380Y70252402D01*
X17982380Y69046198D01*
X18443975Y67931810D01*
X19296890Y67078895D01*
X19718598Y66904218D01*
X19506380Y66391879D01*
X19506380Y65286721D01*
X19929306Y64265690D01*
X20710770Y63484226D01*
X21731801Y63061300D01*
X22836959Y63061300D01*
X23857990Y63484226D01*
X24639454Y64265690D01*
X25062380Y65286721D01*
X25062380Y66391879D01*
X24639454Y67412910D01*
X23857990Y68194374D01*
X23717625Y68252515D01*
X24046380Y69046198D01*
X24046380Y70252402D01*
X23584785Y71366790D01*
X22731870Y72219705D01*
X21837159Y72590307D01*
X25348380Y72590307D01*
X25348380Y71788293D01*
X25655298Y71047328D01*
X25783326Y70919300D01*
X25655298Y70791272D01*
X25348380Y70050307D01*
X25348380Y69248293D01*
X25655298Y68507328D01*
X25783326Y68379300D01*
X25655298Y68251272D01*
X25348380Y67510307D01*
X25348380Y66708293D01*
X25655298Y65967328D01*
X25783326Y65839300D01*
X25655298Y65711272D01*
X25348380Y64970307D01*
X25348380Y64168293D01*
X25655298Y63427328D01*
X26222408Y62860218D01*
X26963373Y62553300D01*
X27765387Y62553300D01*
X28506352Y62860218D01*
X28634380Y62988246D01*
X28762408Y62860218D01*
X29503373Y62553300D01*
X30305387Y62553300D01*
X31046352Y62860218D01*
X31613462Y63427328D01*
X31920380Y64168293D01*
X31920380Y64970307D01*
X31613462Y65711272D01*
X31485434Y65839300D01*
X31613462Y65967328D01*
X31920380Y66708293D01*
X31920380Y67510307D01*
X31613462Y68251272D01*
X31485434Y68379300D01*
X31613462Y68507328D01*
X31920380Y69248293D01*
X31920380Y70050307D01*
X31613462Y70791272D01*
X31485434Y70919300D01*
X31613462Y71047328D01*
X31920380Y71788293D01*
X31920380Y72590307D01*
X32968380Y72590307D01*
X32968380Y71788293D01*
X33275298Y71047328D01*
X33403326Y70919300D01*
X33275298Y70791272D01*
X32968380Y70050307D01*
X32968380Y69248293D01*
X33275298Y68507328D01*
X33403326Y68379300D01*
X33275298Y68251272D01*
X32968380Y67510307D01*
X32968380Y66708293D01*
X33275298Y65967328D01*
X33403326Y65839300D01*
X33275298Y65711272D01*
X32968380Y64970307D01*
X32968380Y64168293D01*
X33275298Y63427328D01*
X33842408Y62860218D01*
X34583373Y62553300D01*
X35385387Y62553300D01*
X36126352Y62860218D01*
X36254380Y62988246D01*
X36382408Y62860218D01*
X37123373Y62553300D01*
X37925387Y62553300D01*
X38666352Y62860218D01*
X39126046Y63319912D01*
X41983610Y63319912D01*
X42088821Y63103466D01*
X42689016Y63017750D01*
X43119939Y63103466D01*
X43225150Y63319912D01*
X44523610Y63319912D01*
X44628821Y63103466D01*
X45229016Y63017750D01*
X45659939Y63103466D01*
X45765150Y63319912D01*
X45144380Y63940682D01*
X44523610Y63319912D01*
X43225150Y63319912D01*
X42604380Y63940682D01*
X41983610Y63319912D01*
X39126046Y63319912D01*
X39233462Y63427328D01*
X39540380Y64168293D01*
X39540380Y64484664D01*
X41052830Y64484664D01*
X41138546Y64053741D01*
X41354992Y63948530D01*
X41975762Y64569300D01*
X43232998Y64569300D01*
X43661162Y64141136D01*
X43678546Y64053741D01*
X43814777Y63987521D01*
X43853768Y63948530D01*
X43874380Y63958549D01*
X43894992Y63948530D01*
X43933983Y63987521D01*
X44070214Y64053741D01*
X44081878Y64135416D01*
X44515762Y64569300D01*
X45772998Y64569300D01*
X46393768Y63948530D01*
X46610214Y64053741D01*
X46695930Y64653936D01*
X46610214Y65084859D01*
X46393768Y65190070D01*
X45772998Y64569300D01*
X44515762Y64569300D01*
X44087598Y64997464D01*
X44070214Y65084859D01*
X43933983Y65151079D01*
X43894992Y65190070D01*
X43874380Y65180051D01*
X43853768Y65190070D01*
X43814777Y65151079D01*
X43678546Y65084859D01*
X43666882Y65003184D01*
X43232998Y64569300D01*
X41975762Y64569300D01*
X41354992Y65190070D01*
X41138546Y65084859D01*
X41052830Y64484664D01*
X39540380Y64484664D01*
X39540380Y64970307D01*
X39233462Y65711272D01*
X39105434Y65839300D01*
X39126046Y65859912D01*
X41983610Y65859912D01*
X41993629Y65839300D01*
X41983610Y65818688D01*
X42022601Y65779697D01*
X42088821Y65643466D01*
X42170496Y65631802D01*
X42604380Y65197918D01*
X43032544Y65626082D01*
X43119939Y65643466D01*
X43186159Y65779697D01*
X43225150Y65818688D01*
X43215131Y65839300D01*
X43225150Y65859912D01*
X44523610Y65859912D01*
X44533629Y65839300D01*
X44523610Y65818688D01*
X44562601Y65779697D01*
X44628821Y65643466D01*
X44710496Y65631802D01*
X45144380Y65197918D01*
X45572544Y65626082D01*
X45659939Y65643466D01*
X45726159Y65779697D01*
X45765150Y65818688D01*
X45755131Y65839300D01*
X45765150Y65859912D01*
X45726159Y65898903D01*
X45659939Y66035134D01*
X45578264Y66046798D01*
X45233183Y66391879D01*
X47446380Y66391879D01*
X47446380Y65286721D01*
X47869306Y64265690D01*
X48650770Y63484226D01*
X49671801Y63061300D01*
X50776959Y63061300D01*
X51797990Y63484226D01*
X52579454Y64265690D01*
X53002380Y65286721D01*
X53002380Y66391879D01*
X52790162Y66904218D01*
X53211870Y67078895D01*
X54064785Y67931810D01*
X54526380Y69046198D01*
X54526380Y70252402D01*
X54064785Y71366790D01*
X53211870Y72219705D01*
X52097482Y72681300D01*
X50891278Y72681300D01*
X49776890Y72219705D01*
X48923975Y71366790D01*
X48462380Y70252402D01*
X48462380Y69046198D01*
X48791135Y68252515D01*
X48650770Y68194374D01*
X47869306Y67412910D01*
X47446380Y66391879D01*
X45233183Y66391879D01*
X45144380Y66480682D01*
X44716216Y66052518D01*
X44628821Y66035134D01*
X44562601Y65898903D01*
X44523610Y65859912D01*
X43225150Y65859912D01*
X43186159Y65898903D01*
X43119939Y66035134D01*
X43038264Y66046798D01*
X42604380Y66480682D01*
X42176216Y66052518D01*
X42088821Y66035134D01*
X42022601Y65898903D01*
X41983610Y65859912D01*
X39126046Y65859912D01*
X39233462Y65967328D01*
X39540380Y66708293D01*
X39540380Y67024664D01*
X41052830Y67024664D01*
X41138546Y66593741D01*
X41354992Y66488530D01*
X41975762Y67109300D01*
X43232998Y67109300D01*
X43661162Y66681136D01*
X43678546Y66593741D01*
X43814777Y66527521D01*
X43853768Y66488530D01*
X43874380Y66498549D01*
X43894992Y66488530D01*
X43933983Y66527521D01*
X44070214Y66593741D01*
X44081878Y66675416D01*
X44515762Y67109300D01*
X45772998Y67109300D01*
X46393768Y66488530D01*
X46610214Y66593741D01*
X46695930Y67193936D01*
X46610214Y67624859D01*
X46393768Y67730070D01*
X45772998Y67109300D01*
X44515762Y67109300D01*
X44087598Y67537464D01*
X44070214Y67624859D01*
X43933983Y67691079D01*
X43894992Y67730070D01*
X43874380Y67720051D01*
X43853768Y67730070D01*
X43814777Y67691079D01*
X43678546Y67624859D01*
X43666882Y67543184D01*
X43232998Y67109300D01*
X41975762Y67109300D01*
X41354992Y67730070D01*
X41138546Y67624859D01*
X41052830Y67024664D01*
X39540380Y67024664D01*
X39540380Y67510307D01*
X39233462Y68251272D01*
X39105434Y68379300D01*
X39126046Y68399912D01*
X41983610Y68399912D01*
X41993629Y68379300D01*
X41983610Y68358688D01*
X42022601Y68319697D01*
X42088821Y68183466D01*
X42170496Y68171802D01*
X42604380Y67737918D01*
X43032544Y68166082D01*
X43119939Y68183466D01*
X43186159Y68319697D01*
X43225150Y68358688D01*
X43215131Y68379300D01*
X43225150Y68399912D01*
X44523610Y68399912D01*
X44533629Y68379300D01*
X44523610Y68358688D01*
X44562601Y68319697D01*
X44628821Y68183466D01*
X44710496Y68171802D01*
X45144380Y67737918D01*
X45572544Y68166082D01*
X45659939Y68183466D01*
X45726159Y68319697D01*
X45765150Y68358688D01*
X45755131Y68379300D01*
X45765150Y68399912D01*
X45726159Y68438903D01*
X45659939Y68575134D01*
X45578264Y68586798D01*
X45144380Y69020682D01*
X44716216Y68592518D01*
X44628821Y68575134D01*
X44562601Y68438903D01*
X44523610Y68399912D01*
X43225150Y68399912D01*
X43186159Y68438903D01*
X43119939Y68575134D01*
X43038264Y68586798D01*
X42604380Y69020682D01*
X42176216Y68592518D01*
X42088821Y68575134D01*
X42022601Y68438903D01*
X41983610Y68399912D01*
X39126046Y68399912D01*
X39233462Y68507328D01*
X39540380Y69248293D01*
X39540380Y69564664D01*
X41052830Y69564664D01*
X41138546Y69133741D01*
X41354992Y69028530D01*
X41975762Y69649300D01*
X43232998Y69649300D01*
X43661162Y69221136D01*
X43678546Y69133741D01*
X43814777Y69067521D01*
X43853768Y69028530D01*
X43874380Y69038549D01*
X43894992Y69028530D01*
X43933983Y69067521D01*
X44070214Y69133741D01*
X44081878Y69215416D01*
X44515762Y69649300D01*
X45772998Y69649300D01*
X46393768Y69028530D01*
X46610214Y69133741D01*
X46695930Y69733936D01*
X46610214Y70164859D01*
X46393768Y70270070D01*
X45772998Y69649300D01*
X44515762Y69649300D01*
X44087598Y70077464D01*
X44070214Y70164859D01*
X43933983Y70231079D01*
X43894992Y70270070D01*
X43874380Y70260051D01*
X43853768Y70270070D01*
X43814777Y70231079D01*
X43678546Y70164859D01*
X43666882Y70083184D01*
X43232998Y69649300D01*
X41975762Y69649300D01*
X41354992Y70270070D01*
X41138546Y70164859D01*
X41052830Y69564664D01*
X39540380Y69564664D01*
X39540380Y70050307D01*
X39233462Y70791272D01*
X39105434Y70919300D01*
X39126046Y70939912D01*
X41983610Y70939912D01*
X41993629Y70919300D01*
X41983610Y70898688D01*
X42022601Y70859697D01*
X42088821Y70723466D01*
X42170496Y70711802D01*
X42604380Y70277918D01*
X43032544Y70706082D01*
X43119939Y70723466D01*
X43186159Y70859697D01*
X43225150Y70898688D01*
X43215131Y70919300D01*
X43225150Y70939912D01*
X44523610Y70939912D01*
X44533629Y70919300D01*
X44523610Y70898688D01*
X44562601Y70859697D01*
X44628821Y70723466D01*
X44710496Y70711802D01*
X45144380Y70277918D01*
X45572544Y70706082D01*
X45659939Y70723466D01*
X45726159Y70859697D01*
X45765150Y70898688D01*
X45755131Y70919300D01*
X45765150Y70939912D01*
X45726159Y70978903D01*
X45659939Y71115134D01*
X45578264Y71126798D01*
X45144380Y71560682D01*
X44716216Y71132518D01*
X44628821Y71115134D01*
X44562601Y70978903D01*
X44523610Y70939912D01*
X43225150Y70939912D01*
X43186159Y70978903D01*
X43119939Y71115134D01*
X43038264Y71126798D01*
X42604380Y71560682D01*
X42176216Y71132518D01*
X42088821Y71115134D01*
X42022601Y70978903D01*
X41983610Y70939912D01*
X39126046Y70939912D01*
X39233462Y71047328D01*
X39540380Y71788293D01*
X39540380Y72104664D01*
X41052830Y72104664D01*
X41138546Y71673741D01*
X41354992Y71568530D01*
X41975762Y72189300D01*
X43232998Y72189300D01*
X43661162Y71761136D01*
X43678546Y71673741D01*
X43814777Y71607521D01*
X43853768Y71568530D01*
X43874380Y71578549D01*
X43894992Y71568530D01*
X43933983Y71607521D01*
X44070214Y71673741D01*
X44081878Y71755416D01*
X44515762Y72189300D01*
X45772998Y72189300D01*
X46393768Y71568530D01*
X46610214Y71673741D01*
X46695930Y72273936D01*
X46610214Y72704859D01*
X46393768Y72810070D01*
X45772998Y72189300D01*
X44515762Y72189300D01*
X44087598Y72617464D01*
X44070214Y72704859D01*
X43933983Y72771079D01*
X43894992Y72810070D01*
X43874380Y72800051D01*
X43853768Y72810070D01*
X43814777Y72771079D01*
X43678546Y72704859D01*
X43666882Y72623184D01*
X43232998Y72189300D01*
X41975762Y72189300D01*
X41354992Y72810070D01*
X41138546Y72704859D01*
X41052830Y72104664D01*
X39540380Y72104664D01*
X39540380Y72590307D01*
X39233462Y73331272D01*
X39126046Y73438688D01*
X41983610Y73438688D01*
X42604380Y72817918D01*
X43225150Y73438688D01*
X44523610Y73438688D01*
X45144380Y72817918D01*
X45765150Y73438688D01*
X45659939Y73655134D01*
X45059744Y73740850D01*
X44628821Y73655134D01*
X44523610Y73438688D01*
X43225150Y73438688D01*
X43119939Y73655134D01*
X42519744Y73740850D01*
X42088821Y73655134D01*
X41983610Y73438688D01*
X39126046Y73438688D01*
X38666352Y73898382D01*
X37925387Y74205300D01*
X37123373Y74205300D01*
X36382408Y73898382D01*
X36254380Y73770354D01*
X36126352Y73898382D01*
X35385387Y74205300D01*
X34583373Y74205300D01*
X33842408Y73898382D01*
X33275298Y73331272D01*
X32968380Y72590307D01*
X31920380Y72590307D01*
X31613462Y73331272D01*
X31046352Y73898382D01*
X30305387Y74205300D01*
X29503373Y74205300D01*
X28762408Y73898382D01*
X28634380Y73770354D01*
X28506352Y73898382D01*
X27765387Y74205300D01*
X26963373Y74205300D01*
X26222408Y73898382D01*
X25655298Y73331272D01*
X25348380Y72590307D01*
X21837159Y72590307D01*
X21617482Y72681300D01*
X20411278Y72681300D01*
X19296890Y72219705D01*
X18443975Y71366790D01*
X17982380Y70252402D01*
X2865927Y70252402D01*
X3997119Y71340907D01*
X4025437Y71381572D01*
X4036053Y71433765D01*
X4000423Y74797300D01*
X68165068Y74797300D01*
X68237118Y70546348D01*
G04 #@! TD*
M02*
