G04 #@! TF.GenerationSoftware,KiCad,Pcbnew,(5.0.1)-3*
G04 #@! TF.CreationDate,2020-07-01T10:05:04+02:00*
G04 #@! TF.ProjectId,alim winterfell,616C696D2077696E74657266656C6C2E,rev?*
G04 #@! TF.SameCoordinates,PX632eb2cPY5b8d544*
G04 #@! TF.FileFunction,Soldermask,Top*
G04 #@! TF.FilePolarity,Negative*
%FSLAX46Y46*%
G04 Gerber Fmt 4.6, Leading zero omitted, Abs format (unit mm)*
G04 Created by KiCad (PCBNEW (5.0.1)-3) date 01/07/2020 10:05:04*
%MOMM*%
%LPD*%
G01*
G04 APERTURE LIST*
%ADD10C,0.100000*%
G04 APERTURE END LIST*
D10*
G36*
X72654406Y2115718D02*
X73054965Y1949801D01*
X73415459Y1708927D01*
X73722027Y1402359D01*
X73962901Y1041865D01*
X74128818Y641306D01*
X74213400Y216081D01*
X74213400Y-217481D01*
X74128818Y-642706D01*
X73962901Y-1043265D01*
X73722027Y-1403759D01*
X73415459Y-1710327D01*
X73054965Y-1951201D01*
X72654406Y-2117118D01*
X72229181Y-2201700D01*
X71795619Y-2201700D01*
X71370394Y-2117118D01*
X70969835Y-1951201D01*
X70609341Y-1710327D01*
X70302773Y-1403759D01*
X70061899Y-1043265D01*
X69895982Y-642706D01*
X69811400Y-217481D01*
X69811400Y216081D01*
X69895982Y641306D01*
X70061899Y1041865D01*
X70302773Y1402359D01*
X70609341Y1708927D01*
X70969835Y1949801D01*
X71370394Y2115718D01*
X71795619Y2200300D01*
X72229181Y2200300D01*
X72654406Y2115718D01*
X72654406Y2115718D01*
G37*
G36*
X654406Y2115718D02*
X1054965Y1949801D01*
X1415459Y1708927D01*
X1722027Y1402359D01*
X1962901Y1041865D01*
X2128818Y641306D01*
X2213400Y216081D01*
X2213400Y-217481D01*
X2128818Y-642706D01*
X1962901Y-1043265D01*
X1722027Y-1403759D01*
X1415459Y-1710327D01*
X1054965Y-1951201D01*
X654406Y-2117118D01*
X229181Y-2201700D01*
X-204381Y-2201700D01*
X-629606Y-2117118D01*
X-1030165Y-1951201D01*
X-1390659Y-1710327D01*
X-1697227Y-1403759D01*
X-1938101Y-1043265D01*
X-2104018Y-642706D01*
X-2188600Y-217481D01*
X-2188600Y216081D01*
X-2104018Y641306D01*
X-1938101Y1041865D01*
X-1697227Y1402359D01*
X-1390659Y1708927D01*
X-1030165Y1949801D01*
X-629606Y2115718D01*
X-204381Y2200300D01*
X229181Y2200300D01*
X654406Y2115718D01*
X654406Y2115718D01*
G37*
G36*
X31550700Y-1551700D02*
X23448700Y-1551700D01*
X23448700Y21550300D01*
X31550700Y21550300D01*
X31550700Y-1551700D01*
X31550700Y-1551700D01*
G37*
G36*
X48550700Y-1551700D02*
X40448700Y-1551700D01*
X40448700Y21550300D01*
X48550700Y21550300D01*
X48550700Y-1551700D01*
X48550700Y-1551700D01*
G37*
G36*
X234031Y18231089D02*
X561792Y18095326D01*
X856773Y17898226D01*
X1107626Y17647373D01*
X1304726Y17352392D01*
X1440489Y17024631D01*
X1509700Y16676684D01*
X1509700Y16321916D01*
X1440489Y15973969D01*
X1304726Y15646208D01*
X1107626Y15351227D01*
X856773Y15100374D01*
X561792Y14903274D01*
X234031Y14767511D01*
X-113916Y14698300D01*
X-468684Y14698300D01*
X-816631Y14767511D01*
X-1144392Y14903274D01*
X-1439373Y15100374D01*
X-1690226Y15351227D01*
X-1887326Y15646208D01*
X-2023089Y15973969D01*
X-2092300Y16321916D01*
X-2092300Y16676684D01*
X-2023089Y17024631D01*
X-1887326Y17352392D01*
X-1690226Y17647373D01*
X-1439373Y17898226D01*
X-1144392Y18095326D01*
X-816631Y18231089D01*
X-468684Y18300300D01*
X-113916Y18300300D01*
X234031Y18231089D01*
X234031Y18231089D01*
G37*
G36*
X73316031Y22131089D02*
X73643792Y21995326D01*
X73938773Y21798226D01*
X74189626Y21547373D01*
X74386726Y21252392D01*
X74522489Y20924631D01*
X74591700Y20576684D01*
X74591700Y20221916D01*
X74522489Y19873969D01*
X74386726Y19546208D01*
X74189626Y19251227D01*
X73938773Y19000374D01*
X73643792Y18803274D01*
X73316031Y18667511D01*
X72968084Y18598300D01*
X72613316Y18598300D01*
X72265369Y18667511D01*
X71937608Y18803274D01*
X71642627Y19000374D01*
X71391774Y19251227D01*
X71194674Y19546208D01*
X71058911Y19873969D01*
X70989700Y20221916D01*
X70989700Y20576684D01*
X71058911Y20924631D01*
X71194674Y21252392D01*
X71391774Y21547373D01*
X71642627Y21798226D01*
X71937608Y21995326D01*
X72265369Y22131089D01*
X72613316Y22200300D01*
X72968084Y22200300D01*
X73316031Y22131089D01*
X73316031Y22131089D01*
G37*
G36*
X83335Y22438281D02*
X264603Y22402225D01*
X492271Y22307922D01*
X653338Y22200300D01*
X697169Y22171013D01*
X871413Y21996769D01*
X871415Y21996766D01*
X1008322Y21791871D01*
X1102625Y21564203D01*
X1150700Y21322513D01*
X1150700Y21076087D01*
X1102625Y20834397D01*
X1008322Y20606729D01*
X872032Y20402758D01*
X871413Y20401831D01*
X697169Y20227587D01*
X697166Y20227585D01*
X492271Y20090678D01*
X264603Y19996375D01*
X83336Y19960319D01*
X22914Y19948300D01*
X-223514Y19948300D01*
X-283936Y19960319D01*
X-465203Y19996375D01*
X-692871Y20090678D01*
X-897766Y20227585D01*
X-897769Y20227587D01*
X-1072013Y20401831D01*
X-1072632Y20402758D01*
X-1208922Y20606729D01*
X-1303225Y20834397D01*
X-1351300Y21076087D01*
X-1351300Y21322513D01*
X-1303225Y21564203D01*
X-1208922Y21791871D01*
X-1072015Y21996766D01*
X-1072013Y21996769D01*
X-897769Y22171013D01*
X-853938Y22200300D01*
X-692871Y22307922D01*
X-465203Y22402225D01*
X-283935Y22438281D01*
X-223514Y22450300D01*
X22914Y22450300D01*
X83335Y22438281D01*
X83335Y22438281D01*
G37*
G36*
X4283335Y22438281D02*
X4464603Y22402225D01*
X4692271Y22307922D01*
X4853338Y22200300D01*
X4897169Y22171013D01*
X5071413Y21996769D01*
X5071415Y21996766D01*
X5208322Y21791871D01*
X5302625Y21564203D01*
X5350700Y21322513D01*
X5350700Y21076087D01*
X5302625Y20834397D01*
X5208322Y20606729D01*
X5072032Y20402758D01*
X5071413Y20401831D01*
X4897169Y20227587D01*
X4897166Y20227585D01*
X4692271Y20090678D01*
X4464603Y19996375D01*
X4283336Y19960319D01*
X4222914Y19948300D01*
X3976486Y19948300D01*
X3916064Y19960319D01*
X3734797Y19996375D01*
X3507129Y20090678D01*
X3302234Y20227585D01*
X3302231Y20227587D01*
X3127987Y20401831D01*
X3127368Y20402758D01*
X2991078Y20606729D01*
X2896775Y20834397D01*
X2848700Y21076087D01*
X2848700Y21322513D01*
X2896775Y21564203D01*
X2991078Y21791871D01*
X3127985Y21996766D01*
X3127987Y21996769D01*
X3302231Y22171013D01*
X3346062Y22200300D01*
X3507129Y22307922D01*
X3734797Y22402225D01*
X3916065Y22438281D01*
X3976486Y22450300D01*
X4222914Y22450300D01*
X4283335Y22438281D01*
X4283335Y22438281D01*
G37*
G36*
X72783336Y26338281D02*
X72964603Y26302225D01*
X73192271Y26207922D01*
X73396242Y26071632D01*
X73397169Y26071013D01*
X73571413Y25896769D01*
X73571415Y25896766D01*
X73708322Y25691871D01*
X73802625Y25464203D01*
X73838681Y25282936D01*
X73840044Y25276087D01*
X73850700Y25222513D01*
X73850700Y24976087D01*
X73802625Y24734397D01*
X73708322Y24506729D01*
X73655439Y24427585D01*
X73571413Y24301831D01*
X73397169Y24127587D01*
X73397166Y24127585D01*
X73192271Y23990678D01*
X72964603Y23896375D01*
X72783335Y23860319D01*
X72722914Y23848300D01*
X72476486Y23848300D01*
X72416065Y23860319D01*
X72234797Y23896375D01*
X72007129Y23990678D01*
X71802234Y24127585D01*
X71802231Y24127587D01*
X71627987Y24301831D01*
X71543961Y24427585D01*
X71491078Y24506729D01*
X71396775Y24734397D01*
X71348700Y24976087D01*
X71348700Y25222513D01*
X71359357Y25276087D01*
X71360719Y25282936D01*
X71396775Y25464203D01*
X71491078Y25691871D01*
X71627985Y25896766D01*
X71627987Y25896769D01*
X71802231Y26071013D01*
X71803158Y26071632D01*
X72007129Y26207922D01*
X72234797Y26302225D01*
X72416064Y26338281D01*
X72476486Y26350300D01*
X72722914Y26350300D01*
X72783336Y26338281D01*
X72783336Y26338281D01*
G37*
G36*
X68583336Y26338281D02*
X68764603Y26302225D01*
X68992271Y26207922D01*
X69196242Y26071632D01*
X69197169Y26071013D01*
X69371413Y25896769D01*
X69371415Y25896766D01*
X69508322Y25691871D01*
X69602625Y25464203D01*
X69638681Y25282936D01*
X69640044Y25276087D01*
X69650700Y25222513D01*
X69650700Y24976087D01*
X69602625Y24734397D01*
X69508322Y24506729D01*
X69455439Y24427585D01*
X69371413Y24301831D01*
X69197169Y24127587D01*
X69197166Y24127585D01*
X68992271Y23990678D01*
X68764603Y23896375D01*
X68583335Y23860319D01*
X68522914Y23848300D01*
X68276486Y23848300D01*
X68216065Y23860319D01*
X68034797Y23896375D01*
X67807129Y23990678D01*
X67602234Y24127585D01*
X67602231Y24127587D01*
X67427987Y24301831D01*
X67343961Y24427585D01*
X67291078Y24506729D01*
X67196775Y24734397D01*
X67148700Y24976087D01*
X67148700Y25222513D01*
X67159357Y25276087D01*
X67160719Y25282936D01*
X67196775Y25464203D01*
X67291078Y25691871D01*
X67427985Y25896766D01*
X67427987Y25896769D01*
X67602231Y26071013D01*
X67603158Y26071632D01*
X67807129Y26207922D01*
X68034797Y26302225D01*
X68216064Y26338281D01*
X68276486Y26350300D01*
X68522914Y26350300D01*
X68583336Y26338281D01*
X68583336Y26338281D01*
G37*
G36*
X4283335Y26638281D02*
X4464603Y26602225D01*
X4692271Y26507922D01*
X4896242Y26371632D01*
X4897169Y26371013D01*
X5071413Y26196769D01*
X5071415Y26196766D01*
X5208322Y25991871D01*
X5302625Y25764203D01*
X5338681Y25582935D01*
X5350700Y25522514D01*
X5350700Y25276086D01*
X5338681Y25215665D01*
X5302625Y25034397D01*
X5208322Y24806729D01*
X5072032Y24602758D01*
X5071413Y24601831D01*
X4897169Y24427587D01*
X4897166Y24427585D01*
X4692271Y24290678D01*
X4464603Y24196375D01*
X4283336Y24160319D01*
X4222914Y24148300D01*
X3976486Y24148300D01*
X3916064Y24160319D01*
X3734797Y24196375D01*
X3507129Y24290678D01*
X3302234Y24427585D01*
X3302231Y24427587D01*
X3127987Y24601831D01*
X3127368Y24602758D01*
X2991078Y24806729D01*
X2896775Y25034397D01*
X2860719Y25215665D01*
X2848700Y25276086D01*
X2848700Y25522514D01*
X2860719Y25582935D01*
X2896775Y25764203D01*
X2991078Y25991871D01*
X3127985Y26196766D01*
X3127987Y26196769D01*
X3302231Y26371013D01*
X3303158Y26371632D01*
X3507129Y26507922D01*
X3734797Y26602225D01*
X3916065Y26638281D01*
X3976486Y26650300D01*
X4222914Y26650300D01*
X4283335Y26638281D01*
X4283335Y26638281D01*
G37*
G36*
X83335Y26638281D02*
X264603Y26602225D01*
X492271Y26507922D01*
X696242Y26371632D01*
X697169Y26371013D01*
X871413Y26196769D01*
X871415Y26196766D01*
X1008322Y25991871D01*
X1102625Y25764203D01*
X1138681Y25582935D01*
X1150700Y25522514D01*
X1150700Y25276086D01*
X1138681Y25215665D01*
X1102625Y25034397D01*
X1008322Y24806729D01*
X872032Y24602758D01*
X871413Y24601831D01*
X697169Y24427587D01*
X697166Y24427585D01*
X492271Y24290678D01*
X264603Y24196375D01*
X83336Y24160319D01*
X22914Y24148300D01*
X-223514Y24148300D01*
X-283936Y24160319D01*
X-465203Y24196375D01*
X-692871Y24290678D01*
X-897766Y24427585D01*
X-897769Y24427587D01*
X-1072013Y24601831D01*
X-1072632Y24602758D01*
X-1208922Y24806729D01*
X-1303225Y25034397D01*
X-1339281Y25215665D01*
X-1351300Y25276086D01*
X-1351300Y25522514D01*
X-1339281Y25582935D01*
X-1303225Y25764203D01*
X-1208922Y25991871D01*
X-1072015Y26196766D01*
X-1072013Y26196769D01*
X-897769Y26371013D01*
X-896842Y26371632D01*
X-692871Y26507922D01*
X-465203Y26602225D01*
X-283935Y26638281D01*
X-223514Y26650300D01*
X22914Y26650300D01*
X83335Y26638281D01*
X83335Y26638281D01*
G37*
G36*
X68583336Y30538281D02*
X68764603Y30502225D01*
X68992271Y30407922D01*
X69196242Y30271632D01*
X69197169Y30271013D01*
X69371413Y30096769D01*
X69371415Y30096766D01*
X69508322Y29891871D01*
X69602625Y29664203D01*
X69638681Y29482935D01*
X69640044Y29476087D01*
X69650700Y29422513D01*
X69650700Y29176087D01*
X69602625Y28934397D01*
X69508322Y28706729D01*
X69455439Y28627585D01*
X69371413Y28501831D01*
X69197169Y28327587D01*
X69197166Y28327585D01*
X68992271Y28190678D01*
X68764603Y28096375D01*
X68583335Y28060319D01*
X68522914Y28048300D01*
X68276486Y28048300D01*
X68216065Y28060319D01*
X68034797Y28096375D01*
X67807129Y28190678D01*
X67602234Y28327585D01*
X67602231Y28327587D01*
X67427987Y28501831D01*
X67343961Y28627585D01*
X67291078Y28706729D01*
X67196775Y28934397D01*
X67148700Y29176087D01*
X67148700Y29422513D01*
X67159357Y29476087D01*
X67160719Y29482935D01*
X67196775Y29664203D01*
X67291078Y29891871D01*
X67427985Y30096766D01*
X67427987Y30096769D01*
X67602231Y30271013D01*
X67603158Y30271632D01*
X67807129Y30407922D01*
X68034797Y30502225D01*
X68216064Y30538281D01*
X68276486Y30550300D01*
X68522914Y30550300D01*
X68583336Y30538281D01*
X68583336Y30538281D01*
G37*
G36*
X72783336Y30538281D02*
X72964603Y30502225D01*
X73192271Y30407922D01*
X73396242Y30271632D01*
X73397169Y30271013D01*
X73571413Y30096769D01*
X73571415Y30096766D01*
X73708322Y29891871D01*
X73802625Y29664203D01*
X73838681Y29482935D01*
X73840044Y29476087D01*
X73850700Y29422513D01*
X73850700Y29176087D01*
X73802625Y28934397D01*
X73708322Y28706729D01*
X73655439Y28627585D01*
X73571413Y28501831D01*
X73397169Y28327587D01*
X73397166Y28327585D01*
X73192271Y28190678D01*
X72964603Y28096375D01*
X72783335Y28060319D01*
X72722914Y28048300D01*
X72476486Y28048300D01*
X72416065Y28060319D01*
X72234797Y28096375D01*
X72007129Y28190678D01*
X71802234Y28327585D01*
X71802231Y28327587D01*
X71627987Y28501831D01*
X71543961Y28627585D01*
X71491078Y28706729D01*
X71396775Y28934397D01*
X71348700Y29176087D01*
X71348700Y29422513D01*
X71359357Y29476087D01*
X71360719Y29482935D01*
X71396775Y29664203D01*
X71491078Y29891871D01*
X71627985Y30096766D01*
X71627987Y30096769D01*
X71802231Y30271013D01*
X71803158Y30271632D01*
X72007129Y30407922D01*
X72234797Y30502225D01*
X72416064Y30538281D01*
X72476486Y30550300D01*
X72722914Y30550300D01*
X72783336Y30538281D01*
X72783336Y30538281D01*
G37*
G36*
X83335Y30838281D02*
X264603Y30802225D01*
X492271Y30707922D01*
X696242Y30571632D01*
X697169Y30571013D01*
X871413Y30396769D01*
X871415Y30396766D01*
X1008322Y30191871D01*
X1102625Y29964203D01*
X1138681Y29782936D01*
X1150700Y29722514D01*
X1150700Y29476086D01*
X1138681Y29415665D01*
X1102625Y29234397D01*
X1008322Y29006729D01*
X872032Y28802758D01*
X871413Y28801831D01*
X697169Y28627587D01*
X697166Y28627585D01*
X492271Y28490678D01*
X264603Y28396375D01*
X83335Y28360319D01*
X22914Y28348300D01*
X-223514Y28348300D01*
X-283935Y28360319D01*
X-465203Y28396375D01*
X-692871Y28490678D01*
X-897766Y28627585D01*
X-897769Y28627587D01*
X-1072013Y28801831D01*
X-1072632Y28802758D01*
X-1208922Y29006729D01*
X-1303225Y29234397D01*
X-1339281Y29415665D01*
X-1351300Y29476086D01*
X-1351300Y29722514D01*
X-1339281Y29782936D01*
X-1303225Y29964203D01*
X-1208922Y30191871D01*
X-1072015Y30396766D01*
X-1072013Y30396769D01*
X-897769Y30571013D01*
X-896842Y30571632D01*
X-692871Y30707922D01*
X-465203Y30802225D01*
X-283935Y30838281D01*
X-223514Y30850300D01*
X22914Y30850300D01*
X83335Y30838281D01*
X83335Y30838281D01*
G37*
G36*
X4283335Y30838281D02*
X4464603Y30802225D01*
X4692271Y30707922D01*
X4896242Y30571632D01*
X4897169Y30571013D01*
X5071413Y30396769D01*
X5071415Y30396766D01*
X5208322Y30191871D01*
X5302625Y29964203D01*
X5338681Y29782936D01*
X5350700Y29722514D01*
X5350700Y29476086D01*
X5338681Y29415665D01*
X5302625Y29234397D01*
X5208322Y29006729D01*
X5072032Y28802758D01*
X5071413Y28801831D01*
X4897169Y28627587D01*
X4897166Y28627585D01*
X4692271Y28490678D01*
X4464603Y28396375D01*
X4283335Y28360319D01*
X4222914Y28348300D01*
X3976486Y28348300D01*
X3916065Y28360319D01*
X3734797Y28396375D01*
X3507129Y28490678D01*
X3302234Y28627585D01*
X3302231Y28627587D01*
X3127987Y28801831D01*
X3127368Y28802758D01*
X2991078Y29006729D01*
X2896775Y29234397D01*
X2860719Y29415665D01*
X2848700Y29476086D01*
X2848700Y29722514D01*
X2860719Y29782936D01*
X2896775Y29964203D01*
X2991078Y30191871D01*
X3127985Y30396766D01*
X3127987Y30396769D01*
X3302231Y30571013D01*
X3303158Y30571632D01*
X3507129Y30707922D01*
X3734797Y30802225D01*
X3916065Y30838281D01*
X3976486Y30850300D01*
X4222914Y30850300D01*
X4283335Y30838281D01*
X4283335Y30838281D01*
G37*
G36*
X30548860Y31280800D02*
X29546860Y31280800D01*
X29546860Y33082800D01*
X30548860Y33082800D01*
X30548860Y31280800D01*
X30548860Y31280800D01*
G37*
G36*
X27648860Y31280800D02*
X26646860Y31280800D01*
X26646860Y33082800D01*
X27648860Y33082800D01*
X27648860Y31280800D01*
X27648860Y31280800D01*
G37*
G36*
X22656700Y31363020D02*
X21054700Y31363020D01*
X21054700Y32965020D01*
X22656700Y32965020D01*
X22656700Y31363020D01*
X22656700Y31363020D01*
G37*
G36*
X19356700Y31363020D02*
X17754700Y31363020D01*
X17754700Y32965020D01*
X19356700Y32965020D01*
X19356700Y31363020D01*
X19356700Y31363020D01*
G37*
G36*
X73316031Y35731089D02*
X73643792Y35595326D01*
X73938773Y35398226D01*
X74189626Y35147373D01*
X74386726Y34852392D01*
X74522489Y34524631D01*
X74591700Y34176684D01*
X74591700Y33821916D01*
X74522489Y33473969D01*
X74386726Y33146208D01*
X74189626Y32851227D01*
X73938773Y32600374D01*
X73643792Y32403274D01*
X73316031Y32267511D01*
X72968084Y32198300D01*
X72613316Y32198300D01*
X72265369Y32267511D01*
X71937608Y32403274D01*
X71642627Y32600374D01*
X71391774Y32851227D01*
X71194674Y33146208D01*
X71058911Y33473969D01*
X70989700Y33821916D01*
X70989700Y34176684D01*
X71058911Y34524631D01*
X71194674Y34852392D01*
X71391774Y35147373D01*
X71642627Y35398226D01*
X71937608Y35595326D01*
X72265369Y35731089D01*
X72613316Y35800300D01*
X72968084Y35800300D01*
X73316031Y35731089D01*
X73316031Y35731089D01*
G37*
G36*
X4283336Y35038281D02*
X4464603Y35002225D01*
X4692271Y34907922D01*
X4896242Y34771632D01*
X4897169Y34771013D01*
X5071413Y34596769D01*
X5071415Y34596766D01*
X5208322Y34391871D01*
X5302625Y34164203D01*
X5350700Y33922513D01*
X5350700Y33676087D01*
X5302625Y33434397D01*
X5208322Y33206729D01*
X5167882Y33146207D01*
X5071413Y33001831D01*
X4897169Y32827587D01*
X4897166Y32827585D01*
X4692271Y32690678D01*
X4464603Y32596375D01*
X4283336Y32560319D01*
X4222914Y32548300D01*
X3976486Y32548300D01*
X3916064Y32560319D01*
X3734797Y32596375D01*
X3507129Y32690678D01*
X3302234Y32827585D01*
X3302231Y32827587D01*
X3127987Y33001831D01*
X3031518Y33146207D01*
X2991078Y33206729D01*
X2896775Y33434397D01*
X2848700Y33676087D01*
X2848700Y33922513D01*
X2896775Y34164203D01*
X2991078Y34391871D01*
X3127985Y34596766D01*
X3127987Y34596769D01*
X3302231Y34771013D01*
X3303158Y34771632D01*
X3507129Y34907922D01*
X3734797Y35002225D01*
X3916064Y35038281D01*
X3976486Y35050300D01*
X4222914Y35050300D01*
X4283336Y35038281D01*
X4283336Y35038281D01*
G37*
G36*
X83336Y35038281D02*
X264603Y35002225D01*
X492271Y34907922D01*
X696242Y34771632D01*
X697169Y34771013D01*
X871413Y34596769D01*
X871415Y34596766D01*
X1008322Y34391871D01*
X1102625Y34164203D01*
X1150700Y33922513D01*
X1150700Y33676087D01*
X1102625Y33434397D01*
X1008322Y33206729D01*
X967882Y33146207D01*
X871413Y33001831D01*
X697169Y32827587D01*
X697166Y32827585D01*
X492271Y32690678D01*
X264603Y32596375D01*
X83336Y32560319D01*
X22914Y32548300D01*
X-223514Y32548300D01*
X-283936Y32560319D01*
X-465203Y32596375D01*
X-692871Y32690678D01*
X-897766Y32827585D01*
X-897769Y32827587D01*
X-1072013Y33001831D01*
X-1168482Y33146207D01*
X-1208922Y33206729D01*
X-1303225Y33434397D01*
X-1351300Y33676087D01*
X-1351300Y33922513D01*
X-1303225Y34164203D01*
X-1208922Y34391871D01*
X-1072015Y34596766D01*
X-1072013Y34596769D01*
X-897769Y34771013D01*
X-896842Y34771632D01*
X-692871Y34907922D01*
X-465203Y35002225D01*
X-283936Y35038281D01*
X-223514Y35050300D01*
X22914Y35050300D01*
X83336Y35038281D01*
X83336Y35038281D01*
G37*
G36*
X234031Y40231089D02*
X561792Y40095326D01*
X856773Y39898226D01*
X1107626Y39647373D01*
X1304726Y39352392D01*
X1440489Y39024631D01*
X1509700Y38676684D01*
X1509700Y38321916D01*
X1440489Y37973969D01*
X1304726Y37646208D01*
X1107626Y37351227D01*
X856773Y37100374D01*
X561792Y36903274D01*
X234031Y36767511D01*
X-113916Y36698300D01*
X-468684Y36698300D01*
X-816631Y36767511D01*
X-1144392Y36903274D01*
X-1439373Y37100374D01*
X-1690226Y37351227D01*
X-1887326Y37646208D01*
X-2023089Y37973969D01*
X-2092300Y38321916D01*
X-2092300Y38676684D01*
X-2023089Y39024631D01*
X-1887326Y39352392D01*
X-1690226Y39647373D01*
X-1439373Y39898226D01*
X-1144392Y40095326D01*
X-816631Y40231089D01*
X-468684Y40300300D01*
X-113916Y40300300D01*
X234031Y40231089D01*
X234031Y40231089D01*
G37*
G36*
X73316031Y41131089D02*
X73643792Y40995326D01*
X73938773Y40798226D01*
X74189626Y40547373D01*
X74386726Y40252392D01*
X74522489Y39924631D01*
X74591700Y39576684D01*
X74591700Y39221916D01*
X74522489Y38873969D01*
X74386726Y38546208D01*
X74189626Y38251227D01*
X73938773Y38000374D01*
X73643792Y37803274D01*
X73316031Y37667511D01*
X72968084Y37598300D01*
X72613316Y37598300D01*
X72265369Y37667511D01*
X71937608Y37803274D01*
X71642627Y38000374D01*
X71391774Y38251227D01*
X71194674Y38546208D01*
X71058911Y38873969D01*
X70989700Y39221916D01*
X70989700Y39576684D01*
X71058911Y39924631D01*
X71194674Y40252392D01*
X71391774Y40547373D01*
X71642627Y40798226D01*
X71937608Y40995326D01*
X72265369Y41131089D01*
X72613316Y41200300D01*
X72968084Y41200300D01*
X73316031Y41131089D01*
X73316031Y41131089D01*
G37*
G36*
X68583336Y45338281D02*
X68764603Y45302225D01*
X68992271Y45207922D01*
X69196242Y45071632D01*
X69197169Y45071013D01*
X69371413Y44896769D01*
X69371415Y44896766D01*
X69508322Y44691871D01*
X69602625Y44464203D01*
X69650700Y44222513D01*
X69650700Y43976087D01*
X69602625Y43734397D01*
X69508322Y43506729D01*
X69372032Y43302758D01*
X69371413Y43301831D01*
X69197169Y43127587D01*
X69197166Y43127585D01*
X68992271Y42990678D01*
X68764603Y42896375D01*
X68583335Y42860319D01*
X68522914Y42848300D01*
X68276486Y42848300D01*
X68216065Y42860319D01*
X68034797Y42896375D01*
X67807129Y42990678D01*
X67602234Y43127585D01*
X67602231Y43127587D01*
X67427987Y43301831D01*
X67427368Y43302758D01*
X67291078Y43506729D01*
X67196775Y43734397D01*
X67148700Y43976087D01*
X67148700Y44222513D01*
X67196775Y44464203D01*
X67291078Y44691871D01*
X67427985Y44896766D01*
X67427987Y44896769D01*
X67602231Y45071013D01*
X67603158Y45071632D01*
X67807129Y45207922D01*
X68034797Y45302225D01*
X68216065Y45338281D01*
X68276486Y45350300D01*
X68522914Y45350300D01*
X68583336Y45338281D01*
X68583336Y45338281D01*
G37*
G36*
X72783336Y45338281D02*
X72964603Y45302225D01*
X73192271Y45207922D01*
X73396242Y45071632D01*
X73397169Y45071013D01*
X73571413Y44896769D01*
X73571415Y44896766D01*
X73708322Y44691871D01*
X73802625Y44464203D01*
X73850700Y44222513D01*
X73850700Y43976087D01*
X73802625Y43734397D01*
X73708322Y43506729D01*
X73572032Y43302758D01*
X73571413Y43301831D01*
X73397169Y43127587D01*
X73397166Y43127585D01*
X73192271Y42990678D01*
X72964603Y42896375D01*
X72783335Y42860319D01*
X72722914Y42848300D01*
X72476486Y42848300D01*
X72416065Y42860319D01*
X72234797Y42896375D01*
X72007129Y42990678D01*
X71802234Y43127585D01*
X71802231Y43127587D01*
X71627987Y43301831D01*
X71627368Y43302758D01*
X71491078Y43506729D01*
X71396775Y43734397D01*
X71348700Y43976087D01*
X71348700Y44222513D01*
X71396775Y44464203D01*
X71491078Y44691871D01*
X71627985Y44896766D01*
X71627987Y44896769D01*
X71802231Y45071013D01*
X71803158Y45071632D01*
X72007129Y45207922D01*
X72234797Y45302225D01*
X72416065Y45338281D01*
X72476486Y45350300D01*
X72722914Y45350300D01*
X72783336Y45338281D01*
X72783336Y45338281D01*
G37*
G36*
X7583336Y49138281D02*
X7764603Y49102225D01*
X7992271Y49007922D01*
X8165953Y48891871D01*
X8197169Y48871013D01*
X8371413Y48696769D01*
X8371415Y48696766D01*
X8508322Y48491871D01*
X8602625Y48264203D01*
X8650700Y48022513D01*
X8650700Y47776087D01*
X8602625Y47534397D01*
X8508322Y47306729D01*
X8372032Y47102758D01*
X8371413Y47101831D01*
X8197169Y46927587D01*
X8197166Y46927585D01*
X7992271Y46790678D01*
X7764603Y46696375D01*
X7583335Y46660319D01*
X7522914Y46648300D01*
X7276486Y46648300D01*
X7216065Y46660319D01*
X7034797Y46696375D01*
X6807129Y46790678D01*
X6602234Y46927585D01*
X6602231Y46927587D01*
X6427987Y47101831D01*
X6427368Y47102758D01*
X6291078Y47306729D01*
X6196775Y47534397D01*
X6148700Y47776087D01*
X6148700Y48022513D01*
X6196775Y48264203D01*
X6291078Y48491871D01*
X6427985Y48696766D01*
X6427987Y48696769D01*
X6602231Y48871013D01*
X6633447Y48891871D01*
X6807129Y49007922D01*
X7034797Y49102225D01*
X7216065Y49138281D01*
X7276486Y49150300D01*
X7522914Y49150300D01*
X7583336Y49138281D01*
X7583336Y49138281D01*
G37*
G36*
X11783336Y49138281D02*
X11964603Y49102225D01*
X12192271Y49007922D01*
X12365953Y48891871D01*
X12397169Y48871013D01*
X12571413Y48696769D01*
X12571415Y48696766D01*
X12708322Y48491871D01*
X12802625Y48264203D01*
X12850700Y48022513D01*
X12850700Y47776087D01*
X12802625Y47534397D01*
X12708322Y47306729D01*
X12572032Y47102758D01*
X12571413Y47101831D01*
X12397169Y46927587D01*
X12397166Y46927585D01*
X12192271Y46790678D01*
X11964603Y46696375D01*
X11783335Y46660319D01*
X11722914Y46648300D01*
X11476486Y46648300D01*
X11416065Y46660319D01*
X11234797Y46696375D01*
X11007129Y46790678D01*
X10802234Y46927585D01*
X10802231Y46927587D01*
X10627987Y47101831D01*
X10627368Y47102758D01*
X10491078Y47306729D01*
X10396775Y47534397D01*
X10348700Y47776087D01*
X10348700Y48022513D01*
X10396775Y48264203D01*
X10491078Y48491871D01*
X10627985Y48696766D01*
X10627987Y48696769D01*
X10802231Y48871013D01*
X10833447Y48891871D01*
X11007129Y49007922D01*
X11234797Y49102225D01*
X11416065Y49138281D01*
X11476486Y49150300D01*
X11722914Y49150300D01*
X11783336Y49138281D01*
X11783336Y49138281D01*
G37*
G36*
X49583336Y49138281D02*
X49764603Y49102225D01*
X49992271Y49007922D01*
X50165953Y48891871D01*
X50197169Y48871013D01*
X50371413Y48696769D01*
X50371415Y48696766D01*
X50508322Y48491871D01*
X50602625Y48264203D01*
X50650700Y48022513D01*
X50650700Y47776087D01*
X50602625Y47534397D01*
X50508322Y47306729D01*
X50372032Y47102758D01*
X50371413Y47101831D01*
X50197169Y46927587D01*
X50197166Y46927585D01*
X49992271Y46790678D01*
X49764603Y46696375D01*
X49583335Y46660319D01*
X49522914Y46648300D01*
X49276486Y46648300D01*
X49216065Y46660319D01*
X49034797Y46696375D01*
X48807129Y46790678D01*
X48602234Y46927585D01*
X48602231Y46927587D01*
X48427987Y47101831D01*
X48427368Y47102758D01*
X48291078Y47306729D01*
X48196775Y47534397D01*
X48148700Y47776087D01*
X48148700Y48022513D01*
X48196775Y48264203D01*
X48291078Y48491871D01*
X48427985Y48696766D01*
X48427987Y48696769D01*
X48602231Y48871013D01*
X48633447Y48891871D01*
X48807129Y49007922D01*
X49034797Y49102225D01*
X49216065Y49138281D01*
X49276486Y49150300D01*
X49522914Y49150300D01*
X49583336Y49138281D01*
X49583336Y49138281D01*
G37*
G36*
X45383336Y49138281D02*
X45564603Y49102225D01*
X45792271Y49007922D01*
X45965953Y48891871D01*
X45997169Y48871013D01*
X46171413Y48696769D01*
X46171415Y48696766D01*
X46308322Y48491871D01*
X46402625Y48264203D01*
X46450700Y48022513D01*
X46450700Y47776087D01*
X46402625Y47534397D01*
X46308322Y47306729D01*
X46172032Y47102758D01*
X46171413Y47101831D01*
X45997169Y46927587D01*
X45997166Y46927585D01*
X45792271Y46790678D01*
X45564603Y46696375D01*
X45383335Y46660319D01*
X45322914Y46648300D01*
X45076486Y46648300D01*
X45016065Y46660319D01*
X44834797Y46696375D01*
X44607129Y46790678D01*
X44402234Y46927585D01*
X44402231Y46927587D01*
X44227987Y47101831D01*
X44227368Y47102758D01*
X44091078Y47306729D01*
X43996775Y47534397D01*
X43948700Y47776087D01*
X43948700Y48022513D01*
X43996775Y48264203D01*
X44091078Y48491871D01*
X44227985Y48696766D01*
X44227987Y48696769D01*
X44402231Y48871013D01*
X44433447Y48891871D01*
X44607129Y49007922D01*
X44834797Y49102225D01*
X45016065Y49138281D01*
X45076486Y49150300D01*
X45322914Y49150300D01*
X45383336Y49138281D01*
X45383336Y49138281D01*
G37*
G36*
X41183336Y49138281D02*
X41364603Y49102225D01*
X41592271Y49007922D01*
X41765953Y48891871D01*
X41797169Y48871013D01*
X41971413Y48696769D01*
X41971415Y48696766D01*
X42108322Y48491871D01*
X42202625Y48264203D01*
X42250700Y48022513D01*
X42250700Y47776087D01*
X42202625Y47534397D01*
X42108322Y47306729D01*
X41972032Y47102758D01*
X41971413Y47101831D01*
X41797169Y46927587D01*
X41797166Y46927585D01*
X41592271Y46790678D01*
X41364603Y46696375D01*
X41183335Y46660319D01*
X41122914Y46648300D01*
X40876486Y46648300D01*
X40816065Y46660319D01*
X40634797Y46696375D01*
X40407129Y46790678D01*
X40202234Y46927585D01*
X40202231Y46927587D01*
X40027987Y47101831D01*
X40027368Y47102758D01*
X39891078Y47306729D01*
X39796775Y47534397D01*
X39748700Y47776087D01*
X39748700Y48022513D01*
X39796775Y48264203D01*
X39891078Y48491871D01*
X40027985Y48696766D01*
X40027987Y48696769D01*
X40202231Y48871013D01*
X40233447Y48891871D01*
X40407129Y49007922D01*
X40634797Y49102225D01*
X40816065Y49138281D01*
X40876486Y49150300D01*
X41122914Y49150300D01*
X41183336Y49138281D01*
X41183336Y49138281D01*
G37*
G36*
X36983336Y49138281D02*
X37164603Y49102225D01*
X37392271Y49007922D01*
X37565953Y48891871D01*
X37597169Y48871013D01*
X37771413Y48696769D01*
X37771415Y48696766D01*
X37908322Y48491871D01*
X38002625Y48264203D01*
X38050700Y48022513D01*
X38050700Y47776087D01*
X38002625Y47534397D01*
X37908322Y47306729D01*
X37772032Y47102758D01*
X37771413Y47101831D01*
X37597169Y46927587D01*
X37597166Y46927585D01*
X37392271Y46790678D01*
X37164603Y46696375D01*
X36983335Y46660319D01*
X36922914Y46648300D01*
X36676486Y46648300D01*
X36616065Y46660319D01*
X36434797Y46696375D01*
X36207129Y46790678D01*
X36002234Y46927585D01*
X36002231Y46927587D01*
X35827987Y47101831D01*
X35827368Y47102758D01*
X35691078Y47306729D01*
X35596775Y47534397D01*
X35548700Y47776087D01*
X35548700Y48022513D01*
X35596775Y48264203D01*
X35691078Y48491871D01*
X35827985Y48696766D01*
X35827987Y48696769D01*
X36002231Y48871013D01*
X36033447Y48891871D01*
X36207129Y49007922D01*
X36434797Y49102225D01*
X36616065Y49138281D01*
X36676486Y49150300D01*
X36922914Y49150300D01*
X36983336Y49138281D01*
X36983336Y49138281D01*
G37*
G36*
X32783336Y49138281D02*
X32964603Y49102225D01*
X33192271Y49007922D01*
X33365953Y48891871D01*
X33397169Y48871013D01*
X33571413Y48696769D01*
X33571415Y48696766D01*
X33708322Y48491871D01*
X33802625Y48264203D01*
X33850700Y48022513D01*
X33850700Y47776087D01*
X33802625Y47534397D01*
X33708322Y47306729D01*
X33572032Y47102758D01*
X33571413Y47101831D01*
X33397169Y46927587D01*
X33397166Y46927585D01*
X33192271Y46790678D01*
X32964603Y46696375D01*
X32783335Y46660319D01*
X32722914Y46648300D01*
X32476486Y46648300D01*
X32416065Y46660319D01*
X32234797Y46696375D01*
X32007129Y46790678D01*
X31802234Y46927585D01*
X31802231Y46927587D01*
X31627987Y47101831D01*
X31627368Y47102758D01*
X31491078Y47306729D01*
X31396775Y47534397D01*
X31348700Y47776087D01*
X31348700Y48022513D01*
X31396775Y48264203D01*
X31491078Y48491871D01*
X31627985Y48696766D01*
X31627987Y48696769D01*
X31802231Y48871013D01*
X31833447Y48891871D01*
X32007129Y49007922D01*
X32234797Y49102225D01*
X32416065Y49138281D01*
X32476486Y49150300D01*
X32722914Y49150300D01*
X32783336Y49138281D01*
X32783336Y49138281D01*
G37*
G36*
X28583336Y49138281D02*
X28764603Y49102225D01*
X28992271Y49007922D01*
X29165953Y48891871D01*
X29197169Y48871013D01*
X29371413Y48696769D01*
X29371415Y48696766D01*
X29508322Y48491871D01*
X29602625Y48264203D01*
X29650700Y48022513D01*
X29650700Y47776087D01*
X29602625Y47534397D01*
X29508322Y47306729D01*
X29372032Y47102758D01*
X29371413Y47101831D01*
X29197169Y46927587D01*
X29197166Y46927585D01*
X28992271Y46790678D01*
X28764603Y46696375D01*
X28583335Y46660319D01*
X28522914Y46648300D01*
X28276486Y46648300D01*
X28216065Y46660319D01*
X28034797Y46696375D01*
X27807129Y46790678D01*
X27602234Y46927585D01*
X27602231Y46927587D01*
X27427987Y47101831D01*
X27427368Y47102758D01*
X27291078Y47306729D01*
X27196775Y47534397D01*
X27148700Y47776087D01*
X27148700Y48022513D01*
X27196775Y48264203D01*
X27291078Y48491871D01*
X27427985Y48696766D01*
X27427987Y48696769D01*
X27602231Y48871013D01*
X27633447Y48891871D01*
X27807129Y49007922D01*
X28034797Y49102225D01*
X28216065Y49138281D01*
X28276486Y49150300D01*
X28522914Y49150300D01*
X28583336Y49138281D01*
X28583336Y49138281D01*
G37*
G36*
X24383336Y49138281D02*
X24564603Y49102225D01*
X24792271Y49007922D01*
X24965953Y48891871D01*
X24997169Y48871013D01*
X25171413Y48696769D01*
X25171415Y48696766D01*
X25308322Y48491871D01*
X25402625Y48264203D01*
X25450700Y48022513D01*
X25450700Y47776087D01*
X25402625Y47534397D01*
X25308322Y47306729D01*
X25172032Y47102758D01*
X25171413Y47101831D01*
X24997169Y46927587D01*
X24997166Y46927585D01*
X24792271Y46790678D01*
X24564603Y46696375D01*
X24383335Y46660319D01*
X24322914Y46648300D01*
X24076486Y46648300D01*
X24016065Y46660319D01*
X23834797Y46696375D01*
X23607129Y46790678D01*
X23402234Y46927585D01*
X23402231Y46927587D01*
X23227987Y47101831D01*
X23227368Y47102758D01*
X23091078Y47306729D01*
X22996775Y47534397D01*
X22948700Y47776087D01*
X22948700Y48022513D01*
X22996775Y48264203D01*
X23091078Y48491871D01*
X23227985Y48696766D01*
X23227987Y48696769D01*
X23402231Y48871013D01*
X23433447Y48891871D01*
X23607129Y49007922D01*
X23834797Y49102225D01*
X24016065Y49138281D01*
X24076486Y49150300D01*
X24322914Y49150300D01*
X24383336Y49138281D01*
X24383336Y49138281D01*
G37*
G36*
X20183336Y49138281D02*
X20364603Y49102225D01*
X20592271Y49007922D01*
X20765953Y48891871D01*
X20797169Y48871013D01*
X20971413Y48696769D01*
X20971415Y48696766D01*
X21108322Y48491871D01*
X21202625Y48264203D01*
X21250700Y48022513D01*
X21250700Y47776087D01*
X21202625Y47534397D01*
X21108322Y47306729D01*
X20972032Y47102758D01*
X20971413Y47101831D01*
X20797169Y46927587D01*
X20797166Y46927585D01*
X20592271Y46790678D01*
X20364603Y46696375D01*
X20183335Y46660319D01*
X20122914Y46648300D01*
X19876486Y46648300D01*
X19816065Y46660319D01*
X19634797Y46696375D01*
X19407129Y46790678D01*
X19202234Y46927585D01*
X19202231Y46927587D01*
X19027987Y47101831D01*
X19027368Y47102758D01*
X18891078Y47306729D01*
X18796775Y47534397D01*
X18748700Y47776087D01*
X18748700Y48022513D01*
X18796775Y48264203D01*
X18891078Y48491871D01*
X19027985Y48696766D01*
X19027987Y48696769D01*
X19202231Y48871013D01*
X19233447Y48891871D01*
X19407129Y49007922D01*
X19634797Y49102225D01*
X19816065Y49138281D01*
X19876486Y49150300D01*
X20122914Y49150300D01*
X20183336Y49138281D01*
X20183336Y49138281D01*
G37*
G36*
X3383336Y49138281D02*
X3564603Y49102225D01*
X3792271Y49007922D01*
X3965953Y48891871D01*
X3997169Y48871013D01*
X4171413Y48696769D01*
X4171415Y48696766D01*
X4308322Y48491871D01*
X4402625Y48264203D01*
X4450700Y48022513D01*
X4450700Y47776087D01*
X4402625Y47534397D01*
X4308322Y47306729D01*
X4172032Y47102758D01*
X4171413Y47101831D01*
X3997169Y46927587D01*
X3997166Y46927585D01*
X3792271Y46790678D01*
X3564603Y46696375D01*
X3383335Y46660319D01*
X3322914Y46648300D01*
X3076486Y46648300D01*
X3016065Y46660319D01*
X2834797Y46696375D01*
X2607129Y46790678D01*
X2402234Y46927585D01*
X2402231Y46927587D01*
X2227987Y47101831D01*
X2227368Y47102758D01*
X2091078Y47306729D01*
X1996775Y47534397D01*
X1948700Y47776087D01*
X1948700Y48022513D01*
X1996775Y48264203D01*
X2091078Y48491871D01*
X2227985Y48696766D01*
X2227987Y48696769D01*
X2402231Y48871013D01*
X2433447Y48891871D01*
X2607129Y49007922D01*
X2834797Y49102225D01*
X3016065Y49138281D01*
X3076486Y49150300D01*
X3322914Y49150300D01*
X3383336Y49138281D01*
X3383336Y49138281D01*
G37*
G36*
X15983336Y49138281D02*
X16164603Y49102225D01*
X16392271Y49007922D01*
X16565953Y48891871D01*
X16597169Y48871013D01*
X16771413Y48696769D01*
X16771415Y48696766D01*
X16908322Y48491871D01*
X17002625Y48264203D01*
X17050700Y48022513D01*
X17050700Y47776087D01*
X17002625Y47534397D01*
X16908322Y47306729D01*
X16772032Y47102758D01*
X16771413Y47101831D01*
X16597169Y46927587D01*
X16597166Y46927585D01*
X16392271Y46790678D01*
X16164603Y46696375D01*
X15983335Y46660319D01*
X15922914Y46648300D01*
X15676486Y46648300D01*
X15616065Y46660319D01*
X15434797Y46696375D01*
X15207129Y46790678D01*
X15002234Y46927585D01*
X15002231Y46927587D01*
X14827987Y47101831D01*
X14827368Y47102758D01*
X14691078Y47306729D01*
X14596775Y47534397D01*
X14548700Y47776087D01*
X14548700Y48022513D01*
X14596775Y48264203D01*
X14691078Y48491871D01*
X14827985Y48696766D01*
X14827987Y48696769D01*
X15002231Y48871013D01*
X15033447Y48891871D01*
X15207129Y49007922D01*
X15434797Y49102225D01*
X15616065Y49138281D01*
X15676486Y49150300D01*
X15922914Y49150300D01*
X15983336Y49138281D01*
X15983336Y49138281D01*
G37*
G36*
X68583336Y49538281D02*
X68764603Y49502225D01*
X68992271Y49407922D01*
X69196242Y49271632D01*
X69197169Y49271013D01*
X69371413Y49096769D01*
X69371415Y49096766D01*
X69508322Y48891871D01*
X69602625Y48664203D01*
X69650700Y48422513D01*
X69650700Y48176087D01*
X69602625Y47934397D01*
X69508322Y47706729D01*
X69393175Y47534400D01*
X69371413Y47501831D01*
X69197169Y47327587D01*
X69197166Y47327585D01*
X68992271Y47190678D01*
X68764603Y47096375D01*
X68583336Y47060319D01*
X68522914Y47048300D01*
X68276486Y47048300D01*
X68216064Y47060319D01*
X68034797Y47096375D01*
X67807129Y47190678D01*
X67602234Y47327585D01*
X67602231Y47327587D01*
X67427987Y47501831D01*
X67406225Y47534400D01*
X67291078Y47706729D01*
X67196775Y47934397D01*
X67148700Y48176087D01*
X67148700Y48422513D01*
X67196775Y48664203D01*
X67291078Y48891871D01*
X67427985Y49096766D01*
X67427987Y49096769D01*
X67602231Y49271013D01*
X67603158Y49271632D01*
X67807129Y49407922D01*
X68034797Y49502225D01*
X68216064Y49538281D01*
X68276486Y49550300D01*
X68522914Y49550300D01*
X68583336Y49538281D01*
X68583336Y49538281D01*
G37*
G36*
X72783336Y49538281D02*
X72964603Y49502225D01*
X73192271Y49407922D01*
X73396242Y49271632D01*
X73397169Y49271013D01*
X73571413Y49096769D01*
X73571415Y49096766D01*
X73708322Y48891871D01*
X73802625Y48664203D01*
X73850700Y48422513D01*
X73850700Y48176087D01*
X73802625Y47934397D01*
X73708322Y47706729D01*
X73593175Y47534400D01*
X73571413Y47501831D01*
X73397169Y47327587D01*
X73397166Y47327585D01*
X73192271Y47190678D01*
X72964603Y47096375D01*
X72783336Y47060319D01*
X72722914Y47048300D01*
X72476486Y47048300D01*
X72416064Y47060319D01*
X72234797Y47096375D01*
X72007129Y47190678D01*
X71802234Y47327585D01*
X71802231Y47327587D01*
X71627987Y47501831D01*
X71606225Y47534400D01*
X71491078Y47706729D01*
X71396775Y47934397D01*
X71348700Y48176087D01*
X71348700Y48422513D01*
X71396775Y48664203D01*
X71491078Y48891871D01*
X71627985Y49096766D01*
X71627987Y49096769D01*
X71802231Y49271013D01*
X71803158Y49271632D01*
X72007129Y49407922D01*
X72234797Y49502225D01*
X72416064Y49538281D01*
X72476486Y49550300D01*
X72722914Y49550300D01*
X72783336Y49538281D01*
X72783336Y49538281D01*
G37*
G36*
X-974969Y54031089D02*
X-647208Y53895326D01*
X-352227Y53698226D01*
X-101374Y53447373D01*
X95726Y53152392D01*
X231489Y52824631D01*
X300700Y52476684D01*
X300700Y52121916D01*
X231489Y51773969D01*
X95726Y51446208D01*
X-101374Y51151227D01*
X-352227Y50900374D01*
X-647208Y50703274D01*
X-974969Y50567511D01*
X-1322916Y50498300D01*
X-1677684Y50498300D01*
X-2025631Y50567511D01*
X-2353392Y50703274D01*
X-2648373Y50900374D01*
X-2899226Y51151227D01*
X-3096326Y51446208D01*
X-3232089Y51773969D01*
X-3301300Y52121916D01*
X-3301300Y52476684D01*
X-3232089Y52824631D01*
X-3096326Y53152392D01*
X-2899226Y53447373D01*
X-2648373Y53698226D01*
X-2353392Y53895326D01*
X-2025631Y54031089D01*
X-1677684Y54100300D01*
X-1322916Y54100300D01*
X-974969Y54031089D01*
X-974969Y54031089D01*
G37*
G36*
X54625031Y54031089D02*
X54952792Y53895326D01*
X55247773Y53698226D01*
X55498626Y53447373D01*
X55695726Y53152392D01*
X55831489Y52824631D01*
X55900700Y52476684D01*
X55900700Y52121916D01*
X55831489Y51773969D01*
X55695726Y51446208D01*
X55498626Y51151227D01*
X55247773Y50900374D01*
X54952792Y50703274D01*
X54625031Y50567511D01*
X54277084Y50498300D01*
X53922316Y50498300D01*
X53574369Y50567511D01*
X53246608Y50703274D01*
X52951627Y50900374D01*
X52700774Y51151227D01*
X52503674Y51446208D01*
X52367911Y51773969D01*
X52298700Y52121916D01*
X52298700Y52476684D01*
X52367911Y52824631D01*
X52503674Y53152392D01*
X52700774Y53447373D01*
X52951627Y53698226D01*
X53246608Y53895326D01*
X53574369Y54031089D01*
X53922316Y54100300D01*
X54277084Y54100300D01*
X54625031Y54031089D01*
X54625031Y54031089D01*
G37*
G36*
X41183336Y53338281D02*
X41364603Y53302225D01*
X41592271Y53207922D01*
X41796242Y53071632D01*
X41797169Y53071013D01*
X41971413Y52896769D01*
X41971415Y52896766D01*
X42108322Y52691871D01*
X42202625Y52464203D01*
X42250700Y52222513D01*
X42250700Y51976087D01*
X42202625Y51734397D01*
X42108322Y51506729D01*
X42039195Y51403274D01*
X41971413Y51301831D01*
X41797169Y51127587D01*
X41797166Y51127585D01*
X41592271Y50990678D01*
X41364603Y50896375D01*
X41183336Y50860319D01*
X41122914Y50848300D01*
X40876486Y50848300D01*
X40816064Y50860319D01*
X40634797Y50896375D01*
X40407129Y50990678D01*
X40202234Y51127585D01*
X40202231Y51127587D01*
X40027987Y51301831D01*
X39960205Y51403274D01*
X39891078Y51506729D01*
X39796775Y51734397D01*
X39748700Y51976087D01*
X39748700Y52222513D01*
X39796775Y52464203D01*
X39891078Y52691871D01*
X40027985Y52896766D01*
X40027987Y52896769D01*
X40202231Y53071013D01*
X40203158Y53071632D01*
X40407129Y53207922D01*
X40634797Y53302225D01*
X40816065Y53338281D01*
X40876486Y53350300D01*
X41122914Y53350300D01*
X41183336Y53338281D01*
X41183336Y53338281D01*
G37*
G36*
X28583336Y53338281D02*
X28764603Y53302225D01*
X28992271Y53207922D01*
X29196242Y53071632D01*
X29197169Y53071013D01*
X29371413Y52896769D01*
X29371415Y52896766D01*
X29508322Y52691871D01*
X29602625Y52464203D01*
X29650700Y52222513D01*
X29650700Y51976087D01*
X29602625Y51734397D01*
X29508322Y51506729D01*
X29439195Y51403274D01*
X29371413Y51301831D01*
X29197169Y51127587D01*
X29197166Y51127585D01*
X28992271Y50990678D01*
X28764603Y50896375D01*
X28583336Y50860319D01*
X28522914Y50848300D01*
X28276486Y50848300D01*
X28216064Y50860319D01*
X28034797Y50896375D01*
X27807129Y50990678D01*
X27602234Y51127585D01*
X27602231Y51127587D01*
X27427987Y51301831D01*
X27360205Y51403274D01*
X27291078Y51506729D01*
X27196775Y51734397D01*
X27148700Y51976087D01*
X27148700Y52222513D01*
X27196775Y52464203D01*
X27291078Y52691871D01*
X27427985Y52896766D01*
X27427987Y52896769D01*
X27602231Y53071013D01*
X27603158Y53071632D01*
X27807129Y53207922D01*
X28034797Y53302225D01*
X28216065Y53338281D01*
X28276486Y53350300D01*
X28522914Y53350300D01*
X28583336Y53338281D01*
X28583336Y53338281D01*
G37*
G36*
X32783336Y53338281D02*
X32964603Y53302225D01*
X33192271Y53207922D01*
X33396242Y53071632D01*
X33397169Y53071013D01*
X33571413Y52896769D01*
X33571415Y52896766D01*
X33708322Y52691871D01*
X33802625Y52464203D01*
X33850700Y52222513D01*
X33850700Y51976087D01*
X33802625Y51734397D01*
X33708322Y51506729D01*
X33639195Y51403274D01*
X33571413Y51301831D01*
X33397169Y51127587D01*
X33397166Y51127585D01*
X33192271Y50990678D01*
X32964603Y50896375D01*
X32783336Y50860319D01*
X32722914Y50848300D01*
X32476486Y50848300D01*
X32416064Y50860319D01*
X32234797Y50896375D01*
X32007129Y50990678D01*
X31802234Y51127585D01*
X31802231Y51127587D01*
X31627987Y51301831D01*
X31560205Y51403274D01*
X31491078Y51506729D01*
X31396775Y51734397D01*
X31348700Y51976087D01*
X31348700Y52222513D01*
X31396775Y52464203D01*
X31491078Y52691871D01*
X31627985Y52896766D01*
X31627987Y52896769D01*
X31802231Y53071013D01*
X31803158Y53071632D01*
X32007129Y53207922D01*
X32234797Y53302225D01*
X32416065Y53338281D01*
X32476486Y53350300D01*
X32722914Y53350300D01*
X32783336Y53338281D01*
X32783336Y53338281D01*
G37*
G36*
X36983336Y53338281D02*
X37164603Y53302225D01*
X37392271Y53207922D01*
X37596242Y53071632D01*
X37597169Y53071013D01*
X37771413Y52896769D01*
X37771415Y52896766D01*
X37908322Y52691871D01*
X38002625Y52464203D01*
X38050700Y52222513D01*
X38050700Y51976087D01*
X38002625Y51734397D01*
X37908322Y51506729D01*
X37839195Y51403274D01*
X37771413Y51301831D01*
X37597169Y51127587D01*
X37597166Y51127585D01*
X37392271Y50990678D01*
X37164603Y50896375D01*
X36983336Y50860319D01*
X36922914Y50848300D01*
X36676486Y50848300D01*
X36616064Y50860319D01*
X36434797Y50896375D01*
X36207129Y50990678D01*
X36002234Y51127585D01*
X36002231Y51127587D01*
X35827987Y51301831D01*
X35760205Y51403274D01*
X35691078Y51506729D01*
X35596775Y51734397D01*
X35548700Y51976087D01*
X35548700Y52222513D01*
X35596775Y52464203D01*
X35691078Y52691871D01*
X35827985Y52896766D01*
X35827987Y52896769D01*
X36002231Y53071013D01*
X36003158Y53071632D01*
X36207129Y53207922D01*
X36434797Y53302225D01*
X36616065Y53338281D01*
X36676486Y53350300D01*
X36922914Y53350300D01*
X36983336Y53338281D01*
X36983336Y53338281D01*
G37*
G36*
X3383336Y53338281D02*
X3564603Y53302225D01*
X3792271Y53207922D01*
X3996242Y53071632D01*
X3997169Y53071013D01*
X4171413Y52896769D01*
X4171415Y52896766D01*
X4308322Y52691871D01*
X4402625Y52464203D01*
X4450700Y52222513D01*
X4450700Y51976087D01*
X4402625Y51734397D01*
X4308322Y51506729D01*
X4239195Y51403274D01*
X4171413Y51301831D01*
X3997169Y51127587D01*
X3997166Y51127585D01*
X3792271Y50990678D01*
X3564603Y50896375D01*
X3383336Y50860319D01*
X3322914Y50848300D01*
X3076486Y50848300D01*
X3016064Y50860319D01*
X2834797Y50896375D01*
X2607129Y50990678D01*
X2402234Y51127585D01*
X2402231Y51127587D01*
X2227987Y51301831D01*
X2160205Y51403274D01*
X2091078Y51506729D01*
X1996775Y51734397D01*
X1948700Y51976087D01*
X1948700Y52222513D01*
X1996775Y52464203D01*
X2091078Y52691871D01*
X2227985Y52896766D01*
X2227987Y52896769D01*
X2402231Y53071013D01*
X2403158Y53071632D01*
X2607129Y53207922D01*
X2834797Y53302225D01*
X3016065Y53338281D01*
X3076486Y53350300D01*
X3322914Y53350300D01*
X3383336Y53338281D01*
X3383336Y53338281D01*
G37*
G36*
X7583336Y53338281D02*
X7764603Y53302225D01*
X7992271Y53207922D01*
X8196242Y53071632D01*
X8197169Y53071013D01*
X8371413Y52896769D01*
X8371415Y52896766D01*
X8508322Y52691871D01*
X8602625Y52464203D01*
X8650700Y52222513D01*
X8650700Y51976087D01*
X8602625Y51734397D01*
X8508322Y51506729D01*
X8439195Y51403274D01*
X8371413Y51301831D01*
X8197169Y51127587D01*
X8197166Y51127585D01*
X7992271Y50990678D01*
X7764603Y50896375D01*
X7583336Y50860319D01*
X7522914Y50848300D01*
X7276486Y50848300D01*
X7216064Y50860319D01*
X7034797Y50896375D01*
X6807129Y50990678D01*
X6602234Y51127585D01*
X6602231Y51127587D01*
X6427987Y51301831D01*
X6360205Y51403274D01*
X6291078Y51506729D01*
X6196775Y51734397D01*
X6148700Y51976087D01*
X6148700Y52222513D01*
X6196775Y52464203D01*
X6291078Y52691871D01*
X6427985Y52896766D01*
X6427987Y52896769D01*
X6602231Y53071013D01*
X6603158Y53071632D01*
X6807129Y53207922D01*
X7034797Y53302225D01*
X7216065Y53338281D01*
X7276486Y53350300D01*
X7522914Y53350300D01*
X7583336Y53338281D01*
X7583336Y53338281D01*
G37*
G36*
X45383336Y53338281D02*
X45564603Y53302225D01*
X45792271Y53207922D01*
X45996242Y53071632D01*
X45997169Y53071013D01*
X46171413Y52896769D01*
X46171415Y52896766D01*
X46308322Y52691871D01*
X46402625Y52464203D01*
X46450700Y52222513D01*
X46450700Y51976087D01*
X46402625Y51734397D01*
X46308322Y51506729D01*
X46239195Y51403274D01*
X46171413Y51301831D01*
X45997169Y51127587D01*
X45997166Y51127585D01*
X45792271Y50990678D01*
X45564603Y50896375D01*
X45383336Y50860319D01*
X45322914Y50848300D01*
X45076486Y50848300D01*
X45016064Y50860319D01*
X44834797Y50896375D01*
X44607129Y50990678D01*
X44402234Y51127585D01*
X44402231Y51127587D01*
X44227987Y51301831D01*
X44160205Y51403274D01*
X44091078Y51506729D01*
X43996775Y51734397D01*
X43948700Y51976087D01*
X43948700Y52222513D01*
X43996775Y52464203D01*
X44091078Y52691871D01*
X44227985Y52896766D01*
X44227987Y52896769D01*
X44402231Y53071013D01*
X44403158Y53071632D01*
X44607129Y53207922D01*
X44834797Y53302225D01*
X45016065Y53338281D01*
X45076486Y53350300D01*
X45322914Y53350300D01*
X45383336Y53338281D01*
X45383336Y53338281D01*
G37*
G36*
X11783336Y53338281D02*
X11964603Y53302225D01*
X12192271Y53207922D01*
X12396242Y53071632D01*
X12397169Y53071013D01*
X12571413Y52896769D01*
X12571415Y52896766D01*
X12708322Y52691871D01*
X12802625Y52464203D01*
X12850700Y52222513D01*
X12850700Y51976087D01*
X12802625Y51734397D01*
X12708322Y51506729D01*
X12639195Y51403274D01*
X12571413Y51301831D01*
X12397169Y51127587D01*
X12397166Y51127585D01*
X12192271Y50990678D01*
X11964603Y50896375D01*
X11783336Y50860319D01*
X11722914Y50848300D01*
X11476486Y50848300D01*
X11416064Y50860319D01*
X11234797Y50896375D01*
X11007129Y50990678D01*
X10802234Y51127585D01*
X10802231Y51127587D01*
X10627987Y51301831D01*
X10560205Y51403274D01*
X10491078Y51506729D01*
X10396775Y51734397D01*
X10348700Y51976087D01*
X10348700Y52222513D01*
X10396775Y52464203D01*
X10491078Y52691871D01*
X10627985Y52896766D01*
X10627987Y52896769D01*
X10802231Y53071013D01*
X10803158Y53071632D01*
X11007129Y53207922D01*
X11234797Y53302225D01*
X11416065Y53338281D01*
X11476486Y53350300D01*
X11722914Y53350300D01*
X11783336Y53338281D01*
X11783336Y53338281D01*
G37*
G36*
X15983336Y53338281D02*
X16164603Y53302225D01*
X16392271Y53207922D01*
X16596242Y53071632D01*
X16597169Y53071013D01*
X16771413Y52896769D01*
X16771415Y52896766D01*
X16908322Y52691871D01*
X17002625Y52464203D01*
X17050700Y52222513D01*
X17050700Y51976087D01*
X17002625Y51734397D01*
X16908322Y51506729D01*
X16839195Y51403274D01*
X16771413Y51301831D01*
X16597169Y51127587D01*
X16597166Y51127585D01*
X16392271Y50990678D01*
X16164603Y50896375D01*
X15983336Y50860319D01*
X15922914Y50848300D01*
X15676486Y50848300D01*
X15616064Y50860319D01*
X15434797Y50896375D01*
X15207129Y50990678D01*
X15002234Y51127585D01*
X15002231Y51127587D01*
X14827987Y51301831D01*
X14760205Y51403274D01*
X14691078Y51506729D01*
X14596775Y51734397D01*
X14548700Y51976087D01*
X14548700Y52222513D01*
X14596775Y52464203D01*
X14691078Y52691871D01*
X14827985Y52896766D01*
X14827987Y52896769D01*
X15002231Y53071013D01*
X15003158Y53071632D01*
X15207129Y53207922D01*
X15434797Y53302225D01*
X15616065Y53338281D01*
X15676486Y53350300D01*
X15922914Y53350300D01*
X15983336Y53338281D01*
X15983336Y53338281D01*
G37*
G36*
X24383336Y53338281D02*
X24564603Y53302225D01*
X24792271Y53207922D01*
X24996242Y53071632D01*
X24997169Y53071013D01*
X25171413Y52896769D01*
X25171415Y52896766D01*
X25308322Y52691871D01*
X25402625Y52464203D01*
X25450700Y52222513D01*
X25450700Y51976087D01*
X25402625Y51734397D01*
X25308322Y51506729D01*
X25239195Y51403274D01*
X25171413Y51301831D01*
X24997169Y51127587D01*
X24997166Y51127585D01*
X24792271Y50990678D01*
X24564603Y50896375D01*
X24383336Y50860319D01*
X24322914Y50848300D01*
X24076486Y50848300D01*
X24016064Y50860319D01*
X23834797Y50896375D01*
X23607129Y50990678D01*
X23402234Y51127585D01*
X23402231Y51127587D01*
X23227987Y51301831D01*
X23160205Y51403274D01*
X23091078Y51506729D01*
X22996775Y51734397D01*
X22948700Y51976087D01*
X22948700Y52222513D01*
X22996775Y52464203D01*
X23091078Y52691871D01*
X23227985Y52896766D01*
X23227987Y52896769D01*
X23402231Y53071013D01*
X23403158Y53071632D01*
X23607129Y53207922D01*
X23834797Y53302225D01*
X24016065Y53338281D01*
X24076486Y53350300D01*
X24322914Y53350300D01*
X24383336Y53338281D01*
X24383336Y53338281D01*
G37*
G36*
X20183336Y53338281D02*
X20364603Y53302225D01*
X20592271Y53207922D01*
X20796242Y53071632D01*
X20797169Y53071013D01*
X20971413Y52896769D01*
X20971415Y52896766D01*
X21108322Y52691871D01*
X21202625Y52464203D01*
X21250700Y52222513D01*
X21250700Y51976087D01*
X21202625Y51734397D01*
X21108322Y51506729D01*
X21039195Y51403274D01*
X20971413Y51301831D01*
X20797169Y51127587D01*
X20797166Y51127585D01*
X20592271Y50990678D01*
X20364603Y50896375D01*
X20183336Y50860319D01*
X20122914Y50848300D01*
X19876486Y50848300D01*
X19816064Y50860319D01*
X19634797Y50896375D01*
X19407129Y50990678D01*
X19202234Y51127585D01*
X19202231Y51127587D01*
X19027987Y51301831D01*
X18960205Y51403274D01*
X18891078Y51506729D01*
X18796775Y51734397D01*
X18748700Y51976087D01*
X18748700Y52222513D01*
X18796775Y52464203D01*
X18891078Y52691871D01*
X19027985Y52896766D01*
X19027987Y52896769D01*
X19202231Y53071013D01*
X19203158Y53071632D01*
X19407129Y53207922D01*
X19634797Y53302225D01*
X19816065Y53338281D01*
X19876486Y53350300D01*
X20122914Y53350300D01*
X20183336Y53338281D01*
X20183336Y53338281D01*
G37*
G36*
X49583336Y53338281D02*
X49764603Y53302225D01*
X49992271Y53207922D01*
X50196242Y53071632D01*
X50197169Y53071013D01*
X50371413Y52896769D01*
X50371415Y52896766D01*
X50508322Y52691871D01*
X50602625Y52464203D01*
X50650700Y52222513D01*
X50650700Y51976087D01*
X50602625Y51734397D01*
X50508322Y51506729D01*
X50439195Y51403274D01*
X50371413Y51301831D01*
X50197169Y51127587D01*
X50197166Y51127585D01*
X49992271Y50990678D01*
X49764603Y50896375D01*
X49583336Y50860319D01*
X49522914Y50848300D01*
X49276486Y50848300D01*
X49216064Y50860319D01*
X49034797Y50896375D01*
X48807129Y50990678D01*
X48602234Y51127585D01*
X48602231Y51127587D01*
X48427987Y51301831D01*
X48360205Y51403274D01*
X48291078Y51506729D01*
X48196775Y51734397D01*
X48148700Y51976087D01*
X48148700Y52222513D01*
X48196775Y52464203D01*
X48291078Y52691871D01*
X48427985Y52896766D01*
X48427987Y52896769D01*
X48602231Y53071013D01*
X48603158Y53071632D01*
X48807129Y53207922D01*
X49034797Y53302225D01*
X49216065Y53338281D01*
X49276486Y53350300D01*
X49522914Y53350300D01*
X49583336Y53338281D01*
X49583336Y53338281D01*
G37*
G36*
X73316031Y54731089D02*
X73643792Y54595326D01*
X73938773Y54398226D01*
X74189626Y54147373D01*
X74386726Y53852392D01*
X74522489Y53524631D01*
X74591700Y53176684D01*
X74591700Y52821916D01*
X74522489Y52473969D01*
X74386726Y52146208D01*
X74189626Y51851227D01*
X73938773Y51600374D01*
X73643792Y51403274D01*
X73316031Y51267511D01*
X72968084Y51198300D01*
X72613316Y51198300D01*
X72265369Y51267511D01*
X71937608Y51403274D01*
X71642627Y51600374D01*
X71391774Y51851227D01*
X71194674Y52146208D01*
X71058911Y52473969D01*
X70989700Y52821916D01*
X70989700Y53176684D01*
X71058911Y53524631D01*
X71194674Y53852392D01*
X71391774Y54147373D01*
X71642627Y54398226D01*
X71937608Y54595326D01*
X72265369Y54731089D01*
X72613316Y54800300D01*
X72968084Y54800300D01*
X73316031Y54731089D01*
X73316031Y54731089D01*
G37*
G36*
X27638568Y65473177D02*
X27809637Y65402317D01*
X27963596Y65299445D01*
X28094525Y65168516D01*
X28197397Y65014557D01*
X28268257Y64843488D01*
X28304380Y64661883D01*
X28304380Y64476717D01*
X28268257Y64295112D01*
X28197397Y64124043D01*
X28094525Y63970084D01*
X27963596Y63839155D01*
X27809637Y63736283D01*
X27638568Y63665423D01*
X27456963Y63629300D01*
X27271797Y63629300D01*
X27090192Y63665423D01*
X26919123Y63736283D01*
X26765164Y63839155D01*
X26634235Y63970084D01*
X26531363Y64124043D01*
X26460503Y64295112D01*
X26424380Y64476717D01*
X26424380Y64661883D01*
X26460503Y64843488D01*
X26531363Y65014557D01*
X26634235Y65168516D01*
X26765164Y65299445D01*
X26919123Y65402317D01*
X27090192Y65473177D01*
X27271797Y65509300D01*
X27456963Y65509300D01*
X27638568Y65473177D01*
X27638568Y65473177D01*
G37*
G36*
X30178568Y65473177D02*
X30349637Y65402317D01*
X30503596Y65299445D01*
X30634525Y65168516D01*
X30737397Y65014557D01*
X30808257Y64843488D01*
X30844380Y64661883D01*
X30844380Y64476717D01*
X30808257Y64295112D01*
X30737397Y64124043D01*
X30634525Y63970084D01*
X30503596Y63839155D01*
X30349637Y63736283D01*
X30178568Y63665423D01*
X29996963Y63629300D01*
X29811797Y63629300D01*
X29630192Y63665423D01*
X29459123Y63736283D01*
X29305164Y63839155D01*
X29174235Y63970084D01*
X29071363Y64124043D01*
X29000503Y64295112D01*
X28964380Y64476717D01*
X28964380Y64661883D01*
X29000503Y64843488D01*
X29071363Y65014557D01*
X29174235Y65168516D01*
X29305164Y65299445D01*
X29459123Y65402317D01*
X29630192Y65473177D01*
X29811797Y65509300D01*
X29996963Y65509300D01*
X30178568Y65473177D01*
X30178568Y65473177D01*
G37*
G36*
X42878568Y65473177D02*
X43049637Y65402317D01*
X43203596Y65299445D01*
X43334525Y65168516D01*
X43437397Y65014557D01*
X43508257Y64843488D01*
X43544380Y64661883D01*
X43544380Y64476717D01*
X43508257Y64295112D01*
X43437397Y64124043D01*
X43334525Y63970084D01*
X43203596Y63839155D01*
X43049637Y63736283D01*
X42878568Y63665423D01*
X42696963Y63629300D01*
X42511797Y63629300D01*
X42330192Y63665423D01*
X42159123Y63736283D01*
X42005164Y63839155D01*
X41874235Y63970084D01*
X41771363Y64124043D01*
X41700503Y64295112D01*
X41664380Y64476717D01*
X41664380Y64661883D01*
X41700503Y64843488D01*
X41771363Y65014557D01*
X41874235Y65168516D01*
X42005164Y65299445D01*
X42159123Y65402317D01*
X42330192Y65473177D01*
X42511797Y65509300D01*
X42696963Y65509300D01*
X42878568Y65473177D01*
X42878568Y65473177D01*
G37*
G36*
X37798568Y65473177D02*
X37969637Y65402317D01*
X38123596Y65299445D01*
X38254525Y65168516D01*
X38357397Y65014557D01*
X38428257Y64843488D01*
X38464380Y64661883D01*
X38464380Y64476717D01*
X38428257Y64295112D01*
X38357397Y64124043D01*
X38254525Y63970084D01*
X38123596Y63839155D01*
X37969637Y63736283D01*
X37798568Y63665423D01*
X37616963Y63629300D01*
X37431797Y63629300D01*
X37250192Y63665423D01*
X37079123Y63736283D01*
X36925164Y63839155D01*
X36794235Y63970084D01*
X36691363Y64124043D01*
X36620503Y64295112D01*
X36584380Y64476717D01*
X36584380Y64661883D01*
X36620503Y64843488D01*
X36691363Y65014557D01*
X36794235Y65168516D01*
X36925164Y65299445D01*
X37079123Y65402317D01*
X37250192Y65473177D01*
X37431797Y65509300D01*
X37616963Y65509300D01*
X37798568Y65473177D01*
X37798568Y65473177D01*
G37*
G36*
X35258568Y65473177D02*
X35429637Y65402317D01*
X35583596Y65299445D01*
X35714525Y65168516D01*
X35817397Y65014557D01*
X35888257Y64843488D01*
X35924380Y64661883D01*
X35924380Y64476717D01*
X35888257Y64295112D01*
X35817397Y64124043D01*
X35714525Y63970084D01*
X35583596Y63839155D01*
X35429637Y63736283D01*
X35258568Y63665423D01*
X35076963Y63629300D01*
X34891797Y63629300D01*
X34710192Y63665423D01*
X34539123Y63736283D01*
X34385164Y63839155D01*
X34254235Y63970084D01*
X34151363Y64124043D01*
X34080503Y64295112D01*
X34044380Y64476717D01*
X34044380Y64661883D01*
X34080503Y64843488D01*
X34151363Y65014557D01*
X34254235Y65168516D01*
X34385164Y65299445D01*
X34539123Y65402317D01*
X34710192Y65473177D01*
X34891797Y65509300D01*
X35076963Y65509300D01*
X35258568Y65473177D01*
X35258568Y65473177D01*
G37*
G36*
X45418568Y65473177D02*
X45589637Y65402317D01*
X45743596Y65299445D01*
X45874525Y65168516D01*
X45977397Y65014557D01*
X46048257Y64843488D01*
X46084380Y64661883D01*
X46084380Y64476717D01*
X46048257Y64295112D01*
X45977397Y64124043D01*
X45874525Y63970084D01*
X45743596Y63839155D01*
X45589637Y63736283D01*
X45418568Y63665423D01*
X45236963Y63629300D01*
X45051797Y63629300D01*
X44870192Y63665423D01*
X44699123Y63736283D01*
X44545164Y63839155D01*
X44414235Y63970084D01*
X44311363Y64124043D01*
X44240503Y64295112D01*
X44204380Y64476717D01*
X44204380Y64661883D01*
X44240503Y64843488D01*
X44311363Y65014557D01*
X44414235Y65168516D01*
X44545164Y65299445D01*
X44699123Y65402317D01*
X44870192Y65473177D01*
X45051797Y65509300D01*
X45236963Y65509300D01*
X45418568Y65473177D01*
X45418568Y65473177D01*
G37*
G36*
X22671227Y67497695D02*
X22780835Y67475893D01*
X23090579Y67347593D01*
X23369345Y67161328D01*
X23606408Y66924265D01*
X23606410Y66924262D01*
X23792673Y66645499D01*
X23848764Y66510084D01*
X23920973Y66335754D01*
X23986380Y66006934D01*
X23986380Y65671666D01*
X23942775Y65452453D01*
X23920973Y65342845D01*
X23848763Y65168515D01*
X23792673Y65033101D01*
X23606408Y64754335D01*
X23369345Y64517272D01*
X23369342Y64517270D01*
X23090579Y64331007D01*
X22780835Y64202707D01*
X22671227Y64180905D01*
X22452014Y64137300D01*
X22116746Y64137300D01*
X21897533Y64180905D01*
X21787925Y64202707D01*
X21478181Y64331007D01*
X21199418Y64517270D01*
X21199415Y64517272D01*
X20962352Y64754335D01*
X20776087Y65033101D01*
X20719997Y65168515D01*
X20647787Y65342845D01*
X20625985Y65452453D01*
X20582380Y65671666D01*
X20582380Y66006934D01*
X20647787Y66335754D01*
X20719997Y66510084D01*
X20776087Y66645499D01*
X20962350Y66924262D01*
X20962352Y66924265D01*
X21199415Y67161328D01*
X21478181Y67347593D01*
X21787925Y67475893D01*
X21897533Y67497695D01*
X22116746Y67541300D01*
X22452014Y67541300D01*
X22671227Y67497695D01*
X22671227Y67497695D01*
G37*
G36*
X50611227Y67497695D02*
X50720835Y67475893D01*
X51030579Y67347593D01*
X51309345Y67161328D01*
X51546408Y66924265D01*
X51546410Y66924262D01*
X51732673Y66645499D01*
X51788764Y66510084D01*
X51860973Y66335754D01*
X51926380Y66006934D01*
X51926380Y65671666D01*
X51882775Y65452453D01*
X51860973Y65342845D01*
X51788763Y65168515D01*
X51732673Y65033101D01*
X51546408Y64754335D01*
X51309345Y64517272D01*
X51309342Y64517270D01*
X51030579Y64331007D01*
X50720835Y64202707D01*
X50611227Y64180905D01*
X50392014Y64137300D01*
X50056746Y64137300D01*
X49837533Y64180905D01*
X49727925Y64202707D01*
X49418181Y64331007D01*
X49139418Y64517270D01*
X49139415Y64517272D01*
X48902352Y64754335D01*
X48716087Y65033101D01*
X48659997Y65168515D01*
X48587787Y65342845D01*
X48565985Y65452453D01*
X48522380Y65671666D01*
X48522380Y66006934D01*
X48587787Y66335754D01*
X48659997Y66510084D01*
X48716087Y66645499D01*
X48902350Y66924262D01*
X48902352Y66924265D01*
X49139415Y67161328D01*
X49418181Y67347593D01*
X49727925Y67475893D01*
X49837533Y67497695D01*
X50056746Y67541300D01*
X50392014Y67541300D01*
X50611227Y67497695D01*
X50611227Y67497695D01*
G37*
G36*
X27638568Y68013177D02*
X27809637Y67942317D01*
X27963596Y67839445D01*
X28094525Y67708516D01*
X28197397Y67554557D01*
X28268257Y67383488D01*
X28304380Y67201883D01*
X28304380Y67016717D01*
X28268257Y66835112D01*
X28197397Y66664043D01*
X28094525Y66510084D01*
X27963596Y66379155D01*
X27809637Y66276283D01*
X27638568Y66205423D01*
X27456963Y66169300D01*
X27271797Y66169300D01*
X27090192Y66205423D01*
X26919123Y66276283D01*
X26765164Y66379155D01*
X26634235Y66510084D01*
X26531363Y66664043D01*
X26460503Y66835112D01*
X26424380Y67016717D01*
X26424380Y67201883D01*
X26460503Y67383488D01*
X26531363Y67554557D01*
X26634235Y67708516D01*
X26765164Y67839445D01*
X26919123Y67942317D01*
X27090192Y68013177D01*
X27271797Y68049300D01*
X27456963Y68049300D01*
X27638568Y68013177D01*
X27638568Y68013177D01*
G37*
G36*
X30178568Y68013177D02*
X30349637Y67942317D01*
X30503596Y67839445D01*
X30634525Y67708516D01*
X30737397Y67554557D01*
X30808257Y67383488D01*
X30844380Y67201883D01*
X30844380Y67016717D01*
X30808257Y66835112D01*
X30737397Y66664043D01*
X30634525Y66510084D01*
X30503596Y66379155D01*
X30349637Y66276283D01*
X30178568Y66205423D01*
X29996963Y66169300D01*
X29811797Y66169300D01*
X29630192Y66205423D01*
X29459123Y66276283D01*
X29305164Y66379155D01*
X29174235Y66510084D01*
X29071363Y66664043D01*
X29000503Y66835112D01*
X28964380Y67016717D01*
X28964380Y67201883D01*
X29000503Y67383488D01*
X29071363Y67554557D01*
X29174235Y67708516D01*
X29305164Y67839445D01*
X29459123Y67942317D01*
X29630192Y68013177D01*
X29811797Y68049300D01*
X29996963Y68049300D01*
X30178568Y68013177D01*
X30178568Y68013177D01*
G37*
G36*
X37798568Y68013177D02*
X37969637Y67942317D01*
X38123596Y67839445D01*
X38254525Y67708516D01*
X38357397Y67554557D01*
X38428257Y67383488D01*
X38464380Y67201883D01*
X38464380Y67016717D01*
X38428257Y66835112D01*
X38357397Y66664043D01*
X38254525Y66510084D01*
X38123596Y66379155D01*
X37969637Y66276283D01*
X37798568Y66205423D01*
X37616963Y66169300D01*
X37431797Y66169300D01*
X37250192Y66205423D01*
X37079123Y66276283D01*
X36925164Y66379155D01*
X36794235Y66510084D01*
X36691363Y66664043D01*
X36620503Y66835112D01*
X36584380Y67016717D01*
X36584380Y67201883D01*
X36620503Y67383488D01*
X36691363Y67554557D01*
X36794235Y67708516D01*
X36925164Y67839445D01*
X37079123Y67942317D01*
X37250192Y68013177D01*
X37431797Y68049300D01*
X37616963Y68049300D01*
X37798568Y68013177D01*
X37798568Y68013177D01*
G37*
G36*
X45418568Y68013177D02*
X45589637Y67942317D01*
X45743596Y67839445D01*
X45874525Y67708516D01*
X45977397Y67554557D01*
X46048257Y67383488D01*
X46084380Y67201883D01*
X46084380Y67016717D01*
X46048257Y66835112D01*
X45977397Y66664043D01*
X45874525Y66510084D01*
X45743596Y66379155D01*
X45589637Y66276283D01*
X45418568Y66205423D01*
X45236963Y66169300D01*
X45051797Y66169300D01*
X44870192Y66205423D01*
X44699123Y66276283D01*
X44545164Y66379155D01*
X44414235Y66510084D01*
X44311363Y66664043D01*
X44240503Y66835112D01*
X44204380Y67016717D01*
X44204380Y67201883D01*
X44240503Y67383488D01*
X44311363Y67554557D01*
X44414235Y67708516D01*
X44545164Y67839445D01*
X44699123Y67942317D01*
X44870192Y68013177D01*
X45051797Y68049300D01*
X45236963Y68049300D01*
X45418568Y68013177D01*
X45418568Y68013177D01*
G37*
G36*
X35258568Y68013177D02*
X35429637Y67942317D01*
X35583596Y67839445D01*
X35714525Y67708516D01*
X35817397Y67554557D01*
X35888257Y67383488D01*
X35924380Y67201883D01*
X35924380Y67016717D01*
X35888257Y66835112D01*
X35817397Y66664043D01*
X35714525Y66510084D01*
X35583596Y66379155D01*
X35429637Y66276283D01*
X35258568Y66205423D01*
X35076963Y66169300D01*
X34891797Y66169300D01*
X34710192Y66205423D01*
X34539123Y66276283D01*
X34385164Y66379155D01*
X34254235Y66510084D01*
X34151363Y66664043D01*
X34080503Y66835112D01*
X34044380Y67016717D01*
X34044380Y67201883D01*
X34080503Y67383488D01*
X34151363Y67554557D01*
X34254235Y67708516D01*
X34385164Y67839445D01*
X34539123Y67942317D01*
X34710192Y68013177D01*
X34891797Y68049300D01*
X35076963Y68049300D01*
X35258568Y68013177D01*
X35258568Y68013177D01*
G37*
G36*
X42878568Y68013177D02*
X43049637Y67942317D01*
X43203596Y67839445D01*
X43334525Y67708516D01*
X43437397Y67554557D01*
X43508257Y67383488D01*
X43544380Y67201883D01*
X43544380Y67016717D01*
X43508257Y66835112D01*
X43437397Y66664043D01*
X43334525Y66510084D01*
X43203596Y66379155D01*
X43049637Y66276283D01*
X42878568Y66205423D01*
X42696963Y66169300D01*
X42511797Y66169300D01*
X42330192Y66205423D01*
X42159123Y66276283D01*
X42005164Y66379155D01*
X41874235Y66510084D01*
X41771363Y66664043D01*
X41700503Y66835112D01*
X41664380Y67016717D01*
X41664380Y67201883D01*
X41700503Y67383488D01*
X41771363Y67554557D01*
X41874235Y67708516D01*
X42005164Y67839445D01*
X42159123Y67942317D01*
X42330192Y68013177D01*
X42511797Y68049300D01*
X42696963Y68049300D01*
X42878568Y68013177D01*
X42878568Y68013177D01*
G37*
G36*
X51938959Y71555188D02*
X52064924Y71530132D01*
X52212371Y71469057D01*
X52420892Y71382685D01*
X52741260Y71168622D01*
X53013702Y70896180D01*
X53227765Y70575812D01*
X53237141Y70553176D01*
X53375212Y70219844D01*
X53450380Y69841949D01*
X53450380Y69456651D01*
X53375212Y69078756D01*
X53314137Y68931309D01*
X53227765Y68722788D01*
X53013702Y68402420D01*
X52741260Y68129978D01*
X52420892Y67915915D01*
X52236277Y67839445D01*
X52064924Y67768468D01*
X51938959Y67743412D01*
X51687031Y67693300D01*
X51301729Y67693300D01*
X51049801Y67743412D01*
X50923836Y67768468D01*
X50752483Y67839445D01*
X50567868Y67915915D01*
X50247500Y68129978D01*
X49975058Y68402420D01*
X49760995Y68722788D01*
X49674623Y68931309D01*
X49613548Y69078756D01*
X49538380Y69456651D01*
X49538380Y69841949D01*
X49613548Y70219844D01*
X49751619Y70553176D01*
X49760995Y70575812D01*
X49975058Y70896180D01*
X50247500Y71168622D01*
X50567868Y71382685D01*
X50776389Y71469057D01*
X50923836Y71530132D01*
X51049801Y71555188D01*
X51301729Y71605300D01*
X51687031Y71605300D01*
X51938959Y71555188D01*
X51938959Y71555188D01*
G37*
G36*
X21458959Y71555188D02*
X21584924Y71530132D01*
X21732371Y71469057D01*
X21940892Y71382685D01*
X22261260Y71168622D01*
X22533702Y70896180D01*
X22747765Y70575812D01*
X22757141Y70553176D01*
X22895212Y70219844D01*
X22970380Y69841949D01*
X22970380Y69456651D01*
X22895212Y69078756D01*
X22834137Y68931309D01*
X22747765Y68722788D01*
X22533702Y68402420D01*
X22261260Y68129978D01*
X21940892Y67915915D01*
X21756277Y67839445D01*
X21584924Y67768468D01*
X21458959Y67743412D01*
X21207031Y67693300D01*
X20821729Y67693300D01*
X20569801Y67743412D01*
X20443836Y67768468D01*
X20272483Y67839445D01*
X20087868Y67915915D01*
X19767500Y68129978D01*
X19495058Y68402420D01*
X19280995Y68722788D01*
X19194623Y68931309D01*
X19133548Y69078756D01*
X19058380Y69456651D01*
X19058380Y69841949D01*
X19133548Y70219844D01*
X19271619Y70553176D01*
X19280995Y70575812D01*
X19495058Y70896180D01*
X19767500Y71168622D01*
X20087868Y71382685D01*
X20296389Y71469057D01*
X20443836Y71530132D01*
X20569801Y71555188D01*
X20821729Y71605300D01*
X21207031Y71605300D01*
X21458959Y71555188D01*
X21458959Y71555188D01*
G37*
G36*
X30178568Y70553177D02*
X30349637Y70482317D01*
X30503596Y70379445D01*
X30634525Y70248516D01*
X30737397Y70094557D01*
X30808257Y69923488D01*
X30844380Y69741883D01*
X30844380Y69556717D01*
X30808257Y69375112D01*
X30737397Y69204043D01*
X30634525Y69050084D01*
X30503596Y68919155D01*
X30349637Y68816283D01*
X30178568Y68745423D01*
X29996963Y68709300D01*
X29811797Y68709300D01*
X29630192Y68745423D01*
X29459123Y68816283D01*
X29305164Y68919155D01*
X29174235Y69050084D01*
X29071363Y69204043D01*
X29000503Y69375112D01*
X28964380Y69556717D01*
X28964380Y69741883D01*
X29000503Y69923488D01*
X29071363Y70094557D01*
X29174235Y70248516D01*
X29305164Y70379445D01*
X29459123Y70482317D01*
X29630192Y70553177D01*
X29811797Y70589300D01*
X29996963Y70589300D01*
X30178568Y70553177D01*
X30178568Y70553177D01*
G37*
G36*
X27638568Y70553177D02*
X27809637Y70482317D01*
X27963596Y70379445D01*
X28094525Y70248516D01*
X28197397Y70094557D01*
X28268257Y69923488D01*
X28304380Y69741883D01*
X28304380Y69556717D01*
X28268257Y69375112D01*
X28197397Y69204043D01*
X28094525Y69050084D01*
X27963596Y68919155D01*
X27809637Y68816283D01*
X27638568Y68745423D01*
X27456963Y68709300D01*
X27271797Y68709300D01*
X27090192Y68745423D01*
X26919123Y68816283D01*
X26765164Y68919155D01*
X26634235Y69050084D01*
X26531363Y69204043D01*
X26460503Y69375112D01*
X26424380Y69556717D01*
X26424380Y69741883D01*
X26460503Y69923488D01*
X26531363Y70094557D01*
X26634235Y70248516D01*
X26765164Y70379445D01*
X26919123Y70482317D01*
X27090192Y70553177D01*
X27271797Y70589300D01*
X27456963Y70589300D01*
X27638568Y70553177D01*
X27638568Y70553177D01*
G37*
G36*
X35258568Y70553177D02*
X35429637Y70482317D01*
X35583596Y70379445D01*
X35714525Y70248516D01*
X35817397Y70094557D01*
X35888257Y69923488D01*
X35924380Y69741883D01*
X35924380Y69556717D01*
X35888257Y69375112D01*
X35817397Y69204043D01*
X35714525Y69050084D01*
X35583596Y68919155D01*
X35429637Y68816283D01*
X35258568Y68745423D01*
X35076963Y68709300D01*
X34891797Y68709300D01*
X34710192Y68745423D01*
X34539123Y68816283D01*
X34385164Y68919155D01*
X34254235Y69050084D01*
X34151363Y69204043D01*
X34080503Y69375112D01*
X34044380Y69556717D01*
X34044380Y69741883D01*
X34080503Y69923488D01*
X34151363Y70094557D01*
X34254235Y70248516D01*
X34385164Y70379445D01*
X34539123Y70482317D01*
X34710192Y70553177D01*
X34891797Y70589300D01*
X35076963Y70589300D01*
X35258568Y70553177D01*
X35258568Y70553177D01*
G37*
G36*
X37798568Y70553177D02*
X37969637Y70482317D01*
X38123596Y70379445D01*
X38254525Y70248516D01*
X38357397Y70094557D01*
X38428257Y69923488D01*
X38464380Y69741883D01*
X38464380Y69556717D01*
X38428257Y69375112D01*
X38357397Y69204043D01*
X38254525Y69050084D01*
X38123596Y68919155D01*
X37969637Y68816283D01*
X37798568Y68745423D01*
X37616963Y68709300D01*
X37431797Y68709300D01*
X37250192Y68745423D01*
X37079123Y68816283D01*
X36925164Y68919155D01*
X36794235Y69050084D01*
X36691363Y69204043D01*
X36620503Y69375112D01*
X36584380Y69556717D01*
X36584380Y69741883D01*
X36620503Y69923488D01*
X36691363Y70094557D01*
X36794235Y70248516D01*
X36925164Y70379445D01*
X37079123Y70482317D01*
X37250192Y70553177D01*
X37431797Y70589300D01*
X37616963Y70589300D01*
X37798568Y70553177D01*
X37798568Y70553177D01*
G37*
G36*
X45418568Y70553177D02*
X45589637Y70482317D01*
X45743596Y70379445D01*
X45874525Y70248516D01*
X45977397Y70094557D01*
X46048257Y69923488D01*
X46084380Y69741883D01*
X46084380Y69556717D01*
X46048257Y69375112D01*
X45977397Y69204043D01*
X45874525Y69050084D01*
X45743596Y68919155D01*
X45589637Y68816283D01*
X45418568Y68745423D01*
X45236963Y68709300D01*
X45051797Y68709300D01*
X44870192Y68745423D01*
X44699123Y68816283D01*
X44545164Y68919155D01*
X44414235Y69050084D01*
X44311363Y69204043D01*
X44240503Y69375112D01*
X44204380Y69556717D01*
X44204380Y69741883D01*
X44240503Y69923488D01*
X44311363Y70094557D01*
X44414235Y70248516D01*
X44545164Y70379445D01*
X44699123Y70482317D01*
X44870192Y70553177D01*
X45051797Y70589300D01*
X45236963Y70589300D01*
X45418568Y70553177D01*
X45418568Y70553177D01*
G37*
G36*
X42878568Y70553177D02*
X43049637Y70482317D01*
X43203596Y70379445D01*
X43334525Y70248516D01*
X43437397Y70094557D01*
X43508257Y69923488D01*
X43544380Y69741883D01*
X43544380Y69556717D01*
X43508257Y69375112D01*
X43437397Y69204043D01*
X43334525Y69050084D01*
X43203596Y68919155D01*
X43049637Y68816283D01*
X42878568Y68745423D01*
X42696963Y68709300D01*
X42511797Y68709300D01*
X42330192Y68745423D01*
X42159123Y68816283D01*
X42005164Y68919155D01*
X41874235Y69050084D01*
X41771363Y69204043D01*
X41700503Y69375112D01*
X41664380Y69556717D01*
X41664380Y69741883D01*
X41700503Y69923488D01*
X41771363Y70094557D01*
X41874235Y70248516D01*
X42005164Y70379445D01*
X42159123Y70482317D01*
X42330192Y70553177D01*
X42511797Y70589300D01*
X42696963Y70589300D01*
X42878568Y70553177D01*
X42878568Y70553177D01*
G37*
G36*
X654406Y74115718D02*
X1054965Y73949801D01*
X1415459Y73708927D01*
X1722027Y73402359D01*
X1962901Y73041865D01*
X2128818Y72641306D01*
X2213400Y72216081D01*
X2213400Y71782519D01*
X2128818Y71357294D01*
X1962901Y70956735D01*
X1722027Y70596241D01*
X1415459Y70289673D01*
X1054965Y70048799D01*
X654406Y69882882D01*
X229181Y69798300D01*
X-204381Y69798300D01*
X-629606Y69882882D01*
X-1030165Y70048799D01*
X-1390659Y70289673D01*
X-1697227Y70596241D01*
X-1938101Y70956735D01*
X-2104018Y71357294D01*
X-2188600Y71782519D01*
X-2188600Y72216081D01*
X-2104018Y72641306D01*
X-1938101Y73041865D01*
X-1697227Y73402359D01*
X-1390659Y73708927D01*
X-1030165Y73949801D01*
X-629606Y74115718D01*
X-204381Y74200300D01*
X229181Y74200300D01*
X654406Y74115718D01*
X654406Y74115718D01*
G37*
G36*
X72654406Y74115718D02*
X73054965Y73949801D01*
X73415459Y73708927D01*
X73722027Y73402359D01*
X73962901Y73041865D01*
X74128818Y72641306D01*
X74213400Y72216081D01*
X74213400Y71782519D01*
X74128818Y71357294D01*
X73962901Y70956735D01*
X73722027Y70596241D01*
X73415459Y70289673D01*
X73054965Y70048799D01*
X72654406Y69882882D01*
X72229181Y69798300D01*
X71795619Y69798300D01*
X71370394Y69882882D01*
X70969835Y70048799D01*
X70609341Y70289673D01*
X70302773Y70596241D01*
X70061899Y70956735D01*
X69895982Y71357294D01*
X69811400Y71782519D01*
X69811400Y72216081D01*
X69895982Y72641306D01*
X70061899Y73041865D01*
X70302773Y73402359D01*
X70609341Y73708927D01*
X70969835Y73949801D01*
X71370394Y74115718D01*
X71795619Y74200300D01*
X72229181Y74200300D01*
X72654406Y74115718D01*
X72654406Y74115718D01*
G37*
G36*
X45418568Y73093177D02*
X45589637Y73022317D01*
X45743596Y72919445D01*
X45874525Y72788516D01*
X45977397Y72634557D01*
X46048257Y72463488D01*
X46084380Y72281883D01*
X46084380Y72096717D01*
X46048257Y71915112D01*
X45977397Y71744043D01*
X45874525Y71590084D01*
X45743596Y71459155D01*
X45589637Y71356283D01*
X45418568Y71285423D01*
X45236963Y71249300D01*
X45051797Y71249300D01*
X44870192Y71285423D01*
X44699123Y71356283D01*
X44545164Y71459155D01*
X44414235Y71590084D01*
X44311363Y71744043D01*
X44240503Y71915112D01*
X44204380Y72096717D01*
X44204380Y72281883D01*
X44240503Y72463488D01*
X44311363Y72634557D01*
X44414235Y72788516D01*
X44545164Y72919445D01*
X44699123Y73022317D01*
X44870192Y73093177D01*
X45051797Y73129300D01*
X45236963Y73129300D01*
X45418568Y73093177D01*
X45418568Y73093177D01*
G37*
G36*
X37798568Y73093177D02*
X37969637Y73022317D01*
X38123596Y72919445D01*
X38254525Y72788516D01*
X38357397Y72634557D01*
X38428257Y72463488D01*
X38464380Y72281883D01*
X38464380Y72096717D01*
X38428257Y71915112D01*
X38357397Y71744043D01*
X38254525Y71590084D01*
X38123596Y71459155D01*
X37969637Y71356283D01*
X37798568Y71285423D01*
X37616963Y71249300D01*
X37431797Y71249300D01*
X37250192Y71285423D01*
X37079123Y71356283D01*
X36925164Y71459155D01*
X36794235Y71590084D01*
X36691363Y71744043D01*
X36620503Y71915112D01*
X36584380Y72096717D01*
X36584380Y72281883D01*
X36620503Y72463488D01*
X36691363Y72634557D01*
X36794235Y72788516D01*
X36925164Y72919445D01*
X37079123Y73022317D01*
X37250192Y73093177D01*
X37431797Y73129300D01*
X37616963Y73129300D01*
X37798568Y73093177D01*
X37798568Y73093177D01*
G37*
G36*
X30178568Y73093177D02*
X30349637Y73022317D01*
X30503596Y72919445D01*
X30634525Y72788516D01*
X30737397Y72634557D01*
X30808257Y72463488D01*
X30844380Y72281883D01*
X30844380Y72096717D01*
X30808257Y71915112D01*
X30737397Y71744043D01*
X30634525Y71590084D01*
X30503596Y71459155D01*
X30349637Y71356283D01*
X30178568Y71285423D01*
X29996963Y71249300D01*
X29811797Y71249300D01*
X29630192Y71285423D01*
X29459123Y71356283D01*
X29305164Y71459155D01*
X29174235Y71590084D01*
X29071363Y71744043D01*
X29000503Y71915112D01*
X28964380Y72096717D01*
X28964380Y72281883D01*
X29000503Y72463488D01*
X29071363Y72634557D01*
X29174235Y72788516D01*
X29305164Y72919445D01*
X29459123Y73022317D01*
X29630192Y73093177D01*
X29811797Y73129300D01*
X29996963Y73129300D01*
X30178568Y73093177D01*
X30178568Y73093177D01*
G37*
G36*
X27638568Y73093177D02*
X27809637Y73022317D01*
X27963596Y72919445D01*
X28094525Y72788516D01*
X28197397Y72634557D01*
X28268257Y72463488D01*
X28304380Y72281883D01*
X28304380Y72096717D01*
X28268257Y71915112D01*
X28197397Y71744043D01*
X28094525Y71590084D01*
X27963596Y71459155D01*
X27809637Y71356283D01*
X27638568Y71285423D01*
X27456963Y71249300D01*
X27271797Y71249300D01*
X27090192Y71285423D01*
X26919123Y71356283D01*
X26765164Y71459155D01*
X26634235Y71590084D01*
X26531363Y71744043D01*
X26460503Y71915112D01*
X26424380Y72096717D01*
X26424380Y72281883D01*
X26460503Y72463488D01*
X26531363Y72634557D01*
X26634235Y72788516D01*
X26765164Y72919445D01*
X26919123Y73022317D01*
X27090192Y73093177D01*
X27271797Y73129300D01*
X27456963Y73129300D01*
X27638568Y73093177D01*
X27638568Y73093177D01*
G37*
G36*
X42878568Y73093177D02*
X43049637Y73022317D01*
X43203596Y72919445D01*
X43334525Y72788516D01*
X43437397Y72634557D01*
X43508257Y72463488D01*
X43544380Y72281883D01*
X43544380Y72096717D01*
X43508257Y71915112D01*
X43437397Y71744043D01*
X43334525Y71590084D01*
X43203596Y71459155D01*
X43049637Y71356283D01*
X42878568Y71285423D01*
X42696963Y71249300D01*
X42511797Y71249300D01*
X42330192Y71285423D01*
X42159123Y71356283D01*
X42005164Y71459155D01*
X41874235Y71590084D01*
X41771363Y71744043D01*
X41700503Y71915112D01*
X41664380Y72096717D01*
X41664380Y72281883D01*
X41700503Y72463488D01*
X41771363Y72634557D01*
X41874235Y72788516D01*
X42005164Y72919445D01*
X42159123Y73022317D01*
X42330192Y73093177D01*
X42511797Y73129300D01*
X42696963Y73129300D01*
X42878568Y73093177D01*
X42878568Y73093177D01*
G37*
G36*
X35258568Y73093177D02*
X35429637Y73022317D01*
X35583596Y72919445D01*
X35714525Y72788516D01*
X35817397Y72634557D01*
X35888257Y72463488D01*
X35924380Y72281883D01*
X35924380Y72096717D01*
X35888257Y71915112D01*
X35817397Y71744043D01*
X35714525Y71590084D01*
X35583596Y71459155D01*
X35429637Y71356283D01*
X35258568Y71285423D01*
X35076963Y71249300D01*
X34891797Y71249300D01*
X34710192Y71285423D01*
X34539123Y71356283D01*
X34385164Y71459155D01*
X34254235Y71590084D01*
X34151363Y71744043D01*
X34080503Y71915112D01*
X34044380Y72096717D01*
X34044380Y72281883D01*
X34080503Y72463488D01*
X34151363Y72634557D01*
X34254235Y72788516D01*
X34385164Y72919445D01*
X34539123Y73022317D01*
X34710192Y73093177D01*
X34891797Y73129300D01*
X35076963Y73129300D01*
X35258568Y73093177D01*
X35258568Y73093177D01*
G37*
M02*
