G04 #@! TF.GenerationSoftware,KiCad,Pcbnew,(5.0.1)-3*
G04 #@! TF.CreationDate,2020-07-01T10:05:03+02:00*
G04 #@! TF.ProjectId,alim winterfell,616C696D2077696E74657266656C6C2E,rev?*
G04 #@! TF.SameCoordinates,PX632eb2cPY5b8d544*
G04 #@! TF.FileFunction,Legend,Top*
G04 #@! TF.FilePolarity,Positive*
%FSLAX46Y46*%
G04 Gerber Fmt 4.6, Leading zero omitted, Abs format (unit mm)*
G04 Created by KiCad (PCBNEW (5.0.1)-3) date 01/07/2020 10:05:03*
%MOMM*%
%LPD*%
G01*
G04 APERTURE LIST*
%ADD10C,0.500000*%
%ADD11C,0.120000*%
%ADD12C,0.200000*%
%ADD13C,0.150000*%
G04 APERTURE END LIST*
D10*
X21250292Y8451681D02*
X21250292Y7023110D01*
X21250292Y7737396D02*
X18750292Y7737396D01*
X19107435Y7499300D01*
X19345530Y7261205D01*
X19464578Y7023110D01*
X18988387Y9404062D02*
X18869340Y9523110D01*
X18750292Y9761205D01*
X18750292Y10356443D01*
X18869340Y10594539D01*
X18988387Y10713586D01*
X19226482Y10832634D01*
X19464578Y10832634D01*
X19821720Y10713586D01*
X21250292Y9285015D01*
X21250292Y10832634D01*
X18750292Y11546920D02*
X21250292Y12380253D01*
X18750292Y13213586D01*
X51350860Y8094539D02*
X51231812Y7856443D01*
X51231812Y7499300D01*
X51350860Y7142158D01*
X51588955Y6904062D01*
X51827050Y6785015D01*
X52303240Y6665967D01*
X52660383Y6665967D01*
X53136574Y6785015D01*
X53374669Y6904062D01*
X53612764Y7142158D01*
X53731812Y7499300D01*
X53731812Y7737396D01*
X53612764Y8094539D01*
X53493717Y8213586D01*
X52660383Y8213586D01*
X52660383Y7737396D01*
X53731812Y9285015D02*
X51231812Y9285015D01*
X53731812Y10713586D01*
X51231812Y10713586D01*
X53731812Y11904062D02*
X51231812Y11904062D01*
X51231812Y12499300D01*
X51350860Y12856443D01*
X51588955Y13094539D01*
X51827050Y13213586D01*
X52303240Y13332634D01*
X52660383Y13332634D01*
X53136574Y13213586D01*
X53374669Y13094539D01*
X53612764Y12856443D01*
X53731812Y12499300D01*
X53731812Y11904062D01*
X56620920Y67368348D02*
X55192349Y67368348D01*
X55906635Y67368348D02*
X55906635Y69868348D01*
X55668540Y69511205D01*
X55430444Y69273110D01*
X55192349Y69154062D01*
X57573301Y69630253D02*
X57692349Y69749300D01*
X57930444Y69868348D01*
X58525682Y69868348D01*
X58763778Y69749300D01*
X58882825Y69630253D01*
X59001873Y69392158D01*
X59001873Y69154062D01*
X58882825Y68796920D01*
X57454254Y67368348D01*
X59001873Y67368348D01*
X59716159Y69868348D02*
X60549492Y67368348D01*
X61382825Y69868348D01*
X12309078Y69749300D02*
X12070982Y69868348D01*
X11713840Y69868348D01*
X11356697Y69749300D01*
X11118601Y69511205D01*
X10999554Y69273110D01*
X10880506Y68796920D01*
X10880506Y68439777D01*
X10999554Y67963586D01*
X11118601Y67725491D01*
X11356697Y67487396D01*
X11713840Y67368348D01*
X11951935Y67368348D01*
X12309078Y67487396D01*
X12428125Y67606443D01*
X12428125Y68439777D01*
X11951935Y68439777D01*
X13499554Y67368348D02*
X13499554Y69868348D01*
X14928125Y67368348D01*
X14928125Y69868348D01*
X16118601Y67368348D02*
X16118601Y69868348D01*
X16713840Y69868348D01*
X17070982Y69749300D01*
X17309078Y69511205D01*
X17428125Y69273110D01*
X17547173Y68796920D01*
X17547173Y68439777D01*
X17428125Y67963586D01*
X17309078Y67725491D01*
X17070982Y67487396D01*
X16713840Y67368348D01*
X16118601Y67368348D01*
D11*
G04 #@! TO.C,D1*
X17755700Y33014020D02*
X21805700Y33014020D01*
X17755700Y31314020D02*
X21805700Y31314020D01*
X17705700Y33014020D02*
X17705700Y31314020D01*
G04 #@! TO.C,R1*
X27597860Y33251800D02*
X29597860Y33251800D01*
X29597860Y31111800D02*
X27597860Y31111800D01*
D12*
G04 #@! TO.C,J4*
X-3000300Y54599300D02*
X-3000300Y44999300D01*
X-3000300Y44999300D02*
X55599700Y44999300D01*
X55599700Y44999300D02*
X55599700Y54599300D01*
X-3000300Y54599300D02*
X55599700Y54599300D01*
G04 #@! TO.C,J5*
X53653380Y75999300D02*
X53653380Y60505300D01*
X18855380Y75999300D02*
X53653380Y75999300D01*
X18855380Y60505300D02*
X18855380Y75999300D01*
X18855380Y60505300D02*
X53653380Y60505300D01*
G04 #@! TO.C,J1*
X75804480Y26429080D02*
X75144080Y26429080D01*
X75804480Y27859100D02*
X75804480Y26429080D01*
X75118680Y27859100D02*
X75804480Y27859100D01*
X75099700Y31999300D02*
X75099700Y22399300D01*
X75099700Y22399300D02*
X65499700Y22399300D01*
X65499700Y31999300D02*
X65499700Y22399300D01*
X75099700Y31999300D02*
X65499700Y31999300D01*
G04 #@! TO.C,J2*
X75099700Y50999300D02*
X65499700Y50999300D01*
X65499700Y50999300D02*
X65499700Y41399300D01*
X75099700Y41399300D02*
X65499700Y41399300D01*
X75099700Y50999300D02*
X75099700Y41399300D01*
X75118680Y46859100D02*
X75804480Y46859100D01*
X75804480Y46859100D02*
X75804480Y45429080D01*
X75804480Y45429080D02*
X75144080Y45429080D01*
G04 #@! TO.C,J3*
X-2600300Y18499300D02*
X6999700Y18499300D01*
X6999700Y18499300D02*
X6999700Y36499300D01*
X-2600300Y36499300D02*
X6999700Y36499300D01*
X-2600300Y18499300D02*
X-2600300Y36499300D01*
X-2598960Y26424100D02*
X-3457480Y26424100D01*
X-3457480Y26424100D02*
X-3457480Y28257980D01*
X-3457480Y28257980D02*
X-2631980Y28257980D01*
G04 #@! TO.C,D1*
D13*
X19467604Y33311640D02*
X19467604Y34311640D01*
X19705700Y34311640D01*
X19848557Y34264020D01*
X19943795Y34168782D01*
X19991414Y34073544D01*
X20039033Y33883068D01*
X20039033Y33740211D01*
X19991414Y33549735D01*
X19943795Y33454497D01*
X19848557Y33359259D01*
X19705700Y33311640D01*
X19467604Y33311640D01*
X20991414Y33311640D02*
X20419985Y33311640D01*
X20705700Y33311640D02*
X20705700Y34311640D01*
X20610461Y34168782D01*
X20515223Y34073544D01*
X20419985Y34025925D01*
G04 #@! TO.C,R1*
X28431193Y33579420D02*
X28097860Y34055610D01*
X27859764Y33579420D02*
X27859764Y34579420D01*
X28240717Y34579420D01*
X28335955Y34531800D01*
X28383574Y34484181D01*
X28431193Y34388943D01*
X28431193Y34246086D01*
X28383574Y34150848D01*
X28335955Y34103229D01*
X28240717Y34055610D01*
X27859764Y34055610D01*
X29383574Y33579420D02*
X28812145Y33579420D01*
X29097860Y33579420D02*
X29097860Y34579420D01*
X29002621Y34436562D01*
X28907383Y34341324D01*
X28812145Y34293705D01*
G04 #@! TO.C,TP1*
X2162015Y-1799340D02*
X2733443Y-1799340D01*
X2447729Y-2799340D02*
X2447729Y-1799340D01*
X3066777Y-2799340D02*
X3066777Y-1799340D01*
X3447729Y-1799340D01*
X3542967Y-1846960D01*
X3590586Y-1894579D01*
X3638205Y-1989817D01*
X3638205Y-2132674D01*
X3590586Y-2227912D01*
X3542967Y-2275531D01*
X3447729Y-2323150D01*
X3066777Y-2323150D01*
X4590586Y-2799340D02*
X4019158Y-2799340D01*
X4304872Y-2799340D02*
X4304872Y-1799340D01*
X4209634Y-1942198D01*
X4114396Y-2037436D01*
X4019158Y-2085055D01*
G04 #@! TO.C,TP2*
X66992975Y-1083060D02*
X67564403Y-1083060D01*
X67278689Y-2083060D02*
X67278689Y-1083060D01*
X67897737Y-2083060D02*
X67897737Y-1083060D01*
X68278689Y-1083060D01*
X68373927Y-1130680D01*
X68421546Y-1178299D01*
X68469165Y-1273537D01*
X68469165Y-1416394D01*
X68421546Y-1511632D01*
X68373927Y-1559251D01*
X68278689Y-1606870D01*
X67897737Y-1606870D01*
X68850118Y-1178299D02*
X68897737Y-1130680D01*
X68992975Y-1083060D01*
X69231070Y-1083060D01*
X69326308Y-1130680D01*
X69373927Y-1178299D01*
X69421546Y-1273537D01*
X69421546Y-1368775D01*
X69373927Y-1511632D01*
X68802499Y-2083060D01*
X69421546Y-2083060D01*
G04 #@! TO.C,TP3*
X67353655Y74621680D02*
X67925083Y74621680D01*
X67639369Y73621680D02*
X67639369Y74621680D01*
X68258417Y73621680D02*
X68258417Y74621680D01*
X68639369Y74621680D01*
X68734607Y74574060D01*
X68782226Y74526441D01*
X68829845Y74431203D01*
X68829845Y74288346D01*
X68782226Y74193108D01*
X68734607Y74145489D01*
X68639369Y74097870D01*
X68258417Y74097870D01*
X69163179Y74621680D02*
X69782226Y74621680D01*
X69448893Y74240727D01*
X69591750Y74240727D01*
X69686988Y74193108D01*
X69734607Y74145489D01*
X69782226Y74050251D01*
X69782226Y73812156D01*
X69734607Y73716918D01*
X69686988Y73669299D01*
X69591750Y73621680D01*
X69306036Y73621680D01*
X69210798Y73669299D01*
X69163179Y73716918D01*
G04 #@! TO.C,TP4*
X1836895Y74807100D02*
X2408323Y74807100D01*
X2122609Y73807100D02*
X2122609Y74807100D01*
X2741657Y73807100D02*
X2741657Y74807100D01*
X3122609Y74807100D01*
X3217847Y74759480D01*
X3265466Y74711861D01*
X3313085Y74616623D01*
X3313085Y74473766D01*
X3265466Y74378528D01*
X3217847Y74330909D01*
X3122609Y74283290D01*
X2741657Y74283290D01*
X4170228Y74473766D02*
X4170228Y73807100D01*
X3932133Y74854719D02*
X3694038Y74140433D01*
X4313085Y74140433D01*
G04 #@! TO.C,TP5*
X24294695Y22891320D02*
X24866123Y22891320D01*
X24580409Y21891320D02*
X24580409Y22891320D01*
X25199457Y21891320D02*
X25199457Y22891320D01*
X25580409Y22891320D01*
X25675647Y22843700D01*
X25723266Y22796081D01*
X25770885Y22700843D01*
X25770885Y22557986D01*
X25723266Y22462748D01*
X25675647Y22415129D01*
X25580409Y22367510D01*
X25199457Y22367510D01*
X26675647Y22891320D02*
X26199457Y22891320D01*
X26151838Y22415129D01*
X26199457Y22462748D01*
X26294695Y22510367D01*
X26532790Y22510367D01*
X26628028Y22462748D01*
X26675647Y22415129D01*
X26723266Y22319891D01*
X26723266Y22081796D01*
X26675647Y21986558D01*
X26628028Y21938939D01*
X26532790Y21891320D01*
X26294695Y21891320D01*
X26199457Y21938939D01*
X26151838Y21986558D01*
G04 #@! TO.C,TP6*
X41294695Y22891320D02*
X41866123Y22891320D01*
X41580409Y21891320D02*
X41580409Y22891320D01*
X42199457Y21891320D02*
X42199457Y22891320D01*
X42580409Y22891320D01*
X42675647Y22843700D01*
X42723266Y22796081D01*
X42770885Y22700843D01*
X42770885Y22557986D01*
X42723266Y22462748D01*
X42675647Y22415129D01*
X42580409Y22367510D01*
X42199457Y22367510D01*
X43628028Y22891320D02*
X43437552Y22891320D01*
X43342314Y22843700D01*
X43294695Y22796081D01*
X43199457Y22653224D01*
X43151838Y22462748D01*
X43151838Y22081796D01*
X43199457Y21986558D01*
X43247076Y21938939D01*
X43342314Y21891320D01*
X43532790Y21891320D01*
X43628028Y21938939D01*
X43675647Y21986558D01*
X43723266Y22081796D01*
X43723266Y22319891D01*
X43675647Y22415129D01*
X43628028Y22462748D01*
X43532790Y22510367D01*
X43342314Y22510367D01*
X43247076Y22462748D01*
X43199457Y22415129D01*
X43151838Y22319891D01*
G04 #@! TO.C,J4*
X-1393074Y56181900D02*
X-1393074Y55467614D01*
X-1440693Y55324757D01*
X-1535931Y55229519D01*
X-1678788Y55181900D01*
X-1774026Y55181900D01*
X-488312Y55848566D02*
X-488312Y55181900D01*
X-726407Y56229519D02*
X-964502Y55515233D01*
X-345455Y55515233D01*
G04 #@! TO.C,J5*
X54759266Y61802260D02*
X54759266Y61087974D01*
X54711647Y60945117D01*
X54616409Y60849879D01*
X54473552Y60802260D01*
X54378314Y60802260D01*
X55711647Y61802260D02*
X55235457Y61802260D01*
X55187838Y61326069D01*
X55235457Y61373688D01*
X55330695Y61421307D01*
X55568790Y61421307D01*
X55664028Y61373688D01*
X55711647Y61326069D01*
X55759266Y61230831D01*
X55759266Y60992736D01*
X55711647Y60897498D01*
X55664028Y60849879D01*
X55568790Y60802260D01*
X55330695Y60802260D01*
X55235457Y60849879D01*
X55187838Y60897498D01*
G04 #@! TO.C,J1*
X63870040Y20329947D02*
X64584326Y20329947D01*
X64727183Y20282328D01*
X64822421Y20187090D01*
X64870040Y20044233D01*
X64870040Y19948995D01*
X64870040Y21329947D02*
X64870040Y20758519D01*
X64870040Y21044233D02*
X63870040Y21044233D01*
X64012898Y20948995D01*
X64108136Y20853757D01*
X64155755Y20758519D01*
G04 #@! TO.C,J2*
X63870040Y39329947D02*
X64584326Y39329947D01*
X64727183Y39282328D01*
X64822421Y39187090D01*
X64870040Y39044233D01*
X64870040Y38948995D01*
X63965279Y39758519D02*
X63917660Y39806138D01*
X63870040Y39901376D01*
X63870040Y40139471D01*
X63917660Y40234709D01*
X63965279Y40282328D01*
X64060517Y40329947D01*
X64155755Y40329947D01*
X64298612Y40282328D01*
X64870040Y39710900D01*
X64870040Y40329947D01*
G04 #@! TO.C,J3*
X7780500Y35425267D02*
X8494786Y35425267D01*
X8637643Y35377648D01*
X8732881Y35282410D01*
X8780500Y35139553D01*
X8780500Y35044315D01*
X7780500Y35806220D02*
X7780500Y36425267D01*
X8161453Y36091934D01*
X8161453Y36234791D01*
X8209072Y36330029D01*
X8256691Y36377648D01*
X8351929Y36425267D01*
X8590024Y36425267D01*
X8685262Y36377648D01*
X8732881Y36330029D01*
X8780500Y36234791D01*
X8780500Y35949077D01*
X8732881Y35853839D01*
X8685262Y35806220D01*
G04 #@! TD*
M02*
