G04 #@! TF.GenerationSoftware,KiCad,Pcbnew,(5.0.1)-3*
G04 #@! TF.CreationDate,2020-07-01T10:05:05+02:00*
G04 #@! TF.ProjectId,alim winterfell,616C696D2077696E74657266656C6C2E,rev?*
G04 #@! TF.SameCoordinates,PX632eb2cPY5b8d544*
G04 #@! TF.FileFunction,Other,Comment*
%FSLAX46Y46*%
G04 Gerber Fmt 4.6, Leading zero omitted, Abs format (unit mm)*
G04 Created by KiCad (PCBNEW (5.0.1)-3) date 01/07/2020 10:05:05*
%MOMM*%
%LPD*%
G01*
G04 APERTURE LIST*
%ADD10C,0.500000*%
G04 APERTURE END LIST*
D10*
X24010671Y86527758D02*
X24010671Y84384900D01*
X23867814Y83956329D01*
X23582100Y83670615D01*
X23153528Y83527758D01*
X22867814Y83527758D01*
X26867814Y86527758D02*
X25439242Y86527758D01*
X25296385Y85099186D01*
X25439242Y85242043D01*
X25724957Y85384900D01*
X26439242Y85384900D01*
X26724957Y85242043D01*
X26867814Y85099186D01*
X27010671Y84813472D01*
X27010671Y84099186D01*
X26867814Y83813472D01*
X26724957Y83670615D01*
X26439242Y83527758D01*
X25724957Y83527758D01*
X25439242Y83670615D01*
X25296385Y83813472D01*
X30582100Y85527758D02*
X30582100Y82527758D01*
X30582100Y85384900D02*
X30867814Y85527758D01*
X31439242Y85527758D01*
X31724957Y85384900D01*
X31867814Y85242043D01*
X32010671Y84956329D01*
X32010671Y84099186D01*
X31867814Y83813472D01*
X31724957Y83670615D01*
X31439242Y83527758D01*
X30867814Y83527758D01*
X30582100Y83670615D01*
X33296385Y83527758D02*
X33296385Y85527758D01*
X33296385Y84956329D02*
X33439242Y85242043D01*
X33582100Y85384900D01*
X33867814Y85527758D01*
X34153528Y85527758D01*
X36296385Y83670615D02*
X36010671Y83527758D01*
X35439242Y83527758D01*
X35153528Y83670615D01*
X35010671Y83956329D01*
X35010671Y85099186D01*
X35153528Y85384900D01*
X35439242Y85527758D01*
X36010671Y85527758D01*
X36296385Y85384900D01*
X36439242Y85099186D01*
X36439242Y84813472D01*
X35010671Y84527758D01*
X37582100Y83670615D02*
X37867814Y83527758D01*
X38439242Y83527758D01*
X38724957Y83670615D01*
X38867814Y83956329D01*
X38867814Y84099186D01*
X38724957Y84384900D01*
X38439242Y84527758D01*
X38010671Y84527758D01*
X37724957Y84670615D01*
X37582100Y84956329D01*
X37582100Y85099186D01*
X37724957Y85384900D01*
X38010671Y85527758D01*
X38439242Y85527758D01*
X38724957Y85384900D01*
X40010671Y83670615D02*
X40296385Y83527758D01*
X40867814Y83527758D01*
X41153528Y83670615D01*
X41296385Y83956329D01*
X41296385Y84099186D01*
X41153528Y84384900D01*
X40867814Y84527758D01*
X40439242Y84527758D01*
X40153528Y84670615D01*
X40010671Y84956329D01*
X40010671Y85099186D01*
X40153528Y85384900D01*
X40439242Y85527758D01*
X40867814Y85527758D01*
X41153528Y85384900D01*
X42153528Y85527758D02*
X43296385Y85527758D01*
X42582100Y83527758D02*
X42582100Y86099186D01*
X42724957Y86384900D01*
X43010671Y86527758D01*
X43296385Y86527758D01*
X44296385Y83527758D02*
X44296385Y85527758D01*
X44296385Y86527758D02*
X44153528Y86384900D01*
X44296385Y86242043D01*
X44439242Y86384900D01*
X44296385Y86527758D01*
X44296385Y86242043D01*
X45296385Y85527758D02*
X46439242Y85527758D01*
X45724957Y86527758D02*
X45724957Y83956329D01*
X45867814Y83670615D01*
X46153528Y83527758D01*
X46439242Y83527758D01*
X15939242Y80527758D02*
X14082100Y78527758D01*
X14796385Y78527758D02*
X14510671Y78670615D01*
X14367814Y78813472D01*
X14224957Y79099186D01*
X14224957Y79956329D01*
X14367814Y80242043D01*
X14510671Y80384900D01*
X14796385Y80527758D01*
X15224957Y80527758D01*
X15510671Y80384900D01*
X15653528Y80242043D01*
X15796385Y79956329D01*
X15796385Y79099186D01*
X15653528Y78813472D01*
X15510671Y78670615D01*
X15224957Y78527758D01*
X14796385Y78527758D01*
X19367814Y80099186D02*
X21653528Y80099186D01*
X21653528Y79242043D02*
X19367814Y79242043D01*
X25367814Y79670615D02*
X27653528Y79670615D01*
X26510671Y78527758D02*
X26510671Y80813472D01*
X31224957Y81670615D02*
X28653528Y77813472D01*
X32224957Y79670615D02*
X34510671Y79670615D01*
X38796385Y81527758D02*
X39082100Y81527758D01*
X39367814Y81384900D01*
X39510671Y81242043D01*
X39653528Y80956329D01*
X39796385Y80384900D01*
X39796385Y79670615D01*
X39653528Y79099186D01*
X39510671Y78813472D01*
X39367814Y78670615D01*
X39082100Y78527758D01*
X38796385Y78527758D01*
X38510671Y78670615D01*
X38367814Y78813472D01*
X38224957Y79099186D01*
X38082100Y79670615D01*
X38082100Y80384900D01*
X38224957Y80956329D01*
X38367814Y81242043D01*
X38510671Y81384900D01*
X38796385Y81527758D01*
X41082100Y78813472D02*
X41224957Y78670615D01*
X41082100Y78527758D01*
X40939242Y78670615D01*
X41082100Y78813472D01*
X41082100Y78527758D01*
X43082100Y81527758D02*
X43367814Y81527758D01*
X43653528Y81384900D01*
X43796385Y81242043D01*
X43939242Y80956329D01*
X44082100Y80384900D01*
X44082100Y79670615D01*
X43939242Y79099186D01*
X43796385Y78813472D01*
X43653528Y78670615D01*
X43367814Y78527758D01*
X43082100Y78527758D01*
X42796385Y78670615D01*
X42653528Y78813472D01*
X42510671Y79099186D01*
X42367814Y79670615D01*
X42367814Y80384900D01*
X42510671Y80956329D01*
X42653528Y81242043D01*
X42796385Y81384900D01*
X43082100Y81527758D01*
X46796385Y81527758D02*
X45367814Y81527758D01*
X45224957Y80099186D01*
X45367814Y80242043D01*
X45653528Y80384900D01*
X46367814Y80384900D01*
X46653528Y80242043D01*
X46796385Y80099186D01*
X46939242Y79813472D01*
X46939242Y79099186D01*
X46796385Y78813472D01*
X46653528Y78670615D01*
X46367814Y78527758D01*
X45653528Y78527758D01*
X45367814Y78670615D01*
X45224957Y78813472D01*
X48224957Y78527758D02*
X48224957Y80527758D01*
X48224957Y80242043D02*
X48367814Y80384900D01*
X48653528Y80527758D01*
X49082100Y80527758D01*
X49367814Y80384900D01*
X49510671Y80099186D01*
X49510671Y78527758D01*
X49510671Y80099186D02*
X49653528Y80384900D01*
X49939242Y80527758D01*
X50367814Y80527758D01*
X50653528Y80384900D01*
X50796385Y80099186D01*
X50796385Y78527758D01*
X52224957Y78527758D02*
X52224957Y80527758D01*
X52224957Y80242043D02*
X52367814Y80384900D01*
X52653528Y80527758D01*
X53082100Y80527758D01*
X53367814Y80384900D01*
X53510671Y80099186D01*
X53510671Y78527758D01*
X53510671Y80099186D02*
X53653528Y80384900D01*
X53939242Y80527758D01*
X54367814Y80527758D01*
X54653528Y80384900D01*
X54796385Y80099186D01*
X54796385Y78527758D01*
M02*
